<svg width="293.459383" height="236.180625" xmlns="http://www.w3.org/2000/svg" xmlns:xlink="http://www.w3.org/1999/xlink" version="1.1"><g id="crv-background"><path d="M 221.371570 123.090312 L 221.371570 169.241094 L 120.000633 169.241094 L 120.000633 156.444206 L 126.051258 156.444206 L 126.051258 128.832500 L 123.590320 128.832500 L 123.590320 125.551250 L 126.051258 125.551250 L 126.051258 123.858132 L 91.315945 123.858125 L 91.315945 134.738750 L 64.258762 134.738750 L 64.258762 123.687497 L 10.000000 123.687497 L 10.000000 226.180625 L 64.258758 226.180625 L 64.258758 192.357500 L 91.315945 192.357500 L 91.315945 220.123437 L 283.459383 220.123437 L 283.459383 123.090312 L 221.371570 123.090312" stroke="none" fill="white" stroke-width="1px"></path><path d="M 221.371570 10.000000 L 221.371570 56.150781 L 120.000633 56.150781 L 120.000633 43.353893 L 126.051258 43.353893 L 126.051258 15.742187 L 123.590320 15.742187 L 123.590320 12.460937 L 126.051258 12.460937 L 126.051258 10.767819 L 91.315945 10.767812 L 91.315945 21.648438 L 64.258762 21.648438 L 64.258762 10.597185 L 10.000000 10.597185 L 10.000000 113.090312 L 64.258758 113.090312 L 64.258758 79.267187 L 91.315945 79.267187 L 91.315945 107.033125 L 283.459383 107.033125 L 283.459383 10.000000 L 221.371570 10.000000" stroke="none" fill="white" stroke-width="1px"></path></g><g id="crv-nbhd"><path d="M 221.737654 10.000004 L 221.737654 30.485213 L 221.737654 50.970423 L 230.128145 54.319370 L 238.518636 57.668317 L 260.989010 50.217755 L 283.459383 42.767193 L 283.459383 26.383597 L 283.459382 10.000000 L 252.598525 10.000002 L 221.737654 10.000004" stroke="#DD2222" fill="none" stroke-width="1px"></path><path d="M 283.459383 107.033125 L 283.459383 74.900159 L 283.459383 42.767193 L 260.989010 50.217755 L 238.518636 57.668317 L 241.667770 82.350721 L 244.816905 107.033125 L 264.138139 107.033125 L 283.459383 107.033125" stroke="#DD2222" fill="none" stroke-width="1px"></path><path d="M 221.737654 50.970423 L 221.737654 65.060877 L 221.737654 79.151330 L 215.585165 79.151330 L 209.432676 79.151330 L 210.200295 93.092228 L 210.967915 107.033125 L 227.892410 107.033125 L 244.816905 107.033125 L 241.667770 82.350721 L 238.518636 57.668317 L 230.128147 54.319371 L 221.737654 50.970423" stroke="#DD2222" fill="none" stroke-width="1px"></path><path d="M 173.594480 107.033125 L 192.281198 107.033125 L 210.967915 107.033125 L 210.200295 93.092228 L 209.432676 79.151330 L 192.412549 79.151330 L 175.392422 79.151329 L 174.493451 93.092226 L 173.594480 107.033125" stroke="#DD2222" fill="none" stroke-width="1px"></path><path d="M 175.392422 79.151329 L 156.575929 79.151329 L 137.759436 79.151328 L 137.816295 93.092227 L 137.873153 107.033125 L 155.733817 107.033125 L 173.594480 107.033125 L 174.493451 93.092230 L 175.392422 79.151329" stroke="#DD2222" fill="none" stroke-width="1px"></path><path d="M 137.759436 79.151328 L 114.537690 79.151328 L 91.315945 79.151327 L 91.315945 93.092226 L 91.315945 107.033125 L 114.594549 107.033125 L 137.873153 107.033125 L 137.816295 93.092230 L 137.759436 79.151328" stroke="#DD2222" fill="none" stroke-width="1px"></path><path d="M 64.258758 113.090312 L 64.258758 84.620547 L 64.258758 56.150781 L 64.258758 55.856583 L 64.258758 55.562385 L 37.129382 57.841447 L 10.000000 60.120510 L 10.000000 86.605411 L 10.000000 113.090312 L 37.129379 113.090312 L 64.258758 113.090312" stroke="#DD2222" fill="none" stroke-width="1px"></path><path d="M 10.000000 10.597184 L 10.000000 35.358847 L 10.000000 60.120510 L 37.129379 57.841447 L 64.258758 55.562385 L 64.258758 33.079785 L 64.258758 10.597185 L 37.129379 10.597185 L 10.000000 10.597184" stroke="#DD2222" fill="none" stroke-width="1px"></path><path d="M 10.000000 123.687497 L 10.000000 151.561909 L 10.000000 179.436321 L 37.129379 176.855076 L 64.258758 174.273831 L 64.258758 171.757462 L 64.258758 169.241094 L 64.258758 146.464296 L 64.258758 123.687497 L 37.129385 123.687497 L 10.000000 123.687497" stroke="#DD2222" fill="none" stroke-width="1px"></path><path d="M 10.000000 179.436321 L 10.000000 202.808473 L 10.000000 226.180625 L 37.129381 226.180625 L 64.258763 226.180625 L 64.258763 200.227228 L 64.258758 174.273831 L 37.129385 176.855075 L 10.000000 179.436321" stroke="#DD2222" fill="none" stroke-width="1px"></path><path d="M 139.567410 192.043444 L 115.441678 192.043444 L 91.315945 192.043444 L 91.315945 206.083441 L 91.315945 220.123437 L 118.268780 220.123437 L 145.221615 220.123437 L 142.394513 206.083441 L 139.567410 192.043444" stroke="#DD2222" fill="none" stroke-width="1px"></path><path d="M 185.451652 192.043444 L 162.509531 192.043444 L 139.567410 192.043444 L 142.394513 206.083441 L 145.221615 220.123437 L 167.466783 220.123437 L 189.711951 220.123437 L 187.581802 206.083441 L 185.451652 192.043444" stroke="#DD2222" fill="none" stroke-width="1px"></path><path d="M 226.747166 192.043444 L 206.099409 192.043444 L 185.451652 192.043444 L 187.581802 206.083441 L 189.711951 220.123437 L 205.111173 220.123437 L 220.510394 220.123437 L 223.628780 206.083441 L 226.747166 192.043444" stroke="#DD2222" fill="none" stroke-width="1px"></path><path d="M 283.459383 220.123437 L 283.459383 192.919641 L 283.459383 165.715844 L 261.598517 168.677912 L 239.737652 171.639979 L 239.737652 181.841712 L 239.737652 192.043444 L 233.242409 192.043444 L 226.747166 192.043444 L 223.628780 206.083441 L 220.510394 220.123437 L 251.984881 220.123437 L 283.459383 220.123437" stroke="#DD2222" fill="none" stroke-width="1px"></path><path d="M 239.737652 123.090312 L 239.737652 147.365146 L 239.737652 171.639979 L 261.598517 168.677912 L 283.459383 165.715844 L 283.459383 144.403078 L 283.459383 123.090312 L 261.598548 123.090312 L 239.737652 123.090312" stroke="#DD2222" fill="none" stroke-width="1px"></path></g><g id="crv-amen"><path d="M 55.099223 169.990903 L 58.837616 169.635210 L 62.576010 169.279518 L 62.576010 149.044985 L 62.576010 128.810452 L 55.865414 128.810452 L 49.154817 128.810451 L 49.154817 149.400677 L 49.154817 169.990903 L 52.127020 169.990903 L 55.099223 169.990903" stroke="none" fill="#2288CC" stroke-width="1px"></path><path d="M 49.168655 221.069341 L 55.879247 221.069341 L 62.589846 221.069341 L 62.589844 200.306628 L 62.589842 179.543905 L 55.879244 180.182390 L 49.168651 180.820875 L 49.168653 200.945108 L 49.168655 221.069341" stroke="none" fill="#2288CC" stroke-width="1px"></path><path d="M 129.254295 217.315438 L 136.099584 217.315438 L 142.944872 217.315438 L 140.683190 206.083441 L 138.421508 194.851444 L 131.576220 194.851444 L 124.730931 194.851444 L 126.992613 206.083441 L 129.254295 217.315438" stroke="none" fill="#2288CC" stroke-width="1px"></path><path d="M 183.194761 207.137164 L 182.176629 200.426568 L 181.158497 193.715972 L 162.804800 193.715972 L 144.451103 193.715972 L 145.802353 200.426568 L 147.153603 207.137164 L 165.174182 207.137164 L 183.194761 207.137164" stroke="none" fill="#2288CC" stroke-width="1px"></path><path d="M 201.149315 194.851444 L 194.361923 194.851444 L 187.574530 194.851444 L 189.278650 206.083441 L 190.982770 217.315438 L 197.770162 217.315438 L 204.557554 217.315438 L 202.853435 206.083441 L 201.149315 194.851444" stroke="none" fill="#2288CC" stroke-width="1px"></path><path d="M 279.087210 181.545071 L 279.087210 174.773154 L 279.087210 168.001237 L 261.598517 170.370891 L 244.109825 172.740545 L 244.109825 179.512461 L 244.109825 186.284378 L 261.598517 183.914724 L 279.087210 181.545071" stroke="none" fill="#2288CC" stroke-width="1px"></path><path d="M 279.087210 138.189154 L 279.087210 131.478558 L 279.087210 124.767962 L 261.598517 124.767962 L 244.109825 124.767962 L 244.109825 131.478558 L 244.109825 138.189154 L 261.598517 138.189154 L 279.087210 138.189154" stroke="none" fill="#2288CC" stroke-width="1px"></path><path d="M 277.287210 25.098842 L 277.287210 18.388246 L 277.287209 11.677649 L 252.598518 11.677651 L 227.909827 11.677652 L 227.909827 18.388249 L 227.909827 25.098845 L 252.598518 25.098843 L 277.287210 25.098842" stroke="none" fill="#2288CC" stroke-width="1px"></path><path d="M 279.072595 60.114391 L 279.072595 53.044529 L 279.072595 45.974667 L 261.096296 51.935116 L 243.119997 57.895566 L 243.985404 64.678483 L 244.850811 71.461400 L 261.961703 65.787895 L 279.072595 60.114391" stroke="none" fill="#2288CC" stroke-width="1px"></path><path d="M 228.902928 101.790084 L 235.667922 101.790084 L 242.432916 101.790084 L 239.913609 82.044160 L 237.394302 62.298237 L 232.441491 60.321392 L 227.488679 58.344547 L 225.729097 58.569045 L 223.969515 58.793543 L 223.969515 60.958168 L 223.969515 63.122793 L 226.436222 82.456438 L 228.902928 101.790084" stroke="none" fill="#2288CC" stroke-width="1px"></path><path d="M 190.342829 81.939509 L 183.618295 81.939509 L 176.893761 81.939509 L 176.174585 93.092227 L 175.455408 104.244945 L 182.179942 104.244945 L 188.904475 104.244945 L 189.623652 93.092227 L 190.342829 81.939509" stroke="none" fill="#2288CC" stroke-width="1px"></path><path d="M 170.713257 94.241492 L 171.145987 87.530897 L 171.578716 80.820299 L 156.525521 80.820299 L 141.472326 80.820299 L 141.499696 87.530895 L 141.527066 94.241491 L 156.120162 94.241492 L 170.713257 94.241492" stroke="none" fill="#2288CC" stroke-width="1px"></path><path d="M 122.762815 104.244945 L 129.473467 104.244945 L 136.184119 104.244945 L 136.138632 93.092227 L 136.093144 81.939508 L 129.382492 81.939508 L 122.671840 81.939508 L 122.717327 93.092227 L 122.762815 104.244945" stroke="none" fill="#2288CC" stroke-width="1px"></path><path d="M 49.166851 107.407696 L 55.877444 107.407696 L 62.588044 107.407696 L 62.588044 84.396525 L 62.588044 61.385353 L 55.877448 61.949092 L 49.166851 62.512830 L 49.166851 84.960263 L 49.166851 107.407696" stroke="none" fill="#2288CC" stroke-width="1px"></path><path d="M 49.151288 52.264171 L 55.861884 51.700433 L 62.572480 51.136694 L 62.572480 33.150614 L 62.572480 15.164535 L 55.861884 15.164535 L 49.151288 15.164534 L 49.151288 33.714353 L 49.151288 52.264171" stroke="none" fill="#2288CC" stroke-width="1px"></path></g><g id="crv-desk"><path d="M 31.459383 220.180625 L 28.959383 220.180625 L 28.959383 226.180625 L 31.459383 226.180625 L 31.459383 220.180625" stroke="gray" fill="white" stroke-width="1px"></path><path d="M 31.459383 214.180625 L 28.959383 214.180625 L 28.959383 220.180625 L 31.459383 220.180625 L 31.459383 214.180625" stroke="gray" fill="white" stroke-width="1px"></path><path d="M 31.459383 208.180625 L 28.959383 208.180625 L 28.959383 214.180625 L 31.459383 214.180625 L 31.459383 208.180625" stroke="gray" fill="white" stroke-width="1px"></path><path d="M 31.459383 202.180625 L 28.959383 202.180625 L 28.959383 208.180625 L 31.459383 208.180625 L 31.459383 202.180625" stroke="gray" fill="white" stroke-width="1px"></path><path d="M 31.459383 196.180625 L 28.959383 196.180625 L 28.959383 202.180625 L 31.459383 202.180625 L 31.459383 196.180625" stroke="gray" fill="white" stroke-width="1px"></path><path d="M 31.459383 190.180625 L 28.959383 190.180625 L 28.959383 196.180625 L 31.459383 196.180625 L 31.459383 190.180625" stroke="gray" fill="white" stroke-width="1px"></path><path d="M 31.459383 184.180625 L 28.959383 184.180625 L 28.959383 190.180625 L 31.459383 190.180625 L 31.459383 184.180625" stroke="gray" fill="white" stroke-width="1px"></path><path d="M 19.459383 220.180625 L 16.959383 220.180625 L 16.959383 226.180625 L 19.459383 226.180625 L 19.459383 220.180625" stroke="gray" fill="white" stroke-width="1px"></path><path d="M 19.459383 214.180625 L 16.959383 214.180625 L 16.959383 220.180625 L 19.459383 220.180625 L 19.459383 214.180625" stroke="gray" fill="white" stroke-width="1px"></path><path d="M 19.459383 208.180625 L 16.959383 208.180625 L 16.959383 214.180625 L 19.459383 214.180625 L 19.459383 208.180625" stroke="gray" fill="white" stroke-width="1px"></path><path d="M 19.459383 202.180625 L 16.959383 202.180625 L 16.959383 208.180625 L 19.459383 208.180625 L 19.459383 202.180625" stroke="gray" fill="white" stroke-width="1px"></path><path d="M 19.459383 196.180625 L 16.959383 196.180625 L 16.959383 202.180625 L 19.459383 202.180625 L 19.459383 196.180625" stroke="gray" fill="white" stroke-width="1px"></path><path d="M 19.459383 190.180625 L 16.959383 190.180625 L 16.959383 196.180625 L 19.459383 196.180625 L 19.459383 190.180625" stroke="gray" fill="white" stroke-width="1px"></path><path d="M 19.459383 184.180625 L 16.959383 184.180625 L 16.959383 190.180625 L 19.459383 190.180625 L 19.459383 184.180625" stroke="gray" fill="white" stroke-width="1px"></path><path d="M 115.459383 214.123437 L 112.959383 214.123437 L 112.959383 220.123437 L 115.459383 220.123437 L 115.459383 214.123437" stroke="gray" fill="white" stroke-width="1px"></path><path d="M 115.459383 208.123437 L 112.959383 208.123437 L 112.959383 214.123437 L 115.459383 214.123437 L 115.459383 208.123437" stroke="gray" fill="white" stroke-width="1px"></path><path d="M 115.459383 202.123437 L 112.959383 202.123437 L 112.959383 208.123437 L 115.459383 208.123437 L 115.459383 202.123437" stroke="gray" fill="white" stroke-width="1px"></path><path d="M 115.459383 196.123437 L 112.959383 196.123437 L 112.959383 202.123437 L 115.459383 202.123437 L 115.459383 196.123437" stroke="gray" fill="white" stroke-width="1px"></path><path d="M 103.459383 214.123437 L 100.959383 214.123437 L 100.959383 220.123437 L 103.459383 220.123437 L 103.459383 214.123437" stroke="gray" fill="white" stroke-width="1px"></path><path d="M 103.459383 208.123437 L 100.959383 208.123437 L 100.959383 214.123437 L 103.459383 214.123437 L 103.459383 208.123437" stroke="gray" fill="white" stroke-width="1px"></path><path d="M 103.459383 202.123437 L 100.959383 202.123437 L 100.959383 208.123437 L 103.459383 208.123437 L 103.459383 202.123437" stroke="gray" fill="white" stroke-width="1px"></path><path d="M 103.459383 196.123437 L 100.959383 196.123437 L 100.959383 202.123437 L 103.459383 202.123437 L 103.459383 196.123437" stroke="gray" fill="white" stroke-width="1px"></path><path d="M 175.459383 214.123437 L 172.959383 214.123437 L 172.959383 220.123437 L 175.459383 220.123437 L 175.459383 214.123437" stroke="gray" fill="white" stroke-width="1px"></path><path d="M 163.459383 214.123437 L 160.959383 214.123437 L 160.959383 220.123437 L 163.459383 220.123437 L 163.459383 214.123437" stroke="gray" fill="white" stroke-width="1px"></path><path d="M 151.459383 214.123437 L 148.959383 214.123437 L 148.959383 220.123437 L 151.459383 220.123437 L 151.459383 214.123437" stroke="gray" fill="white" stroke-width="1px"></path><path d="M 223.459383 194.846121 L 220.959383 194.846121 L 220.959383 200.846121 L 223.459383 200.846121 L 223.459383 194.846121" stroke="gray" fill="white" stroke-width="1px"></path><path d="M 211.459383 214.123437 L 208.959383 214.123437 L 208.959383 220.123437 L 211.459383 220.123437 L 211.459383 214.123437" stroke="gray" fill="white" stroke-width="1px"></path><path d="M 211.459383 208.123437 L 208.959383 208.123437 L 208.959383 214.123437 L 211.459383 214.123437 L 211.459383 208.123437" stroke="gray" fill="white" stroke-width="1px"></path><path d="M 211.459383 202.123437 L 208.959383 202.123437 L 208.959383 208.123437 L 211.459383 208.123437 L 211.459383 202.123437" stroke="gray" fill="white" stroke-width="1px"></path><path d="M 211.459383 196.123437 L 208.959383 196.123437 L 208.959383 202.123437 L 211.459383 202.123437 L 211.459383 196.123437" stroke="gray" fill="white" stroke-width="1px"></path><path d="M 271.459383 214.123437 L 268.959383 214.123437 L 268.959383 220.123437 L 271.459383 220.123437 L 271.459383 214.123437" stroke="gray" fill="white" stroke-width="1px"></path><path d="M 271.459383 208.123437 L 268.959383 208.123437 L 268.959383 214.123437 L 271.459383 214.123437 L 271.459383 208.123437" stroke="gray" fill="white" stroke-width="1px"></path><path d="M 271.459383 202.123437 L 268.959383 202.123437 L 268.959383 208.123437 L 271.459383 208.123437 L 271.459383 202.123437" stroke="gray" fill="white" stroke-width="1px"></path><path d="M 271.459383 196.123437 L 268.959383 196.123437 L 268.959383 202.123437 L 271.459383 202.123437 L 271.459383 196.123437" stroke="gray" fill="white" stroke-width="1px"></path><path d="M 271.459383 190.123437 L 268.959383 190.123437 L 268.959383 196.123437 L 271.459383 196.123437 L 271.459383 190.123437" stroke="gray" fill="white" stroke-width="1px"></path><path d="M 259.459383 214.123437 L 256.959383 214.123437 L 256.959383 220.123437 L 259.459383 220.123437 L 259.459383 214.123437" stroke="gray" fill="white" stroke-width="1px"></path><path d="M 259.459383 208.123437 L 256.959383 208.123437 L 256.959383 214.123437 L 259.459383 214.123437 L 259.459383 208.123437" stroke="gray" fill="white" stroke-width="1px"></path><path d="M 259.459383 202.123437 L 256.959383 202.123437 L 256.959383 208.123437 L 259.459383 208.123437 L 259.459383 202.123437" stroke="gray" fill="white" stroke-width="1px"></path><path d="M 259.459383 196.123437 L 256.959383 196.123437 L 256.959383 202.123437 L 259.459383 202.123437 L 259.459383 196.123437" stroke="gray" fill="white" stroke-width="1px"></path><path d="M 247.459383 214.123437 L 244.959383 214.123437 L 244.959383 220.123437 L 247.459383 220.123437 L 247.459383 214.123437" stroke="gray" fill="white" stroke-width="1px"></path><path d="M 247.459383 208.123437 L 244.959383 208.123437 L 244.959383 214.123437 L 247.459383 214.123437 L 247.459383 208.123437" stroke="gray" fill="white" stroke-width="1px"></path><path d="M 247.459383 202.123437 L 244.959383 202.123437 L 244.959383 208.123437 L 247.459383 208.123437 L 247.459383 202.123437" stroke="gray" fill="white" stroke-width="1px"></path><path d="M 247.459383 196.123437 L 244.959383 196.123437 L 244.959383 202.123437 L 247.459383 202.123437 L 247.459383 196.123437" stroke="gray" fill="white" stroke-width="1px"></path><path d="M 235.459383 214.123437 L 232.959383 214.123437 L 232.959383 220.123437 L 235.459383 220.123437 L 235.459383 214.123437" stroke="gray" fill="white" stroke-width="1px"></path><path d="M 235.459383 208.123437 L 232.959383 208.123437 L 232.959383 214.123437 L 235.459383 214.123437 L 235.459383 208.123437" stroke="gray" fill="white" stroke-width="1px"></path><path d="M 235.459383 202.123437 L 232.959383 202.123437 L 232.959383 208.123437 L 235.459383 208.123437 L 235.459383 202.123437" stroke="gray" fill="white" stroke-width="1px"></path><path d="M 235.459383 196.123437 L 232.959383 196.123437 L 232.959383 202.123437 L 235.459383 202.123437 L 235.459383 196.123437" stroke="gray" fill="white" stroke-width="1px"></path><path d="M 31.459383 220.180625 L 33.959383 220.180625 L 33.959383 226.180625 L 31.459383 226.180625 L 31.459383 220.180625" stroke="gray" fill="white" stroke-width="1px"></path><path d="M 31.459383 214.180625 L 33.959383 214.180625 L 33.959383 220.180625 L 31.459383 220.180625 L 31.459383 214.180625" stroke="gray" fill="white" stroke-width="1px"></path><path d="M 31.459383 208.180625 L 33.959383 208.180625 L 33.959383 214.180625 L 31.459383 214.180625 L 31.459383 208.180625" stroke="gray" fill="white" stroke-width="1px"></path><path d="M 31.459383 202.180625 L 33.959383 202.180625 L 33.959383 208.180625 L 31.459383 208.180625 L 31.459383 202.180625" stroke="gray" fill="white" stroke-width="1px"></path><path d="M 31.459383 196.180625 L 33.959383 196.180625 L 33.959383 202.180625 L 31.459383 202.180625 L 31.459383 196.180625" stroke="gray" fill="white" stroke-width="1px"></path><path d="M 31.459383 190.180625 L 33.959383 190.180625 L 33.959383 196.180625 L 31.459383 196.180625 L 31.459383 190.180625" stroke="gray" fill="white" stroke-width="1px"></path><path d="M 31.459383 184.180625 L 33.959383 184.180625 L 33.959383 190.180625 L 31.459383 190.180625 L 31.459383 184.180625" stroke="gray" fill="white" stroke-width="1px"></path><path d="M 19.459383 220.180625 L 21.959383 220.180625 L 21.959383 226.180625 L 19.459383 226.180625 L 19.459383 220.180625" stroke="gray" fill="white" stroke-width="1px"></path><path d="M 19.459383 214.180625 L 21.959383 214.180625 L 21.959383 220.180625 L 19.459383 220.180625 L 19.459383 214.180625" stroke="gray" fill="white" stroke-width="1px"></path><path d="M 19.459383 208.180625 L 21.959383 208.180625 L 21.959383 214.180625 L 19.459383 214.180625 L 19.459383 208.180625" stroke="gray" fill="white" stroke-width="1px"></path><path d="M 19.459383 202.180625 L 21.959383 202.180625 L 21.959383 208.180625 L 19.459383 208.180625 L 19.459383 202.180625" stroke="gray" fill="white" stroke-width="1px"></path><path d="M 19.459383 196.180625 L 21.959383 196.180625 L 21.959383 202.180625 L 19.459383 202.180625 L 19.459383 196.180625" stroke="gray" fill="white" stroke-width="1px"></path><path d="M 19.459383 190.180625 L 21.959383 190.180625 L 21.959383 196.180625 L 19.459383 196.180625 L 19.459383 190.180625" stroke="gray" fill="white" stroke-width="1px"></path><path d="M 19.459383 184.180625 L 21.959383 184.180625 L 21.959383 190.180625 L 19.459383 190.180625 L 19.459383 184.180625" stroke="gray" fill="white" stroke-width="1px"></path><path d="M 115.459383 214.123437 L 117.959383 214.123437 L 117.959383 220.123437 L 115.459383 220.123437 L 115.459383 214.123437" stroke="gray" fill="white" stroke-width="1px"></path><path d="M 115.459383 208.123437 L 117.959383 208.123437 L 117.959383 214.123437 L 115.459383 214.123437 L 115.459383 208.123437" stroke="gray" fill="white" stroke-width="1px"></path><path d="M 115.459383 202.123437 L 117.959383 202.123437 L 117.959383 208.123437 L 115.459383 208.123437 L 115.459383 202.123437" stroke="gray" fill="white" stroke-width="1px"></path><path d="M 115.459383 196.123437 L 117.959383 196.123437 L 117.959383 202.123437 L 115.459383 202.123437 L 115.459383 196.123437" stroke="gray" fill="white" stroke-width="1px"></path><path d="M 103.459383 214.123437 L 105.959383 214.123437 L 105.959383 220.123437 L 103.459383 220.123437 L 103.459383 214.123437" stroke="gray" fill="white" stroke-width="1px"></path><path d="M 103.459383 208.123437 L 105.959383 208.123437 L 105.959383 214.123437 L 103.459383 214.123437 L 103.459383 208.123437" stroke="gray" fill="white" stroke-width="1px"></path><path d="M 103.459383 202.123437 L 105.959383 202.123437 L 105.959383 208.123437 L 103.459383 208.123437 L 103.459383 202.123437" stroke="gray" fill="white" stroke-width="1px"></path><path d="M 103.459383 196.123437 L 105.959383 196.123437 L 105.959383 202.123437 L 103.459383 202.123437 L 103.459383 196.123437" stroke="gray" fill="white" stroke-width="1px"></path><path d="M 175.459383 214.123437 L 177.959383 214.123437 L 177.959383 220.123437 L 175.459383 220.123437 L 175.459383 214.123437" stroke="gray" fill="white" stroke-width="1px"></path><path d="M 163.459383 214.123437 L 165.959383 214.123437 L 165.959383 220.123437 L 163.459383 220.123437 L 163.459383 214.123437" stroke="gray" fill="white" stroke-width="1px"></path><path d="M 151.459383 214.123437 L 153.959383 214.123437 L 153.959383 220.123437 L 151.459383 220.123437 L 151.459383 214.123437" stroke="gray" fill="white" stroke-width="1px"></path><path d="M 211.459383 214.123437 L 213.959383 214.123437 L 213.959383 220.123437 L 211.459383 220.123437 L 211.459383 214.123437" stroke="gray" fill="white" stroke-width="1px"></path><path d="M 211.459383 208.123437 L 213.959383 208.123437 L 213.959383 214.123437 L 211.459383 214.123437 L 211.459383 208.123437" stroke="gray" fill="white" stroke-width="1px"></path><path d="M 211.459383 202.123437 L 213.959383 202.123437 L 213.959383 208.123437 L 211.459383 208.123437 L 211.459383 202.123437" stroke="gray" fill="white" stroke-width="1px"></path><path d="M 211.459383 196.123437 L 213.959383 196.123437 L 213.959383 202.123437 L 211.459383 202.123437 L 211.459383 196.123437" stroke="gray" fill="white" stroke-width="1px"></path><path d="M 271.459383 214.123437 L 273.959383 214.123437 L 273.959383 220.123437 L 271.459383 220.123437 L 271.459383 214.123437" stroke="gray" fill="white" stroke-width="1px"></path><path d="M 271.459383 208.123437 L 273.959383 208.123437 L 273.959383 214.123437 L 271.459383 214.123437 L 271.459383 208.123437" stroke="gray" fill="white" stroke-width="1px"></path><path d="M 271.459383 202.123437 L 273.959383 202.123437 L 273.959383 208.123437 L 271.459383 208.123437 L 271.459383 202.123437" stroke="gray" fill="white" stroke-width="1px"></path><path d="M 271.459383 196.123437 L 273.959383 196.123437 L 273.959383 202.123437 L 271.459383 202.123437 L 271.459383 196.123437" stroke="gray" fill="white" stroke-width="1px"></path><path d="M 271.459383 190.123437 L 273.959383 190.123437 L 273.959383 196.123437 L 271.459383 196.123437 L 271.459383 190.123437" stroke="gray" fill="white" stroke-width="1px"></path><path d="M 259.459383 214.123437 L 261.959383 214.123437 L 261.959383 220.123437 L 259.459383 220.123437 L 259.459383 214.123437" stroke="gray" fill="white" stroke-width="1px"></path><path d="M 259.459383 208.123437 L 261.959383 208.123437 L 261.959383 214.123437 L 259.459383 214.123437 L 259.459383 208.123437" stroke="gray" fill="white" stroke-width="1px"></path><path d="M 259.459383 202.123437 L 261.959383 202.123437 L 261.959383 208.123437 L 259.459383 208.123437 L 259.459383 202.123437" stroke="gray" fill="white" stroke-width="1px"></path><path d="M 259.459383 196.123437 L 261.959383 196.123437 L 261.959383 202.123437 L 259.459383 202.123437 L 259.459383 196.123437" stroke="gray" fill="white" stroke-width="1px"></path><path d="M 247.459383 214.123437 L 249.959383 214.123437 L 249.959383 220.123437 L 247.459383 220.123437 L 247.459383 214.123437" stroke="gray" fill="white" stroke-width="1px"></path><path d="M 247.459383 208.123437 L 249.959383 208.123437 L 249.959383 214.123437 L 247.459383 214.123437 L 247.459383 208.123437" stroke="gray" fill="white" stroke-width="1px"></path><path d="M 247.459383 202.123437 L 249.959383 202.123437 L 249.959383 208.123437 L 247.459383 208.123437 L 247.459383 202.123437" stroke="gray" fill="white" stroke-width="1px"></path><path d="M 247.459383 196.123437 L 249.959383 196.123437 L 249.959383 202.123437 L 247.459383 202.123437 L 247.459383 196.123437" stroke="gray" fill="white" stroke-width="1px"></path><path d="M 235.459383 214.123437 L 237.959383 214.123437 L 237.959383 220.123437 L 235.459383 220.123437 L 235.459383 214.123437" stroke="gray" fill="white" stroke-width="1px"></path><path d="M 235.459383 208.123437 L 237.959383 208.123437 L 237.959383 214.123437 L 235.459383 214.123437 L 235.459383 208.123437" stroke="gray" fill="white" stroke-width="1px"></path><path d="M 235.459383 202.123437 L 237.959383 202.123437 L 237.959383 208.123437 L 235.459383 208.123437 L 235.459383 202.123437" stroke="gray" fill="white" stroke-width="1px"></path><path d="M 235.459383 196.123437 L 237.959383 196.123437 L 237.959383 202.123437 L 235.459383 202.123437 L 235.459383 196.123437" stroke="gray" fill="white" stroke-width="1px"></path><path d="M 22.000000 172.123437 L 22.000000 169.623437 L 16.000000 169.623437 L 16.000000 172.123437 L 22.000000 172.123437" stroke="gray" fill="white" stroke-width="1px"></path><path d="M 28.000000 172.123437 L 28.000000 169.623437 L 22.000000 169.623437 L 22.000000 172.123437 L 28.000000 172.123437" stroke="gray" fill="white" stroke-width="1px"></path><path d="M 34.000000 172.123437 L 34.000000 169.623437 L 28.000000 169.623437 L 28.000000 172.123437 L 34.000000 172.123437" stroke="gray" fill="white" stroke-width="1px"></path><path d="M 40.000000 172.123437 L 40.000000 169.623437 L 34.000000 169.623437 L 34.000000 172.123437 L 40.000000 172.123437" stroke="gray" fill="white" stroke-width="1px"></path><path d="M 22.000000 160.123437 L 22.000000 157.623437 L 16.000000 157.623437 L 16.000000 160.123437 L 22.000000 160.123437" stroke="gray" fill="white" stroke-width="1px"></path><path d="M 28.000000 160.123437 L 28.000000 157.623437 L 22.000000 157.623437 L 22.000000 160.123437 L 28.000000 160.123437" stroke="gray" fill="white" stroke-width="1px"></path><path d="M 34.000000 160.123437 L 34.000000 157.623437 L 28.000000 157.623437 L 28.000000 160.123437 L 34.000000 160.123437" stroke="gray" fill="white" stroke-width="1px"></path><path d="M 40.000000 160.123437 L 40.000000 157.623437 L 34.000000 157.623437 L 34.000000 160.123437 L 40.000000 160.123437" stroke="gray" fill="white" stroke-width="1px"></path><path d="M 22.000000 148.123437 L 22.000000 145.623437 L 16.000000 145.623437 L 16.000000 148.123437 L 22.000000 148.123437" stroke="gray" fill="white" stroke-width="1px"></path><path d="M 28.000000 148.123437 L 28.000000 145.623437 L 22.000000 145.623437 L 22.000000 148.123437 L 28.000000 148.123437" stroke="gray" fill="white" stroke-width="1px"></path><path d="M 34.000000 148.123437 L 34.000000 145.623437 L 28.000000 145.623437 L 28.000000 148.123437 L 34.000000 148.123437" stroke="gray" fill="white" stroke-width="1px"></path><path d="M 40.000000 148.123437 L 40.000000 145.623437 L 34.000000 145.623437 L 34.000000 148.123437 L 40.000000 148.123437" stroke="gray" fill="white" stroke-width="1px"></path><path d="M 22.000000 136.123437 L 22.000000 133.623437 L 16.000000 133.623437 L 16.000000 136.123437 L 22.000000 136.123437" stroke="gray" fill="white" stroke-width="1px"></path><path d="M 28.000000 136.123437 L 28.000000 133.623437 L 22.000000 133.623437 L 22.000000 136.123437 L 28.000000 136.123437" stroke="gray" fill="white" stroke-width="1px"></path><path d="M 34.000000 136.123437 L 34.000000 133.623437 L 28.000000 133.623437 L 28.000000 136.123437 L 34.000000 136.123437" stroke="gray" fill="white" stroke-width="1px"></path><path d="M 40.000000 136.123437 L 40.000000 133.623437 L 34.000000 133.623437 L 34.000000 136.123437 L 40.000000 136.123437" stroke="gray" fill="white" stroke-width="1px"></path><path d="M 251.737652 160.123437 L 251.737652 157.623437 L 245.737652 157.623437 L 245.737652 160.123437 L 251.737652 160.123437" stroke="gray" fill="white" stroke-width="1px"></path><path d="M 257.737652 160.123437 L 257.737652 157.623437 L 251.737652 157.623437 L 251.737652 160.123437 L 257.737652 160.123437" stroke="gray" fill="white" stroke-width="1px"></path><path d="M 263.737652 160.123437 L 263.737652 157.623437 L 257.737652 157.623437 L 257.737652 160.123437 L 263.737652 160.123437" stroke="gray" fill="white" stroke-width="1px"></path><path d="M 269.737652 160.123437 L 269.737652 157.623437 L 263.737652 157.623437 L 263.737652 160.123437 L 269.737652 160.123437" stroke="gray" fill="white" stroke-width="1px"></path><path d="M 275.737652 160.123437 L 275.737652 157.623437 L 269.737652 157.623437 L 269.737652 160.123437 L 275.737652 160.123437" stroke="gray" fill="white" stroke-width="1px"></path><path d="M 251.737652 148.123437 L 251.737652 145.623437 L 245.737652 145.623437 L 245.737652 148.123437 L 251.737652 148.123437" stroke="gray" fill="white" stroke-width="1px"></path><path d="M 257.737652 148.123437 L 257.737652 145.623437 L 251.737652 145.623437 L 251.737652 148.123437 L 257.737652 148.123437" stroke="gray" fill="white" stroke-width="1px"></path><path d="M 263.737652 148.123437 L 263.737652 145.623437 L 257.737652 145.623437 L 257.737652 148.123437 L 263.737652 148.123437" stroke="gray" fill="white" stroke-width="1px"></path><path d="M 269.737652 148.123437 L 269.737652 145.623437 L 263.737652 145.623437 L 263.737652 148.123437 L 269.737652 148.123437" stroke="gray" fill="white" stroke-width="1px"></path><path d="M 275.737652 148.123437 L 275.737652 145.623437 L 269.737652 145.623437 L 269.737652 148.123437 L 275.737652 148.123437" stroke="gray" fill="white" stroke-width="1px"></path><path d="M 22.000000 172.123437 L 22.000000 174.623437 L 16.000000 174.623437 L 16.000000 172.123437 L 22.000000 172.123437" stroke="gray" fill="white" stroke-width="1px"></path><path d="M 28.000000 172.123437 L 28.000000 174.623437 L 22.000000 174.623437 L 22.000000 172.123437 L 28.000000 172.123437" stroke="gray" fill="white" stroke-width="1px"></path><path d="M 34.000000 172.123437 L 34.000000 174.623437 L 28.000000 174.623437 L 28.000000 172.123437 L 34.000000 172.123437" stroke="gray" fill="white" stroke-width="1px"></path><path d="M 22.000000 160.123437 L 22.000000 162.623437 L 16.000000 162.623437 L 16.000000 160.123437 L 22.000000 160.123437" stroke="gray" fill="white" stroke-width="1px"></path><path d="M 28.000000 160.123437 L 28.000000 162.623437 L 22.000000 162.623437 L 22.000000 160.123437 L 28.000000 160.123437" stroke="gray" fill="white" stroke-width="1px"></path><path d="M 34.000000 160.123437 L 34.000000 162.623437 L 28.000000 162.623437 L 28.000000 160.123437 L 34.000000 160.123437" stroke="gray" fill="white" stroke-width="1px"></path><path d="M 40.000000 160.123437 L 40.000000 162.623437 L 34.000000 162.623437 L 34.000000 160.123437 L 40.000000 160.123437" stroke="gray" fill="white" stroke-width="1px"></path><path d="M 22.000000 148.123437 L 22.000000 150.623437 L 16.000000 150.623437 L 16.000000 148.123437 L 22.000000 148.123437" stroke="gray" fill="white" stroke-width="1px"></path><path d="M 28.000000 148.123437 L 28.000000 150.623437 L 22.000000 150.623437 L 22.000000 148.123437 L 28.000000 148.123437" stroke="gray" fill="white" stroke-width="1px"></path><path d="M 34.000000 148.123437 L 34.000000 150.623437 L 28.000000 150.623437 L 28.000000 148.123437 L 34.000000 148.123437" stroke="gray" fill="white" stroke-width="1px"></path><path d="M 40.000000 148.123437 L 40.000000 150.623437 L 34.000000 150.623437 L 34.000000 148.123437 L 40.000000 148.123437" stroke="gray" fill="white" stroke-width="1px"></path><path d="M 22.000000 136.123437 L 22.000000 138.623437 L 16.000000 138.623437 L 16.000000 136.123437 L 22.000000 136.123437" stroke="gray" fill="white" stroke-width="1px"></path><path d="M 28.000000 136.123437 L 28.000000 138.623437 L 22.000000 138.623437 L 22.000000 136.123437 L 28.000000 136.123437" stroke="gray" fill="white" stroke-width="1px"></path><path d="M 34.000000 136.123437 L 34.000000 138.623437 L 28.000000 138.623437 L 28.000000 136.123437 L 34.000000 136.123437" stroke="gray" fill="white" stroke-width="1px"></path><path d="M 40.000000 136.123437 L 40.000000 138.623437 L 34.000000 138.623437 L 34.000000 136.123437 L 40.000000 136.123437" stroke="gray" fill="white" stroke-width="1px"></path><path d="M 251.737652 160.123437 L 251.737652 162.623437 L 245.737652 162.623437 L 245.737652 160.123437 L 251.737652 160.123437" stroke="gray" fill="white" stroke-width="1px"></path><path d="M 257.737652 160.123437 L 257.737652 162.623437 L 251.737652 162.623437 L 251.737652 160.123437 L 257.737652 160.123437" stroke="gray" fill="white" stroke-width="1px"></path><path d="M 263.737652 160.123437 L 263.737652 162.623437 L 257.737652 162.623437 L 257.737652 160.123437 L 263.737652 160.123437" stroke="gray" fill="white" stroke-width="1px"></path><path d="M 269.737652 160.123437 L 269.737652 162.623437 L 263.737652 162.623437 L 263.737652 160.123437 L 269.737652 160.123437" stroke="gray" fill="white" stroke-width="1px"></path><path d="M 275.737652 160.123437 L 275.737652 162.623437 L 269.737652 162.623437 L 269.737652 160.123437 L 275.737652 160.123437" stroke="gray" fill="white" stroke-width="1px"></path><path d="M 251.737652 148.123437 L 251.737652 150.623437 L 245.737652 150.623437 L 245.737652 148.123437 L 251.737652 148.123437" stroke="gray" fill="white" stroke-width="1px"></path><path d="M 257.737652 148.123437 L 257.737652 150.623437 L 251.737652 150.623437 L 251.737652 148.123437 L 257.737652 148.123437" stroke="gray" fill="white" stroke-width="1px"></path><path d="M 263.737652 148.123437 L 263.737652 150.623437 L 257.737652 150.623437 L 257.737652 148.123437 L 263.737652 148.123437" stroke="gray" fill="white" stroke-width="1px"></path><path d="M 269.737652 148.123437 L 269.737652 150.623437 L 263.737652 150.623437 L 263.737652 148.123437 L 269.737652 148.123437" stroke="gray" fill="white" stroke-width="1px"></path><path d="M 275.737652 148.123437 L 275.737652 150.623437 L 269.737652 150.623437 L 269.737652 148.123437 L 275.737652 148.123437" stroke="gray" fill="white" stroke-width="1px"></path><path d="M 271.459383 40.746065 L 268.959383 40.746065 L 268.959383 46.746065 L 271.459383 46.746065 L 271.459383 40.746065" stroke="gray" fill="white" stroke-width="1px"></path><path d="M 271.459383 34.746065 L 268.959383 34.746065 L 268.959383 40.746065 L 271.459383 40.746065 L 271.459383 34.746065" stroke="gray" fill="white" stroke-width="1px"></path><path d="M 259.459383 44.724938 L 256.959383 44.724938 L 256.959383 50.724938 L 259.459383 50.724938 L 259.459383 44.724938" stroke="gray" fill="white" stroke-width="1px"></path><path d="M 259.459383 38.724938 L 256.959383 38.724938 L 256.959383 44.724938 L 259.459383 44.724938 L 259.459383 38.724938" stroke="gray" fill="white" stroke-width="1px"></path><path d="M 259.459383 32.724938 L 256.959383 32.724938 L 256.959383 38.724938 L 259.459383 38.724938 L 259.459383 32.724938" stroke="gray" fill="white" stroke-width="1px"></path><path d="M 247.459383 48.703810 L 244.959383 48.703810 L 244.959383 54.703810 L 247.459383 54.703810 L 247.459383 48.703810" stroke="gray" fill="white" stroke-width="1px"></path><path d="M 247.459383 42.703810 L 244.959383 42.703810 L 244.959383 48.703810 L 247.459383 48.703810 L 247.459383 42.703810" stroke="gray" fill="white" stroke-width="1px"></path><path d="M 247.459383 36.703810 L 244.959383 36.703810 L 244.959383 42.703810 L 247.459383 42.703810 L 247.459383 36.703810" stroke="gray" fill="white" stroke-width="1px"></path><path d="M 235.459383 50.447259 L 232.959383 50.447259 L 232.959383 56.447259 L 235.459383 56.447259 L 235.459383 50.447259" stroke="gray" fill="white" stroke-width="1px"></path><path d="M 235.459383 44.447259 L 232.959383 44.447259 L 232.959383 50.447259 L 235.459383 50.447259 L 235.459383 44.447259" stroke="gray" fill="white" stroke-width="1px"></path><path d="M 235.459383 38.447259 L 232.959383 38.447259 L 232.959383 44.447259 L 235.459383 44.447259 L 235.459383 38.447259" stroke="gray" fill="white" stroke-width="1px"></path><path d="M 235.459383 32.447259 L 232.959383 32.447259 L 232.959383 38.447259 L 235.459383 38.447259 L 235.459383 32.447259" stroke="gray" fill="white" stroke-width="1px"></path><path d="M 199.459383 101.033125 L 196.959383 101.033125 L 196.959383 107.033125 L 199.459383 107.033125 L 199.459383 101.033125" stroke="gray" fill="white" stroke-width="1px"></path><path d="M 199.459383 95.033125 L 196.959383 95.033125 L 196.959383 101.033125 L 199.459383 101.033125 L 199.459383 95.033125" stroke="gray" fill="white" stroke-width="1px"></path><path d="M 199.459383 89.033125 L 196.959383 89.033125 L 196.959383 95.033125 L 199.459383 95.033125 L 199.459383 89.033125" stroke="gray" fill="white" stroke-width="1px"></path><path d="M 199.459383 83.033125 L 196.959383 83.033125 L 196.959383 89.033125 L 199.459383 89.033125 L 199.459383 83.033125" stroke="gray" fill="white" stroke-width="1px"></path><path d="M 163.459383 101.033125 L 160.959383 101.033125 L 160.959383 107.033125 L 163.459383 107.033125 L 163.459383 101.033125" stroke="gray" fill="white" stroke-width="1px"></path><path d="M 151.459383 101.033125 L 148.959383 101.033125 L 148.959383 107.033125 L 151.459383 107.033125 L 151.459383 101.033125" stroke="gray" fill="white" stroke-width="1px"></path><path d="M 115.459383 101.033125 L 112.959383 101.033125 L 112.959383 107.033125 L 115.459383 107.033125 L 115.459383 101.033125" stroke="gray" fill="white" stroke-width="1px"></path><path d="M 115.459383 95.033125 L 112.959383 95.033125 L 112.959383 101.033125 L 115.459383 101.033125 L 115.459383 95.033125" stroke="gray" fill="white" stroke-width="1px"></path><path d="M 115.459383 89.033125 L 112.959383 89.033125 L 112.959383 95.033125 L 115.459383 95.033125 L 115.459383 89.033125" stroke="gray" fill="white" stroke-width="1px"></path><path d="M 115.459383 83.033125 L 112.959383 83.033125 L 112.959383 89.033125 L 115.459383 89.033125 L 115.459383 83.033125" stroke="gray" fill="white" stroke-width="1px"></path><path d="M 103.459383 101.033125 L 100.959383 101.033125 L 100.959383 107.033125 L 103.459383 107.033125 L 103.459383 101.033125" stroke="gray" fill="white" stroke-width="1px"></path><path d="M 103.459383 95.033125 L 100.959383 95.033125 L 100.959383 101.033125 L 103.459383 101.033125 L 103.459383 95.033125" stroke="gray" fill="white" stroke-width="1px"></path><path d="M 103.459383 89.033125 L 100.959383 89.033125 L 100.959383 95.033125 L 103.459383 95.033125 L 103.459383 89.033125" stroke="gray" fill="white" stroke-width="1px"></path><path d="M 103.459383 83.033125 L 100.959383 83.033125 L 100.959383 89.033125 L 103.459383 89.033125 L 103.459383 83.033125" stroke="gray" fill="white" stroke-width="1px"></path><path d="M 31.459383 52.317768 L 28.959383 52.317768 L 28.959383 58.317768 L 31.459383 58.317768 L 31.459383 52.317768" stroke="gray" fill="white" stroke-width="1px"></path><path d="M 31.459383 46.317768 L 28.959383 46.317768 L 28.959383 52.317768 L 31.459383 52.317768 L 31.459383 46.317768" stroke="gray" fill="white" stroke-width="1px"></path><path d="M 31.459383 40.317768 L 28.959383 40.317768 L 28.959383 46.317768 L 31.459383 46.317768 L 31.459383 40.317768" stroke="gray" fill="white" stroke-width="1px"></path><path d="M 31.459383 34.317768 L 28.959383 34.317768 L 28.959383 40.317768 L 31.459383 40.317768 L 31.459383 34.317768" stroke="gray" fill="white" stroke-width="1px"></path><path d="M 31.459383 28.317768 L 28.959383 28.317768 L 28.959383 34.317768 L 31.459383 34.317768 L 31.459383 28.317768" stroke="gray" fill="white" stroke-width="1px"></path><path d="M 31.459383 22.317768 L 28.959383 22.317768 L 28.959383 28.317768 L 31.459383 28.317768 L 31.459383 22.317768" stroke="gray" fill="white" stroke-width="1px"></path><path d="M 31.459383 16.317768 L 28.959383 16.317768 L 28.959383 22.317768 L 31.459383 22.317768 L 31.459383 16.317768" stroke="gray" fill="white" stroke-width="1px"></path><path d="M 19.459383 53.325854 L 16.959383 53.325854 L 16.959383 59.325854 L 19.459383 59.325854 L 19.459383 53.325854" stroke="gray" fill="white" stroke-width="1px"></path><path d="M 19.459383 47.325854 L 16.959383 47.325854 L 16.959383 53.325854 L 19.459383 53.325854 L 19.459383 47.325854" stroke="gray" fill="white" stroke-width="1px"></path><path d="M 19.459383 41.325854 L 16.959383 41.325854 L 16.959383 47.325854 L 19.459383 47.325854 L 19.459383 41.325854" stroke="gray" fill="white" stroke-width="1px"></path><path d="M 19.459383 35.325854 L 16.959383 35.325854 L 16.959383 41.325854 L 19.459383 41.325854 L 19.459383 35.325854" stroke="gray" fill="white" stroke-width="1px"></path><path d="M 19.459383 29.325854 L 16.959383 29.325854 L 16.959383 35.325854 L 19.459383 35.325854 L 19.459383 29.325854" stroke="gray" fill="white" stroke-width="1px"></path><path d="M 19.459383 23.325854 L 16.959383 23.325854 L 16.959383 29.325854 L 19.459383 29.325854 L 19.459383 23.325854" stroke="gray" fill="white" stroke-width="1px"></path><path d="M 19.459383 17.325854 L 16.959383 17.325854 L 16.959383 23.325854 L 19.459383 23.325854 L 19.459383 17.325854" stroke="gray" fill="white" stroke-width="1px"></path><path d="M 271.459383 40.746065 L 273.959383 40.746065 L 273.959383 46.746065 L 271.459383 46.746065 L 271.459383 40.746065" stroke="gray" fill="white" stroke-width="1px"></path><path d="M 271.459383 34.746065 L 273.959383 34.746065 L 273.959383 40.746065 L 271.459383 40.746065 L 271.459383 34.746065" stroke="gray" fill="white" stroke-width="1px"></path><path d="M 259.459383 44.724938 L 261.959383 44.724938 L 261.959383 50.724938 L 259.459383 50.724938 L 259.459383 44.724938" stroke="gray" fill="white" stroke-width="1px"></path><path d="M 259.459383 38.724938 L 261.959383 38.724938 L 261.959383 44.724938 L 259.459383 44.724938 L 259.459383 38.724938" stroke="gray" fill="white" stroke-width="1px"></path><path d="M 259.459383 32.724938 L 261.959383 32.724938 L 261.959383 38.724938 L 259.459383 38.724938 L 259.459383 32.724938" stroke="gray" fill="white" stroke-width="1px"></path><path d="M 247.459383 48.703810 L 249.959383 48.703810 L 249.959383 54.703810 L 247.459383 54.703810 L 247.459383 48.703810" stroke="gray" fill="white" stroke-width="1px"></path><path d="M 247.459383 42.703810 L 249.959383 42.703810 L 249.959383 48.703810 L 247.459383 48.703810 L 247.459383 42.703810" stroke="gray" fill="white" stroke-width="1px"></path><path d="M 247.459383 36.703810 L 249.959383 36.703810 L 249.959383 42.703810 L 247.459383 42.703810 L 247.459383 36.703810" stroke="gray" fill="white" stroke-width="1px"></path><path d="M 235.459383 50.447259 L 237.959383 50.447259 L 237.959383 56.447259 L 235.459383 56.447259 L 235.459383 50.447259" stroke="gray" fill="white" stroke-width="1px"></path><path d="M 235.459383 44.447259 L 237.959383 44.447259 L 237.959383 50.447259 L 235.459383 50.447259 L 235.459383 44.447259" stroke="gray" fill="white" stroke-width="1px"></path><path d="M 235.459383 38.447259 L 237.959383 38.447259 L 237.959383 44.447259 L 235.459383 44.447259 L 235.459383 38.447259" stroke="gray" fill="white" stroke-width="1px"></path><path d="M 235.459383 32.447259 L 237.959383 32.447259 L 237.959383 38.447259 L 235.459383 38.447259 L 235.459383 32.447259" stroke="gray" fill="white" stroke-width="1px"></path><path d="M 199.459383 101.033125 L 201.959383 101.033125 L 201.959383 107.033125 L 199.459383 107.033125 L 199.459383 101.033125" stroke="gray" fill="white" stroke-width="1px"></path><path d="M 199.459383 95.033125 L 201.959383 95.033125 L 201.959383 101.033125 L 199.459383 101.033125 L 199.459383 95.033125" stroke="gray" fill="white" stroke-width="1px"></path><path d="M 199.459383 89.033125 L 201.959383 89.033125 L 201.959383 95.033125 L 199.459383 95.033125 L 199.459383 89.033125" stroke="gray" fill="white" stroke-width="1px"></path><path d="M 199.459383 83.033125 L 201.959383 83.033125 L 201.959383 89.033125 L 199.459383 89.033125 L 199.459383 83.033125" stroke="gray" fill="white" stroke-width="1px"></path><path d="M 163.459383 101.033125 L 165.959383 101.033125 L 165.959383 107.033125 L 163.459383 107.033125 L 163.459383 101.033125" stroke="gray" fill="white" stroke-width="1px"></path><path d="M 151.459383 101.033125 L 153.959383 101.033125 L 153.959383 107.033125 L 151.459383 107.033125 L 151.459383 101.033125" stroke="gray" fill="white" stroke-width="1px"></path><path d="M 115.459383 101.033125 L 117.959383 101.033125 L 117.959383 107.033125 L 115.459383 107.033125 L 115.459383 101.033125" stroke="gray" fill="white" stroke-width="1px"></path><path d="M 115.459383 95.033125 L 117.959383 95.033125 L 117.959383 101.033125 L 115.459383 101.033125 L 115.459383 95.033125" stroke="gray" fill="white" stroke-width="1px"></path><path d="M 115.459383 89.033125 L 117.959383 89.033125 L 117.959383 95.033125 L 115.459383 95.033125 L 115.459383 89.033125" stroke="gray" fill="white" stroke-width="1px"></path><path d="M 115.459383 83.033125 L 117.959383 83.033125 L 117.959383 89.033125 L 115.459383 89.033125 L 115.459383 83.033125" stroke="gray" fill="white" stroke-width="1px"></path><path d="M 103.459383 101.033125 L 105.959383 101.033125 L 105.959383 107.033125 L 103.459383 107.033125 L 103.459383 101.033125" stroke="gray" fill="white" stroke-width="1px"></path><path d="M 103.459383 95.033125 L 105.959383 95.033125 L 105.959383 101.033125 L 103.459383 101.033125 L 103.459383 95.033125" stroke="gray" fill="white" stroke-width="1px"></path><path d="M 103.459383 89.033125 L 105.959383 89.033125 L 105.959383 95.033125 L 103.459383 95.033125 L 103.459383 89.033125" stroke="gray" fill="white" stroke-width="1px"></path><path d="M 103.459383 83.033125 L 105.959383 83.033125 L 105.959383 89.033125 L 103.459383 89.033125 L 103.459383 83.033125" stroke="gray" fill="white" stroke-width="1px"></path><path d="M 31.459383 52.317768 L 33.959383 52.317768 L 33.959383 58.317768 L 31.459383 58.317768 L 31.459383 52.317768" stroke="gray" fill="white" stroke-width="1px"></path><path d="M 31.459383 46.317768 L 33.959383 46.317768 L 33.959383 52.317768 L 31.459383 52.317768 L 31.459383 46.317768" stroke="gray" fill="white" stroke-width="1px"></path><path d="M 31.459383 40.317768 L 33.959383 40.317768 L 33.959383 46.317768 L 31.459383 46.317768 L 31.459383 40.317768" stroke="gray" fill="white" stroke-width="1px"></path><path d="M 31.459383 34.317768 L 33.959383 34.317768 L 33.959383 40.317768 L 31.459383 40.317768 L 31.459383 34.317768" stroke="gray" fill="white" stroke-width="1px"></path><path d="M 31.459383 28.317768 L 33.959383 28.317768 L 33.959383 34.317768 L 31.459383 34.317768 L 31.459383 28.317768" stroke="gray" fill="white" stroke-width="1px"></path><path d="M 31.459383 22.317768 L 33.959383 22.317768 L 33.959383 28.317768 L 31.459383 28.317768 L 31.459383 22.317768" stroke="gray" fill="white" stroke-width="1px"></path><path d="M 31.459383 16.317768 L 33.959383 16.317768 L 33.959383 22.317768 L 31.459383 22.317768 L 31.459383 16.317768" stroke="gray" fill="white" stroke-width="1px"></path><path d="M 19.459383 53.325854 L 21.959383 53.325854 L 21.959383 59.325854 L 19.459383 59.325854 L 19.459383 53.325854" stroke="gray" fill="white" stroke-width="1px"></path><path d="M 19.459383 47.325854 L 21.959383 47.325854 L 21.959383 53.325854 L 19.459383 53.325854 L 19.459383 47.325854" stroke="gray" fill="white" stroke-width="1px"></path><path d="M 19.459383 41.325854 L 21.959383 41.325854 L 21.959383 47.325854 L 19.459383 47.325854 L 19.459383 41.325854" stroke="gray" fill="white" stroke-width="1px"></path><path d="M 19.459383 35.325854 L 21.959383 35.325854 L 21.959383 41.325854 L 19.459383 41.325854 L 19.459383 35.325854" stroke="gray" fill="white" stroke-width="1px"></path><path d="M 19.459383 29.325854 L 21.959383 29.325854 L 21.959383 35.325854 L 19.459383 35.325854 L 19.459383 29.325854" stroke="gray" fill="white" stroke-width="1px"></path><path d="M 19.459383 23.325854 L 21.959383 23.325854 L 21.959383 29.325854 L 19.459383 29.325854 L 19.459383 23.325854" stroke="gray" fill="white" stroke-width="1px"></path><path d="M 19.459383 17.325854 L 21.959383 17.325854 L 21.959383 23.325854 L 19.459383 23.325854 L 19.459383 17.325854" stroke="gray" fill="white" stroke-width="1px"></path><path d="M 256.080790 101.263579 L 256.080790 98.763579 L 250.080790 98.763579 L 250.080790 101.263579 L 256.080790 101.263579" stroke="gray" fill="white" stroke-width="1px"></path><path d="M 262.080790 101.263579 L 262.080790 98.763579 L 256.080790 98.763579 L 256.080790 101.263579 L 262.080790 101.263579" stroke="gray" fill="white" stroke-width="1px"></path><path d="M 268.080790 101.263579 L 268.080790 98.763579 L 262.080790 98.763579 L 262.080790 101.263579 L 268.080790 101.263579" stroke="gray" fill="white" stroke-width="1px"></path><path d="M 274.080790 101.263579 L 274.080790 98.763579 L 268.080790 98.763579 L 268.080790 101.263579 L 274.080790 101.263579" stroke="gray" fill="white" stroke-width="1px"></path><path d="M 254.549756 89.263579 L 254.549756 86.763579 L 248.549756 86.763579 L 248.549756 89.263579 L 254.549756 89.263579" stroke="gray" fill="white" stroke-width="1px"></path><path d="M 260.549756 89.263579 L 260.549756 86.763579 L 254.549756 86.763579 L 254.549756 89.263579 L 260.549756 89.263579" stroke="gray" fill="white" stroke-width="1px"></path><path d="M 266.549756 89.263579 L 266.549756 86.763579 L 260.549756 86.763579 L 260.549756 89.263579 L 266.549756 89.263579" stroke="gray" fill="white" stroke-width="1px"></path><path d="M 272.549756 89.263579 L 272.549756 86.763579 L 266.549756 86.763579 L 266.549756 89.263579 L 272.549756 89.263579" stroke="gray" fill="white" stroke-width="1px"></path><path d="M 278.549756 89.263579 L 278.549756 86.763579 L 272.549756 86.763579 L 272.549756 89.263579 L 278.549756 89.263579" stroke="gray" fill="white" stroke-width="1px"></path><path d="M 253.018721 77.263579 L 253.018721 74.763579 L 247.018721 74.763579 L 247.018721 77.263579 L 253.018721 77.263579" stroke="gray" fill="white" stroke-width="1px"></path><path d="M 259.018721 77.263579 L 259.018721 74.763579 L 253.018721 74.763579 L 253.018721 77.263579 L 259.018721 77.263579" stroke="gray" fill="white" stroke-width="1px"></path><path d="M 265.018721 77.263579 L 265.018721 74.763579 L 259.018721 74.763579 L 259.018721 77.263579 L 265.018721 77.263579" stroke="gray" fill="white" stroke-width="1px"></path><path d="M 271.018721 77.263579 L 271.018721 74.763579 L 265.018721 74.763579 L 265.018721 77.263579 L 271.018721 77.263579" stroke="gray" fill="white" stroke-width="1px"></path><path d="M 277.018721 77.263579 L 277.018721 74.763579 L 271.018721 74.763579 L 271.018721 77.263579 L 277.018721 77.263579" stroke="gray" fill="white" stroke-width="1px"></path><path d="M 222.650230 101.263579 L 222.650230 98.763579 L 216.650230 98.763579 L 216.650230 101.263579 L 222.650230 101.263579" stroke="gray" fill="white" stroke-width="1px"></path><path d="M 22.000000 101.263579 L 22.000000 98.763579 L 16.000000 98.763579 L 16.000000 101.263579 L 22.000000 101.263579" stroke="gray" fill="white" stroke-width="1px"></path><path d="M 28.000000 101.263579 L 28.000000 98.763579 L 22.000000 98.763579 L 22.000000 101.263579 L 28.000000 101.263579" stroke="gray" fill="white" stroke-width="1px"></path><path d="M 34.000000 101.263579 L 34.000000 98.763579 L 28.000000 98.763579 L 28.000000 101.263579 L 34.000000 101.263579" stroke="gray" fill="white" stroke-width="1px"></path><path d="M 40.000000 101.263579 L 40.000000 98.763579 L 34.000000 98.763579 L 34.000000 101.263579 L 40.000000 101.263579" stroke="gray" fill="white" stroke-width="1px"></path><path d="M 22.000000 89.263579 L 22.000000 86.763579 L 16.000000 86.763579 L 16.000000 89.263579 L 22.000000 89.263579" stroke="gray" fill="white" stroke-width="1px"></path><path d="M 28.000000 89.263579 L 28.000000 86.763579 L 22.000000 86.763579 L 22.000000 89.263579 L 28.000000 89.263579" stroke="gray" fill="white" stroke-width="1px"></path><path d="M 34.000000 89.263579 L 34.000000 86.763579 L 28.000000 86.763579 L 28.000000 89.263579 L 34.000000 89.263579" stroke="gray" fill="white" stroke-width="1px"></path><path d="M 40.000000 89.263579 L 40.000000 86.763579 L 34.000000 86.763579 L 34.000000 89.263579 L 40.000000 89.263579" stroke="gray" fill="white" stroke-width="1px"></path><path d="M 22.000000 77.263579 L 22.000000 74.763579 L 16.000000 74.763579 L 16.000000 77.263579 L 22.000000 77.263579" stroke="gray" fill="white" stroke-width="1px"></path><path d="M 28.000000 77.263579 L 28.000000 74.763579 L 22.000000 74.763579 L 22.000000 77.263579 L 28.000000 77.263579" stroke="gray" fill="white" stroke-width="1px"></path><path d="M 34.000000 77.263579 L 34.000000 74.763579 L 28.000000 74.763579 L 28.000000 77.263579 L 34.000000 77.263579" stroke="gray" fill="white" stroke-width="1px"></path><path d="M 40.000000 77.263579 L 40.000000 74.763579 L 34.000000 74.763579 L 34.000000 77.263579 L 40.000000 77.263579" stroke="gray" fill="white" stroke-width="1px"></path><path d="M 22.000000 65.263579 L 22.000000 62.763579 L 16.000000 62.763579 L 16.000000 65.263579 L 22.000000 65.263579" stroke="gray" fill="white" stroke-width="1px"></path><path d="M 28.000000 65.263579 L 28.000000 62.763579 L 22.000000 62.763579 L 22.000000 65.263579 L 28.000000 65.263579" stroke="gray" fill="white" stroke-width="1px"></path><path d="M 34.000000 65.263579 L 34.000000 62.763579 L 28.000000 62.763579 L 28.000000 65.263579 L 34.000000 65.263579" stroke="gray" fill="white" stroke-width="1px"></path><path d="M 40.000000 65.263579 L 40.000000 62.763579 L 34.000000 62.763579 L 34.000000 65.263579 L 40.000000 65.263579" stroke="gray" fill="white" stroke-width="1px"></path><path d="M 256.080790 101.263579 L 256.080790 103.763579 L 250.080790 103.763579 L 250.080790 101.263579 L 256.080790 101.263579" stroke="gray" fill="white" stroke-width="1px"></path><path d="M 262.080790 101.263579 L 262.080790 103.763579 L 256.080790 103.763579 L 256.080790 101.263579 L 262.080790 101.263579" stroke="gray" fill="white" stroke-width="1px"></path><path d="M 268.080790 101.263579 L 268.080790 103.763579 L 262.080790 103.763579 L 262.080790 101.263579 L 268.080790 101.263579" stroke="gray" fill="white" stroke-width="1px"></path><path d="M 274.080790 101.263579 L 274.080790 103.763579 L 268.080790 103.763579 L 268.080790 101.263579 L 274.080790 101.263579" stroke="gray" fill="white" stroke-width="1px"></path><path d="M 254.549756 89.263579 L 254.549756 91.763579 L 248.549756 91.763579 L 248.549756 89.263579 L 254.549756 89.263579" stroke="gray" fill="white" stroke-width="1px"></path><path d="M 260.549756 89.263579 L 260.549756 91.763579 L 254.549756 91.763579 L 254.549756 89.263579 L 260.549756 89.263579" stroke="gray" fill="white" stroke-width="1px"></path><path d="M 266.549756 89.263579 L 266.549756 91.763579 L 260.549756 91.763579 L 260.549756 89.263579 L 266.549756 89.263579" stroke="gray" fill="white" stroke-width="1px"></path><path d="M 272.549756 89.263579 L 272.549756 91.763579 L 266.549756 91.763579 L 266.549756 89.263579 L 272.549756 89.263579" stroke="gray" fill="white" stroke-width="1px"></path><path d="M 278.549756 89.263579 L 278.549756 91.763579 L 272.549756 91.763579 L 272.549756 89.263579 L 278.549756 89.263579" stroke="gray" fill="white" stroke-width="1px"></path><path d="M 253.018721 77.263579 L 253.018721 79.763579 L 247.018721 79.763579 L 247.018721 77.263579 L 253.018721 77.263579" stroke="gray" fill="white" stroke-width="1px"></path><path d="M 259.018721 77.263579 L 259.018721 79.763579 L 253.018721 79.763579 L 253.018721 77.263579 L 259.018721 77.263579" stroke="gray" fill="white" stroke-width="1px"></path><path d="M 265.018721 77.263579 L 265.018721 79.763579 L 259.018721 79.763579 L 259.018721 77.263579 L 265.018721 77.263579" stroke="gray" fill="white" stroke-width="1px"></path><path d="M 271.018721 77.263579 L 271.018721 79.763579 L 265.018721 79.763579 L 265.018721 77.263579 L 271.018721 77.263579" stroke="gray" fill="white" stroke-width="1px"></path><path d="M 277.018721 77.263579 L 277.018721 79.763579 L 271.018721 79.763579 L 271.018721 77.263579 L 277.018721 77.263579" stroke="gray" fill="white" stroke-width="1px"></path><path d="M 222.650230 101.263579 L 222.650230 103.763579 L 216.650230 103.763579 L 216.650230 101.263579 L 222.650230 101.263579" stroke="gray" fill="white" stroke-width="1px"></path><path d="M 22.000000 101.263579 L 22.000000 103.763579 L 16.000000 103.763579 L 16.000000 101.263579 L 22.000000 101.263579" stroke="gray" fill="white" stroke-width="1px"></path><path d="M 28.000000 101.263579 L 28.000000 103.763579 L 22.000000 103.763579 L 22.000000 101.263579 L 28.000000 101.263579" stroke="gray" fill="white" stroke-width="1px"></path><path d="M 34.000000 101.263579 L 34.000000 103.763579 L 28.000000 103.763579 L 28.000000 101.263579 L 34.000000 101.263579" stroke="gray" fill="white" stroke-width="1px"></path><path d="M 40.000000 101.263579 L 40.000000 103.763579 L 34.000000 103.763579 L 34.000000 101.263579 L 40.000000 101.263579" stroke="gray" fill="white" stroke-width="1px"></path><path d="M 22.000000 89.263579 L 22.000000 91.763579 L 16.000000 91.763579 L 16.000000 89.263579 L 22.000000 89.263579" stroke="gray" fill="white" stroke-width="1px"></path><path d="M 28.000000 89.263579 L 28.000000 91.763579 L 22.000000 91.763579 L 22.000000 89.263579 L 28.000000 89.263579" stroke="gray" fill="white" stroke-width="1px"></path><path d="M 34.000000 89.263579 L 34.000000 91.763579 L 28.000000 91.763579 L 28.000000 89.263579 L 34.000000 89.263579" stroke="gray" fill="white" stroke-width="1px"></path><path d="M 40.000000 89.263579 L 40.000000 91.763579 L 34.000000 91.763579 L 34.000000 89.263579 L 40.000000 89.263579" stroke="gray" fill="white" stroke-width="1px"></path><path d="M 22.000000 77.263579 L 22.000000 79.763579 L 16.000000 79.763579 L 16.000000 77.263579 L 22.000000 77.263579" stroke="gray" fill="white" stroke-width="1px"></path><path d="M 28.000000 77.263579 L 28.000000 79.763579 L 22.000000 79.763579 L 22.000000 77.263579 L 28.000000 77.263579" stroke="gray" fill="white" stroke-width="1px"></path><path d="M 34.000000 77.263579 L 34.000000 79.763579 L 28.000000 79.763579 L 28.000000 77.263579 L 34.000000 77.263579" stroke="gray" fill="white" stroke-width="1px"></path><path d="M 40.000000 77.263579 L 40.000000 79.763579 L 34.000000 79.763579 L 34.000000 77.263579 L 40.000000 77.263579" stroke="gray" fill="white" stroke-width="1px"></path><path d="M 22.000000 65.263579 L 22.000000 67.763579 L 16.000000 67.763579 L 16.000000 65.263579 L 22.000000 65.263579" stroke="gray" fill="white" stroke-width="1px"></path><path d="M 28.000000 65.263579 L 28.000000 67.763579 L 22.000000 67.763579 L 22.000000 65.263579 L 28.000000 65.263579" stroke="gray" fill="white" stroke-width="1px"></path><path d="M 34.000000 65.263579 L 34.000000 67.763579 L 28.000000 67.763579 L 28.000000 65.263579 L 34.000000 65.263579" stroke="gray" fill="white" stroke-width="1px"></path><path d="M 40.000000 65.263579 L 40.000000 67.763579 L 34.000000 67.763579 L 34.000000 65.263579 L 40.000000 65.263579" stroke="gray" fill="white" stroke-width="1px"></path></g><g id="crv-base"><path d="M 221.371570 123.090312 L 221.371570 169.241094 L 120.000633 169.241094 L 120.000633 156.444206 L 126.051258 156.444206 L 126.051258 128.832500 L 123.590320 128.832500 L 123.590320 125.551250 L 126.051258 125.551250 L 126.051258 123.858132 L 91.315945 123.858125 L 91.315945 134.738750 L 64.258762 134.738750 L 64.258762 123.687497 L 10.000000 123.687497 L 10.000000 226.180625 L 64.258758 226.180625 L 64.258758 192.357500 L 91.315945 192.357500 L 91.315945 220.123437 L 283.459383 220.123437 L 283.459383 123.090312 L 221.371570 123.090312" stroke="black" fill="none" stroke-width="1px"></path><path d="M 221.371570 10.000000 L 221.371570 56.150781 L 120.000633 56.150781 L 120.000633 43.353893 L 126.051258 43.353893 L 126.051258 15.742187 L 123.590320 15.742187 L 123.590320 12.460937 L 126.051258 12.460937 L 126.051258 10.767819 L 91.315945 10.767812 L 91.315945 21.648438 L 64.258762 21.648438 L 64.258762 10.597185 L 10.000000 10.597185 L 10.000000 113.090312 L 64.258758 113.090312 L 64.258758 79.267187 L 91.315945 79.267187 L 91.315945 107.033125 L 283.459383 107.033125 L 283.459383 10.000000 L 221.371570 10.000000" stroke="black" fill="none" stroke-width="1px"></path><path d="M 10.387195 156.559062 L 10.387195 154.590312 L 12.355945 154.590312 L 12.355945 156.559062 L 10.387195 156.559062" stroke="black" fill="white" stroke-width="1px"></path><path d="M 10.387195 43.468750 L 10.387195 41.500000 L 12.355945 41.500000 L 12.355945 43.468750 L 10.387195 43.468750" stroke="black" fill="white" stroke-width="1px"></path><path d="M 10.387195 188.059062 L 10.387195 186.090312 L 12.355945 186.090312 L 12.355945 188.059062 L 10.387195 188.059062" stroke="black" fill="white" stroke-width="1px"></path><path d="M 10.387195 74.968750 L 10.387195 73.000000 L 12.355945 73.000000 L 12.355945 74.968750 L 10.387195 74.968750" stroke="black" fill="white" stroke-width="1px"></path><path d="M 10.387195 219.559062 L 10.387195 217.590312 L 12.355945 217.590312 L 12.355945 219.559062 L 10.387195 219.559062" stroke="black" fill="white" stroke-width="1px"></path><path d="M 10.387195 106.468750 L 10.387195 104.500000 L 12.355945 104.500000 L 12.355945 106.468750 L 10.387195 106.468750" stroke="black" fill="white" stroke-width="1px"></path><path d="M 60.754383 128.340312 L 60.754383 125.387187 L 63.871570 125.387187 L 63.871570 128.340312 L 60.754383 128.340312" stroke="black" fill="white" stroke-width="1px"></path><path d="M 60.754383 15.250000 L 60.754383 12.296875 L 63.871570 12.296875 L 63.871570 15.250000 L 60.754383 15.250000" stroke="black" fill="white" stroke-width="1px"></path><path d="M 280.598133 219.230937 L 280.598133 217.262187 L 282.566883 217.262187 L 282.566883 219.230937 L 280.598133 219.230937" stroke="black" fill="white" stroke-width="1px"></path><path d="M 280.598133 106.140625 L 280.598133 104.171875 L 282.566883 104.171875 L 282.566883 106.140625 L 280.598133 106.140625" stroke="black" fill="white" stroke-width="1px"></path><path d="M 280.598133 188.059062 L 280.598133 186.090312 L 282.566883 186.090312 L 282.566883 188.059062 L 280.598133 188.059062" stroke="black" fill="white" stroke-width="1px"></path><path d="M 280.598133 74.968750 L 280.598133 73.000000 L 282.566883 73.000000 L 282.566883 74.968750 L 280.598133 74.968750" stroke="black" fill="white" stroke-width="1px"></path><path d="M 280.598133 156.559050 L 280.598133 154.590300 L 282.566883 154.590300 L 282.566883 156.559050 L 280.598133 156.559050" stroke="black" fill="white" stroke-width="1px"></path><path d="M 280.598133 43.468737 L 280.598133 41.499987 L 282.566883 41.499987 L 282.566883 43.468737 L 280.598133 43.468737" stroke="black" fill="white" stroke-width="1px"></path><path d="M 248.605945 127.355937 L 248.605945 123.418437 L 251.887195 123.418437 L 251.887195 127.355937 L 248.605945 127.355937" stroke="black" fill="white" stroke-width="1px"></path><path d="M 248.605945 14.265625 L 248.605945 10.328125 L 251.887195 10.328125 L 251.887195 14.265625 L 248.605945 14.265625" stroke="black" fill="white" stroke-width="1px"></path><path d="M 248.605945 157.871562 L 248.605945 153.934062 L 251.887195 153.934062 L 251.887195 157.871562 L 248.605945 157.871562" stroke="black" fill="white" stroke-width="1px"></path><path d="M 248.605945 44.781250 L 248.605945 40.843750 L 251.887195 40.843750 L 251.887195 44.781250 L 248.605945 44.781250" stroke="black" fill="white" stroke-width="1px"></path><path d="M 248.605945 189.043437 L 248.605945 185.105937 L 251.887195 185.105937 L 251.887195 189.043437 L 248.605945 189.043437" stroke="black" fill="white" stroke-width="1px"></path><path d="M 248.605945 75.953125 L 248.605945 72.015625 L 251.887195 72.015625 L 251.887195 75.953125 L 248.605945 75.953125" stroke="black" fill="white" stroke-width="1px"></path><path d="M 248.934070 219.230937 L 248.934070 216.277812 L 251.887195 216.277812 L 251.887195 219.230937 L 248.934070 219.230937" stroke="black" fill="white" stroke-width="1px"></path><path d="M 248.934070 106.140625 L 248.934070 103.187500 L 251.887195 103.187500 L 251.887195 106.140625 L 248.934070 106.140625" stroke="black" fill="white" stroke-width="1px"></path><path d="M 218.090320 189.043437 L 218.090320 185.105937 L 221.371570 185.105937 L 221.371570 189.043437 L 218.090320 189.043437" stroke="black" fill="white" stroke-width="1px"></path><path d="M 218.090320 75.953125 L 218.090320 72.015625 L 221.371570 72.015625 L 221.371570 75.953125 L 218.090320 75.953125" stroke="black" fill="white" stroke-width="1px"></path><path d="M 218.254383 219.230937 L 218.254383 216.277812 L 221.207508 216.277812 L 221.207508 219.230937 L 218.254383 219.230937" stroke="black" fill="white" stroke-width="1px"></path><path d="M 218.254383 106.140625 L 218.254383 103.187500 L 221.207508 103.187500 L 221.207508 106.140625 L 218.254383 106.140625" stroke="black" fill="white" stroke-width="1px"></path><path d="M 186.590320 189.043437 L 186.590320 185.105937 L 189.871570 185.105937 L 189.871570 189.043437 L 186.590320 189.043437" stroke="black" fill="white" stroke-width="1px"></path><path d="M 186.590320 75.953125 L 186.590320 72.015625 L 189.871570 72.015625 L 189.871570 75.953125 L 186.590320 75.953125" stroke="black" fill="white" stroke-width="1px"></path><path d="M 186.754383 219.230937 L 186.754383 216.277812 L 189.707508 216.277812 L 189.707508 219.230937 L 186.754383 219.230937" stroke="black" fill="white" stroke-width="1px"></path><path d="M 186.754383 106.140625 L 186.754383 103.187500 L 189.707508 103.187500 L 189.707508 106.140625 L 186.754383 106.140625" stroke="black" fill="white" stroke-width="1px"></path><path d="M 155.090320 189.043437 L 155.090320 185.105937 L 158.371570 185.105937 L 158.371570 189.043437 L 155.090320 189.043437" stroke="black" fill="white" stroke-width="1px"></path><path d="M 155.090320 75.953125 L 155.090320 72.015625 L 158.371570 72.015625 L 158.371570 75.953125 L 155.090320 75.953125" stroke="black" fill="white" stroke-width="1px"></path><path d="M 155.254383 219.230937 L 155.254383 216.277812 L 158.207508 216.277812 L 158.207508 219.230937 L 155.254383 219.230937" stroke="black" fill="white" stroke-width="1px"></path><path d="M 155.254383 106.140625 L 155.254383 103.187500 L 158.207508 103.187500 L 158.207508 106.140625 L 155.254383 106.140625" stroke="black" fill="white" stroke-width="1px"></path><path d="M 123.590320 189.043437 L 123.590320 185.105937 L 126.871570 185.105937 L 126.871570 189.043437 L 123.590320 189.043437" stroke="black" fill="white" stroke-width="1px"></path><path d="M 123.590320 75.953125 L 123.590320 72.015625 L 126.871570 72.015625 L 126.871570 75.953125 L 123.590320 75.953125" stroke="black" fill="white" stroke-width="1px"></path><path d="M 123.754383 219.230937 L 123.754383 216.277812 L 126.707508 216.277812 L 126.707508 219.230937 L 123.754383 219.230937" stroke="black" fill="white" stroke-width="1px"></path><path d="M 123.754383 106.140625 L 123.754383 103.187500 L 126.707508 103.187500 L 126.707508 106.140625 L 123.754383 106.140625" stroke="black" fill="white" stroke-width="1px"></path><path d="M 92.090320 157.543437 L 92.090320 153.605937 L 95.371570 153.605937 L 95.371570 157.543437 L 92.090320 157.543437" stroke="black" fill="white" stroke-width="1px"></path><path d="M 92.090320 44.453125 L 92.090320 40.515625 L 95.371570 40.515625 L 95.371570 44.453125 L 92.090320 44.453125" stroke="black" fill="white" stroke-width="1px"></path><path d="M 92.090320 189.043437 L 92.090320 185.105937 L 95.371570 185.105937 L 95.371570 189.043437 L 92.090320 189.043437" stroke="black" fill="white" stroke-width="1px"></path><path d="M 92.090320 75.953125 L 92.090320 72.015625 L 95.371570 72.015625 L 95.371570 75.953125 L 92.090320 75.953125" stroke="black" fill="white" stroke-width="1px"></path><path d="M 92.090320 128.504375 L 92.090320 125.551250 L 95.207508 125.551250 L 95.207508 128.504375 L 92.090320 128.504375" stroke="black" fill="white" stroke-width="1px"></path><path d="M 92.090320 15.414062 L 92.090320 12.460937 L 95.207508 12.460937 L 95.207508 15.414062 L 92.090320 15.414062" stroke="black" fill="white" stroke-width="1px"></path><path d="M 60.590320 157.215312 L 60.590320 153.934062 L 63.871570 153.934062 L 63.871570 157.215312 L 60.590320 157.215312" stroke="black" fill="white" stroke-width="1px"></path><path d="M 60.590320 44.125000 L 60.590320 40.843750 L 63.871570 40.843750 L 63.871570 44.125000 L 60.590320 44.125000" stroke="black" fill="white" stroke-width="1px"></path><path d="M 60.754383 219.230937 L 60.754383 216.277812 L 63.871570 216.277812 L 63.871570 219.230937 L 60.754383 219.230937" stroke="black" fill="white" stroke-width="1px"></path><path d="M 60.754383 106.140625 L 60.754383 103.187500 L 63.871570 103.187500 L 63.871570 106.140625 L 60.754383 106.140625" stroke="black" fill="white" stroke-width="1px"></path><path d="M 30.074695 128.504375 L 30.074695 125.223125 L 33.027820 125.223125 L 33.027820 128.504375 L 30.074695 128.504375" stroke="black" fill="white" stroke-width="1px"></path><path d="M 30.074695 15.414062 L 30.074695 12.132812 L 33.027820 12.132812 L 33.027820 15.414062 L 30.074695 15.414062" stroke="black" fill="white" stroke-width="1px"></path><path d="M 30.074695 157.215312 L 30.074695 153.934062 L 33.355945 153.934062 L 33.355945 157.215312 L 30.074695 157.215312" stroke="black" fill="white" stroke-width="1px"></path><path d="M 30.074695 44.125000 L 30.074695 40.843750 L 33.355945 40.843750 L 33.355945 44.125000 L 30.074695 44.125000" stroke="black" fill="white" stroke-width="1px"></path><path d="M 30.074695 188.715312 L 30.074695 185.434062 L 33.355945 185.434062 L 33.355945 188.715312 L 30.074695 188.715312" stroke="black" fill="white" stroke-width="1px"></path><path d="M 30.074695 75.625000 L 30.074695 72.343750 L 33.355945 72.343750 L 33.355945 75.625000 L 30.074695 75.625000" stroke="black" fill="white" stroke-width="1px"></path><path d="M 30.074695 219.230937 L 30.074695 216.277812 L 33.027820 216.277812 L 33.027820 219.230937 L 30.074695 219.230937" stroke="black" fill="white" stroke-width="1px"></path><path d="M 30.074695 106.140625 L 30.074695 103.187500 L 33.027820 103.187500 L 33.027820 106.140625 L 30.074695 106.140625" stroke="black" fill="white" stroke-width="1px"></path><path d="M 10.387195 127.191875 L 10.387195 125.223125 L 12.355945 125.223125 L 12.355945 127.191875 L 10.387195 127.191875" stroke="black" fill="white" stroke-width="1px"></path><path d="M 10.387195 14.101562 L 10.387195 12.132812 L 12.355945 12.132812 L 12.355945 14.101562 L 10.387195 14.101562" stroke="black" fill="white" stroke-width="1px"></path><path d="M 60.590320 189.863750 L 60.590320 185.434062 L 63.871570 185.434062 L 63.871570 188.715312 L 62.230945 188.715312 L 62.230945 189.863750 L 60.590320 189.863750" stroke="black" fill="white" stroke-width="1px"></path><path d="M 60.590320 76.773437 L 60.590320 72.343750 L 63.871570 72.343750 L 63.871570 75.625000 L 62.230945 75.625000 L 62.230945 76.773437 L 60.590320 76.773437" stroke="black" fill="white" stroke-width="1px"></path></g></svg>