<svg width="293.459383" height="236.180625" xmlns="http://www.w3.org/2000/svg" xmlns:xlink="http://www.w3.org/1999/xlink" version="1.1"><g id="crv-background"><path d="M 221.371570 123.090312 L 221.371570 169.241094 L 120.000633 169.241094 L 120.000633 156.444206 L 126.051258 156.444206 L 126.051258 123.858132 L 91.315945 123.858125 L 91.315945 134.738750 L 64.258762 134.738750 L 64.258762 123.687497 L 10.000000 123.687497 L 10.000000 226.180625 L 64.258758 226.180625 L 64.258758 192.357500 L 91.315945 192.357500 L 91.315945 220.123437 L 283.459383 220.123437 L 283.459383 123.090312 L 221.371570 123.090312" stroke="none" fill="white" stroke-width="1px"></path><path d="M 221.371570 10.000000 L 221.371570 56.150781 L 120.000633 56.150781 L 120.000633 43.353893 L 126.051258 43.353893 L 126.051258 10.767819 L 91.315945 10.767812 L 91.315945 21.648438 L 64.258762 21.648438 L 64.258762 10.597185 L 10.000000 10.597185 L 10.000000 113.090312 L 64.258758 113.090312 L 64.258758 79.267187 L 91.315945 79.267187 L 91.315945 107.033125 L 283.459383 107.033125 L 283.459383 10.000000 L 221.371570 10.000000" stroke="none" fill="white" stroke-width="1px"></path></g><g id="crv-nbhd"><path d="M 221.737654 10.000004 L 221.737654 28.716777 L 221.737654 47.433550 L 233.010416 53.635956 L 244.283178 59.838361 L 263.871280 47.339174 L 283.459383 34.839987 L 283.459383 22.419994 L 283.459382 10.000000 L 252.598518 10.000002 L 221.737654 10.000004" stroke="#DD2222" fill="none" stroke-width="1px"></path><path d="M 283.459383 107.033125 L 283.459383 70.936556 L 283.459383 34.839987 L 263.871280 47.339174 L 244.283178 59.838361 L 241.532055 83.435743 L 238.780931 107.033125 L 261.120157 107.033125 L 283.459383 107.033125" stroke="#DD2222" fill="none" stroke-width="1px"></path><path d="M 221.737654 47.433550 L 221.737654 79.151330 L 190.026547 79.151330 L 191.753279 83.185163 L 213.549186 107.033125 L 238.780931 107.033125 L 244.283178 59.838361 L 221.737654 47.433550" stroke="#DD2222" fill="none" stroke-width="1px"></path><path d="M 191.753279 83.185163 L 176.665202 95.109144 L 161.577125 107.033125 L 187.563155 107.033125 L 213.549186 107.033125 L 202.651233 95.109144 L 191.753279 83.185163" stroke="#DD2222" fill="none" stroke-width="1px"></path><path d="M 190.026547 79.151330 L 151.468229 79.151329 L 151.692939 107.033125 L 161.577125 107.033125 L 191.753279 83.185163 L 190.026547 79.151330" stroke="#DD2222" fill="none" stroke-width="1px"></path><path d="M 151.468229 79.151329 L 121.392087 79.151328 L 91.315945 79.151327 L 91.315945 93.092226 L 91.315945 107.033125 L 121.504442 107.033125 L 151.692939 107.033125 L 151.580584 93.092227 L 151.468229 79.151329" stroke="#DD2222" fill="none" stroke-width="1px"></path><path d="M 64.258758 113.090312 L 64.258758 97.283399 L 64.258758 81.476485 L 37.129379 73.200026 L 10.000000 64.923568 L 10.000000 89.006940 L 10.000000 113.090312 L 37.129347 113.090312 L 64.258758 113.090312" stroke="#DD2222" fill="none" stroke-width="1px"></path><path d="M 64.258758 56.150781 L 64.258758 33.373983 L 64.258758 10.597185 L 37.129372 10.597185 L 10.000000 10.597184 L 10.000000 37.760376 L 10.000000 64.923568 L 37.129379 73.200026 L 64.258758 81.476485 L 64.258758 68.813636 L 64.258758 56.150781" stroke="#DD2222" fill="none" stroke-width="1px"></path><path d="M 10.000000 123.687497 L 10.000000 162.162376 L 10.000000 200.637256 L 37.129379 190.457197 L 64.258758 180.277139 L 64.258758 174.759117 L 64.258758 169.241094 L 64.258758 146.464296 L 64.258758 123.687497 L 37.129379 123.687497 L 10.000000 123.687497" stroke="#DD2222" fill="none" stroke-width="1px"></path><path d="M 10.000000 226.180625 L 37.129379 226.180625 L 64.258758 226.180625 L 64.258758 203.228877 L 64.258758 180.277139 L 37.129379 190.457197 L 10.000000 200.637256 L 10.000000 213.408937 L 10.000000 226.180625" stroke="#DD2222" fill="none" stroke-width="1px"></path><path d="M 128.195378 192.043444 L 109.755662 192.043444 L 91.315945 192.043444 L 91.315945 206.083441 L 91.315945 220.123437 L 110.068844 220.123437 L 128.821743 220.123437 L 128.508560 206.083444 L 128.195378 192.043444" stroke="#DD2222" fill="none" stroke-width="1px"></path><path d="M 176.692821 192.043444 L 152.444100 192.043444 L 128.195378 192.043444 L 128.508560 206.083441 L 128.821743 220.123437 L 152.341829 220.123437 L 175.861915 220.123437 L 176.277368 206.083444 L 176.692821 192.043444" stroke="#DD2222" fill="none" stroke-width="1px"></path><path d="M 234.612357 192.043444 L 205.652589 192.043444 L 176.692821 192.043444 L 176.277368 206.083441 L 175.861915 220.123437 L 207.230006 220.123437 L 238.598098 220.123437 L 236.605228 206.083444 L 234.612357 192.043444" stroke="#DD2222" fill="none" stroke-width="1px"></path><path d="M 238.598098 220.123437 L 261.028740 220.123437 L 283.459383 220.123437 L 283.459383 199.350683 L 283.459383 178.577928 L 261.598517 179.781409 L 239.737652 180.984891 L 239.737652 186.514168 L 239.737652 192.043444 L 237.175004 192.043444 L 234.612357 192.043444 L 236.605228 206.083441 L 238.598098 220.123437" stroke="#DD2222" fill="none" stroke-width="1px"></path><path d="M 239.737652 123.090312 L 239.737652 152.037602 L 239.737652 180.984891 L 261.598517 179.781409 L 283.459383 178.577928 L 283.459383 150.834120 L 283.459383 123.090312 L 261.598522 123.090312 L 239.737652 123.090312" stroke="#DD2222" fill="none" stroke-width="1px"></path></g><g id="crv-amen"><path d="M 62.615659 170.015505 L 62.615659 149.425279 L 62.615659 128.835054 L 56.043262 128.835054 L 49.470865 128.835054 L 49.470865 149.425279 L 49.470865 170.015505 L 56.043262 170.015505 L 62.615659 170.015505" stroke="none" fill="#2288CC" stroke-width="1px"></path><path d="M 58.832882 198.107879 L 58.832882 191.087998 L 58.832882 184.068121 L 37.129379 192.212167 L 15.425876 200.356214 L 15.425876 207.376092 L 15.425876 214.395972 L 37.129379 206.251926 L 58.832882 198.107879" stroke="none" fill="#2288CC" stroke-width="1px"></path><path d="M 113.967535 217.315438 L 120.541567 217.315438 L 127.115598 217.315438 L 126.865052 206.083441 L 126.614507 194.851444 L 120.040475 194.851444 L 113.466443 194.851444 L 113.716989 206.083441 L 113.967535 217.315438" stroke="none" fill="#2288CC" stroke-width="1px"></path><path d="M 143.049585 194.851444 L 136.475554 194.851444 L 129.901522 194.851444 L 130.152068 206.083441 L 130.402614 217.315438 L 136.976645 217.315438 L 143.550677 217.315438 L 143.300131 206.083441 L 143.049585 194.851444" stroke="none" fill="#2288CC" stroke-width="1px"></path><path d="M 191.404096 194.851444 L 184.828822 194.851444 L 178.253549 194.851444 L 177.921187 206.083441 L 177.588824 217.315438 L 184.164098 217.315438 L 190.739371 217.315438 L 191.071733 206.083441 L 191.404096 194.851444" stroke="none" fill="#2288CC" stroke-width="1px"></path><path d="M 240.784777 190.923059 L 240.784777 192.703636 L 240.784777 194.484213 L 238.734659 194.484213 L 236.684542 194.484213 L 238.278838 205.716210 L 239.873134 216.948207 L 246.511410 216.948207 L 253.149685 216.948207 L 251.217026 203.332407 L 249.284368 189.716607 L 245.034572 190.319833 L 240.784777 190.923059" stroke="none" fill="#2288CC" stroke-width="1px"></path><path d="M 244.109825 165.933911 L 244.109825 172.516259 L 244.109825 179.098608 L 261.598517 178.135822 L 279.087210 177.173037 L 279.087210 170.590688 L 279.087210 164.008340 L 261.598517 164.971125 L 244.109825 165.933911" stroke="none" fill="#2288CC" stroke-width="1px"></path><path d="M 224.807630 41.639457 L 224.807630 44.415264 L 224.807630 47.191070 L 233.825840 52.152995 L 242.844050 57.114919 L 245.197663 55.613077 L 247.551276 54.111234 L 249.538327 50.499803 L 251.525379 46.888372 L 240.162434 40.636348 L 228.799490 34.384323 L 226.803560 38.011890 L 224.807630 41.639457" stroke="none" fill="#2288CC" stroke-width="1px"></path><path d="M 252.045240 59.970098 L 248.749191 62.073310 L 245.453142 64.176522 L 243.252243 83.054427 L 241.051344 101.932333 L 247.668257 101.932333 L 254.285170 101.932333 L 256.683453 81.361394 L 259.081736 60.790455 L 255.563488 60.380276 L 252.045240 59.970098" stroke="none" fill="#2288CC" stroke-width="1px"></path><path d="M 222.802312 80.668555 L 194.135472 80.668554 L 195.516857 83.895621 L 204.581190 93.813348 L 222.802312 93.813348 L 222.802312 80.668555" stroke="none" fill="#2288CC" stroke-width="1px"></path><path d="M 191.962466 105.112643 L 200.866327 105.112643 L 209.770189 105.112643 L 201.051826 95.573458 L 192.333463 86.034274 L 187.163680 90.119910 L 181.993896 94.205547 L 186.978181 99.659095 L 191.962466 105.112643" stroke="none" fill="#2288CC" stroke-width="1px"></path><path d="M 166.232298 81.846239 L 153.087078 81.846239 L 153.266846 104.151676 L 161.174194 104.151676 L 166.378916 100.038429 L 166.232298 81.846239" stroke="none" fill="#2288CC" stroke-width="1px"></path><path d="M 106.103838 81.939507 L 99.531441 81.939507 L 92.959044 81.939507 L 92.959044 93.092226 L 92.959044 104.244945 L 99.531441 104.244945 L 106.103838 104.244945 L 106.103838 93.092226 L 106.103838 81.939507" stroke="none" fill="#2288CC" stroke-width="1px"></path><path d="M 58.832882 95.281932 L 58.832882 88.410492 L 58.832882 81.539053 L 37.129379 74.917886 L 15.425876 68.296719 L 15.425876 75.168159 L 15.425876 82.039599 L 37.129379 88.660765 L 58.832882 95.281932" stroke="none" fill="#2288CC" stroke-width="1px"></path><path d="M 62.615659 56.925192 L 62.615659 36.334967 L 62.615659 15.744741 L 56.043262 15.744741 L 49.470865 15.744741 L 49.470865 36.334967 L 49.470865 56.925192 L 56.043262 56.925192 L 62.615659 56.925192" stroke="none" fill="#2288CC" stroke-width="1px"></path></g><g id="crv-desk"><path d="M 55.459383 220.180625 L 52.959383 220.180625 L 52.959383 226.180625 L 55.459383 226.180625 L 55.459383 220.180625" stroke="gray" fill="white" stroke-width="1px"></path><path d="M 55.459383 214.180625 L 52.959383 214.180625 L 52.959383 220.180625 L 55.459383 220.180625 L 55.459383 214.180625" stroke="gray" fill="white" stroke-width="1px"></path><path d="M 55.459383 208.180625 L 52.959383 208.180625 L 52.959383 214.180625 L 55.459383 214.180625 L 55.459383 208.180625" stroke="gray" fill="white" stroke-width="1px"></path><path d="M 43.459383 220.180625 L 40.959383 220.180625 L 40.959383 226.180625 L 43.459383 226.180625 L 43.459383 220.180625" stroke="gray" fill="white" stroke-width="1px"></path><path d="M 43.459383 214.180625 L 40.959383 214.180625 L 40.959383 220.180625 L 43.459383 220.180625 L 43.459383 214.180625" stroke="gray" fill="white" stroke-width="1px"></path><path d="M 31.459383 220.180625 L 28.959383 220.180625 L 28.959383 226.180625 L 31.459383 226.180625 L 31.459383 220.180625" stroke="gray" fill="white" stroke-width="1px"></path><path d="M 19.459383 220.180625 L 16.959383 220.180625 L 16.959383 226.180625 L 19.459383 226.180625 L 19.459383 220.180625" stroke="gray" fill="white" stroke-width="1px"></path><path d="M 103.459383 214.123437 L 100.959383 214.123437 L 100.959383 220.123437 L 103.459383 220.123437 L 103.459383 214.123437" stroke="gray" fill="white" stroke-width="1px"></path><path d="M 103.459383 208.123437 L 100.959383 208.123437 L 100.959383 214.123437 L 103.459383 214.123437 L 103.459383 208.123437" stroke="gray" fill="white" stroke-width="1px"></path><path d="M 103.459383 202.123437 L 100.959383 202.123437 L 100.959383 208.123437 L 103.459383 208.123437 L 103.459383 202.123437" stroke="gray" fill="white" stroke-width="1px"></path><path d="M 103.459383 196.123437 L 100.959383 196.123437 L 100.959383 202.123437 L 103.459383 202.123437 L 103.459383 196.123437" stroke="gray" fill="white" stroke-width="1px"></path><path d="M 163.459383 214.123437 L 160.959383 214.123437 L 160.959383 220.123437 L 163.459383 220.123437 L 163.459383 214.123437" stroke="gray" fill="white" stroke-width="1px"></path><path d="M 163.459383 208.123437 L 160.959383 208.123437 L 160.959383 214.123437 L 163.459383 214.123437 L 163.459383 208.123437" stroke="gray" fill="white" stroke-width="1px"></path><path d="M 163.459383 202.123437 L 160.959383 202.123437 L 160.959383 208.123437 L 163.459383 208.123437 L 163.459383 202.123437" stroke="gray" fill="white" stroke-width="1px"></path><path d="M 163.459383 196.123437 L 160.959383 196.123437 L 160.959383 202.123437 L 163.459383 202.123437 L 163.459383 196.123437" stroke="gray" fill="white" stroke-width="1px"></path><path d="M 151.459383 214.123437 L 148.959383 214.123437 L 148.959383 220.123437 L 151.459383 220.123437 L 151.459383 214.123437" stroke="gray" fill="white" stroke-width="1px"></path><path d="M 151.459383 208.123437 L 148.959383 208.123437 L 148.959383 214.123437 L 151.459383 214.123437 L 151.459383 208.123437" stroke="gray" fill="white" stroke-width="1px"></path><path d="M 151.459383 202.123437 L 148.959383 202.123437 L 148.959383 208.123437 L 151.459383 208.123437 L 151.459383 202.123437" stroke="gray" fill="white" stroke-width="1px"></path><path d="M 151.459383 196.123437 L 148.959383 196.123437 L 148.959383 202.123437 L 151.459383 202.123437 L 151.459383 196.123437" stroke="gray" fill="white" stroke-width="1px"></path><path d="M 235.459383 214.123437 L 232.959383 214.123437 L 232.959383 220.123437 L 235.459383 220.123437 L 235.459383 214.123437" stroke="gray" fill="white" stroke-width="1px"></path><path d="M 223.459383 214.123437 L 220.959383 214.123437 L 220.959383 220.123437 L 223.459383 220.123437 L 223.459383 214.123437" stroke="gray" fill="white" stroke-width="1px"></path><path d="M 223.459383 208.123437 L 220.959383 208.123437 L 220.959383 214.123437 L 223.459383 214.123437 L 223.459383 208.123437" stroke="gray" fill="white" stroke-width="1px"></path><path d="M 223.459383 202.123437 L 220.959383 202.123437 L 220.959383 208.123437 L 223.459383 208.123437 L 223.459383 202.123437" stroke="gray" fill="white" stroke-width="1px"></path><path d="M 223.459383 196.123437 L 220.959383 196.123437 L 220.959383 202.123437 L 223.459383 202.123437 L 223.459383 196.123437" stroke="gray" fill="white" stroke-width="1px"></path><path d="M 211.459383 214.123437 L 208.959383 214.123437 L 208.959383 220.123437 L 211.459383 220.123437 L 211.459383 214.123437" stroke="gray" fill="white" stroke-width="1px"></path><path d="M 211.459383 208.123437 L 208.959383 208.123437 L 208.959383 214.123437 L 211.459383 214.123437 L 211.459383 208.123437" stroke="gray" fill="white" stroke-width="1px"></path><path d="M 211.459383 202.123437 L 208.959383 202.123437 L 208.959383 208.123437 L 211.459383 208.123437 L 211.459383 202.123437" stroke="gray" fill="white" stroke-width="1px"></path><path d="M 211.459383 196.123437 L 208.959383 196.123437 L 208.959383 202.123437 L 211.459383 202.123437 L 211.459383 196.123437" stroke="gray" fill="white" stroke-width="1px"></path><path d="M 199.459383 214.123437 L 196.959383 214.123437 L 196.959383 220.123437 L 199.459383 220.123437 L 199.459383 214.123437" stroke="gray" fill="white" stroke-width="1px"></path><path d="M 199.459383 208.123437 L 196.959383 208.123437 L 196.959383 214.123437 L 199.459383 214.123437 L 199.459383 208.123437" stroke="gray" fill="white" stroke-width="1px"></path><path d="M 199.459383 202.123437 L 196.959383 202.123437 L 196.959383 208.123437 L 199.459383 208.123437 L 199.459383 202.123437" stroke="gray" fill="white" stroke-width="1px"></path><path d="M 199.459383 196.123437 L 196.959383 196.123437 L 196.959383 202.123437 L 199.459383 202.123437 L 199.459383 196.123437" stroke="gray" fill="white" stroke-width="1px"></path><path d="M 271.459383 214.123437 L 268.959383 214.123437 L 268.959383 220.123437 L 271.459383 220.123437 L 271.459383 214.123437" stroke="gray" fill="white" stroke-width="1px"></path><path d="M 271.459383 208.123437 L 268.959383 208.123437 L 268.959383 214.123437 L 271.459383 214.123437 L 271.459383 208.123437" stroke="gray" fill="white" stroke-width="1px"></path><path d="M 271.459383 202.123437 L 268.959383 202.123437 L 268.959383 208.123437 L 271.459383 208.123437 L 271.459383 202.123437" stroke="gray" fill="white" stroke-width="1px"></path><path d="M 271.459383 196.123437 L 268.959383 196.123437 L 268.959383 202.123437 L 271.459383 202.123437 L 271.459383 196.123437" stroke="gray" fill="white" stroke-width="1px"></path><path d="M 271.459383 190.123437 L 268.959383 190.123437 L 268.959383 196.123437 L 271.459383 196.123437 L 271.459383 190.123437" stroke="gray" fill="white" stroke-width="1px"></path><path d="M 271.459383 184.123437 L 268.959383 184.123437 L 268.959383 190.123437 L 271.459383 190.123437 L 271.459383 184.123437" stroke="gray" fill="white" stroke-width="1px"></path><path d="M 259.459383 214.123437 L 256.959383 214.123437 L 256.959383 220.123437 L 259.459383 220.123437 L 259.459383 214.123437" stroke="gray" fill="white" stroke-width="1px"></path><path d="M 259.459383 208.123437 L 256.959383 208.123437 L 256.959383 214.123437 L 259.459383 214.123437 L 259.459383 208.123437" stroke="gray" fill="white" stroke-width="1px"></path><path d="M 259.459383 202.123437 L 256.959383 202.123437 L 256.959383 208.123437 L 259.459383 208.123437 L 259.459383 202.123437" stroke="gray" fill="white" stroke-width="1px"></path><path d="M 259.459383 196.123437 L 256.959383 196.123437 L 256.959383 202.123437 L 259.459383 202.123437 L 259.459383 196.123437" stroke="gray" fill="white" stroke-width="1px"></path><path d="M 259.459383 190.123437 L 256.959383 190.123437 L 256.959383 196.123437 L 259.459383 196.123437 L 259.459383 190.123437" stroke="gray" fill="white" stroke-width="1px"></path><path d="M 55.459383 220.180625 L 57.959383 220.180625 L 57.959383 226.180625 L 55.459383 226.180625 L 55.459383 220.180625" stroke="gray" fill="white" stroke-width="1px"></path><path d="M 55.459383 214.180625 L 57.959383 214.180625 L 57.959383 220.180625 L 55.459383 220.180625 L 55.459383 214.180625" stroke="gray" fill="white" stroke-width="1px"></path><path d="M 55.459383 208.180625 L 57.959383 208.180625 L 57.959383 214.180625 L 55.459383 214.180625 L 55.459383 208.180625" stroke="gray" fill="white" stroke-width="1px"></path><path d="M 43.459383 220.180625 L 45.959383 220.180625 L 45.959383 226.180625 L 43.459383 226.180625 L 43.459383 220.180625" stroke="gray" fill="white" stroke-width="1px"></path><path d="M 43.459383 214.180625 L 45.959383 214.180625 L 45.959383 220.180625 L 43.459383 220.180625 L 43.459383 214.180625" stroke="gray" fill="white" stroke-width="1px"></path><path d="M 31.459383 220.180625 L 33.959383 220.180625 L 33.959383 226.180625 L 31.459383 226.180625 L 31.459383 220.180625" stroke="gray" fill="white" stroke-width="1px"></path><path d="M 19.459383 220.180625 L 21.959383 220.180625 L 21.959383 226.180625 L 19.459383 226.180625 L 19.459383 220.180625" stroke="gray" fill="white" stroke-width="1px"></path><path d="M 103.459383 214.123437 L 105.959383 214.123437 L 105.959383 220.123437 L 103.459383 220.123437 L 103.459383 214.123437" stroke="gray" fill="white" stroke-width="1px"></path><path d="M 103.459383 208.123437 L 105.959383 208.123437 L 105.959383 214.123437 L 103.459383 214.123437 L 103.459383 208.123437" stroke="gray" fill="white" stroke-width="1px"></path><path d="M 103.459383 202.123437 L 105.959383 202.123437 L 105.959383 208.123437 L 103.459383 208.123437 L 103.459383 202.123437" stroke="gray" fill="white" stroke-width="1px"></path><path d="M 103.459383 196.123437 L 105.959383 196.123437 L 105.959383 202.123437 L 103.459383 202.123437 L 103.459383 196.123437" stroke="gray" fill="white" stroke-width="1px"></path><path d="M 163.459383 214.123437 L 165.959383 214.123437 L 165.959383 220.123437 L 163.459383 220.123437 L 163.459383 214.123437" stroke="gray" fill="white" stroke-width="1px"></path><path d="M 163.459383 208.123437 L 165.959383 208.123437 L 165.959383 214.123437 L 163.459383 214.123437 L 163.459383 208.123437" stroke="gray" fill="white" stroke-width="1px"></path><path d="M 163.459383 202.123437 L 165.959383 202.123437 L 165.959383 208.123437 L 163.459383 208.123437 L 163.459383 202.123437" stroke="gray" fill="white" stroke-width="1px"></path><path d="M 163.459383 196.123437 L 165.959383 196.123437 L 165.959383 202.123437 L 163.459383 202.123437 L 163.459383 196.123437" stroke="gray" fill="white" stroke-width="1px"></path><path d="M 151.459383 214.123437 L 153.959383 214.123437 L 153.959383 220.123437 L 151.459383 220.123437 L 151.459383 214.123437" stroke="gray" fill="white" stroke-width="1px"></path><path d="M 151.459383 208.123437 L 153.959383 208.123437 L 153.959383 214.123437 L 151.459383 214.123437 L 151.459383 208.123437" stroke="gray" fill="white" stroke-width="1px"></path><path d="M 151.459383 202.123437 L 153.959383 202.123437 L 153.959383 208.123437 L 151.459383 208.123437 L 151.459383 202.123437" stroke="gray" fill="white" stroke-width="1px"></path><path d="M 151.459383 196.123437 L 153.959383 196.123437 L 153.959383 202.123437 L 151.459383 202.123437 L 151.459383 196.123437" stroke="gray" fill="white" stroke-width="1px"></path><path d="M 223.459383 214.123437 L 225.959383 214.123437 L 225.959383 220.123437 L 223.459383 220.123437 L 223.459383 214.123437" stroke="gray" fill="white" stroke-width="1px"></path><path d="M 223.459383 208.123437 L 225.959383 208.123437 L 225.959383 214.123437 L 223.459383 214.123437 L 223.459383 208.123437" stroke="gray" fill="white" stroke-width="1px"></path><path d="M 223.459383 202.123437 L 225.959383 202.123437 L 225.959383 208.123437 L 223.459383 208.123437 L 223.459383 202.123437" stroke="gray" fill="white" stroke-width="1px"></path><path d="M 223.459383 196.123437 L 225.959383 196.123437 L 225.959383 202.123437 L 223.459383 202.123437 L 223.459383 196.123437" stroke="gray" fill="white" stroke-width="1px"></path><path d="M 211.459383 214.123437 L 213.959383 214.123437 L 213.959383 220.123437 L 211.459383 220.123437 L 211.459383 214.123437" stroke="gray" fill="white" stroke-width="1px"></path><path d="M 211.459383 208.123437 L 213.959383 208.123437 L 213.959383 214.123437 L 211.459383 214.123437 L 211.459383 208.123437" stroke="gray" fill="white" stroke-width="1px"></path><path d="M 211.459383 202.123437 L 213.959383 202.123437 L 213.959383 208.123437 L 211.459383 208.123437 L 211.459383 202.123437" stroke="gray" fill="white" stroke-width="1px"></path><path d="M 211.459383 196.123437 L 213.959383 196.123437 L 213.959383 202.123437 L 211.459383 202.123437 L 211.459383 196.123437" stroke="gray" fill="white" stroke-width="1px"></path><path d="M 199.459383 214.123437 L 201.959383 214.123437 L 201.959383 220.123437 L 199.459383 220.123437 L 199.459383 214.123437" stroke="gray" fill="white" stroke-width="1px"></path><path d="M 199.459383 208.123437 L 201.959383 208.123437 L 201.959383 214.123437 L 199.459383 214.123437 L 199.459383 208.123437" stroke="gray" fill="white" stroke-width="1px"></path><path d="M 199.459383 202.123437 L 201.959383 202.123437 L 201.959383 208.123437 L 199.459383 208.123437 L 199.459383 202.123437" stroke="gray" fill="white" stroke-width="1px"></path><path d="M 199.459383 196.123437 L 201.959383 196.123437 L 201.959383 202.123437 L 199.459383 202.123437 L 199.459383 196.123437" stroke="gray" fill="white" stroke-width="1px"></path><path d="M 271.459383 214.123437 L 273.959383 214.123437 L 273.959383 220.123437 L 271.459383 220.123437 L 271.459383 214.123437" stroke="gray" fill="white" stroke-width="1px"></path><path d="M 271.459383 208.123437 L 273.959383 208.123437 L 273.959383 214.123437 L 271.459383 214.123437 L 271.459383 208.123437" stroke="gray" fill="white" stroke-width="1px"></path><path d="M 271.459383 202.123437 L 273.959383 202.123437 L 273.959383 208.123437 L 271.459383 208.123437 L 271.459383 202.123437" stroke="gray" fill="white" stroke-width="1px"></path><path d="M 271.459383 196.123437 L 273.959383 196.123437 L 273.959383 202.123437 L 271.459383 202.123437 L 271.459383 196.123437" stroke="gray" fill="white" stroke-width="1px"></path><path d="M 271.459383 190.123437 L 273.959383 190.123437 L 273.959383 196.123437 L 271.459383 196.123437 L 271.459383 190.123437" stroke="gray" fill="white" stroke-width="1px"></path><path d="M 271.459383 184.123437 L 273.959383 184.123437 L 273.959383 190.123437 L 271.459383 190.123437 L 271.459383 184.123437" stroke="gray" fill="white" stroke-width="1px"></path><path d="M 259.459383 214.123437 L 261.959383 214.123437 L 261.959383 220.123437 L 259.459383 220.123437 L 259.459383 214.123437" stroke="gray" fill="white" stroke-width="1px"></path><path d="M 259.459383 208.123437 L 261.959383 208.123437 L 261.959383 214.123437 L 259.459383 214.123437 L 259.459383 208.123437" stroke="gray" fill="white" stroke-width="1px"></path><path d="M 259.459383 202.123437 L 261.959383 202.123437 L 261.959383 208.123437 L 259.459383 208.123437 L 259.459383 202.123437" stroke="gray" fill="white" stroke-width="1px"></path><path d="M 259.459383 196.123437 L 261.959383 196.123437 L 261.959383 202.123437 L 259.459383 202.123437 L 259.459383 196.123437" stroke="gray" fill="white" stroke-width="1px"></path><path d="M 259.459383 190.123437 L 261.959383 190.123437 L 261.959383 196.123437 L 259.459383 196.123437 L 259.459383 190.123437" stroke="gray" fill="white" stroke-width="1px"></path><path d="M 22.000000 184.123437 L 22.000000 181.623437 L 16.000000 181.623437 L 16.000000 184.123437 L 22.000000 184.123437" stroke="gray" fill="white" stroke-width="1px"></path><path d="M 28.000000 184.123437 L 28.000000 181.623437 L 22.000000 181.623437 L 22.000000 184.123437 L 28.000000 184.123437" stroke="gray" fill="white" stroke-width="1px"></path><path d="M 34.000000 184.123437 L 34.000000 181.623437 L 28.000000 181.623437 L 28.000000 184.123437 L 34.000000 184.123437" stroke="gray" fill="white" stroke-width="1px"></path><path d="M 40.000000 184.123437 L 40.000000 181.623437 L 34.000000 181.623437 L 34.000000 184.123437 L 40.000000 184.123437" stroke="gray" fill="white" stroke-width="1px"></path><path d="M 22.000000 172.123437 L 22.000000 169.623437 L 16.000000 169.623437 L 16.000000 172.123437 L 22.000000 172.123437" stroke="gray" fill="white" stroke-width="1px"></path><path d="M 28.000000 172.123437 L 28.000000 169.623437 L 22.000000 169.623437 L 22.000000 172.123437 L 28.000000 172.123437" stroke="gray" fill="white" stroke-width="1px"></path><path d="M 34.000000 172.123437 L 34.000000 169.623437 L 28.000000 169.623437 L 28.000000 172.123437 L 34.000000 172.123437" stroke="gray" fill="white" stroke-width="1px"></path><path d="M 40.000000 172.123437 L 40.000000 169.623437 L 34.000000 169.623437 L 34.000000 172.123437 L 40.000000 172.123437" stroke="gray" fill="white" stroke-width="1px"></path><path d="M 22.000000 160.123437 L 22.000000 157.623437 L 16.000000 157.623437 L 16.000000 160.123437 L 22.000000 160.123437" stroke="gray" fill="white" stroke-width="1px"></path><path d="M 28.000000 160.123437 L 28.000000 157.623437 L 22.000000 157.623437 L 22.000000 160.123437 L 28.000000 160.123437" stroke="gray" fill="white" stroke-width="1px"></path><path d="M 34.000000 160.123437 L 34.000000 157.623437 L 28.000000 157.623437 L 28.000000 160.123437 L 34.000000 160.123437" stroke="gray" fill="white" stroke-width="1px"></path><path d="M 40.000000 160.123437 L 40.000000 157.623437 L 34.000000 157.623437 L 34.000000 160.123437 L 40.000000 160.123437" stroke="gray" fill="white" stroke-width="1px"></path><path d="M 22.000000 148.123437 L 22.000000 145.623437 L 16.000000 145.623437 L 16.000000 148.123437 L 22.000000 148.123437" stroke="gray" fill="white" stroke-width="1px"></path><path d="M 28.000000 148.123437 L 28.000000 145.623437 L 22.000000 145.623437 L 22.000000 148.123437 L 28.000000 148.123437" stroke="gray" fill="white" stroke-width="1px"></path><path d="M 34.000000 148.123437 L 34.000000 145.623437 L 28.000000 145.623437 L 28.000000 148.123437 L 34.000000 148.123437" stroke="gray" fill="white" stroke-width="1px"></path><path d="M 40.000000 148.123437 L 40.000000 145.623437 L 34.000000 145.623437 L 34.000000 148.123437 L 40.000000 148.123437" stroke="gray" fill="white" stroke-width="1px"></path><path d="M 22.000000 136.123437 L 22.000000 133.623437 L 16.000000 133.623437 L 16.000000 136.123437 L 22.000000 136.123437" stroke="gray" fill="white" stroke-width="1px"></path><path d="M 28.000000 136.123437 L 28.000000 133.623437 L 22.000000 133.623437 L 22.000000 136.123437 L 28.000000 136.123437" stroke="gray" fill="white" stroke-width="1px"></path><path d="M 34.000000 136.123437 L 34.000000 133.623437 L 28.000000 133.623437 L 28.000000 136.123437 L 34.000000 136.123437" stroke="gray" fill="white" stroke-width="1px"></path><path d="M 40.000000 136.123437 L 40.000000 133.623437 L 34.000000 133.623437 L 34.000000 136.123437 L 40.000000 136.123437" stroke="gray" fill="white" stroke-width="1px"></path><path d="M 251.737652 148.123437 L 251.737652 145.623437 L 245.737652 145.623437 L 245.737652 148.123437 L 251.737652 148.123437" stroke="gray" fill="white" stroke-width="1px"></path><path d="M 257.737652 148.123437 L 257.737652 145.623437 L 251.737652 145.623437 L 251.737652 148.123437 L 257.737652 148.123437" stroke="gray" fill="white" stroke-width="1px"></path><path d="M 263.737652 148.123437 L 263.737652 145.623437 L 257.737652 145.623437 L 257.737652 148.123437 L 263.737652 148.123437" stroke="gray" fill="white" stroke-width="1px"></path><path d="M 269.737652 148.123437 L 269.737652 145.623437 L 263.737652 145.623437 L 263.737652 148.123437 L 269.737652 148.123437" stroke="gray" fill="white" stroke-width="1px"></path><path d="M 275.737652 148.123437 L 275.737652 145.623437 L 269.737652 145.623437 L 269.737652 148.123437 L 275.737652 148.123437" stroke="gray" fill="white" stroke-width="1px"></path><path d="M 251.737652 136.123437 L 251.737652 133.623437 L 245.737652 133.623437 L 245.737652 136.123437 L 251.737652 136.123437" stroke="gray" fill="white" stroke-width="1px"></path><path d="M 257.737652 136.123437 L 257.737652 133.623437 L 251.737652 133.623437 L 251.737652 136.123437 L 257.737652 136.123437" stroke="gray" fill="white" stroke-width="1px"></path><path d="M 263.737652 136.123437 L 263.737652 133.623437 L 257.737652 133.623437 L 257.737652 136.123437 L 263.737652 136.123437" stroke="gray" fill="white" stroke-width="1px"></path><path d="M 269.737652 136.123437 L 269.737652 133.623437 L 263.737652 133.623437 L 263.737652 136.123437 L 269.737652 136.123437" stroke="gray" fill="white" stroke-width="1px"></path><path d="M 275.737652 136.123437 L 275.737652 133.623437 L 269.737652 133.623437 L 269.737652 136.123437 L 275.737652 136.123437" stroke="gray" fill="white" stroke-width="1px"></path><path d="M 22.000000 184.123437 L 22.000000 186.623437 L 16.000000 186.623437 L 16.000000 184.123437 L 22.000000 184.123437" stroke="gray" fill="white" stroke-width="1px"></path><path d="M 28.000000 184.123437 L 28.000000 186.623437 L 22.000000 186.623437 L 22.000000 184.123437 L 28.000000 184.123437" stroke="gray" fill="white" stroke-width="1px"></path><path d="M 34.000000 184.123437 L 34.000000 186.623437 L 28.000000 186.623437 L 28.000000 184.123437 L 34.000000 184.123437" stroke="gray" fill="white" stroke-width="1px"></path><path d="M 40.000000 184.123437 L 40.000000 186.623437 L 34.000000 186.623437 L 34.000000 184.123437 L 40.000000 184.123437" stroke="gray" fill="white" stroke-width="1px"></path><path d="M 22.000000 172.123437 L 22.000000 174.623437 L 16.000000 174.623437 L 16.000000 172.123437 L 22.000000 172.123437" stroke="gray" fill="white" stroke-width="1px"></path><path d="M 28.000000 172.123437 L 28.000000 174.623437 L 22.000000 174.623437 L 22.000000 172.123437 L 28.000000 172.123437" stroke="gray" fill="white" stroke-width="1px"></path><path d="M 34.000000 172.123437 L 34.000000 174.623437 L 28.000000 174.623437 L 28.000000 172.123437 L 34.000000 172.123437" stroke="gray" fill="white" stroke-width="1px"></path><path d="M 40.000000 172.123437 L 40.000000 174.623437 L 34.000000 174.623437 L 34.000000 172.123437 L 40.000000 172.123437" stroke="gray" fill="white" stroke-width="1px"></path><path d="M 22.000000 160.123437 L 22.000000 162.623437 L 16.000000 162.623437 L 16.000000 160.123437 L 22.000000 160.123437" stroke="gray" fill="white" stroke-width="1px"></path><path d="M 28.000000 160.123437 L 28.000000 162.623437 L 22.000000 162.623437 L 22.000000 160.123437 L 28.000000 160.123437" stroke="gray" fill="white" stroke-width="1px"></path><path d="M 34.000000 160.123437 L 34.000000 162.623437 L 28.000000 162.623437 L 28.000000 160.123437 L 34.000000 160.123437" stroke="gray" fill="white" stroke-width="1px"></path><path d="M 40.000000 160.123437 L 40.000000 162.623437 L 34.000000 162.623437 L 34.000000 160.123437 L 40.000000 160.123437" stroke="gray" fill="white" stroke-width="1px"></path><path d="M 22.000000 148.123437 L 22.000000 150.623437 L 16.000000 150.623437 L 16.000000 148.123437 L 22.000000 148.123437" stroke="gray" fill="white" stroke-width="1px"></path><path d="M 28.000000 148.123437 L 28.000000 150.623437 L 22.000000 150.623437 L 22.000000 148.123437 L 28.000000 148.123437" stroke="gray" fill="white" stroke-width="1px"></path><path d="M 34.000000 148.123437 L 34.000000 150.623437 L 28.000000 150.623437 L 28.000000 148.123437 L 34.000000 148.123437" stroke="gray" fill="white" stroke-width="1px"></path><path d="M 40.000000 148.123437 L 40.000000 150.623437 L 34.000000 150.623437 L 34.000000 148.123437 L 40.000000 148.123437" stroke="gray" fill="white" stroke-width="1px"></path><path d="M 22.000000 136.123437 L 22.000000 138.623437 L 16.000000 138.623437 L 16.000000 136.123437 L 22.000000 136.123437" stroke="gray" fill="white" stroke-width="1px"></path><path d="M 28.000000 136.123437 L 28.000000 138.623437 L 22.000000 138.623437 L 22.000000 136.123437 L 28.000000 136.123437" stroke="gray" fill="white" stroke-width="1px"></path><path d="M 34.000000 136.123437 L 34.000000 138.623437 L 28.000000 138.623437 L 28.000000 136.123437 L 34.000000 136.123437" stroke="gray" fill="white" stroke-width="1px"></path><path d="M 40.000000 136.123437 L 40.000000 138.623437 L 34.000000 138.623437 L 34.000000 136.123437 L 40.000000 136.123437" stroke="gray" fill="white" stroke-width="1px"></path><path d="M 251.737652 148.123437 L 251.737652 150.623437 L 245.737652 150.623437 L 245.737652 148.123437 L 251.737652 148.123437" stroke="gray" fill="white" stroke-width="1px"></path><path d="M 257.737652 148.123437 L 257.737652 150.623437 L 251.737652 150.623437 L 251.737652 148.123437 L 257.737652 148.123437" stroke="gray" fill="white" stroke-width="1px"></path><path d="M 263.737652 148.123437 L 263.737652 150.623437 L 257.737652 150.623437 L 257.737652 148.123437 L 263.737652 148.123437" stroke="gray" fill="white" stroke-width="1px"></path><path d="M 269.737652 148.123437 L 269.737652 150.623437 L 263.737652 150.623437 L 263.737652 148.123437 L 269.737652 148.123437" stroke="gray" fill="white" stroke-width="1px"></path><path d="M 275.737652 148.123437 L 275.737652 150.623437 L 269.737652 150.623437 L 269.737652 148.123437 L 275.737652 148.123437" stroke="gray" fill="white" stroke-width="1px"></path><path d="M 251.737652 136.123437 L 251.737652 138.623437 L 245.737652 138.623437 L 245.737652 136.123437 L 251.737652 136.123437" stroke="gray" fill="white" stroke-width="1px"></path><path d="M 257.737652 136.123437 L 257.737652 138.623437 L 251.737652 138.623437 L 251.737652 136.123437 L 257.737652 136.123437" stroke="gray" fill="white" stroke-width="1px"></path><path d="M 263.737652 136.123437 L 263.737652 138.623437 L 257.737652 138.623437 L 257.737652 136.123437 L 263.737652 136.123437" stroke="gray" fill="white" stroke-width="1px"></path><path d="M 269.737652 136.123437 L 269.737652 138.623437 L 263.737652 138.623437 L 263.737652 136.123437 L 269.737652 136.123437" stroke="gray" fill="white" stroke-width="1px"></path><path d="M 275.737652 136.123437 L 275.737652 138.623437 L 269.737652 138.623437 L 269.737652 136.123437 L 275.737652 136.123437" stroke="gray" fill="white" stroke-width="1px"></path><path d="M 271.459383 36.497199 L 268.959383 36.497199 L 268.959383 42.497199 L 271.459383 42.497199 L 271.459383 36.497199" stroke="gray" fill="white" stroke-width="1px"></path><path d="M 271.459383 30.497199 L 268.959383 30.497199 L 268.959383 36.497199 L 271.459383 36.497199 L 271.459383 30.497199" stroke="gray" fill="white" stroke-width="1px"></path><path d="M 271.459383 24.497199 L 268.959383 24.497199 L 268.959383 30.497199 L 271.459383 30.497199 L 271.459383 24.497199" stroke="gray" fill="white" stroke-width="1px"></path><path d="M 271.459383 18.497199 L 268.959383 18.497199 L 268.959383 24.497199 L 271.459383 24.497199 L 271.459383 18.497199" stroke="gray" fill="white" stroke-width="1px"></path><path d="M 271.459383 12.497199 L 268.959383 12.497199 L 268.959383 18.497199 L 271.459383 18.497199 L 271.459383 12.497199" stroke="gray" fill="white" stroke-width="1px"></path><path d="M 259.459383 44.154410 L 256.959383 44.154410 L 256.959383 50.154410 L 259.459383 50.154410 L 259.459383 44.154410" stroke="gray" fill="white" stroke-width="1px"></path><path d="M 259.459383 38.154410 L 256.959383 38.154410 L 256.959383 44.154410 L 259.459383 44.154410 L 259.459383 38.154410" stroke="gray" fill="white" stroke-width="1px"></path><path d="M 259.459383 32.154410 L 256.959383 32.154410 L 256.959383 38.154410 L 259.459383 38.154410 L 259.459383 32.154410" stroke="gray" fill="white" stroke-width="1px"></path><path d="M 259.459383 26.154410 L 256.959383 26.154410 L 256.959383 32.154410 L 259.459383 32.154410 L 259.459383 26.154410" stroke="gray" fill="white" stroke-width="1px"></path><path d="M 259.459383 20.154410 L 256.959383 20.154410 L 256.959383 26.154410 L 259.459383 26.154410 L 259.459383 20.154410" stroke="gray" fill="white" stroke-width="1px"></path><path d="M 259.459383 14.154410 L 256.959383 14.154410 L 256.959383 20.154410 L 259.459383 20.154410 L 259.459383 14.154410" stroke="gray" fill="white" stroke-width="1px"></path><path d="M 247.459383 32.651214 L 244.959383 32.651214 L 244.959383 38.651214 L 247.459383 38.651214 L 247.459383 32.651214" stroke="gray" fill="white" stroke-width="1px"></path><path d="M 247.459383 26.651214 L 244.959383 26.651214 L 244.959383 32.651214 L 247.459383 32.651214 L 247.459383 26.651214" stroke="gray" fill="white" stroke-width="1px"></path><path d="M 247.459383 20.651214 L 244.959383 20.651214 L 244.959383 26.651214 L 247.459383 26.651214 L 247.459383 20.651214" stroke="gray" fill="white" stroke-width="1px"></path><path d="M 247.459383 14.651214 L 244.959383 14.651214 L 244.959383 20.651214 L 247.459383 20.651214 L 247.459383 14.651214" stroke="gray" fill="white" stroke-width="1px"></path><path d="M 235.459383 26.048674 L 232.959383 26.048674 L 232.959383 32.048674 L 235.459383 32.048674 L 235.459383 26.048674" stroke="gray" fill="white" stroke-width="1px"></path><path d="M 235.459383 20.048674 L 232.959383 20.048674 L 232.959383 26.048674 L 235.459383 26.048674 L 235.459383 20.048674" stroke="gray" fill="white" stroke-width="1px"></path><path d="M 235.459383 14.048674 L 232.959383 14.048674 L 232.959383 20.048674 L 235.459383 20.048674 L 235.459383 14.048674" stroke="gray" fill="white" stroke-width="1px"></path><path d="M 175.459383 101.033125 L 172.959383 101.033125 L 172.959383 107.033125 L 175.459383 107.033125 L 175.459383 101.033125" stroke="gray" fill="white" stroke-width="1px"></path><path d="M 175.459383 90.062093 L 172.959383 90.062093 L 172.959383 96.062093 L 175.459383 96.062093 L 175.459383 90.062093" stroke="gray" fill="white" stroke-width="1px"></path><path d="M 175.459383 84.062093 L 172.959383 84.062093 L 172.959383 90.062093 L 175.459383 90.062093 L 175.459383 84.062093" stroke="gray" fill="white" stroke-width="1px"></path><path d="M 139.459383 101.033125 L 136.959383 101.033125 L 136.959383 107.033125 L 139.459383 107.033125 L 139.459383 101.033125" stroke="gray" fill="white" stroke-width="1px"></path><path d="M 139.459383 95.033125 L 136.959383 95.033125 L 136.959383 101.033125 L 139.459383 101.033125 L 139.459383 95.033125" stroke="gray" fill="white" stroke-width="1px"></path><path d="M 139.459383 89.033125 L 136.959383 89.033125 L 136.959383 95.033125 L 139.459383 95.033125 L 139.459383 89.033125" stroke="gray" fill="white" stroke-width="1px"></path><path d="M 139.459383 83.033125 L 136.959383 83.033125 L 136.959383 89.033125 L 139.459383 89.033125 L 139.459383 83.033125" stroke="gray" fill="white" stroke-width="1px"></path><path d="M 127.459383 101.033125 L 124.959383 101.033125 L 124.959383 107.033125 L 127.459383 107.033125 L 127.459383 101.033125" stroke="gray" fill="white" stroke-width="1px"></path><path d="M 127.459383 95.033125 L 124.959383 95.033125 L 124.959383 101.033125 L 127.459383 101.033125 L 127.459383 95.033125" stroke="gray" fill="white" stroke-width="1px"></path><path d="M 127.459383 89.033125 L 124.959383 89.033125 L 124.959383 95.033125 L 127.459383 95.033125 L 127.459383 89.033125" stroke="gray" fill="white" stroke-width="1px"></path><path d="M 127.459383 83.033125 L 124.959383 83.033125 L 124.959383 89.033125 L 127.459383 89.033125 L 127.459383 83.033125" stroke="gray" fill="white" stroke-width="1px"></path><path d="M 115.459383 101.033125 L 112.959383 101.033125 L 112.959383 107.033125 L 115.459383 107.033125 L 115.459383 101.033125" stroke="gray" fill="white" stroke-width="1px"></path><path d="M 115.459383 95.033125 L 112.959383 95.033125 L 112.959383 101.033125 L 115.459383 101.033125 L 115.459383 95.033125" stroke="gray" fill="white" stroke-width="1px"></path><path d="M 115.459383 89.033125 L 112.959383 89.033125 L 112.959383 95.033125 L 115.459383 95.033125 L 115.459383 89.033125" stroke="gray" fill="white" stroke-width="1px"></path><path d="M 115.459383 83.033125 L 112.959383 83.033125 L 112.959383 89.033125 L 115.459383 89.033125 L 115.459383 83.033125" stroke="gray" fill="white" stroke-width="1px"></path><path d="M 55.459383 107.090312 L 52.959383 107.090312 L 52.959383 113.090312 L 55.459383 113.090312 L 55.459383 107.090312" stroke="gray" fill="white" stroke-width="1px"></path><path d="M 55.459383 101.090312 L 52.959383 101.090312 L 52.959383 107.090312 L 55.459383 107.090312 L 55.459383 101.090312" stroke="gray" fill="white" stroke-width="1px"></path><path d="M 43.459383 107.090312 L 40.959383 107.090312 L 40.959383 113.090312 L 43.459383 113.090312 L 43.459383 107.090312" stroke="gray" fill="white" stroke-width="1px"></path><path d="M 43.459383 101.090312 L 40.959383 101.090312 L 40.959383 107.090312 L 43.459383 107.090312 L 43.459383 101.090312" stroke="gray" fill="white" stroke-width="1px"></path><path d="M 31.459383 107.090312 L 28.959383 107.090312 L 28.959383 113.090312 L 31.459383 113.090312 L 31.459383 107.090312" stroke="gray" fill="white" stroke-width="1px"></path><path d="M 31.459383 101.090312 L 28.959383 101.090312 L 28.959383 107.090312 L 31.459383 107.090312 L 31.459383 101.090312" stroke="gray" fill="white" stroke-width="1px"></path><path d="M 31.459383 95.090312 L 28.959383 95.090312 L 28.959383 101.090312 L 31.459383 101.090312 L 31.459383 95.090312" stroke="gray" fill="white" stroke-width="1px"></path><path d="M 19.459383 107.090312 L 16.959383 107.090312 L 16.959383 113.090312 L 19.459383 113.090312 L 19.459383 107.090312" stroke="gray" fill="white" stroke-width="1px"></path><path d="M 19.459383 101.090312 L 16.959383 101.090312 L 16.959383 107.090312 L 19.459383 107.090312 L 19.459383 101.090312" stroke="gray" fill="white" stroke-width="1px"></path><path d="M 19.459383 95.090312 L 16.959383 95.090312 L 16.959383 101.090312 L 19.459383 101.090312 L 19.459383 95.090312" stroke="gray" fill="white" stroke-width="1px"></path><path d="M 271.459383 30.497199 L 273.959383 30.497199 L 273.959383 36.497199 L 271.459383 36.497199 L 271.459383 30.497199" stroke="gray" fill="white" stroke-width="1px"></path><path d="M 271.459383 24.497199 L 273.959383 24.497199 L 273.959383 30.497199 L 271.459383 30.497199 L 271.459383 24.497199" stroke="gray" fill="white" stroke-width="1px"></path><path d="M 271.459383 18.497199 L 273.959383 18.497199 L 273.959383 24.497199 L 271.459383 24.497199 L 271.459383 18.497199" stroke="gray" fill="white" stroke-width="1px"></path><path d="M 271.459383 12.497199 L 273.959383 12.497199 L 273.959383 18.497199 L 271.459383 18.497199 L 271.459383 12.497199" stroke="gray" fill="white" stroke-width="1px"></path><path d="M 259.459383 38.154410 L 261.959383 38.154410 L 261.959383 44.154410 L 259.459383 44.154410 L 259.459383 38.154410" stroke="gray" fill="white" stroke-width="1px"></path><path d="M 259.459383 32.154410 L 261.959383 32.154410 L 261.959383 38.154410 L 259.459383 38.154410 L 259.459383 32.154410" stroke="gray" fill="white" stroke-width="1px"></path><path d="M 259.459383 26.154410 L 261.959383 26.154410 L 261.959383 32.154410 L 259.459383 32.154410 L 259.459383 26.154410" stroke="gray" fill="white" stroke-width="1px"></path><path d="M 259.459383 20.154410 L 261.959383 20.154410 L 261.959383 26.154410 L 259.459383 26.154410 L 259.459383 20.154410" stroke="gray" fill="white" stroke-width="1px"></path><path d="M 259.459383 14.154410 L 261.959383 14.154410 L 261.959383 20.154410 L 259.459383 20.154410 L 259.459383 14.154410" stroke="gray" fill="white" stroke-width="1px"></path><path d="M 247.459383 32.651214 L 249.959383 32.651214 L 249.959383 38.651214 L 247.459383 38.651214 L 247.459383 32.651214" stroke="gray" fill="white" stroke-width="1px"></path><path d="M 247.459383 26.651214 L 249.959383 26.651214 L 249.959383 32.651214 L 247.459383 32.651214 L 247.459383 26.651214" stroke="gray" fill="white" stroke-width="1px"></path><path d="M 247.459383 20.651214 L 249.959383 20.651214 L 249.959383 26.651214 L 247.459383 26.651214 L 247.459383 20.651214" stroke="gray" fill="white" stroke-width="1px"></path><path d="M 247.459383 14.651214 L 249.959383 14.651214 L 249.959383 20.651214 L 247.459383 20.651214 L 247.459383 14.651214" stroke="gray" fill="white" stroke-width="1px"></path><path d="M 235.459383 26.048674 L 237.959383 26.048674 L 237.959383 32.048674 L 235.459383 32.048674 L 235.459383 26.048674" stroke="gray" fill="white" stroke-width="1px"></path><path d="M 235.459383 20.048674 L 237.959383 20.048674 L 237.959383 26.048674 L 235.459383 26.048674 L 235.459383 20.048674" stroke="gray" fill="white" stroke-width="1px"></path><path d="M 235.459383 14.048674 L 237.959383 14.048674 L 237.959383 20.048674 L 235.459383 20.048674 L 235.459383 14.048674" stroke="gray" fill="white" stroke-width="1px"></path><path d="M 175.459383 101.033125 L 177.959383 101.033125 L 177.959383 107.033125 L 175.459383 107.033125 L 175.459383 101.033125" stroke="gray" fill="white" stroke-width="1px"></path><path d="M 175.459383 84.062093 L 177.959383 84.062093 L 177.959383 90.062093 L 175.459383 90.062093 L 175.459383 84.062093" stroke="gray" fill="white" stroke-width="1px"></path><path d="M 139.459383 101.033125 L 141.959383 101.033125 L 141.959383 107.033125 L 139.459383 107.033125 L 139.459383 101.033125" stroke="gray" fill="white" stroke-width="1px"></path><path d="M 139.459383 95.033125 L 141.959383 95.033125 L 141.959383 101.033125 L 139.459383 101.033125 L 139.459383 95.033125" stroke="gray" fill="white" stroke-width="1px"></path><path d="M 139.459383 89.033125 L 141.959383 89.033125 L 141.959383 95.033125 L 139.459383 95.033125 L 139.459383 89.033125" stroke="gray" fill="white" stroke-width="1px"></path><path d="M 139.459383 83.033125 L 141.959383 83.033125 L 141.959383 89.033125 L 139.459383 89.033125 L 139.459383 83.033125" stroke="gray" fill="white" stroke-width="1px"></path><path d="M 127.459383 101.033125 L 129.959383 101.033125 L 129.959383 107.033125 L 127.459383 107.033125 L 127.459383 101.033125" stroke="gray" fill="white" stroke-width="1px"></path><path d="M 127.459383 95.033125 L 129.959383 95.033125 L 129.959383 101.033125 L 127.459383 101.033125 L 127.459383 95.033125" stroke="gray" fill="white" stroke-width="1px"></path><path d="M 127.459383 89.033125 L 129.959383 89.033125 L 129.959383 95.033125 L 127.459383 95.033125 L 127.459383 89.033125" stroke="gray" fill="white" stroke-width="1px"></path><path d="M 127.459383 83.033125 L 129.959383 83.033125 L 129.959383 89.033125 L 127.459383 89.033125 L 127.459383 83.033125" stroke="gray" fill="white" stroke-width="1px"></path><path d="M 115.459383 101.033125 L 117.959383 101.033125 L 117.959383 107.033125 L 115.459383 107.033125 L 115.459383 101.033125" stroke="gray" fill="white" stroke-width="1px"></path><path d="M 115.459383 95.033125 L 117.959383 95.033125 L 117.959383 101.033125 L 115.459383 101.033125 L 115.459383 95.033125" stroke="gray" fill="white" stroke-width="1px"></path><path d="M 115.459383 89.033125 L 117.959383 89.033125 L 117.959383 95.033125 L 115.459383 95.033125 L 115.459383 89.033125" stroke="gray" fill="white" stroke-width="1px"></path><path d="M 115.459383 83.033125 L 117.959383 83.033125 L 117.959383 89.033125 L 115.459383 89.033125 L 115.459383 83.033125" stroke="gray" fill="white" stroke-width="1px"></path><path d="M 55.459383 107.090312 L 57.959383 107.090312 L 57.959383 113.090312 L 55.459383 113.090312 L 55.459383 107.090312" stroke="gray" fill="white" stroke-width="1px"></path><path d="M 55.459383 101.090312 L 57.959383 101.090312 L 57.959383 107.090312 L 55.459383 107.090312 L 55.459383 101.090312" stroke="gray" fill="white" stroke-width="1px"></path><path d="M 43.459383 107.090312 L 45.959383 107.090312 L 45.959383 113.090312 L 43.459383 113.090312 L 43.459383 107.090312" stroke="gray" fill="white" stroke-width="1px"></path><path d="M 43.459383 101.090312 L 45.959383 101.090312 L 45.959383 107.090312 L 43.459383 107.090312 L 43.459383 101.090312" stroke="gray" fill="white" stroke-width="1px"></path><path d="M 31.459383 107.090312 L 33.959383 107.090312 L 33.959383 113.090312 L 31.459383 113.090312 L 31.459383 107.090312" stroke="gray" fill="white" stroke-width="1px"></path><path d="M 31.459383 101.090312 L 33.959383 101.090312 L 33.959383 107.090312 L 31.459383 107.090312 L 31.459383 101.090312" stroke="gray" fill="white" stroke-width="1px"></path><path d="M 31.459383 95.090312 L 33.959383 95.090312 L 33.959383 101.090312 L 31.459383 101.090312 L 31.459383 95.090312" stroke="gray" fill="white" stroke-width="1px"></path><path d="M 19.459383 107.090312 L 21.959383 107.090312 L 21.959383 113.090312 L 19.459383 113.090312 L 19.459383 107.090312" stroke="gray" fill="white" stroke-width="1px"></path><path d="M 19.459383 101.090312 L 21.959383 101.090312 L 21.959383 107.090312 L 19.459383 107.090312 L 19.459383 101.090312" stroke="gray" fill="white" stroke-width="1px"></path><path d="M 19.459383 95.090312 L 21.959383 95.090312 L 21.959383 101.090312 L 19.459383 101.090312 L 19.459383 95.090312" stroke="gray" fill="white" stroke-width="1px"></path><path d="M 266.363137 101.263579 L 266.363137 98.763579 L 260.363137 98.763579 L 260.363137 101.263579 L 266.363137 101.263579" stroke="gray" fill="white" stroke-width="1px"></path><path d="M 272.363137 101.263579 L 272.363137 98.763579 L 266.363137 98.763579 L 266.363137 101.263579 L 272.363137 101.263579" stroke="gray" fill="white" stroke-width="1px"></path><path d="M 278.363137 101.263579 L 278.363137 98.763579 L 272.363137 98.763579 L 272.363137 101.263579 L 278.363137 101.263579" stroke="gray" fill="white" stroke-width="1px"></path><path d="M 267.762169 89.263579 L 267.762169 86.763579 L 261.762169 86.763579 L 261.762169 89.263579 L 267.762169 89.263579" stroke="gray" fill="white" stroke-width="1px"></path><path d="M 273.762169 89.263579 L 273.762169 86.763579 L 267.762169 86.763579 L 267.762169 89.263579 L 273.762169 89.263579" stroke="gray" fill="white" stroke-width="1px"></path><path d="M 269.161201 77.263579 L 269.161201 74.763579 L 263.161201 74.763579 L 263.161201 77.263579 L 269.161201 77.263579" stroke="gray" fill="white" stroke-width="1px"></path><path d="M 275.161201 77.263579 L 275.161201 74.763579 L 269.161201 74.763579 L 269.161201 77.263579 L 275.161201 77.263579" stroke="gray" fill="white" stroke-width="1px"></path><path d="M 270.560232 65.263579 L 270.560232 62.763579 L 264.560232 62.763579 L 264.560232 65.263579 L 270.560232 65.263579" stroke="gray" fill="white" stroke-width="1px"></path><path d="M 276.560232 65.263579 L 276.560232 62.763579 L 270.560232 62.763579 L 270.560232 65.263579 L 276.560232 65.263579" stroke="gray" fill="white" stroke-width="1px"></path><path d="M 272.586849 53.263579 L 272.586849 50.763579 L 266.586849 50.763579 L 266.586849 53.263579 L 272.586849 53.263579" stroke="gray" fill="white" stroke-width="1px"></path><path d="M 278.586849 53.263579 L 278.586849 50.763579 L 272.586849 50.763579 L 272.586849 53.263579 L 278.586849 53.263579" stroke="gray" fill="white" stroke-width="1px"></path><path d="M 220.276095 101.263579 L 220.276095 98.763579 L 214.276095 98.763579 L 214.276095 101.263579 L 220.276095 101.263579" stroke="gray" fill="white" stroke-width="1px"></path><path d="M 226.276095 101.263579 L 226.276095 98.763579 L 220.276095 98.763579 L 220.276095 101.263579 L 226.276095 101.263579" stroke="gray" fill="white" stroke-width="1px"></path><path d="M 232.276095 101.263579 L 232.276095 98.763579 L 226.276095 98.763579 L 226.276095 101.263579 L 232.276095 101.263579" stroke="gray" fill="white" stroke-width="1px"></path><path d="M 234.802312 89.263579 L 234.802312 86.763579 L 228.802312 86.763579 L 228.802312 89.263579 L 234.802312 89.263579" stroke="gray" fill="white" stroke-width="1px"></path><path d="M 233.737654 77.263579 L 233.737654 74.763579 L 227.737654 74.763579 L 227.737654 77.263579 L 233.737654 77.263579" stroke="gray" fill="white" stroke-width="1px"></path><path d="M 233.737654 65.263579 L 233.737654 62.763579 L 227.737654 62.763579 L 227.737654 65.263579 L 233.737654 65.263579" stroke="gray" fill="white" stroke-width="1px"></path><path d="M 29.114523 65.263579 L 29.114523 62.763579 L 23.114523 62.763579 L 23.114523 65.263579 L 29.114523 65.263579" stroke="gray" fill="white" stroke-width="1px"></path><path d="M 35.114523 65.263579 L 35.114523 62.763579 L 29.114523 62.763579 L 29.114523 65.263579 L 35.114523 65.263579" stroke="gray" fill="white" stroke-width="1px"></path><path d="M 41.114523 65.263579 L 41.114523 62.763579 L 35.114523 62.763579 L 35.114523 65.263579 L 41.114523 65.263579" stroke="gray" fill="white" stroke-width="1px"></path><path d="M 47.114523 65.263579 L 47.114523 62.763579 L 41.114523 62.763579 L 41.114523 65.263579 L 47.114523 65.263579" stroke="gray" fill="white" stroke-width="1px"></path><path d="M 53.114523 65.263579 L 53.114523 62.763579 L 47.114523 62.763579 L 47.114523 65.263579 L 53.114523 65.263579" stroke="gray" fill="white" stroke-width="1px"></path><path d="M 59.114523 65.263579 L 59.114523 62.763579 L 53.114523 62.763579 L 53.114523 65.263579 L 59.114523 65.263579" stroke="gray" fill="white" stroke-width="1px"></path><path d="M 22.000000 53.263579 L 22.000000 50.763579 L 16.000000 50.763579 L 16.000000 53.263579 L 22.000000 53.263579" stroke="gray" fill="white" stroke-width="1px"></path><path d="M 28.000000 53.263579 L 28.000000 50.763579 L 22.000000 50.763579 L 22.000000 53.263579 L 28.000000 53.263579" stroke="gray" fill="white" stroke-width="1px"></path><path d="M 34.000000 53.263579 L 34.000000 50.763579 L 28.000000 50.763579 L 28.000000 53.263579 L 34.000000 53.263579" stroke="gray" fill="white" stroke-width="1px"></path><path d="M 40.000000 53.263579 L 40.000000 50.763579 L 34.000000 50.763579 L 34.000000 53.263579 L 40.000000 53.263579" stroke="gray" fill="white" stroke-width="1px"></path><path d="M 22.000000 41.263579 L 22.000000 38.763579 L 16.000000 38.763579 L 16.000000 41.263579 L 22.000000 41.263579" stroke="gray" fill="white" stroke-width="1px"></path><path d="M 28.000000 41.263579 L 28.000000 38.763579 L 22.000000 38.763579 L 22.000000 41.263579 L 28.000000 41.263579" stroke="gray" fill="white" stroke-width="1px"></path><path d="M 34.000000 41.263579 L 34.000000 38.763579 L 28.000000 38.763579 L 28.000000 41.263579 L 34.000000 41.263579" stroke="gray" fill="white" stroke-width="1px"></path><path d="M 40.000000 41.263579 L 40.000000 38.763579 L 34.000000 38.763579 L 34.000000 41.263579 L 40.000000 41.263579" stroke="gray" fill="white" stroke-width="1px"></path><path d="M 22.000000 29.263579 L 22.000000 26.763579 L 16.000000 26.763579 L 16.000000 29.263579 L 22.000000 29.263579" stroke="gray" fill="white" stroke-width="1px"></path><path d="M 28.000000 29.263579 L 28.000000 26.763579 L 22.000000 26.763579 L 22.000000 29.263579 L 28.000000 29.263579" stroke="gray" fill="white" stroke-width="1px"></path><path d="M 34.000000 29.263579 L 34.000000 26.763579 L 28.000000 26.763579 L 28.000000 29.263579 L 34.000000 29.263579" stroke="gray" fill="white" stroke-width="1px"></path><path d="M 40.000000 29.263579 L 40.000000 26.763579 L 34.000000 26.763579 L 34.000000 29.263579 L 40.000000 29.263579" stroke="gray" fill="white" stroke-width="1px"></path><path d="M 22.000000 17.263579 L 22.000000 14.763579 L 16.000000 14.763579 L 16.000000 17.263579 L 22.000000 17.263579" stroke="gray" fill="white" stroke-width="1px"></path><path d="M 28.000000 17.263579 L 28.000000 14.763579 L 22.000000 14.763579 L 22.000000 17.263579 L 28.000000 17.263579" stroke="gray" fill="white" stroke-width="1px"></path><path d="M 34.000000 17.263579 L 34.000000 14.763579 L 28.000000 14.763579 L 28.000000 17.263579 L 34.000000 17.263579" stroke="gray" fill="white" stroke-width="1px"></path><path d="M 40.000000 17.263579 L 40.000000 14.763579 L 34.000000 14.763579 L 34.000000 17.263579 L 40.000000 17.263579" stroke="gray" fill="white" stroke-width="1px"></path><path d="M 266.363137 101.263579 L 266.363137 103.763579 L 260.363137 103.763579 L 260.363137 101.263579 L 266.363137 101.263579" stroke="gray" fill="white" stroke-width="1px"></path><path d="M 272.363137 101.263579 L 272.363137 103.763579 L 266.363137 103.763579 L 266.363137 101.263579 L 272.363137 101.263579" stroke="gray" fill="white" stroke-width="1px"></path><path d="M 278.363137 101.263579 L 278.363137 103.763579 L 272.363137 103.763579 L 272.363137 101.263579 L 278.363137 101.263579" stroke="gray" fill="white" stroke-width="1px"></path><path d="M 267.762169 89.263579 L 267.762169 91.763579 L 261.762169 91.763579 L 261.762169 89.263579 L 267.762169 89.263579" stroke="gray" fill="white" stroke-width="1px"></path><path d="M 273.762169 89.263579 L 273.762169 91.763579 L 267.762169 91.763579 L 267.762169 89.263579 L 273.762169 89.263579" stroke="gray" fill="white" stroke-width="1px"></path><path d="M 269.161201 77.263579 L 269.161201 79.763579 L 263.161201 79.763579 L 263.161201 77.263579 L 269.161201 77.263579" stroke="gray" fill="white" stroke-width="1px"></path><path d="M 275.161201 77.263579 L 275.161201 79.763579 L 269.161201 79.763579 L 269.161201 77.263579 L 275.161201 77.263579" stroke="gray" fill="white" stroke-width="1px"></path><path d="M 270.560232 65.263579 L 270.560232 67.763579 L 264.560232 67.763579 L 264.560232 65.263579 L 270.560232 65.263579" stroke="gray" fill="white" stroke-width="1px"></path><path d="M 276.560232 65.263579 L 276.560232 67.763579 L 270.560232 67.763579 L 270.560232 65.263579 L 276.560232 65.263579" stroke="gray" fill="white" stroke-width="1px"></path><path d="M 266.586849 53.263579 L 266.586849 55.763579 L 260.586849 55.763579 L 260.586849 53.263579 L 266.586849 53.263579" stroke="gray" fill="white" stroke-width="1px"></path><path d="M 272.586849 53.263579 L 272.586849 55.763579 L 266.586849 55.763579 L 266.586849 53.263579 L 272.586849 53.263579" stroke="gray" fill="white" stroke-width="1px"></path><path d="M 278.586849 53.263579 L 278.586849 55.763579 L 272.586849 55.763579 L 272.586849 53.263579 L 278.586849 53.263579" stroke="gray" fill="white" stroke-width="1px"></path><path d="M 220.276095 101.263579 L 220.276095 103.763579 L 214.276095 103.763579 L 214.276095 101.263579 L 220.276095 101.263579" stroke="gray" fill="white" stroke-width="1px"></path><path d="M 226.276095 101.263579 L 226.276095 103.763579 L 220.276095 103.763579 L 220.276095 101.263579 L 226.276095 101.263579" stroke="gray" fill="white" stroke-width="1px"></path><path d="M 232.276095 101.263579 L 232.276095 103.763579 L 226.276095 103.763579 L 226.276095 101.263579 L 232.276095 101.263579" stroke="gray" fill="white" stroke-width="1px"></path><path d="M 234.802312 89.263579 L 234.802312 91.763579 L 228.802312 91.763579 L 228.802312 89.263579 L 234.802312 89.263579" stroke="gray" fill="white" stroke-width="1px"></path><path d="M 233.737654 77.263579 L 233.737654 79.763579 L 227.737654 79.763579 L 227.737654 77.263579 L 233.737654 77.263579" stroke="gray" fill="white" stroke-width="1px"></path><path d="M 233.737654 65.263579 L 233.737654 67.763579 L 227.737654 67.763579 L 227.737654 65.263579 L 233.737654 65.263579" stroke="gray" fill="white" stroke-width="1px"></path><path d="M 35.114523 65.263579 L 35.114523 67.763579 L 29.114523 67.763579 L 29.114523 65.263579 L 35.114523 65.263579" stroke="gray" fill="white" stroke-width="1px"></path><path d="M 41.114523 65.263579 L 41.114523 67.763579 L 35.114523 67.763579 L 35.114523 65.263579 L 41.114523 65.263579" stroke="gray" fill="white" stroke-width="1px"></path><path d="M 47.114523 65.263579 L 47.114523 67.763579 L 41.114523 67.763579 L 41.114523 65.263579 L 47.114523 65.263579" stroke="gray" fill="white" stroke-width="1px"></path><path d="M 53.114523 65.263579 L 53.114523 67.763579 L 47.114523 67.763579 L 47.114523 65.263579 L 53.114523 65.263579" stroke="gray" fill="white" stroke-width="1px"></path><path d="M 59.114523 65.263579 L 59.114523 67.763579 L 53.114523 67.763579 L 53.114523 65.263579 L 59.114523 65.263579" stroke="gray" fill="white" stroke-width="1px"></path><path d="M 22.000000 53.263579 L 22.000000 55.763579 L 16.000000 55.763579 L 16.000000 53.263579 L 22.000000 53.263579" stroke="gray" fill="white" stroke-width="1px"></path><path d="M 28.000000 53.263579 L 28.000000 55.763579 L 22.000000 55.763579 L 22.000000 53.263579 L 28.000000 53.263579" stroke="gray" fill="white" stroke-width="1px"></path><path d="M 34.000000 53.263579 L 34.000000 55.763579 L 28.000000 55.763579 L 28.000000 53.263579 L 34.000000 53.263579" stroke="gray" fill="white" stroke-width="1px"></path><path d="M 40.000000 53.263579 L 40.000000 55.763579 L 34.000000 55.763579 L 34.000000 53.263579 L 40.000000 53.263579" stroke="gray" fill="white" stroke-width="1px"></path><path d="M 22.000000 41.263579 L 22.000000 43.763579 L 16.000000 43.763579 L 16.000000 41.263579 L 22.000000 41.263579" stroke="gray" fill="white" stroke-width="1px"></path><path d="M 28.000000 41.263579 L 28.000000 43.763579 L 22.000000 43.763579 L 22.000000 41.263579 L 28.000000 41.263579" stroke="gray" fill="white" stroke-width="1px"></path><path d="M 34.000000 41.263579 L 34.000000 43.763579 L 28.000000 43.763579 L 28.000000 41.263579 L 34.000000 41.263579" stroke="gray" fill="white" stroke-width="1px"></path><path d="M 40.000000 41.263579 L 40.000000 43.763579 L 34.000000 43.763579 L 34.000000 41.263579 L 40.000000 41.263579" stroke="gray" fill="white" stroke-width="1px"></path><path d="M 22.000000 29.263579 L 22.000000 31.763579 L 16.000000 31.763579 L 16.000000 29.263579 L 22.000000 29.263579" stroke="gray" fill="white" stroke-width="1px"></path><path d="M 28.000000 29.263579 L 28.000000 31.763579 L 22.000000 31.763579 L 22.000000 29.263579 L 28.000000 29.263579" stroke="gray" fill="white" stroke-width="1px"></path><path d="M 34.000000 29.263579 L 34.000000 31.763579 L 28.000000 31.763579 L 28.000000 29.263579 L 34.000000 29.263579" stroke="gray" fill="white" stroke-width="1px"></path><path d="M 40.000000 29.263579 L 40.000000 31.763579 L 34.000000 31.763579 L 34.000000 29.263579 L 40.000000 29.263579" stroke="gray" fill="white" stroke-width="1px"></path><path d="M 22.000000 17.263579 L 22.000000 19.763579 L 16.000000 19.763579 L 16.000000 17.263579 L 22.000000 17.263579" stroke="gray" fill="white" stroke-width="1px"></path><path d="M 28.000000 17.263579 L 28.000000 19.763579 L 22.000000 19.763579 L 22.000000 17.263579 L 28.000000 17.263579" stroke="gray" fill="white" stroke-width="1px"></path><path d="M 34.000000 17.263579 L 34.000000 19.763579 L 28.000000 19.763579 L 28.000000 17.263579 L 34.000000 17.263579" stroke="gray" fill="white" stroke-width="1px"></path><path d="M 40.000000 17.263579 L 40.000000 19.763579 L 34.000000 19.763579 L 34.000000 17.263579 L 40.000000 17.263579" stroke="gray" fill="white" stroke-width="1px"></path></g><g id="crv-base"><path d="M 221.371570 123.090312 L 221.371570 169.241094 L 120.000633 169.241094 L 120.000633 156.444206 L 126.051258 156.444206 L 126.051258 123.858132 L 91.315945 123.858125 L 91.315945 134.738750 L 64.258762 134.738750 L 64.258762 123.687497 L 10.000000 123.687497 L 10.000000 226.180625 L 64.258758 226.180625 L 64.258758 192.357500 L 91.315945 192.357500 L 91.315945 220.123437 L 283.459383 220.123437 L 283.459383 123.090312 L 221.371570 123.090312" stroke="black" fill="none" stroke-width="1px"></path><path d="M 221.371570 10.000000 L 221.371570 56.150781 L 120.000633 56.150781 L 120.000633 43.353893 L 126.051258 43.353893 L 126.051258 10.767819 L 91.315945 10.767812 L 91.315945 21.648438 L 64.258762 21.648438 L 64.258762 10.597185 L 10.000000 10.597185 L 10.000000 113.090312 L 64.258758 113.090312 L 64.258758 79.267187 L 91.315945 79.267187 L 91.315945 107.033125 L 283.459383 107.033125 L 283.459383 10.000000 L 221.371570 10.000000" stroke="black" fill="none" stroke-width="1px"></path><path d="M 10.387195 156.559062 L 10.387195 154.590312 L 12.355945 154.590312 L 12.355945 156.559062 L 10.387195 156.559062" stroke="black" fill="white" stroke-width="1px"></path><path d="M 10.387195 43.468750 L 10.387195 41.500000 L 12.355945 41.500000 L 12.355945 43.468750 L 10.387195 43.468750" stroke="black" fill="white" stroke-width="1px"></path><path d="M 10.387195 188.059062 L 10.387195 186.090312 L 12.355945 186.090312 L 12.355945 188.059062 L 10.387195 188.059062" stroke="black" fill="white" stroke-width="1px"></path><path d="M 10.387195 74.968750 L 10.387195 73.000000 L 12.355945 73.000000 L 12.355945 74.968750 L 10.387195 74.968750" stroke="black" fill="white" stroke-width="1px"></path><path d="M 10.387195 219.559062 L 10.387195 217.590312 L 12.355945 217.590312 L 12.355945 219.559062 L 10.387195 219.559062" stroke="black" fill="white" stroke-width="1px"></path><path d="M 10.387195 106.468750 L 10.387195 104.500000 L 12.355945 104.500000 L 12.355945 106.468750 L 10.387195 106.468750" stroke="black" fill="white" stroke-width="1px"></path><path d="M 60.754383 128.340312 L 60.754383 125.387187 L 63.871570 125.387187 L 63.871570 128.340312 L 60.754383 128.340312" stroke="black" fill="white" stroke-width="1px"></path><path d="M 60.754383 15.250000 L 60.754383 12.296875 L 63.871570 12.296875 L 63.871570 15.250000 L 60.754383 15.250000" stroke="black" fill="white" stroke-width="1px"></path><path d="M 280.598133 219.230937 L 280.598133 217.262187 L 282.566883 217.262187 L 282.566883 219.230937 L 280.598133 219.230937" stroke="black" fill="white" stroke-width="1px"></path><path d="M 280.598133 106.140625 L 280.598133 104.171875 L 282.566883 104.171875 L 282.566883 106.140625 L 280.598133 106.140625" stroke="black" fill="white" stroke-width="1px"></path><path d="M 280.598133 188.059062 L 280.598133 186.090312 L 282.566883 186.090312 L 282.566883 188.059062 L 280.598133 188.059062" stroke="black" fill="white" stroke-width="1px"></path><path d="M 280.598133 74.968750 L 280.598133 73.000000 L 282.566883 73.000000 L 282.566883 74.968750 L 280.598133 74.968750" stroke="black" fill="white" stroke-width="1px"></path><path d="M 280.598133 156.559050 L 280.598133 154.590300 L 282.566883 154.590300 L 282.566883 156.559050 L 280.598133 156.559050" stroke="black" fill="white" stroke-width="1px"></path><path d="M 280.598133 43.468737 L 280.598133 41.499987 L 282.566883 41.499987 L 282.566883 43.468737 L 280.598133 43.468737" stroke="black" fill="white" stroke-width="1px"></path><path d="M 248.605945 127.355937 L 248.605945 123.418437 L 251.887195 123.418437 L 251.887195 127.355937 L 248.605945 127.355937" stroke="black" fill="white" stroke-width="1px"></path><path d="M 248.605945 14.265625 L 248.605945 10.328125 L 251.887195 10.328125 L 251.887195 14.265625 L 248.605945 14.265625" stroke="black" fill="white" stroke-width="1px"></path><path d="M 248.605945 157.871562 L 248.605945 153.934062 L 251.887195 153.934062 L 251.887195 157.871562 L 248.605945 157.871562" stroke="black" fill="white" stroke-width="1px"></path><path d="M 248.605945 44.781250 L 248.605945 40.843750 L 251.887195 40.843750 L 251.887195 44.781250 L 248.605945 44.781250" stroke="black" fill="white" stroke-width="1px"></path><path d="M 248.605945 189.043437 L 248.605945 185.105937 L 251.887195 185.105937 L 251.887195 189.043437 L 248.605945 189.043437" stroke="black" fill="white" stroke-width="1px"></path><path d="M 248.605945 75.953125 L 248.605945 72.015625 L 251.887195 72.015625 L 251.887195 75.953125 L 248.605945 75.953125" stroke="black" fill="white" stroke-width="1px"></path><path d="M 248.934070 219.230937 L 248.934070 216.277812 L 251.887195 216.277812 L 251.887195 219.230937 L 248.934070 219.230937" stroke="black" fill="white" stroke-width="1px"></path><path d="M 248.934070 106.140625 L 248.934070 103.187500 L 251.887195 103.187500 L 251.887195 106.140625 L 248.934070 106.140625" stroke="black" fill="white" stroke-width="1px"></path><path d="M 218.090320 189.043437 L 218.090320 185.105937 L 221.371570 185.105937 L 221.371570 189.043437 L 218.090320 189.043437" stroke="black" fill="white" stroke-width="1px"></path><path d="M 218.090320 75.953125 L 218.090320 72.015625 L 221.371570 72.015625 L 221.371570 75.953125 L 218.090320 75.953125" stroke="black" fill="white" stroke-width="1px"></path><path d="M 218.254383 219.230937 L 218.254383 216.277812 L 221.207508 216.277812 L 221.207508 219.230937 L 218.254383 219.230937" stroke="black" fill="white" stroke-width="1px"></path><path d="M 218.254383 106.140625 L 218.254383 103.187500 L 221.207508 103.187500 L 221.207508 106.140625 L 218.254383 106.140625" stroke="black" fill="white" stroke-width="1px"></path><path d="M 186.590320 189.043437 L 186.590320 185.105937 L 189.871570 185.105937 L 189.871570 189.043437 L 186.590320 189.043437" stroke="black" fill="white" stroke-width="1px"></path><path d="M 186.590320 75.953125 L 186.590320 72.015625 L 189.871570 72.015625 L 189.871570 75.953125 L 186.590320 75.953125" stroke="black" fill="white" stroke-width="1px"></path><path d="M 186.754383 219.230937 L 186.754383 216.277812 L 189.707508 216.277812 L 189.707508 219.230937 L 186.754383 219.230937" stroke="black" fill="white" stroke-width="1px"></path><path d="M 186.754383 106.140625 L 186.754383 103.187500 L 189.707508 103.187500 L 189.707508 106.140625 L 186.754383 106.140625" stroke="black" fill="white" stroke-width="1px"></path><path d="M 155.090320 189.043437 L 155.090320 185.105937 L 158.371570 185.105937 L 158.371570 189.043437 L 155.090320 189.043437" stroke="black" fill="white" stroke-width="1px"></path><path d="M 155.090320 75.953125 L 155.090320 72.015625 L 158.371570 72.015625 L 158.371570 75.953125 L 155.090320 75.953125" stroke="black" fill="white" stroke-width="1px"></path><path d="M 155.254383 219.230937 L 155.254383 216.277812 L 158.207508 216.277812 L 158.207508 219.230937 L 155.254383 219.230937" stroke="black" fill="white" stroke-width="1px"></path><path d="M 155.254383 106.140625 L 155.254383 103.187500 L 158.207508 103.187500 L 158.207508 106.140625 L 155.254383 106.140625" stroke="black" fill="white" stroke-width="1px"></path><path d="M 123.590320 189.043437 L 123.590320 185.105937 L 126.871570 185.105937 L 126.871570 189.043437 L 123.590320 189.043437" stroke="black" fill="white" stroke-width="1px"></path><path d="M 123.590320 75.953125 L 123.590320 72.015625 L 126.871570 72.015625 L 126.871570 75.953125 L 123.590320 75.953125" stroke="black" fill="white" stroke-width="1px"></path><path d="M 123.754383 219.230937 L 123.754383 216.277812 L 126.707508 216.277812 L 126.707508 219.230937 L 123.754383 219.230937" stroke="black" fill="white" stroke-width="1px"></path><path d="M 123.754383 106.140625 L 123.754383 103.187500 L 126.707508 103.187500 L 126.707508 106.140625 L 123.754383 106.140625" stroke="black" fill="white" stroke-width="1px"></path><path d="M 92.090320 157.543437 L 92.090320 153.605937 L 95.371570 153.605937 L 95.371570 157.543437 L 92.090320 157.543437" stroke="black" fill="white" stroke-width="1px"></path><path d="M 92.090320 44.453125 L 92.090320 40.515625 L 95.371570 40.515625 L 95.371570 44.453125 L 92.090320 44.453125" stroke="black" fill="white" stroke-width="1px"></path><path d="M 92.090320 189.043437 L 92.090320 185.105937 L 95.371570 185.105937 L 95.371570 189.043437 L 92.090320 189.043437" stroke="black" fill="white" stroke-width="1px"></path><path d="M 92.090320 75.953125 L 92.090320 72.015625 L 95.371570 72.015625 L 95.371570 75.953125 L 92.090320 75.953125" stroke="black" fill="white" stroke-width="1px"></path><path d="M 92.090320 128.504375 L 92.090320 125.551250 L 95.207508 125.551250 L 95.207508 128.504375 L 92.090320 128.504375" stroke="black" fill="white" stroke-width="1px"></path><path d="M 92.090320 15.414062 L 92.090320 12.460937 L 95.207508 12.460937 L 95.207508 15.414062 L 92.090320 15.414062" stroke="black" fill="white" stroke-width="1px"></path><path d="M 60.590320 157.215312 L 60.590320 153.934062 L 63.871570 153.934062 L 63.871570 157.215312 L 60.590320 157.215312" stroke="black" fill="white" stroke-width="1px"></path><path d="M 60.590320 44.125000 L 60.590320 40.843750 L 63.871570 40.843750 L 63.871570 44.125000 L 60.590320 44.125000" stroke="black" fill="white" stroke-width="1px"></path><path d="M 60.754383 219.230937 L 60.754383 216.277812 L 63.871570 216.277812 L 63.871570 219.230937 L 60.754383 219.230937" stroke="black" fill="white" stroke-width="1px"></path><path d="M 60.754383 106.140625 L 60.754383 103.187500 L 63.871570 103.187500 L 63.871570 106.140625 L 60.754383 106.140625" stroke="black" fill="white" stroke-width="1px"></path><path d="M 30.074695 128.504375 L 30.074695 125.223125 L 33.027820 125.223125 L 33.027820 128.504375 L 30.074695 128.504375" stroke="black" fill="white" stroke-width="1px"></path><path d="M 30.074695 15.414062 L 30.074695 12.132812 L 33.027820 12.132812 L 33.027820 15.414062 L 30.074695 15.414062" stroke="black" fill="white" stroke-width="1px"></path><path d="M 30.074695 157.215312 L 30.074695 153.934062 L 33.355945 153.934062 L 33.355945 157.215312 L 30.074695 157.215312" stroke="black" fill="white" stroke-width="1px"></path><path d="M 30.074695 44.125000 L 30.074695 40.843750 L 33.355945 40.843750 L 33.355945 44.125000 L 30.074695 44.125000" stroke="black" fill="white" stroke-width="1px"></path><path d="M 30.074695 188.715312 L 30.074695 185.434062 L 33.355945 185.434062 L 33.355945 188.715312 L 30.074695 188.715312" stroke="black" fill="white" stroke-width="1px"></path><path d="M 30.074695 75.625000 L 30.074695 72.343750 L 33.355945 72.343750 L 33.355945 75.625000 L 30.074695 75.625000" stroke="black" fill="white" stroke-width="1px"></path><path d="M 30.074695 219.230937 L 30.074695 216.277812 L 33.027820 216.277812 L 33.027820 219.230937 L 30.074695 219.230937" stroke="black" fill="white" stroke-width="1px"></path><path d="M 30.074695 106.140625 L 30.074695 103.187500 L 33.027820 103.187500 L 33.027820 106.140625 L 30.074695 106.140625" stroke="black" fill="white" stroke-width="1px"></path><path d="M 10.387195 127.191875 L 10.387195 125.223125 L 12.355945 125.223125 L 12.355945 127.191875 L 10.387195 127.191875" stroke="black" fill="white" stroke-width="1px"></path><path d="M 10.387195 14.101562 L 10.387195 12.132812 L 12.355945 12.132812 L 12.355945 14.101562 L 10.387195 14.101562" stroke="black" fill="white" stroke-width="1px"></path><path d="M 60.590320 189.863750 L 60.590320 185.434062 L 63.871570 185.434062 L 63.871570 188.715312 L 62.230945 188.715312 L 62.230945 189.863750 L 60.590320 189.863750" stroke="black" fill="white" stroke-width="1px"></path><path d="M 60.590320 76.773437 L 60.590320 72.343750 L 63.871570 72.343750 L 63.871570 75.625000 L 62.230945 75.625000 L 62.230945 76.773437 L 60.590320 76.773437" stroke="black" fill="white" stroke-width="1px"></path><path d="M 123.590320 128.832500 L 123.590320 125.551250 L 126.051258 125.551250 L 126.051258 128.832500 L 123.590320 128.832500" stroke="black" fill="white" stroke-width="1px"></path><path d="M 123.590320 15.742187 L 123.590320 12.460937 L 126.051258 12.460937 L 126.051258 15.742187 L 123.590320 15.742187" stroke="black" fill="white" stroke-width="1px"></path><path d="M 280.598133 126.043425 L 280.598133 124.074675 L 282.566883 124.074675 L 282.566883 126.043425 L 280.598133 126.043425" stroke="black" fill="white" stroke-width="1px"></path><path d="M 280.598133 12.953112 L 280.598133 10.984362 L 282.566883 10.984362 L 282.566883 12.953112 L 280.598133 12.953112" stroke="black" fill="white" stroke-width="1px"></path></g></svg>