<svg width="293.459383" height="236.180625" xmlns="http://www.w3.org/2000/svg" xmlns:xlink="http://www.w3.org/1999/xlink" version="1.1"><g id="crv-background"><path d="M 221.371570 123.090312 L 221.371570 169.241094 L 120.000633 169.241094 L 120.000633 156.444206 L 126.051258 156.444206 L 126.051258 123.858132 L 91.315945 123.858125 L 91.315945 134.738750 L 64.258762 134.738750 L 64.258762 123.687497 L 10.000000 123.687497 L 10.000000 226.180625 L 64.258758 226.180625 L 64.258758 192.357500 L 91.315945 192.357500 L 91.315945 220.123437 L 283.459383 220.123437 L 283.459383 123.090312 L 221.371570 123.090312" stroke="none" fill="white" stroke-width="1px"></path><path d="M 221.371570 10.000000 L 221.371570 56.150781 L 120.000633 56.150781 L 120.000633 43.353893 L 126.051258 43.353893 L 126.051258 10.767819 L 91.315945 10.767812 L 91.315945 21.648438 L 64.258762 21.648438 L 64.258762 10.597185 L 10.000000 10.597185 L 10.000000 113.090312 L 64.258758 113.090312 L 64.258758 79.267187 L 91.315945 79.267187 L 91.315945 107.033125 L 283.459383 107.033125 L 283.459383 10.000000 L 221.371570 10.000000" stroke="none" fill="white" stroke-width="1px"></path></g><g id="crv-nbhd"><path d="M 221.737654 10.000004 L 221.737654 28.802511 L 221.737654 47.605018 L 232.784220 53.296375 L 243.830786 58.987733 L 263.645085 46.390588 L 283.459383 33.793444 L 283.459383 21.896725 L 283.459382 10.000000 L 252.598525 10.000002 L 221.737654 10.000004" stroke="#DD2222" fill="none" stroke-width="1px"></path><path d="M 283.459383 107.033125 L 283.459383 70.413285 L 283.459383 33.793444 L 263.645085 46.390588 L 243.830786 58.987733 L 240.723092 83.010429 L 237.615398 107.033125 L 260.537390 107.033125 L 283.459383 107.033125" stroke="#DD2222" fill="none" stroke-width="1px"></path><path d="M 221.737654 47.605018 L 221.737654 79.151330 L 190.539704 79.151330 L 213.795822 107.033125 L 237.615398 107.033125 L 243.830786 58.987733 L 221.737654 47.605018" stroke="#DD2222" fill="none" stroke-width="1px"></path><path d="M 190.539704 79.151330 L 188.135612 79.151330 L 185.731520 79.151329 L 175.983019 93.092227 L 166.234517 107.033125 L 190.015170 107.033125 L 213.795822 107.033125 L 202.167766 93.092231 L 190.539704 79.151330" stroke="#DD2222" fill="none" stroke-width="1px"></path><path d="M 185.731520 79.151329 L 150.941973 79.151329 L 151.542726 107.033125 L 166.234517 107.033125 L 185.731520 79.151329" stroke="#DD2222" fill="none" stroke-width="1px"></path><path d="M 150.941973 79.151329 L 121.128959 79.151328 L 91.315945 79.151327 L 91.315945 93.092226 L 91.315945 107.033125 L 121.429336 107.033125 L 151.542726 107.033125 L 151.242350 93.092230 L 150.941973 79.151329" stroke="#DD2222" fill="none" stroke-width="1px"></path><path d="M 64.258758 113.090312 L 64.258758 97.546598 L 64.258758 82.002884 L 37.129379 74.200507 L 10.000000 66.398129 L 10.000000 89.744221 L 10.000000 113.090312 L 37.129347 113.090312 L 64.258758 113.090312" stroke="#DD2222" fill="none" stroke-width="1px"></path><path d="M 64.258758 56.150781 L 64.258758 33.373983 L 64.258758 10.597185 L 37.129372 10.597185 L 10.000000 10.597184 L 10.000000 38.497656 L 10.000000 66.398129 L 37.129379 74.200507 L 64.258758 82.002884 L 64.258758 69.076833 L 64.258758 56.150781" stroke="#DD2222" fill="none" stroke-width="1px"></path><path d="M 10.000000 123.687497 L 10.000000 161.592802 L 10.000000 199.498107 L 37.129379 189.884147 L 64.258758 180.270187 L 64.258758 174.755640 L 64.258758 169.241094 L 64.258758 146.464296 L 64.258758 123.687497 L 37.129482 123.687497 L 10.000000 123.687497" stroke="#DD2222" fill="none" stroke-width="1px"></path><path d="M 10.000000 226.180625 L 37.129379 226.180625 L 64.258759 226.180625 L 64.258759 203.225400 L 64.258758 180.270187 L 37.129379 189.884147 L 10.000000 199.498107 L 10.000000 212.839366 L 10.000000 226.180625" stroke="#DD2222" fill="none" stroke-width="1px"></path><path d="M 129.045014 192.043444 L 110.180480 192.043444 L 91.315945 192.043444 L 91.315945 206.083441 L 91.315945 220.123437 L 109.917892 220.123437 L 128.519839 220.123437 L 128.782427 206.083444 L 129.045014 192.043444" stroke="#DD2222" fill="none" stroke-width="1px"></path><path d="M 175.317993 192.043444 L 152.181503 192.043444 L 129.045014 192.043444 L 128.782427 206.083441 L 128.519839 220.123437 L 152.363488 220.123437 L 176.207136 220.123437 L 175.762565 206.083441 L 175.317993 192.043444" stroke="#DD2222" fill="none" stroke-width="1px"></path><path d="M 233.952109 192.043444 L 204.635051 192.043444 L 175.317993 192.043444 L 175.762565 206.083441 L 176.207136 220.123437 L 206.811725 220.123437 L 237.416313 220.123437 L 235.684211 206.083444 L 233.952109 192.043444" stroke="#DD2222" fill="none" stroke-width="1px"></path><path d="M 237.416313 220.123437 L 260.437848 220.123437 L 283.459383 220.123437 L 283.459383 199.645311 L 283.459383 179.167185 L 261.598517 179.033674 L 239.737652 178.900163 L 239.737652 185.471803 L 239.737652 192.043444 L 236.844880 192.043444 L 233.952109 192.043444 L 235.684211 206.083441 L 237.416313 220.123437" stroke="#DD2222" fill="none" stroke-width="1px"></path><path d="M 239.737652 123.090312 L 239.737652 150.995238 L 239.737652 178.900163 L 261.598517 179.033674 L 283.459383 179.167185 L 283.459383 151.128749 L 283.459383 123.090312 L 261.598522 123.090312 L 239.737652 123.090312" stroke="#DD2222" fill="none" stroke-width="1px"></path></g><g id="crv-amen"><path d="M 62.609493 170.015505 L 62.609493 149.425279 L 62.609493 128.835054 L 56.012442 128.835054 L 49.415376 128.835054 L 49.415376 149.425279 L 49.415376 170.015505 L 56.012434 170.015505 L 62.609493 170.015505" stroke="none" fill="#2288CC" stroke-width="1px"></path><path d="M 49.452748 221.875188 L 56.049804 221.875188 L 62.646866 221.875188 L 62.646865 203.511013 L 62.646865 185.146837 L 56.049803 187.484668 L 49.452748 189.822496 L 49.452748 205.848842 L 49.452748 221.875188" stroke="none" fill="#2288CC" stroke-width="1px"></path><path d="M 106.159327 194.851444 L 99.562269 194.851444 L 92.965210 194.851444 L 92.965210 206.083441 L 92.965210 217.315438 L 99.562269 217.315438 L 106.159327 217.315438 L 106.159327 206.083441 L 106.159327 194.851444" stroke="none" fill="#2288CC" stroke-width="1px"></path><path d="M 143.838475 194.851444 L 137.240262 194.851444 L 130.642050 194.851444 L 130.431980 206.083441 L 130.221910 217.315438 L 136.820123 217.315438 L 143.418335 217.315438 L 143.628405 206.083441 L 143.838475 194.851444" stroke="none" fill="#2288CC" stroke-width="1px"></path><path d="M 190.257729 194.851444 L 183.657364 194.851444 L 177.056998 194.851444 L 177.412656 206.083441 L 177.768313 217.315438 L 184.368678 217.315438 L 190.969044 217.315438 L 190.613386 206.083441 L 190.257729 194.851444" stroke="none" fill="#2288CC" stroke-width="1px"></path><path d="M 240.613462 190.977469 L 240.613462 192.745355 L 240.613462 194.513241 L 238.299245 194.513241 L 235.985028 194.513241 L 237.370709 205.745238 L 238.756391 216.977235 L 245.403463 216.977235 L 252.050536 216.977235 L 250.385065 203.477329 L 248.719593 189.977422 L 244.666527 190.477445 L 240.613462 190.977469" stroke="none" fill="#2288CC" stroke-width="1px"></path><path d="M 279.087210 137.933695 L 279.087210 131.336636 L 279.087210 124.739577 L 261.598517 124.739577 L 244.109825 124.739577 L 244.109825 131.336636 L 244.109825 137.933695 L 261.598517 137.933695 L 279.087210 137.933695" stroke="none" fill="#2288CC" stroke-width="1px"></path><path d="M 238.280582 50.578793 L 242.583671 52.795810 L 246.886761 55.012827 L 262.738200 44.935111 L 278.589638 34.857396 L 278.589638 30.305999 L 278.589638 25.754599 L 277.110917 23.428689 L 275.632196 21.102779 L 255.659384 33.800701 L 235.686571 46.498622 L 236.983576 48.538708 L 238.280582 50.578793" stroke="none" fill="#2288CC" stroke-width="1px"></path><path d="M 251.581869 59.190938 L 248.261928 61.301625 L 244.941986 63.412312 L 242.455831 82.630469 L 239.969675 101.848626 L 246.621707 101.848626 L 253.273738 101.848626 L 255.973603 80.978484 L 258.673467 60.108342 L 255.127668 59.649640 L 251.581869 59.190938" stroke="none" fill="#2288CC" stroke-width="1px"></path><path d="M 222.900266 80.667334 L 194.697319 80.667333 L 205.702491 93.861451 L 222.900265 93.861451 L 222.900266 80.667334" stroke="none" fill="#2288CC" stroke-width="1px"></path><path d="M 195.915524 90.265690 L 192.582818 86.270103 L 189.250110 82.274515 L 187.326837 82.274515 L 185.403563 82.274515 L 177.604762 93.427233 L 169.805961 104.579951 L 177.855950 104.579951 L 185.905939 104.579951 L 190.910732 97.422821 L 195.915524 90.265690" stroke="none" fill="#2288CC" stroke-width="1px"></path><path d="M 172.505781 93.881425 L 181.732079 80.687307 L 153.900441 80.687307 L 154.184727 93.881424 L 172.505781 93.881425" stroke="none" fill="#2288CC" stroke-width="1px"></path><path d="M 106.159327 81.939507 L 99.562269 81.939507 L 92.965210 81.939507 L 92.965210 93.092226 L 92.965210 104.244945 L 99.562269 104.244945 L 106.159327 104.244945 L 106.159327 93.092226 L 106.159327 81.939507" stroke="none" fill="#2288CC" stroke-width="1px"></path><path d="M 49.378658 109.744587 L 55.975715 109.744587 L 62.572776 109.744587 L 62.572776 97.309616 L 62.572776 84.874645 L 56.951939 83.258099 L 51.331101 81.641552 L 50.354880 81.641552 L 49.378658 81.641552 L 49.378658 95.693070 L 49.378658 109.744587" stroke="none" fill="#2288CC" stroke-width="1px"></path><path d="M 58.832882 25.440567 L 58.832882 18.843508 L 58.832882 12.246450 L 37.129379 12.246449 L 15.425876 12.246449 L 15.425876 18.843508 L 15.425876 25.440566 L 37.129379 25.440567 L 58.832882 25.440567" stroke="none" fill="#2288CC" stroke-width="1px"></path></g><g id="crv-desk"><path d="M 31.459383 220.180625 L 28.959383 220.180625 L 28.959383 226.180625 L 31.459383 226.180625 L 31.459383 220.180625" stroke="gray" fill="white" stroke-width="1px"></path><path d="M 31.459383 214.180625 L 28.959383 214.180625 L 28.959383 220.180625 L 31.459383 220.180625 L 31.459383 214.180625" stroke="gray" fill="white" stroke-width="1px"></path><path d="M 31.459383 208.180625 L 28.959383 208.180625 L 28.959383 214.180625 L 31.459383 214.180625 L 31.459383 208.180625" stroke="gray" fill="white" stroke-width="1px"></path><path d="M 31.459383 202.180625 L 28.959383 202.180625 L 28.959383 208.180625 L 31.459383 208.180625 L 31.459383 202.180625" stroke="gray" fill="white" stroke-width="1px"></path><path d="M 31.459383 196.180625 L 28.959383 196.180625 L 28.959383 202.180625 L 31.459383 202.180625 L 31.459383 196.180625" stroke="gray" fill="white" stroke-width="1px"></path><path d="M 19.459383 220.180625 L 16.959383 220.180625 L 16.959383 226.180625 L 19.459383 226.180625 L 19.459383 220.180625" stroke="gray" fill="white" stroke-width="1px"></path><path d="M 19.459383 214.180625 L 16.959383 214.180625 L 16.959383 220.180625 L 19.459383 220.180625 L 19.459383 214.180625" stroke="gray" fill="white" stroke-width="1px"></path><path d="M 19.459383 208.180625 L 16.959383 208.180625 L 16.959383 214.180625 L 19.459383 214.180625 L 19.459383 208.180625" stroke="gray" fill="white" stroke-width="1px"></path><path d="M 19.459383 202.180625 L 16.959383 202.180625 L 16.959383 208.180625 L 19.459383 208.180625 L 19.459383 202.180625" stroke="gray" fill="white" stroke-width="1px"></path><path d="M 115.459383 214.123437 L 112.959383 214.123437 L 112.959383 220.123437 L 115.459383 220.123437 L 115.459383 214.123437" stroke="gray" fill="white" stroke-width="1px"></path><path d="M 115.459383 208.123437 L 112.959383 208.123437 L 112.959383 214.123437 L 115.459383 214.123437 L 115.459383 208.123437" stroke="gray" fill="white" stroke-width="1px"></path><path d="M 115.459383 202.123437 L 112.959383 202.123437 L 112.959383 208.123437 L 115.459383 208.123437 L 115.459383 202.123437" stroke="gray" fill="white" stroke-width="1px"></path><path d="M 115.459383 196.123437 L 112.959383 196.123437 L 112.959383 202.123437 L 115.459383 202.123437 L 115.459383 196.123437" stroke="gray" fill="white" stroke-width="1px"></path><path d="M 163.459383 214.123437 L 160.959383 214.123437 L 160.959383 220.123437 L 163.459383 220.123437 L 163.459383 214.123437" stroke="gray" fill="white" stroke-width="1px"></path><path d="M 163.459383 208.123437 L 160.959383 208.123437 L 160.959383 214.123437 L 163.459383 214.123437 L 163.459383 208.123437" stroke="gray" fill="white" stroke-width="1px"></path><path d="M 163.459383 202.123437 L 160.959383 202.123437 L 160.959383 208.123437 L 163.459383 208.123437 L 163.459383 202.123437" stroke="gray" fill="white" stroke-width="1px"></path><path d="M 163.459383 196.123437 L 160.959383 196.123437 L 160.959383 202.123437 L 163.459383 202.123437 L 163.459383 196.123437" stroke="gray" fill="white" stroke-width="1px"></path><path d="M 151.459383 214.123437 L 148.959383 214.123437 L 148.959383 220.123437 L 151.459383 220.123437 L 151.459383 214.123437" stroke="gray" fill="white" stroke-width="1px"></path><path d="M 151.459383 208.123437 L 148.959383 208.123437 L 148.959383 214.123437 L 151.459383 214.123437 L 151.459383 208.123437" stroke="gray" fill="white" stroke-width="1px"></path><path d="M 151.459383 202.123437 L 148.959383 202.123437 L 148.959383 208.123437 L 151.459383 208.123437 L 151.459383 202.123437" stroke="gray" fill="white" stroke-width="1px"></path><path d="M 151.459383 196.123437 L 148.959383 196.123437 L 148.959383 202.123437 L 151.459383 202.123437 L 151.459383 196.123437" stroke="gray" fill="white" stroke-width="1px"></path><path d="M 223.459383 214.123437 L 220.959383 214.123437 L 220.959383 220.123437 L 223.459383 220.123437 L 223.459383 214.123437" stroke="gray" fill="white" stroke-width="1px"></path><path d="M 223.459383 208.123437 L 220.959383 208.123437 L 220.959383 214.123437 L 223.459383 214.123437 L 223.459383 208.123437" stroke="gray" fill="white" stroke-width="1px"></path><path d="M 223.459383 202.123437 L 220.959383 202.123437 L 220.959383 208.123437 L 223.459383 208.123437 L 223.459383 202.123437" stroke="gray" fill="white" stroke-width="1px"></path><path d="M 223.459383 196.123437 L 220.959383 196.123437 L 220.959383 202.123437 L 223.459383 202.123437 L 223.459383 196.123437" stroke="gray" fill="white" stroke-width="1px"></path><path d="M 211.459383 214.123437 L 208.959383 214.123437 L 208.959383 220.123437 L 211.459383 220.123437 L 211.459383 214.123437" stroke="gray" fill="white" stroke-width="1px"></path><path d="M 211.459383 208.123437 L 208.959383 208.123437 L 208.959383 214.123437 L 211.459383 214.123437 L 211.459383 208.123437" stroke="gray" fill="white" stroke-width="1px"></path><path d="M 211.459383 202.123437 L 208.959383 202.123437 L 208.959383 208.123437 L 211.459383 208.123437 L 211.459383 202.123437" stroke="gray" fill="white" stroke-width="1px"></path><path d="M 211.459383 196.123437 L 208.959383 196.123437 L 208.959383 202.123437 L 211.459383 202.123437 L 211.459383 196.123437" stroke="gray" fill="white" stroke-width="1px"></path><path d="M 199.459383 214.123437 L 196.959383 214.123437 L 196.959383 220.123437 L 199.459383 220.123437 L 199.459383 214.123437" stroke="gray" fill="white" stroke-width="1px"></path><path d="M 199.459383 208.123437 L 196.959383 208.123437 L 196.959383 214.123437 L 199.459383 214.123437 L 199.459383 208.123437" stroke="gray" fill="white" stroke-width="1px"></path><path d="M 199.459383 202.123437 L 196.959383 202.123437 L 196.959383 208.123437 L 199.459383 208.123437 L 199.459383 202.123437" stroke="gray" fill="white" stroke-width="1px"></path><path d="M 199.459383 196.123437 L 196.959383 196.123437 L 196.959383 202.123437 L 199.459383 202.123437 L 199.459383 196.123437" stroke="gray" fill="white" stroke-width="1px"></path><path d="M 271.459383 214.123437 L 268.959383 214.123437 L 268.959383 220.123437 L 271.459383 220.123437 L 271.459383 214.123437" stroke="gray" fill="white" stroke-width="1px"></path><path d="M 271.459383 208.123437 L 268.959383 208.123437 L 268.959383 214.123437 L 271.459383 214.123437 L 271.459383 208.123437" stroke="gray" fill="white" stroke-width="1px"></path><path d="M 271.459383 202.123437 L 268.959383 202.123437 L 268.959383 208.123437 L 271.459383 208.123437 L 271.459383 202.123437" stroke="gray" fill="white" stroke-width="1px"></path><path d="M 271.459383 196.123437 L 268.959383 196.123437 L 268.959383 202.123437 L 271.459383 202.123437 L 271.459383 196.123437" stroke="gray" fill="white" stroke-width="1px"></path><path d="M 271.459383 190.123437 L 268.959383 190.123437 L 268.959383 196.123437 L 271.459383 196.123437 L 271.459383 190.123437" stroke="gray" fill="white" stroke-width="1px"></path><path d="M 271.459383 184.123437 L 268.959383 184.123437 L 268.959383 190.123437 L 271.459383 190.123437 L 271.459383 184.123437" stroke="gray" fill="white" stroke-width="1px"></path><path d="M 259.459383 214.123437 L 256.959383 214.123437 L 256.959383 220.123437 L 259.459383 220.123437 L 259.459383 214.123437" stroke="gray" fill="white" stroke-width="1px"></path><path d="M 259.459383 208.123437 L 256.959383 208.123437 L 256.959383 214.123437 L 259.459383 214.123437 L 259.459383 208.123437" stroke="gray" fill="white" stroke-width="1px"></path><path d="M 259.459383 202.123437 L 256.959383 202.123437 L 256.959383 208.123437 L 259.459383 208.123437 L 259.459383 202.123437" stroke="gray" fill="white" stroke-width="1px"></path><path d="M 259.459383 196.123437 L 256.959383 196.123437 L 256.959383 202.123437 L 259.459383 202.123437 L 259.459383 196.123437" stroke="gray" fill="white" stroke-width="1px"></path><path d="M 259.459383 190.123437 L 256.959383 190.123437 L 256.959383 196.123437 L 259.459383 196.123437 L 259.459383 190.123437" stroke="gray" fill="white" stroke-width="1px"></path><path d="M 259.459383 184.123437 L 256.959383 184.123437 L 256.959383 190.123437 L 259.459383 190.123437 L 259.459383 184.123437" stroke="gray" fill="white" stroke-width="1px"></path><path d="M 247.459383 184.132893 L 244.959383 184.132893 L 244.959383 190.132893 L 247.459383 190.132893 L 247.459383 184.132893" stroke="gray" fill="white" stroke-width="1px"></path><path d="M 31.459383 220.180625 L 33.959383 220.180625 L 33.959383 226.180625 L 31.459383 226.180625 L 31.459383 220.180625" stroke="gray" fill="white" stroke-width="1px"></path><path d="M 31.459383 214.180625 L 33.959383 214.180625 L 33.959383 220.180625 L 31.459383 220.180625 L 31.459383 214.180625" stroke="gray" fill="white" stroke-width="1px"></path><path d="M 31.459383 208.180625 L 33.959383 208.180625 L 33.959383 214.180625 L 31.459383 214.180625 L 31.459383 208.180625" stroke="gray" fill="white" stroke-width="1px"></path><path d="M 31.459383 202.180625 L 33.959383 202.180625 L 33.959383 208.180625 L 31.459383 208.180625 L 31.459383 202.180625" stroke="gray" fill="white" stroke-width="1px"></path><path d="M 31.459383 196.180625 L 33.959383 196.180625 L 33.959383 202.180625 L 31.459383 202.180625 L 31.459383 196.180625" stroke="gray" fill="white" stroke-width="1px"></path><path d="M 19.459383 220.180625 L 21.959383 220.180625 L 21.959383 226.180625 L 19.459383 226.180625 L 19.459383 220.180625" stroke="gray" fill="white" stroke-width="1px"></path><path d="M 19.459383 214.180625 L 21.959383 214.180625 L 21.959383 220.180625 L 19.459383 220.180625 L 19.459383 214.180625" stroke="gray" fill="white" stroke-width="1px"></path><path d="M 19.459383 208.180625 L 21.959383 208.180625 L 21.959383 214.180625 L 19.459383 214.180625 L 19.459383 208.180625" stroke="gray" fill="white" stroke-width="1px"></path><path d="M 19.459383 202.180625 L 21.959383 202.180625 L 21.959383 208.180625 L 19.459383 208.180625 L 19.459383 202.180625" stroke="gray" fill="white" stroke-width="1px"></path><path d="M 115.459383 214.123437 L 117.959383 214.123437 L 117.959383 220.123437 L 115.459383 220.123437 L 115.459383 214.123437" stroke="gray" fill="white" stroke-width="1px"></path><path d="M 115.459383 208.123437 L 117.959383 208.123437 L 117.959383 214.123437 L 115.459383 214.123437 L 115.459383 208.123437" stroke="gray" fill="white" stroke-width="1px"></path><path d="M 115.459383 202.123437 L 117.959383 202.123437 L 117.959383 208.123437 L 115.459383 208.123437 L 115.459383 202.123437" stroke="gray" fill="white" stroke-width="1px"></path><path d="M 115.459383 196.123437 L 117.959383 196.123437 L 117.959383 202.123437 L 115.459383 202.123437 L 115.459383 196.123437" stroke="gray" fill="white" stroke-width="1px"></path><path d="M 163.459383 214.123437 L 165.959383 214.123437 L 165.959383 220.123437 L 163.459383 220.123437 L 163.459383 214.123437" stroke="gray" fill="white" stroke-width="1px"></path><path d="M 163.459383 208.123437 L 165.959383 208.123437 L 165.959383 214.123437 L 163.459383 214.123437 L 163.459383 208.123437" stroke="gray" fill="white" stroke-width="1px"></path><path d="M 163.459383 202.123437 L 165.959383 202.123437 L 165.959383 208.123437 L 163.459383 208.123437 L 163.459383 202.123437" stroke="gray" fill="white" stroke-width="1px"></path><path d="M 163.459383 196.123437 L 165.959383 196.123437 L 165.959383 202.123437 L 163.459383 202.123437 L 163.459383 196.123437" stroke="gray" fill="white" stroke-width="1px"></path><path d="M 151.459383 214.123437 L 153.959383 214.123437 L 153.959383 220.123437 L 151.459383 220.123437 L 151.459383 214.123437" stroke="gray" fill="white" stroke-width="1px"></path><path d="M 151.459383 208.123437 L 153.959383 208.123437 L 153.959383 214.123437 L 151.459383 214.123437 L 151.459383 208.123437" stroke="gray" fill="white" stroke-width="1px"></path><path d="M 151.459383 202.123437 L 153.959383 202.123437 L 153.959383 208.123437 L 151.459383 208.123437 L 151.459383 202.123437" stroke="gray" fill="white" stroke-width="1px"></path><path d="M 151.459383 196.123437 L 153.959383 196.123437 L 153.959383 202.123437 L 151.459383 202.123437 L 151.459383 196.123437" stroke="gray" fill="white" stroke-width="1px"></path><path d="M 223.459383 214.123437 L 225.959383 214.123437 L 225.959383 220.123437 L 223.459383 220.123437 L 223.459383 214.123437" stroke="gray" fill="white" stroke-width="1px"></path><path d="M 223.459383 208.123437 L 225.959383 208.123437 L 225.959383 214.123437 L 223.459383 214.123437 L 223.459383 208.123437" stroke="gray" fill="white" stroke-width="1px"></path><path d="M 223.459383 202.123437 L 225.959383 202.123437 L 225.959383 208.123437 L 223.459383 208.123437 L 223.459383 202.123437" stroke="gray" fill="white" stroke-width="1px"></path><path d="M 223.459383 196.123437 L 225.959383 196.123437 L 225.959383 202.123437 L 223.459383 202.123437 L 223.459383 196.123437" stroke="gray" fill="white" stroke-width="1px"></path><path d="M 211.459383 214.123437 L 213.959383 214.123437 L 213.959383 220.123437 L 211.459383 220.123437 L 211.459383 214.123437" stroke="gray" fill="white" stroke-width="1px"></path><path d="M 211.459383 208.123437 L 213.959383 208.123437 L 213.959383 214.123437 L 211.459383 214.123437 L 211.459383 208.123437" stroke="gray" fill="white" stroke-width="1px"></path><path d="M 211.459383 202.123437 L 213.959383 202.123437 L 213.959383 208.123437 L 211.459383 208.123437 L 211.459383 202.123437" stroke="gray" fill="white" stroke-width="1px"></path><path d="M 211.459383 196.123437 L 213.959383 196.123437 L 213.959383 202.123437 L 211.459383 202.123437 L 211.459383 196.123437" stroke="gray" fill="white" stroke-width="1px"></path><path d="M 199.459383 214.123437 L 201.959383 214.123437 L 201.959383 220.123437 L 199.459383 220.123437 L 199.459383 214.123437" stroke="gray" fill="white" stroke-width="1px"></path><path d="M 199.459383 208.123437 L 201.959383 208.123437 L 201.959383 214.123437 L 199.459383 214.123437 L 199.459383 208.123437" stroke="gray" fill="white" stroke-width="1px"></path><path d="M 199.459383 202.123437 L 201.959383 202.123437 L 201.959383 208.123437 L 199.459383 208.123437 L 199.459383 202.123437" stroke="gray" fill="white" stroke-width="1px"></path><path d="M 199.459383 196.123437 L 201.959383 196.123437 L 201.959383 202.123437 L 199.459383 202.123437 L 199.459383 196.123437" stroke="gray" fill="white" stroke-width="1px"></path><path d="M 271.459383 214.123437 L 273.959383 214.123437 L 273.959383 220.123437 L 271.459383 220.123437 L 271.459383 214.123437" stroke="gray" fill="white" stroke-width="1px"></path><path d="M 271.459383 208.123437 L 273.959383 208.123437 L 273.959383 214.123437 L 271.459383 214.123437 L 271.459383 208.123437" stroke="gray" fill="white" stroke-width="1px"></path><path d="M 271.459383 202.123437 L 273.959383 202.123437 L 273.959383 208.123437 L 271.459383 208.123437 L 271.459383 202.123437" stroke="gray" fill="white" stroke-width="1px"></path><path d="M 271.459383 196.123437 L 273.959383 196.123437 L 273.959383 202.123437 L 271.459383 202.123437 L 271.459383 196.123437" stroke="gray" fill="white" stroke-width="1px"></path><path d="M 271.459383 190.123437 L 273.959383 190.123437 L 273.959383 196.123437 L 271.459383 196.123437 L 271.459383 190.123437" stroke="gray" fill="white" stroke-width="1px"></path><path d="M 271.459383 184.123437 L 273.959383 184.123437 L 273.959383 190.123437 L 271.459383 190.123437 L 271.459383 184.123437" stroke="gray" fill="white" stroke-width="1px"></path><path d="M 259.459383 214.123437 L 261.959383 214.123437 L 261.959383 220.123437 L 259.459383 220.123437 L 259.459383 214.123437" stroke="gray" fill="white" stroke-width="1px"></path><path d="M 259.459383 208.123437 L 261.959383 208.123437 L 261.959383 214.123437 L 259.459383 214.123437 L 259.459383 208.123437" stroke="gray" fill="white" stroke-width="1px"></path><path d="M 259.459383 202.123437 L 261.959383 202.123437 L 261.959383 208.123437 L 259.459383 208.123437 L 259.459383 202.123437" stroke="gray" fill="white" stroke-width="1px"></path><path d="M 259.459383 196.123437 L 261.959383 196.123437 L 261.959383 202.123437 L 259.459383 202.123437 L 259.459383 196.123437" stroke="gray" fill="white" stroke-width="1px"></path><path d="M 259.459383 190.123437 L 261.959383 190.123437 L 261.959383 196.123437 L 259.459383 196.123437 L 259.459383 190.123437" stroke="gray" fill="white" stroke-width="1px"></path><path d="M 259.459383 184.123437 L 261.959383 184.123437 L 261.959383 190.123437 L 259.459383 190.123437 L 259.459383 184.123437" stroke="gray" fill="white" stroke-width="1px"></path><path d="M 247.459383 184.132893 L 249.959383 184.132893 L 249.959383 190.132893 L 247.459383 190.132893 L 247.459383 184.132893" stroke="gray" fill="white" stroke-width="1px"></path><path d="M 22.000000 184.123437 L 22.000000 181.623437 L 16.000000 181.623437 L 16.000000 184.123437 L 22.000000 184.123437" stroke="gray" fill="white" stroke-width="1px"></path><path d="M 28.000000 184.123437 L 28.000000 181.623437 L 22.000000 181.623437 L 22.000000 184.123437 L 28.000000 184.123437" stroke="gray" fill="white" stroke-width="1px"></path><path d="M 34.000000 184.123437 L 34.000000 181.623437 L 28.000000 181.623437 L 28.000000 184.123437 L 34.000000 184.123437" stroke="gray" fill="white" stroke-width="1px"></path><path d="M 40.000000 184.123437 L 40.000000 181.623437 L 34.000000 181.623437 L 34.000000 184.123437 L 40.000000 184.123437" stroke="gray" fill="white" stroke-width="1px"></path><path d="M 22.000000 172.123437 L 22.000000 169.623437 L 16.000000 169.623437 L 16.000000 172.123437 L 22.000000 172.123437" stroke="gray" fill="white" stroke-width="1px"></path><path d="M 28.000000 172.123437 L 28.000000 169.623437 L 22.000000 169.623437 L 22.000000 172.123437 L 28.000000 172.123437" stroke="gray" fill="white" stroke-width="1px"></path><path d="M 34.000000 172.123437 L 34.000000 169.623437 L 28.000000 169.623437 L 28.000000 172.123437 L 34.000000 172.123437" stroke="gray" fill="white" stroke-width="1px"></path><path d="M 40.000000 172.123437 L 40.000000 169.623437 L 34.000000 169.623437 L 34.000000 172.123437 L 40.000000 172.123437" stroke="gray" fill="white" stroke-width="1px"></path><path d="M 22.000000 160.123437 L 22.000000 157.623437 L 16.000000 157.623437 L 16.000000 160.123437 L 22.000000 160.123437" stroke="gray" fill="white" stroke-width="1px"></path><path d="M 28.000000 160.123437 L 28.000000 157.623437 L 22.000000 157.623437 L 22.000000 160.123437 L 28.000000 160.123437" stroke="gray" fill="white" stroke-width="1px"></path><path d="M 34.000000 160.123437 L 34.000000 157.623437 L 28.000000 157.623437 L 28.000000 160.123437 L 34.000000 160.123437" stroke="gray" fill="white" stroke-width="1px"></path><path d="M 40.000000 160.123437 L 40.000000 157.623437 L 34.000000 157.623437 L 34.000000 160.123437 L 40.000000 160.123437" stroke="gray" fill="white" stroke-width="1px"></path><path d="M 22.000000 148.123437 L 22.000000 145.623437 L 16.000000 145.623437 L 16.000000 148.123437 L 22.000000 148.123437" stroke="gray" fill="white" stroke-width="1px"></path><path d="M 28.000000 148.123437 L 28.000000 145.623437 L 22.000000 145.623437 L 22.000000 148.123437 L 28.000000 148.123437" stroke="gray" fill="white" stroke-width="1px"></path><path d="M 34.000000 148.123437 L 34.000000 145.623437 L 28.000000 145.623437 L 28.000000 148.123437 L 34.000000 148.123437" stroke="gray" fill="white" stroke-width="1px"></path><path d="M 40.000000 148.123437 L 40.000000 145.623437 L 34.000000 145.623437 L 34.000000 148.123437 L 40.000000 148.123437" stroke="gray" fill="white" stroke-width="1px"></path><path d="M 22.000000 136.123437 L 22.000000 133.623437 L 16.000000 133.623437 L 16.000000 136.123437 L 22.000000 136.123437" stroke="gray" fill="white" stroke-width="1px"></path><path d="M 28.000000 136.123437 L 28.000000 133.623437 L 22.000000 133.623437 L 22.000000 136.123437 L 28.000000 136.123437" stroke="gray" fill="white" stroke-width="1px"></path><path d="M 34.000000 136.123437 L 34.000000 133.623437 L 28.000000 133.623437 L 28.000000 136.123437 L 34.000000 136.123437" stroke="gray" fill="white" stroke-width="1px"></path><path d="M 40.000000 136.123437 L 40.000000 133.623437 L 34.000000 133.623437 L 34.000000 136.123437 L 40.000000 136.123437" stroke="gray" fill="white" stroke-width="1px"></path><path d="M 251.737652 172.123437 L 251.737652 169.623437 L 245.737652 169.623437 L 245.737652 172.123437 L 251.737652 172.123437" stroke="gray" fill="white" stroke-width="1px"></path><path d="M 257.737652 172.123437 L 257.737652 169.623437 L 251.737652 169.623437 L 251.737652 172.123437 L 257.737652 172.123437" stroke="gray" fill="white" stroke-width="1px"></path><path d="M 263.737652 172.123437 L 263.737652 169.623437 L 257.737652 169.623437 L 257.737652 172.123437 L 263.737652 172.123437" stroke="gray" fill="white" stroke-width="1px"></path><path d="M 269.737652 172.123437 L 269.737652 169.623437 L 263.737652 169.623437 L 263.737652 172.123437 L 269.737652 172.123437" stroke="gray" fill="white" stroke-width="1px"></path><path d="M 275.737652 172.123437 L 275.737652 169.623437 L 269.737652 169.623437 L 269.737652 172.123437 L 275.737652 172.123437" stroke="gray" fill="white" stroke-width="1px"></path><path d="M 251.737652 160.123437 L 251.737652 157.623437 L 245.737652 157.623437 L 245.737652 160.123437 L 251.737652 160.123437" stroke="gray" fill="white" stroke-width="1px"></path><path d="M 257.737652 160.123437 L 257.737652 157.623437 L 251.737652 157.623437 L 251.737652 160.123437 L 257.737652 160.123437" stroke="gray" fill="white" stroke-width="1px"></path><path d="M 263.737652 160.123437 L 263.737652 157.623437 L 257.737652 157.623437 L 257.737652 160.123437 L 263.737652 160.123437" stroke="gray" fill="white" stroke-width="1px"></path><path d="M 269.737652 160.123437 L 269.737652 157.623437 L 263.737652 157.623437 L 263.737652 160.123437 L 269.737652 160.123437" stroke="gray" fill="white" stroke-width="1px"></path><path d="M 275.737652 160.123437 L 275.737652 157.623437 L 269.737652 157.623437 L 269.737652 160.123437 L 275.737652 160.123437" stroke="gray" fill="white" stroke-width="1px"></path><path d="M 251.737652 148.123437 L 251.737652 145.623437 L 245.737652 145.623437 L 245.737652 148.123437 L 251.737652 148.123437" stroke="gray" fill="white" stroke-width="1px"></path><path d="M 257.737652 148.123437 L 257.737652 145.623437 L 251.737652 145.623437 L 251.737652 148.123437 L 257.737652 148.123437" stroke="gray" fill="white" stroke-width="1px"></path><path d="M 263.737652 148.123437 L 263.737652 145.623437 L 257.737652 145.623437 L 257.737652 148.123437 L 263.737652 148.123437" stroke="gray" fill="white" stroke-width="1px"></path><path d="M 269.737652 148.123437 L 269.737652 145.623437 L 263.737652 145.623437 L 263.737652 148.123437 L 269.737652 148.123437" stroke="gray" fill="white" stroke-width="1px"></path><path d="M 275.737652 148.123437 L 275.737652 145.623437 L 269.737652 145.623437 L 269.737652 148.123437 L 275.737652 148.123437" stroke="gray" fill="white" stroke-width="1px"></path><path d="M 22.000000 184.123437 L 22.000000 186.623437 L 16.000000 186.623437 L 16.000000 184.123437 L 22.000000 184.123437" stroke="gray" fill="white" stroke-width="1px"></path><path d="M 28.000000 184.123437 L 28.000000 186.623437 L 22.000000 186.623437 L 22.000000 184.123437 L 28.000000 184.123437" stroke="gray" fill="white" stroke-width="1px"></path><path d="M 34.000000 184.123437 L 34.000000 186.623437 L 28.000000 186.623437 L 28.000000 184.123437 L 34.000000 184.123437" stroke="gray" fill="white" stroke-width="1px"></path><path d="M 40.000000 184.123437 L 40.000000 186.623437 L 34.000000 186.623437 L 34.000000 184.123437 L 40.000000 184.123437" stroke="gray" fill="white" stroke-width="1px"></path><path d="M 22.000000 172.123437 L 22.000000 174.623437 L 16.000000 174.623437 L 16.000000 172.123437 L 22.000000 172.123437" stroke="gray" fill="white" stroke-width="1px"></path><path d="M 28.000000 172.123437 L 28.000000 174.623437 L 22.000000 174.623437 L 22.000000 172.123437 L 28.000000 172.123437" stroke="gray" fill="white" stroke-width="1px"></path><path d="M 34.000000 172.123437 L 34.000000 174.623437 L 28.000000 174.623437 L 28.000000 172.123437 L 34.000000 172.123437" stroke="gray" fill="white" stroke-width="1px"></path><path d="M 40.000000 172.123437 L 40.000000 174.623437 L 34.000000 174.623437 L 34.000000 172.123437 L 40.000000 172.123437" stroke="gray" fill="white" stroke-width="1px"></path><path d="M 22.000000 160.123437 L 22.000000 162.623437 L 16.000000 162.623437 L 16.000000 160.123437 L 22.000000 160.123437" stroke="gray" fill="white" stroke-width="1px"></path><path d="M 28.000000 160.123437 L 28.000000 162.623437 L 22.000000 162.623437 L 22.000000 160.123437 L 28.000000 160.123437" stroke="gray" fill="white" stroke-width="1px"></path><path d="M 34.000000 160.123437 L 34.000000 162.623437 L 28.000000 162.623437 L 28.000000 160.123437 L 34.000000 160.123437" stroke="gray" fill="white" stroke-width="1px"></path><path d="M 40.000000 160.123437 L 40.000000 162.623437 L 34.000000 162.623437 L 34.000000 160.123437 L 40.000000 160.123437" stroke="gray" fill="white" stroke-width="1px"></path><path d="M 22.000000 148.123437 L 22.000000 150.623437 L 16.000000 150.623437 L 16.000000 148.123437 L 22.000000 148.123437" stroke="gray" fill="white" stroke-width="1px"></path><path d="M 28.000000 148.123437 L 28.000000 150.623437 L 22.000000 150.623437 L 22.000000 148.123437 L 28.000000 148.123437" stroke="gray" fill="white" stroke-width="1px"></path><path d="M 34.000000 148.123437 L 34.000000 150.623437 L 28.000000 150.623437 L 28.000000 148.123437 L 34.000000 148.123437" stroke="gray" fill="white" stroke-width="1px"></path><path d="M 40.000000 148.123437 L 40.000000 150.623437 L 34.000000 150.623437 L 34.000000 148.123437 L 40.000000 148.123437" stroke="gray" fill="white" stroke-width="1px"></path><path d="M 22.000000 136.123437 L 22.000000 138.623437 L 16.000000 138.623437 L 16.000000 136.123437 L 22.000000 136.123437" stroke="gray" fill="white" stroke-width="1px"></path><path d="M 28.000000 136.123437 L 28.000000 138.623437 L 22.000000 138.623437 L 22.000000 136.123437 L 28.000000 136.123437" stroke="gray" fill="white" stroke-width="1px"></path><path d="M 34.000000 136.123437 L 34.000000 138.623437 L 28.000000 138.623437 L 28.000000 136.123437 L 34.000000 136.123437" stroke="gray" fill="white" stroke-width="1px"></path><path d="M 40.000000 136.123437 L 40.000000 138.623437 L 34.000000 138.623437 L 34.000000 136.123437 L 40.000000 136.123437" stroke="gray" fill="white" stroke-width="1px"></path><path d="M 251.737652 172.123437 L 251.737652 174.623437 L 245.737652 174.623437 L 245.737652 172.123437 L 251.737652 172.123437" stroke="gray" fill="white" stroke-width="1px"></path><path d="M 257.737652 172.123437 L 257.737652 174.623437 L 251.737652 174.623437 L 251.737652 172.123437 L 257.737652 172.123437" stroke="gray" fill="white" stroke-width="1px"></path><path d="M 263.737652 172.123437 L 263.737652 174.623437 L 257.737652 174.623437 L 257.737652 172.123437 L 263.737652 172.123437" stroke="gray" fill="white" stroke-width="1px"></path><path d="M 269.737652 172.123437 L 269.737652 174.623437 L 263.737652 174.623437 L 263.737652 172.123437 L 269.737652 172.123437" stroke="gray" fill="white" stroke-width="1px"></path><path d="M 275.737652 172.123437 L 275.737652 174.623437 L 269.737652 174.623437 L 269.737652 172.123437 L 275.737652 172.123437" stroke="gray" fill="white" stroke-width="1px"></path><path d="M 251.737652 160.123437 L 251.737652 162.623437 L 245.737652 162.623437 L 245.737652 160.123437 L 251.737652 160.123437" stroke="gray" fill="white" stroke-width="1px"></path><path d="M 257.737652 160.123437 L 257.737652 162.623437 L 251.737652 162.623437 L 251.737652 160.123437 L 257.737652 160.123437" stroke="gray" fill="white" stroke-width="1px"></path><path d="M 263.737652 160.123437 L 263.737652 162.623437 L 257.737652 162.623437 L 257.737652 160.123437 L 263.737652 160.123437" stroke="gray" fill="white" stroke-width="1px"></path><path d="M 269.737652 160.123437 L 269.737652 162.623437 L 263.737652 162.623437 L 263.737652 160.123437 L 269.737652 160.123437" stroke="gray" fill="white" stroke-width="1px"></path><path d="M 275.737652 160.123437 L 275.737652 162.623437 L 269.737652 162.623437 L 269.737652 160.123437 L 275.737652 160.123437" stroke="gray" fill="white" stroke-width="1px"></path><path d="M 251.737652 148.123437 L 251.737652 150.623437 L 245.737652 150.623437 L 245.737652 148.123437 L 251.737652 148.123437" stroke="gray" fill="white" stroke-width="1px"></path><path d="M 257.737652 148.123437 L 257.737652 150.623437 L 251.737652 150.623437 L 251.737652 148.123437 L 257.737652 148.123437" stroke="gray" fill="white" stroke-width="1px"></path><path d="M 263.737652 148.123437 L 263.737652 150.623437 L 257.737652 150.623437 L 257.737652 148.123437 L 263.737652 148.123437" stroke="gray" fill="white" stroke-width="1px"></path><path d="M 269.737652 148.123437 L 269.737652 150.623437 L 263.737652 150.623437 L 263.737652 148.123437 L 269.737652 148.123437" stroke="gray" fill="white" stroke-width="1px"></path><path d="M 275.737652 148.123437 L 275.737652 150.623437 L 269.737652 150.623437 L 269.737652 148.123437 L 275.737652 148.123437" stroke="gray" fill="white" stroke-width="1px"></path><path d="M 259.459383 19.384812 L 256.959383 19.384812 L 256.959383 25.384812 L 259.459383 25.384812 L 259.459383 19.384812" stroke="gray" fill="white" stroke-width="1px"></path><path d="M 259.459383 13.384812 L 256.959383 13.384812 L 256.959383 19.384812 L 259.459383 19.384812 L 259.459383 13.384812" stroke="gray" fill="white" stroke-width="1px"></path><path d="M 247.459383 27.013936 L 244.959383 27.013936 L 244.959383 33.013936 L 247.459383 33.013936 L 247.459383 27.013936" stroke="gray" fill="white" stroke-width="1px"></path><path d="M 247.459383 21.013936 L 244.959383 21.013936 L 244.959383 27.013936 L 247.459383 27.013936 L 247.459383 21.013936" stroke="gray" fill="white" stroke-width="1px"></path><path d="M 247.459383 15.013936 L 244.959383 15.013936 L 244.959383 21.013936 L 247.459383 21.013936 L 247.459383 15.013936" stroke="gray" fill="white" stroke-width="1px"></path><path d="M 235.459383 36.674659 L 232.959383 36.674659 L 232.959383 42.674659 L 235.459383 42.674659 L 235.459383 36.674659" stroke="gray" fill="white" stroke-width="1px"></path><path d="M 235.459383 30.674659 L 232.959383 30.674659 L 232.959383 36.674659 L 235.459383 36.674659 L 235.459383 30.674659" stroke="gray" fill="white" stroke-width="1px"></path><path d="M 235.459383 24.674659 L 232.959383 24.674659 L 232.959383 30.674659 L 235.459383 30.674659 L 235.459383 24.674659" stroke="gray" fill="white" stroke-width="1px"></path><path d="M 235.459383 18.674659 L 232.959383 18.674659 L 232.959383 24.674659 L 235.459383 24.674659 L 235.459383 18.674659" stroke="gray" fill="white" stroke-width="1px"></path><path d="M 235.459383 12.674659 L 232.959383 12.674659 L 232.959383 18.674659 L 235.459383 18.674659 L 235.459383 12.674659" stroke="gray" fill="white" stroke-width="1px"></path><path d="M 199.459383 101.033125 L 196.959383 101.033125 L 196.959383 107.033125 L 199.459383 107.033125 L 199.459383 101.033125" stroke="gray" fill="white" stroke-width="1px"></path><path d="M 163.459383 101.033125 L 160.959383 101.033125 L 160.959383 107.033125 L 163.459383 107.033125 L 163.459383 101.033125" stroke="gray" fill="white" stroke-width="1px"></path><path d="M 139.459383 101.033125 L 136.959383 101.033125 L 136.959383 107.033125 L 139.459383 107.033125 L 139.459383 101.033125" stroke="gray" fill="white" stroke-width="1px"></path><path d="M 139.459383 95.033125 L 136.959383 95.033125 L 136.959383 101.033125 L 139.459383 101.033125 L 139.459383 95.033125" stroke="gray" fill="white" stroke-width="1px"></path><path d="M 139.459383 89.033125 L 136.959383 89.033125 L 136.959383 95.033125 L 139.459383 95.033125 L 139.459383 89.033125" stroke="gray" fill="white" stroke-width="1px"></path><path d="M 139.459383 83.033125 L 136.959383 83.033125 L 136.959383 89.033125 L 139.459383 89.033125 L 139.459383 83.033125" stroke="gray" fill="white" stroke-width="1px"></path><path d="M 127.459383 101.033125 L 124.959383 101.033125 L 124.959383 107.033125 L 127.459383 107.033125 L 127.459383 101.033125" stroke="gray" fill="white" stroke-width="1px"></path><path d="M 127.459383 95.033125 L 124.959383 95.033125 L 124.959383 101.033125 L 127.459383 101.033125 L 127.459383 95.033125" stroke="gray" fill="white" stroke-width="1px"></path><path d="M 127.459383 89.033125 L 124.959383 89.033125 L 124.959383 95.033125 L 127.459383 95.033125 L 127.459383 89.033125" stroke="gray" fill="white" stroke-width="1px"></path><path d="M 127.459383 83.033125 L 124.959383 83.033125 L 124.959383 89.033125 L 127.459383 89.033125 L 127.459383 83.033125" stroke="gray" fill="white" stroke-width="1px"></path><path d="M 115.459383 101.033125 L 112.959383 101.033125 L 112.959383 107.033125 L 115.459383 107.033125 L 115.459383 101.033125" stroke="gray" fill="white" stroke-width="1px"></path><path d="M 115.459383 95.033125 L 112.959383 95.033125 L 112.959383 101.033125 L 115.459383 101.033125 L 115.459383 95.033125" stroke="gray" fill="white" stroke-width="1px"></path><path d="M 115.459383 89.033125 L 112.959383 89.033125 L 112.959383 95.033125 L 115.459383 95.033125 L 115.459383 89.033125" stroke="gray" fill="white" stroke-width="1px"></path><path d="M 115.459383 83.033125 L 112.959383 83.033125 L 112.959383 89.033125 L 115.459383 89.033125 L 115.459383 83.033125" stroke="gray" fill="white" stroke-width="1px"></path><path d="M 31.459383 107.090312 L 28.959383 107.090312 L 28.959383 113.090312 L 31.459383 113.090312 L 31.459383 107.090312" stroke="gray" fill="white" stroke-width="1px"></path><path d="M 31.459383 101.090312 L 28.959383 101.090312 L 28.959383 107.090312 L 31.459383 107.090312 L 31.459383 101.090312" stroke="gray" fill="white" stroke-width="1px"></path><path d="M 31.459383 95.090312 L 28.959383 95.090312 L 28.959383 101.090312 L 31.459383 101.090312 L 31.459383 95.090312" stroke="gray" fill="white" stroke-width="1px"></path><path d="M 31.459383 89.090312 L 28.959383 89.090312 L 28.959383 95.090312 L 31.459383 95.090312 L 31.459383 89.090312" stroke="gray" fill="white" stroke-width="1px"></path><path d="M 31.459383 83.090312 L 28.959383 83.090312 L 28.959383 89.090312 L 31.459383 89.090312 L 31.459383 83.090312" stroke="gray" fill="white" stroke-width="1px"></path><path d="M 31.459383 77.090312 L 28.959383 77.090312 L 28.959383 83.090312 L 31.459383 83.090312 L 31.459383 77.090312" stroke="gray" fill="white" stroke-width="1px"></path><path d="M 19.459383 107.090312 L 16.959383 107.090312 L 16.959383 113.090312 L 19.459383 113.090312 L 19.459383 107.090312" stroke="gray" fill="white" stroke-width="1px"></path><path d="M 19.459383 101.090312 L 16.959383 101.090312 L 16.959383 107.090312 L 19.459383 107.090312 L 19.459383 101.090312" stroke="gray" fill="white" stroke-width="1px"></path><path d="M 19.459383 95.090312 L 16.959383 95.090312 L 16.959383 101.090312 L 19.459383 101.090312 L 19.459383 95.090312" stroke="gray" fill="white" stroke-width="1px"></path><path d="M 19.459383 89.090312 L 16.959383 89.090312 L 16.959383 95.090312 L 19.459383 95.090312 L 19.459383 89.090312" stroke="gray" fill="white" stroke-width="1px"></path><path d="M 19.459383 83.090312 L 16.959383 83.090312 L 16.959383 89.090312 L 19.459383 89.090312 L 19.459383 83.090312" stroke="gray" fill="white" stroke-width="1px"></path><path d="M 19.459383 77.090312 L 16.959383 77.090312 L 16.959383 83.090312 L 19.459383 83.090312 L 19.459383 77.090312" stroke="gray" fill="white" stroke-width="1px"></path><path d="M 259.459383 19.384812 L 261.959383 19.384812 L 261.959383 25.384812 L 259.459383 25.384812 L 259.459383 19.384812" stroke="gray" fill="white" stroke-width="1px"></path><path d="M 259.459383 13.384812 L 261.959383 13.384812 L 261.959383 19.384812 L 259.459383 19.384812 L 259.459383 13.384812" stroke="gray" fill="white" stroke-width="1px"></path><path d="M 247.459383 27.013936 L 249.959383 27.013936 L 249.959383 33.013936 L 247.459383 33.013936 L 247.459383 27.013936" stroke="gray" fill="white" stroke-width="1px"></path><path d="M 247.459383 21.013936 L 249.959383 21.013936 L 249.959383 27.013936 L 247.459383 27.013936 L 247.459383 21.013936" stroke="gray" fill="white" stroke-width="1px"></path><path d="M 247.459383 15.013936 L 249.959383 15.013936 L 249.959383 21.013936 L 247.459383 21.013936 L 247.459383 15.013936" stroke="gray" fill="white" stroke-width="1px"></path><path d="M 235.459383 36.674659 L 237.959383 36.674659 L 237.959383 42.674659 L 235.459383 42.674659 L 235.459383 36.674659" stroke="gray" fill="white" stroke-width="1px"></path><path d="M 235.459383 30.674659 L 237.959383 30.674659 L 237.959383 36.674659 L 235.459383 36.674659 L 235.459383 30.674659" stroke="gray" fill="white" stroke-width="1px"></path><path d="M 235.459383 24.674659 L 237.959383 24.674659 L 237.959383 30.674659 L 235.459383 30.674659 L 235.459383 24.674659" stroke="gray" fill="white" stroke-width="1px"></path><path d="M 235.459383 18.674659 L 237.959383 18.674659 L 237.959383 24.674659 L 235.459383 24.674659 L 235.459383 18.674659" stroke="gray" fill="white" stroke-width="1px"></path><path d="M 235.459383 12.674659 L 237.959383 12.674659 L 237.959383 18.674659 L 235.459383 18.674659 L 235.459383 12.674659" stroke="gray" fill="white" stroke-width="1px"></path><path d="M 199.459383 101.033125 L 201.959383 101.033125 L 201.959383 107.033125 L 199.459383 107.033125 L 199.459383 101.033125" stroke="gray" fill="white" stroke-width="1px"></path><path d="M 163.459383 101.033125 L 165.959383 101.033125 L 165.959383 107.033125 L 163.459383 107.033125 L 163.459383 101.033125" stroke="gray" fill="white" stroke-width="1px"></path><path d="M 139.459383 101.033125 L 141.959383 101.033125 L 141.959383 107.033125 L 139.459383 107.033125 L 139.459383 101.033125" stroke="gray" fill="white" stroke-width="1px"></path><path d="M 139.459383 95.033125 L 141.959383 95.033125 L 141.959383 101.033125 L 139.459383 101.033125 L 139.459383 95.033125" stroke="gray" fill="white" stroke-width="1px"></path><path d="M 139.459383 89.033125 L 141.959383 89.033125 L 141.959383 95.033125 L 139.459383 95.033125 L 139.459383 89.033125" stroke="gray" fill="white" stroke-width="1px"></path><path d="M 139.459383 83.033125 L 141.959383 83.033125 L 141.959383 89.033125 L 139.459383 89.033125 L 139.459383 83.033125" stroke="gray" fill="white" stroke-width="1px"></path><path d="M 127.459383 101.033125 L 129.959383 101.033125 L 129.959383 107.033125 L 127.459383 107.033125 L 127.459383 101.033125" stroke="gray" fill="white" stroke-width="1px"></path><path d="M 127.459383 95.033125 L 129.959383 95.033125 L 129.959383 101.033125 L 127.459383 101.033125 L 127.459383 95.033125" stroke="gray" fill="white" stroke-width="1px"></path><path d="M 127.459383 89.033125 L 129.959383 89.033125 L 129.959383 95.033125 L 127.459383 95.033125 L 127.459383 89.033125" stroke="gray" fill="white" stroke-width="1px"></path><path d="M 127.459383 83.033125 L 129.959383 83.033125 L 129.959383 89.033125 L 127.459383 89.033125 L 127.459383 83.033125" stroke="gray" fill="white" stroke-width="1px"></path><path d="M 115.459383 101.033125 L 117.959383 101.033125 L 117.959383 107.033125 L 115.459383 107.033125 L 115.459383 101.033125" stroke="gray" fill="white" stroke-width="1px"></path><path d="M 115.459383 95.033125 L 117.959383 95.033125 L 117.959383 101.033125 L 115.459383 101.033125 L 115.459383 95.033125" stroke="gray" fill="white" stroke-width="1px"></path><path d="M 115.459383 89.033125 L 117.959383 89.033125 L 117.959383 95.033125 L 115.459383 95.033125 L 115.459383 89.033125" stroke="gray" fill="white" stroke-width="1px"></path><path d="M 115.459383 83.033125 L 117.959383 83.033125 L 117.959383 89.033125 L 115.459383 89.033125 L 115.459383 83.033125" stroke="gray" fill="white" stroke-width="1px"></path><path d="M 31.459383 107.090312 L 33.959383 107.090312 L 33.959383 113.090312 L 31.459383 113.090312 L 31.459383 107.090312" stroke="gray" fill="white" stroke-width="1px"></path><path d="M 31.459383 101.090312 L 33.959383 101.090312 L 33.959383 107.090312 L 31.459383 107.090312 L 31.459383 101.090312" stroke="gray" fill="white" stroke-width="1px"></path><path d="M 31.459383 95.090312 L 33.959383 95.090312 L 33.959383 101.090312 L 31.459383 101.090312 L 31.459383 95.090312" stroke="gray" fill="white" stroke-width="1px"></path><path d="M 31.459383 89.090312 L 33.959383 89.090312 L 33.959383 95.090312 L 31.459383 95.090312 L 31.459383 89.090312" stroke="gray" fill="white" stroke-width="1px"></path><path d="M 31.459383 83.090312 L 33.959383 83.090312 L 33.959383 89.090312 L 31.459383 89.090312 L 31.459383 83.090312" stroke="gray" fill="white" stroke-width="1px"></path><path d="M 31.459383 77.090312 L 33.959383 77.090312 L 33.959383 83.090312 L 31.459383 83.090312 L 31.459383 77.090312" stroke="gray" fill="white" stroke-width="1px"></path><path d="M 19.459383 107.090312 L 21.959383 107.090312 L 21.959383 113.090312 L 19.459383 113.090312 L 19.459383 107.090312" stroke="gray" fill="white" stroke-width="1px"></path><path d="M 19.459383 101.090312 L 21.959383 101.090312 L 21.959383 107.090312 L 19.459383 107.090312 L 19.459383 101.090312" stroke="gray" fill="white" stroke-width="1px"></path><path d="M 19.459383 95.090312 L 21.959383 95.090312 L 21.959383 101.090312 L 19.459383 101.090312 L 19.459383 95.090312" stroke="gray" fill="white" stroke-width="1px"></path><path d="M 19.459383 89.090312 L 21.959383 89.090312 L 21.959383 95.090312 L 19.459383 95.090312 L 19.459383 89.090312" stroke="gray" fill="white" stroke-width="1px"></path><path d="M 19.459383 83.090312 L 21.959383 83.090312 L 21.959383 89.090312 L 19.459383 89.090312 L 19.459383 83.090312" stroke="gray" fill="white" stroke-width="1px"></path><path d="M 19.459383 77.090312 L 21.959383 77.090312 L 21.959383 83.090312 L 19.459383 83.090312 L 19.459383 77.090312" stroke="gray" fill="white" stroke-width="1px"></path><path d="M 265.349423 101.263579 L 265.349423 98.763579 L 259.349423 98.763579 L 259.349423 101.263579 L 265.349423 101.263579" stroke="gray" fill="white" stroke-width="1px"></path><path d="M 271.349423 101.263579 L 271.349423 98.763579 L 265.349423 98.763579 L 265.349423 101.263579 L 271.349423 101.263579" stroke="gray" fill="white" stroke-width="1px"></path><path d="M 277.349423 101.263579 L 277.349423 98.763579 L 271.349423 98.763579 L 271.349423 101.263579 L 277.349423 101.263579" stroke="gray" fill="white" stroke-width="1px"></path><path d="M 266.901802 89.263579 L 266.901802 86.763579 L 260.901802 86.763579 L 260.901802 89.263579 L 266.901802 89.263579" stroke="gray" fill="white" stroke-width="1px"></path><path d="M 272.901802 89.263579 L 272.901802 86.763579 L 266.901802 86.763579 L 266.901802 89.263579 L 272.901802 89.263579" stroke="gray" fill="white" stroke-width="1px"></path><path d="M 278.901802 89.263579 L 278.901802 86.763579 L 272.901802 86.763579 L 272.901802 89.263579 L 278.901802 89.263579" stroke="gray" fill="white" stroke-width="1px"></path><path d="M 268.454181 77.263579 L 268.454181 74.763579 L 262.454181 74.763579 L 262.454181 77.263579 L 268.454181 77.263579" stroke="gray" fill="white" stroke-width="1px"></path><path d="M 274.454181 77.263579 L 274.454181 74.763579 L 268.454181 74.763579 L 268.454181 77.263579 L 274.454181 77.263579" stroke="gray" fill="white" stroke-width="1px"></path><path d="M 270.006560 65.263579 L 270.006560 62.763579 L 264.006560 62.763579 L 264.006560 65.263579 L 270.006560 65.263579" stroke="gray" fill="white" stroke-width="1px"></path><path d="M 276.006560 65.263579 L 276.006560 62.763579 L 270.006560 62.763579 L 270.006560 65.263579 L 276.006560 65.263579" stroke="gray" fill="white" stroke-width="1px"></path><path d="M 270.834421 53.263579 L 270.834421 50.763579 L 264.834421 50.763579 L 264.834421 53.263579 L 270.834421 53.263579" stroke="gray" fill="white" stroke-width="1px"></path><path d="M 276.834421 53.263579 L 276.834421 50.763579 L 270.834421 50.763579 L 270.834421 53.263579 L 276.834421 53.263579" stroke="gray" fill="white" stroke-width="1px"></path><path d="M 220.983462 101.263579 L 220.983462 98.763579 L 214.983462 98.763579 L 214.983462 101.263579 L 220.983462 101.263579" stroke="gray" fill="white" stroke-width="1px"></path><path d="M 226.983462 101.263579 L 226.983462 98.763579 L 220.983462 98.763579 L 220.983462 101.263579 L 226.983462 101.263579" stroke="gray" fill="white" stroke-width="1px"></path><path d="M 232.983462 101.263579 L 232.983462 98.763579 L 226.983462 98.763579 L 226.983462 101.263579 L 232.983462 101.263579" stroke="gray" fill="white" stroke-width="1px"></path><path d="M 234.900265 89.263579 L 234.900265 86.763579 L 228.900265 86.763579 L 228.900265 89.263579 L 234.900265 89.263579" stroke="gray" fill="white" stroke-width="1px"></path><path d="M 233.737654 77.263579 L 233.737654 74.763579 L 227.737654 74.763579 L 227.737654 77.263579 L 233.737654 77.263579" stroke="gray" fill="white" stroke-width="1px"></path><path d="M 233.737654 65.263579 L 233.737654 62.763579 L 227.737654 62.763579 L 227.737654 65.263579 L 233.737654 65.263579" stroke="gray" fill="white" stroke-width="1px"></path><path d="M 22.000000 65.263579 L 22.000000 62.763579 L 16.000000 62.763579 L 16.000000 65.263579 L 22.000000 65.263579" stroke="gray" fill="white" stroke-width="1px"></path><path d="M 28.000000 65.263579 L 28.000000 62.763579 L 22.000000 62.763579 L 22.000000 65.263579 L 28.000000 65.263579" stroke="gray" fill="white" stroke-width="1px"></path><path d="M 34.000000 65.263579 L 34.000000 62.763579 L 28.000000 62.763579 L 28.000000 65.263579 L 34.000000 65.263579" stroke="gray" fill="white" stroke-width="1px"></path><path d="M 40.000000 65.263579 L 40.000000 62.763579 L 34.000000 62.763579 L 34.000000 65.263579 L 40.000000 65.263579" stroke="gray" fill="white" stroke-width="1px"></path><path d="M 46.000000 65.263579 L 46.000000 62.763579 L 40.000000 62.763579 L 40.000000 65.263579 L 46.000000 65.263579" stroke="gray" fill="white" stroke-width="1px"></path><path d="M 52.000000 65.263579 L 52.000000 62.763579 L 46.000000 62.763579 L 46.000000 65.263579 L 52.000000 65.263579" stroke="gray" fill="white" stroke-width="1px"></path><path d="M 58.000000 65.263579 L 58.000000 62.763579 L 52.000000 62.763579 L 52.000000 65.263579 L 58.000000 65.263579" stroke="gray" fill="white" stroke-width="1px"></path><path d="M 22.000000 53.263579 L 22.000000 50.763579 L 16.000000 50.763579 L 16.000000 53.263579 L 22.000000 53.263579" stroke="gray" fill="white" stroke-width="1px"></path><path d="M 28.000000 53.263579 L 28.000000 50.763579 L 22.000000 50.763579 L 22.000000 53.263579 L 28.000000 53.263579" stroke="gray" fill="white" stroke-width="1px"></path><path d="M 34.000000 53.263579 L 34.000000 50.763579 L 28.000000 50.763579 L 28.000000 53.263579 L 34.000000 53.263579" stroke="gray" fill="white" stroke-width="1px"></path><path d="M 40.000000 53.263579 L 40.000000 50.763579 L 34.000000 50.763579 L 34.000000 53.263579 L 40.000000 53.263579" stroke="gray" fill="white" stroke-width="1px"></path><path d="M 46.000000 53.263579 L 46.000000 50.763579 L 40.000000 50.763579 L 40.000000 53.263579 L 46.000000 53.263579" stroke="gray" fill="white" stroke-width="1px"></path><path d="M 52.000000 53.263579 L 52.000000 50.763579 L 46.000000 50.763579 L 46.000000 53.263579 L 52.000000 53.263579" stroke="gray" fill="white" stroke-width="1px"></path><path d="M 58.000000 53.263579 L 58.000000 50.763579 L 52.000000 50.763579 L 52.000000 53.263579 L 58.000000 53.263579" stroke="gray" fill="white" stroke-width="1px"></path><path d="M 22.000000 41.263579 L 22.000000 38.763579 L 16.000000 38.763579 L 16.000000 41.263579 L 22.000000 41.263579" stroke="gray" fill="white" stroke-width="1px"></path><path d="M 28.000000 41.263579 L 28.000000 38.763579 L 22.000000 38.763579 L 22.000000 41.263579 L 28.000000 41.263579" stroke="gray" fill="white" stroke-width="1px"></path><path d="M 34.000000 41.263579 L 34.000000 38.763579 L 28.000000 38.763579 L 28.000000 41.263579 L 34.000000 41.263579" stroke="gray" fill="white" stroke-width="1px"></path><path d="M 40.000000 41.263579 L 40.000000 38.763579 L 34.000000 38.763579 L 34.000000 41.263579 L 40.000000 41.263579" stroke="gray" fill="white" stroke-width="1px"></path><path d="M 46.000000 41.263579 L 46.000000 38.763579 L 40.000000 38.763579 L 40.000000 41.263579 L 46.000000 41.263579" stroke="gray" fill="white" stroke-width="1px"></path><path d="M 52.000000 41.263579 L 52.000000 38.763579 L 46.000000 38.763579 L 46.000000 41.263579 L 52.000000 41.263579" stroke="gray" fill="white" stroke-width="1px"></path><path d="M 58.000000 41.263579 L 58.000000 38.763579 L 52.000000 38.763579 L 52.000000 41.263579 L 58.000000 41.263579" stroke="gray" fill="white" stroke-width="1px"></path><path d="M 265.349423 101.263579 L 265.349423 103.763579 L 259.349423 103.763579 L 259.349423 101.263579 L 265.349423 101.263579" stroke="gray" fill="white" stroke-width="1px"></path><path d="M 271.349423 101.263579 L 271.349423 103.763579 L 265.349423 103.763579 L 265.349423 101.263579 L 271.349423 101.263579" stroke="gray" fill="white" stroke-width="1px"></path><path d="M 277.349423 101.263579 L 277.349423 103.763579 L 271.349423 103.763579 L 271.349423 101.263579 L 277.349423 101.263579" stroke="gray" fill="white" stroke-width="1px"></path><path d="M 266.901802 89.263579 L 266.901802 91.763579 L 260.901802 91.763579 L 260.901802 89.263579 L 266.901802 89.263579" stroke="gray" fill="white" stroke-width="1px"></path><path d="M 272.901802 89.263579 L 272.901802 91.763579 L 266.901802 91.763579 L 266.901802 89.263579 L 272.901802 89.263579" stroke="gray" fill="white" stroke-width="1px"></path><path d="M 278.901802 89.263579 L 278.901802 91.763579 L 272.901802 91.763579 L 272.901802 89.263579 L 278.901802 89.263579" stroke="gray" fill="white" stroke-width="1px"></path><path d="M 268.454181 77.263579 L 268.454181 79.763579 L 262.454181 79.763579 L 262.454181 77.263579 L 268.454181 77.263579" stroke="gray" fill="white" stroke-width="1px"></path><path d="M 274.454181 77.263579 L 274.454181 79.763579 L 268.454181 79.763579 L 268.454181 77.263579 L 274.454181 77.263579" stroke="gray" fill="white" stroke-width="1px"></path><path d="M 270.006560 65.263579 L 270.006560 67.763579 L 264.006560 67.763579 L 264.006560 65.263579 L 270.006560 65.263579" stroke="gray" fill="white" stroke-width="1px"></path><path d="M 276.006560 65.263579 L 276.006560 67.763579 L 270.006560 67.763579 L 270.006560 65.263579 L 276.006560 65.263579" stroke="gray" fill="white" stroke-width="1px"></path><path d="M 264.834421 53.263579 L 264.834421 55.763579 L 258.834421 55.763579 L 258.834421 53.263579 L 264.834421 53.263579" stroke="gray" fill="white" stroke-width="1px"></path><path d="M 270.834421 53.263579 L 270.834421 55.763579 L 264.834421 55.763579 L 264.834421 53.263579 L 270.834421 53.263579" stroke="gray" fill="white" stroke-width="1px"></path><path d="M 276.834421 53.263579 L 276.834421 55.763579 L 270.834421 55.763579 L 270.834421 53.263579 L 276.834421 53.263579" stroke="gray" fill="white" stroke-width="1px"></path><path d="M 220.983462 101.263579 L 220.983462 103.763579 L 214.983462 103.763579 L 214.983462 101.263579 L 220.983462 101.263579" stroke="gray" fill="white" stroke-width="1px"></path><path d="M 226.983462 101.263579 L 226.983462 103.763579 L 220.983462 103.763579 L 220.983462 101.263579 L 226.983462 101.263579" stroke="gray" fill="white" stroke-width="1px"></path><path d="M 232.983462 101.263579 L 232.983462 103.763579 L 226.983462 103.763579 L 226.983462 101.263579 L 232.983462 101.263579" stroke="gray" fill="white" stroke-width="1px"></path><path d="M 234.900265 89.263579 L 234.900265 91.763579 L 228.900265 91.763579 L 228.900265 89.263579 L 234.900265 89.263579" stroke="gray" fill="white" stroke-width="1px"></path><path d="M 233.737654 77.263579 L 233.737654 79.763579 L 227.737654 79.763579 L 227.737654 77.263579 L 233.737654 77.263579" stroke="gray" fill="white" stroke-width="1px"></path><path d="M 233.737654 65.263579 L 233.737654 67.763579 L 227.737654 67.763579 L 227.737654 65.263579 L 233.737654 65.263579" stroke="gray" fill="white" stroke-width="1px"></path><path d="M 28.000000 65.263579 L 28.000000 67.763579 L 22.000000 67.763579 L 22.000000 65.263579 L 28.000000 65.263579" stroke="gray" fill="white" stroke-width="1px"></path><path d="M 34.000000 65.263579 L 34.000000 67.763579 L 28.000000 67.763579 L 28.000000 65.263579 L 34.000000 65.263579" stroke="gray" fill="white" stroke-width="1px"></path><path d="M 40.000000 65.263579 L 40.000000 67.763579 L 34.000000 67.763579 L 34.000000 65.263579 L 40.000000 65.263579" stroke="gray" fill="white" stroke-width="1px"></path><path d="M 46.000000 65.263579 L 46.000000 67.763579 L 40.000000 67.763579 L 40.000000 65.263579 L 46.000000 65.263579" stroke="gray" fill="white" stroke-width="1px"></path><path d="M 52.000000 65.263579 L 52.000000 67.763579 L 46.000000 67.763579 L 46.000000 65.263579 L 52.000000 65.263579" stroke="gray" fill="white" stroke-width="1px"></path><path d="M 58.000000 65.263579 L 58.000000 67.763579 L 52.000000 67.763579 L 52.000000 65.263579 L 58.000000 65.263579" stroke="gray" fill="white" stroke-width="1px"></path><path d="M 22.000000 53.263579 L 22.000000 55.763579 L 16.000000 55.763579 L 16.000000 53.263579 L 22.000000 53.263579" stroke="gray" fill="white" stroke-width="1px"></path><path d="M 28.000000 53.263579 L 28.000000 55.763579 L 22.000000 55.763579 L 22.000000 53.263579 L 28.000000 53.263579" stroke="gray" fill="white" stroke-width="1px"></path><path d="M 34.000000 53.263579 L 34.000000 55.763579 L 28.000000 55.763579 L 28.000000 53.263579 L 34.000000 53.263579" stroke="gray" fill="white" stroke-width="1px"></path><path d="M 40.000000 53.263579 L 40.000000 55.763579 L 34.000000 55.763579 L 34.000000 53.263579 L 40.000000 53.263579" stroke="gray" fill="white" stroke-width="1px"></path><path d="M 46.000000 53.263579 L 46.000000 55.763579 L 40.000000 55.763579 L 40.000000 53.263579 L 46.000000 53.263579" stroke="gray" fill="white" stroke-width="1px"></path><path d="M 52.000000 53.263579 L 52.000000 55.763579 L 46.000000 55.763579 L 46.000000 53.263579 L 52.000000 53.263579" stroke="gray" fill="white" stroke-width="1px"></path><path d="M 58.000000 53.263579 L 58.000000 55.763579 L 52.000000 55.763579 L 52.000000 53.263579 L 58.000000 53.263579" stroke="gray" fill="white" stroke-width="1px"></path><path d="M 22.000000 41.263579 L 22.000000 43.763579 L 16.000000 43.763579 L 16.000000 41.263579 L 22.000000 41.263579" stroke="gray" fill="white" stroke-width="1px"></path><path d="M 28.000000 41.263579 L 28.000000 43.763579 L 22.000000 43.763579 L 22.000000 41.263579 L 28.000000 41.263579" stroke="gray" fill="white" stroke-width="1px"></path><path d="M 34.000000 41.263579 L 34.000000 43.763579 L 28.000000 43.763579 L 28.000000 41.263579 L 34.000000 41.263579" stroke="gray" fill="white" stroke-width="1px"></path><path d="M 40.000000 41.263579 L 40.000000 43.763579 L 34.000000 43.763579 L 34.000000 41.263579 L 40.000000 41.263579" stroke="gray" fill="white" stroke-width="1px"></path><path d="M 46.000000 41.263579 L 46.000000 43.763579 L 40.000000 43.763579 L 40.000000 41.263579 L 46.000000 41.263579" stroke="gray" fill="white" stroke-width="1px"></path><path d="M 52.000000 41.263579 L 52.000000 43.763579 L 46.000000 43.763579 L 46.000000 41.263579 L 52.000000 41.263579" stroke="gray" fill="white" stroke-width="1px"></path><path d="M 58.000000 41.263579 L 58.000000 43.763579 L 52.000000 43.763579 L 52.000000 41.263579 L 58.000000 41.263579" stroke="gray" fill="white" stroke-width="1px"></path></g><g id="crv-base"><path d="M 221.371570 123.090312 L 221.371570 169.241094 L 120.000633 169.241094 L 120.000633 156.444206 L 126.051258 156.444206 L 126.051258 123.858132 L 91.315945 123.858125 L 91.315945 134.738750 L 64.258762 134.738750 L 64.258762 123.687497 L 10.000000 123.687497 L 10.000000 226.180625 L 64.258758 226.180625 L 64.258758 192.357500 L 91.315945 192.357500 L 91.315945 220.123437 L 283.459383 220.123437 L 283.459383 123.090312 L 221.371570 123.090312" stroke="black" fill="none" stroke-width="1px"></path><path d="M 221.371570 10.000000 L 221.371570 56.150781 L 120.000633 56.150781 L 120.000633 43.353893 L 126.051258 43.353893 L 126.051258 10.767819 L 91.315945 10.767812 L 91.315945 21.648438 L 64.258762 21.648438 L 64.258762 10.597185 L 10.000000 10.597185 L 10.000000 113.090312 L 64.258758 113.090312 L 64.258758 79.267187 L 91.315945 79.267187 L 91.315945 107.033125 L 283.459383 107.033125 L 283.459383 10.000000 L 221.371570 10.000000" stroke="black" fill="none" stroke-width="1px"></path><path d="M 10.387195 156.559062 L 10.387195 154.590312 L 12.355945 154.590312 L 12.355945 156.559062 L 10.387195 156.559062" stroke="black" fill="white" stroke-width="1px"></path><path d="M 10.387195 43.468750 L 10.387195 41.500000 L 12.355945 41.500000 L 12.355945 43.468750 L 10.387195 43.468750" stroke="black" fill="white" stroke-width="1px"></path><path d="M 10.387195 188.059062 L 10.387195 186.090312 L 12.355945 186.090312 L 12.355945 188.059062 L 10.387195 188.059062" stroke="black" fill="white" stroke-width="1px"></path><path d="M 10.387195 74.968750 L 10.387195 73.000000 L 12.355945 73.000000 L 12.355945 74.968750 L 10.387195 74.968750" stroke="black" fill="white" stroke-width="1px"></path><path d="M 10.387195 219.559062 L 10.387195 217.590312 L 12.355945 217.590312 L 12.355945 219.559062 L 10.387195 219.559062" stroke="black" fill="white" stroke-width="1px"></path><path d="M 10.387195 106.468750 L 10.387195 104.500000 L 12.355945 104.500000 L 12.355945 106.468750 L 10.387195 106.468750" stroke="black" fill="white" stroke-width="1px"></path><path d="M 60.754383 128.340312 L 60.754383 125.387187 L 63.871570 125.387187 L 63.871570 128.340312 L 60.754383 128.340312" stroke="black" fill="white" stroke-width="1px"></path><path d="M 60.754383 15.250000 L 60.754383 12.296875 L 63.871570 12.296875 L 63.871570 15.250000 L 60.754383 15.250000" stroke="black" fill="white" stroke-width="1px"></path><path d="M 280.598133 219.230937 L 280.598133 217.262187 L 282.566883 217.262187 L 282.566883 219.230937 L 280.598133 219.230937" stroke="black" fill="white" stroke-width="1px"></path><path d="M 280.598133 106.140625 L 280.598133 104.171875 L 282.566883 104.171875 L 282.566883 106.140625 L 280.598133 106.140625" stroke="black" fill="white" stroke-width="1px"></path><path d="M 280.598133 188.059062 L 280.598133 186.090312 L 282.566883 186.090312 L 282.566883 188.059062 L 280.598133 188.059062" stroke="black" fill="white" stroke-width="1px"></path><path d="M 280.598133 74.968750 L 280.598133 73.000000 L 282.566883 73.000000 L 282.566883 74.968750 L 280.598133 74.968750" stroke="black" fill="white" stroke-width="1px"></path><path d="M 280.598133 156.559050 L 280.598133 154.590300 L 282.566883 154.590300 L 282.566883 156.559050 L 280.598133 156.559050" stroke="black" fill="white" stroke-width="1px"></path><path d="M 280.598133 43.468737 L 280.598133 41.499987 L 282.566883 41.499987 L 282.566883 43.468737 L 280.598133 43.468737" stroke="black" fill="white" stroke-width="1px"></path><path d="M 248.605945 127.355937 L 248.605945 123.418437 L 251.887195 123.418437 L 251.887195 127.355937 L 248.605945 127.355937" stroke="black" fill="white" stroke-width="1px"></path><path d="M 248.605945 14.265625 L 248.605945 10.328125 L 251.887195 10.328125 L 251.887195 14.265625 L 248.605945 14.265625" stroke="black" fill="white" stroke-width="1px"></path><path d="M 248.605945 157.871562 L 248.605945 153.934062 L 251.887195 153.934062 L 251.887195 157.871562 L 248.605945 157.871562" stroke="black" fill="white" stroke-width="1px"></path><path d="M 248.605945 44.781250 L 248.605945 40.843750 L 251.887195 40.843750 L 251.887195 44.781250 L 248.605945 44.781250" stroke="black" fill="white" stroke-width="1px"></path><path d="M 248.605945 189.043437 L 248.605945 185.105937 L 251.887195 185.105937 L 251.887195 189.043437 L 248.605945 189.043437" stroke="black" fill="white" stroke-width="1px"></path><path d="M 248.605945 75.953125 L 248.605945 72.015625 L 251.887195 72.015625 L 251.887195 75.953125 L 248.605945 75.953125" stroke="black" fill="white" stroke-width="1px"></path><path d="M 248.934070 219.230937 L 248.934070 216.277812 L 251.887195 216.277812 L 251.887195 219.230937 L 248.934070 219.230937" stroke="black" fill="white" stroke-width="1px"></path><path d="M 248.934070 106.140625 L 248.934070 103.187500 L 251.887195 103.187500 L 251.887195 106.140625 L 248.934070 106.140625" stroke="black" fill="white" stroke-width="1px"></path><path d="M 218.090320 189.043437 L 218.090320 185.105937 L 221.371570 185.105937 L 221.371570 189.043437 L 218.090320 189.043437" stroke="black" fill="white" stroke-width="1px"></path><path d="M 218.090320 75.953125 L 218.090320 72.015625 L 221.371570 72.015625 L 221.371570 75.953125 L 218.090320 75.953125" stroke="black" fill="white" stroke-width="1px"></path><path d="M 218.254383 219.230937 L 218.254383 216.277812 L 221.207508 216.277812 L 221.207508 219.230937 L 218.254383 219.230937" stroke="black" fill="white" stroke-width="1px"></path><path d="M 218.254383 106.140625 L 218.254383 103.187500 L 221.207508 103.187500 L 221.207508 106.140625 L 218.254383 106.140625" stroke="black" fill="white" stroke-width="1px"></path><path d="M 186.590320 189.043437 L 186.590320 185.105937 L 189.871570 185.105937 L 189.871570 189.043437 L 186.590320 189.043437" stroke="black" fill="white" stroke-width="1px"></path><path d="M 186.590320 75.953125 L 186.590320 72.015625 L 189.871570 72.015625 L 189.871570 75.953125 L 186.590320 75.953125" stroke="black" fill="white" stroke-width="1px"></path><path d="M 186.754383 219.230937 L 186.754383 216.277812 L 189.707508 216.277812 L 189.707508 219.230937 L 186.754383 219.230937" stroke="black" fill="white" stroke-width="1px"></path><path d="M 186.754383 106.140625 L 186.754383 103.187500 L 189.707508 103.187500 L 189.707508 106.140625 L 186.754383 106.140625" stroke="black" fill="white" stroke-width="1px"></path><path d="M 155.090320 189.043437 L 155.090320 185.105937 L 158.371570 185.105937 L 158.371570 189.043437 L 155.090320 189.043437" stroke="black" fill="white" stroke-width="1px"></path><path d="M 155.090320 75.953125 L 155.090320 72.015625 L 158.371570 72.015625 L 158.371570 75.953125 L 155.090320 75.953125" stroke="black" fill="white" stroke-width="1px"></path><path d="M 155.254383 219.230937 L 155.254383 216.277812 L 158.207508 216.277812 L 158.207508 219.230937 L 155.254383 219.230937" stroke="black" fill="white" stroke-width="1px"></path><path d="M 155.254383 106.140625 L 155.254383 103.187500 L 158.207508 103.187500 L 158.207508 106.140625 L 155.254383 106.140625" stroke="black" fill="white" stroke-width="1px"></path><path d="M 123.590320 189.043437 L 123.590320 185.105937 L 126.871570 185.105937 L 126.871570 189.043437 L 123.590320 189.043437" stroke="black" fill="white" stroke-width="1px"></path><path d="M 123.590320 75.953125 L 123.590320 72.015625 L 126.871570 72.015625 L 126.871570 75.953125 L 123.590320 75.953125" stroke="black" fill="white" stroke-width="1px"></path><path d="M 123.754383 219.230937 L 123.754383 216.277812 L 126.707508 216.277812 L 126.707508 219.230937 L 123.754383 219.230937" stroke="black" fill="white" stroke-width="1px"></path><path d="M 123.754383 106.140625 L 123.754383 103.187500 L 126.707508 103.187500 L 126.707508 106.140625 L 123.754383 106.140625" stroke="black" fill="white" stroke-width="1px"></path><path d="M 92.090320 157.543437 L 92.090320 153.605937 L 95.371570 153.605937 L 95.371570 157.543437 L 92.090320 157.543437" stroke="black" fill="white" stroke-width="1px"></path><path d="M 92.090320 44.453125 L 92.090320 40.515625 L 95.371570 40.515625 L 95.371570 44.453125 L 92.090320 44.453125" stroke="black" fill="white" stroke-width="1px"></path><path d="M 92.090320 189.043437 L 92.090320 185.105937 L 95.371570 185.105937 L 95.371570 189.043437 L 92.090320 189.043437" stroke="black" fill="white" stroke-width="1px"></path><path d="M 92.090320 75.953125 L 92.090320 72.015625 L 95.371570 72.015625 L 95.371570 75.953125 L 92.090320 75.953125" stroke="black" fill="white" stroke-width="1px"></path><path d="M 92.090320 128.504375 L 92.090320 125.551250 L 95.207508 125.551250 L 95.207508 128.504375 L 92.090320 128.504375" stroke="black" fill="white" stroke-width="1px"></path><path d="M 92.090320 15.414062 L 92.090320 12.460937 L 95.207508 12.460937 L 95.207508 15.414062 L 92.090320 15.414062" stroke="black" fill="white" stroke-width="1px"></path><path d="M 60.590320 157.215312 L 60.590320 153.934062 L 63.871570 153.934062 L 63.871570 157.215312 L 60.590320 157.215312" stroke="black" fill="white" stroke-width="1px"></path><path d="M 60.590320 44.125000 L 60.590320 40.843750 L 63.871570 40.843750 L 63.871570 44.125000 L 60.590320 44.125000" stroke="black" fill="white" stroke-width="1px"></path><path d="M 60.754383 219.230937 L 60.754383 216.277812 L 63.871570 216.277812 L 63.871570 219.230937 L 60.754383 219.230937" stroke="black" fill="white" stroke-width="1px"></path><path d="M 60.754383 106.140625 L 60.754383 103.187500 L 63.871570 103.187500 L 63.871570 106.140625 L 60.754383 106.140625" stroke="black" fill="white" stroke-width="1px"></path><path d="M 30.074695 128.504375 L 30.074695 125.223125 L 33.027820 125.223125 L 33.027820 128.504375 L 30.074695 128.504375" stroke="black" fill="white" stroke-width="1px"></path><path d="M 30.074695 15.414062 L 30.074695 12.132812 L 33.027820 12.132812 L 33.027820 15.414062 L 30.074695 15.414062" stroke="black" fill="white" stroke-width="1px"></path><path d="M 30.074695 157.215312 L 30.074695 153.934062 L 33.355945 153.934062 L 33.355945 157.215312 L 30.074695 157.215312" stroke="black" fill="white" stroke-width="1px"></path><path d="M 30.074695 44.125000 L 30.074695 40.843750 L 33.355945 40.843750 L 33.355945 44.125000 L 30.074695 44.125000" stroke="black" fill="white" stroke-width="1px"></path><path d="M 30.074695 188.715312 L 30.074695 185.434062 L 33.355945 185.434062 L 33.355945 188.715312 L 30.074695 188.715312" stroke="black" fill="white" stroke-width="1px"></path><path d="M 30.074695 75.625000 L 30.074695 72.343750 L 33.355945 72.343750 L 33.355945 75.625000 L 30.074695 75.625000" stroke="black" fill="white" stroke-width="1px"></path><path d="M 30.074695 219.230937 L 30.074695 216.277812 L 33.027820 216.277812 L 33.027820 219.230937 L 30.074695 219.230937" stroke="black" fill="white" stroke-width="1px"></path><path d="M 30.074695 106.140625 L 30.074695 103.187500 L 33.027820 103.187500 L 33.027820 106.140625 L 30.074695 106.140625" stroke="black" fill="white" stroke-width="1px"></path><path d="M 10.387195 127.191875 L 10.387195 125.223125 L 12.355945 125.223125 L 12.355945 127.191875 L 10.387195 127.191875" stroke="black" fill="white" stroke-width="1px"></path><path d="M 10.387195 14.101562 L 10.387195 12.132812 L 12.355945 12.132812 L 12.355945 14.101562 L 10.387195 14.101562" stroke="black" fill="white" stroke-width="1px"></path><path d="M 60.590320 189.863750 L 60.590320 185.434062 L 63.871570 185.434062 L 63.871570 188.715312 L 62.230945 188.715312 L 62.230945 189.863750 L 60.590320 189.863750" stroke="black" fill="white" stroke-width="1px"></path><path d="M 60.590320 76.773437 L 60.590320 72.343750 L 63.871570 72.343750 L 63.871570 75.625000 L 62.230945 75.625000 L 62.230945 76.773437 L 60.590320 76.773437" stroke="black" fill="white" stroke-width="1px"></path><path d="M 123.590320 128.832500 L 123.590320 125.551250 L 126.051258 125.551250 L 126.051258 128.832500 L 123.590320 128.832500" stroke="black" fill="white" stroke-width="1px"></path><path d="M 123.590320 15.742187 L 123.590320 12.460937 L 126.051258 12.460937 L 126.051258 15.742187 L 123.590320 15.742187" stroke="black" fill="white" stroke-width="1px"></path><path d="M 280.598133 126.043425 L 280.598133 124.074675 L 282.566883 124.074675 L 282.566883 126.043425 L 280.598133 126.043425" stroke="black" fill="white" stroke-width="1px"></path><path d="M 280.598133 12.953112 L 280.598133 10.984362 L 282.566883 10.984362 L 282.566883 12.953112 L 280.598133 12.953112" stroke="black" fill="white" stroke-width="1px"></path></g></svg>