<svg width="293.459383" height="236.180625" xmlns="http://www.w3.org/2000/svg" xmlns:xlink="http://www.w3.org/1999/xlink" version="1.1"><g id="crv-background"><path d="M 221.371570 123.090312 L 221.371570 169.241094 L 120.000633 169.241094 L 120.000633 156.444206 L 126.051258 156.444206 L 126.051258 123.858132 L 91.315945 123.858125 L 91.315945 134.738750 L 64.258762 134.738750 L 64.258762 123.687497 L 10.000000 123.687497 L 10.000000 226.180625 L 64.258758 226.180625 L 64.258758 192.357500 L 91.315945 192.357500 L 91.315945 220.123437 L 283.459383 220.123437 L 283.459383 123.090312 L 221.371570 123.090312" stroke="none" fill="white" stroke-width="1px"></path><path d="M 221.371570 10.000000 L 221.371570 56.150781 L 120.000633 56.150781 L 120.000633 43.353893 L 126.051258 43.353893 L 126.051258 10.767819 L 91.315945 10.767812 L 91.315945 21.648438 L 64.258762 21.648438 L 64.258762 10.597185 L 10.000000 10.597185 L 10.000000 113.090312 L 64.258758 113.090312 L 64.258758 79.267187 L 91.315945 79.267187 L 91.315945 107.033125 L 283.459383 107.033125 L 283.459383 10.000000 L 221.371570 10.000000" stroke="none" fill="white" stroke-width="1px"></path></g><g id="crv-nbhd"><path d="M 221.737654 10.000004 L 221.737654 28.949171 L 221.737654 47.898338 L 233.624687 54.186454 L 245.511720 60.474571 L 264.485551 46.496541 L 283.459383 32.518511 L 283.459383 21.259258 L 283.459382 10.000000 L 252.598518 10.000002 L 221.737654 10.000004" stroke="#DD2222" fill="none" stroke-width="1px"></path><path d="M 371.188243 46.178436 L 371.188226 80.004507 L 371.188209 113.830578 L 383.347200 80.004530 L 371.188243 46.178436" stroke="#DD2222" fill="none" stroke-width="1px"></path><path d="M 283.459383 107.033125 L 283.459383 69.775818 L 283.459383 32.518511 L 264.485551 46.496541 L 245.511720 60.474571 L 243.065783 83.753848 L 240.619846 107.033125 L 262.039609 107.033125 L 283.459383 107.033125" stroke="#DD2222" fill="none" stroke-width="1px"></path><path d="M 221.737654 47.898338 L 221.737654 79.151330 L 189.375977 79.151330 L 213.201732 107.033125 L 240.619846 107.033125 L 245.511720 60.474571 L 221.737654 47.898338" stroke="#DD2222" fill="none" stroke-width="1px"></path><path d="M 189.375977 79.151330 L 188.926609 79.151330 L 188.477241 79.151330 L 176.359729 93.092227 L 164.242216 107.033125 L 188.721974 107.033125 L 213.201732 107.033125 L 201.288857 93.092231 L 189.375977 79.151330" stroke="#DD2222" fill="none" stroke-width="1px"></path><path d="M 188.477241 79.151330 L 151.411345 79.151329 L 151.692952 107.033125 L 164.242216 107.033125 L 188.477241 79.151330" stroke="#DD2222" fill="none" stroke-width="1px"></path><path d="M 151.411345 79.151329 L 121.363645 79.151328 L 91.315945 79.151327 L 91.315945 93.092226 L 91.315945 107.033125 L 121.504449 107.033125 L 151.692952 107.033125 L 151.552149 93.092230 L 151.411345 79.151329" stroke="#DD2222" fill="none" stroke-width="1px"></path><path d="M 64.258758 113.090312 L 64.258758 98.104457 L 64.258758 83.118601 L 37.129379 74.904679 L 10.000000 66.690757 L 10.000000 89.890535 L 10.000000 113.090312 L 37.129372 113.090312 L 64.258758 113.090312" stroke="#DD2222" fill="none" stroke-width="1px"></path><path d="M 64.258758 56.150781 L 64.258758 33.373983 L 64.258758 10.597185 L 37.129372 10.597185 L 10.000000 10.597184 L 10.000000 38.643971 L 10.000000 66.690757 L 37.129379 74.904679 L 64.258758 83.118601 L 64.258758 69.634691 L 64.258758 56.150781" stroke="#DD2222" fill="none" stroke-width="1px"></path><path d="M 10.000000 123.687497 L 10.000000 162.401125 L 10.000000 201.114753 L 37.129379 190.667603 L 64.258758 180.220453 L 64.258758 174.730773 L 64.258758 169.241094 L 64.258758 146.464296 L 64.258758 123.687497 L 37.129379 123.687497 L 10.000000 123.687497" stroke="#DD2222" fill="none" stroke-width="1px"></path><path d="M 10.000000 226.180625 L 37.129379 226.180625 L 64.258758 226.180625 L 64.258758 203.200539 L 64.258758 180.220453 L 37.129379 190.667603 L 10.000000 201.114753 L 10.000000 213.647689 L 10.000000 226.180625" stroke="#DD2222" fill="none" stroke-width="1px"></path><path d="M 128.917291 192.043444 L 110.116618 192.043444 L 91.315945 192.043444 L 91.315945 206.083441 L 91.315945 220.123437 L 110.525251 220.123437 L 129.734558 220.123437 L 129.325924 206.083441 L 128.917291 192.043444" stroke="#DD2222" fill="none" stroke-width="1px"></path><path d="M 175.928664 192.043444 L 152.422977 192.043444 L 128.917291 192.043444 L 129.325924 206.083441 L 129.734558 220.123437 L 152.943645 220.123437 L 176.152732 220.123437 L 176.040698 206.083441 L 175.928664 192.043444" stroke="#DD2222" fill="none" stroke-width="1px"></path><path d="M 233.859009 192.043444 L 204.893836 192.043444 L 175.928664 192.043444 L 176.040698 206.083441 L 176.152732 220.123437 L 206.545372 220.123437 L 236.938011 220.123437 L 235.398510 206.083441 L 233.859009 192.043444" stroke="#DD2222" fill="none" stroke-width="1px"></path><path d="M 236.938011 220.123437 L 260.198697 220.123437 L 283.459383 220.123437 L 283.459383 199.916058 L 283.459383 179.708679 L 261.598517 179.218451 L 239.737652 178.728224 L 239.737652 185.385834 L 239.737652 192.043444 L 236.798330 192.043444 L 233.859009 192.043444 L 235.398510 206.083439 L 236.938011 220.123437" stroke="#DD2222" fill="none" stroke-width="1px"></path><path d="M 239.737652 123.090312 L 239.737652 150.909268 L 239.737652 178.728224 L 261.598517 179.218451 L 283.459383 179.708679 L 283.459383 151.399496 L 283.459383 123.090312 L 261.598522 123.090312 L 239.737652 123.090312" stroke="#DD2222" fill="none" stroke-width="1px"></path></g><g id="crv-amen"><path d="M 58.832882 137.771061 L 58.832882 131.511699 L 58.832882 125.252338 L 37.129379 125.252337 L 15.425876 125.252337 L 15.425876 131.511699 L 15.425876 137.771060 L 37.129379 137.771060 L 58.832882 137.771061" stroke="none" fill="#2288CC" stroke-width="1px"></path><path d="M 50.211789 221.878861 L 56.471147 221.878861 L 62.730512 221.878861 L 62.730512 203.494792 L 62.730512 185.110724 L 56.471152 187.521117 L 50.211789 189.931511 L 50.211789 205.905186 L 50.211789 221.878861" stroke="none" fill="#2288CC" stroke-width="1px"></path><path d="M 105.399509 194.851444 L 99.140147 194.851444 L 92.880786 194.851444 L 92.880786 206.083441 L 92.880786 217.315438 L 99.140147 217.315438 L 105.399509 217.315438 L 105.399509 206.083441 L 105.399509 194.851444" stroke="none" fill="#2288CC" stroke-width="1px"></path><path d="M 162.046313 217.315438 L 168.305874 217.315438 L 174.565435 217.315438 L 174.475808 206.083441 L 174.386180 194.851444 L 168.126620 194.851444 L 161.867059 194.851444 L 161.956686 206.083441 L 162.046313 217.315438" stroke="none" fill="#2288CC" stroke-width="1px"></path><path d="M 190.035082 194.851444 L 183.775522 194.851444 L 177.515961 194.851444 L 177.605588 206.083441 L 177.695215 217.315438 L 183.954776 217.315438 L 190.214337 217.315438 L 190.124710 206.083441 L 190.035082 194.851444" stroke="none" fill="#2288CC" stroke-width="1px"></path><path d="M 240.471214 191.066933 L 240.471214 192.802489 L 240.471214 194.538044 L 238.119757 194.538044 L 235.768300 194.538044 L 236.999901 205.770041 L 238.231502 217.002039 L 244.528380 217.002039 L 250.825259 217.002039 L 249.358739 203.627625 L 247.892220 190.253211 L 244.181717 190.660072 L 240.471214 191.066933" stroke="none" fill="#2288CC" stroke-width="1px"></path><path d="M 244.109825 164.739165 L 244.109825 171.000100 L 244.109825 177.261035 L 261.598517 177.653218 L 279.087210 178.045400 L 279.087210 171.784464 L 279.087210 165.523529 L 261.598517 165.131347 L 244.109825 164.739165" stroke="none" fill="#2288CC" stroke-width="1px"></path><path d="M 224.865260 41.740888 L 224.865260 44.731858 L 224.865260 47.722827 L 234.374887 52.753320 L 243.884513 57.783813 L 246.477024 55.873909 L 249.069535 53.964006 L 250.640129 50.994960 L 252.210723 48.025914 L 240.228594 41.687493 L 228.246464 35.349071 L 226.555862 38.544980 L 224.865260 41.740888" stroke="none" fill="#2288CC" stroke-width="1px"></path><path d="M 252.473961 60.446975 L 249.566073 62.589217 L 246.658185 64.731459 L 244.701435 83.354881 L 242.744685 101.978303 L 249.038502 101.978303 L 255.332319 101.978303 L 257.474724 81.587903 L 259.617129 61.197502 L 256.045545 60.822238 L 252.473961 60.446975" stroke="none" fill="#2288CC" stroke-width="1px"></path><path d="M 222.906537 80.599464 L 193.651581 80.599464 L 204.349172 93.118187 L 222.906537 93.118187 L 222.906537 80.599464" stroke="none" fill="#2288CC" stroke-width="1px"></path><path d="M 192.897480 104.738581 L 201.130901 104.738581 L 209.364321 104.738581 L 199.834019 93.585863 L 190.303717 82.433145 L 189.944223 82.433145 L 189.584729 82.433145 L 185.614240 87.001094 L 181.643750 91.569044 L 187.270615 98.153812 L 192.897480 104.738581" stroke="none" fill="#2288CC" stroke-width="1px"></path><path d="M 165.506235 81.907129 L 152.986873 81.907129 L 153.212159 104.212566 L 163.251570 104.212566 L 165.703035 101.392216 L 165.506235 81.907129" stroke="none" fill="#2288CC" stroke-width="1px"></path><path d="M 105.399509 81.939507 L 99.140147 81.939507 L 92.880786 81.939507 L 92.880786 93.092226 L 92.880786 104.244945 L 99.140147 104.244945 L 105.399509 104.244945 L 105.399509 93.092226 L 105.399509 81.939507" stroke="none" fill="#2288CC" stroke-width="1px"></path><path d="M 58.832882 96.190740 L 58.832882 89.650774 L 58.832882 83.110808 L 37.129379 76.539671 L 15.425876 69.968533 L 15.425876 76.508499 L 15.425876 83.048465 L 37.129379 89.619602 L 58.832882 96.190740" stroke="none" fill="#2288CC" stroke-width="1px"></path><path d="M 58.832882 24.680748 L 58.832882 18.421387 L 58.832882 12.162025 L 37.129379 12.162025 L 15.425876 12.162025 L 15.425876 18.421386 L 15.425876 24.680748 L 37.129379 24.680748 L 58.832882 24.680748" stroke="none" fill="#2288CC" stroke-width="1px"></path></g><g id="crv-desk"><path d="M 43.459383 220.180625 L 40.959383 220.180625 L 40.959383 226.180625 L 43.459383 226.180625 L 43.459383 220.180625" stroke="gray" fill="white" stroke-width="1px"></path><path d="M 43.459383 214.180625 L 40.959383 214.180625 L 40.959383 220.180625 L 43.459383 220.180625 L 43.459383 214.180625" stroke="gray" fill="white" stroke-width="1px"></path><path d="M 43.459383 208.180625 L 40.959383 208.180625 L 40.959383 214.180625 L 43.459383 214.180625 L 43.459383 208.180625" stroke="gray" fill="white" stroke-width="1px"></path><path d="M 43.459383 202.180625 L 40.959383 202.180625 L 40.959383 208.180625 L 43.459383 208.180625 L 43.459383 202.180625" stroke="gray" fill="white" stroke-width="1px"></path><path d="M 43.459383 196.180625 L 40.959383 196.180625 L 40.959383 202.180625 L 43.459383 202.180625 L 43.459383 196.180625" stroke="gray" fill="white" stroke-width="1px"></path><path d="M 31.459383 220.180625 L 28.959383 220.180625 L 28.959383 226.180625 L 31.459383 226.180625 L 31.459383 220.180625" stroke="gray" fill="white" stroke-width="1px"></path><path d="M 31.459383 214.180625 L 28.959383 214.180625 L 28.959383 220.180625 L 31.459383 220.180625 L 31.459383 214.180625" stroke="gray" fill="white" stroke-width="1px"></path><path d="M 31.459383 208.180625 L 28.959383 208.180625 L 28.959383 214.180625 L 31.459383 214.180625 L 31.459383 208.180625" stroke="gray" fill="white" stroke-width="1px"></path><path d="M 31.459383 202.180625 L 28.959383 202.180625 L 28.959383 208.180625 L 31.459383 208.180625 L 31.459383 202.180625" stroke="gray" fill="white" stroke-width="1px"></path><path d="M 31.459383 196.180625 L 28.959383 196.180625 L 28.959383 202.180625 L 31.459383 202.180625 L 31.459383 196.180625" stroke="gray" fill="white" stroke-width="1px"></path><path d="M 19.459383 220.180625 L 16.959383 220.180625 L 16.959383 226.180625 L 19.459383 226.180625 L 19.459383 220.180625" stroke="gray" fill="white" stroke-width="1px"></path><path d="M 19.459383 214.180625 L 16.959383 214.180625 L 16.959383 220.180625 L 19.459383 220.180625 L 19.459383 214.180625" stroke="gray" fill="white" stroke-width="1px"></path><path d="M 19.459383 208.180625 L 16.959383 208.180625 L 16.959383 214.180625 L 19.459383 214.180625 L 19.459383 208.180625" stroke="gray" fill="white" stroke-width="1px"></path><path d="M 19.459383 202.180625 L 16.959383 202.180625 L 16.959383 208.180625 L 19.459383 208.180625 L 19.459383 202.180625" stroke="gray" fill="white" stroke-width="1px"></path><path d="M 127.459383 214.123437 L 124.959383 214.123437 L 124.959383 220.123437 L 127.459383 220.123437 L 127.459383 214.123437" stroke="gray" fill="white" stroke-width="1px"></path><path d="M 115.459383 214.123437 L 112.959383 214.123437 L 112.959383 220.123437 L 115.459383 220.123437 L 115.459383 214.123437" stroke="gray" fill="white" stroke-width="1px"></path><path d="M 115.459383 208.123437 L 112.959383 208.123437 L 112.959383 214.123437 L 115.459383 214.123437 L 115.459383 208.123437" stroke="gray" fill="white" stroke-width="1px"></path><path d="M 115.459383 202.123437 L 112.959383 202.123437 L 112.959383 208.123437 L 115.459383 208.123437 L 115.459383 202.123437" stroke="gray" fill="white" stroke-width="1px"></path><path d="M 115.459383 196.123437 L 112.959383 196.123437 L 112.959383 202.123437 L 115.459383 202.123437 L 115.459383 196.123437" stroke="gray" fill="white" stroke-width="1px"></path><path d="M 151.459383 214.123437 L 148.959383 214.123437 L 148.959383 220.123437 L 151.459383 220.123437 L 151.459383 214.123437" stroke="gray" fill="white" stroke-width="1px"></path><path d="M 151.459383 208.123437 L 148.959383 208.123437 L 148.959383 214.123437 L 151.459383 214.123437 L 151.459383 208.123437" stroke="gray" fill="white" stroke-width="1px"></path><path d="M 151.459383 202.123437 L 148.959383 202.123437 L 148.959383 208.123437 L 151.459383 208.123437 L 151.459383 202.123437" stroke="gray" fill="white" stroke-width="1px"></path><path d="M 151.459383 196.123437 L 148.959383 196.123437 L 148.959383 202.123437 L 151.459383 202.123437 L 151.459383 196.123437" stroke="gray" fill="white" stroke-width="1px"></path><path d="M 139.459383 214.123437 L 136.959383 214.123437 L 136.959383 220.123437 L 139.459383 220.123437 L 139.459383 214.123437" stroke="gray" fill="white" stroke-width="1px"></path><path d="M 139.459383 208.123437 L 136.959383 208.123437 L 136.959383 214.123437 L 139.459383 214.123437 L 139.459383 208.123437" stroke="gray" fill="white" stroke-width="1px"></path><path d="M 139.459383 202.123437 L 136.959383 202.123437 L 136.959383 208.123437 L 139.459383 208.123437 L 139.459383 202.123437" stroke="gray" fill="white" stroke-width="1px"></path><path d="M 139.459383 196.123437 L 136.959383 196.123437 L 136.959383 202.123437 L 139.459383 202.123437 L 139.459383 196.123437" stroke="gray" fill="white" stroke-width="1px"></path><path d="M 223.459383 214.123437 L 220.959383 214.123437 L 220.959383 220.123437 L 223.459383 220.123437 L 223.459383 214.123437" stroke="gray" fill="white" stroke-width="1px"></path><path d="M 223.459383 208.123437 L 220.959383 208.123437 L 220.959383 214.123437 L 223.459383 214.123437 L 223.459383 208.123437" stroke="gray" fill="white" stroke-width="1px"></path><path d="M 223.459383 202.123437 L 220.959383 202.123437 L 220.959383 208.123437 L 223.459383 208.123437 L 223.459383 202.123437" stroke="gray" fill="white" stroke-width="1px"></path><path d="M 223.459383 196.123437 L 220.959383 196.123437 L 220.959383 202.123437 L 223.459383 202.123437 L 223.459383 196.123437" stroke="gray" fill="white" stroke-width="1px"></path><path d="M 211.459383 214.123437 L 208.959383 214.123437 L 208.959383 220.123437 L 211.459383 220.123437 L 211.459383 214.123437" stroke="gray" fill="white" stroke-width="1px"></path><path d="M 211.459383 208.123437 L 208.959383 208.123437 L 208.959383 214.123437 L 211.459383 214.123437 L 211.459383 208.123437" stroke="gray" fill="white" stroke-width="1px"></path><path d="M 211.459383 202.123437 L 208.959383 202.123437 L 208.959383 208.123437 L 211.459383 208.123437 L 211.459383 202.123437" stroke="gray" fill="white" stroke-width="1px"></path><path d="M 211.459383 196.123437 L 208.959383 196.123437 L 208.959383 202.123437 L 211.459383 202.123437 L 211.459383 196.123437" stroke="gray" fill="white" stroke-width="1px"></path><path d="M 199.459383 214.123437 L 196.959383 214.123437 L 196.959383 220.123437 L 199.459383 220.123437 L 199.459383 214.123437" stroke="gray" fill="white" stroke-width="1px"></path><path d="M 199.459383 208.123437 L 196.959383 208.123437 L 196.959383 214.123437 L 199.459383 214.123437 L 199.459383 208.123437" stroke="gray" fill="white" stroke-width="1px"></path><path d="M 199.459383 202.123437 L 196.959383 202.123437 L 196.959383 208.123437 L 199.459383 208.123437 L 199.459383 202.123437" stroke="gray" fill="white" stroke-width="1px"></path><path d="M 199.459383 196.123437 L 196.959383 196.123437 L 196.959383 202.123437 L 199.459383 202.123437 L 199.459383 196.123437" stroke="gray" fill="white" stroke-width="1px"></path><path d="M 271.459383 214.123437 L 268.959383 214.123437 L 268.959383 220.123437 L 271.459383 220.123437 L 271.459383 214.123437" stroke="gray" fill="white" stroke-width="1px"></path><path d="M 271.459383 208.123437 L 268.959383 208.123437 L 268.959383 214.123437 L 271.459383 214.123437 L 271.459383 208.123437" stroke="gray" fill="white" stroke-width="1px"></path><path d="M 271.459383 202.123437 L 268.959383 202.123437 L 268.959383 208.123437 L 271.459383 208.123437 L 271.459383 202.123437" stroke="gray" fill="white" stroke-width="1px"></path><path d="M 271.459383 196.123437 L 268.959383 196.123437 L 268.959383 202.123437 L 271.459383 202.123437 L 271.459383 196.123437" stroke="gray" fill="white" stroke-width="1px"></path><path d="M 271.459383 190.123437 L 268.959383 190.123437 L 268.959383 196.123437 L 271.459383 196.123437 L 271.459383 190.123437" stroke="gray" fill="white" stroke-width="1px"></path><path d="M 271.459383 184.123437 L 268.959383 184.123437 L 268.959383 190.123437 L 271.459383 190.123437 L 271.459383 184.123437" stroke="gray" fill="white" stroke-width="1px"></path><path d="M 259.459383 214.123437 L 256.959383 214.123437 L 256.959383 220.123437 L 259.459383 220.123437 L 259.459383 214.123437" stroke="gray" fill="white" stroke-width="1px"></path><path d="M 259.459383 208.123437 L 256.959383 208.123437 L 256.959383 214.123437 L 259.459383 214.123437 L 259.459383 208.123437" stroke="gray" fill="white" stroke-width="1px"></path><path d="M 259.459383 202.123437 L 256.959383 202.123437 L 256.959383 208.123437 L 259.459383 208.123437 L 259.459383 202.123437" stroke="gray" fill="white" stroke-width="1px"></path><path d="M 259.459383 196.123437 L 256.959383 196.123437 L 256.959383 202.123437 L 259.459383 202.123437 L 259.459383 196.123437" stroke="gray" fill="white" stroke-width="1px"></path><path d="M 259.459383 190.123437 L 256.959383 190.123437 L 256.959383 196.123437 L 259.459383 196.123437 L 259.459383 190.123437" stroke="gray" fill="white" stroke-width="1px"></path><path d="M 259.459383 184.123437 L 256.959383 184.123437 L 256.959383 190.123437 L 259.459383 190.123437 L 259.459383 184.123437" stroke="gray" fill="white" stroke-width="1px"></path><path d="M 247.459383 184.300673 L 244.959383 184.300673 L 244.959383 190.300673 L 247.459383 190.300673 L 247.459383 184.300673" stroke="gray" fill="white" stroke-width="1px"></path><path d="M 43.459383 220.180625 L 45.959383 220.180625 L 45.959383 226.180625 L 43.459383 226.180625 L 43.459383 220.180625" stroke="gray" fill="white" stroke-width="1px"></path><path d="M 43.459383 214.180625 L 45.959383 214.180625 L 45.959383 220.180625 L 43.459383 220.180625 L 43.459383 214.180625" stroke="gray" fill="white" stroke-width="1px"></path><path d="M 43.459383 208.180625 L 45.959383 208.180625 L 45.959383 214.180625 L 43.459383 214.180625 L 43.459383 208.180625" stroke="gray" fill="white" stroke-width="1px"></path><path d="M 43.459383 202.180625 L 45.959383 202.180625 L 45.959383 208.180625 L 43.459383 208.180625 L 43.459383 202.180625" stroke="gray" fill="white" stroke-width="1px"></path><path d="M 43.459383 196.180625 L 45.959383 196.180625 L 45.959383 202.180625 L 43.459383 202.180625 L 43.459383 196.180625" stroke="gray" fill="white" stroke-width="1px"></path><path d="M 31.459383 220.180625 L 33.959383 220.180625 L 33.959383 226.180625 L 31.459383 226.180625 L 31.459383 220.180625" stroke="gray" fill="white" stroke-width="1px"></path><path d="M 31.459383 214.180625 L 33.959383 214.180625 L 33.959383 220.180625 L 31.459383 220.180625 L 31.459383 214.180625" stroke="gray" fill="white" stroke-width="1px"></path><path d="M 31.459383 208.180625 L 33.959383 208.180625 L 33.959383 214.180625 L 31.459383 214.180625 L 31.459383 208.180625" stroke="gray" fill="white" stroke-width="1px"></path><path d="M 31.459383 202.180625 L 33.959383 202.180625 L 33.959383 208.180625 L 31.459383 208.180625 L 31.459383 202.180625" stroke="gray" fill="white" stroke-width="1px"></path><path d="M 31.459383 196.180625 L 33.959383 196.180625 L 33.959383 202.180625 L 31.459383 202.180625 L 31.459383 196.180625" stroke="gray" fill="white" stroke-width="1px"></path><path d="M 19.459383 220.180625 L 21.959383 220.180625 L 21.959383 226.180625 L 19.459383 226.180625 L 19.459383 220.180625" stroke="gray" fill="white" stroke-width="1px"></path><path d="M 19.459383 214.180625 L 21.959383 214.180625 L 21.959383 220.180625 L 19.459383 220.180625 L 19.459383 214.180625" stroke="gray" fill="white" stroke-width="1px"></path><path d="M 19.459383 208.180625 L 21.959383 208.180625 L 21.959383 214.180625 L 19.459383 214.180625 L 19.459383 208.180625" stroke="gray" fill="white" stroke-width="1px"></path><path d="M 19.459383 202.180625 L 21.959383 202.180625 L 21.959383 208.180625 L 19.459383 208.180625 L 19.459383 202.180625" stroke="gray" fill="white" stroke-width="1px"></path><path d="M 115.459383 214.123437 L 117.959383 214.123437 L 117.959383 220.123437 L 115.459383 220.123437 L 115.459383 214.123437" stroke="gray" fill="white" stroke-width="1px"></path><path d="M 115.459383 208.123437 L 117.959383 208.123437 L 117.959383 214.123437 L 115.459383 214.123437 L 115.459383 208.123437" stroke="gray" fill="white" stroke-width="1px"></path><path d="M 115.459383 202.123437 L 117.959383 202.123437 L 117.959383 208.123437 L 115.459383 208.123437 L 115.459383 202.123437" stroke="gray" fill="white" stroke-width="1px"></path><path d="M 115.459383 196.123437 L 117.959383 196.123437 L 117.959383 202.123437 L 115.459383 202.123437 L 115.459383 196.123437" stroke="gray" fill="white" stroke-width="1px"></path><path d="M 151.459383 214.123437 L 153.959383 214.123437 L 153.959383 220.123437 L 151.459383 220.123437 L 151.459383 214.123437" stroke="gray" fill="white" stroke-width="1px"></path><path d="M 151.459383 208.123437 L 153.959383 208.123437 L 153.959383 214.123437 L 151.459383 214.123437 L 151.459383 208.123437" stroke="gray" fill="white" stroke-width="1px"></path><path d="M 151.459383 202.123437 L 153.959383 202.123437 L 153.959383 208.123437 L 151.459383 208.123437 L 151.459383 202.123437" stroke="gray" fill="white" stroke-width="1px"></path><path d="M 151.459383 196.123437 L 153.959383 196.123437 L 153.959383 202.123437 L 151.459383 202.123437 L 151.459383 196.123437" stroke="gray" fill="white" stroke-width="1px"></path><path d="M 139.459383 214.123437 L 141.959383 214.123437 L 141.959383 220.123437 L 139.459383 220.123437 L 139.459383 214.123437" stroke="gray" fill="white" stroke-width="1px"></path><path d="M 139.459383 208.123437 L 141.959383 208.123437 L 141.959383 214.123437 L 139.459383 214.123437 L 139.459383 208.123437" stroke="gray" fill="white" stroke-width="1px"></path><path d="M 139.459383 202.123437 L 141.959383 202.123437 L 141.959383 208.123437 L 139.459383 208.123437 L 139.459383 202.123437" stroke="gray" fill="white" stroke-width="1px"></path><path d="M 139.459383 196.123437 L 141.959383 196.123437 L 141.959383 202.123437 L 139.459383 202.123437 L 139.459383 196.123437" stroke="gray" fill="white" stroke-width="1px"></path><path d="M 223.459383 214.123437 L 225.959383 214.123437 L 225.959383 220.123437 L 223.459383 220.123437 L 223.459383 214.123437" stroke="gray" fill="white" stroke-width="1px"></path><path d="M 223.459383 208.123437 L 225.959383 208.123437 L 225.959383 214.123437 L 223.459383 214.123437 L 223.459383 208.123437" stroke="gray" fill="white" stroke-width="1px"></path><path d="M 223.459383 202.123437 L 225.959383 202.123437 L 225.959383 208.123437 L 223.459383 208.123437 L 223.459383 202.123437" stroke="gray" fill="white" stroke-width="1px"></path><path d="M 223.459383 196.123437 L 225.959383 196.123437 L 225.959383 202.123437 L 223.459383 202.123437 L 223.459383 196.123437" stroke="gray" fill="white" stroke-width="1px"></path><path d="M 211.459383 214.123437 L 213.959383 214.123437 L 213.959383 220.123437 L 211.459383 220.123437 L 211.459383 214.123437" stroke="gray" fill="white" stroke-width="1px"></path><path d="M 211.459383 208.123437 L 213.959383 208.123437 L 213.959383 214.123437 L 211.459383 214.123437 L 211.459383 208.123437" stroke="gray" fill="white" stroke-width="1px"></path><path d="M 211.459383 202.123437 L 213.959383 202.123437 L 213.959383 208.123437 L 211.459383 208.123437 L 211.459383 202.123437" stroke="gray" fill="white" stroke-width="1px"></path><path d="M 211.459383 196.123437 L 213.959383 196.123437 L 213.959383 202.123437 L 211.459383 202.123437 L 211.459383 196.123437" stroke="gray" fill="white" stroke-width="1px"></path><path d="M 199.459383 214.123437 L 201.959383 214.123437 L 201.959383 220.123437 L 199.459383 220.123437 L 199.459383 214.123437" stroke="gray" fill="white" stroke-width="1px"></path><path d="M 199.459383 208.123437 L 201.959383 208.123437 L 201.959383 214.123437 L 199.459383 214.123437 L 199.459383 208.123437" stroke="gray" fill="white" stroke-width="1px"></path><path d="M 199.459383 202.123437 L 201.959383 202.123437 L 201.959383 208.123437 L 199.459383 208.123437 L 199.459383 202.123437" stroke="gray" fill="white" stroke-width="1px"></path><path d="M 199.459383 196.123437 L 201.959383 196.123437 L 201.959383 202.123437 L 199.459383 202.123437 L 199.459383 196.123437" stroke="gray" fill="white" stroke-width="1px"></path><path d="M 271.459383 214.123437 L 273.959383 214.123437 L 273.959383 220.123437 L 271.459383 220.123437 L 271.459383 214.123437" stroke="gray" fill="white" stroke-width="1px"></path><path d="M 271.459383 208.123437 L 273.959383 208.123437 L 273.959383 214.123437 L 271.459383 214.123437 L 271.459383 208.123437" stroke="gray" fill="white" stroke-width="1px"></path><path d="M 271.459383 202.123437 L 273.959383 202.123437 L 273.959383 208.123437 L 271.459383 208.123437 L 271.459383 202.123437" stroke="gray" fill="white" stroke-width="1px"></path><path d="M 271.459383 196.123437 L 273.959383 196.123437 L 273.959383 202.123437 L 271.459383 202.123437 L 271.459383 196.123437" stroke="gray" fill="white" stroke-width="1px"></path><path d="M 271.459383 190.123437 L 273.959383 190.123437 L 273.959383 196.123437 L 271.459383 196.123437 L 271.459383 190.123437" stroke="gray" fill="white" stroke-width="1px"></path><path d="M 271.459383 184.123437 L 273.959383 184.123437 L 273.959383 190.123437 L 271.459383 190.123437 L 271.459383 184.123437" stroke="gray" fill="white" stroke-width="1px"></path><path d="M 259.459383 214.123437 L 261.959383 214.123437 L 261.959383 220.123437 L 259.459383 220.123437 L 259.459383 214.123437" stroke="gray" fill="white" stroke-width="1px"></path><path d="M 259.459383 208.123437 L 261.959383 208.123437 L 261.959383 214.123437 L 259.459383 214.123437 L 259.459383 208.123437" stroke="gray" fill="white" stroke-width="1px"></path><path d="M 259.459383 202.123437 L 261.959383 202.123437 L 261.959383 208.123437 L 259.459383 208.123437 L 259.459383 202.123437" stroke="gray" fill="white" stroke-width="1px"></path><path d="M 259.459383 196.123437 L 261.959383 196.123437 L 261.959383 202.123437 L 259.459383 202.123437 L 259.459383 196.123437" stroke="gray" fill="white" stroke-width="1px"></path><path d="M 259.459383 190.123437 L 261.959383 190.123437 L 261.959383 196.123437 L 259.459383 196.123437 L 259.459383 190.123437" stroke="gray" fill="white" stroke-width="1px"></path><path d="M 259.459383 184.123437 L 261.959383 184.123437 L 261.959383 190.123437 L 259.459383 190.123437 L 259.459383 184.123437" stroke="gray" fill="white" stroke-width="1px"></path><path d="M 247.459383 190.300673 L 249.959383 190.300673 L 249.959383 196.300673 L 247.459383 196.300673 L 247.459383 190.300673" stroke="gray" fill="white" stroke-width="1px"></path><path d="M 247.459383 184.300673 L 249.959383 184.300673 L 249.959383 190.300673 L 247.459383 190.300673 L 247.459383 184.300673" stroke="gray" fill="white" stroke-width="1px"></path><path d="M 22.000000 184.123437 L 22.000000 181.623437 L 16.000000 181.623437 L 16.000000 184.123437 L 22.000000 184.123437" stroke="gray" fill="white" stroke-width="1px"></path><path d="M 28.000000 184.123437 L 28.000000 181.623437 L 22.000000 181.623437 L 22.000000 184.123437 L 28.000000 184.123437" stroke="gray" fill="white" stroke-width="1px"></path><path d="M 34.000000 184.123437 L 34.000000 181.623437 L 28.000000 181.623437 L 28.000000 184.123437 L 34.000000 184.123437" stroke="gray" fill="white" stroke-width="1px"></path><path d="M 40.000000 184.123437 L 40.000000 181.623437 L 34.000000 181.623437 L 34.000000 184.123437 L 40.000000 184.123437" stroke="gray" fill="white" stroke-width="1px"></path><path d="M 22.000000 172.123437 L 22.000000 169.623437 L 16.000000 169.623437 L 16.000000 172.123437 L 22.000000 172.123437" stroke="gray" fill="white" stroke-width="1px"></path><path d="M 28.000000 172.123437 L 28.000000 169.623437 L 22.000000 169.623437 L 22.000000 172.123437 L 28.000000 172.123437" stroke="gray" fill="white" stroke-width="1px"></path><path d="M 34.000000 172.123437 L 34.000000 169.623437 L 28.000000 169.623437 L 28.000000 172.123437 L 34.000000 172.123437" stroke="gray" fill="white" stroke-width="1px"></path><path d="M 40.000000 172.123437 L 40.000000 169.623437 L 34.000000 169.623437 L 34.000000 172.123437 L 40.000000 172.123437" stroke="gray" fill="white" stroke-width="1px"></path><path d="M 46.000000 172.123437 L 46.000000 169.623437 L 40.000000 169.623437 L 40.000000 172.123437 L 46.000000 172.123437" stroke="gray" fill="white" stroke-width="1px"></path><path d="M 52.000000 172.123437 L 52.000000 169.623437 L 46.000000 169.623437 L 46.000000 172.123437 L 52.000000 172.123437" stroke="gray" fill="white" stroke-width="1px"></path><path d="M 58.000000 172.123437 L 58.000000 169.623437 L 52.000000 169.623437 L 52.000000 172.123437 L 58.000000 172.123437" stroke="gray" fill="white" stroke-width="1px"></path><path d="M 22.000000 160.123437 L 22.000000 157.623437 L 16.000000 157.623437 L 16.000000 160.123437 L 22.000000 160.123437" stroke="gray" fill="white" stroke-width="1px"></path><path d="M 28.000000 160.123437 L 28.000000 157.623437 L 22.000000 157.623437 L 22.000000 160.123437 L 28.000000 160.123437" stroke="gray" fill="white" stroke-width="1px"></path><path d="M 34.000000 160.123437 L 34.000000 157.623437 L 28.000000 157.623437 L 28.000000 160.123437 L 34.000000 160.123437" stroke="gray" fill="white" stroke-width="1px"></path><path d="M 40.000000 160.123437 L 40.000000 157.623437 L 34.000000 157.623437 L 34.000000 160.123437 L 40.000000 160.123437" stroke="gray" fill="white" stroke-width="1px"></path><path d="M 46.000000 160.123437 L 46.000000 157.623437 L 40.000000 157.623437 L 40.000000 160.123437 L 46.000000 160.123437" stroke="gray" fill="white" stroke-width="1px"></path><path d="M 52.000000 160.123437 L 52.000000 157.623437 L 46.000000 157.623437 L 46.000000 160.123437 L 52.000000 160.123437" stroke="gray" fill="white" stroke-width="1px"></path><path d="M 58.000000 160.123437 L 58.000000 157.623437 L 52.000000 157.623437 L 52.000000 160.123437 L 58.000000 160.123437" stroke="gray" fill="white" stroke-width="1px"></path><path d="M 22.000000 148.123437 L 22.000000 145.623437 L 16.000000 145.623437 L 16.000000 148.123437 L 22.000000 148.123437" stroke="gray" fill="white" stroke-width="1px"></path><path d="M 28.000000 148.123437 L 28.000000 145.623437 L 22.000000 145.623437 L 22.000000 148.123437 L 28.000000 148.123437" stroke="gray" fill="white" stroke-width="1px"></path><path d="M 34.000000 148.123437 L 34.000000 145.623437 L 28.000000 145.623437 L 28.000000 148.123437 L 34.000000 148.123437" stroke="gray" fill="white" stroke-width="1px"></path><path d="M 40.000000 148.123437 L 40.000000 145.623437 L 34.000000 145.623437 L 34.000000 148.123437 L 40.000000 148.123437" stroke="gray" fill="white" stroke-width="1px"></path><path d="M 46.000000 148.123437 L 46.000000 145.623437 L 40.000000 145.623437 L 40.000000 148.123437 L 46.000000 148.123437" stroke="gray" fill="white" stroke-width="1px"></path><path d="M 52.000000 148.123437 L 52.000000 145.623437 L 46.000000 145.623437 L 46.000000 148.123437 L 52.000000 148.123437" stroke="gray" fill="white" stroke-width="1px"></path><path d="M 58.000000 148.123437 L 58.000000 145.623437 L 52.000000 145.623437 L 52.000000 148.123437 L 58.000000 148.123437" stroke="gray" fill="white" stroke-width="1px"></path><path d="M 251.737652 148.123437 L 251.737652 145.623437 L 245.737652 145.623437 L 245.737652 148.123437 L 251.737652 148.123437" stroke="gray" fill="white" stroke-width="1px"></path><path d="M 257.737652 148.123437 L 257.737652 145.623437 L 251.737652 145.623437 L 251.737652 148.123437 L 257.737652 148.123437" stroke="gray" fill="white" stroke-width="1px"></path><path d="M 263.737652 148.123437 L 263.737652 145.623437 L 257.737652 145.623437 L 257.737652 148.123437 L 263.737652 148.123437" stroke="gray" fill="white" stroke-width="1px"></path><path d="M 269.737652 148.123437 L 269.737652 145.623437 L 263.737652 145.623437 L 263.737652 148.123437 L 269.737652 148.123437" stroke="gray" fill="white" stroke-width="1px"></path><path d="M 275.737652 148.123437 L 275.737652 145.623437 L 269.737652 145.623437 L 269.737652 148.123437 L 275.737652 148.123437" stroke="gray" fill="white" stroke-width="1px"></path><path d="M 251.737652 136.123437 L 251.737652 133.623437 L 245.737652 133.623437 L 245.737652 136.123437 L 251.737652 136.123437" stroke="gray" fill="white" stroke-width="1px"></path><path d="M 257.737652 136.123437 L 257.737652 133.623437 L 251.737652 133.623437 L 251.737652 136.123437 L 257.737652 136.123437" stroke="gray" fill="white" stroke-width="1px"></path><path d="M 263.737652 136.123437 L 263.737652 133.623437 L 257.737652 133.623437 L 257.737652 136.123437 L 263.737652 136.123437" stroke="gray" fill="white" stroke-width="1px"></path><path d="M 269.737652 136.123437 L 269.737652 133.623437 L 263.737652 133.623437 L 263.737652 136.123437 L 269.737652 136.123437" stroke="gray" fill="white" stroke-width="1px"></path><path d="M 275.737652 136.123437 L 275.737652 133.623437 L 269.737652 133.623437 L 269.737652 136.123437 L 275.737652 136.123437" stroke="gray" fill="white" stroke-width="1px"></path><path d="M 22.000000 184.123437 L 22.000000 186.623437 L 16.000000 186.623437 L 16.000000 184.123437 L 22.000000 184.123437" stroke="gray" fill="white" stroke-width="1px"></path><path d="M 28.000000 184.123437 L 28.000000 186.623437 L 22.000000 186.623437 L 22.000000 184.123437 L 28.000000 184.123437" stroke="gray" fill="white" stroke-width="1px"></path><path d="M 34.000000 184.123437 L 34.000000 186.623437 L 28.000000 186.623437 L 28.000000 184.123437 L 34.000000 184.123437" stroke="gray" fill="white" stroke-width="1px"></path><path d="M 40.000000 184.123437 L 40.000000 186.623437 L 34.000000 186.623437 L 34.000000 184.123437 L 40.000000 184.123437" stroke="gray" fill="white" stroke-width="1px"></path><path d="M 22.000000 172.123437 L 22.000000 174.623437 L 16.000000 174.623437 L 16.000000 172.123437 L 22.000000 172.123437" stroke="gray" fill="white" stroke-width="1px"></path><path d="M 28.000000 172.123437 L 28.000000 174.623437 L 22.000000 174.623437 L 22.000000 172.123437 L 28.000000 172.123437" stroke="gray" fill="white" stroke-width="1px"></path><path d="M 34.000000 172.123437 L 34.000000 174.623437 L 28.000000 174.623437 L 28.000000 172.123437 L 34.000000 172.123437" stroke="gray" fill="white" stroke-width="1px"></path><path d="M 40.000000 172.123437 L 40.000000 174.623437 L 34.000000 174.623437 L 34.000000 172.123437 L 40.000000 172.123437" stroke="gray" fill="white" stroke-width="1px"></path><path d="M 46.000000 172.123437 L 46.000000 174.623437 L 40.000000 174.623437 L 40.000000 172.123437 L 46.000000 172.123437" stroke="gray" fill="white" stroke-width="1px"></path><path d="M 52.000000 172.123437 L 52.000000 174.623437 L 46.000000 174.623437 L 46.000000 172.123437 L 52.000000 172.123437" stroke="gray" fill="white" stroke-width="1px"></path><path d="M 58.000000 172.123437 L 58.000000 174.623437 L 52.000000 174.623437 L 52.000000 172.123437 L 58.000000 172.123437" stroke="gray" fill="white" stroke-width="1px"></path><path d="M 22.000000 160.123437 L 22.000000 162.623437 L 16.000000 162.623437 L 16.000000 160.123437 L 22.000000 160.123437" stroke="gray" fill="white" stroke-width="1px"></path><path d="M 28.000000 160.123437 L 28.000000 162.623437 L 22.000000 162.623437 L 22.000000 160.123437 L 28.000000 160.123437" stroke="gray" fill="white" stroke-width="1px"></path><path d="M 34.000000 160.123437 L 34.000000 162.623437 L 28.000000 162.623437 L 28.000000 160.123437 L 34.000000 160.123437" stroke="gray" fill="white" stroke-width="1px"></path><path d="M 40.000000 160.123437 L 40.000000 162.623437 L 34.000000 162.623437 L 34.000000 160.123437 L 40.000000 160.123437" stroke="gray" fill="white" stroke-width="1px"></path><path d="M 46.000000 160.123437 L 46.000000 162.623437 L 40.000000 162.623437 L 40.000000 160.123437 L 46.000000 160.123437" stroke="gray" fill="white" stroke-width="1px"></path><path d="M 52.000000 160.123437 L 52.000000 162.623437 L 46.000000 162.623437 L 46.000000 160.123437 L 52.000000 160.123437" stroke="gray" fill="white" stroke-width="1px"></path><path d="M 58.000000 160.123437 L 58.000000 162.623437 L 52.000000 162.623437 L 52.000000 160.123437 L 58.000000 160.123437" stroke="gray" fill="white" stroke-width="1px"></path><path d="M 22.000000 148.123437 L 22.000000 150.623437 L 16.000000 150.623437 L 16.000000 148.123437 L 22.000000 148.123437" stroke="gray" fill="white" stroke-width="1px"></path><path d="M 28.000000 148.123437 L 28.000000 150.623437 L 22.000000 150.623437 L 22.000000 148.123437 L 28.000000 148.123437" stroke="gray" fill="white" stroke-width="1px"></path><path d="M 34.000000 148.123437 L 34.000000 150.623437 L 28.000000 150.623437 L 28.000000 148.123437 L 34.000000 148.123437" stroke="gray" fill="white" stroke-width="1px"></path><path d="M 40.000000 148.123437 L 40.000000 150.623437 L 34.000000 150.623437 L 34.000000 148.123437 L 40.000000 148.123437" stroke="gray" fill="white" stroke-width="1px"></path><path d="M 46.000000 148.123437 L 46.000000 150.623437 L 40.000000 150.623437 L 40.000000 148.123437 L 46.000000 148.123437" stroke="gray" fill="white" stroke-width="1px"></path><path d="M 52.000000 148.123437 L 52.000000 150.623437 L 46.000000 150.623437 L 46.000000 148.123437 L 52.000000 148.123437" stroke="gray" fill="white" stroke-width="1px"></path><path d="M 58.000000 148.123437 L 58.000000 150.623437 L 52.000000 150.623437 L 52.000000 148.123437 L 58.000000 148.123437" stroke="gray" fill="white" stroke-width="1px"></path><path d="M 251.737652 148.123437 L 251.737652 150.623437 L 245.737652 150.623437 L 245.737652 148.123437 L 251.737652 148.123437" stroke="gray" fill="white" stroke-width="1px"></path><path d="M 257.737652 148.123437 L 257.737652 150.623437 L 251.737652 150.623437 L 251.737652 148.123437 L 257.737652 148.123437" stroke="gray" fill="white" stroke-width="1px"></path><path d="M 263.737652 148.123437 L 263.737652 150.623437 L 257.737652 150.623437 L 257.737652 148.123437 L 263.737652 148.123437" stroke="gray" fill="white" stroke-width="1px"></path><path d="M 269.737652 148.123437 L 269.737652 150.623437 L 263.737652 150.623437 L 263.737652 148.123437 L 269.737652 148.123437" stroke="gray" fill="white" stroke-width="1px"></path><path d="M 275.737652 148.123437 L 275.737652 150.623437 L 269.737652 150.623437 L 269.737652 148.123437 L 275.737652 148.123437" stroke="gray" fill="white" stroke-width="1px"></path><path d="M 251.737652 136.123437 L 251.737652 138.623437 L 245.737652 138.623437 L 245.737652 136.123437 L 251.737652 136.123437" stroke="gray" fill="white" stroke-width="1px"></path><path d="M 257.737652 136.123437 L 257.737652 138.623437 L 251.737652 138.623437 L 251.737652 136.123437 L 257.737652 136.123437" stroke="gray" fill="white" stroke-width="1px"></path><path d="M 263.737652 136.123437 L 263.737652 138.623437 L 257.737652 138.623437 L 257.737652 136.123437 L 263.737652 136.123437" stroke="gray" fill="white" stroke-width="1px"></path><path d="M 269.737652 136.123437 L 269.737652 138.623437 L 263.737652 138.623437 L 263.737652 136.123437 L 269.737652 136.123437" stroke="gray" fill="white" stroke-width="1px"></path><path d="M 275.737652 136.123437 L 275.737652 138.623437 L 269.737652 138.623437 L 269.737652 136.123437 L 275.737652 136.123437" stroke="gray" fill="white" stroke-width="1px"></path><path d="M 271.459383 35.358916 L 268.959383 35.358916 L 268.959383 41.358916 L 271.459383 41.358916 L 271.459383 35.358916" stroke="gray" fill="white" stroke-width="1px"></path><path d="M 271.459383 29.358916 L 268.959383 29.358916 L 268.959383 35.358916 L 271.459383 35.358916 L 271.459383 29.358916" stroke="gray" fill="white" stroke-width="1px"></path><path d="M 271.459383 23.358916 L 268.959383 23.358916 L 268.959383 29.358916 L 271.459383 29.358916 L 271.459383 23.358916" stroke="gray" fill="white" stroke-width="1px"></path><path d="M 271.459383 17.358916 L 268.959383 17.358916 L 268.959383 23.358916 L 271.459383 23.358916 L 271.459383 17.358916" stroke="gray" fill="white" stroke-width="1px"></path><path d="M 259.459383 44.199321 L 256.959383 44.199321 L 256.959383 50.199321 L 259.459383 50.199321 L 259.459383 44.199321" stroke="gray" fill="white" stroke-width="1px"></path><path d="M 259.459383 38.199321 L 256.959383 38.199321 L 256.959383 44.199321 L 259.459383 44.199321 L 259.459383 38.199321" stroke="gray" fill="white" stroke-width="1px"></path><path d="M 259.459383 32.199321 L 256.959383 32.199321 L 256.959383 38.199321 L 259.459383 38.199321 L 259.459383 32.199321" stroke="gray" fill="white" stroke-width="1px"></path><path d="M 259.459383 26.199321 L 256.959383 26.199321 L 256.959383 32.199321 L 259.459383 32.199321 L 259.459383 26.199321" stroke="gray" fill="white" stroke-width="1px"></path><path d="M 259.459383 20.199321 L 256.959383 20.199321 L 256.959383 26.199321 L 259.459383 26.199321 L 259.459383 20.199321" stroke="gray" fill="white" stroke-width="1px"></path><path d="M 259.459383 14.199321 L 256.959383 14.199321 L 256.959383 20.199321 L 259.459383 20.199321 L 259.459383 14.199321" stroke="gray" fill="white" stroke-width="1px"></path><path d="M 247.459383 33.512504 L 244.959383 33.512504 L 244.959383 39.512504 L 247.459383 39.512504 L 247.459383 33.512504" stroke="gray" fill="white" stroke-width="1px"></path><path d="M 247.459383 27.512504 L 244.959383 27.512504 L 244.959383 33.512504 L 247.459383 33.512504 L 247.459383 27.512504" stroke="gray" fill="white" stroke-width="1px"></path><path d="M 247.459383 21.512504 L 244.959383 21.512504 L 244.959383 27.512504 L 247.459383 27.512504 L 247.459383 21.512504" stroke="gray" fill="white" stroke-width="1px"></path><path d="M 247.459383 15.512504 L 244.959383 15.512504 L 244.959383 21.512504 L 247.459383 21.512504 L 247.459383 15.512504" stroke="gray" fill="white" stroke-width="1px"></path><path d="M 235.459383 27.164630 L 232.959383 27.164630 L 232.959383 33.164630 L 235.459383 33.164630 L 235.459383 27.164630" stroke="gray" fill="white" stroke-width="1px"></path><path d="M 235.459383 21.164630 L 232.959383 21.164630 L 232.959383 27.164630 L 235.459383 27.164630 L 235.459383 21.164630" stroke="gray" fill="white" stroke-width="1px"></path><path d="M 235.459383 15.164630 L 232.959383 15.164630 L 232.959383 21.164630 L 235.459383 21.164630 L 235.459383 15.164630" stroke="gray" fill="white" stroke-width="1px"></path><path d="M 175.459383 101.033125 L 172.959383 101.033125 L 172.959383 107.033125 L 175.459383 107.033125 L 175.459383 101.033125" stroke="gray" fill="white" stroke-width="1px"></path><path d="M 175.459383 88.128053 L 172.959383 88.128053 L 172.959383 94.128053 L 175.459383 94.128053 L 175.459383 88.128053" stroke="gray" fill="white" stroke-width="1px"></path><path d="M 175.459383 82.128053 L 172.959383 82.128053 L 172.959383 88.128053 L 175.459383 88.128053 L 175.459383 82.128053" stroke="gray" fill="white" stroke-width="1px"></path><path d="M 139.459383 101.033125 L 136.959383 101.033125 L 136.959383 107.033125 L 139.459383 107.033125 L 139.459383 101.033125" stroke="gray" fill="white" stroke-width="1px"></path><path d="M 139.459383 95.033125 L 136.959383 95.033125 L 136.959383 101.033125 L 139.459383 101.033125 L 139.459383 95.033125" stroke="gray" fill="white" stroke-width="1px"></path><path d="M 139.459383 89.033125 L 136.959383 89.033125 L 136.959383 95.033125 L 139.459383 95.033125 L 139.459383 89.033125" stroke="gray" fill="white" stroke-width="1px"></path><path d="M 139.459383 83.033125 L 136.959383 83.033125 L 136.959383 89.033125 L 139.459383 89.033125 L 139.459383 83.033125" stroke="gray" fill="white" stroke-width="1px"></path><path d="M 127.459383 101.033125 L 124.959383 101.033125 L 124.959383 107.033125 L 127.459383 107.033125 L 127.459383 101.033125" stroke="gray" fill="white" stroke-width="1px"></path><path d="M 127.459383 95.033125 L 124.959383 95.033125 L 124.959383 101.033125 L 127.459383 101.033125 L 127.459383 95.033125" stroke="gray" fill="white" stroke-width="1px"></path><path d="M 127.459383 89.033125 L 124.959383 89.033125 L 124.959383 95.033125 L 127.459383 95.033125 L 127.459383 89.033125" stroke="gray" fill="white" stroke-width="1px"></path><path d="M 127.459383 83.033125 L 124.959383 83.033125 L 124.959383 89.033125 L 127.459383 89.033125 L 127.459383 83.033125" stroke="gray" fill="white" stroke-width="1px"></path><path d="M 115.459383 101.033125 L 112.959383 101.033125 L 112.959383 107.033125 L 115.459383 107.033125 L 115.459383 101.033125" stroke="gray" fill="white" stroke-width="1px"></path><path d="M 115.459383 95.033125 L 112.959383 95.033125 L 112.959383 101.033125 L 115.459383 101.033125 L 115.459383 95.033125" stroke="gray" fill="white" stroke-width="1px"></path><path d="M 115.459383 89.033125 L 112.959383 89.033125 L 112.959383 95.033125 L 115.459383 95.033125 L 115.459383 89.033125" stroke="gray" fill="white" stroke-width="1px"></path><path d="M 115.459383 83.033125 L 112.959383 83.033125 L 112.959383 89.033125 L 115.459383 89.033125 L 115.459383 83.033125" stroke="gray" fill="white" stroke-width="1px"></path><path d="M 55.459383 107.090312 L 52.959383 107.090312 L 52.959383 113.090312 L 55.459383 113.090312 L 55.459383 107.090312" stroke="gray" fill="white" stroke-width="1px"></path><path d="M 43.459383 107.090312 L 40.959383 107.090312 L 40.959383 113.090312 L 43.459383 113.090312 L 43.459383 107.090312" stroke="gray" fill="white" stroke-width="1px"></path><path d="M 43.459383 101.090312 L 40.959383 101.090312 L 40.959383 107.090312 L 43.459383 107.090312 L 43.459383 101.090312" stroke="gray" fill="white" stroke-width="1px"></path><path d="M 31.459383 107.090312 L 28.959383 107.090312 L 28.959383 113.090312 L 31.459383 113.090312 L 31.459383 107.090312" stroke="gray" fill="white" stroke-width="1px"></path><path d="M 31.459383 101.090312 L 28.959383 101.090312 L 28.959383 107.090312 L 31.459383 107.090312 L 31.459383 101.090312" stroke="gray" fill="white" stroke-width="1px"></path><path d="M 31.459383 95.090312 L 28.959383 95.090312 L 28.959383 101.090312 L 31.459383 101.090312 L 31.459383 95.090312" stroke="gray" fill="white" stroke-width="1px"></path><path d="M 19.459383 107.090312 L 16.959383 107.090312 L 16.959383 113.090312 L 19.459383 113.090312 L 19.459383 107.090312" stroke="gray" fill="white" stroke-width="1px"></path><path d="M 19.459383 101.090312 L 16.959383 101.090312 L 16.959383 107.090312 L 19.459383 107.090312 L 19.459383 101.090312" stroke="gray" fill="white" stroke-width="1px"></path><path d="M 19.459383 95.090312 L 16.959383 95.090312 L 16.959383 101.090312 L 19.459383 101.090312 L 19.459383 95.090312" stroke="gray" fill="white" stroke-width="1px"></path><path d="M 271.459383 29.358916 L 273.959383 29.358916 L 273.959383 35.358916 L 271.459383 35.358916 L 271.459383 29.358916" stroke="gray" fill="white" stroke-width="1px"></path><path d="M 271.459383 23.358916 L 273.959383 23.358916 L 273.959383 29.358916 L 271.459383 29.358916 L 271.459383 23.358916" stroke="gray" fill="white" stroke-width="1px"></path><path d="M 271.459383 17.358916 L 273.959383 17.358916 L 273.959383 23.358916 L 271.459383 23.358916 L 271.459383 17.358916" stroke="gray" fill="white" stroke-width="1px"></path><path d="M 259.459383 38.199321 L 261.959383 38.199321 L 261.959383 44.199321 L 259.459383 44.199321 L 259.459383 38.199321" stroke="gray" fill="white" stroke-width="1px"></path><path d="M 259.459383 32.199321 L 261.959383 32.199321 L 261.959383 38.199321 L 259.459383 38.199321 L 259.459383 32.199321" stroke="gray" fill="white" stroke-width="1px"></path><path d="M 259.459383 26.199321 L 261.959383 26.199321 L 261.959383 32.199321 L 259.459383 32.199321 L 259.459383 26.199321" stroke="gray" fill="white" stroke-width="1px"></path><path d="M 259.459383 20.199321 L 261.959383 20.199321 L 261.959383 26.199321 L 259.459383 26.199321 L 259.459383 20.199321" stroke="gray" fill="white" stroke-width="1px"></path><path d="M 259.459383 14.199321 L 261.959383 14.199321 L 261.959383 20.199321 L 259.459383 20.199321 L 259.459383 14.199321" stroke="gray" fill="white" stroke-width="1px"></path><path d="M 247.459383 33.512504 L 249.959383 33.512504 L 249.959383 39.512504 L 247.459383 39.512504 L 247.459383 33.512504" stroke="gray" fill="white" stroke-width="1px"></path><path d="M 247.459383 27.512504 L 249.959383 27.512504 L 249.959383 33.512504 L 247.459383 33.512504 L 247.459383 27.512504" stroke="gray" fill="white" stroke-width="1px"></path><path d="M 247.459383 21.512504 L 249.959383 21.512504 L 249.959383 27.512504 L 247.459383 27.512504 L 247.459383 21.512504" stroke="gray" fill="white" stroke-width="1px"></path><path d="M 247.459383 15.512504 L 249.959383 15.512504 L 249.959383 21.512504 L 247.459383 21.512504 L 247.459383 15.512504" stroke="gray" fill="white" stroke-width="1px"></path><path d="M 235.459383 27.164630 L 237.959383 27.164630 L 237.959383 33.164630 L 235.459383 33.164630 L 235.459383 27.164630" stroke="gray" fill="white" stroke-width="1px"></path><path d="M 235.459383 21.164630 L 237.959383 21.164630 L 237.959383 27.164630 L 235.459383 27.164630 L 235.459383 21.164630" stroke="gray" fill="white" stroke-width="1px"></path><path d="M 235.459383 15.164630 L 237.959383 15.164630 L 237.959383 21.164630 L 235.459383 21.164630 L 235.459383 15.164630" stroke="gray" fill="white" stroke-width="1px"></path><path d="M 175.459383 101.033125 L 177.959383 101.033125 L 177.959383 107.033125 L 175.459383 107.033125 L 175.459383 101.033125" stroke="gray" fill="white" stroke-width="1px"></path><path d="M 175.459383 82.128053 L 177.959383 82.128053 L 177.959383 88.128053 L 175.459383 88.128053 L 175.459383 82.128053" stroke="gray" fill="white" stroke-width="1px"></path><path d="M 139.459383 101.033125 L 141.959383 101.033125 L 141.959383 107.033125 L 139.459383 107.033125 L 139.459383 101.033125" stroke="gray" fill="white" stroke-width="1px"></path><path d="M 139.459383 95.033125 L 141.959383 95.033125 L 141.959383 101.033125 L 139.459383 101.033125 L 139.459383 95.033125" stroke="gray" fill="white" stroke-width="1px"></path><path d="M 139.459383 89.033125 L 141.959383 89.033125 L 141.959383 95.033125 L 139.459383 95.033125 L 139.459383 89.033125" stroke="gray" fill="white" stroke-width="1px"></path><path d="M 139.459383 83.033125 L 141.959383 83.033125 L 141.959383 89.033125 L 139.459383 89.033125 L 139.459383 83.033125" stroke="gray" fill="white" stroke-width="1px"></path><path d="M 127.459383 101.033125 L 129.959383 101.033125 L 129.959383 107.033125 L 127.459383 107.033125 L 127.459383 101.033125" stroke="gray" fill="white" stroke-width="1px"></path><path d="M 127.459383 95.033125 L 129.959383 95.033125 L 129.959383 101.033125 L 127.459383 101.033125 L 127.459383 95.033125" stroke="gray" fill="white" stroke-width="1px"></path><path d="M 127.459383 89.033125 L 129.959383 89.033125 L 129.959383 95.033125 L 127.459383 95.033125 L 127.459383 89.033125" stroke="gray" fill="white" stroke-width="1px"></path><path d="M 127.459383 83.033125 L 129.959383 83.033125 L 129.959383 89.033125 L 127.459383 89.033125 L 127.459383 83.033125" stroke="gray" fill="white" stroke-width="1px"></path><path d="M 115.459383 101.033125 L 117.959383 101.033125 L 117.959383 107.033125 L 115.459383 107.033125 L 115.459383 101.033125" stroke="gray" fill="white" stroke-width="1px"></path><path d="M 115.459383 95.033125 L 117.959383 95.033125 L 117.959383 101.033125 L 115.459383 101.033125 L 115.459383 95.033125" stroke="gray" fill="white" stroke-width="1px"></path><path d="M 115.459383 89.033125 L 117.959383 89.033125 L 117.959383 95.033125 L 115.459383 95.033125 L 115.459383 89.033125" stroke="gray" fill="white" stroke-width="1px"></path><path d="M 115.459383 83.033125 L 117.959383 83.033125 L 117.959383 89.033125 L 115.459383 89.033125 L 115.459383 83.033125" stroke="gray" fill="white" stroke-width="1px"></path><path d="M 55.459383 107.090312 L 57.959383 107.090312 L 57.959383 113.090312 L 55.459383 113.090312 L 55.459383 107.090312" stroke="gray" fill="white" stroke-width="1px"></path><path d="M 43.459383 107.090312 L 45.959383 107.090312 L 45.959383 113.090312 L 43.459383 113.090312 L 43.459383 107.090312" stroke="gray" fill="white" stroke-width="1px"></path><path d="M 43.459383 101.090312 L 45.959383 101.090312 L 45.959383 107.090312 L 43.459383 107.090312 L 43.459383 101.090312" stroke="gray" fill="white" stroke-width="1px"></path><path d="M 31.459383 107.090312 L 33.959383 107.090312 L 33.959383 113.090312 L 31.459383 113.090312 L 31.459383 107.090312" stroke="gray" fill="white" stroke-width="1px"></path><path d="M 31.459383 101.090312 L 33.959383 101.090312 L 33.959383 107.090312 L 31.459383 107.090312 L 31.459383 101.090312" stroke="gray" fill="white" stroke-width="1px"></path><path d="M 31.459383 95.090312 L 33.959383 95.090312 L 33.959383 101.090312 L 31.459383 101.090312 L 31.459383 95.090312" stroke="gray" fill="white" stroke-width="1px"></path><path d="M 19.459383 107.090312 L 21.959383 107.090312 L 21.959383 113.090312 L 19.459383 113.090312 L 19.459383 107.090312" stroke="gray" fill="white" stroke-width="1px"></path><path d="M 19.459383 101.090312 L 21.959383 101.090312 L 21.959383 107.090312 L 19.459383 107.090312 L 19.459383 101.090312" stroke="gray" fill="white" stroke-width="1px"></path><path d="M 19.459383 95.090312 L 21.959383 95.090312 L 21.959383 101.090312 L 19.459383 101.090312 L 19.459383 95.090312" stroke="gray" fill="white" stroke-width="1px"></path><path d="M 267.407415 101.263579 L 267.407415 98.763579 L 261.407415 98.763579 L 261.407415 101.263579 L 267.407415 101.263579" stroke="gray" fill="white" stroke-width="1px"></path><path d="M 273.407415 101.263579 L 273.407415 98.763579 L 267.407415 98.763579 L 267.407415 101.263579 L 273.407415 101.263579" stroke="gray" fill="white" stroke-width="1px"></path><path d="M 279.407415 101.263579 L 279.407415 98.763579 L 273.407415 98.763579 L 273.407415 101.263579 L 279.407415 101.263579" stroke="gray" fill="white" stroke-width="1px"></path><path d="M 268.668246 89.263579 L 268.668246 86.763579 L 262.668246 86.763579 L 262.668246 89.263579 L 268.668246 89.263579" stroke="gray" fill="white" stroke-width="1px"></path><path d="M 274.668246 89.263579 L 274.668246 86.763579 L 268.668246 86.763579 L 268.668246 89.263579 L 274.668246 89.263579" stroke="gray" fill="white" stroke-width="1px"></path><path d="M 269.929078 77.263579 L 269.929078 74.763579 L 263.929078 74.763579 L 263.929078 77.263579 L 269.929078 77.263579" stroke="gray" fill="white" stroke-width="1px"></path><path d="M 275.929078 77.263579 L 275.929078 74.763579 L 269.929078 74.763579 L 269.929078 77.263579 L 275.929078 77.263579" stroke="gray" fill="white" stroke-width="1px"></path><path d="M 271.189909 65.263579 L 271.189909 62.763579 L 265.189909 62.763579 L 265.189909 65.263579 L 271.189909 65.263579" stroke="gray" fill="white" stroke-width="1px"></path><path d="M 277.189909 65.263579 L 277.189909 62.763579 L 271.189909 62.763579 L 271.189909 65.263579 L 277.189909 65.263579" stroke="gray" fill="white" stroke-width="1px"></path><path d="M 267.299947 53.263579 L 267.299947 50.763579 L 261.299947 50.763579 L 261.299947 53.263579 L 267.299947 53.263579" stroke="gray" fill="white" stroke-width="1px"></path><path d="M 273.299947 53.263579 L 273.299947 50.763579 L 267.299947 50.763579 L 267.299947 53.263579 L 273.299947 53.263579" stroke="gray" fill="white" stroke-width="1px"></path><path d="M 279.299947 53.263579 L 279.299947 50.763579 L 273.299947 50.763579 L 273.299947 53.263579 L 279.299947 53.263579" stroke="gray" fill="white" stroke-width="1px"></path><path d="M 220.271498 101.263579 L 220.271498 98.763579 L 214.271498 98.763579 L 214.271498 101.263579 L 220.271498 101.263579" stroke="gray" fill="white" stroke-width="1px"></path><path d="M 226.271498 101.263579 L 226.271498 98.763579 L 220.271498 98.763579 L 220.271498 101.263579 L 226.271498 101.263579" stroke="gray" fill="white" stroke-width="1px"></path><path d="M 232.271498 101.263579 L 232.271498 98.763579 L 226.271498 98.763579 L 226.271498 101.263579 L 232.271498 101.263579" stroke="gray" fill="white" stroke-width="1px"></path><path d="M 234.906537 89.263579 L 234.906537 86.763579 L 228.906537 86.763579 L 228.906537 89.263579 L 234.906537 89.263579" stroke="gray" fill="white" stroke-width="1px"></path><path d="M 233.737654 77.263579 L 233.737654 74.763579 L 227.737654 74.763579 L 227.737654 77.263579 L 233.737654 77.263579" stroke="gray" fill="white" stroke-width="1px"></path><path d="M 233.737654 65.263579 L 233.737654 62.763579 L 227.737654 62.763579 L 227.737654 65.263579 L 233.737654 65.263579" stroke="gray" fill="white" stroke-width="1px"></path><path d="M 239.737654 65.263579 L 239.737654 62.763579 L 233.737654 62.763579 L 233.737654 65.263579 L 239.737654 65.263579" stroke="gray" fill="white" stroke-width="1px"></path><path d="M 22.000000 65.263579 L 22.000000 62.763579 L 16.000000 62.763579 L 16.000000 65.263579 L 22.000000 65.263579" stroke="gray" fill="white" stroke-width="1px"></path><path d="M 28.000000 65.263579 L 28.000000 62.763579 L 22.000000 62.763579 L 22.000000 65.263579 L 28.000000 65.263579" stroke="gray" fill="white" stroke-width="1px"></path><path d="M 34.000000 65.263579 L 34.000000 62.763579 L 28.000000 62.763579 L 28.000000 65.263579 L 34.000000 65.263579" stroke="gray" fill="white" stroke-width="1px"></path><path d="M 40.000000 65.263579 L 40.000000 62.763579 L 34.000000 62.763579 L 34.000000 65.263579 L 40.000000 65.263579" stroke="gray" fill="white" stroke-width="1px"></path><path d="M 46.000000 65.263579 L 46.000000 62.763579 L 40.000000 62.763579 L 40.000000 65.263579 L 46.000000 65.263579" stroke="gray" fill="white" stroke-width="1px"></path><path d="M 52.000000 65.263579 L 52.000000 62.763579 L 46.000000 62.763579 L 46.000000 65.263579 L 52.000000 65.263579" stroke="gray" fill="white" stroke-width="1px"></path><path d="M 58.000000 65.263579 L 58.000000 62.763579 L 52.000000 62.763579 L 52.000000 65.263579 L 58.000000 65.263579" stroke="gray" fill="white" stroke-width="1px"></path><path d="M 22.000000 53.263579 L 22.000000 50.763579 L 16.000000 50.763579 L 16.000000 53.263579 L 22.000000 53.263579" stroke="gray" fill="white" stroke-width="1px"></path><path d="M 28.000000 53.263579 L 28.000000 50.763579 L 22.000000 50.763579 L 22.000000 53.263579 L 28.000000 53.263579" stroke="gray" fill="white" stroke-width="1px"></path><path d="M 34.000000 53.263579 L 34.000000 50.763579 L 28.000000 50.763579 L 28.000000 53.263579 L 34.000000 53.263579" stroke="gray" fill="white" stroke-width="1px"></path><path d="M 40.000000 53.263579 L 40.000000 50.763579 L 34.000000 50.763579 L 34.000000 53.263579 L 40.000000 53.263579" stroke="gray" fill="white" stroke-width="1px"></path><path d="M 46.000000 53.263579 L 46.000000 50.763579 L 40.000000 50.763579 L 40.000000 53.263579 L 46.000000 53.263579" stroke="gray" fill="white" stroke-width="1px"></path><path d="M 52.000000 53.263579 L 52.000000 50.763579 L 46.000000 50.763579 L 46.000000 53.263579 L 52.000000 53.263579" stroke="gray" fill="white" stroke-width="1px"></path><path d="M 58.000000 53.263579 L 58.000000 50.763579 L 52.000000 50.763579 L 52.000000 53.263579 L 58.000000 53.263579" stroke="gray" fill="white" stroke-width="1px"></path><path d="M 22.000000 41.263579 L 22.000000 38.763579 L 16.000000 38.763579 L 16.000000 41.263579 L 22.000000 41.263579" stroke="gray" fill="white" stroke-width="1px"></path><path d="M 28.000000 41.263579 L 28.000000 38.763579 L 22.000000 38.763579 L 22.000000 41.263579 L 28.000000 41.263579" stroke="gray" fill="white" stroke-width="1px"></path><path d="M 34.000000 41.263579 L 34.000000 38.763579 L 28.000000 38.763579 L 28.000000 41.263579 L 34.000000 41.263579" stroke="gray" fill="white" stroke-width="1px"></path><path d="M 40.000000 41.263579 L 40.000000 38.763579 L 34.000000 38.763579 L 34.000000 41.263579 L 40.000000 41.263579" stroke="gray" fill="white" stroke-width="1px"></path><path d="M 46.000000 41.263579 L 46.000000 38.763579 L 40.000000 38.763579 L 40.000000 41.263579 L 46.000000 41.263579" stroke="gray" fill="white" stroke-width="1px"></path><path d="M 52.000000 41.263579 L 52.000000 38.763579 L 46.000000 38.763579 L 46.000000 41.263579 L 52.000000 41.263579" stroke="gray" fill="white" stroke-width="1px"></path><path d="M 58.000000 41.263579 L 58.000000 38.763579 L 52.000000 38.763579 L 52.000000 41.263579 L 58.000000 41.263579" stroke="gray" fill="white" stroke-width="1px"></path><path d="M 267.407415 101.263579 L 267.407415 103.763579 L 261.407415 103.763579 L 261.407415 101.263579 L 267.407415 101.263579" stroke="gray" fill="white" stroke-width="1px"></path><path d="M 273.407415 101.263579 L 273.407415 103.763579 L 267.407415 103.763579 L 267.407415 101.263579 L 273.407415 101.263579" stroke="gray" fill="white" stroke-width="1px"></path><path d="M 279.407415 101.263579 L 279.407415 103.763579 L 273.407415 103.763579 L 273.407415 101.263579 L 279.407415 101.263579" stroke="gray" fill="white" stroke-width="1px"></path><path d="M 268.668246 89.263579 L 268.668246 91.763579 L 262.668246 91.763579 L 262.668246 89.263579 L 268.668246 89.263579" stroke="gray" fill="white" stroke-width="1px"></path><path d="M 274.668246 89.263579 L 274.668246 91.763579 L 268.668246 91.763579 L 268.668246 89.263579 L 274.668246 89.263579" stroke="gray" fill="white" stroke-width="1px"></path><path d="M 269.929078 77.263579 L 269.929078 79.763579 L 263.929078 79.763579 L 263.929078 77.263579 L 269.929078 77.263579" stroke="gray" fill="white" stroke-width="1px"></path><path d="M 275.929078 77.263579 L 275.929078 79.763579 L 269.929078 79.763579 L 269.929078 77.263579 L 275.929078 77.263579" stroke="gray" fill="white" stroke-width="1px"></path><path d="M 271.189909 65.263579 L 271.189909 67.763579 L 265.189909 67.763579 L 265.189909 65.263579 L 271.189909 65.263579" stroke="gray" fill="white" stroke-width="1px"></path><path d="M 277.189909 65.263579 L 277.189909 67.763579 L 271.189909 67.763579 L 271.189909 65.263579 L 277.189909 65.263579" stroke="gray" fill="white" stroke-width="1px"></path><path d="M 267.299947 53.263579 L 267.299947 55.763579 L 261.299947 55.763579 L 261.299947 53.263579 L 267.299947 53.263579" stroke="gray" fill="white" stroke-width="1px"></path><path d="M 273.299947 53.263579 L 273.299947 55.763579 L 267.299947 55.763579 L 267.299947 53.263579 L 273.299947 53.263579" stroke="gray" fill="white" stroke-width="1px"></path><path d="M 279.299947 53.263579 L 279.299947 55.763579 L 273.299947 55.763579 L 273.299947 53.263579 L 279.299947 53.263579" stroke="gray" fill="white" stroke-width="1px"></path><path d="M 220.271498 101.263579 L 220.271498 103.763579 L 214.271498 103.763579 L 214.271498 101.263579 L 220.271498 101.263579" stroke="gray" fill="white" stroke-width="1px"></path><path d="M 226.271498 101.263579 L 226.271498 103.763579 L 220.271498 103.763579 L 220.271498 101.263579 L 226.271498 101.263579" stroke="gray" fill="white" stroke-width="1px"></path><path d="M 232.271498 101.263579 L 232.271498 103.763579 L 226.271498 103.763579 L 226.271498 101.263579 L 232.271498 101.263579" stroke="gray" fill="white" stroke-width="1px"></path><path d="M 234.906537 89.263579 L 234.906537 91.763579 L 228.906537 91.763579 L 228.906537 89.263579 L 234.906537 89.263579" stroke="gray" fill="white" stroke-width="1px"></path><path d="M 233.737654 77.263579 L 233.737654 79.763579 L 227.737654 79.763579 L 227.737654 77.263579 L 233.737654 77.263579" stroke="gray" fill="white" stroke-width="1px"></path><path d="M 233.737654 65.263579 L 233.737654 67.763579 L 227.737654 67.763579 L 227.737654 65.263579 L 233.737654 65.263579" stroke="gray" fill="white" stroke-width="1px"></path><path d="M 239.737654 65.263579 L 239.737654 67.763579 L 233.737654 67.763579 L 233.737654 65.263579 L 239.737654 65.263579" stroke="gray" fill="white" stroke-width="1px"></path><path d="M 28.000000 65.263579 L 28.000000 67.763579 L 22.000000 67.763579 L 22.000000 65.263579 L 28.000000 65.263579" stroke="gray" fill="white" stroke-width="1px"></path><path d="M 34.000000 65.263579 L 34.000000 67.763579 L 28.000000 67.763579 L 28.000000 65.263579 L 34.000000 65.263579" stroke="gray" fill="white" stroke-width="1px"></path><path d="M 40.000000 65.263579 L 40.000000 67.763579 L 34.000000 67.763579 L 34.000000 65.263579 L 40.000000 65.263579" stroke="gray" fill="white" stroke-width="1px"></path><path d="M 46.000000 65.263579 L 46.000000 67.763579 L 40.000000 67.763579 L 40.000000 65.263579 L 46.000000 65.263579" stroke="gray" fill="white" stroke-width="1px"></path><path d="M 52.000000 65.263579 L 52.000000 67.763579 L 46.000000 67.763579 L 46.000000 65.263579 L 52.000000 65.263579" stroke="gray" fill="white" stroke-width="1px"></path><path d="M 58.000000 65.263579 L 58.000000 67.763579 L 52.000000 67.763579 L 52.000000 65.263579 L 58.000000 65.263579" stroke="gray" fill="white" stroke-width="1px"></path><path d="M 22.000000 53.263579 L 22.000000 55.763579 L 16.000000 55.763579 L 16.000000 53.263579 L 22.000000 53.263579" stroke="gray" fill="white" stroke-width="1px"></path><path d="M 28.000000 53.263579 L 28.000000 55.763579 L 22.000000 55.763579 L 22.000000 53.263579 L 28.000000 53.263579" stroke="gray" fill="white" stroke-width="1px"></path><path d="M 34.000000 53.263579 L 34.000000 55.763579 L 28.000000 55.763579 L 28.000000 53.263579 L 34.000000 53.263579" stroke="gray" fill="white" stroke-width="1px"></path><path d="M 40.000000 53.263579 L 40.000000 55.763579 L 34.000000 55.763579 L 34.000000 53.263579 L 40.000000 53.263579" stroke="gray" fill="white" stroke-width="1px"></path><path d="M 46.000000 53.263579 L 46.000000 55.763579 L 40.000000 55.763579 L 40.000000 53.263579 L 46.000000 53.263579" stroke="gray" fill="white" stroke-width="1px"></path><path d="M 52.000000 53.263579 L 52.000000 55.763579 L 46.000000 55.763579 L 46.000000 53.263579 L 52.000000 53.263579" stroke="gray" fill="white" stroke-width="1px"></path><path d="M 58.000000 53.263579 L 58.000000 55.763579 L 52.000000 55.763579 L 52.000000 53.263579 L 58.000000 53.263579" stroke="gray" fill="white" stroke-width="1px"></path><path d="M 22.000000 41.263579 L 22.000000 43.763579 L 16.000000 43.763579 L 16.000000 41.263579 L 22.000000 41.263579" stroke="gray" fill="white" stroke-width="1px"></path><path d="M 28.000000 41.263579 L 28.000000 43.763579 L 22.000000 43.763579 L 22.000000 41.263579 L 28.000000 41.263579" stroke="gray" fill="white" stroke-width="1px"></path><path d="M 34.000000 41.263579 L 34.000000 43.763579 L 28.000000 43.763579 L 28.000000 41.263579 L 34.000000 41.263579" stroke="gray" fill="white" stroke-width="1px"></path><path d="M 40.000000 41.263579 L 40.000000 43.763579 L 34.000000 43.763579 L 34.000000 41.263579 L 40.000000 41.263579" stroke="gray" fill="white" stroke-width="1px"></path><path d="M 46.000000 41.263579 L 46.000000 43.763579 L 40.000000 43.763579 L 40.000000 41.263579 L 46.000000 41.263579" stroke="gray" fill="white" stroke-width="1px"></path><path d="M 52.000000 41.263579 L 52.000000 43.763579 L 46.000000 43.763579 L 46.000000 41.263579 L 52.000000 41.263579" stroke="gray" fill="white" stroke-width="1px"></path><path d="M 58.000000 41.263579 L 58.000000 43.763579 L 52.000000 43.763579 L 52.000000 41.263579 L 58.000000 41.263579" stroke="gray" fill="white" stroke-width="1px"></path></g><g id="crv-base"><path d="M 221.371570 123.090312 L 221.371570 169.241094 L 120.000633 169.241094 L 120.000633 156.444206 L 126.051258 156.444206 L 126.051258 123.858132 L 91.315945 123.858125 L 91.315945 134.738750 L 64.258762 134.738750 L 64.258762 123.687497 L 10.000000 123.687497 L 10.000000 226.180625 L 64.258758 226.180625 L 64.258758 192.357500 L 91.315945 192.357500 L 91.315945 220.123437 L 283.459383 220.123437 L 283.459383 123.090312 L 221.371570 123.090312" stroke="black" fill="none" stroke-width="1px"></path><path d="M 221.371570 10.000000 L 221.371570 56.150781 L 120.000633 56.150781 L 120.000633 43.353893 L 126.051258 43.353893 L 126.051258 10.767819 L 91.315945 10.767812 L 91.315945 21.648438 L 64.258762 21.648438 L 64.258762 10.597185 L 10.000000 10.597185 L 10.000000 113.090312 L 64.258758 113.090312 L 64.258758 79.267187 L 91.315945 79.267187 L 91.315945 107.033125 L 283.459383 107.033125 L 283.459383 10.000000 L 221.371570 10.000000" stroke="black" fill="none" stroke-width="1px"></path><path d="M 10.387195 156.559062 L 10.387195 154.590312 L 12.355945 154.590312 L 12.355945 156.559062 L 10.387195 156.559062" stroke="black" fill="white" stroke-width="1px"></path><path d="M 10.387195 43.468750 L 10.387195 41.500000 L 12.355945 41.500000 L 12.355945 43.468750 L 10.387195 43.468750" stroke="black" fill="white" stroke-width="1px"></path><path d="M 10.387195 188.059062 L 10.387195 186.090312 L 12.355945 186.090312 L 12.355945 188.059062 L 10.387195 188.059062" stroke="black" fill="white" stroke-width="1px"></path><path d="M 10.387195 74.968750 L 10.387195 73.000000 L 12.355945 73.000000 L 12.355945 74.968750 L 10.387195 74.968750" stroke="black" fill="white" stroke-width="1px"></path><path d="M 10.387195 219.559062 L 10.387195 217.590312 L 12.355945 217.590312 L 12.355945 219.559062 L 10.387195 219.559062" stroke="black" fill="white" stroke-width="1px"></path><path d="M 10.387195 106.468750 L 10.387195 104.500000 L 12.355945 104.500000 L 12.355945 106.468750 L 10.387195 106.468750" stroke="black" fill="white" stroke-width="1px"></path><path d="M 60.754383 128.340312 L 60.754383 125.387187 L 63.871570 125.387187 L 63.871570 128.340312 L 60.754383 128.340312" stroke="black" fill="white" stroke-width="1px"></path><path d="M 60.754383 15.250000 L 60.754383 12.296875 L 63.871570 12.296875 L 63.871570 15.250000 L 60.754383 15.250000" stroke="black" fill="white" stroke-width="1px"></path><path d="M 280.598133 219.230937 L 280.598133 217.262187 L 282.566883 217.262187 L 282.566883 219.230937 L 280.598133 219.230937" stroke="black" fill="white" stroke-width="1px"></path><path d="M 280.598133 106.140625 L 280.598133 104.171875 L 282.566883 104.171875 L 282.566883 106.140625 L 280.598133 106.140625" stroke="black" fill="white" stroke-width="1px"></path><path d="M 280.598133 188.059062 L 280.598133 186.090312 L 282.566883 186.090312 L 282.566883 188.059062 L 280.598133 188.059062" stroke="black" fill="white" stroke-width="1px"></path><path d="M 280.598133 74.968750 L 280.598133 73.000000 L 282.566883 73.000000 L 282.566883 74.968750 L 280.598133 74.968750" stroke="black" fill="white" stroke-width="1px"></path><path d="M 280.598133 156.559050 L 280.598133 154.590300 L 282.566883 154.590300 L 282.566883 156.559050 L 280.598133 156.559050" stroke="black" fill="white" stroke-width="1px"></path><path d="M 280.598133 43.468737 L 280.598133 41.499987 L 282.566883 41.499987 L 282.566883 43.468737 L 280.598133 43.468737" stroke="black" fill="white" stroke-width="1px"></path><path d="M 248.605945 127.355937 L 248.605945 123.418437 L 251.887195 123.418437 L 251.887195 127.355937 L 248.605945 127.355937" stroke="black" fill="white" stroke-width="1px"></path><path d="M 248.605945 14.265625 L 248.605945 10.328125 L 251.887195 10.328125 L 251.887195 14.265625 L 248.605945 14.265625" stroke="black" fill="white" stroke-width="1px"></path><path d="M 248.605945 157.871562 L 248.605945 153.934062 L 251.887195 153.934062 L 251.887195 157.871562 L 248.605945 157.871562" stroke="black" fill="white" stroke-width="1px"></path><path d="M 248.605945 44.781250 L 248.605945 40.843750 L 251.887195 40.843750 L 251.887195 44.781250 L 248.605945 44.781250" stroke="black" fill="white" stroke-width="1px"></path><path d="M 248.605945 189.043437 L 248.605945 185.105937 L 251.887195 185.105937 L 251.887195 189.043437 L 248.605945 189.043437" stroke="black" fill="white" stroke-width="1px"></path><path d="M 248.605945 75.953125 L 248.605945 72.015625 L 251.887195 72.015625 L 251.887195 75.953125 L 248.605945 75.953125" stroke="black" fill="white" stroke-width="1px"></path><path d="M 248.934070 219.230937 L 248.934070 216.277812 L 251.887195 216.277812 L 251.887195 219.230937 L 248.934070 219.230937" stroke="black" fill="white" stroke-width="1px"></path><path d="M 248.934070 106.140625 L 248.934070 103.187500 L 251.887195 103.187500 L 251.887195 106.140625 L 248.934070 106.140625" stroke="black" fill="white" stroke-width="1px"></path><path d="M 218.090320 189.043437 L 218.090320 185.105937 L 221.371570 185.105937 L 221.371570 189.043437 L 218.090320 189.043437" stroke="black" fill="white" stroke-width="1px"></path><path d="M 218.090320 75.953125 L 218.090320 72.015625 L 221.371570 72.015625 L 221.371570 75.953125 L 218.090320 75.953125" stroke="black" fill="white" stroke-width="1px"></path><path d="M 218.254383 219.230937 L 218.254383 216.277812 L 221.207508 216.277812 L 221.207508 219.230937 L 218.254383 219.230937" stroke="black" fill="white" stroke-width="1px"></path><path d="M 218.254383 106.140625 L 218.254383 103.187500 L 221.207508 103.187500 L 221.207508 106.140625 L 218.254383 106.140625" stroke="black" fill="white" stroke-width="1px"></path><path d="M 186.590320 189.043437 L 186.590320 185.105937 L 189.871570 185.105937 L 189.871570 189.043437 L 186.590320 189.043437" stroke="black" fill="white" stroke-width="1px"></path><path d="M 186.590320 75.953125 L 186.590320 72.015625 L 189.871570 72.015625 L 189.871570 75.953125 L 186.590320 75.953125" stroke="black" fill="white" stroke-width="1px"></path><path d="M 186.754383 219.230937 L 186.754383 216.277812 L 189.707508 216.277812 L 189.707508 219.230937 L 186.754383 219.230937" stroke="black" fill="white" stroke-width="1px"></path><path d="M 186.754383 106.140625 L 186.754383 103.187500 L 189.707508 103.187500 L 189.707508 106.140625 L 186.754383 106.140625" stroke="black" fill="white" stroke-width="1px"></path><path d="M 155.090320 189.043437 L 155.090320 185.105937 L 158.371570 185.105937 L 158.371570 189.043437 L 155.090320 189.043437" stroke="black" fill="white" stroke-width="1px"></path><path d="M 155.090320 75.953125 L 155.090320 72.015625 L 158.371570 72.015625 L 158.371570 75.953125 L 155.090320 75.953125" stroke="black" fill="white" stroke-width="1px"></path><path d="M 155.254383 219.230937 L 155.254383 216.277812 L 158.207508 216.277812 L 158.207508 219.230937 L 155.254383 219.230937" stroke="black" fill="white" stroke-width="1px"></path><path d="M 155.254383 106.140625 L 155.254383 103.187500 L 158.207508 103.187500 L 158.207508 106.140625 L 155.254383 106.140625" stroke="black" fill="white" stroke-width="1px"></path><path d="M 123.590320 189.043437 L 123.590320 185.105937 L 126.871570 185.105937 L 126.871570 189.043437 L 123.590320 189.043437" stroke="black" fill="white" stroke-width="1px"></path><path d="M 123.590320 75.953125 L 123.590320 72.015625 L 126.871570 72.015625 L 126.871570 75.953125 L 123.590320 75.953125" stroke="black" fill="white" stroke-width="1px"></path><path d="M 123.754383 219.230937 L 123.754383 216.277812 L 126.707508 216.277812 L 126.707508 219.230937 L 123.754383 219.230937" stroke="black" fill="white" stroke-width="1px"></path><path d="M 123.754383 106.140625 L 123.754383 103.187500 L 126.707508 103.187500 L 126.707508 106.140625 L 123.754383 106.140625" stroke="black" fill="white" stroke-width="1px"></path><path d="M 92.090320 157.543437 L 92.090320 153.605937 L 95.371570 153.605937 L 95.371570 157.543437 L 92.090320 157.543437" stroke="black" fill="white" stroke-width="1px"></path><path d="M 92.090320 44.453125 L 92.090320 40.515625 L 95.371570 40.515625 L 95.371570 44.453125 L 92.090320 44.453125" stroke="black" fill="white" stroke-width="1px"></path><path d="M 92.090320 189.043437 L 92.090320 185.105937 L 95.371570 185.105937 L 95.371570 189.043437 L 92.090320 189.043437" stroke="black" fill="white" stroke-width="1px"></path><path d="M 92.090320 75.953125 L 92.090320 72.015625 L 95.371570 72.015625 L 95.371570 75.953125 L 92.090320 75.953125" stroke="black" fill="white" stroke-width="1px"></path><path d="M 92.090320 128.504375 L 92.090320 125.551250 L 95.207508 125.551250 L 95.207508 128.504375 L 92.090320 128.504375" stroke="black" fill="white" stroke-width="1px"></path><path d="M 92.090320 15.414062 L 92.090320 12.460937 L 95.207508 12.460937 L 95.207508 15.414062 L 92.090320 15.414062" stroke="black" fill="white" stroke-width="1px"></path><path d="M 60.590320 157.215312 L 60.590320 153.934062 L 63.871570 153.934062 L 63.871570 157.215312 L 60.590320 157.215312" stroke="black" fill="white" stroke-width="1px"></path><path d="M 60.590320 44.125000 L 60.590320 40.843750 L 63.871570 40.843750 L 63.871570 44.125000 L 60.590320 44.125000" stroke="black" fill="white" stroke-width="1px"></path><path d="M 60.754383 219.230937 L 60.754383 216.277812 L 63.871570 216.277812 L 63.871570 219.230937 L 60.754383 219.230937" stroke="black" fill="white" stroke-width="1px"></path><path d="M 60.754383 106.140625 L 60.754383 103.187500 L 63.871570 103.187500 L 63.871570 106.140625 L 60.754383 106.140625" stroke="black" fill="white" stroke-width="1px"></path><path d="M 30.074695 128.504375 L 30.074695 125.223125 L 33.027820 125.223125 L 33.027820 128.504375 L 30.074695 128.504375" stroke="black" fill="white" stroke-width="1px"></path><path d="M 30.074695 15.414062 L 30.074695 12.132812 L 33.027820 12.132812 L 33.027820 15.414062 L 30.074695 15.414062" stroke="black" fill="white" stroke-width="1px"></path><path d="M 30.074695 157.215312 L 30.074695 153.934062 L 33.355945 153.934062 L 33.355945 157.215312 L 30.074695 157.215312" stroke="black" fill="white" stroke-width="1px"></path><path d="M 30.074695 44.125000 L 30.074695 40.843750 L 33.355945 40.843750 L 33.355945 44.125000 L 30.074695 44.125000" stroke="black" fill="white" stroke-width="1px"></path><path d="M 30.074695 188.715312 L 30.074695 185.434062 L 33.355945 185.434062 L 33.355945 188.715312 L 30.074695 188.715312" stroke="black" fill="white" stroke-width="1px"></path><path d="M 30.074695 75.625000 L 30.074695 72.343750 L 33.355945 72.343750 L 33.355945 75.625000 L 30.074695 75.625000" stroke="black" fill="white" stroke-width="1px"></path><path d="M 30.074695 219.230937 L 30.074695 216.277812 L 33.027820 216.277812 L 33.027820 219.230937 L 30.074695 219.230937" stroke="black" fill="white" stroke-width="1px"></path><path d="M 30.074695 106.140625 L 30.074695 103.187500 L 33.027820 103.187500 L 33.027820 106.140625 L 30.074695 106.140625" stroke="black" fill="white" stroke-width="1px"></path><path d="M 10.387195 127.191875 L 10.387195 125.223125 L 12.355945 125.223125 L 12.355945 127.191875 L 10.387195 127.191875" stroke="black" fill="white" stroke-width="1px"></path><path d="M 10.387195 14.101562 L 10.387195 12.132812 L 12.355945 12.132812 L 12.355945 14.101562 L 10.387195 14.101562" stroke="black" fill="white" stroke-width="1px"></path><path d="M 60.590320 189.863750 L 60.590320 185.434062 L 63.871570 185.434062 L 63.871570 188.715312 L 62.230945 188.715312 L 62.230945 189.863750 L 60.590320 189.863750" stroke="black" fill="white" stroke-width="1px"></path><path d="M 60.590320 76.773437 L 60.590320 72.343750 L 63.871570 72.343750 L 63.871570 75.625000 L 62.230945 75.625000 L 62.230945 76.773437 L 60.590320 76.773437" stroke="black" fill="white" stroke-width="1px"></path><path d="M 123.590320 128.832500 L 123.590320 125.551250 L 126.051258 125.551250 L 126.051258 128.832500 L 123.590320 128.832500" stroke="black" fill="white" stroke-width="1px"></path><path d="M 123.590320 15.742187 L 123.590320 12.460937 L 126.051258 12.460937 L 126.051258 15.742187 L 123.590320 15.742187" stroke="black" fill="white" stroke-width="1px"></path><path d="M 280.598133 126.043425 L 280.598133 124.074675 L 282.566883 124.074675 L 282.566883 126.043425 L 280.598133 126.043425" stroke="black" fill="white" stroke-width="1px"></path><path d="M 280.598133 12.953112 L 280.598133 10.984362 L 282.566883 10.984362 L 282.566883 12.953112 L 280.598133 12.953112" stroke="black" fill="white" stroke-width="1px"></path></g></svg>