<svg width="293.459383" height="236.180625" xmlns="http://www.w3.org/2000/svg" xmlns:xlink="http://www.w3.org/1999/xlink" version="1.1"><g id="crv-background"><path d="M 221.371570 123.090312 L 221.371570 169.241094 L 120.000633 169.241094 L 120.000633 156.444206 L 126.051258 156.444206 L 126.051258 123.858132 L 91.315945 123.858125 L 91.315945 134.738750 L 64.258762 134.738750 L 64.258762 123.687497 L 10.000000 123.687497 L 10.000000 226.180625 L 64.258758 226.180625 L 64.258758 192.357500 L 91.315945 192.357500 L 91.315945 220.123437 L 283.459383 220.123437 L 283.459383 123.090312 L 221.371570 123.090312" stroke="none" fill="white" stroke-width="1px"></path><path d="M 221.371570 10.000000 L 221.371570 56.150781 L 120.000633 56.150781 L 120.000633 43.353893 L 126.051258 43.353893 L 126.051258 10.767819 L 91.315945 10.767812 L 91.315945 21.648438 L 64.258762 21.648438 L 64.258762 10.597185 L 10.000000 10.597185 L 10.000000 113.090312 L 64.258758 113.090312 L 64.258758 79.267187 L 91.315945 79.267187 L 91.315945 107.033125 L 283.459383 107.033125 L 283.459383 10.000000 L 221.371570 10.000000" stroke="none" fill="white" stroke-width="1px"></path></g><g id="crv-nbhd"><path d="M 221.737654 10.000004 L 221.737654 28.756470 L 221.737654 47.512937 L 232.979232 53.400383 L 244.220810 59.287829 L 263.840096 46.293840 L 283.459383 33.299850 L 283.459383 21.649928 L 283.459382 10.000000 L 252.598525 10.000002 L 221.737654 10.000004" stroke="#DD2222" fill="none" stroke-width="1px"></path><path d="M 283.459383 107.033125 L 283.459383 70.166487 L 283.459383 33.299850 L 263.840096 46.293840 L 244.220810 59.287829 L 241.356126 83.160477 L 238.491441 107.033125 L 260.975412 107.033125 L 283.459383 107.033125" stroke="#DD2222" fill="none" stroke-width="1px"></path><path d="M 221.737654 47.512937 L 221.737654 79.151330 L 189.425165 79.151330 L 214.760527 107.033125 L 238.491441 107.033125 L 244.220810 59.287829 L 221.737654 47.512937" stroke="#DD2222" fill="none" stroke-width="1px"></path><path d="M 189.425165 79.151330 L 189.057458 79.151330 L 188.689751 79.151330 L 176.975971 93.092227 L 165.262191 107.033125 L 190.011359 107.033125 L 214.760527 107.033125 L 202.092849 93.092231 L 189.425165 79.151330" stroke="#DD2222" fill="none" stroke-width="1px"></path><path d="M 188.689751 79.151330 L 151.336316 79.151329 L 152.037552 107.033125 L 165.262191 107.033125 L 188.689751 79.151330" stroke="#DD2222" fill="none" stroke-width="1px"></path><path d="M 151.336316 79.151329 L 121.326130 79.151328 L 91.315945 79.151327 L 91.315945 93.092226 L 91.315945 107.033125 L 121.676749 107.033125 L 152.037552 107.033125 L 151.686934 93.092227 L 151.336316 79.151329" stroke="#DD2222" fill="none" stroke-width="1px"></path><path d="M 64.258758 113.090312 L 64.258758 97.695664 L 64.258758 82.301016 L 37.129379 74.125434 L 10.000000 65.949852 L 10.000000 89.520082 L 10.000000 113.090312 L 37.129379 113.090312 L 64.258758 113.090312" stroke="#DD2222" fill="none" stroke-width="1px"></path><path d="M 64.258758 56.150781 L 64.258758 33.373983 L 64.258758 10.597185 L 37.129372 10.597185 L 10.000000 10.597184 L 10.000000 38.273518 L 10.000000 65.949852 L 37.129379 74.125434 L 64.258758 82.301016 L 64.258758 69.225899 L 64.258758 56.150781" stroke="#DD2222" fill="none" stroke-width="1px"></path><path d="M 10.000000 123.687497 L 10.000000 161.605188 L 10.000000 199.522879 L 37.129379 189.660167 L 64.258758 179.797455 L 64.258758 174.519274 L 64.258758 169.241094 L 64.258758 146.464296 L 64.258758 123.687497 L 37.129379 123.687497 L 10.000000 123.687497" stroke="#DD2222" fill="none" stroke-width="1px"></path><path d="M 10.000000 226.180625 L 37.129379 226.180625 L 64.258759 226.180625 L 64.258759 202.989040 L 64.258758 179.797455 L 37.129379 189.660167 L 10.000000 199.522879 L 10.000000 212.851749 L 10.000000 226.180625" stroke="#DD2222" fill="none" stroke-width="1px"></path><path d="M 129.213168 192.043444 L 110.264557 192.043444 L 91.315945 192.043444 L 91.315945 206.083441 L 91.315945 220.123437 L 110.312150 220.123437 L 129.308354 220.123437 L 129.260761 206.083441 L 129.213168 192.043444" stroke="#DD2222" fill="none" stroke-width="1px"></path><path d="M 176.301888 192.043444 L 152.757528 192.043444 L 129.213168 192.043444 L 129.260761 206.083441 L 129.308354 220.123437 L 152.803033 220.123437 L 176.297713 220.123437 L 176.299801 206.083441 L 176.301888 192.043444" stroke="#DD2222" fill="none" stroke-width="1px"></path><path d="M 233.845594 192.043444 L 205.073741 192.043444 L 176.301888 192.043444 L 176.299801 206.083441 L 176.297713 220.123437 L 207.046774 220.123437 L 237.795836 220.123437 L 235.820715 206.083444 L 233.845594 192.043444" stroke="#DD2222" fill="none" stroke-width="1px"></path><path d="M 237.795836 220.123437 L 260.627609 220.123437 L 283.459383 220.123437 L 283.459383 199.672807 L 283.459383 179.222177 L 261.598517 179.103664 L 239.737652 178.985150 L 239.737652 185.514297 L 239.737652 192.043444 L 236.791623 192.043444 L 233.845594 192.043444 L 235.820715 206.083441 L 237.795836 220.123437" stroke="#DD2222" fill="none" stroke-width="1px"></path><path d="M 239.737652 123.090312 L 239.737652 151.037731 L 239.737652 178.985150 L 261.598517 179.103664 L 283.459383 179.222177 L 283.459383 151.156245 L 283.459383 123.090312 L 261.598522 123.090312 L 239.737652 123.090312" stroke="#DD2222" fill="none" stroke-width="1px"></path></g><g id="crv-amen"><path d="M 62.614914 170.015505 L 62.614914 149.425279 L 62.614914 128.835054 L 56.039541 128.835054 L 49.464167 128.835054 L 49.464167 149.425279 L 49.464167 170.015505 L 56.039541 170.015505 L 62.614914 170.015505" stroke="none" fill="#2288CC" stroke-width="1px"></path><path d="M 58.832882 197.511914 L 58.832882 190.515505 L 58.832882 183.519099 L 37.129379 191.409269 L 15.425876 199.299439 L 15.425876 206.295845 L 15.425876 213.292254 L 37.129384 205.402082 L 58.832882 197.511914" stroke="none" fill="#2288CC" stroke-width="1px"></path><path d="M 106.110536 194.851444 L 99.535162 194.851444 L 92.959789 194.851444 L 92.959789 206.083441 L 92.959789 217.315438 L 99.535162 217.315438 L 106.110536 217.315438 L 106.110536 206.083441 L 106.110536 194.851444" stroke="none" fill="#2288CC" stroke-width="1px"></path><path d="M 144.017362 194.851444 L 137.441951 194.851444 L 130.866539 194.851444 L 130.904614 206.083441 L 130.942688 217.315438 L 137.518100 217.315438 L 144.093511 217.315438 L 144.055437 206.083441 L 144.017362 194.851444" stroke="none" fill="#2288CC" stroke-width="1px"></path><path d="M 191.096062 194.851444 L 184.520688 194.851444 L 177.945314 194.851444 L 177.943644 206.083441 L 177.941974 217.315438 L 184.517348 217.315438 L 191.092721 217.315438 L 191.094392 206.083441 L 191.096062 194.851444" stroke="none" fill="#2288CC" stroke-width="1px"></path><path d="M 240.635140 190.862978 L 240.635140 192.683588 L 240.635140 194.504198 L 238.278317 194.504198 L 235.921494 194.504198 L 237.501590 205.736195 L 239.081687 216.968193 L 245.721806 216.968193 L 252.361926 216.968193 L 250.447556 203.360044 L 248.533187 189.751895 L 244.584163 190.307436 L 240.635140 190.862978" stroke="none" fill="#2288CC" stroke-width="1px"></path><path d="M 244.109825 164.214045 L 244.109825 170.789515 L 244.109825 177.364986 L 261.598517 177.459796 L 279.087210 177.554607 L 279.087210 170.979136 L 279.087210 164.403666 L 261.598517 164.308856 L 244.109825 164.214045" stroke="none" fill="#2288CC" stroke-width="1px"></path><path d="M 224.774246 41.502468 L 224.774246 44.347105 L 224.774246 47.191743 L 233.767509 51.901700 L 242.760771 56.611657 L 245.041759 55.100943 L 247.322746 53.590229 L 249.261496 49.888351 L 251.200246 46.186473 L 239.868735 40.251928 L 228.537224 34.317382 L 226.655735 37.909925 L 224.774246 41.502468" stroke="none" fill="#2288CC" stroke-width="1px"></path><path d="M 251.809570 59.409769 L 248.590231 61.541960 L 245.370893 63.674150 L 243.079146 82.772268 L 240.787398 101.870386 L 247.409944 101.870386 L 254.032490 101.870386 L 256.528156 81.072928 L 259.023822 60.275470 L 255.416696 59.842620 L 251.809570 59.409769" stroke="none" fill="#2288CC" stroke-width="1px"></path><path d="M 222.969806 80.654274 L 193.759316 80.654273 L 205.709011 93.805020 L 222.969806 93.805021 L 222.969806 80.654274" stroke="none" fill="#2288CC" stroke-width="1px"></path><path d="M 192.934535 104.777731 L 201.819035 104.777731 L 210.703535 104.777731 L 200.569390 93.625012 L 190.435245 82.472294 L 190.141079 82.472294 L 189.846914 82.472294 L 185.719791 87.384099 L 181.592668 92.295903 L 187.263601 98.536817 L 192.934535 104.777731" stroke="none" fill="#2288CC" stroke-width="1px"></path><path d="M 166.185946 81.905900 L 153.031040 81.905900 L 153.592029 104.211337 L 164.171740 104.211337 L 166.672094 101.235595 L 166.185946 81.905900" stroke="none" fill="#2288CC" stroke-width="1px"></path><path d="M 106.110536 81.939507 L 99.535162 81.939507 L 92.959789 81.939507 L 92.959789 93.092226 L 92.959789 104.244945 L 99.535162 104.244945 L 106.110536 104.244945 L 106.110536 93.092226 L 106.110536 81.939507" stroke="none" fill="#2288CC" stroke-width="1px"></path><path d="M 58.832882 96.117679 L 58.832882 89.250222 L 58.832882 82.382764 L 37.129379 75.842299 L 15.425876 69.301833 L 15.425876 76.169291 L 15.425876 83.036748 L 37.129379 89.577214 L 58.832882 96.117679" stroke="none" fill="#2288CC" stroke-width="1px"></path><path d="M 58.832882 25.391775 L 58.832882 18.816402 L 58.832882 12.241028 L 37.129379 12.241028 L 15.425876 12.241028 L 15.425876 18.816401 L 15.425876 25.391775 L 37.129379 25.391775 L 58.832882 25.391775" stroke="none" fill="#2288CC" stroke-width="1px"></path></g><g id="crv-desk"><path d="M 55.459383 220.180625 L 52.959383 220.180625 L 52.959383 226.180625 L 55.459383 226.180625 L 55.459383 220.180625" stroke="gray" fill="white" stroke-width="1px"></path><path d="M 55.459383 214.180625 L 52.959383 214.180625 L 52.959383 220.180625 L 55.459383 220.180625 L 55.459383 214.180625" stroke="gray" fill="white" stroke-width="1px"></path><path d="M 55.459383 208.180625 L 52.959383 208.180625 L 52.959383 214.180625 L 55.459383 214.180625 L 55.459383 208.180625" stroke="gray" fill="white" stroke-width="1px"></path><path d="M 43.459383 220.180625 L 40.959383 220.180625 L 40.959383 226.180625 L 43.459383 226.180625 L 43.459383 220.180625" stroke="gray" fill="white" stroke-width="1px"></path><path d="M 43.459383 214.180625 L 40.959383 214.180625 L 40.959383 220.180625 L 43.459383 220.180625 L 43.459383 214.180625" stroke="gray" fill="white" stroke-width="1px"></path><path d="M 31.459383 220.180625 L 28.959383 220.180625 L 28.959383 226.180625 L 31.459383 226.180625 L 31.459383 220.180625" stroke="gray" fill="white" stroke-width="1px"></path><path d="M 31.459383 214.180625 L 28.959383 214.180625 L 28.959383 220.180625 L 31.459383 220.180625 L 31.459383 214.180625" stroke="gray" fill="white" stroke-width="1px"></path><path d="M 19.459383 220.180625 L 16.959383 220.180625 L 16.959383 226.180625 L 19.459383 226.180625 L 19.459383 220.180625" stroke="gray" fill="white" stroke-width="1px"></path><path d="M 115.459383 214.123437 L 112.959383 214.123437 L 112.959383 220.123437 L 115.459383 220.123437 L 115.459383 214.123437" stroke="gray" fill="white" stroke-width="1px"></path><path d="M 115.459383 208.123437 L 112.959383 208.123437 L 112.959383 214.123437 L 115.459383 214.123437 L 115.459383 208.123437" stroke="gray" fill="white" stroke-width="1px"></path><path d="M 115.459383 202.123437 L 112.959383 202.123437 L 112.959383 208.123437 L 115.459383 208.123437 L 115.459383 202.123437" stroke="gray" fill="white" stroke-width="1px"></path><path d="M 115.459383 196.123437 L 112.959383 196.123437 L 112.959383 202.123437 L 115.459383 202.123437 L 115.459383 196.123437" stroke="gray" fill="white" stroke-width="1px"></path><path d="M 163.459383 214.123437 L 160.959383 214.123437 L 160.959383 220.123437 L 163.459383 220.123437 L 163.459383 214.123437" stroke="gray" fill="white" stroke-width="1px"></path><path d="M 163.459383 208.123437 L 160.959383 208.123437 L 160.959383 214.123437 L 163.459383 214.123437 L 163.459383 208.123437" stroke="gray" fill="white" stroke-width="1px"></path><path d="M 163.459383 202.123437 L 160.959383 202.123437 L 160.959383 208.123437 L 163.459383 208.123437 L 163.459383 202.123437" stroke="gray" fill="white" stroke-width="1px"></path><path d="M 163.459383 196.123437 L 160.959383 196.123437 L 160.959383 202.123437 L 163.459383 202.123437 L 163.459383 196.123437" stroke="gray" fill="white" stroke-width="1px"></path><path d="M 151.459383 214.123437 L 148.959383 214.123437 L 148.959383 220.123437 L 151.459383 220.123437 L 151.459383 214.123437" stroke="gray" fill="white" stroke-width="1px"></path><path d="M 151.459383 208.123437 L 148.959383 208.123437 L 148.959383 214.123437 L 151.459383 214.123437 L 151.459383 208.123437" stroke="gray" fill="white" stroke-width="1px"></path><path d="M 151.459383 202.123437 L 148.959383 202.123437 L 148.959383 208.123437 L 151.459383 208.123437 L 151.459383 202.123437" stroke="gray" fill="white" stroke-width="1px"></path><path d="M 151.459383 196.123437 L 148.959383 196.123437 L 148.959383 202.123437 L 151.459383 202.123437 L 151.459383 196.123437" stroke="gray" fill="white" stroke-width="1px"></path><path d="M 223.459383 214.123437 L 220.959383 214.123437 L 220.959383 220.123437 L 223.459383 220.123437 L 223.459383 214.123437" stroke="gray" fill="white" stroke-width="1px"></path><path d="M 223.459383 208.123437 L 220.959383 208.123437 L 220.959383 214.123437 L 223.459383 214.123437 L 223.459383 208.123437" stroke="gray" fill="white" stroke-width="1px"></path><path d="M 223.459383 202.123437 L 220.959383 202.123437 L 220.959383 208.123437 L 223.459383 208.123437 L 223.459383 202.123437" stroke="gray" fill="white" stroke-width="1px"></path><path d="M 223.459383 196.123437 L 220.959383 196.123437 L 220.959383 202.123437 L 223.459383 202.123437 L 223.459383 196.123437" stroke="gray" fill="white" stroke-width="1px"></path><path d="M 211.459383 214.123437 L 208.959383 214.123437 L 208.959383 220.123437 L 211.459383 220.123437 L 211.459383 214.123437" stroke="gray" fill="white" stroke-width="1px"></path><path d="M 211.459383 208.123437 L 208.959383 208.123437 L 208.959383 214.123437 L 211.459383 214.123437 L 211.459383 208.123437" stroke="gray" fill="white" stroke-width="1px"></path><path d="M 211.459383 202.123437 L 208.959383 202.123437 L 208.959383 208.123437 L 211.459383 208.123437 L 211.459383 202.123437" stroke="gray" fill="white" stroke-width="1px"></path><path d="M 211.459383 196.123437 L 208.959383 196.123437 L 208.959383 202.123437 L 211.459383 202.123437 L 211.459383 196.123437" stroke="gray" fill="white" stroke-width="1px"></path><path d="M 199.459383 214.123437 L 196.959383 214.123437 L 196.959383 220.123437 L 199.459383 220.123437 L 199.459383 214.123437" stroke="gray" fill="white" stroke-width="1px"></path><path d="M 199.459383 208.123437 L 196.959383 208.123437 L 196.959383 214.123437 L 199.459383 214.123437 L 199.459383 208.123437" stroke="gray" fill="white" stroke-width="1px"></path><path d="M 199.459383 202.123437 L 196.959383 202.123437 L 196.959383 208.123437 L 199.459383 208.123437 L 199.459383 202.123437" stroke="gray" fill="white" stroke-width="1px"></path><path d="M 199.459383 196.123437 L 196.959383 196.123437 L 196.959383 202.123437 L 199.459383 202.123437 L 199.459383 196.123437" stroke="gray" fill="white" stroke-width="1px"></path><path d="M 271.459383 214.123437 L 268.959383 214.123437 L 268.959383 220.123437 L 271.459383 220.123437 L 271.459383 214.123437" stroke="gray" fill="white" stroke-width="1px"></path><path d="M 271.459383 208.123437 L 268.959383 208.123437 L 268.959383 214.123437 L 271.459383 214.123437 L 271.459383 208.123437" stroke="gray" fill="white" stroke-width="1px"></path><path d="M 271.459383 202.123437 L 268.959383 202.123437 L 268.959383 208.123437 L 271.459383 208.123437 L 271.459383 202.123437" stroke="gray" fill="white" stroke-width="1px"></path><path d="M 271.459383 196.123437 L 268.959383 196.123437 L 268.959383 202.123437 L 271.459383 202.123437 L 271.459383 196.123437" stroke="gray" fill="white" stroke-width="1px"></path><path d="M 271.459383 190.123437 L 268.959383 190.123437 L 268.959383 196.123437 L 271.459383 196.123437 L 271.459383 190.123437" stroke="gray" fill="white" stroke-width="1px"></path><path d="M 271.459383 184.123437 L 268.959383 184.123437 L 268.959383 190.123437 L 271.459383 190.123437 L 271.459383 184.123437" stroke="gray" fill="white" stroke-width="1px"></path><path d="M 259.459383 214.123437 L 256.959383 214.123437 L 256.959383 220.123437 L 259.459383 220.123437 L 259.459383 214.123437" stroke="gray" fill="white" stroke-width="1px"></path><path d="M 259.459383 208.123437 L 256.959383 208.123437 L 256.959383 214.123437 L 259.459383 214.123437 L 259.459383 208.123437" stroke="gray" fill="white" stroke-width="1px"></path><path d="M 259.459383 202.123437 L 256.959383 202.123437 L 256.959383 208.123437 L 259.459383 208.123437 L 259.459383 202.123437" stroke="gray" fill="white" stroke-width="1px"></path><path d="M 259.459383 196.123437 L 256.959383 196.123437 L 256.959383 202.123437 L 259.459383 202.123437 L 259.459383 196.123437" stroke="gray" fill="white" stroke-width="1px"></path><path d="M 259.459383 190.123437 L 256.959383 190.123437 L 256.959383 196.123437 L 259.459383 196.123437 L 259.459383 190.123437" stroke="gray" fill="white" stroke-width="1px"></path><path d="M 259.459383 184.123437 L 256.959383 184.123437 L 256.959383 190.123437 L 259.459383 190.123437 L 259.459383 184.123437" stroke="gray" fill="white" stroke-width="1px"></path><path d="M 247.459383 183.902956 L 244.959383 183.902956 L 244.959383 189.902956 L 247.459383 189.902956 L 247.459383 183.902956" stroke="gray" fill="white" stroke-width="1px"></path><path d="M 55.459383 220.180625 L 57.959383 220.180625 L 57.959383 226.180625 L 55.459383 226.180625 L 55.459383 220.180625" stroke="gray" fill="white" stroke-width="1px"></path><path d="M 55.459383 214.180625 L 57.959383 214.180625 L 57.959383 220.180625 L 55.459383 220.180625 L 55.459383 214.180625" stroke="gray" fill="white" stroke-width="1px"></path><path d="M 55.459383 208.180625 L 57.959383 208.180625 L 57.959383 214.180625 L 55.459383 214.180625 L 55.459383 208.180625" stroke="gray" fill="white" stroke-width="1px"></path><path d="M 43.459383 220.180625 L 45.959383 220.180625 L 45.959383 226.180625 L 43.459383 226.180625 L 43.459383 220.180625" stroke="gray" fill="white" stroke-width="1px"></path><path d="M 43.459383 214.180625 L 45.959383 214.180625 L 45.959383 220.180625 L 43.459383 220.180625 L 43.459383 214.180625" stroke="gray" fill="white" stroke-width="1px"></path><path d="M 31.459383 220.180625 L 33.959383 220.180625 L 33.959383 226.180625 L 31.459383 226.180625 L 31.459383 220.180625" stroke="gray" fill="white" stroke-width="1px"></path><path d="M 31.459383 214.180625 L 33.959383 214.180625 L 33.959383 220.180625 L 31.459383 220.180625 L 31.459383 214.180625" stroke="gray" fill="white" stroke-width="1px"></path><path d="M 19.459383 220.180625 L 21.959383 220.180625 L 21.959383 226.180625 L 19.459383 226.180625 L 19.459383 220.180625" stroke="gray" fill="white" stroke-width="1px"></path><path d="M 115.459383 214.123437 L 117.959383 214.123437 L 117.959383 220.123437 L 115.459383 220.123437 L 115.459383 214.123437" stroke="gray" fill="white" stroke-width="1px"></path><path d="M 115.459383 208.123437 L 117.959383 208.123437 L 117.959383 214.123437 L 115.459383 214.123437 L 115.459383 208.123437" stroke="gray" fill="white" stroke-width="1px"></path><path d="M 115.459383 202.123437 L 117.959383 202.123437 L 117.959383 208.123437 L 115.459383 208.123437 L 115.459383 202.123437" stroke="gray" fill="white" stroke-width="1px"></path><path d="M 115.459383 196.123437 L 117.959383 196.123437 L 117.959383 202.123437 L 115.459383 202.123437 L 115.459383 196.123437" stroke="gray" fill="white" stroke-width="1px"></path><path d="M 163.459383 214.123437 L 165.959383 214.123437 L 165.959383 220.123437 L 163.459383 220.123437 L 163.459383 214.123437" stroke="gray" fill="white" stroke-width="1px"></path><path d="M 163.459383 208.123437 L 165.959383 208.123437 L 165.959383 214.123437 L 163.459383 214.123437 L 163.459383 208.123437" stroke="gray" fill="white" stroke-width="1px"></path><path d="M 163.459383 202.123437 L 165.959383 202.123437 L 165.959383 208.123437 L 163.459383 208.123437 L 163.459383 202.123437" stroke="gray" fill="white" stroke-width="1px"></path><path d="M 163.459383 196.123437 L 165.959383 196.123437 L 165.959383 202.123437 L 163.459383 202.123437 L 163.459383 196.123437" stroke="gray" fill="white" stroke-width="1px"></path><path d="M 151.459383 214.123437 L 153.959383 214.123437 L 153.959383 220.123437 L 151.459383 220.123437 L 151.459383 214.123437" stroke="gray" fill="white" stroke-width="1px"></path><path d="M 151.459383 208.123437 L 153.959383 208.123437 L 153.959383 214.123437 L 151.459383 214.123437 L 151.459383 208.123437" stroke="gray" fill="white" stroke-width="1px"></path><path d="M 151.459383 202.123437 L 153.959383 202.123437 L 153.959383 208.123437 L 151.459383 208.123437 L 151.459383 202.123437" stroke="gray" fill="white" stroke-width="1px"></path><path d="M 151.459383 196.123437 L 153.959383 196.123437 L 153.959383 202.123437 L 151.459383 202.123437 L 151.459383 196.123437" stroke="gray" fill="white" stroke-width="1px"></path><path d="M 223.459383 214.123437 L 225.959383 214.123437 L 225.959383 220.123437 L 223.459383 220.123437 L 223.459383 214.123437" stroke="gray" fill="white" stroke-width="1px"></path><path d="M 223.459383 208.123437 L 225.959383 208.123437 L 225.959383 214.123437 L 223.459383 214.123437 L 223.459383 208.123437" stroke="gray" fill="white" stroke-width="1px"></path><path d="M 223.459383 202.123437 L 225.959383 202.123437 L 225.959383 208.123437 L 223.459383 208.123437 L 223.459383 202.123437" stroke="gray" fill="white" stroke-width="1px"></path><path d="M 223.459383 196.123437 L 225.959383 196.123437 L 225.959383 202.123437 L 223.459383 202.123437 L 223.459383 196.123437" stroke="gray" fill="white" stroke-width="1px"></path><path d="M 211.459383 214.123437 L 213.959383 214.123437 L 213.959383 220.123437 L 211.459383 220.123437 L 211.459383 214.123437" stroke="gray" fill="white" stroke-width="1px"></path><path d="M 211.459383 208.123437 L 213.959383 208.123437 L 213.959383 214.123437 L 211.459383 214.123437 L 211.459383 208.123437" stroke="gray" fill="white" stroke-width="1px"></path><path d="M 211.459383 202.123437 L 213.959383 202.123437 L 213.959383 208.123437 L 211.459383 208.123437 L 211.459383 202.123437" stroke="gray" fill="white" stroke-width="1px"></path><path d="M 211.459383 196.123437 L 213.959383 196.123437 L 213.959383 202.123437 L 211.459383 202.123437 L 211.459383 196.123437" stroke="gray" fill="white" stroke-width="1px"></path><path d="M 199.459383 214.123437 L 201.959383 214.123437 L 201.959383 220.123437 L 199.459383 220.123437 L 199.459383 214.123437" stroke="gray" fill="white" stroke-width="1px"></path><path d="M 199.459383 208.123437 L 201.959383 208.123437 L 201.959383 214.123437 L 199.459383 214.123437 L 199.459383 208.123437" stroke="gray" fill="white" stroke-width="1px"></path><path d="M 199.459383 202.123437 L 201.959383 202.123437 L 201.959383 208.123437 L 199.459383 208.123437 L 199.459383 202.123437" stroke="gray" fill="white" stroke-width="1px"></path><path d="M 199.459383 196.123437 L 201.959383 196.123437 L 201.959383 202.123437 L 199.459383 202.123437 L 199.459383 196.123437" stroke="gray" fill="white" stroke-width="1px"></path><path d="M 271.459383 214.123437 L 273.959383 214.123437 L 273.959383 220.123437 L 271.459383 220.123437 L 271.459383 214.123437" stroke="gray" fill="white" stroke-width="1px"></path><path d="M 271.459383 208.123437 L 273.959383 208.123437 L 273.959383 214.123437 L 271.459383 214.123437 L 271.459383 208.123437" stroke="gray" fill="white" stroke-width="1px"></path><path d="M 271.459383 202.123437 L 273.959383 202.123437 L 273.959383 208.123437 L 271.459383 208.123437 L 271.459383 202.123437" stroke="gray" fill="white" stroke-width="1px"></path><path d="M 271.459383 196.123437 L 273.959383 196.123437 L 273.959383 202.123437 L 271.459383 202.123437 L 271.459383 196.123437" stroke="gray" fill="white" stroke-width="1px"></path><path d="M 271.459383 190.123437 L 273.959383 190.123437 L 273.959383 196.123437 L 271.459383 196.123437 L 271.459383 190.123437" stroke="gray" fill="white" stroke-width="1px"></path><path d="M 271.459383 184.123437 L 273.959383 184.123437 L 273.959383 190.123437 L 271.459383 190.123437 L 271.459383 184.123437" stroke="gray" fill="white" stroke-width="1px"></path><path d="M 259.459383 214.123437 L 261.959383 214.123437 L 261.959383 220.123437 L 259.459383 220.123437 L 259.459383 214.123437" stroke="gray" fill="white" stroke-width="1px"></path><path d="M 259.459383 208.123437 L 261.959383 208.123437 L 261.959383 214.123437 L 259.459383 214.123437 L 259.459383 208.123437" stroke="gray" fill="white" stroke-width="1px"></path><path d="M 259.459383 202.123437 L 261.959383 202.123437 L 261.959383 208.123437 L 259.459383 208.123437 L 259.459383 202.123437" stroke="gray" fill="white" stroke-width="1px"></path><path d="M 259.459383 196.123437 L 261.959383 196.123437 L 261.959383 202.123437 L 259.459383 202.123437 L 259.459383 196.123437" stroke="gray" fill="white" stroke-width="1px"></path><path d="M 259.459383 190.123437 L 261.959383 190.123437 L 261.959383 196.123437 L 259.459383 196.123437 L 259.459383 190.123437" stroke="gray" fill="white" stroke-width="1px"></path><path d="M 259.459383 184.123437 L 261.959383 184.123437 L 261.959383 190.123437 L 259.459383 190.123437 L 259.459383 184.123437" stroke="gray" fill="white" stroke-width="1px"></path><path d="M 247.459383 183.902956 L 249.959383 183.902956 L 249.959383 189.902956 L 247.459383 189.902956 L 247.459383 183.902956" stroke="gray" fill="white" stroke-width="1px"></path><path d="M 22.000000 184.123437 L 22.000000 181.623437 L 16.000000 181.623437 L 16.000000 184.123437 L 22.000000 184.123437" stroke="gray" fill="white" stroke-width="1px"></path><path d="M 28.000000 184.123437 L 28.000000 181.623437 L 22.000000 181.623437 L 22.000000 184.123437 L 28.000000 184.123437" stroke="gray" fill="white" stroke-width="1px"></path><path d="M 34.000000 184.123437 L 34.000000 181.623437 L 28.000000 181.623437 L 28.000000 184.123437 L 34.000000 184.123437" stroke="gray" fill="white" stroke-width="1px"></path><path d="M 22.000000 172.123437 L 22.000000 169.623437 L 16.000000 169.623437 L 16.000000 172.123437 L 22.000000 172.123437" stroke="gray" fill="white" stroke-width="1px"></path><path d="M 28.000000 172.123437 L 28.000000 169.623437 L 22.000000 169.623437 L 22.000000 172.123437 L 28.000000 172.123437" stroke="gray" fill="white" stroke-width="1px"></path><path d="M 34.000000 172.123437 L 34.000000 169.623437 L 28.000000 169.623437 L 28.000000 172.123437 L 34.000000 172.123437" stroke="gray" fill="white" stroke-width="1px"></path><path d="M 40.000000 172.123437 L 40.000000 169.623437 L 34.000000 169.623437 L 34.000000 172.123437 L 40.000000 172.123437" stroke="gray" fill="white" stroke-width="1px"></path><path d="M 22.000000 160.123437 L 22.000000 157.623437 L 16.000000 157.623437 L 16.000000 160.123437 L 22.000000 160.123437" stroke="gray" fill="white" stroke-width="1px"></path><path d="M 28.000000 160.123437 L 28.000000 157.623437 L 22.000000 157.623437 L 22.000000 160.123437 L 28.000000 160.123437" stroke="gray" fill="white" stroke-width="1px"></path><path d="M 34.000000 160.123437 L 34.000000 157.623437 L 28.000000 157.623437 L 28.000000 160.123437 L 34.000000 160.123437" stroke="gray" fill="white" stroke-width="1px"></path><path d="M 40.000000 160.123437 L 40.000000 157.623437 L 34.000000 157.623437 L 34.000000 160.123437 L 40.000000 160.123437" stroke="gray" fill="white" stroke-width="1px"></path><path d="M 22.000000 148.123437 L 22.000000 145.623437 L 16.000000 145.623437 L 16.000000 148.123437 L 22.000000 148.123437" stroke="gray" fill="white" stroke-width="1px"></path><path d="M 28.000000 148.123437 L 28.000000 145.623437 L 22.000000 145.623437 L 22.000000 148.123437 L 28.000000 148.123437" stroke="gray" fill="white" stroke-width="1px"></path><path d="M 34.000000 148.123437 L 34.000000 145.623437 L 28.000000 145.623437 L 28.000000 148.123437 L 34.000000 148.123437" stroke="gray" fill="white" stroke-width="1px"></path><path d="M 40.000000 148.123437 L 40.000000 145.623437 L 34.000000 145.623437 L 34.000000 148.123437 L 40.000000 148.123437" stroke="gray" fill="white" stroke-width="1px"></path><path d="M 22.000000 136.123437 L 22.000000 133.623437 L 16.000000 133.623437 L 16.000000 136.123437 L 22.000000 136.123437" stroke="gray" fill="white" stroke-width="1px"></path><path d="M 28.000000 136.123437 L 28.000000 133.623437 L 22.000000 133.623437 L 22.000000 136.123437 L 28.000000 136.123437" stroke="gray" fill="white" stroke-width="1px"></path><path d="M 34.000000 136.123437 L 34.000000 133.623437 L 28.000000 133.623437 L 28.000000 136.123437 L 34.000000 136.123437" stroke="gray" fill="white" stroke-width="1px"></path><path d="M 40.000000 136.123437 L 40.000000 133.623437 L 34.000000 133.623437 L 34.000000 136.123437 L 40.000000 136.123437" stroke="gray" fill="white" stroke-width="1px"></path><path d="M 251.737652 148.123437 L 251.737652 145.623437 L 245.737652 145.623437 L 245.737652 148.123437 L 251.737652 148.123437" stroke="gray" fill="white" stroke-width="1px"></path><path d="M 257.737652 148.123437 L 257.737652 145.623437 L 251.737652 145.623437 L 251.737652 148.123437 L 257.737652 148.123437" stroke="gray" fill="white" stroke-width="1px"></path><path d="M 263.737652 148.123437 L 263.737652 145.623437 L 257.737652 145.623437 L 257.737652 148.123437 L 263.737652 148.123437" stroke="gray" fill="white" stroke-width="1px"></path><path d="M 269.737652 148.123437 L 269.737652 145.623437 L 263.737652 145.623437 L 263.737652 148.123437 L 269.737652 148.123437" stroke="gray" fill="white" stroke-width="1px"></path><path d="M 275.737652 148.123437 L 275.737652 145.623437 L 269.737652 145.623437 L 269.737652 148.123437 L 275.737652 148.123437" stroke="gray" fill="white" stroke-width="1px"></path><path d="M 251.737652 136.123437 L 251.737652 133.623437 L 245.737652 133.623437 L 245.737652 136.123437 L 251.737652 136.123437" stroke="gray" fill="white" stroke-width="1px"></path><path d="M 257.737652 136.123437 L 257.737652 133.623437 L 251.737652 133.623437 L 251.737652 136.123437 L 257.737652 136.123437" stroke="gray" fill="white" stroke-width="1px"></path><path d="M 263.737652 136.123437 L 263.737652 133.623437 L 257.737652 133.623437 L 257.737652 136.123437 L 263.737652 136.123437" stroke="gray" fill="white" stroke-width="1px"></path><path d="M 269.737652 136.123437 L 269.737652 133.623437 L 263.737652 133.623437 L 263.737652 136.123437 L 269.737652 136.123437" stroke="gray" fill="white" stroke-width="1px"></path><path d="M 275.737652 136.123437 L 275.737652 133.623437 L 269.737652 133.623437 L 269.737652 136.123437 L 275.737652 136.123437" stroke="gray" fill="white" stroke-width="1px"></path><path d="M 22.000000 184.123437 L 22.000000 186.623437 L 16.000000 186.623437 L 16.000000 184.123437 L 22.000000 184.123437" stroke="gray" fill="white" stroke-width="1px"></path><path d="M 28.000000 184.123437 L 28.000000 186.623437 L 22.000000 186.623437 L 22.000000 184.123437 L 28.000000 184.123437" stroke="gray" fill="white" stroke-width="1px"></path><path d="M 34.000000 184.123437 L 34.000000 186.623437 L 28.000000 186.623437 L 28.000000 184.123437 L 34.000000 184.123437" stroke="gray" fill="white" stroke-width="1px"></path><path d="M 22.000000 172.123437 L 22.000000 174.623437 L 16.000000 174.623437 L 16.000000 172.123437 L 22.000000 172.123437" stroke="gray" fill="white" stroke-width="1px"></path><path d="M 28.000000 172.123437 L 28.000000 174.623437 L 22.000000 174.623437 L 22.000000 172.123437 L 28.000000 172.123437" stroke="gray" fill="white" stroke-width="1px"></path><path d="M 34.000000 172.123437 L 34.000000 174.623437 L 28.000000 174.623437 L 28.000000 172.123437 L 34.000000 172.123437" stroke="gray" fill="white" stroke-width="1px"></path><path d="M 40.000000 172.123437 L 40.000000 174.623437 L 34.000000 174.623437 L 34.000000 172.123437 L 40.000000 172.123437" stroke="gray" fill="white" stroke-width="1px"></path><path d="M 22.000000 160.123437 L 22.000000 162.623437 L 16.000000 162.623437 L 16.000000 160.123437 L 22.000000 160.123437" stroke="gray" fill="white" stroke-width="1px"></path><path d="M 28.000000 160.123437 L 28.000000 162.623437 L 22.000000 162.623437 L 22.000000 160.123437 L 28.000000 160.123437" stroke="gray" fill="white" stroke-width="1px"></path><path d="M 34.000000 160.123437 L 34.000000 162.623437 L 28.000000 162.623437 L 28.000000 160.123437 L 34.000000 160.123437" stroke="gray" fill="white" stroke-width="1px"></path><path d="M 40.000000 160.123437 L 40.000000 162.623437 L 34.000000 162.623437 L 34.000000 160.123437 L 40.000000 160.123437" stroke="gray" fill="white" stroke-width="1px"></path><path d="M 22.000000 148.123437 L 22.000000 150.623437 L 16.000000 150.623437 L 16.000000 148.123437 L 22.000000 148.123437" stroke="gray" fill="white" stroke-width="1px"></path><path d="M 28.000000 148.123437 L 28.000000 150.623437 L 22.000000 150.623437 L 22.000000 148.123437 L 28.000000 148.123437" stroke="gray" fill="white" stroke-width="1px"></path><path d="M 34.000000 148.123437 L 34.000000 150.623437 L 28.000000 150.623437 L 28.000000 148.123437 L 34.000000 148.123437" stroke="gray" fill="white" stroke-width="1px"></path><path d="M 40.000000 148.123437 L 40.000000 150.623437 L 34.000000 150.623437 L 34.000000 148.123437 L 40.000000 148.123437" stroke="gray" fill="white" stroke-width="1px"></path><path d="M 22.000000 136.123437 L 22.000000 138.623437 L 16.000000 138.623437 L 16.000000 136.123437 L 22.000000 136.123437" stroke="gray" fill="white" stroke-width="1px"></path><path d="M 28.000000 136.123437 L 28.000000 138.623437 L 22.000000 138.623437 L 22.000000 136.123437 L 28.000000 136.123437" stroke="gray" fill="white" stroke-width="1px"></path><path d="M 34.000000 136.123437 L 34.000000 138.623437 L 28.000000 138.623437 L 28.000000 136.123437 L 34.000000 136.123437" stroke="gray" fill="white" stroke-width="1px"></path><path d="M 40.000000 136.123437 L 40.000000 138.623437 L 34.000000 138.623437 L 34.000000 136.123437 L 40.000000 136.123437" stroke="gray" fill="white" stroke-width="1px"></path><path d="M 251.737652 148.123437 L 251.737652 150.623437 L 245.737652 150.623437 L 245.737652 148.123437 L 251.737652 148.123437" stroke="gray" fill="white" stroke-width="1px"></path><path d="M 257.737652 148.123437 L 257.737652 150.623437 L 251.737652 150.623437 L 251.737652 148.123437 L 257.737652 148.123437" stroke="gray" fill="white" stroke-width="1px"></path><path d="M 263.737652 148.123437 L 263.737652 150.623437 L 257.737652 150.623437 L 257.737652 148.123437 L 263.737652 148.123437" stroke="gray" fill="white" stroke-width="1px"></path><path d="M 269.737652 148.123437 L 269.737652 150.623437 L 263.737652 150.623437 L 263.737652 148.123437 L 269.737652 148.123437" stroke="gray" fill="white" stroke-width="1px"></path><path d="M 275.737652 148.123437 L 275.737652 150.623437 L 269.737652 150.623437 L 269.737652 148.123437 L 275.737652 148.123437" stroke="gray" fill="white" stroke-width="1px"></path><path d="M 251.737652 136.123437 L 251.737652 138.623437 L 245.737652 138.623437 L 245.737652 136.123437 L 251.737652 136.123437" stroke="gray" fill="white" stroke-width="1px"></path><path d="M 257.737652 136.123437 L 257.737652 138.623437 L 251.737652 138.623437 L 251.737652 136.123437 L 257.737652 136.123437" stroke="gray" fill="white" stroke-width="1px"></path><path d="M 263.737652 136.123437 L 263.737652 138.623437 L 257.737652 138.623437 L 257.737652 136.123437 L 263.737652 136.123437" stroke="gray" fill="white" stroke-width="1px"></path><path d="M 269.737652 136.123437 L 269.737652 138.623437 L 263.737652 138.623437 L 263.737652 136.123437 L 269.737652 136.123437" stroke="gray" fill="white" stroke-width="1px"></path><path d="M 275.737652 136.123437 L 275.737652 138.623437 L 269.737652 138.623437 L 269.737652 136.123437 L 275.737652 136.123437" stroke="gray" fill="white" stroke-width="1px"></path><path d="M 271.459383 35.247533 L 268.959383 35.247533 L 268.959383 41.247533 L 271.459383 41.247533 L 271.459383 35.247533" stroke="gray" fill="white" stroke-width="1px"></path><path d="M 271.459383 29.247533 L 268.959383 29.247533 L 268.959383 35.247533 L 271.459383 35.247533 L 271.459383 29.247533" stroke="gray" fill="white" stroke-width="1px"></path><path d="M 271.459383 23.247533 L 268.959383 23.247533 L 268.959383 29.247533 L 271.459383 29.247533 L 271.459383 23.247533" stroke="gray" fill="white" stroke-width="1px"></path><path d="M 271.459383 17.247533 L 268.959383 17.247533 L 268.959383 23.247533 L 271.459383 23.247533 L 271.459383 17.247533" stroke="gray" fill="white" stroke-width="1px"></path><path d="M 259.459383 43.195217 L 256.959383 43.195217 L 256.959383 49.195217 L 259.459383 49.195217 L 259.459383 43.195217" stroke="gray" fill="white" stroke-width="1px"></path><path d="M 259.459383 37.195217 L 256.959383 37.195217 L 256.959383 43.195217 L 259.459383 43.195217 L 259.459383 37.195217" stroke="gray" fill="white" stroke-width="1px"></path><path d="M 259.459383 31.195217 L 256.959383 31.195217 L 256.959383 37.195217 L 259.459383 37.195217 L 259.459383 31.195217" stroke="gray" fill="white" stroke-width="1px"></path><path d="M 259.459383 25.195217 L 256.959383 25.195217 L 256.959383 31.195217 L 259.459383 31.195217 L 259.459383 25.195217" stroke="gray" fill="white" stroke-width="1px"></path><path d="M 259.459383 19.195217 L 256.959383 19.195217 L 256.959383 25.195217 L 259.459383 25.195217 L 259.459383 19.195217" stroke="gray" fill="white" stroke-width="1px"></path><path d="M 259.459383 13.195217 L 256.959383 13.195217 L 256.959383 19.195217 L 259.459383 19.195217 L 259.459383 13.195217" stroke="gray" fill="white" stroke-width="1px"></path><path d="M 247.459383 32.227307 L 244.959383 32.227307 L 244.959383 38.227307 L 247.459383 38.227307 L 247.459383 32.227307" stroke="gray" fill="white" stroke-width="1px"></path><path d="M 247.459383 26.227307 L 244.959383 26.227307 L 244.959383 32.227307 L 247.459383 32.227307 L 247.459383 26.227307" stroke="gray" fill="white" stroke-width="1px"></path><path d="M 247.459383 20.227307 L 244.959383 20.227307 L 244.959383 26.227307 L 247.459383 26.227307 L 247.459383 20.227307" stroke="gray" fill="white" stroke-width="1px"></path><path d="M 247.459383 14.227307 L 244.959383 14.227307 L 244.959383 20.227307 L 247.459383 20.227307 L 247.459383 14.227307" stroke="gray" fill="white" stroke-width="1px"></path><path d="M 235.459383 25.942659 L 232.959383 25.942659 L 232.959383 31.942659 L 235.459383 31.942659 L 235.459383 25.942659" stroke="gray" fill="white" stroke-width="1px"></path><path d="M 235.459383 19.942659 L 232.959383 19.942659 L 232.959383 25.942659 L 235.459383 25.942659 L 235.459383 19.942659" stroke="gray" fill="white" stroke-width="1px"></path><path d="M 235.459383 13.942659 L 232.959383 13.942659 L 232.959383 19.942659 L 235.459383 19.942659 L 235.459383 13.942659" stroke="gray" fill="white" stroke-width="1px"></path><path d="M 175.459383 101.033125 L 172.959383 101.033125 L 172.959383 107.033125 L 175.459383 107.033125 L 175.459383 101.033125" stroke="gray" fill="white" stroke-width="1px"></path><path d="M 175.459383 88.897161 L 172.959383 88.897161 L 172.959383 94.897161 L 175.459383 94.897161 L 175.459383 88.897161" stroke="gray" fill="white" stroke-width="1px"></path><path d="M 175.459383 82.897161 L 172.959383 82.897161 L 172.959383 88.897161 L 175.459383 88.897161 L 175.459383 82.897161" stroke="gray" fill="white" stroke-width="1px"></path><path d="M 139.459383 101.033125 L 136.959383 101.033125 L 136.959383 107.033125 L 139.459383 107.033125 L 139.459383 101.033125" stroke="gray" fill="white" stroke-width="1px"></path><path d="M 139.459383 95.033125 L 136.959383 95.033125 L 136.959383 101.033125 L 139.459383 101.033125 L 139.459383 95.033125" stroke="gray" fill="white" stroke-width="1px"></path><path d="M 139.459383 89.033125 L 136.959383 89.033125 L 136.959383 95.033125 L 139.459383 95.033125 L 139.459383 89.033125" stroke="gray" fill="white" stroke-width="1px"></path><path d="M 139.459383 83.033125 L 136.959383 83.033125 L 136.959383 89.033125 L 139.459383 89.033125 L 139.459383 83.033125" stroke="gray" fill="white" stroke-width="1px"></path><path d="M 127.459383 101.033125 L 124.959383 101.033125 L 124.959383 107.033125 L 127.459383 107.033125 L 127.459383 101.033125" stroke="gray" fill="white" stroke-width="1px"></path><path d="M 127.459383 95.033125 L 124.959383 95.033125 L 124.959383 101.033125 L 127.459383 101.033125 L 127.459383 95.033125" stroke="gray" fill="white" stroke-width="1px"></path><path d="M 127.459383 89.033125 L 124.959383 89.033125 L 124.959383 95.033125 L 127.459383 95.033125 L 127.459383 89.033125" stroke="gray" fill="white" stroke-width="1px"></path><path d="M 127.459383 83.033125 L 124.959383 83.033125 L 124.959383 89.033125 L 127.459383 89.033125 L 127.459383 83.033125" stroke="gray" fill="white" stroke-width="1px"></path><path d="M 115.459383 101.033125 L 112.959383 101.033125 L 112.959383 107.033125 L 115.459383 107.033125 L 115.459383 101.033125" stroke="gray" fill="white" stroke-width="1px"></path><path d="M 115.459383 95.033125 L 112.959383 95.033125 L 112.959383 101.033125 L 115.459383 101.033125 L 115.459383 95.033125" stroke="gray" fill="white" stroke-width="1px"></path><path d="M 115.459383 89.033125 L 112.959383 89.033125 L 112.959383 95.033125 L 115.459383 95.033125 L 115.459383 89.033125" stroke="gray" fill="white" stroke-width="1px"></path><path d="M 115.459383 83.033125 L 112.959383 83.033125 L 112.959383 89.033125 L 115.459383 89.033125 L 115.459383 83.033125" stroke="gray" fill="white" stroke-width="1px"></path><path d="M 55.459383 107.090312 L 52.959383 107.090312 L 52.959383 113.090312 L 55.459383 113.090312 L 55.459383 107.090312" stroke="gray" fill="white" stroke-width="1px"></path><path d="M 43.459383 107.090312 L 40.959383 107.090312 L 40.959383 113.090312 L 43.459383 113.090312 L 43.459383 107.090312" stroke="gray" fill="white" stroke-width="1px"></path><path d="M 43.459383 101.090312 L 40.959383 101.090312 L 40.959383 107.090312 L 43.459383 107.090312 L 43.459383 101.090312" stroke="gray" fill="white" stroke-width="1px"></path><path d="M 31.459383 107.090312 L 28.959383 107.090312 L 28.959383 113.090312 L 31.459383 113.090312 L 31.459383 107.090312" stroke="gray" fill="white" stroke-width="1px"></path><path d="M 31.459383 101.090312 L 28.959383 101.090312 L 28.959383 107.090312 L 31.459383 107.090312 L 31.459383 101.090312" stroke="gray" fill="white" stroke-width="1px"></path><path d="M 31.459383 95.090312 L 28.959383 95.090312 L 28.959383 101.090312 L 31.459383 101.090312 L 31.459383 95.090312" stroke="gray" fill="white" stroke-width="1px"></path><path d="M 19.459383 107.090312 L 16.959383 107.090312 L 16.959383 113.090312 L 19.459383 113.090312 L 19.459383 107.090312" stroke="gray" fill="white" stroke-width="1px"></path><path d="M 19.459383 101.090312 L 16.959383 101.090312 L 16.959383 107.090312 L 19.459383 107.090312 L 19.459383 101.090312" stroke="gray" fill="white" stroke-width="1px"></path><path d="M 19.459383 95.090312 L 16.959383 95.090312 L 16.959383 101.090312 L 19.459383 101.090312 L 19.459383 95.090312" stroke="gray" fill="white" stroke-width="1px"></path><path d="M 271.459383 29.247533 L 273.959383 29.247533 L 273.959383 35.247533 L 271.459383 35.247533 L 271.459383 29.247533" stroke="gray" fill="white" stroke-width="1px"></path><path d="M 271.459383 23.247533 L 273.959383 23.247533 L 273.959383 29.247533 L 271.459383 29.247533 L 271.459383 23.247533" stroke="gray" fill="white" stroke-width="1px"></path><path d="M 271.459383 17.247533 L 273.959383 17.247533 L 273.959383 23.247533 L 271.459383 23.247533 L 271.459383 17.247533" stroke="gray" fill="white" stroke-width="1px"></path><path d="M 259.459383 37.195217 L 261.959383 37.195217 L 261.959383 43.195217 L 259.459383 43.195217 L 259.459383 37.195217" stroke="gray" fill="white" stroke-width="1px"></path><path d="M 259.459383 31.195217 L 261.959383 31.195217 L 261.959383 37.195217 L 259.459383 37.195217 L 259.459383 31.195217" stroke="gray" fill="white" stroke-width="1px"></path><path d="M 259.459383 25.195217 L 261.959383 25.195217 L 261.959383 31.195217 L 259.459383 31.195217 L 259.459383 25.195217" stroke="gray" fill="white" stroke-width="1px"></path><path d="M 259.459383 19.195217 L 261.959383 19.195217 L 261.959383 25.195217 L 259.459383 25.195217 L 259.459383 19.195217" stroke="gray" fill="white" stroke-width="1px"></path><path d="M 259.459383 13.195217 L 261.959383 13.195217 L 261.959383 19.195217 L 259.459383 19.195217 L 259.459383 13.195217" stroke="gray" fill="white" stroke-width="1px"></path><path d="M 247.459383 32.227307 L 249.959383 32.227307 L 249.959383 38.227307 L 247.459383 38.227307 L 247.459383 32.227307" stroke="gray" fill="white" stroke-width="1px"></path><path d="M 247.459383 26.227307 L 249.959383 26.227307 L 249.959383 32.227307 L 247.459383 32.227307 L 247.459383 26.227307" stroke="gray" fill="white" stroke-width="1px"></path><path d="M 247.459383 20.227307 L 249.959383 20.227307 L 249.959383 26.227307 L 247.459383 26.227307 L 247.459383 20.227307" stroke="gray" fill="white" stroke-width="1px"></path><path d="M 247.459383 14.227307 L 249.959383 14.227307 L 249.959383 20.227307 L 247.459383 20.227307 L 247.459383 14.227307" stroke="gray" fill="white" stroke-width="1px"></path><path d="M 235.459383 25.942659 L 237.959383 25.942659 L 237.959383 31.942659 L 235.459383 31.942659 L 235.459383 25.942659" stroke="gray" fill="white" stroke-width="1px"></path><path d="M 235.459383 19.942659 L 237.959383 19.942659 L 237.959383 25.942659 L 235.459383 25.942659 L 235.459383 19.942659" stroke="gray" fill="white" stroke-width="1px"></path><path d="M 235.459383 13.942659 L 237.959383 13.942659 L 237.959383 19.942659 L 235.459383 19.942659 L 235.459383 13.942659" stroke="gray" fill="white" stroke-width="1px"></path><path d="M 175.459383 101.033125 L 177.959383 101.033125 L 177.959383 107.033125 L 175.459383 107.033125 L 175.459383 101.033125" stroke="gray" fill="white" stroke-width="1px"></path><path d="M 175.459383 82.897161 L 177.959383 82.897161 L 177.959383 88.897161 L 175.459383 88.897161 L 175.459383 82.897161" stroke="gray" fill="white" stroke-width="1px"></path><path d="M 139.459383 101.033125 L 141.959383 101.033125 L 141.959383 107.033125 L 139.459383 107.033125 L 139.459383 101.033125" stroke="gray" fill="white" stroke-width="1px"></path><path d="M 139.459383 95.033125 L 141.959383 95.033125 L 141.959383 101.033125 L 139.459383 101.033125 L 139.459383 95.033125" stroke="gray" fill="white" stroke-width="1px"></path><path d="M 139.459383 89.033125 L 141.959383 89.033125 L 141.959383 95.033125 L 139.459383 95.033125 L 139.459383 89.033125" stroke="gray" fill="white" stroke-width="1px"></path><path d="M 139.459383 83.033125 L 141.959383 83.033125 L 141.959383 89.033125 L 139.459383 89.033125 L 139.459383 83.033125" stroke="gray" fill="white" stroke-width="1px"></path><path d="M 127.459383 101.033125 L 129.959383 101.033125 L 129.959383 107.033125 L 127.459383 107.033125 L 127.459383 101.033125" stroke="gray" fill="white" stroke-width="1px"></path><path d="M 127.459383 95.033125 L 129.959383 95.033125 L 129.959383 101.033125 L 127.459383 101.033125 L 127.459383 95.033125" stroke="gray" fill="white" stroke-width="1px"></path><path d="M 127.459383 89.033125 L 129.959383 89.033125 L 129.959383 95.033125 L 127.459383 95.033125 L 127.459383 89.033125" stroke="gray" fill="white" stroke-width="1px"></path><path d="M 127.459383 83.033125 L 129.959383 83.033125 L 129.959383 89.033125 L 127.459383 89.033125 L 127.459383 83.033125" stroke="gray" fill="white" stroke-width="1px"></path><path d="M 115.459383 101.033125 L 117.959383 101.033125 L 117.959383 107.033125 L 115.459383 107.033125 L 115.459383 101.033125" stroke="gray" fill="white" stroke-width="1px"></path><path d="M 115.459383 95.033125 L 117.959383 95.033125 L 117.959383 101.033125 L 115.459383 101.033125 L 115.459383 95.033125" stroke="gray" fill="white" stroke-width="1px"></path><path d="M 115.459383 89.033125 L 117.959383 89.033125 L 117.959383 95.033125 L 115.459383 95.033125 L 115.459383 89.033125" stroke="gray" fill="white" stroke-width="1px"></path><path d="M 115.459383 83.033125 L 117.959383 83.033125 L 117.959383 89.033125 L 115.459383 89.033125 L 115.459383 83.033125" stroke="gray" fill="white" stroke-width="1px"></path><path d="M 55.459383 107.090312 L 57.959383 107.090312 L 57.959383 113.090312 L 55.459383 113.090312 L 55.459383 107.090312" stroke="gray" fill="white" stroke-width="1px"></path><path d="M 43.459383 107.090312 L 45.959383 107.090312 L 45.959383 113.090312 L 43.459383 113.090312 L 43.459383 107.090312" stroke="gray" fill="white" stroke-width="1px"></path><path d="M 43.459383 101.090312 L 45.959383 101.090312 L 45.959383 107.090312 L 43.459383 107.090312 L 43.459383 101.090312" stroke="gray" fill="white" stroke-width="1px"></path><path d="M 31.459383 107.090312 L 33.959383 107.090312 L 33.959383 113.090312 L 31.459383 113.090312 L 31.459383 107.090312" stroke="gray" fill="white" stroke-width="1px"></path><path d="M 31.459383 101.090312 L 33.959383 101.090312 L 33.959383 107.090312 L 31.459383 107.090312 L 31.459383 101.090312" stroke="gray" fill="white" stroke-width="1px"></path><path d="M 31.459383 95.090312 L 33.959383 95.090312 L 33.959383 101.090312 L 31.459383 101.090312 L 31.459383 95.090312" stroke="gray" fill="white" stroke-width="1px"></path><path d="M 19.459383 107.090312 L 21.959383 107.090312 L 21.959383 113.090312 L 19.459383 113.090312 L 19.459383 107.090312" stroke="gray" fill="white" stroke-width="1px"></path><path d="M 19.459383 101.090312 L 21.959383 101.090312 L 21.959383 107.090312 L 19.459383 107.090312 L 19.459383 101.090312" stroke="gray" fill="white" stroke-width="1px"></path><path d="M 19.459383 95.090312 L 21.959383 95.090312 L 21.959383 101.090312 L 19.459383 101.090312 L 19.459383 95.090312" stroke="gray" fill="white" stroke-width="1px"></path><path d="M 266.105306 101.263579 L 266.105306 98.763579 L 260.105306 98.763579 L 260.105306 101.263579 L 266.105306 101.263579" stroke="gray" fill="white" stroke-width="1px"></path><path d="M 272.105306 101.263579 L 272.105306 98.763579 L 266.105306 98.763579 L 266.105306 101.263579 L 272.105306 101.263579" stroke="gray" fill="white" stroke-width="1px"></path><path d="M 278.105306 101.263579 L 278.105306 98.763579 L 272.105306 98.763579 L 272.105306 101.263579 L 278.105306 101.263579" stroke="gray" fill="white" stroke-width="1px"></path><path d="M 267.545289 89.263579 L 267.545289 86.763579 L 261.545289 86.763579 L 261.545289 89.263579 L 267.545289 89.263579" stroke="gray" fill="white" stroke-width="1px"></path><path d="M 273.545289 89.263579 L 273.545289 86.763579 L 267.545289 86.763579 L 267.545289 89.263579 L 273.545289 89.263579" stroke="gray" fill="white" stroke-width="1px"></path><path d="M 268.985273 77.263579 L 268.985273 74.763579 L 262.985273 74.763579 L 262.985273 77.263579 L 268.985273 77.263579" stroke="gray" fill="white" stroke-width="1px"></path><path d="M 274.985273 77.263579 L 274.985273 74.763579 L 268.985273 74.763579 L 268.985273 77.263579 L 274.985273 77.263579" stroke="gray" fill="white" stroke-width="1px"></path><path d="M 270.425256 65.263579 L 270.425256 62.763579 L 264.425256 62.763579 L 264.425256 65.263579 L 270.425256 65.263579" stroke="gray" fill="white" stroke-width="1px"></path><path d="M 276.425256 65.263579 L 276.425256 62.763579 L 270.425256 62.763579 L 270.425256 65.263579 L 276.425256 65.263579" stroke="gray" fill="white" stroke-width="1px"></path><path d="M 271.316668 53.263579 L 271.316668 50.763579 L 265.316668 50.763579 L 265.316668 53.263579 L 271.316668 53.263579" stroke="gray" fill="white" stroke-width="1px"></path><path d="M 277.316668 53.263579 L 277.316668 50.763579 L 271.316668 50.763579 L 271.316668 53.263579 L 277.316668 53.263579" stroke="gray" fill="white" stroke-width="1px"></path><path d="M 221.517912 101.263579 L 221.517912 98.763579 L 215.517912 98.763579 L 215.517912 101.263579 L 221.517912 101.263579" stroke="gray" fill="white" stroke-width="1px"></path><path d="M 227.517912 101.263579 L 227.517912 98.763579 L 221.517912 98.763579 L 221.517912 101.263579 L 227.517912 101.263579" stroke="gray" fill="white" stroke-width="1px"></path><path d="M 233.517912 101.263579 L 233.517912 98.763579 L 227.517912 98.763579 L 227.517912 101.263579 L 233.517912 101.263579" stroke="gray" fill="white" stroke-width="1px"></path><path d="M 234.969806 89.263579 L 234.969806 86.763579 L 228.969806 86.763579 L 228.969806 89.263579 L 234.969806 89.263579" stroke="gray" fill="white" stroke-width="1px"></path><path d="M 233.737654 77.263579 L 233.737654 74.763579 L 227.737654 74.763579 L 227.737654 77.263579 L 233.737654 77.263579" stroke="gray" fill="white" stroke-width="1px"></path><path d="M 233.737654 65.263579 L 233.737654 62.763579 L 227.737654 62.763579 L 227.737654 65.263579 L 233.737654 65.263579" stroke="gray" fill="white" stroke-width="1px"></path><path d="M 28.000000 65.263579 L 28.000000 62.763579 L 22.000000 62.763579 L 22.000000 65.263579 L 28.000000 65.263579" stroke="gray" fill="white" stroke-width="1px"></path><path d="M 34.000000 65.263579 L 34.000000 62.763579 L 28.000000 62.763579 L 28.000000 65.263579 L 34.000000 65.263579" stroke="gray" fill="white" stroke-width="1px"></path><path d="M 40.000000 65.263579 L 40.000000 62.763579 L 34.000000 62.763579 L 34.000000 65.263579 L 40.000000 65.263579" stroke="gray" fill="white" stroke-width="1px"></path><path d="M 46.000000 65.263579 L 46.000000 62.763579 L 40.000000 62.763579 L 40.000000 65.263579 L 46.000000 65.263579" stroke="gray" fill="white" stroke-width="1px"></path><path d="M 52.000000 65.263579 L 52.000000 62.763579 L 46.000000 62.763579 L 46.000000 65.263579 L 52.000000 65.263579" stroke="gray" fill="white" stroke-width="1px"></path><path d="M 58.000000 65.263579 L 58.000000 62.763579 L 52.000000 62.763579 L 52.000000 65.263579 L 58.000000 65.263579" stroke="gray" fill="white" stroke-width="1px"></path><path d="M 22.000000 53.263579 L 22.000000 50.763579 L 16.000000 50.763579 L 16.000000 53.263579 L 22.000000 53.263579" stroke="gray" fill="white" stroke-width="1px"></path><path d="M 28.000000 53.263579 L 28.000000 50.763579 L 22.000000 50.763579 L 22.000000 53.263579 L 28.000000 53.263579" stroke="gray" fill="white" stroke-width="1px"></path><path d="M 34.000000 53.263579 L 34.000000 50.763579 L 28.000000 50.763579 L 28.000000 53.263579 L 34.000000 53.263579" stroke="gray" fill="white" stroke-width="1px"></path><path d="M 40.000000 53.263579 L 40.000000 50.763579 L 34.000000 50.763579 L 34.000000 53.263579 L 40.000000 53.263579" stroke="gray" fill="white" stroke-width="1px"></path><path d="M 46.000000 53.263579 L 46.000000 50.763579 L 40.000000 50.763579 L 40.000000 53.263579 L 46.000000 53.263579" stroke="gray" fill="white" stroke-width="1px"></path><path d="M 52.000000 53.263579 L 52.000000 50.763579 L 46.000000 50.763579 L 46.000000 53.263579 L 52.000000 53.263579" stroke="gray" fill="white" stroke-width="1px"></path><path d="M 58.000000 53.263579 L 58.000000 50.763579 L 52.000000 50.763579 L 52.000000 53.263579 L 58.000000 53.263579" stroke="gray" fill="white" stroke-width="1px"></path><path d="M 22.000000 41.263579 L 22.000000 38.763579 L 16.000000 38.763579 L 16.000000 41.263579 L 22.000000 41.263579" stroke="gray" fill="white" stroke-width="1px"></path><path d="M 28.000000 41.263579 L 28.000000 38.763579 L 22.000000 38.763579 L 22.000000 41.263579 L 28.000000 41.263579" stroke="gray" fill="white" stroke-width="1px"></path><path d="M 34.000000 41.263579 L 34.000000 38.763579 L 28.000000 38.763579 L 28.000000 41.263579 L 34.000000 41.263579" stroke="gray" fill="white" stroke-width="1px"></path><path d="M 40.000000 41.263579 L 40.000000 38.763579 L 34.000000 38.763579 L 34.000000 41.263579 L 40.000000 41.263579" stroke="gray" fill="white" stroke-width="1px"></path><path d="M 46.000000 41.263579 L 46.000000 38.763579 L 40.000000 38.763579 L 40.000000 41.263579 L 46.000000 41.263579" stroke="gray" fill="white" stroke-width="1px"></path><path d="M 52.000000 41.263579 L 52.000000 38.763579 L 46.000000 38.763579 L 46.000000 41.263579 L 52.000000 41.263579" stroke="gray" fill="white" stroke-width="1px"></path><path d="M 58.000000 41.263579 L 58.000000 38.763579 L 52.000000 38.763579 L 52.000000 41.263579 L 58.000000 41.263579" stroke="gray" fill="white" stroke-width="1px"></path><path d="M 266.105306 101.263579 L 266.105306 103.763579 L 260.105306 103.763579 L 260.105306 101.263579 L 266.105306 101.263579" stroke="gray" fill="white" stroke-width="1px"></path><path d="M 272.105306 101.263579 L 272.105306 103.763579 L 266.105306 103.763579 L 266.105306 101.263579 L 272.105306 101.263579" stroke="gray" fill="white" stroke-width="1px"></path><path d="M 278.105306 101.263579 L 278.105306 103.763579 L 272.105306 103.763579 L 272.105306 101.263579 L 278.105306 101.263579" stroke="gray" fill="white" stroke-width="1px"></path><path d="M 267.545289 89.263579 L 267.545289 91.763579 L 261.545289 91.763579 L 261.545289 89.263579 L 267.545289 89.263579" stroke="gray" fill="white" stroke-width="1px"></path><path d="M 273.545289 89.263579 L 273.545289 91.763579 L 267.545289 91.763579 L 267.545289 89.263579 L 273.545289 89.263579" stroke="gray" fill="white" stroke-width="1px"></path><path d="M 268.985273 77.263579 L 268.985273 79.763579 L 262.985273 79.763579 L 262.985273 77.263579 L 268.985273 77.263579" stroke="gray" fill="white" stroke-width="1px"></path><path d="M 274.985273 77.263579 L 274.985273 79.763579 L 268.985273 79.763579 L 268.985273 77.263579 L 274.985273 77.263579" stroke="gray" fill="white" stroke-width="1px"></path><path d="M 270.425256 65.263579 L 270.425256 67.763579 L 264.425256 67.763579 L 264.425256 65.263579 L 270.425256 65.263579" stroke="gray" fill="white" stroke-width="1px"></path><path d="M 276.425256 65.263579 L 276.425256 67.763579 L 270.425256 67.763579 L 270.425256 65.263579 L 276.425256 65.263579" stroke="gray" fill="white" stroke-width="1px"></path><path d="M 265.316668 53.263579 L 265.316668 55.763579 L 259.316668 55.763579 L 259.316668 53.263579 L 265.316668 53.263579" stroke="gray" fill="white" stroke-width="1px"></path><path d="M 271.316668 53.263579 L 271.316668 55.763579 L 265.316668 55.763579 L 265.316668 53.263579 L 271.316668 53.263579" stroke="gray" fill="white" stroke-width="1px"></path><path d="M 277.316668 53.263579 L 277.316668 55.763579 L 271.316668 55.763579 L 271.316668 53.263579 L 277.316668 53.263579" stroke="gray" fill="white" stroke-width="1px"></path><path d="M 221.517912 101.263579 L 221.517912 103.763579 L 215.517912 103.763579 L 215.517912 101.263579 L 221.517912 101.263579" stroke="gray" fill="white" stroke-width="1px"></path><path d="M 227.517912 101.263579 L 227.517912 103.763579 L 221.517912 103.763579 L 221.517912 101.263579 L 227.517912 101.263579" stroke="gray" fill="white" stroke-width="1px"></path><path d="M 233.517912 101.263579 L 233.517912 103.763579 L 227.517912 103.763579 L 227.517912 101.263579 L 233.517912 101.263579" stroke="gray" fill="white" stroke-width="1px"></path><path d="M 234.969806 89.263579 L 234.969806 91.763579 L 228.969806 91.763579 L 228.969806 89.263579 L 234.969806 89.263579" stroke="gray" fill="white" stroke-width="1px"></path><path d="M 233.737654 77.263579 L 233.737654 79.763579 L 227.737654 79.763579 L 227.737654 77.263579 L 233.737654 77.263579" stroke="gray" fill="white" stroke-width="1px"></path><path d="M 233.737654 65.263579 L 233.737654 67.763579 L 227.737654 67.763579 L 227.737654 65.263579 L 233.737654 65.263579" stroke="gray" fill="white" stroke-width="1px"></path><path d="M 34.000000 65.263579 L 34.000000 67.763579 L 28.000000 67.763579 L 28.000000 65.263579 L 34.000000 65.263579" stroke="gray" fill="white" stroke-width="1px"></path><path d="M 40.000000 65.263579 L 40.000000 67.763579 L 34.000000 67.763579 L 34.000000 65.263579 L 40.000000 65.263579" stroke="gray" fill="white" stroke-width="1px"></path><path d="M 46.000000 65.263579 L 46.000000 67.763579 L 40.000000 67.763579 L 40.000000 65.263579 L 46.000000 65.263579" stroke="gray" fill="white" stroke-width="1px"></path><path d="M 52.000000 65.263579 L 52.000000 67.763579 L 46.000000 67.763579 L 46.000000 65.263579 L 52.000000 65.263579" stroke="gray" fill="white" stroke-width="1px"></path><path d="M 58.000000 65.263579 L 58.000000 67.763579 L 52.000000 67.763579 L 52.000000 65.263579 L 58.000000 65.263579" stroke="gray" fill="white" stroke-width="1px"></path><path d="M 22.000000 53.263579 L 22.000000 55.763579 L 16.000000 55.763579 L 16.000000 53.263579 L 22.000000 53.263579" stroke="gray" fill="white" stroke-width="1px"></path><path d="M 28.000000 53.263579 L 28.000000 55.763579 L 22.000000 55.763579 L 22.000000 53.263579 L 28.000000 53.263579" stroke="gray" fill="white" stroke-width="1px"></path><path d="M 34.000000 53.263579 L 34.000000 55.763579 L 28.000000 55.763579 L 28.000000 53.263579 L 34.000000 53.263579" stroke="gray" fill="white" stroke-width="1px"></path><path d="M 40.000000 53.263579 L 40.000000 55.763579 L 34.000000 55.763579 L 34.000000 53.263579 L 40.000000 53.263579" stroke="gray" fill="white" stroke-width="1px"></path><path d="M 46.000000 53.263579 L 46.000000 55.763579 L 40.000000 55.763579 L 40.000000 53.263579 L 46.000000 53.263579" stroke="gray" fill="white" stroke-width="1px"></path><path d="M 52.000000 53.263579 L 52.000000 55.763579 L 46.000000 55.763579 L 46.000000 53.263579 L 52.000000 53.263579" stroke="gray" fill="white" stroke-width="1px"></path><path d="M 58.000000 53.263579 L 58.000000 55.763579 L 52.000000 55.763579 L 52.000000 53.263579 L 58.000000 53.263579" stroke="gray" fill="white" stroke-width="1px"></path><path d="M 22.000000 41.263579 L 22.000000 43.763579 L 16.000000 43.763579 L 16.000000 41.263579 L 22.000000 41.263579" stroke="gray" fill="white" stroke-width="1px"></path><path d="M 28.000000 41.263579 L 28.000000 43.763579 L 22.000000 43.763579 L 22.000000 41.263579 L 28.000000 41.263579" stroke="gray" fill="white" stroke-width="1px"></path><path d="M 34.000000 41.263579 L 34.000000 43.763579 L 28.000000 43.763579 L 28.000000 41.263579 L 34.000000 41.263579" stroke="gray" fill="white" stroke-width="1px"></path><path d="M 40.000000 41.263579 L 40.000000 43.763579 L 34.000000 43.763579 L 34.000000 41.263579 L 40.000000 41.263579" stroke="gray" fill="white" stroke-width="1px"></path><path d="M 46.000000 41.263579 L 46.000000 43.763579 L 40.000000 43.763579 L 40.000000 41.263579 L 46.000000 41.263579" stroke="gray" fill="white" stroke-width="1px"></path><path d="M 52.000000 41.263579 L 52.000000 43.763579 L 46.000000 43.763579 L 46.000000 41.263579 L 52.000000 41.263579" stroke="gray" fill="white" stroke-width="1px"></path><path d="M 58.000000 41.263579 L 58.000000 43.763579 L 52.000000 43.763579 L 52.000000 41.263579 L 58.000000 41.263579" stroke="gray" fill="white" stroke-width="1px"></path></g><g id="crv-base"><path d="M 221.371570 123.090312 L 221.371570 169.241094 L 120.000633 169.241094 L 120.000633 156.444206 L 126.051258 156.444206 L 126.051258 123.858132 L 91.315945 123.858125 L 91.315945 134.738750 L 64.258762 134.738750 L 64.258762 123.687497 L 10.000000 123.687497 L 10.000000 226.180625 L 64.258758 226.180625 L 64.258758 192.357500 L 91.315945 192.357500 L 91.315945 220.123437 L 283.459383 220.123437 L 283.459383 123.090312 L 221.371570 123.090312" stroke="black" fill="none" stroke-width="1px"></path><path d="M 221.371570 10.000000 L 221.371570 56.150781 L 120.000633 56.150781 L 120.000633 43.353893 L 126.051258 43.353893 L 126.051258 10.767819 L 91.315945 10.767812 L 91.315945 21.648438 L 64.258762 21.648438 L 64.258762 10.597185 L 10.000000 10.597185 L 10.000000 113.090312 L 64.258758 113.090312 L 64.258758 79.267187 L 91.315945 79.267187 L 91.315945 107.033125 L 283.459383 107.033125 L 283.459383 10.000000 L 221.371570 10.000000" stroke="black" fill="none" stroke-width="1px"></path><path d="M 10.387195 156.559062 L 10.387195 154.590312 L 12.355945 154.590312 L 12.355945 156.559062 L 10.387195 156.559062" stroke="black" fill="white" stroke-width="1px"></path><path d="M 10.387195 43.468750 L 10.387195 41.500000 L 12.355945 41.500000 L 12.355945 43.468750 L 10.387195 43.468750" stroke="black" fill="white" stroke-width="1px"></path><path d="M 10.387195 188.059062 L 10.387195 186.090312 L 12.355945 186.090312 L 12.355945 188.059062 L 10.387195 188.059062" stroke="black" fill="white" stroke-width="1px"></path><path d="M 10.387195 74.968750 L 10.387195 73.000000 L 12.355945 73.000000 L 12.355945 74.968750 L 10.387195 74.968750" stroke="black" fill="white" stroke-width="1px"></path><path d="M 10.387195 219.559062 L 10.387195 217.590312 L 12.355945 217.590312 L 12.355945 219.559062 L 10.387195 219.559062" stroke="black" fill="white" stroke-width="1px"></path><path d="M 10.387195 106.468750 L 10.387195 104.500000 L 12.355945 104.500000 L 12.355945 106.468750 L 10.387195 106.468750" stroke="black" fill="white" stroke-width="1px"></path><path d="M 60.754383 128.340312 L 60.754383 125.387187 L 63.871570 125.387187 L 63.871570 128.340312 L 60.754383 128.340312" stroke="black" fill="white" stroke-width="1px"></path><path d="M 60.754383 15.250000 L 60.754383 12.296875 L 63.871570 12.296875 L 63.871570 15.250000 L 60.754383 15.250000" stroke="black" fill="white" stroke-width="1px"></path><path d="M 280.598133 219.230937 L 280.598133 217.262187 L 282.566883 217.262187 L 282.566883 219.230937 L 280.598133 219.230937" stroke="black" fill="white" stroke-width="1px"></path><path d="M 280.598133 106.140625 L 280.598133 104.171875 L 282.566883 104.171875 L 282.566883 106.140625 L 280.598133 106.140625" stroke="black" fill="white" stroke-width="1px"></path><path d="M 280.598133 188.059062 L 280.598133 186.090312 L 282.566883 186.090312 L 282.566883 188.059062 L 280.598133 188.059062" stroke="black" fill="white" stroke-width="1px"></path><path d="M 280.598133 74.968750 L 280.598133 73.000000 L 282.566883 73.000000 L 282.566883 74.968750 L 280.598133 74.968750" stroke="black" fill="white" stroke-width="1px"></path><path d="M 280.598133 156.559050 L 280.598133 154.590300 L 282.566883 154.590300 L 282.566883 156.559050 L 280.598133 156.559050" stroke="black" fill="white" stroke-width="1px"></path><path d="M 280.598133 43.468737 L 280.598133 41.499987 L 282.566883 41.499987 L 282.566883 43.468737 L 280.598133 43.468737" stroke="black" fill="white" stroke-width="1px"></path><path d="M 248.605945 127.355937 L 248.605945 123.418437 L 251.887195 123.418437 L 251.887195 127.355937 L 248.605945 127.355937" stroke="black" fill="white" stroke-width="1px"></path><path d="M 248.605945 14.265625 L 248.605945 10.328125 L 251.887195 10.328125 L 251.887195 14.265625 L 248.605945 14.265625" stroke="black" fill="white" stroke-width="1px"></path><path d="M 248.605945 157.871562 L 248.605945 153.934062 L 251.887195 153.934062 L 251.887195 157.871562 L 248.605945 157.871562" stroke="black" fill="white" stroke-width="1px"></path><path d="M 248.605945 44.781250 L 248.605945 40.843750 L 251.887195 40.843750 L 251.887195 44.781250 L 248.605945 44.781250" stroke="black" fill="white" stroke-width="1px"></path><path d="M 248.605945 189.043437 L 248.605945 185.105937 L 251.887195 185.105937 L 251.887195 189.043437 L 248.605945 189.043437" stroke="black" fill="white" stroke-width="1px"></path><path d="M 248.605945 75.953125 L 248.605945 72.015625 L 251.887195 72.015625 L 251.887195 75.953125 L 248.605945 75.953125" stroke="black" fill="white" stroke-width="1px"></path><path d="M 248.934070 219.230937 L 248.934070 216.277812 L 251.887195 216.277812 L 251.887195 219.230937 L 248.934070 219.230937" stroke="black" fill="white" stroke-width="1px"></path><path d="M 248.934070 106.140625 L 248.934070 103.187500 L 251.887195 103.187500 L 251.887195 106.140625 L 248.934070 106.140625" stroke="black" fill="white" stroke-width="1px"></path><path d="M 218.090320 189.043437 L 218.090320 185.105937 L 221.371570 185.105937 L 221.371570 189.043437 L 218.090320 189.043437" stroke="black" fill="white" stroke-width="1px"></path><path d="M 218.090320 75.953125 L 218.090320 72.015625 L 221.371570 72.015625 L 221.371570 75.953125 L 218.090320 75.953125" stroke="black" fill="white" stroke-width="1px"></path><path d="M 218.254383 219.230937 L 218.254383 216.277812 L 221.207508 216.277812 L 221.207508 219.230937 L 218.254383 219.230937" stroke="black" fill="white" stroke-width="1px"></path><path d="M 218.254383 106.140625 L 218.254383 103.187500 L 221.207508 103.187500 L 221.207508 106.140625 L 218.254383 106.140625" stroke="black" fill="white" stroke-width="1px"></path><path d="M 186.590320 189.043437 L 186.590320 185.105937 L 189.871570 185.105937 L 189.871570 189.043437 L 186.590320 189.043437" stroke="black" fill="white" stroke-width="1px"></path><path d="M 186.590320 75.953125 L 186.590320 72.015625 L 189.871570 72.015625 L 189.871570 75.953125 L 186.590320 75.953125" stroke="black" fill="white" stroke-width="1px"></path><path d="M 186.754383 219.230937 L 186.754383 216.277812 L 189.707508 216.277812 L 189.707508 219.230937 L 186.754383 219.230937" stroke="black" fill="white" stroke-width="1px"></path><path d="M 186.754383 106.140625 L 186.754383 103.187500 L 189.707508 103.187500 L 189.707508 106.140625 L 186.754383 106.140625" stroke="black" fill="white" stroke-width="1px"></path><path d="M 155.090320 189.043437 L 155.090320 185.105937 L 158.371570 185.105937 L 158.371570 189.043437 L 155.090320 189.043437" stroke="black" fill="white" stroke-width="1px"></path><path d="M 155.090320 75.953125 L 155.090320 72.015625 L 158.371570 72.015625 L 158.371570 75.953125 L 155.090320 75.953125" stroke="black" fill="white" stroke-width="1px"></path><path d="M 155.254383 219.230937 L 155.254383 216.277812 L 158.207508 216.277812 L 158.207508 219.230937 L 155.254383 219.230937" stroke="black" fill="white" stroke-width="1px"></path><path d="M 155.254383 106.140625 L 155.254383 103.187500 L 158.207508 103.187500 L 158.207508 106.140625 L 155.254383 106.140625" stroke="black" fill="white" stroke-width="1px"></path><path d="M 123.590320 189.043437 L 123.590320 185.105937 L 126.871570 185.105937 L 126.871570 189.043437 L 123.590320 189.043437" stroke="black" fill="white" stroke-width="1px"></path><path d="M 123.590320 75.953125 L 123.590320 72.015625 L 126.871570 72.015625 L 126.871570 75.953125 L 123.590320 75.953125" stroke="black" fill="white" stroke-width="1px"></path><path d="M 123.754383 219.230937 L 123.754383 216.277812 L 126.707508 216.277812 L 126.707508 219.230937 L 123.754383 219.230937" stroke="black" fill="white" stroke-width="1px"></path><path d="M 123.754383 106.140625 L 123.754383 103.187500 L 126.707508 103.187500 L 126.707508 106.140625 L 123.754383 106.140625" stroke="black" fill="white" stroke-width="1px"></path><path d="M 92.090320 157.543437 L 92.090320 153.605937 L 95.371570 153.605937 L 95.371570 157.543437 L 92.090320 157.543437" stroke="black" fill="white" stroke-width="1px"></path><path d="M 92.090320 44.453125 L 92.090320 40.515625 L 95.371570 40.515625 L 95.371570 44.453125 L 92.090320 44.453125" stroke="black" fill="white" stroke-width="1px"></path><path d="M 92.090320 189.043437 L 92.090320 185.105937 L 95.371570 185.105937 L 95.371570 189.043437 L 92.090320 189.043437" stroke="black" fill="white" stroke-width="1px"></path><path d="M 92.090320 75.953125 L 92.090320 72.015625 L 95.371570 72.015625 L 95.371570 75.953125 L 92.090320 75.953125" stroke="black" fill="white" stroke-width="1px"></path><path d="M 92.090320 128.504375 L 92.090320 125.551250 L 95.207508 125.551250 L 95.207508 128.504375 L 92.090320 128.504375" stroke="black" fill="white" stroke-width="1px"></path><path d="M 92.090320 15.414062 L 92.090320 12.460937 L 95.207508 12.460937 L 95.207508 15.414062 L 92.090320 15.414062" stroke="black" fill="white" stroke-width="1px"></path><path d="M 60.590320 157.215312 L 60.590320 153.934062 L 63.871570 153.934062 L 63.871570 157.215312 L 60.590320 157.215312" stroke="black" fill="white" stroke-width="1px"></path><path d="M 60.590320 44.125000 L 60.590320 40.843750 L 63.871570 40.843750 L 63.871570 44.125000 L 60.590320 44.125000" stroke="black" fill="white" stroke-width="1px"></path><path d="M 60.754383 219.230937 L 60.754383 216.277812 L 63.871570 216.277812 L 63.871570 219.230937 L 60.754383 219.230937" stroke="black" fill="white" stroke-width="1px"></path><path d="M 60.754383 106.140625 L 60.754383 103.187500 L 63.871570 103.187500 L 63.871570 106.140625 L 60.754383 106.140625" stroke="black" fill="white" stroke-width="1px"></path><path d="M 30.074695 128.504375 L 30.074695 125.223125 L 33.027820 125.223125 L 33.027820 128.504375 L 30.074695 128.504375" stroke="black" fill="white" stroke-width="1px"></path><path d="M 30.074695 15.414062 L 30.074695 12.132812 L 33.027820 12.132812 L 33.027820 15.414062 L 30.074695 15.414062" stroke="black" fill="white" stroke-width="1px"></path><path d="M 30.074695 157.215312 L 30.074695 153.934062 L 33.355945 153.934062 L 33.355945 157.215312 L 30.074695 157.215312" stroke="black" fill="white" stroke-width="1px"></path><path d="M 30.074695 44.125000 L 30.074695 40.843750 L 33.355945 40.843750 L 33.355945 44.125000 L 30.074695 44.125000" stroke="black" fill="white" stroke-width="1px"></path><path d="M 30.074695 188.715312 L 30.074695 185.434062 L 33.355945 185.434062 L 33.355945 188.715312 L 30.074695 188.715312" stroke="black" fill="white" stroke-width="1px"></path><path d="M 30.074695 75.625000 L 30.074695 72.343750 L 33.355945 72.343750 L 33.355945 75.625000 L 30.074695 75.625000" stroke="black" fill="white" stroke-width="1px"></path><path d="M 30.074695 219.230937 L 30.074695 216.277812 L 33.027820 216.277812 L 33.027820 219.230937 L 30.074695 219.230937" stroke="black" fill="white" stroke-width="1px"></path><path d="M 30.074695 106.140625 L 30.074695 103.187500 L 33.027820 103.187500 L 33.027820 106.140625 L 30.074695 106.140625" stroke="black" fill="white" stroke-width="1px"></path><path d="M 10.387195 127.191875 L 10.387195 125.223125 L 12.355945 125.223125 L 12.355945 127.191875 L 10.387195 127.191875" stroke="black" fill="white" stroke-width="1px"></path><path d="M 10.387195 14.101562 L 10.387195 12.132812 L 12.355945 12.132812 L 12.355945 14.101562 L 10.387195 14.101562" stroke="black" fill="white" stroke-width="1px"></path><path d="M 60.590320 189.863750 L 60.590320 185.434062 L 63.871570 185.434062 L 63.871570 188.715312 L 62.230945 188.715312 L 62.230945 189.863750 L 60.590320 189.863750" stroke="black" fill="white" stroke-width="1px"></path><path d="M 60.590320 76.773437 L 60.590320 72.343750 L 63.871570 72.343750 L 63.871570 75.625000 L 62.230945 75.625000 L 62.230945 76.773437 L 60.590320 76.773437" stroke="black" fill="white" stroke-width="1px"></path><path d="M 123.590320 128.832500 L 123.590320 125.551250 L 126.051258 125.551250 L 126.051258 128.832500 L 123.590320 128.832500" stroke="black" fill="white" stroke-width="1px"></path><path d="M 123.590320 15.742187 L 123.590320 12.460937 L 126.051258 12.460937 L 126.051258 15.742187 L 123.590320 15.742187" stroke="black" fill="white" stroke-width="1px"></path><path d="M 280.598133 126.043425 L 280.598133 124.074675 L 282.566883 124.074675 L 282.566883 126.043425 L 280.598133 126.043425" stroke="black" fill="white" stroke-width="1px"></path><path d="M 280.598133 12.953112 L 280.598133 10.984362 L 282.566883 10.984362 L 282.566883 12.953112 L 280.598133 12.953112" stroke="black" fill="white" stroke-width="1px"></path></g></svg>