<svg width="293.459383" height="236.180625" xmlns="http://www.w3.org/2000/svg" xmlns:xlink="http://www.w3.org/1999/xlink" version="1.1"><g id="crv-background"><path d="M 221.371570 123.090312 L 221.371570 169.241094 L 120.000633 169.241094 L 120.000633 156.444206 L 126.051258 156.444206 L 126.051258 128.832500 L 123.590320 128.832500 L 123.590320 125.551250 L 126.051258 125.551250 L 126.051258 123.858132 L 91.315945 123.858125 L 91.315945 134.738750 L 64.258762 134.738750 L 64.258762 123.687497 L 10.000000 123.687497 L 10.000000 226.180625 L 64.258758 226.180625 L 64.258758 192.357500 L 91.315945 192.357500 L 91.315945 220.123437 L 283.459383 220.123437 L 283.459383 123.090312 L 221.371570 123.090312" stroke="none" fill="white" stroke-width="1px"></path><path d="M 221.371570 10.000000 L 221.371570 56.150781 L 120.000633 56.150781 L 120.000633 43.353893 L 126.051258 43.353893 L 126.051258 15.742187 L 123.590320 15.742187 L 123.590320 12.460937 L 126.051258 12.460937 L 126.051258 10.767819 L 91.315945 10.767812 L 91.315945 21.648438 L 64.258762 21.648438 L 64.258762 10.597185 L 10.000000 10.597185 L 10.000000 113.090312 L 64.258758 113.090312 L 64.258758 79.267187 L 91.315945 79.267187 L 91.315945 107.033125 L 283.459383 107.033125 L 283.459383 10.000000 L 221.371570 10.000000" stroke="none" fill="white" stroke-width="1px"></path></g><g id="crv-nbhd"><path d="M 221.737654 10.000004 L 221.737654 28.567141 L 221.737654 47.134279 L 233.579756 50.809177 L 245.421858 54.484075 L 264.440620 46.910869 L 283.459383 39.337663 L 283.459383 24.668832 L 283.459382 10.000000 L 252.598525 10.000002 L 221.737654 10.000004" stroke="#DD2222" fill="none" stroke-width="1px"></path><path d="M 283.459383 107.033125 L 283.459383 73.185394 L 283.459383 39.337663 L 264.440620 46.910869 L 245.421858 54.484075 L 250.660161 80.758600 L 255.898463 107.033125 L 269.678923 107.033125 L 283.459383 107.033125" stroke="#DD2222" fill="none" stroke-width="1px"></path><path d="M 221.737654 47.134279 L 221.737654 63.142805 L 221.737654 79.151330 L 215.519941 79.151330 L 209.302229 79.151330 L 212.408095 93.092228 L 215.513961 107.033125 L 235.706212 107.033125 L 255.898463 107.033125 L 250.660161 80.758600 L 245.421858 54.484075 L 233.579756 50.809177 L 221.737654 47.134279" stroke="#DD2222" fill="none" stroke-width="1px"></path><path d="M 160.497889 107.033125 L 188.005925 107.033125 L 215.513961 107.033125 L 212.408095 93.092228 L 209.302229 79.151330 L 189.737280 79.151330 L 170.172330 79.151329 L 165.335110 93.092227 L 160.497889 107.033125" stroke="#DD2222" fill="none" stroke-width="1px"></path><path d="M 170.172330 79.151329 L 148.777982 79.151329 L 127.383633 79.151328 L 131.162795 93.092227 L 134.941957 107.033125 L 147.719923 107.033125 L 160.497889 107.033125 L 165.335109 93.092230 L 170.172330 79.151329" stroke="#DD2222" fill="none" stroke-width="1px"></path><path d="M 127.383633 79.151328 L 109.349789 79.151328 L 91.315945 79.151327 L 91.315945 93.092226 L 91.315945 107.033125 L 113.128951 107.033125 L 134.941957 107.033125 L 131.162795 93.092227 L 127.383633 79.151328" stroke="#DD2222" fill="none" stroke-width="1px"></path><path d="M 64.258758 113.090312 L 64.258758 90.737470 L 64.258758 68.384628 L 63.125614 64.796545 L 61.992470 61.208462 L 35.996235 64.550135 L 10.000000 67.891809 L 10.000000 90.491061 L 10.000000 113.090312 L 37.129269 113.090312 L 64.258758 113.090312" stroke="#DD2222" fill="none" stroke-width="1px"></path><path d="M 10.000000 10.597184 L 10.000000 39.244496 L 10.000000 67.891809 L 35.996235 64.550135 L 61.992470 61.208462 L 63.125614 60.025820 L 64.258758 58.843177 L 64.258758 57.496979 L 64.258758 56.150781 L 64.258758 33.373983 L 64.258758 10.597185 L 37.129372 10.597185 L 10.000000 10.597184" stroke="#DD2222" fill="none" stroke-width="1px"></path><path d="M 10.000000 123.687497 L 10.000000 146.915988 L 10.000000 170.144480 L 37.129379 168.326503 L 64.258758 166.508526 L 64.258758 145.098012 L 64.258758 123.687497 L 37.129392 123.687497 L 10.000000 123.687497" stroke="#DD2222" fill="none" stroke-width="1px"></path><path d="M 10.000000 170.144480 L 10.000000 198.162553 L 10.000000 226.180625 L 37.129379 226.180625 L 64.258758 226.180625 L 64.258758 197.710859 L 64.258758 169.241094 L 64.258758 167.874810 L 64.258758 166.508526 L 37.129379 168.326503 L 10.000000 170.144480" stroke="#DD2222" fill="none" stroke-width="1px"></path><path d="M 140.661540 192.043444 L 115.988742 192.043444 L 91.315945 192.043444 L 91.315945 206.083441 L 91.315945 220.123437 L 125.990167 220.123437 L 160.664389 220.123437 L 150.662967 206.083444 L 140.661540 192.043444" stroke="#DD2222" fill="none" stroke-width="1px"></path><path d="M 185.425464 192.043444 L 163.043502 192.043444 L 140.661540 192.043444 L 150.662964 206.083441 L 160.664389 220.123437 L 164.206697 220.123437 L 167.749006 220.123437 L 176.587233 206.083444 L 185.425464 192.043444" stroke="#DD2222" fill="none" stroke-width="1px"></path><path d="M 167.749006 220.123437 L 205.515491 220.123437 L 243.281976 220.123437 L 239.567516 206.083441 L 235.853055 192.043444 L 210.639260 192.043444 L 185.425464 192.043444 L 176.587236 206.083439 L 167.749006 220.123437" stroke="#DD2222" fill="none" stroke-width="1px"></path><path d="M 283.459383 220.123437 L 283.459383 191.756590 L 283.459383 163.389743 L 261.598517 169.945859 L 239.737652 176.501975 L 239.737652 184.272710 L 239.737652 192.043444 L 237.795353 192.043444 L 235.853055 192.043444 L 239.567516 206.083441 L 243.281976 220.123437 L 263.370679 220.123437 L 283.459383 220.123437" stroke="#DD2222" fill="none" stroke-width="1px"></path><path d="M 239.737652 123.090312 L 239.737652 149.796144 L 239.737652 176.501975 L 261.598517 169.945859 L 283.459383 163.389743 L 283.459383 143.240028 L 283.459383 123.090312 L 261.598528 123.090312 L 239.737652 123.090312" stroke="#DD2222" fill="none" stroke-width="1px"></path></g><g id="crv-amen"><path d="M 49.357391 163.169299 L 55.977086 162.725704 L 62.596782 162.282109 L 62.596782 145.153697 L 62.596782 128.025286 L 55.977088 128.025286 L 49.357391 128.025286 L 49.357391 145.597292 L 49.357391 163.169299" stroke="none" fill="#2288CC" stroke-width="1px"></path><path d="M 58.832882 181.799840 L 58.832882 176.258326 L 58.832882 170.716811 L 58.832882 169.623784 L 58.832882 168.530757 L 37.129379 169.985138 L 15.425876 171.439520 L 15.425876 178.074062 L 15.425876 184.708604 L 37.129379 183.254222 L 58.832882 181.799840" stroke="none" fill="#2288CC" stroke-width="1px"></path><path d="M 141.334060 200.936662 L 138.768089 197.334553 L 136.202118 193.732444 L 116.463880 193.732444 L 96.725642 193.732444 L 96.725642 200.352139 L 96.725642 206.971835 L 119.029851 206.971835 L 141.334060 206.971835 L 141.334060 203.954248 L 141.334060 200.936662" stroke="none" fill="#2288CC" stroke-width="1px"></path><path d="M 172.675843 206.755794 L 176.842965 200.136099 L 181.010088 193.516403 L 163.104518 193.516403 L 145.198948 193.516403 L 149.914504 200.136098 L 154.630060 206.755794 L 163.652951 206.755794 L 172.675843 206.755794" stroke="none" fill="#2288CC" stroke-width="1px"></path><path d="M 227.135599 217.319394 L 233.983045 217.319394 L 240.830490 217.319394 L 237.858922 206.087396 L 234.887354 194.855399 L 228.981907 194.855399 L 223.076460 194.855399 L 222.196082 195.088314 L 221.315704 195.321230 L 224.225652 206.320312 L 227.135599 217.319394" stroke="none" fill="#2288CC" stroke-width="1px"></path><path d="M 279.073234 180.259565 L 279.073234 173.348587 L 279.073234 166.437608 L 261.584542 171.682501 L 244.095849 176.927394 L 244.095849 183.143982 L 244.095849 189.360569 L 243.482202 189.360569 L 242.868555 189.360569 L 243.110257 190.166507 L 243.351959 190.972445 L 261.212597 185.616005 L 279.073234 180.259565" stroke="none" fill="#2288CC" stroke-width="1px"></path><path d="M 279.087210 137.984627 L 279.087210 131.364932 L 279.087210 124.745236 L 261.598517 124.745236 L 244.109825 124.745236 L 244.109825 131.364932 L 244.109825 137.984627 L 261.598517 137.984627 L 279.087210 137.984627" stroke="none" fill="#2288CC" stroke-width="1px"></path><path d="M 243.230944 49.812932 L 245.845616 50.624329 L 248.460288 51.435727 L 263.675297 45.377162 L 278.890307 39.318598 L 278.890307 33.563713 L 278.890307 27.808823 L 278.419330 26.626047 L 277.948352 25.443271 L 258.777440 33.077062 L 239.606528 40.710853 L 241.418736 45.261892 L 243.230944 49.812932" stroke="none" fill="#2288CC" stroke-width="1px"></path><path d="M 279.817659 56.792656 L 279.817659 49.667451 L 279.817659 42.542246 L 264.602649 48.600811 L 249.387639 54.659375 L 250.703699 61.260530 L 252.019759 67.861684 L 265.918709 62.327170 L 279.817659 56.792656" stroke="none" fill="#2288CC" stroke-width="1px"></path><path d="M 236.589825 55.110960 L 229.970129 53.056704 L 223.350434 51.002448 L 223.350434 65.474156 L 223.350434 79.945863 L 229.970129 79.945863 L 236.589825 79.945863 L 236.589825 67.528411 L 236.589825 55.110960" stroke="none" fill="#2288CC" stroke-width="1px"></path><path d="M 208.236526 94.103708 L 206.761736 87.484013 L 205.286947 80.864317 L 189.634987 80.864317 L 173.983028 80.864317 L 171.948273 86.728492 L 169.913518 92.592668 L 169.913518 93.348188 L 169.913518 94.103707 L 189.075022 94.103708 L 208.236526 94.103708" stroke="none" fill="#2288CC" stroke-width="1px"></path><path d="M 150.375304 104.216049 L 155.056861 104.216049 L 159.738418 104.216049 L 163.608195 93.063330 L 167.477971 81.910612 L 160.471107 81.910612 L 153.464243 81.910612 L 149.844339 92.343195 L 146.224436 102.775778 L 148.299870 103.495913 L 150.375304 104.216049" stroke="none" fill="#2288CC" stroke-width="1px"></path><path d="M 106.210260 81.939507 L 99.590565 81.939507 L 92.970869 81.939507 L 92.970869 93.092226 L 92.970869 104.244945 L 99.590565 104.244945 L 106.210260 104.244945 L 106.210260 93.092226 L 106.210260 81.939507" stroke="none" fill="#2288CC" stroke-width="1px"></path><path d="M 49.356063 108.073781 L 55.975750 108.073781 L 62.595454 108.073781 L 62.595454 90.191507 L 62.595454 72.309233 L 61.861298 69.984538 L 61.127141 67.659842 L 56.709010 67.659842 L 52.290879 67.659842 L 50.823471 67.848469 L 49.356063 68.037097 L 49.356063 88.055439 L 49.356063 108.073781" stroke="none" fill="#2288CC" stroke-width="1px"></path><path d="M 15.412148 52.175259 L 15.412148 58.849421 L 15.412148 65.523584 L 36.209136 62.850245 L 57.006124 60.176906 L 57.912639 59.230792 L 58.819154 58.284678 L 58.819154 57.207720 L 58.819154 56.130762 L 58.819154 51.363144 L 58.819154 46.595526 L 37.115651 49.385393 L 15.412148 52.175259" stroke="none" fill="#2288CC" stroke-width="1px"></path></g><g id="crv-desk"><path d="M 31.459383 162.706457 L 28.959383 162.706457 L 28.959383 168.706457 L 31.459383 168.706457 L 31.459383 162.706457" stroke="gray" fill="white" stroke-width="1px"></path><path d="M 31.459383 156.706457 L 28.959383 156.706457 L 28.959383 162.706457 L 31.459383 162.706457 L 31.459383 156.706457" stroke="gray" fill="white" stroke-width="1px"></path><path d="M 31.459383 150.706457 L 28.959383 150.706457 L 28.959383 156.706457 L 31.459383 156.706457 L 31.459383 150.706457" stroke="gray" fill="white" stroke-width="1px"></path><path d="M 31.459383 144.706457 L 28.959383 144.706457 L 28.959383 150.706457 L 31.459383 150.706457 L 31.459383 144.706457" stroke="gray" fill="white" stroke-width="1px"></path><path d="M 31.459383 138.706457 L 28.959383 138.706457 L 28.959383 144.706457 L 31.459383 144.706457 L 31.459383 138.706457" stroke="gray" fill="white" stroke-width="1px"></path><path d="M 31.459383 132.706457 L 28.959383 132.706457 L 28.959383 138.706457 L 31.459383 138.706457 L 31.459383 132.706457" stroke="gray" fill="white" stroke-width="1px"></path><path d="M 31.459383 126.706457 L 28.959383 126.706457 L 28.959383 132.706457 L 31.459383 132.706457 L 31.459383 126.706457" stroke="gray" fill="white" stroke-width="1px"></path><path d="M 19.459383 163.510594 L 16.959383 163.510594 L 16.959383 169.510594 L 19.459383 169.510594 L 19.459383 163.510594" stroke="gray" fill="white" stroke-width="1px"></path><path d="M 19.459383 157.510594 L 16.959383 157.510594 L 16.959383 163.510594 L 19.459383 163.510594 L 19.459383 157.510594" stroke="gray" fill="white" stroke-width="1px"></path><path d="M 19.459383 151.510594 L 16.959383 151.510594 L 16.959383 157.510594 L 19.459383 157.510594 L 19.459383 151.510594" stroke="gray" fill="white" stroke-width="1px"></path><path d="M 19.459383 145.510594 L 16.959383 145.510594 L 16.959383 151.510594 L 19.459383 151.510594 L 19.459383 145.510594" stroke="gray" fill="white" stroke-width="1px"></path><path d="M 19.459383 139.510594 L 16.959383 139.510594 L 16.959383 145.510594 L 19.459383 145.510594 L 19.459383 139.510594" stroke="gray" fill="white" stroke-width="1px"></path><path d="M 19.459383 133.510594 L 16.959383 133.510594 L 16.959383 139.510594 L 19.459383 139.510594 L 19.459383 133.510594" stroke="gray" fill="white" stroke-width="1px"></path><path d="M 19.459383 127.510594 L 16.959383 127.510594 L 16.959383 133.510594 L 19.459383 133.510594 L 19.459383 127.510594" stroke="gray" fill="white" stroke-width="1px"></path><path d="M 151.459383 214.123437 L 148.959383 214.123437 L 148.959383 220.123437 L 151.459383 220.123437 L 151.459383 214.123437" stroke="gray" fill="white" stroke-width="1px"></path><path d="M 139.459383 214.123437 L 136.959383 214.123437 L 136.959383 220.123437 L 139.459383 220.123437 L 139.459383 214.123437" stroke="gray" fill="white" stroke-width="1px"></path><path d="M 127.459383 214.123437 L 124.959383 214.123437 L 124.959383 220.123437 L 127.459383 220.123437 L 127.459383 214.123437" stroke="gray" fill="white" stroke-width="1px"></path><path d="M 115.459383 214.123437 L 112.959383 214.123437 L 112.959383 220.123437 L 115.459383 220.123437 L 115.459383 214.123437" stroke="gray" fill="white" stroke-width="1px"></path><path d="M 103.459383 214.123437 L 100.959383 214.123437 L 100.959383 220.123437 L 103.459383 220.123437 L 103.459383 214.123437" stroke="gray" fill="white" stroke-width="1px"></path><path d="M 163.459383 214.123437 L 160.959383 214.123437 L 160.959383 220.123437 L 163.459383 220.123437 L 163.459383 214.123437" stroke="gray" fill="white" stroke-width="1px"></path><path d="M 211.459383 214.123437 L 208.959383 214.123437 L 208.959383 220.123437 L 211.459383 220.123437 L 211.459383 214.123437" stroke="gray" fill="white" stroke-width="1px"></path><path d="M 211.459383 208.123437 L 208.959383 208.123437 L 208.959383 214.123437 L 211.459383 214.123437 L 211.459383 208.123437" stroke="gray" fill="white" stroke-width="1px"></path><path d="M 211.459383 202.123437 L 208.959383 202.123437 L 208.959383 208.123437 L 211.459383 208.123437 L 211.459383 202.123437" stroke="gray" fill="white" stroke-width="1px"></path><path d="M 211.459383 196.123437 L 208.959383 196.123437 L 208.959383 202.123437 L 211.459383 202.123437 L 211.459383 196.123437" stroke="gray" fill="white" stroke-width="1px"></path><path d="M 199.459383 214.123437 L 196.959383 214.123437 L 196.959383 220.123437 L 199.459383 220.123437 L 199.459383 214.123437" stroke="gray" fill="white" stroke-width="1px"></path><path d="M 199.459383 208.123437 L 196.959383 208.123437 L 196.959383 214.123437 L 199.459383 214.123437 L 199.459383 208.123437" stroke="gray" fill="white" stroke-width="1px"></path><path d="M 199.459383 202.123437 L 196.959383 202.123437 L 196.959383 208.123437 L 199.459383 208.123437 L 199.459383 202.123437" stroke="gray" fill="white" stroke-width="1px"></path><path d="M 199.459383 196.123437 L 196.959383 196.123437 L 196.959383 202.123437 L 199.459383 202.123437 L 199.459383 196.123437" stroke="gray" fill="white" stroke-width="1px"></path><path d="M 187.459383 214.123437 L 184.959383 214.123437 L 184.959383 220.123437 L 187.459383 220.123437 L 187.459383 214.123437" stroke="gray" fill="white" stroke-width="1px"></path><path d="M 187.459383 208.123437 L 184.959383 208.123437 L 184.959383 214.123437 L 187.459383 214.123437 L 187.459383 208.123437" stroke="gray" fill="white" stroke-width="1px"></path><path d="M 187.459383 202.123437 L 184.959383 202.123437 L 184.959383 208.123437 L 187.459383 208.123437 L 187.459383 202.123437" stroke="gray" fill="white" stroke-width="1px"></path><path d="M 187.459383 196.123437 L 184.959383 196.123437 L 184.959383 202.123437 L 187.459383 202.123437 L 187.459383 196.123437" stroke="gray" fill="white" stroke-width="1px"></path><path d="M 175.459383 214.123437 L 172.959383 214.123437 L 172.959383 220.123437 L 175.459383 220.123437 L 175.459383 214.123437" stroke="gray" fill="white" stroke-width="1px"></path><path d="M 31.459383 162.706457 L 33.959383 162.706457 L 33.959383 168.706457 L 31.459383 168.706457 L 31.459383 162.706457" stroke="gray" fill="white" stroke-width="1px"></path><path d="M 31.459383 156.706457 L 33.959383 156.706457 L 33.959383 162.706457 L 31.459383 162.706457 L 31.459383 156.706457" stroke="gray" fill="white" stroke-width="1px"></path><path d="M 31.459383 150.706457 L 33.959383 150.706457 L 33.959383 156.706457 L 31.459383 156.706457 L 31.459383 150.706457" stroke="gray" fill="white" stroke-width="1px"></path><path d="M 31.459383 144.706457 L 33.959383 144.706457 L 33.959383 150.706457 L 31.459383 150.706457 L 31.459383 144.706457" stroke="gray" fill="white" stroke-width="1px"></path><path d="M 31.459383 138.706457 L 33.959383 138.706457 L 33.959383 144.706457 L 31.459383 144.706457 L 31.459383 138.706457" stroke="gray" fill="white" stroke-width="1px"></path><path d="M 31.459383 132.706457 L 33.959383 132.706457 L 33.959383 138.706457 L 31.459383 138.706457 L 31.459383 132.706457" stroke="gray" fill="white" stroke-width="1px"></path><path d="M 31.459383 126.706457 L 33.959383 126.706457 L 33.959383 132.706457 L 31.459383 132.706457 L 31.459383 126.706457" stroke="gray" fill="white" stroke-width="1px"></path><path d="M 19.459383 163.510594 L 21.959383 163.510594 L 21.959383 169.510594 L 19.459383 169.510594 L 19.459383 163.510594" stroke="gray" fill="white" stroke-width="1px"></path><path d="M 19.459383 157.510594 L 21.959383 157.510594 L 21.959383 163.510594 L 19.459383 163.510594 L 19.459383 157.510594" stroke="gray" fill="white" stroke-width="1px"></path><path d="M 19.459383 151.510594 L 21.959383 151.510594 L 21.959383 157.510594 L 19.459383 157.510594 L 19.459383 151.510594" stroke="gray" fill="white" stroke-width="1px"></path><path d="M 19.459383 145.510594 L 21.959383 145.510594 L 21.959383 151.510594 L 19.459383 151.510594 L 19.459383 145.510594" stroke="gray" fill="white" stroke-width="1px"></path><path d="M 19.459383 139.510594 L 21.959383 139.510594 L 21.959383 145.510594 L 19.459383 145.510594 L 19.459383 139.510594" stroke="gray" fill="white" stroke-width="1px"></path><path d="M 19.459383 133.510594 L 21.959383 133.510594 L 21.959383 139.510594 L 19.459383 139.510594 L 19.459383 133.510594" stroke="gray" fill="white" stroke-width="1px"></path><path d="M 19.459383 127.510594 L 21.959383 127.510594 L 21.959383 133.510594 L 19.459383 133.510594 L 19.459383 127.510594" stroke="gray" fill="white" stroke-width="1px"></path><path d="M 151.459383 214.123437 L 153.959383 214.123437 L 153.959383 220.123437 L 151.459383 220.123437 L 151.459383 214.123437" stroke="gray" fill="white" stroke-width="1px"></path><path d="M 139.459383 214.123437 L 141.959383 214.123437 L 141.959383 220.123437 L 139.459383 220.123437 L 139.459383 214.123437" stroke="gray" fill="white" stroke-width="1px"></path><path d="M 127.459383 214.123437 L 129.959383 214.123437 L 129.959383 220.123437 L 127.459383 220.123437 L 127.459383 214.123437" stroke="gray" fill="white" stroke-width="1px"></path><path d="M 115.459383 214.123437 L 117.959383 214.123437 L 117.959383 220.123437 L 115.459383 220.123437 L 115.459383 214.123437" stroke="gray" fill="white" stroke-width="1px"></path><path d="M 103.459383 214.123437 L 105.959383 214.123437 L 105.959383 220.123437 L 103.459383 220.123437 L 103.459383 214.123437" stroke="gray" fill="white" stroke-width="1px"></path><path d="M 163.459383 214.123437 L 165.959383 214.123437 L 165.959383 220.123437 L 163.459383 220.123437 L 163.459383 214.123437" stroke="gray" fill="white" stroke-width="1px"></path><path d="M 211.459383 214.123437 L 213.959383 214.123437 L 213.959383 220.123437 L 211.459383 220.123437 L 211.459383 214.123437" stroke="gray" fill="white" stroke-width="1px"></path><path d="M 211.459383 208.123437 L 213.959383 208.123437 L 213.959383 214.123437 L 211.459383 214.123437 L 211.459383 208.123437" stroke="gray" fill="white" stroke-width="1px"></path><path d="M 211.459383 202.123437 L 213.959383 202.123437 L 213.959383 208.123437 L 211.459383 208.123437 L 211.459383 202.123437" stroke="gray" fill="white" stroke-width="1px"></path><path d="M 211.459383 196.123437 L 213.959383 196.123437 L 213.959383 202.123437 L 211.459383 202.123437 L 211.459383 196.123437" stroke="gray" fill="white" stroke-width="1px"></path><path d="M 199.459383 214.123437 L 201.959383 214.123437 L 201.959383 220.123437 L 199.459383 220.123437 L 199.459383 214.123437" stroke="gray" fill="white" stroke-width="1px"></path><path d="M 199.459383 208.123437 L 201.959383 208.123437 L 201.959383 214.123437 L 199.459383 214.123437 L 199.459383 208.123437" stroke="gray" fill="white" stroke-width="1px"></path><path d="M 199.459383 202.123437 L 201.959383 202.123437 L 201.959383 208.123437 L 199.459383 208.123437 L 199.459383 202.123437" stroke="gray" fill="white" stroke-width="1px"></path><path d="M 199.459383 196.123437 L 201.959383 196.123437 L 201.959383 202.123437 L 199.459383 202.123437 L 199.459383 196.123437" stroke="gray" fill="white" stroke-width="1px"></path><path d="M 187.459383 214.123437 L 189.959383 214.123437 L 189.959383 220.123437 L 187.459383 220.123437 L 187.459383 214.123437" stroke="gray" fill="white" stroke-width="1px"></path><path d="M 187.459383 208.123437 L 189.959383 208.123437 L 189.959383 214.123437 L 187.459383 214.123437 L 187.459383 208.123437" stroke="gray" fill="white" stroke-width="1px"></path><path d="M 187.459383 202.123437 L 189.959383 202.123437 L 189.959383 208.123437 L 187.459383 208.123437 L 187.459383 202.123437" stroke="gray" fill="white" stroke-width="1px"></path><path d="M 187.459383 196.123437 L 189.959383 196.123437 L 189.959383 202.123437 L 187.459383 202.123437 L 187.459383 196.123437" stroke="gray" fill="white" stroke-width="1px"></path><path d="M 175.459383 214.123437 L 177.959383 214.123437 L 177.959383 220.123437 L 175.459383 220.123437 L 175.459383 214.123437" stroke="gray" fill="white" stroke-width="1px"></path><path d="M 22.000000 220.123437 L 22.000000 217.623437 L 16.000000 217.623437 L 16.000000 220.123437 L 22.000000 220.123437" stroke="gray" fill="white" stroke-width="1px"></path><path d="M 28.000000 220.123437 L 28.000000 217.623437 L 22.000000 217.623437 L 22.000000 220.123437 L 28.000000 220.123437" stroke="gray" fill="white" stroke-width="1px"></path><path d="M 34.000000 220.123437 L 34.000000 217.623437 L 28.000000 217.623437 L 28.000000 220.123437 L 34.000000 220.123437" stroke="gray" fill="white" stroke-width="1px"></path><path d="M 40.000000 220.123437 L 40.000000 217.623437 L 34.000000 217.623437 L 34.000000 220.123437 L 40.000000 220.123437" stroke="gray" fill="white" stroke-width="1px"></path><path d="M 46.000000 220.123437 L 46.000000 217.623437 L 40.000000 217.623437 L 40.000000 220.123437 L 46.000000 220.123437" stroke="gray" fill="white" stroke-width="1px"></path><path d="M 52.000000 220.123437 L 52.000000 217.623437 L 46.000000 217.623437 L 46.000000 220.123437 L 52.000000 220.123437" stroke="gray" fill="white" stroke-width="1px"></path><path d="M 58.000000 220.123437 L 58.000000 217.623437 L 52.000000 217.623437 L 52.000000 220.123437 L 58.000000 220.123437" stroke="gray" fill="white" stroke-width="1px"></path><path d="M 22.000000 208.123437 L 22.000000 205.623437 L 16.000000 205.623437 L 16.000000 208.123437 L 22.000000 208.123437" stroke="gray" fill="white" stroke-width="1px"></path><path d="M 28.000000 208.123437 L 28.000000 205.623437 L 22.000000 205.623437 L 22.000000 208.123437 L 28.000000 208.123437" stroke="gray" fill="white" stroke-width="1px"></path><path d="M 34.000000 208.123437 L 34.000000 205.623437 L 28.000000 205.623437 L 28.000000 208.123437 L 34.000000 208.123437" stroke="gray" fill="white" stroke-width="1px"></path><path d="M 40.000000 208.123437 L 40.000000 205.623437 L 34.000000 205.623437 L 34.000000 208.123437 L 40.000000 208.123437" stroke="gray" fill="white" stroke-width="1px"></path><path d="M 46.000000 208.123437 L 46.000000 205.623437 L 40.000000 205.623437 L 40.000000 208.123437 L 46.000000 208.123437" stroke="gray" fill="white" stroke-width="1px"></path><path d="M 52.000000 208.123437 L 52.000000 205.623437 L 46.000000 205.623437 L 46.000000 208.123437 L 52.000000 208.123437" stroke="gray" fill="white" stroke-width="1px"></path><path d="M 58.000000 208.123437 L 58.000000 205.623437 L 52.000000 205.623437 L 52.000000 208.123437 L 58.000000 208.123437" stroke="gray" fill="white" stroke-width="1px"></path><path d="M 22.000000 196.123437 L 22.000000 193.623437 L 16.000000 193.623437 L 16.000000 196.123437 L 22.000000 196.123437" stroke="gray" fill="white" stroke-width="1px"></path><path d="M 28.000000 196.123437 L 28.000000 193.623437 L 22.000000 193.623437 L 22.000000 196.123437 L 28.000000 196.123437" stroke="gray" fill="white" stroke-width="1px"></path><path d="M 34.000000 196.123437 L 34.000000 193.623437 L 28.000000 193.623437 L 28.000000 196.123437 L 34.000000 196.123437" stroke="gray" fill="white" stroke-width="1px"></path><path d="M 40.000000 196.123437 L 40.000000 193.623437 L 34.000000 193.623437 L 34.000000 196.123437 L 40.000000 196.123437" stroke="gray" fill="white" stroke-width="1px"></path><path d="M 46.000000 196.123437 L 46.000000 193.623437 L 40.000000 193.623437 L 40.000000 196.123437 L 46.000000 196.123437" stroke="gray" fill="white" stroke-width="1px"></path><path d="M 52.000000 196.123437 L 52.000000 193.623437 L 46.000000 193.623437 L 46.000000 196.123437 L 52.000000 196.123437" stroke="gray" fill="white" stroke-width="1px"></path><path d="M 58.000000 196.123437 L 58.000000 193.623437 L 52.000000 193.623437 L 52.000000 196.123437 L 58.000000 196.123437" stroke="gray" fill="white" stroke-width="1px"></path><path d="M 252.107223 208.123437 L 252.107223 205.623437 L 246.107223 205.623437 L 246.107223 208.123437 L 252.107223 208.123437" stroke="gray" fill="white" stroke-width="1px"></path><path d="M 258.107223 208.123437 L 258.107223 205.623437 L 252.107223 205.623437 L 252.107223 208.123437 L 258.107223 208.123437" stroke="gray" fill="white" stroke-width="1px"></path><path d="M 264.107223 208.123437 L 264.107223 205.623437 L 258.107223 205.623437 L 258.107223 208.123437 L 264.107223 208.123437" stroke="gray" fill="white" stroke-width="1px"></path><path d="M 270.107223 208.123437 L 270.107223 205.623437 L 264.107223 205.623437 L 264.107223 208.123437 L 270.107223 208.123437" stroke="gray" fill="white" stroke-width="1px"></path><path d="M 276.107223 208.123437 L 276.107223 205.623437 L 270.107223 205.623437 L 270.107223 208.123437 L 276.107223 208.123437" stroke="gray" fill="white" stroke-width="1px"></path><path d="M 248.932470 196.123437 L 248.932470 193.623437 L 242.932470 193.623437 L 242.932470 196.123437 L 248.932470 196.123437" stroke="gray" fill="white" stroke-width="1px"></path><path d="M 254.932470 196.123437 L 254.932470 193.623437 L 248.932470 193.623437 L 248.932470 196.123437 L 254.932470 196.123437" stroke="gray" fill="white" stroke-width="1px"></path><path d="M 260.932470 196.123437 L 260.932470 193.623437 L 254.932470 193.623437 L 254.932470 196.123437 L 260.932470 196.123437" stroke="gray" fill="white" stroke-width="1px"></path><path d="M 266.932470 196.123437 L 266.932470 193.623437 L 260.932470 193.623437 L 260.932470 196.123437 L 266.932470 196.123437" stroke="gray" fill="white" stroke-width="1px"></path><path d="M 272.932470 196.123437 L 272.932470 193.623437 L 266.932470 193.623437 L 266.932470 196.123437 L 272.932470 196.123437" stroke="gray" fill="white" stroke-width="1px"></path><path d="M 278.932470 196.123437 L 278.932470 193.623437 L 272.932470 193.623437 L 272.932470 196.123437 L 278.932470 196.123437" stroke="gray" fill="white" stroke-width="1px"></path><path d="M 251.737652 160.123437 L 251.737652 157.623437 L 245.737652 157.623437 L 245.737652 160.123437 L 251.737652 160.123437" stroke="gray" fill="white" stroke-width="1px"></path><path d="M 257.737652 160.123437 L 257.737652 157.623437 L 251.737652 157.623437 L 251.737652 160.123437 L 257.737652 160.123437" stroke="gray" fill="white" stroke-width="1px"></path><path d="M 263.737652 160.123437 L 263.737652 157.623437 L 257.737652 157.623437 L 257.737652 160.123437 L 263.737652 160.123437" stroke="gray" fill="white" stroke-width="1px"></path><path d="M 269.737652 160.123437 L 269.737652 157.623437 L 263.737652 157.623437 L 263.737652 160.123437 L 269.737652 160.123437" stroke="gray" fill="white" stroke-width="1px"></path><path d="M 275.737652 160.123437 L 275.737652 157.623437 L 269.737652 157.623437 L 269.737652 160.123437 L 275.737652 160.123437" stroke="gray" fill="white" stroke-width="1px"></path><path d="M 251.737652 148.123437 L 251.737652 145.623437 L 245.737652 145.623437 L 245.737652 148.123437 L 251.737652 148.123437" stroke="gray" fill="white" stroke-width="1px"></path><path d="M 257.737652 148.123437 L 257.737652 145.623437 L 251.737652 145.623437 L 251.737652 148.123437 L 257.737652 148.123437" stroke="gray" fill="white" stroke-width="1px"></path><path d="M 263.737652 148.123437 L 263.737652 145.623437 L 257.737652 145.623437 L 257.737652 148.123437 L 263.737652 148.123437" stroke="gray" fill="white" stroke-width="1px"></path><path d="M 269.737652 148.123437 L 269.737652 145.623437 L 263.737652 145.623437 L 263.737652 148.123437 L 269.737652 148.123437" stroke="gray" fill="white" stroke-width="1px"></path><path d="M 275.737652 148.123437 L 275.737652 145.623437 L 269.737652 145.623437 L 269.737652 148.123437 L 275.737652 148.123437" stroke="gray" fill="white" stroke-width="1px"></path><path d="M 22.000000 220.123437 L 22.000000 222.623437 L 16.000000 222.623437 L 16.000000 220.123437 L 22.000000 220.123437" stroke="gray" fill="white" stroke-width="1px"></path><path d="M 28.000000 220.123437 L 28.000000 222.623437 L 22.000000 222.623437 L 22.000000 220.123437 L 28.000000 220.123437" stroke="gray" fill="white" stroke-width="1px"></path><path d="M 34.000000 220.123437 L 34.000000 222.623437 L 28.000000 222.623437 L 28.000000 220.123437 L 34.000000 220.123437" stroke="gray" fill="white" stroke-width="1px"></path><path d="M 40.000000 220.123437 L 40.000000 222.623437 L 34.000000 222.623437 L 34.000000 220.123437 L 40.000000 220.123437" stroke="gray" fill="white" stroke-width="1px"></path><path d="M 46.000000 220.123437 L 46.000000 222.623437 L 40.000000 222.623437 L 40.000000 220.123437 L 46.000000 220.123437" stroke="gray" fill="white" stroke-width="1px"></path><path d="M 52.000000 220.123437 L 52.000000 222.623437 L 46.000000 222.623437 L 46.000000 220.123437 L 52.000000 220.123437" stroke="gray" fill="white" stroke-width="1px"></path><path d="M 58.000000 220.123437 L 58.000000 222.623437 L 52.000000 222.623437 L 52.000000 220.123437 L 58.000000 220.123437" stroke="gray" fill="white" stroke-width="1px"></path><path d="M 22.000000 208.123437 L 22.000000 210.623437 L 16.000000 210.623437 L 16.000000 208.123437 L 22.000000 208.123437" stroke="gray" fill="white" stroke-width="1px"></path><path d="M 28.000000 208.123437 L 28.000000 210.623437 L 22.000000 210.623437 L 22.000000 208.123437 L 28.000000 208.123437" stroke="gray" fill="white" stroke-width="1px"></path><path d="M 34.000000 208.123437 L 34.000000 210.623437 L 28.000000 210.623437 L 28.000000 208.123437 L 34.000000 208.123437" stroke="gray" fill="white" stroke-width="1px"></path><path d="M 40.000000 208.123437 L 40.000000 210.623437 L 34.000000 210.623437 L 34.000000 208.123437 L 40.000000 208.123437" stroke="gray" fill="white" stroke-width="1px"></path><path d="M 46.000000 208.123437 L 46.000000 210.623437 L 40.000000 210.623437 L 40.000000 208.123437 L 46.000000 208.123437" stroke="gray" fill="white" stroke-width="1px"></path><path d="M 52.000000 208.123437 L 52.000000 210.623437 L 46.000000 210.623437 L 46.000000 208.123437 L 52.000000 208.123437" stroke="gray" fill="white" stroke-width="1px"></path><path d="M 58.000000 208.123437 L 58.000000 210.623437 L 52.000000 210.623437 L 52.000000 208.123437 L 58.000000 208.123437" stroke="gray" fill="white" stroke-width="1px"></path><path d="M 22.000000 196.123437 L 22.000000 198.623437 L 16.000000 198.623437 L 16.000000 196.123437 L 22.000000 196.123437" stroke="gray" fill="white" stroke-width="1px"></path><path d="M 28.000000 196.123437 L 28.000000 198.623437 L 22.000000 198.623437 L 22.000000 196.123437 L 28.000000 196.123437" stroke="gray" fill="white" stroke-width="1px"></path><path d="M 34.000000 196.123437 L 34.000000 198.623437 L 28.000000 198.623437 L 28.000000 196.123437 L 34.000000 196.123437" stroke="gray" fill="white" stroke-width="1px"></path><path d="M 40.000000 196.123437 L 40.000000 198.623437 L 34.000000 198.623437 L 34.000000 196.123437 L 40.000000 196.123437" stroke="gray" fill="white" stroke-width="1px"></path><path d="M 46.000000 196.123437 L 46.000000 198.623437 L 40.000000 198.623437 L 40.000000 196.123437 L 46.000000 196.123437" stroke="gray" fill="white" stroke-width="1px"></path><path d="M 52.000000 196.123437 L 52.000000 198.623437 L 46.000000 198.623437 L 46.000000 196.123437 L 52.000000 196.123437" stroke="gray" fill="white" stroke-width="1px"></path><path d="M 58.000000 196.123437 L 58.000000 198.623437 L 52.000000 198.623437 L 52.000000 196.123437 L 58.000000 196.123437" stroke="gray" fill="white" stroke-width="1px"></path><path d="M 252.107223 208.123437 L 252.107223 210.623437 L 246.107223 210.623437 L 246.107223 208.123437 L 252.107223 208.123437" stroke="gray" fill="white" stroke-width="1px"></path><path d="M 258.107223 208.123437 L 258.107223 210.623437 L 252.107223 210.623437 L 252.107223 208.123437 L 258.107223 208.123437" stroke="gray" fill="white" stroke-width="1px"></path><path d="M 264.107223 208.123437 L 264.107223 210.623437 L 258.107223 210.623437 L 258.107223 208.123437 L 264.107223 208.123437" stroke="gray" fill="white" stroke-width="1px"></path><path d="M 270.107223 208.123437 L 270.107223 210.623437 L 264.107223 210.623437 L 264.107223 208.123437 L 270.107223 208.123437" stroke="gray" fill="white" stroke-width="1px"></path><path d="M 276.107223 208.123437 L 276.107223 210.623437 L 270.107223 210.623437 L 270.107223 208.123437 L 276.107223 208.123437" stroke="gray" fill="white" stroke-width="1px"></path><path d="M 248.932470 196.123437 L 248.932470 198.623437 L 242.932470 198.623437 L 242.932470 196.123437 L 248.932470 196.123437" stroke="gray" fill="white" stroke-width="1px"></path><path d="M 254.932470 196.123437 L 254.932470 198.623437 L 248.932470 198.623437 L 248.932470 196.123437 L 254.932470 196.123437" stroke="gray" fill="white" stroke-width="1px"></path><path d="M 260.932470 196.123437 L 260.932470 198.623437 L 254.932470 198.623437 L 254.932470 196.123437 L 260.932470 196.123437" stroke="gray" fill="white" stroke-width="1px"></path><path d="M 266.932470 196.123437 L 266.932470 198.623437 L 260.932470 198.623437 L 260.932470 196.123437 L 266.932470 196.123437" stroke="gray" fill="white" stroke-width="1px"></path><path d="M 272.932470 196.123437 L 272.932470 198.623437 L 266.932470 198.623437 L 266.932470 196.123437 L 272.932470 196.123437" stroke="gray" fill="white" stroke-width="1px"></path><path d="M 278.932470 196.123437 L 278.932470 198.623437 L 272.932470 198.623437 L 272.932470 196.123437 L 278.932470 196.123437" stroke="gray" fill="white" stroke-width="1px"></path><path d="M 251.737652 160.123437 L 251.737652 162.623437 L 245.737652 162.623437 L 245.737652 160.123437 L 251.737652 160.123437" stroke="gray" fill="white" stroke-width="1px"></path><path d="M 257.737652 160.123437 L 257.737652 162.623437 L 251.737652 162.623437 L 251.737652 160.123437 L 257.737652 160.123437" stroke="gray" fill="white" stroke-width="1px"></path><path d="M 263.737652 160.123437 L 263.737652 162.623437 L 257.737652 162.623437 L 257.737652 160.123437 L 263.737652 160.123437" stroke="gray" fill="white" stroke-width="1px"></path><path d="M 269.737652 160.123437 L 269.737652 162.623437 L 263.737652 162.623437 L 263.737652 160.123437 L 269.737652 160.123437" stroke="gray" fill="white" stroke-width="1px"></path><path d="M 275.737652 160.123437 L 275.737652 162.623437 L 269.737652 162.623437 L 269.737652 160.123437 L 275.737652 160.123437" stroke="gray" fill="white" stroke-width="1px"></path><path d="M 251.737652 148.123437 L 251.737652 150.623437 L 245.737652 150.623437 L 245.737652 148.123437 L 251.737652 148.123437" stroke="gray" fill="white" stroke-width="1px"></path><path d="M 257.737652 148.123437 L 257.737652 150.623437 L 251.737652 150.623437 L 251.737652 148.123437 L 257.737652 148.123437" stroke="gray" fill="white" stroke-width="1px"></path><path d="M 263.737652 148.123437 L 263.737652 150.623437 L 257.737652 150.623437 L 257.737652 148.123437 L 263.737652 148.123437" stroke="gray" fill="white" stroke-width="1px"></path><path d="M 269.737652 148.123437 L 269.737652 150.623437 L 263.737652 150.623437 L 263.737652 148.123437 L 269.737652 148.123437" stroke="gray" fill="white" stroke-width="1px"></path><path d="M 275.737652 148.123437 L 275.737652 150.623437 L 269.737652 150.623437 L 269.737652 148.123437 L 275.737652 148.123437" stroke="gray" fill="white" stroke-width="1px"></path><path d="M 271.459383 16.027156 L 268.959383 16.027156 L 268.959383 22.027156 L 271.459383 22.027156 L 271.459383 16.027156" stroke="gray" fill="white" stroke-width="1px"></path><path d="M 259.459383 20.805515 L 256.959383 20.805515 L 256.959383 26.805515 L 259.459383 26.805515 L 259.459383 20.805515" stroke="gray" fill="white" stroke-width="1px"></path><path d="M 259.459383 14.805515 L 256.959383 14.805515 L 256.959383 20.805515 L 259.459383 20.805515 L 259.459383 14.805515" stroke="gray" fill="white" stroke-width="1px"></path><path d="M 247.459383 25.583873 L 244.959383 25.583873 L 244.959383 31.583873 L 247.459383 31.583873 L 247.459383 25.583873" stroke="gray" fill="white" stroke-width="1px"></path><path d="M 247.459383 19.583873 L 244.959383 19.583873 L 244.959383 25.583873 L 247.459383 25.583873 L 247.459383 19.583873" stroke="gray" fill="white" stroke-width="1px"></path><path d="M 247.459383 13.583873 L 244.959383 13.583873 L 244.959383 19.583873 L 247.459383 19.583873 L 247.459383 13.583873" stroke="gray" fill="white" stroke-width="1px"></path><path d="M 235.459383 33.392472 L 232.959383 33.392472 L 232.959383 39.392472 L 235.459383 39.392472 L 235.459383 33.392472" stroke="gray" fill="white" stroke-width="1px"></path><path d="M 235.459383 27.392472 L 232.959383 27.392472 L 232.959383 33.392472 L 235.459383 33.392472 L 235.459383 27.392472" stroke="gray" fill="white" stroke-width="1px"></path><path d="M 235.459383 21.392472 L 232.959383 21.392472 L 232.959383 27.392472 L 235.459383 27.392472 L 235.459383 21.392472" stroke="gray" fill="white" stroke-width="1px"></path><path d="M 235.459383 15.392472 L 232.959383 15.392472 L 232.959383 21.392472 L 235.459383 21.392472 L 235.459383 15.392472" stroke="gray" fill="white" stroke-width="1px"></path><path d="M 211.459383 101.033125 L 208.959383 101.033125 L 208.959383 107.033125 L 211.459383 107.033125 L 211.459383 101.033125" stroke="gray" fill="white" stroke-width="1px"></path><path d="M 199.459383 101.033125 L 196.959383 101.033125 L 196.959383 107.033125 L 199.459383 107.033125 L 199.459383 101.033125" stroke="gray" fill="white" stroke-width="1px"></path><path d="M 187.459383 101.033125 L 184.959383 101.033125 L 184.959383 107.033125 L 187.459383 107.033125 L 187.459383 101.033125" stroke="gray" fill="white" stroke-width="1px"></path><path d="M 175.459383 101.033125 L 172.959383 101.033125 L 172.959383 107.033125 L 175.459383 107.033125 L 175.459383 101.033125" stroke="gray" fill="white" stroke-width="1px"></path><path d="M 139.459383 101.033125 L 136.959383 101.033125 L 136.959383 107.033125 L 139.459383 107.033125 L 139.459383 101.033125" stroke="gray" fill="white" stroke-width="1px"></path><path d="M 139.459383 95.033125 L 136.959383 95.033125 L 136.959383 101.033125 L 139.459383 101.033125 L 139.459383 95.033125" stroke="gray" fill="white" stroke-width="1px"></path><path d="M 139.459383 89.033125 L 136.959383 89.033125 L 136.959383 95.033125 L 139.459383 95.033125 L 139.459383 89.033125" stroke="gray" fill="white" stroke-width="1px"></path><path d="M 139.459383 83.033125 L 136.959383 83.033125 L 136.959383 89.033125 L 139.459383 89.033125 L 139.459383 83.033125" stroke="gray" fill="white" stroke-width="1px"></path><path d="M 127.459383 101.033125 L 124.959383 101.033125 L 124.959383 107.033125 L 127.459383 107.033125 L 127.459383 101.033125" stroke="gray" fill="white" stroke-width="1px"></path><path d="M 127.459383 95.033125 L 124.959383 95.033125 L 124.959383 101.033125 L 127.459383 101.033125 L 127.459383 95.033125" stroke="gray" fill="white" stroke-width="1px"></path><path d="M 127.459383 89.033125 L 124.959383 89.033125 L 124.959383 95.033125 L 127.459383 95.033125 L 127.459383 89.033125" stroke="gray" fill="white" stroke-width="1px"></path><path d="M 115.459383 101.033125 L 112.959383 101.033125 L 112.959383 107.033125 L 115.459383 107.033125 L 115.459383 101.033125" stroke="gray" fill="white" stroke-width="1px"></path><path d="M 115.459383 95.033125 L 112.959383 95.033125 L 112.959383 101.033125 L 115.459383 101.033125 L 115.459383 95.033125" stroke="gray" fill="white" stroke-width="1px"></path><path d="M 115.459383 89.033125 L 112.959383 89.033125 L 112.959383 95.033125 L 115.459383 95.033125 L 115.459383 89.033125" stroke="gray" fill="white" stroke-width="1px"></path><path d="M 115.459383 83.033125 L 112.959383 83.033125 L 112.959383 89.033125 L 115.459383 89.033125 L 115.459383 83.033125" stroke="gray" fill="white" stroke-width="1px"></path><path d="M 31.459383 107.090312 L 28.959383 107.090312 L 28.959383 113.090312 L 31.459383 113.090312 L 31.459383 107.090312" stroke="gray" fill="white" stroke-width="1px"></path><path d="M 31.459383 101.090312 L 28.959383 101.090312 L 28.959383 107.090312 L 31.459383 107.090312 L 31.459383 101.090312" stroke="gray" fill="white" stroke-width="1px"></path><path d="M 31.459383 95.090312 L 28.959383 95.090312 L 28.959383 101.090312 L 31.459383 101.090312 L 31.459383 95.090312" stroke="gray" fill="white" stroke-width="1px"></path><path d="M 31.459383 89.090312 L 28.959383 89.090312 L 28.959383 95.090312 L 31.459383 95.090312 L 31.459383 89.090312" stroke="gray" fill="white" stroke-width="1px"></path><path d="M 31.459383 83.090312 L 28.959383 83.090312 L 28.959383 89.090312 L 31.459383 89.090312 L 31.459383 83.090312" stroke="gray" fill="white" stroke-width="1px"></path><path d="M 31.459383 77.090312 L 28.959383 77.090312 L 28.959383 83.090312 L 31.459383 83.090312 L 31.459383 77.090312" stroke="gray" fill="white" stroke-width="1px"></path><path d="M 31.459383 71.090312 L 28.959383 71.090312 L 28.959383 77.090312 L 31.459383 77.090312 L 31.459383 71.090312" stroke="gray" fill="white" stroke-width="1px"></path><path d="M 19.459383 107.090312 L 16.959383 107.090312 L 16.959383 113.090312 L 19.459383 113.090312 L 19.459383 107.090312" stroke="gray" fill="white" stroke-width="1px"></path><path d="M 19.459383 101.090312 L 16.959383 101.090312 L 16.959383 107.090312 L 19.459383 107.090312 L 19.459383 101.090312" stroke="gray" fill="white" stroke-width="1px"></path><path d="M 19.459383 95.090312 L 16.959383 95.090312 L 16.959383 101.090312 L 19.459383 101.090312 L 19.459383 95.090312" stroke="gray" fill="white" stroke-width="1px"></path><path d="M 19.459383 89.090312 L 16.959383 89.090312 L 16.959383 95.090312 L 19.459383 95.090312 L 19.459383 89.090312" stroke="gray" fill="white" stroke-width="1px"></path><path d="M 19.459383 83.090312 L 16.959383 83.090312 L 16.959383 89.090312 L 19.459383 89.090312 L 19.459383 83.090312" stroke="gray" fill="white" stroke-width="1px"></path><path d="M 19.459383 77.090312 L 16.959383 77.090312 L 16.959383 83.090312 L 19.459383 83.090312 L 19.459383 77.090312" stroke="gray" fill="white" stroke-width="1px"></path><path d="M 19.459383 71.090312 L 16.959383 71.090312 L 16.959383 77.090312 L 19.459383 77.090312 L 19.459383 71.090312" stroke="gray" fill="white" stroke-width="1px"></path><path d="M 271.459383 16.027156 L 273.959383 16.027156 L 273.959383 22.027156 L 271.459383 22.027156 L 271.459383 16.027156" stroke="gray" fill="white" stroke-width="1px"></path><path d="M 259.459383 20.805515 L 261.959383 20.805515 L 261.959383 26.805515 L 259.459383 26.805515 L 259.459383 20.805515" stroke="gray" fill="white" stroke-width="1px"></path><path d="M 259.459383 14.805515 L 261.959383 14.805515 L 261.959383 20.805515 L 259.459383 20.805515 L 259.459383 14.805515" stroke="gray" fill="white" stroke-width="1px"></path><path d="M 247.459383 25.583873 L 249.959383 25.583873 L 249.959383 31.583873 L 247.459383 31.583873 L 247.459383 25.583873" stroke="gray" fill="white" stroke-width="1px"></path><path d="M 247.459383 19.583873 L 249.959383 19.583873 L 249.959383 25.583873 L 247.459383 25.583873 L 247.459383 19.583873" stroke="gray" fill="white" stroke-width="1px"></path><path d="M 247.459383 13.583873 L 249.959383 13.583873 L 249.959383 19.583873 L 247.459383 19.583873 L 247.459383 13.583873" stroke="gray" fill="white" stroke-width="1px"></path><path d="M 235.459383 33.392472 L 237.959383 33.392472 L 237.959383 39.392472 L 235.459383 39.392472 L 235.459383 33.392472" stroke="gray" fill="white" stroke-width="1px"></path><path d="M 235.459383 27.392472 L 237.959383 27.392472 L 237.959383 33.392472 L 235.459383 33.392472 L 235.459383 27.392472" stroke="gray" fill="white" stroke-width="1px"></path><path d="M 235.459383 21.392472 L 237.959383 21.392472 L 237.959383 27.392472 L 235.459383 27.392472 L 235.459383 21.392472" stroke="gray" fill="white" stroke-width="1px"></path><path d="M 235.459383 15.392472 L 237.959383 15.392472 L 237.959383 21.392472 L 235.459383 21.392472 L 235.459383 15.392472" stroke="gray" fill="white" stroke-width="1px"></path><path d="M 211.459383 101.033125 L 213.959383 101.033125 L 213.959383 107.033125 L 211.459383 107.033125 L 211.459383 101.033125" stroke="gray" fill="white" stroke-width="1px"></path><path d="M 199.459383 101.033125 L 201.959383 101.033125 L 201.959383 107.033125 L 199.459383 107.033125 L 199.459383 101.033125" stroke="gray" fill="white" stroke-width="1px"></path><path d="M 187.459383 101.033125 L 189.959383 101.033125 L 189.959383 107.033125 L 187.459383 107.033125 L 187.459383 101.033125" stroke="gray" fill="white" stroke-width="1px"></path><path d="M 175.459383 101.033125 L 177.959383 101.033125 L 177.959383 107.033125 L 175.459383 107.033125 L 175.459383 101.033125" stroke="gray" fill="white" stroke-width="1px"></path><path d="M 139.459383 101.033125 L 141.959383 101.033125 L 141.959383 107.033125 L 139.459383 107.033125 L 139.459383 101.033125" stroke="gray" fill="white" stroke-width="1px"></path><path d="M 139.459383 95.033125 L 141.959383 95.033125 L 141.959383 101.033125 L 139.459383 101.033125 L 139.459383 95.033125" stroke="gray" fill="white" stroke-width="1px"></path><path d="M 139.459383 89.033125 L 141.959383 89.033125 L 141.959383 95.033125 L 139.459383 95.033125 L 139.459383 89.033125" stroke="gray" fill="white" stroke-width="1px"></path><path d="M 139.459383 83.033125 L 141.959383 83.033125 L 141.959383 89.033125 L 139.459383 89.033125 L 139.459383 83.033125" stroke="gray" fill="white" stroke-width="1px"></path><path d="M 127.459383 101.033125 L 129.959383 101.033125 L 129.959383 107.033125 L 127.459383 107.033125 L 127.459383 101.033125" stroke="gray" fill="white" stroke-width="1px"></path><path d="M 127.459383 95.033125 L 129.959383 95.033125 L 129.959383 101.033125 L 127.459383 101.033125 L 127.459383 95.033125" stroke="gray" fill="white" stroke-width="1px"></path><path d="M 127.459383 89.033125 L 129.959383 89.033125 L 129.959383 95.033125 L 127.459383 95.033125 L 127.459383 89.033125" stroke="gray" fill="white" stroke-width="1px"></path><path d="M 115.459383 101.033125 L 117.959383 101.033125 L 117.959383 107.033125 L 115.459383 107.033125 L 115.459383 101.033125" stroke="gray" fill="white" stroke-width="1px"></path><path d="M 115.459383 95.033125 L 117.959383 95.033125 L 117.959383 101.033125 L 115.459383 101.033125 L 115.459383 95.033125" stroke="gray" fill="white" stroke-width="1px"></path><path d="M 115.459383 89.033125 L 117.959383 89.033125 L 117.959383 95.033125 L 115.459383 95.033125 L 115.459383 89.033125" stroke="gray" fill="white" stroke-width="1px"></path><path d="M 115.459383 83.033125 L 117.959383 83.033125 L 117.959383 89.033125 L 115.459383 89.033125 L 115.459383 83.033125" stroke="gray" fill="white" stroke-width="1px"></path><path d="M 31.459383 107.090312 L 33.959383 107.090312 L 33.959383 113.090312 L 31.459383 113.090312 L 31.459383 107.090312" stroke="gray" fill="white" stroke-width="1px"></path><path d="M 31.459383 101.090312 L 33.959383 101.090312 L 33.959383 107.090312 L 31.459383 107.090312 L 31.459383 101.090312" stroke="gray" fill="white" stroke-width="1px"></path><path d="M 31.459383 95.090312 L 33.959383 95.090312 L 33.959383 101.090312 L 31.459383 101.090312 L 31.459383 95.090312" stroke="gray" fill="white" stroke-width="1px"></path><path d="M 31.459383 89.090312 L 33.959383 89.090312 L 33.959383 95.090312 L 31.459383 95.090312 L 31.459383 89.090312" stroke="gray" fill="white" stroke-width="1px"></path><path d="M 31.459383 83.090312 L 33.959383 83.090312 L 33.959383 89.090312 L 31.459383 89.090312 L 31.459383 83.090312" stroke="gray" fill="white" stroke-width="1px"></path><path d="M 31.459383 77.090312 L 33.959383 77.090312 L 33.959383 83.090312 L 31.459383 83.090312 L 31.459383 77.090312" stroke="gray" fill="white" stroke-width="1px"></path><path d="M 31.459383 71.090312 L 33.959383 71.090312 L 33.959383 77.090312 L 31.459383 77.090312 L 31.459383 71.090312" stroke="gray" fill="white" stroke-width="1px"></path><path d="M 19.459383 107.090312 L 21.959383 107.090312 L 21.959383 113.090312 L 19.459383 113.090312 L 19.459383 107.090312" stroke="gray" fill="white" stroke-width="1px"></path><path d="M 19.459383 101.090312 L 21.959383 101.090312 L 21.959383 107.090312 L 19.459383 107.090312 L 19.459383 101.090312" stroke="gray" fill="white" stroke-width="1px"></path><path d="M 19.459383 95.090312 L 21.959383 95.090312 L 21.959383 101.090312 L 19.459383 101.090312 L 19.459383 95.090312" stroke="gray" fill="white" stroke-width="1px"></path><path d="M 19.459383 89.090312 L 21.959383 89.090312 L 21.959383 95.090312 L 19.459383 95.090312 L 19.459383 89.090312" stroke="gray" fill="white" stroke-width="1px"></path><path d="M 19.459383 83.090312 L 21.959383 83.090312 L 21.959383 89.090312 L 19.459383 89.090312 L 19.459383 83.090312" stroke="gray" fill="white" stroke-width="1px"></path><path d="M 19.459383 77.090312 L 21.959383 77.090312 L 21.959383 83.090312 L 19.459383 83.090312 L 19.459383 77.090312" stroke="gray" fill="white" stroke-width="1px"></path><path d="M 19.459383 71.090312 L 21.959383 71.090312 L 21.959383 77.090312 L 19.459383 77.090312 L 19.459383 71.090312" stroke="gray" fill="white" stroke-width="1px"></path><path d="M 266.748200 101.263579 L 266.748200 98.763579 L 260.748200 98.763579 L 260.748200 101.263579 L 266.748200 101.263579" stroke="gray" fill="white" stroke-width="1px"></path><path d="M 272.748200 101.263579 L 272.748200 98.763579 L 266.748200 98.763579 L 266.748200 101.263579 L 272.748200 101.263579" stroke="gray" fill="white" stroke-width="1px"></path><path d="M 278.748200 101.263579 L 278.748200 98.763579 L 272.748200 98.763579 L 272.748200 101.263579 L 278.748200 101.263579" stroke="gray" fill="white" stroke-width="1px"></path><path d="M 264.355782 89.263579 L 264.355782 86.763579 L 258.355782 86.763579 L 258.355782 89.263579 L 264.355782 89.263579" stroke="gray" fill="white" stroke-width="1px"></path><path d="M 270.355782 89.263579 L 270.355782 86.763579 L 264.355782 86.763579 L 264.355782 89.263579 L 270.355782 89.263579" stroke="gray" fill="white" stroke-width="1px"></path><path d="M 276.355782 89.263579 L 276.355782 86.763579 L 270.355782 86.763579 L 270.355782 89.263579 L 276.355782 89.263579" stroke="gray" fill="white" stroke-width="1px"></path><path d="M 261.963365 77.263579 L 261.963365 74.763579 L 255.963365 74.763579 L 255.963365 77.263579 L 261.963365 77.263579" stroke="gray" fill="white" stroke-width="1px"></path><path d="M 267.963365 77.263579 L 267.963365 74.763579 L 261.963365 74.763579 L 261.963365 77.263579 L 267.963365 77.263579" stroke="gray" fill="white" stroke-width="1px"></path><path d="M 273.963365 77.263579 L 273.963365 74.763579 L 267.963365 74.763579 L 267.963365 77.263579 L 273.963365 77.263579" stroke="gray" fill="white" stroke-width="1px"></path><path d="M 276.544439 65.263579 L 276.544439 62.763579 L 270.544439 62.763579 L 270.544439 65.263579 L 276.544439 65.263579" stroke="gray" fill="white" stroke-width="1px"></path><path d="M 226.228575 101.263579 L 226.228575 98.763579 L 220.228575 98.763579 L 220.228575 101.263579 L 226.228575 101.263579" stroke="gray" fill="white" stroke-width="1px"></path><path d="M 232.228575 101.263579 L 232.228575 98.763579 L 226.228575 98.763579 L 226.228575 101.263579 L 232.228575 101.263579" stroke="gray" fill="white" stroke-width="1px"></path><path d="M 238.228575 101.263579 L 238.228575 98.763579 L 232.228575 98.763579 L 232.228575 101.263579 L 238.228575 101.263579" stroke="gray" fill="white" stroke-width="1px"></path><path d="M 244.228575 101.263579 L 244.228575 98.763579 L 238.228575 98.763579 L 238.228575 101.263579 L 244.228575 101.263579" stroke="gray" fill="white" stroke-width="1px"></path><path d="M 250.228575 101.263579 L 250.228575 98.763579 L 244.228575 98.763579 L 244.228575 101.263579 L 250.228575 101.263579" stroke="gray" fill="white" stroke-width="1px"></path><path d="M 223.555118 89.263579 L 223.555118 86.763579 L 217.555118 86.763579 L 217.555118 89.263579 L 223.555118 89.263579" stroke="gray" fill="white" stroke-width="1px"></path><path d="M 229.555118 89.263579 L 229.555118 86.763579 L 223.555118 86.763579 L 223.555118 89.263579 L 229.555118 89.263579" stroke="gray" fill="white" stroke-width="1px"></path><path d="M 235.555118 89.263579 L 235.555118 86.763579 L 229.555118 86.763579 L 229.555118 89.263579 L 235.555118 89.263579" stroke="gray" fill="white" stroke-width="1px"></path><path d="M 241.555118 89.263579 L 241.555118 86.763579 L 235.555118 86.763579 L 235.555118 89.263579 L 241.555118 89.263579" stroke="gray" fill="white" stroke-width="1px"></path><path d="M 247.555118 89.263579 L 247.555118 86.763579 L 241.555118 86.763579 L 241.555118 89.263579 L 247.555118 89.263579" stroke="gray" fill="white" stroke-width="1px"></path><path d="M 22.000000 41.263579 L 22.000000 38.763579 L 16.000000 38.763579 L 16.000000 41.263579 L 22.000000 41.263579" stroke="gray" fill="white" stroke-width="1px"></path><path d="M 28.000000 41.263579 L 28.000000 38.763579 L 22.000000 38.763579 L 22.000000 41.263579 L 28.000000 41.263579" stroke="gray" fill="white" stroke-width="1px"></path><path d="M 34.000000 41.263579 L 34.000000 38.763579 L 28.000000 38.763579 L 28.000000 41.263579 L 34.000000 41.263579" stroke="gray" fill="white" stroke-width="1px"></path><path d="M 40.000000 41.263579 L 40.000000 38.763579 L 34.000000 38.763579 L 34.000000 41.263579 L 40.000000 41.263579" stroke="gray" fill="white" stroke-width="1px"></path><path d="M 46.000000 41.263579 L 46.000000 38.763579 L 40.000000 38.763579 L 40.000000 41.263579 L 46.000000 41.263579" stroke="gray" fill="white" stroke-width="1px"></path><path d="M 52.000000 41.263579 L 52.000000 38.763579 L 46.000000 38.763579 L 46.000000 41.263579 L 52.000000 41.263579" stroke="gray" fill="white" stroke-width="1px"></path><path d="M 22.000000 29.263579 L 22.000000 26.763579 L 16.000000 26.763579 L 16.000000 29.263579 L 22.000000 29.263579" stroke="gray" fill="white" stroke-width="1px"></path><path d="M 28.000000 29.263579 L 28.000000 26.763579 L 22.000000 26.763579 L 22.000000 29.263579 L 28.000000 29.263579" stroke="gray" fill="white" stroke-width="1px"></path><path d="M 34.000000 29.263579 L 34.000000 26.763579 L 28.000000 26.763579 L 28.000000 29.263579 L 34.000000 29.263579" stroke="gray" fill="white" stroke-width="1px"></path><path d="M 40.000000 29.263579 L 40.000000 26.763579 L 34.000000 26.763579 L 34.000000 29.263579 L 40.000000 29.263579" stroke="gray" fill="white" stroke-width="1px"></path><path d="M 46.000000 29.263579 L 46.000000 26.763579 L 40.000000 26.763579 L 40.000000 29.263579 L 46.000000 29.263579" stroke="gray" fill="white" stroke-width="1px"></path><path d="M 52.000000 29.263579 L 52.000000 26.763579 L 46.000000 26.763579 L 46.000000 29.263579 L 52.000000 29.263579" stroke="gray" fill="white" stroke-width="1px"></path><path d="M 58.000000 29.263579 L 58.000000 26.763579 L 52.000000 26.763579 L 52.000000 29.263579 L 58.000000 29.263579" stroke="gray" fill="white" stroke-width="1px"></path><path d="M 22.000000 17.263579 L 22.000000 14.763579 L 16.000000 14.763579 L 16.000000 17.263579 L 22.000000 17.263579" stroke="gray" fill="white" stroke-width="1px"></path><path d="M 28.000000 17.263579 L 28.000000 14.763579 L 22.000000 14.763579 L 22.000000 17.263579 L 28.000000 17.263579" stroke="gray" fill="white" stroke-width="1px"></path><path d="M 34.000000 17.263579 L 34.000000 14.763579 L 28.000000 14.763579 L 28.000000 17.263579 L 34.000000 17.263579" stroke="gray" fill="white" stroke-width="1px"></path><path d="M 40.000000 17.263579 L 40.000000 14.763579 L 34.000000 14.763579 L 34.000000 17.263579 L 40.000000 17.263579" stroke="gray" fill="white" stroke-width="1px"></path><path d="M 46.000000 17.263579 L 46.000000 14.763579 L 40.000000 14.763579 L 40.000000 17.263579 L 46.000000 17.263579" stroke="gray" fill="white" stroke-width="1px"></path><path d="M 52.000000 17.263579 L 52.000000 14.763579 L 46.000000 14.763579 L 46.000000 17.263579 L 52.000000 17.263579" stroke="gray" fill="white" stroke-width="1px"></path><path d="M 58.000000 17.263579 L 58.000000 14.763579 L 52.000000 14.763579 L 52.000000 17.263579 L 58.000000 17.263579" stroke="gray" fill="white" stroke-width="1px"></path><path d="M 266.748200 101.263579 L 266.748200 103.763579 L 260.748200 103.763579 L 260.748200 101.263579 L 266.748200 101.263579" stroke="gray" fill="white" stroke-width="1px"></path><path d="M 272.748200 101.263579 L 272.748200 103.763579 L 266.748200 103.763579 L 266.748200 101.263579 L 272.748200 101.263579" stroke="gray" fill="white" stroke-width="1px"></path><path d="M 278.748200 101.263579 L 278.748200 103.763579 L 272.748200 103.763579 L 272.748200 101.263579 L 278.748200 101.263579" stroke="gray" fill="white" stroke-width="1px"></path><path d="M 264.355782 89.263579 L 264.355782 91.763579 L 258.355782 91.763579 L 258.355782 89.263579 L 264.355782 89.263579" stroke="gray" fill="white" stroke-width="1px"></path><path d="M 270.355782 89.263579 L 270.355782 91.763579 L 264.355782 91.763579 L 264.355782 89.263579 L 270.355782 89.263579" stroke="gray" fill="white" stroke-width="1px"></path><path d="M 276.355782 89.263579 L 276.355782 91.763579 L 270.355782 91.763579 L 270.355782 89.263579 L 276.355782 89.263579" stroke="gray" fill="white" stroke-width="1px"></path><path d="M 261.963365 77.263579 L 261.963365 79.763579 L 255.963365 79.763579 L 255.963365 77.263579 L 261.963365 77.263579" stroke="gray" fill="white" stroke-width="1px"></path><path d="M 267.963365 77.263579 L 267.963365 79.763579 L 261.963365 79.763579 L 261.963365 77.263579 L 267.963365 77.263579" stroke="gray" fill="white" stroke-width="1px"></path><path d="M 273.963365 77.263579 L 273.963365 79.763579 L 267.963365 79.763579 L 267.963365 77.263579 L 273.963365 77.263579" stroke="gray" fill="white" stroke-width="1px"></path><path d="M 276.544439 65.263579 L 276.544439 67.763579 L 270.544439 67.763579 L 270.544439 65.263579 L 276.544439 65.263579" stroke="gray" fill="white" stroke-width="1px"></path><path d="M 226.228575 101.263579 L 226.228575 103.763579 L 220.228575 103.763579 L 220.228575 101.263579 L 226.228575 101.263579" stroke="gray" fill="white" stroke-width="1px"></path><path d="M 232.228575 101.263579 L 232.228575 103.763579 L 226.228575 103.763579 L 226.228575 101.263579 L 232.228575 101.263579" stroke="gray" fill="white" stroke-width="1px"></path><path d="M 238.228575 101.263579 L 238.228575 103.763579 L 232.228575 103.763579 L 232.228575 101.263579 L 238.228575 101.263579" stroke="gray" fill="white" stroke-width="1px"></path><path d="M 244.228575 101.263579 L 244.228575 103.763579 L 238.228575 103.763579 L 238.228575 101.263579 L 244.228575 101.263579" stroke="gray" fill="white" stroke-width="1px"></path><path d="M 250.228575 101.263579 L 250.228575 103.763579 L 244.228575 103.763579 L 244.228575 101.263579 L 250.228575 101.263579" stroke="gray" fill="white" stroke-width="1px"></path><path d="M 223.555118 89.263579 L 223.555118 91.763579 L 217.555118 91.763579 L 217.555118 89.263579 L 223.555118 89.263579" stroke="gray" fill="white" stroke-width="1px"></path><path d="M 229.555118 89.263579 L 229.555118 91.763579 L 223.555118 91.763579 L 223.555118 89.263579 L 229.555118 89.263579" stroke="gray" fill="white" stroke-width="1px"></path><path d="M 235.555118 89.263579 L 235.555118 91.763579 L 229.555118 91.763579 L 229.555118 89.263579 L 235.555118 89.263579" stroke="gray" fill="white" stroke-width="1px"></path><path d="M 241.555118 89.263579 L 241.555118 91.763579 L 235.555118 91.763579 L 235.555118 89.263579 L 241.555118 89.263579" stroke="gray" fill="white" stroke-width="1px"></path><path d="M 247.555118 89.263579 L 247.555118 91.763579 L 241.555118 91.763579 L 241.555118 89.263579 L 247.555118 89.263579" stroke="gray" fill="white" stroke-width="1px"></path><path d="M 22.000000 41.263579 L 22.000000 43.763579 L 16.000000 43.763579 L 16.000000 41.263579 L 22.000000 41.263579" stroke="gray" fill="white" stroke-width="1px"></path><path d="M 28.000000 41.263579 L 28.000000 43.763579 L 22.000000 43.763579 L 22.000000 41.263579 L 28.000000 41.263579" stroke="gray" fill="white" stroke-width="1px"></path><path d="M 34.000000 41.263579 L 34.000000 43.763579 L 28.000000 43.763579 L 28.000000 41.263579 L 34.000000 41.263579" stroke="gray" fill="white" stroke-width="1px"></path><path d="M 40.000000 41.263579 L 40.000000 43.763579 L 34.000000 43.763579 L 34.000000 41.263579 L 40.000000 41.263579" stroke="gray" fill="white" stroke-width="1px"></path><path d="M 46.000000 41.263579 L 46.000000 43.763579 L 40.000000 43.763579 L 40.000000 41.263579 L 46.000000 41.263579" stroke="gray" fill="white" stroke-width="1px"></path><path d="M 52.000000 41.263579 L 52.000000 43.763579 L 46.000000 43.763579 L 46.000000 41.263579 L 52.000000 41.263579" stroke="gray" fill="white" stroke-width="1px"></path><path d="M 22.000000 29.263579 L 22.000000 31.763579 L 16.000000 31.763579 L 16.000000 29.263579 L 22.000000 29.263579" stroke="gray" fill="white" stroke-width="1px"></path><path d="M 28.000000 29.263579 L 28.000000 31.763579 L 22.000000 31.763579 L 22.000000 29.263579 L 28.000000 29.263579" stroke="gray" fill="white" stroke-width="1px"></path><path d="M 34.000000 29.263579 L 34.000000 31.763579 L 28.000000 31.763579 L 28.000000 29.263579 L 34.000000 29.263579" stroke="gray" fill="white" stroke-width="1px"></path><path d="M 40.000000 29.263579 L 40.000000 31.763579 L 34.000000 31.763579 L 34.000000 29.263579 L 40.000000 29.263579" stroke="gray" fill="white" stroke-width="1px"></path><path d="M 46.000000 29.263579 L 46.000000 31.763579 L 40.000000 31.763579 L 40.000000 29.263579 L 46.000000 29.263579" stroke="gray" fill="white" stroke-width="1px"></path><path d="M 52.000000 29.263579 L 52.000000 31.763579 L 46.000000 31.763579 L 46.000000 29.263579 L 52.000000 29.263579" stroke="gray" fill="white" stroke-width="1px"></path><path d="M 58.000000 29.263579 L 58.000000 31.763579 L 52.000000 31.763579 L 52.000000 29.263579 L 58.000000 29.263579" stroke="gray" fill="white" stroke-width="1px"></path><path d="M 22.000000 17.263579 L 22.000000 19.763579 L 16.000000 19.763579 L 16.000000 17.263579 L 22.000000 17.263579" stroke="gray" fill="white" stroke-width="1px"></path><path d="M 28.000000 17.263579 L 28.000000 19.763579 L 22.000000 19.763579 L 22.000000 17.263579 L 28.000000 17.263579" stroke="gray" fill="white" stroke-width="1px"></path><path d="M 34.000000 17.263579 L 34.000000 19.763579 L 28.000000 19.763579 L 28.000000 17.263579 L 34.000000 17.263579" stroke="gray" fill="white" stroke-width="1px"></path><path d="M 40.000000 17.263579 L 40.000000 19.763579 L 34.000000 19.763579 L 34.000000 17.263579 L 40.000000 17.263579" stroke="gray" fill="white" stroke-width="1px"></path><path d="M 46.000000 17.263579 L 46.000000 19.763579 L 40.000000 19.763579 L 40.000000 17.263579 L 46.000000 17.263579" stroke="gray" fill="white" stroke-width="1px"></path><path d="M 52.000000 17.263579 L 52.000000 19.763579 L 46.000000 19.763579 L 46.000000 17.263579 L 52.000000 17.263579" stroke="gray" fill="white" stroke-width="1px"></path><path d="M 58.000000 17.263579 L 58.000000 19.763579 L 52.000000 19.763579 L 52.000000 17.263579 L 58.000000 17.263579" stroke="gray" fill="white" stroke-width="1px"></path></g><g id="crv-base"><path d="M 221.371570 123.090312 L 221.371570 169.241094 L 120.000633 169.241094 L 120.000633 156.444206 L 126.051258 156.444206 L 126.051258 128.832500 L 123.590320 128.832500 L 123.590320 125.551250 L 126.051258 125.551250 L 126.051258 123.858132 L 91.315945 123.858125 L 91.315945 134.738750 L 64.258762 134.738750 L 64.258762 123.687497 L 10.000000 123.687497 L 10.000000 226.180625 L 64.258758 226.180625 L 64.258758 192.357500 L 91.315945 192.357500 L 91.315945 220.123437 L 283.459383 220.123437 L 283.459383 123.090312 L 221.371570 123.090312" stroke="black" fill="none" stroke-width="1px"></path><path d="M 221.371570 10.000000 L 221.371570 56.150781 L 120.000633 56.150781 L 120.000633 43.353893 L 126.051258 43.353893 L 126.051258 15.742187 L 123.590320 15.742187 L 123.590320 12.460937 L 126.051258 12.460937 L 126.051258 10.767819 L 91.315945 10.767812 L 91.315945 21.648438 L 64.258762 21.648438 L 64.258762 10.597185 L 10.000000 10.597185 L 10.000000 113.090312 L 64.258758 113.090312 L 64.258758 79.267187 L 91.315945 79.267187 L 91.315945 107.033125 L 283.459383 107.033125 L 283.459383 10.000000 L 221.371570 10.000000" stroke="black" fill="none" stroke-width="1px"></path><path d="M 10.387195 156.559062 L 10.387195 154.590312 L 12.355945 154.590312 L 12.355945 156.559062 L 10.387195 156.559062" stroke="black" fill="white" stroke-width="1px"></path><path d="M 10.387195 43.468750 L 10.387195 41.500000 L 12.355945 41.500000 L 12.355945 43.468750 L 10.387195 43.468750" stroke="black" fill="white" stroke-width="1px"></path><path d="M 10.387195 188.059062 L 10.387195 186.090312 L 12.355945 186.090312 L 12.355945 188.059062 L 10.387195 188.059062" stroke="black" fill="white" stroke-width="1px"></path><path d="M 10.387195 74.968750 L 10.387195 73.000000 L 12.355945 73.000000 L 12.355945 74.968750 L 10.387195 74.968750" stroke="black" fill="white" stroke-width="1px"></path><path d="M 10.387195 219.559062 L 10.387195 217.590312 L 12.355945 217.590312 L 12.355945 219.559062 L 10.387195 219.559062" stroke="black" fill="white" stroke-width="1px"></path><path d="M 10.387195 106.468750 L 10.387195 104.500000 L 12.355945 104.500000 L 12.355945 106.468750 L 10.387195 106.468750" stroke="black" fill="white" stroke-width="1px"></path><path d="M 60.754383 128.340312 L 60.754383 125.387187 L 63.871570 125.387187 L 63.871570 128.340312 L 60.754383 128.340312" stroke="black" fill="white" stroke-width="1px"></path><path d="M 60.754383 15.250000 L 60.754383 12.296875 L 63.871570 12.296875 L 63.871570 15.250000 L 60.754383 15.250000" stroke="black" fill="white" stroke-width="1px"></path><path d="M 280.598133 219.230937 L 280.598133 217.262187 L 282.566883 217.262187 L 282.566883 219.230937 L 280.598133 219.230937" stroke="black" fill="white" stroke-width="1px"></path><path d="M 280.598133 106.140625 L 280.598133 104.171875 L 282.566883 104.171875 L 282.566883 106.140625 L 280.598133 106.140625" stroke="black" fill="white" stroke-width="1px"></path><path d="M 280.598133 188.059062 L 280.598133 186.090312 L 282.566883 186.090312 L 282.566883 188.059062 L 280.598133 188.059062" stroke="black" fill="white" stroke-width="1px"></path><path d="M 280.598133 74.968750 L 280.598133 73.000000 L 282.566883 73.000000 L 282.566883 74.968750 L 280.598133 74.968750" stroke="black" fill="white" stroke-width="1px"></path><path d="M 280.598133 156.559050 L 280.598133 154.590300 L 282.566883 154.590300 L 282.566883 156.559050 L 280.598133 156.559050" stroke="black" fill="white" stroke-width="1px"></path><path d="M 280.598133 43.468737 L 280.598133 41.499987 L 282.566883 41.499987 L 282.566883 43.468737 L 280.598133 43.468737" stroke="black" fill="white" stroke-width="1px"></path><path d="M 248.605945 127.355937 L 248.605945 123.418437 L 251.887195 123.418437 L 251.887195 127.355937 L 248.605945 127.355937" stroke="black" fill="white" stroke-width="1px"></path><path d="M 248.605945 14.265625 L 248.605945 10.328125 L 251.887195 10.328125 L 251.887195 14.265625 L 248.605945 14.265625" stroke="black" fill="white" stroke-width="1px"></path><path d="M 248.605945 157.871562 L 248.605945 153.934062 L 251.887195 153.934062 L 251.887195 157.871562 L 248.605945 157.871562" stroke="black" fill="white" stroke-width="1px"></path><path d="M 248.605945 44.781250 L 248.605945 40.843750 L 251.887195 40.843750 L 251.887195 44.781250 L 248.605945 44.781250" stroke="black" fill="white" stroke-width="1px"></path><path d="M 248.605945 189.043437 L 248.605945 185.105937 L 251.887195 185.105937 L 251.887195 189.043437 L 248.605945 189.043437" stroke="black" fill="white" stroke-width="1px"></path><path d="M 248.605945 75.953125 L 248.605945 72.015625 L 251.887195 72.015625 L 251.887195 75.953125 L 248.605945 75.953125" stroke="black" fill="white" stroke-width="1px"></path><path d="M 248.934070 219.230937 L 248.934070 216.277812 L 251.887195 216.277812 L 251.887195 219.230937 L 248.934070 219.230937" stroke="black" fill="white" stroke-width="1px"></path><path d="M 248.934070 106.140625 L 248.934070 103.187500 L 251.887195 103.187500 L 251.887195 106.140625 L 248.934070 106.140625" stroke="black" fill="white" stroke-width="1px"></path><path d="M 218.090320 189.043437 L 218.090320 185.105937 L 221.371570 185.105937 L 221.371570 189.043437 L 218.090320 189.043437" stroke="black" fill="white" stroke-width="1px"></path><path d="M 218.090320 75.953125 L 218.090320 72.015625 L 221.371570 72.015625 L 221.371570 75.953125 L 218.090320 75.953125" stroke="black" fill="white" stroke-width="1px"></path><path d="M 218.254383 219.230937 L 218.254383 216.277812 L 221.207508 216.277812 L 221.207508 219.230937 L 218.254383 219.230937" stroke="black" fill="white" stroke-width="1px"></path><path d="M 218.254383 106.140625 L 218.254383 103.187500 L 221.207508 103.187500 L 221.207508 106.140625 L 218.254383 106.140625" stroke="black" fill="white" stroke-width="1px"></path><path d="M 186.590320 189.043437 L 186.590320 185.105937 L 189.871570 185.105937 L 189.871570 189.043437 L 186.590320 189.043437" stroke="black" fill="white" stroke-width="1px"></path><path d="M 186.590320 75.953125 L 186.590320 72.015625 L 189.871570 72.015625 L 189.871570 75.953125 L 186.590320 75.953125" stroke="black" fill="white" stroke-width="1px"></path><path d="M 186.754383 219.230937 L 186.754383 216.277812 L 189.707508 216.277812 L 189.707508 219.230937 L 186.754383 219.230937" stroke="black" fill="white" stroke-width="1px"></path><path d="M 186.754383 106.140625 L 186.754383 103.187500 L 189.707508 103.187500 L 189.707508 106.140625 L 186.754383 106.140625" stroke="black" fill="white" stroke-width="1px"></path><path d="M 155.090320 189.043437 L 155.090320 185.105937 L 158.371570 185.105937 L 158.371570 189.043437 L 155.090320 189.043437" stroke="black" fill="white" stroke-width="1px"></path><path d="M 155.090320 75.953125 L 155.090320 72.015625 L 158.371570 72.015625 L 158.371570 75.953125 L 155.090320 75.953125" stroke="black" fill="white" stroke-width="1px"></path><path d="M 155.254383 219.230937 L 155.254383 216.277812 L 158.207508 216.277812 L 158.207508 219.230937 L 155.254383 219.230937" stroke="black" fill="white" stroke-width="1px"></path><path d="M 155.254383 106.140625 L 155.254383 103.187500 L 158.207508 103.187500 L 158.207508 106.140625 L 155.254383 106.140625" stroke="black" fill="white" stroke-width="1px"></path><path d="M 123.590320 189.043437 L 123.590320 185.105937 L 126.871570 185.105937 L 126.871570 189.043437 L 123.590320 189.043437" stroke="black" fill="white" stroke-width="1px"></path><path d="M 123.590320 75.953125 L 123.590320 72.015625 L 126.871570 72.015625 L 126.871570 75.953125 L 123.590320 75.953125" stroke="black" fill="white" stroke-width="1px"></path><path d="M 123.754383 219.230937 L 123.754383 216.277812 L 126.707508 216.277812 L 126.707508 219.230937 L 123.754383 219.230937" stroke="black" fill="white" stroke-width="1px"></path><path d="M 123.754383 106.140625 L 123.754383 103.187500 L 126.707508 103.187500 L 126.707508 106.140625 L 123.754383 106.140625" stroke="black" fill="white" stroke-width="1px"></path><path d="M 92.090320 157.543437 L 92.090320 153.605937 L 95.371570 153.605937 L 95.371570 157.543437 L 92.090320 157.543437" stroke="black" fill="white" stroke-width="1px"></path><path d="M 92.090320 44.453125 L 92.090320 40.515625 L 95.371570 40.515625 L 95.371570 44.453125 L 92.090320 44.453125" stroke="black" fill="white" stroke-width="1px"></path><path d="M 92.090320 189.043437 L 92.090320 185.105937 L 95.371570 185.105937 L 95.371570 189.043437 L 92.090320 189.043437" stroke="black" fill="white" stroke-width="1px"></path><path d="M 92.090320 75.953125 L 92.090320 72.015625 L 95.371570 72.015625 L 95.371570 75.953125 L 92.090320 75.953125" stroke="black" fill="white" stroke-width="1px"></path><path d="M 92.090320 128.504375 L 92.090320 125.551250 L 95.207508 125.551250 L 95.207508 128.504375 L 92.090320 128.504375" stroke="black" fill="white" stroke-width="1px"></path><path d="M 92.090320 15.414062 L 92.090320 12.460937 L 95.207508 12.460937 L 95.207508 15.414062 L 92.090320 15.414062" stroke="black" fill="white" stroke-width="1px"></path><path d="M 60.590320 157.215312 L 60.590320 153.934062 L 63.871570 153.934062 L 63.871570 157.215312 L 60.590320 157.215312" stroke="black" fill="white" stroke-width="1px"></path><path d="M 60.590320 44.125000 L 60.590320 40.843750 L 63.871570 40.843750 L 63.871570 44.125000 L 60.590320 44.125000" stroke="black" fill="white" stroke-width="1px"></path><path d="M 60.754383 219.230937 L 60.754383 216.277812 L 63.871570 216.277812 L 63.871570 219.230937 L 60.754383 219.230937" stroke="black" fill="white" stroke-width="1px"></path><path d="M 60.754383 106.140625 L 60.754383 103.187500 L 63.871570 103.187500 L 63.871570 106.140625 L 60.754383 106.140625" stroke="black" fill="white" stroke-width="1px"></path><path d="M 30.074695 128.504375 L 30.074695 125.223125 L 33.027820 125.223125 L 33.027820 128.504375 L 30.074695 128.504375" stroke="black" fill="white" stroke-width="1px"></path><path d="M 30.074695 15.414062 L 30.074695 12.132812 L 33.027820 12.132812 L 33.027820 15.414062 L 30.074695 15.414062" stroke="black" fill="white" stroke-width="1px"></path><path d="M 30.074695 157.215312 L 30.074695 153.934062 L 33.355945 153.934062 L 33.355945 157.215312 L 30.074695 157.215312" stroke="black" fill="white" stroke-width="1px"></path><path d="M 30.074695 44.125000 L 30.074695 40.843750 L 33.355945 40.843750 L 33.355945 44.125000 L 30.074695 44.125000" stroke="black" fill="white" stroke-width="1px"></path><path d="M 30.074695 188.715312 L 30.074695 185.434062 L 33.355945 185.434062 L 33.355945 188.715312 L 30.074695 188.715312" stroke="black" fill="white" stroke-width="1px"></path><path d="M 30.074695 75.625000 L 30.074695 72.343750 L 33.355945 72.343750 L 33.355945 75.625000 L 30.074695 75.625000" stroke="black" fill="white" stroke-width="1px"></path><path d="M 30.074695 219.230937 L 30.074695 216.277812 L 33.027820 216.277812 L 33.027820 219.230937 L 30.074695 219.230937" stroke="black" fill="white" stroke-width="1px"></path><path d="M 30.074695 106.140625 L 30.074695 103.187500 L 33.027820 103.187500 L 33.027820 106.140625 L 30.074695 106.140625" stroke="black" fill="white" stroke-width="1px"></path><path d="M 10.387195 127.191875 L 10.387195 125.223125 L 12.355945 125.223125 L 12.355945 127.191875 L 10.387195 127.191875" stroke="black" fill="white" stroke-width="1px"></path><path d="M 10.387195 14.101562 L 10.387195 12.132812 L 12.355945 12.132812 L 12.355945 14.101562 L 10.387195 14.101562" stroke="black" fill="white" stroke-width="1px"></path><path d="M 60.590320 189.863750 L 60.590320 185.434062 L 63.871570 185.434062 L 63.871570 188.715312 L 62.230945 188.715312 L 62.230945 189.863750 L 60.590320 189.863750" stroke="black" fill="white" stroke-width="1px"></path><path d="M 60.590320 76.773437 L 60.590320 72.343750 L 63.871570 72.343750 L 63.871570 75.625000 L 62.230945 75.625000 L 62.230945 76.773437 L 60.590320 76.773437" stroke="black" fill="white" stroke-width="1px"></path></g></svg>