<svg width="293.459383" height="236.180625" xmlns="http://www.w3.org/2000/svg" xmlns:xlink="http://www.w3.org/1999/xlink" version="1.1"><g id="crv-background"><path d="M 221.371570 123.090312 L 221.371570 169.241094 L 120.000633 169.241094 L 120.000633 156.444206 L 126.051258 156.444206 L 126.051258 128.832500 L 123.590320 128.832500 L 123.590320 125.551250 L 126.051258 125.551250 L 126.051258 123.858132 L 91.315945 123.858125 L 91.315945 134.738750 L 64.258762 134.738750 L 64.258762 123.687497 L 10.000000 123.687497 L 10.000000 226.180625 L 64.258758 226.180625 L 64.258758 192.357500 L 91.315945 192.357500 L 91.315945 220.123437 L 283.459383 220.123437 L 283.459383 123.090312 L 221.371570 123.090312" stroke="none" fill="white" stroke-width="1px"></path><path d="M 221.371570 10.000000 L 221.371570 56.150781 L 120.000633 56.150781 L 120.000633 43.353893 L 126.051258 43.353893 L 126.051258 15.742187 L 123.590320 15.742187 L 123.590320 12.460937 L 126.051258 12.460937 L 126.051258 10.767819 L 91.315945 10.767812 L 91.315945 21.648438 L 64.258762 21.648438 L 64.258762 10.597185 L 10.000000 10.597185 L 10.000000 113.090312 L 64.258758 113.090312 L 64.258758 79.267187 L 91.315945 79.267187 L 91.315945 107.033125 L 283.459383 107.033125 L 283.459383 10.000000 L 221.371570 10.000000" stroke="none" fill="white" stroke-width="1px"></path></g><g id="crv-nbhd"><path d="M 221.737654 10.000004 L 221.737654 25.815546 L 221.737654 41.631088 L 223.786061 43.652272 L 225.834469 45.673457 L 254.646926 55.776080 L 283.459383 65.878703 L 283.459383 37.939352 L 283.459382 10.000000 L 252.598525 10.000002 L 221.737654 10.000004" stroke="#DD2222" fill="none" stroke-width="1px"></path><path d="M 283.459383 107.033125 L 283.459383 86.455914 L 283.459383 65.878703 L 254.646926 55.776080 L 225.834469 45.673457 L 232.720578 76.353291 L 239.606687 107.033125 L 261.533030 107.033125 L 283.459383 107.033125" stroke="#DD2222" fill="none" stroke-width="1px"></path><path d="M 221.737654 41.631088 L 221.737654 60.391209 L 221.737654 79.151330 L 211.708119 79.151330 L 201.678584 79.151330 L 203.290923 93.092227 L 204.903263 107.033125 L 222.254975 107.033125 L 239.606687 107.033125 L 232.720578 76.353291 L 225.834469 45.673457 L 223.786062 43.652273 L 221.737654 41.631088" stroke="#DD2222" fill="none" stroke-width="1px"></path><path d="M 201.678584 79.151330 L 185.008806 79.151329 L 168.339028 79.151329 L 167.702251 93.092227 L 167.065475 107.033125 L 185.984369 107.033125 L 204.903263 107.033125 L 203.290924 93.092231 L 201.678584 79.151330" stroke="#DD2222" fill="none" stroke-width="1px"></path><path d="M 122.330829 107.033125 L 144.698152 107.033125 L 167.065475 107.033125 L 167.702251 93.092227 L 168.339028 79.151329 L 150.050224 79.151329 L 131.761420 79.151328 L 127.046125 93.092226 L 122.330829 107.033125" stroke="#DD2222" fill="none" stroke-width="1px"></path><path d="M 131.761420 79.151328 L 111.538683 79.151328 L 91.315945 79.151327 L 91.315945 93.092226 L 91.315945 107.033125 L 106.823387 107.033125 L 122.330829 107.033125 L 127.046125 93.092227 L 131.761420 79.151328" stroke="#DD2222" fill="none" stroke-width="1px"></path><path d="M 64.258758 113.090312 L 64.258758 84.681552 L 64.258758 56.272791 L 37.129379 46.881186 L 10.000000 37.489581 L 10.000000 75.289947 L 10.000000 113.090312 L 37.129379 113.090312 L 64.258758 113.090312" stroke="#DD2222" fill="none" stroke-width="1px"></path><path d="M 10.000000 10.597184 L 10.000000 24.043383 L 10.000000 37.489581 L 37.129379 46.881186 L 64.258758 56.272791 L 64.258758 56.211786 L 64.258758 56.150781 L 64.258758 33.373983 L 64.258758 10.597185 L 37.129385 10.597185 L 10.000000 10.597184" stroke="#DD2222" fill="none" stroke-width="1px"></path><path d="M 10.000000 123.687497 L 10.000000 150.050580 L 10.000000 176.413664 L 33.506142 177.437716 L 57.012283 178.461768 L 60.635521 173.222354 L 64.258758 167.982939 L 64.258758 145.835218 L 64.258758 123.687497 L 37.129379 123.687497 L 10.000000 123.687497" stroke="#DD2222" fill="none" stroke-width="1px"></path><path d="M 10.000000 176.413664 L 10.000000 201.297145 L 10.000000 226.180625 L 37.129380 226.180625 L 64.258761 226.180625 L 64.258761 213.672436 L 64.258758 201.164246 L 60.635521 189.813007 L 57.012283 178.461768 L 33.506142 177.437716 L 10.000000 176.413664" stroke="#DD2222" fill="none" stroke-width="1px"></path><path d="M 138.011283 192.043444 L 114.663614 192.043444 L 91.315945 192.043444 L 91.315945 206.083441 L 91.315945 220.123437 L 111.327426 220.123437 L 131.338907 220.123437 L 134.675095 206.083441 L 138.011283 192.043444" stroke="#DD2222" fill="none" stroke-width="1px"></path><path d="M 131.338907 220.123437 L 158.432388 220.123437 L 185.525869 220.123437 L 187.084891 206.083441 L 188.643912 192.043444 L 163.327598 192.043444 L 138.011283 192.043444 L 134.675095 206.083441 L 131.338907 220.123437" stroke="#DD2222" fill="none" stroke-width="1px"></path><path d="M 225.191758 192.043444 L 206.917835 192.043444 L 188.643912 192.043444 L 187.084891 206.083441 L 185.525869 220.123437 L 212.848235 220.123437 L 240.170601 220.123437 L 232.681180 206.083441 L 225.191758 192.043444" stroke="#DD2222" fill="none" stroke-width="1px"></path><path d="M 283.459383 220.123437 L 283.459383 196.146606 L 283.459383 172.169775 L 261.598517 165.942392 L 239.737652 159.715009 L 239.737652 175.879227 L 239.737652 192.043444 L 232.464705 192.043444 L 225.191758 192.043444 L 232.681180 206.083441 L 240.170601 220.123437 L 261.814992 220.123437 L 283.459383 220.123437" stroke="#DD2222" fill="none" stroke-width="1px"></path><path d="M 239.737652 123.090312 L 239.737652 141.402661 L 239.737652 159.715009 L 261.598517 165.942392 L 283.459383 172.169775 L 283.459383 147.630044 L 283.459383 123.090312 L 261.598595 123.090312 L 239.737652 123.090312" stroke="#DD2222" fill="none" stroke-width="1px"></path></g><g id="crv-amen"><path d="M 59.398154 168.671115 L 60.991010 166.367752 L 62.583865 164.064390 L 62.583865 146.346213 L 62.583865 128.628036 L 55.962304 128.628036 L 49.340743 128.628036 L 49.340743 148.649576 L 49.340743 168.671115 L 54.369448 168.671115 L 59.398154 168.671115" stroke="none" fill="#2288CC" stroke-width="1px"></path><path d="M 56.874843 193.398231 L 54.729448 186.676924 L 52.584053 179.955618 L 33.779140 179.136376 L 14.974227 178.317134 L 14.974227 184.944976 L 14.974227 191.572818 L 35.924535 192.485524 L 56.874843 193.398231" stroke="none" fill="#2288CC" stroke-width="1px"></path><path d="M 106.214458 194.851444 L 99.592897 194.851444 L 92.971336 194.851444 L 92.971336 206.083441 L 92.971336 217.315438 L 99.592897 217.315438 L 106.214458 217.315438 L 106.214458 206.083441 L 106.214458 194.851444" stroke="none" fill="#2288CC" stroke-width="1px"></path><path d="M 181.819578 206.953143 L 182.554846 200.331582 L 183.290114 193.710021 L 163.037062 193.710021 L 142.784010 193.710021 L 141.210593 200.331582 L 139.637176 206.953143 L 160.728377 206.953143 L 181.819578 206.953143" stroke="none" fill="#2288CC" stroke-width="1px"></path><path d="M 225.598554 200.869842 L 223.698066 197.307105 L 221.797578 193.744367 L 207.178440 193.744367 L 192.559301 193.744367 L 191.824034 200.365928 L 191.088766 206.987489 L 208.343660 206.987489 L 225.598554 206.987489 L 225.598554 203.928666 L 225.598554 200.869842" stroke="none" fill="#2288CC" stroke-width="1px"></path><path d="M 279.087210 186.415512 L 279.087210 179.530528 L 279.087210 172.645545 L 261.598517 167.663638 L 244.109825 162.681731 L 244.109825 169.566715 L 244.109825 176.451699 L 261.598517 181.433605 L 279.087210 186.415512" stroke="none" fill="#2288CC" stroke-width="1px"></path><path d="M 244.109825 145.469272 L 244.109825 152.354256 L 244.109825 159.239240 L 261.598517 164.221146 L 279.087210 169.203053 L 279.087210 162.318069 L 279.087210 155.433086 L 261.598517 150.451179 L 244.109825 145.469272" stroke="none" fill="#2288CC" stroke-width="1px"></path><path d="M 236.656414 13.525795 L 230.034854 13.525796 L 223.413292 13.525796 L 223.413292 26.178230 L 223.413292 38.830663 L 225.052018 40.447611 L 226.690745 42.064558 L 226.770226 42.092427 L 226.849707 42.120296 L 231.753061 42.120296 L 236.656414 42.120296 L 236.656414 27.823046 L 236.656414 13.525795" stroke="none" fill="#2288CC" stroke-width="1px"></path><path d="M 243.679995 57.291837 L 236.313988 54.709065 L 228.947981 52.126293 L 234.456868 76.670161 L 239.965755 101.214028 L 246.752057 101.214028 L 253.538360 101.214028 L 248.609177 79.252932 L 243.679995 57.291837" stroke="none" fill="#2288CC" stroke-width="1px"></path><path d="M 206.839141 79.639093 L 213.460702 79.639093 L 220.082263 79.639093 L 220.082263 81.590146 L 220.082263 83.541199 L 213.460702 83.541199 L 206.839141 83.541199 L 206.839141 81.590146 L 206.839141 79.639093" stroke="none" fill="#2288CC" stroke-width="1px"></path><path d="M 189.582971 104.244945 L 196.248670 104.244945 L 202.914370 104.244945 L 201.624498 93.092227 L 200.334627 81.939509 L 193.668928 81.939509 L 187.003228 81.939509 L 188.293099 93.092227 L 189.582971 104.244945" stroke="none" fill="#2288CC" stroke-width="1px"></path><path d="M 142.097737 81.965271 L 137.320815 81.965271 L 132.543893 81.965270 L 128.771657 93.117989 L 124.999420 104.270708 L 131.989489 104.270708 L 138.979558 104.270708 L 142.524597 93.789706 L 146.069635 83.308704 L 144.083686 82.636988 L 142.097737 81.965271" stroke="none" fill="#2288CC" stroke-width="1px"></path><path d="M 106.214458 81.939507 L 99.592897 81.939507 L 92.971336 81.939507 L 92.971336 93.092226 L 92.971336 104.244945 L 99.592897 104.244945 L 106.214458 104.244945 L 106.214458 93.092226 L 106.214458 81.939507" stroke="none" fill="#2288CC" stroke-width="1px"></path><path d="M 49.333754 107.117445 L 55.955315 107.117445 L 62.576876 107.117445 L 62.576876 84.390436 L 62.576876 61.663428 L 55.955315 59.371186 L 49.333754 57.078945 L 49.333754 82.098195 L 49.333754 107.117445" stroke="none" fill="#2288CC" stroke-width="1px"></path><path d="M 15.425876 23.601929 L 15.425876 30.609028 L 15.425876 37.616128 L 37.129379 45.129411 L 58.832882 52.642695 L 58.832882 52.593891 L 58.832882 52.545087 L 58.832882 45.586792 L 58.832882 38.628497 L 37.129379 31.115213 L 15.425876 23.601929" stroke="none" fill="#2288CC" stroke-width="1px"></path></g><g id="crv-desk"><path d="M 55.459383 220.180625 L 52.959383 220.180625 L 52.959383 226.180625 L 55.459383 226.180625 L 55.459383 220.180625" stroke="gray" fill="white" stroke-width="1px"></path><path d="M 55.459383 214.180625 L 52.959383 214.180625 L 52.959383 220.180625 L 55.459383 220.180625 L 55.459383 214.180625" stroke="gray" fill="white" stroke-width="1px"></path><path d="M 55.459383 208.180625 L 52.959383 208.180625 L 52.959383 214.180625 L 55.459383 214.180625 L 55.459383 208.180625" stroke="gray" fill="white" stroke-width="1px"></path><path d="M 55.459383 202.180625 L 52.959383 202.180625 L 52.959383 208.180625 L 55.459383 208.180625 L 55.459383 202.180625" stroke="gray" fill="white" stroke-width="1px"></path><path d="M 43.459383 220.180625 L 40.959383 220.180625 L 40.959383 226.180625 L 43.459383 226.180625 L 43.459383 220.180625" stroke="gray" fill="white" stroke-width="1px"></path><path d="M 43.459383 214.180625 L 40.959383 214.180625 L 40.959383 220.180625 L 43.459383 220.180625 L 43.459383 214.180625" stroke="gray" fill="white" stroke-width="1px"></path><path d="M 43.459383 208.180625 L 40.959383 208.180625 L 40.959383 214.180625 L 43.459383 214.180625 L 43.459383 208.180625" stroke="gray" fill="white" stroke-width="1px"></path><path d="M 43.459383 202.180625 L 40.959383 202.180625 L 40.959383 208.180625 L 43.459383 208.180625 L 43.459383 202.180625" stroke="gray" fill="white" stroke-width="1px"></path><path d="M 31.459383 220.180625 L 28.959383 220.180625 L 28.959383 226.180625 L 31.459383 226.180625 L 31.459383 220.180625" stroke="gray" fill="white" stroke-width="1px"></path><path d="M 31.459383 214.180625 L 28.959383 214.180625 L 28.959383 220.180625 L 31.459383 220.180625 L 31.459383 214.180625" stroke="gray" fill="white" stroke-width="1px"></path><path d="M 31.459383 208.180625 L 28.959383 208.180625 L 28.959383 214.180625 L 31.459383 214.180625 L 31.459383 208.180625" stroke="gray" fill="white" stroke-width="1px"></path><path d="M 31.459383 202.180625 L 28.959383 202.180625 L 28.959383 208.180625 L 31.459383 208.180625 L 31.459383 202.180625" stroke="gray" fill="white" stroke-width="1px"></path><path d="M 19.459383 220.180625 L 16.959383 220.180625 L 16.959383 226.180625 L 19.459383 226.180625 L 19.459383 220.180625" stroke="gray" fill="white" stroke-width="1px"></path><path d="M 19.459383 214.180625 L 16.959383 214.180625 L 16.959383 220.180625 L 19.459383 220.180625 L 19.459383 214.180625" stroke="gray" fill="white" stroke-width="1px"></path><path d="M 19.459383 208.180625 L 16.959383 208.180625 L 16.959383 214.180625 L 19.459383 214.180625 L 19.459383 208.180625" stroke="gray" fill="white" stroke-width="1px"></path><path d="M 19.459383 202.180625 L 16.959383 202.180625 L 16.959383 208.180625 L 19.459383 208.180625 L 19.459383 202.180625" stroke="gray" fill="white" stroke-width="1px"></path><path d="M 127.459383 214.123437 L 124.959383 214.123437 L 124.959383 220.123437 L 127.459383 220.123437 L 127.459383 214.123437" stroke="gray" fill="white" stroke-width="1px"></path><path d="M 127.459383 208.123437 L 124.959383 208.123437 L 124.959383 214.123437 L 127.459383 214.123437 L 127.459383 208.123437" stroke="gray" fill="white" stroke-width="1px"></path><path d="M 127.459383 202.123437 L 124.959383 202.123437 L 124.959383 208.123437 L 127.459383 208.123437 L 127.459383 202.123437" stroke="gray" fill="white" stroke-width="1px"></path><path d="M 127.459383 196.123437 L 124.959383 196.123437 L 124.959383 202.123437 L 127.459383 202.123437 L 127.459383 196.123437" stroke="gray" fill="white" stroke-width="1px"></path><path d="M 115.459383 214.123437 L 112.959383 214.123437 L 112.959383 220.123437 L 115.459383 220.123437 L 115.459383 214.123437" stroke="gray" fill="white" stroke-width="1px"></path><path d="M 115.459383 208.123437 L 112.959383 208.123437 L 112.959383 214.123437 L 115.459383 214.123437 L 115.459383 208.123437" stroke="gray" fill="white" stroke-width="1px"></path><path d="M 115.459383 202.123437 L 112.959383 202.123437 L 112.959383 208.123437 L 115.459383 208.123437 L 115.459383 202.123437" stroke="gray" fill="white" stroke-width="1px"></path><path d="M 115.459383 196.123437 L 112.959383 196.123437 L 112.959383 202.123437 L 115.459383 202.123437 L 115.459383 196.123437" stroke="gray" fill="white" stroke-width="1px"></path><path d="M 175.459383 214.123437 L 172.959383 214.123437 L 172.959383 220.123437 L 175.459383 220.123437 L 175.459383 214.123437" stroke="gray" fill="white" stroke-width="1px"></path><path d="M 163.459383 214.123437 L 160.959383 214.123437 L 160.959383 220.123437 L 163.459383 220.123437 L 163.459383 214.123437" stroke="gray" fill="white" stroke-width="1px"></path><path d="M 151.459383 214.123437 L 148.959383 214.123437 L 148.959383 220.123437 L 151.459383 220.123437 L 151.459383 214.123437" stroke="gray" fill="white" stroke-width="1px"></path><path d="M 139.459383 214.123437 L 136.959383 214.123437 L 136.959383 220.123437 L 139.459383 220.123437 L 139.459383 214.123437" stroke="gray" fill="white" stroke-width="1px"></path><path d="M 223.459383 214.123437 L 220.959383 214.123437 L 220.959383 220.123437 L 223.459383 220.123437 L 223.459383 214.123437" stroke="gray" fill="white" stroke-width="1px"></path><path d="M 211.459383 214.123437 L 208.959383 214.123437 L 208.959383 220.123437 L 211.459383 220.123437 L 211.459383 214.123437" stroke="gray" fill="white" stroke-width="1px"></path><path d="M 199.459383 214.123437 L 196.959383 214.123437 L 196.959383 220.123437 L 199.459383 220.123437 L 199.459383 214.123437" stroke="gray" fill="white" stroke-width="1px"></path><path d="M 55.459383 220.180625 L 57.959383 220.180625 L 57.959383 226.180625 L 55.459383 226.180625 L 55.459383 220.180625" stroke="gray" fill="white" stroke-width="1px"></path><path d="M 55.459383 214.180625 L 57.959383 214.180625 L 57.959383 220.180625 L 55.459383 220.180625 L 55.459383 214.180625" stroke="gray" fill="white" stroke-width="1px"></path><path d="M 55.459383 208.180625 L 57.959383 208.180625 L 57.959383 214.180625 L 55.459383 214.180625 L 55.459383 208.180625" stroke="gray" fill="white" stroke-width="1px"></path><path d="M 55.459383 202.180625 L 57.959383 202.180625 L 57.959383 208.180625 L 55.459383 208.180625 L 55.459383 202.180625" stroke="gray" fill="white" stroke-width="1px"></path><path d="M 43.459383 220.180625 L 45.959383 220.180625 L 45.959383 226.180625 L 43.459383 226.180625 L 43.459383 220.180625" stroke="gray" fill="white" stroke-width="1px"></path><path d="M 43.459383 214.180625 L 45.959383 214.180625 L 45.959383 220.180625 L 43.459383 220.180625 L 43.459383 214.180625" stroke="gray" fill="white" stroke-width="1px"></path><path d="M 43.459383 208.180625 L 45.959383 208.180625 L 45.959383 214.180625 L 43.459383 214.180625 L 43.459383 208.180625" stroke="gray" fill="white" stroke-width="1px"></path><path d="M 43.459383 202.180625 L 45.959383 202.180625 L 45.959383 208.180625 L 43.459383 208.180625 L 43.459383 202.180625" stroke="gray" fill="white" stroke-width="1px"></path><path d="M 31.459383 220.180625 L 33.959383 220.180625 L 33.959383 226.180625 L 31.459383 226.180625 L 31.459383 220.180625" stroke="gray" fill="white" stroke-width="1px"></path><path d="M 31.459383 214.180625 L 33.959383 214.180625 L 33.959383 220.180625 L 31.459383 220.180625 L 31.459383 214.180625" stroke="gray" fill="white" stroke-width="1px"></path><path d="M 31.459383 208.180625 L 33.959383 208.180625 L 33.959383 214.180625 L 31.459383 214.180625 L 31.459383 208.180625" stroke="gray" fill="white" stroke-width="1px"></path><path d="M 31.459383 202.180625 L 33.959383 202.180625 L 33.959383 208.180625 L 31.459383 208.180625 L 31.459383 202.180625" stroke="gray" fill="white" stroke-width="1px"></path><path d="M 19.459383 220.180625 L 21.959383 220.180625 L 21.959383 226.180625 L 19.459383 226.180625 L 19.459383 220.180625" stroke="gray" fill="white" stroke-width="1px"></path><path d="M 19.459383 214.180625 L 21.959383 214.180625 L 21.959383 220.180625 L 19.459383 220.180625 L 19.459383 214.180625" stroke="gray" fill="white" stroke-width="1px"></path><path d="M 19.459383 208.180625 L 21.959383 208.180625 L 21.959383 214.180625 L 19.459383 214.180625 L 19.459383 208.180625" stroke="gray" fill="white" stroke-width="1px"></path><path d="M 19.459383 202.180625 L 21.959383 202.180625 L 21.959383 208.180625 L 19.459383 208.180625 L 19.459383 202.180625" stroke="gray" fill="white" stroke-width="1px"></path><path d="M 127.459383 214.123437 L 129.959383 214.123437 L 129.959383 220.123437 L 127.459383 220.123437 L 127.459383 214.123437" stroke="gray" fill="white" stroke-width="1px"></path><path d="M 127.459383 208.123437 L 129.959383 208.123437 L 129.959383 214.123437 L 127.459383 214.123437 L 127.459383 208.123437" stroke="gray" fill="white" stroke-width="1px"></path><path d="M 127.459383 202.123437 L 129.959383 202.123437 L 129.959383 208.123437 L 127.459383 208.123437 L 127.459383 202.123437" stroke="gray" fill="white" stroke-width="1px"></path><path d="M 127.459383 196.123437 L 129.959383 196.123437 L 129.959383 202.123437 L 127.459383 202.123437 L 127.459383 196.123437" stroke="gray" fill="white" stroke-width="1px"></path><path d="M 115.459383 214.123437 L 117.959383 214.123437 L 117.959383 220.123437 L 115.459383 220.123437 L 115.459383 214.123437" stroke="gray" fill="white" stroke-width="1px"></path><path d="M 115.459383 208.123437 L 117.959383 208.123437 L 117.959383 214.123437 L 115.459383 214.123437 L 115.459383 208.123437" stroke="gray" fill="white" stroke-width="1px"></path><path d="M 115.459383 202.123437 L 117.959383 202.123437 L 117.959383 208.123437 L 115.459383 208.123437 L 115.459383 202.123437" stroke="gray" fill="white" stroke-width="1px"></path><path d="M 115.459383 196.123437 L 117.959383 196.123437 L 117.959383 202.123437 L 115.459383 202.123437 L 115.459383 196.123437" stroke="gray" fill="white" stroke-width="1px"></path><path d="M 175.459383 214.123437 L 177.959383 214.123437 L 177.959383 220.123437 L 175.459383 220.123437 L 175.459383 214.123437" stroke="gray" fill="white" stroke-width="1px"></path><path d="M 163.459383 214.123437 L 165.959383 214.123437 L 165.959383 220.123437 L 163.459383 220.123437 L 163.459383 214.123437" stroke="gray" fill="white" stroke-width="1px"></path><path d="M 151.459383 214.123437 L 153.959383 214.123437 L 153.959383 220.123437 L 151.459383 220.123437 L 151.459383 214.123437" stroke="gray" fill="white" stroke-width="1px"></path><path d="M 139.459383 214.123437 L 141.959383 214.123437 L 141.959383 220.123437 L 139.459383 220.123437 L 139.459383 214.123437" stroke="gray" fill="white" stroke-width="1px"></path><path d="M 223.459383 214.123437 L 225.959383 214.123437 L 225.959383 220.123437 L 223.459383 220.123437 L 223.459383 214.123437" stroke="gray" fill="white" stroke-width="1px"></path><path d="M 211.459383 214.123437 L 213.959383 214.123437 L 213.959383 220.123437 L 211.459383 220.123437 L 211.459383 214.123437" stroke="gray" fill="white" stroke-width="1px"></path><path d="M 199.459383 214.123437 L 201.959383 214.123437 L 201.959383 220.123437 L 199.459383 220.123437 L 199.459383 214.123437" stroke="gray" fill="white" stroke-width="1px"></path><path d="M 22.000000 172.123437 L 22.000000 169.623437 L 16.000000 169.623437 L 16.000000 172.123437 L 22.000000 172.123437" stroke="gray" fill="white" stroke-width="1px"></path><path d="M 28.000000 172.123437 L 28.000000 169.623437 L 22.000000 169.623437 L 22.000000 172.123437 L 28.000000 172.123437" stroke="gray" fill="white" stroke-width="1px"></path><path d="M 34.000000 172.123437 L 34.000000 169.623437 L 28.000000 169.623437 L 28.000000 172.123437 L 34.000000 172.123437" stroke="gray" fill="white" stroke-width="1px"></path><path d="M 40.000000 172.123437 L 40.000000 169.623437 L 34.000000 169.623437 L 34.000000 172.123437 L 40.000000 172.123437" stroke="gray" fill="white" stroke-width="1px"></path><path d="M 22.000000 160.123437 L 22.000000 157.623437 L 16.000000 157.623437 L 16.000000 160.123437 L 22.000000 160.123437" stroke="gray" fill="white" stroke-width="1px"></path><path d="M 28.000000 160.123437 L 28.000000 157.623437 L 22.000000 157.623437 L 22.000000 160.123437 L 28.000000 160.123437" stroke="gray" fill="white" stroke-width="1px"></path><path d="M 34.000000 160.123437 L 34.000000 157.623437 L 28.000000 157.623437 L 28.000000 160.123437 L 34.000000 160.123437" stroke="gray" fill="white" stroke-width="1px"></path><path d="M 40.000000 160.123437 L 40.000000 157.623437 L 34.000000 157.623437 L 34.000000 160.123437 L 40.000000 160.123437" stroke="gray" fill="white" stroke-width="1px"></path><path d="M 22.000000 148.123437 L 22.000000 145.623437 L 16.000000 145.623437 L 16.000000 148.123437 L 22.000000 148.123437" stroke="gray" fill="white" stroke-width="1px"></path><path d="M 28.000000 148.123437 L 28.000000 145.623437 L 22.000000 145.623437 L 22.000000 148.123437 L 28.000000 148.123437" stroke="gray" fill="white" stroke-width="1px"></path><path d="M 34.000000 148.123437 L 34.000000 145.623437 L 28.000000 145.623437 L 28.000000 148.123437 L 34.000000 148.123437" stroke="gray" fill="white" stroke-width="1px"></path><path d="M 40.000000 148.123437 L 40.000000 145.623437 L 34.000000 145.623437 L 34.000000 148.123437 L 40.000000 148.123437" stroke="gray" fill="white" stroke-width="1px"></path><path d="M 22.000000 136.123437 L 22.000000 133.623437 L 16.000000 133.623437 L 16.000000 136.123437 L 22.000000 136.123437" stroke="gray" fill="white" stroke-width="1px"></path><path d="M 28.000000 136.123437 L 28.000000 133.623437 L 22.000000 133.623437 L 22.000000 136.123437 L 28.000000 136.123437" stroke="gray" fill="white" stroke-width="1px"></path><path d="M 34.000000 136.123437 L 34.000000 133.623437 L 28.000000 133.623437 L 28.000000 136.123437 L 34.000000 136.123437" stroke="gray" fill="white" stroke-width="1px"></path><path d="M 40.000000 136.123437 L 40.000000 133.623437 L 34.000000 133.623437 L 34.000000 136.123437 L 40.000000 136.123437" stroke="gray" fill="white" stroke-width="1px"></path><path d="M 245.769385 208.123437 L 245.769385 205.623437 L 239.769385 205.623437 L 239.769385 208.123437 L 245.769385 208.123437" stroke="gray" fill="white" stroke-width="1px"></path><path d="M 251.769385 208.123437 L 251.769385 205.623437 L 245.769385 205.623437 L 245.769385 208.123437 L 251.769385 208.123437" stroke="gray" fill="white" stroke-width="1px"></path><path d="M 257.769385 208.123437 L 257.769385 205.623437 L 251.769385 205.623437 L 251.769385 208.123437 L 257.769385 208.123437" stroke="gray" fill="white" stroke-width="1px"></path><path d="M 263.769385 208.123437 L 263.769385 205.623437 L 257.769385 205.623437 L 257.769385 208.123437 L 263.769385 208.123437" stroke="gray" fill="white" stroke-width="1px"></path><path d="M 269.769385 208.123437 L 269.769385 205.623437 L 263.769385 205.623437 L 263.769385 208.123437 L 269.769385 208.123437" stroke="gray" fill="white" stroke-width="1px"></path><path d="M 275.769385 208.123437 L 275.769385 205.623437 L 269.769385 205.623437 L 269.769385 208.123437 L 275.769385 208.123437" stroke="gray" fill="white" stroke-width="1px"></path><path d="M 251.368168 196.123437 L 251.368168 193.623437 L 245.368168 193.623437 L 245.368168 196.123437 L 251.368168 196.123437" stroke="gray" fill="white" stroke-width="1px"></path><path d="M 257.368168 196.123437 L 257.368168 193.623437 L 251.368168 193.623437 L 251.368168 196.123437 L 257.368168 196.123437" stroke="gray" fill="white" stroke-width="1px"></path><path d="M 263.368168 196.123437 L 263.368168 193.623437 L 257.368168 193.623437 L 257.368168 196.123437 L 263.368168 196.123437" stroke="gray" fill="white" stroke-width="1px"></path><path d="M 269.368168 196.123437 L 269.368168 193.623437 L 263.368168 193.623437 L 263.368168 196.123437 L 269.368168 196.123437" stroke="gray" fill="white" stroke-width="1px"></path><path d="M 275.368168 196.123437 L 275.368168 193.623437 L 269.368168 193.623437 L 269.368168 196.123437 L 275.368168 196.123437" stroke="gray" fill="white" stroke-width="1px"></path><path d="M 277.427116 148.123437 L 277.427116 145.623437 L 271.427116 145.623437 L 271.427116 148.123437 L 277.427116 148.123437" stroke="gray" fill="white" stroke-width="1px"></path><path d="M 251.737652 136.123437 L 251.737652 133.623437 L 245.737652 133.623437 L 245.737652 136.123437 L 251.737652 136.123437" stroke="gray" fill="white" stroke-width="1px"></path><path d="M 257.737652 136.123437 L 257.737652 133.623437 L 251.737652 133.623437 L 251.737652 136.123437 L 257.737652 136.123437" stroke="gray" fill="white" stroke-width="1px"></path><path d="M 263.737652 136.123437 L 263.737652 133.623437 L 257.737652 133.623437 L 257.737652 136.123437 L 263.737652 136.123437" stroke="gray" fill="white" stroke-width="1px"></path><path d="M 269.737652 136.123437 L 269.737652 133.623437 L 263.737652 133.623437 L 263.737652 136.123437 L 269.737652 136.123437" stroke="gray" fill="white" stroke-width="1px"></path><path d="M 275.737652 136.123437 L 275.737652 133.623437 L 269.737652 133.623437 L 269.737652 136.123437 L 275.737652 136.123437" stroke="gray" fill="white" stroke-width="1px"></path><path d="M 40.000000 172.123437 L 40.000000 174.623437 L 34.000000 174.623437 L 34.000000 172.123437 L 40.000000 172.123437" stroke="gray" fill="white" stroke-width="1px"></path><path d="M 22.000000 160.123437 L 22.000000 162.623437 L 16.000000 162.623437 L 16.000000 160.123437 L 22.000000 160.123437" stroke="gray" fill="white" stroke-width="1px"></path><path d="M 28.000000 160.123437 L 28.000000 162.623437 L 22.000000 162.623437 L 22.000000 160.123437 L 28.000000 160.123437" stroke="gray" fill="white" stroke-width="1px"></path><path d="M 34.000000 160.123437 L 34.000000 162.623437 L 28.000000 162.623437 L 28.000000 160.123437 L 34.000000 160.123437" stroke="gray" fill="white" stroke-width="1px"></path><path d="M 40.000000 160.123437 L 40.000000 162.623437 L 34.000000 162.623437 L 34.000000 160.123437 L 40.000000 160.123437" stroke="gray" fill="white" stroke-width="1px"></path><path d="M 22.000000 148.123437 L 22.000000 150.623437 L 16.000000 150.623437 L 16.000000 148.123437 L 22.000000 148.123437" stroke="gray" fill="white" stroke-width="1px"></path><path d="M 28.000000 148.123437 L 28.000000 150.623437 L 22.000000 150.623437 L 22.000000 148.123437 L 28.000000 148.123437" stroke="gray" fill="white" stroke-width="1px"></path><path d="M 34.000000 148.123437 L 34.000000 150.623437 L 28.000000 150.623437 L 28.000000 148.123437 L 34.000000 148.123437" stroke="gray" fill="white" stroke-width="1px"></path><path d="M 40.000000 148.123437 L 40.000000 150.623437 L 34.000000 150.623437 L 34.000000 148.123437 L 40.000000 148.123437" stroke="gray" fill="white" stroke-width="1px"></path><path d="M 22.000000 136.123437 L 22.000000 138.623437 L 16.000000 138.623437 L 16.000000 136.123437 L 22.000000 136.123437" stroke="gray" fill="white" stroke-width="1px"></path><path d="M 28.000000 136.123437 L 28.000000 138.623437 L 22.000000 138.623437 L 22.000000 136.123437 L 28.000000 136.123437" stroke="gray" fill="white" stroke-width="1px"></path><path d="M 34.000000 136.123437 L 34.000000 138.623437 L 28.000000 138.623437 L 28.000000 136.123437 L 34.000000 136.123437" stroke="gray" fill="white" stroke-width="1px"></path><path d="M 40.000000 136.123437 L 40.000000 138.623437 L 34.000000 138.623437 L 34.000000 136.123437 L 40.000000 136.123437" stroke="gray" fill="white" stroke-width="1px"></path><path d="M 245.769385 208.123437 L 245.769385 210.623437 L 239.769385 210.623437 L 239.769385 208.123437 L 245.769385 208.123437" stroke="gray" fill="white" stroke-width="1px"></path><path d="M 251.769385 208.123437 L 251.769385 210.623437 L 245.769385 210.623437 L 245.769385 208.123437 L 251.769385 208.123437" stroke="gray" fill="white" stroke-width="1px"></path><path d="M 257.769385 208.123437 L 257.769385 210.623437 L 251.769385 210.623437 L 251.769385 208.123437 L 257.769385 208.123437" stroke="gray" fill="white" stroke-width="1px"></path><path d="M 263.769385 208.123437 L 263.769385 210.623437 L 257.769385 210.623437 L 257.769385 208.123437 L 263.769385 208.123437" stroke="gray" fill="white" stroke-width="1px"></path><path d="M 269.769385 208.123437 L 269.769385 210.623437 L 263.769385 210.623437 L 263.769385 208.123437 L 269.769385 208.123437" stroke="gray" fill="white" stroke-width="1px"></path><path d="M 275.769385 208.123437 L 275.769385 210.623437 L 269.769385 210.623437 L 269.769385 208.123437 L 275.769385 208.123437" stroke="gray" fill="white" stroke-width="1px"></path><path d="M 239.368168 196.123437 L 239.368168 198.623437 L 233.368168 198.623437 L 233.368168 196.123437 L 239.368168 196.123437" stroke="gray" fill="white" stroke-width="1px"></path><path d="M 245.368168 196.123437 L 245.368168 198.623437 L 239.368168 198.623437 L 239.368168 196.123437 L 245.368168 196.123437" stroke="gray" fill="white" stroke-width="1px"></path><path d="M 251.368168 196.123437 L 251.368168 198.623437 L 245.368168 198.623437 L 245.368168 196.123437 L 251.368168 196.123437" stroke="gray" fill="white" stroke-width="1px"></path><path d="M 257.368168 196.123437 L 257.368168 198.623437 L 251.368168 198.623437 L 251.368168 196.123437 L 257.368168 196.123437" stroke="gray" fill="white" stroke-width="1px"></path><path d="M 263.368168 196.123437 L 263.368168 198.623437 L 257.368168 198.623437 L 257.368168 196.123437 L 263.368168 196.123437" stroke="gray" fill="white" stroke-width="1px"></path><path d="M 269.368168 196.123437 L 269.368168 198.623437 L 263.368168 198.623437 L 263.368168 196.123437 L 269.368168 196.123437" stroke="gray" fill="white" stroke-width="1px"></path><path d="M 275.368168 196.123437 L 275.368168 198.623437 L 269.368168 198.623437 L 269.368168 196.123437 L 275.368168 196.123437" stroke="gray" fill="white" stroke-width="1px"></path><path d="M 277.427116 148.123437 L 277.427116 150.623437 L 271.427116 150.623437 L 271.427116 148.123437 L 277.427116 148.123437" stroke="gray" fill="white" stroke-width="1px"></path><path d="M 251.737652 136.123437 L 251.737652 138.623437 L 245.737652 138.623437 L 245.737652 136.123437 L 251.737652 136.123437" stroke="gray" fill="white" stroke-width="1px"></path><path d="M 257.737652 136.123437 L 257.737652 138.623437 L 251.737652 138.623437 L 251.737652 136.123437 L 257.737652 136.123437" stroke="gray" fill="white" stroke-width="1px"></path><path d="M 263.737652 136.123437 L 263.737652 138.623437 L 257.737652 138.623437 L 257.737652 136.123437 L 263.737652 136.123437" stroke="gray" fill="white" stroke-width="1px"></path><path d="M 269.737652 136.123437 L 269.737652 138.623437 L 263.737652 138.623437 L 263.737652 136.123437 L 269.737652 136.123437" stroke="gray" fill="white" stroke-width="1px"></path><path d="M 275.737652 136.123437 L 275.737652 138.623437 L 269.737652 138.623437 L 269.737652 136.123437 L 275.737652 136.123437" stroke="gray" fill="white" stroke-width="1px"></path><path d="M 271.459383 55.671097 L 268.959383 55.671097 L 268.959383 61.671097 L 271.459383 61.671097 L 271.459383 55.671097" stroke="gray" fill="white" stroke-width="1px"></path><path d="M 271.459383 49.671097 L 268.959383 49.671097 L 268.959383 55.671097 L 271.459383 55.671097 L 271.459383 49.671097" stroke="gray" fill="white" stroke-width="1px"></path><path d="M 271.459383 43.671097 L 268.959383 43.671097 L 268.959383 49.671097 L 271.459383 49.671097 L 271.459383 43.671097" stroke="gray" fill="white" stroke-width="1px"></path><path d="M 271.459383 37.671097 L 268.959383 37.671097 L 268.959383 43.671097 L 271.459383 43.671097 L 271.459383 37.671097" stroke="gray" fill="white" stroke-width="1px"></path><path d="M 271.459383 31.671097 L 268.959383 31.671097 L 268.959383 37.671097 L 271.459383 37.671097 L 271.459383 31.671097" stroke="gray" fill="white" stroke-width="1px"></path><path d="M 271.459383 25.671097 L 268.959383 25.671097 L 268.959383 31.671097 L 271.459383 31.671097 L 271.459383 25.671097" stroke="gray" fill="white" stroke-width="1px"></path><path d="M 271.459383 19.671097 L 268.959383 19.671097 L 268.959383 25.671097 L 271.459383 25.671097 L 271.459383 19.671097" stroke="gray" fill="white" stroke-width="1px"></path><path d="M 271.459383 13.671097 L 268.959383 13.671097 L 268.959383 19.671097 L 271.459383 19.671097 L 271.459383 13.671097" stroke="gray" fill="white" stroke-width="1px"></path><path d="M 259.459383 51.463490 L 256.959383 51.463490 L 256.959383 57.463490 L 259.459383 57.463490 L 259.459383 51.463490" stroke="gray" fill="white" stroke-width="1px"></path><path d="M 259.459383 45.463490 L 256.959383 45.463490 L 256.959383 51.463490 L 259.459383 51.463490 L 259.459383 45.463490" stroke="gray" fill="white" stroke-width="1px"></path><path d="M 259.459383 39.463490 L 256.959383 39.463490 L 256.959383 45.463490 L 259.459383 45.463490 L 259.459383 39.463490" stroke="gray" fill="white" stroke-width="1px"></path><path d="M 259.459383 33.463490 L 256.959383 33.463490 L 256.959383 39.463490 L 259.459383 39.463490 L 259.459383 33.463490" stroke="gray" fill="white" stroke-width="1px"></path><path d="M 259.459383 27.463490 L 256.959383 27.463490 L 256.959383 33.463490 L 259.459383 33.463490 L 259.459383 27.463490" stroke="gray" fill="white" stroke-width="1px"></path><path d="M 259.459383 21.463490 L 256.959383 21.463490 L 256.959383 27.463490 L 259.459383 27.463490 L 259.459383 21.463490" stroke="gray" fill="white" stroke-width="1px"></path><path d="M 259.459383 15.463490 L 256.959383 15.463490 L 256.959383 21.463490 L 259.459383 21.463490 L 259.459383 15.463490" stroke="gray" fill="white" stroke-width="1px"></path><path d="M 247.459383 47.255884 L 244.959383 47.255884 L 244.959383 53.255884 L 247.459383 53.255884 L 247.459383 47.255884" stroke="gray" fill="white" stroke-width="1px"></path><path d="M 247.459383 41.255884 L 244.959383 41.255884 L 244.959383 47.255884 L 247.459383 47.255884 L 247.459383 41.255884" stroke="gray" fill="white" stroke-width="1px"></path><path d="M 247.459383 35.255884 L 244.959383 35.255884 L 244.959383 41.255884 L 247.459383 41.255884 L 247.459383 35.255884" stroke="gray" fill="white" stroke-width="1px"></path><path d="M 247.459383 29.255884 L 244.959383 29.255884 L 244.959383 35.255884 L 247.459383 35.255884 L 247.459383 29.255884" stroke="gray" fill="white" stroke-width="1px"></path><path d="M 247.459383 23.255884 L 244.959383 23.255884 L 244.959383 29.255884 L 247.459383 29.255884 L 247.459383 23.255884" stroke="gray" fill="white" stroke-width="1px"></path><path d="M 247.459383 17.255884 L 244.959383 17.255884 L 244.959383 23.255884 L 247.459383 23.255884 L 247.459383 17.255884" stroke="gray" fill="white" stroke-width="1px"></path><path d="M 175.459383 101.033125 L 172.959383 101.033125 L 172.959383 107.033125 L 175.459383 107.033125 L 175.459383 101.033125" stroke="gray" fill="white" stroke-width="1px"></path><path d="M 175.459383 95.033125 L 172.959383 95.033125 L 172.959383 101.033125 L 175.459383 101.033125 L 175.459383 95.033125" stroke="gray" fill="white" stroke-width="1px"></path><path d="M 175.459383 89.033125 L 172.959383 89.033125 L 172.959383 95.033125 L 175.459383 95.033125 L 175.459383 89.033125" stroke="gray" fill="white" stroke-width="1px"></path><path d="M 175.459383 83.033125 L 172.959383 83.033125 L 172.959383 89.033125 L 175.459383 89.033125 L 175.459383 83.033125" stroke="gray" fill="white" stroke-width="1px"></path><path d="M 163.459383 101.033125 L 160.959383 101.033125 L 160.959383 107.033125 L 163.459383 107.033125 L 163.459383 101.033125" stroke="gray" fill="white" stroke-width="1px"></path><path d="M 163.459383 95.033125 L 160.959383 95.033125 L 160.959383 101.033125 L 163.459383 101.033125 L 163.459383 95.033125" stroke="gray" fill="white" stroke-width="1px"></path><path d="M 163.459383 89.033125 L 160.959383 89.033125 L 160.959383 95.033125 L 163.459383 95.033125 L 163.459383 89.033125" stroke="gray" fill="white" stroke-width="1px"></path><path d="M 163.459383 83.033125 L 160.959383 83.033125 L 160.959383 89.033125 L 163.459383 89.033125 L 163.459383 83.033125" stroke="gray" fill="white" stroke-width="1px"></path><path d="M 151.459383 101.033125 L 148.959383 101.033125 L 148.959383 107.033125 L 151.459383 107.033125 L 151.459383 101.033125" stroke="gray" fill="white" stroke-width="1px"></path><path d="M 151.459383 95.033125 L 148.959383 95.033125 L 148.959383 101.033125 L 151.459383 101.033125 L 151.459383 95.033125" stroke="gray" fill="white" stroke-width="1px"></path><path d="M 151.459383 89.033125 L 148.959383 89.033125 L 148.959383 95.033125 L 151.459383 95.033125 L 151.459383 89.033125" stroke="gray" fill="white" stroke-width="1px"></path><path d="M 115.459383 101.033125 L 112.959383 101.033125 L 112.959383 107.033125 L 115.459383 107.033125 L 115.459383 101.033125" stroke="gray" fill="white" stroke-width="1px"></path><path d="M 115.459383 95.033125 L 112.959383 95.033125 L 112.959383 101.033125 L 115.459383 101.033125 L 115.459383 95.033125" stroke="gray" fill="white" stroke-width="1px"></path><path d="M 115.459383 89.033125 L 112.959383 89.033125 L 112.959383 95.033125 L 115.459383 95.033125 L 115.459383 89.033125" stroke="gray" fill="white" stroke-width="1px"></path><path d="M 115.459383 83.033125 L 112.959383 83.033125 L 112.959383 89.033125 L 115.459383 89.033125 L 115.459383 83.033125" stroke="gray" fill="white" stroke-width="1px"></path><path d="M 55.459383 25.460664 L 52.959383 25.460664 L 52.959383 31.460664 L 55.459383 31.460664 L 55.459383 25.460664" stroke="gray" fill="white" stroke-width="1px"></path><path d="M 55.459383 19.460664 L 52.959383 19.460664 L 52.959383 25.460664 L 55.459383 25.460664 L 55.459383 19.460664" stroke="gray" fill="white" stroke-width="1px"></path><path d="M 55.459383 13.460664 L 52.959383 13.460664 L 52.959383 19.460664 L 55.459383 19.460664 L 55.459383 13.460664" stroke="gray" fill="white" stroke-width="1px"></path><path d="M 43.459383 21.306523 L 40.959383 21.306523 L 40.959383 27.306523 L 43.459383 27.306523 L 43.459383 21.306523" stroke="gray" fill="white" stroke-width="1px"></path><path d="M 43.459383 15.306523 L 40.959383 15.306523 L 40.959383 21.306523 L 43.459383 21.306523 L 43.459383 15.306523" stroke="gray" fill="white" stroke-width="1px"></path><path d="M 31.459383 17.152383 L 28.959383 17.152383 L 28.959383 23.152383 L 31.459383 23.152383 L 31.459383 17.152383" stroke="gray" fill="white" stroke-width="1px"></path><path d="M 19.459383 12.998242 L 16.959383 12.998242 L 16.959383 18.998242 L 19.459383 18.998242 L 19.459383 12.998242" stroke="gray" fill="white" stroke-width="1px"></path><path d="M 271.459383 55.671097 L 273.959383 55.671097 L 273.959383 61.671097 L 271.459383 61.671097 L 271.459383 55.671097" stroke="gray" fill="white" stroke-width="1px"></path><path d="M 271.459383 49.671097 L 273.959383 49.671097 L 273.959383 55.671097 L 271.459383 55.671097 L 271.459383 49.671097" stroke="gray" fill="white" stroke-width="1px"></path><path d="M 271.459383 43.671097 L 273.959383 43.671097 L 273.959383 49.671097 L 271.459383 49.671097 L 271.459383 43.671097" stroke="gray" fill="white" stroke-width="1px"></path><path d="M 271.459383 37.671097 L 273.959383 37.671097 L 273.959383 43.671097 L 271.459383 43.671097 L 271.459383 37.671097" stroke="gray" fill="white" stroke-width="1px"></path><path d="M 271.459383 31.671097 L 273.959383 31.671097 L 273.959383 37.671097 L 271.459383 37.671097 L 271.459383 31.671097" stroke="gray" fill="white" stroke-width="1px"></path><path d="M 271.459383 25.671097 L 273.959383 25.671097 L 273.959383 31.671097 L 271.459383 31.671097 L 271.459383 25.671097" stroke="gray" fill="white" stroke-width="1px"></path><path d="M 271.459383 19.671097 L 273.959383 19.671097 L 273.959383 25.671097 L 271.459383 25.671097 L 271.459383 19.671097" stroke="gray" fill="white" stroke-width="1px"></path><path d="M 271.459383 13.671097 L 273.959383 13.671097 L 273.959383 19.671097 L 271.459383 19.671097 L 271.459383 13.671097" stroke="gray" fill="white" stroke-width="1px"></path><path d="M 259.459383 51.463490 L 261.959383 51.463490 L 261.959383 57.463490 L 259.459383 57.463490 L 259.459383 51.463490" stroke="gray" fill="white" stroke-width="1px"></path><path d="M 259.459383 45.463490 L 261.959383 45.463490 L 261.959383 51.463490 L 259.459383 51.463490 L 259.459383 45.463490" stroke="gray" fill="white" stroke-width="1px"></path><path d="M 259.459383 39.463490 L 261.959383 39.463490 L 261.959383 45.463490 L 259.459383 45.463490 L 259.459383 39.463490" stroke="gray" fill="white" stroke-width="1px"></path><path d="M 259.459383 33.463490 L 261.959383 33.463490 L 261.959383 39.463490 L 259.459383 39.463490 L 259.459383 33.463490" stroke="gray" fill="white" stroke-width="1px"></path><path d="M 259.459383 27.463490 L 261.959383 27.463490 L 261.959383 33.463490 L 259.459383 33.463490 L 259.459383 27.463490" stroke="gray" fill="white" stroke-width="1px"></path><path d="M 259.459383 21.463490 L 261.959383 21.463490 L 261.959383 27.463490 L 259.459383 27.463490 L 259.459383 21.463490" stroke="gray" fill="white" stroke-width="1px"></path><path d="M 259.459383 15.463490 L 261.959383 15.463490 L 261.959383 21.463490 L 259.459383 21.463490 L 259.459383 15.463490" stroke="gray" fill="white" stroke-width="1px"></path><path d="M 247.459383 47.255884 L 249.959383 47.255884 L 249.959383 53.255884 L 247.459383 53.255884 L 247.459383 47.255884" stroke="gray" fill="white" stroke-width="1px"></path><path d="M 247.459383 41.255884 L 249.959383 41.255884 L 249.959383 47.255884 L 247.459383 47.255884 L 247.459383 41.255884" stroke="gray" fill="white" stroke-width="1px"></path><path d="M 247.459383 35.255884 L 249.959383 35.255884 L 249.959383 41.255884 L 247.459383 41.255884 L 247.459383 35.255884" stroke="gray" fill="white" stroke-width="1px"></path><path d="M 247.459383 29.255884 L 249.959383 29.255884 L 249.959383 35.255884 L 247.459383 35.255884 L 247.459383 29.255884" stroke="gray" fill="white" stroke-width="1px"></path><path d="M 247.459383 23.255884 L 249.959383 23.255884 L 249.959383 29.255884 L 247.459383 29.255884 L 247.459383 23.255884" stroke="gray" fill="white" stroke-width="1px"></path><path d="M 247.459383 17.255884 L 249.959383 17.255884 L 249.959383 23.255884 L 247.459383 23.255884 L 247.459383 17.255884" stroke="gray" fill="white" stroke-width="1px"></path><path d="M 175.459383 101.033125 L 177.959383 101.033125 L 177.959383 107.033125 L 175.459383 107.033125 L 175.459383 101.033125" stroke="gray" fill="white" stroke-width="1px"></path><path d="M 175.459383 95.033125 L 177.959383 95.033125 L 177.959383 101.033125 L 175.459383 101.033125 L 175.459383 95.033125" stroke="gray" fill="white" stroke-width="1px"></path><path d="M 175.459383 89.033125 L 177.959383 89.033125 L 177.959383 95.033125 L 175.459383 95.033125 L 175.459383 89.033125" stroke="gray" fill="white" stroke-width="1px"></path><path d="M 175.459383 83.033125 L 177.959383 83.033125 L 177.959383 89.033125 L 175.459383 89.033125 L 175.459383 83.033125" stroke="gray" fill="white" stroke-width="1px"></path><path d="M 163.459383 101.033125 L 165.959383 101.033125 L 165.959383 107.033125 L 163.459383 107.033125 L 163.459383 101.033125" stroke="gray" fill="white" stroke-width="1px"></path><path d="M 163.459383 95.033125 L 165.959383 95.033125 L 165.959383 101.033125 L 163.459383 101.033125 L 163.459383 95.033125" stroke="gray" fill="white" stroke-width="1px"></path><path d="M 163.459383 89.033125 L 165.959383 89.033125 L 165.959383 95.033125 L 163.459383 95.033125 L 163.459383 89.033125" stroke="gray" fill="white" stroke-width="1px"></path><path d="M 163.459383 83.033125 L 165.959383 83.033125 L 165.959383 89.033125 L 163.459383 89.033125 L 163.459383 83.033125" stroke="gray" fill="white" stroke-width="1px"></path><path d="M 151.459383 101.033125 L 153.959383 101.033125 L 153.959383 107.033125 L 151.459383 107.033125 L 151.459383 101.033125" stroke="gray" fill="white" stroke-width="1px"></path><path d="M 151.459383 95.033125 L 153.959383 95.033125 L 153.959383 101.033125 L 151.459383 101.033125 L 151.459383 95.033125" stroke="gray" fill="white" stroke-width="1px"></path><path d="M 151.459383 89.033125 L 153.959383 89.033125 L 153.959383 95.033125 L 151.459383 95.033125 L 151.459383 89.033125" stroke="gray" fill="white" stroke-width="1px"></path><path d="M 115.459383 101.033125 L 117.959383 101.033125 L 117.959383 107.033125 L 115.459383 107.033125 L 115.459383 101.033125" stroke="gray" fill="white" stroke-width="1px"></path><path d="M 115.459383 95.033125 L 117.959383 95.033125 L 117.959383 101.033125 L 115.459383 101.033125 L 115.459383 95.033125" stroke="gray" fill="white" stroke-width="1px"></path><path d="M 115.459383 89.033125 L 117.959383 89.033125 L 117.959383 95.033125 L 115.459383 95.033125 L 115.459383 89.033125" stroke="gray" fill="white" stroke-width="1px"></path><path d="M 115.459383 83.033125 L 117.959383 83.033125 L 117.959383 89.033125 L 115.459383 89.033125 L 115.459383 83.033125" stroke="gray" fill="white" stroke-width="1px"></path><path d="M 55.459383 25.460664 L 57.959383 25.460664 L 57.959383 31.460664 L 55.459383 31.460664 L 55.459383 25.460664" stroke="gray" fill="white" stroke-width="1px"></path><path d="M 55.459383 19.460664 L 57.959383 19.460664 L 57.959383 25.460664 L 55.459383 25.460664 L 55.459383 19.460664" stroke="gray" fill="white" stroke-width="1px"></path><path d="M 55.459383 13.460664 L 57.959383 13.460664 L 57.959383 19.460664 L 55.459383 19.460664 L 55.459383 13.460664" stroke="gray" fill="white" stroke-width="1px"></path><path d="M 43.459383 21.306523 L 45.959383 21.306523 L 45.959383 27.306523 L 43.459383 27.306523 L 43.459383 21.306523" stroke="gray" fill="white" stroke-width="1px"></path><path d="M 43.459383 15.306523 L 45.959383 15.306523 L 45.959383 21.306523 L 43.459383 21.306523 L 43.459383 15.306523" stroke="gray" fill="white" stroke-width="1px"></path><path d="M 31.459383 17.152383 L 33.959383 17.152383 L 33.959383 23.152383 L 31.459383 23.152383 L 31.459383 17.152383" stroke="gray" fill="white" stroke-width="1px"></path><path d="M 19.459383 12.998242 L 21.959383 12.998242 L 21.959383 18.998242 L 19.459383 18.998242 L 19.459383 12.998242" stroke="gray" fill="white" stroke-width="1px"></path><path d="M 262.311709 101.263579 L 262.311709 98.763579 L 256.311709 98.763579 L 256.311709 101.263579 L 262.311709 101.263579" stroke="gray" fill="white" stroke-width="1px"></path><path d="M 268.311709 101.263579 L 268.311709 98.763579 L 262.311709 98.763579 L 262.311709 101.263579 L 268.311709 101.263579" stroke="gray" fill="white" stroke-width="1px"></path><path d="M 274.311709 101.263579 L 274.311709 98.763579 L 268.311709 98.763579 L 268.311709 101.263579 L 274.311709 101.263579" stroke="gray" fill="white" stroke-width="1px"></path><path d="M 262.856074 89.263579 L 262.856074 86.763579 L 256.856074 86.763579 L 256.856074 89.263579 L 262.856074 89.263579" stroke="gray" fill="white" stroke-width="1px"></path><path d="M 268.856074 89.263579 L 268.856074 86.763579 L 262.856074 86.763579 L 262.856074 89.263579 L 268.856074 89.263579" stroke="gray" fill="white" stroke-width="1px"></path><path d="M 274.856074 89.263579 L 274.856074 86.763579 L 268.856074 86.763579 L 268.856074 89.263579 L 274.856074 89.263579" stroke="gray" fill="white" stroke-width="1px"></path><path d="M 260.162666 77.263579 L 260.162666 74.763579 L 254.162666 74.763579 L 254.162666 77.263579 L 260.162666 77.263579" stroke="gray" fill="white" stroke-width="1px"></path><path d="M 266.162666 77.263579 L 266.162666 74.763579 L 260.162666 74.763579 L 260.162666 77.263579 L 266.162666 77.263579" stroke="gray" fill="white" stroke-width="1px"></path><path d="M 272.162666 77.263579 L 272.162666 74.763579 L 266.162666 74.763579 L 266.162666 77.263579 L 272.162666 77.263579" stroke="gray" fill="white" stroke-width="1px"></path><path d="M 278.162666 77.263579 L 278.162666 74.763579 L 272.162666 74.763579 L 272.162666 77.263579 L 278.162666 77.263579" stroke="gray" fill="white" stroke-width="1px"></path><path d="M 257.469258 65.263579 L 257.469258 62.763579 L 251.469258 62.763579 L 251.469258 65.263579 L 257.469258 65.263579" stroke="gray" fill="white" stroke-width="1px"></path><path d="M 263.469258 65.263579 L 263.469258 62.763579 L 257.469258 62.763579 L 257.469258 65.263579 L 263.469258 65.263579" stroke="gray" fill="white" stroke-width="1px"></path><path d="M 216.235984 101.263579 L 216.235984 98.763579 L 210.235984 98.763579 L 210.235984 101.263579 L 216.235984 101.263579" stroke="gray" fill="white" stroke-width="1px"></path><path d="M 222.235984 101.263579 L 222.235984 98.763579 L 216.235984 98.763579 L 216.235984 101.263579 L 222.235984 101.263579" stroke="gray" fill="white" stroke-width="1px"></path><path d="M 228.235984 101.263579 L 228.235984 98.763579 L 222.235984 98.763579 L 222.235984 101.263579 L 228.235984 101.263579" stroke="gray" fill="white" stroke-width="1px"></path><path d="M 214.848120 89.263579 L 214.848120 86.763579 L 208.848120 86.763579 L 208.848120 89.263579 L 214.848120 89.263579" stroke="gray" fill="white" stroke-width="1px"></path><path d="M 220.848120 89.263579 L 220.848120 86.763579 L 214.848120 86.763579 L 214.848120 89.263579 L 220.848120 89.263579" stroke="gray" fill="white" stroke-width="1px"></path><path d="M 226.848120 89.263579 L 226.848120 86.763579 L 220.848120 86.763579 L 220.848120 89.263579 L 226.848120 89.263579" stroke="gray" fill="white" stroke-width="1px"></path><path d="M 22.000000 101.263579 L 22.000000 98.763579 L 16.000000 98.763579 L 16.000000 101.263579 L 22.000000 101.263579" stroke="gray" fill="white" stroke-width="1px"></path><path d="M 28.000000 101.263579 L 28.000000 98.763579 L 22.000000 98.763579 L 22.000000 101.263579 L 28.000000 101.263579" stroke="gray" fill="white" stroke-width="1px"></path><path d="M 34.000000 101.263579 L 34.000000 98.763579 L 28.000000 98.763579 L 28.000000 101.263579 L 34.000000 101.263579" stroke="gray" fill="white" stroke-width="1px"></path><path d="M 40.000000 101.263579 L 40.000000 98.763579 L 34.000000 98.763579 L 34.000000 101.263579 L 40.000000 101.263579" stroke="gray" fill="white" stroke-width="1px"></path><path d="M 22.000000 89.263579 L 22.000000 86.763579 L 16.000000 86.763579 L 16.000000 89.263579 L 22.000000 89.263579" stroke="gray" fill="white" stroke-width="1px"></path><path d="M 28.000000 89.263579 L 28.000000 86.763579 L 22.000000 86.763579 L 22.000000 89.263579 L 28.000000 89.263579" stroke="gray" fill="white" stroke-width="1px"></path><path d="M 34.000000 89.263579 L 34.000000 86.763579 L 28.000000 86.763579 L 28.000000 89.263579 L 34.000000 89.263579" stroke="gray" fill="white" stroke-width="1px"></path><path d="M 40.000000 89.263579 L 40.000000 86.763579 L 34.000000 86.763579 L 34.000000 89.263579 L 40.000000 89.263579" stroke="gray" fill="white" stroke-width="1px"></path><path d="M 22.000000 77.263579 L 22.000000 74.763579 L 16.000000 74.763579 L 16.000000 77.263579 L 22.000000 77.263579" stroke="gray" fill="white" stroke-width="1px"></path><path d="M 28.000000 77.263579 L 28.000000 74.763579 L 22.000000 74.763579 L 22.000000 77.263579 L 28.000000 77.263579" stroke="gray" fill="white" stroke-width="1px"></path><path d="M 34.000000 77.263579 L 34.000000 74.763579 L 28.000000 74.763579 L 28.000000 77.263579 L 34.000000 77.263579" stroke="gray" fill="white" stroke-width="1px"></path><path d="M 40.000000 77.263579 L 40.000000 74.763579 L 34.000000 74.763579 L 34.000000 77.263579 L 40.000000 77.263579" stroke="gray" fill="white" stroke-width="1px"></path><path d="M 22.000000 65.263579 L 22.000000 62.763579 L 16.000000 62.763579 L 16.000000 65.263579 L 22.000000 65.263579" stroke="gray" fill="white" stroke-width="1px"></path><path d="M 28.000000 65.263579 L 28.000000 62.763579 L 22.000000 62.763579 L 22.000000 65.263579 L 28.000000 65.263579" stroke="gray" fill="white" stroke-width="1px"></path><path d="M 34.000000 65.263579 L 34.000000 62.763579 L 28.000000 62.763579 L 28.000000 65.263579 L 34.000000 65.263579" stroke="gray" fill="white" stroke-width="1px"></path><path d="M 40.000000 65.263579 L 40.000000 62.763579 L 34.000000 62.763579 L 34.000000 65.263579 L 40.000000 65.263579" stroke="gray" fill="white" stroke-width="1px"></path><path d="M 22.000000 53.263579 L 22.000000 50.763579 L 16.000000 50.763579 L 16.000000 53.263579 L 22.000000 53.263579" stroke="gray" fill="white" stroke-width="1px"></path><path d="M 28.000000 53.263579 L 28.000000 50.763579 L 22.000000 50.763579 L 22.000000 53.263579 L 28.000000 53.263579" stroke="gray" fill="white" stroke-width="1px"></path><path d="M 34.000000 53.263579 L 34.000000 50.763579 L 28.000000 50.763579 L 28.000000 53.263579 L 34.000000 53.263579" stroke="gray" fill="white" stroke-width="1px"></path><path d="M 40.000000 53.263579 L 40.000000 50.763579 L 34.000000 50.763579 L 34.000000 53.263579 L 40.000000 53.263579" stroke="gray" fill="white" stroke-width="1px"></path><path d="M 262.311709 101.263579 L 262.311709 103.763579 L 256.311709 103.763579 L 256.311709 101.263579 L 262.311709 101.263579" stroke="gray" fill="white" stroke-width="1px"></path><path d="M 268.311709 101.263579 L 268.311709 103.763579 L 262.311709 103.763579 L 262.311709 101.263579 L 268.311709 101.263579" stroke="gray" fill="white" stroke-width="1px"></path><path d="M 274.311709 101.263579 L 274.311709 103.763579 L 268.311709 103.763579 L 268.311709 101.263579 L 274.311709 101.263579" stroke="gray" fill="white" stroke-width="1px"></path><path d="M 262.856074 89.263579 L 262.856074 91.763579 L 256.856074 91.763579 L 256.856074 89.263579 L 262.856074 89.263579" stroke="gray" fill="white" stroke-width="1px"></path><path d="M 268.856074 89.263579 L 268.856074 91.763579 L 262.856074 91.763579 L 262.856074 89.263579 L 268.856074 89.263579" stroke="gray" fill="white" stroke-width="1px"></path><path d="M 274.856074 89.263579 L 274.856074 91.763579 L 268.856074 91.763579 L 268.856074 89.263579 L 274.856074 89.263579" stroke="gray" fill="white" stroke-width="1px"></path><path d="M 260.162666 77.263579 L 260.162666 79.763579 L 254.162666 79.763579 L 254.162666 77.263579 L 260.162666 77.263579" stroke="gray" fill="white" stroke-width="1px"></path><path d="M 266.162666 77.263579 L 266.162666 79.763579 L 260.162666 79.763579 L 260.162666 77.263579 L 266.162666 77.263579" stroke="gray" fill="white" stroke-width="1px"></path><path d="M 272.162666 77.263579 L 272.162666 79.763579 L 266.162666 79.763579 L 266.162666 77.263579 L 272.162666 77.263579" stroke="gray" fill="white" stroke-width="1px"></path><path d="M 278.162666 77.263579 L 278.162666 79.763579 L 272.162666 79.763579 L 272.162666 77.263579 L 278.162666 77.263579" stroke="gray" fill="white" stroke-width="1px"></path><path d="M 257.469258 65.263579 L 257.469258 67.763579 L 251.469258 67.763579 L 251.469258 65.263579 L 257.469258 65.263579" stroke="gray" fill="white" stroke-width="1px"></path><path d="M 263.469258 65.263579 L 263.469258 67.763579 L 257.469258 67.763579 L 257.469258 65.263579 L 263.469258 65.263579" stroke="gray" fill="white" stroke-width="1px"></path><path d="M 269.469258 65.263579 L 269.469258 67.763579 L 263.469258 67.763579 L 263.469258 65.263579 L 269.469258 65.263579" stroke="gray" fill="white" stroke-width="1px"></path><path d="M 216.235984 101.263579 L 216.235984 103.763579 L 210.235984 103.763579 L 210.235984 101.263579 L 216.235984 101.263579" stroke="gray" fill="white" stroke-width="1px"></path><path d="M 222.235984 101.263579 L 222.235984 103.763579 L 216.235984 103.763579 L 216.235984 101.263579 L 222.235984 101.263579" stroke="gray" fill="white" stroke-width="1px"></path><path d="M 228.235984 101.263579 L 228.235984 103.763579 L 222.235984 103.763579 L 222.235984 101.263579 L 228.235984 101.263579" stroke="gray" fill="white" stroke-width="1px"></path><path d="M 214.848120 89.263579 L 214.848120 91.763579 L 208.848120 91.763579 L 208.848120 89.263579 L 214.848120 89.263579" stroke="gray" fill="white" stroke-width="1px"></path><path d="M 220.848120 89.263579 L 220.848120 91.763579 L 214.848120 91.763579 L 214.848120 89.263579 L 220.848120 89.263579" stroke="gray" fill="white" stroke-width="1px"></path><path d="M 226.848120 89.263579 L 226.848120 91.763579 L 220.848120 91.763579 L 220.848120 89.263579 L 226.848120 89.263579" stroke="gray" fill="white" stroke-width="1px"></path><path d="M 22.000000 101.263579 L 22.000000 103.763579 L 16.000000 103.763579 L 16.000000 101.263579 L 22.000000 101.263579" stroke="gray" fill="white" stroke-width="1px"></path><path d="M 28.000000 101.263579 L 28.000000 103.763579 L 22.000000 103.763579 L 22.000000 101.263579 L 28.000000 101.263579" stroke="gray" fill="white" stroke-width="1px"></path><path d="M 34.000000 101.263579 L 34.000000 103.763579 L 28.000000 103.763579 L 28.000000 101.263579 L 34.000000 101.263579" stroke="gray" fill="white" stroke-width="1px"></path><path d="M 40.000000 101.263579 L 40.000000 103.763579 L 34.000000 103.763579 L 34.000000 101.263579 L 40.000000 101.263579" stroke="gray" fill="white" stroke-width="1px"></path><path d="M 22.000000 89.263579 L 22.000000 91.763579 L 16.000000 91.763579 L 16.000000 89.263579 L 22.000000 89.263579" stroke="gray" fill="white" stroke-width="1px"></path><path d="M 28.000000 89.263579 L 28.000000 91.763579 L 22.000000 91.763579 L 22.000000 89.263579 L 28.000000 89.263579" stroke="gray" fill="white" stroke-width="1px"></path><path d="M 34.000000 89.263579 L 34.000000 91.763579 L 28.000000 91.763579 L 28.000000 89.263579 L 34.000000 89.263579" stroke="gray" fill="white" stroke-width="1px"></path><path d="M 40.000000 89.263579 L 40.000000 91.763579 L 34.000000 91.763579 L 34.000000 89.263579 L 40.000000 89.263579" stroke="gray" fill="white" stroke-width="1px"></path><path d="M 22.000000 77.263579 L 22.000000 79.763579 L 16.000000 79.763579 L 16.000000 77.263579 L 22.000000 77.263579" stroke="gray" fill="white" stroke-width="1px"></path><path d="M 28.000000 77.263579 L 28.000000 79.763579 L 22.000000 79.763579 L 22.000000 77.263579 L 28.000000 77.263579" stroke="gray" fill="white" stroke-width="1px"></path><path d="M 34.000000 77.263579 L 34.000000 79.763579 L 28.000000 79.763579 L 28.000000 77.263579 L 34.000000 77.263579" stroke="gray" fill="white" stroke-width="1px"></path><path d="M 40.000000 77.263579 L 40.000000 79.763579 L 34.000000 79.763579 L 34.000000 77.263579 L 40.000000 77.263579" stroke="gray" fill="white" stroke-width="1px"></path><path d="M 22.000000 65.263579 L 22.000000 67.763579 L 16.000000 67.763579 L 16.000000 65.263579 L 22.000000 65.263579" stroke="gray" fill="white" stroke-width="1px"></path><path d="M 28.000000 65.263579 L 28.000000 67.763579 L 22.000000 67.763579 L 22.000000 65.263579 L 28.000000 65.263579" stroke="gray" fill="white" stroke-width="1px"></path><path d="M 34.000000 65.263579 L 34.000000 67.763579 L 28.000000 67.763579 L 28.000000 65.263579 L 34.000000 65.263579" stroke="gray" fill="white" stroke-width="1px"></path><path d="M 40.000000 65.263579 L 40.000000 67.763579 L 34.000000 67.763579 L 34.000000 65.263579 L 40.000000 65.263579" stroke="gray" fill="white" stroke-width="1px"></path><path d="M 22.000000 53.263579 L 22.000000 55.763579 L 16.000000 55.763579 L 16.000000 53.263579 L 22.000000 53.263579" stroke="gray" fill="white" stroke-width="1px"></path><path d="M 28.000000 53.263579 L 28.000000 55.763579 L 22.000000 55.763579 L 22.000000 53.263579 L 28.000000 53.263579" stroke="gray" fill="white" stroke-width="1px"></path><path d="M 34.000000 53.263579 L 34.000000 55.763579 L 28.000000 55.763579 L 28.000000 53.263579 L 34.000000 53.263579" stroke="gray" fill="white" stroke-width="1px"></path><path d="M 40.000000 53.263579 L 40.000000 55.763579 L 34.000000 55.763579 L 34.000000 53.263579 L 40.000000 53.263579" stroke="gray" fill="white" stroke-width="1px"></path></g><g id="crv-base"><path d="M 221.371570 123.090312 L 221.371570 169.241094 L 120.000633 169.241094 L 120.000633 156.444206 L 126.051258 156.444206 L 126.051258 128.832500 L 123.590320 128.832500 L 123.590320 125.551250 L 126.051258 125.551250 L 126.051258 123.858132 L 91.315945 123.858125 L 91.315945 134.738750 L 64.258762 134.738750 L 64.258762 123.687497 L 10.000000 123.687497 L 10.000000 226.180625 L 64.258758 226.180625 L 64.258758 192.357500 L 91.315945 192.357500 L 91.315945 220.123437 L 283.459383 220.123437 L 283.459383 123.090312 L 221.371570 123.090312" stroke="black" fill="none" stroke-width="1px"></path><path d="M 221.371570 10.000000 L 221.371570 56.150781 L 120.000633 56.150781 L 120.000633 43.353893 L 126.051258 43.353893 L 126.051258 15.742187 L 123.590320 15.742187 L 123.590320 12.460937 L 126.051258 12.460937 L 126.051258 10.767819 L 91.315945 10.767812 L 91.315945 21.648438 L 64.258762 21.648438 L 64.258762 10.597185 L 10.000000 10.597185 L 10.000000 113.090312 L 64.258758 113.090312 L 64.258758 79.267187 L 91.315945 79.267187 L 91.315945 107.033125 L 283.459383 107.033125 L 283.459383 10.000000 L 221.371570 10.000000" stroke="black" fill="none" stroke-width="1px"></path><path d="M 10.387195 156.559062 L 10.387195 154.590312 L 12.355945 154.590312 L 12.355945 156.559062 L 10.387195 156.559062" stroke="black" fill="white" stroke-width="1px"></path><path d="M 10.387195 43.468750 L 10.387195 41.500000 L 12.355945 41.500000 L 12.355945 43.468750 L 10.387195 43.468750" stroke="black" fill="white" stroke-width="1px"></path><path d="M 10.387195 188.059062 L 10.387195 186.090312 L 12.355945 186.090312 L 12.355945 188.059062 L 10.387195 188.059062" stroke="black" fill="white" stroke-width="1px"></path><path d="M 10.387195 74.968750 L 10.387195 73.000000 L 12.355945 73.000000 L 12.355945 74.968750 L 10.387195 74.968750" stroke="black" fill="white" stroke-width="1px"></path><path d="M 10.387195 219.559062 L 10.387195 217.590312 L 12.355945 217.590312 L 12.355945 219.559062 L 10.387195 219.559062" stroke="black" fill="white" stroke-width="1px"></path><path d="M 10.387195 106.468750 L 10.387195 104.500000 L 12.355945 104.500000 L 12.355945 106.468750 L 10.387195 106.468750" stroke="black" fill="white" stroke-width="1px"></path><path d="M 60.754383 128.340312 L 60.754383 125.387187 L 63.871570 125.387187 L 63.871570 128.340312 L 60.754383 128.340312" stroke="black" fill="white" stroke-width="1px"></path><path d="M 60.754383 15.250000 L 60.754383 12.296875 L 63.871570 12.296875 L 63.871570 15.250000 L 60.754383 15.250000" stroke="black" fill="white" stroke-width="1px"></path><path d="M 280.598133 219.230937 L 280.598133 217.262187 L 282.566883 217.262187 L 282.566883 219.230937 L 280.598133 219.230937" stroke="black" fill="white" stroke-width="1px"></path><path d="M 280.598133 106.140625 L 280.598133 104.171875 L 282.566883 104.171875 L 282.566883 106.140625 L 280.598133 106.140625" stroke="black" fill="white" stroke-width="1px"></path><path d="M 280.598133 188.059062 L 280.598133 186.090312 L 282.566883 186.090312 L 282.566883 188.059062 L 280.598133 188.059062" stroke="black" fill="white" stroke-width="1px"></path><path d="M 280.598133 74.968750 L 280.598133 73.000000 L 282.566883 73.000000 L 282.566883 74.968750 L 280.598133 74.968750" stroke="black" fill="white" stroke-width="1px"></path><path d="M 280.598133 156.559050 L 280.598133 154.590300 L 282.566883 154.590300 L 282.566883 156.559050 L 280.598133 156.559050" stroke="black" fill="white" stroke-width="1px"></path><path d="M 280.598133 43.468737 L 280.598133 41.499987 L 282.566883 41.499987 L 282.566883 43.468737 L 280.598133 43.468737" stroke="black" fill="white" stroke-width="1px"></path><path d="M 248.605945 127.355937 L 248.605945 123.418437 L 251.887195 123.418437 L 251.887195 127.355937 L 248.605945 127.355937" stroke="black" fill="white" stroke-width="1px"></path><path d="M 248.605945 14.265625 L 248.605945 10.328125 L 251.887195 10.328125 L 251.887195 14.265625 L 248.605945 14.265625" stroke="black" fill="white" stroke-width="1px"></path><path d="M 248.605945 157.871562 L 248.605945 153.934062 L 251.887195 153.934062 L 251.887195 157.871562 L 248.605945 157.871562" stroke="black" fill="white" stroke-width="1px"></path><path d="M 248.605945 44.781250 L 248.605945 40.843750 L 251.887195 40.843750 L 251.887195 44.781250 L 248.605945 44.781250" stroke="black" fill="white" stroke-width="1px"></path><path d="M 248.605945 189.043437 L 248.605945 185.105937 L 251.887195 185.105937 L 251.887195 189.043437 L 248.605945 189.043437" stroke="black" fill="white" stroke-width="1px"></path><path d="M 248.605945 75.953125 L 248.605945 72.015625 L 251.887195 72.015625 L 251.887195 75.953125 L 248.605945 75.953125" stroke="black" fill="white" stroke-width="1px"></path><path d="M 248.934070 219.230937 L 248.934070 216.277812 L 251.887195 216.277812 L 251.887195 219.230937 L 248.934070 219.230937" stroke="black" fill="white" stroke-width="1px"></path><path d="M 248.934070 106.140625 L 248.934070 103.187500 L 251.887195 103.187500 L 251.887195 106.140625 L 248.934070 106.140625" stroke="black" fill="white" stroke-width="1px"></path><path d="M 218.090320 189.043437 L 218.090320 185.105937 L 221.371570 185.105937 L 221.371570 189.043437 L 218.090320 189.043437" stroke="black" fill="white" stroke-width="1px"></path><path d="M 218.090320 75.953125 L 218.090320 72.015625 L 221.371570 72.015625 L 221.371570 75.953125 L 218.090320 75.953125" stroke="black" fill="white" stroke-width="1px"></path><path d="M 218.254383 219.230937 L 218.254383 216.277812 L 221.207508 216.277812 L 221.207508 219.230937 L 218.254383 219.230937" stroke="black" fill="white" stroke-width="1px"></path><path d="M 218.254383 106.140625 L 218.254383 103.187500 L 221.207508 103.187500 L 221.207508 106.140625 L 218.254383 106.140625" stroke="black" fill="white" stroke-width="1px"></path><path d="M 186.590320 189.043437 L 186.590320 185.105937 L 189.871570 185.105937 L 189.871570 189.043437 L 186.590320 189.043437" stroke="black" fill="white" stroke-width="1px"></path><path d="M 186.590320 75.953125 L 186.590320 72.015625 L 189.871570 72.015625 L 189.871570 75.953125 L 186.590320 75.953125" stroke="black" fill="white" stroke-width="1px"></path><path d="M 186.754383 219.230937 L 186.754383 216.277812 L 189.707508 216.277812 L 189.707508 219.230937 L 186.754383 219.230937" stroke="black" fill="white" stroke-width="1px"></path><path d="M 186.754383 106.140625 L 186.754383 103.187500 L 189.707508 103.187500 L 189.707508 106.140625 L 186.754383 106.140625" stroke="black" fill="white" stroke-width="1px"></path><path d="M 155.090320 189.043437 L 155.090320 185.105937 L 158.371570 185.105937 L 158.371570 189.043437 L 155.090320 189.043437" stroke="black" fill="white" stroke-width="1px"></path><path d="M 155.090320 75.953125 L 155.090320 72.015625 L 158.371570 72.015625 L 158.371570 75.953125 L 155.090320 75.953125" stroke="black" fill="white" stroke-width="1px"></path><path d="M 155.254383 219.230937 L 155.254383 216.277812 L 158.207508 216.277812 L 158.207508 219.230937 L 155.254383 219.230937" stroke="black" fill="white" stroke-width="1px"></path><path d="M 155.254383 106.140625 L 155.254383 103.187500 L 158.207508 103.187500 L 158.207508 106.140625 L 155.254383 106.140625" stroke="black" fill="white" stroke-width="1px"></path><path d="M 123.590320 189.043437 L 123.590320 185.105937 L 126.871570 185.105937 L 126.871570 189.043437 L 123.590320 189.043437" stroke="black" fill="white" stroke-width="1px"></path><path d="M 123.590320 75.953125 L 123.590320 72.015625 L 126.871570 72.015625 L 126.871570 75.953125 L 123.590320 75.953125" stroke="black" fill="white" stroke-width="1px"></path><path d="M 123.754383 219.230937 L 123.754383 216.277812 L 126.707508 216.277812 L 126.707508 219.230937 L 123.754383 219.230937" stroke="black" fill="white" stroke-width="1px"></path><path d="M 123.754383 106.140625 L 123.754383 103.187500 L 126.707508 103.187500 L 126.707508 106.140625 L 123.754383 106.140625" stroke="black" fill="white" stroke-width="1px"></path><path d="M 92.090320 157.543437 L 92.090320 153.605937 L 95.371570 153.605937 L 95.371570 157.543437 L 92.090320 157.543437" stroke="black" fill="white" stroke-width="1px"></path><path d="M 92.090320 44.453125 L 92.090320 40.515625 L 95.371570 40.515625 L 95.371570 44.453125 L 92.090320 44.453125" stroke="black" fill="white" stroke-width="1px"></path><path d="M 92.090320 189.043437 L 92.090320 185.105937 L 95.371570 185.105937 L 95.371570 189.043437 L 92.090320 189.043437" stroke="black" fill="white" stroke-width="1px"></path><path d="M 92.090320 75.953125 L 92.090320 72.015625 L 95.371570 72.015625 L 95.371570 75.953125 L 92.090320 75.953125" stroke="black" fill="white" stroke-width="1px"></path><path d="M 92.090320 128.504375 L 92.090320 125.551250 L 95.207508 125.551250 L 95.207508 128.504375 L 92.090320 128.504375" stroke="black" fill="white" stroke-width="1px"></path><path d="M 92.090320 15.414062 L 92.090320 12.460937 L 95.207508 12.460937 L 95.207508 15.414062 L 92.090320 15.414062" stroke="black" fill="white" stroke-width="1px"></path><path d="M 60.590320 157.215312 L 60.590320 153.934062 L 63.871570 153.934062 L 63.871570 157.215312 L 60.590320 157.215312" stroke="black" fill="white" stroke-width="1px"></path><path d="M 60.590320 44.125000 L 60.590320 40.843750 L 63.871570 40.843750 L 63.871570 44.125000 L 60.590320 44.125000" stroke="black" fill="white" stroke-width="1px"></path><path d="M 60.754383 219.230937 L 60.754383 216.277812 L 63.871570 216.277812 L 63.871570 219.230937 L 60.754383 219.230937" stroke="black" fill="white" stroke-width="1px"></path><path d="M 60.754383 106.140625 L 60.754383 103.187500 L 63.871570 103.187500 L 63.871570 106.140625 L 60.754383 106.140625" stroke="black" fill="white" stroke-width="1px"></path><path d="M 30.074695 128.504375 L 30.074695 125.223125 L 33.027820 125.223125 L 33.027820 128.504375 L 30.074695 128.504375" stroke="black" fill="white" stroke-width="1px"></path><path d="M 30.074695 15.414062 L 30.074695 12.132812 L 33.027820 12.132812 L 33.027820 15.414062 L 30.074695 15.414062" stroke="black" fill="white" stroke-width="1px"></path><path d="M 30.074695 157.215312 L 30.074695 153.934062 L 33.355945 153.934062 L 33.355945 157.215312 L 30.074695 157.215312" stroke="black" fill="white" stroke-width="1px"></path><path d="M 30.074695 44.125000 L 30.074695 40.843750 L 33.355945 40.843750 L 33.355945 44.125000 L 30.074695 44.125000" stroke="black" fill="white" stroke-width="1px"></path><path d="M 30.074695 188.715312 L 30.074695 185.434062 L 33.355945 185.434062 L 33.355945 188.715312 L 30.074695 188.715312" stroke="black" fill="white" stroke-width="1px"></path><path d="M 30.074695 75.625000 L 30.074695 72.343750 L 33.355945 72.343750 L 33.355945 75.625000 L 30.074695 75.625000" stroke="black" fill="white" stroke-width="1px"></path><path d="M 30.074695 219.230937 L 30.074695 216.277812 L 33.027820 216.277812 L 33.027820 219.230937 L 30.074695 219.230937" stroke="black" fill="white" stroke-width="1px"></path><path d="M 30.074695 106.140625 L 30.074695 103.187500 L 33.027820 103.187500 L 33.027820 106.140625 L 30.074695 106.140625" stroke="black" fill="white" stroke-width="1px"></path><path d="M 10.387195 127.191875 L 10.387195 125.223125 L 12.355945 125.223125 L 12.355945 127.191875 L 10.387195 127.191875" stroke="black" fill="white" stroke-width="1px"></path><path d="M 10.387195 14.101562 L 10.387195 12.132812 L 12.355945 12.132812 L 12.355945 14.101562 L 10.387195 14.101562" stroke="black" fill="white" stroke-width="1px"></path><path d="M 60.590320 189.863750 L 60.590320 185.434062 L 63.871570 185.434062 L 63.871570 188.715312 L 62.230945 188.715312 L 62.230945 189.863750 L 60.590320 189.863750" stroke="black" fill="white" stroke-width="1px"></path><path d="M 60.590320 76.773437 L 60.590320 72.343750 L 63.871570 72.343750 L 63.871570 75.625000 L 62.230945 75.625000 L 62.230945 76.773437 L 60.590320 76.773437" stroke="black" fill="white" stroke-width="1px"></path></g></svg>