<svg width="293.459383" height="236.180625" xmlns="http://www.w3.org/2000/svg" xmlns:xlink="http://www.w3.org/1999/xlink" version="1.1"><g id="crv-background"><path d="M 221.371570 123.090312 L 221.371570 169.241094 L 120.000633 169.241094 L 120.000633 156.444206 L 126.051258 156.444206 L 126.051258 128.832500 L 123.590320 128.832500 L 123.590320 125.551250 L 126.051258 125.551250 L 126.051258 123.858132 L 91.315945 123.858125 L 91.315945 134.738750 L 64.258762 134.738750 L 64.258762 123.687497 L 10.000000 123.687497 L 10.000000 226.180625 L 64.258758 226.180625 L 64.258758 192.357500 L 91.315945 192.357500 L 91.315945 220.123437 L 283.459383 220.123437 L 283.459383 123.090312 L 221.371570 123.090312" stroke="none" fill="white" stroke-width="1px"></path><path d="M 221.371570 10.000000 L 221.371570 56.150781 L 120.000633 56.150781 L 120.000633 43.353893 L 126.051258 43.353893 L 126.051258 15.742187 L 123.590320 15.742187 L 123.590320 12.460937 L 126.051258 12.460937 L 126.051258 10.767819 L 91.315945 10.767812 L 91.315945 21.648438 L 64.258762 21.648438 L 64.258762 10.597185 L 10.000000 10.597185 L 10.000000 113.090312 L 64.258758 113.090312 L 64.258758 79.267187 L 91.315945 79.267187 L 91.315945 107.033125 L 283.459383 107.033125 L 283.459383 10.000000 L 221.371570 10.000000" stroke="none" fill="white" stroke-width="1px"></path></g><g id="crv-nbhd"><path d="M 221.737654 10.000004 L 221.737654 28.620588 L 221.737654 47.241173 L 252.598518 52.729987 L 283.459383 58.218801 L 283.459383 34.109401 L 283.459382 10.000000 L 252.598555 10.000002 L 221.737654 10.000004" stroke="#DD2222" fill="none" stroke-width="1px"></path><path d="M 221.737654 47.241173 L 221.737654 79.151330 L 212.758525 79.151330 L 213.731265 86.899101 L 283.459383 72.611836 L 283.459383 58.218801 L 221.737654 47.241173" stroke="#DD2222" fill="none" stroke-width="1px"></path><path d="M 283.459383 107.033125 L 283.459383 89.822480 L 283.459383 72.611836 L 248.595324 79.755468 L 213.731265 86.899101 L 213.262326 96.966113 L 212.793388 107.033125 L 248.126385 107.033125 L 283.459383 107.033125" stroke="#DD2222" fill="none" stroke-width="1px"></path><path d="M 166.112029 107.033125 L 189.452709 107.033125 L 212.793388 107.033125 L 213.262326 96.966113 L 213.731265 86.899101 L 213.244895 83.025215 L 212.758525 79.151330 L 190.741519 79.151330 L 168.724513 79.151329 L 167.418271 93.092226 L 166.112029 107.033125" stroke="#DD2222" fill="none" stroke-width="1px"></path><path d="M 168.724513 79.151329 L 146.661281 79.151329 L 124.598049 79.151328 L 126.675369 93.092227 L 128.752690 107.033125 L 147.432359 107.033125 L 166.112029 107.033125 L 167.418271 93.092227 L 168.724513 79.151329" stroke="#DD2222" fill="none" stroke-width="1px"></path><path d="M 124.598049 79.151328 L 107.956997 79.151328 L 91.315945 79.151327 L 91.315945 93.092226 L 91.315945 107.033125 L 110.034317 107.033125 L 128.752690 107.033125 L 126.675369 93.092227 L 124.598049 79.151328" stroke="#DD2222" fill="none" stroke-width="1px"></path><path d="M 64.258758 113.090312 L 64.258758 105.693083 L 64.258758 98.295854 L 61.181019 81.560665 L 58.103281 64.825475 L 34.051640 64.554153 L 10.000000 64.282831 L 10.000000 88.686572 L 10.000000 113.090312 L 37.129379 113.090312 L 64.258758 113.090312" stroke="#DD2222" fill="none" stroke-width="1px"></path><path d="M 10.000000 10.597184 L 10.000000 37.440008 L 10.000000 64.282831 L 34.051640 64.554153 L 58.103281 64.825475 L 61.181019 61.284845 L 64.258758 57.744215 L 64.258758 56.947498 L 64.258758 56.150781 L 64.258758 33.373983 L 64.258758 10.597185 L 37.129379 10.597185 L 10.000000 10.597184" stroke="#DD2222" fill="none" stroke-width="1px"></path><path d="M 10.000000 123.687497 L 10.000000 148.647308 L 10.000000 173.607120 L 37.129379 179.266101 L 64.258758 184.925081 L 64.258758 177.083088 L 64.258758 169.241094 L 64.258758 146.464296 L 64.258758 123.687497 L 37.129385 123.687497 L 10.000000 123.687497" stroke="#DD2222" fill="none" stroke-width="1px"></path><path d="M 10.000000 173.607120 L 10.000000 199.893873 L 10.000000 226.180625 L 37.129383 226.180625 L 64.258767 226.180625 L 64.258767 205.552853 L 64.258758 184.925081 L 37.129385 179.266102 L 10.000000 173.607120" stroke="#DD2222" fill="none" stroke-width="1px"></path><path d="M 142.440508 192.043444 L 116.878227 192.043444 L 91.315945 192.043444 L 91.315945 206.083441 L 91.315945 220.123437 L 112.583524 220.123437 L 133.851103 220.123437 L 138.145805 206.083441 L 142.440508 192.043444" stroke="#DD2222" fill="none" stroke-width="1px"></path><path d="M 133.851103 220.123437 L 161.013712 220.123437 L 188.176321 220.123437 L 184.711401 206.083441 L 181.246482 192.043444 L 161.843495 192.043444 L 142.440508 192.043444 L 138.145806 206.083440 L 133.851103 220.123437" stroke="#DD2222" fill="none" stroke-width="1px"></path><path d="M 225.997677 192.043444 L 203.622079 192.043444 L 181.246482 192.043444 L 184.711401 206.083441 L 188.176321 220.123437 L 207.423874 220.123437 L 226.671427 220.123437 L 226.334552 206.083441 L 225.997677 192.043444" stroke="#DD2222" fill="none" stroke-width="1px"></path><path d="M 283.459383 220.123437 L 283.459383 195.324965 L 283.459383 170.526493 L 261.598517 171.793958 L 239.737652 173.061424 L 239.737652 182.552434 L 239.737652 192.043444 L 232.867664 192.043444 L 225.997677 192.043444 L 226.334552 206.083441 L 226.671427 220.123437 L 255.065405 220.123437 L 283.459383 220.123437" stroke="#DD2222" fill="none" stroke-width="1px"></path><path d="M 239.737652 123.090312 L 239.737652 148.075868 L 239.737652 173.061424 L 261.598517 171.793958 L 283.459383 170.526493 L 283.459383 146.808403 L 283.459383 123.090312 L 261.598538 123.090312 L 239.737652 123.090312" stroke="#DD2222" fill="none" stroke-width="1px"></path></g><g id="crv-amen"><path d="M 62.600254 170.015505 L 62.600254 149.425279 L 62.600254 128.835054 L 55.966241 128.835054 L 49.332227 128.835054 L 49.332227 149.425279 L 49.332227 170.015505 L 55.966241 170.015505 L 62.600254 170.015505" stroke="none" fill="#2288CC" stroke-width="1px"></path><path d="M 49.309990 221.879775 L 55.944000 221.879775 L 62.578016 221.879775 L 62.578012 205.377557 L 62.578009 188.875340 L 55.943993 187.491535 L 49.309983 186.107731 L 49.309986 203.993757 L 49.309990 221.879775" stroke="none" fill="#2288CC" stroke-width="1px"></path><path d="M 122.547590 217.300921 L 127.767710 217.300921 L 132.987830 217.300921 L 136.423592 206.068924 L 139.859353 194.836927 L 132.921910 194.836927 L 125.984466 194.836927 L 122.695644 205.588558 L 119.406821 216.340190 L 120.977205 216.820555 L 122.547590 217.300921" stroke="none" fill="#2288CC" stroke-width="1px"></path><path d="M 172.110054 217.316745 L 178.943104 217.316745 L 185.776154 217.316745 L 183.004219 206.084747 L 180.232283 194.852750 L 173.955304 194.852750 L 167.678325 194.852750 L 167.154177 194.982104 L 166.630030 195.111458 L 169.370042 206.214101 L 172.110054 217.316745" stroke="none" fill="#2288CC" stroke-width="1px"></path><path d="M 211.673225 217.315438 L 218.309148 217.315438 L 224.945072 217.315438 L 224.675571 206.083441 L 224.406071 194.851444 L 217.770148 194.851444 L 211.134225 194.851444 L 211.403725 206.083441 L 211.673225 217.315438" stroke="none" fill="#2288CC" stroke-width="1px"></path><path d="M 238.746726 191.590079 L 238.746726 193.182950 L 238.746726 194.775821 L 233.250736 194.775821 L 227.754746 194.775821 L 228.024246 206.007818 L 228.293746 217.239815 L 234.929669 217.239815 L 241.565592 217.239815 L 241.257239 204.388528 L 240.948886 191.537241 L 239.847806 191.563660 L 238.746726 191.590079" stroke="none" fill="#2288CC" stroke-width="1px"></path><path d="M 254.658812 128.039500 L 248.024800 128.039500 L 241.390784 128.039500 L 241.390784 148.027945 L 241.390784 168.016389 L 248.024798 167.631757 L 254.658812 167.247126 L 254.658812 147.643313 L 254.658812 128.039500" stroke="none" fill="#2288CC" stroke-width="1px"></path><path d="M 227.909827 33.178157 L 227.909827 39.916281 L 227.909827 46.654405 L 252.598518 51.045456 L 277.287210 55.436508 L 277.287210 48.698384 L 277.287210 41.960260 L 252.598518 37.569209 L 227.909827 33.178157" stroke="none" fill="#2288CC" stroke-width="1px"></path><path d="M 272.117967 71.350852 L 277.243472 70.300638 L 277.243472 58.786210 L 227.866089 50.004108 L 227.866089 63.480355 L 272.117967 71.350852" stroke="none" fill="#2288CC" stroke-width="1px"></path><path d="M 276.446685 89.288584 L 276.446685 82.516742 L 276.446685 75.744899 L 248.555438 81.459805 L 220.664191 87.174711 L 220.345707 94.011811 L 220.027224 100.848911 L 248.236954 95.068748 L 276.446685 89.288584" stroke="none" fill="#2288CC" stroke-width="1px"></path><path d="M 183.455175 81.939509 L 176.792104 81.939509 L 170.129032 81.939509 L 169.084039 93.092227 L 168.039046 104.244945 L 174.702117 104.244945 L 181.365188 104.244945 L 182.410182 93.092227 L 183.455175 81.939509" stroke="none" fill="#2288CC" stroke-width="1px"></path><path d="M 163.113807 94.051439 L 163.735405 87.417426 L 164.357002 80.783412 L 146.706417 80.783412 L 129.055831 80.783411 L 130.044359 87.417425 L 131.032888 94.051439 L 147.073347 94.051439 L 163.113807 94.051439" stroke="none" fill="#2288CC" stroke-width="1px"></path><path d="M 123.371936 94.097649 L 122.383407 87.463635 L 121.394879 80.829622 L 108.082038 80.829621 L 94.769196 80.829621 L 94.769196 87.463635 L 94.769196 94.097649 L 109.070566 94.097649 L 123.371936 94.097649" stroke="none" fill="#2288CC" stroke-width="1px"></path><path d="M 62.034177 99.115816 L 62.034177 97.316490 L 62.034177 95.517164 L 59.571987 82.129012 L 57.109796 68.740861 L 50.350503 68.664611 L 43.591211 68.588360 L 46.608186 84.993148 L 49.625161 101.397935 L 55.829669 100.256876 L 62.034177 99.115816" stroke="none" fill="#2288CC" stroke-width="1px"></path><path d="M 15.300147 49.385513 L 15.300147 56.019949 L 15.300147 62.654385 L 34.541459 62.871442 L 53.782772 63.088500 L 56.244963 60.255996 L 58.707153 57.423491 L 58.707153 56.786118 L 58.707153 56.148745 L 58.707153 53.011962 L 58.707153 49.875179 L 37.003650 49.630346 L 15.300147 49.385513" stroke="none" fill="#2288CC" stroke-width="1px"></path></g><g id="crv-desk"><path d="M 31.459383 220.180625 L 28.959383 220.180625 L 28.959383 226.180625 L 31.459383 226.180625 L 31.459383 220.180625" stroke="gray" fill="white" stroke-width="1px"></path><path d="M 31.459383 214.180625 L 28.959383 214.180625 L 28.959383 220.180625 L 31.459383 220.180625 L 31.459383 214.180625" stroke="gray" fill="white" stroke-width="1px"></path><path d="M 31.459383 208.180625 L 28.959383 208.180625 L 28.959383 214.180625 L 31.459383 214.180625 L 31.459383 208.180625" stroke="gray" fill="white" stroke-width="1px"></path><path d="M 31.459383 202.180625 L 28.959383 202.180625 L 28.959383 208.180625 L 31.459383 208.180625 L 31.459383 202.180625" stroke="gray" fill="white" stroke-width="1px"></path><path d="M 31.459383 196.180625 L 28.959383 196.180625 L 28.959383 202.180625 L 31.459383 202.180625 L 31.459383 196.180625" stroke="gray" fill="white" stroke-width="1px"></path><path d="M 31.459383 190.180625 L 28.959383 190.180625 L 28.959383 196.180625 L 31.459383 196.180625 L 31.459383 190.180625" stroke="gray" fill="white" stroke-width="1px"></path><path d="M 31.459383 184.180625 L 28.959383 184.180625 L 28.959383 190.180625 L 31.459383 190.180625 L 31.459383 184.180625" stroke="gray" fill="white" stroke-width="1px"></path><path d="M 19.459383 220.180625 L 16.959383 220.180625 L 16.959383 226.180625 L 19.459383 226.180625 L 19.459383 220.180625" stroke="gray" fill="white" stroke-width="1px"></path><path d="M 19.459383 214.180625 L 16.959383 214.180625 L 16.959383 220.180625 L 19.459383 220.180625 L 19.459383 214.180625" stroke="gray" fill="white" stroke-width="1px"></path><path d="M 19.459383 208.180625 L 16.959383 208.180625 L 16.959383 214.180625 L 19.459383 214.180625 L 19.459383 208.180625" stroke="gray" fill="white" stroke-width="1px"></path><path d="M 19.459383 202.180625 L 16.959383 202.180625 L 16.959383 208.180625 L 19.459383 208.180625 L 19.459383 202.180625" stroke="gray" fill="white" stroke-width="1px"></path><path d="M 19.459383 196.180625 L 16.959383 196.180625 L 16.959383 202.180625 L 19.459383 202.180625 L 19.459383 196.180625" stroke="gray" fill="white" stroke-width="1px"></path><path d="M 19.459383 190.180625 L 16.959383 190.180625 L 16.959383 196.180625 L 19.459383 196.180625 L 19.459383 190.180625" stroke="gray" fill="white" stroke-width="1px"></path><path d="M 19.459383 184.180625 L 16.959383 184.180625 L 16.959383 190.180625 L 19.459383 190.180625 L 19.459383 184.180625" stroke="gray" fill="white" stroke-width="1px"></path><path d="M 19.459383 178.180625 L 16.959383 178.180625 L 16.959383 184.180625 L 19.459383 184.180625 L 19.459383 178.180625" stroke="gray" fill="white" stroke-width="1px"></path><path d="M 115.459383 208.123437 L 112.959383 208.123437 L 112.959383 214.123437 L 115.459383 214.123437 L 115.459383 208.123437" stroke="gray" fill="white" stroke-width="1px"></path><path d="M 115.459383 202.123437 L 112.959383 202.123437 L 112.959383 208.123437 L 115.459383 208.123437 L 115.459383 202.123437" stroke="gray" fill="white" stroke-width="1px"></path><path d="M 115.459383 196.123437 L 112.959383 196.123437 L 112.959383 202.123437 L 115.459383 202.123437 L 115.459383 196.123437" stroke="gray" fill="white" stroke-width="1px"></path><path d="M 103.459383 214.123437 L 100.959383 214.123437 L 100.959383 220.123437 L 103.459383 220.123437 L 103.459383 214.123437" stroke="gray" fill="white" stroke-width="1px"></path><path d="M 103.459383 208.123437 L 100.959383 208.123437 L 100.959383 214.123437 L 103.459383 214.123437 L 103.459383 208.123437" stroke="gray" fill="white" stroke-width="1px"></path><path d="M 103.459383 202.123437 L 100.959383 202.123437 L 100.959383 208.123437 L 103.459383 208.123437 L 103.459383 202.123437" stroke="gray" fill="white" stroke-width="1px"></path><path d="M 103.459383 196.123437 L 100.959383 196.123437 L 100.959383 202.123437 L 103.459383 202.123437 L 103.459383 196.123437" stroke="gray" fill="white" stroke-width="1px"></path><path d="M 163.459383 214.123437 L 160.959383 214.123437 L 160.959383 220.123437 L 163.459383 220.123437 L 163.459383 214.123437" stroke="gray" fill="white" stroke-width="1px"></path><path d="M 163.459383 208.123437 L 160.959383 208.123437 L 160.959383 214.123437 L 163.459383 214.123437 L 163.459383 208.123437" stroke="gray" fill="white" stroke-width="1px"></path><path d="M 151.459383 214.123437 L 148.959383 214.123437 L 148.959383 220.123437 L 151.459383 220.123437 L 151.459383 214.123437" stroke="gray" fill="white" stroke-width="1px"></path><path d="M 151.459383 208.123437 L 148.959383 208.123437 L 148.959383 214.123437 L 151.459383 214.123437 L 151.459383 208.123437" stroke="gray" fill="white" stroke-width="1px"></path><path d="M 151.459383 202.123437 L 148.959383 202.123437 L 148.959383 208.123437 L 151.459383 208.123437 L 151.459383 202.123437" stroke="gray" fill="white" stroke-width="1px"></path><path d="M 151.459383 196.123437 L 148.959383 196.123437 L 148.959383 202.123437 L 151.459383 202.123437 L 151.459383 196.123437" stroke="gray" fill="white" stroke-width="1px"></path><path d="M 199.459383 214.123437 L 196.959383 214.123437 L 196.959383 220.123437 L 199.459383 220.123437 L 199.459383 214.123437" stroke="gray" fill="white" stroke-width="1px"></path><path d="M 199.459383 208.123437 L 196.959383 208.123437 L 196.959383 214.123437 L 199.459383 214.123437 L 199.459383 208.123437" stroke="gray" fill="white" stroke-width="1px"></path><path d="M 199.459383 202.123437 L 196.959383 202.123437 L 196.959383 208.123437 L 199.459383 208.123437 L 199.459383 202.123437" stroke="gray" fill="white" stroke-width="1px"></path><path d="M 199.459383 196.123437 L 196.959383 196.123437 L 196.959383 202.123437 L 199.459383 202.123437 L 199.459383 196.123437" stroke="gray" fill="white" stroke-width="1px"></path><path d="M 271.459383 214.123437 L 268.959383 214.123437 L 268.959383 220.123437 L 271.459383 220.123437 L 271.459383 214.123437" stroke="gray" fill="white" stroke-width="1px"></path><path d="M 271.459383 208.123437 L 268.959383 208.123437 L 268.959383 214.123437 L 271.459383 214.123437 L 271.459383 208.123437" stroke="gray" fill="white" stroke-width="1px"></path><path d="M 271.459383 202.123437 L 268.959383 202.123437 L 268.959383 208.123437 L 271.459383 208.123437 L 271.459383 202.123437" stroke="gray" fill="white" stroke-width="1px"></path><path d="M 271.459383 196.123437 L 268.959383 196.123437 L 268.959383 202.123437 L 271.459383 202.123437 L 271.459383 196.123437" stroke="gray" fill="white" stroke-width="1px"></path><path d="M 271.459383 190.123437 L 268.959383 190.123437 L 268.959383 196.123437 L 271.459383 196.123437 L 271.459383 190.123437" stroke="gray" fill="white" stroke-width="1px"></path><path d="M 271.459383 184.123437 L 268.959383 184.123437 L 268.959383 190.123437 L 271.459383 190.123437 L 271.459383 184.123437" stroke="gray" fill="white" stroke-width="1px"></path><path d="M 271.459383 178.123437 L 268.959383 178.123437 L 268.959383 184.123437 L 271.459383 184.123437 L 271.459383 178.123437" stroke="gray" fill="white" stroke-width="1px"></path><path d="M 259.459383 214.123437 L 256.959383 214.123437 L 256.959383 220.123437 L 259.459383 220.123437 L 259.459383 214.123437" stroke="gray" fill="white" stroke-width="1px"></path><path d="M 259.459383 208.123437 L 256.959383 208.123437 L 256.959383 214.123437 L 259.459383 214.123437 L 259.459383 208.123437" stroke="gray" fill="white" stroke-width="1px"></path><path d="M 259.459383 202.123437 L 256.959383 202.123437 L 256.959383 208.123437 L 259.459383 208.123437 L 259.459383 202.123437" stroke="gray" fill="white" stroke-width="1px"></path><path d="M 259.459383 196.123437 L 256.959383 196.123437 L 256.959383 202.123437 L 259.459383 202.123437 L 259.459383 196.123437" stroke="gray" fill="white" stroke-width="1px"></path><path d="M 259.459383 190.123437 L 256.959383 190.123437 L 256.959383 196.123437 L 259.459383 196.123437 L 259.459383 190.123437" stroke="gray" fill="white" stroke-width="1px"></path><path d="M 259.459383 184.123437 L 256.959383 184.123437 L 256.959383 190.123437 L 259.459383 190.123437 L 259.459383 184.123437" stroke="gray" fill="white" stroke-width="1px"></path><path d="M 259.459383 178.123437 L 256.959383 178.123437 L 256.959383 184.123437 L 259.459383 184.123437 L 259.459383 178.123437" stroke="gray" fill="white" stroke-width="1px"></path><path d="M 247.459383 214.123437 L 244.959383 214.123437 L 244.959383 220.123437 L 247.459383 220.123437 L 247.459383 214.123437" stroke="gray" fill="white" stroke-width="1px"></path><path d="M 247.459383 208.123437 L 244.959383 208.123437 L 244.959383 214.123437 L 247.459383 214.123437 L 247.459383 208.123437" stroke="gray" fill="white" stroke-width="1px"></path><path d="M 247.459383 202.123437 L 244.959383 202.123437 L 244.959383 208.123437 L 247.459383 208.123437 L 247.459383 202.123437" stroke="gray" fill="white" stroke-width="1px"></path><path d="M 247.459383 196.123437 L 244.959383 196.123437 L 244.959383 202.123437 L 247.459383 202.123437 L 247.459383 196.123437" stroke="gray" fill="white" stroke-width="1px"></path><path d="M 247.459383 190.123437 L 244.959383 190.123437 L 244.959383 196.123437 L 247.459383 196.123437 L 247.459383 190.123437" stroke="gray" fill="white" stroke-width="1px"></path><path d="M 247.459383 184.123437 L 244.959383 184.123437 L 244.959383 190.123437 L 247.459383 190.123437 L 247.459383 184.123437" stroke="gray" fill="white" stroke-width="1px"></path><path d="M 247.459383 178.123437 L 244.959383 178.123437 L 244.959383 184.123437 L 247.459383 184.123437 L 247.459383 178.123437" stroke="gray" fill="white" stroke-width="1px"></path><path d="M 31.459383 220.180625 L 33.959383 220.180625 L 33.959383 226.180625 L 31.459383 226.180625 L 31.459383 220.180625" stroke="gray" fill="white" stroke-width="1px"></path><path d="M 31.459383 214.180625 L 33.959383 214.180625 L 33.959383 220.180625 L 31.459383 220.180625 L 31.459383 214.180625" stroke="gray" fill="white" stroke-width="1px"></path><path d="M 31.459383 208.180625 L 33.959383 208.180625 L 33.959383 214.180625 L 31.459383 214.180625 L 31.459383 208.180625" stroke="gray" fill="white" stroke-width="1px"></path><path d="M 31.459383 202.180625 L 33.959383 202.180625 L 33.959383 208.180625 L 31.459383 208.180625 L 31.459383 202.180625" stroke="gray" fill="white" stroke-width="1px"></path><path d="M 31.459383 196.180625 L 33.959383 196.180625 L 33.959383 202.180625 L 31.459383 202.180625 L 31.459383 196.180625" stroke="gray" fill="white" stroke-width="1px"></path><path d="M 31.459383 190.180625 L 33.959383 190.180625 L 33.959383 196.180625 L 31.459383 196.180625 L 31.459383 190.180625" stroke="gray" fill="white" stroke-width="1px"></path><path d="M 31.459383 184.180625 L 33.959383 184.180625 L 33.959383 190.180625 L 31.459383 190.180625 L 31.459383 184.180625" stroke="gray" fill="white" stroke-width="1px"></path><path d="M 19.459383 220.180625 L 21.959383 220.180625 L 21.959383 226.180625 L 19.459383 226.180625 L 19.459383 220.180625" stroke="gray" fill="white" stroke-width="1px"></path><path d="M 19.459383 214.180625 L 21.959383 214.180625 L 21.959383 220.180625 L 19.459383 220.180625 L 19.459383 214.180625" stroke="gray" fill="white" stroke-width="1px"></path><path d="M 19.459383 208.180625 L 21.959383 208.180625 L 21.959383 214.180625 L 19.459383 214.180625 L 19.459383 208.180625" stroke="gray" fill="white" stroke-width="1px"></path><path d="M 19.459383 202.180625 L 21.959383 202.180625 L 21.959383 208.180625 L 19.459383 208.180625 L 19.459383 202.180625" stroke="gray" fill="white" stroke-width="1px"></path><path d="M 19.459383 196.180625 L 21.959383 196.180625 L 21.959383 202.180625 L 19.459383 202.180625 L 19.459383 196.180625" stroke="gray" fill="white" stroke-width="1px"></path><path d="M 19.459383 190.180625 L 21.959383 190.180625 L 21.959383 196.180625 L 19.459383 196.180625 L 19.459383 190.180625" stroke="gray" fill="white" stroke-width="1px"></path><path d="M 19.459383 184.180625 L 21.959383 184.180625 L 21.959383 190.180625 L 19.459383 190.180625 L 19.459383 184.180625" stroke="gray" fill="white" stroke-width="1px"></path><path d="M 19.459383 178.180625 L 21.959383 178.180625 L 21.959383 184.180625 L 19.459383 184.180625 L 19.459383 178.180625" stroke="gray" fill="white" stroke-width="1px"></path><path d="M 115.459383 208.123437 L 117.959383 208.123437 L 117.959383 214.123437 L 115.459383 214.123437 L 115.459383 208.123437" stroke="gray" fill="white" stroke-width="1px"></path><path d="M 115.459383 202.123437 L 117.959383 202.123437 L 117.959383 208.123437 L 115.459383 208.123437 L 115.459383 202.123437" stroke="gray" fill="white" stroke-width="1px"></path><path d="M 115.459383 196.123437 L 117.959383 196.123437 L 117.959383 202.123437 L 115.459383 202.123437 L 115.459383 196.123437" stroke="gray" fill="white" stroke-width="1px"></path><path d="M 103.459383 214.123437 L 105.959383 214.123437 L 105.959383 220.123437 L 103.459383 220.123437 L 103.459383 214.123437" stroke="gray" fill="white" stroke-width="1px"></path><path d="M 103.459383 208.123437 L 105.959383 208.123437 L 105.959383 214.123437 L 103.459383 214.123437 L 103.459383 208.123437" stroke="gray" fill="white" stroke-width="1px"></path><path d="M 103.459383 202.123437 L 105.959383 202.123437 L 105.959383 208.123437 L 103.459383 208.123437 L 103.459383 202.123437" stroke="gray" fill="white" stroke-width="1px"></path><path d="M 103.459383 196.123437 L 105.959383 196.123437 L 105.959383 202.123437 L 103.459383 202.123437 L 103.459383 196.123437" stroke="gray" fill="white" stroke-width="1px"></path><path d="M 163.459383 214.123437 L 165.959383 214.123437 L 165.959383 220.123437 L 163.459383 220.123437 L 163.459383 214.123437" stroke="gray" fill="white" stroke-width="1px"></path><path d="M 163.459383 208.123437 L 165.959383 208.123437 L 165.959383 214.123437 L 163.459383 214.123437 L 163.459383 208.123437" stroke="gray" fill="white" stroke-width="1px"></path><path d="M 151.459383 214.123437 L 153.959383 214.123437 L 153.959383 220.123437 L 151.459383 220.123437 L 151.459383 214.123437" stroke="gray" fill="white" stroke-width="1px"></path><path d="M 151.459383 208.123437 L 153.959383 208.123437 L 153.959383 214.123437 L 151.459383 214.123437 L 151.459383 208.123437" stroke="gray" fill="white" stroke-width="1px"></path><path d="M 151.459383 202.123437 L 153.959383 202.123437 L 153.959383 208.123437 L 151.459383 208.123437 L 151.459383 202.123437" stroke="gray" fill="white" stroke-width="1px"></path><path d="M 151.459383 196.123437 L 153.959383 196.123437 L 153.959383 202.123437 L 151.459383 202.123437 L 151.459383 196.123437" stroke="gray" fill="white" stroke-width="1px"></path><path d="M 199.459383 214.123437 L 201.959383 214.123437 L 201.959383 220.123437 L 199.459383 220.123437 L 199.459383 214.123437" stroke="gray" fill="white" stroke-width="1px"></path><path d="M 199.459383 208.123437 L 201.959383 208.123437 L 201.959383 214.123437 L 199.459383 214.123437 L 199.459383 208.123437" stroke="gray" fill="white" stroke-width="1px"></path><path d="M 199.459383 202.123437 L 201.959383 202.123437 L 201.959383 208.123437 L 199.459383 208.123437 L 199.459383 202.123437" stroke="gray" fill="white" stroke-width="1px"></path><path d="M 199.459383 196.123437 L 201.959383 196.123437 L 201.959383 202.123437 L 199.459383 202.123437 L 199.459383 196.123437" stroke="gray" fill="white" stroke-width="1px"></path><path d="M 271.459383 214.123437 L 273.959383 214.123437 L 273.959383 220.123437 L 271.459383 220.123437 L 271.459383 214.123437" stroke="gray" fill="white" stroke-width="1px"></path><path d="M 271.459383 208.123437 L 273.959383 208.123437 L 273.959383 214.123437 L 271.459383 214.123437 L 271.459383 208.123437" stroke="gray" fill="white" stroke-width="1px"></path><path d="M 271.459383 202.123437 L 273.959383 202.123437 L 273.959383 208.123437 L 271.459383 208.123437 L 271.459383 202.123437" stroke="gray" fill="white" stroke-width="1px"></path><path d="M 271.459383 196.123437 L 273.959383 196.123437 L 273.959383 202.123437 L 271.459383 202.123437 L 271.459383 196.123437" stroke="gray" fill="white" stroke-width="1px"></path><path d="M 271.459383 190.123437 L 273.959383 190.123437 L 273.959383 196.123437 L 271.459383 196.123437 L 271.459383 190.123437" stroke="gray" fill="white" stroke-width="1px"></path><path d="M 271.459383 184.123437 L 273.959383 184.123437 L 273.959383 190.123437 L 271.459383 190.123437 L 271.459383 184.123437" stroke="gray" fill="white" stroke-width="1px"></path><path d="M 271.459383 178.123437 L 273.959383 178.123437 L 273.959383 184.123437 L 271.459383 184.123437 L 271.459383 178.123437" stroke="gray" fill="white" stroke-width="1px"></path><path d="M 259.459383 214.123437 L 261.959383 214.123437 L 261.959383 220.123437 L 259.459383 220.123437 L 259.459383 214.123437" stroke="gray" fill="white" stroke-width="1px"></path><path d="M 259.459383 208.123437 L 261.959383 208.123437 L 261.959383 214.123437 L 259.459383 214.123437 L 259.459383 208.123437" stroke="gray" fill="white" stroke-width="1px"></path><path d="M 259.459383 202.123437 L 261.959383 202.123437 L 261.959383 208.123437 L 259.459383 208.123437 L 259.459383 202.123437" stroke="gray" fill="white" stroke-width="1px"></path><path d="M 259.459383 196.123437 L 261.959383 196.123437 L 261.959383 202.123437 L 259.459383 202.123437 L 259.459383 196.123437" stroke="gray" fill="white" stroke-width="1px"></path><path d="M 259.459383 190.123437 L 261.959383 190.123437 L 261.959383 196.123437 L 259.459383 196.123437 L 259.459383 190.123437" stroke="gray" fill="white" stroke-width="1px"></path><path d="M 259.459383 184.123437 L 261.959383 184.123437 L 261.959383 190.123437 L 259.459383 190.123437 L 259.459383 184.123437" stroke="gray" fill="white" stroke-width="1px"></path><path d="M 259.459383 178.123437 L 261.959383 178.123437 L 261.959383 184.123437 L 259.459383 184.123437 L 259.459383 178.123437" stroke="gray" fill="white" stroke-width="1px"></path><path d="M 247.459383 214.123437 L 249.959383 214.123437 L 249.959383 220.123437 L 247.459383 220.123437 L 247.459383 214.123437" stroke="gray" fill="white" stroke-width="1px"></path><path d="M 247.459383 208.123437 L 249.959383 208.123437 L 249.959383 214.123437 L 247.459383 214.123437 L 247.459383 208.123437" stroke="gray" fill="white" stroke-width="1px"></path><path d="M 247.459383 202.123437 L 249.959383 202.123437 L 249.959383 208.123437 L 247.459383 208.123437 L 247.459383 202.123437" stroke="gray" fill="white" stroke-width="1px"></path><path d="M 247.459383 196.123437 L 249.959383 196.123437 L 249.959383 202.123437 L 247.459383 202.123437 L 247.459383 196.123437" stroke="gray" fill="white" stroke-width="1px"></path><path d="M 247.459383 190.123437 L 249.959383 190.123437 L 249.959383 196.123437 L 247.459383 196.123437 L 247.459383 190.123437" stroke="gray" fill="white" stroke-width="1px"></path><path d="M 247.459383 184.123437 L 249.959383 184.123437 L 249.959383 190.123437 L 247.459383 190.123437 L 247.459383 184.123437" stroke="gray" fill="white" stroke-width="1px"></path><path d="M 247.459383 178.123437 L 249.959383 178.123437 L 249.959383 184.123437 L 247.459383 184.123437 L 247.459383 178.123437" stroke="gray" fill="white" stroke-width="1px"></path><path d="M 28.000000 172.123437 L 28.000000 169.623437 L 22.000000 169.623437 L 22.000000 172.123437 L 28.000000 172.123437" stroke="gray" fill="white" stroke-width="1px"></path><path d="M 34.000000 172.123437 L 34.000000 169.623437 L 28.000000 169.623437 L 28.000000 172.123437 L 34.000000 172.123437" stroke="gray" fill="white" stroke-width="1px"></path><path d="M 40.000000 172.123437 L 40.000000 169.623437 L 34.000000 169.623437 L 34.000000 172.123437 L 40.000000 172.123437" stroke="gray" fill="white" stroke-width="1px"></path><path d="M 22.000000 160.123437 L 22.000000 157.623437 L 16.000000 157.623437 L 16.000000 160.123437 L 22.000000 160.123437" stroke="gray" fill="white" stroke-width="1px"></path><path d="M 28.000000 160.123437 L 28.000000 157.623437 L 22.000000 157.623437 L 22.000000 160.123437 L 28.000000 160.123437" stroke="gray" fill="white" stroke-width="1px"></path><path d="M 34.000000 160.123437 L 34.000000 157.623437 L 28.000000 157.623437 L 28.000000 160.123437 L 34.000000 160.123437" stroke="gray" fill="white" stroke-width="1px"></path><path d="M 40.000000 160.123437 L 40.000000 157.623437 L 34.000000 157.623437 L 34.000000 160.123437 L 40.000000 160.123437" stroke="gray" fill="white" stroke-width="1px"></path><path d="M 22.000000 148.123437 L 22.000000 145.623437 L 16.000000 145.623437 L 16.000000 148.123437 L 22.000000 148.123437" stroke="gray" fill="white" stroke-width="1px"></path><path d="M 28.000000 148.123437 L 28.000000 145.623437 L 22.000000 145.623437 L 22.000000 148.123437 L 28.000000 148.123437" stroke="gray" fill="white" stroke-width="1px"></path><path d="M 34.000000 148.123437 L 34.000000 145.623437 L 28.000000 145.623437 L 28.000000 148.123437 L 34.000000 148.123437" stroke="gray" fill="white" stroke-width="1px"></path><path d="M 40.000000 148.123437 L 40.000000 145.623437 L 34.000000 145.623437 L 34.000000 148.123437 L 40.000000 148.123437" stroke="gray" fill="white" stroke-width="1px"></path><path d="M 22.000000 136.123437 L 22.000000 133.623437 L 16.000000 133.623437 L 16.000000 136.123437 L 22.000000 136.123437" stroke="gray" fill="white" stroke-width="1px"></path><path d="M 28.000000 136.123437 L 28.000000 133.623437 L 22.000000 133.623437 L 22.000000 136.123437 L 28.000000 136.123437" stroke="gray" fill="white" stroke-width="1px"></path><path d="M 34.000000 136.123437 L 34.000000 133.623437 L 28.000000 133.623437 L 28.000000 136.123437 L 34.000000 136.123437" stroke="gray" fill="white" stroke-width="1px"></path><path d="M 40.000000 136.123437 L 40.000000 133.623437 L 34.000000 133.623437 L 34.000000 136.123437 L 40.000000 136.123437" stroke="gray" fill="white" stroke-width="1px"></path><path d="M 266.658812 160.123437 L 266.658812 157.623437 L 260.658812 157.623437 L 260.658812 160.123437 L 266.658812 160.123437" stroke="gray" fill="white" stroke-width="1px"></path><path d="M 272.658812 160.123437 L 272.658812 157.623437 L 266.658812 157.623437 L 266.658812 160.123437 L 272.658812 160.123437" stroke="gray" fill="white" stroke-width="1px"></path><path d="M 278.658812 160.123437 L 278.658812 157.623437 L 272.658812 157.623437 L 272.658812 160.123437 L 278.658812 160.123437" stroke="gray" fill="white" stroke-width="1px"></path><path d="M 266.658812 148.123437 L 266.658812 145.623437 L 260.658812 145.623437 L 260.658812 148.123437 L 266.658812 148.123437" stroke="gray" fill="white" stroke-width="1px"></path><path d="M 272.658812 148.123437 L 272.658812 145.623437 L 266.658812 145.623437 L 266.658812 148.123437 L 272.658812 148.123437" stroke="gray" fill="white" stroke-width="1px"></path><path d="M 278.658812 148.123437 L 278.658812 145.623437 L 272.658812 145.623437 L 272.658812 148.123437 L 278.658812 148.123437" stroke="gray" fill="white" stroke-width="1px"></path><path d="M 266.658812 136.123437 L 266.658812 133.623437 L 260.658812 133.623437 L 260.658812 136.123437 L 266.658812 136.123437" stroke="gray" fill="white" stroke-width="1px"></path><path d="M 272.658812 136.123437 L 272.658812 133.623437 L 266.658812 133.623437 L 266.658812 136.123437 L 272.658812 136.123437" stroke="gray" fill="white" stroke-width="1px"></path><path d="M 278.658812 136.123437 L 278.658812 133.623437 L 272.658812 133.623437 L 272.658812 136.123437 L 278.658812 136.123437" stroke="gray" fill="white" stroke-width="1px"></path><path d="M 34.000000 172.123437 L 34.000000 174.623437 L 28.000000 174.623437 L 28.000000 172.123437 L 34.000000 172.123437" stroke="gray" fill="white" stroke-width="1px"></path><path d="M 40.000000 172.123437 L 40.000000 174.623437 L 34.000000 174.623437 L 34.000000 172.123437 L 40.000000 172.123437" stroke="gray" fill="white" stroke-width="1px"></path><path d="M 22.000000 160.123437 L 22.000000 162.623437 L 16.000000 162.623437 L 16.000000 160.123437 L 22.000000 160.123437" stroke="gray" fill="white" stroke-width="1px"></path><path d="M 28.000000 160.123437 L 28.000000 162.623437 L 22.000000 162.623437 L 22.000000 160.123437 L 28.000000 160.123437" stroke="gray" fill="white" stroke-width="1px"></path><path d="M 34.000000 160.123437 L 34.000000 162.623437 L 28.000000 162.623437 L 28.000000 160.123437 L 34.000000 160.123437" stroke="gray" fill="white" stroke-width="1px"></path><path d="M 40.000000 160.123437 L 40.000000 162.623437 L 34.000000 162.623437 L 34.000000 160.123437 L 40.000000 160.123437" stroke="gray" fill="white" stroke-width="1px"></path><path d="M 22.000000 148.123437 L 22.000000 150.623437 L 16.000000 150.623437 L 16.000000 148.123437 L 22.000000 148.123437" stroke="gray" fill="white" stroke-width="1px"></path><path d="M 28.000000 148.123437 L 28.000000 150.623437 L 22.000000 150.623437 L 22.000000 148.123437 L 28.000000 148.123437" stroke="gray" fill="white" stroke-width="1px"></path><path d="M 34.000000 148.123437 L 34.000000 150.623437 L 28.000000 150.623437 L 28.000000 148.123437 L 34.000000 148.123437" stroke="gray" fill="white" stroke-width="1px"></path><path d="M 40.000000 148.123437 L 40.000000 150.623437 L 34.000000 150.623437 L 34.000000 148.123437 L 40.000000 148.123437" stroke="gray" fill="white" stroke-width="1px"></path><path d="M 22.000000 136.123437 L 22.000000 138.623437 L 16.000000 138.623437 L 16.000000 136.123437 L 22.000000 136.123437" stroke="gray" fill="white" stroke-width="1px"></path><path d="M 28.000000 136.123437 L 28.000000 138.623437 L 22.000000 138.623437 L 22.000000 136.123437 L 28.000000 136.123437" stroke="gray" fill="white" stroke-width="1px"></path><path d="M 34.000000 136.123437 L 34.000000 138.623437 L 28.000000 138.623437 L 28.000000 136.123437 L 34.000000 136.123437" stroke="gray" fill="white" stroke-width="1px"></path><path d="M 40.000000 136.123437 L 40.000000 138.623437 L 34.000000 138.623437 L 34.000000 136.123437 L 40.000000 136.123437" stroke="gray" fill="white" stroke-width="1px"></path><path d="M 266.658812 160.123437 L 266.658812 162.623437 L 260.658812 162.623437 L 260.658812 160.123437 L 266.658812 160.123437" stroke="gray" fill="white" stroke-width="1px"></path><path d="M 272.658812 160.123437 L 272.658812 162.623437 L 266.658812 162.623437 L 266.658812 160.123437 L 272.658812 160.123437" stroke="gray" fill="white" stroke-width="1px"></path><path d="M 278.658812 160.123437 L 278.658812 162.623437 L 272.658812 162.623437 L 272.658812 160.123437 L 278.658812 160.123437" stroke="gray" fill="white" stroke-width="1px"></path><path d="M 266.658812 148.123437 L 266.658812 150.623437 L 260.658812 150.623437 L 260.658812 148.123437 L 266.658812 148.123437" stroke="gray" fill="white" stroke-width="1px"></path><path d="M 272.658812 148.123437 L 272.658812 150.623437 L 266.658812 150.623437 L 266.658812 148.123437 L 272.658812 148.123437" stroke="gray" fill="white" stroke-width="1px"></path><path d="M 278.658812 148.123437 L 278.658812 150.623437 L 272.658812 150.623437 L 272.658812 148.123437 L 278.658812 148.123437" stroke="gray" fill="white" stroke-width="1px"></path><path d="M 266.658812 136.123437 L 266.658812 138.623437 L 260.658812 138.623437 L 260.658812 136.123437 L 266.658812 136.123437" stroke="gray" fill="white" stroke-width="1px"></path><path d="M 272.658812 136.123437 L 272.658812 138.623437 L 266.658812 138.623437 L 266.658812 136.123437 L 272.658812 136.123437" stroke="gray" fill="white" stroke-width="1px"></path><path d="M 278.658812 136.123437 L 278.658812 138.623437 L 272.658812 138.623437 L 272.658812 136.123437 L 278.658812 136.123437" stroke="gray" fill="white" stroke-width="1px"></path><path d="M 271.459383 28.923741 L 268.959383 28.923741 L 268.959383 34.923741 L 271.459383 34.923741 L 271.459383 28.923741" stroke="gray" fill="white" stroke-width="1px"></path><path d="M 271.459383 22.923741 L 268.959383 22.923741 L 268.959383 28.923741 L 271.459383 28.923741 L 271.459383 22.923741" stroke="gray" fill="white" stroke-width="1px"></path><path d="M 271.459383 16.923741 L 268.959383 16.923741 L 268.959383 22.923741 L 271.459383 22.923741 L 271.459383 16.923741" stroke="gray" fill="white" stroke-width="1px"></path><path d="M 259.459383 26.789460 L 256.959383 26.789460 L 256.959383 32.789460 L 259.459383 32.789460 L 259.459383 26.789460" stroke="gray" fill="white" stroke-width="1px"></path><path d="M 259.459383 20.789460 L 256.959383 20.789460 L 256.959383 26.789460 L 259.459383 26.789460 L 259.459383 20.789460" stroke="gray" fill="white" stroke-width="1px"></path><path d="M 259.459383 14.789460 L 256.959383 14.789460 L 256.959383 20.789460 L 259.459383 20.789460 L 259.459383 14.789460" stroke="gray" fill="white" stroke-width="1px"></path><path d="M 247.459383 24.655178 L 244.959383 24.655178 L 244.959383 30.655178 L 247.459383 30.655178 L 247.459383 24.655178" stroke="gray" fill="white" stroke-width="1px"></path><path d="M 247.459383 18.655178 L 244.959383 18.655178 L 244.959383 24.655178 L 247.459383 24.655178 L 247.459383 18.655178" stroke="gray" fill="white" stroke-width="1px"></path><path d="M 247.459383 12.655178 L 244.959383 12.655178 L 244.959383 18.655178 L 247.459383 18.655178 L 247.459383 12.655178" stroke="gray" fill="white" stroke-width="1px"></path><path d="M 235.459383 22.520897 L 232.959383 22.520897 L 232.959383 28.520897 L 235.459383 28.520897 L 235.459383 22.520897" stroke="gray" fill="white" stroke-width="1px"></path><path d="M 235.459383 16.520897 L 232.959383 16.520897 L 232.959383 22.520897 L 235.459383 22.520897 L 235.459383 16.520897" stroke="gray" fill="white" stroke-width="1px"></path><path d="M 247.459383 73.988222 L 244.959383 73.988222 L 244.959383 79.988222 L 247.459383 79.988222 L 247.459383 73.988222" stroke="gray" fill="white" stroke-width="1px"></path><path d="M 235.459383 76.447017 L 232.959383 76.447017 L 232.959383 82.447017 L 235.459383 82.447017 L 235.459383 76.447017" stroke="gray" fill="white" stroke-width="1px"></path><path d="M 271.459383 101.033125 L 268.959383 101.033125 L 268.959383 107.033125 L 271.459383 107.033125 L 271.459383 101.033125" stroke="gray" fill="white" stroke-width="1px"></path><path d="M 259.459383 101.033125 L 256.959383 101.033125 L 256.959383 107.033125 L 259.459383 107.033125 L 259.459383 101.033125" stroke="gray" fill="white" stroke-width="1px"></path><path d="M 211.459383 89.033125 L 208.959383 89.033125 L 208.959383 95.033125 L 211.459383 95.033125 L 211.459383 89.033125" stroke="gray" fill="white" stroke-width="1px"></path><path d="M 199.459383 101.033125 L 196.959383 101.033125 L 196.959383 107.033125 L 199.459383 107.033125 L 199.459383 101.033125" stroke="gray" fill="white" stroke-width="1px"></path><path d="M 199.459383 95.033125 L 196.959383 95.033125 L 196.959383 101.033125 L 199.459383 101.033125 L 199.459383 95.033125" stroke="gray" fill="white" stroke-width="1px"></path><path d="M 199.459383 89.033125 L 196.959383 89.033125 L 196.959383 95.033125 L 199.459383 95.033125 L 199.459383 89.033125" stroke="gray" fill="white" stroke-width="1px"></path><path d="M 199.459383 83.033125 L 196.959383 83.033125 L 196.959383 89.033125 L 199.459383 89.033125 L 199.459383 83.033125" stroke="gray" fill="white" stroke-width="1px"></path><path d="M 151.459383 101.033125 L 148.959383 101.033125 L 148.959383 107.033125 L 151.459383 107.033125 L 151.459383 101.033125" stroke="gray" fill="white" stroke-width="1px"></path><path d="M 139.459383 101.033125 L 136.959383 101.033125 L 136.959383 107.033125 L 139.459383 107.033125 L 139.459383 101.033125" stroke="gray" fill="white" stroke-width="1px"></path><path d="M 115.459383 101.033125 L 112.959383 101.033125 L 112.959383 107.033125 L 115.459383 107.033125 L 115.459383 101.033125" stroke="gray" fill="white" stroke-width="1px"></path><path d="M 103.459383 101.033125 L 100.959383 101.033125 L 100.959383 107.033125 L 103.459383 107.033125 L 103.459383 101.033125" stroke="gray" fill="white" stroke-width="1px"></path><path d="M 55.459383 107.090312 L 52.959383 107.090312 L 52.959383 113.090312 L 55.459383 113.090312 L 55.459383 107.090312" stroke="gray" fill="white" stroke-width="1px"></path><path d="M 43.459383 107.090312 L 40.959383 107.090312 L 40.959383 113.090312 L 43.459383 113.090312 L 43.459383 107.090312" stroke="gray" fill="white" stroke-width="1px"></path><path d="M 43.459383 101.090312 L 40.959383 101.090312 L 40.959383 107.090312 L 43.459383 107.090312 L 43.459383 101.090312" stroke="gray" fill="white" stroke-width="1px"></path><path d="M 31.459383 107.090312 L 28.959383 107.090312 L 28.959383 113.090312 L 31.459383 113.090312 L 31.459383 107.090312" stroke="gray" fill="white" stroke-width="1px"></path><path d="M 31.459383 101.090312 L 28.959383 101.090312 L 28.959383 107.090312 L 31.459383 107.090312 L 31.459383 101.090312" stroke="gray" fill="white" stroke-width="1px"></path><path d="M 31.459383 95.090312 L 28.959383 95.090312 L 28.959383 101.090312 L 31.459383 101.090312 L 31.459383 95.090312" stroke="gray" fill="white" stroke-width="1px"></path><path d="M 31.459383 89.090312 L 28.959383 89.090312 L 28.959383 95.090312 L 31.459383 95.090312 L 31.459383 89.090312" stroke="gray" fill="white" stroke-width="1px"></path><path d="M 31.459383 83.090312 L 28.959383 83.090312 L 28.959383 89.090312 L 31.459383 89.090312 L 31.459383 83.090312" stroke="gray" fill="white" stroke-width="1px"></path><path d="M 31.459383 77.090312 L 28.959383 77.090312 L 28.959383 83.090312 L 31.459383 83.090312 L 31.459383 77.090312" stroke="gray" fill="white" stroke-width="1px"></path><path d="M 31.459383 71.090312 L 28.959383 71.090312 L 28.959383 77.090312 L 31.459383 77.090312 L 31.459383 71.090312" stroke="gray" fill="white" stroke-width="1px"></path><path d="M 19.459383 107.090312 L 16.959383 107.090312 L 16.959383 113.090312 L 19.459383 113.090312 L 19.459383 107.090312" stroke="gray" fill="white" stroke-width="1px"></path><path d="M 19.459383 101.090312 L 16.959383 101.090312 L 16.959383 107.090312 L 19.459383 107.090312 L 19.459383 101.090312" stroke="gray" fill="white" stroke-width="1px"></path><path d="M 19.459383 95.090312 L 16.959383 95.090312 L 16.959383 101.090312 L 19.459383 101.090312 L 19.459383 95.090312" stroke="gray" fill="white" stroke-width="1px"></path><path d="M 19.459383 89.090312 L 16.959383 89.090312 L 16.959383 95.090312 L 19.459383 95.090312 L 19.459383 89.090312" stroke="gray" fill="white" stroke-width="1px"></path><path d="M 19.459383 83.090312 L 16.959383 83.090312 L 16.959383 89.090312 L 19.459383 89.090312 L 19.459383 83.090312" stroke="gray" fill="white" stroke-width="1px"></path><path d="M 19.459383 77.090312 L 16.959383 77.090312 L 16.959383 83.090312 L 19.459383 83.090312 L 19.459383 77.090312" stroke="gray" fill="white" stroke-width="1px"></path><path d="M 19.459383 71.090312 L 16.959383 71.090312 L 16.959383 77.090312 L 19.459383 77.090312 L 19.459383 71.090312" stroke="gray" fill="white" stroke-width="1px"></path><path d="M 55.459383 37.838542 L 52.959383 37.838542 L 52.959383 43.838542 L 55.459383 43.838542 L 55.459383 37.838542" stroke="gray" fill="white" stroke-width="1px"></path><path d="M 55.459383 31.838542 L 52.959383 31.838542 L 52.959383 37.838542 L 55.459383 37.838542 L 55.459383 31.838542" stroke="gray" fill="white" stroke-width="1px"></path><path d="M 55.459383 25.838542 L 52.959383 25.838542 L 52.959383 31.838542 L 55.459383 31.838542 L 55.459383 25.838542" stroke="gray" fill="white" stroke-width="1px"></path><path d="M 55.459383 19.838542 L 52.959383 19.838542 L 52.959383 25.838542 L 55.459383 25.838542 L 55.459383 19.838542" stroke="gray" fill="white" stroke-width="1px"></path><path d="M 55.459383 13.838542 L 52.959383 13.838542 L 52.959383 19.838542 L 55.459383 19.838542 L 55.459383 13.838542" stroke="gray" fill="white" stroke-width="1px"></path><path d="M 43.459383 37.703172 L 40.959383 37.703172 L 40.959383 43.703172 L 43.459383 43.703172 L 43.459383 37.703172" stroke="gray" fill="white" stroke-width="1px"></path><path d="M 43.459383 31.703172 L 40.959383 31.703172 L 40.959383 37.703172 L 43.459383 37.703172 L 43.459383 31.703172" stroke="gray" fill="white" stroke-width="1px"></path><path d="M 43.459383 25.703172 L 40.959383 25.703172 L 40.959383 31.703172 L 43.459383 31.703172 L 43.459383 25.703172" stroke="gray" fill="white" stroke-width="1px"></path><path d="M 43.459383 19.703172 L 40.959383 19.703172 L 40.959383 25.703172 L 43.459383 25.703172 L 43.459383 19.703172" stroke="gray" fill="white" stroke-width="1px"></path><path d="M 43.459383 13.703172 L 40.959383 13.703172 L 40.959383 19.703172 L 43.459383 19.703172 L 43.459383 13.703172" stroke="gray" fill="white" stroke-width="1px"></path><path d="M 31.459383 37.567802 L 28.959383 37.567802 L 28.959383 43.567802 L 31.459383 43.567802 L 31.459383 37.567802" stroke="gray" fill="white" stroke-width="1px"></path><path d="M 31.459383 31.567802 L 28.959383 31.567802 L 28.959383 37.567802 L 31.459383 37.567802 L 31.459383 31.567802" stroke="gray" fill="white" stroke-width="1px"></path><path d="M 31.459383 25.567802 L 28.959383 25.567802 L 28.959383 31.567802 L 31.459383 31.567802 L 31.459383 25.567802" stroke="gray" fill="white" stroke-width="1px"></path><path d="M 31.459383 19.567802 L 28.959383 19.567802 L 28.959383 25.567802 L 31.459383 25.567802 L 31.459383 19.567802" stroke="gray" fill="white" stroke-width="1px"></path><path d="M 31.459383 13.567802 L 28.959383 13.567802 L 28.959383 19.567802 L 31.459383 19.567802 L 31.459383 13.567802" stroke="gray" fill="white" stroke-width="1px"></path><path d="M 19.459383 37.432433 L 16.959383 37.432433 L 16.959383 43.432433 L 19.459383 43.432433 L 19.459383 37.432433" stroke="gray" fill="white" stroke-width="1px"></path><path d="M 19.459383 31.432433 L 16.959383 31.432433 L 16.959383 37.432433 L 19.459383 37.432433 L 19.459383 31.432433" stroke="gray" fill="white" stroke-width="1px"></path><path d="M 19.459383 25.432433 L 16.959383 25.432433 L 16.959383 31.432433 L 19.459383 31.432433 L 19.459383 25.432433" stroke="gray" fill="white" stroke-width="1px"></path><path d="M 19.459383 19.432433 L 16.959383 19.432433 L 16.959383 25.432433 L 19.459383 25.432433 L 19.459383 19.432433" stroke="gray" fill="white" stroke-width="1px"></path><path d="M 19.459383 13.432433 L 16.959383 13.432433 L 16.959383 19.432433 L 19.459383 19.432433 L 19.459383 13.432433" stroke="gray" fill="white" stroke-width="1px"></path><path d="M 271.459383 28.923741 L 273.959383 28.923741 L 273.959383 34.923741 L 271.459383 34.923741 L 271.459383 28.923741" stroke="gray" fill="white" stroke-width="1px"></path><path d="M 271.459383 22.923741 L 273.959383 22.923741 L 273.959383 28.923741 L 271.459383 28.923741 L 271.459383 22.923741" stroke="gray" fill="white" stroke-width="1px"></path><path d="M 271.459383 16.923741 L 273.959383 16.923741 L 273.959383 22.923741 L 271.459383 22.923741 L 271.459383 16.923741" stroke="gray" fill="white" stroke-width="1px"></path><path d="M 259.459383 26.789460 L 261.959383 26.789460 L 261.959383 32.789460 L 259.459383 32.789460 L 259.459383 26.789460" stroke="gray" fill="white" stroke-width="1px"></path><path d="M 259.459383 20.789460 L 261.959383 20.789460 L 261.959383 26.789460 L 259.459383 26.789460 L 259.459383 20.789460" stroke="gray" fill="white" stroke-width="1px"></path><path d="M 259.459383 14.789460 L 261.959383 14.789460 L 261.959383 20.789460 L 259.459383 20.789460 L 259.459383 14.789460" stroke="gray" fill="white" stroke-width="1px"></path><path d="M 247.459383 24.655178 L 249.959383 24.655178 L 249.959383 30.655178 L 247.459383 30.655178 L 247.459383 24.655178" stroke="gray" fill="white" stroke-width="1px"></path><path d="M 247.459383 18.655178 L 249.959383 18.655178 L 249.959383 24.655178 L 247.459383 24.655178 L 247.459383 18.655178" stroke="gray" fill="white" stroke-width="1px"></path><path d="M 247.459383 12.655178 L 249.959383 12.655178 L 249.959383 18.655178 L 247.459383 18.655178 L 247.459383 12.655178" stroke="gray" fill="white" stroke-width="1px"></path><path d="M 235.459383 22.520897 L 237.959383 22.520897 L 237.959383 28.520897 L 235.459383 28.520897 L 235.459383 22.520897" stroke="gray" fill="white" stroke-width="1px"></path><path d="M 235.459383 16.520897 L 237.959383 16.520897 L 237.959383 22.520897 L 235.459383 22.520897 L 235.459383 16.520897" stroke="gray" fill="white" stroke-width="1px"></path><path d="M 247.459383 73.988222 L 249.959383 73.988222 L 249.959383 79.988222 L 247.459383 79.988222 L 247.459383 73.988222" stroke="gray" fill="white" stroke-width="1px"></path><path d="M 235.459383 76.447017 L 237.959383 76.447017 L 237.959383 82.447017 L 235.459383 82.447017 L 235.459383 76.447017" stroke="gray" fill="white" stroke-width="1px"></path><path d="M 271.459383 101.033125 L 273.959383 101.033125 L 273.959383 107.033125 L 271.459383 107.033125 L 271.459383 101.033125" stroke="gray" fill="white" stroke-width="1px"></path><path d="M 259.459383 101.033125 L 261.959383 101.033125 L 261.959383 107.033125 L 259.459383 107.033125 L 259.459383 101.033125" stroke="gray" fill="white" stroke-width="1px"></path><path d="M 199.459383 101.033125 L 201.959383 101.033125 L 201.959383 107.033125 L 199.459383 107.033125 L 199.459383 101.033125" stroke="gray" fill="white" stroke-width="1px"></path><path d="M 199.459383 95.033125 L 201.959383 95.033125 L 201.959383 101.033125 L 199.459383 101.033125 L 199.459383 95.033125" stroke="gray" fill="white" stroke-width="1px"></path><path d="M 199.459383 89.033125 L 201.959383 89.033125 L 201.959383 95.033125 L 199.459383 95.033125 L 199.459383 89.033125" stroke="gray" fill="white" stroke-width="1px"></path><path d="M 199.459383 83.033125 L 201.959383 83.033125 L 201.959383 89.033125 L 199.459383 89.033125 L 199.459383 83.033125" stroke="gray" fill="white" stroke-width="1px"></path><path d="M 151.459383 101.033125 L 153.959383 101.033125 L 153.959383 107.033125 L 151.459383 107.033125 L 151.459383 101.033125" stroke="gray" fill="white" stroke-width="1px"></path><path d="M 139.459383 101.033125 L 141.959383 101.033125 L 141.959383 107.033125 L 139.459383 107.033125 L 139.459383 101.033125" stroke="gray" fill="white" stroke-width="1px"></path><path d="M 115.459383 101.033125 L 117.959383 101.033125 L 117.959383 107.033125 L 115.459383 107.033125 L 115.459383 101.033125" stroke="gray" fill="white" stroke-width="1px"></path><path d="M 103.459383 101.033125 L 105.959383 101.033125 L 105.959383 107.033125 L 103.459383 107.033125 L 103.459383 101.033125" stroke="gray" fill="white" stroke-width="1px"></path><path d="M 55.459383 107.090312 L 57.959383 107.090312 L 57.959383 113.090312 L 55.459383 113.090312 L 55.459383 107.090312" stroke="gray" fill="white" stroke-width="1px"></path><path d="M 43.459383 107.090312 L 45.959383 107.090312 L 45.959383 113.090312 L 43.459383 113.090312 L 43.459383 107.090312" stroke="gray" fill="white" stroke-width="1px"></path><path d="M 43.459383 101.090312 L 45.959383 101.090312 L 45.959383 107.090312 L 43.459383 107.090312 L 43.459383 101.090312" stroke="gray" fill="white" stroke-width="1px"></path><path d="M 31.459383 107.090312 L 33.959383 107.090312 L 33.959383 113.090312 L 31.459383 113.090312 L 31.459383 107.090312" stroke="gray" fill="white" stroke-width="1px"></path><path d="M 31.459383 101.090312 L 33.959383 101.090312 L 33.959383 107.090312 L 31.459383 107.090312 L 31.459383 101.090312" stroke="gray" fill="white" stroke-width="1px"></path><path d="M 31.459383 95.090312 L 33.959383 95.090312 L 33.959383 101.090312 L 31.459383 101.090312 L 31.459383 95.090312" stroke="gray" fill="white" stroke-width="1px"></path><path d="M 31.459383 89.090312 L 33.959383 89.090312 L 33.959383 95.090312 L 31.459383 95.090312 L 31.459383 89.090312" stroke="gray" fill="white" stroke-width="1px"></path><path d="M 31.459383 83.090312 L 33.959383 83.090312 L 33.959383 89.090312 L 31.459383 89.090312 L 31.459383 83.090312" stroke="gray" fill="white" stroke-width="1px"></path><path d="M 31.459383 77.090312 L 33.959383 77.090312 L 33.959383 83.090312 L 31.459383 83.090312 L 31.459383 77.090312" stroke="gray" fill="white" stroke-width="1px"></path><path d="M 31.459383 71.090312 L 33.959383 71.090312 L 33.959383 77.090312 L 31.459383 77.090312 L 31.459383 71.090312" stroke="gray" fill="white" stroke-width="1px"></path><path d="M 19.459383 107.090312 L 21.959383 107.090312 L 21.959383 113.090312 L 19.459383 113.090312 L 19.459383 107.090312" stroke="gray" fill="white" stroke-width="1px"></path><path d="M 19.459383 101.090312 L 21.959383 101.090312 L 21.959383 107.090312 L 19.459383 107.090312 L 19.459383 101.090312" stroke="gray" fill="white" stroke-width="1px"></path><path d="M 19.459383 95.090312 L 21.959383 95.090312 L 21.959383 101.090312 L 19.459383 101.090312 L 19.459383 95.090312" stroke="gray" fill="white" stroke-width="1px"></path><path d="M 19.459383 89.090312 L 21.959383 89.090312 L 21.959383 95.090312 L 19.459383 95.090312 L 19.459383 89.090312" stroke="gray" fill="white" stroke-width="1px"></path><path d="M 19.459383 83.090312 L 21.959383 83.090312 L 21.959383 89.090312 L 19.459383 89.090312 L 19.459383 83.090312" stroke="gray" fill="white" stroke-width="1px"></path><path d="M 19.459383 77.090312 L 21.959383 77.090312 L 21.959383 83.090312 L 19.459383 83.090312 L 19.459383 77.090312" stroke="gray" fill="white" stroke-width="1px"></path><path d="M 19.459383 71.090312 L 21.959383 71.090312 L 21.959383 77.090312 L 19.459383 77.090312 L 19.459383 71.090312" stroke="gray" fill="white" stroke-width="1px"></path><path d="M 55.459383 37.838542 L 57.959383 37.838542 L 57.959383 43.838542 L 55.459383 43.838542 L 55.459383 37.838542" stroke="gray" fill="white" stroke-width="1px"></path><path d="M 55.459383 31.838542 L 57.959383 31.838542 L 57.959383 37.838542 L 55.459383 37.838542 L 55.459383 31.838542" stroke="gray" fill="white" stroke-width="1px"></path><path d="M 55.459383 25.838542 L 57.959383 25.838542 L 57.959383 31.838542 L 55.459383 31.838542 L 55.459383 25.838542" stroke="gray" fill="white" stroke-width="1px"></path><path d="M 55.459383 19.838542 L 57.959383 19.838542 L 57.959383 25.838542 L 55.459383 25.838542 L 55.459383 19.838542" stroke="gray" fill="white" stroke-width="1px"></path><path d="M 55.459383 13.838542 L 57.959383 13.838542 L 57.959383 19.838542 L 55.459383 19.838542 L 55.459383 13.838542" stroke="gray" fill="white" stroke-width="1px"></path><path d="M 43.459383 37.703172 L 45.959383 37.703172 L 45.959383 43.703172 L 43.459383 43.703172 L 43.459383 37.703172" stroke="gray" fill="white" stroke-width="1px"></path><path d="M 43.459383 31.703172 L 45.959383 31.703172 L 45.959383 37.703172 L 43.459383 37.703172 L 43.459383 31.703172" stroke="gray" fill="white" stroke-width="1px"></path><path d="M 43.459383 25.703172 L 45.959383 25.703172 L 45.959383 31.703172 L 43.459383 31.703172 L 43.459383 25.703172" stroke="gray" fill="white" stroke-width="1px"></path><path d="M 43.459383 19.703172 L 45.959383 19.703172 L 45.959383 25.703172 L 43.459383 25.703172 L 43.459383 19.703172" stroke="gray" fill="white" stroke-width="1px"></path><path d="M 43.459383 13.703172 L 45.959383 13.703172 L 45.959383 19.703172 L 43.459383 19.703172 L 43.459383 13.703172" stroke="gray" fill="white" stroke-width="1px"></path><path d="M 31.459383 37.567802 L 33.959383 37.567802 L 33.959383 43.567802 L 31.459383 43.567802 L 31.459383 37.567802" stroke="gray" fill="white" stroke-width="1px"></path><path d="M 31.459383 31.567802 L 33.959383 31.567802 L 33.959383 37.567802 L 31.459383 37.567802 L 31.459383 31.567802" stroke="gray" fill="white" stroke-width="1px"></path><path d="M 31.459383 25.567802 L 33.959383 25.567802 L 33.959383 31.567802 L 31.459383 31.567802 L 31.459383 25.567802" stroke="gray" fill="white" stroke-width="1px"></path><path d="M 31.459383 19.567802 L 33.959383 19.567802 L 33.959383 25.567802 L 31.459383 25.567802 L 31.459383 19.567802" stroke="gray" fill="white" stroke-width="1px"></path><path d="M 31.459383 13.567802 L 33.959383 13.567802 L 33.959383 19.567802 L 31.459383 19.567802 L 31.459383 13.567802" stroke="gray" fill="white" stroke-width="1px"></path><path d="M 19.459383 37.432433 L 21.959383 37.432433 L 21.959383 43.432433 L 19.459383 43.432433 L 19.459383 37.432433" stroke="gray" fill="white" stroke-width="1px"></path><path d="M 19.459383 31.432433 L 21.959383 31.432433 L 21.959383 37.432433 L 19.459383 37.432433 L 19.459383 31.432433" stroke="gray" fill="white" stroke-width="1px"></path><path d="M 19.459383 25.432433 L 21.959383 25.432433 L 21.959383 31.432433 L 19.459383 31.432433 L 19.459383 25.432433" stroke="gray" fill="white" stroke-width="1px"></path><path d="M 19.459383 19.432433 L 21.959383 19.432433 L 21.959383 25.432433 L 19.459383 25.432433 L 19.459383 19.432433" stroke="gray" fill="white" stroke-width="1px"></path><path d="M 19.459383 13.432433 L 21.959383 13.432433 L 21.959383 19.432433 L 19.459383 19.432433 L 19.459383 13.432433" stroke="gray" fill="white" stroke-width="1px"></path></g><g id="crv-base"><path d="M 221.371570 123.090312 L 221.371570 169.241094 L 120.000633 169.241094 L 120.000633 156.444206 L 126.051258 156.444206 L 126.051258 128.832500 L 123.590320 128.832500 L 123.590320 125.551250 L 126.051258 125.551250 L 126.051258 123.858132 L 91.315945 123.858125 L 91.315945 134.738750 L 64.258762 134.738750 L 64.258762 123.687497 L 10.000000 123.687497 L 10.000000 226.180625 L 64.258758 226.180625 L 64.258758 192.357500 L 91.315945 192.357500 L 91.315945 220.123437 L 283.459383 220.123437 L 283.459383 123.090312 L 221.371570 123.090312" stroke="black" fill="none" stroke-width="1px"></path><path d="M 221.371570 10.000000 L 221.371570 56.150781 L 120.000633 56.150781 L 120.000633 43.353893 L 126.051258 43.353893 L 126.051258 15.742187 L 123.590320 15.742187 L 123.590320 12.460937 L 126.051258 12.460937 L 126.051258 10.767819 L 91.315945 10.767812 L 91.315945 21.648438 L 64.258762 21.648438 L 64.258762 10.597185 L 10.000000 10.597185 L 10.000000 113.090312 L 64.258758 113.090312 L 64.258758 79.267187 L 91.315945 79.267187 L 91.315945 107.033125 L 283.459383 107.033125 L 283.459383 10.000000 L 221.371570 10.000000" stroke="black" fill="none" stroke-width="1px"></path><path d="M 10.387195 156.559062 L 10.387195 154.590312 L 12.355945 154.590312 L 12.355945 156.559062 L 10.387195 156.559062" stroke="black" fill="white" stroke-width="1px"></path><path d="M 10.387195 43.468750 L 10.387195 41.500000 L 12.355945 41.500000 L 12.355945 43.468750 L 10.387195 43.468750" stroke="black" fill="white" stroke-width="1px"></path><path d="M 10.387195 188.059062 L 10.387195 186.090312 L 12.355945 186.090312 L 12.355945 188.059062 L 10.387195 188.059062" stroke="black" fill="white" stroke-width="1px"></path><path d="M 10.387195 74.968750 L 10.387195 73.000000 L 12.355945 73.000000 L 12.355945 74.968750 L 10.387195 74.968750" stroke="black" fill="white" stroke-width="1px"></path><path d="M 10.387195 219.559062 L 10.387195 217.590312 L 12.355945 217.590312 L 12.355945 219.559062 L 10.387195 219.559062" stroke="black" fill="white" stroke-width="1px"></path><path d="M 10.387195 106.468750 L 10.387195 104.500000 L 12.355945 104.500000 L 12.355945 106.468750 L 10.387195 106.468750" stroke="black" fill="white" stroke-width="1px"></path><path d="M 60.754383 128.340312 L 60.754383 125.387187 L 63.871570 125.387187 L 63.871570 128.340312 L 60.754383 128.340312" stroke="black" fill="white" stroke-width="1px"></path><path d="M 60.754383 15.250000 L 60.754383 12.296875 L 63.871570 12.296875 L 63.871570 15.250000 L 60.754383 15.250000" stroke="black" fill="white" stroke-width="1px"></path><path d="M 280.598133 219.230937 L 280.598133 217.262187 L 282.566883 217.262187 L 282.566883 219.230937 L 280.598133 219.230937" stroke="black" fill="white" stroke-width="1px"></path><path d="M 280.598133 106.140625 L 280.598133 104.171875 L 282.566883 104.171875 L 282.566883 106.140625 L 280.598133 106.140625" stroke="black" fill="white" stroke-width="1px"></path><path d="M 280.598133 188.059062 L 280.598133 186.090312 L 282.566883 186.090312 L 282.566883 188.059062 L 280.598133 188.059062" stroke="black" fill="white" stroke-width="1px"></path><path d="M 280.598133 74.968750 L 280.598133 73.000000 L 282.566883 73.000000 L 282.566883 74.968750 L 280.598133 74.968750" stroke="black" fill="white" stroke-width="1px"></path><path d="M 280.598133 156.559050 L 280.598133 154.590300 L 282.566883 154.590300 L 282.566883 156.559050 L 280.598133 156.559050" stroke="black" fill="white" stroke-width="1px"></path><path d="M 280.598133 43.468737 L 280.598133 41.499987 L 282.566883 41.499987 L 282.566883 43.468737 L 280.598133 43.468737" stroke="black" fill="white" stroke-width="1px"></path><path d="M 248.605945 127.355937 L 248.605945 123.418437 L 251.887195 123.418437 L 251.887195 127.355937 L 248.605945 127.355937" stroke="black" fill="white" stroke-width="1px"></path><path d="M 248.605945 14.265625 L 248.605945 10.328125 L 251.887195 10.328125 L 251.887195 14.265625 L 248.605945 14.265625" stroke="black" fill="white" stroke-width="1px"></path><path d="M 248.605945 157.871562 L 248.605945 153.934062 L 251.887195 153.934062 L 251.887195 157.871562 L 248.605945 157.871562" stroke="black" fill="white" stroke-width="1px"></path><path d="M 248.605945 44.781250 L 248.605945 40.843750 L 251.887195 40.843750 L 251.887195 44.781250 L 248.605945 44.781250" stroke="black" fill="white" stroke-width="1px"></path><path d="M 248.605945 189.043437 L 248.605945 185.105937 L 251.887195 185.105937 L 251.887195 189.043437 L 248.605945 189.043437" stroke="black" fill="white" stroke-width="1px"></path><path d="M 248.605945 75.953125 L 248.605945 72.015625 L 251.887195 72.015625 L 251.887195 75.953125 L 248.605945 75.953125" stroke="black" fill="white" stroke-width="1px"></path><path d="M 248.934070 219.230937 L 248.934070 216.277812 L 251.887195 216.277812 L 251.887195 219.230937 L 248.934070 219.230937" stroke="black" fill="white" stroke-width="1px"></path><path d="M 248.934070 106.140625 L 248.934070 103.187500 L 251.887195 103.187500 L 251.887195 106.140625 L 248.934070 106.140625" stroke="black" fill="white" stroke-width="1px"></path><path d="M 218.090320 189.043437 L 218.090320 185.105937 L 221.371570 185.105937 L 221.371570 189.043437 L 218.090320 189.043437" stroke="black" fill="white" stroke-width="1px"></path><path d="M 218.090320 75.953125 L 218.090320 72.015625 L 221.371570 72.015625 L 221.371570 75.953125 L 218.090320 75.953125" stroke="black" fill="white" stroke-width="1px"></path><path d="M 218.254383 219.230937 L 218.254383 216.277812 L 221.207508 216.277812 L 221.207508 219.230937 L 218.254383 219.230937" stroke="black" fill="white" stroke-width="1px"></path><path d="M 218.254383 106.140625 L 218.254383 103.187500 L 221.207508 103.187500 L 221.207508 106.140625 L 218.254383 106.140625" stroke="black" fill="white" stroke-width="1px"></path><path d="M 186.590320 189.043437 L 186.590320 185.105937 L 189.871570 185.105937 L 189.871570 189.043437 L 186.590320 189.043437" stroke="black" fill="white" stroke-width="1px"></path><path d="M 186.590320 75.953125 L 186.590320 72.015625 L 189.871570 72.015625 L 189.871570 75.953125 L 186.590320 75.953125" stroke="black" fill="white" stroke-width="1px"></path><path d="M 186.754383 219.230937 L 186.754383 216.277812 L 189.707508 216.277812 L 189.707508 219.230937 L 186.754383 219.230937" stroke="black" fill="white" stroke-width="1px"></path><path d="M 186.754383 106.140625 L 186.754383 103.187500 L 189.707508 103.187500 L 189.707508 106.140625 L 186.754383 106.140625" stroke="black" fill="white" stroke-width="1px"></path><path d="M 155.090320 189.043437 L 155.090320 185.105937 L 158.371570 185.105937 L 158.371570 189.043437 L 155.090320 189.043437" stroke="black" fill="white" stroke-width="1px"></path><path d="M 155.090320 75.953125 L 155.090320 72.015625 L 158.371570 72.015625 L 158.371570 75.953125 L 155.090320 75.953125" stroke="black" fill="white" stroke-width="1px"></path><path d="M 155.254383 219.230937 L 155.254383 216.277812 L 158.207508 216.277812 L 158.207508 219.230937 L 155.254383 219.230937" stroke="black" fill="white" stroke-width="1px"></path><path d="M 155.254383 106.140625 L 155.254383 103.187500 L 158.207508 103.187500 L 158.207508 106.140625 L 155.254383 106.140625" stroke="black" fill="white" stroke-width="1px"></path><path d="M 123.590320 189.043437 L 123.590320 185.105937 L 126.871570 185.105937 L 126.871570 189.043437 L 123.590320 189.043437" stroke="black" fill="white" stroke-width="1px"></path><path d="M 123.590320 75.953125 L 123.590320 72.015625 L 126.871570 72.015625 L 126.871570 75.953125 L 123.590320 75.953125" stroke="black" fill="white" stroke-width="1px"></path><path d="M 123.754383 219.230937 L 123.754383 216.277812 L 126.707508 216.277812 L 126.707508 219.230937 L 123.754383 219.230937" stroke="black" fill="white" stroke-width="1px"></path><path d="M 123.754383 106.140625 L 123.754383 103.187500 L 126.707508 103.187500 L 126.707508 106.140625 L 123.754383 106.140625" stroke="black" fill="white" stroke-width="1px"></path><path d="M 92.090320 157.543437 L 92.090320 153.605937 L 95.371570 153.605937 L 95.371570 157.543437 L 92.090320 157.543437" stroke="black" fill="white" stroke-width="1px"></path><path d="M 92.090320 44.453125 L 92.090320 40.515625 L 95.371570 40.515625 L 95.371570 44.453125 L 92.090320 44.453125" stroke="black" fill="white" stroke-width="1px"></path><path d="M 92.090320 189.043437 L 92.090320 185.105937 L 95.371570 185.105937 L 95.371570 189.043437 L 92.090320 189.043437" stroke="black" fill="white" stroke-width="1px"></path><path d="M 92.090320 75.953125 L 92.090320 72.015625 L 95.371570 72.015625 L 95.371570 75.953125 L 92.090320 75.953125" stroke="black" fill="white" stroke-width="1px"></path><path d="M 92.090320 128.504375 L 92.090320 125.551250 L 95.207508 125.551250 L 95.207508 128.504375 L 92.090320 128.504375" stroke="black" fill="white" stroke-width="1px"></path><path d="M 92.090320 15.414062 L 92.090320 12.460937 L 95.207508 12.460937 L 95.207508 15.414062 L 92.090320 15.414062" stroke="black" fill="white" stroke-width="1px"></path><path d="M 60.590320 157.215312 L 60.590320 153.934062 L 63.871570 153.934062 L 63.871570 157.215312 L 60.590320 157.215312" stroke="black" fill="white" stroke-width="1px"></path><path d="M 60.590320 44.125000 L 60.590320 40.843750 L 63.871570 40.843750 L 63.871570 44.125000 L 60.590320 44.125000" stroke="black" fill="white" stroke-width="1px"></path><path d="M 60.754383 219.230937 L 60.754383 216.277812 L 63.871570 216.277812 L 63.871570 219.230937 L 60.754383 219.230937" stroke="black" fill="white" stroke-width="1px"></path><path d="M 60.754383 106.140625 L 60.754383 103.187500 L 63.871570 103.187500 L 63.871570 106.140625 L 60.754383 106.140625" stroke="black" fill="white" stroke-width="1px"></path><path d="M 30.074695 128.504375 L 30.074695 125.223125 L 33.027820 125.223125 L 33.027820 128.504375 L 30.074695 128.504375" stroke="black" fill="white" stroke-width="1px"></path><path d="M 30.074695 15.414062 L 30.074695 12.132812 L 33.027820 12.132812 L 33.027820 15.414062 L 30.074695 15.414062" stroke="black" fill="white" stroke-width="1px"></path><path d="M 30.074695 157.215312 L 30.074695 153.934062 L 33.355945 153.934062 L 33.355945 157.215312 L 30.074695 157.215312" stroke="black" fill="white" stroke-width="1px"></path><path d="M 30.074695 44.125000 L 30.074695 40.843750 L 33.355945 40.843750 L 33.355945 44.125000 L 30.074695 44.125000" stroke="black" fill="white" stroke-width="1px"></path><path d="M 30.074695 188.715312 L 30.074695 185.434062 L 33.355945 185.434062 L 33.355945 188.715312 L 30.074695 188.715312" stroke="black" fill="white" stroke-width="1px"></path><path d="M 30.074695 75.625000 L 30.074695 72.343750 L 33.355945 72.343750 L 33.355945 75.625000 L 30.074695 75.625000" stroke="black" fill="white" stroke-width="1px"></path><path d="M 30.074695 219.230937 L 30.074695 216.277812 L 33.027820 216.277812 L 33.027820 219.230937 L 30.074695 219.230937" stroke="black" fill="white" stroke-width="1px"></path><path d="M 30.074695 106.140625 L 30.074695 103.187500 L 33.027820 103.187500 L 33.027820 106.140625 L 30.074695 106.140625" stroke="black" fill="white" stroke-width="1px"></path><path d="M 10.387195 127.191875 L 10.387195 125.223125 L 12.355945 125.223125 L 12.355945 127.191875 L 10.387195 127.191875" stroke="black" fill="white" stroke-width="1px"></path><path d="M 10.387195 14.101562 L 10.387195 12.132812 L 12.355945 12.132812 L 12.355945 14.101562 L 10.387195 14.101562" stroke="black" fill="white" stroke-width="1px"></path><path d="M 60.590320 189.863750 L 60.590320 185.434062 L 63.871570 185.434062 L 63.871570 188.715312 L 62.230945 188.715312 L 62.230945 189.863750 L 60.590320 189.863750" stroke="black" fill="white" stroke-width="1px"></path><path d="M 60.590320 76.773437 L 60.590320 72.343750 L 63.871570 72.343750 L 63.871570 75.625000 L 62.230945 75.625000 L 62.230945 76.773437 L 60.590320 76.773437" stroke="black" fill="white" stroke-width="1px"></path></g></svg>