<svg width="293.459383" height="236.180625" xmlns="http://www.w3.org/2000/svg" xmlns:xlink="http://www.w3.org/1999/xlink" version="1.1"><g id="crv-background"><path d="M 221.371570 123.090312 L 221.371570 169.241094 L 120.000633 169.241094 L 120.000633 156.444206 L 126.051258 156.444206 L 126.051258 128.832500 L 123.590320 128.832500 L 123.590320 125.551250 L 126.051258 125.551250 L 126.051258 123.858132 L 91.315945 123.858125 L 91.315945 134.738750 L 64.258762 134.738750 L 64.258762 123.687497 L 10.000000 123.687497 L 10.000000 226.180625 L 64.258758 226.180625 L 64.258758 192.357500 L 91.315945 192.357500 L 91.315945 220.123437 L 283.459383 220.123437 L 283.459383 123.090312 L 221.371570 123.090312" stroke="none" fill="white" stroke-width="1px"></path><path d="M 221.371570 10.000000 L 221.371570 56.150781 L 120.000633 56.150781 L 120.000633 43.353893 L 126.051258 43.353893 L 126.051258 15.742187 L 123.590320 15.742187 L 123.590320 12.460937 L 126.051258 12.460937 L 126.051258 10.767819 L 91.315945 10.767812 L 91.315945 21.648438 L 64.258762 21.648438 L 64.258762 10.597185 L 10.000000 10.597185 L 10.000000 113.090312 L 64.258758 113.090312 L 64.258758 79.267187 L 91.315945 79.267187 L 91.315945 107.033125 L 283.459383 107.033125 L 283.459383 10.000000 L 221.371570 10.000000" stroke="none" fill="white" stroke-width="1px"></path></g><g id="crv-nbhd"><path d="M 221.737654 10.000004 L 221.737654 25.794714 L 221.737654 41.589423 L 228.192345 47.310143 L 234.647036 53.030862 L 259.053210 54.021102 L 283.459383 55.011342 L 283.459383 32.505671 L 283.459382 10.000000 L 252.598533 10.000002 L 221.737654 10.000004" stroke="#DD2222" fill="none" stroke-width="1px"></path><path d="M 283.459383 107.033125 L 283.459383 81.022234 L 283.459383 55.011342 L 259.053210 54.021102 L 234.647036 53.030862 L 243.169680 80.031994 L 251.692323 107.033125 L 267.575849 107.033125 L 283.459383 107.033125" stroke="#DD2222" fill="none" stroke-width="1px"></path><path d="M 221.737654 41.589423 L 221.737654 60.370377 L 221.737654 79.151330 L 213.995159 79.151330 L 206.252663 79.151330 L 203.821432 93.092227 L 201.390200 107.033125 L 226.541261 107.033125 L 251.692323 107.033125 L 243.169680 80.031994 L 234.647036 53.030862 L 228.192347 47.310144 L 221.737654 41.589423" stroke="#DD2222" fill="none" stroke-width="1px"></path><path d="M 206.252663 79.151330 L 187.128434 79.151330 L 168.004204 79.151329 L 168.595283 93.092227 L 169.186361 107.033125 L 185.288281 107.033125 L 201.390200 107.033125 L 203.821432 93.092227 L 206.252663 79.151330" stroke="#DD2222" fill="none" stroke-width="1px"></path><path d="M 168.004204 79.151329 L 150.503460 79.151329 L 133.002717 79.151328 L 135.810882 93.092227 L 138.619046 107.033125 L 153.902704 107.033125 L 169.186361 107.033125 L 168.595283 93.092230 L 168.004204 79.151329" stroke="#DD2222" fill="none" stroke-width="1px"></path><path d="M 133.002717 79.151328 L 112.159331 79.151328 L 91.315945 79.151327 L 91.315945 93.092226 L 91.315945 107.033125 L 114.967496 107.033125 L 138.619046 107.033125 L 135.810882 93.092230 L 133.002717 79.151328" stroke="#DD2222" fill="none" stroke-width="1px"></path><path d="M 64.258758 113.090312 L 64.258758 88.613830 L 64.258758 64.137347 L 37.129379 61.359998 L 10.000000 58.582649 L 10.000000 85.836481 L 10.000000 113.090312 L 37.129379 113.090312 L 64.258758 113.090312" stroke="#DD2222" fill="none" stroke-width="1px"></path><path d="M 10.000000 10.597184 L 10.000000 34.589917 L 10.000000 58.582649 L 37.129379 61.359998 L 64.258758 64.137347 L 64.258758 60.144064 L 64.258758 56.150781 L 64.258758 33.373983 L 64.258758 10.597185 L 37.129379 10.597185 L 10.000000 10.597184" stroke="#DD2222" fill="none" stroke-width="1px"></path><path d="M 10.000000 123.687497 L 10.000000 152.980795 L 10.000000 182.274093 L 37.129379 180.917607 L 64.258758 179.561122 L 64.258758 174.401108 L 64.258758 169.241094 L 64.258758 146.464296 L 64.258758 123.687497 L 37.129398 123.687497 L 10.000000 123.687497" stroke="#DD2222" fill="none" stroke-width="1px"></path><path d="M 10.000000 182.274093 L 10.000000 204.227359 L 10.000000 226.180625 L 37.129381 226.180625 L 64.258761 226.180625 L 64.258761 202.870868 L 64.258758 179.561122 L 37.129385 180.917607 L 10.000000 182.274093" stroke="#DD2222" fill="none" stroke-width="1px"></path><path d="M 136.460287 192.043444 L 113.888116 192.043444 L 91.315945 192.043444 L 91.315945 206.083441 L 91.315945 220.123437 L 111.819186 220.123437 L 132.322427 220.123437 L 134.391357 206.083444 L 136.460287 192.043444" stroke="#DD2222" fill="none" stroke-width="1px"></path><path d="M 132.322427 220.123437 L 160.285328 220.123437 L 188.248229 220.123437 L 185.731899 206.083441 L 183.215568 192.043444 L 159.837928 192.043444 L 136.460287 192.043444 L 134.391357 206.083441 L 132.322427 220.123437" stroke="#DD2222" fill="none" stroke-width="1px"></path><path d="M 223.645336 192.043444 L 203.430452 192.043444 L 183.215568 192.043444 L 185.731899 206.083441 L 188.248229 220.123437 L 204.327675 220.123437 L 220.407121 220.123437 L 222.026228 206.083441 L 223.645336 192.043444" stroke="#DD2222" fill="none" stroke-width="1px"></path><path d="M 239.737652 160.535201 L 239.737652 176.289323 L 239.737652 192.043444 L 231.691494 192.043444 L 223.645336 192.043444 L 222.026228 206.083441 L 220.407121 220.123437 L 251.933252 220.123437 L 283.459383 220.123437 L 283.459383 200.669102 L 283.459383 181.214767 L 261.598563 170.875006 L 239.737652 160.535201" stroke="#DD2222" fill="none" stroke-width="1px"></path><path d="M 239.737652 123.090312 L 239.737652 141.812757 L 239.737652 160.535201 L 261.598517 170.874984 L 283.459383 181.214767 L 283.459383 152.152540 L 283.459383 123.090312 L 261.598595 123.090312 L 239.737652 123.090312" stroke="#DD2222" fill="none" stroke-width="1px"></path></g><g id="crv-amen"><path d="M 58.832882 138.651477 L 58.832882 132.000819 L 58.832882 125.350162 L 37.129379 125.350161 L 15.425876 125.350161 L 15.425876 132.000819 L 15.425876 138.651476 L 37.129379 138.651477 L 58.832882 138.651477" stroke="none" fill="#2288CC" stroke-width="1px"></path><path d="M 58.832883 194.815093 L 58.832883 188.156124 L 58.832882 181.497161 L 37.129379 182.582349 L 15.425876 183.667537 L 15.425876 190.326503 L 15.425876 196.985469 L 37.129385 195.900281 L 58.832883 194.815093" stroke="none" fill="#2288CC" stroke-width="1px"></path><path d="M 106.279925 194.851444 L 99.629267 194.851444 L 92.978610 194.851444 L 92.978610 206.083441 L 92.978610 217.315438 L 99.629267 217.315438 L 106.279925 217.315438 L 106.279925 206.083441 L 106.279925 194.851444" stroke="none" fill="#2288CC" stroke-width="1px"></path><path d="M 151.172079 194.851444 L 144.449600 194.851444 L 137.727121 194.851444 L 136.071977 206.083441 L 134.416833 217.315438 L 141.139312 217.315438 L 147.861791 217.315438 L 149.516935 206.083441 L 151.172079 194.851444" stroke="none" fill="#2288CC" stroke-width="1px"></path><path d="M 198.921250 194.851444 L 192.164621 194.851444 L 185.407992 194.851444 L 187.421056 206.083441 L 189.434121 217.315438 L 196.190750 217.315438 L 202.947379 217.315438 L 200.934315 206.083441 L 198.921250 194.851444" stroke="none" fill="#2288CC" stroke-width="1px"></path><path d="M 254.632826 170.763840 L 247.982174 167.618205 L 241.331511 164.472565 L 241.331511 178.714291 L 241.331511 192.956017 L 247.982168 192.956017 L 254.632826 192.956017 L 254.632826 181.859929 L 254.632826 170.763840" stroke="none" fill="#2288CC" stroke-width="1px"></path><path d="M 244.123846 149.011461 L 244.123846 154.893605 L 244.123846 160.775749 L 261.612538 169.047575 L 279.101231 177.319402 L 279.101231 169.962345 L 279.101231 162.605288 L 262.182613 154.603096 L 245.263994 146.600904 L 244.693920 147.806183 L 244.123846 149.011461" stroke="none" fill="#2288CC" stroke-width="1px"></path><path d="M 234.112963 47.173351 L 236.567133 49.348454 L 239.021302 51.523556 L 258.546241 52.315748 L 278.071179 53.107940 L 278.071179 46.451814 L 278.071179 39.795681 L 256.277616 38.911443 L 234.484053 38.027206 L 234.298508 42.600279 L 234.112963 47.173351" stroke="none" fill="#2288CC" stroke-width="1px"></path><path d="M 278.839061 69.768200 L 278.839061 63.112070 L 278.839061 56.455941 L 259.314123 55.663749 L 239.789184 54.871557 L 241.917382 61.614034 L 244.045579 68.356512 L 261.442320 69.062356 L 278.839061 69.768200" stroke="none" fill="#2288CC" stroke-width="1px"></path><path d="M 236.542674 65.139268 L 235.055770 60.428511 L 233.568865 55.717753 L 228.405113 51.141178 L 223.241359 46.564602 L 223.241359 63.542584 L 223.241359 80.520566 L 229.892017 80.520566 L 236.542674 80.520566 L 236.542674 72.829917 L 236.542674 65.139268" stroke="none" fill="#2288CC" stroke-width="1px"></path><path d="M 200.000202 94.087903 L 201.160047 87.437245 L 202.319893 80.786588 L 187.020509 80.786587 L 171.721125 80.786587 L 172.003106 87.437245 L 172.285087 94.087902 L 186.142644 94.087903 L 200.000202 94.087903" stroke="none" fill="#2288CC" stroke-width="1px"></path><path d="M 154.090722 104.244945 L 160.747355 104.244945 L 167.403987 104.244945 L 166.931124 93.092227 L 166.458261 81.939509 L 159.801628 81.939509 L 153.144996 81.939508 L 153.617859 93.092227 L 154.090722 104.244945" stroke="none" fill="#2288CC" stroke-width="1px"></path><path d="M 131.682985 94.136712 L 130.343320 87.486055 L 129.003654 80.835396 L 112.328945 80.835396 L 95.654236 80.835396 L 95.654236 87.486053 L 95.654236 94.136711 L 113.668611 94.136711 L 131.682985 94.136712" stroke="none" fill="#2288CC" stroke-width="1px"></path><path d="M 49.285307 108.109424 L 55.935965 108.109424 L 62.586623 108.109424 L 62.586623 88.528238 L 62.586623 68.947052 L 55.935965 68.266196 L 49.285307 67.585340 L 49.285307 87.847382 L 49.285307 108.109424" stroke="none" fill="#2288CC" stroke-width="1px"></path><path d="M 58.832882 25.561165 L 58.832882 18.910507 L 58.832882 12.259849 L 37.129379 12.259849 L 15.425876 12.259849 L 15.425876 18.910506 L 15.425876 25.561164 L 37.129379 25.561164 L 58.832882 25.561165" stroke="none" fill="#2288CC" stroke-width="1px"></path></g><g id="crv-desk"><path d="M 55.459383 220.180625 L 52.959383 220.180625 L 52.959383 226.180625 L 55.459383 226.180625 L 55.459383 220.180625" stroke="gray" fill="white" stroke-width="1px"></path><path d="M 55.459383 214.180625 L 52.959383 214.180625 L 52.959383 220.180625 L 55.459383 220.180625 L 55.459383 214.180625" stroke="gray" fill="white" stroke-width="1px"></path><path d="M 55.459383 208.180625 L 52.959383 208.180625 L 52.959383 214.180625 L 55.459383 214.180625 L 55.459383 208.180625" stroke="gray" fill="white" stroke-width="1px"></path><path d="M 55.459383 202.180625 L 52.959383 202.180625 L 52.959383 208.180625 L 55.459383 208.180625 L 55.459383 202.180625" stroke="gray" fill="white" stroke-width="1px"></path><path d="M 43.459383 220.180625 L 40.959383 220.180625 L 40.959383 226.180625 L 43.459383 226.180625 L 43.459383 220.180625" stroke="gray" fill="white" stroke-width="1px"></path><path d="M 43.459383 214.180625 L 40.959383 214.180625 L 40.959383 220.180625 L 43.459383 220.180625 L 43.459383 214.180625" stroke="gray" fill="white" stroke-width="1px"></path><path d="M 43.459383 208.180625 L 40.959383 208.180625 L 40.959383 214.180625 L 43.459383 214.180625 L 43.459383 208.180625" stroke="gray" fill="white" stroke-width="1px"></path><path d="M 43.459383 202.180625 L 40.959383 202.180625 L 40.959383 208.180625 L 43.459383 208.180625 L 43.459383 202.180625" stroke="gray" fill="white" stroke-width="1px"></path><path d="M 31.459383 220.180625 L 28.959383 220.180625 L 28.959383 226.180625 L 31.459383 226.180625 L 31.459383 220.180625" stroke="gray" fill="white" stroke-width="1px"></path><path d="M 31.459383 214.180625 L 28.959383 214.180625 L 28.959383 220.180625 L 31.459383 220.180625 L 31.459383 214.180625" stroke="gray" fill="white" stroke-width="1px"></path><path d="M 31.459383 208.180625 L 28.959383 208.180625 L 28.959383 214.180625 L 31.459383 214.180625 L 31.459383 208.180625" stroke="gray" fill="white" stroke-width="1px"></path><path d="M 19.459383 220.180625 L 16.959383 220.180625 L 16.959383 226.180625 L 19.459383 226.180625 L 19.459383 220.180625" stroke="gray" fill="white" stroke-width="1px"></path><path d="M 19.459383 214.180625 L 16.959383 214.180625 L 16.959383 220.180625 L 19.459383 220.180625 L 19.459383 214.180625" stroke="gray" fill="white" stroke-width="1px"></path><path d="M 19.459383 208.180625 L 16.959383 208.180625 L 16.959383 214.180625 L 19.459383 214.180625 L 19.459383 208.180625" stroke="gray" fill="white" stroke-width="1px"></path><path d="M 127.459383 214.123437 L 124.959383 214.123437 L 124.959383 220.123437 L 127.459383 220.123437 L 127.459383 214.123437" stroke="gray" fill="white" stroke-width="1px"></path><path d="M 127.459383 208.123437 L 124.959383 208.123437 L 124.959383 214.123437 L 127.459383 214.123437 L 127.459383 208.123437" stroke="gray" fill="white" stroke-width="1px"></path><path d="M 127.459383 202.123437 L 124.959383 202.123437 L 124.959383 208.123437 L 127.459383 208.123437 L 127.459383 202.123437" stroke="gray" fill="white" stroke-width="1px"></path><path d="M 127.459383 196.123437 L 124.959383 196.123437 L 124.959383 202.123437 L 127.459383 202.123437 L 127.459383 196.123437" stroke="gray" fill="white" stroke-width="1px"></path><path d="M 115.459383 214.123437 L 112.959383 214.123437 L 112.959383 220.123437 L 115.459383 220.123437 L 115.459383 214.123437" stroke="gray" fill="white" stroke-width="1px"></path><path d="M 115.459383 208.123437 L 112.959383 208.123437 L 112.959383 214.123437 L 115.459383 214.123437 L 115.459383 208.123437" stroke="gray" fill="white" stroke-width="1px"></path><path d="M 115.459383 202.123437 L 112.959383 202.123437 L 112.959383 208.123437 L 115.459383 208.123437 L 115.459383 202.123437" stroke="gray" fill="white" stroke-width="1px"></path><path d="M 115.459383 196.123437 L 112.959383 196.123437 L 112.959383 202.123437 L 115.459383 202.123437 L 115.459383 196.123437" stroke="gray" fill="white" stroke-width="1px"></path><path d="M 175.459383 214.123437 L 172.959383 214.123437 L 172.959383 220.123437 L 175.459383 220.123437 L 175.459383 214.123437" stroke="gray" fill="white" stroke-width="1px"></path><path d="M 175.459383 208.123437 L 172.959383 208.123437 L 172.959383 214.123437 L 175.459383 214.123437 L 175.459383 208.123437" stroke="gray" fill="white" stroke-width="1px"></path><path d="M 175.459383 202.123437 L 172.959383 202.123437 L 172.959383 208.123437 L 175.459383 208.123437 L 175.459383 202.123437" stroke="gray" fill="white" stroke-width="1px"></path><path d="M 175.459383 196.123437 L 172.959383 196.123437 L 172.959383 202.123437 L 175.459383 202.123437 L 175.459383 196.123437" stroke="gray" fill="white" stroke-width="1px"></path><path d="M 163.459383 214.123437 L 160.959383 214.123437 L 160.959383 220.123437 L 163.459383 220.123437 L 163.459383 214.123437" stroke="gray" fill="white" stroke-width="1px"></path><path d="M 163.459383 208.123437 L 160.959383 208.123437 L 160.959383 214.123437 L 163.459383 214.123437 L 163.459383 208.123437" stroke="gray" fill="white" stroke-width="1px"></path><path d="M 163.459383 202.123437 L 160.959383 202.123437 L 160.959383 208.123437 L 163.459383 208.123437 L 163.459383 202.123437" stroke="gray" fill="white" stroke-width="1px"></path><path d="M 163.459383 196.123437 L 160.959383 196.123437 L 160.959383 202.123437 L 163.459383 202.123437 L 163.459383 196.123437" stroke="gray" fill="white" stroke-width="1px"></path><path d="M 211.459383 214.123437 L 208.959383 214.123437 L 208.959383 220.123437 L 211.459383 220.123437 L 211.459383 214.123437" stroke="gray" fill="white" stroke-width="1px"></path><path d="M 211.459383 208.123437 L 208.959383 208.123437 L 208.959383 214.123437 L 211.459383 214.123437 L 211.459383 208.123437" stroke="gray" fill="white" stroke-width="1px"></path><path d="M 211.459383 202.123437 L 208.959383 202.123437 L 208.959383 208.123437 L 211.459383 208.123437 L 211.459383 202.123437" stroke="gray" fill="white" stroke-width="1px"></path><path d="M 211.459383 196.123437 L 208.959383 196.123437 L 208.959383 202.123437 L 211.459383 202.123437 L 211.459383 196.123437" stroke="gray" fill="white" stroke-width="1px"></path><path d="M 271.459383 214.123437 L 268.959383 214.123437 L 268.959383 220.123437 L 271.459383 220.123437 L 271.459383 214.123437" stroke="gray" fill="white" stroke-width="1px"></path><path d="M 271.459383 208.123437 L 268.959383 208.123437 L 268.959383 214.123437 L 271.459383 214.123437 L 271.459383 208.123437" stroke="gray" fill="white" stroke-width="1px"></path><path d="M 271.459383 202.123437 L 268.959383 202.123437 L 268.959383 208.123437 L 271.459383 208.123437 L 271.459383 202.123437" stroke="gray" fill="white" stroke-width="1px"></path><path d="M 271.459383 196.123437 L 268.959383 196.123437 L 268.959383 202.123437 L 271.459383 202.123437 L 271.459383 196.123437" stroke="gray" fill="white" stroke-width="1px"></path><path d="M 271.459383 190.123437 L 268.959383 190.123437 L 268.959383 196.123437 L 271.459383 196.123437 L 271.459383 190.123437" stroke="gray" fill="white" stroke-width="1px"></path><path d="M 271.459383 184.123437 L 268.959383 184.123437 L 268.959383 190.123437 L 271.459383 190.123437 L 271.459383 184.123437" stroke="gray" fill="white" stroke-width="1px"></path><path d="M 259.459383 214.123437 L 256.959383 214.123437 L 256.959383 220.123437 L 259.459383 220.123437 L 259.459383 214.123437" stroke="gray" fill="white" stroke-width="1px"></path><path d="M 259.459383 208.123437 L 256.959383 208.123437 L 256.959383 214.123437 L 259.459383 214.123437 L 259.459383 208.123437" stroke="gray" fill="white" stroke-width="1px"></path><path d="M 259.459383 202.123437 L 256.959383 202.123437 L 256.959383 208.123437 L 259.459383 208.123437 L 259.459383 202.123437" stroke="gray" fill="white" stroke-width="1px"></path><path d="M 247.459383 214.123437 L 244.959383 214.123437 L 244.959383 220.123437 L 247.459383 220.123437 L 247.459383 214.123437" stroke="gray" fill="white" stroke-width="1px"></path><path d="M 247.459383 208.123437 L 244.959383 208.123437 L 244.959383 214.123437 L 247.459383 214.123437 L 247.459383 208.123437" stroke="gray" fill="white" stroke-width="1px"></path><path d="M 247.459383 202.123437 L 244.959383 202.123437 L 244.959383 208.123437 L 247.459383 208.123437 L 247.459383 202.123437" stroke="gray" fill="white" stroke-width="1px"></path><path d="M 235.459383 214.123437 L 232.959383 214.123437 L 232.959383 220.123437 L 235.459383 220.123437 L 235.459383 214.123437" stroke="gray" fill="white" stroke-width="1px"></path><path d="M 235.459383 208.123437 L 232.959383 208.123437 L 232.959383 214.123437 L 235.459383 214.123437 L 235.459383 208.123437" stroke="gray" fill="white" stroke-width="1px"></path><path d="M 235.459383 202.123437 L 232.959383 202.123437 L 232.959383 208.123437 L 235.459383 208.123437 L 235.459383 202.123437" stroke="gray" fill="white" stroke-width="1px"></path><path d="M 55.459383 220.180625 L 57.959383 220.180625 L 57.959383 226.180625 L 55.459383 226.180625 L 55.459383 220.180625" stroke="gray" fill="white" stroke-width="1px"></path><path d="M 55.459383 214.180625 L 57.959383 214.180625 L 57.959383 220.180625 L 55.459383 220.180625 L 55.459383 214.180625" stroke="gray" fill="white" stroke-width="1px"></path><path d="M 55.459383 208.180625 L 57.959383 208.180625 L 57.959383 214.180625 L 55.459383 214.180625 L 55.459383 208.180625" stroke="gray" fill="white" stroke-width="1px"></path><path d="M 55.459383 202.180625 L 57.959383 202.180625 L 57.959383 208.180625 L 55.459383 208.180625 L 55.459383 202.180625" stroke="gray" fill="white" stroke-width="1px"></path><path d="M 43.459383 220.180625 L 45.959383 220.180625 L 45.959383 226.180625 L 43.459383 226.180625 L 43.459383 220.180625" stroke="gray" fill="white" stroke-width="1px"></path><path d="M 43.459383 214.180625 L 45.959383 214.180625 L 45.959383 220.180625 L 43.459383 220.180625 L 43.459383 214.180625" stroke="gray" fill="white" stroke-width="1px"></path><path d="M 43.459383 208.180625 L 45.959383 208.180625 L 45.959383 214.180625 L 43.459383 214.180625 L 43.459383 208.180625" stroke="gray" fill="white" stroke-width="1px"></path><path d="M 43.459383 202.180625 L 45.959383 202.180625 L 45.959383 208.180625 L 43.459383 208.180625 L 43.459383 202.180625" stroke="gray" fill="white" stroke-width="1px"></path><path d="M 31.459383 220.180625 L 33.959383 220.180625 L 33.959383 226.180625 L 31.459383 226.180625 L 31.459383 220.180625" stroke="gray" fill="white" stroke-width="1px"></path><path d="M 31.459383 214.180625 L 33.959383 214.180625 L 33.959383 220.180625 L 31.459383 220.180625 L 31.459383 214.180625" stroke="gray" fill="white" stroke-width="1px"></path><path d="M 31.459383 208.180625 L 33.959383 208.180625 L 33.959383 214.180625 L 31.459383 214.180625 L 31.459383 208.180625" stroke="gray" fill="white" stroke-width="1px"></path><path d="M 19.459383 220.180625 L 21.959383 220.180625 L 21.959383 226.180625 L 19.459383 226.180625 L 19.459383 220.180625" stroke="gray" fill="white" stroke-width="1px"></path><path d="M 19.459383 214.180625 L 21.959383 214.180625 L 21.959383 220.180625 L 19.459383 220.180625 L 19.459383 214.180625" stroke="gray" fill="white" stroke-width="1px"></path><path d="M 19.459383 208.180625 L 21.959383 208.180625 L 21.959383 214.180625 L 19.459383 214.180625 L 19.459383 208.180625" stroke="gray" fill="white" stroke-width="1px"></path><path d="M 127.459383 214.123437 L 129.959383 214.123437 L 129.959383 220.123437 L 127.459383 220.123437 L 127.459383 214.123437" stroke="gray" fill="white" stroke-width="1px"></path><path d="M 127.459383 208.123437 L 129.959383 208.123437 L 129.959383 214.123437 L 127.459383 214.123437 L 127.459383 208.123437" stroke="gray" fill="white" stroke-width="1px"></path><path d="M 127.459383 202.123437 L 129.959383 202.123437 L 129.959383 208.123437 L 127.459383 208.123437 L 127.459383 202.123437" stroke="gray" fill="white" stroke-width="1px"></path><path d="M 127.459383 196.123437 L 129.959383 196.123437 L 129.959383 202.123437 L 127.459383 202.123437 L 127.459383 196.123437" stroke="gray" fill="white" stroke-width="1px"></path><path d="M 115.459383 214.123437 L 117.959383 214.123437 L 117.959383 220.123437 L 115.459383 220.123437 L 115.459383 214.123437" stroke="gray" fill="white" stroke-width="1px"></path><path d="M 115.459383 208.123437 L 117.959383 208.123437 L 117.959383 214.123437 L 115.459383 214.123437 L 115.459383 208.123437" stroke="gray" fill="white" stroke-width="1px"></path><path d="M 115.459383 202.123437 L 117.959383 202.123437 L 117.959383 208.123437 L 115.459383 208.123437 L 115.459383 202.123437" stroke="gray" fill="white" stroke-width="1px"></path><path d="M 115.459383 196.123437 L 117.959383 196.123437 L 117.959383 202.123437 L 115.459383 202.123437 L 115.459383 196.123437" stroke="gray" fill="white" stroke-width="1px"></path><path d="M 175.459383 214.123437 L 177.959383 214.123437 L 177.959383 220.123437 L 175.459383 220.123437 L 175.459383 214.123437" stroke="gray" fill="white" stroke-width="1px"></path><path d="M 175.459383 208.123437 L 177.959383 208.123437 L 177.959383 214.123437 L 175.459383 214.123437 L 175.459383 208.123437" stroke="gray" fill="white" stroke-width="1px"></path><path d="M 175.459383 202.123437 L 177.959383 202.123437 L 177.959383 208.123437 L 175.459383 208.123437 L 175.459383 202.123437" stroke="gray" fill="white" stroke-width="1px"></path><path d="M 175.459383 196.123437 L 177.959383 196.123437 L 177.959383 202.123437 L 175.459383 202.123437 L 175.459383 196.123437" stroke="gray" fill="white" stroke-width="1px"></path><path d="M 163.459383 214.123437 L 165.959383 214.123437 L 165.959383 220.123437 L 163.459383 220.123437 L 163.459383 214.123437" stroke="gray" fill="white" stroke-width="1px"></path><path d="M 163.459383 208.123437 L 165.959383 208.123437 L 165.959383 214.123437 L 163.459383 214.123437 L 163.459383 208.123437" stroke="gray" fill="white" stroke-width="1px"></path><path d="M 163.459383 202.123437 L 165.959383 202.123437 L 165.959383 208.123437 L 163.459383 208.123437 L 163.459383 202.123437" stroke="gray" fill="white" stroke-width="1px"></path><path d="M 163.459383 196.123437 L 165.959383 196.123437 L 165.959383 202.123437 L 163.459383 202.123437 L 163.459383 196.123437" stroke="gray" fill="white" stroke-width="1px"></path><path d="M 211.459383 214.123437 L 213.959383 214.123437 L 213.959383 220.123437 L 211.459383 220.123437 L 211.459383 214.123437" stroke="gray" fill="white" stroke-width="1px"></path><path d="M 211.459383 208.123437 L 213.959383 208.123437 L 213.959383 214.123437 L 211.459383 214.123437 L 211.459383 208.123437" stroke="gray" fill="white" stroke-width="1px"></path><path d="M 211.459383 202.123437 L 213.959383 202.123437 L 213.959383 208.123437 L 211.459383 208.123437 L 211.459383 202.123437" stroke="gray" fill="white" stroke-width="1px"></path><path d="M 211.459383 196.123437 L 213.959383 196.123437 L 213.959383 202.123437 L 211.459383 202.123437 L 211.459383 196.123437" stroke="gray" fill="white" stroke-width="1px"></path><path d="M 271.459383 214.123437 L 273.959383 214.123437 L 273.959383 220.123437 L 271.459383 220.123437 L 271.459383 214.123437" stroke="gray" fill="white" stroke-width="1px"></path><path d="M 271.459383 208.123437 L 273.959383 208.123437 L 273.959383 214.123437 L 271.459383 214.123437 L 271.459383 208.123437" stroke="gray" fill="white" stroke-width="1px"></path><path d="M 271.459383 202.123437 L 273.959383 202.123437 L 273.959383 208.123437 L 271.459383 208.123437 L 271.459383 202.123437" stroke="gray" fill="white" stroke-width="1px"></path><path d="M 271.459383 196.123437 L 273.959383 196.123437 L 273.959383 202.123437 L 271.459383 202.123437 L 271.459383 196.123437" stroke="gray" fill="white" stroke-width="1px"></path><path d="M 271.459383 190.123437 L 273.959383 190.123437 L 273.959383 196.123437 L 271.459383 196.123437 L 271.459383 190.123437" stroke="gray" fill="white" stroke-width="1px"></path><path d="M 271.459383 184.123437 L 273.959383 184.123437 L 273.959383 190.123437 L 271.459383 190.123437 L 271.459383 184.123437" stroke="gray" fill="white" stroke-width="1px"></path><path d="M 259.459383 214.123437 L 261.959383 214.123437 L 261.959383 220.123437 L 259.459383 220.123437 L 259.459383 214.123437" stroke="gray" fill="white" stroke-width="1px"></path><path d="M 259.459383 208.123437 L 261.959383 208.123437 L 261.959383 214.123437 L 259.459383 214.123437 L 259.459383 208.123437" stroke="gray" fill="white" stroke-width="1px"></path><path d="M 259.459383 202.123437 L 261.959383 202.123437 L 261.959383 208.123437 L 259.459383 208.123437 L 259.459383 202.123437" stroke="gray" fill="white" stroke-width="1px"></path><path d="M 247.459383 214.123437 L 249.959383 214.123437 L 249.959383 220.123437 L 247.459383 220.123437 L 247.459383 214.123437" stroke="gray" fill="white" stroke-width="1px"></path><path d="M 247.459383 208.123437 L 249.959383 208.123437 L 249.959383 214.123437 L 247.459383 214.123437 L 247.459383 208.123437" stroke="gray" fill="white" stroke-width="1px"></path><path d="M 247.459383 202.123437 L 249.959383 202.123437 L 249.959383 208.123437 L 247.459383 208.123437 L 247.459383 202.123437" stroke="gray" fill="white" stroke-width="1px"></path><path d="M 235.459383 214.123437 L 237.959383 214.123437 L 237.959383 220.123437 L 235.459383 220.123437 L 235.459383 214.123437" stroke="gray" fill="white" stroke-width="1px"></path><path d="M 235.459383 208.123437 L 237.959383 208.123437 L 237.959383 214.123437 L 235.459383 214.123437 L 235.459383 208.123437" stroke="gray" fill="white" stroke-width="1px"></path><path d="M 235.459383 202.123437 L 237.959383 202.123437 L 237.959383 208.123437 L 235.459383 208.123437 L 235.459383 202.123437" stroke="gray" fill="white" stroke-width="1px"></path><path d="M 223.459383 214.123437 L 225.959383 214.123437 L 225.959383 220.123437 L 223.459383 220.123437 L 223.459383 214.123437" stroke="gray" fill="white" stroke-width="1px"></path><path d="M 22.000000 172.123437 L 22.000000 169.623437 L 16.000000 169.623437 L 16.000000 172.123437 L 22.000000 172.123437" stroke="gray" fill="white" stroke-width="1px"></path><path d="M 28.000000 172.123437 L 28.000000 169.623437 L 22.000000 169.623437 L 22.000000 172.123437 L 28.000000 172.123437" stroke="gray" fill="white" stroke-width="1px"></path><path d="M 34.000000 172.123437 L 34.000000 169.623437 L 28.000000 169.623437 L 28.000000 172.123437 L 34.000000 172.123437" stroke="gray" fill="white" stroke-width="1px"></path><path d="M 40.000000 172.123437 L 40.000000 169.623437 L 34.000000 169.623437 L 34.000000 172.123437 L 40.000000 172.123437" stroke="gray" fill="white" stroke-width="1px"></path><path d="M 46.000000 172.123437 L 46.000000 169.623437 L 40.000000 169.623437 L 40.000000 172.123437 L 46.000000 172.123437" stroke="gray" fill="white" stroke-width="1px"></path><path d="M 52.000000 172.123437 L 52.000000 169.623437 L 46.000000 169.623437 L 46.000000 172.123437 L 52.000000 172.123437" stroke="gray" fill="white" stroke-width="1px"></path><path d="M 58.000000 172.123437 L 58.000000 169.623437 L 52.000000 169.623437 L 52.000000 172.123437 L 58.000000 172.123437" stroke="gray" fill="white" stroke-width="1px"></path><path d="M 22.000000 160.123437 L 22.000000 157.623437 L 16.000000 157.623437 L 16.000000 160.123437 L 22.000000 160.123437" stroke="gray" fill="white" stroke-width="1px"></path><path d="M 28.000000 160.123437 L 28.000000 157.623437 L 22.000000 157.623437 L 22.000000 160.123437 L 28.000000 160.123437" stroke="gray" fill="white" stroke-width="1px"></path><path d="M 34.000000 160.123437 L 34.000000 157.623437 L 28.000000 157.623437 L 28.000000 160.123437 L 34.000000 160.123437" stroke="gray" fill="white" stroke-width="1px"></path><path d="M 40.000000 160.123437 L 40.000000 157.623437 L 34.000000 157.623437 L 34.000000 160.123437 L 40.000000 160.123437" stroke="gray" fill="white" stroke-width="1px"></path><path d="M 46.000000 160.123437 L 46.000000 157.623437 L 40.000000 157.623437 L 40.000000 160.123437 L 46.000000 160.123437" stroke="gray" fill="white" stroke-width="1px"></path><path d="M 52.000000 160.123437 L 52.000000 157.623437 L 46.000000 157.623437 L 46.000000 160.123437 L 52.000000 160.123437" stroke="gray" fill="white" stroke-width="1px"></path><path d="M 58.000000 160.123437 L 58.000000 157.623437 L 52.000000 157.623437 L 52.000000 160.123437 L 58.000000 160.123437" stroke="gray" fill="white" stroke-width="1px"></path><path d="M 22.000000 148.123437 L 22.000000 145.623437 L 16.000000 145.623437 L 16.000000 148.123437 L 22.000000 148.123437" stroke="gray" fill="white" stroke-width="1px"></path><path d="M 28.000000 148.123437 L 28.000000 145.623437 L 22.000000 145.623437 L 22.000000 148.123437 L 28.000000 148.123437" stroke="gray" fill="white" stroke-width="1px"></path><path d="M 34.000000 148.123437 L 34.000000 145.623437 L 28.000000 145.623437 L 28.000000 148.123437 L 34.000000 148.123437" stroke="gray" fill="white" stroke-width="1px"></path><path d="M 40.000000 148.123437 L 40.000000 145.623437 L 34.000000 145.623437 L 34.000000 148.123437 L 40.000000 148.123437" stroke="gray" fill="white" stroke-width="1px"></path><path d="M 46.000000 148.123437 L 46.000000 145.623437 L 40.000000 145.623437 L 40.000000 148.123437 L 46.000000 148.123437" stroke="gray" fill="white" stroke-width="1px"></path><path d="M 52.000000 148.123437 L 52.000000 145.623437 L 46.000000 145.623437 L 46.000000 148.123437 L 52.000000 148.123437" stroke="gray" fill="white" stroke-width="1px"></path><path d="M 58.000000 148.123437 L 58.000000 145.623437 L 52.000000 145.623437 L 52.000000 148.123437 L 58.000000 148.123437" stroke="gray" fill="white" stroke-width="1px"></path><path d="M 266.483007 148.123437 L 266.483007 145.623437 L 260.483007 145.623437 L 260.483007 148.123437 L 266.483007 148.123437" stroke="gray" fill="white" stroke-width="1px"></path><path d="M 272.483007 148.123437 L 272.483007 145.623437 L 266.483007 145.623437 L 266.483007 148.123437 L 272.483007 148.123437" stroke="gray" fill="white" stroke-width="1px"></path><path d="M 278.483007 148.123437 L 278.483007 145.623437 L 272.483007 145.623437 L 272.483007 148.123437 L 278.483007 148.123437" stroke="gray" fill="white" stroke-width="1px"></path><path d="M 251.737652 136.123437 L 251.737652 133.623437 L 245.737652 133.623437 L 245.737652 136.123437 L 251.737652 136.123437" stroke="gray" fill="white" stroke-width="1px"></path><path d="M 257.737652 136.123437 L 257.737652 133.623437 L 251.737652 133.623437 L 251.737652 136.123437 L 257.737652 136.123437" stroke="gray" fill="white" stroke-width="1px"></path><path d="M 263.737652 136.123437 L 263.737652 133.623437 L 257.737652 133.623437 L 257.737652 136.123437 L 263.737652 136.123437" stroke="gray" fill="white" stroke-width="1px"></path><path d="M 269.737652 136.123437 L 269.737652 133.623437 L 263.737652 133.623437 L 263.737652 136.123437 L 269.737652 136.123437" stroke="gray" fill="white" stroke-width="1px"></path><path d="M 275.737652 136.123437 L 275.737652 133.623437 L 269.737652 133.623437 L 269.737652 136.123437 L 275.737652 136.123437" stroke="gray" fill="white" stroke-width="1px"></path><path d="M 22.000000 172.123437 L 22.000000 174.623437 L 16.000000 174.623437 L 16.000000 172.123437 L 22.000000 172.123437" stroke="gray" fill="white" stroke-width="1px"></path><path d="M 28.000000 172.123437 L 28.000000 174.623437 L 22.000000 174.623437 L 22.000000 172.123437 L 28.000000 172.123437" stroke="gray" fill="white" stroke-width="1px"></path><path d="M 34.000000 172.123437 L 34.000000 174.623437 L 28.000000 174.623437 L 28.000000 172.123437 L 34.000000 172.123437" stroke="gray" fill="white" stroke-width="1px"></path><path d="M 40.000000 172.123437 L 40.000000 174.623437 L 34.000000 174.623437 L 34.000000 172.123437 L 40.000000 172.123437" stroke="gray" fill="white" stroke-width="1px"></path><path d="M 46.000000 172.123437 L 46.000000 174.623437 L 40.000000 174.623437 L 40.000000 172.123437 L 46.000000 172.123437" stroke="gray" fill="white" stroke-width="1px"></path><path d="M 52.000000 172.123437 L 52.000000 174.623437 L 46.000000 174.623437 L 46.000000 172.123437 L 52.000000 172.123437" stroke="gray" fill="white" stroke-width="1px"></path><path d="M 58.000000 172.123437 L 58.000000 174.623437 L 52.000000 174.623437 L 52.000000 172.123437 L 58.000000 172.123437" stroke="gray" fill="white" stroke-width="1px"></path><path d="M 22.000000 160.123437 L 22.000000 162.623437 L 16.000000 162.623437 L 16.000000 160.123437 L 22.000000 160.123437" stroke="gray" fill="white" stroke-width="1px"></path><path d="M 28.000000 160.123437 L 28.000000 162.623437 L 22.000000 162.623437 L 22.000000 160.123437 L 28.000000 160.123437" stroke="gray" fill="white" stroke-width="1px"></path><path d="M 34.000000 160.123437 L 34.000000 162.623437 L 28.000000 162.623437 L 28.000000 160.123437 L 34.000000 160.123437" stroke="gray" fill="white" stroke-width="1px"></path><path d="M 40.000000 160.123437 L 40.000000 162.623437 L 34.000000 162.623437 L 34.000000 160.123437 L 40.000000 160.123437" stroke="gray" fill="white" stroke-width="1px"></path><path d="M 46.000000 160.123437 L 46.000000 162.623437 L 40.000000 162.623437 L 40.000000 160.123437 L 46.000000 160.123437" stroke="gray" fill="white" stroke-width="1px"></path><path d="M 52.000000 160.123437 L 52.000000 162.623437 L 46.000000 162.623437 L 46.000000 160.123437 L 52.000000 160.123437" stroke="gray" fill="white" stroke-width="1px"></path><path d="M 58.000000 160.123437 L 58.000000 162.623437 L 52.000000 162.623437 L 52.000000 160.123437 L 58.000000 160.123437" stroke="gray" fill="white" stroke-width="1px"></path><path d="M 22.000000 148.123437 L 22.000000 150.623437 L 16.000000 150.623437 L 16.000000 148.123437 L 22.000000 148.123437" stroke="gray" fill="white" stroke-width="1px"></path><path d="M 28.000000 148.123437 L 28.000000 150.623437 L 22.000000 150.623437 L 22.000000 148.123437 L 28.000000 148.123437" stroke="gray" fill="white" stroke-width="1px"></path><path d="M 34.000000 148.123437 L 34.000000 150.623437 L 28.000000 150.623437 L 28.000000 148.123437 L 34.000000 148.123437" stroke="gray" fill="white" stroke-width="1px"></path><path d="M 40.000000 148.123437 L 40.000000 150.623437 L 34.000000 150.623437 L 34.000000 148.123437 L 40.000000 148.123437" stroke="gray" fill="white" stroke-width="1px"></path><path d="M 46.000000 148.123437 L 46.000000 150.623437 L 40.000000 150.623437 L 40.000000 148.123437 L 46.000000 148.123437" stroke="gray" fill="white" stroke-width="1px"></path><path d="M 52.000000 148.123437 L 52.000000 150.623437 L 46.000000 150.623437 L 46.000000 148.123437 L 52.000000 148.123437" stroke="gray" fill="white" stroke-width="1px"></path><path d="M 58.000000 148.123437 L 58.000000 150.623437 L 52.000000 150.623437 L 52.000000 148.123437 L 58.000000 148.123437" stroke="gray" fill="white" stroke-width="1px"></path><path d="M 266.483007 148.123437 L 266.483007 150.623437 L 260.483007 150.623437 L 260.483007 148.123437 L 266.483007 148.123437" stroke="gray" fill="white" stroke-width="1px"></path><path d="M 272.483007 148.123437 L 272.483007 150.623437 L 266.483007 150.623437 L 266.483007 148.123437 L 272.483007 148.123437" stroke="gray" fill="white" stroke-width="1px"></path><path d="M 278.483007 148.123437 L 278.483007 150.623437 L 272.483007 150.623437 L 272.483007 148.123437 L 278.483007 148.123437" stroke="gray" fill="white" stroke-width="1px"></path><path d="M 251.737652 136.123437 L 251.737652 138.623437 L 245.737652 138.623437 L 245.737652 136.123437 L 251.737652 136.123437" stroke="gray" fill="white" stroke-width="1px"></path><path d="M 257.737652 136.123437 L 257.737652 138.623437 L 251.737652 138.623437 L 251.737652 136.123437 L 257.737652 136.123437" stroke="gray" fill="white" stroke-width="1px"></path><path d="M 263.737652 136.123437 L 263.737652 138.623437 L 257.737652 138.623437 L 257.737652 136.123437 L 263.737652 136.123437" stroke="gray" fill="white" stroke-width="1px"></path><path d="M 269.737652 136.123437 L 269.737652 138.623437 L 263.737652 138.623437 L 263.737652 136.123437 L 269.737652 136.123437" stroke="gray" fill="white" stroke-width="1px"></path><path d="M 275.737652 136.123437 L 275.737652 138.623437 L 269.737652 138.623437 L 269.737652 136.123437 L 275.737652 136.123437" stroke="gray" fill="white" stroke-width="1px"></path><path d="M 271.459383 27.527418 L 268.959383 27.527418 L 268.959383 33.527418 L 271.459383 33.527418 L 271.459383 27.527418" stroke="gray" fill="white" stroke-width="1px"></path><path d="M 271.459383 21.527418 L 268.959383 21.527418 L 268.959383 27.527418 L 271.459383 27.527418 L 271.459383 21.527418" stroke="gray" fill="white" stroke-width="1px"></path><path d="M 271.459383 15.527418 L 268.959383 15.527418 L 268.959383 21.527418 L 271.459383 21.527418 L 271.459383 15.527418" stroke="gray" fill="white" stroke-width="1px"></path><path d="M 259.459383 27.040538 L 256.959383 27.040538 L 256.959383 33.040538 L 259.459383 33.040538 L 259.459383 27.040538" stroke="gray" fill="white" stroke-width="1px"></path><path d="M 259.459383 21.040538 L 256.959383 21.040538 L 256.959383 27.040538 L 259.459383 27.040538 L 259.459383 21.040538" stroke="gray" fill="white" stroke-width="1px"></path><path d="M 259.459383 15.040538 L 256.959383 15.040538 L 256.959383 21.040538 L 259.459383 21.040538 L 259.459383 15.040538" stroke="gray" fill="white" stroke-width="1px"></path><path d="M 247.459383 26.553658 L 244.959383 26.553658 L 244.959383 32.553658 L 247.459383 32.553658 L 247.459383 26.553658" stroke="gray" fill="white" stroke-width="1px"></path><path d="M 247.459383 20.553658 L 244.959383 20.553658 L 244.959383 26.553658 L 247.459383 26.553658 L 247.459383 20.553658" stroke="gray" fill="white" stroke-width="1px"></path><path d="M 247.459383 14.553658 L 244.959383 14.553658 L 244.959383 20.553658 L 247.459383 20.553658 L 247.459383 14.553658" stroke="gray" fill="white" stroke-width="1px"></path><path d="M 235.459383 26.066778 L 232.959383 26.066778 L 232.959383 32.066778 L 235.459383 32.066778 L 235.459383 26.066778" stroke="gray" fill="white" stroke-width="1px"></path><path d="M 235.459383 20.066778 L 232.959383 20.066778 L 232.959383 26.066778 L 235.459383 26.066778 L 235.459383 20.066778" stroke="gray" fill="white" stroke-width="1px"></path><path d="M 235.459383 14.066778 L 232.959383 14.066778 L 232.959383 20.066778 L 235.459383 20.066778 L 235.459383 14.066778" stroke="gray" fill="white" stroke-width="1px"></path><path d="M 199.459383 101.033125 L 196.959383 101.033125 L 196.959383 107.033125 L 199.459383 107.033125 L 199.459383 101.033125" stroke="gray" fill="white" stroke-width="1px"></path><path d="M 187.459383 101.033125 L 184.959383 101.033125 L 184.959383 107.033125 L 187.459383 107.033125 L 187.459383 101.033125" stroke="gray" fill="white" stroke-width="1px"></path><path d="M 175.459383 101.033125 L 172.959383 101.033125 L 172.959383 107.033125 L 175.459383 107.033125 L 175.459383 101.033125" stroke="gray" fill="white" stroke-width="1px"></path><path d="M 139.459383 89.033125 L 136.959383 89.033125 L 136.959383 95.033125 L 139.459383 95.033125 L 139.459383 89.033125" stroke="gray" fill="white" stroke-width="1px"></path><path d="M 139.459383 83.033125 L 136.959383 83.033125 L 136.959383 89.033125 L 139.459383 89.033125 L 139.459383 83.033125" stroke="gray" fill="white" stroke-width="1px"></path><path d="M 127.459383 101.033125 L 124.959383 101.033125 L 124.959383 107.033125 L 127.459383 107.033125 L 127.459383 101.033125" stroke="gray" fill="white" stroke-width="1px"></path><path d="M 115.459383 101.033125 L 112.959383 101.033125 L 112.959383 107.033125 L 115.459383 107.033125 L 115.459383 101.033125" stroke="gray" fill="white" stroke-width="1px"></path><path d="M 103.459383 101.033125 L 100.959383 101.033125 L 100.959383 107.033125 L 103.459383 107.033125 L 103.459383 101.033125" stroke="gray" fill="white" stroke-width="1px"></path><path d="M 55.459383 57.236518 L 52.959383 57.236518 L 52.959383 63.236518 L 55.459383 63.236518 L 55.459383 57.236518" stroke="gray" fill="white" stroke-width="1px"></path><path d="M 55.459383 51.236518 L 52.959383 51.236518 L 52.959383 57.236518 L 55.459383 57.236518 L 55.459383 51.236518" stroke="gray" fill="white" stroke-width="1px"></path><path d="M 55.459383 45.236518 L 52.959383 45.236518 L 52.959383 51.236518 L 55.459383 51.236518 L 55.459383 45.236518" stroke="gray" fill="white" stroke-width="1px"></path><path d="M 55.459383 39.236518 L 52.959383 39.236518 L 52.959383 45.236518 L 55.459383 45.236518 L 55.459383 39.236518" stroke="gray" fill="white" stroke-width="1px"></path><path d="M 55.459383 33.236518 L 52.959383 33.236518 L 52.959383 39.236518 L 55.459383 39.236518 L 55.459383 33.236518" stroke="gray" fill="white" stroke-width="1px"></path><path d="M 43.459383 56.008027 L 40.959383 56.008027 L 40.959383 62.008027 L 43.459383 62.008027 L 43.459383 56.008027" stroke="gray" fill="white" stroke-width="1px"></path><path d="M 43.459383 50.008027 L 40.959383 50.008027 L 40.959383 56.008027 L 43.459383 56.008027 L 43.459383 50.008027" stroke="gray" fill="white" stroke-width="1px"></path><path d="M 43.459383 44.008027 L 40.959383 44.008027 L 40.959383 50.008027 L 43.459383 50.008027 L 43.459383 44.008027" stroke="gray" fill="white" stroke-width="1px"></path><path d="M 43.459383 38.008027 L 40.959383 38.008027 L 40.959383 44.008027 L 43.459383 44.008027 L 43.459383 38.008027" stroke="gray" fill="white" stroke-width="1px"></path><path d="M 43.459383 32.008027 L 40.959383 32.008027 L 40.959383 38.008027 L 43.459383 38.008027 L 43.459383 32.008027" stroke="gray" fill="white" stroke-width="1px"></path><path d="M 31.459383 54.779537 L 28.959383 54.779537 L 28.959383 60.779537 L 31.459383 60.779537 L 31.459383 54.779537" stroke="gray" fill="white" stroke-width="1px"></path><path d="M 31.459383 48.779537 L 28.959383 48.779537 L 28.959383 54.779537 L 31.459383 54.779537 L 31.459383 48.779537" stroke="gray" fill="white" stroke-width="1px"></path><path d="M 31.459383 42.779537 L 28.959383 42.779537 L 28.959383 48.779537 L 31.459383 48.779537 L 31.459383 42.779537" stroke="gray" fill="white" stroke-width="1px"></path><path d="M 31.459383 36.779537 L 28.959383 36.779537 L 28.959383 42.779537 L 31.459383 42.779537 L 31.459383 36.779537" stroke="gray" fill="white" stroke-width="1px"></path><path d="M 19.459383 53.551046 L 16.959383 53.551046 L 16.959383 59.551046 L 19.459383 59.551046 L 19.459383 53.551046" stroke="gray" fill="white" stroke-width="1px"></path><path d="M 19.459383 47.551046 L 16.959383 47.551046 L 16.959383 53.551046 L 19.459383 53.551046 L 19.459383 47.551046" stroke="gray" fill="white" stroke-width="1px"></path><path d="M 19.459383 41.551046 L 16.959383 41.551046 L 16.959383 47.551046 L 19.459383 47.551046 L 19.459383 41.551046" stroke="gray" fill="white" stroke-width="1px"></path><path d="M 19.459383 35.551046 L 16.959383 35.551046 L 16.959383 41.551046 L 19.459383 41.551046 L 19.459383 35.551046" stroke="gray" fill="white" stroke-width="1px"></path><path d="M 271.459383 27.527418 L 273.959383 27.527418 L 273.959383 33.527418 L 271.459383 33.527418 L 271.459383 27.527418" stroke="gray" fill="white" stroke-width="1px"></path><path d="M 271.459383 21.527418 L 273.959383 21.527418 L 273.959383 27.527418 L 271.459383 27.527418 L 271.459383 21.527418" stroke="gray" fill="white" stroke-width="1px"></path><path d="M 271.459383 15.527418 L 273.959383 15.527418 L 273.959383 21.527418 L 271.459383 21.527418 L 271.459383 15.527418" stroke="gray" fill="white" stroke-width="1px"></path><path d="M 259.459383 27.040538 L 261.959383 27.040538 L 261.959383 33.040538 L 259.459383 33.040538 L 259.459383 27.040538" stroke="gray" fill="white" stroke-width="1px"></path><path d="M 259.459383 21.040538 L 261.959383 21.040538 L 261.959383 27.040538 L 259.459383 27.040538 L 259.459383 21.040538" stroke="gray" fill="white" stroke-width="1px"></path><path d="M 259.459383 15.040538 L 261.959383 15.040538 L 261.959383 21.040538 L 259.459383 21.040538 L 259.459383 15.040538" stroke="gray" fill="white" stroke-width="1px"></path><path d="M 247.459383 26.553658 L 249.959383 26.553658 L 249.959383 32.553658 L 247.459383 32.553658 L 247.459383 26.553658" stroke="gray" fill="white" stroke-width="1px"></path><path d="M 247.459383 20.553658 L 249.959383 20.553658 L 249.959383 26.553658 L 247.459383 26.553658 L 247.459383 20.553658" stroke="gray" fill="white" stroke-width="1px"></path><path d="M 247.459383 14.553658 L 249.959383 14.553658 L 249.959383 20.553658 L 247.459383 20.553658 L 247.459383 14.553658" stroke="gray" fill="white" stroke-width="1px"></path><path d="M 235.459383 26.066778 L 237.959383 26.066778 L 237.959383 32.066778 L 235.459383 32.066778 L 235.459383 26.066778" stroke="gray" fill="white" stroke-width="1px"></path><path d="M 235.459383 20.066778 L 237.959383 20.066778 L 237.959383 26.066778 L 235.459383 26.066778 L 235.459383 20.066778" stroke="gray" fill="white" stroke-width="1px"></path><path d="M 235.459383 14.066778 L 237.959383 14.066778 L 237.959383 20.066778 L 235.459383 20.066778 L 235.459383 14.066778" stroke="gray" fill="white" stroke-width="1px"></path><path d="M 187.459383 101.033125 L 189.959383 101.033125 L 189.959383 107.033125 L 187.459383 107.033125 L 187.459383 101.033125" stroke="gray" fill="white" stroke-width="1px"></path><path d="M 175.459383 101.033125 L 177.959383 101.033125 L 177.959383 107.033125 L 175.459383 107.033125 L 175.459383 101.033125" stroke="gray" fill="white" stroke-width="1px"></path><path d="M 139.459383 101.033125 L 141.959383 101.033125 L 141.959383 107.033125 L 139.459383 107.033125 L 139.459383 101.033125" stroke="gray" fill="white" stroke-width="1px"></path><path d="M 139.459383 95.033125 L 141.959383 95.033125 L 141.959383 101.033125 L 139.459383 101.033125 L 139.459383 95.033125" stroke="gray" fill="white" stroke-width="1px"></path><path d="M 139.459383 89.033125 L 141.959383 89.033125 L 141.959383 95.033125 L 139.459383 95.033125 L 139.459383 89.033125" stroke="gray" fill="white" stroke-width="1px"></path><path d="M 139.459383 83.033125 L 141.959383 83.033125 L 141.959383 89.033125 L 139.459383 89.033125 L 139.459383 83.033125" stroke="gray" fill="white" stroke-width="1px"></path><path d="M 127.459383 101.033125 L 129.959383 101.033125 L 129.959383 107.033125 L 127.459383 107.033125 L 127.459383 101.033125" stroke="gray" fill="white" stroke-width="1px"></path><path d="M 115.459383 101.033125 L 117.959383 101.033125 L 117.959383 107.033125 L 115.459383 107.033125 L 115.459383 101.033125" stroke="gray" fill="white" stroke-width="1px"></path><path d="M 103.459383 101.033125 L 105.959383 101.033125 L 105.959383 107.033125 L 103.459383 107.033125 L 103.459383 101.033125" stroke="gray" fill="white" stroke-width="1px"></path><path d="M 55.459383 57.236518 L 57.959383 57.236518 L 57.959383 63.236518 L 55.459383 63.236518 L 55.459383 57.236518" stroke="gray" fill="white" stroke-width="1px"></path><path d="M 55.459383 51.236518 L 57.959383 51.236518 L 57.959383 57.236518 L 55.459383 57.236518 L 55.459383 51.236518" stroke="gray" fill="white" stroke-width="1px"></path><path d="M 55.459383 45.236518 L 57.959383 45.236518 L 57.959383 51.236518 L 55.459383 51.236518 L 55.459383 45.236518" stroke="gray" fill="white" stroke-width="1px"></path><path d="M 55.459383 39.236518 L 57.959383 39.236518 L 57.959383 45.236518 L 55.459383 45.236518 L 55.459383 39.236518" stroke="gray" fill="white" stroke-width="1px"></path><path d="M 55.459383 33.236518 L 57.959383 33.236518 L 57.959383 39.236518 L 55.459383 39.236518 L 55.459383 33.236518" stroke="gray" fill="white" stroke-width="1px"></path><path d="M 43.459383 56.008027 L 45.959383 56.008027 L 45.959383 62.008027 L 43.459383 62.008027 L 43.459383 56.008027" stroke="gray" fill="white" stroke-width="1px"></path><path d="M 43.459383 50.008027 L 45.959383 50.008027 L 45.959383 56.008027 L 43.459383 56.008027 L 43.459383 50.008027" stroke="gray" fill="white" stroke-width="1px"></path><path d="M 43.459383 44.008027 L 45.959383 44.008027 L 45.959383 50.008027 L 43.459383 50.008027 L 43.459383 44.008027" stroke="gray" fill="white" stroke-width="1px"></path><path d="M 43.459383 38.008027 L 45.959383 38.008027 L 45.959383 44.008027 L 43.459383 44.008027 L 43.459383 38.008027" stroke="gray" fill="white" stroke-width="1px"></path><path d="M 43.459383 32.008027 L 45.959383 32.008027 L 45.959383 38.008027 L 43.459383 38.008027 L 43.459383 32.008027" stroke="gray" fill="white" stroke-width="1px"></path><path d="M 31.459383 54.779537 L 33.959383 54.779537 L 33.959383 60.779537 L 31.459383 60.779537 L 31.459383 54.779537" stroke="gray" fill="white" stroke-width="1px"></path><path d="M 31.459383 48.779537 L 33.959383 48.779537 L 33.959383 54.779537 L 31.459383 54.779537 L 31.459383 48.779537" stroke="gray" fill="white" stroke-width="1px"></path><path d="M 31.459383 42.779537 L 33.959383 42.779537 L 33.959383 48.779537 L 31.459383 48.779537 L 31.459383 42.779537" stroke="gray" fill="white" stroke-width="1px"></path><path d="M 31.459383 36.779537 L 33.959383 36.779537 L 33.959383 42.779537 L 31.459383 42.779537 L 31.459383 36.779537" stroke="gray" fill="white" stroke-width="1px"></path><path d="M 19.459383 53.551046 L 21.959383 53.551046 L 21.959383 59.551046 L 19.459383 59.551046 L 19.459383 53.551046" stroke="gray" fill="white" stroke-width="1px"></path><path d="M 19.459383 47.551046 L 21.959383 47.551046 L 21.959383 53.551046 L 19.459383 53.551046 L 19.459383 47.551046" stroke="gray" fill="white" stroke-width="1px"></path><path d="M 19.459383 41.551046 L 21.959383 41.551046 L 21.959383 47.551046 L 19.459383 47.551046 L 19.459383 41.551046" stroke="gray" fill="white" stroke-width="1px"></path><path d="M 19.459383 35.551046 L 21.959383 35.551046 L 21.959383 41.551046 L 19.459383 41.551046 L 19.459383 35.551046" stroke="gray" fill="white" stroke-width="1px"></path><path d="M 261.871222 101.263579 L 261.871222 98.763579 L 255.871222 98.763579 L 255.871222 101.263579 L 261.871222 101.263579" stroke="gray" fill="white" stroke-width="1px"></path><path d="M 267.871222 101.263579 L 267.871222 98.763579 L 261.871222 98.763579 L 261.871222 101.263579 L 267.871222 101.263579" stroke="gray" fill="white" stroke-width="1px"></path><path d="M 273.871222 101.263579 L 273.871222 98.763579 L 267.871222 98.763579 L 267.871222 101.263579 L 273.871222 101.263579" stroke="gray" fill="white" stroke-width="1px"></path><path d="M 258.083539 89.263579 L 258.083539 86.763579 L 252.083539 86.763579 L 252.083539 89.263579 L 258.083539 89.263579" stroke="gray" fill="white" stroke-width="1px"></path><path d="M 264.083539 89.263579 L 264.083539 86.763579 L 258.083539 86.763579 L 258.083539 89.263579 L 264.083539 89.263579" stroke="gray" fill="white" stroke-width="1px"></path><path d="M 270.083539 89.263579 L 270.083539 86.763579 L 264.083539 86.763579 L 264.083539 89.263579 L 270.083539 89.263579" stroke="gray" fill="white" stroke-width="1px"></path><path d="M 276.083539 89.263579 L 276.083539 86.763579 L 270.083539 86.763579 L 270.083539 89.263579 L 276.083539 89.263579" stroke="gray" fill="white" stroke-width="1px"></path><path d="M 254.295857 77.263579 L 254.295857 74.763579 L 248.295857 74.763579 L 248.295857 77.263579 L 254.295857 77.263579" stroke="gray" fill="white" stroke-width="1px"></path><path d="M 260.295857 77.263579 L 260.295857 74.763579 L 254.295857 74.763579 L 254.295857 77.263579 L 260.295857 77.263579" stroke="gray" fill="white" stroke-width="1px"></path><path d="M 266.295857 77.263579 L 266.295857 74.763579 L 260.295857 74.763579 L 260.295857 77.263579 L 266.295857 77.263579" stroke="gray" fill="white" stroke-width="1px"></path><path d="M 272.295857 77.263579 L 272.295857 74.763579 L 266.295857 74.763579 L 266.295857 77.263579 L 272.295857 77.263579" stroke="gray" fill="white" stroke-width="1px"></path><path d="M 278.295857 77.263579 L 278.295857 74.763579 L 272.295857 74.763579 L 272.295857 77.263579 L 278.295857 77.263579" stroke="gray" fill="white" stroke-width="1px"></path><path d="M 214.396383 101.263579 L 214.396383 98.763579 L 208.396383 98.763579 L 208.396383 101.263579 L 214.396383 101.263579" stroke="gray" fill="white" stroke-width="1px"></path><path d="M 220.396383 101.263579 L 220.396383 98.763579 L 214.396383 98.763579 L 214.396383 101.263579 L 220.396383 101.263579" stroke="gray" fill="white" stroke-width="1px"></path><path d="M 226.396383 101.263579 L 226.396383 98.763579 L 220.396383 98.763579 L 220.396383 101.263579 L 226.396383 101.263579" stroke="gray" fill="white" stroke-width="1px"></path><path d="M 232.396383 101.263579 L 232.396383 98.763579 L 226.396383 98.763579 L 226.396383 101.263579 L 232.396383 101.263579" stroke="gray" fill="white" stroke-width="1px"></path><path d="M 238.396383 101.263579 L 238.396383 98.763579 L 232.396383 98.763579 L 232.396383 101.263579 L 238.396383 101.263579" stroke="gray" fill="white" stroke-width="1px"></path><path d="M 244.396383 101.263579 L 244.396383 98.763579 L 238.396383 98.763579 L 238.396383 101.263579 L 244.396383 101.263579" stroke="gray" fill="white" stroke-width="1px"></path><path d="M 216.489131 89.263579 L 216.489131 86.763579 L 210.489131 86.763579 L 210.489131 89.263579 L 216.489131 89.263579" stroke="gray" fill="white" stroke-width="1px"></path><path d="M 222.489131 89.263579 L 222.489131 86.763579 L 216.489131 86.763579 L 216.489131 89.263579 L 222.489131 89.263579" stroke="gray" fill="white" stroke-width="1px"></path><path d="M 228.489131 89.263579 L 228.489131 86.763579 L 222.489131 86.763579 L 222.489131 89.263579 L 228.489131 89.263579" stroke="gray" fill="white" stroke-width="1px"></path><path d="M 234.489131 89.263579 L 234.489131 86.763579 L 228.489131 86.763579 L 228.489131 89.263579 L 234.489131 89.263579" stroke="gray" fill="white" stroke-width="1px"></path><path d="M 240.489131 89.263579 L 240.489131 86.763579 L 234.489131 86.763579 L 234.489131 89.263579 L 240.489131 89.263579" stroke="gray" fill="white" stroke-width="1px"></path><path d="M 22.000000 101.263579 L 22.000000 98.763579 L 16.000000 98.763579 L 16.000000 101.263579 L 22.000000 101.263579" stroke="gray" fill="white" stroke-width="1px"></path><path d="M 28.000000 101.263579 L 28.000000 98.763579 L 22.000000 98.763579 L 22.000000 101.263579 L 28.000000 101.263579" stroke="gray" fill="white" stroke-width="1px"></path><path d="M 34.000000 101.263579 L 34.000000 98.763579 L 28.000000 98.763579 L 28.000000 101.263579 L 34.000000 101.263579" stroke="gray" fill="white" stroke-width="1px"></path><path d="M 40.000000 101.263579 L 40.000000 98.763579 L 34.000000 98.763579 L 34.000000 101.263579 L 40.000000 101.263579" stroke="gray" fill="white" stroke-width="1px"></path><path d="M 22.000000 89.263579 L 22.000000 86.763579 L 16.000000 86.763579 L 16.000000 89.263579 L 22.000000 89.263579" stroke="gray" fill="white" stroke-width="1px"></path><path d="M 28.000000 89.263579 L 28.000000 86.763579 L 22.000000 86.763579 L 22.000000 89.263579 L 28.000000 89.263579" stroke="gray" fill="white" stroke-width="1px"></path><path d="M 34.000000 89.263579 L 34.000000 86.763579 L 28.000000 86.763579 L 28.000000 89.263579 L 34.000000 89.263579" stroke="gray" fill="white" stroke-width="1px"></path><path d="M 40.000000 89.263579 L 40.000000 86.763579 L 34.000000 86.763579 L 34.000000 89.263579 L 40.000000 89.263579" stroke="gray" fill="white" stroke-width="1px"></path><path d="M 22.000000 77.263579 L 22.000000 74.763579 L 16.000000 74.763579 L 16.000000 77.263579 L 22.000000 77.263579" stroke="gray" fill="white" stroke-width="1px"></path><path d="M 28.000000 77.263579 L 28.000000 74.763579 L 22.000000 74.763579 L 22.000000 77.263579 L 28.000000 77.263579" stroke="gray" fill="white" stroke-width="1px"></path><path d="M 34.000000 77.263579 L 34.000000 74.763579 L 28.000000 74.763579 L 28.000000 77.263579 L 34.000000 77.263579" stroke="gray" fill="white" stroke-width="1px"></path><path d="M 40.000000 77.263579 L 40.000000 74.763579 L 34.000000 74.763579 L 34.000000 77.263579 L 40.000000 77.263579" stroke="gray" fill="white" stroke-width="1px"></path><path d="M 22.000000 65.263579 L 22.000000 62.763579 L 16.000000 62.763579 L 16.000000 65.263579 L 22.000000 65.263579" stroke="gray" fill="white" stroke-width="1px"></path><path d="M 261.871222 101.263579 L 261.871222 103.763579 L 255.871222 103.763579 L 255.871222 101.263579 L 261.871222 101.263579" stroke="gray" fill="white" stroke-width="1px"></path><path d="M 267.871222 101.263579 L 267.871222 103.763579 L 261.871222 103.763579 L 261.871222 101.263579 L 267.871222 101.263579" stroke="gray" fill="white" stroke-width="1px"></path><path d="M 273.871222 101.263579 L 273.871222 103.763579 L 267.871222 103.763579 L 267.871222 101.263579 L 273.871222 101.263579" stroke="gray" fill="white" stroke-width="1px"></path><path d="M 258.083539 89.263579 L 258.083539 91.763579 L 252.083539 91.763579 L 252.083539 89.263579 L 258.083539 89.263579" stroke="gray" fill="white" stroke-width="1px"></path><path d="M 264.083539 89.263579 L 264.083539 91.763579 L 258.083539 91.763579 L 258.083539 89.263579 L 264.083539 89.263579" stroke="gray" fill="white" stroke-width="1px"></path><path d="M 270.083539 89.263579 L 270.083539 91.763579 L 264.083539 91.763579 L 264.083539 89.263579 L 270.083539 89.263579" stroke="gray" fill="white" stroke-width="1px"></path><path d="M 276.083539 89.263579 L 276.083539 91.763579 L 270.083539 91.763579 L 270.083539 89.263579 L 276.083539 89.263579" stroke="gray" fill="white" stroke-width="1px"></path><path d="M 254.295857 77.263579 L 254.295857 79.763579 L 248.295857 79.763579 L 248.295857 77.263579 L 254.295857 77.263579" stroke="gray" fill="white" stroke-width="1px"></path><path d="M 260.295857 77.263579 L 260.295857 79.763579 L 254.295857 79.763579 L 254.295857 77.263579 L 260.295857 77.263579" stroke="gray" fill="white" stroke-width="1px"></path><path d="M 266.295857 77.263579 L 266.295857 79.763579 L 260.295857 79.763579 L 260.295857 77.263579 L 266.295857 77.263579" stroke="gray" fill="white" stroke-width="1px"></path><path d="M 272.295857 77.263579 L 272.295857 79.763579 L 266.295857 79.763579 L 266.295857 77.263579 L 272.295857 77.263579" stroke="gray" fill="white" stroke-width="1px"></path><path d="M 278.295857 77.263579 L 278.295857 79.763579 L 272.295857 79.763579 L 272.295857 77.263579 L 278.295857 77.263579" stroke="gray" fill="white" stroke-width="1px"></path><path d="M 214.396383 101.263579 L 214.396383 103.763579 L 208.396383 103.763579 L 208.396383 101.263579 L 214.396383 101.263579" stroke="gray" fill="white" stroke-width="1px"></path><path d="M 220.396383 101.263579 L 220.396383 103.763579 L 214.396383 103.763579 L 214.396383 101.263579 L 220.396383 101.263579" stroke="gray" fill="white" stroke-width="1px"></path><path d="M 226.396383 101.263579 L 226.396383 103.763579 L 220.396383 103.763579 L 220.396383 101.263579 L 226.396383 101.263579" stroke="gray" fill="white" stroke-width="1px"></path><path d="M 232.396383 101.263579 L 232.396383 103.763579 L 226.396383 103.763579 L 226.396383 101.263579 L 232.396383 101.263579" stroke="gray" fill="white" stroke-width="1px"></path><path d="M 238.396383 101.263579 L 238.396383 103.763579 L 232.396383 103.763579 L 232.396383 101.263579 L 238.396383 101.263579" stroke="gray" fill="white" stroke-width="1px"></path><path d="M 244.396383 101.263579 L 244.396383 103.763579 L 238.396383 103.763579 L 238.396383 101.263579 L 244.396383 101.263579" stroke="gray" fill="white" stroke-width="1px"></path><path d="M 216.489131 89.263579 L 216.489131 91.763579 L 210.489131 91.763579 L 210.489131 89.263579 L 216.489131 89.263579" stroke="gray" fill="white" stroke-width="1px"></path><path d="M 222.489131 89.263579 L 222.489131 91.763579 L 216.489131 91.763579 L 216.489131 89.263579 L 222.489131 89.263579" stroke="gray" fill="white" stroke-width="1px"></path><path d="M 228.489131 89.263579 L 228.489131 91.763579 L 222.489131 91.763579 L 222.489131 89.263579 L 228.489131 89.263579" stroke="gray" fill="white" stroke-width="1px"></path><path d="M 234.489131 89.263579 L 234.489131 91.763579 L 228.489131 91.763579 L 228.489131 89.263579 L 234.489131 89.263579" stroke="gray" fill="white" stroke-width="1px"></path><path d="M 240.489131 89.263579 L 240.489131 91.763579 L 234.489131 91.763579 L 234.489131 89.263579 L 240.489131 89.263579" stroke="gray" fill="white" stroke-width="1px"></path><path d="M 22.000000 101.263579 L 22.000000 103.763579 L 16.000000 103.763579 L 16.000000 101.263579 L 22.000000 101.263579" stroke="gray" fill="white" stroke-width="1px"></path><path d="M 28.000000 101.263579 L 28.000000 103.763579 L 22.000000 103.763579 L 22.000000 101.263579 L 28.000000 101.263579" stroke="gray" fill="white" stroke-width="1px"></path><path d="M 34.000000 101.263579 L 34.000000 103.763579 L 28.000000 103.763579 L 28.000000 101.263579 L 34.000000 101.263579" stroke="gray" fill="white" stroke-width="1px"></path><path d="M 40.000000 101.263579 L 40.000000 103.763579 L 34.000000 103.763579 L 34.000000 101.263579 L 40.000000 101.263579" stroke="gray" fill="white" stroke-width="1px"></path><path d="M 22.000000 89.263579 L 22.000000 91.763579 L 16.000000 91.763579 L 16.000000 89.263579 L 22.000000 89.263579" stroke="gray" fill="white" stroke-width="1px"></path><path d="M 28.000000 89.263579 L 28.000000 91.763579 L 22.000000 91.763579 L 22.000000 89.263579 L 28.000000 89.263579" stroke="gray" fill="white" stroke-width="1px"></path><path d="M 34.000000 89.263579 L 34.000000 91.763579 L 28.000000 91.763579 L 28.000000 89.263579 L 34.000000 89.263579" stroke="gray" fill="white" stroke-width="1px"></path><path d="M 40.000000 89.263579 L 40.000000 91.763579 L 34.000000 91.763579 L 34.000000 89.263579 L 40.000000 89.263579" stroke="gray" fill="white" stroke-width="1px"></path><path d="M 22.000000 77.263579 L 22.000000 79.763579 L 16.000000 79.763579 L 16.000000 77.263579 L 22.000000 77.263579" stroke="gray" fill="white" stroke-width="1px"></path><path d="M 28.000000 77.263579 L 28.000000 79.763579 L 22.000000 79.763579 L 22.000000 77.263579 L 28.000000 77.263579" stroke="gray" fill="white" stroke-width="1px"></path><path d="M 34.000000 77.263579 L 34.000000 79.763579 L 28.000000 79.763579 L 28.000000 77.263579 L 34.000000 77.263579" stroke="gray" fill="white" stroke-width="1px"></path><path d="M 40.000000 77.263579 L 40.000000 79.763579 L 34.000000 79.763579 L 34.000000 77.263579 L 40.000000 77.263579" stroke="gray" fill="white" stroke-width="1px"></path><path d="M 22.000000 65.263579 L 22.000000 67.763579 L 16.000000 67.763579 L 16.000000 65.263579 L 22.000000 65.263579" stroke="gray" fill="white" stroke-width="1px"></path><path d="M 28.000000 65.263579 L 28.000000 67.763579 L 22.000000 67.763579 L 22.000000 65.263579 L 28.000000 65.263579" stroke="gray" fill="white" stroke-width="1px"></path><path d="M 34.000000 65.263579 L 34.000000 67.763579 L 28.000000 67.763579 L 28.000000 65.263579 L 34.000000 65.263579" stroke="gray" fill="white" stroke-width="1px"></path></g><g id="crv-base"><path d="M 221.371570 123.090312 L 221.371570 169.241094 L 120.000633 169.241094 L 120.000633 156.444206 L 126.051258 156.444206 L 126.051258 128.832500 L 123.590320 128.832500 L 123.590320 125.551250 L 126.051258 125.551250 L 126.051258 123.858132 L 91.315945 123.858125 L 91.315945 134.738750 L 64.258762 134.738750 L 64.258762 123.687497 L 10.000000 123.687497 L 10.000000 226.180625 L 64.258758 226.180625 L 64.258758 192.357500 L 91.315945 192.357500 L 91.315945 220.123437 L 283.459383 220.123437 L 283.459383 123.090312 L 221.371570 123.090312" stroke="black" fill="none" stroke-width="1px"></path><path d="M 221.371570 10.000000 L 221.371570 56.150781 L 120.000633 56.150781 L 120.000633 43.353893 L 126.051258 43.353893 L 126.051258 15.742187 L 123.590320 15.742187 L 123.590320 12.460937 L 126.051258 12.460937 L 126.051258 10.767819 L 91.315945 10.767812 L 91.315945 21.648438 L 64.258762 21.648438 L 64.258762 10.597185 L 10.000000 10.597185 L 10.000000 113.090312 L 64.258758 113.090312 L 64.258758 79.267187 L 91.315945 79.267187 L 91.315945 107.033125 L 283.459383 107.033125 L 283.459383 10.000000 L 221.371570 10.000000" stroke="black" fill="none" stroke-width="1px"></path><path d="M 10.387195 156.559062 L 10.387195 154.590312 L 12.355945 154.590312 L 12.355945 156.559062 L 10.387195 156.559062" stroke="black" fill="white" stroke-width="1px"></path><path d="M 10.387195 43.468750 L 10.387195 41.500000 L 12.355945 41.500000 L 12.355945 43.468750 L 10.387195 43.468750" stroke="black" fill="white" stroke-width="1px"></path><path d="M 10.387195 188.059062 L 10.387195 186.090312 L 12.355945 186.090312 L 12.355945 188.059062 L 10.387195 188.059062" stroke="black" fill="white" stroke-width="1px"></path><path d="M 10.387195 74.968750 L 10.387195 73.000000 L 12.355945 73.000000 L 12.355945 74.968750 L 10.387195 74.968750" stroke="black" fill="white" stroke-width="1px"></path><path d="M 10.387195 219.559062 L 10.387195 217.590312 L 12.355945 217.590312 L 12.355945 219.559062 L 10.387195 219.559062" stroke="black" fill="white" stroke-width="1px"></path><path d="M 10.387195 106.468750 L 10.387195 104.500000 L 12.355945 104.500000 L 12.355945 106.468750 L 10.387195 106.468750" stroke="black" fill="white" stroke-width="1px"></path><path d="M 60.754383 128.340312 L 60.754383 125.387187 L 63.871570 125.387187 L 63.871570 128.340312 L 60.754383 128.340312" stroke="black" fill="white" stroke-width="1px"></path><path d="M 60.754383 15.250000 L 60.754383 12.296875 L 63.871570 12.296875 L 63.871570 15.250000 L 60.754383 15.250000" stroke="black" fill="white" stroke-width="1px"></path><path d="M 280.598133 219.230937 L 280.598133 217.262187 L 282.566883 217.262187 L 282.566883 219.230937 L 280.598133 219.230937" stroke="black" fill="white" stroke-width="1px"></path><path d="M 280.598133 106.140625 L 280.598133 104.171875 L 282.566883 104.171875 L 282.566883 106.140625 L 280.598133 106.140625" stroke="black" fill="white" stroke-width="1px"></path><path d="M 280.598133 188.059062 L 280.598133 186.090312 L 282.566883 186.090312 L 282.566883 188.059062 L 280.598133 188.059062" stroke="black" fill="white" stroke-width="1px"></path><path d="M 280.598133 74.968750 L 280.598133 73.000000 L 282.566883 73.000000 L 282.566883 74.968750 L 280.598133 74.968750" stroke="black" fill="white" stroke-width="1px"></path><path d="M 280.598133 156.559050 L 280.598133 154.590300 L 282.566883 154.590300 L 282.566883 156.559050 L 280.598133 156.559050" stroke="black" fill="white" stroke-width="1px"></path><path d="M 280.598133 43.468737 L 280.598133 41.499987 L 282.566883 41.499987 L 282.566883 43.468737 L 280.598133 43.468737" stroke="black" fill="white" stroke-width="1px"></path><path d="M 248.605945 127.355937 L 248.605945 123.418437 L 251.887195 123.418437 L 251.887195 127.355937 L 248.605945 127.355937" stroke="black" fill="white" stroke-width="1px"></path><path d="M 248.605945 14.265625 L 248.605945 10.328125 L 251.887195 10.328125 L 251.887195 14.265625 L 248.605945 14.265625" stroke="black" fill="white" stroke-width="1px"></path><path d="M 248.605945 157.871562 L 248.605945 153.934062 L 251.887195 153.934062 L 251.887195 157.871562 L 248.605945 157.871562" stroke="black" fill="white" stroke-width="1px"></path><path d="M 248.605945 44.781250 L 248.605945 40.843750 L 251.887195 40.843750 L 251.887195 44.781250 L 248.605945 44.781250" stroke="black" fill="white" stroke-width="1px"></path><path d="M 248.605945 189.043437 L 248.605945 185.105937 L 251.887195 185.105937 L 251.887195 189.043437 L 248.605945 189.043437" stroke="black" fill="white" stroke-width="1px"></path><path d="M 248.605945 75.953125 L 248.605945 72.015625 L 251.887195 72.015625 L 251.887195 75.953125 L 248.605945 75.953125" stroke="black" fill="white" stroke-width="1px"></path><path d="M 248.934070 219.230937 L 248.934070 216.277812 L 251.887195 216.277812 L 251.887195 219.230937 L 248.934070 219.230937" stroke="black" fill="white" stroke-width="1px"></path><path d="M 248.934070 106.140625 L 248.934070 103.187500 L 251.887195 103.187500 L 251.887195 106.140625 L 248.934070 106.140625" stroke="black" fill="white" stroke-width="1px"></path><path d="M 218.090320 189.043437 L 218.090320 185.105937 L 221.371570 185.105937 L 221.371570 189.043437 L 218.090320 189.043437" stroke="black" fill="white" stroke-width="1px"></path><path d="M 218.090320 75.953125 L 218.090320 72.015625 L 221.371570 72.015625 L 221.371570 75.953125 L 218.090320 75.953125" stroke="black" fill="white" stroke-width="1px"></path><path d="M 218.254383 219.230937 L 218.254383 216.277812 L 221.207508 216.277812 L 221.207508 219.230937 L 218.254383 219.230937" stroke="black" fill="white" stroke-width="1px"></path><path d="M 218.254383 106.140625 L 218.254383 103.187500 L 221.207508 103.187500 L 221.207508 106.140625 L 218.254383 106.140625" stroke="black" fill="white" stroke-width="1px"></path><path d="M 186.590320 189.043437 L 186.590320 185.105937 L 189.871570 185.105937 L 189.871570 189.043437 L 186.590320 189.043437" stroke="black" fill="white" stroke-width="1px"></path><path d="M 186.590320 75.953125 L 186.590320 72.015625 L 189.871570 72.015625 L 189.871570 75.953125 L 186.590320 75.953125" stroke="black" fill="white" stroke-width="1px"></path><path d="M 186.754383 219.230937 L 186.754383 216.277812 L 189.707508 216.277812 L 189.707508 219.230937 L 186.754383 219.230937" stroke="black" fill="white" stroke-width="1px"></path><path d="M 186.754383 106.140625 L 186.754383 103.187500 L 189.707508 103.187500 L 189.707508 106.140625 L 186.754383 106.140625" stroke="black" fill="white" stroke-width="1px"></path><path d="M 155.090320 189.043437 L 155.090320 185.105937 L 158.371570 185.105937 L 158.371570 189.043437 L 155.090320 189.043437" stroke="black" fill="white" stroke-width="1px"></path><path d="M 155.090320 75.953125 L 155.090320 72.015625 L 158.371570 72.015625 L 158.371570 75.953125 L 155.090320 75.953125" stroke="black" fill="white" stroke-width="1px"></path><path d="M 155.254383 219.230937 L 155.254383 216.277812 L 158.207508 216.277812 L 158.207508 219.230937 L 155.254383 219.230937" stroke="black" fill="white" stroke-width="1px"></path><path d="M 155.254383 106.140625 L 155.254383 103.187500 L 158.207508 103.187500 L 158.207508 106.140625 L 155.254383 106.140625" stroke="black" fill="white" stroke-width="1px"></path><path d="M 123.590320 189.043437 L 123.590320 185.105937 L 126.871570 185.105937 L 126.871570 189.043437 L 123.590320 189.043437" stroke="black" fill="white" stroke-width="1px"></path><path d="M 123.590320 75.953125 L 123.590320 72.015625 L 126.871570 72.015625 L 126.871570 75.953125 L 123.590320 75.953125" stroke="black" fill="white" stroke-width="1px"></path><path d="M 123.754383 219.230937 L 123.754383 216.277812 L 126.707508 216.277812 L 126.707508 219.230937 L 123.754383 219.230937" stroke="black" fill="white" stroke-width="1px"></path><path d="M 123.754383 106.140625 L 123.754383 103.187500 L 126.707508 103.187500 L 126.707508 106.140625 L 123.754383 106.140625" stroke="black" fill="white" stroke-width="1px"></path><path d="M 92.090320 157.543437 L 92.090320 153.605937 L 95.371570 153.605937 L 95.371570 157.543437 L 92.090320 157.543437" stroke="black" fill="white" stroke-width="1px"></path><path d="M 92.090320 44.453125 L 92.090320 40.515625 L 95.371570 40.515625 L 95.371570 44.453125 L 92.090320 44.453125" stroke="black" fill="white" stroke-width="1px"></path><path d="M 92.090320 189.043437 L 92.090320 185.105937 L 95.371570 185.105937 L 95.371570 189.043437 L 92.090320 189.043437" stroke="black" fill="white" stroke-width="1px"></path><path d="M 92.090320 75.953125 L 92.090320 72.015625 L 95.371570 72.015625 L 95.371570 75.953125 L 92.090320 75.953125" stroke="black" fill="white" stroke-width="1px"></path><path d="M 92.090320 128.504375 L 92.090320 125.551250 L 95.207508 125.551250 L 95.207508 128.504375 L 92.090320 128.504375" stroke="black" fill="white" stroke-width="1px"></path><path d="M 92.090320 15.414062 L 92.090320 12.460937 L 95.207508 12.460937 L 95.207508 15.414062 L 92.090320 15.414062" stroke="black" fill="white" stroke-width="1px"></path><path d="M 60.590320 157.215312 L 60.590320 153.934062 L 63.871570 153.934062 L 63.871570 157.215312 L 60.590320 157.215312" stroke="black" fill="white" stroke-width="1px"></path><path d="M 60.590320 44.125000 L 60.590320 40.843750 L 63.871570 40.843750 L 63.871570 44.125000 L 60.590320 44.125000" stroke="black" fill="white" stroke-width="1px"></path><path d="M 60.754383 219.230937 L 60.754383 216.277812 L 63.871570 216.277812 L 63.871570 219.230937 L 60.754383 219.230937" stroke="black" fill="white" stroke-width="1px"></path><path d="M 60.754383 106.140625 L 60.754383 103.187500 L 63.871570 103.187500 L 63.871570 106.140625 L 60.754383 106.140625" stroke="black" fill="white" stroke-width="1px"></path><path d="M 30.074695 128.504375 L 30.074695 125.223125 L 33.027820 125.223125 L 33.027820 128.504375 L 30.074695 128.504375" stroke="black" fill="white" stroke-width="1px"></path><path d="M 30.074695 15.414062 L 30.074695 12.132812 L 33.027820 12.132812 L 33.027820 15.414062 L 30.074695 15.414062" stroke="black" fill="white" stroke-width="1px"></path><path d="M 30.074695 157.215312 L 30.074695 153.934062 L 33.355945 153.934062 L 33.355945 157.215312 L 30.074695 157.215312" stroke="black" fill="white" stroke-width="1px"></path><path d="M 30.074695 44.125000 L 30.074695 40.843750 L 33.355945 40.843750 L 33.355945 44.125000 L 30.074695 44.125000" stroke="black" fill="white" stroke-width="1px"></path><path d="M 30.074695 188.715312 L 30.074695 185.434062 L 33.355945 185.434062 L 33.355945 188.715312 L 30.074695 188.715312" stroke="black" fill="white" stroke-width="1px"></path><path d="M 30.074695 75.625000 L 30.074695 72.343750 L 33.355945 72.343750 L 33.355945 75.625000 L 30.074695 75.625000" stroke="black" fill="white" stroke-width="1px"></path><path d="M 30.074695 219.230937 L 30.074695 216.277812 L 33.027820 216.277812 L 33.027820 219.230937 L 30.074695 219.230937" stroke="black" fill="white" stroke-width="1px"></path><path d="M 30.074695 106.140625 L 30.074695 103.187500 L 33.027820 103.187500 L 33.027820 106.140625 L 30.074695 106.140625" stroke="black" fill="white" stroke-width="1px"></path><path d="M 10.387195 127.191875 L 10.387195 125.223125 L 12.355945 125.223125 L 12.355945 127.191875 L 10.387195 127.191875" stroke="black" fill="white" stroke-width="1px"></path><path d="M 10.387195 14.101562 L 10.387195 12.132812 L 12.355945 12.132812 L 12.355945 14.101562 L 10.387195 14.101562" stroke="black" fill="white" stroke-width="1px"></path><path d="M 60.590320 189.863750 L 60.590320 185.434062 L 63.871570 185.434062 L 63.871570 188.715312 L 62.230945 188.715312 L 62.230945 189.863750 L 60.590320 189.863750" stroke="black" fill="white" stroke-width="1px"></path><path d="M 60.590320 76.773437 L 60.590320 72.343750 L 63.871570 72.343750 L 63.871570 75.625000 L 62.230945 75.625000 L 62.230945 76.773437 L 60.590320 76.773437" stroke="black" fill="white" stroke-width="1px"></path></g></svg>