<svg width="293.459383" height="236.180625" xmlns="http://www.w3.org/2000/svg" xmlns:xlink="http://www.w3.org/1999/xlink" version="1.1"><g id="crv-background"><path d="M 221.371570 123.090312 L 221.371570 169.241094 L 120.000633 169.241094 L 120.000633 156.444206 L 126.051258 156.444206 L 126.051258 128.832500 L 123.590320 128.832500 L 123.590320 125.551250 L 126.051258 125.551250 L 126.051258 123.858132 L 91.315945 123.858125 L 91.315945 134.738750 L 64.258762 134.738750 L 64.258762 123.687497 L 10.000000 123.687497 L 10.000000 226.180625 L 64.258758 226.180625 L 64.258758 192.357500 L 91.315945 192.357500 L 91.315945 220.123437 L 283.459383 220.123437 L 283.459383 123.090312 L 221.371570 123.090312" stroke="none" fill="white" stroke-width="1px"></path><path d="M 221.371570 10.000000 L 221.371570 56.150781 L 120.000633 56.150781 L 120.000633 43.353893 L 126.051258 43.353893 L 126.051258 15.742187 L 123.590320 15.742187 L 123.590320 12.460937 L 126.051258 12.460937 L 126.051258 10.767819 L 91.315945 10.767812 L 91.315945 21.648438 L 64.258762 21.648438 L 64.258762 10.597185 L 10.000000 10.597185 L 10.000000 113.090312 L 64.258758 113.090312 L 64.258758 79.267187 L 91.315945 79.267187 L 91.315945 107.033125 L 283.459383 107.033125 L 283.459383 10.000000 L 221.371570 10.000000" stroke="none" fill="white" stroke-width="1px"></path></g><g id="crv-nbhd"><path d="M 221.737654 10.000004 L 221.737654 27.187603 L 221.737654 44.375203 L 225.632627 46.738841 L 229.527600 49.102478 L 256.493492 52.565535 L 283.459383 56.028591 L 283.459383 33.014296 L 283.459382 10.000000 L 252.598555 10.000002 L 221.737654 10.000004" stroke="#DD2222" fill="none" stroke-width="1px"></path><path d="M 283.459383 107.033125 L 283.459383 81.530858 L 283.459383 56.028591 L 256.493492 52.565535 L 229.527600 49.102478 L 241.674656 78.067802 L 253.821712 107.033125 L 268.640547 107.033125 L 283.459383 107.033125" stroke="#DD2222" fill="none" stroke-width="1px"></path><path d="M 221.737654 44.375203 L 221.737654 61.763266 L 221.737654 79.151330 L 214.703072 79.151330 L 207.668491 79.151330 L 205.905297 93.092227 L 204.142102 107.033125 L 228.981907 107.033125 L 253.821712 107.033125 L 241.674656 78.067802 L 229.527600 49.102478 L 225.632627 46.738841 L 221.737654 44.375203" stroke="#DD2222" fill="none" stroke-width="1px"></path><path d="M 207.668491 79.151330 L 191.348871 79.151330 L 175.029252 79.151329 L 176.482176 93.092227 L 177.935100 107.033125 L 191.038601 107.033125 L 204.142102 107.033125 L 205.905297 93.092227 L 207.668491 79.151330" stroke="#DD2222" fill="none" stroke-width="1px"></path><path d="M 175.029252 79.151329 L 156.461697 79.151329 L 137.894143 79.151328 L 138.965013 93.092227 L 140.035883 107.033125 L 158.985492 107.033125 L 177.935100 107.033125 L 176.482176 93.092227 L 175.029252 79.151329" stroke="#DD2222" fill="none" stroke-width="1px"></path><path d="M 137.894143 79.151328 L 114.605044 79.151328 L 91.315945 79.151327 L 91.315945 93.092226 L 91.315945 107.033125 L 115.675914 107.033125 L 140.035883 107.033125 L 138.965013 93.092230 L 137.894143 79.151328" stroke="#DD2222" fill="none" stroke-width="1px"></path><path d="M 64.258758 113.090312 L 64.258758 85.263282 L 64.258758 57.436252 L 37.129379 57.646156 L 10.000000 57.856060 L 10.000000 85.473186 L 10.000000 113.090312 L 37.129275 113.090312 L 64.258758 113.090312" stroke="#DD2222" fill="none" stroke-width="1px"></path><path d="M 10.000000 10.597184 L 10.000000 34.226622 L 10.000000 57.856060 L 37.129379 57.646156 L 64.258758 57.436252 L 64.258758 56.793516 L 64.258758 56.150781 L 64.258758 33.373983 L 64.258758 10.597185 L 37.129372 10.597185 L 10.000000 10.597184" stroke="#DD2222" fill="none" stroke-width="1px"></path><path d="M 10.000000 123.687497 L 10.000000 150.961764 L 10.000000 178.236032 L 37.129379 174.432088 L 64.258758 170.628145 L 64.258758 169.934619 L 64.258758 169.241094 L 64.258758 146.464296 L 64.258758 123.687497 L 37.129385 123.687497 L 10.000000 123.687497" stroke="#DD2222" fill="none" stroke-width="1px"></path><path d="M 10.000000 178.236032 L 10.000000 202.208329 L 10.000000 226.180625 L 37.129379 226.180625 L 64.258758 226.180625 L 64.258758 198.404385 L 64.258758 170.628145 L 37.129385 174.432088 L 10.000000 178.236032" stroke="#DD2222" fill="none" stroke-width="1px"></path><path d="M 133.044967 192.043444 L 112.180456 192.043444 L 91.315945 192.043444 L 91.315945 206.083441 L 91.315945 220.123437 L 114.973141 220.123437 L 138.630337 220.123437 L 135.837665 206.083508 L 133.044967 192.043444" stroke="#DD2222" fill="none" stroke-width="1px"></path><path d="M 185.890673 192.043444 L 159.467820 192.043444 L 133.044967 192.043444 L 135.837652 206.083441 L 138.630337 220.123437 L 165.182302 220.123437 L 191.734268 220.123437 L 188.812471 206.083444 L 185.890673 192.043444" stroke="#DD2222" fill="none" stroke-width="1px"></path><path d="M 231.732394 192.043444 L 208.811533 192.043444 L 185.890673 192.043444 L 188.812470 206.083441 L 191.734268 220.123437 L 212.150960 220.123437 L 232.567651 220.123437 L 232.150022 206.083441 L 231.732394 192.043444" stroke="#DD2222" fill="none" stroke-width="1px"></path><path d="M 283.459383 220.123437 L 283.459383 193.217255 L 283.459383 166.311073 L 261.598517 167.810768 L 239.737652 169.310463 L 239.737652 180.676954 L 239.737652 192.043444 L 235.735023 192.043444 L 231.732394 192.043444 L 232.150022 206.083441 L 232.567651 220.123437 L 258.013511 220.123437 L 283.459383 220.123437" stroke="#DD2222" fill="none" stroke-width="1px"></path><path d="M 239.737652 123.090312 L 239.737652 146.200388 L 239.737652 169.310463 L 261.598517 167.810768 L 283.459383 166.311073 L 283.459383 144.700693 L 283.459383 123.090312 L 261.598517 123.090312 L 239.737652 123.090312" stroke="#DD2222" fill="none" stroke-width="1px"></path></g><g id="crv-amen"><path d="M 58.832882 138.663856 L 58.832882 132.007697 L 58.832882 125.351537 L 37.129379 125.351537 L 15.425876 125.351537 L 15.425876 132.007696 L 15.425876 138.663856 L 37.129379 138.663856 L 58.832882 138.663856" stroke="none" fill="#2288CC" stroke-width="1px"></path><path d="M 58.832882 186.511795 L 58.832882 179.790523 L 58.832882 173.069251 L 37.129379 176.112406 L 15.425876 179.155561 L 15.425876 185.876833 L 15.425876 192.598105 L 37.129379 189.554950 L 58.832882 186.511795" stroke="none" fill="#2288CC" stroke-width="1px"></path><path d="M 106.292304 194.851444 L 99.636145 194.851444 L 92.979985 194.851444 L 92.979985 206.083441 L 92.979985 217.315438 L 99.636145 217.315438 L 106.292304 217.315438 L 106.292304 206.083441 L 106.292304 194.851444" stroke="none" fill="#2288CC" stroke-width="1px"></path><path d="M 183.715274 207.020605 L 182.330092 200.364447 L 180.944909 193.708286 L 159.806627 193.708286 L 138.668345 193.708286 L 139.992317 200.364446 L 141.316288 207.020605 L 162.515781 207.020605 L 183.715274 207.020605" stroke="none" fill="#2288CC" stroke-width="1px"></path><path d="M 217.501142 217.315438 L 224.160246 217.315438 L 230.819349 217.315438 L 230.485247 206.083441 L 230.151144 194.851444 L 223.492040 194.851444 L 216.832937 194.851444 L 217.167039 206.083441 L 217.501142 217.315438" stroke="none" fill="#2288CC" stroke-width="1px"></path><path d="M 279.087210 181.622571 L 279.087210 174.950767 L 279.087210 168.278963 L 261.598517 169.478719 L 244.109825 170.678475 L 244.109825 177.350279 L 244.109825 184.022083 L 261.598517 182.822327 L 279.087210 181.622571" stroke="none" fill="#2288CC" stroke-width="1px"></path><path d="M 279.087210 138.066671 L 279.087210 131.410512 L 279.087210 124.754352 L 261.598517 124.754352 L 244.109825 124.754352 L 244.109825 131.410512 L 244.109825 138.066671 L 261.598517 138.066671 L 279.087210 138.066671" stroke="none" fill="#2288CC" stroke-width="1px"></path><path d="M 229.099488 44.832970 L 231.744092 46.437830 L 234.388696 48.042690 L 255.961409 50.813135 L 277.534122 53.583580 L 277.534122 46.872756 L 277.534122 40.161932 L 254.004801 37.140213 L 230.475480 34.118493 L 229.787484 39.475732 L 229.099488 44.832970" stroke="none" fill="#2288CC" stroke-width="1px"></path><path d="M 249.056685 56.976512 L 241.428068 55.996818 L 233.799450 55.017123 L 243.517095 78.189382 L 253.234739 101.361641 L 260.452507 101.361641 L 267.670275 101.361641 L 258.363480 79.169076 L 249.056685 56.976512" stroke="none" fill="#2288CC" stroke-width="1px"></path><path d="M 236.471385 69.686831 L 232.931204 61.245075 L 229.391023 52.803318 L 226.275044 50.912408 L 223.159066 49.021498 L 223.159066 64.740308 L 223.159066 80.459117 L 229.815225 80.459117 L 236.471385 80.459117 L 236.471385 75.072974 L 236.471385 69.686831" stroke="none" fill="#2288CC" stroke-width="1px"></path><path d="M 189.399074 104.244945 L 196.108259 104.244945 L 202.817445 104.244945 L 204.228000 93.092227 L 205.638556 81.939509 L 198.929371 81.939509 L 192.220185 81.939509 L 190.809630 93.092227 L 189.399074 104.244945" stroke="none" fill="#2288CC" stroke-width="1px"></path><path d="M 162.587041 104.244945 L 169.279252 104.244945 L 175.971463 104.244945 L 174.809123 93.092227 L 173.646784 81.939509 L 166.954573 81.939509 L 160.262362 81.939509 L 161.424701 93.092227 L 162.587041 104.244945" stroke="none" fill="#2288CC" stroke-width="1px"></path><path d="M 106.292304 81.939507 L 99.636145 81.939507 L 92.979985 81.939507 L 92.979985 93.092226 L 92.979985 104.244945 L 99.636145 104.244945 L 106.292304 104.244945 L 106.292304 93.092226 L 106.292304 81.939507" stroke="none" fill="#2288CC" stroke-width="1px"></path><path d="M 58.832882 72.455040 L 58.832882 65.798681 L 58.832882 59.142322 L 37.129379 59.310246 L 15.425876 59.478169 L 15.425876 66.134528 L 15.425876 72.790887 L 37.129379 72.622963 L 58.832882 72.455040" stroke="none" fill="#2288CC" stroke-width="1px"></path><path d="M 49.281637 52.861785 L 55.937797 52.810285 L 62.593957 52.758785 L 62.593957 34.023159 L 62.593957 15.287532 L 55.937797 15.287532 L 49.281638 15.287532 L 49.281638 34.074658 L 49.281637 52.861785" stroke="none" fill="#2288CC" stroke-width="1px"></path></g><g id="crv-desk"><path d="M 127.459383 214.123437 L 124.959383 214.123437 L 124.959383 220.123437 L 127.459383 220.123437 L 127.459383 214.123437" stroke="gray" fill="white" stroke-width="1px"></path><path d="M 127.459383 208.123437 L 124.959383 208.123437 L 124.959383 214.123437 L 127.459383 214.123437 L 127.459383 208.123437" stroke="gray" fill="white" stroke-width="1px"></path><path d="M 127.459383 202.123437 L 124.959383 202.123437 L 124.959383 208.123437 L 127.459383 208.123437 L 127.459383 202.123437" stroke="gray" fill="white" stroke-width="1px"></path><path d="M 127.459383 196.123437 L 124.959383 196.123437 L 124.959383 202.123437 L 127.459383 202.123437 L 127.459383 196.123437" stroke="gray" fill="white" stroke-width="1px"></path><path d="M 115.459383 214.123437 L 112.959383 214.123437 L 112.959383 220.123437 L 115.459383 220.123437 L 115.459383 214.123437" stroke="gray" fill="white" stroke-width="1px"></path><path d="M 115.459383 208.123437 L 112.959383 208.123437 L 112.959383 214.123437 L 115.459383 214.123437 L 115.459383 208.123437" stroke="gray" fill="white" stroke-width="1px"></path><path d="M 115.459383 202.123437 L 112.959383 202.123437 L 112.959383 208.123437 L 115.459383 208.123437 L 115.459383 202.123437" stroke="gray" fill="white" stroke-width="1px"></path><path d="M 115.459383 196.123437 L 112.959383 196.123437 L 112.959383 202.123437 L 115.459383 202.123437 L 115.459383 196.123437" stroke="gray" fill="white" stroke-width="1px"></path><path d="M 187.459383 214.123437 L 184.959383 214.123437 L 184.959383 220.123437 L 187.459383 220.123437 L 187.459383 214.123437" stroke="gray" fill="white" stroke-width="1px"></path><path d="M 175.459383 214.123437 L 172.959383 214.123437 L 172.959383 220.123437 L 175.459383 220.123437 L 175.459383 214.123437" stroke="gray" fill="white" stroke-width="1px"></path><path d="M 163.459383 214.123437 L 160.959383 214.123437 L 160.959383 220.123437 L 163.459383 220.123437 L 163.459383 214.123437" stroke="gray" fill="white" stroke-width="1px"></path><path d="M 151.459383 214.123437 L 148.959383 214.123437 L 148.959383 220.123437 L 151.459383 220.123437 L 151.459383 214.123437" stroke="gray" fill="white" stroke-width="1px"></path><path d="M 199.459383 214.123437 L 196.959383 214.123437 L 196.959383 220.123437 L 199.459383 220.123437 L 199.459383 214.123437" stroke="gray" fill="white" stroke-width="1px"></path><path d="M 199.459383 208.123437 L 196.959383 208.123437 L 196.959383 214.123437 L 199.459383 214.123437 L 199.459383 208.123437" stroke="gray" fill="white" stroke-width="1px"></path><path d="M 199.459383 202.123437 L 196.959383 202.123437 L 196.959383 208.123437 L 199.459383 208.123437 L 199.459383 202.123437" stroke="gray" fill="white" stroke-width="1px"></path><path d="M 199.459383 196.123437 L 196.959383 196.123437 L 196.959383 202.123437 L 199.459383 202.123437 L 199.459383 196.123437" stroke="gray" fill="white" stroke-width="1px"></path><path d="M 127.459383 214.123437 L 129.959383 214.123437 L 129.959383 220.123437 L 127.459383 220.123437 L 127.459383 214.123437" stroke="gray" fill="white" stroke-width="1px"></path><path d="M 127.459383 208.123437 L 129.959383 208.123437 L 129.959383 214.123437 L 127.459383 214.123437 L 127.459383 208.123437" stroke="gray" fill="white" stroke-width="1px"></path><path d="M 127.459383 202.123437 L 129.959383 202.123437 L 129.959383 208.123437 L 127.459383 208.123437 L 127.459383 202.123437" stroke="gray" fill="white" stroke-width="1px"></path><path d="M 127.459383 196.123437 L 129.959383 196.123437 L 129.959383 202.123437 L 127.459383 202.123437 L 127.459383 196.123437" stroke="gray" fill="white" stroke-width="1px"></path><path d="M 115.459383 214.123437 L 117.959383 214.123437 L 117.959383 220.123437 L 115.459383 220.123437 L 115.459383 214.123437" stroke="gray" fill="white" stroke-width="1px"></path><path d="M 115.459383 208.123437 L 117.959383 208.123437 L 117.959383 214.123437 L 115.459383 214.123437 L 115.459383 208.123437" stroke="gray" fill="white" stroke-width="1px"></path><path d="M 115.459383 202.123437 L 117.959383 202.123437 L 117.959383 208.123437 L 115.459383 208.123437 L 115.459383 202.123437" stroke="gray" fill="white" stroke-width="1px"></path><path d="M 115.459383 196.123437 L 117.959383 196.123437 L 117.959383 202.123437 L 115.459383 202.123437 L 115.459383 196.123437" stroke="gray" fill="white" stroke-width="1px"></path><path d="M 187.459383 214.123437 L 189.959383 214.123437 L 189.959383 220.123437 L 187.459383 220.123437 L 187.459383 214.123437" stroke="gray" fill="white" stroke-width="1px"></path><path d="M 175.459383 214.123437 L 177.959383 214.123437 L 177.959383 220.123437 L 175.459383 220.123437 L 175.459383 214.123437" stroke="gray" fill="white" stroke-width="1px"></path><path d="M 163.459383 214.123437 L 165.959383 214.123437 L 165.959383 220.123437 L 163.459383 220.123437 L 163.459383 214.123437" stroke="gray" fill="white" stroke-width="1px"></path><path d="M 151.459383 214.123437 L 153.959383 214.123437 L 153.959383 220.123437 L 151.459383 220.123437 L 151.459383 214.123437" stroke="gray" fill="white" stroke-width="1px"></path><path d="M 199.459383 214.123437 L 201.959383 214.123437 L 201.959383 220.123437 L 199.459383 220.123437 L 199.459383 214.123437" stroke="gray" fill="white" stroke-width="1px"></path><path d="M 199.459383 208.123437 L 201.959383 208.123437 L 201.959383 214.123437 L 199.459383 214.123437 L 199.459383 208.123437" stroke="gray" fill="white" stroke-width="1px"></path><path d="M 199.459383 202.123437 L 201.959383 202.123437 L 201.959383 208.123437 L 199.459383 208.123437 L 199.459383 202.123437" stroke="gray" fill="white" stroke-width="1px"></path><path d="M 199.459383 196.123437 L 201.959383 196.123437 L 201.959383 202.123437 L 199.459383 202.123437 L 199.459383 196.123437" stroke="gray" fill="white" stroke-width="1px"></path><path d="M 22.000000 172.123437 L 22.000000 169.623437 L 16.000000 169.623437 L 16.000000 172.123437 L 22.000000 172.123437" stroke="gray" fill="white" stroke-width="1px"></path><path d="M 22.000000 160.123437 L 22.000000 157.623437 L 16.000000 157.623437 L 16.000000 160.123437 L 22.000000 160.123437" stroke="gray" fill="white" stroke-width="1px"></path><path d="M 28.000000 160.123437 L 28.000000 157.623437 L 22.000000 157.623437 L 22.000000 160.123437 L 28.000000 160.123437" stroke="gray" fill="white" stroke-width="1px"></path><path d="M 34.000000 160.123437 L 34.000000 157.623437 L 28.000000 157.623437 L 28.000000 160.123437 L 34.000000 160.123437" stroke="gray" fill="white" stroke-width="1px"></path><path d="M 40.000000 160.123437 L 40.000000 157.623437 L 34.000000 157.623437 L 34.000000 160.123437 L 40.000000 160.123437" stroke="gray" fill="white" stroke-width="1px"></path><path d="M 46.000000 160.123437 L 46.000000 157.623437 L 40.000000 157.623437 L 40.000000 160.123437 L 46.000000 160.123437" stroke="gray" fill="white" stroke-width="1px"></path><path d="M 52.000000 160.123437 L 52.000000 157.623437 L 46.000000 157.623437 L 46.000000 160.123437 L 52.000000 160.123437" stroke="gray" fill="white" stroke-width="1px"></path><path d="M 58.000000 160.123437 L 58.000000 157.623437 L 52.000000 157.623437 L 52.000000 160.123437 L 58.000000 160.123437" stroke="gray" fill="white" stroke-width="1px"></path><path d="M 22.000000 148.123437 L 22.000000 145.623437 L 16.000000 145.623437 L 16.000000 148.123437 L 22.000000 148.123437" stroke="gray" fill="white" stroke-width="1px"></path><path d="M 28.000000 148.123437 L 28.000000 145.623437 L 22.000000 145.623437 L 22.000000 148.123437 L 28.000000 148.123437" stroke="gray" fill="white" stroke-width="1px"></path><path d="M 34.000000 148.123437 L 34.000000 145.623437 L 28.000000 145.623437 L 28.000000 148.123437 L 34.000000 148.123437" stroke="gray" fill="white" stroke-width="1px"></path><path d="M 40.000000 148.123437 L 40.000000 145.623437 L 34.000000 145.623437 L 34.000000 148.123437 L 40.000000 148.123437" stroke="gray" fill="white" stroke-width="1px"></path><path d="M 46.000000 148.123437 L 46.000000 145.623437 L 40.000000 145.623437 L 40.000000 148.123437 L 46.000000 148.123437" stroke="gray" fill="white" stroke-width="1px"></path><path d="M 52.000000 148.123437 L 52.000000 145.623437 L 46.000000 145.623437 L 46.000000 148.123437 L 52.000000 148.123437" stroke="gray" fill="white" stroke-width="1px"></path><path d="M 58.000000 148.123437 L 58.000000 145.623437 L 52.000000 145.623437 L 52.000000 148.123437 L 58.000000 148.123437" stroke="gray" fill="white" stroke-width="1px"></path><path d="M 22.000000 220.123437 L 22.000000 217.623437 L 16.000000 217.623437 L 16.000000 220.123437 L 22.000000 220.123437" stroke="gray" fill="white" stroke-width="1px"></path><path d="M 28.000000 220.123437 L 28.000000 217.623437 L 22.000000 217.623437 L 22.000000 220.123437 L 28.000000 220.123437" stroke="gray" fill="white" stroke-width="1px"></path><path d="M 34.000000 220.123437 L 34.000000 217.623437 L 28.000000 217.623437 L 28.000000 220.123437 L 34.000000 220.123437" stroke="gray" fill="white" stroke-width="1px"></path><path d="M 40.000000 220.123437 L 40.000000 217.623437 L 34.000000 217.623437 L 34.000000 220.123437 L 40.000000 220.123437" stroke="gray" fill="white" stroke-width="1px"></path><path d="M 46.000000 220.123437 L 46.000000 217.623437 L 40.000000 217.623437 L 40.000000 220.123437 L 46.000000 220.123437" stroke="gray" fill="white" stroke-width="1px"></path><path d="M 52.000000 220.123437 L 52.000000 217.623437 L 46.000000 217.623437 L 46.000000 220.123437 L 52.000000 220.123437" stroke="gray" fill="white" stroke-width="1px"></path><path d="M 58.000000 220.123437 L 58.000000 217.623437 L 52.000000 217.623437 L 52.000000 220.123437 L 58.000000 220.123437" stroke="gray" fill="white" stroke-width="1px"></path><path d="M 22.000000 208.123437 L 22.000000 205.623437 L 16.000000 205.623437 L 16.000000 208.123437 L 22.000000 208.123437" stroke="gray" fill="white" stroke-width="1px"></path><path d="M 28.000000 208.123437 L 28.000000 205.623437 L 22.000000 205.623437 L 22.000000 208.123437 L 28.000000 208.123437" stroke="gray" fill="white" stroke-width="1px"></path><path d="M 34.000000 208.123437 L 34.000000 205.623437 L 28.000000 205.623437 L 28.000000 208.123437 L 34.000000 208.123437" stroke="gray" fill="white" stroke-width="1px"></path><path d="M 40.000000 208.123437 L 40.000000 205.623437 L 34.000000 205.623437 L 34.000000 208.123437 L 40.000000 208.123437" stroke="gray" fill="white" stroke-width="1px"></path><path d="M 46.000000 208.123437 L 46.000000 205.623437 L 40.000000 205.623437 L 40.000000 208.123437 L 46.000000 208.123437" stroke="gray" fill="white" stroke-width="1px"></path><path d="M 52.000000 208.123437 L 52.000000 205.623437 L 46.000000 205.623437 L 46.000000 208.123437 L 52.000000 208.123437" stroke="gray" fill="white" stroke-width="1px"></path><path d="M 58.000000 208.123437 L 58.000000 205.623437 L 52.000000 205.623437 L 52.000000 208.123437 L 58.000000 208.123437" stroke="gray" fill="white" stroke-width="1px"></path><path d="M 34.000000 196.123437 L 34.000000 193.623437 L 28.000000 193.623437 L 28.000000 196.123437 L 34.000000 196.123437" stroke="gray" fill="white" stroke-width="1px"></path><path d="M 40.000000 196.123437 L 40.000000 193.623437 L 34.000000 193.623437 L 34.000000 196.123437 L 40.000000 196.123437" stroke="gray" fill="white" stroke-width="1px"></path><path d="M 46.000000 196.123437 L 46.000000 193.623437 L 40.000000 193.623437 L 40.000000 196.123437 L 46.000000 196.123437" stroke="gray" fill="white" stroke-width="1px"></path><path d="M 52.000000 196.123437 L 52.000000 193.623437 L 46.000000 193.623437 L 46.000000 196.123437 L 52.000000 196.123437" stroke="gray" fill="white" stroke-width="1px"></path><path d="M 58.000000 196.123437 L 58.000000 193.623437 L 52.000000 193.623437 L 52.000000 196.123437 L 58.000000 196.123437" stroke="gray" fill="white" stroke-width="1px"></path><path d="M 244.210703 208.123437 L 244.210703 205.623437 L 238.210703 205.623437 L 238.210703 208.123437 L 244.210703 208.123437" stroke="gray" fill="white" stroke-width="1px"></path><path d="M 250.210703 208.123437 L 250.210703 205.623437 L 244.210703 205.623437 L 244.210703 208.123437 L 250.210703 208.123437" stroke="gray" fill="white" stroke-width="1px"></path><path d="M 256.210703 208.123437 L 256.210703 205.623437 L 250.210703 205.623437 L 250.210703 208.123437 L 256.210703 208.123437" stroke="gray" fill="white" stroke-width="1px"></path><path d="M 262.210703 208.123437 L 262.210703 205.623437 L 256.210703 205.623437 L 256.210703 208.123437 L 262.210703 208.123437" stroke="gray" fill="white" stroke-width="1px"></path><path d="M 268.210703 208.123437 L 268.210703 205.623437 L 262.210703 205.623437 L 262.210703 208.123437 L 268.210703 208.123437" stroke="gray" fill="white" stroke-width="1px"></path><path d="M 274.210703 208.123437 L 274.210703 205.623437 L 268.210703 205.623437 L 268.210703 208.123437 L 274.210703 208.123437" stroke="gray" fill="white" stroke-width="1px"></path><path d="M 249.853756 196.123437 L 249.853756 193.623437 L 243.853756 193.623437 L 243.853756 196.123437 L 249.853756 196.123437" stroke="gray" fill="white" stroke-width="1px"></path><path d="M 255.853756 196.123437 L 255.853756 193.623437 L 249.853756 193.623437 L 249.853756 196.123437 L 255.853756 196.123437" stroke="gray" fill="white" stroke-width="1px"></path><path d="M 261.853756 196.123437 L 261.853756 193.623437 L 255.853756 193.623437 L 255.853756 196.123437 L 261.853756 196.123437" stroke="gray" fill="white" stroke-width="1px"></path><path d="M 267.853756 196.123437 L 267.853756 193.623437 L 261.853756 193.623437 L 261.853756 196.123437 L 267.853756 196.123437" stroke="gray" fill="white" stroke-width="1px"></path><path d="M 273.853756 196.123437 L 273.853756 193.623437 L 267.853756 193.623437 L 267.853756 196.123437 L 273.853756 196.123437" stroke="gray" fill="white" stroke-width="1px"></path><path d="M 251.737652 160.123437 L 251.737652 157.623437 L 245.737652 157.623437 L 245.737652 160.123437 L 251.737652 160.123437" stroke="gray" fill="white" stroke-width="1px"></path><path d="M 257.737652 160.123437 L 257.737652 157.623437 L 251.737652 157.623437 L 251.737652 160.123437 L 257.737652 160.123437" stroke="gray" fill="white" stroke-width="1px"></path><path d="M 263.737652 160.123437 L 263.737652 157.623437 L 257.737652 157.623437 L 257.737652 160.123437 L 263.737652 160.123437" stroke="gray" fill="white" stroke-width="1px"></path><path d="M 269.737652 160.123437 L 269.737652 157.623437 L 263.737652 157.623437 L 263.737652 160.123437 L 269.737652 160.123437" stroke="gray" fill="white" stroke-width="1px"></path><path d="M 275.737652 160.123437 L 275.737652 157.623437 L 269.737652 157.623437 L 269.737652 160.123437 L 275.737652 160.123437" stroke="gray" fill="white" stroke-width="1px"></path><path d="M 251.737652 148.123437 L 251.737652 145.623437 L 245.737652 145.623437 L 245.737652 148.123437 L 251.737652 148.123437" stroke="gray" fill="white" stroke-width="1px"></path><path d="M 257.737652 148.123437 L 257.737652 145.623437 L 251.737652 145.623437 L 251.737652 148.123437 L 257.737652 148.123437" stroke="gray" fill="white" stroke-width="1px"></path><path d="M 263.737652 148.123437 L 263.737652 145.623437 L 257.737652 145.623437 L 257.737652 148.123437 L 263.737652 148.123437" stroke="gray" fill="white" stroke-width="1px"></path><path d="M 269.737652 148.123437 L 269.737652 145.623437 L 263.737652 145.623437 L 263.737652 148.123437 L 269.737652 148.123437" stroke="gray" fill="white" stroke-width="1px"></path><path d="M 275.737652 148.123437 L 275.737652 145.623437 L 269.737652 145.623437 L 269.737652 148.123437 L 275.737652 148.123437" stroke="gray" fill="white" stroke-width="1px"></path><path d="M 22.000000 160.123437 L 22.000000 162.623437 L 16.000000 162.623437 L 16.000000 160.123437 L 22.000000 160.123437" stroke="gray" fill="white" stroke-width="1px"></path><path d="M 28.000000 160.123437 L 28.000000 162.623437 L 22.000000 162.623437 L 22.000000 160.123437 L 28.000000 160.123437" stroke="gray" fill="white" stroke-width="1px"></path><path d="M 34.000000 160.123437 L 34.000000 162.623437 L 28.000000 162.623437 L 28.000000 160.123437 L 34.000000 160.123437" stroke="gray" fill="white" stroke-width="1px"></path><path d="M 40.000000 160.123437 L 40.000000 162.623437 L 34.000000 162.623437 L 34.000000 160.123437 L 40.000000 160.123437" stroke="gray" fill="white" stroke-width="1px"></path><path d="M 46.000000 160.123437 L 46.000000 162.623437 L 40.000000 162.623437 L 40.000000 160.123437 L 46.000000 160.123437" stroke="gray" fill="white" stroke-width="1px"></path><path d="M 52.000000 160.123437 L 52.000000 162.623437 L 46.000000 162.623437 L 46.000000 160.123437 L 52.000000 160.123437" stroke="gray" fill="white" stroke-width="1px"></path><path d="M 58.000000 160.123437 L 58.000000 162.623437 L 52.000000 162.623437 L 52.000000 160.123437 L 58.000000 160.123437" stroke="gray" fill="white" stroke-width="1px"></path><path d="M 22.000000 148.123437 L 22.000000 150.623437 L 16.000000 150.623437 L 16.000000 148.123437 L 22.000000 148.123437" stroke="gray" fill="white" stroke-width="1px"></path><path d="M 28.000000 148.123437 L 28.000000 150.623437 L 22.000000 150.623437 L 22.000000 148.123437 L 28.000000 148.123437" stroke="gray" fill="white" stroke-width="1px"></path><path d="M 34.000000 148.123437 L 34.000000 150.623437 L 28.000000 150.623437 L 28.000000 148.123437 L 34.000000 148.123437" stroke="gray" fill="white" stroke-width="1px"></path><path d="M 40.000000 148.123437 L 40.000000 150.623437 L 34.000000 150.623437 L 34.000000 148.123437 L 40.000000 148.123437" stroke="gray" fill="white" stroke-width="1px"></path><path d="M 46.000000 148.123437 L 46.000000 150.623437 L 40.000000 150.623437 L 40.000000 148.123437 L 46.000000 148.123437" stroke="gray" fill="white" stroke-width="1px"></path><path d="M 52.000000 148.123437 L 52.000000 150.623437 L 46.000000 150.623437 L 46.000000 148.123437 L 52.000000 148.123437" stroke="gray" fill="white" stroke-width="1px"></path><path d="M 58.000000 148.123437 L 58.000000 150.623437 L 52.000000 150.623437 L 52.000000 148.123437 L 58.000000 148.123437" stroke="gray" fill="white" stroke-width="1px"></path><path d="M 22.000000 220.123437 L 22.000000 222.623437 L 16.000000 222.623437 L 16.000000 220.123437 L 22.000000 220.123437" stroke="gray" fill="white" stroke-width="1px"></path><path d="M 28.000000 220.123437 L 28.000000 222.623437 L 22.000000 222.623437 L 22.000000 220.123437 L 28.000000 220.123437" stroke="gray" fill="white" stroke-width="1px"></path><path d="M 34.000000 220.123437 L 34.000000 222.623437 L 28.000000 222.623437 L 28.000000 220.123437 L 34.000000 220.123437" stroke="gray" fill="white" stroke-width="1px"></path><path d="M 40.000000 220.123437 L 40.000000 222.623437 L 34.000000 222.623437 L 34.000000 220.123437 L 40.000000 220.123437" stroke="gray" fill="white" stroke-width="1px"></path><path d="M 46.000000 220.123437 L 46.000000 222.623437 L 40.000000 222.623437 L 40.000000 220.123437 L 46.000000 220.123437" stroke="gray" fill="white" stroke-width="1px"></path><path d="M 52.000000 220.123437 L 52.000000 222.623437 L 46.000000 222.623437 L 46.000000 220.123437 L 52.000000 220.123437" stroke="gray" fill="white" stroke-width="1px"></path><path d="M 58.000000 220.123437 L 58.000000 222.623437 L 52.000000 222.623437 L 52.000000 220.123437 L 58.000000 220.123437" stroke="gray" fill="white" stroke-width="1px"></path><path d="M 22.000000 208.123437 L 22.000000 210.623437 L 16.000000 210.623437 L 16.000000 208.123437 L 22.000000 208.123437" stroke="gray" fill="white" stroke-width="1px"></path><path d="M 28.000000 208.123437 L 28.000000 210.623437 L 22.000000 210.623437 L 22.000000 208.123437 L 28.000000 208.123437" stroke="gray" fill="white" stroke-width="1px"></path><path d="M 34.000000 208.123437 L 34.000000 210.623437 L 28.000000 210.623437 L 28.000000 208.123437 L 34.000000 208.123437" stroke="gray" fill="white" stroke-width="1px"></path><path d="M 40.000000 208.123437 L 40.000000 210.623437 L 34.000000 210.623437 L 34.000000 208.123437 L 40.000000 208.123437" stroke="gray" fill="white" stroke-width="1px"></path><path d="M 46.000000 208.123437 L 46.000000 210.623437 L 40.000000 210.623437 L 40.000000 208.123437 L 46.000000 208.123437" stroke="gray" fill="white" stroke-width="1px"></path><path d="M 52.000000 208.123437 L 52.000000 210.623437 L 46.000000 210.623437 L 46.000000 208.123437 L 52.000000 208.123437" stroke="gray" fill="white" stroke-width="1px"></path><path d="M 58.000000 208.123437 L 58.000000 210.623437 L 52.000000 210.623437 L 52.000000 208.123437 L 58.000000 208.123437" stroke="gray" fill="white" stroke-width="1px"></path><path d="M 34.000000 196.123437 L 34.000000 198.623437 L 28.000000 198.623437 L 28.000000 196.123437 L 34.000000 196.123437" stroke="gray" fill="white" stroke-width="1px"></path><path d="M 40.000000 196.123437 L 40.000000 198.623437 L 34.000000 198.623437 L 34.000000 196.123437 L 40.000000 196.123437" stroke="gray" fill="white" stroke-width="1px"></path><path d="M 46.000000 196.123437 L 46.000000 198.623437 L 40.000000 198.623437 L 40.000000 196.123437 L 46.000000 196.123437" stroke="gray" fill="white" stroke-width="1px"></path><path d="M 52.000000 196.123437 L 52.000000 198.623437 L 46.000000 198.623437 L 46.000000 196.123437 L 52.000000 196.123437" stroke="gray" fill="white" stroke-width="1px"></path><path d="M 58.000000 196.123437 L 58.000000 198.623437 L 52.000000 198.623437 L 52.000000 196.123437 L 58.000000 196.123437" stroke="gray" fill="white" stroke-width="1px"></path><path d="M 244.210703 208.123437 L 244.210703 210.623437 L 238.210703 210.623437 L 238.210703 208.123437 L 244.210703 208.123437" stroke="gray" fill="white" stroke-width="1px"></path><path d="M 250.210703 208.123437 L 250.210703 210.623437 L 244.210703 210.623437 L 244.210703 208.123437 L 250.210703 208.123437" stroke="gray" fill="white" stroke-width="1px"></path><path d="M 256.210703 208.123437 L 256.210703 210.623437 L 250.210703 210.623437 L 250.210703 208.123437 L 256.210703 208.123437" stroke="gray" fill="white" stroke-width="1px"></path><path d="M 262.210703 208.123437 L 262.210703 210.623437 L 256.210703 210.623437 L 256.210703 208.123437 L 262.210703 208.123437" stroke="gray" fill="white" stroke-width="1px"></path><path d="M 268.210703 208.123437 L 268.210703 210.623437 L 262.210703 210.623437 L 262.210703 208.123437 L 268.210703 208.123437" stroke="gray" fill="white" stroke-width="1px"></path><path d="M 274.210703 208.123437 L 274.210703 210.623437 L 268.210703 210.623437 L 268.210703 208.123437 L 274.210703 208.123437" stroke="gray" fill="white" stroke-width="1px"></path><path d="M 243.853756 196.123437 L 243.853756 198.623437 L 237.853756 198.623437 L 237.853756 196.123437 L 243.853756 196.123437" stroke="gray" fill="white" stroke-width="1px"></path><path d="M 249.853756 196.123437 L 249.853756 198.623437 L 243.853756 198.623437 L 243.853756 196.123437 L 249.853756 196.123437" stroke="gray" fill="white" stroke-width="1px"></path><path d="M 255.853756 196.123437 L 255.853756 198.623437 L 249.853756 198.623437 L 249.853756 196.123437 L 255.853756 196.123437" stroke="gray" fill="white" stroke-width="1px"></path><path d="M 261.853756 196.123437 L 261.853756 198.623437 L 255.853756 198.623437 L 255.853756 196.123437 L 261.853756 196.123437" stroke="gray" fill="white" stroke-width="1px"></path><path d="M 267.853756 196.123437 L 267.853756 198.623437 L 261.853756 198.623437 L 261.853756 196.123437 L 267.853756 196.123437" stroke="gray" fill="white" stroke-width="1px"></path><path d="M 273.853756 196.123437 L 273.853756 198.623437 L 267.853756 198.623437 L 267.853756 196.123437 L 273.853756 196.123437" stroke="gray" fill="white" stroke-width="1px"></path><path d="M 251.737652 160.123437 L 251.737652 162.623437 L 245.737652 162.623437 L 245.737652 160.123437 L 251.737652 160.123437" stroke="gray" fill="white" stroke-width="1px"></path><path d="M 257.737652 160.123437 L 257.737652 162.623437 L 251.737652 162.623437 L 251.737652 160.123437 L 257.737652 160.123437" stroke="gray" fill="white" stroke-width="1px"></path><path d="M 263.737652 160.123437 L 263.737652 162.623437 L 257.737652 162.623437 L 257.737652 160.123437 L 263.737652 160.123437" stroke="gray" fill="white" stroke-width="1px"></path><path d="M 269.737652 160.123437 L 269.737652 162.623437 L 263.737652 162.623437 L 263.737652 160.123437 L 269.737652 160.123437" stroke="gray" fill="white" stroke-width="1px"></path><path d="M 275.737652 160.123437 L 275.737652 162.623437 L 269.737652 162.623437 L 269.737652 160.123437 L 275.737652 160.123437" stroke="gray" fill="white" stroke-width="1px"></path><path d="M 251.737652 148.123437 L 251.737652 150.623437 L 245.737652 150.623437 L 245.737652 148.123437 L 251.737652 148.123437" stroke="gray" fill="white" stroke-width="1px"></path><path d="M 257.737652 148.123437 L 257.737652 150.623437 L 251.737652 150.623437 L 251.737652 148.123437 L 257.737652 148.123437" stroke="gray" fill="white" stroke-width="1px"></path><path d="M 263.737652 148.123437 L 263.737652 150.623437 L 257.737652 150.623437 L 257.737652 148.123437 L 263.737652 148.123437" stroke="gray" fill="white" stroke-width="1px"></path><path d="M 269.737652 148.123437 L 269.737652 150.623437 L 263.737652 150.623437 L 263.737652 148.123437 L 269.737652 148.123437" stroke="gray" fill="white" stroke-width="1px"></path><path d="M 275.737652 148.123437 L 275.737652 150.623437 L 269.737652 150.623437 L 269.737652 148.123437 L 275.737652 148.123437" stroke="gray" fill="white" stroke-width="1px"></path><path d="M 271.459383 27.381793 L 268.959383 27.381793 L 268.959383 33.381793 L 271.459383 33.381793 L 271.459383 27.381793" stroke="gray" fill="white" stroke-width="1px"></path><path d="M 271.459383 21.381793 L 268.959383 21.381793 L 268.959383 27.381793 L 271.459383 27.381793 L 271.459383 21.381793" stroke="gray" fill="white" stroke-width="1px"></path><path d="M 271.459383 15.381793 L 268.959383 15.381793 L 268.959383 21.381793 L 271.459383 21.381793 L 271.459383 15.381793" stroke="gray" fill="white" stroke-width="1px"></path><path d="M 259.459383 25.840710 L 256.959383 25.840710 L 256.959383 31.840710 L 259.459383 31.840710 L 259.459383 25.840710" stroke="gray" fill="white" stroke-width="1px"></path><path d="M 259.459383 19.840710 L 256.959383 19.840710 L 256.959383 25.840710 L 259.459383 25.840710 L 259.459383 19.840710" stroke="gray" fill="white" stroke-width="1px"></path><path d="M 259.459383 13.840710 L 256.959383 13.840710 L 256.959383 19.840710 L 259.459383 19.840710 L 259.459383 13.840710" stroke="gray" fill="white" stroke-width="1px"></path><path d="M 247.459383 24.299626 L 244.959383 24.299626 L 244.959383 30.299626 L 247.459383 30.299626 L 247.459383 24.299626" stroke="gray" fill="white" stroke-width="1px"></path><path d="M 247.459383 18.299626 L 244.959383 18.299626 L 244.959383 24.299626 L 247.459383 24.299626 L 247.459383 18.299626" stroke="gray" fill="white" stroke-width="1px"></path><path d="M 247.459383 12.299626 L 244.959383 12.299626 L 244.959383 18.299626 L 247.459383 18.299626 L 247.459383 12.299626" stroke="gray" fill="white" stroke-width="1px"></path><path d="M 235.459383 22.758543 L 232.959383 22.758543 L 232.959383 28.758543 L 235.459383 28.758543 L 235.459383 22.758543" stroke="gray" fill="white" stroke-width="1px"></path><path d="M 235.459383 16.758543 L 232.959383 16.758543 L 232.959383 22.758543 L 235.459383 22.758543 L 235.459383 16.758543" stroke="gray" fill="white" stroke-width="1px"></path><path d="M 151.459383 101.033125 L 148.959383 101.033125 L 148.959383 107.033125 L 151.459383 107.033125 L 151.459383 101.033125" stroke="gray" fill="white" stroke-width="1px"></path><path d="M 151.459383 95.033125 L 148.959383 95.033125 L 148.959383 101.033125 L 151.459383 101.033125 L 151.459383 95.033125" stroke="gray" fill="white" stroke-width="1px"></path><path d="M 151.459383 89.033125 L 148.959383 89.033125 L 148.959383 95.033125 L 151.459383 95.033125 L 151.459383 89.033125" stroke="gray" fill="white" stroke-width="1px"></path><path d="M 151.459383 83.033125 L 148.959383 83.033125 L 148.959383 89.033125 L 151.459383 89.033125 L 151.459383 83.033125" stroke="gray" fill="white" stroke-width="1px"></path><path d="M 127.459383 101.033125 L 124.959383 101.033125 L 124.959383 107.033125 L 127.459383 107.033125 L 127.459383 101.033125" stroke="gray" fill="white" stroke-width="1px"></path><path d="M 127.459383 95.033125 L 124.959383 95.033125 L 124.959383 101.033125 L 127.459383 101.033125 L 127.459383 95.033125" stroke="gray" fill="white" stroke-width="1px"></path><path d="M 127.459383 89.033125 L 124.959383 89.033125 L 124.959383 95.033125 L 127.459383 95.033125 L 127.459383 89.033125" stroke="gray" fill="white" stroke-width="1px"></path><path d="M 127.459383 83.033125 L 124.959383 83.033125 L 124.959383 89.033125 L 127.459383 89.033125 L 127.459383 83.033125" stroke="gray" fill="white" stroke-width="1px"></path><path d="M 115.459383 101.033125 L 112.959383 101.033125 L 112.959383 107.033125 L 115.459383 107.033125 L 115.459383 101.033125" stroke="gray" fill="white" stroke-width="1px"></path><path d="M 115.459383 95.033125 L 112.959383 95.033125 L 112.959383 101.033125 L 115.459383 101.033125 L 115.459383 95.033125" stroke="gray" fill="white" stroke-width="1px"></path><path d="M 115.459383 89.033125 L 112.959383 89.033125 L 112.959383 95.033125 L 115.459383 95.033125 L 115.459383 89.033125" stroke="gray" fill="white" stroke-width="1px"></path><path d="M 115.459383 83.033125 L 112.959383 83.033125 L 112.959383 89.033125 L 115.459383 89.033125 L 115.459383 83.033125" stroke="gray" fill="white" stroke-width="1px"></path><path d="M 31.459383 51.690026 L 28.959383 51.690026 L 28.959383 57.690026 L 31.459383 57.690026 L 31.459383 51.690026" stroke="gray" fill="white" stroke-width="1px"></path><path d="M 31.459383 45.690026 L 28.959383 45.690026 L 28.959383 51.690026 L 31.459383 51.690026 L 31.459383 45.690026" stroke="gray" fill="white" stroke-width="1px"></path><path d="M 31.459383 39.690026 L 28.959383 39.690026 L 28.959383 45.690026 L 31.459383 45.690026 L 31.459383 39.690026" stroke="gray" fill="white" stroke-width="1px"></path><path d="M 31.459383 33.690026 L 28.959383 33.690026 L 28.959383 39.690026 L 31.459383 39.690026 L 31.459383 33.690026" stroke="gray" fill="white" stroke-width="1px"></path><path d="M 31.459383 27.690026 L 28.959383 27.690026 L 28.959383 33.690026 L 31.459383 33.690026 L 31.459383 27.690026" stroke="gray" fill="white" stroke-width="1px"></path><path d="M 31.459383 21.690026 L 28.959383 21.690026 L 28.959383 27.690026 L 31.459383 27.690026 L 31.459383 21.690026" stroke="gray" fill="white" stroke-width="1px"></path><path d="M 31.459383 15.690026 L 28.959383 15.690026 L 28.959383 21.690026 L 31.459383 21.690026 L 31.459383 15.690026" stroke="gray" fill="white" stroke-width="1px"></path><path d="M 19.459383 51.782872 L 16.959383 51.782872 L 16.959383 57.782872 L 19.459383 57.782872 L 19.459383 51.782872" stroke="gray" fill="white" stroke-width="1px"></path><path d="M 19.459383 45.782872 L 16.959383 45.782872 L 16.959383 51.782872 L 19.459383 51.782872 L 19.459383 45.782872" stroke="gray" fill="white" stroke-width="1px"></path><path d="M 19.459383 39.782872 L 16.959383 39.782872 L 16.959383 45.782872 L 19.459383 45.782872 L 19.459383 39.782872" stroke="gray" fill="white" stroke-width="1px"></path><path d="M 19.459383 33.782872 L 16.959383 33.782872 L 16.959383 39.782872 L 19.459383 39.782872 L 19.459383 33.782872" stroke="gray" fill="white" stroke-width="1px"></path><path d="M 19.459383 27.782872 L 16.959383 27.782872 L 16.959383 33.782872 L 19.459383 33.782872 L 19.459383 27.782872" stroke="gray" fill="white" stroke-width="1px"></path><path d="M 19.459383 21.782872 L 16.959383 21.782872 L 16.959383 27.782872 L 19.459383 27.782872 L 19.459383 21.782872" stroke="gray" fill="white" stroke-width="1px"></path><path d="M 19.459383 15.782872 L 16.959383 15.782872 L 16.959383 21.782872 L 19.459383 21.782872 L 19.459383 15.782872" stroke="gray" fill="white" stroke-width="1px"></path><path d="M 271.459383 27.381793 L 273.959383 27.381793 L 273.959383 33.381793 L 271.459383 33.381793 L 271.459383 27.381793" stroke="gray" fill="white" stroke-width="1px"></path><path d="M 271.459383 21.381793 L 273.959383 21.381793 L 273.959383 27.381793 L 271.459383 27.381793 L 271.459383 21.381793" stroke="gray" fill="white" stroke-width="1px"></path><path d="M 271.459383 15.381793 L 273.959383 15.381793 L 273.959383 21.381793 L 271.459383 21.381793 L 271.459383 15.381793" stroke="gray" fill="white" stroke-width="1px"></path><path d="M 259.459383 25.840710 L 261.959383 25.840710 L 261.959383 31.840710 L 259.459383 31.840710 L 259.459383 25.840710" stroke="gray" fill="white" stroke-width="1px"></path><path d="M 259.459383 19.840710 L 261.959383 19.840710 L 261.959383 25.840710 L 259.459383 25.840710 L 259.459383 19.840710" stroke="gray" fill="white" stroke-width="1px"></path><path d="M 259.459383 13.840710 L 261.959383 13.840710 L 261.959383 19.840710 L 259.459383 19.840710 L 259.459383 13.840710" stroke="gray" fill="white" stroke-width="1px"></path><path d="M 247.459383 24.299626 L 249.959383 24.299626 L 249.959383 30.299626 L 247.459383 30.299626 L 247.459383 24.299626" stroke="gray" fill="white" stroke-width="1px"></path><path d="M 247.459383 18.299626 L 249.959383 18.299626 L 249.959383 24.299626 L 247.459383 24.299626 L 247.459383 18.299626" stroke="gray" fill="white" stroke-width="1px"></path><path d="M 247.459383 12.299626 L 249.959383 12.299626 L 249.959383 18.299626 L 247.459383 18.299626 L 247.459383 12.299626" stroke="gray" fill="white" stroke-width="1px"></path><path d="M 235.459383 22.758543 L 237.959383 22.758543 L 237.959383 28.758543 L 235.459383 28.758543 L 235.459383 22.758543" stroke="gray" fill="white" stroke-width="1px"></path><path d="M 235.459383 16.758543 L 237.959383 16.758543 L 237.959383 22.758543 L 235.459383 22.758543 L 235.459383 16.758543" stroke="gray" fill="white" stroke-width="1px"></path><path d="M 151.459383 101.033125 L 153.959383 101.033125 L 153.959383 107.033125 L 151.459383 107.033125 L 151.459383 101.033125" stroke="gray" fill="white" stroke-width="1px"></path><path d="M 151.459383 95.033125 L 153.959383 95.033125 L 153.959383 101.033125 L 151.459383 101.033125 L 151.459383 95.033125" stroke="gray" fill="white" stroke-width="1px"></path><path d="M 151.459383 89.033125 L 153.959383 89.033125 L 153.959383 95.033125 L 151.459383 95.033125 L 151.459383 89.033125" stroke="gray" fill="white" stroke-width="1px"></path><path d="M 151.459383 83.033125 L 153.959383 83.033125 L 153.959383 89.033125 L 151.459383 89.033125 L 151.459383 83.033125" stroke="gray" fill="white" stroke-width="1px"></path><path d="M 127.459383 101.033125 L 129.959383 101.033125 L 129.959383 107.033125 L 127.459383 107.033125 L 127.459383 101.033125" stroke="gray" fill="white" stroke-width="1px"></path><path d="M 127.459383 95.033125 L 129.959383 95.033125 L 129.959383 101.033125 L 127.459383 101.033125 L 127.459383 95.033125" stroke="gray" fill="white" stroke-width="1px"></path><path d="M 127.459383 89.033125 L 129.959383 89.033125 L 129.959383 95.033125 L 127.459383 95.033125 L 127.459383 89.033125" stroke="gray" fill="white" stroke-width="1px"></path><path d="M 127.459383 83.033125 L 129.959383 83.033125 L 129.959383 89.033125 L 127.459383 89.033125 L 127.459383 83.033125" stroke="gray" fill="white" stroke-width="1px"></path><path d="M 115.459383 101.033125 L 117.959383 101.033125 L 117.959383 107.033125 L 115.459383 107.033125 L 115.459383 101.033125" stroke="gray" fill="white" stroke-width="1px"></path><path d="M 115.459383 95.033125 L 117.959383 95.033125 L 117.959383 101.033125 L 115.459383 101.033125 L 115.459383 95.033125" stroke="gray" fill="white" stroke-width="1px"></path><path d="M 115.459383 89.033125 L 117.959383 89.033125 L 117.959383 95.033125 L 115.459383 95.033125 L 115.459383 89.033125" stroke="gray" fill="white" stroke-width="1px"></path><path d="M 115.459383 83.033125 L 117.959383 83.033125 L 117.959383 89.033125 L 115.459383 89.033125 L 115.459383 83.033125" stroke="gray" fill="white" stroke-width="1px"></path><path d="M 31.459383 51.690026 L 33.959383 51.690026 L 33.959383 57.690026 L 31.459383 57.690026 L 31.459383 51.690026" stroke="gray" fill="white" stroke-width="1px"></path><path d="M 31.459383 45.690026 L 33.959383 45.690026 L 33.959383 51.690026 L 31.459383 51.690026 L 31.459383 45.690026" stroke="gray" fill="white" stroke-width="1px"></path><path d="M 31.459383 39.690026 L 33.959383 39.690026 L 33.959383 45.690026 L 31.459383 45.690026 L 31.459383 39.690026" stroke="gray" fill="white" stroke-width="1px"></path><path d="M 31.459383 33.690026 L 33.959383 33.690026 L 33.959383 39.690026 L 31.459383 39.690026 L 31.459383 33.690026" stroke="gray" fill="white" stroke-width="1px"></path><path d="M 31.459383 27.690026 L 33.959383 27.690026 L 33.959383 33.690026 L 31.459383 33.690026 L 31.459383 27.690026" stroke="gray" fill="white" stroke-width="1px"></path><path d="M 31.459383 21.690026 L 33.959383 21.690026 L 33.959383 27.690026 L 31.459383 27.690026 L 31.459383 21.690026" stroke="gray" fill="white" stroke-width="1px"></path><path d="M 31.459383 15.690026 L 33.959383 15.690026 L 33.959383 21.690026 L 31.459383 21.690026 L 31.459383 15.690026" stroke="gray" fill="white" stroke-width="1px"></path><path d="M 19.459383 51.782872 L 21.959383 51.782872 L 21.959383 57.782872 L 19.459383 57.782872 L 19.459383 51.782872" stroke="gray" fill="white" stroke-width="1px"></path><path d="M 19.459383 45.782872 L 21.959383 45.782872 L 21.959383 51.782872 L 19.459383 51.782872 L 19.459383 45.782872" stroke="gray" fill="white" stroke-width="1px"></path><path d="M 19.459383 39.782872 L 21.959383 39.782872 L 21.959383 45.782872 L 19.459383 45.782872 L 19.459383 39.782872" stroke="gray" fill="white" stroke-width="1px"></path><path d="M 19.459383 33.782872 L 21.959383 33.782872 L 21.959383 39.782872 L 19.459383 39.782872 L 19.459383 33.782872" stroke="gray" fill="white" stroke-width="1px"></path><path d="M 19.459383 27.782872 L 21.959383 27.782872 L 21.959383 33.782872 L 19.459383 33.782872 L 19.459383 27.782872" stroke="gray" fill="white" stroke-width="1px"></path><path d="M 19.459383 21.782872 L 21.959383 21.782872 L 21.959383 27.782872 L 19.459383 27.782872 L 19.459383 21.782872" stroke="gray" fill="white" stroke-width="1px"></path><path d="M 19.459383 15.782872 L 21.959383 15.782872 L 21.959383 21.782872 L 19.459383 21.782872 L 19.459383 15.782872" stroke="gray" fill="white" stroke-width="1px"></path><path d="M 274.596766 89.263579 L 274.596766 86.763579 L 268.596766 86.763579 L 268.596766 89.263579 L 274.596766 89.263579" stroke="gray" fill="white" stroke-width="1px"></path><path d="M 269.564380 77.263579 L 269.564380 74.763579 L 263.564380 74.763579 L 263.564380 77.263579 L 269.564380 77.263579" stroke="gray" fill="white" stroke-width="1px"></path><path d="M 275.564380 77.263579 L 275.564380 74.763579 L 269.564380 74.763579 L 269.564380 77.263579 L 275.564380 77.263579" stroke="gray" fill="white" stroke-width="1px"></path><path d="M 264.531995 65.263579 L 264.531995 62.763579 L 258.531995 62.763579 L 258.531995 65.263579 L 264.531995 65.263579" stroke="gray" fill="white" stroke-width="1px"></path><path d="M 270.531995 65.263579 L 270.531995 62.763579 L 264.531995 62.763579 L 264.531995 65.263579 L 270.531995 65.263579" stroke="gray" fill="white" stroke-width="1px"></path><path d="M 276.531995 65.263579 L 276.531995 62.763579 L 270.531995 62.763579 L 270.531995 65.263579 L 276.531995 65.263579" stroke="gray" fill="white" stroke-width="1px"></path><path d="M 216.871813 101.263579 L 216.871813 98.763579 L 210.871813 98.763579 L 210.871813 101.263579 L 216.871813 101.263579" stroke="gray" fill="white" stroke-width="1px"></path><path d="M 222.871813 101.263579 L 222.871813 98.763579 L 216.871813 98.763579 L 216.871813 101.263579 L 222.871813 101.263579" stroke="gray" fill="white" stroke-width="1px"></path><path d="M 228.871813 101.263579 L 228.871813 98.763579 L 222.871813 98.763579 L 222.871813 101.263579 L 228.871813 101.263579" stroke="gray" fill="white" stroke-width="1px"></path><path d="M 234.871813 101.263579 L 234.871813 98.763579 L 228.871813 98.763579 L 228.871813 101.263579 L 234.871813 101.263579" stroke="gray" fill="white" stroke-width="1px"></path><path d="M 240.871813 101.263579 L 240.871813 98.763579 L 234.871813 98.763579 L 234.871813 101.263579 L 240.871813 101.263579" stroke="gray" fill="white" stroke-width="1px"></path><path d="M 218.389530 89.263579 L 218.389530 86.763579 L 212.389530 86.763579 L 212.389530 89.263579 L 218.389530 89.263579" stroke="gray" fill="white" stroke-width="1px"></path><path d="M 224.389530 89.263579 L 224.389530 86.763579 L 218.389530 86.763579 L 218.389530 89.263579 L 224.389530 89.263579" stroke="gray" fill="white" stroke-width="1px"></path><path d="M 230.389530 89.263579 L 230.389530 86.763579 L 224.389530 86.763579 L 224.389530 89.263579 L 230.389530 89.263579" stroke="gray" fill="white" stroke-width="1px"></path><path d="M 236.389530 89.263579 L 236.389530 86.763579 L 230.389530 86.763579 L 230.389530 89.263579 L 236.389530 89.263579" stroke="gray" fill="white" stroke-width="1px"></path><path d="M 22.000000 101.263579 L 22.000000 98.763579 L 16.000000 98.763579 L 16.000000 101.263579 L 22.000000 101.263579" stroke="gray" fill="white" stroke-width="1px"></path><path d="M 28.000000 101.263579 L 28.000000 98.763579 L 22.000000 98.763579 L 22.000000 101.263579 L 28.000000 101.263579" stroke="gray" fill="white" stroke-width="1px"></path><path d="M 34.000000 101.263579 L 34.000000 98.763579 L 28.000000 98.763579 L 28.000000 101.263579 L 34.000000 101.263579" stroke="gray" fill="white" stroke-width="1px"></path><path d="M 40.000000 101.263579 L 40.000000 98.763579 L 34.000000 98.763579 L 34.000000 101.263579 L 40.000000 101.263579" stroke="gray" fill="white" stroke-width="1px"></path><path d="M 46.000000 101.263579 L 46.000000 98.763579 L 40.000000 98.763579 L 40.000000 101.263579 L 46.000000 101.263579" stroke="gray" fill="white" stroke-width="1px"></path><path d="M 52.000000 101.263579 L 52.000000 98.763579 L 46.000000 98.763579 L 46.000000 101.263579 L 52.000000 101.263579" stroke="gray" fill="white" stroke-width="1px"></path><path d="M 58.000000 101.263579 L 58.000000 98.763579 L 52.000000 98.763579 L 52.000000 101.263579 L 58.000000 101.263579" stroke="gray" fill="white" stroke-width="1px"></path><path d="M 22.000000 89.263579 L 22.000000 86.763579 L 16.000000 86.763579 L 16.000000 89.263579 L 22.000000 89.263579" stroke="gray" fill="white" stroke-width="1px"></path><path d="M 28.000000 89.263579 L 28.000000 86.763579 L 22.000000 86.763579 L 22.000000 89.263579 L 28.000000 89.263579" stroke="gray" fill="white" stroke-width="1px"></path><path d="M 34.000000 89.263579 L 34.000000 86.763579 L 28.000000 86.763579 L 28.000000 89.263579 L 34.000000 89.263579" stroke="gray" fill="white" stroke-width="1px"></path><path d="M 40.000000 89.263579 L 40.000000 86.763579 L 34.000000 86.763579 L 34.000000 89.263579 L 40.000000 89.263579" stroke="gray" fill="white" stroke-width="1px"></path><path d="M 46.000000 89.263579 L 46.000000 86.763579 L 40.000000 86.763579 L 40.000000 89.263579 L 46.000000 89.263579" stroke="gray" fill="white" stroke-width="1px"></path><path d="M 52.000000 89.263579 L 52.000000 86.763579 L 46.000000 86.763579 L 46.000000 89.263579 L 52.000000 89.263579" stroke="gray" fill="white" stroke-width="1px"></path><path d="M 58.000000 89.263579 L 58.000000 86.763579 L 52.000000 86.763579 L 52.000000 89.263579 L 58.000000 89.263579" stroke="gray" fill="white" stroke-width="1px"></path><path d="M 274.596766 89.263579 L 274.596766 91.763579 L 268.596766 91.763579 L 268.596766 89.263579 L 274.596766 89.263579" stroke="gray" fill="white" stroke-width="1px"></path><path d="M 269.564380 77.263579 L 269.564380 79.763579 L 263.564380 79.763579 L 263.564380 77.263579 L 269.564380 77.263579" stroke="gray" fill="white" stroke-width="1px"></path><path d="M 275.564380 77.263579 L 275.564380 79.763579 L 269.564380 79.763579 L 269.564380 77.263579 L 275.564380 77.263579" stroke="gray" fill="white" stroke-width="1px"></path><path d="M 264.531995 65.263579 L 264.531995 67.763579 L 258.531995 67.763579 L 258.531995 65.263579 L 264.531995 65.263579" stroke="gray" fill="white" stroke-width="1px"></path><path d="M 270.531995 65.263579 L 270.531995 67.763579 L 264.531995 67.763579 L 264.531995 65.263579 L 270.531995 65.263579" stroke="gray" fill="white" stroke-width="1px"></path><path d="M 276.531995 65.263579 L 276.531995 67.763579 L 270.531995 67.763579 L 270.531995 65.263579 L 276.531995 65.263579" stroke="gray" fill="white" stroke-width="1px"></path><path d="M 216.871813 101.263579 L 216.871813 103.763579 L 210.871813 103.763579 L 210.871813 101.263579 L 216.871813 101.263579" stroke="gray" fill="white" stroke-width="1px"></path><path d="M 222.871813 101.263579 L 222.871813 103.763579 L 216.871813 103.763579 L 216.871813 101.263579 L 222.871813 101.263579" stroke="gray" fill="white" stroke-width="1px"></path><path d="M 228.871813 101.263579 L 228.871813 103.763579 L 222.871813 103.763579 L 222.871813 101.263579 L 228.871813 101.263579" stroke="gray" fill="white" stroke-width="1px"></path><path d="M 234.871813 101.263579 L 234.871813 103.763579 L 228.871813 103.763579 L 228.871813 101.263579 L 234.871813 101.263579" stroke="gray" fill="white" stroke-width="1px"></path><path d="M 240.871813 101.263579 L 240.871813 103.763579 L 234.871813 103.763579 L 234.871813 101.263579 L 240.871813 101.263579" stroke="gray" fill="white" stroke-width="1px"></path><path d="M 218.389530 89.263579 L 218.389530 91.763579 L 212.389530 91.763579 L 212.389530 89.263579 L 218.389530 89.263579" stroke="gray" fill="white" stroke-width="1px"></path><path d="M 224.389530 89.263579 L 224.389530 91.763579 L 218.389530 91.763579 L 218.389530 89.263579 L 224.389530 89.263579" stroke="gray" fill="white" stroke-width="1px"></path><path d="M 230.389530 89.263579 L 230.389530 91.763579 L 224.389530 91.763579 L 224.389530 89.263579 L 230.389530 89.263579" stroke="gray" fill="white" stroke-width="1px"></path><path d="M 236.389530 89.263579 L 236.389530 91.763579 L 230.389530 91.763579 L 230.389530 89.263579 L 236.389530 89.263579" stroke="gray" fill="white" stroke-width="1px"></path><path d="M 22.000000 101.263579 L 22.000000 103.763579 L 16.000000 103.763579 L 16.000000 101.263579 L 22.000000 101.263579" stroke="gray" fill="white" stroke-width="1px"></path><path d="M 28.000000 101.263579 L 28.000000 103.763579 L 22.000000 103.763579 L 22.000000 101.263579 L 28.000000 101.263579" stroke="gray" fill="white" stroke-width="1px"></path><path d="M 34.000000 101.263579 L 34.000000 103.763579 L 28.000000 103.763579 L 28.000000 101.263579 L 34.000000 101.263579" stroke="gray" fill="white" stroke-width="1px"></path><path d="M 40.000000 101.263579 L 40.000000 103.763579 L 34.000000 103.763579 L 34.000000 101.263579 L 40.000000 101.263579" stroke="gray" fill="white" stroke-width="1px"></path><path d="M 46.000000 101.263579 L 46.000000 103.763579 L 40.000000 103.763579 L 40.000000 101.263579 L 46.000000 101.263579" stroke="gray" fill="white" stroke-width="1px"></path><path d="M 52.000000 101.263579 L 52.000000 103.763579 L 46.000000 103.763579 L 46.000000 101.263579 L 52.000000 101.263579" stroke="gray" fill="white" stroke-width="1px"></path><path d="M 58.000000 101.263579 L 58.000000 103.763579 L 52.000000 103.763579 L 52.000000 101.263579 L 58.000000 101.263579" stroke="gray" fill="white" stroke-width="1px"></path><path d="M 22.000000 89.263579 L 22.000000 91.763579 L 16.000000 91.763579 L 16.000000 89.263579 L 22.000000 89.263579" stroke="gray" fill="white" stroke-width="1px"></path><path d="M 28.000000 89.263579 L 28.000000 91.763579 L 22.000000 91.763579 L 22.000000 89.263579 L 28.000000 89.263579" stroke="gray" fill="white" stroke-width="1px"></path><path d="M 34.000000 89.263579 L 34.000000 91.763579 L 28.000000 91.763579 L 28.000000 89.263579 L 34.000000 89.263579" stroke="gray" fill="white" stroke-width="1px"></path><path d="M 40.000000 89.263579 L 40.000000 91.763579 L 34.000000 91.763579 L 34.000000 89.263579 L 40.000000 89.263579" stroke="gray" fill="white" stroke-width="1px"></path><path d="M 46.000000 89.263579 L 46.000000 91.763579 L 40.000000 91.763579 L 40.000000 89.263579 L 46.000000 89.263579" stroke="gray" fill="white" stroke-width="1px"></path><path d="M 52.000000 89.263579 L 52.000000 91.763579 L 46.000000 91.763579 L 46.000000 89.263579 L 52.000000 89.263579" stroke="gray" fill="white" stroke-width="1px"></path><path d="M 58.000000 89.263579 L 58.000000 91.763579 L 52.000000 91.763579 L 52.000000 89.263579 L 58.000000 89.263579" stroke="gray" fill="white" stroke-width="1px"></path></g><g id="crv-base"><path d="M 221.371570 123.090312 L 221.371570 169.241094 L 120.000633 169.241094 L 120.000633 156.444206 L 126.051258 156.444206 L 126.051258 128.832500 L 123.590320 128.832500 L 123.590320 125.551250 L 126.051258 125.551250 L 126.051258 123.858132 L 91.315945 123.858125 L 91.315945 134.738750 L 64.258762 134.738750 L 64.258762 123.687497 L 10.000000 123.687497 L 10.000000 226.180625 L 64.258758 226.180625 L 64.258758 192.357500 L 91.315945 192.357500 L 91.315945 220.123437 L 283.459383 220.123437 L 283.459383 123.090312 L 221.371570 123.090312" stroke="black" fill="none" stroke-width="1px"></path><path d="M 221.371570 10.000000 L 221.371570 56.150781 L 120.000633 56.150781 L 120.000633 43.353893 L 126.051258 43.353893 L 126.051258 15.742187 L 123.590320 15.742187 L 123.590320 12.460937 L 126.051258 12.460937 L 126.051258 10.767819 L 91.315945 10.767812 L 91.315945 21.648438 L 64.258762 21.648438 L 64.258762 10.597185 L 10.000000 10.597185 L 10.000000 113.090312 L 64.258758 113.090312 L 64.258758 79.267187 L 91.315945 79.267187 L 91.315945 107.033125 L 283.459383 107.033125 L 283.459383 10.000000 L 221.371570 10.000000" stroke="black" fill="none" stroke-width="1px"></path><path d="M 10.387195 156.559062 L 10.387195 154.590312 L 12.355945 154.590312 L 12.355945 156.559062 L 10.387195 156.559062" stroke="black" fill="white" stroke-width="1px"></path><path d="M 10.387195 43.468750 L 10.387195 41.500000 L 12.355945 41.500000 L 12.355945 43.468750 L 10.387195 43.468750" stroke="black" fill="white" stroke-width="1px"></path><path d="M 10.387195 188.059062 L 10.387195 186.090312 L 12.355945 186.090312 L 12.355945 188.059062 L 10.387195 188.059062" stroke="black" fill="white" stroke-width="1px"></path><path d="M 10.387195 74.968750 L 10.387195 73.000000 L 12.355945 73.000000 L 12.355945 74.968750 L 10.387195 74.968750" stroke="black" fill="white" stroke-width="1px"></path><path d="M 10.387195 219.559062 L 10.387195 217.590312 L 12.355945 217.590312 L 12.355945 219.559062 L 10.387195 219.559062" stroke="black" fill="white" stroke-width="1px"></path><path d="M 10.387195 106.468750 L 10.387195 104.500000 L 12.355945 104.500000 L 12.355945 106.468750 L 10.387195 106.468750" stroke="black" fill="white" stroke-width="1px"></path><path d="M 60.754383 128.340312 L 60.754383 125.387187 L 63.871570 125.387187 L 63.871570 128.340312 L 60.754383 128.340312" stroke="black" fill="white" stroke-width="1px"></path><path d="M 60.754383 15.250000 L 60.754383 12.296875 L 63.871570 12.296875 L 63.871570 15.250000 L 60.754383 15.250000" stroke="black" fill="white" stroke-width="1px"></path><path d="M 280.598133 219.230937 L 280.598133 217.262187 L 282.566883 217.262187 L 282.566883 219.230937 L 280.598133 219.230937" stroke="black" fill="white" stroke-width="1px"></path><path d="M 280.598133 106.140625 L 280.598133 104.171875 L 282.566883 104.171875 L 282.566883 106.140625 L 280.598133 106.140625" stroke="black" fill="white" stroke-width="1px"></path><path d="M 280.598133 188.059062 L 280.598133 186.090312 L 282.566883 186.090312 L 282.566883 188.059062 L 280.598133 188.059062" stroke="black" fill="white" stroke-width="1px"></path><path d="M 280.598133 74.968750 L 280.598133 73.000000 L 282.566883 73.000000 L 282.566883 74.968750 L 280.598133 74.968750" stroke="black" fill="white" stroke-width="1px"></path><path d="M 280.598133 156.559050 L 280.598133 154.590300 L 282.566883 154.590300 L 282.566883 156.559050 L 280.598133 156.559050" stroke="black" fill="white" stroke-width="1px"></path><path d="M 280.598133 43.468737 L 280.598133 41.499987 L 282.566883 41.499987 L 282.566883 43.468737 L 280.598133 43.468737" stroke="black" fill="white" stroke-width="1px"></path><path d="M 248.605945 127.355937 L 248.605945 123.418437 L 251.887195 123.418437 L 251.887195 127.355937 L 248.605945 127.355937" stroke="black" fill="white" stroke-width="1px"></path><path d="M 248.605945 14.265625 L 248.605945 10.328125 L 251.887195 10.328125 L 251.887195 14.265625 L 248.605945 14.265625" stroke="black" fill="white" stroke-width="1px"></path><path d="M 248.605945 157.871562 L 248.605945 153.934062 L 251.887195 153.934062 L 251.887195 157.871562 L 248.605945 157.871562" stroke="black" fill="white" stroke-width="1px"></path><path d="M 248.605945 44.781250 L 248.605945 40.843750 L 251.887195 40.843750 L 251.887195 44.781250 L 248.605945 44.781250" stroke="black" fill="white" stroke-width="1px"></path><path d="M 248.605945 189.043437 L 248.605945 185.105937 L 251.887195 185.105937 L 251.887195 189.043437 L 248.605945 189.043437" stroke="black" fill="white" stroke-width="1px"></path><path d="M 248.605945 75.953125 L 248.605945 72.015625 L 251.887195 72.015625 L 251.887195 75.953125 L 248.605945 75.953125" stroke="black" fill="white" stroke-width="1px"></path><path d="M 248.934070 219.230937 L 248.934070 216.277812 L 251.887195 216.277812 L 251.887195 219.230937 L 248.934070 219.230937" stroke="black" fill="white" stroke-width="1px"></path><path d="M 248.934070 106.140625 L 248.934070 103.187500 L 251.887195 103.187500 L 251.887195 106.140625 L 248.934070 106.140625" stroke="black" fill="white" stroke-width="1px"></path><path d="M 218.090320 189.043437 L 218.090320 185.105937 L 221.371570 185.105937 L 221.371570 189.043437 L 218.090320 189.043437" stroke="black" fill="white" stroke-width="1px"></path><path d="M 218.090320 75.953125 L 218.090320 72.015625 L 221.371570 72.015625 L 221.371570 75.953125 L 218.090320 75.953125" stroke="black" fill="white" stroke-width="1px"></path><path d="M 218.254383 219.230937 L 218.254383 216.277812 L 221.207508 216.277812 L 221.207508 219.230937 L 218.254383 219.230937" stroke="black" fill="white" stroke-width="1px"></path><path d="M 218.254383 106.140625 L 218.254383 103.187500 L 221.207508 103.187500 L 221.207508 106.140625 L 218.254383 106.140625" stroke="black" fill="white" stroke-width="1px"></path><path d="M 186.590320 189.043437 L 186.590320 185.105937 L 189.871570 185.105937 L 189.871570 189.043437 L 186.590320 189.043437" stroke="black" fill="white" stroke-width="1px"></path><path d="M 186.590320 75.953125 L 186.590320 72.015625 L 189.871570 72.015625 L 189.871570 75.953125 L 186.590320 75.953125" stroke="black" fill="white" stroke-width="1px"></path><path d="M 186.754383 219.230937 L 186.754383 216.277812 L 189.707508 216.277812 L 189.707508 219.230937 L 186.754383 219.230937" stroke="black" fill="white" stroke-width="1px"></path><path d="M 186.754383 106.140625 L 186.754383 103.187500 L 189.707508 103.187500 L 189.707508 106.140625 L 186.754383 106.140625" stroke="black" fill="white" stroke-width="1px"></path><path d="M 155.090320 189.043437 L 155.090320 185.105937 L 158.371570 185.105937 L 158.371570 189.043437 L 155.090320 189.043437" stroke="black" fill="white" stroke-width="1px"></path><path d="M 155.090320 75.953125 L 155.090320 72.015625 L 158.371570 72.015625 L 158.371570 75.953125 L 155.090320 75.953125" stroke="black" fill="white" stroke-width="1px"></path><path d="M 155.254383 219.230937 L 155.254383 216.277812 L 158.207508 216.277812 L 158.207508 219.230937 L 155.254383 219.230937" stroke="black" fill="white" stroke-width="1px"></path><path d="M 155.254383 106.140625 L 155.254383 103.187500 L 158.207508 103.187500 L 158.207508 106.140625 L 155.254383 106.140625" stroke="black" fill="white" stroke-width="1px"></path><path d="M 123.590320 189.043437 L 123.590320 185.105937 L 126.871570 185.105937 L 126.871570 189.043437 L 123.590320 189.043437" stroke="black" fill="white" stroke-width="1px"></path><path d="M 123.590320 75.953125 L 123.590320 72.015625 L 126.871570 72.015625 L 126.871570 75.953125 L 123.590320 75.953125" stroke="black" fill="white" stroke-width="1px"></path><path d="M 123.754383 219.230937 L 123.754383 216.277812 L 126.707508 216.277812 L 126.707508 219.230937 L 123.754383 219.230937" stroke="black" fill="white" stroke-width="1px"></path><path d="M 123.754383 106.140625 L 123.754383 103.187500 L 126.707508 103.187500 L 126.707508 106.140625 L 123.754383 106.140625" stroke="black" fill="white" stroke-width="1px"></path><path d="M 92.090320 157.543437 L 92.090320 153.605937 L 95.371570 153.605937 L 95.371570 157.543437 L 92.090320 157.543437" stroke="black" fill="white" stroke-width="1px"></path><path d="M 92.090320 44.453125 L 92.090320 40.515625 L 95.371570 40.515625 L 95.371570 44.453125 L 92.090320 44.453125" stroke="black" fill="white" stroke-width="1px"></path><path d="M 92.090320 189.043437 L 92.090320 185.105937 L 95.371570 185.105937 L 95.371570 189.043437 L 92.090320 189.043437" stroke="black" fill="white" stroke-width="1px"></path><path d="M 92.090320 75.953125 L 92.090320 72.015625 L 95.371570 72.015625 L 95.371570 75.953125 L 92.090320 75.953125" stroke="black" fill="white" stroke-width="1px"></path><path d="M 92.090320 128.504375 L 92.090320 125.551250 L 95.207508 125.551250 L 95.207508 128.504375 L 92.090320 128.504375" stroke="black" fill="white" stroke-width="1px"></path><path d="M 92.090320 15.414062 L 92.090320 12.460937 L 95.207508 12.460937 L 95.207508 15.414062 L 92.090320 15.414062" stroke="black" fill="white" stroke-width="1px"></path><path d="M 60.590320 157.215312 L 60.590320 153.934062 L 63.871570 153.934062 L 63.871570 157.215312 L 60.590320 157.215312" stroke="black" fill="white" stroke-width="1px"></path><path d="M 60.590320 44.125000 L 60.590320 40.843750 L 63.871570 40.843750 L 63.871570 44.125000 L 60.590320 44.125000" stroke="black" fill="white" stroke-width="1px"></path><path d="M 60.754383 219.230937 L 60.754383 216.277812 L 63.871570 216.277812 L 63.871570 219.230937 L 60.754383 219.230937" stroke="black" fill="white" stroke-width="1px"></path><path d="M 60.754383 106.140625 L 60.754383 103.187500 L 63.871570 103.187500 L 63.871570 106.140625 L 60.754383 106.140625" stroke="black" fill="white" stroke-width="1px"></path><path d="M 30.074695 128.504375 L 30.074695 125.223125 L 33.027820 125.223125 L 33.027820 128.504375 L 30.074695 128.504375" stroke="black" fill="white" stroke-width="1px"></path><path d="M 30.074695 15.414062 L 30.074695 12.132812 L 33.027820 12.132812 L 33.027820 15.414062 L 30.074695 15.414062" stroke="black" fill="white" stroke-width="1px"></path><path d="M 30.074695 157.215312 L 30.074695 153.934062 L 33.355945 153.934062 L 33.355945 157.215312 L 30.074695 157.215312" stroke="black" fill="white" stroke-width="1px"></path><path d="M 30.074695 44.125000 L 30.074695 40.843750 L 33.355945 40.843750 L 33.355945 44.125000 L 30.074695 44.125000" stroke="black" fill="white" stroke-width="1px"></path><path d="M 30.074695 188.715312 L 30.074695 185.434062 L 33.355945 185.434062 L 33.355945 188.715312 L 30.074695 188.715312" stroke="black" fill="white" stroke-width="1px"></path><path d="M 30.074695 75.625000 L 30.074695 72.343750 L 33.355945 72.343750 L 33.355945 75.625000 L 30.074695 75.625000" stroke="black" fill="white" stroke-width="1px"></path><path d="M 30.074695 219.230937 L 30.074695 216.277812 L 33.027820 216.277812 L 33.027820 219.230937 L 30.074695 219.230937" stroke="black" fill="white" stroke-width="1px"></path><path d="M 30.074695 106.140625 L 30.074695 103.187500 L 33.027820 103.187500 L 33.027820 106.140625 L 30.074695 106.140625" stroke="black" fill="white" stroke-width="1px"></path><path d="M 10.387195 127.191875 L 10.387195 125.223125 L 12.355945 125.223125 L 12.355945 127.191875 L 10.387195 127.191875" stroke="black" fill="white" stroke-width="1px"></path><path d="M 10.387195 14.101562 L 10.387195 12.132812 L 12.355945 12.132812 L 12.355945 14.101562 L 10.387195 14.101562" stroke="black" fill="white" stroke-width="1px"></path><path d="M 60.590320 189.863750 L 60.590320 185.434062 L 63.871570 185.434062 L 63.871570 188.715312 L 62.230945 188.715312 L 62.230945 189.863750 L 60.590320 189.863750" stroke="black" fill="white" stroke-width="1px"></path><path d="M 60.590320 76.773437 L 60.590320 72.343750 L 63.871570 72.343750 L 63.871570 75.625000 L 62.230945 75.625000 L 62.230945 76.773437 L 60.590320 76.773437" stroke="black" fill="white" stroke-width="1px"></path></g></svg>