<svg width="293.459383" height="236.180625" xmlns="http://www.w3.org/2000/svg" xmlns:xlink="http://www.w3.org/1999/xlink" version="1.1"><g id="crv-background"><path d="M 221.371570 123.090312 L 221.371570 169.241094 L 120.000633 169.241094 L 120.000633 156.444206 L 126.051258 156.444206 L 126.051258 128.832500 L 123.590320 128.832500 L 123.590320 125.551250 L 126.051258 125.551250 L 126.051258 123.858132 L 91.315945 123.858125 L 91.315945 134.738750 L 64.258762 134.738750 L 64.258762 123.687497 L 10.000000 123.687497 L 10.000000 226.180625 L 64.258758 226.180625 L 64.258758 192.357500 L 91.315945 192.357500 L 91.315945 220.123437 L 283.459383 220.123437 L 283.459383 123.090312 L 221.371570 123.090312" stroke="none" fill="white" stroke-width="1px"></path><path d="M 221.371570 10.000000 L 221.371570 56.150781 L 120.000633 56.150781 L 120.000633 43.353893 L 126.051258 43.353893 L 126.051258 15.742187 L 123.590320 15.742187 L 123.590320 12.460937 L 126.051258 12.460937 L 126.051258 10.767819 L 91.315945 10.767812 L 91.315945 21.648438 L 64.258762 21.648438 L 64.258762 10.597185 L 10.000000 10.597185 L 10.000000 113.090312 L 64.258758 113.090312 L 64.258758 79.267187 L 91.315945 79.267187 L 91.315945 107.033125 L 283.459383 107.033125 L 283.459383 10.000000 L 221.371570 10.000000" stroke="none" fill="white" stroke-width="1px"></path></g><g id="crv-nbhd"><path d="M 221.737654 10.000004 L 221.737654 28.323155 L 221.737654 46.646307 L 231.902757 51.527544 L 242.067860 56.408781 L 262.763621 50.374866 L 283.459383 44.340951 L 283.459383 27.170475 L 283.459382 10.000000 L 252.598555 10.000002 L 221.737654 10.000004" stroke="#DD2222" fill="none" stroke-width="1px"></path><path d="M 283.459383 107.033125 L 283.459383 75.687038 L 283.459383 44.340951 L 262.763621 50.374866 L 242.067860 56.408781 L 248.952917 81.720953 L 255.837973 107.033125 L 269.648675 107.033125 L 283.459383 107.033125" stroke="#DD2222" fill="none" stroke-width="1px"></path><path d="M 221.737654 46.646307 L 221.737654 62.898819 L 221.737654 79.151330 L 215.463941 79.151330 L 209.190227 79.151330 L 209.783291 93.092228 L 210.376354 107.033125 L 233.107163 107.033125 L 255.837973 107.033125 L 248.952917 81.720953 L 242.067860 56.408781 L 231.902759 51.527545 L 221.737654 46.646307" stroke="#DD2222" fill="none" stroke-width="1px"></path><path d="M 164.374182 107.033125 L 187.375268 107.033125 L 210.376354 107.033125 L 209.783291 93.092228 L 209.190227 79.151330 L 188.809366 79.151330 L 168.428504 79.151329 L 166.401343 93.092227 L 164.374182 107.033125" stroke="#DD2222" fill="none" stroke-width="1px"></path><path d="M 168.428504 79.151329 L 147.038806 79.151329 L 125.649109 79.151328 L 124.931590 93.092227 L 124.214070 107.033125 L 144.294126 107.033125 L 164.374182 107.033125 L 166.401343 93.092227 L 168.428504 79.151329" stroke="#DD2222" fill="none" stroke-width="1px"></path><path d="M 125.649109 79.151328 L 108.482527 79.151328 L 91.315945 79.151327 L 91.315945 93.092226 L 91.315945 107.033125 L 107.765008 107.033125 L 124.214070 107.033125 L 124.931590 93.092227 L 125.649109 79.151328" stroke="#DD2222" fill="none" stroke-width="1px"></path><path d="M 64.258758 113.090312 L 64.258758 89.642703 L 64.258758 66.195094 L 37.129379 61.325828 L 10.000000 56.456563 L 10.000000 84.773438 L 10.000000 113.090312 L 37.129269 113.090312 L 64.258758 113.090312" stroke="#DD2222" fill="none" stroke-width="1px"></path><path d="M 10.000000 10.597184 L 10.000000 33.526874 L 10.000000 56.456563 L 37.129379 61.325828 L 64.258758 66.195094 L 64.258758 61.172939 L 64.258758 56.150781 L 64.258758 33.373983 L 64.258758 10.597185 L 37.129379 10.597185 L 10.000000 10.597184" stroke="#DD2222" fill="none" stroke-width="1px"></path><path d="M 10.000000 123.687497 L 10.000000 150.147554 L 10.000000 176.607612 L 37.129379 176.259662 L 64.258758 175.911711 L 64.258758 172.576403 L 64.258758 169.241094 L 64.258758 146.464296 L 64.258758 123.687497 L 37.129379 123.687497 L 10.000000 123.687497" stroke="#DD2222" fill="none" stroke-width="1px"></path><path d="M 10.000000 176.607612 L 10.000000 201.394119 L 10.000000 226.180625 L 37.129383 226.180625 L 64.258766 226.180625 L 64.258766 201.046168 L 64.258758 175.911711 L 37.129385 176.259662 L 10.000000 176.607612" stroke="#DD2222" fill="none" stroke-width="1px"></path><path d="M 142.207496 192.043444 L 116.761721 192.043444 L 91.315945 192.043444 L 91.315945 206.083441 L 91.315945 220.123437 L 125.128596 220.123437 L 158.941246 220.123437 L 150.574373 206.083444 L 142.207496 192.043444" stroke="#DD2222" fill="none" stroke-width="1px"></path><path d="M 186.352775 192.043444 L 164.280136 192.043444 L 142.207496 192.043444 L 150.574371 206.083441 L 158.941246 220.123437 L 169.563006 220.123437 L 180.184767 220.123437 L 183.268770 206.083444 L 186.352775 192.043444" stroke="#DD2222" fill="none" stroke-width="1px"></path><path d="M 180.184767 220.123437 L 209.783572 220.123437 L 239.382376 220.123437 L 239.437996 206.083441 L 239.493615 192.043444 L 212.923195 192.043444 L 186.352775 192.043444 L 183.268771 206.083440 L 180.184767 220.123437" stroke="#DD2222" fill="none" stroke-width="1px"></path><path d="M 283.459383 220.123437 L 283.459383 182.185384 L 283.459383 144.247330 L 261.598517 162.227687 L 239.737652 180.208044 L 239.737652 186.125744 L 239.737652 192.043444 L 239.615633 192.043444 L 239.493615 192.043444 L 239.437996 206.083441 L 239.382376 220.123437 L 261.420880 220.123437 L 283.459383 220.123437" stroke="#DD2222" fill="none" stroke-width="1px"></path><path d="M 239.737652 123.090312 L 239.737652 151.649178 L 239.737652 180.208044 L 261.598517 162.227687 L 283.459383 144.247330 L 283.459383 133.668821 L 283.459383 123.090312 L 261.598548 123.090312 L 239.737652 123.090312" stroke="#DD2222" fill="none" stroke-width="1px"></path></g><g id="crv-amen"><path d="M 62.605772 170.015505 L 62.605772 149.425279 L 62.605772 128.835054 L 55.993830 128.835054 L 49.381887 128.835054 L 49.381887 149.425279 L 49.381887 170.015505 L 55.993830 170.015505 L 62.605772 170.015505" stroke="none" fill="#2288CC" stroke-width="1px"></path><path d="M 49.383061 221.164326 L 55.994999 221.164326 L 62.606944 221.164326 L 62.606940 201.056766 L 62.606937 180.949195 L 55.994993 181.033998 L 49.383054 181.118800 L 49.383057 201.141563 L 49.383061 221.164326" stroke="none" fill="#2288CC" stroke-width="1px"></path><path d="M 140.086767 217.442814 L 147.783745 217.442814 L 155.480723 217.442814 L 148.787223 206.210817 L 142.093723 194.978820 L 138.773354 194.978820 L 135.452984 194.978820 L 132.223335 196.903469 L 128.993686 198.828119 L 134.540226 208.135466 L 140.086767 217.442814" stroke="none" fill="#2288CC" stroke-width="1px"></path><path d="M 179.325814 206.821018 L 180.778183 200.209077 L 182.230553 193.597133 L 164.572441 193.597133 L 146.914330 193.597133 L 150.854594 200.209076 L 154.794858 206.821018 L 167.060336 206.821018 L 179.325814 206.821018" stroke="none" fill="#2288CC" stroke-width="1px"></path><path d="M 233.940325 206.938199 L 233.966518 200.326257 L 233.992711 193.714314 L 212.736375 193.714314 L 191.480039 193.714314 L 190.027670 200.326256 L 188.575301 206.938199 L 211.257813 206.938199 L 233.940325 206.938199" stroke="none" fill="#2288CC" stroke-width="1px"></path><path d="M 241.334256 191.574724 L 241.334256 193.034520 L 241.334256 194.494316 L 241.236641 194.494316 L 241.139027 194.494316 L 241.094531 205.726313 L 241.050036 216.958310 L 247.662030 216.958310 L 254.274025 216.958310 L 254.324201 204.292346 L 254.374377 191.626382 L 247.854317 191.600553 L 241.334256 191.574724" stroke="none" fill="#2288CC" stroke-width="1px"></path><path d="M 279.087210 137.967183 L 279.087210 131.355241 L 279.087210 124.743298 L 261.598517 124.743298 L 244.109825 124.743298 L 244.109825 131.355241 L 244.109825 137.967183 L 261.598517 137.967183 L 279.087210 137.967183" stroke="none" fill="#2288CC" stroke-width="1px"></path><path d="M 277.287210 24.876871 L 277.287210 18.264929 L 277.287209 11.652986 L 252.598518 11.652988 L 227.909827 11.652989 L 227.909827 18.264932 L 227.909827 24.876874 L 252.598518 24.876873 L 277.287210 24.876871" stroke="none" fill="#2288CC" stroke-width="1px"></path><path d="M 279.533194 60.950163 L 279.533194 54.062933 L 279.533194 47.175703 L 262.976585 52.002835 L 246.419976 56.829967 L 248.155693 63.211143 L 249.891410 69.592320 L 264.712302 65.271241 L 279.533194 60.950163" stroke="none" fill="#2288CC" stroke-width="1px"></path><path d="M 238.954430 101.683905 L 245.806607 101.683905 L 252.658785 101.683905 L 247.150740 81.434168 L 241.642695 61.184430 L 237.884081 59.379561 L 234.125466 57.574691 L 230.787904 58.482527 L 227.450343 59.390363 L 233.202386 80.537134 L 238.954430 101.683905" stroke="none" fill="#2288CC" stroke-width="1px"></path><path d="M 205.590554 94.048428 L 205.309274 87.436486 L 205.027994 80.824543 L 188.723304 80.824543 L 172.418615 80.824542 L 171.457165 87.436485 L 170.495715 94.048427 L 188.043135 94.048428 L 205.590554 94.048428" stroke="none" fill="#2288CC" stroke-width="1px"></path><path d="M 140.402168 81.939508 L 133.781473 81.939508 L 127.160779 81.939508 L 126.586763 93.092227 L 126.012748 104.244945 L 132.633442 104.244945 L 139.254136 104.244945 L 139.828152 93.092227 L 140.402168 81.939508" stroke="none" fill="#2288CC" stroke-width="1px"></path><path d="M 109.461012 104.244945 L 116.081706 104.244945 L 122.702400 104.244945 L 123.276416 93.092227 L 123.850432 81.939508 L 117.229737 81.939508 L 110.609043 81.939508 L 110.035027 93.092226 L 109.461012 104.244945" stroke="none" fill="#2288CC" stroke-width="1px"></path><path d="M 58.832882 80.335836 L 58.832882 73.618238 L 58.832882 66.900640 L 37.129379 63.005228 L 15.425876 59.109815 L 15.425876 65.827413 L 15.425876 72.545011 L 37.129379 76.440423 L 58.832882 80.335836" stroke="none" fill="#2288CC" stroke-width="1px"></path><path d="M 62.605772 56.925192 L 62.605772 36.334967 L 62.605772 15.744741 L 55.993829 15.744741 L 49.381887 15.744741 L 49.381887 36.334967 L 49.381887 56.925192 L 55.993829 56.925192 L 62.605772 56.925192" stroke="none" fill="#2288CC" stroke-width="1px"></path></g><g id="crv-desk"><path d="M 31.459383 170.332383 L 28.959383 170.332383 L 28.959383 176.332383 L 31.459383 176.332383 L 31.459383 170.332383" stroke="gray" fill="white" stroke-width="1px"></path><path d="M 31.459383 164.332383 L 28.959383 164.332383 L 28.959383 170.332383 L 31.459383 170.332383 L 31.459383 164.332383" stroke="gray" fill="white" stroke-width="1px"></path><path d="M 31.459383 158.332383 L 28.959383 158.332383 L 28.959383 164.332383 L 31.459383 164.332383 L 31.459383 158.332383" stroke="gray" fill="white" stroke-width="1px"></path><path d="M 31.459383 152.332383 L 28.959383 152.332383 L 28.959383 158.332383 L 31.459383 158.332383 L 31.459383 152.332383" stroke="gray" fill="white" stroke-width="1px"></path><path d="M 31.459383 146.332383 L 28.959383 146.332383 L 28.959383 152.332383 L 31.459383 152.332383 L 31.459383 146.332383" stroke="gray" fill="white" stroke-width="1px"></path><path d="M 31.459383 140.332383 L 28.959383 140.332383 L 28.959383 146.332383 L 31.459383 146.332383 L 31.459383 140.332383" stroke="gray" fill="white" stroke-width="1px"></path><path d="M 31.459383 134.332383 L 28.959383 134.332383 L 28.959383 140.332383 L 31.459383 140.332383 L 31.459383 134.332383" stroke="gray" fill="white" stroke-width="1px"></path><path d="M 31.459383 128.332383 L 28.959383 128.332383 L 28.959383 134.332383 L 31.459383 134.332383 L 31.459383 128.332383" stroke="gray" fill="white" stroke-width="1px"></path><path d="M 19.459383 170.486290 L 16.959383 170.486290 L 16.959383 176.486290 L 19.459383 176.486290 L 19.459383 170.486290" stroke="gray" fill="white" stroke-width="1px"></path><path d="M 19.459383 164.486290 L 16.959383 164.486290 L 16.959383 170.486290 L 19.459383 170.486290 L 19.459383 164.486290" stroke="gray" fill="white" stroke-width="1px"></path><path d="M 19.459383 158.486290 L 16.959383 158.486290 L 16.959383 164.486290 L 19.459383 164.486290 L 19.459383 158.486290" stroke="gray" fill="white" stroke-width="1px"></path><path d="M 19.459383 152.486290 L 16.959383 152.486290 L 16.959383 158.486290 L 19.459383 158.486290 L 19.459383 152.486290" stroke="gray" fill="white" stroke-width="1px"></path><path d="M 19.459383 146.486290 L 16.959383 146.486290 L 16.959383 152.486290 L 19.459383 152.486290 L 19.459383 146.486290" stroke="gray" fill="white" stroke-width="1px"></path><path d="M 19.459383 140.486290 L 16.959383 140.486290 L 16.959383 146.486290 L 19.459383 146.486290 L 19.459383 140.486290" stroke="gray" fill="white" stroke-width="1px"></path><path d="M 19.459383 134.486290 L 16.959383 134.486290 L 16.959383 140.486290 L 19.459383 140.486290 L 19.459383 134.486290" stroke="gray" fill="white" stroke-width="1px"></path><path d="M 19.459383 128.486290 L 16.959383 128.486290 L 16.959383 134.486290 L 19.459383 134.486290 L 19.459383 128.486290" stroke="gray" fill="white" stroke-width="1px"></path><path d="M 31.459383 220.180625 L 28.959383 220.180625 L 28.959383 226.180625 L 31.459383 226.180625 L 31.459383 220.180625" stroke="gray" fill="white" stroke-width="1px"></path><path d="M 31.459383 214.180625 L 28.959383 214.180625 L 28.959383 220.180625 L 31.459383 220.180625 L 31.459383 214.180625" stroke="gray" fill="white" stroke-width="1px"></path><path d="M 31.459383 208.180625 L 28.959383 208.180625 L 28.959383 214.180625 L 31.459383 214.180625 L 31.459383 208.180625" stroke="gray" fill="white" stroke-width="1px"></path><path d="M 31.459383 202.180625 L 28.959383 202.180625 L 28.959383 208.180625 L 31.459383 208.180625 L 31.459383 202.180625" stroke="gray" fill="white" stroke-width="1px"></path><path d="M 31.459383 196.180625 L 28.959383 196.180625 L 28.959383 202.180625 L 31.459383 202.180625 L 31.459383 196.180625" stroke="gray" fill="white" stroke-width="1px"></path><path d="M 31.459383 190.180625 L 28.959383 190.180625 L 28.959383 196.180625 L 31.459383 196.180625 L 31.459383 190.180625" stroke="gray" fill="white" stroke-width="1px"></path><path d="M 31.459383 184.180625 L 28.959383 184.180625 L 28.959383 190.180625 L 31.459383 190.180625 L 31.459383 184.180625" stroke="gray" fill="white" stroke-width="1px"></path><path d="M 19.459383 220.180625 L 16.959383 220.180625 L 16.959383 226.180625 L 19.459383 226.180625 L 19.459383 220.180625" stroke="gray" fill="white" stroke-width="1px"></path><path d="M 19.459383 214.180625 L 16.959383 214.180625 L 16.959383 220.180625 L 19.459383 220.180625 L 19.459383 214.180625" stroke="gray" fill="white" stroke-width="1px"></path><path d="M 19.459383 208.180625 L 16.959383 208.180625 L 16.959383 214.180625 L 19.459383 214.180625 L 19.459383 208.180625" stroke="gray" fill="white" stroke-width="1px"></path><path d="M 19.459383 202.180625 L 16.959383 202.180625 L 16.959383 208.180625 L 19.459383 208.180625 L 19.459383 202.180625" stroke="gray" fill="white" stroke-width="1px"></path><path d="M 19.459383 196.180625 L 16.959383 196.180625 L 16.959383 202.180625 L 19.459383 202.180625 L 19.459383 196.180625" stroke="gray" fill="white" stroke-width="1px"></path><path d="M 19.459383 190.180625 L 16.959383 190.180625 L 16.959383 196.180625 L 19.459383 196.180625 L 19.459383 190.180625" stroke="gray" fill="white" stroke-width="1px"></path><path d="M 19.459383 184.180625 L 16.959383 184.180625 L 16.959383 190.180625 L 19.459383 190.180625 L 19.459383 184.180625" stroke="gray" fill="white" stroke-width="1px"></path><path d="M 127.459383 214.123437 L 124.959383 214.123437 L 124.959383 220.123437 L 127.459383 220.123437 L 127.459383 214.123437" stroke="gray" fill="white" stroke-width="1px"></path><path d="M 127.459383 208.123437 L 124.959383 208.123437 L 124.959383 214.123437 L 127.459383 214.123437 L 127.459383 208.123437" stroke="gray" fill="white" stroke-width="1px"></path><path d="M 115.459383 214.123437 L 112.959383 214.123437 L 112.959383 220.123437 L 115.459383 220.123437 L 115.459383 214.123437" stroke="gray" fill="white" stroke-width="1px"></path><path d="M 115.459383 208.123437 L 112.959383 208.123437 L 112.959383 214.123437 L 115.459383 214.123437 L 115.459383 208.123437" stroke="gray" fill="white" stroke-width="1px"></path><path d="M 115.459383 202.123437 L 112.959383 202.123437 L 112.959383 208.123437 L 115.459383 208.123437 L 115.459383 202.123437" stroke="gray" fill="white" stroke-width="1px"></path><path d="M 115.459383 196.123437 L 112.959383 196.123437 L 112.959383 202.123437 L 115.459383 202.123437 L 115.459383 196.123437" stroke="gray" fill="white" stroke-width="1px"></path><path d="M 103.459383 214.123437 L 100.959383 214.123437 L 100.959383 220.123437 L 103.459383 220.123437 L 103.459383 214.123437" stroke="gray" fill="white" stroke-width="1px"></path><path d="M 103.459383 208.123437 L 100.959383 208.123437 L 100.959383 214.123437 L 103.459383 214.123437 L 103.459383 208.123437" stroke="gray" fill="white" stroke-width="1px"></path><path d="M 103.459383 202.123437 L 100.959383 202.123437 L 100.959383 208.123437 L 103.459383 208.123437 L 103.459383 202.123437" stroke="gray" fill="white" stroke-width="1px"></path><path d="M 103.459383 196.123437 L 100.959383 196.123437 L 100.959383 202.123437 L 103.459383 202.123437 L 103.459383 196.123437" stroke="gray" fill="white" stroke-width="1px"></path><path d="M 175.459383 214.123437 L 172.959383 214.123437 L 172.959383 220.123437 L 175.459383 220.123437 L 175.459383 214.123437" stroke="gray" fill="white" stroke-width="1px"></path><path d="M 163.459383 214.123437 L 160.959383 214.123437 L 160.959383 220.123437 L 163.459383 220.123437 L 163.459383 214.123437" stroke="gray" fill="white" stroke-width="1px"></path><path d="M 223.459383 214.123437 L 220.959383 214.123437 L 220.959383 220.123437 L 223.459383 220.123437 L 223.459383 214.123437" stroke="gray" fill="white" stroke-width="1px"></path><path d="M 211.459383 214.123437 L 208.959383 214.123437 L 208.959383 220.123437 L 211.459383 220.123437 L 211.459383 214.123437" stroke="gray" fill="white" stroke-width="1px"></path><path d="M 199.459383 214.123437 L 196.959383 214.123437 L 196.959383 220.123437 L 199.459383 220.123437 L 199.459383 214.123437" stroke="gray" fill="white" stroke-width="1px"></path><path d="M 187.459383 214.123437 L 184.959383 214.123437 L 184.959383 220.123437 L 187.459383 220.123437 L 187.459383 214.123437" stroke="gray" fill="white" stroke-width="1px"></path><path d="M 31.459383 170.332383 L 33.959383 170.332383 L 33.959383 176.332383 L 31.459383 176.332383 L 31.459383 170.332383" stroke="gray" fill="white" stroke-width="1px"></path><path d="M 31.459383 164.332383 L 33.959383 164.332383 L 33.959383 170.332383 L 31.459383 170.332383 L 31.459383 164.332383" stroke="gray" fill="white" stroke-width="1px"></path><path d="M 31.459383 158.332383 L 33.959383 158.332383 L 33.959383 164.332383 L 31.459383 164.332383 L 31.459383 158.332383" stroke="gray" fill="white" stroke-width="1px"></path><path d="M 31.459383 152.332383 L 33.959383 152.332383 L 33.959383 158.332383 L 31.459383 158.332383 L 31.459383 152.332383" stroke="gray" fill="white" stroke-width="1px"></path><path d="M 31.459383 146.332383 L 33.959383 146.332383 L 33.959383 152.332383 L 31.459383 152.332383 L 31.459383 146.332383" stroke="gray" fill="white" stroke-width="1px"></path><path d="M 31.459383 140.332383 L 33.959383 140.332383 L 33.959383 146.332383 L 31.459383 146.332383 L 31.459383 140.332383" stroke="gray" fill="white" stroke-width="1px"></path><path d="M 31.459383 134.332383 L 33.959383 134.332383 L 33.959383 140.332383 L 31.459383 140.332383 L 31.459383 134.332383" stroke="gray" fill="white" stroke-width="1px"></path><path d="M 31.459383 128.332383 L 33.959383 128.332383 L 33.959383 134.332383 L 31.459383 134.332383 L 31.459383 128.332383" stroke="gray" fill="white" stroke-width="1px"></path><path d="M 19.459383 170.486290 L 21.959383 170.486290 L 21.959383 176.486290 L 19.459383 176.486290 L 19.459383 170.486290" stroke="gray" fill="white" stroke-width="1px"></path><path d="M 19.459383 164.486290 L 21.959383 164.486290 L 21.959383 170.486290 L 19.459383 170.486290 L 19.459383 164.486290" stroke="gray" fill="white" stroke-width="1px"></path><path d="M 19.459383 158.486290 L 21.959383 158.486290 L 21.959383 164.486290 L 19.459383 164.486290 L 19.459383 158.486290" stroke="gray" fill="white" stroke-width="1px"></path><path d="M 19.459383 152.486290 L 21.959383 152.486290 L 21.959383 158.486290 L 19.459383 158.486290 L 19.459383 152.486290" stroke="gray" fill="white" stroke-width="1px"></path><path d="M 19.459383 146.486290 L 21.959383 146.486290 L 21.959383 152.486290 L 19.459383 152.486290 L 19.459383 146.486290" stroke="gray" fill="white" stroke-width="1px"></path><path d="M 19.459383 140.486290 L 21.959383 140.486290 L 21.959383 146.486290 L 19.459383 146.486290 L 19.459383 140.486290" stroke="gray" fill="white" stroke-width="1px"></path><path d="M 19.459383 134.486290 L 21.959383 134.486290 L 21.959383 140.486290 L 19.459383 140.486290 L 19.459383 134.486290" stroke="gray" fill="white" stroke-width="1px"></path><path d="M 19.459383 128.486290 L 21.959383 128.486290 L 21.959383 134.486290 L 19.459383 134.486290 L 19.459383 128.486290" stroke="gray" fill="white" stroke-width="1px"></path><path d="M 31.459383 220.180625 L 33.959383 220.180625 L 33.959383 226.180625 L 31.459383 226.180625 L 31.459383 220.180625" stroke="gray" fill="white" stroke-width="1px"></path><path d="M 31.459383 214.180625 L 33.959383 214.180625 L 33.959383 220.180625 L 31.459383 220.180625 L 31.459383 214.180625" stroke="gray" fill="white" stroke-width="1px"></path><path d="M 31.459383 208.180625 L 33.959383 208.180625 L 33.959383 214.180625 L 31.459383 214.180625 L 31.459383 208.180625" stroke="gray" fill="white" stroke-width="1px"></path><path d="M 31.459383 202.180625 L 33.959383 202.180625 L 33.959383 208.180625 L 31.459383 208.180625 L 31.459383 202.180625" stroke="gray" fill="white" stroke-width="1px"></path><path d="M 31.459383 196.180625 L 33.959383 196.180625 L 33.959383 202.180625 L 31.459383 202.180625 L 31.459383 196.180625" stroke="gray" fill="white" stroke-width="1px"></path><path d="M 31.459383 190.180625 L 33.959383 190.180625 L 33.959383 196.180625 L 31.459383 196.180625 L 31.459383 190.180625" stroke="gray" fill="white" stroke-width="1px"></path><path d="M 31.459383 184.180625 L 33.959383 184.180625 L 33.959383 190.180625 L 31.459383 190.180625 L 31.459383 184.180625" stroke="gray" fill="white" stroke-width="1px"></path><path d="M 19.459383 220.180625 L 21.959383 220.180625 L 21.959383 226.180625 L 19.459383 226.180625 L 19.459383 220.180625" stroke="gray" fill="white" stroke-width="1px"></path><path d="M 19.459383 214.180625 L 21.959383 214.180625 L 21.959383 220.180625 L 19.459383 220.180625 L 19.459383 214.180625" stroke="gray" fill="white" stroke-width="1px"></path><path d="M 19.459383 208.180625 L 21.959383 208.180625 L 21.959383 214.180625 L 19.459383 214.180625 L 19.459383 208.180625" stroke="gray" fill="white" stroke-width="1px"></path><path d="M 19.459383 202.180625 L 21.959383 202.180625 L 21.959383 208.180625 L 19.459383 208.180625 L 19.459383 202.180625" stroke="gray" fill="white" stroke-width="1px"></path><path d="M 19.459383 196.180625 L 21.959383 196.180625 L 21.959383 202.180625 L 19.459383 202.180625 L 19.459383 196.180625" stroke="gray" fill="white" stroke-width="1px"></path><path d="M 19.459383 190.180625 L 21.959383 190.180625 L 21.959383 196.180625 L 19.459383 196.180625 L 19.459383 190.180625" stroke="gray" fill="white" stroke-width="1px"></path><path d="M 19.459383 184.180625 L 21.959383 184.180625 L 21.959383 190.180625 L 19.459383 190.180625 L 19.459383 184.180625" stroke="gray" fill="white" stroke-width="1px"></path><path d="M 127.459383 214.123437 L 129.959383 214.123437 L 129.959383 220.123437 L 127.459383 220.123437 L 127.459383 214.123437" stroke="gray" fill="white" stroke-width="1px"></path><path d="M 127.459383 208.123437 L 129.959383 208.123437 L 129.959383 214.123437 L 127.459383 214.123437 L 127.459383 208.123437" stroke="gray" fill="white" stroke-width="1px"></path><path d="M 115.459383 214.123437 L 117.959383 214.123437 L 117.959383 220.123437 L 115.459383 220.123437 L 115.459383 214.123437" stroke="gray" fill="white" stroke-width="1px"></path><path d="M 115.459383 208.123437 L 117.959383 208.123437 L 117.959383 214.123437 L 115.459383 214.123437 L 115.459383 208.123437" stroke="gray" fill="white" stroke-width="1px"></path><path d="M 115.459383 202.123437 L 117.959383 202.123437 L 117.959383 208.123437 L 115.459383 208.123437 L 115.459383 202.123437" stroke="gray" fill="white" stroke-width="1px"></path><path d="M 115.459383 196.123437 L 117.959383 196.123437 L 117.959383 202.123437 L 115.459383 202.123437 L 115.459383 196.123437" stroke="gray" fill="white" stroke-width="1px"></path><path d="M 103.459383 214.123437 L 105.959383 214.123437 L 105.959383 220.123437 L 103.459383 220.123437 L 103.459383 214.123437" stroke="gray" fill="white" stroke-width="1px"></path><path d="M 103.459383 208.123437 L 105.959383 208.123437 L 105.959383 214.123437 L 103.459383 214.123437 L 103.459383 208.123437" stroke="gray" fill="white" stroke-width="1px"></path><path d="M 103.459383 202.123437 L 105.959383 202.123437 L 105.959383 208.123437 L 103.459383 208.123437 L 103.459383 202.123437" stroke="gray" fill="white" stroke-width="1px"></path><path d="M 103.459383 196.123437 L 105.959383 196.123437 L 105.959383 202.123437 L 103.459383 202.123437 L 103.459383 196.123437" stroke="gray" fill="white" stroke-width="1px"></path><path d="M 175.459383 214.123437 L 177.959383 214.123437 L 177.959383 220.123437 L 175.459383 220.123437 L 175.459383 214.123437" stroke="gray" fill="white" stroke-width="1px"></path><path d="M 163.459383 214.123437 L 165.959383 214.123437 L 165.959383 220.123437 L 163.459383 220.123437 L 163.459383 214.123437" stroke="gray" fill="white" stroke-width="1px"></path><path d="M 223.459383 214.123437 L 225.959383 214.123437 L 225.959383 220.123437 L 223.459383 220.123437 L 223.459383 214.123437" stroke="gray" fill="white" stroke-width="1px"></path><path d="M 211.459383 214.123437 L 213.959383 214.123437 L 213.959383 220.123437 L 211.459383 220.123437 L 211.459383 214.123437" stroke="gray" fill="white" stroke-width="1px"></path><path d="M 199.459383 214.123437 L 201.959383 214.123437 L 201.959383 220.123437 L 199.459383 220.123437 L 199.459383 214.123437" stroke="gray" fill="white" stroke-width="1px"></path><path d="M 187.459383 214.123437 L 189.959383 214.123437 L 189.959383 220.123437 L 187.459383 220.123437 L 187.459383 214.123437" stroke="gray" fill="white" stroke-width="1px"></path><path d="M 266.309024 208.123437 L 266.309024 205.623437 L 260.309024 205.623437 L 260.309024 208.123437 L 266.309024 208.123437" stroke="gray" fill="white" stroke-width="1px"></path><path d="M 272.309024 208.123437 L 272.309024 205.623437 L 266.309024 205.623437 L 266.309024 208.123437 L 272.309024 208.123437" stroke="gray" fill="white" stroke-width="1px"></path><path d="M 278.309024 208.123437 L 278.309024 205.623437 L 272.309024 205.623437 L 272.309024 208.123437 L 278.309024 208.123437" stroke="gray" fill="white" stroke-width="1px"></path><path d="M 266.356562 196.123437 L 266.356562 193.623437 L 260.356562 193.623437 L 260.356562 196.123437 L 266.356562 196.123437" stroke="gray" fill="white" stroke-width="1px"></path><path d="M 272.356562 196.123437 L 272.356562 193.623437 L 266.356562 193.623437 L 266.356562 196.123437 L 272.356562 196.123437" stroke="gray" fill="white" stroke-width="1px"></path><path d="M 278.356562 196.123437 L 278.356562 193.623437 L 272.356562 193.623437 L 272.356562 196.123437 L 278.356562 196.123437" stroke="gray" fill="white" stroke-width="1px"></path><path d="M 251.737652 184.123437 L 251.737652 181.623437 L 245.737652 181.623437 L 245.737652 184.123437 L 251.737652 184.123437" stroke="gray" fill="white" stroke-width="1px"></path><path d="M 257.737652 184.123437 L 257.737652 181.623437 L 251.737652 181.623437 L 251.737652 184.123437 L 257.737652 184.123437" stroke="gray" fill="white" stroke-width="1px"></path><path d="M 263.737652 184.123437 L 263.737652 181.623437 L 257.737652 181.623437 L 257.737652 184.123437 L 263.737652 184.123437" stroke="gray" fill="white" stroke-width="1px"></path><path d="M 269.737652 184.123437 L 269.737652 181.623437 L 263.737652 181.623437 L 263.737652 184.123437 L 269.737652 184.123437" stroke="gray" fill="white" stroke-width="1px"></path><path d="M 275.737652 184.123437 L 275.737652 181.623437 L 269.737652 181.623437 L 269.737652 184.123437 L 275.737652 184.123437" stroke="gray" fill="white" stroke-width="1px"></path><path d="M 261.567072 172.123437 L 261.567072 169.623437 L 255.567072 169.623437 L 255.567072 172.123437 L 261.567072 172.123437" stroke="gray" fill="white" stroke-width="1px"></path><path d="M 267.567072 172.123437 L 267.567072 169.623437 L 261.567072 169.623437 L 261.567072 172.123437 L 267.567072 172.123437" stroke="gray" fill="white" stroke-width="1px"></path><path d="M 273.567072 172.123437 L 273.567072 169.623437 L 267.567072 169.623437 L 267.567072 172.123437 L 273.567072 172.123437" stroke="gray" fill="white" stroke-width="1px"></path><path d="M 276.156904 160.123437 L 276.156904 157.623437 L 270.156904 157.623437 L 270.156904 160.123437 L 276.156904 160.123437" stroke="gray" fill="white" stroke-width="1px"></path><path d="M 251.737652 160.123437 L 251.737652 157.623437 L 245.737652 157.623437 L 245.737652 160.123437 L 251.737652 160.123437" stroke="gray" fill="white" stroke-width="1px"></path><path d="M 257.737652 160.123437 L 257.737652 157.623437 L 251.737652 157.623437 L 251.737652 160.123437 L 257.737652 160.123437" stroke="gray" fill="white" stroke-width="1px"></path><path d="M 251.737652 148.123437 L 251.737652 145.623437 L 245.737652 145.623437 L 245.737652 148.123437 L 251.737652 148.123437" stroke="gray" fill="white" stroke-width="1px"></path><path d="M 257.737652 148.123437 L 257.737652 145.623437 L 251.737652 145.623437 L 251.737652 148.123437 L 257.737652 148.123437" stroke="gray" fill="white" stroke-width="1px"></path><path d="M 263.737652 148.123437 L 263.737652 145.623437 L 257.737652 145.623437 L 257.737652 148.123437 L 263.737652 148.123437" stroke="gray" fill="white" stroke-width="1px"></path><path d="M 269.737652 148.123437 L 269.737652 145.623437 L 263.737652 145.623437 L 263.737652 148.123437 L 269.737652 148.123437" stroke="gray" fill="white" stroke-width="1px"></path><path d="M 266.309024 208.123437 L 266.309024 210.623437 L 260.309024 210.623437 L 260.309024 208.123437 L 266.309024 208.123437" stroke="gray" fill="white" stroke-width="1px"></path><path d="M 272.309024 208.123437 L 272.309024 210.623437 L 266.309024 210.623437 L 266.309024 208.123437 L 272.309024 208.123437" stroke="gray" fill="white" stroke-width="1px"></path><path d="M 278.309024 208.123437 L 278.309024 210.623437 L 272.309024 210.623437 L 272.309024 208.123437 L 278.309024 208.123437" stroke="gray" fill="white" stroke-width="1px"></path><path d="M 266.356562 196.123437 L 266.356562 198.623437 L 260.356562 198.623437 L 260.356562 196.123437 L 266.356562 196.123437" stroke="gray" fill="white" stroke-width="1px"></path><path d="M 272.356562 196.123437 L 272.356562 198.623437 L 266.356562 198.623437 L 266.356562 196.123437 L 272.356562 196.123437" stroke="gray" fill="white" stroke-width="1px"></path><path d="M 278.356562 196.123437 L 278.356562 198.623437 L 272.356562 198.623437 L 272.356562 196.123437 L 278.356562 196.123437" stroke="gray" fill="white" stroke-width="1px"></path><path d="M 251.737652 184.123437 L 251.737652 186.623437 L 245.737652 186.623437 L 245.737652 184.123437 L 251.737652 184.123437" stroke="gray" fill="white" stroke-width="1px"></path><path d="M 257.737652 184.123437 L 257.737652 186.623437 L 251.737652 186.623437 L 251.737652 184.123437 L 257.737652 184.123437" stroke="gray" fill="white" stroke-width="1px"></path><path d="M 263.737652 184.123437 L 263.737652 186.623437 L 257.737652 186.623437 L 257.737652 184.123437 L 263.737652 184.123437" stroke="gray" fill="white" stroke-width="1px"></path><path d="M 269.737652 184.123437 L 269.737652 186.623437 L 263.737652 186.623437 L 263.737652 184.123437 L 269.737652 184.123437" stroke="gray" fill="white" stroke-width="1px"></path><path d="M 275.737652 184.123437 L 275.737652 186.623437 L 269.737652 186.623437 L 269.737652 184.123437 L 275.737652 184.123437" stroke="gray" fill="white" stroke-width="1px"></path><path d="M 261.567072 172.123437 L 261.567072 174.623437 L 255.567072 174.623437 L 255.567072 172.123437 L 261.567072 172.123437" stroke="gray" fill="white" stroke-width="1px"></path><path d="M 267.567072 172.123437 L 267.567072 174.623437 L 261.567072 174.623437 L 261.567072 172.123437 L 267.567072 172.123437" stroke="gray" fill="white" stroke-width="1px"></path><path d="M 273.567072 172.123437 L 273.567072 174.623437 L 267.567072 174.623437 L 267.567072 172.123437 L 273.567072 172.123437" stroke="gray" fill="white" stroke-width="1px"></path><path d="M 276.156904 160.123437 L 276.156904 162.623437 L 270.156904 162.623437 L 270.156904 160.123437 L 276.156904 160.123437" stroke="gray" fill="white" stroke-width="1px"></path><path d="M 251.737652 160.123437 L 251.737652 162.623437 L 245.737652 162.623437 L 245.737652 160.123437 L 251.737652 160.123437" stroke="gray" fill="white" stroke-width="1px"></path><path d="M 257.737652 160.123437 L 257.737652 162.623437 L 251.737652 162.623437 L 251.737652 160.123437 L 257.737652 160.123437" stroke="gray" fill="white" stroke-width="1px"></path><path d="M 251.737652 148.123437 L 251.737652 150.623437 L 245.737652 150.623437 L 245.737652 148.123437 L 251.737652 148.123437" stroke="gray" fill="white" stroke-width="1px"></path><path d="M 257.737652 148.123437 L 257.737652 150.623437 L 251.737652 150.623437 L 251.737652 148.123437 L 257.737652 148.123437" stroke="gray" fill="white" stroke-width="1px"></path><path d="M 263.737652 148.123437 L 263.737652 150.623437 L 257.737652 150.623437 L 257.737652 148.123437 L 263.737652 148.123437" stroke="gray" fill="white" stroke-width="1px"></path><path d="M 269.737652 148.123437 L 269.737652 150.623437 L 263.737652 150.623437 L 263.737652 148.123437 L 269.737652 148.123437" stroke="gray" fill="white" stroke-width="1px"></path><path d="M 271.459383 41.839589 L 268.959383 41.839589 L 268.959383 47.839589 L 271.459383 47.839589 L 271.459383 41.839589" stroke="gray" fill="white" stroke-width="1px"></path><path d="M 271.459383 35.839589 L 268.959383 35.839589 L 268.959383 41.839589 L 271.459383 41.839589 L 271.459383 35.839589" stroke="gray" fill="white" stroke-width="1px"></path><path d="M 259.459383 45.338227 L 256.959383 45.338227 L 256.959383 51.338227 L 259.459383 51.338227 L 259.459383 45.338227" stroke="gray" fill="white" stroke-width="1px"></path><path d="M 259.459383 39.338227 L 256.959383 39.338227 L 256.959383 45.338227 L 259.459383 45.338227 L 259.459383 39.338227" stroke="gray" fill="white" stroke-width="1px"></path><path d="M 259.459383 33.338227 L 256.959383 33.338227 L 256.959383 39.338227 L 259.459383 39.338227 L 259.459383 33.338227" stroke="gray" fill="white" stroke-width="1px"></path><path d="M 247.459383 48.836866 L 244.959383 48.836866 L 244.959383 54.836866 L 247.459383 54.836866 L 247.459383 48.836866" stroke="gray" fill="white" stroke-width="1px"></path><path d="M 247.459383 42.836866 L 244.959383 42.836866 L 244.959383 48.836866 L 247.459383 48.836866 L 247.459383 42.836866" stroke="gray" fill="white" stroke-width="1px"></path><path d="M 247.459383 36.836866 L 244.959383 36.836866 L 244.959383 42.836866 L 247.459383 42.836866 L 247.459383 36.836866" stroke="gray" fill="white" stroke-width="1px"></path><path d="M 235.459383 47.235420 L 232.959383 47.235420 L 232.959383 53.235420 L 235.459383 53.235420 L 235.459383 47.235420" stroke="gray" fill="white" stroke-width="1px"></path><path d="M 235.459383 41.235420 L 232.959383 41.235420 L 232.959383 47.235420 L 235.459383 47.235420 L 235.459383 41.235420" stroke="gray" fill="white" stroke-width="1px"></path><path d="M 235.459383 35.235420 L 232.959383 35.235420 L 232.959383 41.235420 L 235.459383 41.235420 L 235.459383 35.235420" stroke="gray" fill="white" stroke-width="1px"></path><path d="M 199.459383 101.033125 L 196.959383 101.033125 L 196.959383 107.033125 L 199.459383 107.033125 L 199.459383 101.033125" stroke="gray" fill="white" stroke-width="1px"></path><path d="M 187.459383 101.033125 L 184.959383 101.033125 L 184.959383 107.033125 L 187.459383 107.033125 L 187.459383 101.033125" stroke="gray" fill="white" stroke-width="1px"></path><path d="M 175.459383 101.033125 L 172.959383 101.033125 L 172.959383 107.033125 L 175.459383 107.033125 L 175.459383 101.033125" stroke="gray" fill="white" stroke-width="1px"></path><path d="M 163.459383 95.033125 L 160.959383 95.033125 L 160.959383 101.033125 L 163.459383 101.033125 L 163.459383 95.033125" stroke="gray" fill="white" stroke-width="1px"></path><path d="M 163.459383 89.033125 L 160.959383 89.033125 L 160.959383 95.033125 L 163.459383 95.033125 L 163.459383 89.033125" stroke="gray" fill="white" stroke-width="1px"></path><path d="M 163.459383 83.033125 L 160.959383 83.033125 L 160.959383 89.033125 L 163.459383 89.033125 L 163.459383 83.033125" stroke="gray" fill="white" stroke-width="1px"></path><path d="M 151.459383 101.033125 L 148.959383 101.033125 L 148.959383 107.033125 L 151.459383 107.033125 L 151.459383 101.033125" stroke="gray" fill="white" stroke-width="1px"></path><path d="M 151.459383 95.033125 L 148.959383 95.033125 L 148.959383 101.033125 L 151.459383 101.033125 L 151.459383 95.033125" stroke="gray" fill="white" stroke-width="1px"></path><path d="M 151.459383 89.033125 L 148.959383 89.033125 L 148.959383 95.033125 L 151.459383 95.033125 L 151.459383 89.033125" stroke="gray" fill="white" stroke-width="1px"></path><path d="M 151.459383 83.033125 L 148.959383 83.033125 L 148.959383 89.033125 L 151.459383 89.033125 L 151.459383 83.033125" stroke="gray" fill="white" stroke-width="1px"></path><path d="M 103.459383 101.033125 L 100.959383 101.033125 L 100.959383 107.033125 L 103.459383 107.033125 L 103.459383 101.033125" stroke="gray" fill="white" stroke-width="1px"></path><path d="M 103.459383 95.033125 L 100.959383 95.033125 L 100.959383 101.033125 L 103.459383 101.033125 L 103.459383 95.033125" stroke="gray" fill="white" stroke-width="1px"></path><path d="M 103.459383 89.033125 L 100.959383 89.033125 L 100.959383 95.033125 L 103.459383 95.033125 L 103.459383 89.033125" stroke="gray" fill="white" stroke-width="1px"></path><path d="M 103.459383 83.033125 L 100.959383 83.033125 L 100.959383 89.033125 L 103.459383 89.033125 L 103.459383 83.033125" stroke="gray" fill="white" stroke-width="1px"></path><path d="M 271.459383 41.839589 L 273.959383 41.839589 L 273.959383 47.839589 L 271.459383 47.839589 L 271.459383 41.839589" stroke="gray" fill="white" stroke-width="1px"></path><path d="M 271.459383 35.839589 L 273.959383 35.839589 L 273.959383 41.839589 L 271.459383 41.839589 L 271.459383 35.839589" stroke="gray" fill="white" stroke-width="1px"></path><path d="M 259.459383 45.338227 L 261.959383 45.338227 L 261.959383 51.338227 L 259.459383 51.338227 L 259.459383 45.338227" stroke="gray" fill="white" stroke-width="1px"></path><path d="M 259.459383 39.338227 L 261.959383 39.338227 L 261.959383 45.338227 L 259.459383 45.338227 L 259.459383 39.338227" stroke="gray" fill="white" stroke-width="1px"></path><path d="M 259.459383 33.338227 L 261.959383 33.338227 L 261.959383 39.338227 L 259.459383 39.338227 L 259.459383 33.338227" stroke="gray" fill="white" stroke-width="1px"></path><path d="M 247.459383 48.836866 L 249.959383 48.836866 L 249.959383 54.836866 L 247.459383 54.836866 L 247.459383 48.836866" stroke="gray" fill="white" stroke-width="1px"></path><path d="M 247.459383 42.836866 L 249.959383 42.836866 L 249.959383 48.836866 L 247.459383 48.836866 L 247.459383 42.836866" stroke="gray" fill="white" stroke-width="1px"></path><path d="M 247.459383 36.836866 L 249.959383 36.836866 L 249.959383 42.836866 L 247.459383 42.836866 L 247.459383 36.836866" stroke="gray" fill="white" stroke-width="1px"></path><path d="M 235.459383 47.235420 L 237.959383 47.235420 L 237.959383 53.235420 L 235.459383 53.235420 L 235.459383 47.235420" stroke="gray" fill="white" stroke-width="1px"></path><path d="M 235.459383 41.235420 L 237.959383 41.235420 L 237.959383 47.235420 L 235.459383 47.235420 L 235.459383 41.235420" stroke="gray" fill="white" stroke-width="1px"></path><path d="M 235.459383 35.235420 L 237.959383 35.235420 L 237.959383 41.235420 L 235.459383 41.235420 L 235.459383 35.235420" stroke="gray" fill="white" stroke-width="1px"></path><path d="M 199.459383 101.033125 L 201.959383 101.033125 L 201.959383 107.033125 L 199.459383 107.033125 L 199.459383 101.033125" stroke="gray" fill="white" stroke-width="1px"></path><path d="M 187.459383 101.033125 L 189.959383 101.033125 L 189.959383 107.033125 L 187.459383 107.033125 L 187.459383 101.033125" stroke="gray" fill="white" stroke-width="1px"></path><path d="M 175.459383 101.033125 L 177.959383 101.033125 L 177.959383 107.033125 L 175.459383 107.033125 L 175.459383 101.033125" stroke="gray" fill="white" stroke-width="1px"></path><path d="M 163.459383 83.033125 L 165.959383 83.033125 L 165.959383 89.033125 L 163.459383 89.033125 L 163.459383 83.033125" stroke="gray" fill="white" stroke-width="1px"></path><path d="M 151.459383 101.033125 L 153.959383 101.033125 L 153.959383 107.033125 L 151.459383 107.033125 L 151.459383 101.033125" stroke="gray" fill="white" stroke-width="1px"></path><path d="M 151.459383 95.033125 L 153.959383 95.033125 L 153.959383 101.033125 L 151.459383 101.033125 L 151.459383 95.033125" stroke="gray" fill="white" stroke-width="1px"></path><path d="M 151.459383 89.033125 L 153.959383 89.033125 L 153.959383 95.033125 L 151.459383 95.033125 L 151.459383 89.033125" stroke="gray" fill="white" stroke-width="1px"></path><path d="M 151.459383 83.033125 L 153.959383 83.033125 L 153.959383 89.033125 L 151.459383 89.033125 L 151.459383 83.033125" stroke="gray" fill="white" stroke-width="1px"></path><path d="M 103.459383 101.033125 L 105.959383 101.033125 L 105.959383 107.033125 L 103.459383 107.033125 L 103.459383 101.033125" stroke="gray" fill="white" stroke-width="1px"></path><path d="M 103.459383 95.033125 L 105.959383 95.033125 L 105.959383 101.033125 L 103.459383 101.033125 L 103.459383 95.033125" stroke="gray" fill="white" stroke-width="1px"></path><path d="M 103.459383 89.033125 L 105.959383 89.033125 L 105.959383 95.033125 L 103.459383 95.033125 L 103.459383 89.033125" stroke="gray" fill="white" stroke-width="1px"></path><path d="M 103.459383 83.033125 L 105.959383 83.033125 L 105.959383 89.033125 L 103.459383 89.033125 L 103.459383 83.033125" stroke="gray" fill="white" stroke-width="1px"></path><path d="M 266.268624 101.263579 L 266.268624 98.763579 L 260.268624 98.763579 L 260.268624 101.263579 L 266.268624 101.263579" stroke="gray" fill="white" stroke-width="1px"></path><path d="M 272.268624 101.263579 L 272.268624 98.763579 L 266.268624 98.763579 L 266.268624 101.263579 L 272.268624 101.263579" stroke="gray" fill="white" stroke-width="1px"></path><path d="M 278.268624 101.263579 L 278.268624 98.763579 L 272.268624 98.763579 L 272.268624 101.263579 L 278.268624 101.263579" stroke="gray" fill="white" stroke-width="1px"></path><path d="M 263.004554 89.263579 L 263.004554 86.763579 L 257.004554 86.763579 L 257.004554 89.263579 L 263.004554 89.263579" stroke="gray" fill="white" stroke-width="1px"></path><path d="M 269.004554 89.263579 L 269.004554 86.763579 L 263.004554 86.763579 L 263.004554 89.263579 L 269.004554 89.263579" stroke="gray" fill="white" stroke-width="1px"></path><path d="M 275.004554 89.263579 L 275.004554 86.763579 L 269.004554 86.763579 L 269.004554 89.263579 L 275.004554 89.263579" stroke="gray" fill="white" stroke-width="1px"></path><path d="M 259.740485 77.263579 L 259.740485 74.763579 L 253.740485 74.763579 L 253.740485 77.263579 L 259.740485 77.263579" stroke="gray" fill="white" stroke-width="1px"></path><path d="M 265.740485 77.263579 L 265.740485 74.763579 L 259.740485 74.763579 L 259.740485 77.263579 L 265.740485 77.263579" stroke="gray" fill="white" stroke-width="1px"></path><path d="M 271.740485 77.263579 L 271.740485 74.763579 L 265.740485 74.763579 L 265.740485 77.263579 L 271.740485 77.263579" stroke="gray" fill="white" stroke-width="1px"></path><path d="M 277.740485 77.263579 L 277.740485 74.763579 L 271.740485 74.763579 L 271.740485 77.263579 L 277.740485 77.263579" stroke="gray" fill="white" stroke-width="1px"></path><path d="M 222.130910 101.263579 L 222.130910 98.763579 L 216.130910 98.763579 L 216.130910 101.263579 L 222.130910 101.263579" stroke="gray" fill="white" stroke-width="1px"></path><path d="M 228.130910 101.263579 L 228.130910 98.763579 L 222.130910 98.763579 L 222.130910 101.263579 L 228.130910 101.263579" stroke="gray" fill="white" stroke-width="1px"></path><path d="M 221.620415 89.263579 L 221.620415 86.763579 L 215.620415 86.763579 L 215.620415 89.263579 L 221.620415 89.263579" stroke="gray" fill="white" stroke-width="1px"></path><path d="M 227.620415 89.263579 L 227.620415 86.763579 L 221.620415 86.763579 L 221.620415 89.263579 L 227.620415 89.263579" stroke="gray" fill="white" stroke-width="1px"></path><path d="M 22.000000 101.263579 L 22.000000 98.763579 L 16.000000 98.763579 L 16.000000 101.263579 L 22.000000 101.263579" stroke="gray" fill="white" stroke-width="1px"></path><path d="M 28.000000 101.263579 L 28.000000 98.763579 L 22.000000 98.763579 L 22.000000 101.263579 L 28.000000 101.263579" stroke="gray" fill="white" stroke-width="1px"></path><path d="M 34.000000 101.263579 L 34.000000 98.763579 L 28.000000 98.763579 L 28.000000 101.263579 L 34.000000 101.263579" stroke="gray" fill="white" stroke-width="1px"></path><path d="M 40.000000 101.263579 L 40.000000 98.763579 L 34.000000 98.763579 L 34.000000 101.263579 L 40.000000 101.263579" stroke="gray" fill="white" stroke-width="1px"></path><path d="M 46.000000 101.263579 L 46.000000 98.763579 L 40.000000 98.763579 L 40.000000 101.263579 L 46.000000 101.263579" stroke="gray" fill="white" stroke-width="1px"></path><path d="M 52.000000 101.263579 L 52.000000 98.763579 L 46.000000 98.763579 L 46.000000 101.263579 L 52.000000 101.263579" stroke="gray" fill="white" stroke-width="1px"></path><path d="M 58.000000 101.263579 L 58.000000 98.763579 L 52.000000 98.763579 L 52.000000 101.263579 L 58.000000 101.263579" stroke="gray" fill="white" stroke-width="1px"></path><path d="M 22.000000 89.263579 L 22.000000 86.763579 L 16.000000 86.763579 L 16.000000 89.263579 L 22.000000 89.263579" stroke="gray" fill="white" stroke-width="1px"></path><path d="M 28.000000 89.263579 L 28.000000 86.763579 L 22.000000 86.763579 L 22.000000 89.263579 L 28.000000 89.263579" stroke="gray" fill="white" stroke-width="1px"></path><path d="M 34.000000 89.263579 L 34.000000 86.763579 L 28.000000 86.763579 L 28.000000 89.263579 L 34.000000 89.263579" stroke="gray" fill="white" stroke-width="1px"></path><path d="M 40.000000 89.263579 L 40.000000 86.763579 L 34.000000 86.763579 L 34.000000 89.263579 L 40.000000 89.263579" stroke="gray" fill="white" stroke-width="1px"></path><path d="M 46.000000 89.263579 L 46.000000 86.763579 L 40.000000 86.763579 L 40.000000 89.263579 L 46.000000 89.263579" stroke="gray" fill="white" stroke-width="1px"></path><path d="M 52.000000 89.263579 L 52.000000 86.763579 L 46.000000 86.763579 L 46.000000 89.263579 L 52.000000 89.263579" stroke="gray" fill="white" stroke-width="1px"></path><path d="M 58.000000 89.263579 L 58.000000 86.763579 L 52.000000 86.763579 L 52.000000 89.263579 L 58.000000 89.263579" stroke="gray" fill="white" stroke-width="1px"></path><path d="M 22.000000 53.263579 L 22.000000 50.763579 L 16.000000 50.763579 L 16.000000 53.263579 L 22.000000 53.263579" stroke="gray" fill="white" stroke-width="1px"></path><path d="M 28.000000 53.263579 L 28.000000 50.763579 L 22.000000 50.763579 L 22.000000 53.263579 L 28.000000 53.263579" stroke="gray" fill="white" stroke-width="1px"></path><path d="M 34.000000 53.263579 L 34.000000 50.763579 L 28.000000 50.763579 L 28.000000 53.263579 L 34.000000 53.263579" stroke="gray" fill="white" stroke-width="1px"></path><path d="M 40.000000 53.263579 L 40.000000 50.763579 L 34.000000 50.763579 L 34.000000 53.263579 L 40.000000 53.263579" stroke="gray" fill="white" stroke-width="1px"></path><path d="M 22.000000 41.263579 L 22.000000 38.763579 L 16.000000 38.763579 L 16.000000 41.263579 L 22.000000 41.263579" stroke="gray" fill="white" stroke-width="1px"></path><path d="M 28.000000 41.263579 L 28.000000 38.763579 L 22.000000 38.763579 L 22.000000 41.263579 L 28.000000 41.263579" stroke="gray" fill="white" stroke-width="1px"></path><path d="M 34.000000 41.263579 L 34.000000 38.763579 L 28.000000 38.763579 L 28.000000 41.263579 L 34.000000 41.263579" stroke="gray" fill="white" stroke-width="1px"></path><path d="M 40.000000 41.263579 L 40.000000 38.763579 L 34.000000 38.763579 L 34.000000 41.263579 L 40.000000 41.263579" stroke="gray" fill="white" stroke-width="1px"></path><path d="M 22.000000 29.263579 L 22.000000 26.763579 L 16.000000 26.763579 L 16.000000 29.263579 L 22.000000 29.263579" stroke="gray" fill="white" stroke-width="1px"></path><path d="M 28.000000 29.263579 L 28.000000 26.763579 L 22.000000 26.763579 L 22.000000 29.263579 L 28.000000 29.263579" stroke="gray" fill="white" stroke-width="1px"></path><path d="M 34.000000 29.263579 L 34.000000 26.763579 L 28.000000 26.763579 L 28.000000 29.263579 L 34.000000 29.263579" stroke="gray" fill="white" stroke-width="1px"></path><path d="M 40.000000 29.263579 L 40.000000 26.763579 L 34.000000 26.763579 L 34.000000 29.263579 L 40.000000 29.263579" stroke="gray" fill="white" stroke-width="1px"></path><path d="M 22.000000 17.263579 L 22.000000 14.763579 L 16.000000 14.763579 L 16.000000 17.263579 L 22.000000 17.263579" stroke="gray" fill="white" stroke-width="1px"></path><path d="M 28.000000 17.263579 L 28.000000 14.763579 L 22.000000 14.763579 L 22.000000 17.263579 L 28.000000 17.263579" stroke="gray" fill="white" stroke-width="1px"></path><path d="M 34.000000 17.263579 L 34.000000 14.763579 L 28.000000 14.763579 L 28.000000 17.263579 L 34.000000 17.263579" stroke="gray" fill="white" stroke-width="1px"></path><path d="M 40.000000 17.263579 L 40.000000 14.763579 L 34.000000 14.763579 L 34.000000 17.263579 L 40.000000 17.263579" stroke="gray" fill="white" stroke-width="1px"></path><path d="M 266.268624 101.263579 L 266.268624 103.763579 L 260.268624 103.763579 L 260.268624 101.263579 L 266.268624 101.263579" stroke="gray" fill="white" stroke-width="1px"></path><path d="M 272.268624 101.263579 L 272.268624 103.763579 L 266.268624 103.763579 L 266.268624 101.263579 L 272.268624 101.263579" stroke="gray" fill="white" stroke-width="1px"></path><path d="M 278.268624 101.263579 L 278.268624 103.763579 L 272.268624 103.763579 L 272.268624 101.263579 L 278.268624 101.263579" stroke="gray" fill="white" stroke-width="1px"></path><path d="M 263.004554 89.263579 L 263.004554 91.763579 L 257.004554 91.763579 L 257.004554 89.263579 L 263.004554 89.263579" stroke="gray" fill="white" stroke-width="1px"></path><path d="M 269.004554 89.263579 L 269.004554 91.763579 L 263.004554 91.763579 L 263.004554 89.263579 L 269.004554 89.263579" stroke="gray" fill="white" stroke-width="1px"></path><path d="M 275.004554 89.263579 L 275.004554 91.763579 L 269.004554 91.763579 L 269.004554 89.263579 L 275.004554 89.263579" stroke="gray" fill="white" stroke-width="1px"></path><path d="M 259.740485 77.263579 L 259.740485 79.763579 L 253.740485 79.763579 L 253.740485 77.263579 L 259.740485 77.263579" stroke="gray" fill="white" stroke-width="1px"></path><path d="M 265.740485 77.263579 L 265.740485 79.763579 L 259.740485 79.763579 L 259.740485 77.263579 L 265.740485 77.263579" stroke="gray" fill="white" stroke-width="1px"></path><path d="M 271.740485 77.263579 L 271.740485 79.763579 L 265.740485 79.763579 L 265.740485 77.263579 L 271.740485 77.263579" stroke="gray" fill="white" stroke-width="1px"></path><path d="M 277.740485 77.263579 L 277.740485 79.763579 L 271.740485 79.763579 L 271.740485 77.263579 L 277.740485 77.263579" stroke="gray" fill="white" stroke-width="1px"></path><path d="M 222.130910 101.263579 L 222.130910 103.763579 L 216.130910 103.763579 L 216.130910 101.263579 L 222.130910 101.263579" stroke="gray" fill="white" stroke-width="1px"></path><path d="M 228.130910 101.263579 L 228.130910 103.763579 L 222.130910 103.763579 L 222.130910 101.263579 L 228.130910 101.263579" stroke="gray" fill="white" stroke-width="1px"></path><path d="M 221.620415 89.263579 L 221.620415 91.763579 L 215.620415 91.763579 L 215.620415 89.263579 L 221.620415 89.263579" stroke="gray" fill="white" stroke-width="1px"></path><path d="M 227.620415 89.263579 L 227.620415 91.763579 L 221.620415 91.763579 L 221.620415 89.263579 L 227.620415 89.263579" stroke="gray" fill="white" stroke-width="1px"></path><path d="M 22.000000 101.263579 L 22.000000 103.763579 L 16.000000 103.763579 L 16.000000 101.263579 L 22.000000 101.263579" stroke="gray" fill="white" stroke-width="1px"></path><path d="M 28.000000 101.263579 L 28.000000 103.763579 L 22.000000 103.763579 L 22.000000 101.263579 L 28.000000 101.263579" stroke="gray" fill="white" stroke-width="1px"></path><path d="M 34.000000 101.263579 L 34.000000 103.763579 L 28.000000 103.763579 L 28.000000 101.263579 L 34.000000 101.263579" stroke="gray" fill="white" stroke-width="1px"></path><path d="M 40.000000 101.263579 L 40.000000 103.763579 L 34.000000 103.763579 L 34.000000 101.263579 L 40.000000 101.263579" stroke="gray" fill="white" stroke-width="1px"></path><path d="M 46.000000 101.263579 L 46.000000 103.763579 L 40.000000 103.763579 L 40.000000 101.263579 L 46.000000 101.263579" stroke="gray" fill="white" stroke-width="1px"></path><path d="M 52.000000 101.263579 L 52.000000 103.763579 L 46.000000 103.763579 L 46.000000 101.263579 L 52.000000 101.263579" stroke="gray" fill="white" stroke-width="1px"></path><path d="M 58.000000 101.263579 L 58.000000 103.763579 L 52.000000 103.763579 L 52.000000 101.263579 L 58.000000 101.263579" stroke="gray" fill="white" stroke-width="1px"></path><path d="M 22.000000 89.263579 L 22.000000 91.763579 L 16.000000 91.763579 L 16.000000 89.263579 L 22.000000 89.263579" stroke="gray" fill="white" stroke-width="1px"></path><path d="M 28.000000 89.263579 L 28.000000 91.763579 L 22.000000 91.763579 L 22.000000 89.263579 L 28.000000 89.263579" stroke="gray" fill="white" stroke-width="1px"></path><path d="M 34.000000 89.263579 L 34.000000 91.763579 L 28.000000 91.763579 L 28.000000 89.263579 L 34.000000 89.263579" stroke="gray" fill="white" stroke-width="1px"></path><path d="M 40.000000 89.263579 L 40.000000 91.763579 L 34.000000 91.763579 L 34.000000 89.263579 L 40.000000 89.263579" stroke="gray" fill="white" stroke-width="1px"></path><path d="M 46.000000 89.263579 L 46.000000 91.763579 L 40.000000 91.763579 L 40.000000 89.263579 L 46.000000 89.263579" stroke="gray" fill="white" stroke-width="1px"></path><path d="M 52.000000 89.263579 L 52.000000 91.763579 L 46.000000 91.763579 L 46.000000 89.263579 L 52.000000 89.263579" stroke="gray" fill="white" stroke-width="1px"></path><path d="M 58.000000 89.263579 L 58.000000 91.763579 L 52.000000 91.763579 L 52.000000 89.263579 L 58.000000 89.263579" stroke="gray" fill="white" stroke-width="1px"></path><path d="M 28.000000 53.263579 L 28.000000 55.763579 L 22.000000 55.763579 L 22.000000 53.263579 L 28.000000 53.263579" stroke="gray" fill="white" stroke-width="1px"></path><path d="M 34.000000 53.263579 L 34.000000 55.763579 L 28.000000 55.763579 L 28.000000 53.263579 L 34.000000 53.263579" stroke="gray" fill="white" stroke-width="1px"></path><path d="M 40.000000 53.263579 L 40.000000 55.763579 L 34.000000 55.763579 L 34.000000 53.263579 L 40.000000 53.263579" stroke="gray" fill="white" stroke-width="1px"></path><path d="M 22.000000 41.263579 L 22.000000 43.763579 L 16.000000 43.763579 L 16.000000 41.263579 L 22.000000 41.263579" stroke="gray" fill="white" stroke-width="1px"></path><path d="M 28.000000 41.263579 L 28.000000 43.763579 L 22.000000 43.763579 L 22.000000 41.263579 L 28.000000 41.263579" stroke="gray" fill="white" stroke-width="1px"></path><path d="M 34.000000 41.263579 L 34.000000 43.763579 L 28.000000 43.763579 L 28.000000 41.263579 L 34.000000 41.263579" stroke="gray" fill="white" stroke-width="1px"></path><path d="M 40.000000 41.263579 L 40.000000 43.763579 L 34.000000 43.763579 L 34.000000 41.263579 L 40.000000 41.263579" stroke="gray" fill="white" stroke-width="1px"></path><path d="M 22.000000 29.263579 L 22.000000 31.763579 L 16.000000 31.763579 L 16.000000 29.263579 L 22.000000 29.263579" stroke="gray" fill="white" stroke-width="1px"></path><path d="M 28.000000 29.263579 L 28.000000 31.763579 L 22.000000 31.763579 L 22.000000 29.263579 L 28.000000 29.263579" stroke="gray" fill="white" stroke-width="1px"></path><path d="M 34.000000 29.263579 L 34.000000 31.763579 L 28.000000 31.763579 L 28.000000 29.263579 L 34.000000 29.263579" stroke="gray" fill="white" stroke-width="1px"></path><path d="M 40.000000 29.263579 L 40.000000 31.763579 L 34.000000 31.763579 L 34.000000 29.263579 L 40.000000 29.263579" stroke="gray" fill="white" stroke-width="1px"></path><path d="M 22.000000 17.263579 L 22.000000 19.763579 L 16.000000 19.763579 L 16.000000 17.263579 L 22.000000 17.263579" stroke="gray" fill="white" stroke-width="1px"></path><path d="M 28.000000 17.263579 L 28.000000 19.763579 L 22.000000 19.763579 L 22.000000 17.263579 L 28.000000 17.263579" stroke="gray" fill="white" stroke-width="1px"></path><path d="M 34.000000 17.263579 L 34.000000 19.763579 L 28.000000 19.763579 L 28.000000 17.263579 L 34.000000 17.263579" stroke="gray" fill="white" stroke-width="1px"></path><path d="M 40.000000 17.263579 L 40.000000 19.763579 L 34.000000 19.763579 L 34.000000 17.263579 L 40.000000 17.263579" stroke="gray" fill="white" stroke-width="1px"></path></g><g id="crv-base"><path d="M 221.371570 123.090312 L 221.371570 169.241094 L 120.000633 169.241094 L 120.000633 156.444206 L 126.051258 156.444206 L 126.051258 128.832500 L 123.590320 128.832500 L 123.590320 125.551250 L 126.051258 125.551250 L 126.051258 123.858132 L 91.315945 123.858125 L 91.315945 134.738750 L 64.258762 134.738750 L 64.258762 123.687497 L 10.000000 123.687497 L 10.000000 226.180625 L 64.258758 226.180625 L 64.258758 192.357500 L 91.315945 192.357500 L 91.315945 220.123437 L 283.459383 220.123437 L 283.459383 123.090312 L 221.371570 123.090312" stroke="black" fill="none" stroke-width="1px"></path><path d="M 221.371570 10.000000 L 221.371570 56.150781 L 120.000633 56.150781 L 120.000633 43.353893 L 126.051258 43.353893 L 126.051258 15.742187 L 123.590320 15.742187 L 123.590320 12.460937 L 126.051258 12.460937 L 126.051258 10.767819 L 91.315945 10.767812 L 91.315945 21.648438 L 64.258762 21.648438 L 64.258762 10.597185 L 10.000000 10.597185 L 10.000000 113.090312 L 64.258758 113.090312 L 64.258758 79.267187 L 91.315945 79.267187 L 91.315945 107.033125 L 283.459383 107.033125 L 283.459383 10.000000 L 221.371570 10.000000" stroke="black" fill="none" stroke-width="1px"></path><path d="M 10.387195 156.559062 L 10.387195 154.590312 L 12.355945 154.590312 L 12.355945 156.559062 L 10.387195 156.559062" stroke="black" fill="white" stroke-width="1px"></path><path d="M 10.387195 43.468750 L 10.387195 41.500000 L 12.355945 41.500000 L 12.355945 43.468750 L 10.387195 43.468750" stroke="black" fill="white" stroke-width="1px"></path><path d="M 10.387195 188.059062 L 10.387195 186.090312 L 12.355945 186.090312 L 12.355945 188.059062 L 10.387195 188.059062" stroke="black" fill="white" stroke-width="1px"></path><path d="M 10.387195 74.968750 L 10.387195 73.000000 L 12.355945 73.000000 L 12.355945 74.968750 L 10.387195 74.968750" stroke="black" fill="white" stroke-width="1px"></path><path d="M 10.387195 219.559062 L 10.387195 217.590312 L 12.355945 217.590312 L 12.355945 219.559062 L 10.387195 219.559062" stroke="black" fill="white" stroke-width="1px"></path><path d="M 10.387195 106.468750 L 10.387195 104.500000 L 12.355945 104.500000 L 12.355945 106.468750 L 10.387195 106.468750" stroke="black" fill="white" stroke-width="1px"></path><path d="M 60.754383 128.340312 L 60.754383 125.387187 L 63.871570 125.387187 L 63.871570 128.340312 L 60.754383 128.340312" stroke="black" fill="white" stroke-width="1px"></path><path d="M 60.754383 15.250000 L 60.754383 12.296875 L 63.871570 12.296875 L 63.871570 15.250000 L 60.754383 15.250000" stroke="black" fill="white" stroke-width="1px"></path><path d="M 280.598133 219.230937 L 280.598133 217.262187 L 282.566883 217.262187 L 282.566883 219.230937 L 280.598133 219.230937" stroke="black" fill="white" stroke-width="1px"></path><path d="M 280.598133 106.140625 L 280.598133 104.171875 L 282.566883 104.171875 L 282.566883 106.140625 L 280.598133 106.140625" stroke="black" fill="white" stroke-width="1px"></path><path d="M 280.598133 188.059062 L 280.598133 186.090312 L 282.566883 186.090312 L 282.566883 188.059062 L 280.598133 188.059062" stroke="black" fill="white" stroke-width="1px"></path><path d="M 280.598133 74.968750 L 280.598133 73.000000 L 282.566883 73.000000 L 282.566883 74.968750 L 280.598133 74.968750" stroke="black" fill="white" stroke-width="1px"></path><path d="M 280.598133 156.559050 L 280.598133 154.590300 L 282.566883 154.590300 L 282.566883 156.559050 L 280.598133 156.559050" stroke="black" fill="white" stroke-width="1px"></path><path d="M 280.598133 43.468737 L 280.598133 41.499987 L 282.566883 41.499987 L 282.566883 43.468737 L 280.598133 43.468737" stroke="black" fill="white" stroke-width="1px"></path><path d="M 248.605945 127.355937 L 248.605945 123.418437 L 251.887195 123.418437 L 251.887195 127.355937 L 248.605945 127.355937" stroke="black" fill="white" stroke-width="1px"></path><path d="M 248.605945 14.265625 L 248.605945 10.328125 L 251.887195 10.328125 L 251.887195 14.265625 L 248.605945 14.265625" stroke="black" fill="white" stroke-width="1px"></path><path d="M 248.605945 157.871562 L 248.605945 153.934062 L 251.887195 153.934062 L 251.887195 157.871562 L 248.605945 157.871562" stroke="black" fill="white" stroke-width="1px"></path><path d="M 248.605945 44.781250 L 248.605945 40.843750 L 251.887195 40.843750 L 251.887195 44.781250 L 248.605945 44.781250" stroke="black" fill="white" stroke-width="1px"></path><path d="M 248.605945 189.043437 L 248.605945 185.105937 L 251.887195 185.105937 L 251.887195 189.043437 L 248.605945 189.043437" stroke="black" fill="white" stroke-width="1px"></path><path d="M 248.605945 75.953125 L 248.605945 72.015625 L 251.887195 72.015625 L 251.887195 75.953125 L 248.605945 75.953125" stroke="black" fill="white" stroke-width="1px"></path><path d="M 248.934070 219.230937 L 248.934070 216.277812 L 251.887195 216.277812 L 251.887195 219.230937 L 248.934070 219.230937" stroke="black" fill="white" stroke-width="1px"></path><path d="M 248.934070 106.140625 L 248.934070 103.187500 L 251.887195 103.187500 L 251.887195 106.140625 L 248.934070 106.140625" stroke="black" fill="white" stroke-width="1px"></path><path d="M 218.090320 189.043437 L 218.090320 185.105937 L 221.371570 185.105937 L 221.371570 189.043437 L 218.090320 189.043437" stroke="black" fill="white" stroke-width="1px"></path><path d="M 218.090320 75.953125 L 218.090320 72.015625 L 221.371570 72.015625 L 221.371570 75.953125 L 218.090320 75.953125" stroke="black" fill="white" stroke-width="1px"></path><path d="M 218.254383 219.230937 L 218.254383 216.277812 L 221.207508 216.277812 L 221.207508 219.230937 L 218.254383 219.230937" stroke="black" fill="white" stroke-width="1px"></path><path d="M 218.254383 106.140625 L 218.254383 103.187500 L 221.207508 103.187500 L 221.207508 106.140625 L 218.254383 106.140625" stroke="black" fill="white" stroke-width="1px"></path><path d="M 186.590320 189.043437 L 186.590320 185.105937 L 189.871570 185.105937 L 189.871570 189.043437 L 186.590320 189.043437" stroke="black" fill="white" stroke-width="1px"></path><path d="M 186.590320 75.953125 L 186.590320 72.015625 L 189.871570 72.015625 L 189.871570 75.953125 L 186.590320 75.953125" stroke="black" fill="white" stroke-width="1px"></path><path d="M 186.754383 219.230937 L 186.754383 216.277812 L 189.707508 216.277812 L 189.707508 219.230937 L 186.754383 219.230937" stroke="black" fill="white" stroke-width="1px"></path><path d="M 186.754383 106.140625 L 186.754383 103.187500 L 189.707508 103.187500 L 189.707508 106.140625 L 186.754383 106.140625" stroke="black" fill="white" stroke-width="1px"></path><path d="M 155.090320 189.043437 L 155.090320 185.105937 L 158.371570 185.105937 L 158.371570 189.043437 L 155.090320 189.043437" stroke="black" fill="white" stroke-width="1px"></path><path d="M 155.090320 75.953125 L 155.090320 72.015625 L 158.371570 72.015625 L 158.371570 75.953125 L 155.090320 75.953125" stroke="black" fill="white" stroke-width="1px"></path><path d="M 155.254383 219.230937 L 155.254383 216.277812 L 158.207508 216.277812 L 158.207508 219.230937 L 155.254383 219.230937" stroke="black" fill="white" stroke-width="1px"></path><path d="M 155.254383 106.140625 L 155.254383 103.187500 L 158.207508 103.187500 L 158.207508 106.140625 L 155.254383 106.140625" stroke="black" fill="white" stroke-width="1px"></path><path d="M 123.590320 189.043437 L 123.590320 185.105937 L 126.871570 185.105937 L 126.871570 189.043437 L 123.590320 189.043437" stroke="black" fill="white" stroke-width="1px"></path><path d="M 123.590320 75.953125 L 123.590320 72.015625 L 126.871570 72.015625 L 126.871570 75.953125 L 123.590320 75.953125" stroke="black" fill="white" stroke-width="1px"></path><path d="M 123.754383 219.230937 L 123.754383 216.277812 L 126.707508 216.277812 L 126.707508 219.230937 L 123.754383 219.230937" stroke="black" fill="white" stroke-width="1px"></path><path d="M 123.754383 106.140625 L 123.754383 103.187500 L 126.707508 103.187500 L 126.707508 106.140625 L 123.754383 106.140625" stroke="black" fill="white" stroke-width="1px"></path><path d="M 92.090320 157.543437 L 92.090320 153.605937 L 95.371570 153.605937 L 95.371570 157.543437 L 92.090320 157.543437" stroke="black" fill="white" stroke-width="1px"></path><path d="M 92.090320 44.453125 L 92.090320 40.515625 L 95.371570 40.515625 L 95.371570 44.453125 L 92.090320 44.453125" stroke="black" fill="white" stroke-width="1px"></path><path d="M 92.090320 189.043437 L 92.090320 185.105937 L 95.371570 185.105937 L 95.371570 189.043437 L 92.090320 189.043437" stroke="black" fill="white" stroke-width="1px"></path><path d="M 92.090320 75.953125 L 92.090320 72.015625 L 95.371570 72.015625 L 95.371570 75.953125 L 92.090320 75.953125" stroke="black" fill="white" stroke-width="1px"></path><path d="M 92.090320 128.504375 L 92.090320 125.551250 L 95.207508 125.551250 L 95.207508 128.504375 L 92.090320 128.504375" stroke="black" fill="white" stroke-width="1px"></path><path d="M 92.090320 15.414062 L 92.090320 12.460937 L 95.207508 12.460937 L 95.207508 15.414062 L 92.090320 15.414062" stroke="black" fill="white" stroke-width="1px"></path><path d="M 60.590320 157.215312 L 60.590320 153.934062 L 63.871570 153.934062 L 63.871570 157.215312 L 60.590320 157.215312" stroke="black" fill="white" stroke-width="1px"></path><path d="M 60.590320 44.125000 L 60.590320 40.843750 L 63.871570 40.843750 L 63.871570 44.125000 L 60.590320 44.125000" stroke="black" fill="white" stroke-width="1px"></path><path d="M 60.754383 219.230937 L 60.754383 216.277812 L 63.871570 216.277812 L 63.871570 219.230937 L 60.754383 219.230937" stroke="black" fill="white" stroke-width="1px"></path><path d="M 60.754383 106.140625 L 60.754383 103.187500 L 63.871570 103.187500 L 63.871570 106.140625 L 60.754383 106.140625" stroke="black" fill="white" stroke-width="1px"></path><path d="M 30.074695 128.504375 L 30.074695 125.223125 L 33.027820 125.223125 L 33.027820 128.504375 L 30.074695 128.504375" stroke="black" fill="white" stroke-width="1px"></path><path d="M 30.074695 15.414062 L 30.074695 12.132812 L 33.027820 12.132812 L 33.027820 15.414062 L 30.074695 15.414062" stroke="black" fill="white" stroke-width="1px"></path><path d="M 30.074695 157.215312 L 30.074695 153.934062 L 33.355945 153.934062 L 33.355945 157.215312 L 30.074695 157.215312" stroke="black" fill="white" stroke-width="1px"></path><path d="M 30.074695 44.125000 L 30.074695 40.843750 L 33.355945 40.843750 L 33.355945 44.125000 L 30.074695 44.125000" stroke="black" fill="white" stroke-width="1px"></path><path d="M 30.074695 188.715312 L 30.074695 185.434062 L 33.355945 185.434062 L 33.355945 188.715312 L 30.074695 188.715312" stroke="black" fill="white" stroke-width="1px"></path><path d="M 30.074695 75.625000 L 30.074695 72.343750 L 33.355945 72.343750 L 33.355945 75.625000 L 30.074695 75.625000" stroke="black" fill="white" stroke-width="1px"></path><path d="M 30.074695 219.230937 L 30.074695 216.277812 L 33.027820 216.277812 L 33.027820 219.230937 L 30.074695 219.230937" stroke="black" fill="white" stroke-width="1px"></path><path d="M 30.074695 106.140625 L 30.074695 103.187500 L 33.027820 103.187500 L 33.027820 106.140625 L 30.074695 106.140625" stroke="black" fill="white" stroke-width="1px"></path><path d="M 10.387195 127.191875 L 10.387195 125.223125 L 12.355945 125.223125 L 12.355945 127.191875 L 10.387195 127.191875" stroke="black" fill="white" stroke-width="1px"></path><path d="M 10.387195 14.101562 L 10.387195 12.132812 L 12.355945 12.132812 L 12.355945 14.101562 L 10.387195 14.101562" stroke="black" fill="white" stroke-width="1px"></path><path d="M 60.590320 189.863750 L 60.590320 185.434062 L 63.871570 185.434062 L 63.871570 188.715312 L 62.230945 188.715312 L 62.230945 189.863750 L 60.590320 189.863750" stroke="black" fill="white" stroke-width="1px"></path><path d="M 60.590320 76.773437 L 60.590320 72.343750 L 63.871570 72.343750 L 63.871570 75.625000 L 62.230945 75.625000 L 62.230945 76.773437 L 60.590320 76.773437" stroke="black" fill="white" stroke-width="1px"></path></g></svg>