<svg width="293.459383" height="236.180625" xmlns="http://www.w3.org/2000/svg" xmlns:xlink="http://www.w3.org/1999/xlink" version="1.1"><g id="crv-background"><path d="M 221.371570 123.090312 L 221.371570 169.241094 L 120.000633 169.241094 L 120.000633 156.444206 L 126.051258 156.444206 L 126.051258 128.832500 L 123.590320 128.832500 L 123.590320 125.551250 L 126.051258 125.551250 L 126.051258 123.858132 L 91.315945 123.858125 L 91.315945 134.738750 L 64.258762 134.738750 L 64.258762 123.687497 L 10.000000 123.687497 L 10.000000 226.180625 L 64.258758 226.180625 L 64.258758 192.357500 L 91.315945 192.357500 L 91.315945 220.123437 L 283.459383 220.123437 L 283.459383 123.090312 L 221.371570 123.090312" stroke="none" fill="white" stroke-width="1px"></path><path d="M 221.371570 10.000000 L 221.371570 56.150781 L 120.000633 56.150781 L 120.000633 43.353893 L 126.051258 43.353893 L 126.051258 15.742187 L 123.590320 15.742187 L 123.590320 12.460937 L 126.051258 12.460937 L 126.051258 10.767819 L 91.315945 10.767812 L 91.315945 21.648438 L 64.258762 21.648438 L 64.258762 10.597185 L 10.000000 10.597185 L 10.000000 113.090312 L 64.258758 113.090312 L 64.258758 79.267187 L 91.315945 79.267187 L 91.315945 107.033125 L 283.459383 107.033125 L 283.459383 10.000000 L 221.371570 10.000000" stroke="none" fill="white" stroke-width="1px"></path></g><g id="crv-nbhd"><path d="M 221.737654 10.000004 L 221.737654 33.697614 L 221.737654 57.395225 L 224.439512 61.593231 L 227.141370 65.791237 L 231.204833 67.624799 L 235.268295 69.458361 L 259.363839 49.639874 L 283.459383 29.821387 L 283.459383 19.910694 L 283.459382 10.000000 L 252.598525 10.000002 L 221.737654 10.000004" stroke="#DD2222" fill="none" stroke-width="1px"></path><path d="M 283.459383 107.033125 L 283.459383 68.427256 L 283.459383 29.821387 L 259.363839 49.639874 L 235.268295 69.458361 L 242.054749 88.245743 L 248.841203 107.033125 L 266.150289 107.033125 L 283.459383 107.033125" stroke="#DD2222" fill="none" stroke-width="1px"></path><path d="M 178.214574 94.149852 L 177.687815 100.591489 L 177.161056 107.033125 L 213.001129 107.033125 L 248.841203 107.033125 L 242.054749 88.245743 L 235.268295 69.458361 L 231.204833 67.624799 L 227.141370 65.791237 L 224.439512 67.357269 L 221.737654 68.923302 L 221.737654 74.037316 L 221.737654 79.151330 L 212.914504 79.151330 L 204.091354 79.151330 L 191.152964 86.650591 L 178.214574 94.149852" stroke="#DD2222" fill="none" stroke-width="1px"></path><path d="M 113.356651 107.033125 L 145.258853 107.033125 L 177.161056 107.033125 L 177.687815 100.591489 L 178.214574 94.149852 L 175.297757 86.650591 L 172.380939 79.151329 L 146.986155 79.151329 L 121.591371 79.151328 L 117.474011 93.092227 L 113.356651 107.033125" stroke="#DD2222" fill="none" stroke-width="1px"></path><path d="M 121.591371 79.151328 L 106.453658 79.151328 L 91.315945 79.151327 L 91.315945 93.092226 L 91.315945 107.033125 L 102.336298 107.033125 L 113.356651 107.033125 L 117.474010 93.092230 L 121.591371 79.151328" stroke="#DD2222" fill="none" stroke-width="1px"></path><path d="M 64.258758 113.090312 L 64.258758 92.158313 L 64.258758 71.226314 L 63.192003 64.198621 L 62.125248 57.170927 L 36.062624 56.298526 L 10.000000 55.426126 L 10.000000 84.258219 L 10.000000 113.090312 L 37.129269 113.090312 L 64.258758 113.090312" stroke="#DD2222" fill="none" stroke-width="1px"></path><path d="M 10.000000 10.597184 L 10.000000 33.011655 L 10.000000 55.426126 L 36.062624 56.298526 L 62.125248 57.170927 L 63.192003 55.542070 L 64.258758 53.913212 L 64.258758 32.255199 L 64.258758 10.597185 L 37.129385 10.597185 L 10.000000 10.597184" stroke="#DD2222" fill="none" stroke-width="1px"></path><path d="M 10.000000 123.687497 L 10.000000 145.211821 L 10.000000 166.736146 L 37.129379 168.278375 L 64.258758 169.820603 L 64.258758 169.530848 L 64.258758 169.241094 L 64.258758 146.464296 L 64.258758 123.687497 L 37.129385 123.687497 L 10.000000 123.687497" stroke="#DD2222" fill="none" stroke-width="1px"></path><path d="M 10.000000 166.736146 L 10.000000 196.458386 L 10.000000 226.180625 L 37.129381 226.180625 L 64.258762 226.180625 L 64.258762 198.000614 L 64.258758 169.820603 L 37.129385 168.278375 L 10.000000 166.736146" stroke="#DD2222" fill="none" stroke-width="1px"></path><path d="M 141.857142 192.043444 L 116.586543 192.043444 L 91.315945 192.043444 L 91.315945 206.083441 L 91.315945 220.123437 L 122.612035 220.123437 L 153.908125 220.123437 L 147.882633 206.083441 L 141.857142 192.043444" stroke="#DD2222" fill="none" stroke-width="1px"></path><path d="M 181.250788 192.043444 L 161.553965 192.043444 L 141.857142 192.043444 L 147.882633 206.083441 L 153.908125 220.123437 L 166.857277 220.123437 L 179.806430 220.123437 L 180.528609 206.083441 L 181.250788 192.043444" stroke="#DD2222" fill="none" stroke-width="1px"></path><path d="M 215.653005 192.043444 L 198.451897 192.043444 L 181.250788 192.043444 L 180.528609 206.083441 L 179.806430 220.123437 L 193.917375 220.123437 L 208.028321 220.123437 L 211.840662 206.083444 L 215.653005 192.043444" stroke="#DD2222" fill="none" stroke-width="1px"></path><path d="M 239.737652 166.841635 L 239.737652 179.442539 L 239.737652 192.043444 L 227.695329 192.043444 L 215.653005 192.043444 L 211.840663 206.083441 L 208.028321 220.123437 L 245.743852 220.123437 L 283.459383 220.123437 L 283.459383 204.319477 L 283.459383 188.515516 L 261.598571 177.678602 L 239.737652 166.841635" stroke="#DD2222" fill="none" stroke-width="1px"></path><path d="M 239.737652 123.090312 L 239.737652 144.965974 L 239.737652 166.841635 L 261.598517 177.678575 L 283.459383 188.515516 L 283.459383 155.802914 L 283.459383 123.090312 L 261.598554 123.090312 L 239.737652 123.090312" stroke="#DD2222" fill="none" stroke-width="1px"></path></g><g id="crv-amen"><path d="M 58.832882 139.153668 L 58.832882 132.279814 L 58.832882 125.405961 L 37.129379 125.405960 L 15.425876 125.405960 L 15.425876 132.279814 L 15.425876 139.153667 L 37.129379 139.153667 L 58.832882 139.153668" stroke="none" fill="#2288CC" stroke-width="1px"></path><path d="M 48.787670 220.495638 L 55.661520 220.495638 L 62.535376 220.495638 L 62.535374 197.951629 L 62.535373 175.407620 L 55.661517 175.016861 L 48.787667 174.626102 L 48.787668 197.560870 L 48.787670 220.495638" stroke="none" fill="#2288CC" stroke-width="1px"></path><path d="M 142.431520 206.047267 L 139.803378 199.923433 L 137.175236 193.799600 L 116.958757 193.799600 L 96.742279 193.799600 L 96.742279 200.673453 L 96.742279 207.547307 L 119.586900 207.547307 L 142.431520 207.547307 L 142.431520 206.797287 L 142.431520 206.047267" stroke="none" fill="#2288CC" stroke-width="1px"></path><path d="M 176.916167 207.442536 L 177.269739 200.568683 L 177.623312 193.694829 L 161.865853 193.694829 L 146.108394 193.694829 L 149.058420 200.568683 L 152.008445 207.442536 L 164.462306 207.442536 L 176.916167 207.442536" stroke="none" fill="#2288CC" stroke-width="1px"></path><path d="M 195.468897 217.307504 L 201.242820 217.307504 L 207.016742 217.307504 L 210.066616 206.075507 L 213.116489 194.843510 L 205.993734 194.843510 L 198.870979 194.843510 L 195.913727 205.734403 L 192.956475 216.625296 L 194.212686 216.966400 L 195.468897 217.307504" stroke="none" fill="#2288CC" stroke-width="1px"></path><path d="M 279.062935 199.671672 L 279.062935 193.958342 L 279.062935 188.245012 L 261.574243 179.575460 L 244.085550 170.905907 L 244.085550 178.578007 L 244.085550 186.250107 L 260.794781 194.533262 L 277.504012 202.816417 L 278.283473 201.244045 L 279.062935 199.671672" stroke="none" fill="#2288CC" stroke-width="1px"></path><path d="M 279.087210 138.556483 L 279.087210 131.682629 L 279.087210 124.808776 L 261.598517 124.808776 L 244.109825 124.808776 L 244.109825 131.682629 L 244.109825 138.556483 L 261.598517 138.556483 L 279.087210 138.556483" stroke="none" fill="#2288CC" stroke-width="1px"></path><path d="M 255.241906 127.851901 L 248.368058 127.851901 L 241.494199 127.851901 L 241.494199 145.352430 L 241.494199 162.852959 L 246.083592 165.128028 L 250.672984 167.403096 L 252.957445 167.403096 L 255.241906 167.403096 L 255.241906 147.627499 L 255.241906 127.851901" stroke="none" fill="#2288CC" stroke-width="1px"></path><path d="M 237.223385 15.289143 L 230.349532 15.289143 L 223.475678 15.289144 L 223.475678 34.247232 L 223.475678 53.205320 L 225.061876 55.669872 L 226.648074 58.134423 L 231.935729 58.134423 L 237.223385 58.134423 L 237.223385 36.711783 L 237.223385 15.289143" stroke="none" fill="#2288CC" stroke-width="1px"></path><path d="M 247.887606 64.733768 L 243.099028 68.672354 L 238.310451 72.610940 L 243.739613 87.640845 L 249.168776 102.670751 L 255.283642 102.670751 L 261.398508 102.670751 L 262.454430 102.289326 L 263.510352 101.907902 L 256.669606 82.970221 L 249.828861 64.032540 L 248.858233 64.383154 L 247.887606 64.733768" stroke="none" fill="#2288CC" stroke-width="1px"></path><path d="M 206.071334 82.066827 L 204.273688 82.066827 L 202.476041 82.066827 L 192.125330 88.066236 L 181.774618 94.065645 L 181.552356 96.783638 L 181.330095 99.501631 L 182.741636 101.936947 L 184.153177 104.372263 L 187.780424 104.372263 L 191.407671 104.372263 L 201.734464 98.386717 L 212.061257 92.401172 L 209.066295 87.233999 L 206.071334 82.066827" stroke="none" fill="#2288CC" stroke-width="1px"></path><path d="M 133.221140 81.954993 L 127.883901 81.954993 L 122.546661 81.954993 L 119.252773 93.107711 L 115.958885 104.260430 L 123.126268 104.260430 L 130.293650 104.260430 L 133.440707 93.604867 L 136.587763 82.949305 L 134.904452 82.452149 L 133.221140 81.954993" stroke="none" fill="#2288CC" stroke-width="1px"></path><path d="M 114.257497 94.565092 L 116.287647 87.691239 L 118.317799 80.817385 L 106.207628 80.817384 L 94.097458 80.817384 L 94.097458 87.691238 L 94.097458 94.565091 L 104.177477 94.565091 L 114.257497 94.565092" stroke="none" fill="#2288CC" stroke-width="1px"></path><path d="M 48.787975 108.371792 L 55.661819 108.371792 L 62.535682 108.371792 L 62.535682 91.626193 L 62.535682 74.880594 L 62.205240 72.703666 L 61.874797 70.526738 L 55.331386 70.526738 L 48.787975 70.526738 L 48.787975 89.449265 L 48.787975 108.371792" stroke="none" fill="#2288CC" stroke-width="1px"></path><path d="M 15.405686 40.126517 L 15.405686 47.004220 L 15.405686 53.881923 L 36.255785 54.579844 L 57.105884 55.277765 L 57.959288 53.974679 L 58.812692 52.671593 L 58.812692 47.125542 L 58.812692 41.579491 L 37.109189 40.853004 L 15.405686 40.126517" stroke="none" fill="#2288CC" stroke-width="1px"></path></g><g id="crv-desk"><path d="M 55.459383 163.320383 L 52.959383 163.320383 L 52.959383 169.320383 L 55.459383 169.320383 L 55.459383 163.320383" stroke="gray" fill="white" stroke-width="1px"></path><path d="M 55.459383 157.320383 L 52.959383 157.320383 L 52.959383 163.320383 L 55.459383 163.320383 L 55.459383 157.320383" stroke="gray" fill="white" stroke-width="1px"></path><path d="M 55.459383 151.320383 L 52.959383 151.320383 L 52.959383 157.320383 L 55.459383 157.320383 L 55.459383 151.320383" stroke="gray" fill="white" stroke-width="1px"></path><path d="M 55.459383 145.320383 L 52.959383 145.320383 L 52.959383 151.320383 L 55.459383 151.320383 L 55.459383 145.320383" stroke="gray" fill="white" stroke-width="1px"></path><path d="M 43.459383 162.638217 L 40.959383 162.638217 L 40.959383 168.638217 L 43.459383 168.638217 L 43.459383 162.638217" stroke="gray" fill="white" stroke-width="1px"></path><path d="M 43.459383 156.638217 L 40.959383 156.638217 L 40.959383 162.638217 L 43.459383 162.638217 L 43.459383 156.638217" stroke="gray" fill="white" stroke-width="1px"></path><path d="M 43.459383 150.638217 L 40.959383 150.638217 L 40.959383 156.638217 L 43.459383 156.638217 L 43.459383 150.638217" stroke="gray" fill="white" stroke-width="1px"></path><path d="M 31.459383 161.956051 L 28.959383 161.956051 L 28.959383 167.956051 L 31.459383 167.956051 L 31.459383 161.956051" stroke="gray" fill="white" stroke-width="1px"></path><path d="M 31.459383 155.956051 L 28.959383 155.956051 L 28.959383 161.956051 L 31.459383 161.956051 L 31.459383 155.956051" stroke="gray" fill="white" stroke-width="1px"></path><path d="M 31.459383 149.956051 L 28.959383 149.956051 L 28.959383 155.956051 L 31.459383 155.956051 L 31.459383 149.956051" stroke="gray" fill="white" stroke-width="1px"></path><path d="M 19.459383 161.273885 L 16.959383 161.273885 L 16.959383 167.273885 L 19.459383 167.273885 L 19.459383 161.273885" stroke="gray" fill="white" stroke-width="1px"></path><path d="M 19.459383 155.273885 L 16.959383 155.273885 L 16.959383 161.273885 L 19.459383 161.273885 L 19.459383 155.273885" stroke="gray" fill="white" stroke-width="1px"></path><path d="M 19.459383 149.273885 L 16.959383 149.273885 L 16.959383 155.273885 L 19.459383 155.273885 L 19.459383 149.273885" stroke="gray" fill="white" stroke-width="1px"></path><path d="M 139.459383 214.123437 L 136.959383 214.123437 L 136.959383 220.123437 L 139.459383 220.123437 L 139.459383 214.123437" stroke="gray" fill="white" stroke-width="1px"></path><path d="M 127.459383 214.123437 L 124.959383 214.123437 L 124.959383 220.123437 L 127.459383 220.123437 L 127.459383 214.123437" stroke="gray" fill="white" stroke-width="1px"></path><path d="M 115.459383 214.123437 L 112.959383 214.123437 L 112.959383 220.123437 L 115.459383 220.123437 L 115.459383 214.123437" stroke="gray" fill="white" stroke-width="1px"></path><path d="M 103.459383 214.123437 L 100.959383 214.123437 L 100.959383 220.123437 L 103.459383 220.123437 L 103.459383 214.123437" stroke="gray" fill="white" stroke-width="1px"></path><path d="M 175.459383 214.123437 L 172.959383 214.123437 L 172.959383 220.123437 L 175.459383 220.123437 L 175.459383 214.123437" stroke="gray" fill="white" stroke-width="1px"></path><path d="M 163.459383 214.123437 L 160.959383 214.123437 L 160.959383 220.123437 L 163.459383 220.123437 L 163.459383 214.123437" stroke="gray" fill="white" stroke-width="1px"></path><path d="M 187.459383 208.123437 L 184.959383 208.123437 L 184.959383 214.123437 L 187.459383 214.123437 L 187.459383 208.123437" stroke="gray" fill="white" stroke-width="1px"></path><path d="M 187.459383 202.123437 L 184.959383 202.123437 L 184.959383 208.123437 L 187.459383 208.123437 L 187.459383 202.123437" stroke="gray" fill="white" stroke-width="1px"></path><path d="M 187.459383 196.123437 L 184.959383 196.123437 L 184.959383 202.123437 L 187.459383 202.123437 L 187.459383 196.123437" stroke="gray" fill="white" stroke-width="1px"></path><path d="M 271.459383 214.123437 L 268.959383 214.123437 L 268.959383 220.123437 L 271.459383 220.123437 L 271.459383 214.123437" stroke="gray" fill="white" stroke-width="1px"></path><path d="M 271.459383 208.123437 L 268.959383 208.123437 L 268.959383 214.123437 L 271.459383 214.123437 L 271.459383 208.123437" stroke="gray" fill="white" stroke-width="1px"></path><path d="M 259.459383 214.123437 L 256.959383 214.123437 L 256.959383 220.123437 L 259.459383 220.123437 L 259.459383 214.123437" stroke="gray" fill="white" stroke-width="1px"></path><path d="M 259.459383 208.123437 L 256.959383 208.123437 L 256.959383 214.123437 L 259.459383 214.123437 L 259.459383 208.123437" stroke="gray" fill="white" stroke-width="1px"></path><path d="M 259.459383 202.123437 L 256.959383 202.123437 L 256.959383 208.123437 L 259.459383 208.123437 L 259.459383 202.123437" stroke="gray" fill="white" stroke-width="1px"></path><path d="M 247.459383 214.123437 L 244.959383 214.123437 L 244.959383 220.123437 L 247.459383 220.123437 L 247.459383 214.123437" stroke="gray" fill="white" stroke-width="1px"></path><path d="M 247.459383 208.123437 L 244.959383 208.123437 L 244.959383 214.123437 L 247.459383 214.123437 L 247.459383 208.123437" stroke="gray" fill="white" stroke-width="1px"></path><path d="M 247.459383 202.123437 L 244.959383 202.123437 L 244.959383 208.123437 L 247.459383 208.123437 L 247.459383 202.123437" stroke="gray" fill="white" stroke-width="1px"></path><path d="M 247.459383 196.123437 L 244.959383 196.123437 L 244.959383 202.123437 L 247.459383 202.123437 L 247.459383 196.123437" stroke="gray" fill="white" stroke-width="1px"></path><path d="M 235.459383 214.123437 L 232.959383 214.123437 L 232.959383 220.123437 L 235.459383 220.123437 L 235.459383 214.123437" stroke="gray" fill="white" stroke-width="1px"></path><path d="M 235.459383 208.123437 L 232.959383 208.123437 L 232.959383 214.123437 L 235.459383 214.123437 L 235.459383 208.123437" stroke="gray" fill="white" stroke-width="1px"></path><path d="M 235.459383 202.123437 L 232.959383 202.123437 L 232.959383 208.123437 L 235.459383 208.123437 L 235.459383 202.123437" stroke="gray" fill="white" stroke-width="1px"></path><path d="M 235.459383 196.123437 L 232.959383 196.123437 L 232.959383 202.123437 L 235.459383 202.123437 L 235.459383 196.123437" stroke="gray" fill="white" stroke-width="1px"></path><path d="M 223.459383 214.123437 L 220.959383 214.123437 L 220.959383 220.123437 L 223.459383 220.123437 L 223.459383 214.123437" stroke="gray" fill="white" stroke-width="1px"></path><path d="M 223.459383 208.123437 L 220.959383 208.123437 L 220.959383 214.123437 L 223.459383 214.123437 L 223.459383 208.123437" stroke="gray" fill="white" stroke-width="1px"></path><path d="M 223.459383 202.123437 L 220.959383 202.123437 L 220.959383 208.123437 L 223.459383 208.123437 L 223.459383 202.123437" stroke="gray" fill="white" stroke-width="1px"></path><path d="M 223.459383 196.123437 L 220.959383 196.123437 L 220.959383 202.123437 L 223.459383 202.123437 L 223.459383 196.123437" stroke="gray" fill="white" stroke-width="1px"></path><path d="M 55.459383 163.320383 L 57.959383 163.320383 L 57.959383 169.320383 L 55.459383 169.320383 L 55.459383 163.320383" stroke="gray" fill="white" stroke-width="1px"></path><path d="M 55.459383 157.320383 L 57.959383 157.320383 L 57.959383 163.320383 L 55.459383 163.320383 L 55.459383 157.320383" stroke="gray" fill="white" stroke-width="1px"></path><path d="M 55.459383 151.320383 L 57.959383 151.320383 L 57.959383 157.320383 L 55.459383 157.320383 L 55.459383 151.320383" stroke="gray" fill="white" stroke-width="1px"></path><path d="M 55.459383 145.320383 L 57.959383 145.320383 L 57.959383 151.320383 L 55.459383 151.320383 L 55.459383 145.320383" stroke="gray" fill="white" stroke-width="1px"></path><path d="M 43.459383 162.638217 L 45.959383 162.638217 L 45.959383 168.638217 L 43.459383 168.638217 L 43.459383 162.638217" stroke="gray" fill="white" stroke-width="1px"></path><path d="M 43.459383 156.638217 L 45.959383 156.638217 L 45.959383 162.638217 L 43.459383 162.638217 L 43.459383 156.638217" stroke="gray" fill="white" stroke-width="1px"></path><path d="M 43.459383 150.638217 L 45.959383 150.638217 L 45.959383 156.638217 L 43.459383 156.638217 L 43.459383 150.638217" stroke="gray" fill="white" stroke-width="1px"></path><path d="M 31.459383 161.956051 L 33.959383 161.956051 L 33.959383 167.956051 L 31.459383 167.956051 L 31.459383 161.956051" stroke="gray" fill="white" stroke-width="1px"></path><path d="M 31.459383 155.956051 L 33.959383 155.956051 L 33.959383 161.956051 L 31.459383 161.956051 L 31.459383 155.956051" stroke="gray" fill="white" stroke-width="1px"></path><path d="M 31.459383 149.956051 L 33.959383 149.956051 L 33.959383 155.956051 L 31.459383 155.956051 L 31.459383 149.956051" stroke="gray" fill="white" stroke-width="1px"></path><path d="M 19.459383 161.273885 L 21.959383 161.273885 L 21.959383 167.273885 L 19.459383 167.273885 L 19.459383 161.273885" stroke="gray" fill="white" stroke-width="1px"></path><path d="M 19.459383 155.273885 L 21.959383 155.273885 L 21.959383 161.273885 L 19.459383 161.273885 L 19.459383 155.273885" stroke="gray" fill="white" stroke-width="1px"></path><path d="M 19.459383 149.273885 L 21.959383 149.273885 L 21.959383 155.273885 L 19.459383 155.273885 L 19.459383 149.273885" stroke="gray" fill="white" stroke-width="1px"></path><path d="M 139.459383 214.123437 L 141.959383 214.123437 L 141.959383 220.123437 L 139.459383 220.123437 L 139.459383 214.123437" stroke="gray" fill="white" stroke-width="1px"></path><path d="M 127.459383 214.123437 L 129.959383 214.123437 L 129.959383 220.123437 L 127.459383 220.123437 L 127.459383 214.123437" stroke="gray" fill="white" stroke-width="1px"></path><path d="M 115.459383 214.123437 L 117.959383 214.123437 L 117.959383 220.123437 L 115.459383 220.123437 L 115.459383 214.123437" stroke="gray" fill="white" stroke-width="1px"></path><path d="M 103.459383 214.123437 L 105.959383 214.123437 L 105.959383 220.123437 L 103.459383 220.123437 L 103.459383 214.123437" stroke="gray" fill="white" stroke-width="1px"></path><path d="M 175.459383 214.123437 L 177.959383 214.123437 L 177.959383 220.123437 L 175.459383 220.123437 L 175.459383 214.123437" stroke="gray" fill="white" stroke-width="1px"></path><path d="M 163.459383 214.123437 L 165.959383 214.123437 L 165.959383 220.123437 L 163.459383 220.123437 L 163.459383 214.123437" stroke="gray" fill="white" stroke-width="1px"></path><path d="M 187.459383 208.123437 L 189.959383 208.123437 L 189.959383 214.123437 L 187.459383 214.123437 L 187.459383 208.123437" stroke="gray" fill="white" stroke-width="1px"></path><path d="M 187.459383 202.123437 L 189.959383 202.123437 L 189.959383 208.123437 L 187.459383 208.123437 L 187.459383 202.123437" stroke="gray" fill="white" stroke-width="1px"></path><path d="M 187.459383 196.123437 L 189.959383 196.123437 L 189.959383 202.123437 L 187.459383 202.123437 L 187.459383 196.123437" stroke="gray" fill="white" stroke-width="1px"></path><path d="M 271.459383 214.123437 L 273.959383 214.123437 L 273.959383 220.123437 L 271.459383 220.123437 L 271.459383 214.123437" stroke="gray" fill="white" stroke-width="1px"></path><path d="M 271.459383 208.123437 L 273.959383 208.123437 L 273.959383 214.123437 L 271.459383 214.123437 L 271.459383 208.123437" stroke="gray" fill="white" stroke-width="1px"></path><path d="M 259.459383 214.123437 L 261.959383 214.123437 L 261.959383 220.123437 L 259.459383 220.123437 L 259.459383 214.123437" stroke="gray" fill="white" stroke-width="1px"></path><path d="M 259.459383 208.123437 L 261.959383 208.123437 L 261.959383 214.123437 L 259.459383 214.123437 L 259.459383 208.123437" stroke="gray" fill="white" stroke-width="1px"></path><path d="M 259.459383 202.123437 L 261.959383 202.123437 L 261.959383 208.123437 L 259.459383 208.123437 L 259.459383 202.123437" stroke="gray" fill="white" stroke-width="1px"></path><path d="M 247.459383 214.123437 L 249.959383 214.123437 L 249.959383 220.123437 L 247.459383 220.123437 L 247.459383 214.123437" stroke="gray" fill="white" stroke-width="1px"></path><path d="M 247.459383 208.123437 L 249.959383 208.123437 L 249.959383 214.123437 L 247.459383 214.123437 L 247.459383 208.123437" stroke="gray" fill="white" stroke-width="1px"></path><path d="M 247.459383 202.123437 L 249.959383 202.123437 L 249.959383 208.123437 L 247.459383 208.123437 L 247.459383 202.123437" stroke="gray" fill="white" stroke-width="1px"></path><path d="M 247.459383 196.123437 L 249.959383 196.123437 L 249.959383 202.123437 L 247.459383 202.123437 L 247.459383 196.123437" stroke="gray" fill="white" stroke-width="1px"></path><path d="M 235.459383 214.123437 L 237.959383 214.123437 L 237.959383 220.123437 L 235.459383 220.123437 L 235.459383 214.123437" stroke="gray" fill="white" stroke-width="1px"></path><path d="M 235.459383 208.123437 L 237.959383 208.123437 L 237.959383 214.123437 L 235.459383 214.123437 L 235.459383 208.123437" stroke="gray" fill="white" stroke-width="1px"></path><path d="M 235.459383 202.123437 L 237.959383 202.123437 L 237.959383 208.123437 L 235.459383 208.123437 L 235.459383 202.123437" stroke="gray" fill="white" stroke-width="1px"></path><path d="M 235.459383 196.123437 L 237.959383 196.123437 L 237.959383 202.123437 L 235.459383 202.123437 L 235.459383 196.123437" stroke="gray" fill="white" stroke-width="1px"></path><path d="M 223.459383 214.123437 L 225.959383 214.123437 L 225.959383 220.123437 L 223.459383 220.123437 L 223.459383 214.123437" stroke="gray" fill="white" stroke-width="1px"></path><path d="M 223.459383 208.123437 L 225.959383 208.123437 L 225.959383 214.123437 L 223.459383 214.123437 L 223.459383 208.123437" stroke="gray" fill="white" stroke-width="1px"></path><path d="M 223.459383 202.123437 L 225.959383 202.123437 L 225.959383 208.123437 L 223.459383 208.123437 L 223.459383 202.123437" stroke="gray" fill="white" stroke-width="1px"></path><path d="M 223.459383 196.123437 L 225.959383 196.123437 L 225.959383 202.123437 L 223.459383 202.123437 L 223.459383 196.123437" stroke="gray" fill="white" stroke-width="1px"></path><path d="M 22.000000 220.123437 L 22.000000 217.623437 L 16.000000 217.623437 L 16.000000 220.123437 L 22.000000 220.123437" stroke="gray" fill="white" stroke-width="1px"></path><path d="M 28.000000 220.123437 L 28.000000 217.623437 L 22.000000 217.623437 L 22.000000 220.123437 L 28.000000 220.123437" stroke="gray" fill="white" stroke-width="1px"></path><path d="M 34.000000 220.123437 L 34.000000 217.623437 L 28.000000 217.623437 L 28.000000 220.123437 L 34.000000 220.123437" stroke="gray" fill="white" stroke-width="1px"></path><path d="M 40.000000 220.123437 L 40.000000 217.623437 L 34.000000 217.623437 L 34.000000 220.123437 L 40.000000 220.123437" stroke="gray" fill="white" stroke-width="1px"></path><path d="M 22.000000 208.123437 L 22.000000 205.623437 L 16.000000 205.623437 L 16.000000 208.123437 L 22.000000 208.123437" stroke="gray" fill="white" stroke-width="1px"></path><path d="M 28.000000 208.123437 L 28.000000 205.623437 L 22.000000 205.623437 L 22.000000 208.123437 L 28.000000 208.123437" stroke="gray" fill="white" stroke-width="1px"></path><path d="M 34.000000 208.123437 L 34.000000 205.623437 L 28.000000 205.623437 L 28.000000 208.123437 L 34.000000 208.123437" stroke="gray" fill="white" stroke-width="1px"></path><path d="M 40.000000 208.123437 L 40.000000 205.623437 L 34.000000 205.623437 L 34.000000 208.123437 L 40.000000 208.123437" stroke="gray" fill="white" stroke-width="1px"></path><path d="M 22.000000 196.123437 L 22.000000 193.623437 L 16.000000 193.623437 L 16.000000 196.123437 L 22.000000 196.123437" stroke="gray" fill="white" stroke-width="1px"></path><path d="M 28.000000 196.123437 L 28.000000 193.623437 L 22.000000 193.623437 L 22.000000 196.123437 L 28.000000 196.123437" stroke="gray" fill="white" stroke-width="1px"></path><path d="M 34.000000 196.123437 L 34.000000 193.623437 L 28.000000 193.623437 L 28.000000 196.123437 L 34.000000 196.123437" stroke="gray" fill="white" stroke-width="1px"></path><path d="M 40.000000 196.123437 L 40.000000 193.623437 L 34.000000 193.623437 L 34.000000 196.123437 L 40.000000 196.123437" stroke="gray" fill="white" stroke-width="1px"></path><path d="M 22.000000 184.123437 L 22.000000 181.623437 L 16.000000 181.623437 L 16.000000 184.123437 L 22.000000 184.123437" stroke="gray" fill="white" stroke-width="1px"></path><path d="M 28.000000 184.123437 L 28.000000 181.623437 L 22.000000 181.623437 L 22.000000 184.123437 L 28.000000 184.123437" stroke="gray" fill="white" stroke-width="1px"></path><path d="M 34.000000 184.123437 L 34.000000 181.623437 L 28.000000 181.623437 L 28.000000 184.123437 L 34.000000 184.123437" stroke="gray" fill="white" stroke-width="1px"></path><path d="M 40.000000 184.123437 L 40.000000 181.623437 L 34.000000 181.623437 L 34.000000 184.123437 L 40.000000 184.123437" stroke="gray" fill="white" stroke-width="1px"></path><path d="M 262.392391 172.123437 L 262.392391 169.623437 L 256.392391 169.623437 L 256.392391 172.123437 L 262.392391 172.123437" stroke="gray" fill="white" stroke-width="1px"></path><path d="M 268.392391 172.123437 L 268.392391 169.623437 L 262.392391 169.623437 L 262.392391 172.123437 L 268.392391 172.123437" stroke="gray" fill="white" stroke-width="1px"></path><path d="M 274.392391 172.123437 L 274.392391 169.623437 L 268.392391 169.623437 L 268.392391 172.123437 L 274.392391 172.123437" stroke="gray" fill="white" stroke-width="1px"></path><path d="M 263.737652 160.123437 L 263.737652 157.623437 L 257.737652 157.623437 L 257.737652 160.123437 L 263.737652 160.123437" stroke="gray" fill="white" stroke-width="1px"></path><path d="M 269.737652 160.123437 L 269.737652 157.623437 L 263.737652 157.623437 L 263.737652 160.123437 L 269.737652 160.123437" stroke="gray" fill="white" stroke-width="1px"></path><path d="M 275.737652 160.123437 L 275.737652 157.623437 L 269.737652 157.623437 L 269.737652 160.123437 L 275.737652 160.123437" stroke="gray" fill="white" stroke-width="1px"></path><path d="M 263.737652 148.123437 L 263.737652 145.623437 L 257.737652 145.623437 L 257.737652 148.123437 L 263.737652 148.123437" stroke="gray" fill="white" stroke-width="1px"></path><path d="M 269.737652 148.123437 L 269.737652 145.623437 L 263.737652 145.623437 L 263.737652 148.123437 L 269.737652 148.123437" stroke="gray" fill="white" stroke-width="1px"></path><path d="M 275.737652 148.123437 L 275.737652 145.623437 L 269.737652 145.623437 L 269.737652 148.123437 L 275.737652 148.123437" stroke="gray" fill="white" stroke-width="1px"></path><path d="M 22.000000 220.123437 L 22.000000 222.623437 L 16.000000 222.623437 L 16.000000 220.123437 L 22.000000 220.123437" stroke="gray" fill="white" stroke-width="1px"></path><path d="M 28.000000 220.123437 L 28.000000 222.623437 L 22.000000 222.623437 L 22.000000 220.123437 L 28.000000 220.123437" stroke="gray" fill="white" stroke-width="1px"></path><path d="M 34.000000 220.123437 L 34.000000 222.623437 L 28.000000 222.623437 L 28.000000 220.123437 L 34.000000 220.123437" stroke="gray" fill="white" stroke-width="1px"></path><path d="M 40.000000 220.123437 L 40.000000 222.623437 L 34.000000 222.623437 L 34.000000 220.123437 L 40.000000 220.123437" stroke="gray" fill="white" stroke-width="1px"></path><path d="M 22.000000 208.123437 L 22.000000 210.623437 L 16.000000 210.623437 L 16.000000 208.123437 L 22.000000 208.123437" stroke="gray" fill="white" stroke-width="1px"></path><path d="M 28.000000 208.123437 L 28.000000 210.623437 L 22.000000 210.623437 L 22.000000 208.123437 L 28.000000 208.123437" stroke="gray" fill="white" stroke-width="1px"></path><path d="M 34.000000 208.123437 L 34.000000 210.623437 L 28.000000 210.623437 L 28.000000 208.123437 L 34.000000 208.123437" stroke="gray" fill="white" stroke-width="1px"></path><path d="M 40.000000 208.123437 L 40.000000 210.623437 L 34.000000 210.623437 L 34.000000 208.123437 L 40.000000 208.123437" stroke="gray" fill="white" stroke-width="1px"></path><path d="M 22.000000 196.123437 L 22.000000 198.623437 L 16.000000 198.623437 L 16.000000 196.123437 L 22.000000 196.123437" stroke="gray" fill="white" stroke-width="1px"></path><path d="M 28.000000 196.123437 L 28.000000 198.623437 L 22.000000 198.623437 L 22.000000 196.123437 L 28.000000 196.123437" stroke="gray" fill="white" stroke-width="1px"></path><path d="M 34.000000 196.123437 L 34.000000 198.623437 L 28.000000 198.623437 L 28.000000 196.123437 L 34.000000 196.123437" stroke="gray" fill="white" stroke-width="1px"></path><path d="M 40.000000 196.123437 L 40.000000 198.623437 L 34.000000 198.623437 L 34.000000 196.123437 L 40.000000 196.123437" stroke="gray" fill="white" stroke-width="1px"></path><path d="M 22.000000 184.123437 L 22.000000 186.623437 L 16.000000 186.623437 L 16.000000 184.123437 L 22.000000 184.123437" stroke="gray" fill="white" stroke-width="1px"></path><path d="M 28.000000 184.123437 L 28.000000 186.623437 L 22.000000 186.623437 L 22.000000 184.123437 L 28.000000 184.123437" stroke="gray" fill="white" stroke-width="1px"></path><path d="M 34.000000 184.123437 L 34.000000 186.623437 L 28.000000 186.623437 L 28.000000 184.123437 L 34.000000 184.123437" stroke="gray" fill="white" stroke-width="1px"></path><path d="M 40.000000 184.123437 L 40.000000 186.623437 L 34.000000 186.623437 L 34.000000 184.123437 L 40.000000 184.123437" stroke="gray" fill="white" stroke-width="1px"></path><path d="M 22.000000 172.123437 L 22.000000 174.623437 L 16.000000 174.623437 L 16.000000 172.123437 L 22.000000 172.123437" stroke="gray" fill="white" stroke-width="1px"></path><path d="M 28.000000 172.123437 L 28.000000 174.623437 L 22.000000 174.623437 L 22.000000 172.123437 L 28.000000 172.123437" stroke="gray" fill="white" stroke-width="1px"></path><path d="M 34.000000 172.123437 L 34.000000 174.623437 L 28.000000 174.623437 L 28.000000 172.123437 L 34.000000 172.123437" stroke="gray" fill="white" stroke-width="1px"></path><path d="M 268.392391 172.123437 L 268.392391 174.623437 L 262.392391 174.623437 L 262.392391 172.123437 L 268.392391 172.123437" stroke="gray" fill="white" stroke-width="1px"></path><path d="M 274.392391 172.123437 L 274.392391 174.623437 L 268.392391 174.623437 L 268.392391 172.123437 L 274.392391 172.123437" stroke="gray" fill="white" stroke-width="1px"></path><path d="M 263.737652 160.123437 L 263.737652 162.623437 L 257.737652 162.623437 L 257.737652 160.123437 L 263.737652 160.123437" stroke="gray" fill="white" stroke-width="1px"></path><path d="M 269.737652 160.123437 L 269.737652 162.623437 L 263.737652 162.623437 L 263.737652 160.123437 L 269.737652 160.123437" stroke="gray" fill="white" stroke-width="1px"></path><path d="M 275.737652 160.123437 L 275.737652 162.623437 L 269.737652 162.623437 L 269.737652 160.123437 L 275.737652 160.123437" stroke="gray" fill="white" stroke-width="1px"></path><path d="M 263.737652 148.123437 L 263.737652 150.623437 L 257.737652 150.623437 L 257.737652 148.123437 L 263.737652 148.123437" stroke="gray" fill="white" stroke-width="1px"></path><path d="M 269.737652 148.123437 L 269.737652 150.623437 L 263.737652 150.623437 L 263.737652 148.123437 L 269.737652 148.123437" stroke="gray" fill="white" stroke-width="1px"></path><path d="M 275.737652 148.123437 L 275.737652 150.623437 L 269.737652 150.623437 L 269.737652 148.123437 L 275.737652 148.123437" stroke="gray" fill="white" stroke-width="1px"></path><path d="M 271.459383 33.691338 L 268.959383 33.691338 L 268.959383 39.691338 L 271.459383 39.691338 L 271.459383 33.691338" stroke="gray" fill="white" stroke-width="1px"></path><path d="M 271.459383 27.691338 L 268.959383 27.691338 L 268.959383 33.691338 L 271.459383 33.691338 L 271.459383 27.691338" stroke="gray" fill="white" stroke-width="1px"></path><path d="M 271.459383 21.691338 L 268.959383 21.691338 L 268.959383 27.691338 L 271.459383 27.691338 L 271.459383 21.691338" stroke="gray" fill="white" stroke-width="1px"></path><path d="M 271.459383 15.691338 L 268.959383 15.691338 L 268.959383 21.691338 L 271.459383 21.691338 L 271.459383 15.691338" stroke="gray" fill="white" stroke-width="1px"></path><path d="M 259.459383 43.561290 L 256.959383 43.561290 L 256.959383 49.561290 L 259.459383 49.561290 L 259.459383 43.561290" stroke="gray" fill="white" stroke-width="1px"></path><path d="M 259.459383 37.561290 L 256.959383 37.561290 L 256.959383 43.561290 L 259.459383 43.561290 L 259.459383 37.561290" stroke="gray" fill="white" stroke-width="1px"></path><path d="M 259.459383 31.561290 L 256.959383 31.561290 L 256.959383 37.561290 L 259.459383 37.561290 L 259.459383 31.561290" stroke="gray" fill="white" stroke-width="1px"></path><path d="M 259.459383 25.561290 L 256.959383 25.561290 L 256.959383 31.561290 L 259.459383 31.561290 L 259.459383 25.561290" stroke="gray" fill="white" stroke-width="1px"></path><path d="M 259.459383 19.561290 L 256.959383 19.561290 L 256.959383 25.561290 L 259.459383 25.561290 L 259.459383 19.561290" stroke="gray" fill="white" stroke-width="1px"></path><path d="M 259.459383 13.561290 L 256.959383 13.561290 L 256.959383 19.561290 L 259.459383 19.561290 L 259.459383 13.561290" stroke="gray" fill="white" stroke-width="1px"></path><path d="M 247.459383 53.431241 L 244.959383 53.431241 L 244.959383 59.431241 L 247.459383 59.431241 L 247.459383 53.431241" stroke="gray" fill="white" stroke-width="1px"></path><path d="M 247.459383 47.431241 L 244.959383 47.431241 L 244.959383 53.431241 L 247.459383 53.431241 L 247.459383 47.431241" stroke="gray" fill="white" stroke-width="1px"></path><path d="M 247.459383 41.431241 L 244.959383 41.431241 L 244.959383 47.431241 L 247.459383 47.431241 L 247.459383 41.431241" stroke="gray" fill="white" stroke-width="1px"></path><path d="M 247.459383 35.431241 L 244.959383 35.431241 L 244.959383 41.431241 L 247.459383 41.431241 L 247.459383 35.431241" stroke="gray" fill="white" stroke-width="1px"></path><path d="M 247.459383 29.431241 L 244.959383 29.431241 L 244.959383 35.431241 L 247.459383 35.431241 L 247.459383 29.431241" stroke="gray" fill="white" stroke-width="1px"></path><path d="M 247.459383 23.431241 L 244.959383 23.431241 L 244.959383 29.431241 L 247.459383 29.431241 L 247.459383 23.431241" stroke="gray" fill="white" stroke-width="1px"></path><path d="M 247.459383 17.431241 L 244.959383 17.431241 L 244.959383 23.431241 L 247.459383 23.431241 L 247.459383 17.431241" stroke="gray" fill="white" stroke-width="1px"></path><path d="M 235.459383 101.033125 L 232.959383 101.033125 L 232.959383 107.033125 L 235.459383 107.033125 L 235.459383 101.033125" stroke="gray" fill="white" stroke-width="1px"></path><path d="M 235.459383 95.033125 L 232.959383 95.033125 L 232.959383 101.033125 L 235.459383 101.033125 L 235.459383 95.033125" stroke="gray" fill="white" stroke-width="1px"></path><path d="M 235.459383 89.033125 L 232.959383 89.033125 L 232.959383 95.033125 L 235.459383 95.033125 L 235.459383 89.033125" stroke="gray" fill="white" stroke-width="1px"></path><path d="M 235.459383 83.033125 L 232.959383 83.033125 L 232.959383 89.033125 L 235.459383 89.033125 L 235.459383 83.033125" stroke="gray" fill="white" stroke-width="1px"></path><path d="M 223.459383 101.033125 L 220.959383 101.033125 L 220.959383 107.033125 L 223.459383 107.033125 L 223.459383 101.033125" stroke="gray" fill="white" stroke-width="1px"></path><path d="M 223.459383 95.033125 L 220.959383 95.033125 L 220.959383 101.033125 L 223.459383 101.033125 L 223.459383 95.033125" stroke="gray" fill="white" stroke-width="1px"></path><path d="M 223.459383 89.033125 L 220.959383 89.033125 L 220.959383 95.033125 L 223.459383 95.033125 L 223.459383 89.033125" stroke="gray" fill="white" stroke-width="1px"></path><path d="M 223.459383 83.033125 L 220.959383 83.033125 L 220.959383 89.033125 L 223.459383 89.033125 L 223.459383 83.033125" stroke="gray" fill="white" stroke-width="1px"></path><path d="M 211.459383 101.033125 L 208.959383 101.033125 L 208.959383 107.033125 L 211.459383 107.033125 L 211.459383 101.033125" stroke="gray" fill="white" stroke-width="1px"></path><path d="M 175.459383 95.033125 L 172.959383 95.033125 L 172.959383 101.033125 L 175.459383 101.033125 L 175.459383 95.033125" stroke="gray" fill="white" stroke-width="1px"></path><path d="M 163.459383 101.033125 L 160.959383 101.033125 L 160.959383 107.033125 L 163.459383 107.033125 L 163.459383 101.033125" stroke="gray" fill="white" stroke-width="1px"></path><path d="M 163.459383 95.033125 L 160.959383 95.033125 L 160.959383 101.033125 L 163.459383 101.033125 L 163.459383 95.033125" stroke="gray" fill="white" stroke-width="1px"></path><path d="M 163.459383 89.033125 L 160.959383 89.033125 L 160.959383 95.033125 L 163.459383 95.033125 L 163.459383 89.033125" stroke="gray" fill="white" stroke-width="1px"></path><path d="M 163.459383 83.033125 L 160.959383 83.033125 L 160.959383 89.033125 L 163.459383 89.033125 L 163.459383 83.033125" stroke="gray" fill="white" stroke-width="1px"></path><path d="M 151.459383 101.033125 L 148.959383 101.033125 L 148.959383 107.033125 L 151.459383 107.033125 L 151.459383 101.033125" stroke="gray" fill="white" stroke-width="1px"></path><path d="M 151.459383 95.033125 L 148.959383 95.033125 L 148.959383 101.033125 L 151.459383 101.033125 L 151.459383 95.033125" stroke="gray" fill="white" stroke-width="1px"></path><path d="M 151.459383 89.033125 L 148.959383 89.033125 L 148.959383 95.033125 L 151.459383 95.033125 L 151.459383 89.033125" stroke="gray" fill="white" stroke-width="1px"></path><path d="M 151.459383 83.033125 L 148.959383 83.033125 L 148.959383 89.033125 L 151.459383 89.033125 L 151.459383 83.033125" stroke="gray" fill="white" stroke-width="1px"></path><path d="M 139.459383 101.033125 L 136.959383 101.033125 L 136.959383 107.033125 L 139.459383 107.033125 L 139.459383 101.033125" stroke="gray" fill="white" stroke-width="1px"></path><path d="M 139.459383 95.033125 L 136.959383 95.033125 L 136.959383 101.033125 L 139.459383 101.033125 L 139.459383 95.033125" stroke="gray" fill="white" stroke-width="1px"></path><path d="M 103.459383 101.033125 L 100.959383 101.033125 L 100.959383 107.033125 L 103.459383 107.033125 L 103.459383 101.033125" stroke="gray" fill="white" stroke-width="1px"></path><path d="M 55.459383 29.467244 L 52.959383 29.467244 L 52.959383 35.467244 L 55.459383 35.467244 L 55.459383 29.467244" stroke="gray" fill="white" stroke-width="1px"></path><path d="M 55.459383 23.467244 L 52.959383 23.467244 L 52.959383 29.467244 L 55.459383 29.467244 L 55.459383 23.467244" stroke="gray" fill="white" stroke-width="1px"></path><path d="M 55.459383 17.467244 L 52.959383 17.467244 L 52.959383 23.467244 L 55.459383 23.467244 L 55.459383 17.467244" stroke="gray" fill="white" stroke-width="1px"></path><path d="M 43.459383 29.065565 L 40.959383 29.065565 L 40.959383 35.065565 L 43.459383 35.065565 L 43.459383 29.065565" stroke="gray" fill="white" stroke-width="1px"></path><path d="M 43.459383 23.065565 L 40.959383 23.065565 L 40.959383 29.065565 L 43.459383 29.065565 L 43.459383 23.065565" stroke="gray" fill="white" stroke-width="1px"></path><path d="M 43.459383 17.065565 L 40.959383 17.065565 L 40.959383 23.065565 L 43.459383 23.065565 L 43.459383 17.065565" stroke="gray" fill="white" stroke-width="1px"></path><path d="M 31.459383 28.663886 L 28.959383 28.663886 L 28.959383 34.663886 L 31.459383 34.663886 L 31.459383 28.663886" stroke="gray" fill="white" stroke-width="1px"></path><path d="M 31.459383 22.663886 L 28.959383 22.663886 L 28.959383 28.663886 L 31.459383 28.663886 L 31.459383 22.663886" stroke="gray" fill="white" stroke-width="1px"></path><path d="M 31.459383 16.663886 L 28.959383 16.663886 L 28.959383 22.663886 L 31.459383 22.663886 L 31.459383 16.663886" stroke="gray" fill="white" stroke-width="1px"></path><path d="M 19.459383 28.262207 L 16.959383 28.262207 L 16.959383 34.262207 L 19.459383 34.262207 L 19.459383 28.262207" stroke="gray" fill="white" stroke-width="1px"></path><path d="M 19.459383 22.262207 L 16.959383 22.262207 L 16.959383 28.262207 L 19.459383 28.262207 L 19.459383 22.262207" stroke="gray" fill="white" stroke-width="1px"></path><path d="M 19.459383 16.262207 L 16.959383 16.262207 L 16.959383 22.262207 L 19.459383 22.262207 L 19.459383 16.262207" stroke="gray" fill="white" stroke-width="1px"></path><path d="M 271.459383 27.691338 L 273.959383 27.691338 L 273.959383 33.691338 L 271.459383 33.691338 L 271.459383 27.691338" stroke="gray" fill="white" stroke-width="1px"></path><path d="M 271.459383 21.691338 L 273.959383 21.691338 L 273.959383 27.691338 L 271.459383 27.691338 L 271.459383 21.691338" stroke="gray" fill="white" stroke-width="1px"></path><path d="M 271.459383 15.691338 L 273.959383 15.691338 L 273.959383 21.691338 L 271.459383 21.691338 L 271.459383 15.691338" stroke="gray" fill="white" stroke-width="1px"></path><path d="M 259.459383 37.561290 L 261.959383 37.561290 L 261.959383 43.561290 L 259.459383 43.561290 L 259.459383 37.561290" stroke="gray" fill="white" stroke-width="1px"></path><path d="M 259.459383 31.561290 L 261.959383 31.561290 L 261.959383 37.561290 L 259.459383 37.561290 L 259.459383 31.561290" stroke="gray" fill="white" stroke-width="1px"></path><path d="M 259.459383 25.561290 L 261.959383 25.561290 L 261.959383 31.561290 L 259.459383 31.561290 L 259.459383 25.561290" stroke="gray" fill="white" stroke-width="1px"></path><path d="M 259.459383 19.561290 L 261.959383 19.561290 L 261.959383 25.561290 L 259.459383 25.561290 L 259.459383 19.561290" stroke="gray" fill="white" stroke-width="1px"></path><path d="M 259.459383 13.561290 L 261.959383 13.561290 L 261.959383 19.561290 L 259.459383 19.561290 L 259.459383 13.561290" stroke="gray" fill="white" stroke-width="1px"></path><path d="M 247.459383 47.431241 L 249.959383 47.431241 L 249.959383 53.431241 L 247.459383 53.431241 L 247.459383 47.431241" stroke="gray" fill="white" stroke-width="1px"></path><path d="M 247.459383 41.431241 L 249.959383 41.431241 L 249.959383 47.431241 L 247.459383 47.431241 L 247.459383 41.431241" stroke="gray" fill="white" stroke-width="1px"></path><path d="M 247.459383 35.431241 L 249.959383 35.431241 L 249.959383 41.431241 L 247.459383 41.431241 L 247.459383 35.431241" stroke="gray" fill="white" stroke-width="1px"></path><path d="M 247.459383 29.431241 L 249.959383 29.431241 L 249.959383 35.431241 L 247.459383 35.431241 L 247.459383 29.431241" stroke="gray" fill="white" stroke-width="1px"></path><path d="M 247.459383 23.431241 L 249.959383 23.431241 L 249.959383 29.431241 L 247.459383 29.431241 L 247.459383 23.431241" stroke="gray" fill="white" stroke-width="1px"></path><path d="M 247.459383 17.431241 L 249.959383 17.431241 L 249.959383 23.431241 L 247.459383 23.431241 L 247.459383 17.431241" stroke="gray" fill="white" stroke-width="1px"></path><path d="M 235.459383 101.033125 L 237.959383 101.033125 L 237.959383 107.033125 L 235.459383 107.033125 L 235.459383 101.033125" stroke="gray" fill="white" stroke-width="1px"></path><path d="M 235.459383 95.033125 L 237.959383 95.033125 L 237.959383 101.033125 L 235.459383 101.033125 L 235.459383 95.033125" stroke="gray" fill="white" stroke-width="1px"></path><path d="M 235.459383 89.033125 L 237.959383 89.033125 L 237.959383 95.033125 L 235.459383 95.033125 L 235.459383 89.033125" stroke="gray" fill="white" stroke-width="1px"></path><path d="M 235.459383 83.033125 L 237.959383 83.033125 L 237.959383 89.033125 L 235.459383 89.033125 L 235.459383 83.033125" stroke="gray" fill="white" stroke-width="1px"></path><path d="M 223.459383 101.033125 L 225.959383 101.033125 L 225.959383 107.033125 L 223.459383 107.033125 L 223.459383 101.033125" stroke="gray" fill="white" stroke-width="1px"></path><path d="M 223.459383 95.033125 L 225.959383 95.033125 L 225.959383 101.033125 L 223.459383 101.033125 L 223.459383 95.033125" stroke="gray" fill="white" stroke-width="1px"></path><path d="M 223.459383 89.033125 L 225.959383 89.033125 L 225.959383 95.033125 L 223.459383 95.033125 L 223.459383 89.033125" stroke="gray" fill="white" stroke-width="1px"></path><path d="M 223.459383 83.033125 L 225.959383 83.033125 L 225.959383 89.033125 L 223.459383 89.033125 L 223.459383 83.033125" stroke="gray" fill="white" stroke-width="1px"></path><path d="M 211.459383 101.033125 L 213.959383 101.033125 L 213.959383 107.033125 L 211.459383 107.033125 L 211.459383 101.033125" stroke="gray" fill="white" stroke-width="1px"></path><path d="M 163.459383 101.033125 L 165.959383 101.033125 L 165.959383 107.033125 L 163.459383 107.033125 L 163.459383 101.033125" stroke="gray" fill="white" stroke-width="1px"></path><path d="M 163.459383 95.033125 L 165.959383 95.033125 L 165.959383 101.033125 L 163.459383 101.033125 L 163.459383 95.033125" stroke="gray" fill="white" stroke-width="1px"></path><path d="M 163.459383 89.033125 L 165.959383 89.033125 L 165.959383 95.033125 L 163.459383 95.033125 L 163.459383 89.033125" stroke="gray" fill="white" stroke-width="1px"></path><path d="M 163.459383 83.033125 L 165.959383 83.033125 L 165.959383 89.033125 L 163.459383 89.033125 L 163.459383 83.033125" stroke="gray" fill="white" stroke-width="1px"></path><path d="M 151.459383 101.033125 L 153.959383 101.033125 L 153.959383 107.033125 L 151.459383 107.033125 L 151.459383 101.033125" stroke="gray" fill="white" stroke-width="1px"></path><path d="M 151.459383 95.033125 L 153.959383 95.033125 L 153.959383 101.033125 L 151.459383 101.033125 L 151.459383 95.033125" stroke="gray" fill="white" stroke-width="1px"></path><path d="M 151.459383 89.033125 L 153.959383 89.033125 L 153.959383 95.033125 L 151.459383 95.033125 L 151.459383 89.033125" stroke="gray" fill="white" stroke-width="1px"></path><path d="M 151.459383 83.033125 L 153.959383 83.033125 L 153.959383 89.033125 L 151.459383 89.033125 L 151.459383 83.033125" stroke="gray" fill="white" stroke-width="1px"></path><path d="M 139.459383 101.033125 L 141.959383 101.033125 L 141.959383 107.033125 L 139.459383 107.033125 L 139.459383 101.033125" stroke="gray" fill="white" stroke-width="1px"></path><path d="M 139.459383 95.033125 L 141.959383 95.033125 L 141.959383 101.033125 L 139.459383 101.033125 L 139.459383 95.033125" stroke="gray" fill="white" stroke-width="1px"></path><path d="M 103.459383 101.033125 L 105.959383 101.033125 L 105.959383 107.033125 L 103.459383 107.033125 L 103.459383 101.033125" stroke="gray" fill="white" stroke-width="1px"></path><path d="M 55.459383 29.467244 L 57.959383 29.467244 L 57.959383 35.467244 L 55.459383 35.467244 L 55.459383 29.467244" stroke="gray" fill="white" stroke-width="1px"></path><path d="M 55.459383 23.467244 L 57.959383 23.467244 L 57.959383 29.467244 L 55.459383 29.467244 L 55.459383 23.467244" stroke="gray" fill="white" stroke-width="1px"></path><path d="M 55.459383 17.467244 L 57.959383 17.467244 L 57.959383 23.467244 L 55.459383 23.467244 L 55.459383 17.467244" stroke="gray" fill="white" stroke-width="1px"></path><path d="M 43.459383 29.065565 L 45.959383 29.065565 L 45.959383 35.065565 L 43.459383 35.065565 L 43.459383 29.065565" stroke="gray" fill="white" stroke-width="1px"></path><path d="M 43.459383 23.065565 L 45.959383 23.065565 L 45.959383 29.065565 L 43.459383 29.065565 L 43.459383 23.065565" stroke="gray" fill="white" stroke-width="1px"></path><path d="M 43.459383 17.065565 L 45.959383 17.065565 L 45.959383 23.065565 L 43.459383 23.065565 L 43.459383 17.065565" stroke="gray" fill="white" stroke-width="1px"></path><path d="M 31.459383 28.663886 L 33.959383 28.663886 L 33.959383 34.663886 L 31.459383 34.663886 L 31.459383 28.663886" stroke="gray" fill="white" stroke-width="1px"></path><path d="M 31.459383 22.663886 L 33.959383 22.663886 L 33.959383 28.663886 L 31.459383 28.663886 L 31.459383 22.663886" stroke="gray" fill="white" stroke-width="1px"></path><path d="M 31.459383 16.663886 L 33.959383 16.663886 L 33.959383 22.663886 L 31.459383 22.663886 L 31.459383 16.663886" stroke="gray" fill="white" stroke-width="1px"></path><path d="M 19.459383 28.262207 L 21.959383 28.262207 L 21.959383 34.262207 L 19.459383 34.262207 L 19.459383 28.262207" stroke="gray" fill="white" stroke-width="1px"></path><path d="M 19.459383 22.262207 L 21.959383 22.262207 L 21.959383 28.262207 L 19.459383 28.262207 L 19.459383 22.262207" stroke="gray" fill="white" stroke-width="1px"></path><path d="M 19.459383 16.262207 L 21.959383 16.262207 L 21.959383 22.262207 L 19.459383 22.262207 L 19.459383 16.262207" stroke="gray" fill="white" stroke-width="1px"></path><path d="M 275.277607 101.263579 L 275.277607 98.763579 L 269.277607 98.763579 L 269.277607 101.263579 L 275.277607 101.263579" stroke="gray" fill="white" stroke-width="1px"></path><path d="M 270.942919 89.263579 L 270.942919 86.763579 L 264.942919 86.763579 L 264.942919 89.263579 L 270.942919 89.263579" stroke="gray" fill="white" stroke-width="1px"></path><path d="M 276.942919 89.263579 L 276.942919 86.763579 L 270.942919 86.763579 L 270.942919 89.263579 L 276.942919 89.263579" stroke="gray" fill="white" stroke-width="1px"></path><path d="M 266.608230 77.263579 L 266.608230 74.763579 L 260.608230 74.763579 L 260.608230 77.263579 L 266.608230 77.263579" stroke="gray" fill="white" stroke-width="1px"></path><path d="M 272.608230 77.263579 L 272.608230 74.763579 L 266.608230 74.763579 L 266.608230 77.263579 L 272.608230 77.263579" stroke="gray" fill="white" stroke-width="1px"></path><path d="M 278.608230 77.263579 L 278.608230 74.763579 L 272.608230 74.763579 L 272.608230 77.263579 L 278.608230 77.263579" stroke="gray" fill="white" stroke-width="1px"></path><path d="M 262.273542 65.263579 L 262.273542 62.763579 L 256.273542 62.763579 L 256.273542 65.263579 L 262.273542 65.263579" stroke="gray" fill="white" stroke-width="1px"></path><path d="M 268.273542 65.263579 L 268.273542 62.763579 L 262.273542 62.763579 L 262.273542 65.263579 L 268.273542 65.263579" stroke="gray" fill="white" stroke-width="1px"></path><path d="M 274.273542 65.263579 L 274.273542 62.763579 L 268.273542 62.763579 L 268.273542 65.263579 L 274.273542 65.263579" stroke="gray" fill="white" stroke-width="1px"></path><path d="M 266.958097 53.263579 L 266.958097 50.763579 L 260.958097 50.763579 L 260.958097 53.263579 L 266.958097 53.263579" stroke="gray" fill="white" stroke-width="1px"></path><path d="M 272.958097 53.263579 L 272.958097 50.763579 L 266.958097 50.763579 L 266.958097 53.263579 L 272.958097 53.263579" stroke="gray" fill="white" stroke-width="1px"></path><path d="M 278.958097 53.263579 L 278.958097 50.763579 L 272.958097 50.763579 L 272.958097 53.263579 L 278.958097 53.263579" stroke="gray" fill="white" stroke-width="1px"></path><path d="M 22.000000 101.263579 L 22.000000 98.763579 L 16.000000 98.763579 L 16.000000 101.263579 L 22.000000 101.263579" stroke="gray" fill="white" stroke-width="1px"></path><path d="M 28.000000 101.263579 L 28.000000 98.763579 L 22.000000 98.763579 L 22.000000 101.263579 L 28.000000 101.263579" stroke="gray" fill="white" stroke-width="1px"></path><path d="M 34.000000 101.263579 L 34.000000 98.763579 L 28.000000 98.763579 L 28.000000 101.263579 L 34.000000 101.263579" stroke="gray" fill="white" stroke-width="1px"></path><path d="M 40.000000 101.263579 L 40.000000 98.763579 L 34.000000 98.763579 L 34.000000 101.263579 L 40.000000 101.263579" stroke="gray" fill="white" stroke-width="1px"></path><path d="M 22.000000 89.263579 L 22.000000 86.763579 L 16.000000 86.763579 L 16.000000 89.263579 L 22.000000 89.263579" stroke="gray" fill="white" stroke-width="1px"></path><path d="M 28.000000 89.263579 L 28.000000 86.763579 L 22.000000 86.763579 L 22.000000 89.263579 L 28.000000 89.263579" stroke="gray" fill="white" stroke-width="1px"></path><path d="M 34.000000 89.263579 L 34.000000 86.763579 L 28.000000 86.763579 L 28.000000 89.263579 L 34.000000 89.263579" stroke="gray" fill="white" stroke-width="1px"></path><path d="M 40.000000 89.263579 L 40.000000 86.763579 L 34.000000 86.763579 L 34.000000 89.263579 L 40.000000 89.263579" stroke="gray" fill="white" stroke-width="1px"></path><path d="M 22.000000 77.263579 L 22.000000 74.763579 L 16.000000 74.763579 L 16.000000 77.263579 L 22.000000 77.263579" stroke="gray" fill="white" stroke-width="1px"></path><path d="M 28.000000 77.263579 L 28.000000 74.763579 L 22.000000 74.763579 L 22.000000 77.263579 L 28.000000 77.263579" stroke="gray" fill="white" stroke-width="1px"></path><path d="M 34.000000 77.263579 L 34.000000 74.763579 L 28.000000 74.763579 L 28.000000 77.263579 L 34.000000 77.263579" stroke="gray" fill="white" stroke-width="1px"></path><path d="M 40.000000 77.263579 L 40.000000 74.763579 L 34.000000 74.763579 L 34.000000 77.263579 L 40.000000 77.263579" stroke="gray" fill="white" stroke-width="1px"></path><path d="M 22.000000 65.263579 L 22.000000 62.763579 L 16.000000 62.763579 L 16.000000 65.263579 L 22.000000 65.263579" stroke="gray" fill="white" stroke-width="1px"></path><path d="M 28.000000 65.263579 L 28.000000 62.763579 L 22.000000 62.763579 L 22.000000 65.263579 L 28.000000 65.263579" stroke="gray" fill="white" stroke-width="1px"></path><path d="M 34.000000 65.263579 L 34.000000 62.763579 L 28.000000 62.763579 L 28.000000 65.263579 L 34.000000 65.263579" stroke="gray" fill="white" stroke-width="1px"></path><path d="M 40.000000 65.263579 L 40.000000 62.763579 L 34.000000 62.763579 L 34.000000 65.263579 L 40.000000 65.263579" stroke="gray" fill="white" stroke-width="1px"></path><path d="M 275.277607 101.263579 L 275.277607 103.763579 L 269.277607 103.763579 L 269.277607 101.263579 L 275.277607 101.263579" stroke="gray" fill="white" stroke-width="1px"></path><path d="M 270.942919 89.263579 L 270.942919 91.763579 L 264.942919 91.763579 L 264.942919 89.263579 L 270.942919 89.263579" stroke="gray" fill="white" stroke-width="1px"></path><path d="M 276.942919 89.263579 L 276.942919 91.763579 L 270.942919 91.763579 L 270.942919 89.263579 L 276.942919 89.263579" stroke="gray" fill="white" stroke-width="1px"></path><path d="M 266.608230 77.263579 L 266.608230 79.763579 L 260.608230 79.763579 L 260.608230 77.263579 L 266.608230 77.263579" stroke="gray" fill="white" stroke-width="1px"></path><path d="M 272.608230 77.263579 L 272.608230 79.763579 L 266.608230 79.763579 L 266.608230 77.263579 L 272.608230 77.263579" stroke="gray" fill="white" stroke-width="1px"></path><path d="M 278.608230 77.263579 L 278.608230 79.763579 L 272.608230 79.763579 L 272.608230 77.263579 L 278.608230 77.263579" stroke="gray" fill="white" stroke-width="1px"></path><path d="M 262.273542 65.263579 L 262.273542 67.763579 L 256.273542 67.763579 L 256.273542 65.263579 L 262.273542 65.263579" stroke="gray" fill="white" stroke-width="1px"></path><path d="M 268.273542 65.263579 L 268.273542 67.763579 L 262.273542 67.763579 L 262.273542 65.263579 L 268.273542 65.263579" stroke="gray" fill="white" stroke-width="1px"></path><path d="M 274.273542 65.263579 L 274.273542 67.763579 L 268.273542 67.763579 L 268.273542 65.263579 L 274.273542 65.263579" stroke="gray" fill="white" stroke-width="1px"></path><path d="M 266.958097 53.263579 L 266.958097 55.763579 L 260.958097 55.763579 L 260.958097 53.263579 L 266.958097 53.263579" stroke="gray" fill="white" stroke-width="1px"></path><path d="M 272.958097 53.263579 L 272.958097 55.763579 L 266.958097 55.763579 L 266.958097 53.263579 L 272.958097 53.263579" stroke="gray" fill="white" stroke-width="1px"></path><path d="M 278.958097 53.263579 L 278.958097 55.763579 L 272.958097 55.763579 L 272.958097 53.263579 L 278.958097 53.263579" stroke="gray" fill="white" stroke-width="1px"></path><path d="M 22.000000 101.263579 L 22.000000 103.763579 L 16.000000 103.763579 L 16.000000 101.263579 L 22.000000 101.263579" stroke="gray" fill="white" stroke-width="1px"></path><path d="M 28.000000 101.263579 L 28.000000 103.763579 L 22.000000 103.763579 L 22.000000 101.263579 L 28.000000 101.263579" stroke="gray" fill="white" stroke-width="1px"></path><path d="M 34.000000 101.263579 L 34.000000 103.763579 L 28.000000 103.763579 L 28.000000 101.263579 L 34.000000 101.263579" stroke="gray" fill="white" stroke-width="1px"></path><path d="M 40.000000 101.263579 L 40.000000 103.763579 L 34.000000 103.763579 L 34.000000 101.263579 L 40.000000 101.263579" stroke="gray" fill="white" stroke-width="1px"></path><path d="M 22.000000 89.263579 L 22.000000 91.763579 L 16.000000 91.763579 L 16.000000 89.263579 L 22.000000 89.263579" stroke="gray" fill="white" stroke-width="1px"></path><path d="M 28.000000 89.263579 L 28.000000 91.763579 L 22.000000 91.763579 L 22.000000 89.263579 L 28.000000 89.263579" stroke="gray" fill="white" stroke-width="1px"></path><path d="M 34.000000 89.263579 L 34.000000 91.763579 L 28.000000 91.763579 L 28.000000 89.263579 L 34.000000 89.263579" stroke="gray" fill="white" stroke-width="1px"></path><path d="M 40.000000 89.263579 L 40.000000 91.763579 L 34.000000 91.763579 L 34.000000 89.263579 L 40.000000 89.263579" stroke="gray" fill="white" stroke-width="1px"></path><path d="M 22.000000 77.263579 L 22.000000 79.763579 L 16.000000 79.763579 L 16.000000 77.263579 L 22.000000 77.263579" stroke="gray" fill="white" stroke-width="1px"></path><path d="M 28.000000 77.263579 L 28.000000 79.763579 L 22.000000 79.763579 L 22.000000 77.263579 L 28.000000 77.263579" stroke="gray" fill="white" stroke-width="1px"></path><path d="M 34.000000 77.263579 L 34.000000 79.763579 L 28.000000 79.763579 L 28.000000 77.263579 L 34.000000 77.263579" stroke="gray" fill="white" stroke-width="1px"></path><path d="M 40.000000 77.263579 L 40.000000 79.763579 L 34.000000 79.763579 L 34.000000 77.263579 L 40.000000 77.263579" stroke="gray" fill="white" stroke-width="1px"></path><path d="M 22.000000 65.263579 L 22.000000 67.763579 L 16.000000 67.763579 L 16.000000 65.263579 L 22.000000 65.263579" stroke="gray" fill="white" stroke-width="1px"></path><path d="M 28.000000 65.263579 L 28.000000 67.763579 L 22.000000 67.763579 L 22.000000 65.263579 L 28.000000 65.263579" stroke="gray" fill="white" stroke-width="1px"></path><path d="M 34.000000 65.263579 L 34.000000 67.763579 L 28.000000 67.763579 L 28.000000 65.263579 L 34.000000 65.263579" stroke="gray" fill="white" stroke-width="1px"></path><path d="M 40.000000 65.263579 L 40.000000 67.763579 L 34.000000 67.763579 L 34.000000 65.263579 L 40.000000 65.263579" stroke="gray" fill="white" stroke-width="1px"></path></g><g id="crv-base"><path d="M 221.371570 123.090312 L 221.371570 169.241094 L 120.000633 169.241094 L 120.000633 156.444206 L 126.051258 156.444206 L 126.051258 128.832500 L 123.590320 128.832500 L 123.590320 125.551250 L 126.051258 125.551250 L 126.051258 123.858132 L 91.315945 123.858125 L 91.315945 134.738750 L 64.258762 134.738750 L 64.258762 123.687497 L 10.000000 123.687497 L 10.000000 226.180625 L 64.258758 226.180625 L 64.258758 192.357500 L 91.315945 192.357500 L 91.315945 220.123437 L 283.459383 220.123437 L 283.459383 123.090312 L 221.371570 123.090312" stroke="black" fill="none" stroke-width="1px"></path><path d="M 221.371570 10.000000 L 221.371570 56.150781 L 120.000633 56.150781 L 120.000633 43.353893 L 126.051258 43.353893 L 126.051258 15.742187 L 123.590320 15.742187 L 123.590320 12.460937 L 126.051258 12.460937 L 126.051258 10.767819 L 91.315945 10.767812 L 91.315945 21.648438 L 64.258762 21.648438 L 64.258762 10.597185 L 10.000000 10.597185 L 10.000000 113.090312 L 64.258758 113.090312 L 64.258758 79.267187 L 91.315945 79.267187 L 91.315945 107.033125 L 283.459383 107.033125 L 283.459383 10.000000 L 221.371570 10.000000" stroke="black" fill="none" stroke-width="1px"></path><path d="M 10.387195 156.559062 L 10.387195 154.590312 L 12.355945 154.590312 L 12.355945 156.559062 L 10.387195 156.559062" stroke="black" fill="white" stroke-width="1px"></path><path d="M 10.387195 43.468750 L 10.387195 41.500000 L 12.355945 41.500000 L 12.355945 43.468750 L 10.387195 43.468750" stroke="black" fill="white" stroke-width="1px"></path><path d="M 10.387195 188.059062 L 10.387195 186.090312 L 12.355945 186.090312 L 12.355945 188.059062 L 10.387195 188.059062" stroke="black" fill="white" stroke-width="1px"></path><path d="M 10.387195 74.968750 L 10.387195 73.000000 L 12.355945 73.000000 L 12.355945 74.968750 L 10.387195 74.968750" stroke="black" fill="white" stroke-width="1px"></path><path d="M 10.387195 219.559062 L 10.387195 217.590312 L 12.355945 217.590312 L 12.355945 219.559062 L 10.387195 219.559062" stroke="black" fill="white" stroke-width="1px"></path><path d="M 10.387195 106.468750 L 10.387195 104.500000 L 12.355945 104.500000 L 12.355945 106.468750 L 10.387195 106.468750" stroke="black" fill="white" stroke-width="1px"></path><path d="M 60.754383 128.340312 L 60.754383 125.387187 L 63.871570 125.387187 L 63.871570 128.340312 L 60.754383 128.340312" stroke="black" fill="white" stroke-width="1px"></path><path d="M 60.754383 15.250000 L 60.754383 12.296875 L 63.871570 12.296875 L 63.871570 15.250000 L 60.754383 15.250000" stroke="black" fill="white" stroke-width="1px"></path><path d="M 280.598133 219.230937 L 280.598133 217.262187 L 282.566883 217.262187 L 282.566883 219.230937 L 280.598133 219.230937" stroke="black" fill="white" stroke-width="1px"></path><path d="M 280.598133 106.140625 L 280.598133 104.171875 L 282.566883 104.171875 L 282.566883 106.140625 L 280.598133 106.140625" stroke="black" fill="white" stroke-width="1px"></path><path d="M 280.598133 188.059062 L 280.598133 186.090312 L 282.566883 186.090312 L 282.566883 188.059062 L 280.598133 188.059062" stroke="black" fill="white" stroke-width="1px"></path><path d="M 280.598133 74.968750 L 280.598133 73.000000 L 282.566883 73.000000 L 282.566883 74.968750 L 280.598133 74.968750" stroke="black" fill="white" stroke-width="1px"></path><path d="M 280.598133 156.559050 L 280.598133 154.590300 L 282.566883 154.590300 L 282.566883 156.559050 L 280.598133 156.559050" stroke="black" fill="white" stroke-width="1px"></path><path d="M 280.598133 43.468737 L 280.598133 41.499987 L 282.566883 41.499987 L 282.566883 43.468737 L 280.598133 43.468737" stroke="black" fill="white" stroke-width="1px"></path><path d="M 248.605945 127.355937 L 248.605945 123.418437 L 251.887195 123.418437 L 251.887195 127.355937 L 248.605945 127.355937" stroke="black" fill="white" stroke-width="1px"></path><path d="M 248.605945 14.265625 L 248.605945 10.328125 L 251.887195 10.328125 L 251.887195 14.265625 L 248.605945 14.265625" stroke="black" fill="white" stroke-width="1px"></path><path d="M 248.605945 157.871562 L 248.605945 153.934062 L 251.887195 153.934062 L 251.887195 157.871562 L 248.605945 157.871562" stroke="black" fill="white" stroke-width="1px"></path><path d="M 248.605945 44.781250 L 248.605945 40.843750 L 251.887195 40.843750 L 251.887195 44.781250 L 248.605945 44.781250" stroke="black" fill="white" stroke-width="1px"></path><path d="M 248.605945 189.043437 L 248.605945 185.105937 L 251.887195 185.105937 L 251.887195 189.043437 L 248.605945 189.043437" stroke="black" fill="white" stroke-width="1px"></path><path d="M 248.605945 75.953125 L 248.605945 72.015625 L 251.887195 72.015625 L 251.887195 75.953125 L 248.605945 75.953125" stroke="black" fill="white" stroke-width="1px"></path><path d="M 248.934070 219.230937 L 248.934070 216.277812 L 251.887195 216.277812 L 251.887195 219.230937 L 248.934070 219.230937" stroke="black" fill="white" stroke-width="1px"></path><path d="M 248.934070 106.140625 L 248.934070 103.187500 L 251.887195 103.187500 L 251.887195 106.140625 L 248.934070 106.140625" stroke="black" fill="white" stroke-width="1px"></path><path d="M 218.090320 189.043437 L 218.090320 185.105937 L 221.371570 185.105937 L 221.371570 189.043437 L 218.090320 189.043437" stroke="black" fill="white" stroke-width="1px"></path><path d="M 218.090320 75.953125 L 218.090320 72.015625 L 221.371570 72.015625 L 221.371570 75.953125 L 218.090320 75.953125" stroke="black" fill="white" stroke-width="1px"></path><path d="M 218.254383 219.230937 L 218.254383 216.277812 L 221.207508 216.277812 L 221.207508 219.230937 L 218.254383 219.230937" stroke="black" fill="white" stroke-width="1px"></path><path d="M 218.254383 106.140625 L 218.254383 103.187500 L 221.207508 103.187500 L 221.207508 106.140625 L 218.254383 106.140625" stroke="black" fill="white" stroke-width="1px"></path><path d="M 186.590320 189.043437 L 186.590320 185.105937 L 189.871570 185.105937 L 189.871570 189.043437 L 186.590320 189.043437" stroke="black" fill="white" stroke-width="1px"></path><path d="M 186.590320 75.953125 L 186.590320 72.015625 L 189.871570 72.015625 L 189.871570 75.953125 L 186.590320 75.953125" stroke="black" fill="white" stroke-width="1px"></path><path d="M 186.754383 219.230937 L 186.754383 216.277812 L 189.707508 216.277812 L 189.707508 219.230937 L 186.754383 219.230937" stroke="black" fill="white" stroke-width="1px"></path><path d="M 186.754383 106.140625 L 186.754383 103.187500 L 189.707508 103.187500 L 189.707508 106.140625 L 186.754383 106.140625" stroke="black" fill="white" stroke-width="1px"></path><path d="M 155.090320 189.043437 L 155.090320 185.105937 L 158.371570 185.105937 L 158.371570 189.043437 L 155.090320 189.043437" stroke="black" fill="white" stroke-width="1px"></path><path d="M 155.090320 75.953125 L 155.090320 72.015625 L 158.371570 72.015625 L 158.371570 75.953125 L 155.090320 75.953125" stroke="black" fill="white" stroke-width="1px"></path><path d="M 155.254383 219.230937 L 155.254383 216.277812 L 158.207508 216.277812 L 158.207508 219.230937 L 155.254383 219.230937" stroke="black" fill="white" stroke-width="1px"></path><path d="M 155.254383 106.140625 L 155.254383 103.187500 L 158.207508 103.187500 L 158.207508 106.140625 L 155.254383 106.140625" stroke="black" fill="white" stroke-width="1px"></path><path d="M 123.590320 189.043437 L 123.590320 185.105937 L 126.871570 185.105937 L 126.871570 189.043437 L 123.590320 189.043437" stroke="black" fill="white" stroke-width="1px"></path><path d="M 123.590320 75.953125 L 123.590320 72.015625 L 126.871570 72.015625 L 126.871570 75.953125 L 123.590320 75.953125" stroke="black" fill="white" stroke-width="1px"></path><path d="M 123.754383 219.230937 L 123.754383 216.277812 L 126.707508 216.277812 L 126.707508 219.230937 L 123.754383 219.230937" stroke="black" fill="white" stroke-width="1px"></path><path d="M 123.754383 106.140625 L 123.754383 103.187500 L 126.707508 103.187500 L 126.707508 106.140625 L 123.754383 106.140625" stroke="black" fill="white" stroke-width="1px"></path><path d="M 92.090320 157.543437 L 92.090320 153.605937 L 95.371570 153.605937 L 95.371570 157.543437 L 92.090320 157.543437" stroke="black" fill="white" stroke-width="1px"></path><path d="M 92.090320 44.453125 L 92.090320 40.515625 L 95.371570 40.515625 L 95.371570 44.453125 L 92.090320 44.453125" stroke="black" fill="white" stroke-width="1px"></path><path d="M 92.090320 189.043437 L 92.090320 185.105937 L 95.371570 185.105937 L 95.371570 189.043437 L 92.090320 189.043437" stroke="black" fill="white" stroke-width="1px"></path><path d="M 92.090320 75.953125 L 92.090320 72.015625 L 95.371570 72.015625 L 95.371570 75.953125 L 92.090320 75.953125" stroke="black" fill="white" stroke-width="1px"></path><path d="M 92.090320 128.504375 L 92.090320 125.551250 L 95.207508 125.551250 L 95.207508 128.504375 L 92.090320 128.504375" stroke="black" fill="white" stroke-width="1px"></path><path d="M 92.090320 15.414062 L 92.090320 12.460937 L 95.207508 12.460937 L 95.207508 15.414062 L 92.090320 15.414062" stroke="black" fill="white" stroke-width="1px"></path><path d="M 60.590320 157.215312 L 60.590320 153.934062 L 63.871570 153.934062 L 63.871570 157.215312 L 60.590320 157.215312" stroke="black" fill="white" stroke-width="1px"></path><path d="M 60.590320 44.125000 L 60.590320 40.843750 L 63.871570 40.843750 L 63.871570 44.125000 L 60.590320 44.125000" stroke="black" fill="white" stroke-width="1px"></path><path d="M 60.754383 219.230937 L 60.754383 216.277812 L 63.871570 216.277812 L 63.871570 219.230937 L 60.754383 219.230937" stroke="black" fill="white" stroke-width="1px"></path><path d="M 60.754383 106.140625 L 60.754383 103.187500 L 63.871570 103.187500 L 63.871570 106.140625 L 60.754383 106.140625" stroke="black" fill="white" stroke-width="1px"></path><path d="M 30.074695 128.504375 L 30.074695 125.223125 L 33.027820 125.223125 L 33.027820 128.504375 L 30.074695 128.504375" stroke="black" fill="white" stroke-width="1px"></path><path d="M 30.074695 15.414062 L 30.074695 12.132812 L 33.027820 12.132812 L 33.027820 15.414062 L 30.074695 15.414062" stroke="black" fill="white" stroke-width="1px"></path><path d="M 30.074695 157.215312 L 30.074695 153.934062 L 33.355945 153.934062 L 33.355945 157.215312 L 30.074695 157.215312" stroke="black" fill="white" stroke-width="1px"></path><path d="M 30.074695 44.125000 L 30.074695 40.843750 L 33.355945 40.843750 L 33.355945 44.125000 L 30.074695 44.125000" stroke="black" fill="white" stroke-width="1px"></path><path d="M 30.074695 188.715312 L 30.074695 185.434062 L 33.355945 185.434062 L 33.355945 188.715312 L 30.074695 188.715312" stroke="black" fill="white" stroke-width="1px"></path><path d="M 30.074695 75.625000 L 30.074695 72.343750 L 33.355945 72.343750 L 33.355945 75.625000 L 30.074695 75.625000" stroke="black" fill="white" stroke-width="1px"></path><path d="M 30.074695 219.230937 L 30.074695 216.277812 L 33.027820 216.277812 L 33.027820 219.230937 L 30.074695 219.230937" stroke="black" fill="white" stroke-width="1px"></path><path d="M 30.074695 106.140625 L 30.074695 103.187500 L 33.027820 103.187500 L 33.027820 106.140625 L 30.074695 106.140625" stroke="black" fill="white" stroke-width="1px"></path><path d="M 10.387195 127.191875 L 10.387195 125.223125 L 12.355945 125.223125 L 12.355945 127.191875 L 10.387195 127.191875" stroke="black" fill="white" stroke-width="1px"></path><path d="M 10.387195 14.101562 L 10.387195 12.132812 L 12.355945 12.132812 L 12.355945 14.101562 L 10.387195 14.101562" stroke="black" fill="white" stroke-width="1px"></path><path d="M 60.590320 189.863750 L 60.590320 185.434062 L 63.871570 185.434062 L 63.871570 188.715312 L 62.230945 188.715312 L 62.230945 189.863750 L 60.590320 189.863750" stroke="black" fill="white" stroke-width="1px"></path><path d="M 60.590320 76.773437 L 60.590320 72.343750 L 63.871570 72.343750 L 63.871570 75.625000 L 62.230945 75.625000 L 62.230945 76.773437 L 60.590320 76.773437" stroke="black" fill="white" stroke-width="1px"></path></g></svg>