<svg width="293.459383" height="236.180625" xmlns="http://www.w3.org/2000/svg" xmlns:xlink="http://www.w3.org/1999/xlink" version="1.1"><g id="crv-background"><path d="M 221.371570 123.090312 L 221.371570 169.241094 L 120.000633 169.241094 L 120.000633 156.444206 L 126.051258 156.444206 L 126.051258 128.832500 L 123.590320 128.832500 L 123.590320 125.551250 L 126.051258 125.551250 L 126.051258 123.858132 L 91.315945 123.858125 L 91.315945 134.738750 L 64.258762 134.738750 L 64.258762 123.687497 L 10.000000 123.687497 L 10.000000 226.180625 L 64.258758 226.180625 L 64.258758 192.357500 L 91.315945 192.357500 L 91.315945 220.123437 L 283.459383 220.123437 L 283.459383 123.090312 L 221.371570 123.090312" stroke="none" fill="white" stroke-width="1px"></path><path d="M 221.371570 10.000000 L 221.371570 56.150781 L 120.000633 56.150781 L 120.000633 43.353893 L 126.051258 43.353893 L 126.051258 15.742187 L 123.590320 15.742187 L 123.590320 12.460937 L 126.051258 12.460937 L 126.051258 10.767819 L 91.315945 10.767812 L 91.315945 21.648438 L 64.258762 21.648438 L 64.258762 10.597185 L 10.000000 10.597185 L 10.000000 113.090312 L 64.258758 113.090312 L 64.258758 79.267187 L 91.315945 79.267187 L 91.315945 107.033125 L 283.459383 107.033125 L 283.459383 10.000000 L 221.371570 10.000000" stroke="none" fill="white" stroke-width="1px"></path></g><g id="crv-nbhd"><path d="M 221.737654 10.000004 L 221.737654 28.072888 L 221.737654 46.145773 L 227.580379 48.697661 L 233.423105 51.249549 L 258.441244 52.178540 L 283.459383 53.107531 L 283.459383 31.553765 L 283.459382 10.000000 L 252.598525 10.000002 L 221.737654 10.000004" stroke="#DD2222" fill="none" stroke-width="1px"></path><path d="M 283.459383 107.033125 L 283.459383 80.070328 L 283.459383 53.107531 L 258.441244 52.178540 L 233.423105 51.249549 L 243.748012 79.141337 L 254.072919 107.033125 L 268.766151 107.033125 L 283.459383 107.033125" stroke="#DD2222" fill="none" stroke-width="1px"></path><path d="M 221.737654 46.145773 L 221.737654 62.648552 L 221.737654 79.151330 L 216.716860 79.151330 L 211.696067 79.151330 L 211.687419 93.092228 L 211.678771 107.033125 L 232.875845 107.033125 L 254.072919 107.033125 L 243.748012 79.141337 L 233.423105 51.249549 L 227.580380 48.697662 L 221.737654 46.145773" stroke="#DD2222" fill="none" stroke-width="1px"></path><path d="M 211.696067 79.151330 L 190.717030 79.151330 L 169.737993 79.151329 L 170.906909 93.092227 L 172.075825 107.033125 L 191.877298 107.033125 L 211.678771 107.033125 L 211.687419 93.092231 L 211.696067 79.151330" stroke="#DD2222" fill="none" stroke-width="1px"></path><path d="M 169.737993 79.151329 L 151.293395 79.151329 L 132.848797 79.151328 L 131.663730 93.092227 L 130.478663 107.033125 L 151.277244 107.033125 L 172.075825 107.033125 L 170.906909 93.092230 L 169.737993 79.151329" stroke="#DD2222" fill="none" stroke-width="1px"></path><path d="M 132.848797 79.151328 L 112.082371 79.151328 L 91.315945 79.151327 L 91.315945 93.092226 L 91.315945 107.033125 L 110.897304 107.033125 L 130.478663 107.033125 L 131.663730 93.092227 L 132.848797 79.151328" stroke="#DD2222" fill="none" stroke-width="1px"></path><path d="M 64.258758 113.090312 L 64.258758 85.404256 L 64.258758 57.718200 L 37.129379 60.017037 L 10.000000 62.315875 L 10.000000 87.703094 L 10.000000 113.090312 L 37.129379 113.090312 L 64.258758 113.090312" stroke="#DD2222" fill="none" stroke-width="1px"></path><path d="M 10.000000 10.597184 L 10.000000 36.456529 L 10.000000 62.315875 L 37.129379 60.017037 L 64.258758 57.718200 L 64.258758 56.934491 L 64.258758 56.150781 L 64.258758 33.373983 L 64.258758 10.597185 L 37.129379 10.597185 L 10.000000 10.597184" stroke="#DD2222" fill="none" stroke-width="1px"></path><path d="M 10.000000 123.687497 L 10.000000 151.252298 L 10.000000 178.817100 L 37.129379 177.492695 L 64.258758 176.168291 L 64.258758 172.704692 L 64.258758 169.241094 L 64.258758 146.464296 L 64.258758 123.687497 L 37.129385 123.687497 L 10.000000 123.687497" stroke="#DD2222" fill="none" stroke-width="1px"></path><path d="M 10.000000 178.817100 L 10.000000 202.498862 L 10.000000 226.180625 L 37.129381 226.180625 L 64.258762 226.180625 L 64.258762 201.174452 L 64.258758 176.168291 L 37.129379 177.492695 L 10.000000 178.817100" stroke="#DD2222" fill="none" stroke-width="1px"></path><path d="M 144.092924 192.043444 L 117.704435 192.043444 L 91.315945 192.043444 L 91.315945 206.083441 L 91.315945 220.123437 L 114.702231 220.123437 L 138.088516 220.123437 L 141.090720 206.083441 L 144.092924 192.043444" stroke="#DD2222" fill="none" stroke-width="1px"></path><path d="M 182.446815 192.043444 L 163.269869 192.043444 L 144.092924 192.043444 L 141.090720 206.083441 L 138.088516 220.123437 L 170.044908 220.123437 L 202.001299 220.123437 L 192.224057 206.083441 L 182.446815 192.043444" stroke="#DD2222" fill="none" stroke-width="1px"></path><path d="M 230.687576 192.043444 L 206.567196 192.043444 L 182.446815 192.043444 L 192.224057 206.083441 L 202.001299 220.123437 L 213.305855 220.123437 L 224.610411 220.123437 L 227.648994 206.083441 L 230.687576 192.043444" stroke="#DD2222" fill="none" stroke-width="1px"></path><path d="M 283.459383 220.123437 L 283.459383 190.449666 L 283.459383 160.775895 L 261.598517 163.885576 L 239.737652 166.995257 L 239.737652 179.519351 L 239.737652 192.043444 L 235.212614 192.043444 L 230.687576 192.043444 L 227.648994 206.083441 L 224.610411 220.123437 L 254.034897 220.123437 L 283.459383 220.123437" stroke="#DD2222" fill="none" stroke-width="1px"></path><path d="M 239.737652 123.090312 L 239.737652 145.042785 L 239.737652 166.995257 L 261.598517 163.885576 L 283.459383 160.775895 L 283.459383 141.933104 L 283.459383 123.090312 L 261.598522 123.090312 L 239.737652 123.090312" stroke="#DD2222" fill="none" stroke-width="1px"></path></g><g id="crv-amen"><path d="M 58.832882 138.640815 L 58.832882 131.994896 L 58.832882 125.348977 L 37.129379 125.348977 L 15.425876 125.348976 L 15.425876 131.994895 L 15.425876 138.640814 L 37.129379 138.640814 L 58.832882 138.640815" stroke="none" fill="#2288CC" stroke-width="1px"></path><path d="M 49.309973 221.219836 L 55.955888 221.219836 L 62.601810 221.219836 L 62.601808 201.214907 L 62.601806 181.209969 L 55.955886 181.534410 L 49.309970 181.858851 L 49.309971 201.539344 L 49.309973 221.219836" stroke="none" fill="#2288CC" stroke-width="1px"></path><path d="M 123.397596 217.315438 L 130.193757 217.315438 L 136.989917 217.315438 L 139.391680 206.083441 L 141.793443 194.851444 L 134.997283 194.851444 L 128.201123 194.851444 L 125.799360 206.083441 L 123.397596 217.315438" stroke="none" fill="#2288CC" stroke-width="1px"></path><path d="M 158.783844 194.851444 L 151.987684 194.851444 L 145.191523 194.851444 L 142.789760 206.083441 L 140.387997 217.315438 L 147.184157 217.315438 L 153.980318 217.315438 L 156.382081 206.083441 L 158.783844 194.851444" stroke="none" fill="#2288CC" stroke-width="1px"></path><path d="M 209.918618 217.315438 L 216.718400 217.315438 L 223.518182 217.315438 L 225.949048 206.083441 L 228.379914 194.851444 L 221.580132 194.851444 L 214.780350 194.851444 L 212.349484 206.083441 L 209.918618 217.315438" stroke="none" fill="#2288CC" stroke-width="1px"></path><path d="M 239.040982 193.313084 L 239.040982 194.058178 L 239.040982 194.803271 L 235.420952 194.803271 L 231.800922 194.803271 L 229.370056 206.035268 L 226.939190 217.267265 L 233.738972 217.267265 L 240.538754 217.267265 L 242.981388 205.980894 L 245.424021 194.694523 L 242.232502 194.003804 L 239.040982 193.313084" stroke="none" fill="#2288CC" stroke-width="1px"></path><path d="M 244.109825 151.269473 L 244.109825 157.982294 L 244.109825 164.695116 L 261.598517 162.207371 L 279.087210 159.719626 L 279.087210 153.006805 L 279.087210 146.293984 L 261.598517 148.781729 L 244.109825 151.269473" stroke="none" fill="#2288CC" stroke-width="1px"></path><path d="M 277.287210 24.953318 L 277.287210 18.307397 L 277.287209 11.661480 L 252.598518 11.661482 L 227.909827 11.661483 L 227.909827 18.307402 L 227.909827 24.953321 L 252.598518 24.953319 L 277.287210 24.953318" stroke="none" fill="#2288CC" stroke-width="1px"></path><path d="M 251.639364 57.394820 L 244.453941 57.128006 L 237.268519 56.861191 L 245.528444 79.174622 L 253.788370 101.488052 L 260.875024 101.488052 L 267.961678 101.488052 L 259.800521 79.441436 L 251.639364 57.394820" stroke="none" fill="#2288CC" stroke-width="1px"></path><path d="M 236.162111 101.506252 L 243.248765 101.506252 L 250.335419 101.506252 L 242.075493 79.192821 L 233.815567 56.879391 L 229.728230 55.094192 L 225.640892 53.308993 L 225.054049 53.526228 L 224.467207 53.743464 L 224.467207 61.828503 L 224.467207 69.913542 L 230.314659 85.709897 L 236.162111 101.506252" stroke="none" fill="#2288CC" stroke-width="1px"></path><path d="M 196.727180 104.244945 L 203.373100 104.244945 L 210.019020 104.244945 L 210.025939 93.092228 L 210.032858 81.939510 L 203.386938 81.939509 L 196.741018 81.939509 L 196.734099 93.092227 L 196.727180 104.244945" stroke="none" fill="#2288CC" stroke-width="1px"></path><path d="M 156.836252 104.244945 L 163.505492 104.244945 L 170.174732 104.244945 L 169.239599 93.092227 L 168.304466 81.939509 L 161.635226 81.939509 L 154.965987 81.939508 L 155.901119 93.092227 L 156.836252 104.244945" stroke="none" fill="#2288CC" stroke-width="1px"></path><path d="M 115.708430 104.244945 L 122.378317 104.244945 L 129.048205 104.244945 L 129.996258 93.092227 L 130.944312 81.939508 L 124.274424 81.939508 L 117.604536 81.939508 L 116.656483 93.092226 L 115.708430 104.244945" stroke="none" fill="#2288CC" stroke-width="1px"></path><path d="M 58.832882 73.184873 L 58.832882 66.515137 L 58.832882 59.845401 L 37.129379 61.684471 L 15.425876 63.523541 L 15.425876 70.193277 L 15.425876 76.863012 L 37.129379 75.023943 L 58.832882 73.184873" stroke="none" fill="#2288CC" stroke-width="1px"></path><path d="M 58.832882 25.550502 L 58.832882 18.904583 L 58.832882 12.258665 L 37.129379 12.258664 L 15.425876 12.258664 L 15.425876 18.904583 L 15.425876 25.550501 L 37.129379 25.550502 L 58.832882 25.550502" stroke="none" fill="#2288CC" stroke-width="1px"></path></g><g id="crv-desk"><path d="M 31.459383 220.180625 L 28.959383 220.180625 L 28.959383 226.180625 L 31.459383 226.180625 L 31.459383 220.180625" stroke="gray" fill="white" stroke-width="1px"></path><path d="M 31.459383 214.180625 L 28.959383 214.180625 L 28.959383 220.180625 L 31.459383 220.180625 L 31.459383 214.180625" stroke="gray" fill="white" stroke-width="1px"></path><path d="M 31.459383 208.180625 L 28.959383 208.180625 L 28.959383 214.180625 L 31.459383 214.180625 L 31.459383 208.180625" stroke="gray" fill="white" stroke-width="1px"></path><path d="M 31.459383 202.180625 L 28.959383 202.180625 L 28.959383 208.180625 L 31.459383 208.180625 L 31.459383 202.180625" stroke="gray" fill="white" stroke-width="1px"></path><path d="M 31.459383 196.180625 L 28.959383 196.180625 L 28.959383 202.180625 L 31.459383 202.180625 L 31.459383 196.180625" stroke="gray" fill="white" stroke-width="1px"></path><path d="M 31.459383 190.180625 L 28.959383 190.180625 L 28.959383 196.180625 L 31.459383 196.180625 L 31.459383 190.180625" stroke="gray" fill="white" stroke-width="1px"></path><path d="M 31.459383 184.180625 L 28.959383 184.180625 L 28.959383 190.180625 L 31.459383 190.180625 L 31.459383 184.180625" stroke="gray" fill="white" stroke-width="1px"></path><path d="M 19.459383 220.180625 L 16.959383 220.180625 L 16.959383 226.180625 L 19.459383 226.180625 L 19.459383 220.180625" stroke="gray" fill="white" stroke-width="1px"></path><path d="M 19.459383 214.180625 L 16.959383 214.180625 L 16.959383 220.180625 L 19.459383 220.180625 L 19.459383 214.180625" stroke="gray" fill="white" stroke-width="1px"></path><path d="M 19.459383 208.180625 L 16.959383 208.180625 L 16.959383 214.180625 L 19.459383 214.180625 L 19.459383 208.180625" stroke="gray" fill="white" stroke-width="1px"></path><path d="M 19.459383 202.180625 L 16.959383 202.180625 L 16.959383 208.180625 L 19.459383 208.180625 L 19.459383 202.180625" stroke="gray" fill="white" stroke-width="1px"></path><path d="M 19.459383 196.180625 L 16.959383 196.180625 L 16.959383 202.180625 L 19.459383 202.180625 L 19.459383 196.180625" stroke="gray" fill="white" stroke-width="1px"></path><path d="M 19.459383 190.180625 L 16.959383 190.180625 L 16.959383 196.180625 L 19.459383 196.180625 L 19.459383 190.180625" stroke="gray" fill="white" stroke-width="1px"></path><path d="M 19.459383 184.180625 L 16.959383 184.180625 L 16.959383 190.180625 L 19.459383 190.180625 L 19.459383 184.180625" stroke="gray" fill="white" stroke-width="1px"></path><path d="M 115.459383 214.123437 L 112.959383 214.123437 L 112.959383 220.123437 L 115.459383 220.123437 L 115.459383 214.123437" stroke="gray" fill="white" stroke-width="1px"></path><path d="M 115.459383 208.123437 L 112.959383 208.123437 L 112.959383 214.123437 L 115.459383 214.123437 L 115.459383 208.123437" stroke="gray" fill="white" stroke-width="1px"></path><path d="M 115.459383 202.123437 L 112.959383 202.123437 L 112.959383 208.123437 L 115.459383 208.123437 L 115.459383 202.123437" stroke="gray" fill="white" stroke-width="1px"></path><path d="M 115.459383 196.123437 L 112.959383 196.123437 L 112.959383 202.123437 L 115.459383 202.123437 L 115.459383 196.123437" stroke="gray" fill="white" stroke-width="1px"></path><path d="M 103.459383 214.123437 L 100.959383 214.123437 L 100.959383 220.123437 L 103.459383 220.123437 L 103.459383 214.123437" stroke="gray" fill="white" stroke-width="1px"></path><path d="M 103.459383 208.123437 L 100.959383 208.123437 L 100.959383 214.123437 L 103.459383 214.123437 L 103.459383 208.123437" stroke="gray" fill="white" stroke-width="1px"></path><path d="M 103.459383 202.123437 L 100.959383 202.123437 L 100.959383 208.123437 L 103.459383 208.123437 L 103.459383 202.123437" stroke="gray" fill="white" stroke-width="1px"></path><path d="M 103.459383 196.123437 L 100.959383 196.123437 L 100.959383 202.123437 L 103.459383 202.123437 L 103.459383 196.123437" stroke="gray" fill="white" stroke-width="1px"></path><path d="M 187.459383 214.123437 L 184.959383 214.123437 L 184.959383 220.123437 L 187.459383 220.123437 L 187.459383 214.123437" stroke="gray" fill="white" stroke-width="1px"></path><path d="M 187.459383 208.123437 L 184.959383 208.123437 L 184.959383 214.123437 L 187.459383 214.123437 L 187.459383 208.123437" stroke="gray" fill="white" stroke-width="1px"></path><path d="M 175.459383 214.123437 L 172.959383 214.123437 L 172.959383 220.123437 L 175.459383 220.123437 L 175.459383 214.123437" stroke="gray" fill="white" stroke-width="1px"></path><path d="M 175.459383 208.123437 L 172.959383 208.123437 L 172.959383 214.123437 L 175.459383 214.123437 L 175.459383 208.123437" stroke="gray" fill="white" stroke-width="1px"></path><path d="M 175.459383 202.123437 L 172.959383 202.123437 L 172.959383 208.123437 L 175.459383 208.123437 L 175.459383 202.123437" stroke="gray" fill="white" stroke-width="1px"></path><path d="M 175.459383 196.123437 L 172.959383 196.123437 L 172.959383 202.123437 L 175.459383 202.123437 L 175.459383 196.123437" stroke="gray" fill="white" stroke-width="1px"></path><path d="M 163.459383 214.123437 L 160.959383 214.123437 L 160.959383 220.123437 L 163.459383 220.123437 L 163.459383 214.123437" stroke="gray" fill="white" stroke-width="1px"></path><path d="M 163.459383 208.123437 L 160.959383 208.123437 L 160.959383 214.123437 L 163.459383 214.123437 L 163.459383 208.123437" stroke="gray" fill="white" stroke-width="1px"></path><path d="M 163.459383 202.123437 L 160.959383 202.123437 L 160.959383 208.123437 L 163.459383 208.123437 L 163.459383 202.123437" stroke="gray" fill="white" stroke-width="1px"></path><path d="M 199.459383 204.473277 L 196.959383 204.473277 L 196.959383 210.473277 L 199.459383 210.473277 L 199.459383 204.473277" stroke="gray" fill="white" stroke-width="1px"></path><path d="M 199.459383 198.473277 L 196.959383 198.473277 L 196.959383 204.473277 L 199.459383 204.473277 L 199.459383 198.473277" stroke="gray" fill="white" stroke-width="1px"></path><path d="M 31.459383 220.180625 L 33.959383 220.180625 L 33.959383 226.180625 L 31.459383 226.180625 L 31.459383 220.180625" stroke="gray" fill="white" stroke-width="1px"></path><path d="M 31.459383 214.180625 L 33.959383 214.180625 L 33.959383 220.180625 L 31.459383 220.180625 L 31.459383 214.180625" stroke="gray" fill="white" stroke-width="1px"></path><path d="M 31.459383 208.180625 L 33.959383 208.180625 L 33.959383 214.180625 L 31.459383 214.180625 L 31.459383 208.180625" stroke="gray" fill="white" stroke-width="1px"></path><path d="M 31.459383 202.180625 L 33.959383 202.180625 L 33.959383 208.180625 L 31.459383 208.180625 L 31.459383 202.180625" stroke="gray" fill="white" stroke-width="1px"></path><path d="M 31.459383 196.180625 L 33.959383 196.180625 L 33.959383 202.180625 L 31.459383 202.180625 L 31.459383 196.180625" stroke="gray" fill="white" stroke-width="1px"></path><path d="M 31.459383 190.180625 L 33.959383 190.180625 L 33.959383 196.180625 L 31.459383 196.180625 L 31.459383 190.180625" stroke="gray" fill="white" stroke-width="1px"></path><path d="M 31.459383 184.180625 L 33.959383 184.180625 L 33.959383 190.180625 L 31.459383 190.180625 L 31.459383 184.180625" stroke="gray" fill="white" stroke-width="1px"></path><path d="M 19.459383 220.180625 L 21.959383 220.180625 L 21.959383 226.180625 L 19.459383 226.180625 L 19.459383 220.180625" stroke="gray" fill="white" stroke-width="1px"></path><path d="M 19.459383 214.180625 L 21.959383 214.180625 L 21.959383 220.180625 L 19.459383 220.180625 L 19.459383 214.180625" stroke="gray" fill="white" stroke-width="1px"></path><path d="M 19.459383 208.180625 L 21.959383 208.180625 L 21.959383 214.180625 L 19.459383 214.180625 L 19.459383 208.180625" stroke="gray" fill="white" stroke-width="1px"></path><path d="M 19.459383 202.180625 L 21.959383 202.180625 L 21.959383 208.180625 L 19.459383 208.180625 L 19.459383 202.180625" stroke="gray" fill="white" stroke-width="1px"></path><path d="M 19.459383 196.180625 L 21.959383 196.180625 L 21.959383 202.180625 L 19.459383 202.180625 L 19.459383 196.180625" stroke="gray" fill="white" stroke-width="1px"></path><path d="M 19.459383 190.180625 L 21.959383 190.180625 L 21.959383 196.180625 L 19.459383 196.180625 L 19.459383 190.180625" stroke="gray" fill="white" stroke-width="1px"></path><path d="M 19.459383 184.180625 L 21.959383 184.180625 L 21.959383 190.180625 L 19.459383 190.180625 L 19.459383 184.180625" stroke="gray" fill="white" stroke-width="1px"></path><path d="M 115.459383 214.123437 L 117.959383 214.123437 L 117.959383 220.123437 L 115.459383 220.123437 L 115.459383 214.123437" stroke="gray" fill="white" stroke-width="1px"></path><path d="M 115.459383 208.123437 L 117.959383 208.123437 L 117.959383 214.123437 L 115.459383 214.123437 L 115.459383 208.123437" stroke="gray" fill="white" stroke-width="1px"></path><path d="M 115.459383 202.123437 L 117.959383 202.123437 L 117.959383 208.123437 L 115.459383 208.123437 L 115.459383 202.123437" stroke="gray" fill="white" stroke-width="1px"></path><path d="M 115.459383 196.123437 L 117.959383 196.123437 L 117.959383 202.123437 L 115.459383 202.123437 L 115.459383 196.123437" stroke="gray" fill="white" stroke-width="1px"></path><path d="M 103.459383 214.123437 L 105.959383 214.123437 L 105.959383 220.123437 L 103.459383 220.123437 L 103.459383 214.123437" stroke="gray" fill="white" stroke-width="1px"></path><path d="M 103.459383 208.123437 L 105.959383 208.123437 L 105.959383 214.123437 L 103.459383 214.123437 L 103.459383 208.123437" stroke="gray" fill="white" stroke-width="1px"></path><path d="M 103.459383 202.123437 L 105.959383 202.123437 L 105.959383 208.123437 L 103.459383 208.123437 L 103.459383 202.123437" stroke="gray" fill="white" stroke-width="1px"></path><path d="M 103.459383 196.123437 L 105.959383 196.123437 L 105.959383 202.123437 L 103.459383 202.123437 L 103.459383 196.123437" stroke="gray" fill="white" stroke-width="1px"></path><path d="M 187.459383 214.123437 L 189.959383 214.123437 L 189.959383 220.123437 L 187.459383 220.123437 L 187.459383 214.123437" stroke="gray" fill="white" stroke-width="1px"></path><path d="M 187.459383 208.123437 L 189.959383 208.123437 L 189.959383 214.123437 L 187.459383 214.123437 L 187.459383 208.123437" stroke="gray" fill="white" stroke-width="1px"></path><path d="M 175.459383 214.123437 L 177.959383 214.123437 L 177.959383 220.123437 L 175.459383 220.123437 L 175.459383 214.123437" stroke="gray" fill="white" stroke-width="1px"></path><path d="M 175.459383 208.123437 L 177.959383 208.123437 L 177.959383 214.123437 L 175.459383 214.123437 L 175.459383 208.123437" stroke="gray" fill="white" stroke-width="1px"></path><path d="M 175.459383 202.123437 L 177.959383 202.123437 L 177.959383 208.123437 L 175.459383 208.123437 L 175.459383 202.123437" stroke="gray" fill="white" stroke-width="1px"></path><path d="M 175.459383 196.123437 L 177.959383 196.123437 L 177.959383 202.123437 L 175.459383 202.123437 L 175.459383 196.123437" stroke="gray" fill="white" stroke-width="1px"></path><path d="M 163.459383 214.123437 L 165.959383 214.123437 L 165.959383 220.123437 L 163.459383 220.123437 L 163.459383 214.123437" stroke="gray" fill="white" stroke-width="1px"></path><path d="M 163.459383 208.123437 L 165.959383 208.123437 L 165.959383 214.123437 L 163.459383 214.123437 L 163.459383 208.123437" stroke="gray" fill="white" stroke-width="1px"></path><path d="M 163.459383 202.123437 L 165.959383 202.123437 L 165.959383 208.123437 L 163.459383 208.123437 L 163.459383 202.123437" stroke="gray" fill="white" stroke-width="1px"></path><path d="M 199.459383 210.473277 L 201.959383 210.473277 L 201.959383 216.473277 L 199.459383 216.473277 L 199.459383 210.473277" stroke="gray" fill="white" stroke-width="1px"></path><path d="M 199.459383 204.473277 L 201.959383 204.473277 L 201.959383 210.473277 L 199.459383 210.473277 L 199.459383 204.473277" stroke="gray" fill="white" stroke-width="1px"></path><path d="M 199.459383 198.473277 L 201.959383 198.473277 L 201.959383 204.473277 L 199.459383 204.473277 L 199.459383 198.473277" stroke="gray" fill="white" stroke-width="1px"></path><path d="M 22.000000 172.123437 L 22.000000 169.623437 L 16.000000 169.623437 L 16.000000 172.123437 L 22.000000 172.123437" stroke="gray" fill="white" stroke-width="1px"></path><path d="M 28.000000 172.123437 L 28.000000 169.623437 L 22.000000 169.623437 L 22.000000 172.123437 L 28.000000 172.123437" stroke="gray" fill="white" stroke-width="1px"></path><path d="M 34.000000 172.123437 L 34.000000 169.623437 L 28.000000 169.623437 L 28.000000 172.123437 L 34.000000 172.123437" stroke="gray" fill="white" stroke-width="1px"></path><path d="M 40.000000 172.123437 L 40.000000 169.623437 L 34.000000 169.623437 L 34.000000 172.123437 L 40.000000 172.123437" stroke="gray" fill="white" stroke-width="1px"></path><path d="M 46.000000 172.123437 L 46.000000 169.623437 L 40.000000 169.623437 L 40.000000 172.123437 L 46.000000 172.123437" stroke="gray" fill="white" stroke-width="1px"></path><path d="M 52.000000 172.123437 L 52.000000 169.623437 L 46.000000 169.623437 L 46.000000 172.123437 L 52.000000 172.123437" stroke="gray" fill="white" stroke-width="1px"></path><path d="M 58.000000 172.123437 L 58.000000 169.623437 L 52.000000 169.623437 L 52.000000 172.123437 L 58.000000 172.123437" stroke="gray" fill="white" stroke-width="1px"></path><path d="M 22.000000 160.123437 L 22.000000 157.623437 L 16.000000 157.623437 L 16.000000 160.123437 L 22.000000 160.123437" stroke="gray" fill="white" stroke-width="1px"></path><path d="M 28.000000 160.123437 L 28.000000 157.623437 L 22.000000 157.623437 L 22.000000 160.123437 L 28.000000 160.123437" stroke="gray" fill="white" stroke-width="1px"></path><path d="M 34.000000 160.123437 L 34.000000 157.623437 L 28.000000 157.623437 L 28.000000 160.123437 L 34.000000 160.123437" stroke="gray" fill="white" stroke-width="1px"></path><path d="M 40.000000 160.123437 L 40.000000 157.623437 L 34.000000 157.623437 L 34.000000 160.123437 L 40.000000 160.123437" stroke="gray" fill="white" stroke-width="1px"></path><path d="M 46.000000 160.123437 L 46.000000 157.623437 L 40.000000 157.623437 L 40.000000 160.123437 L 46.000000 160.123437" stroke="gray" fill="white" stroke-width="1px"></path><path d="M 52.000000 160.123437 L 52.000000 157.623437 L 46.000000 157.623437 L 46.000000 160.123437 L 52.000000 160.123437" stroke="gray" fill="white" stroke-width="1px"></path><path d="M 58.000000 160.123437 L 58.000000 157.623437 L 52.000000 157.623437 L 52.000000 160.123437 L 58.000000 160.123437" stroke="gray" fill="white" stroke-width="1px"></path><path d="M 22.000000 148.123437 L 22.000000 145.623437 L 16.000000 145.623437 L 16.000000 148.123437 L 22.000000 148.123437" stroke="gray" fill="white" stroke-width="1px"></path><path d="M 28.000000 148.123437 L 28.000000 145.623437 L 22.000000 145.623437 L 22.000000 148.123437 L 28.000000 148.123437" stroke="gray" fill="white" stroke-width="1px"></path><path d="M 34.000000 148.123437 L 34.000000 145.623437 L 28.000000 145.623437 L 28.000000 148.123437 L 34.000000 148.123437" stroke="gray" fill="white" stroke-width="1px"></path><path d="M 40.000000 148.123437 L 40.000000 145.623437 L 34.000000 145.623437 L 34.000000 148.123437 L 40.000000 148.123437" stroke="gray" fill="white" stroke-width="1px"></path><path d="M 46.000000 148.123437 L 46.000000 145.623437 L 40.000000 145.623437 L 40.000000 148.123437 L 46.000000 148.123437" stroke="gray" fill="white" stroke-width="1px"></path><path d="M 52.000000 148.123437 L 52.000000 145.623437 L 46.000000 145.623437 L 46.000000 148.123437 L 52.000000 148.123437" stroke="gray" fill="white" stroke-width="1px"></path><path d="M 58.000000 148.123437 L 58.000000 145.623437 L 52.000000 145.623437 L 52.000000 148.123437 L 58.000000 148.123437" stroke="gray" fill="white" stroke-width="1px"></path><path d="M 248.517691 208.123437 L 248.517691 205.623437 L 242.517691 205.623437 L 242.517691 208.123437 L 248.517691 208.123437" stroke="gray" fill="white" stroke-width="1px"></path><path d="M 254.517691 208.123437 L 254.517691 205.623437 L 248.517691 205.623437 L 248.517691 208.123437 L 254.517691 208.123437" stroke="gray" fill="white" stroke-width="1px"></path><path d="M 260.517691 208.123437 L 260.517691 205.623437 L 254.517691 205.623437 L 254.517691 208.123437 L 260.517691 208.123437" stroke="gray" fill="white" stroke-width="1px"></path><path d="M 266.517691 208.123437 L 266.517691 205.623437 L 260.517691 205.623437 L 260.517691 208.123437 L 266.517691 208.123437" stroke="gray" fill="white" stroke-width="1px"></path><path d="M 272.517691 208.123437 L 272.517691 205.623437 L 266.517691 205.623437 L 266.517691 208.123437 L 272.517691 208.123437" stroke="gray" fill="white" stroke-width="1px"></path><path d="M 278.517691 208.123437 L 278.517691 205.623437 L 272.517691 205.623437 L 272.517691 208.123437 L 278.517691 208.123437" stroke="gray" fill="white" stroke-width="1px"></path><path d="M 251.114771 196.123437 L 251.114771 193.623437 L 245.114771 193.623437 L 245.114771 196.123437 L 251.114771 196.123437" stroke="gray" fill="white" stroke-width="1px"></path><path d="M 257.114771 196.123437 L 257.114771 193.623437 L 251.114771 193.623437 L 251.114771 196.123437 L 257.114771 196.123437" stroke="gray" fill="white" stroke-width="1px"></path><path d="M 263.114771 196.123437 L 263.114771 193.623437 L 257.114771 193.623437 L 257.114771 196.123437 L 263.114771 196.123437" stroke="gray" fill="white" stroke-width="1px"></path><path d="M 269.114771 196.123437 L 269.114771 193.623437 L 263.114771 193.623437 L 263.114771 196.123437 L 269.114771 196.123437" stroke="gray" fill="white" stroke-width="1px"></path><path d="M 275.114771 196.123437 L 275.114771 193.623437 L 269.114771 193.623437 L 269.114771 196.123437 L 275.114771 196.123437" stroke="gray" fill="white" stroke-width="1px"></path><path d="M 251.737652 184.123437 L 251.737652 181.623437 L 245.737652 181.623437 L 245.737652 184.123437 L 251.737652 184.123437" stroke="gray" fill="white" stroke-width="1px"></path><path d="M 257.737652 184.123437 L 257.737652 181.623437 L 251.737652 181.623437 L 251.737652 184.123437 L 257.737652 184.123437" stroke="gray" fill="white" stroke-width="1px"></path><path d="M 263.737652 184.123437 L 263.737652 181.623437 L 257.737652 181.623437 L 257.737652 184.123437 L 263.737652 184.123437" stroke="gray" fill="white" stroke-width="1px"></path><path d="M 269.737652 184.123437 L 269.737652 181.623437 L 263.737652 181.623437 L 263.737652 184.123437 L 269.737652 184.123437" stroke="gray" fill="white" stroke-width="1px"></path><path d="M 275.737652 184.123437 L 275.737652 181.623437 L 269.737652 181.623437 L 269.737652 184.123437 L 275.737652 184.123437" stroke="gray" fill="white" stroke-width="1px"></path><path d="M 251.737652 172.123437 L 251.737652 169.623437 L 245.737652 169.623437 L 245.737652 172.123437 L 251.737652 172.123437" stroke="gray" fill="white" stroke-width="1px"></path><path d="M 257.737652 172.123437 L 257.737652 169.623437 L 251.737652 169.623437 L 251.737652 172.123437 L 257.737652 172.123437" stroke="gray" fill="white" stroke-width="1px"></path><path d="M 263.737652 172.123437 L 263.737652 169.623437 L 257.737652 169.623437 L 257.737652 172.123437 L 263.737652 172.123437" stroke="gray" fill="white" stroke-width="1px"></path><path d="M 269.737652 172.123437 L 269.737652 169.623437 L 263.737652 169.623437 L 263.737652 172.123437 L 269.737652 172.123437" stroke="gray" fill="white" stroke-width="1px"></path><path d="M 275.737652 172.123437 L 275.737652 169.623437 L 269.737652 169.623437 L 269.737652 172.123437 L 275.737652 172.123437" stroke="gray" fill="white" stroke-width="1px"></path><path d="M 251.737652 136.123437 L 251.737652 133.623437 L 245.737652 133.623437 L 245.737652 136.123437 L 251.737652 136.123437" stroke="gray" fill="white" stroke-width="1px"></path><path d="M 257.737652 136.123437 L 257.737652 133.623437 L 251.737652 133.623437 L 251.737652 136.123437 L 257.737652 136.123437" stroke="gray" fill="white" stroke-width="1px"></path><path d="M 263.737652 136.123437 L 263.737652 133.623437 L 257.737652 133.623437 L 257.737652 136.123437 L 263.737652 136.123437" stroke="gray" fill="white" stroke-width="1px"></path><path d="M 269.737652 136.123437 L 269.737652 133.623437 L 263.737652 133.623437 L 263.737652 136.123437 L 269.737652 136.123437" stroke="gray" fill="white" stroke-width="1px"></path><path d="M 275.737652 136.123437 L 275.737652 133.623437 L 269.737652 133.623437 L 269.737652 136.123437 L 275.737652 136.123437" stroke="gray" fill="white" stroke-width="1px"></path><path d="M 22.000000 172.123437 L 22.000000 174.623437 L 16.000000 174.623437 L 16.000000 172.123437 L 22.000000 172.123437" stroke="gray" fill="white" stroke-width="1px"></path><path d="M 28.000000 172.123437 L 28.000000 174.623437 L 22.000000 174.623437 L 22.000000 172.123437 L 28.000000 172.123437" stroke="gray" fill="white" stroke-width="1px"></path><path d="M 34.000000 172.123437 L 34.000000 174.623437 L 28.000000 174.623437 L 28.000000 172.123437 L 34.000000 172.123437" stroke="gray" fill="white" stroke-width="1px"></path><path d="M 40.000000 172.123437 L 40.000000 174.623437 L 34.000000 174.623437 L 34.000000 172.123437 L 40.000000 172.123437" stroke="gray" fill="white" stroke-width="1px"></path><path d="M 22.000000 160.123437 L 22.000000 162.623437 L 16.000000 162.623437 L 16.000000 160.123437 L 22.000000 160.123437" stroke="gray" fill="white" stroke-width="1px"></path><path d="M 28.000000 160.123437 L 28.000000 162.623437 L 22.000000 162.623437 L 22.000000 160.123437 L 28.000000 160.123437" stroke="gray" fill="white" stroke-width="1px"></path><path d="M 34.000000 160.123437 L 34.000000 162.623437 L 28.000000 162.623437 L 28.000000 160.123437 L 34.000000 160.123437" stroke="gray" fill="white" stroke-width="1px"></path><path d="M 40.000000 160.123437 L 40.000000 162.623437 L 34.000000 162.623437 L 34.000000 160.123437 L 40.000000 160.123437" stroke="gray" fill="white" stroke-width="1px"></path><path d="M 46.000000 160.123437 L 46.000000 162.623437 L 40.000000 162.623437 L 40.000000 160.123437 L 46.000000 160.123437" stroke="gray" fill="white" stroke-width="1px"></path><path d="M 52.000000 160.123437 L 52.000000 162.623437 L 46.000000 162.623437 L 46.000000 160.123437 L 52.000000 160.123437" stroke="gray" fill="white" stroke-width="1px"></path><path d="M 58.000000 160.123437 L 58.000000 162.623437 L 52.000000 162.623437 L 52.000000 160.123437 L 58.000000 160.123437" stroke="gray" fill="white" stroke-width="1px"></path><path d="M 22.000000 148.123437 L 22.000000 150.623437 L 16.000000 150.623437 L 16.000000 148.123437 L 22.000000 148.123437" stroke="gray" fill="white" stroke-width="1px"></path><path d="M 28.000000 148.123437 L 28.000000 150.623437 L 22.000000 150.623437 L 22.000000 148.123437 L 28.000000 148.123437" stroke="gray" fill="white" stroke-width="1px"></path><path d="M 34.000000 148.123437 L 34.000000 150.623437 L 28.000000 150.623437 L 28.000000 148.123437 L 34.000000 148.123437" stroke="gray" fill="white" stroke-width="1px"></path><path d="M 40.000000 148.123437 L 40.000000 150.623437 L 34.000000 150.623437 L 34.000000 148.123437 L 40.000000 148.123437" stroke="gray" fill="white" stroke-width="1px"></path><path d="M 46.000000 148.123437 L 46.000000 150.623437 L 40.000000 150.623437 L 40.000000 148.123437 L 46.000000 148.123437" stroke="gray" fill="white" stroke-width="1px"></path><path d="M 52.000000 148.123437 L 52.000000 150.623437 L 46.000000 150.623437 L 46.000000 148.123437 L 52.000000 148.123437" stroke="gray" fill="white" stroke-width="1px"></path><path d="M 58.000000 148.123437 L 58.000000 150.623437 L 52.000000 150.623437 L 52.000000 148.123437 L 58.000000 148.123437" stroke="gray" fill="white" stroke-width="1px"></path><path d="M 248.517691 208.123437 L 248.517691 210.623437 L 242.517691 210.623437 L 242.517691 208.123437 L 248.517691 208.123437" stroke="gray" fill="white" stroke-width="1px"></path><path d="M 254.517691 208.123437 L 254.517691 210.623437 L 248.517691 210.623437 L 248.517691 208.123437 L 254.517691 208.123437" stroke="gray" fill="white" stroke-width="1px"></path><path d="M 260.517691 208.123437 L 260.517691 210.623437 L 254.517691 210.623437 L 254.517691 208.123437 L 260.517691 208.123437" stroke="gray" fill="white" stroke-width="1px"></path><path d="M 266.517691 208.123437 L 266.517691 210.623437 L 260.517691 210.623437 L 260.517691 208.123437 L 266.517691 208.123437" stroke="gray" fill="white" stroke-width="1px"></path><path d="M 272.517691 208.123437 L 272.517691 210.623437 L 266.517691 210.623437 L 266.517691 208.123437 L 272.517691 208.123437" stroke="gray" fill="white" stroke-width="1px"></path><path d="M 278.517691 208.123437 L 278.517691 210.623437 L 272.517691 210.623437 L 272.517691 208.123437 L 278.517691 208.123437" stroke="gray" fill="white" stroke-width="1px"></path><path d="M 251.114771 196.123437 L 251.114771 198.623437 L 245.114771 198.623437 L 245.114771 196.123437 L 251.114771 196.123437" stroke="gray" fill="white" stroke-width="1px"></path><path d="M 257.114771 196.123437 L 257.114771 198.623437 L 251.114771 198.623437 L 251.114771 196.123437 L 257.114771 196.123437" stroke="gray" fill="white" stroke-width="1px"></path><path d="M 263.114771 196.123437 L 263.114771 198.623437 L 257.114771 198.623437 L 257.114771 196.123437 L 263.114771 196.123437" stroke="gray" fill="white" stroke-width="1px"></path><path d="M 269.114771 196.123437 L 269.114771 198.623437 L 263.114771 198.623437 L 263.114771 196.123437 L 269.114771 196.123437" stroke="gray" fill="white" stroke-width="1px"></path><path d="M 275.114771 196.123437 L 275.114771 198.623437 L 269.114771 198.623437 L 269.114771 196.123437 L 275.114771 196.123437" stroke="gray" fill="white" stroke-width="1px"></path><path d="M 251.737652 184.123437 L 251.737652 186.623437 L 245.737652 186.623437 L 245.737652 184.123437 L 251.737652 184.123437" stroke="gray" fill="white" stroke-width="1px"></path><path d="M 257.737652 184.123437 L 257.737652 186.623437 L 251.737652 186.623437 L 251.737652 184.123437 L 257.737652 184.123437" stroke="gray" fill="white" stroke-width="1px"></path><path d="M 263.737652 184.123437 L 263.737652 186.623437 L 257.737652 186.623437 L 257.737652 184.123437 L 263.737652 184.123437" stroke="gray" fill="white" stroke-width="1px"></path><path d="M 269.737652 184.123437 L 269.737652 186.623437 L 263.737652 186.623437 L 263.737652 184.123437 L 269.737652 184.123437" stroke="gray" fill="white" stroke-width="1px"></path><path d="M 275.737652 184.123437 L 275.737652 186.623437 L 269.737652 186.623437 L 269.737652 184.123437 L 275.737652 184.123437" stroke="gray" fill="white" stroke-width="1px"></path><path d="M 251.737652 172.123437 L 251.737652 174.623437 L 245.737652 174.623437 L 245.737652 172.123437 L 251.737652 172.123437" stroke="gray" fill="white" stroke-width="1px"></path><path d="M 257.737652 172.123437 L 257.737652 174.623437 L 251.737652 174.623437 L 251.737652 172.123437 L 257.737652 172.123437" stroke="gray" fill="white" stroke-width="1px"></path><path d="M 263.737652 172.123437 L 263.737652 174.623437 L 257.737652 174.623437 L 257.737652 172.123437 L 263.737652 172.123437" stroke="gray" fill="white" stroke-width="1px"></path><path d="M 269.737652 172.123437 L 269.737652 174.623437 L 263.737652 174.623437 L 263.737652 172.123437 L 269.737652 172.123437" stroke="gray" fill="white" stroke-width="1px"></path><path d="M 275.737652 172.123437 L 275.737652 174.623437 L 269.737652 174.623437 L 269.737652 172.123437 L 275.737652 172.123437" stroke="gray" fill="white" stroke-width="1px"></path><path d="M 251.737652 136.123437 L 251.737652 138.623437 L 245.737652 138.623437 L 245.737652 136.123437 L 251.737652 136.123437" stroke="gray" fill="white" stroke-width="1px"></path><path d="M 257.737652 136.123437 L 257.737652 138.623437 L 251.737652 138.623437 L 251.737652 136.123437 L 257.737652 136.123437" stroke="gray" fill="white" stroke-width="1px"></path><path d="M 263.737652 136.123437 L 263.737652 138.623437 L 257.737652 138.623437 L 257.737652 136.123437 L 263.737652 136.123437" stroke="gray" fill="white" stroke-width="1px"></path><path d="M 269.737652 136.123437 L 269.737652 138.623437 L 263.737652 138.623437 L 263.737652 136.123437 L 269.737652 136.123437" stroke="gray" fill="white" stroke-width="1px"></path><path d="M 275.737652 136.123437 L 275.737652 138.623437 L 269.737652 138.623437 L 269.737652 136.123437 L 275.737652 136.123437" stroke="gray" fill="white" stroke-width="1px"></path><path d="M 271.459383 46.661938 L 268.959383 46.661938 L 268.959383 52.661938 L 271.459383 52.661938 L 271.459383 46.661938" stroke="gray" fill="white" stroke-width="1px"></path><path d="M 271.459383 40.661938 L 268.959383 40.661938 L 268.959383 46.661938 L 271.459383 46.661938 L 271.459383 40.661938" stroke="gray" fill="white" stroke-width="1px"></path><path d="M 271.459383 34.661938 L 268.959383 34.661938 L 268.959383 40.661938 L 271.459383 40.661938 L 271.459383 34.661938" stroke="gray" fill="white" stroke-width="1px"></path><path d="M 259.459383 46.216346 L 256.959383 46.216346 L 256.959383 52.216346 L 259.459383 52.216346 L 259.459383 46.216346" stroke="gray" fill="white" stroke-width="1px"></path><path d="M 259.459383 40.216346 L 256.959383 40.216346 L 256.959383 46.216346 L 259.459383 46.216346 L 259.459383 40.216346" stroke="gray" fill="white" stroke-width="1px"></path><path d="M 259.459383 34.216346 L 256.959383 34.216346 L 256.959383 40.216346 L 259.459383 40.216346 L 259.459383 34.216346" stroke="gray" fill="white" stroke-width="1px"></path><path d="M 247.459383 45.770754 L 244.959383 45.770754 L 244.959383 51.770754 L 247.459383 51.770754 L 247.459383 45.770754" stroke="gray" fill="white" stroke-width="1px"></path><path d="M 247.459383 39.770754 L 244.959383 39.770754 L 244.959383 45.770754 L 247.459383 45.770754 L 247.459383 39.770754" stroke="gray" fill="white" stroke-width="1px"></path><path d="M 247.459383 33.770754 L 244.959383 33.770754 L 244.959383 39.770754 L 247.459383 39.770754 L 247.459383 33.770754" stroke="gray" fill="white" stroke-width="1px"></path><path d="M 235.459383 45.325161 L 232.959383 45.325161 L 232.959383 51.325161 L 235.459383 51.325161 L 235.459383 45.325161" stroke="gray" fill="white" stroke-width="1px"></path><path d="M 235.459383 39.325161 L 232.959383 39.325161 L 232.959383 45.325161 L 235.459383 45.325161 L 235.459383 39.325161" stroke="gray" fill="white" stroke-width="1px"></path><path d="M 235.459383 33.325161 L 232.959383 33.325161 L 232.959383 39.325161 L 235.459383 39.325161 L 235.459383 33.325161" stroke="gray" fill="white" stroke-width="1px"></path><path d="M 187.459383 101.033125 L 184.959383 101.033125 L 184.959383 107.033125 L 187.459383 107.033125 L 187.459383 101.033125" stroke="gray" fill="white" stroke-width="1px"></path><path d="M 187.459383 95.033125 L 184.959383 95.033125 L 184.959383 101.033125 L 187.459383 101.033125 L 187.459383 95.033125" stroke="gray" fill="white" stroke-width="1px"></path><path d="M 187.459383 89.033125 L 184.959383 89.033125 L 184.959383 95.033125 L 187.459383 95.033125 L 187.459383 89.033125" stroke="gray" fill="white" stroke-width="1px"></path><path d="M 187.459383 83.033125 L 184.959383 83.033125 L 184.959383 89.033125 L 187.459383 89.033125 L 187.459383 83.033125" stroke="gray" fill="white" stroke-width="1px"></path><path d="M 175.459383 95.033125 L 172.959383 95.033125 L 172.959383 101.033125 L 175.459383 101.033125 L 175.459383 95.033125" stroke="gray" fill="white" stroke-width="1px"></path><path d="M 175.459383 89.033125 L 172.959383 89.033125 L 172.959383 95.033125 L 175.459383 95.033125 L 175.459383 89.033125" stroke="gray" fill="white" stroke-width="1px"></path><path d="M 175.459383 83.033125 L 172.959383 83.033125 L 172.959383 89.033125 L 175.459383 89.033125 L 175.459383 83.033125" stroke="gray" fill="white" stroke-width="1px"></path><path d="M 139.459383 101.033125 L 136.959383 101.033125 L 136.959383 107.033125 L 139.459383 107.033125 L 139.459383 101.033125" stroke="gray" fill="white" stroke-width="1px"></path><path d="M 139.459383 95.033125 L 136.959383 95.033125 L 136.959383 101.033125 L 139.459383 101.033125 L 139.459383 95.033125" stroke="gray" fill="white" stroke-width="1px"></path><path d="M 139.459383 89.033125 L 136.959383 89.033125 L 136.959383 95.033125 L 139.459383 95.033125 L 139.459383 89.033125" stroke="gray" fill="white" stroke-width="1px"></path><path d="M 139.459383 83.033125 L 136.959383 83.033125 L 136.959383 89.033125 L 139.459383 89.033125 L 139.459383 83.033125" stroke="gray" fill="white" stroke-width="1px"></path><path d="M 103.459383 101.033125 L 100.959383 101.033125 L 100.959383 107.033125 L 103.459383 107.033125 L 103.459383 101.033125" stroke="gray" fill="white" stroke-width="1px"></path><path d="M 103.459383 95.033125 L 100.959383 95.033125 L 100.959383 101.033125 L 103.459383 101.033125 L 103.459383 95.033125" stroke="gray" fill="white" stroke-width="1px"></path><path d="M 103.459383 89.033125 L 100.959383 89.033125 L 100.959383 95.033125 L 103.459383 95.033125 L 103.459383 89.033125" stroke="gray" fill="white" stroke-width="1px"></path><path d="M 103.459383 83.033125 L 100.959383 83.033125 L 100.959383 89.033125 L 103.459383 89.033125 L 103.459383 83.033125" stroke="gray" fill="white" stroke-width="1px"></path><path d="M 55.459383 52.463825 L 52.959383 52.463825 L 52.959383 58.463825 L 55.459383 58.463825 L 55.459383 52.463825" stroke="gray" fill="white" stroke-width="1px"></path><path d="M 55.459383 46.463825 L 52.959383 46.463825 L 52.959383 52.463825 L 55.459383 52.463825 L 55.459383 46.463825" stroke="gray" fill="white" stroke-width="1px"></path><path d="M 55.459383 40.463825 L 52.959383 40.463825 L 52.959383 46.463825 L 55.459383 46.463825 L 55.459383 40.463825" stroke="gray" fill="white" stroke-width="1px"></path><path d="M 55.459383 34.463825 L 52.959383 34.463825 L 52.959383 40.463825 L 55.459383 40.463825 L 55.459383 34.463825" stroke="gray" fill="white" stroke-width="1px"></path><path d="M 43.459383 53.480658 L 40.959383 53.480658 L 40.959383 59.480658 L 43.459383 59.480658 L 43.459383 53.480658" stroke="gray" fill="white" stroke-width="1px"></path><path d="M 43.459383 47.480658 L 40.959383 47.480658 L 40.959383 53.480658 L 43.459383 53.480658 L 43.459383 47.480658" stroke="gray" fill="white" stroke-width="1px"></path><path d="M 43.459383 41.480658 L 40.959383 41.480658 L 40.959383 47.480658 L 43.459383 47.480658 L 43.459383 41.480658" stroke="gray" fill="white" stroke-width="1px"></path><path d="M 43.459383 35.480658 L 40.959383 35.480658 L 40.959383 41.480658 L 43.459383 41.480658 L 43.459383 35.480658" stroke="gray" fill="white" stroke-width="1px"></path><path d="M 31.459383 54.497491 L 28.959383 54.497491 L 28.959383 60.497491 L 31.459383 60.497491 L 31.459383 54.497491" stroke="gray" fill="white" stroke-width="1px"></path><path d="M 31.459383 48.497491 L 28.959383 48.497491 L 28.959383 54.497491 L 31.459383 54.497491 L 31.459383 48.497491" stroke="gray" fill="white" stroke-width="1px"></path><path d="M 31.459383 42.497491 L 28.959383 42.497491 L 28.959383 48.497491 L 31.459383 48.497491 L 31.459383 42.497491" stroke="gray" fill="white" stroke-width="1px"></path><path d="M 31.459383 36.497491 L 28.959383 36.497491 L 28.959383 42.497491 L 31.459383 42.497491 L 31.459383 36.497491" stroke="gray" fill="white" stroke-width="1px"></path><path d="M 19.459383 55.514324 L 16.959383 55.514324 L 16.959383 61.514324 L 19.459383 61.514324 L 19.459383 55.514324" stroke="gray" fill="white" stroke-width="1px"></path><path d="M 19.459383 49.514324 L 16.959383 49.514324 L 16.959383 55.514324 L 19.459383 55.514324 L 19.459383 49.514324" stroke="gray" fill="white" stroke-width="1px"></path><path d="M 19.459383 43.514324 L 16.959383 43.514324 L 16.959383 49.514324 L 19.459383 49.514324 L 19.459383 43.514324" stroke="gray" fill="white" stroke-width="1px"></path><path d="M 19.459383 37.514324 L 16.959383 37.514324 L 16.959383 43.514324 L 19.459383 43.514324 L 19.459383 37.514324" stroke="gray" fill="white" stroke-width="1px"></path><path d="M 271.459383 46.661938 L 273.959383 46.661938 L 273.959383 52.661938 L 271.459383 52.661938 L 271.459383 46.661938" stroke="gray" fill="white" stroke-width="1px"></path><path d="M 271.459383 40.661938 L 273.959383 40.661938 L 273.959383 46.661938 L 271.459383 46.661938 L 271.459383 40.661938" stroke="gray" fill="white" stroke-width="1px"></path><path d="M 271.459383 34.661938 L 273.959383 34.661938 L 273.959383 40.661938 L 271.459383 40.661938 L 271.459383 34.661938" stroke="gray" fill="white" stroke-width="1px"></path><path d="M 259.459383 46.216346 L 261.959383 46.216346 L 261.959383 52.216346 L 259.459383 52.216346 L 259.459383 46.216346" stroke="gray" fill="white" stroke-width="1px"></path><path d="M 259.459383 40.216346 L 261.959383 40.216346 L 261.959383 46.216346 L 259.459383 46.216346 L 259.459383 40.216346" stroke="gray" fill="white" stroke-width="1px"></path><path d="M 259.459383 34.216346 L 261.959383 34.216346 L 261.959383 40.216346 L 259.459383 40.216346 L 259.459383 34.216346" stroke="gray" fill="white" stroke-width="1px"></path><path d="M 247.459383 45.770754 L 249.959383 45.770754 L 249.959383 51.770754 L 247.459383 51.770754 L 247.459383 45.770754" stroke="gray" fill="white" stroke-width="1px"></path><path d="M 247.459383 39.770754 L 249.959383 39.770754 L 249.959383 45.770754 L 247.459383 45.770754 L 247.459383 39.770754" stroke="gray" fill="white" stroke-width="1px"></path><path d="M 247.459383 33.770754 L 249.959383 33.770754 L 249.959383 39.770754 L 247.459383 39.770754 L 247.459383 33.770754" stroke="gray" fill="white" stroke-width="1px"></path><path d="M 235.459383 45.325161 L 237.959383 45.325161 L 237.959383 51.325161 L 235.459383 51.325161 L 235.459383 45.325161" stroke="gray" fill="white" stroke-width="1px"></path><path d="M 235.459383 39.325161 L 237.959383 39.325161 L 237.959383 45.325161 L 235.459383 45.325161 L 235.459383 39.325161" stroke="gray" fill="white" stroke-width="1px"></path><path d="M 235.459383 33.325161 L 237.959383 33.325161 L 237.959383 39.325161 L 235.459383 39.325161 L 235.459383 33.325161" stroke="gray" fill="white" stroke-width="1px"></path><path d="M 187.459383 101.033125 L 189.959383 101.033125 L 189.959383 107.033125 L 187.459383 107.033125 L 187.459383 101.033125" stroke="gray" fill="white" stroke-width="1px"></path><path d="M 187.459383 95.033125 L 189.959383 95.033125 L 189.959383 101.033125 L 187.459383 101.033125 L 187.459383 95.033125" stroke="gray" fill="white" stroke-width="1px"></path><path d="M 187.459383 89.033125 L 189.959383 89.033125 L 189.959383 95.033125 L 187.459383 95.033125 L 187.459383 89.033125" stroke="gray" fill="white" stroke-width="1px"></path><path d="M 187.459383 83.033125 L 189.959383 83.033125 L 189.959383 89.033125 L 187.459383 89.033125 L 187.459383 83.033125" stroke="gray" fill="white" stroke-width="1px"></path><path d="M 175.459383 95.033125 L 177.959383 95.033125 L 177.959383 101.033125 L 175.459383 101.033125 L 175.459383 95.033125" stroke="gray" fill="white" stroke-width="1px"></path><path d="M 175.459383 89.033125 L 177.959383 89.033125 L 177.959383 95.033125 L 175.459383 95.033125 L 175.459383 89.033125" stroke="gray" fill="white" stroke-width="1px"></path><path d="M 175.459383 83.033125 L 177.959383 83.033125 L 177.959383 89.033125 L 175.459383 89.033125 L 175.459383 83.033125" stroke="gray" fill="white" stroke-width="1px"></path><path d="M 139.459383 101.033125 L 141.959383 101.033125 L 141.959383 107.033125 L 139.459383 107.033125 L 139.459383 101.033125" stroke="gray" fill="white" stroke-width="1px"></path><path d="M 139.459383 95.033125 L 141.959383 95.033125 L 141.959383 101.033125 L 139.459383 101.033125 L 139.459383 95.033125" stroke="gray" fill="white" stroke-width="1px"></path><path d="M 139.459383 89.033125 L 141.959383 89.033125 L 141.959383 95.033125 L 139.459383 95.033125 L 139.459383 89.033125" stroke="gray" fill="white" stroke-width="1px"></path><path d="M 139.459383 83.033125 L 141.959383 83.033125 L 141.959383 89.033125 L 139.459383 89.033125 L 139.459383 83.033125" stroke="gray" fill="white" stroke-width="1px"></path><path d="M 103.459383 101.033125 L 105.959383 101.033125 L 105.959383 107.033125 L 103.459383 107.033125 L 103.459383 101.033125" stroke="gray" fill="white" stroke-width="1px"></path><path d="M 103.459383 95.033125 L 105.959383 95.033125 L 105.959383 101.033125 L 103.459383 101.033125 L 103.459383 95.033125" stroke="gray" fill="white" stroke-width="1px"></path><path d="M 103.459383 89.033125 L 105.959383 89.033125 L 105.959383 95.033125 L 103.459383 95.033125 L 103.459383 89.033125" stroke="gray" fill="white" stroke-width="1px"></path><path d="M 103.459383 83.033125 L 105.959383 83.033125 L 105.959383 89.033125 L 103.459383 89.033125 L 103.459383 83.033125" stroke="gray" fill="white" stroke-width="1px"></path><path d="M 55.459383 52.463825 L 57.959383 52.463825 L 57.959383 58.463825 L 55.459383 58.463825 L 55.459383 52.463825" stroke="gray" fill="white" stroke-width="1px"></path><path d="M 55.459383 46.463825 L 57.959383 46.463825 L 57.959383 52.463825 L 55.459383 52.463825 L 55.459383 46.463825" stroke="gray" fill="white" stroke-width="1px"></path><path d="M 55.459383 40.463825 L 57.959383 40.463825 L 57.959383 46.463825 L 55.459383 46.463825 L 55.459383 40.463825" stroke="gray" fill="white" stroke-width="1px"></path><path d="M 55.459383 34.463825 L 57.959383 34.463825 L 57.959383 40.463825 L 55.459383 40.463825 L 55.459383 34.463825" stroke="gray" fill="white" stroke-width="1px"></path><path d="M 43.459383 53.480658 L 45.959383 53.480658 L 45.959383 59.480658 L 43.459383 59.480658 L 43.459383 53.480658" stroke="gray" fill="white" stroke-width="1px"></path><path d="M 43.459383 47.480658 L 45.959383 47.480658 L 45.959383 53.480658 L 43.459383 53.480658 L 43.459383 47.480658" stroke="gray" fill="white" stroke-width="1px"></path><path d="M 43.459383 41.480658 L 45.959383 41.480658 L 45.959383 47.480658 L 43.459383 47.480658 L 43.459383 41.480658" stroke="gray" fill="white" stroke-width="1px"></path><path d="M 43.459383 35.480658 L 45.959383 35.480658 L 45.959383 41.480658 L 43.459383 41.480658 L 43.459383 35.480658" stroke="gray" fill="white" stroke-width="1px"></path><path d="M 31.459383 54.497491 L 33.959383 54.497491 L 33.959383 60.497491 L 31.459383 60.497491 L 31.459383 54.497491" stroke="gray" fill="white" stroke-width="1px"></path><path d="M 31.459383 48.497491 L 33.959383 48.497491 L 33.959383 54.497491 L 31.459383 54.497491 L 31.459383 48.497491" stroke="gray" fill="white" stroke-width="1px"></path><path d="M 31.459383 42.497491 L 33.959383 42.497491 L 33.959383 48.497491 L 31.459383 48.497491 L 31.459383 42.497491" stroke="gray" fill="white" stroke-width="1px"></path><path d="M 31.459383 36.497491 L 33.959383 36.497491 L 33.959383 42.497491 L 31.459383 42.497491 L 31.459383 36.497491" stroke="gray" fill="white" stroke-width="1px"></path><path d="M 19.459383 55.514324 L 21.959383 55.514324 L 21.959383 61.514324 L 19.459383 61.514324 L 19.459383 55.514324" stroke="gray" fill="white" stroke-width="1px"></path><path d="M 19.459383 49.514324 L 21.959383 49.514324 L 21.959383 55.514324 L 19.459383 55.514324 L 19.459383 49.514324" stroke="gray" fill="white" stroke-width="1px"></path><path d="M 19.459383 43.514324 L 21.959383 43.514324 L 21.959383 49.514324 L 19.459383 49.514324 L 19.459383 43.514324" stroke="gray" fill="white" stroke-width="1px"></path><path d="M 19.459383 37.514324 L 21.959383 37.514324 L 21.959383 43.514324 L 19.459383 43.514324 L 19.459383 37.514324" stroke="gray" fill="white" stroke-width="1px"></path><path d="M 275.436456 89.263579 L 275.436456 86.763579 L 269.436456 86.763579 L 269.436456 89.263579 L 275.436456 89.263579" stroke="gray" fill="white" stroke-width="1px"></path><path d="M 270.994328 77.263579 L 270.994328 74.763579 L 264.994328 74.763579 L 264.994328 77.263579 L 270.994328 77.263579" stroke="gray" fill="white" stroke-width="1px"></path><path d="M 276.994328 77.263579 L 276.994328 74.763579 L 270.994328 74.763579 L 270.994328 77.263579 L 276.994328 77.263579" stroke="gray" fill="white" stroke-width="1px"></path><path d="M 266.552200 65.263579 L 266.552200 62.763579 L 260.552200 62.763579 L 260.552200 65.263579 L 266.552200 65.263579" stroke="gray" fill="white" stroke-width="1px"></path><path d="M 272.552200 65.263579 L 272.552200 62.763579 L 266.552200 62.763579 L 266.552200 65.263579 L 272.552200 65.263579" stroke="gray" fill="white" stroke-width="1px"></path><path d="M 278.552200 65.263579 L 278.552200 62.763579 L 272.552200 62.763579 L 272.552200 65.263579 L 278.552200 65.263579" stroke="gray" fill="white" stroke-width="1px"></path><path d="M 223.682350 101.263579 L 223.682350 98.763579 L 217.682350 98.763579 L 217.682350 101.263579 L 223.682350 101.263579" stroke="gray" fill="white" stroke-width="1px"></path><path d="M 223.689794 89.263579 L 223.689794 86.763579 L 217.689794 86.763579 L 217.689794 89.263579 L 223.689794 89.263579" stroke="gray" fill="white" stroke-width="1px"></path><path d="M 22.000000 101.263579 L 22.000000 98.763579 L 16.000000 98.763579 L 16.000000 101.263579 L 22.000000 101.263579" stroke="gray" fill="white" stroke-width="1px"></path><path d="M 28.000000 101.263579 L 28.000000 98.763579 L 22.000000 98.763579 L 22.000000 101.263579 L 28.000000 101.263579" stroke="gray" fill="white" stroke-width="1px"></path><path d="M 34.000000 101.263579 L 34.000000 98.763579 L 28.000000 98.763579 L 28.000000 101.263579 L 34.000000 101.263579" stroke="gray" fill="white" stroke-width="1px"></path><path d="M 40.000000 101.263579 L 40.000000 98.763579 L 34.000000 98.763579 L 34.000000 101.263579 L 40.000000 101.263579" stroke="gray" fill="white" stroke-width="1px"></path><path d="M 46.000000 101.263579 L 46.000000 98.763579 L 40.000000 98.763579 L 40.000000 101.263579 L 46.000000 101.263579" stroke="gray" fill="white" stroke-width="1px"></path><path d="M 52.000000 101.263579 L 52.000000 98.763579 L 46.000000 98.763579 L 46.000000 101.263579 L 52.000000 101.263579" stroke="gray" fill="white" stroke-width="1px"></path><path d="M 58.000000 101.263579 L 58.000000 98.763579 L 52.000000 98.763579 L 52.000000 101.263579 L 58.000000 101.263579" stroke="gray" fill="white" stroke-width="1px"></path><path d="M 22.000000 89.263579 L 22.000000 86.763579 L 16.000000 86.763579 L 16.000000 89.263579 L 22.000000 89.263579" stroke="gray" fill="white" stroke-width="1px"></path><path d="M 28.000000 89.263579 L 28.000000 86.763579 L 22.000000 86.763579 L 22.000000 89.263579 L 28.000000 89.263579" stroke="gray" fill="white" stroke-width="1px"></path><path d="M 34.000000 89.263579 L 34.000000 86.763579 L 28.000000 86.763579 L 28.000000 89.263579 L 34.000000 89.263579" stroke="gray" fill="white" stroke-width="1px"></path><path d="M 40.000000 89.263579 L 40.000000 86.763579 L 34.000000 86.763579 L 34.000000 89.263579 L 40.000000 89.263579" stroke="gray" fill="white" stroke-width="1px"></path><path d="M 46.000000 89.263579 L 46.000000 86.763579 L 40.000000 86.763579 L 40.000000 89.263579 L 46.000000 89.263579" stroke="gray" fill="white" stroke-width="1px"></path><path d="M 52.000000 89.263579 L 52.000000 86.763579 L 46.000000 86.763579 L 46.000000 89.263579 L 52.000000 89.263579" stroke="gray" fill="white" stroke-width="1px"></path><path d="M 58.000000 89.263579 L 58.000000 86.763579 L 52.000000 86.763579 L 52.000000 89.263579 L 58.000000 89.263579" stroke="gray" fill="white" stroke-width="1px"></path><path d="M 275.436456 89.263579 L 275.436456 91.763579 L 269.436456 91.763579 L 269.436456 89.263579 L 275.436456 89.263579" stroke="gray" fill="white" stroke-width="1px"></path><path d="M 270.994328 77.263579 L 270.994328 79.763579 L 264.994328 79.763579 L 264.994328 77.263579 L 270.994328 77.263579" stroke="gray" fill="white" stroke-width="1px"></path><path d="M 276.994328 77.263579 L 276.994328 79.763579 L 270.994328 79.763579 L 270.994328 77.263579 L 276.994328 77.263579" stroke="gray" fill="white" stroke-width="1px"></path><path d="M 266.552200 65.263579 L 266.552200 67.763579 L 260.552200 67.763579 L 260.552200 65.263579 L 266.552200 65.263579" stroke="gray" fill="white" stroke-width="1px"></path><path d="M 272.552200 65.263579 L 272.552200 67.763579 L 266.552200 67.763579 L 266.552200 65.263579 L 272.552200 65.263579" stroke="gray" fill="white" stroke-width="1px"></path><path d="M 278.552200 65.263579 L 278.552200 67.763579 L 272.552200 67.763579 L 272.552200 65.263579 L 278.552200 65.263579" stroke="gray" fill="white" stroke-width="1px"></path><path d="M 223.682350 101.263579 L 223.682350 103.763579 L 217.682350 103.763579 L 217.682350 101.263579 L 223.682350 101.263579" stroke="gray" fill="white" stroke-width="1px"></path><path d="M 223.689794 89.263579 L 223.689794 91.763579 L 217.689794 91.763579 L 217.689794 89.263579 L 223.689794 89.263579" stroke="gray" fill="white" stroke-width="1px"></path><path d="M 22.000000 101.263579 L 22.000000 103.763579 L 16.000000 103.763579 L 16.000000 101.263579 L 22.000000 101.263579" stroke="gray" fill="white" stroke-width="1px"></path><path d="M 28.000000 101.263579 L 28.000000 103.763579 L 22.000000 103.763579 L 22.000000 101.263579 L 28.000000 101.263579" stroke="gray" fill="white" stroke-width="1px"></path><path d="M 34.000000 101.263579 L 34.000000 103.763579 L 28.000000 103.763579 L 28.000000 101.263579 L 34.000000 101.263579" stroke="gray" fill="white" stroke-width="1px"></path><path d="M 40.000000 101.263579 L 40.000000 103.763579 L 34.000000 103.763579 L 34.000000 101.263579 L 40.000000 101.263579" stroke="gray" fill="white" stroke-width="1px"></path><path d="M 46.000000 101.263579 L 46.000000 103.763579 L 40.000000 103.763579 L 40.000000 101.263579 L 46.000000 101.263579" stroke="gray" fill="white" stroke-width="1px"></path><path d="M 52.000000 101.263579 L 52.000000 103.763579 L 46.000000 103.763579 L 46.000000 101.263579 L 52.000000 101.263579" stroke="gray" fill="white" stroke-width="1px"></path><path d="M 58.000000 101.263579 L 58.000000 103.763579 L 52.000000 103.763579 L 52.000000 101.263579 L 58.000000 101.263579" stroke="gray" fill="white" stroke-width="1px"></path><path d="M 22.000000 89.263579 L 22.000000 91.763579 L 16.000000 91.763579 L 16.000000 89.263579 L 22.000000 89.263579" stroke="gray" fill="white" stroke-width="1px"></path><path d="M 28.000000 89.263579 L 28.000000 91.763579 L 22.000000 91.763579 L 22.000000 89.263579 L 28.000000 89.263579" stroke="gray" fill="white" stroke-width="1px"></path><path d="M 34.000000 89.263579 L 34.000000 91.763579 L 28.000000 91.763579 L 28.000000 89.263579 L 34.000000 89.263579" stroke="gray" fill="white" stroke-width="1px"></path><path d="M 40.000000 89.263579 L 40.000000 91.763579 L 34.000000 91.763579 L 34.000000 89.263579 L 40.000000 89.263579" stroke="gray" fill="white" stroke-width="1px"></path><path d="M 46.000000 89.263579 L 46.000000 91.763579 L 40.000000 91.763579 L 40.000000 89.263579 L 46.000000 89.263579" stroke="gray" fill="white" stroke-width="1px"></path><path d="M 52.000000 89.263579 L 52.000000 91.763579 L 46.000000 91.763579 L 46.000000 89.263579 L 52.000000 89.263579" stroke="gray" fill="white" stroke-width="1px"></path><path d="M 58.000000 89.263579 L 58.000000 91.763579 L 52.000000 91.763579 L 52.000000 89.263579 L 58.000000 89.263579" stroke="gray" fill="white" stroke-width="1px"></path></g><g id="crv-base"><path d="M 221.371570 123.090312 L 221.371570 169.241094 L 120.000633 169.241094 L 120.000633 156.444206 L 126.051258 156.444206 L 126.051258 128.832500 L 123.590320 128.832500 L 123.590320 125.551250 L 126.051258 125.551250 L 126.051258 123.858132 L 91.315945 123.858125 L 91.315945 134.738750 L 64.258762 134.738750 L 64.258762 123.687497 L 10.000000 123.687497 L 10.000000 226.180625 L 64.258758 226.180625 L 64.258758 192.357500 L 91.315945 192.357500 L 91.315945 220.123437 L 283.459383 220.123437 L 283.459383 123.090312 L 221.371570 123.090312" stroke="black" fill="none" stroke-width="1px"></path><path d="M 221.371570 10.000000 L 221.371570 56.150781 L 120.000633 56.150781 L 120.000633 43.353893 L 126.051258 43.353893 L 126.051258 15.742187 L 123.590320 15.742187 L 123.590320 12.460937 L 126.051258 12.460937 L 126.051258 10.767819 L 91.315945 10.767812 L 91.315945 21.648438 L 64.258762 21.648438 L 64.258762 10.597185 L 10.000000 10.597185 L 10.000000 113.090312 L 64.258758 113.090312 L 64.258758 79.267187 L 91.315945 79.267187 L 91.315945 107.033125 L 283.459383 107.033125 L 283.459383 10.000000 L 221.371570 10.000000" stroke="black" fill="none" stroke-width="1px"></path><path d="M 10.387195 156.559062 L 10.387195 154.590312 L 12.355945 154.590312 L 12.355945 156.559062 L 10.387195 156.559062" stroke="black" fill="white" stroke-width="1px"></path><path d="M 10.387195 43.468750 L 10.387195 41.500000 L 12.355945 41.500000 L 12.355945 43.468750 L 10.387195 43.468750" stroke="black" fill="white" stroke-width="1px"></path><path d="M 10.387195 188.059062 L 10.387195 186.090312 L 12.355945 186.090312 L 12.355945 188.059062 L 10.387195 188.059062" stroke="black" fill="white" stroke-width="1px"></path><path d="M 10.387195 74.968750 L 10.387195 73.000000 L 12.355945 73.000000 L 12.355945 74.968750 L 10.387195 74.968750" stroke="black" fill="white" stroke-width="1px"></path><path d="M 10.387195 219.559062 L 10.387195 217.590312 L 12.355945 217.590312 L 12.355945 219.559062 L 10.387195 219.559062" stroke="black" fill="white" stroke-width="1px"></path><path d="M 10.387195 106.468750 L 10.387195 104.500000 L 12.355945 104.500000 L 12.355945 106.468750 L 10.387195 106.468750" stroke="black" fill="white" stroke-width="1px"></path><path d="M 60.754383 128.340312 L 60.754383 125.387187 L 63.871570 125.387187 L 63.871570 128.340312 L 60.754383 128.340312" stroke="black" fill="white" stroke-width="1px"></path><path d="M 60.754383 15.250000 L 60.754383 12.296875 L 63.871570 12.296875 L 63.871570 15.250000 L 60.754383 15.250000" stroke="black" fill="white" stroke-width="1px"></path><path d="M 280.598133 219.230937 L 280.598133 217.262187 L 282.566883 217.262187 L 282.566883 219.230937 L 280.598133 219.230937" stroke="black" fill="white" stroke-width="1px"></path><path d="M 280.598133 106.140625 L 280.598133 104.171875 L 282.566883 104.171875 L 282.566883 106.140625 L 280.598133 106.140625" stroke="black" fill="white" stroke-width="1px"></path><path d="M 280.598133 188.059062 L 280.598133 186.090312 L 282.566883 186.090312 L 282.566883 188.059062 L 280.598133 188.059062" stroke="black" fill="white" stroke-width="1px"></path><path d="M 280.598133 74.968750 L 280.598133 73.000000 L 282.566883 73.000000 L 282.566883 74.968750 L 280.598133 74.968750" stroke="black" fill="white" stroke-width="1px"></path><path d="M 280.598133 156.559050 L 280.598133 154.590300 L 282.566883 154.590300 L 282.566883 156.559050 L 280.598133 156.559050" stroke="black" fill="white" stroke-width="1px"></path><path d="M 280.598133 43.468737 L 280.598133 41.499987 L 282.566883 41.499987 L 282.566883 43.468737 L 280.598133 43.468737" stroke="black" fill="white" stroke-width="1px"></path><path d="M 248.605945 127.355937 L 248.605945 123.418437 L 251.887195 123.418437 L 251.887195 127.355937 L 248.605945 127.355937" stroke="black" fill="white" stroke-width="1px"></path><path d="M 248.605945 14.265625 L 248.605945 10.328125 L 251.887195 10.328125 L 251.887195 14.265625 L 248.605945 14.265625" stroke="black" fill="white" stroke-width="1px"></path><path d="M 248.605945 157.871562 L 248.605945 153.934062 L 251.887195 153.934062 L 251.887195 157.871562 L 248.605945 157.871562" stroke="black" fill="white" stroke-width="1px"></path><path d="M 248.605945 44.781250 L 248.605945 40.843750 L 251.887195 40.843750 L 251.887195 44.781250 L 248.605945 44.781250" stroke="black" fill="white" stroke-width="1px"></path><path d="M 248.605945 189.043437 L 248.605945 185.105937 L 251.887195 185.105937 L 251.887195 189.043437 L 248.605945 189.043437" stroke="black" fill="white" stroke-width="1px"></path><path d="M 248.605945 75.953125 L 248.605945 72.015625 L 251.887195 72.015625 L 251.887195 75.953125 L 248.605945 75.953125" stroke="black" fill="white" stroke-width="1px"></path><path d="M 248.934070 219.230937 L 248.934070 216.277812 L 251.887195 216.277812 L 251.887195 219.230937 L 248.934070 219.230937" stroke="black" fill="white" stroke-width="1px"></path><path d="M 248.934070 106.140625 L 248.934070 103.187500 L 251.887195 103.187500 L 251.887195 106.140625 L 248.934070 106.140625" stroke="black" fill="white" stroke-width="1px"></path><path d="M 218.090320 189.043437 L 218.090320 185.105937 L 221.371570 185.105937 L 221.371570 189.043437 L 218.090320 189.043437" stroke="black" fill="white" stroke-width="1px"></path><path d="M 218.090320 75.953125 L 218.090320 72.015625 L 221.371570 72.015625 L 221.371570 75.953125 L 218.090320 75.953125" stroke="black" fill="white" stroke-width="1px"></path><path d="M 218.254383 219.230937 L 218.254383 216.277812 L 221.207508 216.277812 L 221.207508 219.230937 L 218.254383 219.230937" stroke="black" fill="white" stroke-width="1px"></path><path d="M 218.254383 106.140625 L 218.254383 103.187500 L 221.207508 103.187500 L 221.207508 106.140625 L 218.254383 106.140625" stroke="black" fill="white" stroke-width="1px"></path><path d="M 186.590320 189.043437 L 186.590320 185.105937 L 189.871570 185.105937 L 189.871570 189.043437 L 186.590320 189.043437" stroke="black" fill="white" stroke-width="1px"></path><path d="M 186.590320 75.953125 L 186.590320 72.015625 L 189.871570 72.015625 L 189.871570 75.953125 L 186.590320 75.953125" stroke="black" fill="white" stroke-width="1px"></path><path d="M 186.754383 219.230937 L 186.754383 216.277812 L 189.707508 216.277812 L 189.707508 219.230937 L 186.754383 219.230937" stroke="black" fill="white" stroke-width="1px"></path><path d="M 186.754383 106.140625 L 186.754383 103.187500 L 189.707508 103.187500 L 189.707508 106.140625 L 186.754383 106.140625" stroke="black" fill="white" stroke-width="1px"></path><path d="M 155.090320 189.043437 L 155.090320 185.105937 L 158.371570 185.105937 L 158.371570 189.043437 L 155.090320 189.043437" stroke="black" fill="white" stroke-width="1px"></path><path d="M 155.090320 75.953125 L 155.090320 72.015625 L 158.371570 72.015625 L 158.371570 75.953125 L 155.090320 75.953125" stroke="black" fill="white" stroke-width="1px"></path><path d="M 155.254383 219.230937 L 155.254383 216.277812 L 158.207508 216.277812 L 158.207508 219.230937 L 155.254383 219.230937" stroke="black" fill="white" stroke-width="1px"></path><path d="M 155.254383 106.140625 L 155.254383 103.187500 L 158.207508 103.187500 L 158.207508 106.140625 L 155.254383 106.140625" stroke="black" fill="white" stroke-width="1px"></path><path d="M 123.590320 189.043437 L 123.590320 185.105937 L 126.871570 185.105937 L 126.871570 189.043437 L 123.590320 189.043437" stroke="black" fill="white" stroke-width="1px"></path><path d="M 123.590320 75.953125 L 123.590320 72.015625 L 126.871570 72.015625 L 126.871570 75.953125 L 123.590320 75.953125" stroke="black" fill="white" stroke-width="1px"></path><path d="M 123.754383 219.230937 L 123.754383 216.277812 L 126.707508 216.277812 L 126.707508 219.230937 L 123.754383 219.230937" stroke="black" fill="white" stroke-width="1px"></path><path d="M 123.754383 106.140625 L 123.754383 103.187500 L 126.707508 103.187500 L 126.707508 106.140625 L 123.754383 106.140625" stroke="black" fill="white" stroke-width="1px"></path><path d="M 92.090320 157.543437 L 92.090320 153.605937 L 95.371570 153.605937 L 95.371570 157.543437 L 92.090320 157.543437" stroke="black" fill="white" stroke-width="1px"></path><path d="M 92.090320 44.453125 L 92.090320 40.515625 L 95.371570 40.515625 L 95.371570 44.453125 L 92.090320 44.453125" stroke="black" fill="white" stroke-width="1px"></path><path d="M 92.090320 189.043437 L 92.090320 185.105937 L 95.371570 185.105937 L 95.371570 189.043437 L 92.090320 189.043437" stroke="black" fill="white" stroke-width="1px"></path><path d="M 92.090320 75.953125 L 92.090320 72.015625 L 95.371570 72.015625 L 95.371570 75.953125 L 92.090320 75.953125" stroke="black" fill="white" stroke-width="1px"></path><path d="M 92.090320 128.504375 L 92.090320 125.551250 L 95.207508 125.551250 L 95.207508 128.504375 L 92.090320 128.504375" stroke="black" fill="white" stroke-width="1px"></path><path d="M 92.090320 15.414062 L 92.090320 12.460937 L 95.207508 12.460937 L 95.207508 15.414062 L 92.090320 15.414062" stroke="black" fill="white" stroke-width="1px"></path><path d="M 60.590320 157.215312 L 60.590320 153.934062 L 63.871570 153.934062 L 63.871570 157.215312 L 60.590320 157.215312" stroke="black" fill="white" stroke-width="1px"></path><path d="M 60.590320 44.125000 L 60.590320 40.843750 L 63.871570 40.843750 L 63.871570 44.125000 L 60.590320 44.125000" stroke="black" fill="white" stroke-width="1px"></path><path d="M 60.754383 219.230937 L 60.754383 216.277812 L 63.871570 216.277812 L 63.871570 219.230937 L 60.754383 219.230937" stroke="black" fill="white" stroke-width="1px"></path><path d="M 60.754383 106.140625 L 60.754383 103.187500 L 63.871570 103.187500 L 63.871570 106.140625 L 60.754383 106.140625" stroke="black" fill="white" stroke-width="1px"></path><path d="M 30.074695 128.504375 L 30.074695 125.223125 L 33.027820 125.223125 L 33.027820 128.504375 L 30.074695 128.504375" stroke="black" fill="white" stroke-width="1px"></path><path d="M 30.074695 15.414062 L 30.074695 12.132812 L 33.027820 12.132812 L 33.027820 15.414062 L 30.074695 15.414062" stroke="black" fill="white" stroke-width="1px"></path><path d="M 30.074695 157.215312 L 30.074695 153.934062 L 33.355945 153.934062 L 33.355945 157.215312 L 30.074695 157.215312" stroke="black" fill="white" stroke-width="1px"></path><path d="M 30.074695 44.125000 L 30.074695 40.843750 L 33.355945 40.843750 L 33.355945 44.125000 L 30.074695 44.125000" stroke="black" fill="white" stroke-width="1px"></path><path d="M 30.074695 188.715312 L 30.074695 185.434062 L 33.355945 185.434062 L 33.355945 188.715312 L 30.074695 188.715312" stroke="black" fill="white" stroke-width="1px"></path><path d="M 30.074695 75.625000 L 30.074695 72.343750 L 33.355945 72.343750 L 33.355945 75.625000 L 30.074695 75.625000" stroke="black" fill="white" stroke-width="1px"></path><path d="M 30.074695 219.230937 L 30.074695 216.277812 L 33.027820 216.277812 L 33.027820 219.230937 L 30.074695 219.230937" stroke="black" fill="white" stroke-width="1px"></path><path d="M 30.074695 106.140625 L 30.074695 103.187500 L 33.027820 103.187500 L 33.027820 106.140625 L 30.074695 106.140625" stroke="black" fill="white" stroke-width="1px"></path><path d="M 10.387195 127.191875 L 10.387195 125.223125 L 12.355945 125.223125 L 12.355945 127.191875 L 10.387195 127.191875" stroke="black" fill="white" stroke-width="1px"></path><path d="M 10.387195 14.101562 L 10.387195 12.132812 L 12.355945 12.132812 L 12.355945 14.101562 L 10.387195 14.101562" stroke="black" fill="white" stroke-width="1px"></path><path d="M 60.590320 189.863750 L 60.590320 185.434062 L 63.871570 185.434062 L 63.871570 188.715312 L 62.230945 188.715312 L 62.230945 189.863750 L 60.590320 189.863750" stroke="black" fill="white" stroke-width="1px"></path><path d="M 60.590320 76.773437 L 60.590320 72.343750 L 63.871570 72.343750 L 63.871570 75.625000 L 62.230945 75.625000 L 62.230945 76.773437 L 60.590320 76.773437" stroke="black" fill="white" stroke-width="1px"></path></g></svg>