<svg width="293.459383" height="236.180625" xmlns="http://www.w3.org/2000/svg" xmlns:xlink="http://www.w3.org/1999/xlink" version="1.1"><g id="crv-background"><path d="M 221.371570 123.090312 L 221.371570 169.241094 L 120.000633 169.241094 L 120.000633 156.444206 L 126.051258 156.444206 L 126.051258 128.832500 L 123.590320 128.832500 L 123.590320 125.551250 L 126.051258 125.551250 L 126.051258 123.858132 L 91.315945 123.858125 L 91.315945 134.738750 L 64.258762 134.738750 L 64.258762 123.687497 L 10.000000 123.687497 L 10.000000 226.180625 L 64.258758 226.180625 L 64.258758 192.357500 L 91.315945 192.357500 L 91.315945 220.123437 L 283.459383 220.123437 L 283.459383 123.090312 L 221.371570 123.090312" stroke="none" fill="white" stroke-width="1px"></path><path d="M 221.371570 10.000000 L 221.371570 56.150781 L 120.000633 56.150781 L 120.000633 43.353893 L 126.051258 43.353893 L 126.051258 15.742187 L 123.590320 15.742187 L 123.590320 12.460937 L 126.051258 12.460937 L 126.051258 10.767819 L 91.315945 10.767812 L 91.315945 21.648438 L 64.258762 21.648438 L 64.258762 10.597185 L 10.000000 10.597185 L 10.000000 113.090312 L 64.258758 113.090312 L 64.258758 79.267187 L 91.315945 79.267187 L 91.315945 107.033125 L 283.459383 107.033125 L 283.459383 10.000000 L 221.371570 10.000000" stroke="none" fill="white" stroke-width="1px"></path></g><g id="crv-nbhd"><path d="M 221.737654 10.000004 L 221.737654 31.149482 L 221.737654 52.298959 L 227.248211 56.222733 L 232.758768 60.146506 L 258.109076 50.267363 L 283.459383 40.388221 L 283.459383 25.194110 L 283.459382 10.000000 L 252.598562 10.000002 L 221.737654 10.000004" stroke="#DD2222" fill="none" stroke-width="1px"></path><path d="M 283.459383 107.033125 L 283.459383 73.710673 L 283.459383 40.388221 L 258.109076 50.267363 L 232.758768 60.146506 L 238.164143 83.589816 L 243.569517 107.033125 L 263.514450 107.033125 L 283.459383 107.033125" stroke="#DD2222" fill="none" stroke-width="1px"></path><path d="M 221.737654 52.298959 L 221.737654 65.725145 L 221.737654 79.151330 L 209.614778 79.151330 L 197.491903 79.151330 L 203.965371 93.092227 L 210.438838 107.033125 L 227.004178 107.033125 L 243.569517 107.033125 L 238.164143 83.589816 L 232.758768 60.146506 L 227.248211 56.222733 L 221.737654 52.298959" stroke="#DD2222" fill="none" stroke-width="1px"></path><path d="M 163.742633 107.033125 L 187.090736 107.033125 L 210.438838 107.033125 L 203.965371 93.092227 L 197.491903 79.151330 L 186.920746 79.151330 L 176.349589 79.151329 L 170.046112 93.092225 L 163.742633 107.033125" stroke="#DD2222" fill="none" stroke-width="1px"></path><path d="M 176.349589 79.151329 L 154.482010 79.151329 L 132.614431 79.151328 L 135.016068 93.092227 L 137.417705 107.033125 L 150.580169 107.033125 L 163.742633 107.033125 L 170.046111 93.092227 L 176.349589 79.151329" stroke="#DD2222" fill="none" stroke-width="1px"></path><path d="M 132.614431 79.151328 L 111.965188 79.151328 L 91.315945 79.151327 L 91.315945 93.092226 L 91.315945 107.033125 L 114.366825 107.033125 L 137.417705 107.033125 L 135.016068 93.092227 L 132.614431 79.151328" stroke="#DD2222" fill="none" stroke-width="1px"></path><path d="M 64.258758 113.090312 L 64.258758 84.620547 L 64.258758 56.150781 L 64.258758 55.232766 L 64.258758 54.314750 L 37.129382 56.973110 L 10.000000 59.631470 L 10.000000 86.360891 L 10.000000 113.090312 L 37.129275 113.090312 L 64.258758 113.090312" stroke="#DD2222" fill="none" stroke-width="1px"></path><path d="M 10.000000 10.597184 L 10.000000 35.114327 L 10.000000 59.631470 L 37.129379 56.973110 L 64.258758 54.314750 L 64.258758 32.455968 L 64.258758 10.597185 L 37.129385 10.597185 L 10.000000 10.597184" stroke="#DD2222" fill="none" stroke-width="1px"></path><path d="M 10.000000 123.687497 L 10.000000 146.767042 L 10.000000 169.846588 L 37.129379 170.220968 L 64.258758 170.595349 L 64.258758 169.918222 L 64.258758 169.241094 L 64.258758 146.464296 L 64.258758 123.687497 L 37.129392 123.687497 L 10.000000 123.687497" stroke="#DD2222" fill="none" stroke-width="1px"></path><path d="M 10.000000 169.846588 L 10.000000 198.013606 L 10.000000 226.180625 L 37.129379 226.180625 L 64.258758 226.180625 L 64.258758 198.387987 L 64.258758 170.595349 L 37.129385 170.220969 L 10.000000 169.846588" stroke="#DD2222" fill="none" stroke-width="1px"></path><path d="M 137.927964 192.043444 L 114.621955 192.043444 L 91.315945 192.043444 L 91.315945 206.083441 L 91.315945 220.123437 L 114.123737 220.123437 L 136.931529 220.123437 L 137.429746 206.083444 L 137.927964 192.043444" stroke="#DD2222" fill="none" stroke-width="1px"></path><path d="M 188.575647 192.043444 L 163.251805 192.043444 L 137.927964 192.043444 L 137.429746 206.083441 L 136.931529 220.123437 L 167.449688 220.123437 L 197.967847 220.123437 L 193.271747 206.083441 L 188.575647 192.043444" stroke="#DD2222" fill="none" stroke-width="1px"></path><path d="M 239.737652 175.393156 L 239.737652 183.718300 L 239.737652 192.043444 L 214.156649 192.043444 L 188.575647 192.043444 L 193.271747 206.083441 L 197.967847 220.123437 L 217.837099 220.123437 L 237.706351 220.123437 L 240.659546 198.771406 L 243.612741 177.419375 L 241.675197 176.406266 L 239.737652 175.393156" stroke="#DD2222" fill="none" stroke-width="1px"></path><path d="M 283.459383 220.123437 L 283.459383 185.626927 L 283.459383 151.130417 L 263.536062 164.274896 L 243.612741 177.419375 L 240.659546 198.771406 L 237.706351 220.123437 L 260.582862 220.123437 L 283.459383 220.123437" stroke="#DD2222" fill="none" stroke-width="1px"></path><path d="M 239.737652 123.090312 L 239.737652 149.241734 L 239.737652 175.393156 L 241.675196 176.406266 L 243.612741 177.419375 L 263.536062 164.274896 L 283.459383 151.130417 L 283.459383 137.110365 L 283.459383 123.090312 L 261.598517 123.090312 L 239.737652 123.090312" stroke="#DD2222" fill="none" stroke-width="1px"></path></g><g id="crv-amen"><path d="M 49.489978 165.712072 L 56.054468 165.802661 L 62.618959 165.893250 L 62.618959 147.130109 L 62.618959 128.366968 L 56.054470 128.366968 L 49.489978 128.366968 L 49.489978 147.039520 L 49.489978 165.712072" stroke="none" fill="#2288CC" stroke-width="1px"></path><path d="M 49.487542 220.610766 L 56.052032 220.610766 L 62.616523 220.610766 L 62.616523 198.376656 L 62.616523 176.142546 L 56.052033 176.051957 L 49.487542 175.961368 L 49.487542 198.286067 L 49.487542 220.610766" stroke="none" fill="#2288CC" stroke-width="1px"></path><path d="M 122.251772 217.315438 L 128.820395 217.315438 L 135.389017 217.315438 L 135.787591 206.083441 L 136.186165 194.851444 L 129.617542 194.851444 L 123.048920 194.851444 L 122.650346 206.083441 L 122.251772 217.315438" stroke="none" fill="#2288CC" stroke-width="1px"></path><path d="M 188.152230 206.844483 L 185.956538 200.279993 L 183.760846 193.715502 L 163.501773 193.715502 L 143.242700 193.715502 L 143.009755 200.279993 L 142.776811 206.844483 L 165.464520 206.844483 L 188.152230 206.844483" stroke="none" fill="#2288CC" stroke-width="1px"></path><path d="M 223.360555 216.906275 L 229.987536 216.906275 L 236.614517 216.906275 L 238.977073 199.824650 L 241.339629 182.743025 L 239.789593 181.932538 L 238.239557 181.122050 L 238.239557 187.782165 L 238.239557 194.442281 L 232.353551 194.442281 L 226.467545 194.442281 L 224.914050 205.674278 L 223.360555 216.906275" stroke="none" fill="#2288CC" stroke-width="1px"></path><path d="M 250.412330 177.610069 L 247.576601 179.480951 L 244.740872 181.351832 L 242.378317 198.433457 L 240.015761 215.515083 L 246.642741 215.515083 L 253.269723 215.515083 L 255.815019 197.112218 L 258.360315 178.709353 L 254.386323 178.159711 L 250.412330 177.610069" stroke="none" fill="#2288CC" stroke-width="1px"></path><path d="M 254.464298 128.195566 L 247.899807 128.195566 L 241.335317 128.195566 L 241.335317 149.116703 L 241.335317 170.037841 L 242.885352 170.848328 L 244.435388 171.658816 L 249.449843 168.350512 L 254.464298 165.042209 L 254.464298 146.618887 L 254.464298 128.195566" stroke="none" fill="#2288CC" stroke-width="1px"></path><path d="M 236.539092 14.657005 L 229.974604 14.657005 L 223.410111 14.657005 L 223.410111 31.576588 L 223.410111 48.496170 L 226.499158 50.695716 L 229.588206 52.895261 L 233.063649 52.895261 L 236.539092 52.895261 L 236.539092 33.776133 L 236.539092 14.657005" stroke="none" fill="#2288CC" stroke-width="1px"></path><path d="M 278.573268 58.122010 L 278.573268 51.076657 L 278.573268 44.031304 L 258.293023 51.934618 L 238.012777 59.837932 L 239.503307 66.302418 L 240.993838 72.766904 L 259.783553 65.444457 L 278.573268 58.122010" stroke="none" fill="#2288CC" stroke-width="1px"></path><path d="M 227.479170 102.399722 L 234.215896 102.399722 L 240.952623 102.399722 L 236.628324 83.645075 L 232.304025 64.890427 L 229.579994 62.950790 L 226.855963 61.011154 L 225.171548 61.399533 L 223.487133 61.787912 L 223.487133 70.941099 L 223.487133 80.094286 L 222.911645 80.094286 L 222.336158 80.094286 L 224.907664 91.247004 L 227.479170 102.399722" stroke="none" fill="#2288CC" stroke-width="1px"></path><path d="M 192.929382 104.319044 L 200.167077 104.319044 L 207.404771 104.319044 L 202.225997 93.166326 L 197.047223 82.013608 L 193.251659 82.013608 L 189.456096 82.013608 L 186.624515 83.328455 L 183.792934 84.643302 L 188.361158 94.481173 L 192.929382 104.319044" stroke="none" fill="#2288CC" stroke-width="1px"></path><path d="M 148.082433 81.939508 L 141.421244 81.939508 L 134.760056 81.939508 L 136.681365 93.092227 L 138.602675 104.244945 L 145.263863 104.244945 L 151.925052 104.244945 L 150.003742 93.092227 L 148.082433 81.939508" stroke="none" fill="#2288CC" stroke-width="1px"></path><path d="M 130.889268 93.939537 L 129.758385 87.375046 L 128.627502 80.810556 L 112.108108 80.810555 L 95.588714 80.810555 L 95.588714 87.375046 L 95.588714 93.939536 L 113.238991 93.939537 L 130.889268 93.939537" stroke="none" fill="#2288CC" stroke-width="1px"></path><path d="M 49.496241 107.292790 L 56.060721 107.292790 L 62.625222 107.292790 L 62.625222 83.782565 L 62.625222 60.272340 L 56.060734 60.915583 L 49.496241 61.558826 L 49.496241 84.425808 L 49.496241 107.292790" stroke="none" fill="#2288CC" stroke-width="1px"></path><path d="M 58.832882 25.367289 L 58.832882 18.802798 L 58.832882 12.238307 L 37.129379 12.238307 L 15.425876 12.238307 L 15.425876 18.802797 L 15.425876 25.367288 L 37.129379 25.367288 L 58.832882 25.367289" stroke="none" fill="#2288CC" stroke-width="1px"></path></g><g id="crv-desk"><path d="M 43.459383 164.308321 L 40.959383 164.308321 L 40.959383 170.308321 L 43.459383 170.308321 L 43.459383 164.308321" stroke="gray" fill="white" stroke-width="1px"></path><path d="M 43.459383 158.308321 L 40.959383 158.308321 L 40.959383 164.308321 L 43.459383 164.308321 L 43.459383 158.308321" stroke="gray" fill="white" stroke-width="1px"></path><path d="M 43.459383 152.308321 L 40.959383 152.308321 L 40.959383 158.308321 L 43.459383 158.308321 L 43.459383 152.308321" stroke="gray" fill="white" stroke-width="1px"></path><path d="M 43.459383 146.308321 L 40.959383 146.308321 L 40.959383 152.308321 L 43.459383 152.308321 L 43.459383 146.308321" stroke="gray" fill="white" stroke-width="1px"></path><path d="M 43.459383 140.308321 L 40.959383 140.308321 L 40.959383 146.308321 L 43.459383 146.308321 L 43.459383 140.308321" stroke="gray" fill="white" stroke-width="1px"></path><path d="M 43.459383 134.308321 L 40.959383 134.308321 L 40.959383 140.308321 L 43.459383 140.308321 L 43.459383 134.308321" stroke="gray" fill="white" stroke-width="1px"></path><path d="M 43.459383 128.308321 L 40.959383 128.308321 L 40.959383 134.308321 L 43.459383 134.308321 L 43.459383 128.308321" stroke="gray" fill="white" stroke-width="1px"></path><path d="M 31.459383 164.142723 L 28.959383 164.142723 L 28.959383 170.142723 L 31.459383 170.142723 L 31.459383 164.142723" stroke="gray" fill="white" stroke-width="1px"></path><path d="M 31.459383 158.142723 L 28.959383 158.142723 L 28.959383 164.142723 L 31.459383 164.142723 L 31.459383 158.142723" stroke="gray" fill="white" stroke-width="1px"></path><path d="M 31.459383 152.142723 L 28.959383 152.142723 L 28.959383 158.142723 L 31.459383 158.142723 L 31.459383 152.142723" stroke="gray" fill="white" stroke-width="1px"></path><path d="M 31.459383 146.142723 L 28.959383 146.142723 L 28.959383 152.142723 L 31.459383 152.142723 L 31.459383 146.142723" stroke="gray" fill="white" stroke-width="1px"></path><path d="M 31.459383 140.142723 L 28.959383 140.142723 L 28.959383 146.142723 L 31.459383 146.142723 L 31.459383 140.142723" stroke="gray" fill="white" stroke-width="1px"></path><path d="M 31.459383 134.142723 L 28.959383 134.142723 L 28.959383 140.142723 L 31.459383 140.142723 L 31.459383 134.142723" stroke="gray" fill="white" stroke-width="1px"></path><path d="M 31.459383 128.142723 L 28.959383 128.142723 L 28.959383 134.142723 L 31.459383 134.142723 L 31.459383 128.142723" stroke="gray" fill="white" stroke-width="1px"></path><path d="M 19.459383 163.977125 L 16.959383 163.977125 L 16.959383 169.977125 L 19.459383 169.977125 L 19.459383 163.977125" stroke="gray" fill="white" stroke-width="1px"></path><path d="M 19.459383 157.977125 L 16.959383 157.977125 L 16.959383 163.977125 L 19.459383 163.977125 L 19.459383 157.977125" stroke="gray" fill="white" stroke-width="1px"></path><path d="M 19.459383 151.977125 L 16.959383 151.977125 L 16.959383 157.977125 L 19.459383 157.977125 L 19.459383 151.977125" stroke="gray" fill="white" stroke-width="1px"></path><path d="M 19.459383 145.977125 L 16.959383 145.977125 L 16.959383 151.977125 L 19.459383 151.977125 L 19.459383 145.977125" stroke="gray" fill="white" stroke-width="1px"></path><path d="M 19.459383 139.977125 L 16.959383 139.977125 L 16.959383 145.977125 L 19.459383 145.977125 L 19.459383 139.977125" stroke="gray" fill="white" stroke-width="1px"></path><path d="M 19.459383 133.977125 L 16.959383 133.977125 L 16.959383 139.977125 L 19.459383 139.977125 L 19.459383 133.977125" stroke="gray" fill="white" stroke-width="1px"></path><path d="M 19.459383 127.977125 L 16.959383 127.977125 L 16.959383 133.977125 L 19.459383 133.977125 L 19.459383 127.977125" stroke="gray" fill="white" stroke-width="1px"></path><path d="M 115.459383 214.123437 L 112.959383 214.123437 L 112.959383 220.123437 L 115.459383 220.123437 L 115.459383 214.123437" stroke="gray" fill="white" stroke-width="1px"></path><path d="M 115.459383 208.123437 L 112.959383 208.123437 L 112.959383 214.123437 L 115.459383 214.123437 L 115.459383 208.123437" stroke="gray" fill="white" stroke-width="1px"></path><path d="M 115.459383 202.123437 L 112.959383 202.123437 L 112.959383 208.123437 L 115.459383 208.123437 L 115.459383 202.123437" stroke="gray" fill="white" stroke-width="1px"></path><path d="M 115.459383 196.123437 L 112.959383 196.123437 L 112.959383 202.123437 L 115.459383 202.123437 L 115.459383 196.123437" stroke="gray" fill="white" stroke-width="1px"></path><path d="M 103.459383 214.123437 L 100.959383 214.123437 L 100.959383 220.123437 L 103.459383 220.123437 L 103.459383 214.123437" stroke="gray" fill="white" stroke-width="1px"></path><path d="M 103.459383 208.123437 L 100.959383 208.123437 L 100.959383 214.123437 L 103.459383 214.123437 L 103.459383 208.123437" stroke="gray" fill="white" stroke-width="1px"></path><path d="M 103.459383 202.123437 L 100.959383 202.123437 L 100.959383 208.123437 L 103.459383 208.123437 L 103.459383 202.123437" stroke="gray" fill="white" stroke-width="1px"></path><path d="M 103.459383 196.123437 L 100.959383 196.123437 L 100.959383 202.123437 L 103.459383 202.123437 L 103.459383 196.123437" stroke="gray" fill="white" stroke-width="1px"></path><path d="M 187.459383 214.123437 L 184.959383 214.123437 L 184.959383 220.123437 L 187.459383 220.123437 L 187.459383 214.123437" stroke="gray" fill="white" stroke-width="1px"></path><path d="M 175.459383 214.123437 L 172.959383 214.123437 L 172.959383 220.123437 L 175.459383 220.123437 L 175.459383 214.123437" stroke="gray" fill="white" stroke-width="1px"></path><path d="M 163.459383 214.123437 L 160.959383 214.123437 L 160.959383 220.123437 L 163.459383 220.123437 L 163.459383 214.123437" stroke="gray" fill="white" stroke-width="1px"></path><path d="M 151.459383 214.123437 L 148.959383 214.123437 L 148.959383 220.123437 L 151.459383 220.123437 L 151.459383 214.123437" stroke="gray" fill="white" stroke-width="1px"></path><path d="M 211.459383 214.123437 L 208.959383 214.123437 L 208.959383 220.123437 L 211.459383 220.123437 L 211.459383 214.123437" stroke="gray" fill="white" stroke-width="1px"></path><path d="M 211.459383 208.123437 L 208.959383 208.123437 L 208.959383 214.123437 L 211.459383 214.123437 L 211.459383 208.123437" stroke="gray" fill="white" stroke-width="1px"></path><path d="M 211.459383 202.123437 L 208.959383 202.123437 L 208.959383 208.123437 L 211.459383 208.123437 L 211.459383 202.123437" stroke="gray" fill="white" stroke-width="1px"></path><path d="M 211.459383 196.123437 L 208.959383 196.123437 L 208.959383 202.123437 L 211.459383 202.123437 L 211.459383 196.123437" stroke="gray" fill="white" stroke-width="1px"></path><path d="M 199.459383 208.123437 L 196.959383 208.123437 L 196.959383 214.123437 L 199.459383 214.123437 L 199.459383 208.123437" stroke="gray" fill="white" stroke-width="1px"></path><path d="M 199.459383 202.123437 L 196.959383 202.123437 L 196.959383 208.123437 L 199.459383 208.123437 L 199.459383 202.123437" stroke="gray" fill="white" stroke-width="1px"></path><path d="M 199.459383 196.123437 L 196.959383 196.123437 L 196.959383 202.123437 L 199.459383 202.123437 L 199.459383 196.123437" stroke="gray" fill="white" stroke-width="1px"></path><path d="M 43.459383 164.308321 L 45.959383 164.308321 L 45.959383 170.308321 L 43.459383 170.308321 L 43.459383 164.308321" stroke="gray" fill="white" stroke-width="1px"></path><path d="M 43.459383 158.308321 L 45.959383 158.308321 L 45.959383 164.308321 L 43.459383 164.308321 L 43.459383 158.308321" stroke="gray" fill="white" stroke-width="1px"></path><path d="M 43.459383 152.308321 L 45.959383 152.308321 L 45.959383 158.308321 L 43.459383 158.308321 L 43.459383 152.308321" stroke="gray" fill="white" stroke-width="1px"></path><path d="M 43.459383 146.308321 L 45.959383 146.308321 L 45.959383 152.308321 L 43.459383 152.308321 L 43.459383 146.308321" stroke="gray" fill="white" stroke-width="1px"></path><path d="M 43.459383 140.308321 L 45.959383 140.308321 L 45.959383 146.308321 L 43.459383 146.308321 L 43.459383 140.308321" stroke="gray" fill="white" stroke-width="1px"></path><path d="M 43.459383 134.308321 L 45.959383 134.308321 L 45.959383 140.308321 L 43.459383 140.308321 L 43.459383 134.308321" stroke="gray" fill="white" stroke-width="1px"></path><path d="M 43.459383 128.308321 L 45.959383 128.308321 L 45.959383 134.308321 L 43.459383 134.308321 L 43.459383 128.308321" stroke="gray" fill="white" stroke-width="1px"></path><path d="M 31.459383 164.142723 L 33.959383 164.142723 L 33.959383 170.142723 L 31.459383 170.142723 L 31.459383 164.142723" stroke="gray" fill="white" stroke-width="1px"></path><path d="M 31.459383 158.142723 L 33.959383 158.142723 L 33.959383 164.142723 L 31.459383 164.142723 L 31.459383 158.142723" stroke="gray" fill="white" stroke-width="1px"></path><path d="M 31.459383 152.142723 L 33.959383 152.142723 L 33.959383 158.142723 L 31.459383 158.142723 L 31.459383 152.142723" stroke="gray" fill="white" stroke-width="1px"></path><path d="M 31.459383 146.142723 L 33.959383 146.142723 L 33.959383 152.142723 L 31.459383 152.142723 L 31.459383 146.142723" stroke="gray" fill="white" stroke-width="1px"></path><path d="M 31.459383 140.142723 L 33.959383 140.142723 L 33.959383 146.142723 L 31.459383 146.142723 L 31.459383 140.142723" stroke="gray" fill="white" stroke-width="1px"></path><path d="M 31.459383 134.142723 L 33.959383 134.142723 L 33.959383 140.142723 L 31.459383 140.142723 L 31.459383 134.142723" stroke="gray" fill="white" stroke-width="1px"></path><path d="M 31.459383 128.142723 L 33.959383 128.142723 L 33.959383 134.142723 L 31.459383 134.142723 L 31.459383 128.142723" stroke="gray" fill="white" stroke-width="1px"></path><path d="M 19.459383 163.977125 L 21.959383 163.977125 L 21.959383 169.977125 L 19.459383 169.977125 L 19.459383 163.977125" stroke="gray" fill="white" stroke-width="1px"></path><path d="M 19.459383 157.977125 L 21.959383 157.977125 L 21.959383 163.977125 L 19.459383 163.977125 L 19.459383 157.977125" stroke="gray" fill="white" stroke-width="1px"></path><path d="M 19.459383 151.977125 L 21.959383 151.977125 L 21.959383 157.977125 L 19.459383 157.977125 L 19.459383 151.977125" stroke="gray" fill="white" stroke-width="1px"></path><path d="M 19.459383 145.977125 L 21.959383 145.977125 L 21.959383 151.977125 L 19.459383 151.977125 L 19.459383 145.977125" stroke="gray" fill="white" stroke-width="1px"></path><path d="M 19.459383 139.977125 L 21.959383 139.977125 L 21.959383 145.977125 L 19.459383 145.977125 L 19.459383 139.977125" stroke="gray" fill="white" stroke-width="1px"></path><path d="M 19.459383 133.977125 L 21.959383 133.977125 L 21.959383 139.977125 L 19.459383 139.977125 L 19.459383 133.977125" stroke="gray" fill="white" stroke-width="1px"></path><path d="M 19.459383 127.977125 L 21.959383 127.977125 L 21.959383 133.977125 L 19.459383 133.977125 L 19.459383 127.977125" stroke="gray" fill="white" stroke-width="1px"></path><path d="M 115.459383 214.123437 L 117.959383 214.123437 L 117.959383 220.123437 L 115.459383 220.123437 L 115.459383 214.123437" stroke="gray" fill="white" stroke-width="1px"></path><path d="M 115.459383 208.123437 L 117.959383 208.123437 L 117.959383 214.123437 L 115.459383 214.123437 L 115.459383 208.123437" stroke="gray" fill="white" stroke-width="1px"></path><path d="M 115.459383 202.123437 L 117.959383 202.123437 L 117.959383 208.123437 L 115.459383 208.123437 L 115.459383 202.123437" stroke="gray" fill="white" stroke-width="1px"></path><path d="M 115.459383 196.123437 L 117.959383 196.123437 L 117.959383 202.123437 L 115.459383 202.123437 L 115.459383 196.123437" stroke="gray" fill="white" stroke-width="1px"></path><path d="M 103.459383 214.123437 L 105.959383 214.123437 L 105.959383 220.123437 L 103.459383 220.123437 L 103.459383 214.123437" stroke="gray" fill="white" stroke-width="1px"></path><path d="M 103.459383 208.123437 L 105.959383 208.123437 L 105.959383 214.123437 L 103.459383 214.123437 L 103.459383 208.123437" stroke="gray" fill="white" stroke-width="1px"></path><path d="M 103.459383 202.123437 L 105.959383 202.123437 L 105.959383 208.123437 L 103.459383 208.123437 L 103.459383 202.123437" stroke="gray" fill="white" stroke-width="1px"></path><path d="M 103.459383 196.123437 L 105.959383 196.123437 L 105.959383 202.123437 L 103.459383 202.123437 L 103.459383 196.123437" stroke="gray" fill="white" stroke-width="1px"></path><path d="M 187.459383 214.123437 L 189.959383 214.123437 L 189.959383 220.123437 L 187.459383 220.123437 L 187.459383 214.123437" stroke="gray" fill="white" stroke-width="1px"></path><path d="M 175.459383 214.123437 L 177.959383 214.123437 L 177.959383 220.123437 L 175.459383 220.123437 L 175.459383 214.123437" stroke="gray" fill="white" stroke-width="1px"></path><path d="M 163.459383 214.123437 L 165.959383 214.123437 L 165.959383 220.123437 L 163.459383 220.123437 L 163.459383 214.123437" stroke="gray" fill="white" stroke-width="1px"></path><path d="M 151.459383 214.123437 L 153.959383 214.123437 L 153.959383 220.123437 L 151.459383 220.123437 L 151.459383 214.123437" stroke="gray" fill="white" stroke-width="1px"></path><path d="M 211.459383 214.123437 L 213.959383 214.123437 L 213.959383 220.123437 L 211.459383 220.123437 L 211.459383 214.123437" stroke="gray" fill="white" stroke-width="1px"></path><path d="M 211.459383 208.123437 L 213.959383 208.123437 L 213.959383 214.123437 L 211.459383 214.123437 L 211.459383 208.123437" stroke="gray" fill="white" stroke-width="1px"></path><path d="M 211.459383 202.123437 L 213.959383 202.123437 L 213.959383 208.123437 L 211.459383 208.123437 L 211.459383 202.123437" stroke="gray" fill="white" stroke-width="1px"></path><path d="M 211.459383 196.123437 L 213.959383 196.123437 L 213.959383 202.123437 L 211.459383 202.123437 L 211.459383 196.123437" stroke="gray" fill="white" stroke-width="1px"></path><path d="M 199.459383 214.123437 L 201.959383 214.123437 L 201.959383 220.123437 L 199.459383 220.123437 L 199.459383 214.123437" stroke="gray" fill="white" stroke-width="1px"></path><path d="M 199.459383 208.123437 L 201.959383 208.123437 L 201.959383 214.123437 L 199.459383 214.123437 L 199.459383 208.123437" stroke="gray" fill="white" stroke-width="1px"></path><path d="M 199.459383 202.123437 L 201.959383 202.123437 L 201.959383 208.123437 L 199.459383 208.123437 L 199.459383 202.123437" stroke="gray" fill="white" stroke-width="1px"></path><path d="M 199.459383 196.123437 L 201.959383 196.123437 L 201.959383 202.123437 L 199.459383 202.123437 L 199.459383 196.123437" stroke="gray" fill="white" stroke-width="1px"></path><path d="M 22.000000 220.123437 L 22.000000 217.623437 L 16.000000 217.623437 L 16.000000 220.123437 L 22.000000 220.123437" stroke="gray" fill="white" stroke-width="1px"></path><path d="M 28.000000 220.123437 L 28.000000 217.623437 L 22.000000 217.623437 L 22.000000 220.123437 L 28.000000 220.123437" stroke="gray" fill="white" stroke-width="1px"></path><path d="M 34.000000 220.123437 L 34.000000 217.623437 L 28.000000 217.623437 L 28.000000 220.123437 L 34.000000 220.123437" stroke="gray" fill="white" stroke-width="1px"></path><path d="M 40.000000 220.123437 L 40.000000 217.623437 L 34.000000 217.623437 L 34.000000 220.123437 L 40.000000 220.123437" stroke="gray" fill="white" stroke-width="1px"></path><path d="M 22.000000 208.123437 L 22.000000 205.623437 L 16.000000 205.623437 L 16.000000 208.123437 L 22.000000 208.123437" stroke="gray" fill="white" stroke-width="1px"></path><path d="M 28.000000 208.123437 L 28.000000 205.623437 L 22.000000 205.623437 L 22.000000 208.123437 L 28.000000 208.123437" stroke="gray" fill="white" stroke-width="1px"></path><path d="M 34.000000 208.123437 L 34.000000 205.623437 L 28.000000 205.623437 L 28.000000 208.123437 L 34.000000 208.123437" stroke="gray" fill="white" stroke-width="1px"></path><path d="M 40.000000 208.123437 L 40.000000 205.623437 L 34.000000 205.623437 L 34.000000 208.123437 L 40.000000 208.123437" stroke="gray" fill="white" stroke-width="1px"></path><path d="M 22.000000 196.123437 L 22.000000 193.623437 L 16.000000 193.623437 L 16.000000 196.123437 L 22.000000 196.123437" stroke="gray" fill="white" stroke-width="1px"></path><path d="M 28.000000 196.123437 L 28.000000 193.623437 L 22.000000 193.623437 L 22.000000 196.123437 L 28.000000 196.123437" stroke="gray" fill="white" stroke-width="1px"></path><path d="M 34.000000 196.123437 L 34.000000 193.623437 L 28.000000 193.623437 L 28.000000 196.123437 L 34.000000 196.123437" stroke="gray" fill="white" stroke-width="1px"></path><path d="M 40.000000 196.123437 L 40.000000 193.623437 L 34.000000 193.623437 L 34.000000 196.123437 L 40.000000 196.123437" stroke="gray" fill="white" stroke-width="1px"></path><path d="M 22.000000 184.123437 L 22.000000 181.623437 L 16.000000 181.623437 L 16.000000 184.123437 L 22.000000 184.123437" stroke="gray" fill="white" stroke-width="1px"></path><path d="M 28.000000 184.123437 L 28.000000 181.623437 L 22.000000 181.623437 L 22.000000 184.123437 L 28.000000 184.123437" stroke="gray" fill="white" stroke-width="1px"></path><path d="M 34.000000 184.123437 L 34.000000 181.623437 L 28.000000 181.623437 L 28.000000 184.123437 L 34.000000 184.123437" stroke="gray" fill="white" stroke-width="1px"></path><path d="M 40.000000 184.123437 L 40.000000 181.623437 L 34.000000 181.623437 L 34.000000 184.123437 L 40.000000 184.123437" stroke="gray" fill="white" stroke-width="1px"></path><path d="M 266.292060 208.123437 L 266.292060 205.623437 L 260.292060 205.623437 L 260.292060 208.123437 L 266.292060 208.123437" stroke="gray" fill="white" stroke-width="1px"></path><path d="M 272.292060 208.123437 L 272.292060 205.623437 L 266.292060 205.623437 L 266.292060 208.123437 L 272.292060 208.123437" stroke="gray" fill="white" stroke-width="1px"></path><path d="M 278.292060 208.123437 L 278.292060 205.623437 L 272.292060 205.623437 L 272.292060 208.123437 L 278.292060 208.123437" stroke="gray" fill="white" stroke-width="1px"></path><path d="M 267.951777 196.123437 L 267.951777 193.623437 L 261.951777 193.623437 L 261.951777 196.123437 L 267.951777 196.123437" stroke="gray" fill="white" stroke-width="1px"></path><path d="M 273.951777 196.123437 L 273.951777 193.623437 L 267.951777 193.623437 L 267.951777 196.123437 L 273.951777 196.123437" stroke="gray" fill="white" stroke-width="1px"></path><path d="M 269.611495 184.123437 L 269.611495 181.623437 L 263.611495 181.623437 L 263.611495 184.123437 L 269.611495 184.123437" stroke="gray" fill="white" stroke-width="1px"></path><path d="M 275.611495 184.123437 L 275.611495 181.623437 L 269.611495 181.623437 L 269.611495 184.123437 L 275.611495 184.123437" stroke="gray" fill="white" stroke-width="1px"></path><path d="M 269.639888 172.123437 L 269.639888 169.623437 L 263.639888 169.623437 L 263.639888 172.123437 L 269.639888 172.123437" stroke="gray" fill="white" stroke-width="1px"></path><path d="M 275.639888 172.123437 L 275.639888 169.623437 L 269.639888 169.623437 L 269.639888 172.123437 L 275.639888 172.123437" stroke="gray" fill="white" stroke-width="1px"></path><path d="M 266.464298 148.123437 L 266.464298 145.623437 L 260.464298 145.623437 L 260.464298 148.123437 L 266.464298 148.123437" stroke="gray" fill="white" stroke-width="1px"></path><path d="M 272.464298 148.123437 L 272.464298 145.623437 L 266.464298 145.623437 L 266.464298 148.123437 L 272.464298 148.123437" stroke="gray" fill="white" stroke-width="1px"></path><path d="M 278.464298 148.123437 L 278.464298 145.623437 L 272.464298 145.623437 L 272.464298 148.123437 L 278.464298 148.123437" stroke="gray" fill="white" stroke-width="1px"></path><path d="M 266.464298 136.123437 L 266.464298 133.623437 L 260.464298 133.623437 L 260.464298 136.123437 L 266.464298 136.123437" stroke="gray" fill="white" stroke-width="1px"></path><path d="M 272.464298 136.123437 L 272.464298 133.623437 L 266.464298 133.623437 L 266.464298 136.123437 L 272.464298 136.123437" stroke="gray" fill="white" stroke-width="1px"></path><path d="M 278.464298 136.123437 L 278.464298 133.623437 L 272.464298 133.623437 L 272.464298 136.123437 L 278.464298 136.123437" stroke="gray" fill="white" stroke-width="1px"></path><path d="M 22.000000 220.123437 L 22.000000 222.623437 L 16.000000 222.623437 L 16.000000 220.123437 L 22.000000 220.123437" stroke="gray" fill="white" stroke-width="1px"></path><path d="M 28.000000 220.123437 L 28.000000 222.623437 L 22.000000 222.623437 L 22.000000 220.123437 L 28.000000 220.123437" stroke="gray" fill="white" stroke-width="1px"></path><path d="M 34.000000 220.123437 L 34.000000 222.623437 L 28.000000 222.623437 L 28.000000 220.123437 L 34.000000 220.123437" stroke="gray" fill="white" stroke-width="1px"></path><path d="M 40.000000 220.123437 L 40.000000 222.623437 L 34.000000 222.623437 L 34.000000 220.123437 L 40.000000 220.123437" stroke="gray" fill="white" stroke-width="1px"></path><path d="M 22.000000 208.123437 L 22.000000 210.623437 L 16.000000 210.623437 L 16.000000 208.123437 L 22.000000 208.123437" stroke="gray" fill="white" stroke-width="1px"></path><path d="M 28.000000 208.123437 L 28.000000 210.623437 L 22.000000 210.623437 L 22.000000 208.123437 L 28.000000 208.123437" stroke="gray" fill="white" stroke-width="1px"></path><path d="M 34.000000 208.123437 L 34.000000 210.623437 L 28.000000 210.623437 L 28.000000 208.123437 L 34.000000 208.123437" stroke="gray" fill="white" stroke-width="1px"></path><path d="M 40.000000 208.123437 L 40.000000 210.623437 L 34.000000 210.623437 L 34.000000 208.123437 L 40.000000 208.123437" stroke="gray" fill="white" stroke-width="1px"></path><path d="M 22.000000 196.123437 L 22.000000 198.623437 L 16.000000 198.623437 L 16.000000 196.123437 L 22.000000 196.123437" stroke="gray" fill="white" stroke-width="1px"></path><path d="M 28.000000 196.123437 L 28.000000 198.623437 L 22.000000 198.623437 L 22.000000 196.123437 L 28.000000 196.123437" stroke="gray" fill="white" stroke-width="1px"></path><path d="M 34.000000 196.123437 L 34.000000 198.623437 L 28.000000 198.623437 L 28.000000 196.123437 L 34.000000 196.123437" stroke="gray" fill="white" stroke-width="1px"></path><path d="M 40.000000 196.123437 L 40.000000 198.623437 L 34.000000 198.623437 L 34.000000 196.123437 L 40.000000 196.123437" stroke="gray" fill="white" stroke-width="1px"></path><path d="M 22.000000 184.123437 L 22.000000 186.623437 L 16.000000 186.623437 L 16.000000 184.123437 L 22.000000 184.123437" stroke="gray" fill="white" stroke-width="1px"></path><path d="M 28.000000 184.123437 L 28.000000 186.623437 L 22.000000 186.623437 L 22.000000 184.123437 L 28.000000 184.123437" stroke="gray" fill="white" stroke-width="1px"></path><path d="M 34.000000 184.123437 L 34.000000 186.623437 L 28.000000 186.623437 L 28.000000 184.123437 L 34.000000 184.123437" stroke="gray" fill="white" stroke-width="1px"></path><path d="M 40.000000 184.123437 L 40.000000 186.623437 L 34.000000 186.623437 L 34.000000 184.123437 L 40.000000 184.123437" stroke="gray" fill="white" stroke-width="1px"></path><path d="M 266.292060 208.123437 L 266.292060 210.623437 L 260.292060 210.623437 L 260.292060 208.123437 L 266.292060 208.123437" stroke="gray" fill="white" stroke-width="1px"></path><path d="M 272.292060 208.123437 L 272.292060 210.623437 L 266.292060 210.623437 L 266.292060 208.123437 L 272.292060 208.123437" stroke="gray" fill="white" stroke-width="1px"></path><path d="M 278.292060 208.123437 L 278.292060 210.623437 L 272.292060 210.623437 L 272.292060 208.123437 L 278.292060 208.123437" stroke="gray" fill="white" stroke-width="1px"></path><path d="M 267.951777 196.123437 L 267.951777 198.623437 L 261.951777 198.623437 L 261.951777 196.123437 L 267.951777 196.123437" stroke="gray" fill="white" stroke-width="1px"></path><path d="M 273.951777 196.123437 L 273.951777 198.623437 L 267.951777 198.623437 L 267.951777 196.123437 L 273.951777 196.123437" stroke="gray" fill="white" stroke-width="1px"></path><path d="M 269.611495 184.123437 L 269.611495 186.623437 L 263.611495 186.623437 L 263.611495 184.123437 L 269.611495 184.123437" stroke="gray" fill="white" stroke-width="1px"></path><path d="M 275.611495 184.123437 L 275.611495 186.623437 L 269.611495 186.623437 L 269.611495 184.123437 L 275.611495 184.123437" stroke="gray" fill="white" stroke-width="1px"></path><path d="M 263.639888 172.123437 L 263.639888 174.623437 L 257.639888 174.623437 L 257.639888 172.123437 L 263.639888 172.123437" stroke="gray" fill="white" stroke-width="1px"></path><path d="M 269.639888 172.123437 L 269.639888 174.623437 L 263.639888 174.623437 L 263.639888 172.123437 L 269.639888 172.123437" stroke="gray" fill="white" stroke-width="1px"></path><path d="M 275.639888 172.123437 L 275.639888 174.623437 L 269.639888 174.623437 L 269.639888 172.123437 L 275.639888 172.123437" stroke="gray" fill="white" stroke-width="1px"></path><path d="M 266.464298 148.123437 L 266.464298 150.623437 L 260.464298 150.623437 L 260.464298 148.123437 L 266.464298 148.123437" stroke="gray" fill="white" stroke-width="1px"></path><path d="M 272.464298 148.123437 L 272.464298 150.623437 L 266.464298 150.623437 L 266.464298 148.123437 L 272.464298 148.123437" stroke="gray" fill="white" stroke-width="1px"></path><path d="M 278.464298 148.123437 L 278.464298 150.623437 L 272.464298 150.623437 L 272.464298 148.123437 L 278.464298 148.123437" stroke="gray" fill="white" stroke-width="1px"></path><path d="M 266.464298 136.123437 L 266.464298 138.623437 L 260.464298 138.623437 L 260.464298 136.123437 L 266.464298 136.123437" stroke="gray" fill="white" stroke-width="1px"></path><path d="M 272.464298 136.123437 L 272.464298 138.623437 L 266.464298 138.623437 L 266.464298 136.123437 L 272.464298 136.123437" stroke="gray" fill="white" stroke-width="1px"></path><path d="M 278.464298 136.123437 L 278.464298 138.623437 L 272.464298 138.623437 L 272.464298 136.123437 L 278.464298 136.123437" stroke="gray" fill="white" stroke-width="1px"></path><path d="M 271.459383 39.064681 L 268.959383 39.064681 L 268.959383 45.064681 L 271.459383 45.064681 L 271.459383 39.064681" stroke="gray" fill="white" stroke-width="1px"></path><path d="M 271.459383 33.064681 L 268.959383 33.064681 L 268.959383 39.064681 L 271.459383 39.064681 L 271.459383 33.064681" stroke="gray" fill="white" stroke-width="1px"></path><path d="M 271.459383 27.064681 L 268.959383 27.064681 L 268.959383 33.064681 L 271.459383 33.064681 L 271.459383 27.064681" stroke="gray" fill="white" stroke-width="1px"></path><path d="M 271.459383 21.064681 L 268.959383 21.064681 L 268.959383 27.064681 L 271.459383 27.064681 L 271.459383 21.064681" stroke="gray" fill="white" stroke-width="1px"></path><path d="M 271.459383 15.064681 L 268.959383 15.064681 L 268.959383 21.064681 L 271.459383 21.064681 L 271.459383 15.064681" stroke="gray" fill="white" stroke-width="1px"></path><path d="M 259.459383 43.741142 L 256.959383 43.741142 L 256.959383 49.741142 L 259.459383 49.741142 L 259.459383 43.741142" stroke="gray" fill="white" stroke-width="1px"></path><path d="M 259.459383 37.741142 L 256.959383 37.741142 L 256.959383 43.741142 L 259.459383 43.741142 L 259.459383 37.741142" stroke="gray" fill="white" stroke-width="1px"></path><path d="M 259.459383 31.741142 L 256.959383 31.741142 L 256.959383 37.741142 L 259.459383 37.741142 L 259.459383 31.741142" stroke="gray" fill="white" stroke-width="1px"></path><path d="M 259.459383 25.741142 L 256.959383 25.741142 L 256.959383 31.741142 L 259.459383 31.741142 L 259.459383 25.741142" stroke="gray" fill="white" stroke-width="1px"></path><path d="M 259.459383 19.741142 L 256.959383 19.741142 L 256.959383 25.741142 L 259.459383 25.741142 L 259.459383 19.741142" stroke="gray" fill="white" stroke-width="1px"></path><path d="M 259.459383 13.741142 L 256.959383 13.741142 L 256.959383 19.741142 L 259.459383 19.741142 L 259.459383 13.741142" stroke="gray" fill="white" stroke-width="1px"></path><path d="M 247.459383 48.417603 L 244.959383 48.417603 L 244.959383 54.417603 L 247.459383 54.417603 L 247.459383 48.417603" stroke="gray" fill="white" stroke-width="1px"></path><path d="M 247.459383 42.417603 L 244.959383 42.417603 L 244.959383 48.417603 L 247.459383 48.417603 L 247.459383 42.417603" stroke="gray" fill="white" stroke-width="1px"></path><path d="M 247.459383 36.417603 L 244.959383 36.417603 L 244.959383 42.417603 L 247.459383 42.417603 L 247.459383 36.417603" stroke="gray" fill="white" stroke-width="1px"></path><path d="M 247.459383 30.417603 L 244.959383 30.417603 L 244.959383 36.417603 L 247.459383 36.417603 L 247.459383 30.417603" stroke="gray" fill="white" stroke-width="1px"></path><path d="M 247.459383 24.417603 L 244.959383 24.417603 L 244.959383 30.417603 L 247.459383 30.417603 L 247.459383 24.417603" stroke="gray" fill="white" stroke-width="1px"></path><path d="M 247.459383 18.417603 L 244.959383 18.417603 L 244.959383 24.417603 L 247.459383 24.417603 L 247.459383 18.417603" stroke="gray" fill="white" stroke-width="1px"></path><path d="M 247.459383 12.417603 L 244.959383 12.417603 L 244.959383 18.417603 L 247.459383 18.417603 L 247.459383 12.417603" stroke="gray" fill="white" stroke-width="1px"></path><path d="M 175.459383 101.033125 L 172.959383 101.033125 L 172.959383 107.033125 L 175.459383 107.033125 L 175.459383 101.033125" stroke="gray" fill="white" stroke-width="1px"></path><path d="M 175.459383 95.033125 L 172.959383 95.033125 L 172.959383 101.033125 L 175.459383 101.033125 L 175.459383 95.033125" stroke="gray" fill="white" stroke-width="1px"></path><path d="M 175.459383 89.033125 L 172.959383 89.033125 L 172.959383 95.033125 L 175.459383 95.033125 L 175.459383 89.033125" stroke="gray" fill="white" stroke-width="1px"></path><path d="M 163.459383 101.033125 L 160.959383 101.033125 L 160.959383 107.033125 L 163.459383 107.033125 L 163.459383 101.033125" stroke="gray" fill="white" stroke-width="1px"></path><path d="M 163.459383 95.033125 L 160.959383 95.033125 L 160.959383 101.033125 L 163.459383 101.033125 L 163.459383 95.033125" stroke="gray" fill="white" stroke-width="1px"></path><path d="M 163.459383 89.033125 L 160.959383 89.033125 L 160.959383 95.033125 L 163.459383 95.033125 L 163.459383 89.033125" stroke="gray" fill="white" stroke-width="1px"></path><path d="M 163.459383 83.033125 L 160.959383 83.033125 L 160.959383 89.033125 L 163.459383 89.033125 L 163.459383 83.033125" stroke="gray" fill="white" stroke-width="1px"></path><path d="M 127.459383 101.033125 L 124.959383 101.033125 L 124.959383 107.033125 L 127.459383 107.033125 L 127.459383 101.033125" stroke="gray" fill="white" stroke-width="1px"></path><path d="M 115.459383 101.033125 L 112.959383 101.033125 L 112.959383 107.033125 L 115.459383 107.033125 L 115.459383 101.033125" stroke="gray" fill="white" stroke-width="1px"></path><path d="M 103.459383 101.033125 L 100.959383 101.033125 L 100.959383 107.033125 L 103.459383 107.033125 L 103.459383 101.033125" stroke="gray" fill="white" stroke-width="1px"></path><path d="M 55.459383 49.176985 L 52.959383 49.176985 L 52.959383 55.176985 L 55.459383 55.176985 L 55.459383 49.176985" stroke="gray" fill="white" stroke-width="1px"></path><path d="M 55.459383 43.176985 L 52.959383 43.176985 L 52.959383 49.176985 L 55.459383 49.176985 L 55.459383 43.176985" stroke="gray" fill="white" stroke-width="1px"></path><path d="M 55.459383 37.176985 L 52.959383 37.176985 L 52.959383 43.176985 L 55.459383 43.176985 L 55.459383 37.176985" stroke="gray" fill="white" stroke-width="1px"></path><path d="M 43.459383 50.352844 L 40.959383 50.352844 L 40.959383 56.352844 L 43.459383 56.352844 L 43.459383 50.352844" stroke="gray" fill="white" stroke-width="1px"></path><path d="M 43.459383 44.352844 L 40.959383 44.352844 L 40.959383 50.352844 L 43.459383 50.352844 L 43.459383 44.352844" stroke="gray" fill="white" stroke-width="1px"></path><path d="M 43.459383 38.352844 L 40.959383 38.352844 L 40.959383 44.352844 L 43.459383 44.352844 L 43.459383 38.352844" stroke="gray" fill="white" stroke-width="1px"></path><path d="M 43.459383 32.352844 L 40.959383 32.352844 L 40.959383 38.352844 L 43.459383 38.352844 L 43.459383 32.352844" stroke="gray" fill="white" stroke-width="1px"></path><path d="M 31.459383 51.528703 L 28.959383 51.528703 L 28.959383 57.528703 L 31.459383 57.528703 L 31.459383 51.528703" stroke="gray" fill="white" stroke-width="1px"></path><path d="M 31.459383 45.528703 L 28.959383 45.528703 L 28.959383 51.528703 L 31.459383 51.528703 L 31.459383 45.528703" stroke="gray" fill="white" stroke-width="1px"></path><path d="M 31.459383 39.528703 L 28.959383 39.528703 L 28.959383 45.528703 L 31.459383 45.528703 L 31.459383 39.528703" stroke="gray" fill="white" stroke-width="1px"></path><path d="M 31.459383 33.528703 L 28.959383 33.528703 L 28.959383 39.528703 L 31.459383 39.528703 L 31.459383 33.528703" stroke="gray" fill="white" stroke-width="1px"></path><path d="M 19.459383 52.704561 L 16.959383 52.704561 L 16.959383 58.704561 L 19.459383 58.704561 L 19.459383 52.704561" stroke="gray" fill="white" stroke-width="1px"></path><path d="M 19.459383 46.704561 L 16.959383 46.704561 L 16.959383 52.704561 L 19.459383 52.704561 L 19.459383 46.704561" stroke="gray" fill="white" stroke-width="1px"></path><path d="M 19.459383 40.704561 L 16.959383 40.704561 L 16.959383 46.704561 L 19.459383 46.704561 L 19.459383 40.704561" stroke="gray" fill="white" stroke-width="1px"></path><path d="M 19.459383 34.704561 L 16.959383 34.704561 L 16.959383 40.704561 L 19.459383 40.704561 L 19.459383 34.704561" stroke="gray" fill="white" stroke-width="1px"></path><path d="M 271.459383 39.064681 L 273.959383 39.064681 L 273.959383 45.064681 L 271.459383 45.064681 L 271.459383 39.064681" stroke="gray" fill="white" stroke-width="1px"></path><path d="M 271.459383 33.064681 L 273.959383 33.064681 L 273.959383 39.064681 L 271.459383 39.064681 L 271.459383 33.064681" stroke="gray" fill="white" stroke-width="1px"></path><path d="M 271.459383 27.064681 L 273.959383 27.064681 L 273.959383 33.064681 L 271.459383 33.064681 L 271.459383 27.064681" stroke="gray" fill="white" stroke-width="1px"></path><path d="M 271.459383 21.064681 L 273.959383 21.064681 L 273.959383 27.064681 L 271.459383 27.064681 L 271.459383 21.064681" stroke="gray" fill="white" stroke-width="1px"></path><path d="M 271.459383 15.064681 L 273.959383 15.064681 L 273.959383 21.064681 L 271.459383 21.064681 L 271.459383 15.064681" stroke="gray" fill="white" stroke-width="1px"></path><path d="M 259.459383 43.741142 L 261.959383 43.741142 L 261.959383 49.741142 L 259.459383 49.741142 L 259.459383 43.741142" stroke="gray" fill="white" stroke-width="1px"></path><path d="M 259.459383 37.741142 L 261.959383 37.741142 L 261.959383 43.741142 L 259.459383 43.741142 L 259.459383 37.741142" stroke="gray" fill="white" stroke-width="1px"></path><path d="M 259.459383 31.741142 L 261.959383 31.741142 L 261.959383 37.741142 L 259.459383 37.741142 L 259.459383 31.741142" stroke="gray" fill="white" stroke-width="1px"></path><path d="M 259.459383 25.741142 L 261.959383 25.741142 L 261.959383 31.741142 L 259.459383 31.741142 L 259.459383 25.741142" stroke="gray" fill="white" stroke-width="1px"></path><path d="M 259.459383 19.741142 L 261.959383 19.741142 L 261.959383 25.741142 L 259.459383 25.741142 L 259.459383 19.741142" stroke="gray" fill="white" stroke-width="1px"></path><path d="M 259.459383 13.741142 L 261.959383 13.741142 L 261.959383 19.741142 L 259.459383 19.741142 L 259.459383 13.741142" stroke="gray" fill="white" stroke-width="1px"></path><path d="M 247.459383 48.417603 L 249.959383 48.417603 L 249.959383 54.417603 L 247.459383 54.417603 L 247.459383 48.417603" stroke="gray" fill="white" stroke-width="1px"></path><path d="M 247.459383 42.417603 L 249.959383 42.417603 L 249.959383 48.417603 L 247.459383 48.417603 L 247.459383 42.417603" stroke="gray" fill="white" stroke-width="1px"></path><path d="M 247.459383 36.417603 L 249.959383 36.417603 L 249.959383 42.417603 L 247.459383 42.417603 L 247.459383 36.417603" stroke="gray" fill="white" stroke-width="1px"></path><path d="M 247.459383 30.417603 L 249.959383 30.417603 L 249.959383 36.417603 L 247.459383 36.417603 L 247.459383 30.417603" stroke="gray" fill="white" stroke-width="1px"></path><path d="M 247.459383 24.417603 L 249.959383 24.417603 L 249.959383 30.417603 L 247.459383 30.417603 L 247.459383 24.417603" stroke="gray" fill="white" stroke-width="1px"></path><path d="M 247.459383 18.417603 L 249.959383 18.417603 L 249.959383 24.417603 L 247.459383 24.417603 L 247.459383 18.417603" stroke="gray" fill="white" stroke-width="1px"></path><path d="M 247.459383 12.417603 L 249.959383 12.417603 L 249.959383 18.417603 L 247.459383 18.417603 L 247.459383 12.417603" stroke="gray" fill="white" stroke-width="1px"></path><path d="M 175.459383 101.033125 L 177.959383 101.033125 L 177.959383 107.033125 L 175.459383 107.033125 L 175.459383 101.033125" stroke="gray" fill="white" stroke-width="1px"></path><path d="M 175.459383 95.033125 L 177.959383 95.033125 L 177.959383 101.033125 L 175.459383 101.033125 L 175.459383 95.033125" stroke="gray" fill="white" stroke-width="1px"></path><path d="M 175.459383 89.033125 L 177.959383 89.033125 L 177.959383 95.033125 L 175.459383 95.033125 L 175.459383 89.033125" stroke="gray" fill="white" stroke-width="1px"></path><path d="M 163.459383 95.033125 L 165.959383 95.033125 L 165.959383 101.033125 L 163.459383 101.033125 L 163.459383 95.033125" stroke="gray" fill="white" stroke-width="1px"></path><path d="M 163.459383 89.033125 L 165.959383 89.033125 L 165.959383 95.033125 L 163.459383 95.033125 L 163.459383 89.033125" stroke="gray" fill="white" stroke-width="1px"></path><path d="M 163.459383 83.033125 L 165.959383 83.033125 L 165.959383 89.033125 L 163.459383 89.033125 L 163.459383 83.033125" stroke="gray" fill="white" stroke-width="1px"></path><path d="M 127.459383 101.033125 L 129.959383 101.033125 L 129.959383 107.033125 L 127.459383 107.033125 L 127.459383 101.033125" stroke="gray" fill="white" stroke-width="1px"></path><path d="M 115.459383 101.033125 L 117.959383 101.033125 L 117.959383 107.033125 L 115.459383 107.033125 L 115.459383 101.033125" stroke="gray" fill="white" stroke-width="1px"></path><path d="M 103.459383 101.033125 L 105.959383 101.033125 L 105.959383 107.033125 L 103.459383 107.033125 L 103.459383 101.033125" stroke="gray" fill="white" stroke-width="1px"></path><path d="M 55.459383 49.176985 L 57.959383 49.176985 L 57.959383 55.176985 L 55.459383 55.176985 L 55.459383 49.176985" stroke="gray" fill="white" stroke-width="1px"></path><path d="M 55.459383 43.176985 L 57.959383 43.176985 L 57.959383 49.176985 L 55.459383 49.176985 L 55.459383 43.176985" stroke="gray" fill="white" stroke-width="1px"></path><path d="M 55.459383 37.176985 L 57.959383 37.176985 L 57.959383 43.176985 L 55.459383 43.176985 L 55.459383 37.176985" stroke="gray" fill="white" stroke-width="1px"></path><path d="M 43.459383 50.352844 L 45.959383 50.352844 L 45.959383 56.352844 L 43.459383 56.352844 L 43.459383 50.352844" stroke="gray" fill="white" stroke-width="1px"></path><path d="M 43.459383 44.352844 L 45.959383 44.352844 L 45.959383 50.352844 L 43.459383 50.352844 L 43.459383 44.352844" stroke="gray" fill="white" stroke-width="1px"></path><path d="M 43.459383 38.352844 L 45.959383 38.352844 L 45.959383 44.352844 L 43.459383 44.352844 L 43.459383 38.352844" stroke="gray" fill="white" stroke-width="1px"></path><path d="M 43.459383 32.352844 L 45.959383 32.352844 L 45.959383 38.352844 L 43.459383 38.352844 L 43.459383 32.352844" stroke="gray" fill="white" stroke-width="1px"></path><path d="M 31.459383 51.528703 L 33.959383 51.528703 L 33.959383 57.528703 L 31.459383 57.528703 L 31.459383 51.528703" stroke="gray" fill="white" stroke-width="1px"></path><path d="M 31.459383 45.528703 L 33.959383 45.528703 L 33.959383 51.528703 L 31.459383 51.528703 L 31.459383 45.528703" stroke="gray" fill="white" stroke-width="1px"></path><path d="M 31.459383 39.528703 L 33.959383 39.528703 L 33.959383 45.528703 L 31.459383 45.528703 L 31.459383 39.528703" stroke="gray" fill="white" stroke-width="1px"></path><path d="M 31.459383 33.528703 L 33.959383 33.528703 L 33.959383 39.528703 L 31.459383 39.528703 L 31.459383 33.528703" stroke="gray" fill="white" stroke-width="1px"></path><path d="M 19.459383 52.704561 L 21.959383 52.704561 L 21.959383 58.704561 L 19.459383 58.704561 L 19.459383 52.704561" stroke="gray" fill="white" stroke-width="1px"></path><path d="M 19.459383 46.704561 L 21.959383 46.704561 L 21.959383 52.704561 L 19.459383 52.704561 L 19.459383 46.704561" stroke="gray" fill="white" stroke-width="1px"></path><path d="M 19.459383 40.704561 L 21.959383 40.704561 L 21.959383 46.704561 L 19.459383 46.704561 L 19.459383 40.704561" stroke="gray" fill="white" stroke-width="1px"></path><path d="M 19.459383 34.704561 L 21.959383 34.704561 L 21.959383 40.704561 L 19.459383 40.704561 L 19.459383 34.704561" stroke="gray" fill="white" stroke-width="1px"></path><path d="M 254.239220 101.263579 L 254.239220 98.763579 L 248.239220 98.763579 L 248.239220 101.263579 L 254.239220 101.263579" stroke="gray" fill="white" stroke-width="1px"></path><path d="M 260.239220 101.263579 L 260.239220 98.763579 L 254.239220 98.763579 L 254.239220 101.263579 L 260.239220 101.263579" stroke="gray" fill="white" stroke-width="1px"></path><path d="M 266.239220 101.263579 L 266.239220 98.763579 L 260.239220 98.763579 L 260.239220 101.263579 L 266.239220 101.263579" stroke="gray" fill="white" stroke-width="1px"></path><path d="M 272.239220 101.263579 L 272.239220 98.763579 L 266.239220 98.763579 L 266.239220 101.263579 L 272.239220 101.263579" stroke="gray" fill="white" stroke-width="1px"></path><path d="M 278.239220 101.263579 L 278.239220 98.763579 L 272.239220 98.763579 L 272.239220 101.263579 L 278.239220 101.263579" stroke="gray" fill="white" stroke-width="1px"></path><path d="M 251.472354 89.263579 L 251.472354 86.763579 L 245.472354 86.763579 L 245.472354 89.263579 L 251.472354 89.263579" stroke="gray" fill="white" stroke-width="1px"></path><path d="M 257.472354 89.263579 L 257.472354 86.763579 L 251.472354 86.763579 L 251.472354 89.263579 L 257.472354 89.263579" stroke="gray" fill="white" stroke-width="1px"></path><path d="M 263.472354 89.263579 L 263.472354 86.763579 L 257.472354 86.763579 L 257.472354 89.263579 L 263.472354 89.263579" stroke="gray" fill="white" stroke-width="1px"></path><path d="M 269.472354 89.263579 L 269.472354 86.763579 L 263.472354 86.763579 L 263.472354 89.263579 L 269.472354 89.263579" stroke="gray" fill="white" stroke-width="1px"></path><path d="M 275.472354 89.263579 L 275.472354 86.763579 L 269.472354 86.763579 L 269.472354 89.263579 L 275.472354 89.263579" stroke="gray" fill="white" stroke-width="1px"></path><path d="M 248.705489 77.263579 L 248.705489 74.763579 L 242.705489 74.763579 L 242.705489 77.263579 L 248.705489 77.263579" stroke="gray" fill="white" stroke-width="1px"></path><path d="M 254.705489 77.263579 L 254.705489 74.763579 L 248.705489 74.763579 L 248.705489 77.263579 L 254.705489 77.263579" stroke="gray" fill="white" stroke-width="1px"></path><path d="M 260.705489 77.263579 L 260.705489 74.763579 L 254.705489 74.763579 L 254.705489 77.263579 L 260.705489 77.263579" stroke="gray" fill="white" stroke-width="1px"></path><path d="M 266.705489 77.263579 L 266.705489 74.763579 L 260.705489 74.763579 L 260.705489 77.263579 L 266.705489 77.263579" stroke="gray" fill="white" stroke-width="1px"></path><path d="M 272.705489 77.263579 L 272.705489 74.763579 L 266.705489 74.763579 L 266.705489 77.263579 L 272.705489 77.263579" stroke="gray" fill="white" stroke-width="1px"></path><path d="M 278.705489 77.263579 L 278.705489 74.763579 L 272.705489 74.763579 L 272.705489 77.263579 L 278.705489 77.263579" stroke="gray" fill="white" stroke-width="1px"></path><path d="M 278.247693 65.263579 L 278.247693 62.763579 L 272.247693 62.763579 L 272.247693 65.263579 L 278.247693 65.263579" stroke="gray" fill="white" stroke-width="1px"></path><path d="M 219.759745 101.263579 L 219.759745 98.763579 L 213.759745 98.763579 L 213.759745 101.263579 L 219.759745 101.263579" stroke="gray" fill="white" stroke-width="1px"></path><path d="M 214.187535 89.263579 L 214.187535 86.763579 L 208.187535 86.763579 L 208.187535 89.263579 L 214.187535 89.263579" stroke="gray" fill="white" stroke-width="1px"></path><path d="M 22.000000 101.263579 L 22.000000 98.763579 L 16.000000 98.763579 L 16.000000 101.263579 L 22.000000 101.263579" stroke="gray" fill="white" stroke-width="1px"></path><path d="M 28.000000 101.263579 L 28.000000 98.763579 L 22.000000 98.763579 L 22.000000 101.263579 L 28.000000 101.263579" stroke="gray" fill="white" stroke-width="1px"></path><path d="M 34.000000 101.263579 L 34.000000 98.763579 L 28.000000 98.763579 L 28.000000 101.263579 L 34.000000 101.263579" stroke="gray" fill="white" stroke-width="1px"></path><path d="M 40.000000 101.263579 L 40.000000 98.763579 L 34.000000 98.763579 L 34.000000 101.263579 L 40.000000 101.263579" stroke="gray" fill="white" stroke-width="1px"></path><path d="M 22.000000 89.263579 L 22.000000 86.763579 L 16.000000 86.763579 L 16.000000 89.263579 L 22.000000 89.263579" stroke="gray" fill="white" stroke-width="1px"></path><path d="M 28.000000 89.263579 L 28.000000 86.763579 L 22.000000 86.763579 L 22.000000 89.263579 L 28.000000 89.263579" stroke="gray" fill="white" stroke-width="1px"></path><path d="M 34.000000 89.263579 L 34.000000 86.763579 L 28.000000 86.763579 L 28.000000 89.263579 L 34.000000 89.263579" stroke="gray" fill="white" stroke-width="1px"></path><path d="M 40.000000 89.263579 L 40.000000 86.763579 L 34.000000 86.763579 L 34.000000 89.263579 L 40.000000 89.263579" stroke="gray" fill="white" stroke-width="1px"></path><path d="M 22.000000 77.263579 L 22.000000 74.763579 L 16.000000 74.763579 L 16.000000 77.263579 L 22.000000 77.263579" stroke="gray" fill="white" stroke-width="1px"></path><path d="M 28.000000 77.263579 L 28.000000 74.763579 L 22.000000 74.763579 L 22.000000 77.263579 L 28.000000 77.263579" stroke="gray" fill="white" stroke-width="1px"></path><path d="M 34.000000 77.263579 L 34.000000 74.763579 L 28.000000 74.763579 L 28.000000 77.263579 L 34.000000 77.263579" stroke="gray" fill="white" stroke-width="1px"></path><path d="M 40.000000 77.263579 L 40.000000 74.763579 L 34.000000 74.763579 L 34.000000 77.263579 L 40.000000 77.263579" stroke="gray" fill="white" stroke-width="1px"></path><path d="M 22.000000 65.263579 L 22.000000 62.763579 L 16.000000 62.763579 L 16.000000 65.263579 L 22.000000 65.263579" stroke="gray" fill="white" stroke-width="1px"></path><path d="M 28.000000 65.263579 L 28.000000 62.763579 L 22.000000 62.763579 L 22.000000 65.263579 L 28.000000 65.263579" stroke="gray" fill="white" stroke-width="1px"></path><path d="M 34.000000 65.263579 L 34.000000 62.763579 L 28.000000 62.763579 L 28.000000 65.263579 L 34.000000 65.263579" stroke="gray" fill="white" stroke-width="1px"></path><path d="M 40.000000 65.263579 L 40.000000 62.763579 L 34.000000 62.763579 L 34.000000 65.263579 L 40.000000 65.263579" stroke="gray" fill="white" stroke-width="1px"></path><path d="M 254.239220 101.263579 L 254.239220 103.763579 L 248.239220 103.763579 L 248.239220 101.263579 L 254.239220 101.263579" stroke="gray" fill="white" stroke-width="1px"></path><path d="M 260.239220 101.263579 L 260.239220 103.763579 L 254.239220 103.763579 L 254.239220 101.263579 L 260.239220 101.263579" stroke="gray" fill="white" stroke-width="1px"></path><path d="M 266.239220 101.263579 L 266.239220 103.763579 L 260.239220 103.763579 L 260.239220 101.263579 L 266.239220 101.263579" stroke="gray" fill="white" stroke-width="1px"></path><path d="M 272.239220 101.263579 L 272.239220 103.763579 L 266.239220 103.763579 L 266.239220 101.263579 L 272.239220 101.263579" stroke="gray" fill="white" stroke-width="1px"></path><path d="M 278.239220 101.263579 L 278.239220 103.763579 L 272.239220 103.763579 L 272.239220 101.263579 L 278.239220 101.263579" stroke="gray" fill="white" stroke-width="1px"></path><path d="M 251.472354 89.263579 L 251.472354 91.763579 L 245.472354 91.763579 L 245.472354 89.263579 L 251.472354 89.263579" stroke="gray" fill="white" stroke-width="1px"></path><path d="M 257.472354 89.263579 L 257.472354 91.763579 L 251.472354 91.763579 L 251.472354 89.263579 L 257.472354 89.263579" stroke="gray" fill="white" stroke-width="1px"></path><path d="M 263.472354 89.263579 L 263.472354 91.763579 L 257.472354 91.763579 L 257.472354 89.263579 L 263.472354 89.263579" stroke="gray" fill="white" stroke-width="1px"></path><path d="M 269.472354 89.263579 L 269.472354 91.763579 L 263.472354 91.763579 L 263.472354 89.263579 L 269.472354 89.263579" stroke="gray" fill="white" stroke-width="1px"></path><path d="M 275.472354 89.263579 L 275.472354 91.763579 L 269.472354 91.763579 L 269.472354 89.263579 L 275.472354 89.263579" stroke="gray" fill="white" stroke-width="1px"></path><path d="M 248.705489 77.263579 L 248.705489 79.763579 L 242.705489 79.763579 L 242.705489 77.263579 L 248.705489 77.263579" stroke="gray" fill="white" stroke-width="1px"></path><path d="M 254.705489 77.263579 L 254.705489 79.763579 L 248.705489 79.763579 L 248.705489 77.263579 L 254.705489 77.263579" stroke="gray" fill="white" stroke-width="1px"></path><path d="M 260.705489 77.263579 L 260.705489 79.763579 L 254.705489 79.763579 L 254.705489 77.263579 L 260.705489 77.263579" stroke="gray" fill="white" stroke-width="1px"></path><path d="M 266.705489 77.263579 L 266.705489 79.763579 L 260.705489 79.763579 L 260.705489 77.263579 L 266.705489 77.263579" stroke="gray" fill="white" stroke-width="1px"></path><path d="M 272.705489 77.263579 L 272.705489 79.763579 L 266.705489 79.763579 L 266.705489 77.263579 L 272.705489 77.263579" stroke="gray" fill="white" stroke-width="1px"></path><path d="M 278.705489 77.263579 L 278.705489 79.763579 L 272.705489 79.763579 L 272.705489 77.263579 L 278.705489 77.263579" stroke="gray" fill="white" stroke-width="1px"></path><path d="M 278.247693 65.263579 L 278.247693 67.763579 L 272.247693 67.763579 L 272.247693 65.263579 L 278.247693 65.263579" stroke="gray" fill="white" stroke-width="1px"></path><path d="M 219.759745 101.263579 L 219.759745 103.763579 L 213.759745 103.763579 L 213.759745 101.263579 L 219.759745 101.263579" stroke="gray" fill="white" stroke-width="1px"></path><path d="M 214.187535 89.263579 L 214.187535 91.763579 L 208.187535 91.763579 L 208.187535 89.263579 L 214.187535 89.263579" stroke="gray" fill="white" stroke-width="1px"></path><path d="M 22.000000 101.263579 L 22.000000 103.763579 L 16.000000 103.763579 L 16.000000 101.263579 L 22.000000 101.263579" stroke="gray" fill="white" stroke-width="1px"></path><path d="M 28.000000 101.263579 L 28.000000 103.763579 L 22.000000 103.763579 L 22.000000 101.263579 L 28.000000 101.263579" stroke="gray" fill="white" stroke-width="1px"></path><path d="M 34.000000 101.263579 L 34.000000 103.763579 L 28.000000 103.763579 L 28.000000 101.263579 L 34.000000 101.263579" stroke="gray" fill="white" stroke-width="1px"></path><path d="M 40.000000 101.263579 L 40.000000 103.763579 L 34.000000 103.763579 L 34.000000 101.263579 L 40.000000 101.263579" stroke="gray" fill="white" stroke-width="1px"></path><path d="M 22.000000 89.263579 L 22.000000 91.763579 L 16.000000 91.763579 L 16.000000 89.263579 L 22.000000 89.263579" stroke="gray" fill="white" stroke-width="1px"></path><path d="M 28.000000 89.263579 L 28.000000 91.763579 L 22.000000 91.763579 L 22.000000 89.263579 L 28.000000 89.263579" stroke="gray" fill="white" stroke-width="1px"></path><path d="M 34.000000 89.263579 L 34.000000 91.763579 L 28.000000 91.763579 L 28.000000 89.263579 L 34.000000 89.263579" stroke="gray" fill="white" stroke-width="1px"></path><path d="M 40.000000 89.263579 L 40.000000 91.763579 L 34.000000 91.763579 L 34.000000 89.263579 L 40.000000 89.263579" stroke="gray" fill="white" stroke-width="1px"></path><path d="M 22.000000 77.263579 L 22.000000 79.763579 L 16.000000 79.763579 L 16.000000 77.263579 L 22.000000 77.263579" stroke="gray" fill="white" stroke-width="1px"></path><path d="M 28.000000 77.263579 L 28.000000 79.763579 L 22.000000 79.763579 L 22.000000 77.263579 L 28.000000 77.263579" stroke="gray" fill="white" stroke-width="1px"></path><path d="M 34.000000 77.263579 L 34.000000 79.763579 L 28.000000 79.763579 L 28.000000 77.263579 L 34.000000 77.263579" stroke="gray" fill="white" stroke-width="1px"></path><path d="M 40.000000 77.263579 L 40.000000 79.763579 L 34.000000 79.763579 L 34.000000 77.263579 L 40.000000 77.263579" stroke="gray" fill="white" stroke-width="1px"></path><path d="M 22.000000 65.263579 L 22.000000 67.763579 L 16.000000 67.763579 L 16.000000 65.263579 L 22.000000 65.263579" stroke="gray" fill="white" stroke-width="1px"></path><path d="M 28.000000 65.263579 L 28.000000 67.763579 L 22.000000 67.763579 L 22.000000 65.263579 L 28.000000 65.263579" stroke="gray" fill="white" stroke-width="1px"></path><path d="M 34.000000 65.263579 L 34.000000 67.763579 L 28.000000 67.763579 L 28.000000 65.263579 L 34.000000 65.263579" stroke="gray" fill="white" stroke-width="1px"></path><path d="M 40.000000 65.263579 L 40.000000 67.763579 L 34.000000 67.763579 L 34.000000 65.263579 L 40.000000 65.263579" stroke="gray" fill="white" stroke-width="1px"></path></g><g id="crv-base"><path d="M 221.371570 123.090312 L 221.371570 169.241094 L 120.000633 169.241094 L 120.000633 156.444206 L 126.051258 156.444206 L 126.051258 128.832500 L 123.590320 128.832500 L 123.590320 125.551250 L 126.051258 125.551250 L 126.051258 123.858132 L 91.315945 123.858125 L 91.315945 134.738750 L 64.258762 134.738750 L 64.258762 123.687497 L 10.000000 123.687497 L 10.000000 226.180625 L 64.258758 226.180625 L 64.258758 192.357500 L 91.315945 192.357500 L 91.315945 220.123437 L 283.459383 220.123437 L 283.459383 123.090312 L 221.371570 123.090312" stroke="black" fill="none" stroke-width="1px"></path><path d="M 221.371570 10.000000 L 221.371570 56.150781 L 120.000633 56.150781 L 120.000633 43.353893 L 126.051258 43.353893 L 126.051258 15.742187 L 123.590320 15.742187 L 123.590320 12.460937 L 126.051258 12.460937 L 126.051258 10.767819 L 91.315945 10.767812 L 91.315945 21.648438 L 64.258762 21.648438 L 64.258762 10.597185 L 10.000000 10.597185 L 10.000000 113.090312 L 64.258758 113.090312 L 64.258758 79.267187 L 91.315945 79.267187 L 91.315945 107.033125 L 283.459383 107.033125 L 283.459383 10.000000 L 221.371570 10.000000" stroke="black" fill="none" stroke-width="1px"></path><path d="M 10.387195 156.559062 L 10.387195 154.590312 L 12.355945 154.590312 L 12.355945 156.559062 L 10.387195 156.559062" stroke="black" fill="white" stroke-width="1px"></path><path d="M 10.387195 43.468750 L 10.387195 41.500000 L 12.355945 41.500000 L 12.355945 43.468750 L 10.387195 43.468750" stroke="black" fill="white" stroke-width="1px"></path><path d="M 10.387195 188.059062 L 10.387195 186.090312 L 12.355945 186.090312 L 12.355945 188.059062 L 10.387195 188.059062" stroke="black" fill="white" stroke-width="1px"></path><path d="M 10.387195 74.968750 L 10.387195 73.000000 L 12.355945 73.000000 L 12.355945 74.968750 L 10.387195 74.968750" stroke="black" fill="white" stroke-width="1px"></path><path d="M 10.387195 219.559062 L 10.387195 217.590312 L 12.355945 217.590312 L 12.355945 219.559062 L 10.387195 219.559062" stroke="black" fill="white" stroke-width="1px"></path><path d="M 10.387195 106.468750 L 10.387195 104.500000 L 12.355945 104.500000 L 12.355945 106.468750 L 10.387195 106.468750" stroke="black" fill="white" stroke-width="1px"></path><path d="M 60.754383 128.340312 L 60.754383 125.387187 L 63.871570 125.387187 L 63.871570 128.340312 L 60.754383 128.340312" stroke="black" fill="white" stroke-width="1px"></path><path d="M 60.754383 15.250000 L 60.754383 12.296875 L 63.871570 12.296875 L 63.871570 15.250000 L 60.754383 15.250000" stroke="black" fill="white" stroke-width="1px"></path><path d="M 280.598133 219.230937 L 280.598133 217.262187 L 282.566883 217.262187 L 282.566883 219.230937 L 280.598133 219.230937" stroke="black" fill="white" stroke-width="1px"></path><path d="M 280.598133 106.140625 L 280.598133 104.171875 L 282.566883 104.171875 L 282.566883 106.140625 L 280.598133 106.140625" stroke="black" fill="white" stroke-width="1px"></path><path d="M 280.598133 188.059062 L 280.598133 186.090312 L 282.566883 186.090312 L 282.566883 188.059062 L 280.598133 188.059062" stroke="black" fill="white" stroke-width="1px"></path><path d="M 280.598133 74.968750 L 280.598133 73.000000 L 282.566883 73.000000 L 282.566883 74.968750 L 280.598133 74.968750" stroke="black" fill="white" stroke-width="1px"></path><path d="M 280.598133 156.559050 L 280.598133 154.590300 L 282.566883 154.590300 L 282.566883 156.559050 L 280.598133 156.559050" stroke="black" fill="white" stroke-width="1px"></path><path d="M 280.598133 43.468737 L 280.598133 41.499987 L 282.566883 41.499987 L 282.566883 43.468737 L 280.598133 43.468737" stroke="black" fill="white" stroke-width="1px"></path><path d="M 248.605945 127.355937 L 248.605945 123.418437 L 251.887195 123.418437 L 251.887195 127.355937 L 248.605945 127.355937" stroke="black" fill="white" stroke-width="1px"></path><path d="M 248.605945 14.265625 L 248.605945 10.328125 L 251.887195 10.328125 L 251.887195 14.265625 L 248.605945 14.265625" stroke="black" fill="white" stroke-width="1px"></path><path d="M 248.605945 157.871562 L 248.605945 153.934062 L 251.887195 153.934062 L 251.887195 157.871562 L 248.605945 157.871562" stroke="black" fill="white" stroke-width="1px"></path><path d="M 248.605945 44.781250 L 248.605945 40.843750 L 251.887195 40.843750 L 251.887195 44.781250 L 248.605945 44.781250" stroke="black" fill="white" stroke-width="1px"></path><path d="M 248.605945 189.043437 L 248.605945 185.105937 L 251.887195 185.105937 L 251.887195 189.043437 L 248.605945 189.043437" stroke="black" fill="white" stroke-width="1px"></path><path d="M 248.605945 75.953125 L 248.605945 72.015625 L 251.887195 72.015625 L 251.887195 75.953125 L 248.605945 75.953125" stroke="black" fill="white" stroke-width="1px"></path><path d="M 248.934070 219.230937 L 248.934070 216.277812 L 251.887195 216.277812 L 251.887195 219.230937 L 248.934070 219.230937" stroke="black" fill="white" stroke-width="1px"></path><path d="M 248.934070 106.140625 L 248.934070 103.187500 L 251.887195 103.187500 L 251.887195 106.140625 L 248.934070 106.140625" stroke="black" fill="white" stroke-width="1px"></path><path d="M 218.090320 189.043437 L 218.090320 185.105937 L 221.371570 185.105937 L 221.371570 189.043437 L 218.090320 189.043437" stroke="black" fill="white" stroke-width="1px"></path><path d="M 218.090320 75.953125 L 218.090320 72.015625 L 221.371570 72.015625 L 221.371570 75.953125 L 218.090320 75.953125" stroke="black" fill="white" stroke-width="1px"></path><path d="M 218.254383 219.230937 L 218.254383 216.277812 L 221.207508 216.277812 L 221.207508 219.230937 L 218.254383 219.230937" stroke="black" fill="white" stroke-width="1px"></path><path d="M 218.254383 106.140625 L 218.254383 103.187500 L 221.207508 103.187500 L 221.207508 106.140625 L 218.254383 106.140625" stroke="black" fill="white" stroke-width="1px"></path><path d="M 186.590320 189.043437 L 186.590320 185.105937 L 189.871570 185.105937 L 189.871570 189.043437 L 186.590320 189.043437" stroke="black" fill="white" stroke-width="1px"></path><path d="M 186.590320 75.953125 L 186.590320 72.015625 L 189.871570 72.015625 L 189.871570 75.953125 L 186.590320 75.953125" stroke="black" fill="white" stroke-width="1px"></path><path d="M 186.754383 219.230937 L 186.754383 216.277812 L 189.707508 216.277812 L 189.707508 219.230937 L 186.754383 219.230937" stroke="black" fill="white" stroke-width="1px"></path><path d="M 186.754383 106.140625 L 186.754383 103.187500 L 189.707508 103.187500 L 189.707508 106.140625 L 186.754383 106.140625" stroke="black" fill="white" stroke-width="1px"></path><path d="M 155.090320 189.043437 L 155.090320 185.105937 L 158.371570 185.105937 L 158.371570 189.043437 L 155.090320 189.043437" stroke="black" fill="white" stroke-width="1px"></path><path d="M 155.090320 75.953125 L 155.090320 72.015625 L 158.371570 72.015625 L 158.371570 75.953125 L 155.090320 75.953125" stroke="black" fill="white" stroke-width="1px"></path><path d="M 155.254383 219.230937 L 155.254383 216.277812 L 158.207508 216.277812 L 158.207508 219.230937 L 155.254383 219.230937" stroke="black" fill="white" stroke-width="1px"></path><path d="M 155.254383 106.140625 L 155.254383 103.187500 L 158.207508 103.187500 L 158.207508 106.140625 L 155.254383 106.140625" stroke="black" fill="white" stroke-width="1px"></path><path d="M 123.590320 189.043437 L 123.590320 185.105937 L 126.871570 185.105937 L 126.871570 189.043437 L 123.590320 189.043437" stroke="black" fill="white" stroke-width="1px"></path><path d="M 123.590320 75.953125 L 123.590320 72.015625 L 126.871570 72.015625 L 126.871570 75.953125 L 123.590320 75.953125" stroke="black" fill="white" stroke-width="1px"></path><path d="M 123.754383 219.230937 L 123.754383 216.277812 L 126.707508 216.277812 L 126.707508 219.230937 L 123.754383 219.230937" stroke="black" fill="white" stroke-width="1px"></path><path d="M 123.754383 106.140625 L 123.754383 103.187500 L 126.707508 103.187500 L 126.707508 106.140625 L 123.754383 106.140625" stroke="black" fill="white" stroke-width="1px"></path><path d="M 92.090320 157.543437 L 92.090320 153.605937 L 95.371570 153.605937 L 95.371570 157.543437 L 92.090320 157.543437" stroke="black" fill="white" stroke-width="1px"></path><path d="M 92.090320 44.453125 L 92.090320 40.515625 L 95.371570 40.515625 L 95.371570 44.453125 L 92.090320 44.453125" stroke="black" fill="white" stroke-width="1px"></path><path d="M 92.090320 189.043437 L 92.090320 185.105937 L 95.371570 185.105937 L 95.371570 189.043437 L 92.090320 189.043437" stroke="black" fill="white" stroke-width="1px"></path><path d="M 92.090320 75.953125 L 92.090320 72.015625 L 95.371570 72.015625 L 95.371570 75.953125 L 92.090320 75.953125" stroke="black" fill="white" stroke-width="1px"></path><path d="M 92.090320 128.504375 L 92.090320 125.551250 L 95.207508 125.551250 L 95.207508 128.504375 L 92.090320 128.504375" stroke="black" fill="white" stroke-width="1px"></path><path d="M 92.090320 15.414062 L 92.090320 12.460937 L 95.207508 12.460937 L 95.207508 15.414062 L 92.090320 15.414062" stroke="black" fill="white" stroke-width="1px"></path><path d="M 60.590320 157.215312 L 60.590320 153.934062 L 63.871570 153.934062 L 63.871570 157.215312 L 60.590320 157.215312" stroke="black" fill="white" stroke-width="1px"></path><path d="M 60.590320 44.125000 L 60.590320 40.843750 L 63.871570 40.843750 L 63.871570 44.125000 L 60.590320 44.125000" stroke="black" fill="white" stroke-width="1px"></path><path d="M 60.754383 219.230937 L 60.754383 216.277812 L 63.871570 216.277812 L 63.871570 219.230937 L 60.754383 219.230937" stroke="black" fill="white" stroke-width="1px"></path><path d="M 60.754383 106.140625 L 60.754383 103.187500 L 63.871570 103.187500 L 63.871570 106.140625 L 60.754383 106.140625" stroke="black" fill="white" stroke-width="1px"></path><path d="M 30.074695 128.504375 L 30.074695 125.223125 L 33.027820 125.223125 L 33.027820 128.504375 L 30.074695 128.504375" stroke="black" fill="white" stroke-width="1px"></path><path d="M 30.074695 15.414062 L 30.074695 12.132812 L 33.027820 12.132812 L 33.027820 15.414062 L 30.074695 15.414062" stroke="black" fill="white" stroke-width="1px"></path><path d="M 30.074695 157.215312 L 30.074695 153.934062 L 33.355945 153.934062 L 33.355945 157.215312 L 30.074695 157.215312" stroke="black" fill="white" stroke-width="1px"></path><path d="M 30.074695 44.125000 L 30.074695 40.843750 L 33.355945 40.843750 L 33.355945 44.125000 L 30.074695 44.125000" stroke="black" fill="white" stroke-width="1px"></path><path d="M 30.074695 188.715312 L 30.074695 185.434062 L 33.355945 185.434062 L 33.355945 188.715312 L 30.074695 188.715312" stroke="black" fill="white" stroke-width="1px"></path><path d="M 30.074695 75.625000 L 30.074695 72.343750 L 33.355945 72.343750 L 33.355945 75.625000 L 30.074695 75.625000" stroke="black" fill="white" stroke-width="1px"></path><path d="M 30.074695 219.230937 L 30.074695 216.277812 L 33.027820 216.277812 L 33.027820 219.230937 L 30.074695 219.230937" stroke="black" fill="white" stroke-width="1px"></path><path d="M 30.074695 106.140625 L 30.074695 103.187500 L 33.027820 103.187500 L 33.027820 106.140625 L 30.074695 106.140625" stroke="black" fill="white" stroke-width="1px"></path><path d="M 10.387195 127.191875 L 10.387195 125.223125 L 12.355945 125.223125 L 12.355945 127.191875 L 10.387195 127.191875" stroke="black" fill="white" stroke-width="1px"></path><path d="M 10.387195 14.101562 L 10.387195 12.132812 L 12.355945 12.132812 L 12.355945 14.101562 L 10.387195 14.101562" stroke="black" fill="white" stroke-width="1px"></path><path d="M 60.590320 189.863750 L 60.590320 185.434062 L 63.871570 185.434062 L 63.871570 188.715312 L 62.230945 188.715312 L 62.230945 189.863750 L 60.590320 189.863750" stroke="black" fill="white" stroke-width="1px"></path><path d="M 60.590320 76.773437 L 60.590320 72.343750 L 63.871570 72.343750 L 63.871570 75.625000 L 62.230945 75.625000 L 62.230945 76.773437 L 60.590320 76.773437" stroke="black" fill="white" stroke-width="1px"></path></g></svg>