<svg width="293.459383" height="236.180625" xmlns="http://www.w3.org/2000/svg" xmlns:xlink="http://www.w3.org/1999/xlink" version="1.1"><g id="crv-background"><path d="M 221.371570 123.090312 L 221.371570 169.241094 L 120.000633 169.241094 L 120.000633 156.444206 L 126.051258 156.444206 L 126.051258 128.832500 L 123.590320 128.832500 L 123.590320 125.551250 L 126.051258 125.551250 L 126.051258 123.858132 L 91.315945 123.858125 L 91.315945 134.738750 L 64.258762 134.738750 L 64.258762 123.687497 L 10.000000 123.687497 L 10.000000 226.180625 L 64.258758 226.180625 L 64.258758 192.357500 L 91.315945 192.357500 L 91.315945 220.123437 L 283.459383 220.123437 L 283.459383 123.090312 L 221.371570 123.090312" stroke="none" fill="white" stroke-width="1px"></path><path d="M 221.371570 10.000000 L 221.371570 56.150781 L 120.000633 56.150781 L 120.000633 43.353893 L 126.051258 43.353893 L 126.051258 15.742187 L 123.590320 15.742187 L 123.590320 12.460937 L 126.051258 12.460937 L 126.051258 10.767819 L 91.315945 10.767812 L 91.315945 21.648438 L 64.258762 21.648438 L 64.258762 10.597185 L 10.000000 10.597185 L 10.000000 113.090312 L 64.258758 113.090312 L 64.258758 79.267187 L 91.315945 79.267187 L 91.315945 107.033125 L 283.459383 107.033125 L 283.459383 10.000000 L 221.371570 10.000000" stroke="none" fill="white" stroke-width="1px"></path></g><g id="crv-nbhd"><path d="M 221.737654 10.000004 L 221.737654 25.693970 L 221.737654 41.387937 L 222.695237 42.645463 L 223.652820 43.902990 L 238.045535 48.535260 L 252.438249 53.167529 L 267.948816 48.472686 L 283.459383 43.777843 L 283.459383 26.888922 L 283.459382 10.000000 L 252.598540 10.000002 L 221.737654 10.000004" stroke="#DD2222" fill="none" stroke-width="1px"></path><path d="M 283.459383 107.033125 L 283.459383 75.405484 L 283.459383 43.777843 L 267.948816 48.472686 L 252.438249 53.167529 L 254.376941 80.100327 L 256.315633 107.033125 L 269.887505 107.033125 L 283.459383 107.033125" stroke="#DD2222" fill="none" stroke-width="1px"></path><path d="M 215.889913 107.033125 L 236.102773 107.033125 L 256.315633 107.033125 L 254.376941 80.100327 L 252.438249 53.167529 L 238.045535 48.535260 L 223.652820 43.902990 L 222.695237 51.690326 L 221.737654 59.477661 L 221.737654 69.314496 L 221.737654 79.151330 L 220.528050 79.151330 L 219.318447 79.151330 L 217.604180 93.092228 L 215.889913 107.033125" stroke="#DD2222" fill="none" stroke-width="1px"></path><path d="M 219.318447 79.151330 L 197.495065 79.151330 L 175.671682 79.151329 L 176.792276 93.092227 L 177.912869 107.033125 L 196.901391 107.033125 L 215.889913 107.033125 L 217.604180 93.092228 L 219.318447 79.151330" stroke="#DD2222" fill="none" stroke-width="1px"></path><path d="M 175.671682 79.151329 L 156.176183 79.151329 L 136.680684 79.151328 L 139.908978 93.092227 L 143.137273 107.033125 L 160.525071 107.033125 L 177.912869 107.033125 L 176.792276 93.092230 L 175.671682 79.151329" stroke="#DD2222" fill="none" stroke-width="1px"></path><path d="M 136.680684 79.151328 L 113.998315 79.151328 L 91.315945 79.151327 L 91.315945 93.092226 L 91.315945 107.033125 L 117.226609 107.033125 L 143.137273 107.033125 L 139.908978 93.092227 L 136.680684 79.151328" stroke="#DD2222" fill="none" stroke-width="1px"></path><path d="M 64.258758 113.090312 L 64.258758 84.620554 L 64.258758 56.150781 L 64.258758 53.982611 L 64.258758 51.814442 L 37.129376 57.224158 L 10.000000 62.633872 L 10.000000 87.862092 L 10.000000 113.090312 L 37.129269 113.090312 L 64.258758 113.090312" stroke="#DD2222" fill="none" stroke-width="1px"></path><path d="M 10.000000 10.597184 L 10.000000 36.615528 L 10.000000 62.633873 L 37.129379 57.224157 L 64.258758 51.814442 L 64.258758 31.205813 L 64.258758 10.597185 L 37.129385 10.597185 L 10.000000 10.597184" stroke="#DD2222" fill="none" stroke-width="1px"></path><path d="M 10.000000 123.687497 L 10.000000 151.360734 L 10.000000 179.033972 L 37.129379 176.807317 L 64.258758 174.580662 L 64.258758 171.910878 L 64.258758 169.241094 L 64.258758 146.464296 L 64.258758 123.687497 L 37.129385 123.687497 L 10.000000 123.687497" stroke="#DD2222" fill="none" stroke-width="1px"></path><path d="M 10.000000 179.033972 L 10.000000 202.607299 L 10.000000 226.180625 L 37.129382 226.180625 L 64.258764 226.180625 L 64.258764 200.380643 L 64.258758 174.580662 L 37.129379 176.807317 L 10.000000 179.033972" stroke="#DD2222" fill="none" stroke-width="1px"></path><path d="M 134.679118 192.043444 L 112.997531 192.043444 L 91.315945 192.043444 L 91.315945 206.083441 L 91.315945 220.123437 L 117.434675 220.123437 L 143.553405 220.123437 L 139.116261 206.083441 L 134.679118 192.043444" stroke="#DD2222" fill="none" stroke-width="1px"></path><path d="M 181.522372 192.043444 L 158.100745 192.043444 L 134.679118 192.043444 L 139.116261 206.083441 L 143.553405 220.123437 L 160.182816 220.123437 L 176.812228 220.123437 L 179.167300 206.083441 L 181.522372 192.043444" stroke="#DD2222" fill="none" stroke-width="1px"></path><path d="M 176.812228 220.123437 L 202.919586 220.123437 L 229.026945 220.123437 L 229.849201 206.083441 L 230.671457 192.043444 L 206.096915 192.043444 L 181.522372 192.043444 L 179.167300 206.083441 L 176.812228 220.123437" stroke="#DD2222" fill="none" stroke-width="1px"></path><path d="M 283.459383 220.123437 L 283.459383 190.870980 L 283.459383 161.618522 L 261.598517 167.561454 L 239.737652 173.504386 L 239.737652 182.773915 L 239.737652 192.043444 L 235.204554 192.043444 L 230.671457 192.043444 L 229.849201 206.083441 L 229.026945 220.123437 L 256.243157 220.123437 L 283.459383 220.123437" stroke="#DD2222" fill="none" stroke-width="1px"></path><path d="M 239.737652 123.090312 L 239.737652 148.297349 L 239.737652 173.504386 L 261.598517 167.561454 L 283.459383 161.618522 L 283.459383 142.354417 L 283.459383 123.090312 L 261.598517 123.090312 L 239.737652 123.090312" stroke="#DD2222" fill="none" stroke-width="1px"></path></g><g id="crv-amen"><path d="M 58.832882 138.729362 L 58.832882 132.044089 L 58.832882 125.358816 L 37.129379 125.358815 L 15.425876 125.358815 L 15.425876 132.044088 L 15.425876 138.729362 L 37.129379 138.729362 L 58.832882 138.729362" stroke="none" fill="#2288CC" stroke-width="1px"></path><path d="M 58.832884 190.118436 L 58.832884 183.410682 L 58.832882 176.702931 L 37.129379 178.484255 L 15.425876 180.265579 L 15.425876 186.973332 L 15.425876 193.681085 L 37.129380 191.899761 L 58.832884 190.118436" stroke="none" fill="#2288CC" stroke-width="1px"></path><path d="M 134.837526 207.117291 L 132.724739 200.432018 L 130.611952 193.746745 L 113.266683 193.746745 L 95.921415 193.746745 L 95.921415 200.432018 L 95.921415 207.117291 L 115.379470 207.117291 L 134.837526 207.117291" stroke="none" fill="#2288CC" stroke-width="1px"></path><path d="M 174.715291 207.032688 L 175.836681 200.347415 L 176.958070 193.662141 L 158.220768 193.662141 L 139.483466 193.662141 L 141.596253 200.347415 L 143.709039 207.032688 L 159.212165 207.032688 L 174.715291 207.032688" stroke="none" fill="#2288CC" stroke-width="1px"></path><path d="M 214.123758 217.315438 L 220.820486 217.315438 L 227.517214 217.315438 L 228.175019 206.083441 L 228.832823 194.851444 L 222.136095 194.851444 L 215.439367 194.851444 L 214.781562 206.083441 L 214.123758 217.315438" stroke="none" fill="#2288CC" stroke-width="1px"></path><path d="M 239.482551 192.204143 L 239.482551 193.456926 L 239.482551 194.709708 L 235.856073 194.709708 L 232.229595 194.709708 L 231.571791 205.941705 L 230.913986 217.173702 L 237.610714 217.173702 L 244.307443 217.173702 L 245.027871 204.872400 L 245.748300 192.571098 L 242.615426 192.387621 L 239.482551 192.204143" stroke="none" fill="#2288CC" stroke-width="1px"></path><path d="M 279.087210 138.132177 L 279.087210 131.446904 L 279.087210 124.761631 L 261.598517 124.761631 L 244.109825 124.761631 L 244.109825 131.446904 L 244.109825 138.132177 L 261.598517 138.132177 L 279.087210 138.132177" stroke="none" fill="#2288CC" stroke-width="1px"></path><path d="M 225.532594 37.710292 L 225.532594 39.456587 L 225.532594 41.202882 L 226.298661 42.208903 L 227.064727 43.214924 L 238.578899 46.920740 L 250.093071 50.626556 L 251.923261 50.072581 L 253.753451 49.518607 L 255.468279 44.190545 L 257.183106 38.862482 L 242.675250 34.193155 L 228.167393 29.523827 L 226.849994 33.617059 L 225.532594 37.710292" stroke="none" fill="#2288CC" stroke-width="1px"></path><path d="M 280.418363 60.402374 L 280.418363 53.417561 L 280.418363 46.432748 L 268.009909 50.188623 L 255.601456 53.944497 L 256.093519 60.780369 L 256.585583 67.616240 L 268.501973 64.009307 L 280.418363 60.402374" stroke="none" fill="#2288CC" stroke-width="1px"></path><path d="M 240.799688 101.366033 L 247.502259 101.366033 L 254.204830 101.366033 L 252.653876 79.819795 L 251.102923 58.273556 L 244.241388 56.065184 L 237.379853 53.856811 L 239.089770 77.611422 L 240.799688 101.366033" stroke="none" fill="#2288CC" stroke-width="1px"></path><path d="M 190.986182 81.939509 L 184.279346 81.939509 L 177.572510 81.939509 L 178.468985 93.092227 L 179.365459 104.244945 L 186.072296 104.244945 L 192.779132 104.244945 L 191.882657 93.092227 L 190.986182 81.939509" stroke="none" fill="#2288CC" stroke-width="1px"></path><path d="M 173.105106 94.174538 L 172.567732 87.489265 L 172.030358 80.803991 L 156.433959 80.803991 L 140.837559 80.803990 L 142.385668 87.489264 L 143.933777 94.174537 L 158.519441 94.174537 L 173.105106 94.174538" stroke="none" fill="#2288CC" stroke-width="1px"></path><path d="M 127.051942 104.245227 L 133.914123 104.245227 L 140.776303 104.245227 L 138.193668 93.092508 L 135.611032 81.939789 L 129.014319 81.939789 L 122.417606 81.939789 L 122.165649 81.998134 L 121.913693 82.056480 L 124.482818 93.150853 L 127.051942 104.245227" stroke="none" fill="#2288CC" stroke-width="1px"></path><path d="M 49.232466 107.127807 L 55.917728 107.127807 L 62.603013 107.127807 L 62.603013 82.617458 L 62.603013 58.107110 L 55.917739 59.440182 L 49.232466 60.773255 L 49.232466 83.950531 L 49.232466 107.127807" stroke="none" fill="#2288CC" stroke-width="1px"></path><path d="M 49.195245 50.527653 L 55.880518 49.194581 L 62.565792 47.861508 L 62.565792 31.374606 L 62.565792 14.887703 L 55.880519 14.887703 L 49.195245 14.887703 L 49.195245 32.707678 L 49.195245 50.527653" stroke="none" fill="#2288CC" stroke-width="1px"></path></g><g id="crv-desk"><path d="M 55.459383 220.180625 L 52.959383 220.180625 L 52.959383 226.180625 L 55.459383 226.180625 L 55.459383 220.180625" stroke="gray" fill="white" stroke-width="1px"></path><path d="M 55.459383 214.180625 L 52.959383 214.180625 L 52.959383 220.180625 L 55.459383 220.180625 L 55.459383 214.180625" stroke="gray" fill="white" stroke-width="1px"></path><path d="M 55.459383 208.180625 L 52.959383 208.180625 L 52.959383 214.180625 L 55.459383 214.180625 L 55.459383 208.180625" stroke="gray" fill="white" stroke-width="1px"></path><path d="M 55.459383 202.180625 L 52.959383 202.180625 L 52.959383 208.180625 L 55.459383 208.180625 L 55.459383 202.180625" stroke="gray" fill="white" stroke-width="1px"></path><path d="M 43.459383 220.180625 L 40.959383 220.180625 L 40.959383 226.180625 L 43.459383 226.180625 L 43.459383 220.180625" stroke="gray" fill="white" stroke-width="1px"></path><path d="M 43.459383 214.180625 L 40.959383 214.180625 L 40.959383 220.180625 L 43.459383 220.180625 L 43.459383 214.180625" stroke="gray" fill="white" stroke-width="1px"></path><path d="M 43.459383 208.180625 L 40.959383 208.180625 L 40.959383 214.180625 L 43.459383 214.180625 L 43.459383 208.180625" stroke="gray" fill="white" stroke-width="1px"></path><path d="M 43.459383 202.180625 L 40.959383 202.180625 L 40.959383 208.180625 L 43.459383 208.180625 L 43.459383 202.180625" stroke="gray" fill="white" stroke-width="1px"></path><path d="M 31.459383 220.180625 L 28.959383 220.180625 L 28.959383 226.180625 L 31.459383 226.180625 L 31.459383 220.180625" stroke="gray" fill="white" stroke-width="1px"></path><path d="M 31.459383 214.180625 L 28.959383 214.180625 L 28.959383 220.180625 L 31.459383 220.180625 L 31.459383 214.180625" stroke="gray" fill="white" stroke-width="1px"></path><path d="M 31.459383 208.180625 L 28.959383 208.180625 L 28.959383 214.180625 L 31.459383 214.180625 L 31.459383 208.180625" stroke="gray" fill="white" stroke-width="1px"></path><path d="M 31.459383 202.180625 L 28.959383 202.180625 L 28.959383 208.180625 L 31.459383 208.180625 L 31.459383 202.180625" stroke="gray" fill="white" stroke-width="1px"></path><path d="M 19.459383 220.180625 L 16.959383 220.180625 L 16.959383 226.180625 L 19.459383 226.180625 L 19.459383 220.180625" stroke="gray" fill="white" stroke-width="1px"></path><path d="M 19.459383 214.180625 L 16.959383 214.180625 L 16.959383 220.180625 L 19.459383 220.180625 L 19.459383 214.180625" stroke="gray" fill="white" stroke-width="1px"></path><path d="M 19.459383 208.180625 L 16.959383 208.180625 L 16.959383 214.180625 L 19.459383 214.180625 L 19.459383 208.180625" stroke="gray" fill="white" stroke-width="1px"></path><path d="M 19.459383 202.180625 L 16.959383 202.180625 L 16.959383 208.180625 L 19.459383 208.180625 L 19.459383 202.180625" stroke="gray" fill="white" stroke-width="1px"></path><path d="M 139.459383 214.123437 L 136.959383 214.123437 L 136.959383 220.123437 L 139.459383 220.123437 L 139.459383 214.123437" stroke="gray" fill="white" stroke-width="1px"></path><path d="M 127.459383 214.123437 L 124.959383 214.123437 L 124.959383 220.123437 L 127.459383 220.123437 L 127.459383 214.123437" stroke="gray" fill="white" stroke-width="1px"></path><path d="M 115.459383 214.123437 L 112.959383 214.123437 L 112.959383 220.123437 L 115.459383 220.123437 L 115.459383 214.123437" stroke="gray" fill="white" stroke-width="1px"></path><path d="M 103.459383 214.123437 L 100.959383 214.123437 L 100.959383 220.123437 L 103.459383 220.123437 L 103.459383 214.123437" stroke="gray" fill="white" stroke-width="1px"></path><path d="M 175.459383 214.123437 L 172.959383 214.123437 L 172.959383 220.123437 L 175.459383 220.123437 L 175.459383 214.123437" stroke="gray" fill="white" stroke-width="1px"></path><path d="M 163.459383 214.123437 L 160.959383 214.123437 L 160.959383 220.123437 L 163.459383 220.123437 L 163.459383 214.123437" stroke="gray" fill="white" stroke-width="1px"></path><path d="M 151.459383 214.123437 L 148.959383 214.123437 L 148.959383 220.123437 L 151.459383 220.123437 L 151.459383 214.123437" stroke="gray" fill="white" stroke-width="1px"></path><path d="M 199.459383 214.123437 L 196.959383 214.123437 L 196.959383 220.123437 L 199.459383 220.123437 L 199.459383 214.123437" stroke="gray" fill="white" stroke-width="1px"></path><path d="M 199.459383 208.123437 L 196.959383 208.123437 L 196.959383 214.123437 L 199.459383 214.123437 L 199.459383 208.123437" stroke="gray" fill="white" stroke-width="1px"></path><path d="M 199.459383 202.123437 L 196.959383 202.123437 L 196.959383 208.123437 L 199.459383 208.123437 L 199.459383 202.123437" stroke="gray" fill="white" stroke-width="1px"></path><path d="M 199.459383 196.123437 L 196.959383 196.123437 L 196.959383 202.123437 L 199.459383 202.123437 L 199.459383 196.123437" stroke="gray" fill="white" stroke-width="1px"></path><path d="M 187.459383 214.123437 L 184.959383 214.123437 L 184.959383 220.123437 L 187.459383 220.123437 L 187.459383 214.123437" stroke="gray" fill="white" stroke-width="1px"></path><path d="M 187.459383 208.123437 L 184.959383 208.123437 L 184.959383 214.123437 L 187.459383 214.123437 L 187.459383 208.123437" stroke="gray" fill="white" stroke-width="1px"></path><path d="M 187.459383 202.123437 L 184.959383 202.123437 L 184.959383 208.123437 L 187.459383 208.123437 L 187.459383 202.123437" stroke="gray" fill="white" stroke-width="1px"></path><path d="M 187.459383 196.123437 L 184.959383 196.123437 L 184.959383 202.123437 L 187.459383 202.123437 L 187.459383 196.123437" stroke="gray" fill="white" stroke-width="1px"></path><path d="M 55.459383 220.180625 L 57.959383 220.180625 L 57.959383 226.180625 L 55.459383 226.180625 L 55.459383 220.180625" stroke="gray" fill="white" stroke-width="1px"></path><path d="M 55.459383 214.180625 L 57.959383 214.180625 L 57.959383 220.180625 L 55.459383 220.180625 L 55.459383 214.180625" stroke="gray" fill="white" stroke-width="1px"></path><path d="M 55.459383 208.180625 L 57.959383 208.180625 L 57.959383 214.180625 L 55.459383 214.180625 L 55.459383 208.180625" stroke="gray" fill="white" stroke-width="1px"></path><path d="M 55.459383 202.180625 L 57.959383 202.180625 L 57.959383 208.180625 L 55.459383 208.180625 L 55.459383 202.180625" stroke="gray" fill="white" stroke-width="1px"></path><path d="M 43.459383 220.180625 L 45.959383 220.180625 L 45.959383 226.180625 L 43.459383 226.180625 L 43.459383 220.180625" stroke="gray" fill="white" stroke-width="1px"></path><path d="M 43.459383 214.180625 L 45.959383 214.180625 L 45.959383 220.180625 L 43.459383 220.180625 L 43.459383 214.180625" stroke="gray" fill="white" stroke-width="1px"></path><path d="M 43.459383 208.180625 L 45.959383 208.180625 L 45.959383 214.180625 L 43.459383 214.180625 L 43.459383 208.180625" stroke="gray" fill="white" stroke-width="1px"></path><path d="M 43.459383 202.180625 L 45.959383 202.180625 L 45.959383 208.180625 L 43.459383 208.180625 L 43.459383 202.180625" stroke="gray" fill="white" stroke-width="1px"></path><path d="M 31.459383 220.180625 L 33.959383 220.180625 L 33.959383 226.180625 L 31.459383 226.180625 L 31.459383 220.180625" stroke="gray" fill="white" stroke-width="1px"></path><path d="M 31.459383 214.180625 L 33.959383 214.180625 L 33.959383 220.180625 L 31.459383 220.180625 L 31.459383 214.180625" stroke="gray" fill="white" stroke-width="1px"></path><path d="M 31.459383 208.180625 L 33.959383 208.180625 L 33.959383 214.180625 L 31.459383 214.180625 L 31.459383 208.180625" stroke="gray" fill="white" stroke-width="1px"></path><path d="M 31.459383 202.180625 L 33.959383 202.180625 L 33.959383 208.180625 L 31.459383 208.180625 L 31.459383 202.180625" stroke="gray" fill="white" stroke-width="1px"></path><path d="M 19.459383 220.180625 L 21.959383 220.180625 L 21.959383 226.180625 L 19.459383 226.180625 L 19.459383 220.180625" stroke="gray" fill="white" stroke-width="1px"></path><path d="M 19.459383 214.180625 L 21.959383 214.180625 L 21.959383 220.180625 L 19.459383 220.180625 L 19.459383 214.180625" stroke="gray" fill="white" stroke-width="1px"></path><path d="M 19.459383 208.180625 L 21.959383 208.180625 L 21.959383 214.180625 L 19.459383 214.180625 L 19.459383 208.180625" stroke="gray" fill="white" stroke-width="1px"></path><path d="M 19.459383 202.180625 L 21.959383 202.180625 L 21.959383 208.180625 L 19.459383 208.180625 L 19.459383 202.180625" stroke="gray" fill="white" stroke-width="1px"></path><path d="M 127.459383 214.123437 L 129.959383 214.123437 L 129.959383 220.123437 L 127.459383 220.123437 L 127.459383 214.123437" stroke="gray" fill="white" stroke-width="1px"></path><path d="M 115.459383 214.123437 L 117.959383 214.123437 L 117.959383 220.123437 L 115.459383 220.123437 L 115.459383 214.123437" stroke="gray" fill="white" stroke-width="1px"></path><path d="M 103.459383 214.123437 L 105.959383 214.123437 L 105.959383 220.123437 L 103.459383 220.123437 L 103.459383 214.123437" stroke="gray" fill="white" stroke-width="1px"></path><path d="M 163.459383 214.123437 L 165.959383 214.123437 L 165.959383 220.123437 L 163.459383 220.123437 L 163.459383 214.123437" stroke="gray" fill="white" stroke-width="1px"></path><path d="M 151.459383 214.123437 L 153.959383 214.123437 L 153.959383 220.123437 L 151.459383 220.123437 L 151.459383 214.123437" stroke="gray" fill="white" stroke-width="1px"></path><path d="M 199.459383 214.123437 L 201.959383 214.123437 L 201.959383 220.123437 L 199.459383 220.123437 L 199.459383 214.123437" stroke="gray" fill="white" stroke-width="1px"></path><path d="M 199.459383 208.123437 L 201.959383 208.123437 L 201.959383 214.123437 L 199.459383 214.123437 L 199.459383 208.123437" stroke="gray" fill="white" stroke-width="1px"></path><path d="M 199.459383 202.123437 L 201.959383 202.123437 L 201.959383 208.123437 L 199.459383 208.123437 L 199.459383 202.123437" stroke="gray" fill="white" stroke-width="1px"></path><path d="M 199.459383 196.123437 L 201.959383 196.123437 L 201.959383 202.123437 L 199.459383 202.123437 L 199.459383 196.123437" stroke="gray" fill="white" stroke-width="1px"></path><path d="M 187.459383 214.123437 L 189.959383 214.123437 L 189.959383 220.123437 L 187.459383 220.123437 L 187.459383 214.123437" stroke="gray" fill="white" stroke-width="1px"></path><path d="M 187.459383 208.123437 L 189.959383 208.123437 L 189.959383 214.123437 L 187.459383 214.123437 L 187.459383 208.123437" stroke="gray" fill="white" stroke-width="1px"></path><path d="M 187.459383 202.123437 L 189.959383 202.123437 L 189.959383 208.123437 L 187.459383 208.123437 L 187.459383 202.123437" stroke="gray" fill="white" stroke-width="1px"></path><path d="M 187.459383 196.123437 L 189.959383 196.123437 L 189.959383 202.123437 L 187.459383 202.123437 L 187.459383 196.123437" stroke="gray" fill="white" stroke-width="1px"></path><path d="M 22.000000 172.123437 L 22.000000 169.623437 L 16.000000 169.623437 L 16.000000 172.123437 L 22.000000 172.123437" stroke="gray" fill="white" stroke-width="1px"></path><path d="M 28.000000 172.123437 L 28.000000 169.623437 L 22.000000 169.623437 L 22.000000 172.123437 L 28.000000 172.123437" stroke="gray" fill="white" stroke-width="1px"></path><path d="M 34.000000 172.123437 L 34.000000 169.623437 L 28.000000 169.623437 L 28.000000 172.123437 L 34.000000 172.123437" stroke="gray" fill="white" stroke-width="1px"></path><path d="M 40.000000 172.123437 L 40.000000 169.623437 L 34.000000 169.623437 L 34.000000 172.123437 L 40.000000 172.123437" stroke="gray" fill="white" stroke-width="1px"></path><path d="M 22.000000 160.123437 L 22.000000 157.623437 L 16.000000 157.623437 L 16.000000 160.123437 L 22.000000 160.123437" stroke="gray" fill="white" stroke-width="1px"></path><path d="M 28.000000 160.123437 L 28.000000 157.623437 L 22.000000 157.623437 L 22.000000 160.123437 L 28.000000 160.123437" stroke="gray" fill="white" stroke-width="1px"></path><path d="M 34.000000 160.123437 L 34.000000 157.623437 L 28.000000 157.623437 L 28.000000 160.123437 L 34.000000 160.123437" stroke="gray" fill="white" stroke-width="1px"></path><path d="M 40.000000 160.123437 L 40.000000 157.623437 L 34.000000 157.623437 L 34.000000 160.123437 L 40.000000 160.123437" stroke="gray" fill="white" stroke-width="1px"></path><path d="M 46.000000 160.123437 L 46.000000 157.623437 L 40.000000 157.623437 L 40.000000 160.123437 L 46.000000 160.123437" stroke="gray" fill="white" stroke-width="1px"></path><path d="M 52.000000 160.123437 L 52.000000 157.623437 L 46.000000 157.623437 L 46.000000 160.123437 L 52.000000 160.123437" stroke="gray" fill="white" stroke-width="1px"></path><path d="M 58.000000 160.123437 L 58.000000 157.623437 L 52.000000 157.623437 L 52.000000 160.123437 L 58.000000 160.123437" stroke="gray" fill="white" stroke-width="1px"></path><path d="M 22.000000 148.123437 L 22.000000 145.623437 L 16.000000 145.623437 L 16.000000 148.123437 L 22.000000 148.123437" stroke="gray" fill="white" stroke-width="1px"></path><path d="M 28.000000 148.123437 L 28.000000 145.623437 L 22.000000 145.623437 L 22.000000 148.123437 L 28.000000 148.123437" stroke="gray" fill="white" stroke-width="1px"></path><path d="M 34.000000 148.123437 L 34.000000 145.623437 L 28.000000 145.623437 L 28.000000 148.123437 L 34.000000 148.123437" stroke="gray" fill="white" stroke-width="1px"></path><path d="M 40.000000 148.123437 L 40.000000 145.623437 L 34.000000 145.623437 L 34.000000 148.123437 L 40.000000 148.123437" stroke="gray" fill="white" stroke-width="1px"></path><path d="M 46.000000 148.123437 L 46.000000 145.623437 L 40.000000 145.623437 L 40.000000 148.123437 L 46.000000 148.123437" stroke="gray" fill="white" stroke-width="1px"></path><path d="M 52.000000 148.123437 L 52.000000 145.623437 L 46.000000 145.623437 L 46.000000 148.123437 L 52.000000 148.123437" stroke="gray" fill="white" stroke-width="1px"></path><path d="M 58.000000 148.123437 L 58.000000 145.623437 L 52.000000 145.623437 L 52.000000 148.123437 L 58.000000 148.123437" stroke="gray" fill="white" stroke-width="1px"></path><path d="M 250.837474 208.123437 L 250.837474 205.623437 L 244.837474 205.623437 L 244.837474 208.123437 L 250.837474 208.123437" stroke="gray" fill="white" stroke-width="1px"></path><path d="M 256.837474 208.123437 L 256.837474 205.623437 L 250.837474 205.623437 L 250.837474 208.123437 L 256.837474 208.123437" stroke="gray" fill="white" stroke-width="1px"></path><path d="M 262.837474 208.123437 L 262.837474 205.623437 L 256.837474 205.623437 L 256.837474 208.123437 L 262.837474 208.123437" stroke="gray" fill="white" stroke-width="1px"></path><path d="M 268.837474 208.123437 L 268.837474 205.623437 L 262.837474 205.623437 L 262.837474 208.123437 L 268.837474 208.123437" stroke="gray" fill="white" stroke-width="1px"></path><path d="M 274.837474 208.123437 L 274.837474 205.623437 L 268.837474 205.623437 L 268.837474 208.123437 L 274.837474 208.123437" stroke="gray" fill="white" stroke-width="1px"></path><path d="M 251.540256 196.123437 L 251.540256 193.623437 L 245.540256 193.623437 L 245.540256 196.123437 L 251.540256 196.123437" stroke="gray" fill="white" stroke-width="1px"></path><path d="M 257.540256 196.123437 L 257.540256 193.623437 L 251.540256 193.623437 L 251.540256 196.123437 L 257.540256 196.123437" stroke="gray" fill="white" stroke-width="1px"></path><path d="M 263.540256 196.123437 L 263.540256 193.623437 L 257.540256 193.623437 L 257.540256 196.123437 L 263.540256 196.123437" stroke="gray" fill="white" stroke-width="1px"></path><path d="M 269.540256 196.123437 L 269.540256 193.623437 L 263.540256 193.623437 L 263.540256 196.123437 L 269.540256 196.123437" stroke="gray" fill="white" stroke-width="1px"></path><path d="M 275.540256 196.123437 L 275.540256 193.623437 L 269.540256 193.623437 L 269.540256 196.123437 L 275.540256 196.123437" stroke="gray" fill="white" stroke-width="1px"></path><path d="M 251.737652 184.123437 L 251.737652 181.623437 L 245.737652 181.623437 L 245.737652 184.123437 L 251.737652 184.123437" stroke="gray" fill="white" stroke-width="1px"></path><path d="M 257.737652 184.123437 L 257.737652 181.623437 L 251.737652 181.623437 L 251.737652 184.123437 L 257.737652 184.123437" stroke="gray" fill="white" stroke-width="1px"></path><path d="M 263.737652 184.123437 L 263.737652 181.623437 L 257.737652 181.623437 L 257.737652 184.123437 L 263.737652 184.123437" stroke="gray" fill="white" stroke-width="1px"></path><path d="M 269.737652 184.123437 L 269.737652 181.623437 L 263.737652 181.623437 L 263.737652 184.123437 L 269.737652 184.123437" stroke="gray" fill="white" stroke-width="1px"></path><path d="M 275.737652 184.123437 L 275.737652 181.623437 L 269.737652 181.623437 L 269.737652 184.123437 L 275.737652 184.123437" stroke="gray" fill="white" stroke-width="1px"></path><path d="M 268.817421 172.123437 L 268.817421 169.623437 L 262.817421 169.623437 L 262.817421 172.123437 L 268.817421 172.123437" stroke="gray" fill="white" stroke-width="1px"></path><path d="M 274.817421 172.123437 L 274.817421 169.623437 L 268.817421 169.623437 L 268.817421 172.123437 L 274.817421 172.123437" stroke="gray" fill="white" stroke-width="1px"></path><path d="M 251.737652 160.123437 L 251.737652 157.623437 L 245.737652 157.623437 L 245.737652 160.123437 L 251.737652 160.123437" stroke="gray" fill="white" stroke-width="1px"></path><path d="M 257.737652 160.123437 L 257.737652 157.623437 L 251.737652 157.623437 L 251.737652 160.123437 L 257.737652 160.123437" stroke="gray" fill="white" stroke-width="1px"></path><path d="M 263.737652 160.123437 L 263.737652 157.623437 L 257.737652 157.623437 L 257.737652 160.123437 L 263.737652 160.123437" stroke="gray" fill="white" stroke-width="1px"></path><path d="M 269.737652 160.123437 L 269.737652 157.623437 L 263.737652 157.623437 L 263.737652 160.123437 L 269.737652 160.123437" stroke="gray" fill="white" stroke-width="1px"></path><path d="M 251.737652 148.123437 L 251.737652 145.623437 L 245.737652 145.623437 L 245.737652 148.123437 L 251.737652 148.123437" stroke="gray" fill="white" stroke-width="1px"></path><path d="M 257.737652 148.123437 L 257.737652 145.623437 L 251.737652 145.623437 L 251.737652 148.123437 L 257.737652 148.123437" stroke="gray" fill="white" stroke-width="1px"></path><path d="M 263.737652 148.123437 L 263.737652 145.623437 L 257.737652 145.623437 L 257.737652 148.123437 L 263.737652 148.123437" stroke="gray" fill="white" stroke-width="1px"></path><path d="M 269.737652 148.123437 L 269.737652 145.623437 L 263.737652 145.623437 L 263.737652 148.123437 L 269.737652 148.123437" stroke="gray" fill="white" stroke-width="1px"></path><path d="M 275.737652 148.123437 L 275.737652 145.623437 L 269.737652 145.623437 L 269.737652 148.123437 L 275.737652 148.123437" stroke="gray" fill="white" stroke-width="1px"></path><path d="M 22.000000 172.123437 L 22.000000 174.623437 L 16.000000 174.623437 L 16.000000 172.123437 L 22.000000 172.123437" stroke="gray" fill="white" stroke-width="1px"></path><path d="M 28.000000 172.123437 L 28.000000 174.623437 L 22.000000 174.623437 L 22.000000 172.123437 L 28.000000 172.123437" stroke="gray" fill="white" stroke-width="1px"></path><path d="M 22.000000 160.123437 L 22.000000 162.623437 L 16.000000 162.623437 L 16.000000 160.123437 L 22.000000 160.123437" stroke="gray" fill="white" stroke-width="1px"></path><path d="M 28.000000 160.123437 L 28.000000 162.623437 L 22.000000 162.623437 L 22.000000 160.123437 L 28.000000 160.123437" stroke="gray" fill="white" stroke-width="1px"></path><path d="M 34.000000 160.123437 L 34.000000 162.623437 L 28.000000 162.623437 L 28.000000 160.123437 L 34.000000 160.123437" stroke="gray" fill="white" stroke-width="1px"></path><path d="M 40.000000 160.123437 L 40.000000 162.623437 L 34.000000 162.623437 L 34.000000 160.123437 L 40.000000 160.123437" stroke="gray" fill="white" stroke-width="1px"></path><path d="M 46.000000 160.123437 L 46.000000 162.623437 L 40.000000 162.623437 L 40.000000 160.123437 L 46.000000 160.123437" stroke="gray" fill="white" stroke-width="1px"></path><path d="M 52.000000 160.123437 L 52.000000 162.623437 L 46.000000 162.623437 L 46.000000 160.123437 L 52.000000 160.123437" stroke="gray" fill="white" stroke-width="1px"></path><path d="M 58.000000 160.123437 L 58.000000 162.623437 L 52.000000 162.623437 L 52.000000 160.123437 L 58.000000 160.123437" stroke="gray" fill="white" stroke-width="1px"></path><path d="M 22.000000 148.123437 L 22.000000 150.623437 L 16.000000 150.623437 L 16.000000 148.123437 L 22.000000 148.123437" stroke="gray" fill="white" stroke-width="1px"></path><path d="M 28.000000 148.123437 L 28.000000 150.623437 L 22.000000 150.623437 L 22.000000 148.123437 L 28.000000 148.123437" stroke="gray" fill="white" stroke-width="1px"></path><path d="M 34.000000 148.123437 L 34.000000 150.623437 L 28.000000 150.623437 L 28.000000 148.123437 L 34.000000 148.123437" stroke="gray" fill="white" stroke-width="1px"></path><path d="M 40.000000 148.123437 L 40.000000 150.623437 L 34.000000 150.623437 L 34.000000 148.123437 L 40.000000 148.123437" stroke="gray" fill="white" stroke-width="1px"></path><path d="M 46.000000 148.123437 L 46.000000 150.623437 L 40.000000 150.623437 L 40.000000 148.123437 L 46.000000 148.123437" stroke="gray" fill="white" stroke-width="1px"></path><path d="M 52.000000 148.123437 L 52.000000 150.623437 L 46.000000 150.623437 L 46.000000 148.123437 L 52.000000 148.123437" stroke="gray" fill="white" stroke-width="1px"></path><path d="M 58.000000 148.123437 L 58.000000 150.623437 L 52.000000 150.623437 L 52.000000 148.123437 L 58.000000 148.123437" stroke="gray" fill="white" stroke-width="1px"></path><path d="M 250.837474 208.123437 L 250.837474 210.623437 L 244.837474 210.623437 L 244.837474 208.123437 L 250.837474 208.123437" stroke="gray" fill="white" stroke-width="1px"></path><path d="M 256.837474 208.123437 L 256.837474 210.623437 L 250.837474 210.623437 L 250.837474 208.123437 L 256.837474 208.123437" stroke="gray" fill="white" stroke-width="1px"></path><path d="M 262.837474 208.123437 L 262.837474 210.623437 L 256.837474 210.623437 L 256.837474 208.123437 L 262.837474 208.123437" stroke="gray" fill="white" stroke-width="1px"></path><path d="M 268.837474 208.123437 L 268.837474 210.623437 L 262.837474 210.623437 L 262.837474 208.123437 L 268.837474 208.123437" stroke="gray" fill="white" stroke-width="1px"></path><path d="M 274.837474 208.123437 L 274.837474 210.623437 L 268.837474 210.623437 L 268.837474 208.123437 L 274.837474 208.123437" stroke="gray" fill="white" stroke-width="1px"></path><path d="M 251.540256 196.123437 L 251.540256 198.623437 L 245.540256 198.623437 L 245.540256 196.123437 L 251.540256 196.123437" stroke="gray" fill="white" stroke-width="1px"></path><path d="M 257.540256 196.123437 L 257.540256 198.623437 L 251.540256 198.623437 L 251.540256 196.123437 L 257.540256 196.123437" stroke="gray" fill="white" stroke-width="1px"></path><path d="M 263.540256 196.123437 L 263.540256 198.623437 L 257.540256 198.623437 L 257.540256 196.123437 L 263.540256 196.123437" stroke="gray" fill="white" stroke-width="1px"></path><path d="M 269.540256 196.123437 L 269.540256 198.623437 L 263.540256 198.623437 L 263.540256 196.123437 L 269.540256 196.123437" stroke="gray" fill="white" stroke-width="1px"></path><path d="M 275.540256 196.123437 L 275.540256 198.623437 L 269.540256 198.623437 L 269.540256 196.123437 L 275.540256 196.123437" stroke="gray" fill="white" stroke-width="1px"></path><path d="M 251.737652 184.123437 L 251.737652 186.623437 L 245.737652 186.623437 L 245.737652 184.123437 L 251.737652 184.123437" stroke="gray" fill="white" stroke-width="1px"></path><path d="M 257.737652 184.123437 L 257.737652 186.623437 L 251.737652 186.623437 L 251.737652 184.123437 L 257.737652 184.123437" stroke="gray" fill="white" stroke-width="1px"></path><path d="M 263.737652 184.123437 L 263.737652 186.623437 L 257.737652 186.623437 L 257.737652 184.123437 L 263.737652 184.123437" stroke="gray" fill="white" stroke-width="1px"></path><path d="M 269.737652 184.123437 L 269.737652 186.623437 L 263.737652 186.623437 L 263.737652 184.123437 L 269.737652 184.123437" stroke="gray" fill="white" stroke-width="1px"></path><path d="M 275.737652 184.123437 L 275.737652 186.623437 L 269.737652 186.623437 L 269.737652 184.123437 L 275.737652 184.123437" stroke="gray" fill="white" stroke-width="1px"></path><path d="M 262.817421 172.123437 L 262.817421 174.623437 L 256.817421 174.623437 L 256.817421 172.123437 L 262.817421 172.123437" stroke="gray" fill="white" stroke-width="1px"></path><path d="M 268.817421 172.123437 L 268.817421 174.623437 L 262.817421 174.623437 L 262.817421 172.123437 L 268.817421 172.123437" stroke="gray" fill="white" stroke-width="1px"></path><path d="M 274.817421 172.123437 L 274.817421 174.623437 L 268.817421 174.623437 L 268.817421 172.123437 L 274.817421 172.123437" stroke="gray" fill="white" stroke-width="1px"></path><path d="M 251.737652 160.123437 L 251.737652 162.623437 L 245.737652 162.623437 L 245.737652 160.123437 L 251.737652 160.123437" stroke="gray" fill="white" stroke-width="1px"></path><path d="M 257.737652 160.123437 L 257.737652 162.623437 L 251.737652 162.623437 L 251.737652 160.123437 L 257.737652 160.123437" stroke="gray" fill="white" stroke-width="1px"></path><path d="M 263.737652 160.123437 L 263.737652 162.623437 L 257.737652 162.623437 L 257.737652 160.123437 L 263.737652 160.123437" stroke="gray" fill="white" stroke-width="1px"></path><path d="M 269.737652 160.123437 L 269.737652 162.623437 L 263.737652 162.623437 L 263.737652 160.123437 L 269.737652 160.123437" stroke="gray" fill="white" stroke-width="1px"></path><path d="M 251.737652 148.123437 L 251.737652 150.623437 L 245.737652 150.623437 L 245.737652 148.123437 L 251.737652 148.123437" stroke="gray" fill="white" stroke-width="1px"></path><path d="M 257.737652 148.123437 L 257.737652 150.623437 L 251.737652 150.623437 L 251.737652 148.123437 L 257.737652 148.123437" stroke="gray" fill="white" stroke-width="1px"></path><path d="M 263.737652 148.123437 L 263.737652 150.623437 L 257.737652 150.623437 L 257.737652 148.123437 L 263.737652 148.123437" stroke="gray" fill="white" stroke-width="1px"></path><path d="M 269.737652 148.123437 L 269.737652 150.623437 L 263.737652 150.623437 L 263.737652 148.123437 L 269.737652 148.123437" stroke="gray" fill="white" stroke-width="1px"></path><path d="M 275.737652 148.123437 L 275.737652 150.623437 L 269.737652 150.623437 L 269.737652 148.123437 L 275.737652 148.123437" stroke="gray" fill="white" stroke-width="1px"></path><path d="M 271.459383 41.410084 L 268.959383 41.410084 L 268.959383 47.410084 L 271.459383 47.410084 L 271.459383 41.410084" stroke="gray" fill="white" stroke-width="1px"></path><path d="M 271.459383 35.410084 L 268.959383 35.410084 L 268.959383 41.410084 L 271.459383 41.410084 L 271.459383 35.410084" stroke="gray" fill="white" stroke-width="1px"></path><path d="M 271.459383 29.410084 L 268.959383 29.410084 L 268.959383 35.410084 L 271.459383 35.410084 L 271.459383 29.410084" stroke="gray" fill="white" stroke-width="1px"></path><path d="M 271.459383 23.410084 L 268.959383 23.410084 L 268.959383 29.410084 L 271.459383 29.410084 L 271.459383 23.410084" stroke="gray" fill="white" stroke-width="1px"></path><path d="M 271.459383 17.410084 L 268.959383 17.410084 L 268.959383 23.410084 L 271.459383 23.410084 L 271.459383 17.410084" stroke="gray" fill="white" stroke-width="1px"></path><path d="M 259.459383 33.042325 L 256.959383 33.042325 L 256.959383 39.042325 L 259.459383 39.042325 L 259.459383 33.042325" stroke="gray" fill="white" stroke-width="1px"></path><path d="M 259.459383 27.042325 L 256.959383 27.042325 L 256.959383 33.042325 L 259.459383 33.042325 L 259.459383 27.042325" stroke="gray" fill="white" stroke-width="1px"></path><path d="M 259.459383 21.042325 L 256.959383 21.042325 L 256.959383 27.042325 L 259.459383 27.042325 L 259.459383 21.042325" stroke="gray" fill="white" stroke-width="1px"></path><path d="M 259.459383 15.042325 L 256.959383 15.042325 L 256.959383 21.042325 L 259.459383 21.042325 L 259.459383 15.042325" stroke="gray" fill="white" stroke-width="1px"></path><path d="M 247.459383 23.732919 L 244.959383 23.732919 L 244.959383 29.732919 L 247.459383 29.732919 L 247.459383 23.732919" stroke="gray" fill="white" stroke-width="1px"></path><path d="M 247.459383 17.732919 L 244.959383 17.732919 L 244.959383 23.732919 L 247.459383 23.732919 L 247.459383 17.732919" stroke="gray" fill="white" stroke-width="1px"></path><path d="M 235.459383 19.870741 L 232.959383 19.870741 L 232.959383 25.870741 L 235.459383 25.870741 L 235.459383 19.870741" stroke="gray" fill="white" stroke-width="1px"></path><path d="M 235.459383 13.870741 L 232.959383 13.870741 L 232.959383 19.870741 L 235.459383 19.870741 L 235.459383 13.870741" stroke="gray" fill="white" stroke-width="1px"></path><path d="M 211.459383 101.033125 L 208.959383 101.033125 L 208.959383 107.033125 L 211.459383 107.033125 L 211.459383 101.033125" stroke="gray" fill="white" stroke-width="1px"></path><path d="M 211.459383 95.033125 L 208.959383 95.033125 L 208.959383 101.033125 L 211.459383 101.033125 L 211.459383 95.033125" stroke="gray" fill="white" stroke-width="1px"></path><path d="M 211.459383 89.033125 L 208.959383 89.033125 L 208.959383 95.033125 L 211.459383 95.033125 L 211.459383 89.033125" stroke="gray" fill="white" stroke-width="1px"></path><path d="M 211.459383 83.033125 L 208.959383 83.033125 L 208.959383 89.033125 L 211.459383 89.033125 L 211.459383 83.033125" stroke="gray" fill="white" stroke-width="1px"></path><path d="M 199.459383 101.033125 L 196.959383 101.033125 L 196.959383 107.033125 L 199.459383 107.033125 L 199.459383 101.033125" stroke="gray" fill="white" stroke-width="1px"></path><path d="M 199.459383 95.033125 L 196.959383 95.033125 L 196.959383 101.033125 L 199.459383 101.033125 L 199.459383 95.033125" stroke="gray" fill="white" stroke-width="1px"></path><path d="M 199.459383 89.033125 L 196.959383 89.033125 L 196.959383 95.033125 L 199.459383 95.033125 L 199.459383 89.033125" stroke="gray" fill="white" stroke-width="1px"></path><path d="M 199.459383 83.033125 L 196.959383 83.033125 L 196.959383 89.033125 L 199.459383 89.033125 L 199.459383 83.033125" stroke="gray" fill="white" stroke-width="1px"></path><path d="M 163.459383 101.033125 L 160.959383 101.033125 L 160.959383 107.033125 L 163.459383 107.033125 L 163.459383 101.033125" stroke="gray" fill="white" stroke-width="1px"></path><path d="M 151.459383 101.033125 L 148.959383 101.033125 L 148.959383 107.033125 L 151.459383 107.033125 L 151.459383 101.033125" stroke="gray" fill="white" stroke-width="1px"></path><path d="M 115.459383 101.033125 L 112.959383 101.033125 L 112.959383 107.033125 L 115.459383 107.033125 L 115.459383 101.033125" stroke="gray" fill="white" stroke-width="1px"></path><path d="M 115.459383 95.033125 L 112.959383 95.033125 L 112.959383 101.033125 L 115.459383 101.033125 L 115.459383 95.033125" stroke="gray" fill="white" stroke-width="1px"></path><path d="M 115.459383 89.033125 L 112.959383 89.033125 L 112.959383 95.033125 L 115.459383 95.033125 L 115.459383 89.033125" stroke="gray" fill="white" stroke-width="1px"></path><path d="M 115.459383 83.033125 L 112.959383 83.033125 L 112.959383 89.033125 L 115.459383 89.033125 L 115.459383 83.033125" stroke="gray" fill="white" stroke-width="1px"></path><path d="M 103.459383 101.033125 L 100.959383 101.033125 L 100.959383 107.033125 L 103.459383 107.033125 L 103.459383 101.033125" stroke="gray" fill="white" stroke-width="1px"></path><path d="M 103.459383 95.033125 L 100.959383 95.033125 L 100.959383 101.033125 L 103.459383 101.033125 L 103.459383 95.033125" stroke="gray" fill="white" stroke-width="1px"></path><path d="M 103.459383 89.033125 L 100.959383 89.033125 L 100.959383 95.033125 L 103.459383 95.033125 L 103.459383 89.033125" stroke="gray" fill="white" stroke-width="1px"></path><path d="M 103.459383 83.033125 L 100.959383 83.033125 L 100.959383 89.033125 L 103.459383 89.033125 L 103.459383 83.033125" stroke="gray" fill="white" stroke-width="1px"></path><path d="M 31.459383 52.354779 L 28.959383 52.354779 L 28.959383 58.354779 L 31.459383 58.354779 L 31.459383 52.354779" stroke="gray" fill="white" stroke-width="1px"></path><path d="M 31.459383 46.354779 L 28.959383 46.354779 L 28.959383 52.354779 L 31.459383 52.354779 L 31.459383 46.354779" stroke="gray" fill="white" stroke-width="1px"></path><path d="M 31.459383 40.354779 L 28.959383 40.354779 L 28.959383 46.354779 L 31.459383 46.354779 L 31.459383 40.354779" stroke="gray" fill="white" stroke-width="1px"></path><path d="M 31.459383 34.354779 L 28.959383 34.354779 L 28.959383 40.354779 L 31.459383 40.354779 L 31.459383 34.354779" stroke="gray" fill="white" stroke-width="1px"></path><path d="M 31.459383 28.354779 L 28.959383 28.354779 L 28.959383 34.354779 L 31.459383 34.354779 L 31.459383 28.354779" stroke="gray" fill="white" stroke-width="1px"></path><path d="M 31.459383 22.354779 L 28.959383 22.354779 L 28.959383 28.354779 L 31.459383 28.354779 L 31.459383 22.354779" stroke="gray" fill="white" stroke-width="1px"></path><path d="M 31.459383 16.354779 L 28.959383 16.354779 L 28.959383 22.354779 L 31.459383 22.354779 L 31.459383 16.354779" stroke="gray" fill="white" stroke-width="1px"></path><path d="M 19.459383 54.747631 L 16.959383 54.747631 L 16.959383 60.747631 L 19.459383 60.747631 L 19.459383 54.747631" stroke="gray" fill="white" stroke-width="1px"></path><path d="M 19.459383 48.747631 L 16.959383 48.747631 L 16.959383 54.747631 L 19.459383 54.747631 L 19.459383 48.747631" stroke="gray" fill="white" stroke-width="1px"></path><path d="M 19.459383 42.747631 L 16.959383 42.747631 L 16.959383 48.747631 L 19.459383 48.747631 L 19.459383 42.747631" stroke="gray" fill="white" stroke-width="1px"></path><path d="M 19.459383 36.747631 L 16.959383 36.747631 L 16.959383 42.747631 L 19.459383 42.747631 L 19.459383 36.747631" stroke="gray" fill="white" stroke-width="1px"></path><path d="M 19.459383 30.747631 L 16.959383 30.747631 L 16.959383 36.747631 L 19.459383 36.747631 L 19.459383 30.747631" stroke="gray" fill="white" stroke-width="1px"></path><path d="M 19.459383 24.747631 L 16.959383 24.747631 L 16.959383 30.747631 L 19.459383 30.747631 L 19.459383 24.747631" stroke="gray" fill="white" stroke-width="1px"></path><path d="M 19.459383 18.747631 L 16.959383 18.747631 L 16.959383 24.747631 L 19.459383 24.747631 L 19.459383 18.747631" stroke="gray" fill="white" stroke-width="1px"></path><path d="M 19.459383 12.747631 L 16.959383 12.747631 L 16.959383 18.747631 L 19.459383 18.747631 L 19.459383 12.747631" stroke="gray" fill="white" stroke-width="1px"></path><path d="M 271.459383 41.410084 L 273.959383 41.410084 L 273.959383 47.410084 L 271.459383 47.410084 L 271.459383 41.410084" stroke="gray" fill="white" stroke-width="1px"></path><path d="M 271.459383 35.410084 L 273.959383 35.410084 L 273.959383 41.410084 L 271.459383 41.410084 L 271.459383 35.410084" stroke="gray" fill="white" stroke-width="1px"></path><path d="M 271.459383 29.410084 L 273.959383 29.410084 L 273.959383 35.410084 L 271.459383 35.410084 L 271.459383 29.410084" stroke="gray" fill="white" stroke-width="1px"></path><path d="M 271.459383 23.410084 L 273.959383 23.410084 L 273.959383 29.410084 L 271.459383 29.410084 L 271.459383 23.410084" stroke="gray" fill="white" stroke-width="1px"></path><path d="M 271.459383 17.410084 L 273.959383 17.410084 L 273.959383 23.410084 L 271.459383 23.410084 L 271.459383 17.410084" stroke="gray" fill="white" stroke-width="1px"></path><path d="M 259.459383 33.042325 L 261.959383 33.042325 L 261.959383 39.042325 L 259.459383 39.042325 L 259.459383 33.042325" stroke="gray" fill="white" stroke-width="1px"></path><path d="M 259.459383 27.042325 L 261.959383 27.042325 L 261.959383 33.042325 L 259.459383 33.042325 L 259.459383 27.042325" stroke="gray" fill="white" stroke-width="1px"></path><path d="M 259.459383 21.042325 L 261.959383 21.042325 L 261.959383 27.042325 L 259.459383 27.042325 L 259.459383 21.042325" stroke="gray" fill="white" stroke-width="1px"></path><path d="M 259.459383 15.042325 L 261.959383 15.042325 L 261.959383 21.042325 L 259.459383 21.042325 L 259.459383 15.042325" stroke="gray" fill="white" stroke-width="1px"></path><path d="M 247.459383 23.732919 L 249.959383 23.732919 L 249.959383 29.732919 L 247.459383 29.732919 L 247.459383 23.732919" stroke="gray" fill="white" stroke-width="1px"></path><path d="M 247.459383 17.732919 L 249.959383 17.732919 L 249.959383 23.732919 L 247.459383 23.732919 L 247.459383 17.732919" stroke="gray" fill="white" stroke-width="1px"></path><path d="M 235.459383 19.870741 L 237.959383 19.870741 L 237.959383 25.870741 L 235.459383 25.870741 L 235.459383 19.870741" stroke="gray" fill="white" stroke-width="1px"></path><path d="M 235.459383 13.870741 L 237.959383 13.870741 L 237.959383 19.870741 L 235.459383 19.870741 L 235.459383 13.870741" stroke="gray" fill="white" stroke-width="1px"></path><path d="M 211.459383 101.033125 L 213.959383 101.033125 L 213.959383 107.033125 L 211.459383 107.033125 L 211.459383 101.033125" stroke="gray" fill="white" stroke-width="1px"></path><path d="M 211.459383 95.033125 L 213.959383 95.033125 L 213.959383 101.033125 L 211.459383 101.033125 L 211.459383 95.033125" stroke="gray" fill="white" stroke-width="1px"></path><path d="M 211.459383 89.033125 L 213.959383 89.033125 L 213.959383 95.033125 L 211.459383 95.033125 L 211.459383 89.033125" stroke="gray" fill="white" stroke-width="1px"></path><path d="M 211.459383 83.033125 L 213.959383 83.033125 L 213.959383 89.033125 L 211.459383 89.033125 L 211.459383 83.033125" stroke="gray" fill="white" stroke-width="1px"></path><path d="M 199.459383 101.033125 L 201.959383 101.033125 L 201.959383 107.033125 L 199.459383 107.033125 L 199.459383 101.033125" stroke="gray" fill="white" stroke-width="1px"></path><path d="M 199.459383 95.033125 L 201.959383 95.033125 L 201.959383 101.033125 L 199.459383 101.033125 L 199.459383 95.033125" stroke="gray" fill="white" stroke-width="1px"></path><path d="M 199.459383 89.033125 L 201.959383 89.033125 L 201.959383 95.033125 L 199.459383 95.033125 L 199.459383 89.033125" stroke="gray" fill="white" stroke-width="1px"></path><path d="M 199.459383 83.033125 L 201.959383 83.033125 L 201.959383 89.033125 L 199.459383 89.033125 L 199.459383 83.033125" stroke="gray" fill="white" stroke-width="1px"></path><path d="M 163.459383 101.033125 L 165.959383 101.033125 L 165.959383 107.033125 L 163.459383 107.033125 L 163.459383 101.033125" stroke="gray" fill="white" stroke-width="1px"></path><path d="M 151.459383 101.033125 L 153.959383 101.033125 L 153.959383 107.033125 L 151.459383 107.033125 L 151.459383 101.033125" stroke="gray" fill="white" stroke-width="1px"></path><path d="M 115.459383 101.033125 L 117.959383 101.033125 L 117.959383 107.033125 L 115.459383 107.033125 L 115.459383 101.033125" stroke="gray" fill="white" stroke-width="1px"></path><path d="M 115.459383 95.033125 L 117.959383 95.033125 L 117.959383 101.033125 L 115.459383 101.033125 L 115.459383 95.033125" stroke="gray" fill="white" stroke-width="1px"></path><path d="M 115.459383 89.033125 L 117.959383 89.033125 L 117.959383 95.033125 L 115.459383 95.033125 L 115.459383 89.033125" stroke="gray" fill="white" stroke-width="1px"></path><path d="M 115.459383 83.033125 L 117.959383 83.033125 L 117.959383 89.033125 L 115.459383 89.033125 L 115.459383 83.033125" stroke="gray" fill="white" stroke-width="1px"></path><path d="M 103.459383 101.033125 L 105.959383 101.033125 L 105.959383 107.033125 L 103.459383 107.033125 L 103.459383 101.033125" stroke="gray" fill="white" stroke-width="1px"></path><path d="M 103.459383 95.033125 L 105.959383 95.033125 L 105.959383 101.033125 L 103.459383 101.033125 L 103.459383 95.033125" stroke="gray" fill="white" stroke-width="1px"></path><path d="M 103.459383 89.033125 L 105.959383 89.033125 L 105.959383 95.033125 L 103.459383 95.033125 L 103.459383 89.033125" stroke="gray" fill="white" stroke-width="1px"></path><path d="M 103.459383 83.033125 L 105.959383 83.033125 L 105.959383 89.033125 L 103.459383 89.033125 L 103.459383 83.033125" stroke="gray" fill="white" stroke-width="1px"></path><path d="M 31.459383 52.354779 L 33.959383 52.354779 L 33.959383 58.354779 L 31.459383 58.354779 L 31.459383 52.354779" stroke="gray" fill="white" stroke-width="1px"></path><path d="M 31.459383 46.354779 L 33.959383 46.354779 L 33.959383 52.354779 L 31.459383 52.354779 L 31.459383 46.354779" stroke="gray" fill="white" stroke-width="1px"></path><path d="M 31.459383 40.354779 L 33.959383 40.354779 L 33.959383 46.354779 L 31.459383 46.354779 L 31.459383 40.354779" stroke="gray" fill="white" stroke-width="1px"></path><path d="M 31.459383 34.354779 L 33.959383 34.354779 L 33.959383 40.354779 L 31.459383 40.354779 L 31.459383 34.354779" stroke="gray" fill="white" stroke-width="1px"></path><path d="M 31.459383 28.354779 L 33.959383 28.354779 L 33.959383 34.354779 L 31.459383 34.354779 L 31.459383 28.354779" stroke="gray" fill="white" stroke-width="1px"></path><path d="M 31.459383 22.354779 L 33.959383 22.354779 L 33.959383 28.354779 L 31.459383 28.354779 L 31.459383 22.354779" stroke="gray" fill="white" stroke-width="1px"></path><path d="M 31.459383 16.354779 L 33.959383 16.354779 L 33.959383 22.354779 L 31.459383 22.354779 L 31.459383 16.354779" stroke="gray" fill="white" stroke-width="1px"></path><path d="M 19.459383 54.747631 L 21.959383 54.747631 L 21.959383 60.747631 L 19.459383 60.747631 L 19.459383 54.747631" stroke="gray" fill="white" stroke-width="1px"></path><path d="M 19.459383 48.747631 L 21.959383 48.747631 L 21.959383 54.747631 L 19.459383 54.747631 L 19.459383 48.747631" stroke="gray" fill="white" stroke-width="1px"></path><path d="M 19.459383 42.747631 L 21.959383 42.747631 L 21.959383 48.747631 L 19.459383 48.747631 L 19.459383 42.747631" stroke="gray" fill="white" stroke-width="1px"></path><path d="M 19.459383 36.747631 L 21.959383 36.747631 L 21.959383 42.747631 L 19.459383 42.747631 L 19.459383 36.747631" stroke="gray" fill="white" stroke-width="1px"></path><path d="M 19.459383 30.747631 L 21.959383 30.747631 L 21.959383 36.747631 L 19.459383 36.747631 L 19.459383 30.747631" stroke="gray" fill="white" stroke-width="1px"></path><path d="M 19.459383 24.747631 L 21.959383 24.747631 L 21.959383 30.747631 L 19.459383 30.747631 L 19.459383 24.747631" stroke="gray" fill="white" stroke-width="1px"></path><path d="M 19.459383 18.747631 L 21.959383 18.747631 L 21.959383 24.747631 L 19.459383 24.747631 L 19.459383 18.747631" stroke="gray" fill="white" stroke-width="1px"></path><path d="M 19.459383 12.747631 L 21.959383 12.747631 L 21.959383 18.747631 L 19.459383 18.747631 L 19.459383 12.747631" stroke="gray" fill="white" stroke-width="1px"></path><path d="M 267.900326 101.263579 L 267.900326 98.763579 L 261.900326 98.763579 L 261.900326 101.263579 L 267.900326 101.263579" stroke="gray" fill="white" stroke-width="1px"></path><path d="M 273.900326 101.263579 L 273.900326 98.763579 L 267.900326 98.763579 L 267.900326 101.263579 L 273.900326 101.263579" stroke="gray" fill="white" stroke-width="1px"></path><path d="M 267.036535 89.263579 L 267.036535 86.763579 L 261.036535 86.763579 L 261.036535 89.263579 L 267.036535 89.263579" stroke="gray" fill="white" stroke-width="1px"></path><path d="M 273.036535 89.263579 L 273.036535 86.763579 L 267.036535 86.763579 L 267.036535 89.263579 L 273.036535 89.263579" stroke="gray" fill="white" stroke-width="1px"></path><path d="M 279.036535 89.263579 L 279.036535 86.763579 L 273.036535 86.763579 L 273.036535 89.263579 L 279.036535 89.263579" stroke="gray" fill="white" stroke-width="1px"></path><path d="M 266.172745 77.263579 L 266.172745 74.763579 L 260.172745 74.763579 L 260.172745 77.263579 L 266.172745 77.263579" stroke="gray" fill="white" stroke-width="1px"></path><path d="M 272.172745 77.263579 L 272.172745 74.763579 L 266.172745 74.763579 L 266.172745 77.263579 L 272.172745 77.263579" stroke="gray" fill="white" stroke-width="1px"></path><path d="M 278.172745 77.263579 L 278.172745 74.763579 L 272.172745 74.763579 L 272.172745 77.263579 L 278.172745 77.263579" stroke="gray" fill="white" stroke-width="1px"></path><path d="M 228.599375 101.263579 L 228.599375 98.763579 L 222.599375 98.763579 L 222.599375 101.263579 L 228.599375 101.263579" stroke="gray" fill="white" stroke-width="1px"></path><path d="M 234.599375 101.263579 L 234.599375 98.763579 L 228.599375 98.763579 L 228.599375 101.263579 L 234.599375 101.263579" stroke="gray" fill="white" stroke-width="1px"></path><path d="M 230.074976 89.263579 L 230.074976 86.763579 L 224.074976 86.763579 L 224.074976 89.263579 L 230.074976 89.263579" stroke="gray" fill="white" stroke-width="1px"></path><path d="M 22.000000 101.263579 L 22.000000 98.763579 L 16.000000 98.763579 L 16.000000 101.263579 L 22.000000 101.263579" stroke="gray" fill="white" stroke-width="1px"></path><path d="M 28.000000 101.263579 L 28.000000 98.763579 L 22.000000 98.763579 L 22.000000 101.263579 L 28.000000 101.263579" stroke="gray" fill="white" stroke-width="1px"></path><path d="M 34.000000 101.263579 L 34.000000 98.763579 L 28.000000 98.763579 L 28.000000 101.263579 L 34.000000 101.263579" stroke="gray" fill="white" stroke-width="1px"></path><path d="M 40.000000 101.263579 L 40.000000 98.763579 L 34.000000 98.763579 L 34.000000 101.263579 L 40.000000 101.263579" stroke="gray" fill="white" stroke-width="1px"></path><path d="M 22.000000 89.263579 L 22.000000 86.763579 L 16.000000 86.763579 L 16.000000 89.263579 L 22.000000 89.263579" stroke="gray" fill="white" stroke-width="1px"></path><path d="M 28.000000 89.263579 L 28.000000 86.763579 L 22.000000 86.763579 L 22.000000 89.263579 L 28.000000 89.263579" stroke="gray" fill="white" stroke-width="1px"></path><path d="M 34.000000 89.263579 L 34.000000 86.763579 L 28.000000 86.763579 L 28.000000 89.263579 L 34.000000 89.263579" stroke="gray" fill="white" stroke-width="1px"></path><path d="M 40.000000 89.263579 L 40.000000 86.763579 L 34.000000 86.763579 L 34.000000 89.263579 L 40.000000 89.263579" stroke="gray" fill="white" stroke-width="1px"></path><path d="M 22.000000 77.263579 L 22.000000 74.763579 L 16.000000 74.763579 L 16.000000 77.263579 L 22.000000 77.263579" stroke="gray" fill="white" stroke-width="1px"></path><path d="M 28.000000 77.263579 L 28.000000 74.763579 L 22.000000 74.763579 L 22.000000 77.263579 L 28.000000 77.263579" stroke="gray" fill="white" stroke-width="1px"></path><path d="M 34.000000 77.263579 L 34.000000 74.763579 L 28.000000 74.763579 L 28.000000 77.263579 L 34.000000 77.263579" stroke="gray" fill="white" stroke-width="1px"></path><path d="M 40.000000 77.263579 L 40.000000 74.763579 L 34.000000 74.763579 L 34.000000 77.263579 L 40.000000 77.263579" stroke="gray" fill="white" stroke-width="1px"></path><path d="M 28.000000 65.263579 L 28.000000 62.763579 L 22.000000 62.763579 L 22.000000 65.263579 L 28.000000 65.263579" stroke="gray" fill="white" stroke-width="1px"></path><path d="M 34.000000 65.263579 L 34.000000 62.763579 L 28.000000 62.763579 L 28.000000 65.263579 L 34.000000 65.263579" stroke="gray" fill="white" stroke-width="1px"></path><path d="M 40.000000 65.263579 L 40.000000 62.763579 L 34.000000 62.763579 L 34.000000 65.263579 L 40.000000 65.263579" stroke="gray" fill="white" stroke-width="1px"></path><path d="M 267.900326 101.263579 L 267.900326 103.763579 L 261.900326 103.763579 L 261.900326 101.263579 L 267.900326 101.263579" stroke="gray" fill="white" stroke-width="1px"></path><path d="M 273.900326 101.263579 L 273.900326 103.763579 L 267.900326 103.763579 L 267.900326 101.263579 L 273.900326 101.263579" stroke="gray" fill="white" stroke-width="1px"></path><path d="M 267.036535 89.263579 L 267.036535 91.763579 L 261.036535 91.763579 L 261.036535 89.263579 L 267.036535 89.263579" stroke="gray" fill="white" stroke-width="1px"></path><path d="M 273.036535 89.263579 L 273.036535 91.763579 L 267.036535 91.763579 L 267.036535 89.263579 L 273.036535 89.263579" stroke="gray" fill="white" stroke-width="1px"></path><path d="M 279.036535 89.263579 L 279.036535 91.763579 L 273.036535 91.763579 L 273.036535 89.263579 L 279.036535 89.263579" stroke="gray" fill="white" stroke-width="1px"></path><path d="M 266.172745 77.263579 L 266.172745 79.763579 L 260.172745 79.763579 L 260.172745 77.263579 L 266.172745 77.263579" stroke="gray" fill="white" stroke-width="1px"></path><path d="M 272.172745 77.263579 L 272.172745 79.763579 L 266.172745 79.763579 L 266.172745 77.263579 L 272.172745 77.263579" stroke="gray" fill="white" stroke-width="1px"></path><path d="M 278.172745 77.263579 L 278.172745 79.763579 L 272.172745 79.763579 L 272.172745 77.263579 L 278.172745 77.263579" stroke="gray" fill="white" stroke-width="1px"></path><path d="M 228.599375 101.263579 L 228.599375 103.763579 L 222.599375 103.763579 L 222.599375 101.263579 L 228.599375 101.263579" stroke="gray" fill="white" stroke-width="1px"></path><path d="M 234.599375 101.263579 L 234.599375 103.763579 L 228.599375 103.763579 L 228.599375 101.263579 L 234.599375 101.263579" stroke="gray" fill="white" stroke-width="1px"></path><path d="M 230.074976 89.263579 L 230.074976 91.763579 L 224.074976 91.763579 L 224.074976 89.263579 L 230.074976 89.263579" stroke="gray" fill="white" stroke-width="1px"></path><path d="M 22.000000 101.263579 L 22.000000 103.763579 L 16.000000 103.763579 L 16.000000 101.263579 L 22.000000 101.263579" stroke="gray" fill="white" stroke-width="1px"></path><path d="M 28.000000 101.263579 L 28.000000 103.763579 L 22.000000 103.763579 L 22.000000 101.263579 L 28.000000 101.263579" stroke="gray" fill="white" stroke-width="1px"></path><path d="M 34.000000 101.263579 L 34.000000 103.763579 L 28.000000 103.763579 L 28.000000 101.263579 L 34.000000 101.263579" stroke="gray" fill="white" stroke-width="1px"></path><path d="M 40.000000 101.263579 L 40.000000 103.763579 L 34.000000 103.763579 L 34.000000 101.263579 L 40.000000 101.263579" stroke="gray" fill="white" stroke-width="1px"></path><path d="M 22.000000 89.263579 L 22.000000 91.763579 L 16.000000 91.763579 L 16.000000 89.263579 L 22.000000 89.263579" stroke="gray" fill="white" stroke-width="1px"></path><path d="M 28.000000 89.263579 L 28.000000 91.763579 L 22.000000 91.763579 L 22.000000 89.263579 L 28.000000 89.263579" stroke="gray" fill="white" stroke-width="1px"></path><path d="M 34.000000 89.263579 L 34.000000 91.763579 L 28.000000 91.763579 L 28.000000 89.263579 L 34.000000 89.263579" stroke="gray" fill="white" stroke-width="1px"></path><path d="M 40.000000 89.263579 L 40.000000 91.763579 L 34.000000 91.763579 L 34.000000 89.263579 L 40.000000 89.263579" stroke="gray" fill="white" stroke-width="1px"></path><path d="M 22.000000 77.263579 L 22.000000 79.763579 L 16.000000 79.763579 L 16.000000 77.263579 L 22.000000 77.263579" stroke="gray" fill="white" stroke-width="1px"></path><path d="M 28.000000 77.263579 L 28.000000 79.763579 L 22.000000 79.763579 L 22.000000 77.263579 L 28.000000 77.263579" stroke="gray" fill="white" stroke-width="1px"></path><path d="M 34.000000 77.263579 L 34.000000 79.763579 L 28.000000 79.763579 L 28.000000 77.263579 L 34.000000 77.263579" stroke="gray" fill="white" stroke-width="1px"></path><path d="M 40.000000 77.263579 L 40.000000 79.763579 L 34.000000 79.763579 L 34.000000 77.263579 L 40.000000 77.263579" stroke="gray" fill="white" stroke-width="1px"></path><path d="M 22.000000 65.263579 L 22.000000 67.763579 L 16.000000 67.763579 L 16.000000 65.263579 L 22.000000 65.263579" stroke="gray" fill="white" stroke-width="1px"></path><path d="M 28.000000 65.263579 L 28.000000 67.763579 L 22.000000 67.763579 L 22.000000 65.263579 L 28.000000 65.263579" stroke="gray" fill="white" stroke-width="1px"></path><path d="M 34.000000 65.263579 L 34.000000 67.763579 L 28.000000 67.763579 L 28.000000 65.263579 L 34.000000 65.263579" stroke="gray" fill="white" stroke-width="1px"></path><path d="M 40.000000 65.263579 L 40.000000 67.763579 L 34.000000 67.763579 L 34.000000 65.263579 L 40.000000 65.263579" stroke="gray" fill="white" stroke-width="1px"></path></g><g id="crv-base"><path d="M 221.371570 123.090312 L 221.371570 169.241094 L 120.000633 169.241094 L 120.000633 156.444206 L 126.051258 156.444206 L 126.051258 128.832500 L 123.590320 128.832500 L 123.590320 125.551250 L 126.051258 125.551250 L 126.051258 123.858132 L 91.315945 123.858125 L 91.315945 134.738750 L 64.258762 134.738750 L 64.258762 123.687497 L 10.000000 123.687497 L 10.000000 226.180625 L 64.258758 226.180625 L 64.258758 192.357500 L 91.315945 192.357500 L 91.315945 220.123437 L 283.459383 220.123437 L 283.459383 123.090312 L 221.371570 123.090312" stroke="black" fill="none" stroke-width="1px"></path><path d="M 221.371570 10.000000 L 221.371570 56.150781 L 120.000633 56.150781 L 120.000633 43.353893 L 126.051258 43.353893 L 126.051258 15.742187 L 123.590320 15.742187 L 123.590320 12.460937 L 126.051258 12.460937 L 126.051258 10.767819 L 91.315945 10.767812 L 91.315945 21.648438 L 64.258762 21.648438 L 64.258762 10.597185 L 10.000000 10.597185 L 10.000000 113.090312 L 64.258758 113.090312 L 64.258758 79.267187 L 91.315945 79.267187 L 91.315945 107.033125 L 283.459383 107.033125 L 283.459383 10.000000 L 221.371570 10.000000" stroke="black" fill="none" stroke-width="1px"></path><path d="M 10.387195 156.559062 L 10.387195 154.590312 L 12.355945 154.590312 L 12.355945 156.559062 L 10.387195 156.559062" stroke="black" fill="white" stroke-width="1px"></path><path d="M 10.387195 43.468750 L 10.387195 41.500000 L 12.355945 41.500000 L 12.355945 43.468750 L 10.387195 43.468750" stroke="black" fill="white" stroke-width="1px"></path><path d="M 10.387195 188.059062 L 10.387195 186.090312 L 12.355945 186.090312 L 12.355945 188.059062 L 10.387195 188.059062" stroke="black" fill="white" stroke-width="1px"></path><path d="M 10.387195 74.968750 L 10.387195 73.000000 L 12.355945 73.000000 L 12.355945 74.968750 L 10.387195 74.968750" stroke="black" fill="white" stroke-width="1px"></path><path d="M 10.387195 219.559062 L 10.387195 217.590312 L 12.355945 217.590312 L 12.355945 219.559062 L 10.387195 219.559062" stroke="black" fill="white" stroke-width="1px"></path><path d="M 10.387195 106.468750 L 10.387195 104.500000 L 12.355945 104.500000 L 12.355945 106.468750 L 10.387195 106.468750" stroke="black" fill="white" stroke-width="1px"></path><path d="M 60.754383 128.340312 L 60.754383 125.387187 L 63.871570 125.387187 L 63.871570 128.340312 L 60.754383 128.340312" stroke="black" fill="white" stroke-width="1px"></path><path d="M 60.754383 15.250000 L 60.754383 12.296875 L 63.871570 12.296875 L 63.871570 15.250000 L 60.754383 15.250000" stroke="black" fill="white" stroke-width="1px"></path><path d="M 280.598133 219.230937 L 280.598133 217.262187 L 282.566883 217.262187 L 282.566883 219.230937 L 280.598133 219.230937" stroke="black" fill="white" stroke-width="1px"></path><path d="M 280.598133 106.140625 L 280.598133 104.171875 L 282.566883 104.171875 L 282.566883 106.140625 L 280.598133 106.140625" stroke="black" fill="white" stroke-width="1px"></path><path d="M 280.598133 188.059062 L 280.598133 186.090312 L 282.566883 186.090312 L 282.566883 188.059062 L 280.598133 188.059062" stroke="black" fill="white" stroke-width="1px"></path><path d="M 280.598133 74.968750 L 280.598133 73.000000 L 282.566883 73.000000 L 282.566883 74.968750 L 280.598133 74.968750" stroke="black" fill="white" stroke-width="1px"></path><path d="M 280.598133 156.559050 L 280.598133 154.590300 L 282.566883 154.590300 L 282.566883 156.559050 L 280.598133 156.559050" stroke="black" fill="white" stroke-width="1px"></path><path d="M 280.598133 43.468737 L 280.598133 41.499987 L 282.566883 41.499987 L 282.566883 43.468737 L 280.598133 43.468737" stroke="black" fill="white" stroke-width="1px"></path><path d="M 248.605945 127.355937 L 248.605945 123.418437 L 251.887195 123.418437 L 251.887195 127.355937 L 248.605945 127.355937" stroke="black" fill="white" stroke-width="1px"></path><path d="M 248.605945 14.265625 L 248.605945 10.328125 L 251.887195 10.328125 L 251.887195 14.265625 L 248.605945 14.265625" stroke="black" fill="white" stroke-width="1px"></path><path d="M 248.605945 157.871562 L 248.605945 153.934062 L 251.887195 153.934062 L 251.887195 157.871562 L 248.605945 157.871562" stroke="black" fill="white" stroke-width="1px"></path><path d="M 248.605945 44.781250 L 248.605945 40.843750 L 251.887195 40.843750 L 251.887195 44.781250 L 248.605945 44.781250" stroke="black" fill="white" stroke-width="1px"></path><path d="M 248.605945 189.043437 L 248.605945 185.105937 L 251.887195 185.105937 L 251.887195 189.043437 L 248.605945 189.043437" stroke="black" fill="white" stroke-width="1px"></path><path d="M 248.605945 75.953125 L 248.605945 72.015625 L 251.887195 72.015625 L 251.887195 75.953125 L 248.605945 75.953125" stroke="black" fill="white" stroke-width="1px"></path><path d="M 248.934070 219.230937 L 248.934070 216.277812 L 251.887195 216.277812 L 251.887195 219.230937 L 248.934070 219.230937" stroke="black" fill="white" stroke-width="1px"></path><path d="M 248.934070 106.140625 L 248.934070 103.187500 L 251.887195 103.187500 L 251.887195 106.140625 L 248.934070 106.140625" stroke="black" fill="white" stroke-width="1px"></path><path d="M 218.090320 189.043437 L 218.090320 185.105937 L 221.371570 185.105937 L 221.371570 189.043437 L 218.090320 189.043437" stroke="black" fill="white" stroke-width="1px"></path><path d="M 218.090320 75.953125 L 218.090320 72.015625 L 221.371570 72.015625 L 221.371570 75.953125 L 218.090320 75.953125" stroke="black" fill="white" stroke-width="1px"></path><path d="M 218.254383 219.230937 L 218.254383 216.277812 L 221.207508 216.277812 L 221.207508 219.230937 L 218.254383 219.230937" stroke="black" fill="white" stroke-width="1px"></path><path d="M 218.254383 106.140625 L 218.254383 103.187500 L 221.207508 103.187500 L 221.207508 106.140625 L 218.254383 106.140625" stroke="black" fill="white" stroke-width="1px"></path><path d="M 186.590320 189.043437 L 186.590320 185.105937 L 189.871570 185.105937 L 189.871570 189.043437 L 186.590320 189.043437" stroke="black" fill="white" stroke-width="1px"></path><path d="M 186.590320 75.953125 L 186.590320 72.015625 L 189.871570 72.015625 L 189.871570 75.953125 L 186.590320 75.953125" stroke="black" fill="white" stroke-width="1px"></path><path d="M 186.754383 219.230937 L 186.754383 216.277812 L 189.707508 216.277812 L 189.707508 219.230937 L 186.754383 219.230937" stroke="black" fill="white" stroke-width="1px"></path><path d="M 186.754383 106.140625 L 186.754383 103.187500 L 189.707508 103.187500 L 189.707508 106.140625 L 186.754383 106.140625" stroke="black" fill="white" stroke-width="1px"></path><path d="M 155.090320 189.043437 L 155.090320 185.105937 L 158.371570 185.105937 L 158.371570 189.043437 L 155.090320 189.043437" stroke="black" fill="white" stroke-width="1px"></path><path d="M 155.090320 75.953125 L 155.090320 72.015625 L 158.371570 72.015625 L 158.371570 75.953125 L 155.090320 75.953125" stroke="black" fill="white" stroke-width="1px"></path><path d="M 155.254383 219.230937 L 155.254383 216.277812 L 158.207508 216.277812 L 158.207508 219.230937 L 155.254383 219.230937" stroke="black" fill="white" stroke-width="1px"></path><path d="M 155.254383 106.140625 L 155.254383 103.187500 L 158.207508 103.187500 L 158.207508 106.140625 L 155.254383 106.140625" stroke="black" fill="white" stroke-width="1px"></path><path d="M 123.590320 189.043437 L 123.590320 185.105937 L 126.871570 185.105937 L 126.871570 189.043437 L 123.590320 189.043437" stroke="black" fill="white" stroke-width="1px"></path><path d="M 123.590320 75.953125 L 123.590320 72.015625 L 126.871570 72.015625 L 126.871570 75.953125 L 123.590320 75.953125" stroke="black" fill="white" stroke-width="1px"></path><path d="M 123.754383 219.230937 L 123.754383 216.277812 L 126.707508 216.277812 L 126.707508 219.230937 L 123.754383 219.230937" stroke="black" fill="white" stroke-width="1px"></path><path d="M 123.754383 106.140625 L 123.754383 103.187500 L 126.707508 103.187500 L 126.707508 106.140625 L 123.754383 106.140625" stroke="black" fill="white" stroke-width="1px"></path><path d="M 92.090320 157.543437 L 92.090320 153.605937 L 95.371570 153.605937 L 95.371570 157.543437 L 92.090320 157.543437" stroke="black" fill="white" stroke-width="1px"></path><path d="M 92.090320 44.453125 L 92.090320 40.515625 L 95.371570 40.515625 L 95.371570 44.453125 L 92.090320 44.453125" stroke="black" fill="white" stroke-width="1px"></path><path d="M 92.090320 189.043437 L 92.090320 185.105937 L 95.371570 185.105937 L 95.371570 189.043437 L 92.090320 189.043437" stroke="black" fill="white" stroke-width="1px"></path><path d="M 92.090320 75.953125 L 92.090320 72.015625 L 95.371570 72.015625 L 95.371570 75.953125 L 92.090320 75.953125" stroke="black" fill="white" stroke-width="1px"></path><path d="M 92.090320 128.504375 L 92.090320 125.551250 L 95.207508 125.551250 L 95.207508 128.504375 L 92.090320 128.504375" stroke="black" fill="white" stroke-width="1px"></path><path d="M 92.090320 15.414062 L 92.090320 12.460937 L 95.207508 12.460937 L 95.207508 15.414062 L 92.090320 15.414062" stroke="black" fill="white" stroke-width="1px"></path><path d="M 60.590320 157.215312 L 60.590320 153.934062 L 63.871570 153.934062 L 63.871570 157.215312 L 60.590320 157.215312" stroke="black" fill="white" stroke-width="1px"></path><path d="M 60.590320 44.125000 L 60.590320 40.843750 L 63.871570 40.843750 L 63.871570 44.125000 L 60.590320 44.125000" stroke="black" fill="white" stroke-width="1px"></path><path d="M 60.754383 219.230937 L 60.754383 216.277812 L 63.871570 216.277812 L 63.871570 219.230937 L 60.754383 219.230937" stroke="black" fill="white" stroke-width="1px"></path><path d="M 60.754383 106.140625 L 60.754383 103.187500 L 63.871570 103.187500 L 63.871570 106.140625 L 60.754383 106.140625" stroke="black" fill="white" stroke-width="1px"></path><path d="M 30.074695 128.504375 L 30.074695 125.223125 L 33.027820 125.223125 L 33.027820 128.504375 L 30.074695 128.504375" stroke="black" fill="white" stroke-width="1px"></path><path d="M 30.074695 15.414062 L 30.074695 12.132812 L 33.027820 12.132812 L 33.027820 15.414062 L 30.074695 15.414062" stroke="black" fill="white" stroke-width="1px"></path><path d="M 30.074695 157.215312 L 30.074695 153.934062 L 33.355945 153.934062 L 33.355945 157.215312 L 30.074695 157.215312" stroke="black" fill="white" stroke-width="1px"></path><path d="M 30.074695 44.125000 L 30.074695 40.843750 L 33.355945 40.843750 L 33.355945 44.125000 L 30.074695 44.125000" stroke="black" fill="white" stroke-width="1px"></path><path d="M 30.074695 188.715312 L 30.074695 185.434062 L 33.355945 185.434062 L 33.355945 188.715312 L 30.074695 188.715312" stroke="black" fill="white" stroke-width="1px"></path><path d="M 30.074695 75.625000 L 30.074695 72.343750 L 33.355945 72.343750 L 33.355945 75.625000 L 30.074695 75.625000" stroke="black" fill="white" stroke-width="1px"></path><path d="M 30.074695 219.230937 L 30.074695 216.277812 L 33.027820 216.277812 L 33.027820 219.230937 L 30.074695 219.230937" stroke="black" fill="white" stroke-width="1px"></path><path d="M 30.074695 106.140625 L 30.074695 103.187500 L 33.027820 103.187500 L 33.027820 106.140625 L 30.074695 106.140625" stroke="black" fill="white" stroke-width="1px"></path><path d="M 10.387195 127.191875 L 10.387195 125.223125 L 12.355945 125.223125 L 12.355945 127.191875 L 10.387195 127.191875" stroke="black" fill="white" stroke-width="1px"></path><path d="M 10.387195 14.101562 L 10.387195 12.132812 L 12.355945 12.132812 L 12.355945 14.101562 L 10.387195 14.101562" stroke="black" fill="white" stroke-width="1px"></path><path d="M 60.590320 189.863750 L 60.590320 185.434062 L 63.871570 185.434062 L 63.871570 188.715312 L 62.230945 188.715312 L 62.230945 189.863750 L 60.590320 189.863750" stroke="black" fill="white" stroke-width="1px"></path><path d="M 60.590320 76.773437 L 60.590320 72.343750 L 63.871570 72.343750 L 63.871570 75.625000 L 62.230945 75.625000 L 62.230945 76.773437 L 60.590320 76.773437" stroke="black" fill="white" stroke-width="1px"></path></g></svg>