<svg width="293.459383" height="236.180625" xmlns="http://www.w3.org/2000/svg" xmlns:xlink="http://www.w3.org/1999/xlink" version="1.1"><g id="crv-background"><path d="M 221.371570 123.090312 L 221.371570 169.241094 L 120.000633 169.241094 L 120.000633 156.444206 L 126.051258 156.444206 L 126.051258 128.832500 L 123.590320 128.832500 L 123.590320 125.551250 L 126.051258 125.551250 L 126.051258 123.858132 L 91.315945 123.858125 L 91.315945 134.738750 L 64.258762 134.738750 L 64.258762 123.687497 L 10.000000 123.687497 L 10.000000 226.180625 L 64.258758 226.180625 L 64.258758 192.357500 L 91.315945 192.357500 L 91.315945 220.123437 L 283.459383 220.123437 L 283.459383 123.090312 L 221.371570 123.090312" stroke="none" fill="white" stroke-width="1px"></path><path d="M 221.371570 10.000000 L 221.371570 56.150781 L 120.000633 56.150781 L 120.000633 43.353893 L 126.051258 43.353893 L 126.051258 15.742187 L 123.590320 15.742187 L 123.590320 12.460937 L 126.051258 12.460937 L 126.051258 10.767819 L 91.315945 10.767812 L 91.315945 21.648438 L 64.258762 21.648438 L 64.258762 10.597185 L 10.000000 10.597185 L 10.000000 113.090312 L 64.258758 113.090312 L 64.258758 79.267187 L 91.315945 79.267187 L 91.315945 107.033125 L 283.459383 107.033125 L 283.459383 10.000000 L 221.371570 10.000000" stroke="none" fill="white" stroke-width="1px"></path></g><g id="crv-nbhd"><path d="M 221.737654 10.000004 L 221.737654 20.827458 L 221.737654 31.654912 L 229.829469 38.330309 L 237.921284 45.005706 L 260.690334 51.559927 L 283.459383 58.114149 L 283.459383 34.057074 L 283.459382 10.000000 L 252.598525 10.000002 L 221.737654 10.000004" stroke="#DD2222" fill="none" stroke-width="1px"></path><path d="M 283.459383 107.033125 L 283.459383 82.573637 L 283.459383 58.114149 L 260.690334 51.559927 L 237.921284 45.005706 L 241.439943 76.019415 L 244.958601 107.033125 L 264.208992 107.033125 L 283.459383 107.033125" stroke="#DD2222" fill="none" stroke-width="1px"></path><path d="M 221.737654 31.654912 L 221.737654 55.403121 L 221.737654 79.151330 L 214.281805 79.151330 L 206.825956 79.151330 L 209.048816 93.092227 L 211.271675 107.033125 L 228.115138 107.033125 L 244.958601 107.033125 L 241.439943 76.019415 L 237.921284 45.005706 L 229.829469 38.330309 L 221.737654 31.654912" stroke="#DD2222" fill="none" stroke-width="1px"></path><path d="M 206.825956 79.151330 L 189.427470 79.151330 L 172.028983 79.151329 L 168.837151 93.092227 L 165.645319 107.033125 L 188.458497 107.033125 L 211.271675 107.033125 L 209.048816 93.092231 L 206.825956 79.151330" stroke="#DD2222" fill="none" stroke-width="1px"></path><path d="M 172.028983 79.151329 L 156.471486 79.151329 L 140.913989 79.151328 L 141.624814 93.092227 L 142.335639 107.033125 L 153.990479 107.033125 L 165.645319 107.033125 L 168.837150 93.092230 L 172.028983 79.151329" stroke="#DD2222" fill="none" stroke-width="1px"></path><path d="M 140.913989 79.151328 L 116.114967 79.151328 L 91.315945 79.151327 L 91.315945 93.092226 L 91.315945 107.033125 L 116.825792 107.033125 L 142.335639 107.033125 L 141.624814 93.092230 L 140.913989 79.151328" stroke="#DD2222" fill="none" stroke-width="1px"></path><path d="M 64.258758 113.090312 L 64.258758 84.876514 L 64.258758 56.662716 L 37.129379 58.893750 L 10.000000 61.124784 L 10.000000 87.107548 L 10.000000 113.090312 L 37.129372 113.090312 L 64.258758 113.090312" stroke="#DD2222" fill="none" stroke-width="1px"></path><path d="M 10.000000 10.597184 L 10.000000 35.860984 L 10.000000 61.124784 L 37.129379 58.893750 L 64.258758 56.662716 L 64.258758 56.406749 L 64.258758 56.150781 L 64.258758 33.373983 L 64.258758 10.597185 L 37.129379 10.597185 L 10.000000 10.597184" stroke="#DD2222" fill="none" stroke-width="1px"></path><path d="M 10.000000 123.687497 L 10.000000 150.560140 L 10.000000 177.432784 L 37.129379 177.179750 L 64.258758 176.926716 L 64.258758 173.083905 L 64.258758 169.241094 L 64.258758 146.464296 L 64.258758 123.687497 L 37.129385 123.687497 L 10.000000 123.687497" stroke="#DD2222" fill="none" stroke-width="1px"></path><path d="M 10.000000 177.432784 L 10.000000 201.806704 L 10.000000 226.180625 L 37.129379 226.180625 L 64.258758 226.180625 L 64.258758 201.553670 L 64.258758 176.926716 L 37.129385 177.179750 L 10.000000 177.432784" stroke="#DD2222" fill="none" stroke-width="1px"></path><path d="M 137.356126 192.043444 L 114.336036 192.043444 L 91.315945 192.043444 L 91.315945 206.083441 L 91.315945 220.123437 L 115.436267 220.123437 L 139.556589 220.123437 L 138.456358 206.083441 L 137.356126 192.043444" stroke="#DD2222" fill="none" stroke-width="1px"></path><path d="M 184.897196 192.043444 L 161.126661 192.043444 L 137.356126 192.043444 L 138.456358 206.083441 L 139.556589 220.123437 L 164.784463 220.123437 L 190.012337 220.123437 L 187.454767 206.083444 L 184.897196 192.043444" stroke="#DD2222" fill="none" stroke-width="1px"></path><path d="M 226.989900 192.043444 L 205.943548 192.043444 L 184.897196 192.043444 L 187.454766 206.083441 L 190.012337 220.123437 L 206.499960 220.123437 L 222.987583 220.123437 L 224.988741 206.083441 L 226.989900 192.043444" stroke="#DD2222" fill="none" stroke-width="1px"></path><path d="M 283.459383 220.123437 L 283.459383 196.485898 L 283.459383 172.848359 L 261.598517 170.150420 L 239.737652 167.452481 L 239.737652 179.747963 L 239.737652 192.043444 L 233.363776 192.043444 L 226.989900 192.043444 L 224.988741 206.083441 L 222.987583 220.123437 L 253.223483 220.123437 L 283.459383 220.123437" stroke="#DD2222" fill="none" stroke-width="1px"></path><path d="M 239.737652 123.090312 L 239.737652 145.271397 L 239.737652 167.452481 L 261.598517 170.150420 L 283.459383 172.848359 L 283.459383 147.969336 L 283.459383 123.090312 L 261.598564 123.090312 L 239.737652 123.090312" stroke="#DD2222" fill="none" stroke-width="1px"></path></g><g id="crv-amen"><path d="M 62.600521 170.015505 L 62.600521 149.425279 L 62.600521 128.835054 L 55.967576 128.835054 L 49.334631 128.835054 L 49.334631 149.425279 L 49.334631 170.015505 L 55.967576 170.015505 L 62.600521 170.015505" stroke="none" fill="#2288CC" stroke-width="1px"></path><path d="M 58.832882 191.902099 L 58.832882 185.268865 L 58.832882 178.635631 L 37.129379 178.838058 L 15.425876 179.040485 L 15.425876 185.673719 L 15.425876 192.306953 L 37.129379 192.104526 L 58.832882 191.902099" stroke="none" fill="#2288CC" stroke-width="1px"></path><path d="M 124.366661 217.315438 L 131.019942 217.315438 L 137.673222 217.315438 L 136.793037 206.083441 L 135.912853 194.851444 L 129.259572 194.851444 L 122.606292 194.851444 L 123.486477 206.083441 L 124.366661 217.315438" stroke="none" fill="#2288CC" stroke-width="1px"></path><path d="M 152.546054 194.851444 L 145.892773 194.851444 L 139.239493 194.851444 L 140.119678 206.083441 L 140.999863 217.315438 L 147.653143 217.315438 L 154.306424 217.315438 L 153.426239 206.083441 L 152.546054 194.851444" stroke="none" fill="#2288CC" stroke-width="1px"></path><path d="M 208.312854 217.315438 L 215.012837 217.315438 L 221.712819 217.315438 L 223.313746 206.083441 L 224.914672 194.851444 L 218.214690 194.851444 L 211.514707 194.851444 L 209.913780 206.083441 L 208.312854 217.315438" stroke="none" fill="#2288CC" stroke-width="1px"></path><path d="M 238.485895 193.284134 L 238.485895 194.047169 L 238.485895 194.810204 L 233.386794 194.810204 L 228.287694 194.810204 L 226.686767 206.042201 L 225.085841 217.274199 L 231.785823 217.274199 L 238.485806 217.274199 L 240.161449 205.517994 L 241.837092 193.761789 L 240.161494 193.522961 L 238.485895 193.284134" stroke="none" fill="#2288CC" stroke-width="1px"></path><path d="M 279.087210 138.014440 L 279.087210 131.381494 L 279.087210 124.748549 L 261.598517 124.748549 L 244.109825 124.748549 L 244.109825 131.381494 L 244.109825 138.014440 L 261.598517 138.014440 L 279.087210 138.014440" stroke="none" fill="#2288CC" stroke-width="1px"></path><path d="M 238.012934 41.092634 L 240.085062 42.802051 L 242.157191 44.511467 L 260.372430 49.754844 L 278.587670 54.998221 L 278.587670 48.095938 L 278.587670 41.193652 L 259.839281 35.796804 L 241.090892 30.399956 L 239.551913 35.746295 L 238.012934 41.092634" stroke="none" fill="#2288CC" stroke-width="1px"></path><path d="M 254.100218 55.426227 L 247.199345 53.439766 L 240.298473 51.453304 L 243.113400 76.264271 L 245.928326 101.075239 L 252.603825 101.075239 L 259.279324 101.075239 L 256.689771 78.250733 L 254.100218 55.426227" stroke="none" fill="#2288CC" stroke-width="1px"></path><path d="M 229.163562 100.337696 L 235.839060 100.337696 L 242.514559 100.337696 L 239.699632 75.526728 L 236.884705 50.715760 L 233.403350 47.843794 L 229.921996 44.971827 L 226.929898 45.311295 L 223.937801 45.650763 L 223.937801 49.964113 L 223.937801 54.277462 L 226.550681 77.307579 L 229.163562 100.337696" stroke="none" fill="#2288CC" stroke-width="1px"></path><path d="M 195.714452 104.244945 L 202.431186 104.244945 L 209.147920 104.244945 L 207.369632 93.092227 L 205.591345 81.939509 L 198.874611 81.939509 L 192.157877 81.939509 L 193.936164 93.092227 L 195.714452 104.244945" stroke="none" fill="#2288CC" stroke-width="1px"></path><path d="M 165.736607 94.030900 L 167.255250 87.397955 L 168.773893 80.765009 L 156.327896 80.765009 L 143.881898 80.765008 L 144.220102 87.397954 L 144.558305 94.030899 L 155.147456 94.030900 L 165.736607 94.030900" stroke="none" fill="#2288CC" stroke-width="1px"></path><path d="M 136.672986 94.080127 L 136.334783 87.447183 L 135.996579 80.814236 L 116.157362 80.814236 L 96.318144 80.814235 L 96.318144 87.447181 L 96.318144 94.080126 L 116.495565 94.080127 L 136.672986 94.080127" stroke="none" fill="#2288CC" stroke-width="1px"></path><path d="M 49.341391 107.515459 L 55.974336 107.515459 L 62.607282 107.515459 L 62.607282 84.944420 L 62.607282 62.373382 L 55.974337 62.918854 L 49.341391 63.464326 L 49.341391 85.489893 L 49.341391 107.515459" stroke="none" fill="#2288CC" stroke-width="1px"></path><path d="M 49.326568 53.215623 L 55.959515 52.670151 L 62.592459 52.124678 L 62.592459 33.698466 L 62.592459 15.272254 L 55.959514 15.272253 L 49.326568 15.272253 L 49.326568 34.243938 L 49.326568 53.215623" stroke="none" fill="#2288CC" stroke-width="1px"></path></g><g id="crv-desk"><path d="M 31.459383 171.232633 L 28.959383 171.232633 L 28.959383 177.232633 L 31.459383 177.232633 L 31.459383 171.232633" stroke="gray" fill="white" stroke-width="1px"></path><path d="M 31.459383 165.232633 L 28.959383 165.232633 L 28.959383 171.232633 L 31.459383 171.232633 L 31.459383 165.232633" stroke="gray" fill="white" stroke-width="1px"></path><path d="M 31.459383 159.232633 L 28.959383 159.232633 L 28.959383 165.232633 L 31.459383 165.232633 L 31.459383 159.232633" stroke="gray" fill="white" stroke-width="1px"></path><path d="M 31.459383 153.232633 L 28.959383 153.232633 L 28.959383 159.232633 L 31.459383 159.232633 L 31.459383 153.232633" stroke="gray" fill="white" stroke-width="1px"></path><path d="M 31.459383 147.232633 L 28.959383 147.232633 L 28.959383 153.232633 L 31.459383 153.232633 L 31.459383 147.232633" stroke="gray" fill="white" stroke-width="1px"></path><path d="M 31.459383 141.232633 L 28.959383 141.232633 L 28.959383 147.232633 L 31.459383 147.232633 L 31.459383 141.232633" stroke="gray" fill="white" stroke-width="1px"></path><path d="M 31.459383 135.232633 L 28.959383 135.232633 L 28.959383 141.232633 L 31.459383 141.232633 L 31.459383 135.232633" stroke="gray" fill="white" stroke-width="1px"></path><path d="M 31.459383 129.232633 L 28.959383 129.232633 L 28.959383 135.232633 L 31.459383 135.232633 L 31.459383 129.232633" stroke="gray" fill="white" stroke-width="1px"></path><path d="M 19.459383 171.344557 L 16.959383 171.344557 L 16.959383 177.344557 L 19.459383 177.344557 L 19.459383 171.344557" stroke="gray" fill="white" stroke-width="1px"></path><path d="M 19.459383 165.344557 L 16.959383 165.344557 L 16.959383 171.344557 L 19.459383 171.344557 L 19.459383 165.344557" stroke="gray" fill="white" stroke-width="1px"></path><path d="M 19.459383 159.344557 L 16.959383 159.344557 L 16.959383 165.344557 L 19.459383 165.344557 L 19.459383 159.344557" stroke="gray" fill="white" stroke-width="1px"></path><path d="M 19.459383 153.344557 L 16.959383 153.344557 L 16.959383 159.344557 L 19.459383 159.344557 L 19.459383 153.344557" stroke="gray" fill="white" stroke-width="1px"></path><path d="M 19.459383 147.344557 L 16.959383 147.344557 L 16.959383 153.344557 L 19.459383 153.344557 L 19.459383 147.344557" stroke="gray" fill="white" stroke-width="1px"></path><path d="M 19.459383 141.344557 L 16.959383 141.344557 L 16.959383 147.344557 L 19.459383 147.344557 L 19.459383 141.344557" stroke="gray" fill="white" stroke-width="1px"></path><path d="M 19.459383 135.344557 L 16.959383 135.344557 L 16.959383 141.344557 L 19.459383 141.344557 L 19.459383 135.344557" stroke="gray" fill="white" stroke-width="1px"></path><path d="M 19.459383 129.344557 L 16.959383 129.344557 L 16.959383 135.344557 L 19.459383 135.344557 L 19.459383 129.344557" stroke="gray" fill="white" stroke-width="1px"></path><path d="M 55.459383 220.180625 L 52.959383 220.180625 L 52.959383 226.180625 L 55.459383 226.180625 L 55.459383 220.180625" stroke="gray" fill="white" stroke-width="1px"></path><path d="M 55.459383 214.180625 L 52.959383 214.180625 L 52.959383 220.180625 L 55.459383 220.180625 L 55.459383 214.180625" stroke="gray" fill="white" stroke-width="1px"></path><path d="M 55.459383 208.180625 L 52.959383 208.180625 L 52.959383 214.180625 L 55.459383 214.180625 L 55.459383 208.180625" stroke="gray" fill="white" stroke-width="1px"></path><path d="M 55.459383 202.180625 L 52.959383 202.180625 L 52.959383 208.180625 L 55.459383 208.180625 L 55.459383 202.180625" stroke="gray" fill="white" stroke-width="1px"></path><path d="M 43.459383 220.180625 L 40.959383 220.180625 L 40.959383 226.180625 L 43.459383 226.180625 L 43.459383 220.180625" stroke="gray" fill="white" stroke-width="1px"></path><path d="M 43.459383 214.180625 L 40.959383 214.180625 L 40.959383 220.180625 L 43.459383 220.180625 L 43.459383 214.180625" stroke="gray" fill="white" stroke-width="1px"></path><path d="M 43.459383 208.180625 L 40.959383 208.180625 L 40.959383 214.180625 L 43.459383 214.180625 L 43.459383 208.180625" stroke="gray" fill="white" stroke-width="1px"></path><path d="M 43.459383 202.180625 L 40.959383 202.180625 L 40.959383 208.180625 L 43.459383 208.180625 L 43.459383 202.180625" stroke="gray" fill="white" stroke-width="1px"></path><path d="M 31.459383 220.180625 L 28.959383 220.180625 L 28.959383 226.180625 L 31.459383 226.180625 L 31.459383 220.180625" stroke="gray" fill="white" stroke-width="1px"></path><path d="M 31.459383 214.180625 L 28.959383 214.180625 L 28.959383 220.180625 L 31.459383 220.180625 L 31.459383 214.180625" stroke="gray" fill="white" stroke-width="1px"></path><path d="M 31.459383 208.180625 L 28.959383 208.180625 L 28.959383 214.180625 L 31.459383 214.180625 L 31.459383 208.180625" stroke="gray" fill="white" stroke-width="1px"></path><path d="M 31.459383 202.180625 L 28.959383 202.180625 L 28.959383 208.180625 L 31.459383 208.180625 L 31.459383 202.180625" stroke="gray" fill="white" stroke-width="1px"></path><path d="M 19.459383 220.180625 L 16.959383 220.180625 L 16.959383 226.180625 L 19.459383 226.180625 L 19.459383 220.180625" stroke="gray" fill="white" stroke-width="1px"></path><path d="M 19.459383 214.180625 L 16.959383 214.180625 L 16.959383 220.180625 L 19.459383 220.180625 L 19.459383 214.180625" stroke="gray" fill="white" stroke-width="1px"></path><path d="M 19.459383 208.180625 L 16.959383 208.180625 L 16.959383 214.180625 L 19.459383 214.180625 L 19.459383 208.180625" stroke="gray" fill="white" stroke-width="1px"></path><path d="M 19.459383 202.180625 L 16.959383 202.180625 L 16.959383 208.180625 L 19.459383 208.180625 L 19.459383 202.180625" stroke="gray" fill="white" stroke-width="1px"></path><path d="M 115.459383 214.123437 L 112.959383 214.123437 L 112.959383 220.123437 L 115.459383 220.123437 L 115.459383 214.123437" stroke="gray" fill="white" stroke-width="1px"></path><path d="M 115.459383 208.123437 L 112.959383 208.123437 L 112.959383 214.123437 L 115.459383 214.123437 L 115.459383 208.123437" stroke="gray" fill="white" stroke-width="1px"></path><path d="M 115.459383 202.123437 L 112.959383 202.123437 L 112.959383 208.123437 L 115.459383 208.123437 L 115.459383 202.123437" stroke="gray" fill="white" stroke-width="1px"></path><path d="M 115.459383 196.123437 L 112.959383 196.123437 L 112.959383 202.123437 L 115.459383 202.123437 L 115.459383 196.123437" stroke="gray" fill="white" stroke-width="1px"></path><path d="M 103.459383 214.123437 L 100.959383 214.123437 L 100.959383 220.123437 L 103.459383 220.123437 L 103.459383 214.123437" stroke="gray" fill="white" stroke-width="1px"></path><path d="M 103.459383 208.123437 L 100.959383 208.123437 L 100.959383 214.123437 L 103.459383 214.123437 L 103.459383 208.123437" stroke="gray" fill="white" stroke-width="1px"></path><path d="M 103.459383 202.123437 L 100.959383 202.123437 L 100.959383 208.123437 L 103.459383 208.123437 L 103.459383 202.123437" stroke="gray" fill="white" stroke-width="1px"></path><path d="M 103.459383 196.123437 L 100.959383 196.123437 L 100.959383 202.123437 L 103.459383 202.123437 L 103.459383 196.123437" stroke="gray" fill="white" stroke-width="1px"></path><path d="M 175.459383 214.123437 L 172.959383 214.123437 L 172.959383 220.123437 L 175.459383 220.123437 L 175.459383 214.123437" stroke="gray" fill="white" stroke-width="1px"></path><path d="M 175.459383 208.123437 L 172.959383 208.123437 L 172.959383 214.123437 L 175.459383 214.123437 L 175.459383 208.123437" stroke="gray" fill="white" stroke-width="1px"></path><path d="M 175.459383 202.123437 L 172.959383 202.123437 L 172.959383 208.123437 L 175.459383 208.123437 L 175.459383 202.123437" stroke="gray" fill="white" stroke-width="1px"></path><path d="M 175.459383 196.123437 L 172.959383 196.123437 L 172.959383 202.123437 L 175.459383 202.123437 L 175.459383 196.123437" stroke="gray" fill="white" stroke-width="1px"></path><path d="M 163.459383 214.123437 L 160.959383 214.123437 L 160.959383 220.123437 L 163.459383 220.123437 L 163.459383 214.123437" stroke="gray" fill="white" stroke-width="1px"></path><path d="M 163.459383 208.123437 L 160.959383 208.123437 L 160.959383 214.123437 L 163.459383 214.123437 L 163.459383 208.123437" stroke="gray" fill="white" stroke-width="1px"></path><path d="M 163.459383 202.123437 L 160.959383 202.123437 L 160.959383 208.123437 L 163.459383 208.123437 L 163.459383 202.123437" stroke="gray" fill="white" stroke-width="1px"></path><path d="M 163.459383 196.123437 L 160.959383 196.123437 L 160.959383 202.123437 L 163.459383 202.123437 L 163.459383 196.123437" stroke="gray" fill="white" stroke-width="1px"></path><path d="M 199.459383 214.123437 L 196.959383 214.123437 L 196.959383 220.123437 L 199.459383 220.123437 L 199.459383 214.123437" stroke="gray" fill="white" stroke-width="1px"></path><path d="M 199.459383 208.123437 L 196.959383 208.123437 L 196.959383 214.123437 L 199.459383 214.123437 L 199.459383 208.123437" stroke="gray" fill="white" stroke-width="1px"></path><path d="M 199.459383 202.123437 L 196.959383 202.123437 L 196.959383 208.123437 L 199.459383 208.123437 L 199.459383 202.123437" stroke="gray" fill="white" stroke-width="1px"></path><path d="M 199.459383 196.123437 L 196.959383 196.123437 L 196.959383 202.123437 L 199.459383 202.123437 L 199.459383 196.123437" stroke="gray" fill="white" stroke-width="1px"></path><path d="M 271.459383 214.123437 L 268.959383 214.123437 L 268.959383 220.123437 L 271.459383 220.123437 L 271.459383 214.123437" stroke="gray" fill="white" stroke-width="1px"></path><path d="M 271.459383 208.123437 L 268.959383 208.123437 L 268.959383 214.123437 L 271.459383 214.123437 L 271.459383 208.123437" stroke="gray" fill="white" stroke-width="1px"></path><path d="M 271.459383 202.123437 L 268.959383 202.123437 L 268.959383 208.123437 L 271.459383 208.123437 L 271.459383 202.123437" stroke="gray" fill="white" stroke-width="1px"></path><path d="M 271.459383 196.123437 L 268.959383 196.123437 L 268.959383 202.123437 L 271.459383 202.123437 L 271.459383 196.123437" stroke="gray" fill="white" stroke-width="1px"></path><path d="M 271.459383 190.123437 L 268.959383 190.123437 L 268.959383 196.123437 L 271.459383 196.123437 L 271.459383 190.123437" stroke="gray" fill="white" stroke-width="1px"></path><path d="M 271.459383 184.123437 L 268.959383 184.123437 L 268.959383 190.123437 L 271.459383 190.123437 L 271.459383 184.123437" stroke="gray" fill="white" stroke-width="1px"></path><path d="M 271.459383 178.123437 L 268.959383 178.123437 L 268.959383 184.123437 L 271.459383 184.123437 L 271.459383 178.123437" stroke="gray" fill="white" stroke-width="1px"></path><path d="M 259.459383 214.123437 L 256.959383 214.123437 L 256.959383 220.123437 L 259.459383 220.123437 L 259.459383 214.123437" stroke="gray" fill="white" stroke-width="1px"></path><path d="M 259.459383 208.123437 L 256.959383 208.123437 L 256.959383 214.123437 L 259.459383 214.123437 L 259.459383 208.123437" stroke="gray" fill="white" stroke-width="1px"></path><path d="M 259.459383 202.123437 L 256.959383 202.123437 L 256.959383 208.123437 L 259.459383 208.123437 L 259.459383 202.123437" stroke="gray" fill="white" stroke-width="1px"></path><path d="M 259.459383 196.123437 L 256.959383 196.123437 L 256.959383 202.123437 L 259.459383 202.123437 L 259.459383 196.123437" stroke="gray" fill="white" stroke-width="1px"></path><path d="M 259.459383 190.123437 L 256.959383 190.123437 L 256.959383 196.123437 L 259.459383 196.123437 L 259.459383 190.123437" stroke="gray" fill="white" stroke-width="1px"></path><path d="M 259.459383 184.123437 L 256.959383 184.123437 L 256.959383 190.123437 L 259.459383 190.123437 L 259.459383 184.123437" stroke="gray" fill="white" stroke-width="1px"></path><path d="M 259.459383 178.123437 L 256.959383 178.123437 L 256.959383 184.123437 L 259.459383 184.123437 L 259.459383 178.123437" stroke="gray" fill="white" stroke-width="1px"></path><path d="M 259.459383 172.123437 L 256.959383 172.123437 L 256.959383 178.123437 L 259.459383 178.123437 L 259.459383 172.123437" stroke="gray" fill="white" stroke-width="1px"></path><path d="M 247.459383 214.123437 L 244.959383 214.123437 L 244.959383 220.123437 L 247.459383 220.123437 L 247.459383 214.123437" stroke="gray" fill="white" stroke-width="1px"></path><path d="M 247.459383 208.123437 L 244.959383 208.123437 L 244.959383 214.123437 L 247.459383 214.123437 L 247.459383 208.123437" stroke="gray" fill="white" stroke-width="1px"></path><path d="M 247.459383 202.123437 L 244.959383 202.123437 L 244.959383 208.123437 L 247.459383 208.123437 L 247.459383 202.123437" stroke="gray" fill="white" stroke-width="1px"></path><path d="M 247.459383 196.123437 L 244.959383 196.123437 L 244.959383 202.123437 L 247.459383 202.123437 L 247.459383 196.123437" stroke="gray" fill="white" stroke-width="1px"></path><path d="M 247.459383 190.123437 L 244.959383 190.123437 L 244.959383 196.123437 L 247.459383 196.123437 L 247.459383 190.123437" stroke="gray" fill="white" stroke-width="1px"></path><path d="M 247.459383 184.123437 L 244.959383 184.123437 L 244.959383 190.123437 L 247.459383 190.123437 L 247.459383 184.123437" stroke="gray" fill="white" stroke-width="1px"></path><path d="M 247.459383 178.123437 L 244.959383 178.123437 L 244.959383 184.123437 L 247.459383 184.123437 L 247.459383 178.123437" stroke="gray" fill="white" stroke-width="1px"></path><path d="M 247.459383 172.123437 L 244.959383 172.123437 L 244.959383 178.123437 L 247.459383 178.123437 L 247.459383 172.123437" stroke="gray" fill="white" stroke-width="1px"></path><path d="M 31.459383 171.232633 L 33.959383 171.232633 L 33.959383 177.232633 L 31.459383 177.232633 L 31.459383 171.232633" stroke="gray" fill="white" stroke-width="1px"></path><path d="M 31.459383 165.232633 L 33.959383 165.232633 L 33.959383 171.232633 L 31.459383 171.232633 L 31.459383 165.232633" stroke="gray" fill="white" stroke-width="1px"></path><path d="M 31.459383 159.232633 L 33.959383 159.232633 L 33.959383 165.232633 L 31.459383 165.232633 L 31.459383 159.232633" stroke="gray" fill="white" stroke-width="1px"></path><path d="M 31.459383 153.232633 L 33.959383 153.232633 L 33.959383 159.232633 L 31.459383 159.232633 L 31.459383 153.232633" stroke="gray" fill="white" stroke-width="1px"></path><path d="M 31.459383 147.232633 L 33.959383 147.232633 L 33.959383 153.232633 L 31.459383 153.232633 L 31.459383 147.232633" stroke="gray" fill="white" stroke-width="1px"></path><path d="M 31.459383 141.232633 L 33.959383 141.232633 L 33.959383 147.232633 L 31.459383 147.232633 L 31.459383 141.232633" stroke="gray" fill="white" stroke-width="1px"></path><path d="M 31.459383 135.232633 L 33.959383 135.232633 L 33.959383 141.232633 L 31.459383 141.232633 L 31.459383 135.232633" stroke="gray" fill="white" stroke-width="1px"></path><path d="M 31.459383 129.232633 L 33.959383 129.232633 L 33.959383 135.232633 L 31.459383 135.232633 L 31.459383 129.232633" stroke="gray" fill="white" stroke-width="1px"></path><path d="M 19.459383 171.344557 L 21.959383 171.344557 L 21.959383 177.344557 L 19.459383 177.344557 L 19.459383 171.344557" stroke="gray" fill="white" stroke-width="1px"></path><path d="M 19.459383 165.344557 L 21.959383 165.344557 L 21.959383 171.344557 L 19.459383 171.344557 L 19.459383 165.344557" stroke="gray" fill="white" stroke-width="1px"></path><path d="M 19.459383 159.344557 L 21.959383 159.344557 L 21.959383 165.344557 L 19.459383 165.344557 L 19.459383 159.344557" stroke="gray" fill="white" stroke-width="1px"></path><path d="M 19.459383 153.344557 L 21.959383 153.344557 L 21.959383 159.344557 L 19.459383 159.344557 L 19.459383 153.344557" stroke="gray" fill="white" stroke-width="1px"></path><path d="M 19.459383 147.344557 L 21.959383 147.344557 L 21.959383 153.344557 L 19.459383 153.344557 L 19.459383 147.344557" stroke="gray" fill="white" stroke-width="1px"></path><path d="M 19.459383 141.344557 L 21.959383 141.344557 L 21.959383 147.344557 L 19.459383 147.344557 L 19.459383 141.344557" stroke="gray" fill="white" stroke-width="1px"></path><path d="M 19.459383 135.344557 L 21.959383 135.344557 L 21.959383 141.344557 L 19.459383 141.344557 L 19.459383 135.344557" stroke="gray" fill="white" stroke-width="1px"></path><path d="M 19.459383 129.344557 L 21.959383 129.344557 L 21.959383 135.344557 L 19.459383 135.344557 L 19.459383 129.344557" stroke="gray" fill="white" stroke-width="1px"></path><path d="M 55.459383 220.180625 L 57.959383 220.180625 L 57.959383 226.180625 L 55.459383 226.180625 L 55.459383 220.180625" stroke="gray" fill="white" stroke-width="1px"></path><path d="M 55.459383 214.180625 L 57.959383 214.180625 L 57.959383 220.180625 L 55.459383 220.180625 L 55.459383 214.180625" stroke="gray" fill="white" stroke-width="1px"></path><path d="M 55.459383 208.180625 L 57.959383 208.180625 L 57.959383 214.180625 L 55.459383 214.180625 L 55.459383 208.180625" stroke="gray" fill="white" stroke-width="1px"></path><path d="M 55.459383 202.180625 L 57.959383 202.180625 L 57.959383 208.180625 L 55.459383 208.180625 L 55.459383 202.180625" stroke="gray" fill="white" stroke-width="1px"></path><path d="M 43.459383 220.180625 L 45.959383 220.180625 L 45.959383 226.180625 L 43.459383 226.180625 L 43.459383 220.180625" stroke="gray" fill="white" stroke-width="1px"></path><path d="M 43.459383 214.180625 L 45.959383 214.180625 L 45.959383 220.180625 L 43.459383 220.180625 L 43.459383 214.180625" stroke="gray" fill="white" stroke-width="1px"></path><path d="M 43.459383 208.180625 L 45.959383 208.180625 L 45.959383 214.180625 L 43.459383 214.180625 L 43.459383 208.180625" stroke="gray" fill="white" stroke-width="1px"></path><path d="M 43.459383 202.180625 L 45.959383 202.180625 L 45.959383 208.180625 L 43.459383 208.180625 L 43.459383 202.180625" stroke="gray" fill="white" stroke-width="1px"></path><path d="M 31.459383 220.180625 L 33.959383 220.180625 L 33.959383 226.180625 L 31.459383 226.180625 L 31.459383 220.180625" stroke="gray" fill="white" stroke-width="1px"></path><path d="M 31.459383 214.180625 L 33.959383 214.180625 L 33.959383 220.180625 L 31.459383 220.180625 L 31.459383 214.180625" stroke="gray" fill="white" stroke-width="1px"></path><path d="M 31.459383 208.180625 L 33.959383 208.180625 L 33.959383 214.180625 L 31.459383 214.180625 L 31.459383 208.180625" stroke="gray" fill="white" stroke-width="1px"></path><path d="M 31.459383 202.180625 L 33.959383 202.180625 L 33.959383 208.180625 L 31.459383 208.180625 L 31.459383 202.180625" stroke="gray" fill="white" stroke-width="1px"></path><path d="M 19.459383 220.180625 L 21.959383 220.180625 L 21.959383 226.180625 L 19.459383 226.180625 L 19.459383 220.180625" stroke="gray" fill="white" stroke-width="1px"></path><path d="M 19.459383 214.180625 L 21.959383 214.180625 L 21.959383 220.180625 L 19.459383 220.180625 L 19.459383 214.180625" stroke="gray" fill="white" stroke-width="1px"></path><path d="M 19.459383 208.180625 L 21.959383 208.180625 L 21.959383 214.180625 L 19.459383 214.180625 L 19.459383 208.180625" stroke="gray" fill="white" stroke-width="1px"></path><path d="M 19.459383 202.180625 L 21.959383 202.180625 L 21.959383 208.180625 L 19.459383 208.180625 L 19.459383 202.180625" stroke="gray" fill="white" stroke-width="1px"></path><path d="M 115.459383 214.123437 L 117.959383 214.123437 L 117.959383 220.123437 L 115.459383 220.123437 L 115.459383 214.123437" stroke="gray" fill="white" stroke-width="1px"></path><path d="M 115.459383 208.123437 L 117.959383 208.123437 L 117.959383 214.123437 L 115.459383 214.123437 L 115.459383 208.123437" stroke="gray" fill="white" stroke-width="1px"></path><path d="M 115.459383 202.123437 L 117.959383 202.123437 L 117.959383 208.123437 L 115.459383 208.123437 L 115.459383 202.123437" stroke="gray" fill="white" stroke-width="1px"></path><path d="M 115.459383 196.123437 L 117.959383 196.123437 L 117.959383 202.123437 L 115.459383 202.123437 L 115.459383 196.123437" stroke="gray" fill="white" stroke-width="1px"></path><path d="M 103.459383 214.123437 L 105.959383 214.123437 L 105.959383 220.123437 L 103.459383 220.123437 L 103.459383 214.123437" stroke="gray" fill="white" stroke-width="1px"></path><path d="M 103.459383 208.123437 L 105.959383 208.123437 L 105.959383 214.123437 L 103.459383 214.123437 L 103.459383 208.123437" stroke="gray" fill="white" stroke-width="1px"></path><path d="M 103.459383 202.123437 L 105.959383 202.123437 L 105.959383 208.123437 L 103.459383 208.123437 L 103.459383 202.123437" stroke="gray" fill="white" stroke-width="1px"></path><path d="M 103.459383 196.123437 L 105.959383 196.123437 L 105.959383 202.123437 L 103.459383 202.123437 L 103.459383 196.123437" stroke="gray" fill="white" stroke-width="1px"></path><path d="M 175.459383 214.123437 L 177.959383 214.123437 L 177.959383 220.123437 L 175.459383 220.123437 L 175.459383 214.123437" stroke="gray" fill="white" stroke-width="1px"></path><path d="M 175.459383 208.123437 L 177.959383 208.123437 L 177.959383 214.123437 L 175.459383 214.123437 L 175.459383 208.123437" stroke="gray" fill="white" stroke-width="1px"></path><path d="M 175.459383 202.123437 L 177.959383 202.123437 L 177.959383 208.123437 L 175.459383 208.123437 L 175.459383 202.123437" stroke="gray" fill="white" stroke-width="1px"></path><path d="M 175.459383 196.123437 L 177.959383 196.123437 L 177.959383 202.123437 L 175.459383 202.123437 L 175.459383 196.123437" stroke="gray" fill="white" stroke-width="1px"></path><path d="M 163.459383 214.123437 L 165.959383 214.123437 L 165.959383 220.123437 L 163.459383 220.123437 L 163.459383 214.123437" stroke="gray" fill="white" stroke-width="1px"></path><path d="M 163.459383 208.123437 L 165.959383 208.123437 L 165.959383 214.123437 L 163.459383 214.123437 L 163.459383 208.123437" stroke="gray" fill="white" stroke-width="1px"></path><path d="M 163.459383 202.123437 L 165.959383 202.123437 L 165.959383 208.123437 L 163.459383 208.123437 L 163.459383 202.123437" stroke="gray" fill="white" stroke-width="1px"></path><path d="M 163.459383 196.123437 L 165.959383 196.123437 L 165.959383 202.123437 L 163.459383 202.123437 L 163.459383 196.123437" stroke="gray" fill="white" stroke-width="1px"></path><path d="M 199.459383 214.123437 L 201.959383 214.123437 L 201.959383 220.123437 L 199.459383 220.123437 L 199.459383 214.123437" stroke="gray" fill="white" stroke-width="1px"></path><path d="M 199.459383 208.123437 L 201.959383 208.123437 L 201.959383 214.123437 L 199.459383 214.123437 L 199.459383 208.123437" stroke="gray" fill="white" stroke-width="1px"></path><path d="M 199.459383 202.123437 L 201.959383 202.123437 L 201.959383 208.123437 L 199.459383 208.123437 L 199.459383 202.123437" stroke="gray" fill="white" stroke-width="1px"></path><path d="M 199.459383 196.123437 L 201.959383 196.123437 L 201.959383 202.123437 L 199.459383 202.123437 L 199.459383 196.123437" stroke="gray" fill="white" stroke-width="1px"></path><path d="M 187.459383 194.108784 L 189.959383 194.108784 L 189.959383 200.108784 L 187.459383 200.108784 L 187.459383 194.108784" stroke="gray" fill="white" stroke-width="1px"></path><path d="M 271.459383 214.123437 L 273.959383 214.123437 L 273.959383 220.123437 L 271.459383 220.123437 L 271.459383 214.123437" stroke="gray" fill="white" stroke-width="1px"></path><path d="M 271.459383 208.123437 L 273.959383 208.123437 L 273.959383 214.123437 L 271.459383 214.123437 L 271.459383 208.123437" stroke="gray" fill="white" stroke-width="1px"></path><path d="M 271.459383 202.123437 L 273.959383 202.123437 L 273.959383 208.123437 L 271.459383 208.123437 L 271.459383 202.123437" stroke="gray" fill="white" stroke-width="1px"></path><path d="M 271.459383 196.123437 L 273.959383 196.123437 L 273.959383 202.123437 L 271.459383 202.123437 L 271.459383 196.123437" stroke="gray" fill="white" stroke-width="1px"></path><path d="M 271.459383 190.123437 L 273.959383 190.123437 L 273.959383 196.123437 L 271.459383 196.123437 L 271.459383 190.123437" stroke="gray" fill="white" stroke-width="1px"></path><path d="M 271.459383 184.123437 L 273.959383 184.123437 L 273.959383 190.123437 L 271.459383 190.123437 L 271.459383 184.123437" stroke="gray" fill="white" stroke-width="1px"></path><path d="M 271.459383 178.123437 L 273.959383 178.123437 L 273.959383 184.123437 L 271.459383 184.123437 L 271.459383 178.123437" stroke="gray" fill="white" stroke-width="1px"></path><path d="M 259.459383 214.123437 L 261.959383 214.123437 L 261.959383 220.123437 L 259.459383 220.123437 L 259.459383 214.123437" stroke="gray" fill="white" stroke-width="1px"></path><path d="M 259.459383 208.123437 L 261.959383 208.123437 L 261.959383 214.123437 L 259.459383 214.123437 L 259.459383 208.123437" stroke="gray" fill="white" stroke-width="1px"></path><path d="M 259.459383 202.123437 L 261.959383 202.123437 L 261.959383 208.123437 L 259.459383 208.123437 L 259.459383 202.123437" stroke="gray" fill="white" stroke-width="1px"></path><path d="M 259.459383 196.123437 L 261.959383 196.123437 L 261.959383 202.123437 L 259.459383 202.123437 L 259.459383 196.123437" stroke="gray" fill="white" stroke-width="1px"></path><path d="M 259.459383 190.123437 L 261.959383 190.123437 L 261.959383 196.123437 L 259.459383 196.123437 L 259.459383 190.123437" stroke="gray" fill="white" stroke-width="1px"></path><path d="M 259.459383 184.123437 L 261.959383 184.123437 L 261.959383 190.123437 L 259.459383 190.123437 L 259.459383 184.123437" stroke="gray" fill="white" stroke-width="1px"></path><path d="M 259.459383 178.123437 L 261.959383 178.123437 L 261.959383 184.123437 L 259.459383 184.123437 L 259.459383 178.123437" stroke="gray" fill="white" stroke-width="1px"></path><path d="M 259.459383 172.123437 L 261.959383 172.123437 L 261.959383 178.123437 L 259.459383 178.123437 L 259.459383 172.123437" stroke="gray" fill="white" stroke-width="1px"></path><path d="M 247.459383 214.123437 L 249.959383 214.123437 L 249.959383 220.123437 L 247.459383 220.123437 L 247.459383 214.123437" stroke="gray" fill="white" stroke-width="1px"></path><path d="M 247.459383 208.123437 L 249.959383 208.123437 L 249.959383 214.123437 L 247.459383 214.123437 L 247.459383 208.123437" stroke="gray" fill="white" stroke-width="1px"></path><path d="M 247.459383 202.123437 L 249.959383 202.123437 L 249.959383 208.123437 L 247.459383 208.123437 L 247.459383 202.123437" stroke="gray" fill="white" stroke-width="1px"></path><path d="M 247.459383 196.123437 L 249.959383 196.123437 L 249.959383 202.123437 L 247.459383 202.123437 L 247.459383 196.123437" stroke="gray" fill="white" stroke-width="1px"></path><path d="M 247.459383 190.123437 L 249.959383 190.123437 L 249.959383 196.123437 L 247.459383 196.123437 L 247.459383 190.123437" stroke="gray" fill="white" stroke-width="1px"></path><path d="M 247.459383 184.123437 L 249.959383 184.123437 L 249.959383 190.123437 L 247.459383 190.123437 L 247.459383 184.123437" stroke="gray" fill="white" stroke-width="1px"></path><path d="M 247.459383 178.123437 L 249.959383 178.123437 L 249.959383 184.123437 L 247.459383 184.123437 L 247.459383 178.123437" stroke="gray" fill="white" stroke-width="1px"></path><path d="M 247.459383 172.123437 L 249.959383 172.123437 L 249.959383 178.123437 L 247.459383 178.123437 L 247.459383 172.123437" stroke="gray" fill="white" stroke-width="1px"></path><path d="M 251.737652 160.123437 L 251.737652 157.623437 L 245.737652 157.623437 L 245.737652 160.123437 L 251.737652 160.123437" stroke="gray" fill="white" stroke-width="1px"></path><path d="M 257.737652 160.123437 L 257.737652 157.623437 L 251.737652 157.623437 L 251.737652 160.123437 L 257.737652 160.123437" stroke="gray" fill="white" stroke-width="1px"></path><path d="M 263.737652 160.123437 L 263.737652 157.623437 L 257.737652 157.623437 L 257.737652 160.123437 L 263.737652 160.123437" stroke="gray" fill="white" stroke-width="1px"></path><path d="M 269.737652 160.123437 L 269.737652 157.623437 L 263.737652 157.623437 L 263.737652 160.123437 L 269.737652 160.123437" stroke="gray" fill="white" stroke-width="1px"></path><path d="M 275.737652 160.123437 L 275.737652 157.623437 L 269.737652 157.623437 L 269.737652 160.123437 L 275.737652 160.123437" stroke="gray" fill="white" stroke-width="1px"></path><path d="M 251.737652 148.123437 L 251.737652 145.623437 L 245.737652 145.623437 L 245.737652 148.123437 L 251.737652 148.123437" stroke="gray" fill="white" stroke-width="1px"></path><path d="M 257.737652 148.123437 L 257.737652 145.623437 L 251.737652 145.623437 L 251.737652 148.123437 L 257.737652 148.123437" stroke="gray" fill="white" stroke-width="1px"></path><path d="M 263.737652 148.123437 L 263.737652 145.623437 L 257.737652 145.623437 L 257.737652 148.123437 L 263.737652 148.123437" stroke="gray" fill="white" stroke-width="1px"></path><path d="M 269.737652 148.123437 L 269.737652 145.623437 L 263.737652 145.623437 L 263.737652 148.123437 L 269.737652 148.123437" stroke="gray" fill="white" stroke-width="1px"></path><path d="M 275.737652 148.123437 L 275.737652 145.623437 L 269.737652 145.623437 L 269.737652 148.123437 L 275.737652 148.123437" stroke="gray" fill="white" stroke-width="1px"></path><path d="M 251.737652 160.123437 L 251.737652 162.623437 L 245.737652 162.623437 L 245.737652 160.123437 L 251.737652 160.123437" stroke="gray" fill="white" stroke-width="1px"></path><path d="M 257.737652 160.123437 L 257.737652 162.623437 L 251.737652 162.623437 L 251.737652 160.123437 L 257.737652 160.123437" stroke="gray" fill="white" stroke-width="1px"></path><path d="M 263.737652 160.123437 L 263.737652 162.623437 L 257.737652 162.623437 L 257.737652 160.123437 L 263.737652 160.123437" stroke="gray" fill="white" stroke-width="1px"></path><path d="M 269.737652 160.123437 L 269.737652 162.623437 L 263.737652 162.623437 L 263.737652 160.123437 L 269.737652 160.123437" stroke="gray" fill="white" stroke-width="1px"></path><path d="M 275.737652 160.123437 L 275.737652 162.623437 L 269.737652 162.623437 L 269.737652 160.123437 L 275.737652 160.123437" stroke="gray" fill="white" stroke-width="1px"></path><path d="M 251.737652 148.123437 L 251.737652 150.623437 L 245.737652 150.623437 L 245.737652 148.123437 L 251.737652 148.123437" stroke="gray" fill="white" stroke-width="1px"></path><path d="M 257.737652 148.123437 L 257.737652 150.623437 L 251.737652 150.623437 L 251.737652 148.123437 L 257.737652 148.123437" stroke="gray" fill="white" stroke-width="1px"></path><path d="M 263.737652 148.123437 L 263.737652 150.623437 L 257.737652 150.623437 L 257.737652 148.123437 L 263.737652 148.123437" stroke="gray" fill="white" stroke-width="1px"></path><path d="M 269.737652 148.123437 L 269.737652 150.623437 L 263.737652 150.623437 L 263.737652 148.123437 L 269.737652 148.123437" stroke="gray" fill="white" stroke-width="1px"></path><path d="M 275.737652 148.123437 L 275.737652 150.623437 L 269.737652 150.623437 L 269.737652 148.123437 L 275.737652 148.123437" stroke="gray" fill="white" stroke-width="1px"></path><path d="M 271.459383 27.141727 L 268.959383 27.141727 L 268.959383 33.141727 L 271.459383 33.141727 L 271.459383 27.141727" stroke="gray" fill="white" stroke-width="1px"></path><path d="M 271.459383 21.141727 L 268.959383 21.141727 L 268.959383 27.141727 L 271.459383 27.141727 L 271.459383 21.141727" stroke="gray" fill="white" stroke-width="1px"></path><path d="M 271.459383 15.141727 L 268.959383 15.141727 L 268.959383 21.141727 L 271.459383 21.141727 L 271.459383 15.141727" stroke="gray" fill="white" stroke-width="1px"></path><path d="M 259.459383 23.687448 L 256.959383 23.687448 L 256.959383 29.687448 L 259.459383 29.687448 L 259.459383 23.687448" stroke="gray" fill="white" stroke-width="1px"></path><path d="M 259.459383 17.687448 L 256.959383 17.687448 L 256.959383 23.687448 L 259.459383 23.687448 L 259.459383 17.687448" stroke="gray" fill="white" stroke-width="1px"></path><path d="M 247.459383 20.233169 L 244.959383 20.233169 L 244.959383 26.233169 L 247.459383 26.233169 L 247.459383 20.233169" stroke="gray" fill="white" stroke-width="1px"></path><path d="M 247.459383 14.233169 L 244.959383 14.233169 L 244.959383 20.233169 L 247.459383 20.233169 L 247.459383 14.233169" stroke="gray" fill="white" stroke-width="1px"></path><path d="M 235.459383 24.974744 L 232.959383 24.974744 L 232.959383 30.974744 L 235.459383 30.974744 L 235.459383 24.974744" stroke="gray" fill="white" stroke-width="1px"></path><path d="M 235.459383 18.974744 L 232.959383 18.974744 L 232.959383 24.974744 L 235.459383 24.974744 L 235.459383 18.974744" stroke="gray" fill="white" stroke-width="1px"></path><path d="M 235.459383 12.974744 L 232.959383 12.974744 L 232.959383 18.974744 L 235.459383 18.974744 L 235.459383 12.974744" stroke="gray" fill="white" stroke-width="1px"></path><path d="M 187.459383 101.033125 L 184.959383 101.033125 L 184.959383 107.033125 L 187.459383 107.033125 L 187.459383 101.033125" stroke="gray" fill="white" stroke-width="1px"></path><path d="M 187.459383 95.033125 L 184.959383 95.033125 L 184.959383 101.033125 L 187.459383 101.033125 L 187.459383 95.033125" stroke="gray" fill="white" stroke-width="1px"></path><path d="M 175.459383 101.033125 L 172.959383 101.033125 L 172.959383 107.033125 L 175.459383 107.033125 L 175.459383 101.033125" stroke="gray" fill="white" stroke-width="1px"></path><path d="M 175.459383 95.033125 L 172.959383 95.033125 L 172.959383 101.033125 L 175.459383 101.033125 L 175.459383 95.033125" stroke="gray" fill="white" stroke-width="1px"></path><path d="M 175.459383 89.033125 L 172.959383 89.033125 L 172.959383 95.033125 L 175.459383 95.033125 L 175.459383 89.033125" stroke="gray" fill="white" stroke-width="1px"></path><path d="M 175.459383 83.033125 L 172.959383 83.033125 L 172.959383 89.033125 L 175.459383 89.033125 L 175.459383 83.033125" stroke="gray" fill="white" stroke-width="1px"></path><path d="M 163.459383 101.033125 L 160.959383 101.033125 L 160.959383 107.033125 L 163.459383 107.033125 L 163.459383 101.033125" stroke="gray" fill="white" stroke-width="1px"></path><path d="M 151.459383 101.033125 L 148.959383 101.033125 L 148.959383 107.033125 L 151.459383 107.033125 L 151.459383 101.033125" stroke="gray" fill="white" stroke-width="1px"></path><path d="M 139.459383 101.033125 L 136.959383 101.033125 L 136.959383 107.033125 L 139.459383 107.033125 L 139.459383 101.033125" stroke="gray" fill="white" stroke-width="1px"></path><path d="M 127.459383 101.033125 L 124.959383 101.033125 L 124.959383 107.033125 L 127.459383 107.033125 L 127.459383 101.033125" stroke="gray" fill="white" stroke-width="1px"></path><path d="M 115.459383 101.033125 L 112.959383 101.033125 L 112.959383 107.033125 L 115.459383 107.033125 L 115.459383 101.033125" stroke="gray" fill="white" stroke-width="1px"></path><path d="M 103.459383 101.033125 L 100.959383 101.033125 L 100.959383 107.033125 L 103.459383 107.033125 L 103.459383 101.033125" stroke="gray" fill="white" stroke-width="1px"></path><path d="M 31.459383 53.360033 L 28.959383 53.360033 L 28.959383 59.360033 L 31.459383 59.360033 L 31.459383 53.360033" stroke="gray" fill="white" stroke-width="1px"></path><path d="M 31.459383 47.360033 L 28.959383 47.360033 L 28.959383 53.360033 L 31.459383 53.360033 L 31.459383 47.360033" stroke="gray" fill="white" stroke-width="1px"></path><path d="M 31.459383 41.360033 L 28.959383 41.360033 L 28.959383 47.360033 L 31.459383 47.360033 L 31.459383 41.360033" stroke="gray" fill="white" stroke-width="1px"></path><path d="M 31.459383 35.360033 L 28.959383 35.360033 L 28.959383 41.360033 L 31.459383 41.360033 L 31.459383 35.360033" stroke="gray" fill="white" stroke-width="1px"></path><path d="M 31.459383 29.360033 L 28.959383 29.360033 L 28.959383 35.360033 L 31.459383 35.360033 L 31.459383 29.360033" stroke="gray" fill="white" stroke-width="1px"></path><path d="M 31.459383 23.360033 L 28.959383 23.360033 L 28.959383 29.360033 L 31.459383 29.360033 L 31.459383 23.360033" stroke="gray" fill="white" stroke-width="1px"></path><path d="M 31.459383 17.360033 L 28.959383 17.360033 L 28.959383 23.360033 L 31.459383 23.360033 L 31.459383 17.360033" stroke="gray" fill="white" stroke-width="1px"></path><path d="M 19.459383 54.346875 L 16.959383 54.346875 L 16.959383 60.346875 L 19.459383 60.346875 L 19.459383 54.346875" stroke="gray" fill="white" stroke-width="1px"></path><path d="M 19.459383 48.346875 L 16.959383 48.346875 L 16.959383 54.346875 L 19.459383 54.346875 L 19.459383 48.346875" stroke="gray" fill="white" stroke-width="1px"></path><path d="M 19.459383 42.346875 L 16.959383 42.346875 L 16.959383 48.346875 L 19.459383 48.346875 L 19.459383 42.346875" stroke="gray" fill="white" stroke-width="1px"></path><path d="M 19.459383 36.346875 L 16.959383 36.346875 L 16.959383 42.346875 L 19.459383 42.346875 L 19.459383 36.346875" stroke="gray" fill="white" stroke-width="1px"></path><path d="M 19.459383 30.346875 L 16.959383 30.346875 L 16.959383 36.346875 L 19.459383 36.346875 L 19.459383 30.346875" stroke="gray" fill="white" stroke-width="1px"></path><path d="M 19.459383 24.346875 L 16.959383 24.346875 L 16.959383 30.346875 L 19.459383 30.346875 L 19.459383 24.346875" stroke="gray" fill="white" stroke-width="1px"></path><path d="M 19.459383 18.346875 L 16.959383 18.346875 L 16.959383 24.346875 L 19.459383 24.346875 L 19.459383 18.346875" stroke="gray" fill="white" stroke-width="1px"></path><path d="M 271.459383 27.141727 L 273.959383 27.141727 L 273.959383 33.141727 L 271.459383 33.141727 L 271.459383 27.141727" stroke="gray" fill="white" stroke-width="1px"></path><path d="M 271.459383 21.141727 L 273.959383 21.141727 L 273.959383 27.141727 L 271.459383 27.141727 L 271.459383 21.141727" stroke="gray" fill="white" stroke-width="1px"></path><path d="M 271.459383 15.141727 L 273.959383 15.141727 L 273.959383 21.141727 L 271.459383 21.141727 L 271.459383 15.141727" stroke="gray" fill="white" stroke-width="1px"></path><path d="M 259.459383 23.687448 L 261.959383 23.687448 L 261.959383 29.687448 L 259.459383 29.687448 L 259.459383 23.687448" stroke="gray" fill="white" stroke-width="1px"></path><path d="M 259.459383 17.687448 L 261.959383 17.687448 L 261.959383 23.687448 L 259.459383 23.687448 L 259.459383 17.687448" stroke="gray" fill="white" stroke-width="1px"></path><path d="M 247.459383 20.233169 L 249.959383 20.233169 L 249.959383 26.233169 L 247.459383 26.233169 L 247.459383 20.233169" stroke="gray" fill="white" stroke-width="1px"></path><path d="M 247.459383 14.233169 L 249.959383 14.233169 L 249.959383 20.233169 L 247.459383 20.233169 L 247.459383 14.233169" stroke="gray" fill="white" stroke-width="1px"></path><path d="M 235.459383 24.974744 L 237.959383 24.974744 L 237.959383 30.974744 L 235.459383 30.974744 L 235.459383 24.974744" stroke="gray" fill="white" stroke-width="1px"></path><path d="M 235.459383 18.974744 L 237.959383 18.974744 L 237.959383 24.974744 L 235.459383 24.974744 L 235.459383 18.974744" stroke="gray" fill="white" stroke-width="1px"></path><path d="M 235.459383 12.974744 L 237.959383 12.974744 L 237.959383 18.974744 L 235.459383 18.974744 L 235.459383 12.974744" stroke="gray" fill="white" stroke-width="1px"></path><path d="M 187.459383 101.033125 L 189.959383 101.033125 L 189.959383 107.033125 L 187.459383 107.033125 L 187.459383 101.033125" stroke="gray" fill="white" stroke-width="1px"></path><path d="M 187.459383 95.033125 L 189.959383 95.033125 L 189.959383 101.033125 L 187.459383 101.033125 L 187.459383 95.033125" stroke="gray" fill="white" stroke-width="1px"></path><path d="M 175.459383 101.033125 L 177.959383 101.033125 L 177.959383 107.033125 L 175.459383 107.033125 L 175.459383 101.033125" stroke="gray" fill="white" stroke-width="1px"></path><path d="M 175.459383 95.033125 L 177.959383 95.033125 L 177.959383 101.033125 L 175.459383 101.033125 L 175.459383 95.033125" stroke="gray" fill="white" stroke-width="1px"></path><path d="M 175.459383 89.033125 L 177.959383 89.033125 L 177.959383 95.033125 L 175.459383 95.033125 L 175.459383 89.033125" stroke="gray" fill="white" stroke-width="1px"></path><path d="M 175.459383 83.033125 L 177.959383 83.033125 L 177.959383 89.033125 L 175.459383 89.033125 L 175.459383 83.033125" stroke="gray" fill="white" stroke-width="1px"></path><path d="M 151.459383 101.033125 L 153.959383 101.033125 L 153.959383 107.033125 L 151.459383 107.033125 L 151.459383 101.033125" stroke="gray" fill="white" stroke-width="1px"></path><path d="M 127.459383 101.033125 L 129.959383 101.033125 L 129.959383 107.033125 L 127.459383 107.033125 L 127.459383 101.033125" stroke="gray" fill="white" stroke-width="1px"></path><path d="M 115.459383 101.033125 L 117.959383 101.033125 L 117.959383 107.033125 L 115.459383 107.033125 L 115.459383 101.033125" stroke="gray" fill="white" stroke-width="1px"></path><path d="M 103.459383 101.033125 L 105.959383 101.033125 L 105.959383 107.033125 L 103.459383 107.033125 L 103.459383 101.033125" stroke="gray" fill="white" stroke-width="1px"></path><path d="M 31.459383 53.360033 L 33.959383 53.360033 L 33.959383 59.360033 L 31.459383 59.360033 L 31.459383 53.360033" stroke="gray" fill="white" stroke-width="1px"></path><path d="M 31.459383 47.360033 L 33.959383 47.360033 L 33.959383 53.360033 L 31.459383 53.360033 L 31.459383 47.360033" stroke="gray" fill="white" stroke-width="1px"></path><path d="M 31.459383 41.360033 L 33.959383 41.360033 L 33.959383 47.360033 L 31.459383 47.360033 L 31.459383 41.360033" stroke="gray" fill="white" stroke-width="1px"></path><path d="M 31.459383 35.360033 L 33.959383 35.360033 L 33.959383 41.360033 L 31.459383 41.360033 L 31.459383 35.360033" stroke="gray" fill="white" stroke-width="1px"></path><path d="M 31.459383 29.360033 L 33.959383 29.360033 L 33.959383 35.360033 L 31.459383 35.360033 L 31.459383 29.360033" stroke="gray" fill="white" stroke-width="1px"></path><path d="M 31.459383 23.360033 L 33.959383 23.360033 L 33.959383 29.360033 L 31.459383 29.360033 L 31.459383 23.360033" stroke="gray" fill="white" stroke-width="1px"></path><path d="M 31.459383 17.360033 L 33.959383 17.360033 L 33.959383 23.360033 L 31.459383 23.360033 L 31.459383 17.360033" stroke="gray" fill="white" stroke-width="1px"></path><path d="M 19.459383 54.346875 L 21.959383 54.346875 L 21.959383 60.346875 L 19.459383 60.346875 L 19.459383 54.346875" stroke="gray" fill="white" stroke-width="1px"></path><path d="M 19.459383 48.346875 L 21.959383 48.346875 L 21.959383 54.346875 L 19.459383 54.346875 L 19.459383 48.346875" stroke="gray" fill="white" stroke-width="1px"></path><path d="M 19.459383 42.346875 L 21.959383 42.346875 L 21.959383 48.346875 L 19.459383 48.346875 L 19.459383 42.346875" stroke="gray" fill="white" stroke-width="1px"></path><path d="M 19.459383 36.346875 L 21.959383 36.346875 L 21.959383 42.346875 L 19.459383 42.346875 L 19.459383 36.346875" stroke="gray" fill="white" stroke-width="1px"></path><path d="M 19.459383 30.346875 L 21.959383 30.346875 L 21.959383 36.346875 L 19.459383 36.346875 L 19.459383 30.346875" stroke="gray" fill="white" stroke-width="1px"></path><path d="M 19.459383 24.346875 L 21.959383 24.346875 L 21.959383 30.346875 L 19.459383 30.346875 L 19.459383 24.346875" stroke="gray" fill="white" stroke-width="1px"></path><path d="M 19.459383 18.346875 L 21.959383 18.346875 L 21.959383 24.346875 L 19.459383 24.346875 L 19.459383 18.346875" stroke="gray" fill="white" stroke-width="1px"></path><path d="M 268.304018 101.263579 L 268.304018 98.763579 L 262.304018 98.763579 L 262.304018 101.263579 L 268.304018 101.263579" stroke="gray" fill="white" stroke-width="1px"></path><path d="M 274.304018 101.263579 L 274.304018 98.763579 L 268.304018 98.763579 L 268.304018 101.263579 L 274.304018 101.263579" stroke="gray" fill="white" stroke-width="1px"></path><path d="M 269.939232 89.263579 L 269.939232 86.763579 L 263.939232 86.763579 L 263.939232 89.263579 L 269.939232 89.263579" stroke="gray" fill="white" stroke-width="1px"></path><path d="M 275.939232 89.263579 L 275.939232 86.763579 L 269.939232 86.763579 L 269.939232 89.263579 L 275.939232 89.263579" stroke="gray" fill="white" stroke-width="1px"></path><path d="M 268.577773 77.263579 L 268.577773 74.763579 L 262.577773 74.763579 L 262.577773 77.263579 L 268.577773 77.263579" stroke="gray" fill="white" stroke-width="1px"></path><path d="M 274.577773 77.263579 L 274.577773 74.763579 L 268.577773 74.763579 L 268.577773 77.263579 L 274.577773 77.263579" stroke="gray" fill="white" stroke-width="1px"></path><path d="M 267.216314 65.263579 L 267.216314 62.763579 L 261.216314 62.763579 L 261.216314 65.263579 L 267.216314 65.263579" stroke="gray" fill="white" stroke-width="1px"></path><path d="M 273.216314 65.263579 L 273.216314 62.763579 L 267.216314 62.763579 L 267.216314 65.263579 L 273.216314 65.263579" stroke="gray" fill="white" stroke-width="1px"></path><path d="M 279.216314 65.263579 L 279.216314 62.763579 L 273.216314 62.763579 L 273.216314 65.263579 L 279.216314 65.263579" stroke="gray" fill="white" stroke-width="1px"></path><path d="M 222.351728 101.263579 L 222.351728 98.763579 L 216.351728 98.763579 L 216.351728 101.263579 L 222.351728 101.263579" stroke="gray" fill="white" stroke-width="1px"></path><path d="M 220.438342 89.263579 L 220.438342 86.763579 L 214.438342 86.763579 L 214.438342 89.263579 L 220.438342 89.263579" stroke="gray" fill="white" stroke-width="1px"></path><path d="M 22.000000 101.263579 L 22.000000 98.763579 L 16.000000 98.763579 L 16.000000 101.263579 L 22.000000 101.263579" stroke="gray" fill="white" stroke-width="1px"></path><path d="M 28.000000 101.263579 L 28.000000 98.763579 L 22.000000 98.763579 L 22.000000 101.263579 L 28.000000 101.263579" stroke="gray" fill="white" stroke-width="1px"></path><path d="M 34.000000 101.263579 L 34.000000 98.763579 L 28.000000 98.763579 L 28.000000 101.263579 L 34.000000 101.263579" stroke="gray" fill="white" stroke-width="1px"></path><path d="M 40.000000 101.263579 L 40.000000 98.763579 L 34.000000 98.763579 L 34.000000 101.263579 L 40.000000 101.263579" stroke="gray" fill="white" stroke-width="1px"></path><path d="M 22.000000 89.263579 L 22.000000 86.763579 L 16.000000 86.763579 L 16.000000 89.263579 L 22.000000 89.263579" stroke="gray" fill="white" stroke-width="1px"></path><path d="M 28.000000 89.263579 L 28.000000 86.763579 L 22.000000 86.763579 L 22.000000 89.263579 L 28.000000 89.263579" stroke="gray" fill="white" stroke-width="1px"></path><path d="M 34.000000 89.263579 L 34.000000 86.763579 L 28.000000 86.763579 L 28.000000 89.263579 L 34.000000 89.263579" stroke="gray" fill="white" stroke-width="1px"></path><path d="M 40.000000 89.263579 L 40.000000 86.763579 L 34.000000 86.763579 L 34.000000 89.263579 L 40.000000 89.263579" stroke="gray" fill="white" stroke-width="1px"></path><path d="M 22.000000 77.263579 L 22.000000 74.763579 L 16.000000 74.763579 L 16.000000 77.263579 L 22.000000 77.263579" stroke="gray" fill="white" stroke-width="1px"></path><path d="M 28.000000 77.263579 L 28.000000 74.763579 L 22.000000 74.763579 L 22.000000 77.263579 L 28.000000 77.263579" stroke="gray" fill="white" stroke-width="1px"></path><path d="M 34.000000 77.263579 L 34.000000 74.763579 L 28.000000 74.763579 L 28.000000 77.263579 L 34.000000 77.263579" stroke="gray" fill="white" stroke-width="1px"></path><path d="M 40.000000 77.263579 L 40.000000 74.763579 L 34.000000 74.763579 L 34.000000 77.263579 L 40.000000 77.263579" stroke="gray" fill="white" stroke-width="1px"></path><path d="M 28.000000 65.263579 L 28.000000 62.763579 L 22.000000 62.763579 L 22.000000 65.263579 L 28.000000 65.263579" stroke="gray" fill="white" stroke-width="1px"></path><path d="M 34.000000 65.263579 L 34.000000 62.763579 L 28.000000 62.763579 L 28.000000 65.263579 L 34.000000 65.263579" stroke="gray" fill="white" stroke-width="1px"></path><path d="M 40.000000 65.263579 L 40.000000 62.763579 L 34.000000 62.763579 L 34.000000 65.263579 L 40.000000 65.263579" stroke="gray" fill="white" stroke-width="1px"></path><path d="M 268.304018 101.263579 L 268.304018 103.763579 L 262.304018 103.763579 L 262.304018 101.263579 L 268.304018 101.263579" stroke="gray" fill="white" stroke-width="1px"></path><path d="M 274.304018 101.263579 L 274.304018 103.763579 L 268.304018 103.763579 L 268.304018 101.263579 L 274.304018 101.263579" stroke="gray" fill="white" stroke-width="1px"></path><path d="M 269.939232 89.263579 L 269.939232 91.763579 L 263.939232 91.763579 L 263.939232 89.263579 L 269.939232 89.263579" stroke="gray" fill="white" stroke-width="1px"></path><path d="M 275.939232 89.263579 L 275.939232 91.763579 L 269.939232 91.763579 L 269.939232 89.263579 L 275.939232 89.263579" stroke="gray" fill="white" stroke-width="1px"></path><path d="M 268.577773 77.263579 L 268.577773 79.763579 L 262.577773 79.763579 L 262.577773 77.263579 L 268.577773 77.263579" stroke="gray" fill="white" stroke-width="1px"></path><path d="M 274.577773 77.263579 L 274.577773 79.763579 L 268.577773 79.763579 L 268.577773 77.263579 L 274.577773 77.263579" stroke="gray" fill="white" stroke-width="1px"></path><path d="M 267.216314 65.263579 L 267.216314 67.763579 L 261.216314 67.763579 L 261.216314 65.263579 L 267.216314 65.263579" stroke="gray" fill="white" stroke-width="1px"></path><path d="M 273.216314 65.263579 L 273.216314 67.763579 L 267.216314 67.763579 L 267.216314 65.263579 L 273.216314 65.263579" stroke="gray" fill="white" stroke-width="1px"></path><path d="M 279.216314 65.263579 L 279.216314 67.763579 L 273.216314 67.763579 L 273.216314 65.263579 L 279.216314 65.263579" stroke="gray" fill="white" stroke-width="1px"></path><path d="M 222.351728 101.263579 L 222.351728 103.763579 L 216.351728 103.763579 L 216.351728 101.263579 L 222.351728 101.263579" stroke="gray" fill="white" stroke-width="1px"></path><path d="M 220.438342 89.263579 L 220.438342 91.763579 L 214.438342 91.763579 L 214.438342 89.263579 L 220.438342 89.263579" stroke="gray" fill="white" stroke-width="1px"></path><path d="M 22.000000 101.263579 L 22.000000 103.763579 L 16.000000 103.763579 L 16.000000 101.263579 L 22.000000 101.263579" stroke="gray" fill="white" stroke-width="1px"></path><path d="M 28.000000 101.263579 L 28.000000 103.763579 L 22.000000 103.763579 L 22.000000 101.263579 L 28.000000 101.263579" stroke="gray" fill="white" stroke-width="1px"></path><path d="M 34.000000 101.263579 L 34.000000 103.763579 L 28.000000 103.763579 L 28.000000 101.263579 L 34.000000 101.263579" stroke="gray" fill="white" stroke-width="1px"></path><path d="M 40.000000 101.263579 L 40.000000 103.763579 L 34.000000 103.763579 L 34.000000 101.263579 L 40.000000 101.263579" stroke="gray" fill="white" stroke-width="1px"></path><path d="M 22.000000 89.263579 L 22.000000 91.763579 L 16.000000 91.763579 L 16.000000 89.263579 L 22.000000 89.263579" stroke="gray" fill="white" stroke-width="1px"></path><path d="M 28.000000 89.263579 L 28.000000 91.763579 L 22.000000 91.763579 L 22.000000 89.263579 L 28.000000 89.263579" stroke="gray" fill="white" stroke-width="1px"></path><path d="M 34.000000 89.263579 L 34.000000 91.763579 L 28.000000 91.763579 L 28.000000 89.263579 L 34.000000 89.263579" stroke="gray" fill="white" stroke-width="1px"></path><path d="M 40.000000 89.263579 L 40.000000 91.763579 L 34.000000 91.763579 L 34.000000 89.263579 L 40.000000 89.263579" stroke="gray" fill="white" stroke-width="1px"></path><path d="M 22.000000 77.263579 L 22.000000 79.763579 L 16.000000 79.763579 L 16.000000 77.263579 L 22.000000 77.263579" stroke="gray" fill="white" stroke-width="1px"></path><path d="M 28.000000 77.263579 L 28.000000 79.763579 L 22.000000 79.763579 L 22.000000 77.263579 L 28.000000 77.263579" stroke="gray" fill="white" stroke-width="1px"></path><path d="M 34.000000 77.263579 L 34.000000 79.763579 L 28.000000 79.763579 L 28.000000 77.263579 L 34.000000 77.263579" stroke="gray" fill="white" stroke-width="1px"></path><path d="M 40.000000 77.263579 L 40.000000 79.763579 L 34.000000 79.763579 L 34.000000 77.263579 L 40.000000 77.263579" stroke="gray" fill="white" stroke-width="1px"></path><path d="M 22.000000 65.263579 L 22.000000 67.763579 L 16.000000 67.763579 L 16.000000 65.263579 L 22.000000 65.263579" stroke="gray" fill="white" stroke-width="1px"></path><path d="M 28.000000 65.263579 L 28.000000 67.763579 L 22.000000 67.763579 L 22.000000 65.263579 L 28.000000 65.263579" stroke="gray" fill="white" stroke-width="1px"></path><path d="M 34.000000 65.263579 L 34.000000 67.763579 L 28.000000 67.763579 L 28.000000 65.263579 L 34.000000 65.263579" stroke="gray" fill="white" stroke-width="1px"></path><path d="M 40.000000 65.263579 L 40.000000 67.763579 L 34.000000 67.763579 L 34.000000 65.263579 L 40.000000 65.263579" stroke="gray" fill="white" stroke-width="1px"></path></g><g id="crv-base"><path d="M 221.371570 123.090312 L 221.371570 169.241094 L 120.000633 169.241094 L 120.000633 156.444206 L 126.051258 156.444206 L 126.051258 128.832500 L 123.590320 128.832500 L 123.590320 125.551250 L 126.051258 125.551250 L 126.051258 123.858132 L 91.315945 123.858125 L 91.315945 134.738750 L 64.258762 134.738750 L 64.258762 123.687497 L 10.000000 123.687497 L 10.000000 226.180625 L 64.258758 226.180625 L 64.258758 192.357500 L 91.315945 192.357500 L 91.315945 220.123437 L 283.459383 220.123437 L 283.459383 123.090312 L 221.371570 123.090312" stroke="black" fill="none" stroke-width="1px"></path><path d="M 221.371570 10.000000 L 221.371570 56.150781 L 120.000633 56.150781 L 120.000633 43.353893 L 126.051258 43.353893 L 126.051258 15.742187 L 123.590320 15.742187 L 123.590320 12.460937 L 126.051258 12.460937 L 126.051258 10.767819 L 91.315945 10.767812 L 91.315945 21.648438 L 64.258762 21.648438 L 64.258762 10.597185 L 10.000000 10.597185 L 10.000000 113.090312 L 64.258758 113.090312 L 64.258758 79.267187 L 91.315945 79.267187 L 91.315945 107.033125 L 283.459383 107.033125 L 283.459383 10.000000 L 221.371570 10.000000" stroke="black" fill="none" stroke-width="1px"></path><path d="M 10.387195 156.559062 L 10.387195 154.590312 L 12.355945 154.590312 L 12.355945 156.559062 L 10.387195 156.559062" stroke="black" fill="white" stroke-width="1px"></path><path d="M 10.387195 43.468750 L 10.387195 41.500000 L 12.355945 41.500000 L 12.355945 43.468750 L 10.387195 43.468750" stroke="black" fill="white" stroke-width="1px"></path><path d="M 10.387195 188.059062 L 10.387195 186.090312 L 12.355945 186.090312 L 12.355945 188.059062 L 10.387195 188.059062" stroke="black" fill="white" stroke-width="1px"></path><path d="M 10.387195 74.968750 L 10.387195 73.000000 L 12.355945 73.000000 L 12.355945 74.968750 L 10.387195 74.968750" stroke="black" fill="white" stroke-width="1px"></path><path d="M 10.387195 219.559062 L 10.387195 217.590312 L 12.355945 217.590312 L 12.355945 219.559062 L 10.387195 219.559062" stroke="black" fill="white" stroke-width="1px"></path><path d="M 10.387195 106.468750 L 10.387195 104.500000 L 12.355945 104.500000 L 12.355945 106.468750 L 10.387195 106.468750" stroke="black" fill="white" stroke-width="1px"></path><path d="M 60.754383 128.340312 L 60.754383 125.387187 L 63.871570 125.387187 L 63.871570 128.340312 L 60.754383 128.340312" stroke="black" fill="white" stroke-width="1px"></path><path d="M 60.754383 15.250000 L 60.754383 12.296875 L 63.871570 12.296875 L 63.871570 15.250000 L 60.754383 15.250000" stroke="black" fill="white" stroke-width="1px"></path><path d="M 280.598133 219.230937 L 280.598133 217.262187 L 282.566883 217.262187 L 282.566883 219.230937 L 280.598133 219.230937" stroke="black" fill="white" stroke-width="1px"></path><path d="M 280.598133 106.140625 L 280.598133 104.171875 L 282.566883 104.171875 L 282.566883 106.140625 L 280.598133 106.140625" stroke="black" fill="white" stroke-width="1px"></path><path d="M 280.598133 188.059062 L 280.598133 186.090312 L 282.566883 186.090312 L 282.566883 188.059062 L 280.598133 188.059062" stroke="black" fill="white" stroke-width="1px"></path><path d="M 280.598133 74.968750 L 280.598133 73.000000 L 282.566883 73.000000 L 282.566883 74.968750 L 280.598133 74.968750" stroke="black" fill="white" stroke-width="1px"></path><path d="M 280.598133 156.559050 L 280.598133 154.590300 L 282.566883 154.590300 L 282.566883 156.559050 L 280.598133 156.559050" stroke="black" fill="white" stroke-width="1px"></path><path d="M 280.598133 43.468737 L 280.598133 41.499987 L 282.566883 41.499987 L 282.566883 43.468737 L 280.598133 43.468737" stroke="black" fill="white" stroke-width="1px"></path><path d="M 248.605945 127.355937 L 248.605945 123.418437 L 251.887195 123.418437 L 251.887195 127.355937 L 248.605945 127.355937" stroke="black" fill="white" stroke-width="1px"></path><path d="M 248.605945 14.265625 L 248.605945 10.328125 L 251.887195 10.328125 L 251.887195 14.265625 L 248.605945 14.265625" stroke="black" fill="white" stroke-width="1px"></path><path d="M 248.605945 157.871562 L 248.605945 153.934062 L 251.887195 153.934062 L 251.887195 157.871562 L 248.605945 157.871562" stroke="black" fill="white" stroke-width="1px"></path><path d="M 248.605945 44.781250 L 248.605945 40.843750 L 251.887195 40.843750 L 251.887195 44.781250 L 248.605945 44.781250" stroke="black" fill="white" stroke-width="1px"></path><path d="M 248.605945 189.043437 L 248.605945 185.105937 L 251.887195 185.105937 L 251.887195 189.043437 L 248.605945 189.043437" stroke="black" fill="white" stroke-width="1px"></path><path d="M 248.605945 75.953125 L 248.605945 72.015625 L 251.887195 72.015625 L 251.887195 75.953125 L 248.605945 75.953125" stroke="black" fill="white" stroke-width="1px"></path><path d="M 248.934070 219.230937 L 248.934070 216.277812 L 251.887195 216.277812 L 251.887195 219.230937 L 248.934070 219.230937" stroke="black" fill="white" stroke-width="1px"></path><path d="M 248.934070 106.140625 L 248.934070 103.187500 L 251.887195 103.187500 L 251.887195 106.140625 L 248.934070 106.140625" stroke="black" fill="white" stroke-width="1px"></path><path d="M 218.090320 189.043437 L 218.090320 185.105937 L 221.371570 185.105937 L 221.371570 189.043437 L 218.090320 189.043437" stroke="black" fill="white" stroke-width="1px"></path><path d="M 218.090320 75.953125 L 218.090320 72.015625 L 221.371570 72.015625 L 221.371570 75.953125 L 218.090320 75.953125" stroke="black" fill="white" stroke-width="1px"></path><path d="M 218.254383 219.230937 L 218.254383 216.277812 L 221.207508 216.277812 L 221.207508 219.230937 L 218.254383 219.230937" stroke="black" fill="white" stroke-width="1px"></path><path d="M 218.254383 106.140625 L 218.254383 103.187500 L 221.207508 103.187500 L 221.207508 106.140625 L 218.254383 106.140625" stroke="black" fill="white" stroke-width="1px"></path><path d="M 186.590320 189.043437 L 186.590320 185.105937 L 189.871570 185.105937 L 189.871570 189.043437 L 186.590320 189.043437" stroke="black" fill="white" stroke-width="1px"></path><path d="M 186.590320 75.953125 L 186.590320 72.015625 L 189.871570 72.015625 L 189.871570 75.953125 L 186.590320 75.953125" stroke="black" fill="white" stroke-width="1px"></path><path d="M 186.754383 219.230937 L 186.754383 216.277812 L 189.707508 216.277812 L 189.707508 219.230937 L 186.754383 219.230937" stroke="black" fill="white" stroke-width="1px"></path><path d="M 186.754383 106.140625 L 186.754383 103.187500 L 189.707508 103.187500 L 189.707508 106.140625 L 186.754383 106.140625" stroke="black" fill="white" stroke-width="1px"></path><path d="M 155.090320 189.043437 L 155.090320 185.105937 L 158.371570 185.105937 L 158.371570 189.043437 L 155.090320 189.043437" stroke="black" fill="white" stroke-width="1px"></path><path d="M 155.090320 75.953125 L 155.090320 72.015625 L 158.371570 72.015625 L 158.371570 75.953125 L 155.090320 75.953125" stroke="black" fill="white" stroke-width="1px"></path><path d="M 155.254383 219.230937 L 155.254383 216.277812 L 158.207508 216.277812 L 158.207508 219.230937 L 155.254383 219.230937" stroke="black" fill="white" stroke-width="1px"></path><path d="M 155.254383 106.140625 L 155.254383 103.187500 L 158.207508 103.187500 L 158.207508 106.140625 L 155.254383 106.140625" stroke="black" fill="white" stroke-width="1px"></path><path d="M 123.590320 189.043437 L 123.590320 185.105937 L 126.871570 185.105937 L 126.871570 189.043437 L 123.590320 189.043437" stroke="black" fill="white" stroke-width="1px"></path><path d="M 123.590320 75.953125 L 123.590320 72.015625 L 126.871570 72.015625 L 126.871570 75.953125 L 123.590320 75.953125" stroke="black" fill="white" stroke-width="1px"></path><path d="M 123.754383 219.230937 L 123.754383 216.277812 L 126.707508 216.277812 L 126.707508 219.230937 L 123.754383 219.230937" stroke="black" fill="white" stroke-width="1px"></path><path d="M 123.754383 106.140625 L 123.754383 103.187500 L 126.707508 103.187500 L 126.707508 106.140625 L 123.754383 106.140625" stroke="black" fill="white" stroke-width="1px"></path><path d="M 92.090320 157.543437 L 92.090320 153.605937 L 95.371570 153.605937 L 95.371570 157.543437 L 92.090320 157.543437" stroke="black" fill="white" stroke-width="1px"></path><path d="M 92.090320 44.453125 L 92.090320 40.515625 L 95.371570 40.515625 L 95.371570 44.453125 L 92.090320 44.453125" stroke="black" fill="white" stroke-width="1px"></path><path d="M 92.090320 189.043437 L 92.090320 185.105937 L 95.371570 185.105937 L 95.371570 189.043437 L 92.090320 189.043437" stroke="black" fill="white" stroke-width="1px"></path><path d="M 92.090320 75.953125 L 92.090320 72.015625 L 95.371570 72.015625 L 95.371570 75.953125 L 92.090320 75.953125" stroke="black" fill="white" stroke-width="1px"></path><path d="M 92.090320 128.504375 L 92.090320 125.551250 L 95.207508 125.551250 L 95.207508 128.504375 L 92.090320 128.504375" stroke="black" fill="white" stroke-width="1px"></path><path d="M 92.090320 15.414062 L 92.090320 12.460937 L 95.207508 12.460937 L 95.207508 15.414062 L 92.090320 15.414062" stroke="black" fill="white" stroke-width="1px"></path><path d="M 60.590320 157.215312 L 60.590320 153.934062 L 63.871570 153.934062 L 63.871570 157.215312 L 60.590320 157.215312" stroke="black" fill="white" stroke-width="1px"></path><path d="M 60.590320 44.125000 L 60.590320 40.843750 L 63.871570 40.843750 L 63.871570 44.125000 L 60.590320 44.125000" stroke="black" fill="white" stroke-width="1px"></path><path d="M 60.754383 219.230937 L 60.754383 216.277812 L 63.871570 216.277812 L 63.871570 219.230937 L 60.754383 219.230937" stroke="black" fill="white" stroke-width="1px"></path><path d="M 60.754383 106.140625 L 60.754383 103.187500 L 63.871570 103.187500 L 63.871570 106.140625 L 60.754383 106.140625" stroke="black" fill="white" stroke-width="1px"></path><path d="M 30.074695 128.504375 L 30.074695 125.223125 L 33.027820 125.223125 L 33.027820 128.504375 L 30.074695 128.504375" stroke="black" fill="white" stroke-width="1px"></path><path d="M 30.074695 15.414062 L 30.074695 12.132812 L 33.027820 12.132812 L 33.027820 15.414062 L 30.074695 15.414062" stroke="black" fill="white" stroke-width="1px"></path><path d="M 30.074695 157.215312 L 30.074695 153.934062 L 33.355945 153.934062 L 33.355945 157.215312 L 30.074695 157.215312" stroke="black" fill="white" stroke-width="1px"></path><path d="M 30.074695 44.125000 L 30.074695 40.843750 L 33.355945 40.843750 L 33.355945 44.125000 L 30.074695 44.125000" stroke="black" fill="white" stroke-width="1px"></path><path d="M 30.074695 188.715312 L 30.074695 185.434062 L 33.355945 185.434062 L 33.355945 188.715312 L 30.074695 188.715312" stroke="black" fill="white" stroke-width="1px"></path><path d="M 30.074695 75.625000 L 30.074695 72.343750 L 33.355945 72.343750 L 33.355945 75.625000 L 30.074695 75.625000" stroke="black" fill="white" stroke-width="1px"></path><path d="M 30.074695 219.230937 L 30.074695 216.277812 L 33.027820 216.277812 L 33.027820 219.230937 L 30.074695 219.230937" stroke="black" fill="white" stroke-width="1px"></path><path d="M 30.074695 106.140625 L 30.074695 103.187500 L 33.027820 103.187500 L 33.027820 106.140625 L 30.074695 106.140625" stroke="black" fill="white" stroke-width="1px"></path><path d="M 10.387195 127.191875 L 10.387195 125.223125 L 12.355945 125.223125 L 12.355945 127.191875 L 10.387195 127.191875" stroke="black" fill="white" stroke-width="1px"></path><path d="M 10.387195 14.101562 L 10.387195 12.132812 L 12.355945 12.132812 L 12.355945 14.101562 L 10.387195 14.101562" stroke="black" fill="white" stroke-width="1px"></path><path d="M 60.590320 189.863750 L 60.590320 185.434062 L 63.871570 185.434062 L 63.871570 188.715312 L 62.230945 188.715312 L 62.230945 189.863750 L 60.590320 189.863750" stroke="black" fill="white" stroke-width="1px"></path><path d="M 60.590320 76.773437 L 60.590320 72.343750 L 63.871570 72.343750 L 63.871570 75.625000 L 62.230945 75.625000 L 62.230945 76.773437 L 60.590320 76.773437" stroke="black" fill="white" stroke-width="1px"></path></g></svg>