<svg width="293.459383" height="236.180625" xmlns="http://www.w3.org/2000/svg" xmlns:xlink="http://www.w3.org/1999/xlink" version="1.1"><g id="crv-background"><path d="M 221.371570 123.090312 L 221.371570 169.241094 L 120.000633 169.241094 L 120.000633 156.444206 L 126.051258 156.444206 L 126.051258 123.858132 L 91.315945 123.858125 L 91.315945 134.738750 L 64.258762 134.738750 L 64.258762 123.687497 L 10.000000 123.687497 L 10.000000 226.180625 L 64.258758 226.180625 L 64.258758 192.357500 L 91.315945 192.357500 L 91.315945 220.123437 L 283.459383 220.123437 L 283.459383 123.090312 L 221.371570 123.090312" stroke="none" fill="white" stroke-width="1px"></path><path d="M 221.371570 10.000000 L 221.371570 56.150781 L 120.000633 56.150781 L 120.000633 43.353893 L 126.051258 43.353893 L 126.051258 10.767819 L 91.315945 10.767812 L 91.315945 21.648438 L 64.258762 21.648438 L 64.258762 10.597185 L 10.000000 10.597185 L 10.000000 113.090312 L 64.258758 113.090312 L 64.258758 79.267187 L 91.315945 79.267187 L 91.315945 107.033125 L 283.459383 107.033125 L 283.459383 10.000000 L 221.371570 10.000000" stroke="none" fill="white" stroke-width="1px"></path></g><g id="crv-nbhd"><path d="M 221.737654 10.000004 L 221.737654 28.951513 L 221.737654 47.903023 L 232.461552 53.972318 L 243.185450 60.041613 L 263.322416 47.007562 L 283.459383 33.973511 L 283.459383 21.986758 L 283.459382 10.000000 L 252.598518 10.000002 L 221.737654 10.000004" stroke="#DD2222" fill="none" stroke-width="1px"></path><path d="M 283.459383 107.033125 L 283.459383 70.503318 L 283.459383 33.973511 L 263.322416 47.007562 L 243.185450 60.041613 L 240.480558 83.537369 L 237.775667 107.033125 L 260.617525 107.033125 L 283.459383 107.033125" stroke="#DD2222" fill="none" stroke-width="1px"></path><path d="M 221.737654 47.903023 L 221.737654 79.151330 L 189.592069 79.151330 L 214.832747 107.033125 L 237.775667 107.033125 L 243.185450 60.041613 L 221.737654 47.903023" stroke="#DD2222" fill="none" stroke-width="1px"></path><path d="M 189.592069 79.151330 L 188.312516 79.151330 L 187.032963 79.151330 L 176.839324 93.092227 L 166.645685 107.033125 L 190.739216 107.033125 L 214.832747 107.033125 L 202.212408 93.092227 L 189.592069 79.151330" stroke="#DD2222" fill="none" stroke-width="1px"></path><path d="M 187.032963 79.151330 L 151.886545 79.151329 L 152.025003 107.033125 L 166.645685 107.033125 L 187.032963 79.151330" stroke="#DD2222" fill="none" stroke-width="1px"></path><path d="M 151.886545 79.151329 L 121.601245 79.151328 L 91.315945 79.151327 L 91.315945 93.092226 L 91.315945 107.033125 L 121.670474 107.033125 L 152.025003 107.033125 L 151.955774 93.092230 L 151.886545 79.151329" stroke="#DD2222" fill="none" stroke-width="1px"></path><path d="M 64.258758 113.090312 L 64.258758 97.573474 L 64.258758 82.056635 L 37.129379 74.072186 L 10.000000 66.087738 L 10.000000 89.589025 L 10.000000 113.090312 L 37.129372 113.090312 L 64.258758 113.090312" stroke="#DD2222" fill="none" stroke-width="1px"></path><path d="M 64.258758 56.150781 L 64.258758 33.373983 L 64.258758 10.597185 L 37.129372 10.597185 L 10.000000 10.597184 L 10.000000 38.342461 L 10.000000 66.087738 L 37.129379 74.072186 L 64.258758 82.056635 L 64.258758 69.103711 L 64.258758 56.150781" stroke="#DD2222" fill="none" stroke-width="1px"></path><path d="M 10.000000 123.687497 L 10.000000 161.702842 L 10.000000 199.718187 L 37.129379 189.781834 L 64.258758 179.845481 L 64.258758 174.543287 L 64.258758 169.241094 L 64.258758 146.464296 L 64.258758 123.687497 L 37.129379 123.687497 L 10.000000 123.687497" stroke="#DD2222" fill="none" stroke-width="1px"></path><path d="M 10.000000 226.180625 L 37.129379 226.180625 L 64.258759 226.180625 L 64.258759 203.013047 L 64.258758 179.845481 L 37.129379 189.781834 L 10.000000 199.718187 L 10.000000 212.949403 L 10.000000 226.180625" stroke="#DD2222" fill="none" stroke-width="1px"></path><path d="M 128.986172 192.043444 L 110.151058 192.043444 L 91.315945 192.043444 L 91.315945 206.083441 L 91.315945 220.123437 L 110.267771 220.123437 L 129.219597 220.123437 L 129.102884 206.083444 L 128.986172 192.043444" stroke="#DD2222" fill="none" stroke-width="1px"></path><path d="M 176.004116 192.043444 L 152.495144 192.043444 L 128.986172 192.043444 L 129.102884 206.083441 L 129.219597 220.123437 L 152.696996 220.123437 L 176.174395 220.123437 L 176.089256 206.083441 L 176.004116 192.043444" stroke="#DD2222" fill="none" stroke-width="1px"></path><path d="M 234.011008 192.043444 L 205.007562 192.043444 L 176.004116 192.043444 L 176.089256 206.083441 L 176.174395 220.123437 L 206.925136 220.123437 L 237.675876 220.123437 L 235.843442 206.083444 L 234.011008 192.043444" stroke="#DD2222" fill="none" stroke-width="1px"></path><path d="M 237.675876 220.123437 L 260.567629 220.123437 L 283.459383 220.123437 L 283.459383 199.685560 L 283.459383 179.247682 L 261.598517 178.968527 L 239.737652 178.689373 L 239.737652 185.366409 L 239.737652 192.043444 L 236.874330 192.043444 L 234.011008 192.043444 L 235.843442 206.083441 L 237.675876 220.123437" stroke="#DD2222" fill="none" stroke-width="1px"></path><path d="M 239.737652 123.090312 L 239.737652 150.889843 L 239.737652 178.689373 L 261.598517 178.968527 L 283.459383 179.247682 L 283.459383 151.168997 L 283.459383 123.090312 L 261.598517 123.090312 L 239.737652 123.090312" stroke="#DD2222" fill="none" stroke-width="1px"></path></g><g id="crv-amen"><path d="M 62.611694 170.015505 L 62.611694 149.425279 L 62.611694 128.835054 L 56.023438 128.835054 L 49.435183 128.835054 L 49.435183 149.425279 L 49.435183 170.015505 L 56.023438 170.015505 L 62.611694 170.015505" stroke="none" fill="#2288CC" stroke-width="1px"></path><path d="M 58.832882 197.619301 L 58.832882 190.603053 L 58.832882 183.586812 L 37.129379 191.535895 L 15.425876 199.484978 L 15.425876 206.501221 L 15.425876 213.517467 L 37.129379 205.568384 L 58.832882 197.619301" stroke="none" fill="#2288CC" stroke-width="1px"></path><path d="M 106.139520 194.851444 L 99.551265 194.851444 L 92.963009 194.851444 L 92.963009 206.083441 L 92.963009 217.315438 L 99.551265 217.315438 L 106.139520 217.315438 L 106.139520 206.083441 L 106.139520 194.851444" stroke="none" fill="#2288CC" stroke-width="1px"></path><path d="M 143.833601 194.851444 L 137.245118 194.851444 L 130.656635 194.851444 L 130.750005 206.083441 L 130.843375 217.315438 L 137.431858 217.315438 L 144.020341 217.315438 L 143.926971 206.083441 L 143.833601 194.851444" stroke="none" fill="#2288CC" stroke-width="1px"></path><path d="M 230.043183 206.876551 L 229.183315 200.288296 L 228.323447 193.700040 L 205.120690 193.700040 L 181.917934 193.700040 L 181.957885 200.288296 L 181.997837 206.876551 L 206.020510 206.876551 L 230.043183 206.876551" stroke="none" fill="#2288CC" stroke-width="1px"></path><path d="M 240.642217 190.938892 L 240.642217 192.722890 L 240.642217 194.506889 L 238.351560 194.506889 L 236.060902 194.506889 L 237.526850 205.738886 L 238.992797 216.970883 L 245.636928 216.970883 L 252.281060 216.970883 L 250.513257 203.426090 L 248.745455 189.881296 L 244.693836 190.410094 L 240.642217 190.938892" stroke="none" fill="#2288CC" stroke-width="1px"></path><path d="M 244.109825 163.920420 L 244.109825 170.509213 L 244.109825 177.098006 L 261.598517 177.321329 L 279.087210 177.544653 L 279.087210 170.955860 L 279.087210 164.367068 L 261.598517 164.143744 L 244.109825 163.920420" stroke="none" fill="#2288CC" stroke-width="1px"></path><path d="M 236.939106 50.664254 L 241.628675 53.318362 L 246.318245 55.972470 L 262.427818 45.545229 L 278.537391 35.117988 L 278.537391 30.526944 L 278.537391 25.935896 L 277.051735 23.640630 L 275.566079 21.345365 L 255.268016 34.483688 L 234.969954 47.622012 L 235.954530 49.143133 L 236.939106 50.664254" stroke="none" fill="#2288CC" stroke-width="1px"></path><path d="M 250.862948 60.154019 L 247.615351 62.256091 L 244.367753 64.358163 L 242.203840 83.154768 L 240.039927 101.951373 L 246.671697 101.951373 L 253.303466 101.951373 L 255.661945 81.464689 L 258.020424 60.978006 L 254.441686 60.566013 L 250.862948 60.154019" stroke="none" fill="#2288CC" stroke-width="1px"></path><path d="M 222.965476 80.656615 L 193.905868 80.656614 L 205.834227 93.833125 L 222.965476 93.833125 L 222.965476 80.656615" stroke="none" fill="#2288CC" stroke-width="1px"></path><path d="M 192.951452 104.712945 L 201.838327 104.712945 L 210.725202 104.712945 L 200.628931 93.560227 L 190.532659 82.407509 L 189.509017 82.407509 L 188.485374 82.407509 L 184.971960 87.212481 L 181.458546 92.017453 L 187.204999 98.365199 L 192.951452 104.712945" stroke="none" fill="#2288CC" stroke-width="1px"></path><path d="M 166.716328 81.926174 L 153.539655 81.926174 L 153.650422 104.231611 L 165.346967 104.231611 L 166.817111 102.221031 L 166.716328 81.926174" stroke="none" fill="#2288CC" stroke-width="1px"></path><path d="M 106.139520 81.939507 L 99.551265 81.939507 L 92.963009 81.939507 L 92.963009 93.092226 L 92.963009 104.244945 L 99.551265 104.244945 L 106.139520 104.244945 L 106.139520 93.092226 L 106.139520 81.939507" stroke="none" fill="#2288CC" stroke-width="1px"></path><path d="M 58.832882 95.911986 L 58.832882 89.044324 L 58.832882 82.176661 L 37.129379 75.789102 L 15.425876 69.401544 L 15.425876 76.269206 L 15.425876 83.136869 L 37.129379 89.524428 L 58.832882 95.911986" stroke="none" fill="#2288CC" stroke-width="1px"></path><path d="M 58.832882 25.420760 L 58.832882 18.832504 L 58.832882 12.244249 L 37.129379 12.244248 L 15.425876 12.244248 L 15.425876 18.832503 L 15.425876 25.420759 L 37.129379 25.420759 L 58.832882 25.420760" stroke="none" fill="#2288CC" stroke-width="1px"></path></g><g id="crv-desk"><path d="M 55.459383 220.180625 L 52.959383 220.180625 L 52.959383 226.180625 L 55.459383 226.180625 L 55.459383 220.180625" stroke="gray" fill="white" stroke-width="1px"></path><path d="M 55.459383 214.180625 L 52.959383 214.180625 L 52.959383 220.180625 L 55.459383 220.180625 L 55.459383 214.180625" stroke="gray" fill="white" stroke-width="1px"></path><path d="M 55.459383 208.180625 L 52.959383 208.180625 L 52.959383 214.180625 L 55.459383 214.180625 L 55.459383 208.180625" stroke="gray" fill="white" stroke-width="1px"></path><path d="M 43.459383 220.180625 L 40.959383 220.180625 L 40.959383 226.180625 L 43.459383 226.180625 L 43.459383 220.180625" stroke="gray" fill="white" stroke-width="1px"></path><path d="M 43.459383 214.180625 L 40.959383 214.180625 L 40.959383 220.180625 L 43.459383 220.180625 L 43.459383 214.180625" stroke="gray" fill="white" stroke-width="1px"></path><path d="M 31.459383 220.180625 L 28.959383 220.180625 L 28.959383 226.180625 L 31.459383 226.180625 L 31.459383 220.180625" stroke="gray" fill="white" stroke-width="1px"></path><path d="M 31.459383 214.180625 L 28.959383 214.180625 L 28.959383 220.180625 L 31.459383 220.180625 L 31.459383 214.180625" stroke="gray" fill="white" stroke-width="1px"></path><path d="M 19.459383 220.180625 L 16.959383 220.180625 L 16.959383 226.180625 L 19.459383 226.180625 L 19.459383 220.180625" stroke="gray" fill="white" stroke-width="1px"></path><path d="M 115.459383 214.123437 L 112.959383 214.123437 L 112.959383 220.123437 L 115.459383 220.123437 L 115.459383 214.123437" stroke="gray" fill="white" stroke-width="1px"></path><path d="M 115.459383 208.123437 L 112.959383 208.123437 L 112.959383 214.123437 L 115.459383 214.123437 L 115.459383 208.123437" stroke="gray" fill="white" stroke-width="1px"></path><path d="M 115.459383 202.123437 L 112.959383 202.123437 L 112.959383 208.123437 L 115.459383 208.123437 L 115.459383 202.123437" stroke="gray" fill="white" stroke-width="1px"></path><path d="M 115.459383 196.123437 L 112.959383 196.123437 L 112.959383 202.123437 L 115.459383 202.123437 L 115.459383 196.123437" stroke="gray" fill="white" stroke-width="1px"></path><path d="M 163.459383 214.123437 L 160.959383 214.123437 L 160.959383 220.123437 L 163.459383 220.123437 L 163.459383 214.123437" stroke="gray" fill="white" stroke-width="1px"></path><path d="M 163.459383 208.123437 L 160.959383 208.123437 L 160.959383 214.123437 L 163.459383 214.123437 L 163.459383 208.123437" stroke="gray" fill="white" stroke-width="1px"></path><path d="M 163.459383 202.123437 L 160.959383 202.123437 L 160.959383 208.123437 L 163.459383 208.123437 L 163.459383 202.123437" stroke="gray" fill="white" stroke-width="1px"></path><path d="M 163.459383 196.123437 L 160.959383 196.123437 L 160.959383 202.123437 L 163.459383 202.123437 L 163.459383 196.123437" stroke="gray" fill="white" stroke-width="1px"></path><path d="M 151.459383 214.123437 L 148.959383 214.123437 L 148.959383 220.123437 L 151.459383 220.123437 L 151.459383 214.123437" stroke="gray" fill="white" stroke-width="1px"></path><path d="M 151.459383 208.123437 L 148.959383 208.123437 L 148.959383 214.123437 L 151.459383 214.123437 L 151.459383 208.123437" stroke="gray" fill="white" stroke-width="1px"></path><path d="M 151.459383 202.123437 L 148.959383 202.123437 L 148.959383 208.123437 L 151.459383 208.123437 L 151.459383 202.123437" stroke="gray" fill="white" stroke-width="1px"></path><path d="M 151.459383 196.123437 L 148.959383 196.123437 L 148.959383 202.123437 L 151.459383 202.123437 L 151.459383 196.123437" stroke="gray" fill="white" stroke-width="1px"></path><path d="M 223.459383 214.123437 L 220.959383 214.123437 L 220.959383 220.123437 L 223.459383 220.123437 L 223.459383 214.123437" stroke="gray" fill="white" stroke-width="1px"></path><path d="M 211.459383 214.123437 L 208.959383 214.123437 L 208.959383 220.123437 L 211.459383 220.123437 L 211.459383 214.123437" stroke="gray" fill="white" stroke-width="1px"></path><path d="M 199.459383 214.123437 L 196.959383 214.123437 L 196.959383 220.123437 L 199.459383 220.123437 L 199.459383 214.123437" stroke="gray" fill="white" stroke-width="1px"></path><path d="M 187.459383 214.123437 L 184.959383 214.123437 L 184.959383 220.123437 L 187.459383 220.123437 L 187.459383 214.123437" stroke="gray" fill="white" stroke-width="1px"></path><path d="M 271.459383 214.123437 L 268.959383 214.123437 L 268.959383 220.123437 L 271.459383 220.123437 L 271.459383 214.123437" stroke="gray" fill="white" stroke-width="1px"></path><path d="M 271.459383 208.123437 L 268.959383 208.123437 L 268.959383 214.123437 L 271.459383 214.123437 L 271.459383 208.123437" stroke="gray" fill="white" stroke-width="1px"></path><path d="M 271.459383 202.123437 L 268.959383 202.123437 L 268.959383 208.123437 L 271.459383 208.123437 L 271.459383 202.123437" stroke="gray" fill="white" stroke-width="1px"></path><path d="M 271.459383 196.123437 L 268.959383 196.123437 L 268.959383 202.123437 L 271.459383 202.123437 L 271.459383 196.123437" stroke="gray" fill="white" stroke-width="1px"></path><path d="M 271.459383 190.123437 L 268.959383 190.123437 L 268.959383 196.123437 L 271.459383 196.123437 L 271.459383 190.123437" stroke="gray" fill="white" stroke-width="1px"></path><path d="M 271.459383 184.123437 L 268.959383 184.123437 L 268.959383 190.123437 L 271.459383 190.123437 L 271.459383 184.123437" stroke="gray" fill="white" stroke-width="1px"></path><path d="M 259.459383 214.123437 L 256.959383 214.123437 L 256.959383 220.123437 L 259.459383 220.123437 L 259.459383 214.123437" stroke="gray" fill="white" stroke-width="1px"></path><path d="M 259.459383 208.123437 L 256.959383 208.123437 L 256.959383 214.123437 L 259.459383 214.123437 L 259.459383 208.123437" stroke="gray" fill="white" stroke-width="1px"></path><path d="M 259.459383 202.123437 L 256.959383 202.123437 L 256.959383 208.123437 L 259.459383 208.123437 L 259.459383 202.123437" stroke="gray" fill="white" stroke-width="1px"></path><path d="M 259.459383 196.123437 L 256.959383 196.123437 L 256.959383 202.123437 L 259.459383 202.123437 L 259.459383 196.123437" stroke="gray" fill="white" stroke-width="1px"></path><path d="M 259.459383 190.123437 L 256.959383 190.123437 L 256.959383 196.123437 L 259.459383 196.123437 L 259.459383 190.123437" stroke="gray" fill="white" stroke-width="1px"></path><path d="M 259.459383 184.123437 L 256.959383 184.123437 L 256.959383 190.123437 L 259.459383 190.123437 L 259.459383 184.123437" stroke="gray" fill="white" stroke-width="1px"></path><path d="M 247.459383 184.049148 L 244.959383 184.049148 L 244.959383 190.049148 L 247.459383 190.049148 L 247.459383 184.049148" stroke="gray" fill="white" stroke-width="1px"></path><path d="M 55.459383 220.180625 L 57.959383 220.180625 L 57.959383 226.180625 L 55.459383 226.180625 L 55.459383 220.180625" stroke="gray" fill="white" stroke-width="1px"></path><path d="M 55.459383 214.180625 L 57.959383 214.180625 L 57.959383 220.180625 L 55.459383 220.180625 L 55.459383 214.180625" stroke="gray" fill="white" stroke-width="1px"></path><path d="M 55.459383 208.180625 L 57.959383 208.180625 L 57.959383 214.180625 L 55.459383 214.180625 L 55.459383 208.180625" stroke="gray" fill="white" stroke-width="1px"></path><path d="M 43.459383 220.180625 L 45.959383 220.180625 L 45.959383 226.180625 L 43.459383 226.180625 L 43.459383 220.180625" stroke="gray" fill="white" stroke-width="1px"></path><path d="M 43.459383 214.180625 L 45.959383 214.180625 L 45.959383 220.180625 L 43.459383 220.180625 L 43.459383 214.180625" stroke="gray" fill="white" stroke-width="1px"></path><path d="M 31.459383 220.180625 L 33.959383 220.180625 L 33.959383 226.180625 L 31.459383 226.180625 L 31.459383 220.180625" stroke="gray" fill="white" stroke-width="1px"></path><path d="M 31.459383 214.180625 L 33.959383 214.180625 L 33.959383 220.180625 L 31.459383 220.180625 L 31.459383 214.180625" stroke="gray" fill="white" stroke-width="1px"></path><path d="M 19.459383 220.180625 L 21.959383 220.180625 L 21.959383 226.180625 L 19.459383 226.180625 L 19.459383 220.180625" stroke="gray" fill="white" stroke-width="1px"></path><path d="M 115.459383 214.123437 L 117.959383 214.123437 L 117.959383 220.123437 L 115.459383 220.123437 L 115.459383 214.123437" stroke="gray" fill="white" stroke-width="1px"></path><path d="M 115.459383 208.123437 L 117.959383 208.123437 L 117.959383 214.123437 L 115.459383 214.123437 L 115.459383 208.123437" stroke="gray" fill="white" stroke-width="1px"></path><path d="M 115.459383 202.123437 L 117.959383 202.123437 L 117.959383 208.123437 L 115.459383 208.123437 L 115.459383 202.123437" stroke="gray" fill="white" stroke-width="1px"></path><path d="M 115.459383 196.123437 L 117.959383 196.123437 L 117.959383 202.123437 L 115.459383 202.123437 L 115.459383 196.123437" stroke="gray" fill="white" stroke-width="1px"></path><path d="M 163.459383 214.123437 L 165.959383 214.123437 L 165.959383 220.123437 L 163.459383 220.123437 L 163.459383 214.123437" stroke="gray" fill="white" stroke-width="1px"></path><path d="M 163.459383 208.123437 L 165.959383 208.123437 L 165.959383 214.123437 L 163.459383 214.123437 L 163.459383 208.123437" stroke="gray" fill="white" stroke-width="1px"></path><path d="M 163.459383 202.123437 L 165.959383 202.123437 L 165.959383 208.123437 L 163.459383 208.123437 L 163.459383 202.123437" stroke="gray" fill="white" stroke-width="1px"></path><path d="M 163.459383 196.123437 L 165.959383 196.123437 L 165.959383 202.123437 L 163.459383 202.123437 L 163.459383 196.123437" stroke="gray" fill="white" stroke-width="1px"></path><path d="M 151.459383 214.123437 L 153.959383 214.123437 L 153.959383 220.123437 L 151.459383 220.123437 L 151.459383 214.123437" stroke="gray" fill="white" stroke-width="1px"></path><path d="M 151.459383 208.123437 L 153.959383 208.123437 L 153.959383 214.123437 L 151.459383 214.123437 L 151.459383 208.123437" stroke="gray" fill="white" stroke-width="1px"></path><path d="M 151.459383 202.123437 L 153.959383 202.123437 L 153.959383 208.123437 L 151.459383 208.123437 L 151.459383 202.123437" stroke="gray" fill="white" stroke-width="1px"></path><path d="M 151.459383 196.123437 L 153.959383 196.123437 L 153.959383 202.123437 L 151.459383 202.123437 L 151.459383 196.123437" stroke="gray" fill="white" stroke-width="1px"></path><path d="M 223.459383 214.123437 L 225.959383 214.123437 L 225.959383 220.123437 L 223.459383 220.123437 L 223.459383 214.123437" stroke="gray" fill="white" stroke-width="1px"></path><path d="M 211.459383 214.123437 L 213.959383 214.123437 L 213.959383 220.123437 L 211.459383 220.123437 L 211.459383 214.123437" stroke="gray" fill="white" stroke-width="1px"></path><path d="M 199.459383 214.123437 L 201.959383 214.123437 L 201.959383 220.123437 L 199.459383 220.123437 L 199.459383 214.123437" stroke="gray" fill="white" stroke-width="1px"></path><path d="M 187.459383 214.123437 L 189.959383 214.123437 L 189.959383 220.123437 L 187.459383 220.123437 L 187.459383 214.123437" stroke="gray" fill="white" stroke-width="1px"></path><path d="M 271.459383 214.123437 L 273.959383 214.123437 L 273.959383 220.123437 L 271.459383 220.123437 L 271.459383 214.123437" stroke="gray" fill="white" stroke-width="1px"></path><path d="M 271.459383 208.123437 L 273.959383 208.123437 L 273.959383 214.123437 L 271.459383 214.123437 L 271.459383 208.123437" stroke="gray" fill="white" stroke-width="1px"></path><path d="M 271.459383 202.123437 L 273.959383 202.123437 L 273.959383 208.123437 L 271.459383 208.123437 L 271.459383 202.123437" stroke="gray" fill="white" stroke-width="1px"></path><path d="M 271.459383 196.123437 L 273.959383 196.123437 L 273.959383 202.123437 L 271.459383 202.123437 L 271.459383 196.123437" stroke="gray" fill="white" stroke-width="1px"></path><path d="M 271.459383 190.123437 L 273.959383 190.123437 L 273.959383 196.123437 L 271.459383 196.123437 L 271.459383 190.123437" stroke="gray" fill="white" stroke-width="1px"></path><path d="M 271.459383 184.123437 L 273.959383 184.123437 L 273.959383 190.123437 L 271.459383 190.123437 L 271.459383 184.123437" stroke="gray" fill="white" stroke-width="1px"></path><path d="M 259.459383 214.123437 L 261.959383 214.123437 L 261.959383 220.123437 L 259.459383 220.123437 L 259.459383 214.123437" stroke="gray" fill="white" stroke-width="1px"></path><path d="M 259.459383 208.123437 L 261.959383 208.123437 L 261.959383 214.123437 L 259.459383 214.123437 L 259.459383 208.123437" stroke="gray" fill="white" stroke-width="1px"></path><path d="M 259.459383 202.123437 L 261.959383 202.123437 L 261.959383 208.123437 L 259.459383 208.123437 L 259.459383 202.123437" stroke="gray" fill="white" stroke-width="1px"></path><path d="M 259.459383 196.123437 L 261.959383 196.123437 L 261.959383 202.123437 L 259.459383 202.123437 L 259.459383 196.123437" stroke="gray" fill="white" stroke-width="1px"></path><path d="M 259.459383 190.123437 L 261.959383 190.123437 L 261.959383 196.123437 L 259.459383 196.123437 L 259.459383 190.123437" stroke="gray" fill="white" stroke-width="1px"></path><path d="M 259.459383 184.123437 L 261.959383 184.123437 L 261.959383 190.123437 L 259.459383 190.123437 L 259.459383 184.123437" stroke="gray" fill="white" stroke-width="1px"></path><path d="M 247.459383 184.049148 L 249.959383 184.049148 L 249.959383 190.049148 L 247.459383 190.049148 L 247.459383 184.049148" stroke="gray" fill="white" stroke-width="1px"></path><path d="M 22.000000 184.123437 L 22.000000 181.623437 L 16.000000 181.623437 L 16.000000 184.123437 L 22.000000 184.123437" stroke="gray" fill="white" stroke-width="1px"></path><path d="M 28.000000 184.123437 L 28.000000 181.623437 L 22.000000 181.623437 L 22.000000 184.123437 L 28.000000 184.123437" stroke="gray" fill="white" stroke-width="1px"></path><path d="M 34.000000 184.123437 L 34.000000 181.623437 L 28.000000 181.623437 L 28.000000 184.123437 L 34.000000 184.123437" stroke="gray" fill="white" stroke-width="1px"></path><path d="M 22.000000 172.123437 L 22.000000 169.623437 L 16.000000 169.623437 L 16.000000 172.123437 L 22.000000 172.123437" stroke="gray" fill="white" stroke-width="1px"></path><path d="M 28.000000 172.123437 L 28.000000 169.623437 L 22.000000 169.623437 L 22.000000 172.123437 L 28.000000 172.123437" stroke="gray" fill="white" stroke-width="1px"></path><path d="M 34.000000 172.123437 L 34.000000 169.623437 L 28.000000 169.623437 L 28.000000 172.123437 L 34.000000 172.123437" stroke="gray" fill="white" stroke-width="1px"></path><path d="M 40.000000 172.123437 L 40.000000 169.623437 L 34.000000 169.623437 L 34.000000 172.123437 L 40.000000 172.123437" stroke="gray" fill="white" stroke-width="1px"></path><path d="M 22.000000 160.123437 L 22.000000 157.623437 L 16.000000 157.623437 L 16.000000 160.123437 L 22.000000 160.123437" stroke="gray" fill="white" stroke-width="1px"></path><path d="M 28.000000 160.123437 L 28.000000 157.623437 L 22.000000 157.623437 L 22.000000 160.123437 L 28.000000 160.123437" stroke="gray" fill="white" stroke-width="1px"></path><path d="M 34.000000 160.123437 L 34.000000 157.623437 L 28.000000 157.623437 L 28.000000 160.123437 L 34.000000 160.123437" stroke="gray" fill="white" stroke-width="1px"></path><path d="M 40.000000 160.123437 L 40.000000 157.623437 L 34.000000 157.623437 L 34.000000 160.123437 L 40.000000 160.123437" stroke="gray" fill="white" stroke-width="1px"></path><path d="M 22.000000 148.123437 L 22.000000 145.623437 L 16.000000 145.623437 L 16.000000 148.123437 L 22.000000 148.123437" stroke="gray" fill="white" stroke-width="1px"></path><path d="M 28.000000 148.123437 L 28.000000 145.623437 L 22.000000 145.623437 L 22.000000 148.123437 L 28.000000 148.123437" stroke="gray" fill="white" stroke-width="1px"></path><path d="M 34.000000 148.123437 L 34.000000 145.623437 L 28.000000 145.623437 L 28.000000 148.123437 L 34.000000 148.123437" stroke="gray" fill="white" stroke-width="1px"></path><path d="M 40.000000 148.123437 L 40.000000 145.623437 L 34.000000 145.623437 L 34.000000 148.123437 L 40.000000 148.123437" stroke="gray" fill="white" stroke-width="1px"></path><path d="M 22.000000 136.123437 L 22.000000 133.623437 L 16.000000 133.623437 L 16.000000 136.123437 L 22.000000 136.123437" stroke="gray" fill="white" stroke-width="1px"></path><path d="M 28.000000 136.123437 L 28.000000 133.623437 L 22.000000 133.623437 L 22.000000 136.123437 L 28.000000 136.123437" stroke="gray" fill="white" stroke-width="1px"></path><path d="M 34.000000 136.123437 L 34.000000 133.623437 L 28.000000 133.623437 L 28.000000 136.123437 L 34.000000 136.123437" stroke="gray" fill="white" stroke-width="1px"></path><path d="M 40.000000 136.123437 L 40.000000 133.623437 L 34.000000 133.623437 L 34.000000 136.123437 L 40.000000 136.123437" stroke="gray" fill="white" stroke-width="1px"></path><path d="M 251.737652 148.123437 L 251.737652 145.623437 L 245.737652 145.623437 L 245.737652 148.123437 L 251.737652 148.123437" stroke="gray" fill="white" stroke-width="1px"></path><path d="M 257.737652 148.123437 L 257.737652 145.623437 L 251.737652 145.623437 L 251.737652 148.123437 L 257.737652 148.123437" stroke="gray" fill="white" stroke-width="1px"></path><path d="M 263.737652 148.123437 L 263.737652 145.623437 L 257.737652 145.623437 L 257.737652 148.123437 L 263.737652 148.123437" stroke="gray" fill="white" stroke-width="1px"></path><path d="M 269.737652 148.123437 L 269.737652 145.623437 L 263.737652 145.623437 L 263.737652 148.123437 L 269.737652 148.123437" stroke="gray" fill="white" stroke-width="1px"></path><path d="M 275.737652 148.123437 L 275.737652 145.623437 L 269.737652 145.623437 L 269.737652 148.123437 L 275.737652 148.123437" stroke="gray" fill="white" stroke-width="1px"></path><path d="M 251.737652 136.123437 L 251.737652 133.623437 L 245.737652 133.623437 L 245.737652 136.123437 L 251.737652 136.123437" stroke="gray" fill="white" stroke-width="1px"></path><path d="M 257.737652 136.123437 L 257.737652 133.623437 L 251.737652 133.623437 L 251.737652 136.123437 L 257.737652 136.123437" stroke="gray" fill="white" stroke-width="1px"></path><path d="M 263.737652 136.123437 L 263.737652 133.623437 L 257.737652 133.623437 L 257.737652 136.123437 L 263.737652 136.123437" stroke="gray" fill="white" stroke-width="1px"></path><path d="M 269.737652 136.123437 L 269.737652 133.623437 L 263.737652 133.623437 L 263.737652 136.123437 L 269.737652 136.123437" stroke="gray" fill="white" stroke-width="1px"></path><path d="M 275.737652 136.123437 L 275.737652 133.623437 L 269.737652 133.623437 L 269.737652 136.123437 L 275.737652 136.123437" stroke="gray" fill="white" stroke-width="1px"></path><path d="M 22.000000 184.123437 L 22.000000 186.623437 L 16.000000 186.623437 L 16.000000 184.123437 L 22.000000 184.123437" stroke="gray" fill="white" stroke-width="1px"></path><path d="M 28.000000 184.123437 L 28.000000 186.623437 L 22.000000 186.623437 L 22.000000 184.123437 L 28.000000 184.123437" stroke="gray" fill="white" stroke-width="1px"></path><path d="M 34.000000 184.123437 L 34.000000 186.623437 L 28.000000 186.623437 L 28.000000 184.123437 L 34.000000 184.123437" stroke="gray" fill="white" stroke-width="1px"></path><path d="M 22.000000 172.123437 L 22.000000 174.623437 L 16.000000 174.623437 L 16.000000 172.123437 L 22.000000 172.123437" stroke="gray" fill="white" stroke-width="1px"></path><path d="M 28.000000 172.123437 L 28.000000 174.623437 L 22.000000 174.623437 L 22.000000 172.123437 L 28.000000 172.123437" stroke="gray" fill="white" stroke-width="1px"></path><path d="M 34.000000 172.123437 L 34.000000 174.623437 L 28.000000 174.623437 L 28.000000 172.123437 L 34.000000 172.123437" stroke="gray" fill="white" stroke-width="1px"></path><path d="M 40.000000 172.123437 L 40.000000 174.623437 L 34.000000 174.623437 L 34.000000 172.123437 L 40.000000 172.123437" stroke="gray" fill="white" stroke-width="1px"></path><path d="M 22.000000 160.123437 L 22.000000 162.623437 L 16.000000 162.623437 L 16.000000 160.123437 L 22.000000 160.123437" stroke="gray" fill="white" stroke-width="1px"></path><path d="M 28.000000 160.123437 L 28.000000 162.623437 L 22.000000 162.623437 L 22.000000 160.123437 L 28.000000 160.123437" stroke="gray" fill="white" stroke-width="1px"></path><path d="M 34.000000 160.123437 L 34.000000 162.623437 L 28.000000 162.623437 L 28.000000 160.123437 L 34.000000 160.123437" stroke="gray" fill="white" stroke-width="1px"></path><path d="M 40.000000 160.123437 L 40.000000 162.623437 L 34.000000 162.623437 L 34.000000 160.123437 L 40.000000 160.123437" stroke="gray" fill="white" stroke-width="1px"></path><path d="M 22.000000 148.123437 L 22.000000 150.623437 L 16.000000 150.623437 L 16.000000 148.123437 L 22.000000 148.123437" stroke="gray" fill="white" stroke-width="1px"></path><path d="M 28.000000 148.123437 L 28.000000 150.623437 L 22.000000 150.623437 L 22.000000 148.123437 L 28.000000 148.123437" stroke="gray" fill="white" stroke-width="1px"></path><path d="M 34.000000 148.123437 L 34.000000 150.623437 L 28.000000 150.623437 L 28.000000 148.123437 L 34.000000 148.123437" stroke="gray" fill="white" stroke-width="1px"></path><path d="M 40.000000 148.123437 L 40.000000 150.623437 L 34.000000 150.623437 L 34.000000 148.123437 L 40.000000 148.123437" stroke="gray" fill="white" stroke-width="1px"></path><path d="M 22.000000 136.123437 L 22.000000 138.623437 L 16.000000 138.623437 L 16.000000 136.123437 L 22.000000 136.123437" stroke="gray" fill="white" stroke-width="1px"></path><path d="M 28.000000 136.123437 L 28.000000 138.623437 L 22.000000 138.623437 L 22.000000 136.123437 L 28.000000 136.123437" stroke="gray" fill="white" stroke-width="1px"></path><path d="M 34.000000 136.123437 L 34.000000 138.623437 L 28.000000 138.623437 L 28.000000 136.123437 L 34.000000 136.123437" stroke="gray" fill="white" stroke-width="1px"></path><path d="M 40.000000 136.123437 L 40.000000 138.623437 L 34.000000 138.623437 L 34.000000 136.123437 L 40.000000 136.123437" stroke="gray" fill="white" stroke-width="1px"></path><path d="M 251.737652 148.123437 L 251.737652 150.623437 L 245.737652 150.623437 L 245.737652 148.123437 L 251.737652 148.123437" stroke="gray" fill="white" stroke-width="1px"></path><path d="M 257.737652 148.123437 L 257.737652 150.623437 L 251.737652 150.623437 L 251.737652 148.123437 L 257.737652 148.123437" stroke="gray" fill="white" stroke-width="1px"></path><path d="M 263.737652 148.123437 L 263.737652 150.623437 L 257.737652 150.623437 L 257.737652 148.123437 L 263.737652 148.123437" stroke="gray" fill="white" stroke-width="1px"></path><path d="M 269.737652 148.123437 L 269.737652 150.623437 L 263.737652 150.623437 L 263.737652 148.123437 L 269.737652 148.123437" stroke="gray" fill="white" stroke-width="1px"></path><path d="M 275.737652 148.123437 L 275.737652 150.623437 L 269.737652 150.623437 L 269.737652 148.123437 L 275.737652 148.123437" stroke="gray" fill="white" stroke-width="1px"></path><path d="M 251.737652 136.123437 L 251.737652 138.623437 L 245.737652 138.623437 L 245.737652 136.123437 L 251.737652 136.123437" stroke="gray" fill="white" stroke-width="1px"></path><path d="M 257.737652 136.123437 L 257.737652 138.623437 L 251.737652 138.623437 L 251.737652 136.123437 L 257.737652 136.123437" stroke="gray" fill="white" stroke-width="1px"></path><path d="M 263.737652 136.123437 L 263.737652 138.623437 L 257.737652 138.623437 L 257.737652 136.123437 L 263.737652 136.123437" stroke="gray" fill="white" stroke-width="1px"></path><path d="M 269.737652 136.123437 L 269.737652 138.623437 L 263.737652 138.623437 L 263.737652 136.123437 L 269.737652 136.123437" stroke="gray" fill="white" stroke-width="1px"></path><path d="M 275.737652 136.123437 L 275.737652 138.623437 L 269.737652 138.623437 L 269.737652 136.123437 L 275.737652 136.123437" stroke="gray" fill="white" stroke-width="1px"></path><path d="M 271.459383 12.003505 L 268.959383 12.003505 L 268.959383 18.003505 L 271.459383 18.003505 L 271.459383 12.003505" stroke="gray" fill="white" stroke-width="1px"></path><path d="M 259.459383 19.770743 L 256.959383 19.770743 L 256.959383 25.770743 L 259.459383 25.770743 L 259.459383 19.770743" stroke="gray" fill="white" stroke-width="1px"></path><path d="M 259.459383 13.770743 L 256.959383 13.770743 L 256.959383 19.770743 L 259.459383 19.770743 L 259.459383 13.770743" stroke="gray" fill="white" stroke-width="1px"></path><path d="M 247.459383 27.537981 L 244.959383 27.537981 L 244.959383 33.537981 L 247.459383 33.537981 L 247.459383 27.537981" stroke="gray" fill="white" stroke-width="1px"></path><path d="M 247.459383 21.537981 L 244.959383 21.537981 L 244.959383 27.537981 L 247.459383 27.537981 L 247.459383 21.537981" stroke="gray" fill="white" stroke-width="1px"></path><path d="M 247.459383 15.537981 L 244.959383 15.537981 L 244.959383 21.537981 L 247.459383 21.537981 L 247.459383 15.537981" stroke="gray" fill="white" stroke-width="1px"></path><path d="M 235.459383 35.305219 L 232.959383 35.305219 L 232.959383 41.305219 L 235.459383 41.305219 L 235.459383 35.305219" stroke="gray" fill="white" stroke-width="1px"></path><path d="M 235.459383 29.305219 L 232.959383 29.305219 L 232.959383 35.305219 L 235.459383 35.305219 L 235.459383 29.305219" stroke="gray" fill="white" stroke-width="1px"></path><path d="M 235.459383 23.305219 L 232.959383 23.305219 L 232.959383 29.305219 L 235.459383 29.305219 L 235.459383 23.305219" stroke="gray" fill="white" stroke-width="1px"></path><path d="M 235.459383 17.305219 L 232.959383 17.305219 L 232.959383 23.305219 L 235.459383 23.305219 L 235.459383 17.305219" stroke="gray" fill="white" stroke-width="1px"></path><path d="M 175.459383 101.033125 L 172.959383 101.033125 L 172.959383 107.033125 L 175.459383 107.033125 L 175.459383 101.033125" stroke="gray" fill="white" stroke-width="1px"></path><path d="M 175.459383 88.979445 L 172.959383 88.979445 L 172.959383 94.979445 L 175.459383 94.979445 L 175.459383 88.979445" stroke="gray" fill="white" stroke-width="1px"></path><path d="M 175.459383 82.979445 L 172.959383 82.979445 L 172.959383 88.979445 L 175.459383 88.979445 L 175.459383 82.979445" stroke="gray" fill="white" stroke-width="1px"></path><path d="M 139.459383 101.033125 L 136.959383 101.033125 L 136.959383 107.033125 L 139.459383 107.033125 L 139.459383 101.033125" stroke="gray" fill="white" stroke-width="1px"></path><path d="M 139.459383 95.033125 L 136.959383 95.033125 L 136.959383 101.033125 L 139.459383 101.033125 L 139.459383 95.033125" stroke="gray" fill="white" stroke-width="1px"></path><path d="M 139.459383 89.033125 L 136.959383 89.033125 L 136.959383 95.033125 L 139.459383 95.033125 L 139.459383 89.033125" stroke="gray" fill="white" stroke-width="1px"></path><path d="M 139.459383 83.033125 L 136.959383 83.033125 L 136.959383 89.033125 L 139.459383 89.033125 L 139.459383 83.033125" stroke="gray" fill="white" stroke-width="1px"></path><path d="M 127.459383 101.033125 L 124.959383 101.033125 L 124.959383 107.033125 L 127.459383 107.033125 L 127.459383 101.033125" stroke="gray" fill="white" stroke-width="1px"></path><path d="M 127.459383 95.033125 L 124.959383 95.033125 L 124.959383 101.033125 L 127.459383 101.033125 L 127.459383 95.033125" stroke="gray" fill="white" stroke-width="1px"></path><path d="M 127.459383 89.033125 L 124.959383 89.033125 L 124.959383 95.033125 L 127.459383 95.033125 L 127.459383 89.033125" stroke="gray" fill="white" stroke-width="1px"></path><path d="M 127.459383 83.033125 L 124.959383 83.033125 L 124.959383 89.033125 L 127.459383 89.033125 L 127.459383 83.033125" stroke="gray" fill="white" stroke-width="1px"></path><path d="M 115.459383 101.033125 L 112.959383 101.033125 L 112.959383 107.033125 L 115.459383 107.033125 L 115.459383 101.033125" stroke="gray" fill="white" stroke-width="1px"></path><path d="M 115.459383 95.033125 L 112.959383 95.033125 L 112.959383 101.033125 L 115.459383 101.033125 L 115.459383 95.033125" stroke="gray" fill="white" stroke-width="1px"></path><path d="M 115.459383 89.033125 L 112.959383 89.033125 L 112.959383 95.033125 L 115.459383 95.033125 L 115.459383 89.033125" stroke="gray" fill="white" stroke-width="1px"></path><path d="M 115.459383 83.033125 L 112.959383 83.033125 L 112.959383 89.033125 L 115.459383 89.033125 L 115.459383 83.033125" stroke="gray" fill="white" stroke-width="1px"></path><path d="M 55.459383 107.090312 L 52.959383 107.090312 L 52.959383 113.090312 L 55.459383 113.090312 L 55.459383 107.090312" stroke="gray" fill="white" stroke-width="1px"></path><path d="M 43.459383 107.090312 L 40.959383 107.090312 L 40.959383 113.090312 L 43.459383 113.090312 L 43.459383 107.090312" stroke="gray" fill="white" stroke-width="1px"></path><path d="M 43.459383 101.090312 L 40.959383 101.090312 L 40.959383 107.090312 L 43.459383 107.090312 L 43.459383 101.090312" stroke="gray" fill="white" stroke-width="1px"></path><path d="M 31.459383 107.090312 L 28.959383 107.090312 L 28.959383 113.090312 L 31.459383 113.090312 L 31.459383 107.090312" stroke="gray" fill="white" stroke-width="1px"></path><path d="M 31.459383 101.090312 L 28.959383 101.090312 L 28.959383 107.090312 L 31.459383 107.090312 L 31.459383 101.090312" stroke="gray" fill="white" stroke-width="1px"></path><path d="M 31.459383 95.090312 L 28.959383 95.090312 L 28.959383 101.090312 L 31.459383 101.090312 L 31.459383 95.090312" stroke="gray" fill="white" stroke-width="1px"></path><path d="M 19.459383 107.090312 L 16.959383 107.090312 L 16.959383 113.090312 L 19.459383 113.090312 L 19.459383 107.090312" stroke="gray" fill="white" stroke-width="1px"></path><path d="M 19.459383 101.090312 L 16.959383 101.090312 L 16.959383 107.090312 L 19.459383 107.090312 L 19.459383 101.090312" stroke="gray" fill="white" stroke-width="1px"></path><path d="M 19.459383 95.090312 L 16.959383 95.090312 L 16.959383 101.090312 L 19.459383 101.090312 L 19.459383 95.090312" stroke="gray" fill="white" stroke-width="1px"></path><path d="M 271.459383 12.003505 L 273.959383 12.003505 L 273.959383 18.003505 L 271.459383 18.003505 L 271.459383 12.003505" stroke="gray" fill="white" stroke-width="1px"></path><path d="M 259.459383 19.770743 L 261.959383 19.770743 L 261.959383 25.770743 L 259.459383 25.770743 L 259.459383 19.770743" stroke="gray" fill="white" stroke-width="1px"></path><path d="M 259.459383 13.770743 L 261.959383 13.770743 L 261.959383 19.770743 L 259.459383 19.770743 L 259.459383 13.770743" stroke="gray" fill="white" stroke-width="1px"></path><path d="M 247.459383 27.537981 L 249.959383 27.537981 L 249.959383 33.537981 L 247.459383 33.537981 L 247.459383 27.537981" stroke="gray" fill="white" stroke-width="1px"></path><path d="M 247.459383 21.537981 L 249.959383 21.537981 L 249.959383 27.537981 L 247.459383 27.537981 L 247.459383 21.537981" stroke="gray" fill="white" stroke-width="1px"></path><path d="M 247.459383 15.537981 L 249.959383 15.537981 L 249.959383 21.537981 L 247.459383 21.537981 L 247.459383 15.537981" stroke="gray" fill="white" stroke-width="1px"></path><path d="M 235.459383 35.305219 L 237.959383 35.305219 L 237.959383 41.305219 L 235.459383 41.305219 L 235.459383 35.305219" stroke="gray" fill="white" stroke-width="1px"></path><path d="M 235.459383 29.305219 L 237.959383 29.305219 L 237.959383 35.305219 L 235.459383 35.305219 L 235.459383 29.305219" stroke="gray" fill="white" stroke-width="1px"></path><path d="M 235.459383 23.305219 L 237.959383 23.305219 L 237.959383 29.305219 L 235.459383 29.305219 L 235.459383 23.305219" stroke="gray" fill="white" stroke-width="1px"></path><path d="M 235.459383 17.305219 L 237.959383 17.305219 L 237.959383 23.305219 L 235.459383 23.305219 L 235.459383 17.305219" stroke="gray" fill="white" stroke-width="1px"></path><path d="M 175.459383 101.033125 L 177.959383 101.033125 L 177.959383 107.033125 L 175.459383 107.033125 L 175.459383 101.033125" stroke="gray" fill="white" stroke-width="1px"></path><path d="M 175.459383 82.979445 L 177.959383 82.979445 L 177.959383 88.979445 L 175.459383 88.979445 L 175.459383 82.979445" stroke="gray" fill="white" stroke-width="1px"></path><path d="M 139.459383 101.033125 L 141.959383 101.033125 L 141.959383 107.033125 L 139.459383 107.033125 L 139.459383 101.033125" stroke="gray" fill="white" stroke-width="1px"></path><path d="M 139.459383 95.033125 L 141.959383 95.033125 L 141.959383 101.033125 L 139.459383 101.033125 L 139.459383 95.033125" stroke="gray" fill="white" stroke-width="1px"></path><path d="M 139.459383 89.033125 L 141.959383 89.033125 L 141.959383 95.033125 L 139.459383 95.033125 L 139.459383 89.033125" stroke="gray" fill="white" stroke-width="1px"></path><path d="M 139.459383 83.033125 L 141.959383 83.033125 L 141.959383 89.033125 L 139.459383 89.033125 L 139.459383 83.033125" stroke="gray" fill="white" stroke-width="1px"></path><path d="M 127.459383 101.033125 L 129.959383 101.033125 L 129.959383 107.033125 L 127.459383 107.033125 L 127.459383 101.033125" stroke="gray" fill="white" stroke-width="1px"></path><path d="M 127.459383 95.033125 L 129.959383 95.033125 L 129.959383 101.033125 L 127.459383 101.033125 L 127.459383 95.033125" stroke="gray" fill="white" stroke-width="1px"></path><path d="M 127.459383 89.033125 L 129.959383 89.033125 L 129.959383 95.033125 L 127.459383 95.033125 L 127.459383 89.033125" stroke="gray" fill="white" stroke-width="1px"></path><path d="M 127.459383 83.033125 L 129.959383 83.033125 L 129.959383 89.033125 L 127.459383 89.033125 L 127.459383 83.033125" stroke="gray" fill="white" stroke-width="1px"></path><path d="M 115.459383 101.033125 L 117.959383 101.033125 L 117.959383 107.033125 L 115.459383 107.033125 L 115.459383 101.033125" stroke="gray" fill="white" stroke-width="1px"></path><path d="M 115.459383 95.033125 L 117.959383 95.033125 L 117.959383 101.033125 L 115.459383 101.033125 L 115.459383 95.033125" stroke="gray" fill="white" stroke-width="1px"></path><path d="M 115.459383 89.033125 L 117.959383 89.033125 L 117.959383 95.033125 L 115.459383 95.033125 L 115.459383 89.033125" stroke="gray" fill="white" stroke-width="1px"></path><path d="M 115.459383 83.033125 L 117.959383 83.033125 L 117.959383 89.033125 L 115.459383 89.033125 L 115.459383 83.033125" stroke="gray" fill="white" stroke-width="1px"></path><path d="M 55.459383 107.090312 L 57.959383 107.090312 L 57.959383 113.090312 L 55.459383 113.090312 L 55.459383 107.090312" stroke="gray" fill="white" stroke-width="1px"></path><path d="M 43.459383 107.090312 L 45.959383 107.090312 L 45.959383 113.090312 L 43.459383 113.090312 L 43.459383 107.090312" stroke="gray" fill="white" stroke-width="1px"></path><path d="M 43.459383 101.090312 L 45.959383 101.090312 L 45.959383 107.090312 L 43.459383 107.090312 L 43.459383 101.090312" stroke="gray" fill="white" stroke-width="1px"></path><path d="M 31.459383 107.090312 L 33.959383 107.090312 L 33.959383 113.090312 L 31.459383 113.090312 L 31.459383 107.090312" stroke="gray" fill="white" stroke-width="1px"></path><path d="M 31.459383 101.090312 L 33.959383 101.090312 L 33.959383 107.090312 L 31.459383 107.090312 L 31.459383 101.090312" stroke="gray" fill="white" stroke-width="1px"></path><path d="M 31.459383 95.090312 L 33.959383 95.090312 L 33.959383 101.090312 L 31.459383 101.090312 L 31.459383 95.090312" stroke="gray" fill="white" stroke-width="1px"></path><path d="M 19.459383 107.090312 L 21.959383 107.090312 L 21.959383 113.090312 L 19.459383 113.090312 L 19.459383 107.090312" stroke="gray" fill="white" stroke-width="1px"></path><path d="M 19.459383 101.090312 L 21.959383 101.090312 L 21.959383 107.090312 L 19.459383 107.090312 L 19.459383 101.090312" stroke="gray" fill="white" stroke-width="1px"></path><path d="M 19.459383 95.090312 L 21.959383 95.090312 L 21.959383 101.090312 L 19.459383 101.090312 L 19.459383 95.090312" stroke="gray" fill="white" stroke-width="1px"></path><path d="M 265.382647 101.263579 L 265.382647 98.763579 L 259.382647 98.763579 L 259.382647 101.263579 L 265.382647 101.263579" stroke="gray" fill="white" stroke-width="1px"></path><path d="M 271.382647 101.263579 L 271.382647 98.763579 L 265.382647 98.763579 L 265.382647 101.263579 L 271.382647 101.263579" stroke="gray" fill="white" stroke-width="1px"></path><path d="M 277.382647 101.263579 L 277.382647 98.763579 L 271.382647 98.763579 L 271.382647 101.263579 L 277.382647 101.263579" stroke="gray" fill="white" stroke-width="1px"></path><path d="M 266.764117 89.263579 L 266.764117 86.763579 L 260.764117 86.763579 L 260.764117 89.263579 L 266.764117 89.263579" stroke="gray" fill="white" stroke-width="1px"></path><path d="M 272.764117 89.263579 L 272.764117 86.763579 L 266.764117 86.763579 L 266.764117 89.263579 L 272.764117 89.263579" stroke="gray" fill="white" stroke-width="1px"></path><path d="M 278.764117 89.263579 L 278.764117 86.763579 L 272.764117 86.763579 L 272.764117 89.263579 L 278.764117 89.263579" stroke="gray" fill="white" stroke-width="1px"></path><path d="M 268.145588 77.263579 L 268.145588 74.763579 L 262.145588 74.763579 L 262.145588 77.263579 L 268.145588 77.263579" stroke="gray" fill="white" stroke-width="1px"></path><path d="M 274.145588 77.263579 L 274.145588 74.763579 L 268.145588 74.763579 L 268.145588 77.263579 L 274.145588 77.263579" stroke="gray" fill="white" stroke-width="1px"></path><path d="M 269.527058 65.263579 L 269.527058 62.763579 L 263.527058 62.763579 L 263.527058 65.263579 L 269.527058 65.263579" stroke="gray" fill="white" stroke-width="1px"></path><path d="M 275.527058 65.263579 L 275.527058 62.763579 L 269.527058 62.763579 L 269.527058 65.263579 L 275.527058 65.263579" stroke="gray" fill="white" stroke-width="1px"></path><path d="M 271.657177 53.263579 L 271.657177 50.763579 L 265.657177 50.763579 L 265.657177 53.263579 L 271.657177 53.263579" stroke="gray" fill="white" stroke-width="1px"></path><path d="M 277.657177 53.263579 L 277.657177 50.763579 L 271.657177 50.763579 L 271.657177 53.263579 L 277.657177 53.263579" stroke="gray" fill="white" stroke-width="1px"></path><path d="M 221.609725 101.263579 L 221.609725 98.763579 L 215.609725 98.763579 L 215.609725 101.263579 L 221.609725 101.263579" stroke="gray" fill="white" stroke-width="1px"></path><path d="M 227.609725 101.263579 L 227.609725 98.763579 L 221.609725 98.763579 L 221.609725 101.263579 L 227.609725 101.263579" stroke="gray" fill="white" stroke-width="1px"></path><path d="M 233.609725 101.263579 L 233.609725 98.763579 L 227.609725 98.763579 L 227.609725 101.263579 L 233.609725 101.263579" stroke="gray" fill="white" stroke-width="1px"></path><path d="M 234.965476 89.263579 L 234.965476 86.763579 L 228.965476 86.763579 L 228.965476 89.263579 L 234.965476 89.263579" stroke="gray" fill="white" stroke-width="1px"></path><path d="M 233.737654 77.263579 L 233.737654 74.763579 L 227.737654 74.763579 L 227.737654 77.263579 L 233.737654 77.263579" stroke="gray" fill="white" stroke-width="1px"></path><path d="M 233.737654 65.263579 L 233.737654 62.763579 L 227.737654 62.763579 L 227.737654 65.263579 L 233.737654 65.263579" stroke="gray" fill="white" stroke-width="1px"></path><path d="M 28.000000 65.263579 L 28.000000 62.763579 L 22.000000 62.763579 L 22.000000 65.263579 L 28.000000 65.263579" stroke="gray" fill="white" stroke-width="1px"></path><path d="M 34.000000 65.263579 L 34.000000 62.763579 L 28.000000 62.763579 L 28.000000 65.263579 L 34.000000 65.263579" stroke="gray" fill="white" stroke-width="1px"></path><path d="M 40.000000 65.263579 L 40.000000 62.763579 L 34.000000 62.763579 L 34.000000 65.263579 L 40.000000 65.263579" stroke="gray" fill="white" stroke-width="1px"></path><path d="M 46.000000 65.263579 L 46.000000 62.763579 L 40.000000 62.763579 L 40.000000 65.263579 L 46.000000 65.263579" stroke="gray" fill="white" stroke-width="1px"></path><path d="M 52.000000 65.263579 L 52.000000 62.763579 L 46.000000 62.763579 L 46.000000 65.263579 L 52.000000 65.263579" stroke="gray" fill="white" stroke-width="1px"></path><path d="M 58.000000 65.263579 L 58.000000 62.763579 L 52.000000 62.763579 L 52.000000 65.263579 L 58.000000 65.263579" stroke="gray" fill="white" stroke-width="1px"></path><path d="M 22.000000 53.263579 L 22.000000 50.763579 L 16.000000 50.763579 L 16.000000 53.263579 L 22.000000 53.263579" stroke="gray" fill="white" stroke-width="1px"></path><path d="M 28.000000 53.263579 L 28.000000 50.763579 L 22.000000 50.763579 L 22.000000 53.263579 L 28.000000 53.263579" stroke="gray" fill="white" stroke-width="1px"></path><path d="M 34.000000 53.263579 L 34.000000 50.763579 L 28.000000 50.763579 L 28.000000 53.263579 L 34.000000 53.263579" stroke="gray" fill="white" stroke-width="1px"></path><path d="M 40.000000 53.263579 L 40.000000 50.763579 L 34.000000 50.763579 L 34.000000 53.263579 L 40.000000 53.263579" stroke="gray" fill="white" stroke-width="1px"></path><path d="M 46.000000 53.263579 L 46.000000 50.763579 L 40.000000 50.763579 L 40.000000 53.263579 L 46.000000 53.263579" stroke="gray" fill="white" stroke-width="1px"></path><path d="M 52.000000 53.263579 L 52.000000 50.763579 L 46.000000 50.763579 L 46.000000 53.263579 L 52.000000 53.263579" stroke="gray" fill="white" stroke-width="1px"></path><path d="M 58.000000 53.263579 L 58.000000 50.763579 L 52.000000 50.763579 L 52.000000 53.263579 L 58.000000 53.263579" stroke="gray" fill="white" stroke-width="1px"></path><path d="M 22.000000 41.263579 L 22.000000 38.763579 L 16.000000 38.763579 L 16.000000 41.263579 L 22.000000 41.263579" stroke="gray" fill="white" stroke-width="1px"></path><path d="M 28.000000 41.263579 L 28.000000 38.763579 L 22.000000 38.763579 L 22.000000 41.263579 L 28.000000 41.263579" stroke="gray" fill="white" stroke-width="1px"></path><path d="M 34.000000 41.263579 L 34.000000 38.763579 L 28.000000 38.763579 L 28.000000 41.263579 L 34.000000 41.263579" stroke="gray" fill="white" stroke-width="1px"></path><path d="M 40.000000 41.263579 L 40.000000 38.763579 L 34.000000 38.763579 L 34.000000 41.263579 L 40.000000 41.263579" stroke="gray" fill="white" stroke-width="1px"></path><path d="M 46.000000 41.263579 L 46.000000 38.763579 L 40.000000 38.763579 L 40.000000 41.263579 L 46.000000 41.263579" stroke="gray" fill="white" stroke-width="1px"></path><path d="M 52.000000 41.263579 L 52.000000 38.763579 L 46.000000 38.763579 L 46.000000 41.263579 L 52.000000 41.263579" stroke="gray" fill="white" stroke-width="1px"></path><path d="M 58.000000 41.263579 L 58.000000 38.763579 L 52.000000 38.763579 L 52.000000 41.263579 L 58.000000 41.263579" stroke="gray" fill="white" stroke-width="1px"></path><path d="M 265.382647 101.263579 L 265.382647 103.763579 L 259.382647 103.763579 L 259.382647 101.263579 L 265.382647 101.263579" stroke="gray" fill="white" stroke-width="1px"></path><path d="M 271.382647 101.263579 L 271.382647 103.763579 L 265.382647 103.763579 L 265.382647 101.263579 L 271.382647 101.263579" stroke="gray" fill="white" stroke-width="1px"></path><path d="M 277.382647 101.263579 L 277.382647 103.763579 L 271.382647 103.763579 L 271.382647 101.263579 L 277.382647 101.263579" stroke="gray" fill="white" stroke-width="1px"></path><path d="M 266.764117 89.263579 L 266.764117 91.763579 L 260.764117 91.763579 L 260.764117 89.263579 L 266.764117 89.263579" stroke="gray" fill="white" stroke-width="1px"></path><path d="M 272.764117 89.263579 L 272.764117 91.763579 L 266.764117 91.763579 L 266.764117 89.263579 L 272.764117 89.263579" stroke="gray" fill="white" stroke-width="1px"></path><path d="M 278.764117 89.263579 L 278.764117 91.763579 L 272.764117 91.763579 L 272.764117 89.263579 L 278.764117 89.263579" stroke="gray" fill="white" stroke-width="1px"></path><path d="M 268.145588 77.263579 L 268.145588 79.763579 L 262.145588 79.763579 L 262.145588 77.263579 L 268.145588 77.263579" stroke="gray" fill="white" stroke-width="1px"></path><path d="M 274.145588 77.263579 L 274.145588 79.763579 L 268.145588 79.763579 L 268.145588 77.263579 L 274.145588 77.263579" stroke="gray" fill="white" stroke-width="1px"></path><path d="M 269.527058 65.263579 L 269.527058 67.763579 L 263.527058 67.763579 L 263.527058 65.263579 L 269.527058 65.263579" stroke="gray" fill="white" stroke-width="1px"></path><path d="M 275.527058 65.263579 L 275.527058 67.763579 L 269.527058 67.763579 L 269.527058 65.263579 L 275.527058 65.263579" stroke="gray" fill="white" stroke-width="1px"></path><path d="M 265.657177 53.263579 L 265.657177 55.763579 L 259.657177 55.763579 L 259.657177 53.263579 L 265.657177 53.263579" stroke="gray" fill="white" stroke-width="1px"></path><path d="M 271.657177 53.263579 L 271.657177 55.763579 L 265.657177 55.763579 L 265.657177 53.263579 L 271.657177 53.263579" stroke="gray" fill="white" stroke-width="1px"></path><path d="M 277.657177 53.263579 L 277.657177 55.763579 L 271.657177 55.763579 L 271.657177 53.263579 L 277.657177 53.263579" stroke="gray" fill="white" stroke-width="1px"></path><path d="M 221.609725 101.263579 L 221.609725 103.763579 L 215.609725 103.763579 L 215.609725 101.263579 L 221.609725 101.263579" stroke="gray" fill="white" stroke-width="1px"></path><path d="M 227.609725 101.263579 L 227.609725 103.763579 L 221.609725 103.763579 L 221.609725 101.263579 L 227.609725 101.263579" stroke="gray" fill="white" stroke-width="1px"></path><path d="M 233.609725 101.263579 L 233.609725 103.763579 L 227.609725 103.763579 L 227.609725 101.263579 L 233.609725 101.263579" stroke="gray" fill="white" stroke-width="1px"></path><path d="M 234.965476 89.263579 L 234.965476 91.763579 L 228.965476 91.763579 L 228.965476 89.263579 L 234.965476 89.263579" stroke="gray" fill="white" stroke-width="1px"></path><path d="M 233.737654 77.263579 L 233.737654 79.763579 L 227.737654 79.763579 L 227.737654 77.263579 L 233.737654 77.263579" stroke="gray" fill="white" stroke-width="1px"></path><path d="M 233.737654 65.263579 L 233.737654 67.763579 L 227.737654 67.763579 L 227.737654 65.263579 L 233.737654 65.263579" stroke="gray" fill="white" stroke-width="1px"></path><path d="M 34.000000 65.263579 L 34.000000 67.763579 L 28.000000 67.763579 L 28.000000 65.263579 L 34.000000 65.263579" stroke="gray" fill="white" stroke-width="1px"></path><path d="M 40.000000 65.263579 L 40.000000 67.763579 L 34.000000 67.763579 L 34.000000 65.263579 L 40.000000 65.263579" stroke="gray" fill="white" stroke-width="1px"></path><path d="M 46.000000 65.263579 L 46.000000 67.763579 L 40.000000 67.763579 L 40.000000 65.263579 L 46.000000 65.263579" stroke="gray" fill="white" stroke-width="1px"></path><path d="M 52.000000 65.263579 L 52.000000 67.763579 L 46.000000 67.763579 L 46.000000 65.263579 L 52.000000 65.263579" stroke="gray" fill="white" stroke-width="1px"></path><path d="M 58.000000 65.263579 L 58.000000 67.763579 L 52.000000 67.763579 L 52.000000 65.263579 L 58.000000 65.263579" stroke="gray" fill="white" stroke-width="1px"></path><path d="M 22.000000 53.263579 L 22.000000 55.763579 L 16.000000 55.763579 L 16.000000 53.263579 L 22.000000 53.263579" stroke="gray" fill="white" stroke-width="1px"></path><path d="M 28.000000 53.263579 L 28.000000 55.763579 L 22.000000 55.763579 L 22.000000 53.263579 L 28.000000 53.263579" stroke="gray" fill="white" stroke-width="1px"></path><path d="M 34.000000 53.263579 L 34.000000 55.763579 L 28.000000 55.763579 L 28.000000 53.263579 L 34.000000 53.263579" stroke="gray" fill="white" stroke-width="1px"></path><path d="M 40.000000 53.263579 L 40.000000 55.763579 L 34.000000 55.763579 L 34.000000 53.263579 L 40.000000 53.263579" stroke="gray" fill="white" stroke-width="1px"></path><path d="M 46.000000 53.263579 L 46.000000 55.763579 L 40.000000 55.763579 L 40.000000 53.263579 L 46.000000 53.263579" stroke="gray" fill="white" stroke-width="1px"></path><path d="M 52.000000 53.263579 L 52.000000 55.763579 L 46.000000 55.763579 L 46.000000 53.263579 L 52.000000 53.263579" stroke="gray" fill="white" stroke-width="1px"></path><path d="M 58.000000 53.263579 L 58.000000 55.763579 L 52.000000 55.763579 L 52.000000 53.263579 L 58.000000 53.263579" stroke="gray" fill="white" stroke-width="1px"></path><path d="M 22.000000 41.263579 L 22.000000 43.763579 L 16.000000 43.763579 L 16.000000 41.263579 L 22.000000 41.263579" stroke="gray" fill="white" stroke-width="1px"></path><path d="M 28.000000 41.263579 L 28.000000 43.763579 L 22.000000 43.763579 L 22.000000 41.263579 L 28.000000 41.263579" stroke="gray" fill="white" stroke-width="1px"></path><path d="M 34.000000 41.263579 L 34.000000 43.763579 L 28.000000 43.763579 L 28.000000 41.263579 L 34.000000 41.263579" stroke="gray" fill="white" stroke-width="1px"></path><path d="M 40.000000 41.263579 L 40.000000 43.763579 L 34.000000 43.763579 L 34.000000 41.263579 L 40.000000 41.263579" stroke="gray" fill="white" stroke-width="1px"></path><path d="M 46.000000 41.263579 L 46.000000 43.763579 L 40.000000 43.763579 L 40.000000 41.263579 L 46.000000 41.263579" stroke="gray" fill="white" stroke-width="1px"></path><path d="M 52.000000 41.263579 L 52.000000 43.763579 L 46.000000 43.763579 L 46.000000 41.263579 L 52.000000 41.263579" stroke="gray" fill="white" stroke-width="1px"></path><path d="M 58.000000 41.263579 L 58.000000 43.763579 L 52.000000 43.763579 L 52.000000 41.263579 L 58.000000 41.263579" stroke="gray" fill="white" stroke-width="1px"></path></g><g id="crv-base"><path d="M 221.371570 123.090312 L 221.371570 169.241094 L 120.000633 169.241094 L 120.000633 156.444206 L 126.051258 156.444206 L 126.051258 123.858132 L 91.315945 123.858125 L 91.315945 134.738750 L 64.258762 134.738750 L 64.258762 123.687497 L 10.000000 123.687497 L 10.000000 226.180625 L 64.258758 226.180625 L 64.258758 192.357500 L 91.315945 192.357500 L 91.315945 220.123437 L 283.459383 220.123437 L 283.459383 123.090312 L 221.371570 123.090312" stroke="black" fill="none" stroke-width="1px"></path><path d="M 221.371570 10.000000 L 221.371570 56.150781 L 120.000633 56.150781 L 120.000633 43.353893 L 126.051258 43.353893 L 126.051258 10.767819 L 91.315945 10.767812 L 91.315945 21.648438 L 64.258762 21.648438 L 64.258762 10.597185 L 10.000000 10.597185 L 10.000000 113.090312 L 64.258758 113.090312 L 64.258758 79.267187 L 91.315945 79.267187 L 91.315945 107.033125 L 283.459383 107.033125 L 283.459383 10.000000 L 221.371570 10.000000" stroke="black" fill="none" stroke-width="1px"></path><path d="M 10.387195 156.559062 L 10.387195 154.590312 L 12.355945 154.590312 L 12.355945 156.559062 L 10.387195 156.559062" stroke="black" fill="white" stroke-width="1px"></path><path d="M 10.387195 43.468750 L 10.387195 41.500000 L 12.355945 41.500000 L 12.355945 43.468750 L 10.387195 43.468750" stroke="black" fill="white" stroke-width="1px"></path><path d="M 10.387195 188.059062 L 10.387195 186.090312 L 12.355945 186.090312 L 12.355945 188.059062 L 10.387195 188.059062" stroke="black" fill="white" stroke-width="1px"></path><path d="M 10.387195 74.968750 L 10.387195 73.000000 L 12.355945 73.000000 L 12.355945 74.968750 L 10.387195 74.968750" stroke="black" fill="white" stroke-width="1px"></path><path d="M 10.387195 219.559062 L 10.387195 217.590312 L 12.355945 217.590312 L 12.355945 219.559062 L 10.387195 219.559062" stroke="black" fill="white" stroke-width="1px"></path><path d="M 10.387195 106.468750 L 10.387195 104.500000 L 12.355945 104.500000 L 12.355945 106.468750 L 10.387195 106.468750" stroke="black" fill="white" stroke-width="1px"></path><path d="M 60.754383 128.340312 L 60.754383 125.387187 L 63.871570 125.387187 L 63.871570 128.340312 L 60.754383 128.340312" stroke="black" fill="white" stroke-width="1px"></path><path d="M 60.754383 15.250000 L 60.754383 12.296875 L 63.871570 12.296875 L 63.871570 15.250000 L 60.754383 15.250000" stroke="black" fill="white" stroke-width="1px"></path><path d="M 280.598133 219.230937 L 280.598133 217.262187 L 282.566883 217.262187 L 282.566883 219.230937 L 280.598133 219.230937" stroke="black" fill="white" stroke-width="1px"></path><path d="M 280.598133 106.140625 L 280.598133 104.171875 L 282.566883 104.171875 L 282.566883 106.140625 L 280.598133 106.140625" stroke="black" fill="white" stroke-width="1px"></path><path d="M 280.598133 188.059062 L 280.598133 186.090312 L 282.566883 186.090312 L 282.566883 188.059062 L 280.598133 188.059062" stroke="black" fill="white" stroke-width="1px"></path><path d="M 280.598133 74.968750 L 280.598133 73.000000 L 282.566883 73.000000 L 282.566883 74.968750 L 280.598133 74.968750" stroke="black" fill="white" stroke-width="1px"></path><path d="M 280.598133 156.559050 L 280.598133 154.590300 L 282.566883 154.590300 L 282.566883 156.559050 L 280.598133 156.559050" stroke="black" fill="white" stroke-width="1px"></path><path d="M 280.598133 43.468737 L 280.598133 41.499987 L 282.566883 41.499987 L 282.566883 43.468737 L 280.598133 43.468737" stroke="black" fill="white" stroke-width="1px"></path><path d="M 248.605945 127.355937 L 248.605945 123.418437 L 251.887195 123.418437 L 251.887195 127.355937 L 248.605945 127.355937" stroke="black" fill="white" stroke-width="1px"></path><path d="M 248.605945 14.265625 L 248.605945 10.328125 L 251.887195 10.328125 L 251.887195 14.265625 L 248.605945 14.265625" stroke="black" fill="white" stroke-width="1px"></path><path d="M 248.605945 157.871562 L 248.605945 153.934062 L 251.887195 153.934062 L 251.887195 157.871562 L 248.605945 157.871562" stroke="black" fill="white" stroke-width="1px"></path><path d="M 248.605945 44.781250 L 248.605945 40.843750 L 251.887195 40.843750 L 251.887195 44.781250 L 248.605945 44.781250" stroke="black" fill="white" stroke-width="1px"></path><path d="M 248.605945 189.043437 L 248.605945 185.105937 L 251.887195 185.105937 L 251.887195 189.043437 L 248.605945 189.043437" stroke="black" fill="white" stroke-width="1px"></path><path d="M 248.605945 75.953125 L 248.605945 72.015625 L 251.887195 72.015625 L 251.887195 75.953125 L 248.605945 75.953125" stroke="black" fill="white" stroke-width="1px"></path><path d="M 248.934070 219.230937 L 248.934070 216.277812 L 251.887195 216.277812 L 251.887195 219.230937 L 248.934070 219.230937" stroke="black" fill="white" stroke-width="1px"></path><path d="M 248.934070 106.140625 L 248.934070 103.187500 L 251.887195 103.187500 L 251.887195 106.140625 L 248.934070 106.140625" stroke="black" fill="white" stroke-width="1px"></path><path d="M 218.090320 189.043437 L 218.090320 185.105937 L 221.371570 185.105937 L 221.371570 189.043437 L 218.090320 189.043437" stroke="black" fill="white" stroke-width="1px"></path><path d="M 218.090320 75.953125 L 218.090320 72.015625 L 221.371570 72.015625 L 221.371570 75.953125 L 218.090320 75.953125" stroke="black" fill="white" stroke-width="1px"></path><path d="M 218.254383 219.230937 L 218.254383 216.277812 L 221.207508 216.277812 L 221.207508 219.230937 L 218.254383 219.230937" stroke="black" fill="white" stroke-width="1px"></path><path d="M 218.254383 106.140625 L 218.254383 103.187500 L 221.207508 103.187500 L 221.207508 106.140625 L 218.254383 106.140625" stroke="black" fill="white" stroke-width="1px"></path><path d="M 186.590320 189.043437 L 186.590320 185.105937 L 189.871570 185.105937 L 189.871570 189.043437 L 186.590320 189.043437" stroke="black" fill="white" stroke-width="1px"></path><path d="M 186.590320 75.953125 L 186.590320 72.015625 L 189.871570 72.015625 L 189.871570 75.953125 L 186.590320 75.953125" stroke="black" fill="white" stroke-width="1px"></path><path d="M 186.754383 219.230937 L 186.754383 216.277812 L 189.707508 216.277812 L 189.707508 219.230937 L 186.754383 219.230937" stroke="black" fill="white" stroke-width="1px"></path><path d="M 186.754383 106.140625 L 186.754383 103.187500 L 189.707508 103.187500 L 189.707508 106.140625 L 186.754383 106.140625" stroke="black" fill="white" stroke-width="1px"></path><path d="M 155.090320 189.043437 L 155.090320 185.105937 L 158.371570 185.105937 L 158.371570 189.043437 L 155.090320 189.043437" stroke="black" fill="white" stroke-width="1px"></path><path d="M 155.090320 75.953125 L 155.090320 72.015625 L 158.371570 72.015625 L 158.371570 75.953125 L 155.090320 75.953125" stroke="black" fill="white" stroke-width="1px"></path><path d="M 155.254383 219.230937 L 155.254383 216.277812 L 158.207508 216.277812 L 158.207508 219.230937 L 155.254383 219.230937" stroke="black" fill="white" stroke-width="1px"></path><path d="M 155.254383 106.140625 L 155.254383 103.187500 L 158.207508 103.187500 L 158.207508 106.140625 L 155.254383 106.140625" stroke="black" fill="white" stroke-width="1px"></path><path d="M 123.590320 189.043437 L 123.590320 185.105937 L 126.871570 185.105937 L 126.871570 189.043437 L 123.590320 189.043437" stroke="black" fill="white" stroke-width="1px"></path><path d="M 123.590320 75.953125 L 123.590320 72.015625 L 126.871570 72.015625 L 126.871570 75.953125 L 123.590320 75.953125" stroke="black" fill="white" stroke-width="1px"></path><path d="M 123.754383 219.230937 L 123.754383 216.277812 L 126.707508 216.277812 L 126.707508 219.230937 L 123.754383 219.230937" stroke="black" fill="white" stroke-width="1px"></path><path d="M 123.754383 106.140625 L 123.754383 103.187500 L 126.707508 103.187500 L 126.707508 106.140625 L 123.754383 106.140625" stroke="black" fill="white" stroke-width="1px"></path><path d="M 92.090320 157.543437 L 92.090320 153.605937 L 95.371570 153.605937 L 95.371570 157.543437 L 92.090320 157.543437" stroke="black" fill="white" stroke-width="1px"></path><path d="M 92.090320 44.453125 L 92.090320 40.515625 L 95.371570 40.515625 L 95.371570 44.453125 L 92.090320 44.453125" stroke="black" fill="white" stroke-width="1px"></path><path d="M 92.090320 189.043437 L 92.090320 185.105937 L 95.371570 185.105937 L 95.371570 189.043437 L 92.090320 189.043437" stroke="black" fill="white" stroke-width="1px"></path><path d="M 92.090320 75.953125 L 92.090320 72.015625 L 95.371570 72.015625 L 95.371570 75.953125 L 92.090320 75.953125" stroke="black" fill="white" stroke-width="1px"></path><path d="M 92.090320 128.504375 L 92.090320 125.551250 L 95.207508 125.551250 L 95.207508 128.504375 L 92.090320 128.504375" stroke="black" fill="white" stroke-width="1px"></path><path d="M 92.090320 15.414062 L 92.090320 12.460937 L 95.207508 12.460937 L 95.207508 15.414062 L 92.090320 15.414062" stroke="black" fill="white" stroke-width="1px"></path><path d="M 60.590320 157.215312 L 60.590320 153.934062 L 63.871570 153.934062 L 63.871570 157.215312 L 60.590320 157.215312" stroke="black" fill="white" stroke-width="1px"></path><path d="M 60.590320 44.125000 L 60.590320 40.843750 L 63.871570 40.843750 L 63.871570 44.125000 L 60.590320 44.125000" stroke="black" fill="white" stroke-width="1px"></path><path d="M 60.754383 219.230937 L 60.754383 216.277812 L 63.871570 216.277812 L 63.871570 219.230937 L 60.754383 219.230937" stroke="black" fill="white" stroke-width="1px"></path><path d="M 60.754383 106.140625 L 60.754383 103.187500 L 63.871570 103.187500 L 63.871570 106.140625 L 60.754383 106.140625" stroke="black" fill="white" stroke-width="1px"></path><path d="M 30.074695 128.504375 L 30.074695 125.223125 L 33.027820 125.223125 L 33.027820 128.504375 L 30.074695 128.504375" stroke="black" fill="white" stroke-width="1px"></path><path d="M 30.074695 15.414062 L 30.074695 12.132812 L 33.027820 12.132812 L 33.027820 15.414062 L 30.074695 15.414062" stroke="black" fill="white" stroke-width="1px"></path><path d="M 30.074695 157.215312 L 30.074695 153.934062 L 33.355945 153.934062 L 33.355945 157.215312 L 30.074695 157.215312" stroke="black" fill="white" stroke-width="1px"></path><path d="M 30.074695 44.125000 L 30.074695 40.843750 L 33.355945 40.843750 L 33.355945 44.125000 L 30.074695 44.125000" stroke="black" fill="white" stroke-width="1px"></path><path d="M 30.074695 188.715312 L 30.074695 185.434062 L 33.355945 185.434062 L 33.355945 188.715312 L 30.074695 188.715312" stroke="black" fill="white" stroke-width="1px"></path><path d="M 30.074695 75.625000 L 30.074695 72.343750 L 33.355945 72.343750 L 33.355945 75.625000 L 30.074695 75.625000" stroke="black" fill="white" stroke-width="1px"></path><path d="M 30.074695 219.230937 L 30.074695 216.277812 L 33.027820 216.277812 L 33.027820 219.230937 L 30.074695 219.230937" stroke="black" fill="white" stroke-width="1px"></path><path d="M 30.074695 106.140625 L 30.074695 103.187500 L 33.027820 103.187500 L 33.027820 106.140625 L 30.074695 106.140625" stroke="black" fill="white" stroke-width="1px"></path><path d="M 10.387195 127.191875 L 10.387195 125.223125 L 12.355945 125.223125 L 12.355945 127.191875 L 10.387195 127.191875" stroke="black" fill="white" stroke-width="1px"></path><path d="M 10.387195 14.101562 L 10.387195 12.132812 L 12.355945 12.132812 L 12.355945 14.101562 L 10.387195 14.101562" stroke="black" fill="white" stroke-width="1px"></path><path d="M 60.590320 189.863750 L 60.590320 185.434062 L 63.871570 185.434062 L 63.871570 188.715312 L 62.230945 188.715312 L 62.230945 189.863750 L 60.590320 189.863750" stroke="black" fill="white" stroke-width="1px"></path><path d="M 60.590320 76.773437 L 60.590320 72.343750 L 63.871570 72.343750 L 63.871570 75.625000 L 62.230945 75.625000 L 62.230945 76.773437 L 60.590320 76.773437" stroke="black" fill="white" stroke-width="1px"></path><path d="M 123.590320 128.832500 L 123.590320 125.551250 L 126.051258 125.551250 L 126.051258 128.832500 L 123.590320 128.832500" stroke="black" fill="white" stroke-width="1px"></path><path d="M 123.590320 15.742187 L 123.590320 12.460937 L 126.051258 12.460937 L 126.051258 15.742187 L 123.590320 15.742187" stroke="black" fill="white" stroke-width="1px"></path><path d="M 280.598133 126.043425 L 280.598133 124.074675 L 282.566883 124.074675 L 282.566883 126.043425 L 280.598133 126.043425" stroke="black" fill="white" stroke-width="1px"></path><path d="M 280.598133 12.953112 L 280.598133 10.984362 L 282.566883 10.984362 L 282.566883 12.953112 L 280.598133 12.953112" stroke="black" fill="white" stroke-width="1px"></path></g></svg>