<svg width="293.459383" height="236.180625" xmlns="http://www.w3.org/2000/svg" xmlns:xlink="http://www.w3.org/1999/xlink" version="1.1"><g id="crv-background"><path d="M 221.371570 123.090312 L 221.371570 169.241094 L 120.000633 169.241094 L 120.000633 156.444206 L 126.051258 156.444206 L 126.051258 128.832500 L 123.590320 128.832500 L 123.590320 125.551250 L 126.051258 125.551250 L 126.051258 123.858132 L 91.315945 123.858125 L 91.315945 134.738750 L 64.258762 134.738750 L 64.258762 123.687497 L 10.000000 123.687497 L 10.000000 226.180625 L 64.258758 226.180625 L 64.258758 192.357500 L 91.315945 192.357500 L 91.315945 220.123437 L 283.459383 220.123437 L 283.459383 123.090312 L 221.371570 123.090312" stroke="none" fill="white" stroke-width="1px"></path><path d="M 221.371570 10.000000 L 221.371570 56.150781 L 120.000633 56.150781 L 120.000633 43.353893 L 126.051258 43.353893 L 126.051258 15.742187 L 123.590320 15.742187 L 123.590320 12.460937 L 126.051258 12.460937 L 126.051258 10.767819 L 91.315945 10.767812 L 91.315945 21.648438 L 64.258762 21.648438 L 64.258762 10.597185 L 10.000000 10.597185 L 10.000000 113.090312 L 64.258758 113.090312 L 64.258758 79.267187 L 91.315945 79.267187 L 91.315945 107.033125 L 283.459383 107.033125 L 283.459383 10.000000 L 221.371570 10.000000" stroke="none" fill="white" stroke-width="1px"></path></g><g id="crv-nbhd"><path d="M 221.737654 10.000004 L 221.737654 28.918249 L 221.737654 47.836494 L 226.637809 49.776412 L 231.537965 51.716330 L 257.498674 51.293936 L 283.459383 50.871541 L 283.459383 30.435776 L 283.459382 10.000000 L 252.598518 10.000002 L 221.737654 10.000004" stroke="#DD2222" fill="none" stroke-width="1px"></path><path d="M 283.459383 107.033125 L 283.459383 78.952333 L 283.459383 50.871541 L 257.498674 51.293936 L 231.537965 51.716330 L 243.430994 79.374728 L 255.324023 107.033125 L 269.391703 107.033125 L 283.459383 107.033125" stroke="#DD2222" fill="none" stroke-width="1px"></path><path d="M 221.737654 47.836494 L 221.737654 63.493912 L 221.737654 79.151330 L 214.637077 79.151330 L 207.536500 79.151330 L 210.761496 93.092227 L 213.986492 107.033125 L 234.655258 107.033125 L 255.324023 107.033125 L 243.430994 79.374728 L 231.537965 51.716330 L 226.637810 49.776412 L 221.737654 47.836494" stroke="#DD2222" fill="none" stroke-width="1px"></path><path d="M 162.563786 107.033125 L 188.275139 107.033125 L 213.986492 107.033125 L 210.761496 93.092227 L 207.536500 79.151330 L 190.116741 79.151330 L 172.696983 79.151329 L 167.630384 93.092227 L 162.563786 107.033125" stroke="#DD2222" fill="none" stroke-width="1px"></path><path d="M 172.696983 79.151329 L 153.330423 79.151329 L 133.963863 79.151328 L 134.766297 93.092227 L 135.568731 107.033125 L 149.066259 107.033125 L 162.563786 107.033125 L 167.630383 93.092230 L 172.696983 79.151329" stroke="#DD2222" fill="none" stroke-width="1px"></path><path d="M 133.963863 79.151328 L 112.639904 79.151328 L 91.315945 79.151327 L 91.315945 93.092226 L 91.315945 107.033125 L 113.442338 107.033125 L 135.568731 107.033125 L 134.766297 93.092230 L 133.963863 79.151328" stroke="#DD2222" fill="none" stroke-width="1px"></path><path d="M 64.258758 113.090312 L 64.258758 88.278397 L 64.258758 63.466481 L 37.129379 64.199456 L 10.000000 64.932431 L 10.000000 89.011372 L 10.000000 113.090312 L 37.129372 113.090312 L 64.258758 113.090312" stroke="#DD2222" fill="none" stroke-width="1px"></path><path d="M 10.000000 10.597184 L 10.000000 37.764807 L 10.000000 64.932431 L 37.129379 64.199456 L 64.258758 63.466481 L 64.258758 59.808631 L 64.258758 56.150781 L 64.258758 33.373983 L 64.258758 10.597185 L 37.129379 10.597185 L 10.000000 10.597184" stroke="#DD2222" fill="none" stroke-width="1px"></path><path d="M 10.000000 123.687497 L 10.000000 154.045401 L 10.000000 184.403305 L 37.129379 180.919245 L 64.258758 177.435185 L 64.258758 173.338139 L 64.258758 169.241094 L 64.258758 146.464296 L 64.258758 123.687497 L 37.129379 123.687497 L 10.000000 123.687497" stroke="#DD2222" fill="none" stroke-width="1px"></path><path d="M 10.000000 184.403305 L 10.000000 205.291965 L 10.000000 226.180625 L 37.129380 226.180625 L 64.258761 226.180625 L 64.258761 201.807899 L 64.258758 177.435185 L 37.129385 180.919244 L 10.000000 184.403305" stroke="#DD2222" fill="none" stroke-width="1px"></path><path d="M 140.798945 192.043444 L 116.057445 192.043444 L 91.315945 192.043444 L 91.315945 206.083441 L 91.315945 220.123437 L 117.281286 220.123437 L 143.246627 220.123437 L 142.022786 206.083441 L 140.798945 192.043444" stroke="#DD2222" fill="none" stroke-width="1px"></path><path d="M 187.525554 192.043444 L 164.162250 192.043444 L 140.798945 192.043444 L 142.022786 206.083441 L 143.246627 220.123437 L 167.429622 220.123437 L 191.612616 220.123437 L 189.569086 206.083444 L 187.525554 192.043444" stroke="#DD2222" fill="none" stroke-width="1px"></path><path d="M 231.804400 192.043444 L 209.664977 192.043444 L 187.525554 192.043444 L 189.569085 206.083441 L 191.612616 220.123437 L 208.851901 220.123437 L 226.091186 220.123437 L 228.947793 206.083441 L 231.804400 192.043444" stroke="#DD2222" fill="none" stroke-width="1px"></path><path d="M 283.459383 220.123437 L 283.459383 195.235366 L 283.459383 170.347295 L 261.598517 170.250505 L 239.737652 170.153715 L 239.737652 181.098579 L 239.737652 192.043444 L 235.771026 192.043444 L 231.804400 192.043444 L 228.947793 206.083441 L 226.091186 220.123437 L 254.775284 220.123437 L 283.459383 220.123437" stroke="#DD2222" fill="none" stroke-width="1px"></path><path d="M 239.737652 123.090312 L 239.737652 146.622014 L 239.737652 170.153715 L 261.598517 170.250505 L 283.459383 170.347295 L 283.459383 146.718804 L 283.459383 123.090312 L 261.598538 123.090312 L 239.737652 123.090312" stroke="#DD2222" fill="none" stroke-width="1px"></path></g><g id="crv-amen"><path d="M 58.832882 138.684743 L 58.832882 132.019300 L 58.832882 125.353858 L 37.129379 125.353858 L 15.425876 125.353857 L 15.425876 132.019300 L 15.425876 138.684742 L 37.129379 138.684742 L 58.832882 138.684743" stroke="none" fill="#2288CC" stroke-width="1px"></path><path d="M 49.273982 221.412281 L 55.939421 221.412281 L 62.604866 221.412281 L 62.604865 201.914105 L 62.604864 182.415929 L 55.939419 183.271931 L 49.273980 184.127933 L 49.273981 202.770111 L 49.273982 221.412281" stroke="none" fill="#2288CC" stroke-width="1px"></path><path d="M 137.085651 207.048724 L 136.504637 200.383282 L 135.923622 193.717839 L 116.130422 193.717839 L 96.337222 193.717839 L 96.337222 200.383282 L 96.337222 207.048724 L 116.711437 207.048724 L 137.085651 207.048724" stroke="none" fill="#2288CC" stroke-width="1px"></path><path d="M 176.048639 217.315438 L 182.784315 217.315438 L 189.519991 217.315438 L 187.885166 206.083441 L 186.250342 194.851444 L 179.514666 194.851444 L 172.778990 194.851444 L 174.413814 206.083441 L 176.048639 217.315438" stroke="none" fill="#2288CC" stroke-width="1px"></path><path d="M 203.089532 194.851444 L 196.353856 194.851444 L 189.618180 194.851444 L 191.253004 206.083441 L 192.887829 217.315438 L 199.623505 217.315438 L 206.359181 217.315438 L 204.724356 206.083441 L 203.089532 194.851444" stroke="none" fill="#2288CC" stroke-width="1px"></path><path d="M 239.307072 193.032091 L 239.307072 193.907050 L 239.307072 194.782009 L 236.133771 194.782009 L 232.960470 194.782009 L 230.675184 206.014006 L 228.389899 217.246004 L 235.191906 217.246004 L 241.993914 217.246004 L 244.305898 205.882784 L 246.617883 194.519563 L 242.962477 193.775827 L 239.307072 193.032091" stroke="none" fill="#2288CC" stroke-width="1px"></path><path d="M 279.087210 138.087558 L 279.087210 131.422115 L 279.087210 124.756673 L 261.598517 124.756673 L 244.109825 124.756673 L 244.109825 131.422115 L 244.109825 138.087558 L 261.598517 138.087558 L 279.087210 138.087558" stroke="none" fill="#2288CC" stroke-width="1px"></path><path d="M 277.287210 24.997246 L 277.287210 18.331802 L 277.287209 11.666361 L 252.598518 11.666362 L 227.909827 11.666364 L 227.909827 18.331806 L 227.909827 24.997249 L 252.598518 24.997247 L 277.287210 24.997246" stroke="none" fill="#2288CC" stroke-width="1px"></path><path d="M 278.614338 65.908731 L 278.614338 59.242407 L 278.614338 52.576082 L 257.845770 52.913998 L 237.077203 53.251913 L 239.923787 59.871922 L 242.770372 66.491931 L 260.692355 66.200331 L 278.614338 65.908731" stroke="none" fill="#2288CC" stroke-width="1px"></path><path d="M 236.560200 67.737046 L 233.814882 61.352542 L 231.069564 54.968037 L 227.149441 53.416103 L 223.229316 51.864168 L 223.229316 66.018474 L 223.229316 80.172781 L 229.894758 80.172781 L 236.560200 80.172781 L 236.560200 73.954913 L 236.560200 67.737046" stroke="none" fill="#2288CC" stroke-width="1px"></path><path d="M 197.948377 104.245173 L 204.789846 104.245173 L 211.631315 104.245173 L 209.051318 93.092455 L 206.471321 81.939737 L 199.868549 81.939737 L 193.265776 81.939737 L 193.039205 81.992151 L 192.812633 82.044564 L 195.380505 93.144869 L 197.948377 104.245173" stroke="none" fill="#2288CC" stroke-width="1px"></path><path d="M 149.146419 81.939508 L 142.469944 81.939508 L 135.793469 81.939508 L 136.435416 93.092227 L 137.077363 104.244945 L 143.753838 104.244945 L 150.430312 104.244945 L 149.788366 93.092227 L 149.146419 81.939508" stroke="none" fill="#2288CC" stroke-width="1px"></path><path d="M 106.313191 81.939507 L 99.647748 81.939507 L 92.982306 81.939507 L 92.982306 93.092226 L 92.982306 104.244945 L 99.647748 104.244945 L 106.313191 104.244945 L 106.313191 93.092226 L 106.313191 81.939507" stroke="none" fill="#2288CC" stroke-width="1px"></path><path d="M 49.264044 108.150406 L 55.929486 108.150406 L 62.594928 108.150406 L 62.594928 88.300873 L 62.594928 68.451340 L 55.929486 68.631426 L 49.264044 68.811511 L 49.264044 88.480958 L 49.264044 108.150406" stroke="none" fill="#2288CC" stroke-width="1px"></path><path d="M 15.425876 49.783118 L 15.425876 56.450992 L 15.425876 63.118867 L 37.129379 62.532487 L 58.832882 61.946107 L 58.832882 59.019827 L 58.832882 56.093547 L 58.832882 52.351953 L 58.832882 48.610358 L 37.129379 49.196738 L 15.425876 49.783118" stroke="none" fill="#2288CC" stroke-width="1px"></path></g><g id="crv-desk"><path d="M 31.459383 220.180625 L 28.959383 220.180625 L 28.959383 226.180625 L 31.459383 226.180625 L 31.459383 220.180625" stroke="gray" fill="white" stroke-width="1px"></path><path d="M 31.459383 214.180625 L 28.959383 214.180625 L 28.959383 220.180625 L 31.459383 220.180625 L 31.459383 214.180625" stroke="gray" fill="white" stroke-width="1px"></path><path d="M 31.459383 208.180625 L 28.959383 208.180625 L 28.959383 214.180625 L 31.459383 214.180625 L 31.459383 208.180625" stroke="gray" fill="white" stroke-width="1px"></path><path d="M 31.459383 202.180625 L 28.959383 202.180625 L 28.959383 208.180625 L 31.459383 208.180625 L 31.459383 202.180625" stroke="gray" fill="white" stroke-width="1px"></path><path d="M 31.459383 196.180625 L 28.959383 196.180625 L 28.959383 202.180625 L 31.459383 202.180625 L 31.459383 196.180625" stroke="gray" fill="white" stroke-width="1px"></path><path d="M 31.459383 190.180625 L 28.959383 190.180625 L 28.959383 196.180625 L 31.459383 196.180625 L 31.459383 190.180625" stroke="gray" fill="white" stroke-width="1px"></path><path d="M 31.459383 184.180625 L 28.959383 184.180625 L 28.959383 190.180625 L 31.459383 190.180625 L 31.459383 184.180625" stroke="gray" fill="white" stroke-width="1px"></path><path d="M 19.459383 220.180625 L 16.959383 220.180625 L 16.959383 226.180625 L 19.459383 226.180625 L 19.459383 220.180625" stroke="gray" fill="white" stroke-width="1px"></path><path d="M 19.459383 214.180625 L 16.959383 214.180625 L 16.959383 220.180625 L 19.459383 220.180625 L 19.459383 214.180625" stroke="gray" fill="white" stroke-width="1px"></path><path d="M 19.459383 208.180625 L 16.959383 208.180625 L 16.959383 214.180625 L 19.459383 214.180625 L 19.459383 208.180625" stroke="gray" fill="white" stroke-width="1px"></path><path d="M 19.459383 202.180625 L 16.959383 202.180625 L 16.959383 208.180625 L 19.459383 208.180625 L 19.459383 202.180625" stroke="gray" fill="white" stroke-width="1px"></path><path d="M 19.459383 196.180625 L 16.959383 196.180625 L 16.959383 202.180625 L 19.459383 202.180625 L 19.459383 196.180625" stroke="gray" fill="white" stroke-width="1px"></path><path d="M 19.459383 190.180625 L 16.959383 190.180625 L 16.959383 196.180625 L 19.459383 196.180625 L 19.459383 190.180625" stroke="gray" fill="white" stroke-width="1px"></path><path d="M 139.459383 214.123437 L 136.959383 214.123437 L 136.959383 220.123437 L 139.459383 220.123437 L 139.459383 214.123437" stroke="gray" fill="white" stroke-width="1px"></path><path d="M 127.459383 214.123437 L 124.959383 214.123437 L 124.959383 220.123437 L 127.459383 220.123437 L 127.459383 214.123437" stroke="gray" fill="white" stroke-width="1px"></path><path d="M 115.459383 214.123437 L 112.959383 214.123437 L 112.959383 220.123437 L 115.459383 220.123437 L 115.459383 214.123437" stroke="gray" fill="white" stroke-width="1px"></path><path d="M 103.459383 214.123437 L 100.959383 214.123437 L 100.959383 220.123437 L 103.459383 220.123437 L 103.459383 214.123437" stroke="gray" fill="white" stroke-width="1px"></path><path d="M 163.459383 214.123437 L 160.959383 214.123437 L 160.959383 220.123437 L 163.459383 220.123437 L 163.459383 214.123437" stroke="gray" fill="white" stroke-width="1px"></path><path d="M 163.459383 208.123437 L 160.959383 208.123437 L 160.959383 214.123437 L 163.459383 214.123437 L 163.459383 208.123437" stroke="gray" fill="white" stroke-width="1px"></path><path d="M 163.459383 202.123437 L 160.959383 202.123437 L 160.959383 208.123437 L 163.459383 208.123437 L 163.459383 202.123437" stroke="gray" fill="white" stroke-width="1px"></path><path d="M 163.459383 196.123437 L 160.959383 196.123437 L 160.959383 202.123437 L 163.459383 202.123437 L 163.459383 196.123437" stroke="gray" fill="white" stroke-width="1px"></path><path d="M 151.459383 214.123437 L 148.959383 214.123437 L 148.959383 220.123437 L 151.459383 220.123437 L 151.459383 214.123437" stroke="gray" fill="white" stroke-width="1px"></path><path d="M 151.459383 208.123437 L 148.959383 208.123437 L 148.959383 214.123437 L 151.459383 214.123437 L 151.459383 208.123437" stroke="gray" fill="white" stroke-width="1px"></path><path d="M 151.459383 202.123437 L 148.959383 202.123437 L 148.959383 208.123437 L 151.459383 208.123437 L 151.459383 202.123437" stroke="gray" fill="white" stroke-width="1px"></path><path d="M 151.459383 196.123437 L 148.959383 196.123437 L 148.959383 202.123437 L 151.459383 202.123437 L 151.459383 196.123437" stroke="gray" fill="white" stroke-width="1px"></path><path d="M 223.459383 214.123437 L 220.959383 214.123437 L 220.959383 220.123437 L 223.459383 220.123437 L 223.459383 214.123437" stroke="gray" fill="white" stroke-width="1px"></path><path d="M 223.459383 208.123437 L 220.959383 208.123437 L 220.959383 214.123437 L 223.459383 214.123437 L 223.459383 208.123437" stroke="gray" fill="white" stroke-width="1px"></path><path d="M 223.459383 202.123437 L 220.959383 202.123437 L 220.959383 208.123437 L 223.459383 208.123437 L 223.459383 202.123437" stroke="gray" fill="white" stroke-width="1px"></path><path d="M 223.459383 196.123437 L 220.959383 196.123437 L 220.959383 202.123437 L 223.459383 202.123437 L 223.459383 196.123437" stroke="gray" fill="white" stroke-width="1px"></path><path d="M 211.459383 208.123437 L 208.959383 208.123437 L 208.959383 214.123437 L 211.459383 214.123437 L 211.459383 208.123437" stroke="gray" fill="white" stroke-width="1px"></path><path d="M 211.459383 202.123437 L 208.959383 202.123437 L 208.959383 208.123437 L 211.459383 208.123437 L 211.459383 202.123437" stroke="gray" fill="white" stroke-width="1px"></path><path d="M 211.459383 196.123437 L 208.959383 196.123437 L 208.959383 202.123437 L 211.459383 202.123437 L 211.459383 196.123437" stroke="gray" fill="white" stroke-width="1px"></path><path d="M 271.459383 214.123437 L 268.959383 214.123437 L 268.959383 220.123437 L 271.459383 220.123437 L 271.459383 214.123437" stroke="gray" fill="white" stroke-width="1px"></path><path d="M 271.459383 208.123437 L 268.959383 208.123437 L 268.959383 214.123437 L 271.459383 214.123437 L 271.459383 208.123437" stroke="gray" fill="white" stroke-width="1px"></path><path d="M 271.459383 202.123437 L 268.959383 202.123437 L 268.959383 208.123437 L 271.459383 208.123437 L 271.459383 202.123437" stroke="gray" fill="white" stroke-width="1px"></path><path d="M 271.459383 196.123437 L 268.959383 196.123437 L 268.959383 202.123437 L 271.459383 202.123437 L 271.459383 196.123437" stroke="gray" fill="white" stroke-width="1px"></path><path d="M 271.459383 190.123437 L 268.959383 190.123437 L 268.959383 196.123437 L 271.459383 196.123437 L 271.459383 190.123437" stroke="gray" fill="white" stroke-width="1px"></path><path d="M 271.459383 184.123437 L 268.959383 184.123437 L 268.959383 190.123437 L 271.459383 190.123437 L 271.459383 184.123437" stroke="gray" fill="white" stroke-width="1px"></path><path d="M 271.459383 178.123437 L 268.959383 178.123437 L 268.959383 184.123437 L 271.459383 184.123437 L 271.459383 178.123437" stroke="gray" fill="white" stroke-width="1px"></path><path d="M 259.459383 214.123437 L 256.959383 214.123437 L 256.959383 220.123437 L 259.459383 220.123437 L 259.459383 214.123437" stroke="gray" fill="white" stroke-width="1px"></path><path d="M 259.459383 208.123437 L 256.959383 208.123437 L 256.959383 214.123437 L 259.459383 214.123437 L 259.459383 208.123437" stroke="gray" fill="white" stroke-width="1px"></path><path d="M 259.459383 202.123437 L 256.959383 202.123437 L 256.959383 208.123437 L 259.459383 208.123437 L 259.459383 202.123437" stroke="gray" fill="white" stroke-width="1px"></path><path d="M 259.459383 196.123437 L 256.959383 196.123437 L 256.959383 202.123437 L 259.459383 202.123437 L 259.459383 196.123437" stroke="gray" fill="white" stroke-width="1px"></path><path d="M 259.459383 190.123437 L 256.959383 190.123437 L 256.959383 196.123437 L 259.459383 196.123437 L 259.459383 190.123437" stroke="gray" fill="white" stroke-width="1px"></path><path d="M 259.459383 184.123437 L 256.959383 184.123437 L 256.959383 190.123437 L 259.459383 190.123437 L 259.459383 184.123437" stroke="gray" fill="white" stroke-width="1px"></path><path d="M 259.459383 178.123437 L 256.959383 178.123437 L 256.959383 184.123437 L 259.459383 184.123437 L 259.459383 178.123437" stroke="gray" fill="white" stroke-width="1px"></path><path d="M 247.459383 214.123437 L 244.959383 214.123437 L 244.959383 220.123437 L 247.459383 220.123437 L 247.459383 214.123437" stroke="gray" fill="white" stroke-width="1px"></path><path d="M 247.459383 208.123437 L 244.959383 208.123437 L 244.959383 214.123437 L 247.459383 214.123437 L 247.459383 208.123437" stroke="gray" fill="white" stroke-width="1px"></path><path d="M 247.459383 202.123437 L 244.959383 202.123437 L 244.959383 208.123437 L 247.459383 208.123437 L 247.459383 202.123437" stroke="gray" fill="white" stroke-width="1px"></path><path d="M 247.459383 196.123437 L 244.959383 196.123437 L 244.959383 202.123437 L 247.459383 202.123437 L 247.459383 196.123437" stroke="gray" fill="white" stroke-width="1px"></path><path d="M 247.459383 190.123437 L 244.959383 190.123437 L 244.959383 196.123437 L 247.459383 196.123437 L 247.459383 190.123437" stroke="gray" fill="white" stroke-width="1px"></path><path d="M 247.459383 184.123437 L 244.959383 184.123437 L 244.959383 190.123437 L 247.459383 190.123437 L 247.459383 184.123437" stroke="gray" fill="white" stroke-width="1px"></path><path d="M 247.459383 178.123437 L 244.959383 178.123437 L 244.959383 184.123437 L 247.459383 184.123437 L 247.459383 178.123437" stroke="gray" fill="white" stroke-width="1px"></path><path d="M 31.459383 220.180625 L 33.959383 220.180625 L 33.959383 226.180625 L 31.459383 226.180625 L 31.459383 220.180625" stroke="gray" fill="white" stroke-width="1px"></path><path d="M 31.459383 214.180625 L 33.959383 214.180625 L 33.959383 220.180625 L 31.459383 220.180625 L 31.459383 214.180625" stroke="gray" fill="white" stroke-width="1px"></path><path d="M 31.459383 208.180625 L 33.959383 208.180625 L 33.959383 214.180625 L 31.459383 214.180625 L 31.459383 208.180625" stroke="gray" fill="white" stroke-width="1px"></path><path d="M 31.459383 202.180625 L 33.959383 202.180625 L 33.959383 208.180625 L 31.459383 208.180625 L 31.459383 202.180625" stroke="gray" fill="white" stroke-width="1px"></path><path d="M 31.459383 196.180625 L 33.959383 196.180625 L 33.959383 202.180625 L 31.459383 202.180625 L 31.459383 196.180625" stroke="gray" fill="white" stroke-width="1px"></path><path d="M 31.459383 190.180625 L 33.959383 190.180625 L 33.959383 196.180625 L 31.459383 196.180625 L 31.459383 190.180625" stroke="gray" fill="white" stroke-width="1px"></path><path d="M 31.459383 184.180625 L 33.959383 184.180625 L 33.959383 190.180625 L 31.459383 190.180625 L 31.459383 184.180625" stroke="gray" fill="white" stroke-width="1px"></path><path d="M 19.459383 220.180625 L 21.959383 220.180625 L 21.959383 226.180625 L 19.459383 226.180625 L 19.459383 220.180625" stroke="gray" fill="white" stroke-width="1px"></path><path d="M 19.459383 214.180625 L 21.959383 214.180625 L 21.959383 220.180625 L 19.459383 220.180625 L 19.459383 214.180625" stroke="gray" fill="white" stroke-width="1px"></path><path d="M 19.459383 208.180625 L 21.959383 208.180625 L 21.959383 214.180625 L 19.459383 214.180625 L 19.459383 208.180625" stroke="gray" fill="white" stroke-width="1px"></path><path d="M 19.459383 202.180625 L 21.959383 202.180625 L 21.959383 208.180625 L 19.459383 208.180625 L 19.459383 202.180625" stroke="gray" fill="white" stroke-width="1px"></path><path d="M 19.459383 196.180625 L 21.959383 196.180625 L 21.959383 202.180625 L 19.459383 202.180625 L 19.459383 196.180625" stroke="gray" fill="white" stroke-width="1px"></path><path d="M 19.459383 190.180625 L 21.959383 190.180625 L 21.959383 196.180625 L 19.459383 196.180625 L 19.459383 190.180625" stroke="gray" fill="white" stroke-width="1px"></path><path d="M 139.459383 214.123437 L 141.959383 214.123437 L 141.959383 220.123437 L 139.459383 220.123437 L 139.459383 214.123437" stroke="gray" fill="white" stroke-width="1px"></path><path d="M 127.459383 214.123437 L 129.959383 214.123437 L 129.959383 220.123437 L 127.459383 220.123437 L 127.459383 214.123437" stroke="gray" fill="white" stroke-width="1px"></path><path d="M 115.459383 214.123437 L 117.959383 214.123437 L 117.959383 220.123437 L 115.459383 220.123437 L 115.459383 214.123437" stroke="gray" fill="white" stroke-width="1px"></path><path d="M 103.459383 214.123437 L 105.959383 214.123437 L 105.959383 220.123437 L 103.459383 220.123437 L 103.459383 214.123437" stroke="gray" fill="white" stroke-width="1px"></path><path d="M 163.459383 214.123437 L 165.959383 214.123437 L 165.959383 220.123437 L 163.459383 220.123437 L 163.459383 214.123437" stroke="gray" fill="white" stroke-width="1px"></path><path d="M 163.459383 208.123437 L 165.959383 208.123437 L 165.959383 214.123437 L 163.459383 214.123437 L 163.459383 208.123437" stroke="gray" fill="white" stroke-width="1px"></path><path d="M 163.459383 202.123437 L 165.959383 202.123437 L 165.959383 208.123437 L 163.459383 208.123437 L 163.459383 202.123437" stroke="gray" fill="white" stroke-width="1px"></path><path d="M 163.459383 196.123437 L 165.959383 196.123437 L 165.959383 202.123437 L 163.459383 202.123437 L 163.459383 196.123437" stroke="gray" fill="white" stroke-width="1px"></path><path d="M 151.459383 214.123437 L 153.959383 214.123437 L 153.959383 220.123437 L 151.459383 220.123437 L 151.459383 214.123437" stroke="gray" fill="white" stroke-width="1px"></path><path d="M 151.459383 208.123437 L 153.959383 208.123437 L 153.959383 214.123437 L 151.459383 214.123437 L 151.459383 208.123437" stroke="gray" fill="white" stroke-width="1px"></path><path d="M 151.459383 202.123437 L 153.959383 202.123437 L 153.959383 208.123437 L 151.459383 208.123437 L 151.459383 202.123437" stroke="gray" fill="white" stroke-width="1px"></path><path d="M 151.459383 196.123437 L 153.959383 196.123437 L 153.959383 202.123437 L 151.459383 202.123437 L 151.459383 196.123437" stroke="gray" fill="white" stroke-width="1px"></path><path d="M 223.459383 208.123437 L 225.959383 208.123437 L 225.959383 214.123437 L 223.459383 214.123437 L 223.459383 208.123437" stroke="gray" fill="white" stroke-width="1px"></path><path d="M 223.459383 202.123437 L 225.959383 202.123437 L 225.959383 208.123437 L 223.459383 208.123437 L 223.459383 202.123437" stroke="gray" fill="white" stroke-width="1px"></path><path d="M 223.459383 196.123437 L 225.959383 196.123437 L 225.959383 202.123437 L 223.459383 202.123437 L 223.459383 196.123437" stroke="gray" fill="white" stroke-width="1px"></path><path d="M 211.459383 208.123437 L 213.959383 208.123437 L 213.959383 214.123437 L 211.459383 214.123437 L 211.459383 208.123437" stroke="gray" fill="white" stroke-width="1px"></path><path d="M 211.459383 202.123437 L 213.959383 202.123437 L 213.959383 208.123437 L 211.459383 208.123437 L 211.459383 202.123437" stroke="gray" fill="white" stroke-width="1px"></path><path d="M 211.459383 196.123437 L 213.959383 196.123437 L 213.959383 202.123437 L 211.459383 202.123437 L 211.459383 196.123437" stroke="gray" fill="white" stroke-width="1px"></path><path d="M 271.459383 214.123437 L 273.959383 214.123437 L 273.959383 220.123437 L 271.459383 220.123437 L 271.459383 214.123437" stroke="gray" fill="white" stroke-width="1px"></path><path d="M 271.459383 208.123437 L 273.959383 208.123437 L 273.959383 214.123437 L 271.459383 214.123437 L 271.459383 208.123437" stroke="gray" fill="white" stroke-width="1px"></path><path d="M 271.459383 202.123437 L 273.959383 202.123437 L 273.959383 208.123437 L 271.459383 208.123437 L 271.459383 202.123437" stroke="gray" fill="white" stroke-width="1px"></path><path d="M 271.459383 196.123437 L 273.959383 196.123437 L 273.959383 202.123437 L 271.459383 202.123437 L 271.459383 196.123437" stroke="gray" fill="white" stroke-width="1px"></path><path d="M 271.459383 190.123437 L 273.959383 190.123437 L 273.959383 196.123437 L 271.459383 196.123437 L 271.459383 190.123437" stroke="gray" fill="white" stroke-width="1px"></path><path d="M 271.459383 184.123437 L 273.959383 184.123437 L 273.959383 190.123437 L 271.459383 190.123437 L 271.459383 184.123437" stroke="gray" fill="white" stroke-width="1px"></path><path d="M 271.459383 178.123437 L 273.959383 178.123437 L 273.959383 184.123437 L 271.459383 184.123437 L 271.459383 178.123437" stroke="gray" fill="white" stroke-width="1px"></path><path d="M 259.459383 214.123437 L 261.959383 214.123437 L 261.959383 220.123437 L 259.459383 220.123437 L 259.459383 214.123437" stroke="gray" fill="white" stroke-width="1px"></path><path d="M 259.459383 208.123437 L 261.959383 208.123437 L 261.959383 214.123437 L 259.459383 214.123437 L 259.459383 208.123437" stroke="gray" fill="white" stroke-width="1px"></path><path d="M 259.459383 202.123437 L 261.959383 202.123437 L 261.959383 208.123437 L 259.459383 208.123437 L 259.459383 202.123437" stroke="gray" fill="white" stroke-width="1px"></path><path d="M 259.459383 196.123437 L 261.959383 196.123437 L 261.959383 202.123437 L 259.459383 202.123437 L 259.459383 196.123437" stroke="gray" fill="white" stroke-width="1px"></path><path d="M 259.459383 190.123437 L 261.959383 190.123437 L 261.959383 196.123437 L 259.459383 196.123437 L 259.459383 190.123437" stroke="gray" fill="white" stroke-width="1px"></path><path d="M 259.459383 184.123437 L 261.959383 184.123437 L 261.959383 190.123437 L 259.459383 190.123437 L 259.459383 184.123437" stroke="gray" fill="white" stroke-width="1px"></path><path d="M 259.459383 178.123437 L 261.959383 178.123437 L 261.959383 184.123437 L 259.459383 184.123437 L 259.459383 178.123437" stroke="gray" fill="white" stroke-width="1px"></path><path d="M 247.459383 214.123437 L 249.959383 214.123437 L 249.959383 220.123437 L 247.459383 220.123437 L 247.459383 214.123437" stroke="gray" fill="white" stroke-width="1px"></path><path d="M 247.459383 208.123437 L 249.959383 208.123437 L 249.959383 214.123437 L 247.459383 214.123437 L 247.459383 208.123437" stroke="gray" fill="white" stroke-width="1px"></path><path d="M 247.459383 202.123437 L 249.959383 202.123437 L 249.959383 208.123437 L 247.459383 208.123437 L 247.459383 202.123437" stroke="gray" fill="white" stroke-width="1px"></path><path d="M 247.459383 196.123437 L 249.959383 196.123437 L 249.959383 202.123437 L 247.459383 202.123437 L 247.459383 196.123437" stroke="gray" fill="white" stroke-width="1px"></path><path d="M 247.459383 190.123437 L 249.959383 190.123437 L 249.959383 196.123437 L 247.459383 196.123437 L 247.459383 190.123437" stroke="gray" fill="white" stroke-width="1px"></path><path d="M 247.459383 184.123437 L 249.959383 184.123437 L 249.959383 190.123437 L 247.459383 190.123437 L 247.459383 184.123437" stroke="gray" fill="white" stroke-width="1px"></path><path d="M 247.459383 178.123437 L 249.959383 178.123437 L 249.959383 184.123437 L 247.459383 184.123437 L 247.459383 178.123437" stroke="gray" fill="white" stroke-width="1px"></path><path d="M 22.000000 172.123437 L 22.000000 169.623437 L 16.000000 169.623437 L 16.000000 172.123437 L 22.000000 172.123437" stroke="gray" fill="white" stroke-width="1px"></path><path d="M 28.000000 172.123437 L 28.000000 169.623437 L 22.000000 169.623437 L 22.000000 172.123437 L 28.000000 172.123437" stroke="gray" fill="white" stroke-width="1px"></path><path d="M 34.000000 172.123437 L 34.000000 169.623437 L 28.000000 169.623437 L 28.000000 172.123437 L 34.000000 172.123437" stroke="gray" fill="white" stroke-width="1px"></path><path d="M 40.000000 172.123437 L 40.000000 169.623437 L 34.000000 169.623437 L 34.000000 172.123437 L 40.000000 172.123437" stroke="gray" fill="white" stroke-width="1px"></path><path d="M 46.000000 172.123437 L 46.000000 169.623437 L 40.000000 169.623437 L 40.000000 172.123437 L 46.000000 172.123437" stroke="gray" fill="white" stroke-width="1px"></path><path d="M 52.000000 172.123437 L 52.000000 169.623437 L 46.000000 169.623437 L 46.000000 172.123437 L 52.000000 172.123437" stroke="gray" fill="white" stroke-width="1px"></path><path d="M 58.000000 172.123437 L 58.000000 169.623437 L 52.000000 169.623437 L 52.000000 172.123437 L 58.000000 172.123437" stroke="gray" fill="white" stroke-width="1px"></path><path d="M 22.000000 160.123437 L 22.000000 157.623437 L 16.000000 157.623437 L 16.000000 160.123437 L 22.000000 160.123437" stroke="gray" fill="white" stroke-width="1px"></path><path d="M 28.000000 160.123437 L 28.000000 157.623437 L 22.000000 157.623437 L 22.000000 160.123437 L 28.000000 160.123437" stroke="gray" fill="white" stroke-width="1px"></path><path d="M 34.000000 160.123437 L 34.000000 157.623437 L 28.000000 157.623437 L 28.000000 160.123437 L 34.000000 160.123437" stroke="gray" fill="white" stroke-width="1px"></path><path d="M 40.000000 160.123437 L 40.000000 157.623437 L 34.000000 157.623437 L 34.000000 160.123437 L 40.000000 160.123437" stroke="gray" fill="white" stroke-width="1px"></path><path d="M 46.000000 160.123437 L 46.000000 157.623437 L 40.000000 157.623437 L 40.000000 160.123437 L 46.000000 160.123437" stroke="gray" fill="white" stroke-width="1px"></path><path d="M 52.000000 160.123437 L 52.000000 157.623437 L 46.000000 157.623437 L 46.000000 160.123437 L 52.000000 160.123437" stroke="gray" fill="white" stroke-width="1px"></path><path d="M 58.000000 160.123437 L 58.000000 157.623437 L 52.000000 157.623437 L 52.000000 160.123437 L 58.000000 160.123437" stroke="gray" fill="white" stroke-width="1px"></path><path d="M 22.000000 148.123437 L 22.000000 145.623437 L 16.000000 145.623437 L 16.000000 148.123437 L 22.000000 148.123437" stroke="gray" fill="white" stroke-width="1px"></path><path d="M 28.000000 148.123437 L 28.000000 145.623437 L 22.000000 145.623437 L 22.000000 148.123437 L 28.000000 148.123437" stroke="gray" fill="white" stroke-width="1px"></path><path d="M 34.000000 148.123437 L 34.000000 145.623437 L 28.000000 145.623437 L 28.000000 148.123437 L 34.000000 148.123437" stroke="gray" fill="white" stroke-width="1px"></path><path d="M 40.000000 148.123437 L 40.000000 145.623437 L 34.000000 145.623437 L 34.000000 148.123437 L 40.000000 148.123437" stroke="gray" fill="white" stroke-width="1px"></path><path d="M 46.000000 148.123437 L 46.000000 145.623437 L 40.000000 145.623437 L 40.000000 148.123437 L 46.000000 148.123437" stroke="gray" fill="white" stroke-width="1px"></path><path d="M 52.000000 148.123437 L 52.000000 145.623437 L 46.000000 145.623437 L 46.000000 148.123437 L 52.000000 148.123437" stroke="gray" fill="white" stroke-width="1px"></path><path d="M 58.000000 148.123437 L 58.000000 145.623437 L 52.000000 145.623437 L 52.000000 148.123437 L 58.000000 148.123437" stroke="gray" fill="white" stroke-width="1px"></path><path d="M 251.737652 160.123437 L 251.737652 157.623437 L 245.737652 157.623437 L 245.737652 160.123437 L 251.737652 160.123437" stroke="gray" fill="white" stroke-width="1px"></path><path d="M 257.737652 160.123437 L 257.737652 157.623437 L 251.737652 157.623437 L 251.737652 160.123437 L 257.737652 160.123437" stroke="gray" fill="white" stroke-width="1px"></path><path d="M 263.737652 160.123437 L 263.737652 157.623437 L 257.737652 157.623437 L 257.737652 160.123437 L 263.737652 160.123437" stroke="gray" fill="white" stroke-width="1px"></path><path d="M 269.737652 160.123437 L 269.737652 157.623437 L 263.737652 157.623437 L 263.737652 160.123437 L 269.737652 160.123437" stroke="gray" fill="white" stroke-width="1px"></path><path d="M 275.737652 160.123437 L 275.737652 157.623437 L 269.737652 157.623437 L 269.737652 160.123437 L 275.737652 160.123437" stroke="gray" fill="white" stroke-width="1px"></path><path d="M 251.737652 148.123437 L 251.737652 145.623437 L 245.737652 145.623437 L 245.737652 148.123437 L 251.737652 148.123437" stroke="gray" fill="white" stroke-width="1px"></path><path d="M 257.737652 148.123437 L 257.737652 145.623437 L 251.737652 145.623437 L 251.737652 148.123437 L 257.737652 148.123437" stroke="gray" fill="white" stroke-width="1px"></path><path d="M 263.737652 148.123437 L 263.737652 145.623437 L 257.737652 145.623437 L 257.737652 148.123437 L 263.737652 148.123437" stroke="gray" fill="white" stroke-width="1px"></path><path d="M 269.737652 148.123437 L 269.737652 145.623437 L 263.737652 145.623437 L 263.737652 148.123437 L 269.737652 148.123437" stroke="gray" fill="white" stroke-width="1px"></path><path d="M 275.737652 148.123437 L 275.737652 145.623437 L 269.737652 145.623437 L 269.737652 148.123437 L 275.737652 148.123437" stroke="gray" fill="white" stroke-width="1px"></path><path d="M 22.000000 172.123437 L 22.000000 174.623437 L 16.000000 174.623437 L 16.000000 172.123437 L 22.000000 172.123437" stroke="gray" fill="white" stroke-width="1px"></path><path d="M 28.000000 172.123437 L 28.000000 174.623437 L 22.000000 174.623437 L 22.000000 172.123437 L 28.000000 172.123437" stroke="gray" fill="white" stroke-width="1px"></path><path d="M 34.000000 172.123437 L 34.000000 174.623437 L 28.000000 174.623437 L 28.000000 172.123437 L 34.000000 172.123437" stroke="gray" fill="white" stroke-width="1px"></path><path d="M 40.000000 172.123437 L 40.000000 174.623437 L 34.000000 174.623437 L 34.000000 172.123437 L 40.000000 172.123437" stroke="gray" fill="white" stroke-width="1px"></path><path d="M 46.000000 172.123437 L 46.000000 174.623437 L 40.000000 174.623437 L 40.000000 172.123437 L 46.000000 172.123437" stroke="gray" fill="white" stroke-width="1px"></path><path d="M 52.000000 172.123437 L 52.000000 174.623437 L 46.000000 174.623437 L 46.000000 172.123437 L 52.000000 172.123437" stroke="gray" fill="white" stroke-width="1px"></path><path d="M 58.000000 172.123437 L 58.000000 174.623437 L 52.000000 174.623437 L 52.000000 172.123437 L 58.000000 172.123437" stroke="gray" fill="white" stroke-width="1px"></path><path d="M 22.000000 160.123437 L 22.000000 162.623437 L 16.000000 162.623437 L 16.000000 160.123437 L 22.000000 160.123437" stroke="gray" fill="white" stroke-width="1px"></path><path d="M 28.000000 160.123437 L 28.000000 162.623437 L 22.000000 162.623437 L 22.000000 160.123437 L 28.000000 160.123437" stroke="gray" fill="white" stroke-width="1px"></path><path d="M 34.000000 160.123437 L 34.000000 162.623437 L 28.000000 162.623437 L 28.000000 160.123437 L 34.000000 160.123437" stroke="gray" fill="white" stroke-width="1px"></path><path d="M 40.000000 160.123437 L 40.000000 162.623437 L 34.000000 162.623437 L 34.000000 160.123437 L 40.000000 160.123437" stroke="gray" fill="white" stroke-width="1px"></path><path d="M 46.000000 160.123437 L 46.000000 162.623437 L 40.000000 162.623437 L 40.000000 160.123437 L 46.000000 160.123437" stroke="gray" fill="white" stroke-width="1px"></path><path d="M 52.000000 160.123437 L 52.000000 162.623437 L 46.000000 162.623437 L 46.000000 160.123437 L 52.000000 160.123437" stroke="gray" fill="white" stroke-width="1px"></path><path d="M 58.000000 160.123437 L 58.000000 162.623437 L 52.000000 162.623437 L 52.000000 160.123437 L 58.000000 160.123437" stroke="gray" fill="white" stroke-width="1px"></path><path d="M 22.000000 148.123437 L 22.000000 150.623437 L 16.000000 150.623437 L 16.000000 148.123437 L 22.000000 148.123437" stroke="gray" fill="white" stroke-width="1px"></path><path d="M 28.000000 148.123437 L 28.000000 150.623437 L 22.000000 150.623437 L 22.000000 148.123437 L 28.000000 148.123437" stroke="gray" fill="white" stroke-width="1px"></path><path d="M 34.000000 148.123437 L 34.000000 150.623437 L 28.000000 150.623437 L 28.000000 148.123437 L 34.000000 148.123437" stroke="gray" fill="white" stroke-width="1px"></path><path d="M 40.000000 148.123437 L 40.000000 150.623437 L 34.000000 150.623437 L 34.000000 148.123437 L 40.000000 148.123437" stroke="gray" fill="white" stroke-width="1px"></path><path d="M 46.000000 148.123437 L 46.000000 150.623437 L 40.000000 150.623437 L 40.000000 148.123437 L 46.000000 148.123437" stroke="gray" fill="white" stroke-width="1px"></path><path d="M 52.000000 148.123437 L 52.000000 150.623437 L 46.000000 150.623437 L 46.000000 148.123437 L 52.000000 148.123437" stroke="gray" fill="white" stroke-width="1px"></path><path d="M 58.000000 148.123437 L 58.000000 150.623437 L 52.000000 150.623437 L 52.000000 148.123437 L 58.000000 148.123437" stroke="gray" fill="white" stroke-width="1px"></path><path d="M 251.737652 160.123437 L 251.737652 162.623437 L 245.737652 162.623437 L 245.737652 160.123437 L 251.737652 160.123437" stroke="gray" fill="white" stroke-width="1px"></path><path d="M 257.737652 160.123437 L 257.737652 162.623437 L 251.737652 162.623437 L 251.737652 160.123437 L 257.737652 160.123437" stroke="gray" fill="white" stroke-width="1px"></path><path d="M 263.737652 160.123437 L 263.737652 162.623437 L 257.737652 162.623437 L 257.737652 160.123437 L 263.737652 160.123437" stroke="gray" fill="white" stroke-width="1px"></path><path d="M 269.737652 160.123437 L 269.737652 162.623437 L 263.737652 162.623437 L 263.737652 160.123437 L 269.737652 160.123437" stroke="gray" fill="white" stroke-width="1px"></path><path d="M 275.737652 160.123437 L 275.737652 162.623437 L 269.737652 162.623437 L 269.737652 160.123437 L 275.737652 160.123437" stroke="gray" fill="white" stroke-width="1px"></path><path d="M 251.737652 148.123437 L 251.737652 150.623437 L 245.737652 150.623437 L 245.737652 148.123437 L 251.737652 148.123437" stroke="gray" fill="white" stroke-width="1px"></path><path d="M 257.737652 148.123437 L 257.737652 150.623437 L 251.737652 150.623437 L 251.737652 148.123437 L 257.737652 148.123437" stroke="gray" fill="white" stroke-width="1px"></path><path d="M 263.737652 148.123437 L 263.737652 150.623437 L 257.737652 150.623437 L 257.737652 148.123437 L 263.737652 148.123437" stroke="gray" fill="white" stroke-width="1px"></path><path d="M 269.737652 148.123437 L 269.737652 150.623437 L 263.737652 150.623437 L 263.737652 148.123437 L 269.737652 148.123437" stroke="gray" fill="white" stroke-width="1px"></path><path d="M 275.737652 148.123437 L 275.737652 150.623437 L 269.737652 150.623437 L 269.737652 148.123437 L 275.737652 148.123437" stroke="gray" fill="white" stroke-width="1px"></path><path d="M 271.459383 45.066788 L 268.959383 45.066788 L 268.959383 51.066788 L 271.459383 51.066788 L 271.459383 45.066788" stroke="gray" fill="white" stroke-width="1px"></path><path d="M 271.459383 39.066788 L 268.959383 39.066788 L 268.959383 45.066788 L 271.459383 45.066788 L 271.459383 39.066788" stroke="gray" fill="white" stroke-width="1px"></path><path d="M 271.459383 33.066788 L 268.959383 33.066788 L 268.959383 39.066788 L 271.459383 39.066788 L 271.459383 33.066788" stroke="gray" fill="white" stroke-width="1px"></path><path d="M 259.459383 45.262034 L 256.959383 45.262034 L 256.959383 51.262034 L 259.459383 51.262034 L 259.459383 45.262034" stroke="gray" fill="white" stroke-width="1px"></path><path d="M 259.459383 39.262034 L 256.959383 39.262034 L 256.959383 45.262034 L 259.459383 45.262034 L 259.459383 39.262034" stroke="gray" fill="white" stroke-width="1px"></path><path d="M 259.459383 33.262034 L 256.959383 33.262034 L 256.959383 39.262034 L 259.459383 39.262034 L 259.459383 33.262034" stroke="gray" fill="white" stroke-width="1px"></path><path d="M 247.459383 45.457280 L 244.959383 45.457280 L 244.959383 51.457280 L 247.459383 51.457280 L 247.459383 45.457280" stroke="gray" fill="white" stroke-width="1px"></path><path d="M 247.459383 39.457280 L 244.959383 39.457280 L 244.959383 45.457280 L 247.459383 45.457280 L 247.459383 39.457280" stroke="gray" fill="white" stroke-width="1px"></path><path d="M 247.459383 33.457280 L 244.959383 33.457280 L 244.959383 39.457280 L 247.459383 39.457280 L 247.459383 33.457280" stroke="gray" fill="white" stroke-width="1px"></path><path d="M 235.459383 45.652526 L 232.959383 45.652526 L 232.959383 51.652526 L 235.459383 51.652526 L 235.459383 45.652526" stroke="gray" fill="white" stroke-width="1px"></path><path d="M 235.459383 39.652526 L 232.959383 39.652526 L 232.959383 45.652526 L 235.459383 45.652526 L 235.459383 39.652526" stroke="gray" fill="white" stroke-width="1px"></path><path d="M 235.459383 33.652526 L 232.959383 33.652526 L 232.959383 39.652526 L 235.459383 39.652526 L 235.459383 33.652526" stroke="gray" fill="white" stroke-width="1px"></path><path d="M 187.459383 101.033125 L 184.959383 101.033125 L 184.959383 107.033125 L 187.459383 107.033125 L 187.459383 101.033125" stroke="gray" fill="white" stroke-width="1px"></path><path d="M 187.459383 95.033125 L 184.959383 95.033125 L 184.959383 101.033125 L 187.459383 101.033125 L 187.459383 95.033125" stroke="gray" fill="white" stroke-width="1px"></path><path d="M 187.459383 89.033125 L 184.959383 89.033125 L 184.959383 95.033125 L 187.459383 95.033125 L 187.459383 89.033125" stroke="gray" fill="white" stroke-width="1px"></path><path d="M 175.459383 101.033125 L 172.959383 101.033125 L 172.959383 107.033125 L 175.459383 107.033125 L 175.459383 101.033125" stroke="gray" fill="white" stroke-width="1px"></path><path d="M 175.459383 95.033125 L 172.959383 95.033125 L 172.959383 101.033125 L 175.459383 101.033125 L 175.459383 95.033125" stroke="gray" fill="white" stroke-width="1px"></path><path d="M 175.459383 89.033125 L 172.959383 89.033125 L 172.959383 95.033125 L 175.459383 95.033125 L 175.459383 89.033125" stroke="gray" fill="white" stroke-width="1px"></path><path d="M 175.459383 83.033125 L 172.959383 83.033125 L 172.959383 89.033125 L 175.459383 89.033125 L 175.459383 83.033125" stroke="gray" fill="white" stroke-width="1px"></path><path d="M 163.459383 98.568864 L 160.959383 98.568864 L 160.959383 104.568864 L 163.459383 104.568864 L 163.459383 98.568864" stroke="gray" fill="white" stroke-width="1px"></path><path d="M 163.459383 92.568864 L 160.959383 92.568864 L 160.959383 98.568864 L 163.459383 98.568864 L 163.459383 92.568864" stroke="gray" fill="white" stroke-width="1px"></path><path d="M 163.459383 86.568864 L 160.959383 86.568864 L 160.959383 92.568864 L 163.459383 92.568864 L 163.459383 86.568864" stroke="gray" fill="white" stroke-width="1px"></path><path d="M 127.459383 101.033125 L 124.959383 101.033125 L 124.959383 107.033125 L 127.459383 107.033125 L 127.459383 101.033125" stroke="gray" fill="white" stroke-width="1px"></path><path d="M 127.459383 95.033125 L 124.959383 95.033125 L 124.959383 101.033125 L 127.459383 101.033125 L 127.459383 95.033125" stroke="gray" fill="white" stroke-width="1px"></path><path d="M 127.459383 89.033125 L 124.959383 89.033125 L 124.959383 95.033125 L 127.459383 95.033125 L 127.459383 89.033125" stroke="gray" fill="white" stroke-width="1px"></path><path d="M 127.459383 83.033125 L 124.959383 83.033125 L 124.959383 89.033125 L 127.459383 89.033125 L 127.459383 83.033125" stroke="gray" fill="white" stroke-width="1px"></path><path d="M 115.459383 101.033125 L 112.959383 101.033125 L 112.959383 107.033125 L 115.459383 107.033125 L 115.459383 101.033125" stroke="gray" fill="white" stroke-width="1px"></path><path d="M 115.459383 95.033125 L 112.959383 95.033125 L 112.959383 101.033125 L 115.459383 101.033125 L 115.459383 95.033125" stroke="gray" fill="white" stroke-width="1px"></path><path d="M 115.459383 89.033125 L 112.959383 89.033125 L 112.959383 95.033125 L 115.459383 95.033125 L 115.459383 89.033125" stroke="gray" fill="white" stroke-width="1px"></path><path d="M 115.459383 83.033125 L 112.959383 83.033125 L 112.959383 89.033125 L 115.459383 89.033125 L 115.459383 83.033125" stroke="gray" fill="white" stroke-width="1px"></path><path d="M 31.459383 107.090312 L 28.959383 107.090312 L 28.959383 113.090312 L 31.459383 113.090312 L 31.459383 107.090312" stroke="gray" fill="white" stroke-width="1px"></path><path d="M 31.459383 101.090312 L 28.959383 101.090312 L 28.959383 107.090312 L 31.459383 107.090312 L 31.459383 101.090312" stroke="gray" fill="white" stroke-width="1px"></path><path d="M 31.459383 95.090312 L 28.959383 95.090312 L 28.959383 101.090312 L 31.459383 101.090312 L 31.459383 95.090312" stroke="gray" fill="white" stroke-width="1px"></path><path d="M 31.459383 89.090312 L 28.959383 89.090312 L 28.959383 95.090312 L 31.459383 95.090312 L 31.459383 89.090312" stroke="gray" fill="white" stroke-width="1px"></path><path d="M 31.459383 83.090312 L 28.959383 83.090312 L 28.959383 89.090312 L 31.459383 89.090312 L 31.459383 83.090312" stroke="gray" fill="white" stroke-width="1px"></path><path d="M 31.459383 77.090312 L 28.959383 77.090312 L 28.959383 83.090312 L 31.459383 83.090312 L 31.459383 77.090312" stroke="gray" fill="white" stroke-width="1px"></path><path d="M 31.459383 71.090312 L 28.959383 71.090312 L 28.959383 77.090312 L 31.459383 77.090312 L 31.459383 71.090312" stroke="gray" fill="white" stroke-width="1px"></path><path d="M 19.459383 107.090312 L 16.959383 107.090312 L 16.959383 113.090312 L 19.459383 113.090312 L 19.459383 107.090312" stroke="gray" fill="white" stroke-width="1px"></path><path d="M 19.459383 101.090312 L 16.959383 101.090312 L 16.959383 107.090312 L 19.459383 107.090312 L 19.459383 101.090312" stroke="gray" fill="white" stroke-width="1px"></path><path d="M 19.459383 95.090312 L 16.959383 95.090312 L 16.959383 101.090312 L 19.459383 101.090312 L 19.459383 95.090312" stroke="gray" fill="white" stroke-width="1px"></path><path d="M 19.459383 89.090312 L 16.959383 89.090312 L 16.959383 95.090312 L 19.459383 95.090312 L 19.459383 89.090312" stroke="gray" fill="white" stroke-width="1px"></path><path d="M 19.459383 83.090312 L 16.959383 83.090312 L 16.959383 89.090312 L 19.459383 89.090312 L 19.459383 83.090312" stroke="gray" fill="white" stroke-width="1px"></path><path d="M 19.459383 77.090312 L 16.959383 77.090312 L 16.959383 83.090312 L 19.459383 83.090312 L 19.459383 77.090312" stroke="gray" fill="white" stroke-width="1px"></path><path d="M 19.459383 71.090312 L 16.959383 71.090312 L 16.959383 77.090312 L 19.459383 77.090312 L 19.459383 71.090312" stroke="gray" fill="white" stroke-width="1px"></path><path d="M 271.459383 45.066788 L 273.959383 45.066788 L 273.959383 51.066788 L 271.459383 51.066788 L 271.459383 45.066788" stroke="gray" fill="white" stroke-width="1px"></path><path d="M 271.459383 39.066788 L 273.959383 39.066788 L 273.959383 45.066788 L 271.459383 45.066788 L 271.459383 39.066788" stroke="gray" fill="white" stroke-width="1px"></path><path d="M 271.459383 33.066788 L 273.959383 33.066788 L 273.959383 39.066788 L 271.459383 39.066788 L 271.459383 33.066788" stroke="gray" fill="white" stroke-width="1px"></path><path d="M 259.459383 45.262034 L 261.959383 45.262034 L 261.959383 51.262034 L 259.459383 51.262034 L 259.459383 45.262034" stroke="gray" fill="white" stroke-width="1px"></path><path d="M 259.459383 39.262034 L 261.959383 39.262034 L 261.959383 45.262034 L 259.459383 45.262034 L 259.459383 39.262034" stroke="gray" fill="white" stroke-width="1px"></path><path d="M 259.459383 33.262034 L 261.959383 33.262034 L 261.959383 39.262034 L 259.459383 39.262034 L 259.459383 33.262034" stroke="gray" fill="white" stroke-width="1px"></path><path d="M 247.459383 45.457280 L 249.959383 45.457280 L 249.959383 51.457280 L 247.459383 51.457280 L 247.459383 45.457280" stroke="gray" fill="white" stroke-width="1px"></path><path d="M 247.459383 39.457280 L 249.959383 39.457280 L 249.959383 45.457280 L 247.459383 45.457280 L 247.459383 39.457280" stroke="gray" fill="white" stroke-width="1px"></path><path d="M 247.459383 33.457280 L 249.959383 33.457280 L 249.959383 39.457280 L 247.459383 39.457280 L 247.459383 33.457280" stroke="gray" fill="white" stroke-width="1px"></path><path d="M 235.459383 45.652526 L 237.959383 45.652526 L 237.959383 51.652526 L 235.459383 51.652526 L 235.459383 45.652526" stroke="gray" fill="white" stroke-width="1px"></path><path d="M 235.459383 39.652526 L 237.959383 39.652526 L 237.959383 45.652526 L 235.459383 45.652526 L 235.459383 39.652526" stroke="gray" fill="white" stroke-width="1px"></path><path d="M 235.459383 33.652526 L 237.959383 33.652526 L 237.959383 39.652526 L 235.459383 39.652526 L 235.459383 33.652526" stroke="gray" fill="white" stroke-width="1px"></path><path d="M 187.459383 101.033125 L 189.959383 101.033125 L 189.959383 107.033125 L 187.459383 107.033125 L 187.459383 101.033125" stroke="gray" fill="white" stroke-width="1px"></path><path d="M 187.459383 95.033125 L 189.959383 95.033125 L 189.959383 101.033125 L 187.459383 101.033125 L 187.459383 95.033125" stroke="gray" fill="white" stroke-width="1px"></path><path d="M 187.459383 89.033125 L 189.959383 89.033125 L 189.959383 95.033125 L 187.459383 95.033125 L 187.459383 89.033125" stroke="gray" fill="white" stroke-width="1px"></path><path d="M 175.459383 101.033125 L 177.959383 101.033125 L 177.959383 107.033125 L 175.459383 107.033125 L 175.459383 101.033125" stroke="gray" fill="white" stroke-width="1px"></path><path d="M 175.459383 95.033125 L 177.959383 95.033125 L 177.959383 101.033125 L 175.459383 101.033125 L 175.459383 95.033125" stroke="gray" fill="white" stroke-width="1px"></path><path d="M 175.459383 89.033125 L 177.959383 89.033125 L 177.959383 95.033125 L 175.459383 95.033125 L 175.459383 89.033125" stroke="gray" fill="white" stroke-width="1px"></path><path d="M 175.459383 83.033125 L 177.959383 83.033125 L 177.959383 89.033125 L 175.459383 89.033125 L 175.459383 83.033125" stroke="gray" fill="white" stroke-width="1px"></path><path d="M 163.459383 86.568864 L 165.959383 86.568864 L 165.959383 92.568864 L 163.459383 92.568864 L 163.459383 86.568864" stroke="gray" fill="white" stroke-width="1px"></path><path d="M 127.459383 101.033125 L 129.959383 101.033125 L 129.959383 107.033125 L 127.459383 107.033125 L 127.459383 101.033125" stroke="gray" fill="white" stroke-width="1px"></path><path d="M 127.459383 95.033125 L 129.959383 95.033125 L 129.959383 101.033125 L 127.459383 101.033125 L 127.459383 95.033125" stroke="gray" fill="white" stroke-width="1px"></path><path d="M 127.459383 89.033125 L 129.959383 89.033125 L 129.959383 95.033125 L 127.459383 95.033125 L 127.459383 89.033125" stroke="gray" fill="white" stroke-width="1px"></path><path d="M 127.459383 83.033125 L 129.959383 83.033125 L 129.959383 89.033125 L 127.459383 89.033125 L 127.459383 83.033125" stroke="gray" fill="white" stroke-width="1px"></path><path d="M 115.459383 101.033125 L 117.959383 101.033125 L 117.959383 107.033125 L 115.459383 107.033125 L 115.459383 101.033125" stroke="gray" fill="white" stroke-width="1px"></path><path d="M 115.459383 95.033125 L 117.959383 95.033125 L 117.959383 101.033125 L 115.459383 101.033125 L 115.459383 95.033125" stroke="gray" fill="white" stroke-width="1px"></path><path d="M 115.459383 89.033125 L 117.959383 89.033125 L 117.959383 95.033125 L 115.459383 95.033125 L 115.459383 89.033125" stroke="gray" fill="white" stroke-width="1px"></path><path d="M 115.459383 83.033125 L 117.959383 83.033125 L 117.959383 89.033125 L 115.459383 89.033125 L 115.459383 83.033125" stroke="gray" fill="white" stroke-width="1px"></path><path d="M 31.459383 107.090312 L 33.959383 107.090312 L 33.959383 113.090312 L 31.459383 113.090312 L 31.459383 107.090312" stroke="gray" fill="white" stroke-width="1px"></path><path d="M 31.459383 101.090312 L 33.959383 101.090312 L 33.959383 107.090312 L 31.459383 107.090312 L 31.459383 101.090312" stroke="gray" fill="white" stroke-width="1px"></path><path d="M 31.459383 95.090312 L 33.959383 95.090312 L 33.959383 101.090312 L 31.459383 101.090312 L 31.459383 95.090312" stroke="gray" fill="white" stroke-width="1px"></path><path d="M 31.459383 89.090312 L 33.959383 89.090312 L 33.959383 95.090312 L 31.459383 95.090312 L 31.459383 89.090312" stroke="gray" fill="white" stroke-width="1px"></path><path d="M 31.459383 83.090312 L 33.959383 83.090312 L 33.959383 89.090312 L 31.459383 89.090312 L 31.459383 83.090312" stroke="gray" fill="white" stroke-width="1px"></path><path d="M 31.459383 77.090312 L 33.959383 77.090312 L 33.959383 83.090312 L 31.459383 83.090312 L 31.459383 77.090312" stroke="gray" fill="white" stroke-width="1px"></path><path d="M 31.459383 71.090312 L 33.959383 71.090312 L 33.959383 77.090312 L 31.459383 77.090312 L 31.459383 71.090312" stroke="gray" fill="white" stroke-width="1px"></path><path d="M 19.459383 107.090312 L 21.959383 107.090312 L 21.959383 113.090312 L 19.459383 113.090312 L 19.459383 107.090312" stroke="gray" fill="white" stroke-width="1px"></path><path d="M 19.459383 101.090312 L 21.959383 101.090312 L 21.959383 107.090312 L 19.459383 107.090312 L 19.459383 101.090312" stroke="gray" fill="white" stroke-width="1px"></path><path d="M 19.459383 95.090312 L 21.959383 95.090312 L 21.959383 101.090312 L 19.459383 101.090312 L 19.459383 95.090312" stroke="gray" fill="white" stroke-width="1px"></path><path d="M 19.459383 89.090312 L 21.959383 89.090312 L 21.959383 95.090312 L 19.459383 95.090312 L 19.459383 89.090312" stroke="gray" fill="white" stroke-width="1px"></path><path d="M 19.459383 83.090312 L 21.959383 83.090312 L 21.959383 89.090312 L 19.459383 89.090312 L 19.459383 83.090312" stroke="gray" fill="white" stroke-width="1px"></path><path d="M 19.459383 77.090312 L 21.959383 77.090312 L 21.959383 83.090312 L 19.459383 83.090312 L 19.459383 77.090312" stroke="gray" fill="white" stroke-width="1px"></path><path d="M 19.459383 71.090312 L 21.959383 71.090312 L 21.959383 77.090312 L 19.459383 77.090312 L 19.459383 71.090312" stroke="gray" fill="white" stroke-width="1px"></path><path d="M 264.843135 101.263579 L 264.843135 98.763579 L 258.843135 98.763579 L 258.843135 101.263579 L 264.843135 101.263579" stroke="gray" fill="white" stroke-width="1px"></path><path d="M 270.843135 101.263579 L 270.843135 98.763579 L 264.843135 98.763579 L 264.843135 101.263579 L 270.843135 101.263579" stroke="gray" fill="white" stroke-width="1px"></path><path d="M 276.843135 101.263579 L 276.843135 98.763579 L 270.843135 98.763579 L 270.843135 101.263579 L 276.843135 101.263579" stroke="gray" fill="white" stroke-width="1px"></path><path d="M 259.683171 89.263579 L 259.683171 86.763579 L 253.683171 86.763579 L 253.683171 89.263579 L 259.683171 89.263579" stroke="gray" fill="white" stroke-width="1px"></path><path d="M 265.683171 89.263579 L 265.683171 86.763579 L 259.683171 86.763579 L 259.683171 89.263579 L 265.683171 89.263579" stroke="gray" fill="white" stroke-width="1px"></path><path d="M 271.683171 89.263579 L 271.683171 86.763579 L 265.683171 86.763579 L 265.683171 89.263579 L 271.683171 89.263579" stroke="gray" fill="white" stroke-width="1px"></path><path d="M 277.683171 89.263579 L 277.683171 86.763579 L 271.683171 86.763579 L 271.683171 89.263579 L 277.683171 89.263579" stroke="gray" fill="white" stroke-width="1px"></path><path d="M 254.523206 77.263579 L 254.523206 74.763579 L 248.523206 74.763579 L 248.523206 77.263579 L 254.523206 77.263579" stroke="gray" fill="white" stroke-width="1px"></path><path d="M 260.523206 77.263579 L 260.523206 74.763579 L 254.523206 74.763579 L 254.523206 77.263579 L 260.523206 77.263579" stroke="gray" fill="white" stroke-width="1px"></path><path d="M 266.523206 77.263579 L 266.523206 74.763579 L 260.523206 74.763579 L 260.523206 77.263579 L 266.523206 77.263579" stroke="gray" fill="white" stroke-width="1px"></path><path d="M 272.523206 77.263579 L 272.523206 74.763579 L 266.523206 74.763579 L 266.523206 77.263579 L 272.523206 77.263579" stroke="gray" fill="white" stroke-width="1px"></path><path d="M 278.523206 77.263579 L 278.523206 74.763579 L 272.523206 74.763579 L 272.523206 77.263579 L 278.523206 77.263579" stroke="gray" fill="white" stroke-width="1px"></path><path d="M 224.651803 101.263579 L 224.651803 98.763579 L 218.651803 98.763579 L 218.651803 101.263579 L 224.651803 101.263579" stroke="gray" fill="white" stroke-width="1px"></path><path d="M 230.651803 101.263579 L 230.651803 98.763579 L 224.651803 98.763579 L 224.651803 101.263579 L 230.651803 101.263579" stroke="gray" fill="white" stroke-width="1px"></path><path d="M 236.651803 101.263579 L 236.651803 98.763579 L 230.651803 98.763579 L 230.651803 101.263579 L 236.651803 101.263579" stroke="gray" fill="white" stroke-width="1px"></path><path d="M 242.651803 101.263579 L 242.651803 98.763579 L 236.651803 98.763579 L 236.651803 101.263579 L 242.651803 101.263579" stroke="gray" fill="white" stroke-width="1px"></path><path d="M 221.875802 89.263579 L 221.875802 86.763579 L 215.875802 86.763579 L 215.875802 89.263579 L 221.875802 89.263579" stroke="gray" fill="white" stroke-width="1px"></path><path d="M 227.875802 89.263579 L 227.875802 86.763579 L 221.875802 86.763579 L 221.875802 89.263579 L 227.875802 89.263579" stroke="gray" fill="white" stroke-width="1px"></path><path d="M 233.875802 89.263579 L 233.875802 86.763579 L 227.875802 86.763579 L 227.875802 89.263579 L 233.875802 89.263579" stroke="gray" fill="white" stroke-width="1px"></path><path d="M 239.875802 89.263579 L 239.875802 86.763579 L 233.875802 86.763579 L 233.875802 89.263579 L 239.875802 89.263579" stroke="gray" fill="white" stroke-width="1px"></path><path d="M 22.000000 41.263579 L 22.000000 38.763579 L 16.000000 38.763579 L 16.000000 41.263579 L 22.000000 41.263579" stroke="gray" fill="white" stroke-width="1px"></path><path d="M 28.000000 41.263579 L 28.000000 38.763579 L 22.000000 38.763579 L 22.000000 41.263579 L 28.000000 41.263579" stroke="gray" fill="white" stroke-width="1px"></path><path d="M 34.000000 41.263579 L 34.000000 38.763579 L 28.000000 38.763579 L 28.000000 41.263579 L 34.000000 41.263579" stroke="gray" fill="white" stroke-width="1px"></path><path d="M 40.000000 41.263579 L 40.000000 38.763579 L 34.000000 38.763579 L 34.000000 41.263579 L 40.000000 41.263579" stroke="gray" fill="white" stroke-width="1px"></path><path d="M 46.000000 41.263579 L 46.000000 38.763579 L 40.000000 38.763579 L 40.000000 41.263579 L 46.000000 41.263579" stroke="gray" fill="white" stroke-width="1px"></path><path d="M 52.000000 41.263579 L 52.000000 38.763579 L 46.000000 38.763579 L 46.000000 41.263579 L 52.000000 41.263579" stroke="gray" fill="white" stroke-width="1px"></path><path d="M 58.000000 41.263579 L 58.000000 38.763579 L 52.000000 38.763579 L 52.000000 41.263579 L 58.000000 41.263579" stroke="gray" fill="white" stroke-width="1px"></path><path d="M 22.000000 29.263579 L 22.000000 26.763579 L 16.000000 26.763579 L 16.000000 29.263579 L 22.000000 29.263579" stroke="gray" fill="white" stroke-width="1px"></path><path d="M 28.000000 29.263579 L 28.000000 26.763579 L 22.000000 26.763579 L 22.000000 29.263579 L 28.000000 29.263579" stroke="gray" fill="white" stroke-width="1px"></path><path d="M 34.000000 29.263579 L 34.000000 26.763579 L 28.000000 26.763579 L 28.000000 29.263579 L 34.000000 29.263579" stroke="gray" fill="white" stroke-width="1px"></path><path d="M 40.000000 29.263579 L 40.000000 26.763579 L 34.000000 26.763579 L 34.000000 29.263579 L 40.000000 29.263579" stroke="gray" fill="white" stroke-width="1px"></path><path d="M 46.000000 29.263579 L 46.000000 26.763579 L 40.000000 26.763579 L 40.000000 29.263579 L 46.000000 29.263579" stroke="gray" fill="white" stroke-width="1px"></path><path d="M 52.000000 29.263579 L 52.000000 26.763579 L 46.000000 26.763579 L 46.000000 29.263579 L 52.000000 29.263579" stroke="gray" fill="white" stroke-width="1px"></path><path d="M 58.000000 29.263579 L 58.000000 26.763579 L 52.000000 26.763579 L 52.000000 29.263579 L 58.000000 29.263579" stroke="gray" fill="white" stroke-width="1px"></path><path d="M 22.000000 17.263579 L 22.000000 14.763579 L 16.000000 14.763579 L 16.000000 17.263579 L 22.000000 17.263579" stroke="gray" fill="white" stroke-width="1px"></path><path d="M 28.000000 17.263579 L 28.000000 14.763579 L 22.000000 14.763579 L 22.000000 17.263579 L 28.000000 17.263579" stroke="gray" fill="white" stroke-width="1px"></path><path d="M 34.000000 17.263579 L 34.000000 14.763579 L 28.000000 14.763579 L 28.000000 17.263579 L 34.000000 17.263579" stroke="gray" fill="white" stroke-width="1px"></path><path d="M 40.000000 17.263579 L 40.000000 14.763579 L 34.000000 14.763579 L 34.000000 17.263579 L 40.000000 17.263579" stroke="gray" fill="white" stroke-width="1px"></path><path d="M 46.000000 17.263579 L 46.000000 14.763579 L 40.000000 14.763579 L 40.000000 17.263579 L 46.000000 17.263579" stroke="gray" fill="white" stroke-width="1px"></path><path d="M 52.000000 17.263579 L 52.000000 14.763579 L 46.000000 14.763579 L 46.000000 17.263579 L 52.000000 17.263579" stroke="gray" fill="white" stroke-width="1px"></path><path d="M 58.000000 17.263579 L 58.000000 14.763579 L 52.000000 14.763579 L 52.000000 17.263579 L 58.000000 17.263579" stroke="gray" fill="white" stroke-width="1px"></path><path d="M 264.843135 101.263579 L 264.843135 103.763579 L 258.843135 103.763579 L 258.843135 101.263579 L 264.843135 101.263579" stroke="gray" fill="white" stroke-width="1px"></path><path d="M 270.843135 101.263579 L 270.843135 103.763579 L 264.843135 103.763579 L 264.843135 101.263579 L 270.843135 101.263579" stroke="gray" fill="white" stroke-width="1px"></path><path d="M 276.843135 101.263579 L 276.843135 103.763579 L 270.843135 103.763579 L 270.843135 101.263579 L 276.843135 101.263579" stroke="gray" fill="white" stroke-width="1px"></path><path d="M 259.683171 89.263579 L 259.683171 91.763579 L 253.683171 91.763579 L 253.683171 89.263579 L 259.683171 89.263579" stroke="gray" fill="white" stroke-width="1px"></path><path d="M 265.683171 89.263579 L 265.683171 91.763579 L 259.683171 91.763579 L 259.683171 89.263579 L 265.683171 89.263579" stroke="gray" fill="white" stroke-width="1px"></path><path d="M 271.683171 89.263579 L 271.683171 91.763579 L 265.683171 91.763579 L 265.683171 89.263579 L 271.683171 89.263579" stroke="gray" fill="white" stroke-width="1px"></path><path d="M 277.683171 89.263579 L 277.683171 91.763579 L 271.683171 91.763579 L 271.683171 89.263579 L 277.683171 89.263579" stroke="gray" fill="white" stroke-width="1px"></path><path d="M 254.523206 77.263579 L 254.523206 79.763579 L 248.523206 79.763579 L 248.523206 77.263579 L 254.523206 77.263579" stroke="gray" fill="white" stroke-width="1px"></path><path d="M 260.523206 77.263579 L 260.523206 79.763579 L 254.523206 79.763579 L 254.523206 77.263579 L 260.523206 77.263579" stroke="gray" fill="white" stroke-width="1px"></path><path d="M 266.523206 77.263579 L 266.523206 79.763579 L 260.523206 79.763579 L 260.523206 77.263579 L 266.523206 77.263579" stroke="gray" fill="white" stroke-width="1px"></path><path d="M 272.523206 77.263579 L 272.523206 79.763579 L 266.523206 79.763579 L 266.523206 77.263579 L 272.523206 77.263579" stroke="gray" fill="white" stroke-width="1px"></path><path d="M 278.523206 77.263579 L 278.523206 79.763579 L 272.523206 79.763579 L 272.523206 77.263579 L 278.523206 77.263579" stroke="gray" fill="white" stroke-width="1px"></path><path d="M 224.651803 101.263579 L 224.651803 103.763579 L 218.651803 103.763579 L 218.651803 101.263579 L 224.651803 101.263579" stroke="gray" fill="white" stroke-width="1px"></path><path d="M 230.651803 101.263579 L 230.651803 103.763579 L 224.651803 103.763579 L 224.651803 101.263579 L 230.651803 101.263579" stroke="gray" fill="white" stroke-width="1px"></path><path d="M 236.651803 101.263579 L 236.651803 103.763579 L 230.651803 103.763579 L 230.651803 101.263579 L 236.651803 101.263579" stroke="gray" fill="white" stroke-width="1px"></path><path d="M 242.651803 101.263579 L 242.651803 103.763579 L 236.651803 103.763579 L 236.651803 101.263579 L 242.651803 101.263579" stroke="gray" fill="white" stroke-width="1px"></path><path d="M 221.875802 89.263579 L 221.875802 91.763579 L 215.875802 91.763579 L 215.875802 89.263579 L 221.875802 89.263579" stroke="gray" fill="white" stroke-width="1px"></path><path d="M 227.875802 89.263579 L 227.875802 91.763579 L 221.875802 91.763579 L 221.875802 89.263579 L 227.875802 89.263579" stroke="gray" fill="white" stroke-width="1px"></path><path d="M 233.875802 89.263579 L 233.875802 91.763579 L 227.875802 91.763579 L 227.875802 89.263579 L 233.875802 89.263579" stroke="gray" fill="white" stroke-width="1px"></path><path d="M 239.875802 89.263579 L 239.875802 91.763579 L 233.875802 91.763579 L 233.875802 89.263579 L 239.875802 89.263579" stroke="gray" fill="white" stroke-width="1px"></path><path d="M 22.000000 41.263579 L 22.000000 43.763579 L 16.000000 43.763579 L 16.000000 41.263579 L 22.000000 41.263579" stroke="gray" fill="white" stroke-width="1px"></path><path d="M 28.000000 41.263579 L 28.000000 43.763579 L 22.000000 43.763579 L 22.000000 41.263579 L 28.000000 41.263579" stroke="gray" fill="white" stroke-width="1px"></path><path d="M 34.000000 41.263579 L 34.000000 43.763579 L 28.000000 43.763579 L 28.000000 41.263579 L 34.000000 41.263579" stroke="gray" fill="white" stroke-width="1px"></path><path d="M 40.000000 41.263579 L 40.000000 43.763579 L 34.000000 43.763579 L 34.000000 41.263579 L 40.000000 41.263579" stroke="gray" fill="white" stroke-width="1px"></path><path d="M 46.000000 41.263579 L 46.000000 43.763579 L 40.000000 43.763579 L 40.000000 41.263579 L 46.000000 41.263579" stroke="gray" fill="white" stroke-width="1px"></path><path d="M 52.000000 41.263579 L 52.000000 43.763579 L 46.000000 43.763579 L 46.000000 41.263579 L 52.000000 41.263579" stroke="gray" fill="white" stroke-width="1px"></path><path d="M 58.000000 41.263579 L 58.000000 43.763579 L 52.000000 43.763579 L 52.000000 41.263579 L 58.000000 41.263579" stroke="gray" fill="white" stroke-width="1px"></path><path d="M 22.000000 29.263579 L 22.000000 31.763579 L 16.000000 31.763579 L 16.000000 29.263579 L 22.000000 29.263579" stroke="gray" fill="white" stroke-width="1px"></path><path d="M 28.000000 29.263579 L 28.000000 31.763579 L 22.000000 31.763579 L 22.000000 29.263579 L 28.000000 29.263579" stroke="gray" fill="white" stroke-width="1px"></path><path d="M 34.000000 29.263579 L 34.000000 31.763579 L 28.000000 31.763579 L 28.000000 29.263579 L 34.000000 29.263579" stroke="gray" fill="white" stroke-width="1px"></path><path d="M 40.000000 29.263579 L 40.000000 31.763579 L 34.000000 31.763579 L 34.000000 29.263579 L 40.000000 29.263579" stroke="gray" fill="white" stroke-width="1px"></path><path d="M 46.000000 29.263579 L 46.000000 31.763579 L 40.000000 31.763579 L 40.000000 29.263579 L 46.000000 29.263579" stroke="gray" fill="white" stroke-width="1px"></path><path d="M 52.000000 29.263579 L 52.000000 31.763579 L 46.000000 31.763579 L 46.000000 29.263579 L 52.000000 29.263579" stroke="gray" fill="white" stroke-width="1px"></path><path d="M 58.000000 29.263579 L 58.000000 31.763579 L 52.000000 31.763579 L 52.000000 29.263579 L 58.000000 29.263579" stroke="gray" fill="white" stroke-width="1px"></path><path d="M 22.000000 17.263579 L 22.000000 19.763579 L 16.000000 19.763579 L 16.000000 17.263579 L 22.000000 17.263579" stroke="gray" fill="white" stroke-width="1px"></path><path d="M 28.000000 17.263579 L 28.000000 19.763579 L 22.000000 19.763579 L 22.000000 17.263579 L 28.000000 17.263579" stroke="gray" fill="white" stroke-width="1px"></path><path d="M 34.000000 17.263579 L 34.000000 19.763579 L 28.000000 19.763579 L 28.000000 17.263579 L 34.000000 17.263579" stroke="gray" fill="white" stroke-width="1px"></path><path d="M 40.000000 17.263579 L 40.000000 19.763579 L 34.000000 19.763579 L 34.000000 17.263579 L 40.000000 17.263579" stroke="gray" fill="white" stroke-width="1px"></path><path d="M 46.000000 17.263579 L 46.000000 19.763579 L 40.000000 19.763579 L 40.000000 17.263579 L 46.000000 17.263579" stroke="gray" fill="white" stroke-width="1px"></path><path d="M 52.000000 17.263579 L 52.000000 19.763579 L 46.000000 19.763579 L 46.000000 17.263579 L 52.000000 17.263579" stroke="gray" fill="white" stroke-width="1px"></path><path d="M 58.000000 17.263579 L 58.000000 19.763579 L 52.000000 19.763579 L 52.000000 17.263579 L 58.000000 17.263579" stroke="gray" fill="white" stroke-width="1px"></path></g><g id="crv-base"><path d="M 221.371570 123.090312 L 221.371570 169.241094 L 120.000633 169.241094 L 120.000633 156.444206 L 126.051258 156.444206 L 126.051258 128.832500 L 123.590320 128.832500 L 123.590320 125.551250 L 126.051258 125.551250 L 126.051258 123.858132 L 91.315945 123.858125 L 91.315945 134.738750 L 64.258762 134.738750 L 64.258762 123.687497 L 10.000000 123.687497 L 10.000000 226.180625 L 64.258758 226.180625 L 64.258758 192.357500 L 91.315945 192.357500 L 91.315945 220.123437 L 283.459383 220.123437 L 283.459383 123.090312 L 221.371570 123.090312" stroke="black" fill="none" stroke-width="1px"></path><path d="M 221.371570 10.000000 L 221.371570 56.150781 L 120.000633 56.150781 L 120.000633 43.353893 L 126.051258 43.353893 L 126.051258 15.742187 L 123.590320 15.742187 L 123.590320 12.460937 L 126.051258 12.460937 L 126.051258 10.767819 L 91.315945 10.767812 L 91.315945 21.648438 L 64.258762 21.648438 L 64.258762 10.597185 L 10.000000 10.597185 L 10.000000 113.090312 L 64.258758 113.090312 L 64.258758 79.267187 L 91.315945 79.267187 L 91.315945 107.033125 L 283.459383 107.033125 L 283.459383 10.000000 L 221.371570 10.000000" stroke="black" fill="none" stroke-width="1px"></path><path d="M 10.387195 156.559062 L 10.387195 154.590312 L 12.355945 154.590312 L 12.355945 156.559062 L 10.387195 156.559062" stroke="black" fill="white" stroke-width="1px"></path><path d="M 10.387195 43.468750 L 10.387195 41.500000 L 12.355945 41.500000 L 12.355945 43.468750 L 10.387195 43.468750" stroke="black" fill="white" stroke-width="1px"></path><path d="M 10.387195 188.059062 L 10.387195 186.090312 L 12.355945 186.090312 L 12.355945 188.059062 L 10.387195 188.059062" stroke="black" fill="white" stroke-width="1px"></path><path d="M 10.387195 74.968750 L 10.387195 73.000000 L 12.355945 73.000000 L 12.355945 74.968750 L 10.387195 74.968750" stroke="black" fill="white" stroke-width="1px"></path><path d="M 10.387195 219.559062 L 10.387195 217.590312 L 12.355945 217.590312 L 12.355945 219.559062 L 10.387195 219.559062" stroke="black" fill="white" stroke-width="1px"></path><path d="M 10.387195 106.468750 L 10.387195 104.500000 L 12.355945 104.500000 L 12.355945 106.468750 L 10.387195 106.468750" stroke="black" fill="white" stroke-width="1px"></path><path d="M 60.754383 128.340312 L 60.754383 125.387187 L 63.871570 125.387187 L 63.871570 128.340312 L 60.754383 128.340312" stroke="black" fill="white" stroke-width="1px"></path><path d="M 60.754383 15.250000 L 60.754383 12.296875 L 63.871570 12.296875 L 63.871570 15.250000 L 60.754383 15.250000" stroke="black" fill="white" stroke-width="1px"></path><path d="M 280.598133 219.230937 L 280.598133 217.262187 L 282.566883 217.262187 L 282.566883 219.230937 L 280.598133 219.230937" stroke="black" fill="white" stroke-width="1px"></path><path d="M 280.598133 106.140625 L 280.598133 104.171875 L 282.566883 104.171875 L 282.566883 106.140625 L 280.598133 106.140625" stroke="black" fill="white" stroke-width="1px"></path><path d="M 280.598133 188.059062 L 280.598133 186.090312 L 282.566883 186.090312 L 282.566883 188.059062 L 280.598133 188.059062" stroke="black" fill="white" stroke-width="1px"></path><path d="M 280.598133 74.968750 L 280.598133 73.000000 L 282.566883 73.000000 L 282.566883 74.968750 L 280.598133 74.968750" stroke="black" fill="white" stroke-width="1px"></path><path d="M 280.598133 156.559050 L 280.598133 154.590300 L 282.566883 154.590300 L 282.566883 156.559050 L 280.598133 156.559050" stroke="black" fill="white" stroke-width="1px"></path><path d="M 280.598133 43.468737 L 280.598133 41.499987 L 282.566883 41.499987 L 282.566883 43.468737 L 280.598133 43.468737" stroke="black" fill="white" stroke-width="1px"></path><path d="M 248.605945 127.355937 L 248.605945 123.418437 L 251.887195 123.418437 L 251.887195 127.355937 L 248.605945 127.355937" stroke="black" fill="white" stroke-width="1px"></path><path d="M 248.605945 14.265625 L 248.605945 10.328125 L 251.887195 10.328125 L 251.887195 14.265625 L 248.605945 14.265625" stroke="black" fill="white" stroke-width="1px"></path><path d="M 248.605945 157.871562 L 248.605945 153.934062 L 251.887195 153.934062 L 251.887195 157.871562 L 248.605945 157.871562" stroke="black" fill="white" stroke-width="1px"></path><path d="M 248.605945 44.781250 L 248.605945 40.843750 L 251.887195 40.843750 L 251.887195 44.781250 L 248.605945 44.781250" stroke="black" fill="white" stroke-width="1px"></path><path d="M 248.605945 189.043437 L 248.605945 185.105937 L 251.887195 185.105937 L 251.887195 189.043437 L 248.605945 189.043437" stroke="black" fill="white" stroke-width="1px"></path><path d="M 248.605945 75.953125 L 248.605945 72.015625 L 251.887195 72.015625 L 251.887195 75.953125 L 248.605945 75.953125" stroke="black" fill="white" stroke-width="1px"></path><path d="M 248.934070 219.230937 L 248.934070 216.277812 L 251.887195 216.277812 L 251.887195 219.230937 L 248.934070 219.230937" stroke="black" fill="white" stroke-width="1px"></path><path d="M 248.934070 106.140625 L 248.934070 103.187500 L 251.887195 103.187500 L 251.887195 106.140625 L 248.934070 106.140625" stroke="black" fill="white" stroke-width="1px"></path><path d="M 218.090320 189.043437 L 218.090320 185.105937 L 221.371570 185.105937 L 221.371570 189.043437 L 218.090320 189.043437" stroke="black" fill="white" stroke-width="1px"></path><path d="M 218.090320 75.953125 L 218.090320 72.015625 L 221.371570 72.015625 L 221.371570 75.953125 L 218.090320 75.953125" stroke="black" fill="white" stroke-width="1px"></path><path d="M 218.254383 219.230937 L 218.254383 216.277812 L 221.207508 216.277812 L 221.207508 219.230937 L 218.254383 219.230937" stroke="black" fill="white" stroke-width="1px"></path><path d="M 218.254383 106.140625 L 218.254383 103.187500 L 221.207508 103.187500 L 221.207508 106.140625 L 218.254383 106.140625" stroke="black" fill="white" stroke-width="1px"></path><path d="M 186.590320 189.043437 L 186.590320 185.105937 L 189.871570 185.105937 L 189.871570 189.043437 L 186.590320 189.043437" stroke="black" fill="white" stroke-width="1px"></path><path d="M 186.590320 75.953125 L 186.590320 72.015625 L 189.871570 72.015625 L 189.871570 75.953125 L 186.590320 75.953125" stroke="black" fill="white" stroke-width="1px"></path><path d="M 186.754383 219.230937 L 186.754383 216.277812 L 189.707508 216.277812 L 189.707508 219.230937 L 186.754383 219.230937" stroke="black" fill="white" stroke-width="1px"></path><path d="M 186.754383 106.140625 L 186.754383 103.187500 L 189.707508 103.187500 L 189.707508 106.140625 L 186.754383 106.140625" stroke="black" fill="white" stroke-width="1px"></path><path d="M 155.090320 189.043437 L 155.090320 185.105937 L 158.371570 185.105937 L 158.371570 189.043437 L 155.090320 189.043437" stroke="black" fill="white" stroke-width="1px"></path><path d="M 155.090320 75.953125 L 155.090320 72.015625 L 158.371570 72.015625 L 158.371570 75.953125 L 155.090320 75.953125" stroke="black" fill="white" stroke-width="1px"></path><path d="M 155.254383 219.230937 L 155.254383 216.277812 L 158.207508 216.277812 L 158.207508 219.230937 L 155.254383 219.230937" stroke="black" fill="white" stroke-width="1px"></path><path d="M 155.254383 106.140625 L 155.254383 103.187500 L 158.207508 103.187500 L 158.207508 106.140625 L 155.254383 106.140625" stroke="black" fill="white" stroke-width="1px"></path><path d="M 123.590320 189.043437 L 123.590320 185.105937 L 126.871570 185.105937 L 126.871570 189.043437 L 123.590320 189.043437" stroke="black" fill="white" stroke-width="1px"></path><path d="M 123.590320 75.953125 L 123.590320 72.015625 L 126.871570 72.015625 L 126.871570 75.953125 L 123.590320 75.953125" stroke="black" fill="white" stroke-width="1px"></path><path d="M 123.754383 219.230937 L 123.754383 216.277812 L 126.707508 216.277812 L 126.707508 219.230937 L 123.754383 219.230937" stroke="black" fill="white" stroke-width="1px"></path><path d="M 123.754383 106.140625 L 123.754383 103.187500 L 126.707508 103.187500 L 126.707508 106.140625 L 123.754383 106.140625" stroke="black" fill="white" stroke-width="1px"></path><path d="M 92.090320 157.543437 L 92.090320 153.605937 L 95.371570 153.605937 L 95.371570 157.543437 L 92.090320 157.543437" stroke="black" fill="white" stroke-width="1px"></path><path d="M 92.090320 44.453125 L 92.090320 40.515625 L 95.371570 40.515625 L 95.371570 44.453125 L 92.090320 44.453125" stroke="black" fill="white" stroke-width="1px"></path><path d="M 92.090320 189.043437 L 92.090320 185.105937 L 95.371570 185.105937 L 95.371570 189.043437 L 92.090320 189.043437" stroke="black" fill="white" stroke-width="1px"></path><path d="M 92.090320 75.953125 L 92.090320 72.015625 L 95.371570 72.015625 L 95.371570 75.953125 L 92.090320 75.953125" stroke="black" fill="white" stroke-width="1px"></path><path d="M 92.090320 128.504375 L 92.090320 125.551250 L 95.207508 125.551250 L 95.207508 128.504375 L 92.090320 128.504375" stroke="black" fill="white" stroke-width="1px"></path><path d="M 92.090320 15.414062 L 92.090320 12.460937 L 95.207508 12.460937 L 95.207508 15.414062 L 92.090320 15.414062" stroke="black" fill="white" stroke-width="1px"></path><path d="M 60.590320 157.215312 L 60.590320 153.934062 L 63.871570 153.934062 L 63.871570 157.215312 L 60.590320 157.215312" stroke="black" fill="white" stroke-width="1px"></path><path d="M 60.590320 44.125000 L 60.590320 40.843750 L 63.871570 40.843750 L 63.871570 44.125000 L 60.590320 44.125000" stroke="black" fill="white" stroke-width="1px"></path><path d="M 60.754383 219.230937 L 60.754383 216.277812 L 63.871570 216.277812 L 63.871570 219.230937 L 60.754383 219.230937" stroke="black" fill="white" stroke-width="1px"></path><path d="M 60.754383 106.140625 L 60.754383 103.187500 L 63.871570 103.187500 L 63.871570 106.140625 L 60.754383 106.140625" stroke="black" fill="white" stroke-width="1px"></path><path d="M 30.074695 128.504375 L 30.074695 125.223125 L 33.027820 125.223125 L 33.027820 128.504375 L 30.074695 128.504375" stroke="black" fill="white" stroke-width="1px"></path><path d="M 30.074695 15.414062 L 30.074695 12.132812 L 33.027820 12.132812 L 33.027820 15.414062 L 30.074695 15.414062" stroke="black" fill="white" stroke-width="1px"></path><path d="M 30.074695 157.215312 L 30.074695 153.934062 L 33.355945 153.934062 L 33.355945 157.215312 L 30.074695 157.215312" stroke="black" fill="white" stroke-width="1px"></path><path d="M 30.074695 44.125000 L 30.074695 40.843750 L 33.355945 40.843750 L 33.355945 44.125000 L 30.074695 44.125000" stroke="black" fill="white" stroke-width="1px"></path><path d="M 30.074695 188.715312 L 30.074695 185.434062 L 33.355945 185.434062 L 33.355945 188.715312 L 30.074695 188.715312" stroke="black" fill="white" stroke-width="1px"></path><path d="M 30.074695 75.625000 L 30.074695 72.343750 L 33.355945 72.343750 L 33.355945 75.625000 L 30.074695 75.625000" stroke="black" fill="white" stroke-width="1px"></path><path d="M 30.074695 219.230937 L 30.074695 216.277812 L 33.027820 216.277812 L 33.027820 219.230937 L 30.074695 219.230937" stroke="black" fill="white" stroke-width="1px"></path><path d="M 30.074695 106.140625 L 30.074695 103.187500 L 33.027820 103.187500 L 33.027820 106.140625 L 30.074695 106.140625" stroke="black" fill="white" stroke-width="1px"></path><path d="M 10.387195 127.191875 L 10.387195 125.223125 L 12.355945 125.223125 L 12.355945 127.191875 L 10.387195 127.191875" stroke="black" fill="white" stroke-width="1px"></path><path d="M 10.387195 14.101562 L 10.387195 12.132812 L 12.355945 12.132812 L 12.355945 14.101562 L 10.387195 14.101562" stroke="black" fill="white" stroke-width="1px"></path><path d="M 60.590320 189.863750 L 60.590320 185.434062 L 63.871570 185.434062 L 63.871570 188.715312 L 62.230945 188.715312 L 62.230945 189.863750 L 60.590320 189.863750" stroke="black" fill="white" stroke-width="1px"></path><path d="M 60.590320 76.773437 L 60.590320 72.343750 L 63.871570 72.343750 L 63.871570 75.625000 L 62.230945 75.625000 L 62.230945 76.773437 L 60.590320 76.773437" stroke="black" fill="white" stroke-width="1px"></path></g></svg>