<svg width="293.459383" height="236.180625" xmlns="http://www.w3.org/2000/svg" xmlns:xlink="http://www.w3.org/1999/xlink" version="1.1"><g id="crv-background"><path d="M 221.371570 123.090312 L 221.371570 169.241094 L 120.000633 169.241094 L 120.000633 156.444206 L 126.051258 156.444206 L 126.051258 128.832500 L 123.590320 128.832500 L 123.590320 125.551250 L 126.051258 125.551250 L 126.051258 123.858132 L 91.315945 123.858125 L 91.315945 134.738750 L 64.258762 134.738750 L 64.258762 123.687497 L 10.000000 123.687497 L 10.000000 226.180625 L 64.258758 226.180625 L 64.258758 192.357500 L 91.315945 192.357500 L 91.315945 220.123437 L 283.459383 220.123437 L 283.459383 123.090312 L 221.371570 123.090312" stroke="none" fill="white" stroke-width="1px"></path><path d="M 221.371570 10.000000 L 221.371570 56.150781 L 120.000633 56.150781 L 120.000633 43.353893 L 126.051258 43.353893 L 126.051258 15.742187 L 123.590320 15.742187 L 123.590320 12.460937 L 126.051258 12.460937 L 126.051258 10.767819 L 91.315945 10.767812 L 91.315945 21.648438 L 64.258762 21.648438 L 64.258762 10.597185 L 10.000000 10.597185 L 10.000000 113.090312 L 64.258758 113.090312 L 64.258758 79.267187 L 91.315945 79.267187 L 91.315945 107.033125 L 283.459383 107.033125 L 283.459383 10.000000 L 221.371570 10.000000" stroke="none" fill="white" stroke-width="1px"></path></g><g id="crv-nbhd"><path d="M 221.737654 10.000004 L 221.737654 25.791182 L 221.737654 41.582360 L 226.034479 44.478196 L 230.331304 47.374032 L 256.895344 48.915480 L 283.459383 50.456928 L 283.459383 30.228469 L 283.459382 10.000000 L 252.598518 10.000002 L 221.737654 10.000004" stroke="#DD2222" fill="none" stroke-width="1px"></path><path d="M 283.459383 107.033125 L 283.459383 78.745027 L 283.459383 50.456928 L 256.895344 48.915480 L 230.331304 47.374032 L 243.656826 77.203579 L 256.982348 107.033125 L 270.220862 107.033125 L 283.459383 107.033125" stroke="#DD2222" fill="none" stroke-width="1px"></path><path d="M 221.737654 41.582360 L 221.737654 60.366845 L 221.737654 79.151330 L 214.578297 79.151330 L 207.418941 79.151330 L 204.256733 93.092227 L 201.094526 107.033125 L 229.038437 107.033125 L 256.982348 107.033125 L 243.656826 77.203579 L 230.331304 47.374032 L 226.034479 44.478196 L 221.737654 41.582360" stroke="#DD2222" fill="none" stroke-width="1px"></path><path d="M 207.418941 79.151330 L 189.763811 79.151330 L 172.108682 79.151329 L 178.360723 93.092227 L 184.612764 107.033125 L 192.853645 107.033125 L 201.094526 107.033125 L 204.256733 93.092231 L 207.418941 79.151330" stroke="#DD2222" fill="none" stroke-width="1px"></path><path d="M 126.549061 107.033125 L 155.580912 107.033125 L 184.612764 107.033125 L 178.360723 93.092227 L 172.108682 79.151329 L 152.508946 79.151329 L 132.909209 79.151328 L 129.729135 93.092227 L 126.549061 107.033125" stroke="#DD2222" fill="none" stroke-width="1px"></path><path d="M 132.909209 79.151328 L 112.112577 79.151328 L 91.315945 79.151327 L 91.315945 93.092226 L 91.315945 107.033125 L 108.932503 107.033125 L 126.549061 107.033125 L 129.729135 93.092227 L 132.909209 79.151328" stroke="#DD2222" fill="none" stroke-width="1px"></path><path d="M 64.258758 113.090312 L 64.258758 89.830707 L 64.258758 66.571102 L 37.129379 59.224372 L 10.000000 51.877641 L 10.000000 82.483977 L 10.000000 113.090312 L 37.129359 113.090312 L 64.258758 113.090312" stroke="#DD2222" fill="none" stroke-width="1px"></path><path d="M 10.000000 10.597184 L 10.000000 31.237413 L 10.000000 51.877641 L 37.129379 59.224372 L 64.258758 66.571102 L 64.258758 61.360942 L 64.258758 56.150781 L 64.258758 33.373983 L 64.258758 10.597185 L 37.129385 10.597185 L 10.000000 10.597184" stroke="#DD2222" fill="none" stroke-width="1px"></path><path d="M 10.000000 123.687497 L 10.000000 149.726580 L 10.000000 175.765664 L 37.129379 175.065639 L 64.258758 174.365613 L 64.258758 171.803353 L 64.258758 169.241094 L 64.258758 146.464296 L 64.258758 123.687497 L 37.129392 123.687497 L 10.000000 123.687497" stroke="#DD2222" fill="none" stroke-width="1px"></path><path d="M 10.000000 175.765664 L 10.000000 200.973144 L 10.000000 226.180625 L 37.129382 226.180625 L 64.258764 226.180625 L 64.258764 200.273113 L 64.258758 174.365613 L 37.129379 175.065639 L 10.000000 175.765664" stroke="#DD2222" fill="none" stroke-width="1px"></path><path d="M 137.374220 192.043444 L 114.345083 192.043444 L 91.315945 192.043444 L 91.315945 206.083441 L 91.315945 220.123437 L 116.276074 220.123437 L 141.236203 220.123437 L 139.305212 206.083441 L 137.374220 192.043444" stroke="#DD2222" fill="none" stroke-width="1px"></path><path d="M 183.846139 192.043444 L 160.610180 192.043444 L 137.374220 192.043444 L 139.305212 206.083441 L 141.236203 220.123437 L 162.633213 220.123437 L 184.030223 220.123437 L 183.938181 206.083441 L 183.846139 192.043444" stroke="#DD2222" fill="none" stroke-width="1px"></path><path d="M 230.419468 192.043444 L 207.132804 192.043444 L 183.846139 192.043444 L 183.938181 206.083441 L 184.030223 220.123437 L 205.891002 220.123437 L 227.751781 220.123437 L 229.085624 206.083441 L 230.419468 192.043444" stroke="#DD2222" fill="none" stroke-width="1px"></path><path d="M 283.459383 220.123437 L 283.459383 199.328086 L 283.459383 178.532734 L 261.598517 173.342154 L 239.737652 168.151575 L 239.737652 180.097509 L 239.737652 192.043444 L 235.078560 192.043444 L 230.419468 192.043444 L 229.085624 206.083441 L 227.751781 220.123437 L 255.605582 220.123437 L 283.459383 220.123437" stroke="#DD2222" fill="none" stroke-width="1px"></path><path d="M 239.737652 123.090312 L 239.737652 145.620944 L 239.737652 168.151575 L 261.598517 173.342154 L 283.459383 178.532734 L 283.459383 150.811523 L 283.459383 123.090312 L 261.598533 123.090312 L 239.737652 123.090312" stroke="#DD2222" fill="none" stroke-width="1px"></path></g><g id="crv-amen"><path d="M 58.832882 138.574556 L 58.832882 131.958085 L 58.832882 125.341615 L 37.129379 125.341615 L 15.425876 125.341614 L 15.425876 131.958085 L 15.425876 138.574555 L 37.129379 138.574555 L 58.832882 138.574556" stroke="none" fill="#2288CC" stroke-width="1px"></path><path d="M 58.832884 189.397632 L 58.832884 182.778955 L 58.832882 176.160286 L 37.129379 176.720307 L 15.425876 177.280327 L 15.425876 183.899000 L 15.425876 190.517672 L 37.129380 189.957652 L 58.832884 189.397632" stroke="none" fill="#2288CC" stroke-width="1px"></path><path d="M 125.822805 217.315438 L 132.501561 217.315438 L 139.180316 217.315438 L 137.635523 206.083441 L 136.090730 194.851444 L 129.411974 194.851444 L 122.733219 194.851444 L 124.278012 206.083441 L 125.822805 217.315438" stroke="none" fill="#2288CC" stroke-width="1px"></path><path d="M 169.124436 217.315438 L 175.741049 217.315438 L 182.357661 217.315438 L 182.284028 206.083441 L 182.210395 194.851444 L 175.593782 194.851444 L 168.977169 194.851444 L 169.050803 206.083441 L 169.124436 217.315438" stroke="none" fill="#2288CC" stroke-width="1px"></path><path d="M 224.432261 206.920376 L 225.060846 200.303906 L 225.689432 193.687435 L 207.060100 193.687435 L 188.430769 193.687435 L 188.474144 200.303906 L 188.517520 206.920376 L 206.474890 206.920376 L 224.432261 206.920376" stroke="none" fill="#2288CC" stroke-width="1px"></path><path d="M 279.087210 192.795562 L 279.087210 185.995143 L 279.087210 179.194723 L 261.598517 175.042259 L 244.109825 170.889795 L 244.109825 177.690215 L 244.109825 184.490635 L 261.598517 188.643098 L 279.087210 192.795562" stroke="none" fill="#2288CC" stroke-width="1px"></path><path d="M 279.087210 137.977371 L 279.087210 131.360900 L 279.087210 124.744430 L 261.598517 124.744430 L 244.109825 124.744430 L 244.109825 131.360900 L 244.109825 137.977371 L 261.598517 137.977371 L 279.087210 137.977371" stroke="none" fill="#2288CC" stroke-width="1px"></path><path d="M 277.287210 24.887059 L 277.287210 18.270587 L 277.287209 11.654118 L 252.598518 11.654119 L 227.909827 11.654121 L 227.909827 18.270591 L 227.909827 24.887062 L 252.598518 24.887060 L 277.287210 24.887059" stroke="none" fill="#2288CC" stroke-width="1px"></path><path d="M 278.516756 65.039682 L 278.516756 58.412081 L 278.516756 51.784481 L 257.265525 50.551322 L 236.014294 49.318164 L 239.053780 56.122139 L 242.093267 62.926113 L 260.305012 63.982898 L 278.516756 65.039682" stroke="none" fill="#2288CC" stroke-width="1px"></path><path d="M 219.940495 81.484778 L 219.940495 81.710066 L 219.940495 81.935354 L 214.213010 81.935354 L 208.485525 81.935354 L 205.955759 93.088072 L 203.425994 104.240790 L 210.210543 104.240790 L 216.995093 104.240790 L 219.521734 93.101848 L 222.048374 81.962907 L 220.994435 81.723843 L 219.940495 81.484778" stroke="none" fill="#2288CC" stroke-width="1px"></path><path d="M 201.058120 93.934790 L 202.558931 87.318321 L 204.059742 80.701849 L 189.935638 80.701849 L 175.811535 80.701849 L 178.778808 87.318319 L 181.746080 93.934790 L 191.402100 93.934790 L 201.058120 93.934790" stroke="none" fill="#2288CC" stroke-width="1px"></path><path d="M 167.111527 104.314292 L 174.362898 104.314292 L 181.614269 104.314292 L 176.612637 93.161574 L 171.611004 82.008856 L 167.727886 82.008856 L 163.844768 82.008856 L 161.040515 83.266472 L 158.236262 84.524089 L 162.673894 94.419191 L 167.111527 104.314292" stroke="none" fill="#2288CC" stroke-width="1px"></path><path d="M 125.545628 94.012189 L 127.054919 87.395718 L 128.564209 80.779248 L 111.926904 80.779248 L 95.289598 80.779247 L 95.289598 87.395718 L 95.289598 94.012188 L 110.417613 94.012188 L 125.545628 94.012189" stroke="none" fill="#2288CC" stroke-width="1px"></path><path d="M 58.832882 80.525025 L 58.832882 73.670239 L 58.832882 66.815453 L 37.129379 60.938068 L 15.425876 55.060684 L 15.425876 61.915470 L 15.425876 68.770257 L 37.129379 74.647641 L 58.832882 80.525025" stroke="none" fill="#2288CC" stroke-width="1px"></path><path d="M 15.425876 37.923718 L 15.425876 44.778504 L 15.425876 51.633291 L 37.129379 57.510675 L 58.832882 63.388060 L 58.832882 59.219931 L 58.832882 55.051803 L 58.832882 52.365145 L 58.832882 49.678487 L 37.129379 43.801102 L 15.425876 37.923718" stroke="none" fill="#2288CC" stroke-width="1px"></path></g><g id="crv-desk"><path d="M 55.459383 168.592665 L 52.959383 168.592665 L 52.959383 174.592665 L 55.459383 174.592665 L 55.459383 168.592665" stroke="gray" fill="white" stroke-width="1px"></path><path d="M 55.459383 162.592665 L 52.959383 162.592665 L 52.959383 168.592665 L 55.459383 168.592665 L 55.459383 162.592665" stroke="gray" fill="white" stroke-width="1px"></path><path d="M 55.459383 156.592665 L 52.959383 156.592665 L 52.959383 162.592665 L 55.459383 162.592665 L 55.459383 156.592665" stroke="gray" fill="white" stroke-width="1px"></path><path d="M 55.459383 150.592665 L 52.959383 150.592665 L 52.959383 156.592665 L 55.459383 156.592665 L 55.459383 150.592665" stroke="gray" fill="white" stroke-width="1px"></path><path d="M 55.459383 144.592665 L 52.959383 144.592665 L 52.959383 150.592665 L 55.459383 150.592665 L 55.459383 144.592665" stroke="gray" fill="white" stroke-width="1px"></path><path d="M 43.459383 168.902304 L 40.959383 168.902304 L 40.959383 174.902304 L 43.459383 174.902304 L 43.459383 168.902304" stroke="gray" fill="white" stroke-width="1px"></path><path d="M 43.459383 162.902304 L 40.959383 162.902304 L 40.959383 168.902304 L 43.459383 168.902304 L 43.459383 162.902304" stroke="gray" fill="white" stroke-width="1px"></path><path d="M 43.459383 156.902304 L 40.959383 156.902304 L 40.959383 162.902304 L 43.459383 162.902304 L 43.459383 156.902304" stroke="gray" fill="white" stroke-width="1px"></path><path d="M 43.459383 150.902304 L 40.959383 150.902304 L 40.959383 156.902304 L 43.459383 156.902304 L 43.459383 150.902304" stroke="gray" fill="white" stroke-width="1px"></path><path d="M 43.459383 144.902304 L 40.959383 144.902304 L 40.959383 150.902304 L 43.459383 150.902304 L 43.459383 144.902304" stroke="gray" fill="white" stroke-width="1px"></path><path d="M 31.459383 169.211943 L 28.959383 169.211943 L 28.959383 175.211943 L 31.459383 175.211943 L 31.459383 169.211943" stroke="gray" fill="white" stroke-width="1px"></path><path d="M 31.459383 163.211943 L 28.959383 163.211943 L 28.959383 169.211943 L 31.459383 169.211943 L 31.459383 163.211943" stroke="gray" fill="white" stroke-width="1px"></path><path d="M 31.459383 157.211943 L 28.959383 157.211943 L 28.959383 163.211943 L 31.459383 163.211943 L 31.459383 157.211943" stroke="gray" fill="white" stroke-width="1px"></path><path d="M 31.459383 151.211943 L 28.959383 151.211943 L 28.959383 157.211943 L 31.459383 157.211943 L 31.459383 151.211943" stroke="gray" fill="white" stroke-width="1px"></path><path d="M 31.459383 145.211943 L 28.959383 145.211943 L 28.959383 151.211943 L 31.459383 151.211943 L 31.459383 145.211943" stroke="gray" fill="white" stroke-width="1px"></path><path d="M 19.459383 169.521581 L 16.959383 169.521581 L 16.959383 175.521581 L 19.459383 175.521581 L 19.459383 169.521581" stroke="gray" fill="white" stroke-width="1px"></path><path d="M 19.459383 163.521581 L 16.959383 163.521581 L 16.959383 169.521581 L 19.459383 169.521581 L 19.459383 163.521581" stroke="gray" fill="white" stroke-width="1px"></path><path d="M 19.459383 157.521581 L 16.959383 157.521581 L 16.959383 163.521581 L 19.459383 163.521581 L 19.459383 157.521581" stroke="gray" fill="white" stroke-width="1px"></path><path d="M 19.459383 151.521581 L 16.959383 151.521581 L 16.959383 157.521581 L 19.459383 157.521581 L 19.459383 151.521581" stroke="gray" fill="white" stroke-width="1px"></path><path d="M 19.459383 145.521581 L 16.959383 145.521581 L 16.959383 151.521581 L 19.459383 151.521581 L 19.459383 145.521581" stroke="gray" fill="white" stroke-width="1px"></path><path d="M 55.459383 220.180625 L 52.959383 220.180625 L 52.959383 226.180625 L 55.459383 226.180625 L 55.459383 220.180625" stroke="gray" fill="white" stroke-width="1px"></path><path d="M 55.459383 214.180625 L 52.959383 214.180625 L 52.959383 220.180625 L 55.459383 220.180625 L 55.459383 214.180625" stroke="gray" fill="white" stroke-width="1px"></path><path d="M 55.459383 208.180625 L 52.959383 208.180625 L 52.959383 214.180625 L 55.459383 214.180625 L 55.459383 208.180625" stroke="gray" fill="white" stroke-width="1px"></path><path d="M 55.459383 202.180625 L 52.959383 202.180625 L 52.959383 208.180625 L 55.459383 208.180625 L 55.459383 202.180625" stroke="gray" fill="white" stroke-width="1px"></path><path d="M 55.459383 196.180625 L 52.959383 196.180625 L 52.959383 202.180625 L 55.459383 202.180625 L 55.459383 196.180625" stroke="gray" fill="white" stroke-width="1px"></path><path d="M 43.459383 220.180625 L 40.959383 220.180625 L 40.959383 226.180625 L 43.459383 226.180625 L 43.459383 220.180625" stroke="gray" fill="white" stroke-width="1px"></path><path d="M 43.459383 214.180625 L 40.959383 214.180625 L 40.959383 220.180625 L 43.459383 220.180625 L 43.459383 214.180625" stroke="gray" fill="white" stroke-width="1px"></path><path d="M 43.459383 208.180625 L 40.959383 208.180625 L 40.959383 214.180625 L 43.459383 214.180625 L 43.459383 208.180625" stroke="gray" fill="white" stroke-width="1px"></path><path d="M 43.459383 202.180625 L 40.959383 202.180625 L 40.959383 208.180625 L 43.459383 208.180625 L 43.459383 202.180625" stroke="gray" fill="white" stroke-width="1px"></path><path d="M 43.459383 196.180625 L 40.959383 196.180625 L 40.959383 202.180625 L 43.459383 202.180625 L 43.459383 196.180625" stroke="gray" fill="white" stroke-width="1px"></path><path d="M 31.459383 220.180625 L 28.959383 220.180625 L 28.959383 226.180625 L 31.459383 226.180625 L 31.459383 220.180625" stroke="gray" fill="white" stroke-width="1px"></path><path d="M 31.459383 214.180625 L 28.959383 214.180625 L 28.959383 220.180625 L 31.459383 220.180625 L 31.459383 214.180625" stroke="gray" fill="white" stroke-width="1px"></path><path d="M 31.459383 208.180625 L 28.959383 208.180625 L 28.959383 214.180625 L 31.459383 214.180625 L 31.459383 208.180625" stroke="gray" fill="white" stroke-width="1px"></path><path d="M 31.459383 202.180625 L 28.959383 202.180625 L 28.959383 208.180625 L 31.459383 208.180625 L 31.459383 202.180625" stroke="gray" fill="white" stroke-width="1px"></path><path d="M 31.459383 196.180625 L 28.959383 196.180625 L 28.959383 202.180625 L 31.459383 202.180625 L 31.459383 196.180625" stroke="gray" fill="white" stroke-width="1px"></path><path d="M 19.459383 220.180625 L 16.959383 220.180625 L 16.959383 226.180625 L 19.459383 226.180625 L 19.459383 220.180625" stroke="gray" fill="white" stroke-width="1px"></path><path d="M 19.459383 214.180625 L 16.959383 214.180625 L 16.959383 220.180625 L 19.459383 220.180625 L 19.459383 214.180625" stroke="gray" fill="white" stroke-width="1px"></path><path d="M 19.459383 208.180625 L 16.959383 208.180625 L 16.959383 214.180625 L 19.459383 214.180625 L 19.459383 208.180625" stroke="gray" fill="white" stroke-width="1px"></path><path d="M 19.459383 202.180625 L 16.959383 202.180625 L 16.959383 208.180625 L 19.459383 208.180625 L 19.459383 202.180625" stroke="gray" fill="white" stroke-width="1px"></path><path d="M 115.459383 214.123437 L 112.959383 214.123437 L 112.959383 220.123437 L 115.459383 220.123437 L 115.459383 214.123437" stroke="gray" fill="white" stroke-width="1px"></path><path d="M 115.459383 208.123437 L 112.959383 208.123437 L 112.959383 214.123437 L 115.459383 214.123437 L 115.459383 208.123437" stroke="gray" fill="white" stroke-width="1px"></path><path d="M 115.459383 202.123437 L 112.959383 202.123437 L 112.959383 208.123437 L 115.459383 208.123437 L 115.459383 202.123437" stroke="gray" fill="white" stroke-width="1px"></path><path d="M 115.459383 196.123437 L 112.959383 196.123437 L 112.959383 202.123437 L 115.459383 202.123437 L 115.459383 196.123437" stroke="gray" fill="white" stroke-width="1px"></path><path d="M 103.459383 214.123437 L 100.959383 214.123437 L 100.959383 220.123437 L 103.459383 220.123437 L 103.459383 214.123437" stroke="gray" fill="white" stroke-width="1px"></path><path d="M 103.459383 208.123437 L 100.959383 208.123437 L 100.959383 214.123437 L 103.459383 214.123437 L 103.459383 208.123437" stroke="gray" fill="white" stroke-width="1px"></path><path d="M 103.459383 202.123437 L 100.959383 202.123437 L 100.959383 208.123437 L 103.459383 208.123437 L 103.459383 202.123437" stroke="gray" fill="white" stroke-width="1px"></path><path d="M 103.459383 196.123437 L 100.959383 196.123437 L 100.959383 202.123437 L 103.459383 202.123437 L 103.459383 196.123437" stroke="gray" fill="white" stroke-width="1px"></path><path d="M 151.459383 214.123437 L 148.959383 214.123437 L 148.959383 220.123437 L 151.459383 220.123437 L 151.459383 214.123437" stroke="gray" fill="white" stroke-width="1px"></path><path d="M 151.459383 208.123437 L 148.959383 208.123437 L 148.959383 214.123437 L 151.459383 214.123437 L 151.459383 208.123437" stroke="gray" fill="white" stroke-width="1px"></path><path d="M 151.459383 202.123437 L 148.959383 202.123437 L 148.959383 208.123437 L 151.459383 208.123437 L 151.459383 202.123437" stroke="gray" fill="white" stroke-width="1px"></path><path d="M 151.459383 196.123437 L 148.959383 196.123437 L 148.959383 202.123437 L 151.459383 202.123437 L 151.459383 196.123437" stroke="gray" fill="white" stroke-width="1px"></path><path d="M 223.459383 214.123437 L 220.959383 214.123437 L 220.959383 220.123437 L 223.459383 220.123437 L 223.459383 214.123437" stroke="gray" fill="white" stroke-width="1px"></path><path d="M 211.459383 214.123437 L 208.959383 214.123437 L 208.959383 220.123437 L 211.459383 220.123437 L 211.459383 214.123437" stroke="gray" fill="white" stroke-width="1px"></path><path d="M 199.459383 214.123437 L 196.959383 214.123437 L 196.959383 220.123437 L 199.459383 220.123437 L 199.459383 214.123437" stroke="gray" fill="white" stroke-width="1px"></path><path d="M 271.459383 214.123437 L 268.959383 214.123437 L 268.959383 220.123437 L 271.459383 220.123437 L 271.459383 214.123437" stroke="gray" fill="white" stroke-width="1px"></path><path d="M 271.459383 208.123437 L 268.959383 208.123437 L 268.959383 214.123437 L 271.459383 214.123437 L 271.459383 208.123437" stroke="gray" fill="white" stroke-width="1px"></path><path d="M 271.459383 202.123437 L 268.959383 202.123437 L 268.959383 208.123437 L 271.459383 208.123437 L 271.459383 202.123437" stroke="gray" fill="white" stroke-width="1px"></path><path d="M 259.459383 214.123437 L 256.959383 214.123437 L 256.959383 220.123437 L 259.459383 220.123437 L 259.459383 214.123437" stroke="gray" fill="white" stroke-width="1px"></path><path d="M 259.459383 208.123437 L 256.959383 208.123437 L 256.959383 214.123437 L 259.459383 214.123437 L 259.459383 208.123437" stroke="gray" fill="white" stroke-width="1px"></path><path d="M 259.459383 202.123437 L 256.959383 202.123437 L 256.959383 208.123437 L 259.459383 208.123437 L 259.459383 202.123437" stroke="gray" fill="white" stroke-width="1px"></path><path d="M 259.459383 196.123437 L 256.959383 196.123437 L 256.959383 202.123437 L 259.459383 202.123437 L 259.459383 196.123437" stroke="gray" fill="white" stroke-width="1px"></path><path d="M 247.459383 214.123437 L 244.959383 214.123437 L 244.959383 220.123437 L 247.459383 220.123437 L 247.459383 214.123437" stroke="gray" fill="white" stroke-width="1px"></path><path d="M 247.459383 208.123437 L 244.959383 208.123437 L 244.959383 214.123437 L 247.459383 214.123437 L 247.459383 208.123437" stroke="gray" fill="white" stroke-width="1px"></path><path d="M 247.459383 202.123437 L 244.959383 202.123437 L 244.959383 208.123437 L 247.459383 208.123437 L 247.459383 202.123437" stroke="gray" fill="white" stroke-width="1px"></path><path d="M 247.459383 196.123437 L 244.959383 196.123437 L 244.959383 202.123437 L 247.459383 202.123437 L 247.459383 196.123437" stroke="gray" fill="white" stroke-width="1px"></path><path d="M 235.459383 214.123437 L 232.959383 214.123437 L 232.959383 220.123437 L 235.459383 220.123437 L 235.459383 214.123437" stroke="gray" fill="white" stroke-width="1px"></path><path d="M 235.459383 208.123437 L 232.959383 208.123437 L 232.959383 214.123437 L 235.459383 214.123437 L 235.459383 208.123437" stroke="gray" fill="white" stroke-width="1px"></path><path d="M 235.459383 202.123437 L 232.959383 202.123437 L 232.959383 208.123437 L 235.459383 208.123437 L 235.459383 202.123437" stroke="gray" fill="white" stroke-width="1px"></path><path d="M 235.459383 196.123437 L 232.959383 196.123437 L 232.959383 202.123437 L 235.459383 202.123437 L 235.459383 196.123437" stroke="gray" fill="white" stroke-width="1px"></path><path d="M 55.459383 168.592665 L 57.959383 168.592665 L 57.959383 174.592665 L 55.459383 174.592665 L 55.459383 168.592665" stroke="gray" fill="white" stroke-width="1px"></path><path d="M 55.459383 162.592665 L 57.959383 162.592665 L 57.959383 168.592665 L 55.459383 168.592665 L 55.459383 162.592665" stroke="gray" fill="white" stroke-width="1px"></path><path d="M 55.459383 156.592665 L 57.959383 156.592665 L 57.959383 162.592665 L 55.459383 162.592665 L 55.459383 156.592665" stroke="gray" fill="white" stroke-width="1px"></path><path d="M 55.459383 150.592665 L 57.959383 150.592665 L 57.959383 156.592665 L 55.459383 156.592665 L 55.459383 150.592665" stroke="gray" fill="white" stroke-width="1px"></path><path d="M 55.459383 144.592665 L 57.959383 144.592665 L 57.959383 150.592665 L 55.459383 150.592665 L 55.459383 144.592665" stroke="gray" fill="white" stroke-width="1px"></path><path d="M 43.459383 168.902304 L 45.959383 168.902304 L 45.959383 174.902304 L 43.459383 174.902304 L 43.459383 168.902304" stroke="gray" fill="white" stroke-width="1px"></path><path d="M 43.459383 162.902304 L 45.959383 162.902304 L 45.959383 168.902304 L 43.459383 168.902304 L 43.459383 162.902304" stroke="gray" fill="white" stroke-width="1px"></path><path d="M 43.459383 156.902304 L 45.959383 156.902304 L 45.959383 162.902304 L 43.459383 162.902304 L 43.459383 156.902304" stroke="gray" fill="white" stroke-width="1px"></path><path d="M 43.459383 150.902304 L 45.959383 150.902304 L 45.959383 156.902304 L 43.459383 156.902304 L 43.459383 150.902304" stroke="gray" fill="white" stroke-width="1px"></path><path d="M 43.459383 144.902304 L 45.959383 144.902304 L 45.959383 150.902304 L 43.459383 150.902304 L 43.459383 144.902304" stroke="gray" fill="white" stroke-width="1px"></path><path d="M 31.459383 169.211943 L 33.959383 169.211943 L 33.959383 175.211943 L 31.459383 175.211943 L 31.459383 169.211943" stroke="gray" fill="white" stroke-width="1px"></path><path d="M 31.459383 163.211943 L 33.959383 163.211943 L 33.959383 169.211943 L 31.459383 169.211943 L 31.459383 163.211943" stroke="gray" fill="white" stroke-width="1px"></path><path d="M 31.459383 157.211943 L 33.959383 157.211943 L 33.959383 163.211943 L 31.459383 163.211943 L 31.459383 157.211943" stroke="gray" fill="white" stroke-width="1px"></path><path d="M 31.459383 151.211943 L 33.959383 151.211943 L 33.959383 157.211943 L 31.459383 157.211943 L 31.459383 151.211943" stroke="gray" fill="white" stroke-width="1px"></path><path d="M 31.459383 145.211943 L 33.959383 145.211943 L 33.959383 151.211943 L 31.459383 151.211943 L 31.459383 145.211943" stroke="gray" fill="white" stroke-width="1px"></path><path d="M 19.459383 169.521581 L 21.959383 169.521581 L 21.959383 175.521581 L 19.459383 175.521581 L 19.459383 169.521581" stroke="gray" fill="white" stroke-width="1px"></path><path d="M 19.459383 163.521581 L 21.959383 163.521581 L 21.959383 169.521581 L 19.459383 169.521581 L 19.459383 163.521581" stroke="gray" fill="white" stroke-width="1px"></path><path d="M 19.459383 157.521581 L 21.959383 157.521581 L 21.959383 163.521581 L 19.459383 163.521581 L 19.459383 157.521581" stroke="gray" fill="white" stroke-width="1px"></path><path d="M 19.459383 151.521581 L 21.959383 151.521581 L 21.959383 157.521581 L 19.459383 157.521581 L 19.459383 151.521581" stroke="gray" fill="white" stroke-width="1px"></path><path d="M 19.459383 145.521581 L 21.959383 145.521581 L 21.959383 151.521581 L 19.459383 151.521581 L 19.459383 145.521581" stroke="gray" fill="white" stroke-width="1px"></path><path d="M 55.459383 220.180625 L 57.959383 220.180625 L 57.959383 226.180625 L 55.459383 226.180625 L 55.459383 220.180625" stroke="gray" fill="white" stroke-width="1px"></path><path d="M 55.459383 214.180625 L 57.959383 214.180625 L 57.959383 220.180625 L 55.459383 220.180625 L 55.459383 214.180625" stroke="gray" fill="white" stroke-width="1px"></path><path d="M 55.459383 208.180625 L 57.959383 208.180625 L 57.959383 214.180625 L 55.459383 214.180625 L 55.459383 208.180625" stroke="gray" fill="white" stroke-width="1px"></path><path d="M 55.459383 202.180625 L 57.959383 202.180625 L 57.959383 208.180625 L 55.459383 208.180625 L 55.459383 202.180625" stroke="gray" fill="white" stroke-width="1px"></path><path d="M 55.459383 196.180625 L 57.959383 196.180625 L 57.959383 202.180625 L 55.459383 202.180625 L 55.459383 196.180625" stroke="gray" fill="white" stroke-width="1px"></path><path d="M 43.459383 220.180625 L 45.959383 220.180625 L 45.959383 226.180625 L 43.459383 226.180625 L 43.459383 220.180625" stroke="gray" fill="white" stroke-width="1px"></path><path d="M 43.459383 214.180625 L 45.959383 214.180625 L 45.959383 220.180625 L 43.459383 220.180625 L 43.459383 214.180625" stroke="gray" fill="white" stroke-width="1px"></path><path d="M 43.459383 208.180625 L 45.959383 208.180625 L 45.959383 214.180625 L 43.459383 214.180625 L 43.459383 208.180625" stroke="gray" fill="white" stroke-width="1px"></path><path d="M 43.459383 202.180625 L 45.959383 202.180625 L 45.959383 208.180625 L 43.459383 208.180625 L 43.459383 202.180625" stroke="gray" fill="white" stroke-width="1px"></path><path d="M 43.459383 196.180625 L 45.959383 196.180625 L 45.959383 202.180625 L 43.459383 202.180625 L 43.459383 196.180625" stroke="gray" fill="white" stroke-width="1px"></path><path d="M 31.459383 220.180625 L 33.959383 220.180625 L 33.959383 226.180625 L 31.459383 226.180625 L 31.459383 220.180625" stroke="gray" fill="white" stroke-width="1px"></path><path d="M 31.459383 214.180625 L 33.959383 214.180625 L 33.959383 220.180625 L 31.459383 220.180625 L 31.459383 214.180625" stroke="gray" fill="white" stroke-width="1px"></path><path d="M 31.459383 208.180625 L 33.959383 208.180625 L 33.959383 214.180625 L 31.459383 214.180625 L 31.459383 208.180625" stroke="gray" fill="white" stroke-width="1px"></path><path d="M 31.459383 202.180625 L 33.959383 202.180625 L 33.959383 208.180625 L 31.459383 208.180625 L 31.459383 202.180625" stroke="gray" fill="white" stroke-width="1px"></path><path d="M 31.459383 196.180625 L 33.959383 196.180625 L 33.959383 202.180625 L 31.459383 202.180625 L 31.459383 196.180625" stroke="gray" fill="white" stroke-width="1px"></path><path d="M 19.459383 220.180625 L 21.959383 220.180625 L 21.959383 226.180625 L 19.459383 226.180625 L 19.459383 220.180625" stroke="gray" fill="white" stroke-width="1px"></path><path d="M 19.459383 214.180625 L 21.959383 214.180625 L 21.959383 220.180625 L 19.459383 220.180625 L 19.459383 214.180625" stroke="gray" fill="white" stroke-width="1px"></path><path d="M 19.459383 208.180625 L 21.959383 208.180625 L 21.959383 214.180625 L 19.459383 214.180625 L 19.459383 208.180625" stroke="gray" fill="white" stroke-width="1px"></path><path d="M 19.459383 202.180625 L 21.959383 202.180625 L 21.959383 208.180625 L 19.459383 208.180625 L 19.459383 202.180625" stroke="gray" fill="white" stroke-width="1px"></path><path d="M 115.459383 214.123437 L 117.959383 214.123437 L 117.959383 220.123437 L 115.459383 220.123437 L 115.459383 214.123437" stroke="gray" fill="white" stroke-width="1px"></path><path d="M 115.459383 208.123437 L 117.959383 208.123437 L 117.959383 214.123437 L 115.459383 214.123437 L 115.459383 208.123437" stroke="gray" fill="white" stroke-width="1px"></path><path d="M 115.459383 202.123437 L 117.959383 202.123437 L 117.959383 208.123437 L 115.459383 208.123437 L 115.459383 202.123437" stroke="gray" fill="white" stroke-width="1px"></path><path d="M 115.459383 196.123437 L 117.959383 196.123437 L 117.959383 202.123437 L 115.459383 202.123437 L 115.459383 196.123437" stroke="gray" fill="white" stroke-width="1px"></path><path d="M 103.459383 214.123437 L 105.959383 214.123437 L 105.959383 220.123437 L 103.459383 220.123437 L 103.459383 214.123437" stroke="gray" fill="white" stroke-width="1px"></path><path d="M 103.459383 208.123437 L 105.959383 208.123437 L 105.959383 214.123437 L 103.459383 214.123437 L 103.459383 208.123437" stroke="gray" fill="white" stroke-width="1px"></path><path d="M 103.459383 202.123437 L 105.959383 202.123437 L 105.959383 208.123437 L 103.459383 208.123437 L 103.459383 202.123437" stroke="gray" fill="white" stroke-width="1px"></path><path d="M 103.459383 196.123437 L 105.959383 196.123437 L 105.959383 202.123437 L 103.459383 202.123437 L 103.459383 196.123437" stroke="gray" fill="white" stroke-width="1px"></path><path d="M 151.459383 214.123437 L 153.959383 214.123437 L 153.959383 220.123437 L 151.459383 220.123437 L 151.459383 214.123437" stroke="gray" fill="white" stroke-width="1px"></path><path d="M 151.459383 208.123437 L 153.959383 208.123437 L 153.959383 214.123437 L 151.459383 214.123437 L 151.459383 208.123437" stroke="gray" fill="white" stroke-width="1px"></path><path d="M 151.459383 202.123437 L 153.959383 202.123437 L 153.959383 208.123437 L 151.459383 208.123437 L 151.459383 202.123437" stroke="gray" fill="white" stroke-width="1px"></path><path d="M 151.459383 196.123437 L 153.959383 196.123437 L 153.959383 202.123437 L 151.459383 202.123437 L 151.459383 196.123437" stroke="gray" fill="white" stroke-width="1px"></path><path d="M 223.459383 214.123437 L 225.959383 214.123437 L 225.959383 220.123437 L 223.459383 220.123437 L 223.459383 214.123437" stroke="gray" fill="white" stroke-width="1px"></path><path d="M 211.459383 214.123437 L 213.959383 214.123437 L 213.959383 220.123437 L 211.459383 220.123437 L 211.459383 214.123437" stroke="gray" fill="white" stroke-width="1px"></path><path d="M 199.459383 214.123437 L 201.959383 214.123437 L 201.959383 220.123437 L 199.459383 220.123437 L 199.459383 214.123437" stroke="gray" fill="white" stroke-width="1px"></path><path d="M 271.459383 214.123437 L 273.959383 214.123437 L 273.959383 220.123437 L 271.459383 220.123437 L 271.459383 214.123437" stroke="gray" fill="white" stroke-width="1px"></path><path d="M 271.459383 208.123437 L 273.959383 208.123437 L 273.959383 214.123437 L 271.459383 214.123437 L 271.459383 208.123437" stroke="gray" fill="white" stroke-width="1px"></path><path d="M 271.459383 202.123437 L 273.959383 202.123437 L 273.959383 208.123437 L 271.459383 208.123437 L 271.459383 202.123437" stroke="gray" fill="white" stroke-width="1px"></path><path d="M 259.459383 214.123437 L 261.959383 214.123437 L 261.959383 220.123437 L 259.459383 220.123437 L 259.459383 214.123437" stroke="gray" fill="white" stroke-width="1px"></path><path d="M 259.459383 208.123437 L 261.959383 208.123437 L 261.959383 214.123437 L 259.459383 214.123437 L 259.459383 208.123437" stroke="gray" fill="white" stroke-width="1px"></path><path d="M 259.459383 202.123437 L 261.959383 202.123437 L 261.959383 208.123437 L 259.459383 208.123437 L 259.459383 202.123437" stroke="gray" fill="white" stroke-width="1px"></path><path d="M 259.459383 196.123437 L 261.959383 196.123437 L 261.959383 202.123437 L 259.459383 202.123437 L 259.459383 196.123437" stroke="gray" fill="white" stroke-width="1px"></path><path d="M 247.459383 214.123437 L 249.959383 214.123437 L 249.959383 220.123437 L 247.459383 220.123437 L 247.459383 214.123437" stroke="gray" fill="white" stroke-width="1px"></path><path d="M 247.459383 208.123437 L 249.959383 208.123437 L 249.959383 214.123437 L 247.459383 214.123437 L 247.459383 208.123437" stroke="gray" fill="white" stroke-width="1px"></path><path d="M 247.459383 202.123437 L 249.959383 202.123437 L 249.959383 208.123437 L 247.459383 208.123437 L 247.459383 202.123437" stroke="gray" fill="white" stroke-width="1px"></path><path d="M 247.459383 196.123437 L 249.959383 196.123437 L 249.959383 202.123437 L 247.459383 202.123437 L 247.459383 196.123437" stroke="gray" fill="white" stroke-width="1px"></path><path d="M 235.459383 214.123437 L 237.959383 214.123437 L 237.959383 220.123437 L 235.459383 220.123437 L 235.459383 214.123437" stroke="gray" fill="white" stroke-width="1px"></path><path d="M 235.459383 208.123437 L 237.959383 208.123437 L 237.959383 214.123437 L 235.459383 214.123437 L 235.459383 208.123437" stroke="gray" fill="white" stroke-width="1px"></path><path d="M 235.459383 202.123437 L 237.959383 202.123437 L 237.959383 208.123437 L 235.459383 208.123437 L 235.459383 202.123437" stroke="gray" fill="white" stroke-width="1px"></path><path d="M 235.459383 196.123437 L 237.959383 196.123437 L 237.959383 202.123437 L 235.459383 202.123437 L 235.459383 196.123437" stroke="gray" fill="white" stroke-width="1px"></path><path d="M 251.737652 160.123437 L 251.737652 157.623437 L 245.737652 157.623437 L 245.737652 160.123437 L 251.737652 160.123437" stroke="gray" fill="white" stroke-width="1px"></path><path d="M 257.737652 160.123437 L 257.737652 157.623437 L 251.737652 157.623437 L 251.737652 160.123437 L 257.737652 160.123437" stroke="gray" fill="white" stroke-width="1px"></path><path d="M 263.737652 160.123437 L 263.737652 157.623437 L 257.737652 157.623437 L 257.737652 160.123437 L 263.737652 160.123437" stroke="gray" fill="white" stroke-width="1px"></path><path d="M 269.737652 160.123437 L 269.737652 157.623437 L 263.737652 157.623437 L 263.737652 160.123437 L 269.737652 160.123437" stroke="gray" fill="white" stroke-width="1px"></path><path d="M 275.737652 160.123437 L 275.737652 157.623437 L 269.737652 157.623437 L 269.737652 160.123437 L 275.737652 160.123437" stroke="gray" fill="white" stroke-width="1px"></path><path d="M 251.737652 148.123437 L 251.737652 145.623437 L 245.737652 145.623437 L 245.737652 148.123437 L 251.737652 148.123437" stroke="gray" fill="white" stroke-width="1px"></path><path d="M 257.737652 148.123437 L 257.737652 145.623437 L 251.737652 145.623437 L 251.737652 148.123437 L 257.737652 148.123437" stroke="gray" fill="white" stroke-width="1px"></path><path d="M 263.737652 148.123437 L 263.737652 145.623437 L 257.737652 145.623437 L 257.737652 148.123437 L 263.737652 148.123437" stroke="gray" fill="white" stroke-width="1px"></path><path d="M 269.737652 148.123437 L 269.737652 145.623437 L 263.737652 145.623437 L 263.737652 148.123437 L 269.737652 148.123437" stroke="gray" fill="white" stroke-width="1px"></path><path d="M 275.737652 148.123437 L 275.737652 145.623437 L 269.737652 145.623437 L 269.737652 148.123437 L 275.737652 148.123437" stroke="gray" fill="white" stroke-width="1px"></path><path d="M 251.737652 160.123437 L 251.737652 162.623437 L 245.737652 162.623437 L 245.737652 160.123437 L 251.737652 160.123437" stroke="gray" fill="white" stroke-width="1px"></path><path d="M 257.737652 160.123437 L 257.737652 162.623437 L 251.737652 162.623437 L 251.737652 160.123437 L 257.737652 160.123437" stroke="gray" fill="white" stroke-width="1px"></path><path d="M 263.737652 160.123437 L 263.737652 162.623437 L 257.737652 162.623437 L 257.737652 160.123437 L 263.737652 160.123437" stroke="gray" fill="white" stroke-width="1px"></path><path d="M 269.737652 160.123437 L 269.737652 162.623437 L 263.737652 162.623437 L 263.737652 160.123437 L 269.737652 160.123437" stroke="gray" fill="white" stroke-width="1px"></path><path d="M 275.737652 160.123437 L 275.737652 162.623437 L 269.737652 162.623437 L 269.737652 160.123437 L 275.737652 160.123437" stroke="gray" fill="white" stroke-width="1px"></path><path d="M 251.737652 148.123437 L 251.737652 150.623437 L 245.737652 150.623437 L 245.737652 148.123437 L 251.737652 148.123437" stroke="gray" fill="white" stroke-width="1px"></path><path d="M 257.737652 148.123437 L 257.737652 150.623437 L 251.737652 150.623437 L 251.737652 148.123437 L 257.737652 148.123437" stroke="gray" fill="white" stroke-width="1px"></path><path d="M 263.737652 148.123437 L 263.737652 150.623437 L 257.737652 150.623437 L 257.737652 148.123437 L 263.737652 148.123437" stroke="gray" fill="white" stroke-width="1px"></path><path d="M 269.737652 148.123437 L 269.737652 150.623437 L 263.737652 150.623437 L 263.737652 148.123437 L 269.737652 148.123437" stroke="gray" fill="white" stroke-width="1px"></path><path d="M 275.737652 148.123437 L 275.737652 150.623437 L 269.737652 150.623437 L 269.737652 148.123437 L 275.737652 148.123437" stroke="gray" fill="white" stroke-width="1px"></path><path d="M 271.459383 43.760597 L 268.959383 43.760597 L 268.959383 49.760597 L 271.459383 49.760597 L 271.459383 43.760597" stroke="gray" fill="white" stroke-width="1px"></path><path d="M 271.459383 37.760597 L 268.959383 37.760597 L 268.959383 43.760597 L 271.459383 43.760597 L 271.459383 37.760597" stroke="gray" fill="white" stroke-width="1px"></path><path d="M 271.459383 31.760597 L 268.959383 31.760597 L 268.959383 37.760597 L 271.459383 37.760597 L 271.459383 31.760597" stroke="gray" fill="white" stroke-width="1px"></path><path d="M 259.459383 43.064265 L 256.959383 43.064265 L 256.959383 49.064265 L 259.459383 49.064265 L 259.459383 43.064265" stroke="gray" fill="white" stroke-width="1px"></path><path d="M 259.459383 37.064265 L 256.959383 37.064265 L 256.959383 43.064265 L 259.459383 43.064265 L 259.459383 37.064265" stroke="gray" fill="white" stroke-width="1px"></path><path d="M 259.459383 31.064265 L 256.959383 31.064265 L 256.959383 37.064265 L 259.459383 37.064265 L 259.459383 31.064265" stroke="gray" fill="white" stroke-width="1px"></path><path d="M 247.459383 42.367934 L 244.959383 42.367934 L 244.959383 48.367934 L 247.459383 48.367934 L 247.459383 42.367934" stroke="gray" fill="white" stroke-width="1px"></path><path d="M 247.459383 36.367934 L 244.959383 36.367934 L 244.959383 42.367934 L 247.459383 42.367934 L 247.459383 36.367934" stroke="gray" fill="white" stroke-width="1px"></path><path d="M 235.459383 41.671602 L 232.959383 41.671602 L 232.959383 47.671602 L 235.459383 47.671602 L 235.459383 41.671602" stroke="gray" fill="white" stroke-width="1px"></path><path d="M 235.459383 35.671602 L 232.959383 35.671602 L 232.959383 41.671602 L 235.459383 41.671602 L 235.459383 35.671602" stroke="gray" fill="white" stroke-width="1px"></path><path d="M 187.459383 101.033125 L 184.959383 101.033125 L 184.959383 107.033125 L 187.459383 107.033125 L 187.459383 101.033125" stroke="gray" fill="white" stroke-width="1px"></path><path d="M 151.459383 101.033125 L 148.959383 101.033125 L 148.959383 107.033125 L 151.459383 107.033125 L 151.459383 101.033125" stroke="gray" fill="white" stroke-width="1px"></path><path d="M 151.459383 95.033125 L 148.959383 95.033125 L 148.959383 101.033125 L 151.459383 101.033125 L 151.459383 95.033125" stroke="gray" fill="white" stroke-width="1px"></path><path d="M 151.459383 89.033125 L 148.959383 89.033125 L 148.959383 95.033125 L 151.459383 95.033125 L 151.459383 89.033125" stroke="gray" fill="white" stroke-width="1px"></path><path d="M 139.459383 101.033125 L 136.959383 101.033125 L 136.959383 107.033125 L 139.459383 107.033125 L 139.459383 101.033125" stroke="gray" fill="white" stroke-width="1px"></path><path d="M 139.459383 95.033125 L 136.959383 95.033125 L 136.959383 101.033125 L 139.459383 101.033125 L 139.459383 95.033125" stroke="gray" fill="white" stroke-width="1px"></path><path d="M 139.459383 89.033125 L 136.959383 89.033125 L 136.959383 95.033125 L 139.459383 95.033125 L 139.459383 89.033125" stroke="gray" fill="white" stroke-width="1px"></path><path d="M 139.459383 83.033125 L 136.959383 83.033125 L 136.959383 89.033125 L 139.459383 89.033125 L 139.459383 83.033125" stroke="gray" fill="white" stroke-width="1px"></path><path d="M 115.459383 101.033125 L 112.959383 101.033125 L 112.959383 107.033125 L 115.459383 107.033125 L 115.459383 101.033125" stroke="gray" fill="white" stroke-width="1px"></path><path d="M 103.459383 101.033125 L 100.959383 101.033125 L 100.959383 107.033125 L 103.459383 107.033125 L 103.459383 101.033125" stroke="gray" fill="white" stroke-width="1px"></path><path d="M 271.459383 43.760597 L 273.959383 43.760597 L 273.959383 49.760597 L 271.459383 49.760597 L 271.459383 43.760597" stroke="gray" fill="white" stroke-width="1px"></path><path d="M 271.459383 37.760597 L 273.959383 37.760597 L 273.959383 43.760597 L 271.459383 43.760597 L 271.459383 37.760597" stroke="gray" fill="white" stroke-width="1px"></path><path d="M 271.459383 31.760597 L 273.959383 31.760597 L 273.959383 37.760597 L 271.459383 37.760597 L 271.459383 31.760597" stroke="gray" fill="white" stroke-width="1px"></path><path d="M 259.459383 43.064265 L 261.959383 43.064265 L 261.959383 49.064265 L 259.459383 49.064265 L 259.459383 43.064265" stroke="gray" fill="white" stroke-width="1px"></path><path d="M 259.459383 37.064265 L 261.959383 37.064265 L 261.959383 43.064265 L 259.459383 43.064265 L 259.459383 37.064265" stroke="gray" fill="white" stroke-width="1px"></path><path d="M 259.459383 31.064265 L 261.959383 31.064265 L 261.959383 37.064265 L 259.459383 37.064265 L 259.459383 31.064265" stroke="gray" fill="white" stroke-width="1px"></path><path d="M 247.459383 42.367934 L 249.959383 42.367934 L 249.959383 48.367934 L 247.459383 48.367934 L 247.459383 42.367934" stroke="gray" fill="white" stroke-width="1px"></path><path d="M 247.459383 36.367934 L 249.959383 36.367934 L 249.959383 42.367934 L 247.459383 42.367934 L 247.459383 36.367934" stroke="gray" fill="white" stroke-width="1px"></path><path d="M 235.459383 41.671602 L 237.959383 41.671602 L 237.959383 47.671602 L 235.459383 47.671602 L 235.459383 41.671602" stroke="gray" fill="white" stroke-width="1px"></path><path d="M 235.459383 35.671602 L 237.959383 35.671602 L 237.959383 41.671602 L 235.459383 41.671602 L 235.459383 35.671602" stroke="gray" fill="white" stroke-width="1px"></path><path d="M 187.459383 101.033125 L 189.959383 101.033125 L 189.959383 107.033125 L 187.459383 107.033125 L 187.459383 101.033125" stroke="gray" fill="white" stroke-width="1px"></path><path d="M 151.459383 101.033125 L 153.959383 101.033125 L 153.959383 107.033125 L 151.459383 107.033125 L 151.459383 101.033125" stroke="gray" fill="white" stroke-width="1px"></path><path d="M 151.459383 95.033125 L 153.959383 95.033125 L 153.959383 101.033125 L 151.459383 101.033125 L 151.459383 95.033125" stroke="gray" fill="white" stroke-width="1px"></path><path d="M 151.459383 89.033125 L 153.959383 89.033125 L 153.959383 95.033125 L 151.459383 95.033125 L 151.459383 89.033125" stroke="gray" fill="white" stroke-width="1px"></path><path d="M 139.459383 101.033125 L 141.959383 101.033125 L 141.959383 107.033125 L 139.459383 107.033125 L 139.459383 101.033125" stroke="gray" fill="white" stroke-width="1px"></path><path d="M 139.459383 95.033125 L 141.959383 95.033125 L 141.959383 101.033125 L 139.459383 101.033125 L 139.459383 95.033125" stroke="gray" fill="white" stroke-width="1px"></path><path d="M 139.459383 89.033125 L 141.959383 89.033125 L 141.959383 95.033125 L 139.459383 95.033125 L 139.459383 89.033125" stroke="gray" fill="white" stroke-width="1px"></path><path d="M 139.459383 83.033125 L 141.959383 83.033125 L 141.959383 89.033125 L 139.459383 89.033125 L 139.459383 83.033125" stroke="gray" fill="white" stroke-width="1px"></path><path d="M 115.459383 101.033125 L 117.959383 101.033125 L 117.959383 107.033125 L 115.459383 107.033125 L 115.459383 101.033125" stroke="gray" fill="white" stroke-width="1px"></path><path d="M 103.459383 101.033125 L 105.959383 101.033125 L 105.959383 107.033125 L 103.459383 107.033125 L 103.459383 101.033125" stroke="gray" fill="white" stroke-width="1px"></path><path d="M 266.404963 101.263579 L 266.404963 98.763579 L 260.404963 98.763579 L 260.404963 101.263579 L 266.404963 101.263579" stroke="gray" fill="white" stroke-width="1px"></path><path d="M 272.404963 101.263579 L 272.404963 98.763579 L 266.404963 98.763579 L 266.404963 101.263579 L 272.404963 101.263579" stroke="gray" fill="white" stroke-width="1px"></path><path d="M 278.404963 101.263579 L 278.404963 98.763579 L 272.404963 98.763579 L 272.404963 101.263579 L 278.404963 101.263579" stroke="gray" fill="white" stroke-width="1px"></path><path d="M 261.044297 89.263579 L 261.044297 86.763579 L 255.044297 86.763579 L 255.044297 89.263579 L 261.044297 89.263579" stroke="gray" fill="white" stroke-width="1px"></path><path d="M 267.044297 89.263579 L 267.044297 86.763579 L 261.044297 86.763579 L 261.044297 89.263579 L 267.044297 89.263579" stroke="gray" fill="white" stroke-width="1px"></path><path d="M 273.044297 89.263579 L 273.044297 86.763579 L 267.044297 86.763579 L 267.044297 89.263579 L 273.044297 89.263579" stroke="gray" fill="white" stroke-width="1px"></path><path d="M 279.044297 89.263579 L 279.044297 86.763579 L 273.044297 86.763579 L 273.044297 89.263579 L 279.044297 89.263579" stroke="gray" fill="white" stroke-width="1px"></path><path d="M 255.683630 77.263579 L 255.683630 74.763579 L 249.683630 74.763579 L 249.683630 77.263579 L 255.683630 77.263579" stroke="gray" fill="white" stroke-width="1px"></path><path d="M 261.683630 77.263579 L 261.683630 74.763579 L 255.683630 74.763579 L 255.683630 77.263579 L 261.683630 77.263579" stroke="gray" fill="white" stroke-width="1px"></path><path d="M 267.683630 77.263579 L 267.683630 74.763579 L 261.683630 74.763579 L 261.683630 77.263579 L 267.683630 77.263579" stroke="gray" fill="white" stroke-width="1px"></path><path d="M 273.683630 77.263579 L 273.683630 74.763579 L 267.683630 74.763579 L 267.683630 77.263579 L 273.683630 77.263579" stroke="gray" fill="white" stroke-width="1px"></path><path d="M 229.670412 101.263579 L 229.670412 98.763579 L 223.670412 98.763579 L 223.670412 101.263579 L 229.670412 101.263579" stroke="gray" fill="white" stroke-width="1px"></path><path d="M 235.670412 101.263579 L 235.670412 98.763579 L 229.670412 98.763579 L 229.670412 101.263579 L 235.670412 101.263579" stroke="gray" fill="white" stroke-width="1px"></path><path d="M 241.670412 101.263579 L 241.670412 98.763579 L 235.670412 98.763579 L 235.670412 101.263579 L 241.670412 101.263579" stroke="gray" fill="white" stroke-width="1px"></path><path d="M 247.670412 101.263579 L 247.670412 98.763579 L 241.670412 98.763579 L 241.670412 101.263579 L 247.670412 101.263579" stroke="gray" fill="white" stroke-width="1px"></path><path d="M 232.392366 89.263579 L 232.392366 86.763579 L 226.392366 86.763579 L 226.392366 89.263579 L 232.392366 89.263579" stroke="gray" fill="white" stroke-width="1px"></path><path d="M 238.392366 89.263579 L 238.392366 86.763579 L 232.392366 86.763579 L 232.392366 89.263579 L 238.392366 89.263579" stroke="gray" fill="white" stroke-width="1px"></path><path d="M 244.392366 89.263579 L 244.392366 86.763579 L 238.392366 86.763579 L 238.392366 89.263579 L 244.392366 89.263579" stroke="gray" fill="white" stroke-width="1px"></path><path d="M 233.737654 77.263579 L 233.737654 74.763579 L 227.737654 74.763579 L 227.737654 77.263579 L 233.737654 77.263579" stroke="gray" fill="white" stroke-width="1px"></path><path d="M 233.737654 65.263579 L 233.737654 62.763579 L 227.737654 62.763579 L 227.737654 65.263579 L 233.737654 65.263579" stroke="gray" fill="white" stroke-width="1px"></path><path d="M 22.000000 101.263579 L 22.000000 98.763579 L 16.000000 98.763579 L 16.000000 101.263579 L 22.000000 101.263579" stroke="gray" fill="white" stroke-width="1px"></path><path d="M 28.000000 101.263579 L 28.000000 98.763579 L 22.000000 98.763579 L 22.000000 101.263579 L 28.000000 101.263579" stroke="gray" fill="white" stroke-width="1px"></path><path d="M 34.000000 101.263579 L 34.000000 98.763579 L 28.000000 98.763579 L 28.000000 101.263579 L 34.000000 101.263579" stroke="gray" fill="white" stroke-width="1px"></path><path d="M 40.000000 101.263579 L 40.000000 98.763579 L 34.000000 98.763579 L 34.000000 101.263579 L 40.000000 101.263579" stroke="gray" fill="white" stroke-width="1px"></path><path d="M 46.000000 101.263579 L 46.000000 98.763579 L 40.000000 98.763579 L 40.000000 101.263579 L 46.000000 101.263579" stroke="gray" fill="white" stroke-width="1px"></path><path d="M 52.000000 101.263579 L 52.000000 98.763579 L 46.000000 98.763579 L 46.000000 101.263579 L 52.000000 101.263579" stroke="gray" fill="white" stroke-width="1px"></path><path d="M 58.000000 101.263579 L 58.000000 98.763579 L 52.000000 98.763579 L 52.000000 101.263579 L 58.000000 101.263579" stroke="gray" fill="white" stroke-width="1px"></path><path d="M 22.000000 89.263579 L 22.000000 86.763579 L 16.000000 86.763579 L 16.000000 89.263579 L 22.000000 89.263579" stroke="gray" fill="white" stroke-width="1px"></path><path d="M 28.000000 89.263579 L 28.000000 86.763579 L 22.000000 86.763579 L 22.000000 89.263579 L 28.000000 89.263579" stroke="gray" fill="white" stroke-width="1px"></path><path d="M 34.000000 89.263579 L 34.000000 86.763579 L 28.000000 86.763579 L 28.000000 89.263579 L 34.000000 89.263579" stroke="gray" fill="white" stroke-width="1px"></path><path d="M 40.000000 89.263579 L 40.000000 86.763579 L 34.000000 86.763579 L 34.000000 89.263579 L 40.000000 89.263579" stroke="gray" fill="white" stroke-width="1px"></path><path d="M 46.000000 89.263579 L 46.000000 86.763579 L 40.000000 86.763579 L 40.000000 89.263579 L 46.000000 89.263579" stroke="gray" fill="white" stroke-width="1px"></path><path d="M 52.000000 89.263579 L 52.000000 86.763579 L 46.000000 86.763579 L 46.000000 89.263579 L 52.000000 89.263579" stroke="gray" fill="white" stroke-width="1px"></path><path d="M 58.000000 89.263579 L 58.000000 86.763579 L 52.000000 86.763579 L 52.000000 89.263579 L 58.000000 89.263579" stroke="gray" fill="white" stroke-width="1px"></path><path d="M 22.000000 77.263579 L 22.000000 74.763579 L 16.000000 74.763579 L 16.000000 77.263579 L 22.000000 77.263579" stroke="gray" fill="white" stroke-width="1px"></path><path d="M 51.759030 41.263579 L 51.759030 38.763579 L 45.759030 38.763579 L 45.759030 41.263579 L 51.759030 41.263579" stroke="gray" fill="white" stroke-width="1px"></path><path d="M 57.759030 41.263579 L 57.759030 38.763579 L 51.759030 38.763579 L 51.759030 41.263579 L 57.759030 41.263579" stroke="gray" fill="white" stroke-width="1px"></path><path d="M 22.000000 29.263579 L 22.000000 26.763579 L 16.000000 26.763579 L 16.000000 29.263579 L 22.000000 29.263579" stroke="gray" fill="white" stroke-width="1px"></path><path d="M 28.000000 29.263579 L 28.000000 26.763579 L 22.000000 26.763579 L 22.000000 29.263579 L 28.000000 29.263579" stroke="gray" fill="white" stroke-width="1px"></path><path d="M 34.000000 29.263579 L 34.000000 26.763579 L 28.000000 26.763579 L 28.000000 29.263579 L 34.000000 29.263579" stroke="gray" fill="white" stroke-width="1px"></path><path d="M 40.000000 29.263579 L 40.000000 26.763579 L 34.000000 26.763579 L 34.000000 29.263579 L 40.000000 29.263579" stroke="gray" fill="white" stroke-width="1px"></path><path d="M 46.000000 29.263579 L 46.000000 26.763579 L 40.000000 26.763579 L 40.000000 29.263579 L 46.000000 29.263579" stroke="gray" fill="white" stroke-width="1px"></path><path d="M 52.000000 29.263579 L 52.000000 26.763579 L 46.000000 26.763579 L 46.000000 29.263579 L 52.000000 29.263579" stroke="gray" fill="white" stroke-width="1px"></path><path d="M 58.000000 29.263579 L 58.000000 26.763579 L 52.000000 26.763579 L 52.000000 29.263579 L 58.000000 29.263579" stroke="gray" fill="white" stroke-width="1px"></path><path d="M 22.000000 17.263579 L 22.000000 14.763579 L 16.000000 14.763579 L 16.000000 17.263579 L 22.000000 17.263579" stroke="gray" fill="white" stroke-width="1px"></path><path d="M 28.000000 17.263579 L 28.000000 14.763579 L 22.000000 14.763579 L 22.000000 17.263579 L 28.000000 17.263579" stroke="gray" fill="white" stroke-width="1px"></path><path d="M 34.000000 17.263579 L 34.000000 14.763579 L 28.000000 14.763579 L 28.000000 17.263579 L 34.000000 17.263579" stroke="gray" fill="white" stroke-width="1px"></path><path d="M 40.000000 17.263579 L 40.000000 14.763579 L 34.000000 14.763579 L 34.000000 17.263579 L 40.000000 17.263579" stroke="gray" fill="white" stroke-width="1px"></path><path d="M 46.000000 17.263579 L 46.000000 14.763579 L 40.000000 14.763579 L 40.000000 17.263579 L 46.000000 17.263579" stroke="gray" fill="white" stroke-width="1px"></path><path d="M 52.000000 17.263579 L 52.000000 14.763579 L 46.000000 14.763579 L 46.000000 17.263579 L 52.000000 17.263579" stroke="gray" fill="white" stroke-width="1px"></path><path d="M 58.000000 17.263579 L 58.000000 14.763579 L 52.000000 14.763579 L 52.000000 17.263579 L 58.000000 17.263579" stroke="gray" fill="white" stroke-width="1px"></path><path d="M 266.404963 101.263579 L 266.404963 103.763579 L 260.404963 103.763579 L 260.404963 101.263579 L 266.404963 101.263579" stroke="gray" fill="white" stroke-width="1px"></path><path d="M 272.404963 101.263579 L 272.404963 103.763579 L 266.404963 103.763579 L 266.404963 101.263579 L 272.404963 101.263579" stroke="gray" fill="white" stroke-width="1px"></path><path d="M 278.404963 101.263579 L 278.404963 103.763579 L 272.404963 103.763579 L 272.404963 101.263579 L 278.404963 101.263579" stroke="gray" fill="white" stroke-width="1px"></path><path d="M 261.044297 89.263579 L 261.044297 91.763579 L 255.044297 91.763579 L 255.044297 89.263579 L 261.044297 89.263579" stroke="gray" fill="white" stroke-width="1px"></path><path d="M 267.044297 89.263579 L 267.044297 91.763579 L 261.044297 91.763579 L 261.044297 89.263579 L 267.044297 89.263579" stroke="gray" fill="white" stroke-width="1px"></path><path d="M 273.044297 89.263579 L 273.044297 91.763579 L 267.044297 91.763579 L 267.044297 89.263579 L 273.044297 89.263579" stroke="gray" fill="white" stroke-width="1px"></path><path d="M 279.044297 89.263579 L 279.044297 91.763579 L 273.044297 91.763579 L 273.044297 89.263579 L 279.044297 89.263579" stroke="gray" fill="white" stroke-width="1px"></path><path d="M 255.683630 77.263579 L 255.683630 79.763579 L 249.683630 79.763579 L 249.683630 77.263579 L 255.683630 77.263579" stroke="gray" fill="white" stroke-width="1px"></path><path d="M 261.683630 77.263579 L 261.683630 79.763579 L 255.683630 79.763579 L 255.683630 77.263579 L 261.683630 77.263579" stroke="gray" fill="white" stroke-width="1px"></path><path d="M 267.683630 77.263579 L 267.683630 79.763579 L 261.683630 79.763579 L 261.683630 77.263579 L 267.683630 77.263579" stroke="gray" fill="white" stroke-width="1px"></path><path d="M 273.683630 77.263579 L 273.683630 79.763579 L 267.683630 79.763579 L 267.683630 77.263579 L 273.683630 77.263579" stroke="gray" fill="white" stroke-width="1px"></path><path d="M 229.670412 101.263579 L 229.670412 103.763579 L 223.670412 103.763579 L 223.670412 101.263579 L 229.670412 101.263579" stroke="gray" fill="white" stroke-width="1px"></path><path d="M 235.670412 101.263579 L 235.670412 103.763579 L 229.670412 103.763579 L 229.670412 101.263579 L 235.670412 101.263579" stroke="gray" fill="white" stroke-width="1px"></path><path d="M 241.670412 101.263579 L 241.670412 103.763579 L 235.670412 103.763579 L 235.670412 101.263579 L 241.670412 101.263579" stroke="gray" fill="white" stroke-width="1px"></path><path d="M 247.670412 101.263579 L 247.670412 103.763579 L 241.670412 103.763579 L 241.670412 101.263579 L 247.670412 101.263579" stroke="gray" fill="white" stroke-width="1px"></path><path d="M 232.392366 89.263579 L 232.392366 91.763579 L 226.392366 91.763579 L 226.392366 89.263579 L 232.392366 89.263579" stroke="gray" fill="white" stroke-width="1px"></path><path d="M 238.392366 89.263579 L 238.392366 91.763579 L 232.392366 91.763579 L 232.392366 89.263579 L 238.392366 89.263579" stroke="gray" fill="white" stroke-width="1px"></path><path d="M 244.392366 89.263579 L 244.392366 91.763579 L 238.392366 91.763579 L 238.392366 89.263579 L 244.392366 89.263579" stroke="gray" fill="white" stroke-width="1px"></path><path d="M 233.737654 77.263579 L 233.737654 79.763579 L 227.737654 79.763579 L 227.737654 77.263579 L 233.737654 77.263579" stroke="gray" fill="white" stroke-width="1px"></path><path d="M 233.737654 65.263579 L 233.737654 67.763579 L 227.737654 67.763579 L 227.737654 65.263579 L 233.737654 65.263579" stroke="gray" fill="white" stroke-width="1px"></path><path d="M 22.000000 101.263579 L 22.000000 103.763579 L 16.000000 103.763579 L 16.000000 101.263579 L 22.000000 101.263579" stroke="gray" fill="white" stroke-width="1px"></path><path d="M 28.000000 101.263579 L 28.000000 103.763579 L 22.000000 103.763579 L 22.000000 101.263579 L 28.000000 101.263579" stroke="gray" fill="white" stroke-width="1px"></path><path d="M 34.000000 101.263579 L 34.000000 103.763579 L 28.000000 103.763579 L 28.000000 101.263579 L 34.000000 101.263579" stroke="gray" fill="white" stroke-width="1px"></path><path d="M 40.000000 101.263579 L 40.000000 103.763579 L 34.000000 103.763579 L 34.000000 101.263579 L 40.000000 101.263579" stroke="gray" fill="white" stroke-width="1px"></path><path d="M 46.000000 101.263579 L 46.000000 103.763579 L 40.000000 103.763579 L 40.000000 101.263579 L 46.000000 101.263579" stroke="gray" fill="white" stroke-width="1px"></path><path d="M 52.000000 101.263579 L 52.000000 103.763579 L 46.000000 103.763579 L 46.000000 101.263579 L 52.000000 101.263579" stroke="gray" fill="white" stroke-width="1px"></path><path d="M 58.000000 101.263579 L 58.000000 103.763579 L 52.000000 103.763579 L 52.000000 101.263579 L 58.000000 101.263579" stroke="gray" fill="white" stroke-width="1px"></path><path d="M 22.000000 89.263579 L 22.000000 91.763579 L 16.000000 91.763579 L 16.000000 89.263579 L 22.000000 89.263579" stroke="gray" fill="white" stroke-width="1px"></path><path d="M 28.000000 89.263579 L 28.000000 91.763579 L 22.000000 91.763579 L 22.000000 89.263579 L 28.000000 89.263579" stroke="gray" fill="white" stroke-width="1px"></path><path d="M 34.000000 89.263579 L 34.000000 91.763579 L 28.000000 91.763579 L 28.000000 89.263579 L 34.000000 89.263579" stroke="gray" fill="white" stroke-width="1px"></path><path d="M 40.000000 89.263579 L 40.000000 91.763579 L 34.000000 91.763579 L 34.000000 89.263579 L 40.000000 89.263579" stroke="gray" fill="white" stroke-width="1px"></path><path d="M 46.000000 89.263579 L 46.000000 91.763579 L 40.000000 91.763579 L 40.000000 89.263579 L 46.000000 89.263579" stroke="gray" fill="white" stroke-width="1px"></path><path d="M 52.000000 89.263579 L 52.000000 91.763579 L 46.000000 91.763579 L 46.000000 89.263579 L 52.000000 89.263579" stroke="gray" fill="white" stroke-width="1px"></path><path d="M 58.000000 89.263579 L 58.000000 91.763579 L 52.000000 91.763579 L 52.000000 89.263579 L 58.000000 89.263579" stroke="gray" fill="white" stroke-width="1px"></path><path d="M 22.000000 77.263579 L 22.000000 79.763579 L 16.000000 79.763579 L 16.000000 77.263579 L 22.000000 77.263579" stroke="gray" fill="white" stroke-width="1px"></path><path d="M 51.759030 41.263579 L 51.759030 43.763579 L 45.759030 43.763579 L 45.759030 41.263579 L 51.759030 41.263579" stroke="gray" fill="white" stroke-width="1px"></path><path d="M 57.759030 41.263579 L 57.759030 43.763579 L 51.759030 43.763579 L 51.759030 41.263579 L 57.759030 41.263579" stroke="gray" fill="white" stroke-width="1px"></path><path d="M 22.000000 29.263579 L 22.000000 31.763579 L 16.000000 31.763579 L 16.000000 29.263579 L 22.000000 29.263579" stroke="gray" fill="white" stroke-width="1px"></path><path d="M 28.000000 29.263579 L 28.000000 31.763579 L 22.000000 31.763579 L 22.000000 29.263579 L 28.000000 29.263579" stroke="gray" fill="white" stroke-width="1px"></path><path d="M 34.000000 29.263579 L 34.000000 31.763579 L 28.000000 31.763579 L 28.000000 29.263579 L 34.000000 29.263579" stroke="gray" fill="white" stroke-width="1px"></path><path d="M 40.000000 29.263579 L 40.000000 31.763579 L 34.000000 31.763579 L 34.000000 29.263579 L 40.000000 29.263579" stroke="gray" fill="white" stroke-width="1px"></path><path d="M 46.000000 29.263579 L 46.000000 31.763579 L 40.000000 31.763579 L 40.000000 29.263579 L 46.000000 29.263579" stroke="gray" fill="white" stroke-width="1px"></path><path d="M 52.000000 29.263579 L 52.000000 31.763579 L 46.000000 31.763579 L 46.000000 29.263579 L 52.000000 29.263579" stroke="gray" fill="white" stroke-width="1px"></path><path d="M 58.000000 29.263579 L 58.000000 31.763579 L 52.000000 31.763579 L 52.000000 29.263579 L 58.000000 29.263579" stroke="gray" fill="white" stroke-width="1px"></path><path d="M 22.000000 17.263579 L 22.000000 19.763579 L 16.000000 19.763579 L 16.000000 17.263579 L 22.000000 17.263579" stroke="gray" fill="white" stroke-width="1px"></path><path d="M 28.000000 17.263579 L 28.000000 19.763579 L 22.000000 19.763579 L 22.000000 17.263579 L 28.000000 17.263579" stroke="gray" fill="white" stroke-width="1px"></path><path d="M 34.000000 17.263579 L 34.000000 19.763579 L 28.000000 19.763579 L 28.000000 17.263579 L 34.000000 17.263579" stroke="gray" fill="white" stroke-width="1px"></path><path d="M 40.000000 17.263579 L 40.000000 19.763579 L 34.000000 19.763579 L 34.000000 17.263579 L 40.000000 17.263579" stroke="gray" fill="white" stroke-width="1px"></path><path d="M 46.000000 17.263579 L 46.000000 19.763579 L 40.000000 19.763579 L 40.000000 17.263579 L 46.000000 17.263579" stroke="gray" fill="white" stroke-width="1px"></path><path d="M 52.000000 17.263579 L 52.000000 19.763579 L 46.000000 19.763579 L 46.000000 17.263579 L 52.000000 17.263579" stroke="gray" fill="white" stroke-width="1px"></path><path d="M 58.000000 17.263579 L 58.000000 19.763579 L 52.000000 19.763579 L 52.000000 17.263579 L 58.000000 17.263579" stroke="gray" fill="white" stroke-width="1px"></path></g><g id="crv-base"><path d="M 221.371570 123.090312 L 221.371570 169.241094 L 120.000633 169.241094 L 120.000633 156.444206 L 126.051258 156.444206 L 126.051258 128.832500 L 123.590320 128.832500 L 123.590320 125.551250 L 126.051258 125.551250 L 126.051258 123.858132 L 91.315945 123.858125 L 91.315945 134.738750 L 64.258762 134.738750 L 64.258762 123.687497 L 10.000000 123.687497 L 10.000000 226.180625 L 64.258758 226.180625 L 64.258758 192.357500 L 91.315945 192.357500 L 91.315945 220.123437 L 283.459383 220.123437 L 283.459383 123.090312 L 221.371570 123.090312" stroke="black" fill="none" stroke-width="1px"></path><path d="M 221.371570 10.000000 L 221.371570 56.150781 L 120.000633 56.150781 L 120.000633 43.353893 L 126.051258 43.353893 L 126.051258 15.742187 L 123.590320 15.742187 L 123.590320 12.460937 L 126.051258 12.460937 L 126.051258 10.767819 L 91.315945 10.767812 L 91.315945 21.648438 L 64.258762 21.648438 L 64.258762 10.597185 L 10.000000 10.597185 L 10.000000 113.090312 L 64.258758 113.090312 L 64.258758 79.267187 L 91.315945 79.267187 L 91.315945 107.033125 L 283.459383 107.033125 L 283.459383 10.000000 L 221.371570 10.000000" stroke="black" fill="none" stroke-width="1px"></path><path d="M 10.387195 156.559062 L 10.387195 154.590312 L 12.355945 154.590312 L 12.355945 156.559062 L 10.387195 156.559062" stroke="black" fill="white" stroke-width="1px"></path><path d="M 10.387195 43.468750 L 10.387195 41.500000 L 12.355945 41.500000 L 12.355945 43.468750 L 10.387195 43.468750" stroke="black" fill="white" stroke-width="1px"></path><path d="M 10.387195 188.059062 L 10.387195 186.090312 L 12.355945 186.090312 L 12.355945 188.059062 L 10.387195 188.059062" stroke="black" fill="white" stroke-width="1px"></path><path d="M 10.387195 74.968750 L 10.387195 73.000000 L 12.355945 73.000000 L 12.355945 74.968750 L 10.387195 74.968750" stroke="black" fill="white" stroke-width="1px"></path><path d="M 10.387195 219.559062 L 10.387195 217.590312 L 12.355945 217.590312 L 12.355945 219.559062 L 10.387195 219.559062" stroke="black" fill="white" stroke-width="1px"></path><path d="M 10.387195 106.468750 L 10.387195 104.500000 L 12.355945 104.500000 L 12.355945 106.468750 L 10.387195 106.468750" stroke="black" fill="white" stroke-width="1px"></path><path d="M 60.754383 128.340312 L 60.754383 125.387187 L 63.871570 125.387187 L 63.871570 128.340312 L 60.754383 128.340312" stroke="black" fill="white" stroke-width="1px"></path><path d="M 60.754383 15.250000 L 60.754383 12.296875 L 63.871570 12.296875 L 63.871570 15.250000 L 60.754383 15.250000" stroke="black" fill="white" stroke-width="1px"></path><path d="M 280.598133 219.230937 L 280.598133 217.262187 L 282.566883 217.262187 L 282.566883 219.230937 L 280.598133 219.230937" stroke="black" fill="white" stroke-width="1px"></path><path d="M 280.598133 106.140625 L 280.598133 104.171875 L 282.566883 104.171875 L 282.566883 106.140625 L 280.598133 106.140625" stroke="black" fill="white" stroke-width="1px"></path><path d="M 280.598133 188.059062 L 280.598133 186.090312 L 282.566883 186.090312 L 282.566883 188.059062 L 280.598133 188.059062" stroke="black" fill="white" stroke-width="1px"></path><path d="M 280.598133 74.968750 L 280.598133 73.000000 L 282.566883 73.000000 L 282.566883 74.968750 L 280.598133 74.968750" stroke="black" fill="white" stroke-width="1px"></path><path d="M 280.598133 156.559050 L 280.598133 154.590300 L 282.566883 154.590300 L 282.566883 156.559050 L 280.598133 156.559050" stroke="black" fill="white" stroke-width="1px"></path><path d="M 280.598133 43.468737 L 280.598133 41.499987 L 282.566883 41.499987 L 282.566883 43.468737 L 280.598133 43.468737" stroke="black" fill="white" stroke-width="1px"></path><path d="M 248.605945 127.355937 L 248.605945 123.418437 L 251.887195 123.418437 L 251.887195 127.355937 L 248.605945 127.355937" stroke="black" fill="white" stroke-width="1px"></path><path d="M 248.605945 14.265625 L 248.605945 10.328125 L 251.887195 10.328125 L 251.887195 14.265625 L 248.605945 14.265625" stroke="black" fill="white" stroke-width="1px"></path><path d="M 248.605945 157.871562 L 248.605945 153.934062 L 251.887195 153.934062 L 251.887195 157.871562 L 248.605945 157.871562" stroke="black" fill="white" stroke-width="1px"></path><path d="M 248.605945 44.781250 L 248.605945 40.843750 L 251.887195 40.843750 L 251.887195 44.781250 L 248.605945 44.781250" stroke="black" fill="white" stroke-width="1px"></path><path d="M 248.605945 189.043437 L 248.605945 185.105937 L 251.887195 185.105937 L 251.887195 189.043437 L 248.605945 189.043437" stroke="black" fill="white" stroke-width="1px"></path><path d="M 248.605945 75.953125 L 248.605945 72.015625 L 251.887195 72.015625 L 251.887195 75.953125 L 248.605945 75.953125" stroke="black" fill="white" stroke-width="1px"></path><path d="M 248.934070 219.230937 L 248.934070 216.277812 L 251.887195 216.277812 L 251.887195 219.230937 L 248.934070 219.230937" stroke="black" fill="white" stroke-width="1px"></path><path d="M 248.934070 106.140625 L 248.934070 103.187500 L 251.887195 103.187500 L 251.887195 106.140625 L 248.934070 106.140625" stroke="black" fill="white" stroke-width="1px"></path><path d="M 218.090320 189.043437 L 218.090320 185.105937 L 221.371570 185.105937 L 221.371570 189.043437 L 218.090320 189.043437" stroke="black" fill="white" stroke-width="1px"></path><path d="M 218.090320 75.953125 L 218.090320 72.015625 L 221.371570 72.015625 L 221.371570 75.953125 L 218.090320 75.953125" stroke="black" fill="white" stroke-width="1px"></path><path d="M 218.254383 219.230937 L 218.254383 216.277812 L 221.207508 216.277812 L 221.207508 219.230937 L 218.254383 219.230937" stroke="black" fill="white" stroke-width="1px"></path><path d="M 218.254383 106.140625 L 218.254383 103.187500 L 221.207508 103.187500 L 221.207508 106.140625 L 218.254383 106.140625" stroke="black" fill="white" stroke-width="1px"></path><path d="M 186.590320 189.043437 L 186.590320 185.105937 L 189.871570 185.105937 L 189.871570 189.043437 L 186.590320 189.043437" stroke="black" fill="white" stroke-width="1px"></path><path d="M 186.590320 75.953125 L 186.590320 72.015625 L 189.871570 72.015625 L 189.871570 75.953125 L 186.590320 75.953125" stroke="black" fill="white" stroke-width="1px"></path><path d="M 186.754383 219.230937 L 186.754383 216.277812 L 189.707508 216.277812 L 189.707508 219.230937 L 186.754383 219.230937" stroke="black" fill="white" stroke-width="1px"></path><path d="M 186.754383 106.140625 L 186.754383 103.187500 L 189.707508 103.187500 L 189.707508 106.140625 L 186.754383 106.140625" stroke="black" fill="white" stroke-width="1px"></path><path d="M 155.090320 189.043437 L 155.090320 185.105937 L 158.371570 185.105937 L 158.371570 189.043437 L 155.090320 189.043437" stroke="black" fill="white" stroke-width="1px"></path><path d="M 155.090320 75.953125 L 155.090320 72.015625 L 158.371570 72.015625 L 158.371570 75.953125 L 155.090320 75.953125" stroke="black" fill="white" stroke-width="1px"></path><path d="M 155.254383 219.230937 L 155.254383 216.277812 L 158.207508 216.277812 L 158.207508 219.230937 L 155.254383 219.230937" stroke="black" fill="white" stroke-width="1px"></path><path d="M 155.254383 106.140625 L 155.254383 103.187500 L 158.207508 103.187500 L 158.207508 106.140625 L 155.254383 106.140625" stroke="black" fill="white" stroke-width="1px"></path><path d="M 123.590320 189.043437 L 123.590320 185.105937 L 126.871570 185.105937 L 126.871570 189.043437 L 123.590320 189.043437" stroke="black" fill="white" stroke-width="1px"></path><path d="M 123.590320 75.953125 L 123.590320 72.015625 L 126.871570 72.015625 L 126.871570 75.953125 L 123.590320 75.953125" stroke="black" fill="white" stroke-width="1px"></path><path d="M 123.754383 219.230937 L 123.754383 216.277812 L 126.707508 216.277812 L 126.707508 219.230937 L 123.754383 219.230937" stroke="black" fill="white" stroke-width="1px"></path><path d="M 123.754383 106.140625 L 123.754383 103.187500 L 126.707508 103.187500 L 126.707508 106.140625 L 123.754383 106.140625" stroke="black" fill="white" stroke-width="1px"></path><path d="M 92.090320 157.543437 L 92.090320 153.605937 L 95.371570 153.605937 L 95.371570 157.543437 L 92.090320 157.543437" stroke="black" fill="white" stroke-width="1px"></path><path d="M 92.090320 44.453125 L 92.090320 40.515625 L 95.371570 40.515625 L 95.371570 44.453125 L 92.090320 44.453125" stroke="black" fill="white" stroke-width="1px"></path><path d="M 92.090320 189.043437 L 92.090320 185.105937 L 95.371570 185.105937 L 95.371570 189.043437 L 92.090320 189.043437" stroke="black" fill="white" stroke-width="1px"></path><path d="M 92.090320 75.953125 L 92.090320 72.015625 L 95.371570 72.015625 L 95.371570 75.953125 L 92.090320 75.953125" stroke="black" fill="white" stroke-width="1px"></path><path d="M 92.090320 128.504375 L 92.090320 125.551250 L 95.207508 125.551250 L 95.207508 128.504375 L 92.090320 128.504375" stroke="black" fill="white" stroke-width="1px"></path><path d="M 92.090320 15.414062 L 92.090320 12.460937 L 95.207508 12.460937 L 95.207508 15.414062 L 92.090320 15.414062" stroke="black" fill="white" stroke-width="1px"></path><path d="M 60.590320 157.215312 L 60.590320 153.934062 L 63.871570 153.934062 L 63.871570 157.215312 L 60.590320 157.215312" stroke="black" fill="white" stroke-width="1px"></path><path d="M 60.590320 44.125000 L 60.590320 40.843750 L 63.871570 40.843750 L 63.871570 44.125000 L 60.590320 44.125000" stroke="black" fill="white" stroke-width="1px"></path><path d="M 60.754383 219.230937 L 60.754383 216.277812 L 63.871570 216.277812 L 63.871570 219.230937 L 60.754383 219.230937" stroke="black" fill="white" stroke-width="1px"></path><path d="M 60.754383 106.140625 L 60.754383 103.187500 L 63.871570 103.187500 L 63.871570 106.140625 L 60.754383 106.140625" stroke="black" fill="white" stroke-width="1px"></path><path d="M 30.074695 128.504375 L 30.074695 125.223125 L 33.027820 125.223125 L 33.027820 128.504375 L 30.074695 128.504375" stroke="black" fill="white" stroke-width="1px"></path><path d="M 30.074695 15.414062 L 30.074695 12.132812 L 33.027820 12.132812 L 33.027820 15.414062 L 30.074695 15.414062" stroke="black" fill="white" stroke-width="1px"></path><path d="M 30.074695 157.215312 L 30.074695 153.934062 L 33.355945 153.934062 L 33.355945 157.215312 L 30.074695 157.215312" stroke="black" fill="white" stroke-width="1px"></path><path d="M 30.074695 44.125000 L 30.074695 40.843750 L 33.355945 40.843750 L 33.355945 44.125000 L 30.074695 44.125000" stroke="black" fill="white" stroke-width="1px"></path><path d="M 30.074695 188.715312 L 30.074695 185.434062 L 33.355945 185.434062 L 33.355945 188.715312 L 30.074695 188.715312" stroke="black" fill="white" stroke-width="1px"></path><path d="M 30.074695 75.625000 L 30.074695 72.343750 L 33.355945 72.343750 L 33.355945 75.625000 L 30.074695 75.625000" stroke="black" fill="white" stroke-width="1px"></path><path d="M 30.074695 219.230937 L 30.074695 216.277812 L 33.027820 216.277812 L 33.027820 219.230937 L 30.074695 219.230937" stroke="black" fill="white" stroke-width="1px"></path><path d="M 30.074695 106.140625 L 30.074695 103.187500 L 33.027820 103.187500 L 33.027820 106.140625 L 30.074695 106.140625" stroke="black" fill="white" stroke-width="1px"></path><path d="M 10.387195 127.191875 L 10.387195 125.223125 L 12.355945 125.223125 L 12.355945 127.191875 L 10.387195 127.191875" stroke="black" fill="white" stroke-width="1px"></path><path d="M 10.387195 14.101562 L 10.387195 12.132812 L 12.355945 12.132812 L 12.355945 14.101562 L 10.387195 14.101562" stroke="black" fill="white" stroke-width="1px"></path><path d="M 60.590320 189.863750 L 60.590320 185.434062 L 63.871570 185.434062 L 63.871570 188.715312 L 62.230945 188.715312 L 62.230945 189.863750 L 60.590320 189.863750" stroke="black" fill="white" stroke-width="1px"></path><path d="M 60.590320 76.773437 L 60.590320 72.343750 L 63.871570 72.343750 L 63.871570 75.625000 L 62.230945 75.625000 L 62.230945 76.773437 L 60.590320 76.773437" stroke="black" fill="white" stroke-width="1px"></path></g></svg>