<svg width="293.459383" height="236.180625" xmlns="http://www.w3.org/2000/svg" xmlns:xlink="http://www.w3.org/1999/xlink" version="1.1"><g id="crv-background"><path d="M 221.371570 123.090312 L 221.371570 169.241094 L 120.000633 169.241094 L 120.000633 156.444206 L 126.051258 156.444206 L 126.051258 128.832500 L 123.590320 128.832500 L 123.590320 125.551250 L 126.051258 125.551250 L 126.051258 123.858132 L 91.315945 123.858125 L 91.315945 134.738750 L 64.258762 134.738750 L 64.258762 123.687497 L 10.000000 123.687497 L 10.000000 226.180625 L 64.258758 226.180625 L 64.258758 192.357500 L 91.315945 192.357500 L 91.315945 220.123437 L 283.459383 220.123437 L 283.459383 123.090312 L 221.371570 123.090312" stroke="none" fill="white" stroke-width="1px"></path><path d="M 221.371570 10.000000 L 221.371570 56.150781 L 120.000633 56.150781 L 120.000633 43.353893 L 126.051258 43.353893 L 126.051258 15.742187 L 123.590320 15.742187 L 123.590320 12.460937 L 126.051258 12.460937 L 126.051258 10.767819 L 91.315945 10.767812 L 91.315945 21.648438 L 64.258762 21.648438 L 64.258762 10.597185 L 10.000000 10.597185 L 10.000000 113.090312 L 64.258758 113.090312 L 64.258758 79.267187 L 91.315945 79.267187 L 91.315945 107.033125 L 283.459383 107.033125 L 283.459383 10.000000 L 221.371570 10.000000" stroke="none" fill="white" stroke-width="1px"></path></g><g id="crv-nbhd"><path d="M 221.737654 10.000004 L 221.737654 25.161914 L 221.737654 40.323824 L 233.128960 46.392520 L 244.520267 52.461216 L 263.989825 50.149072 L 283.459383 47.836928 L 283.459383 28.918464 L 283.459382 10.000000 L 252.598518 10.000002 L 221.737654 10.000004" stroke="#DD2222" fill="none" stroke-width="1px"></path><path d="M 283.459383 107.033125 L 283.459383 77.435027 L 283.459383 47.836928 L 263.989825 50.149072 L 244.520267 52.461216 L 248.852578 79.747170 L 253.184888 107.033125 L 268.322136 107.033125 L 283.459383 107.033125" stroke="#DD2222" fill="none" stroke-width="1px"></path><path d="M 221.737654 40.323824 L 221.737654 59.737577 L 221.737654 79.151330 L 215.477808 79.151330 L 209.217962 79.151330 L 209.803457 93.092228 L 210.388953 107.033125 L 231.786921 107.033125 L 253.184888 107.033125 L 248.852578 79.747170 L 244.520267 52.461216 L 233.128960 46.392520 L 221.737654 40.323824" stroke="#DD2222" fill="none" stroke-width="1px"></path><path d="M 209.217962 79.151330 L 189.654441 79.151330 L 170.090920 79.151329 L 171.752169 93.092227 L 173.413418 107.033125 L 191.901186 107.033125 L 210.388953 107.033125 L 209.803457 93.092228 L 209.217962 79.151330" stroke="#DD2222" fill="none" stroke-width="1px"></path><path d="M 170.090920 79.151329 L 153.597582 79.151329 L 137.104244 79.151328 L 135.730414 93.092227 L 134.356585 107.033125 L 153.885002 107.033125 L 173.413418 107.033125 L 171.752169 93.092227 L 170.090920 79.151329" stroke="#DD2222" fill="none" stroke-width="1px"></path><path d="M 137.104244 79.151328 L 114.210094 79.151328 L 91.315945 79.151327 L 91.315945 93.092226 L 91.315945 107.033125 L 112.836265 107.033125 L 134.356585 107.033125 L 135.730414 93.092230 L 137.104244 79.151328" stroke="#DD2222" fill="none" stroke-width="1px"></path><path d="M 64.258758 113.090312 L 64.258758 84.620547 L 64.258758 56.150781 L 64.258758 54.366049 L 64.258758 52.581316 L 37.129382 56.324172 L 10.000000 60.067028 L 10.000000 86.578670 L 10.000000 113.090312 L 37.129275 113.090312 L 64.258758 113.090312" stroke="#DD2222" fill="none" stroke-width="1px"></path><path d="M 10.000000 10.597184 L 10.000000 35.332106 L 10.000000 60.067028 L 37.129379 56.324172 L 64.258758 52.581316 L 64.258758 31.589251 L 64.258758 10.597185 L 37.129379 10.597185 L 10.000000 10.597184" stroke="#DD2222" fill="none" stroke-width="1px"></path><path d="M 10.000000 123.687497 L 10.000000 150.427396 L 10.000000 177.167296 L 37.129379 175.336406 L 64.258758 173.505516 L 64.258758 171.373305 L 64.258758 169.241094 L 64.258758 146.464296 L 64.258758 123.687497 L 37.129385 123.687497 L 10.000000 123.687497" stroke="#DD2222" fill="none" stroke-width="1px"></path><path d="M 10.000000 177.167296 L 10.000000 201.673960 L 10.000000 226.180625 L 37.129379 226.180625 L 64.258758 226.180625 L 64.258758 199.843070 L 64.258758 173.505516 L 37.129385 175.336405 L 10.000000 177.167296" stroke="#DD2222" fill="none" stroke-width="1px"></path><path d="M 138.773712 192.043444 L 115.044828 192.043444 L 91.315945 192.043444 L 91.315945 206.083441 L 91.315945 220.123437 L 121.261966 220.123437 L 151.207986 220.123437 L 144.990849 206.083441 L 138.773712 192.043444" stroke="#DD2222" fill="none" stroke-width="1px"></path><path d="M 185.140362 192.043444 L 161.957037 192.043444 L 138.773712 192.043444 L 144.990849 206.083441 L 151.207986 220.123437 L 165.192821 220.123437 L 179.177656 220.123437 L 182.159008 206.083444 L 185.140362 192.043444" stroke="#DD2222" fill="none" stroke-width="1px"></path><path d="M 179.177656 220.123437 L 206.190503 220.123437 L 233.203351 220.123437 L 233.249477 206.083441 L 233.295603 192.043444 L 209.217982 192.043444 L 185.140362 192.043444 L 182.159009 206.083440 L 179.177656 220.123437" stroke="#DD2222" fill="none" stroke-width="1px"></path><path d="M 283.459383 220.123437 L 283.459383 195.764537 L 283.459383 171.405637 L 261.598517 170.277338 L 239.737652 169.149040 L 239.737652 180.596242 L 239.737652 192.043444 L 236.516627 192.043444 L 233.295603 192.043444 L 233.249477 206.083441 L 233.203351 220.123437 L 258.331361 220.123437 L 283.459383 220.123437" stroke="#DD2222" fill="none" stroke-width="1px"></path><path d="M 239.737652 123.090312 L 239.737652 146.119676 L 239.737652 169.149040 L 261.598517 170.277338 L 283.459383 171.405637 L 283.459383 147.247975 L 283.459383 123.090312 L 261.598548 123.090312 L 239.737652 123.090312" stroke="#DD2222" fill="none" stroke-width="1px"></path></g><g id="crv-amen"><path d="M 58.832882 138.708329 L 58.832882 132.032404 L 58.832882 125.356479 L 37.129379 125.356478 L 15.425876 125.356478 L 15.425876 132.032403 L 15.425876 138.708328 L 37.129379 138.708329 L 58.832882 138.708329" stroke="none" fill="#2288CC" stroke-width="1px"></path><path d="M 49.243939 220.969229 L 55.919861 220.969229 L 62.595789 220.969229 L 62.595789 199.899185 L 62.595789 178.829141 L 55.919861 179.279682 L 49.243938 179.730222 L 49.243939 200.349726 L 49.243939 220.969229" stroke="none" fill="#2288CC" stroke-width="1px"></path><path d="M 139.330740 204.895712 L 136.862936 199.322736 L 134.395132 193.749759 L 115.412025 193.749759 L 96.428919 193.749759 L 96.428919 200.425685 L 96.428919 207.101610 L 117.879829 207.101610 L 139.330740 207.101610 L 139.330740 205.998661 L 139.330740 204.895712" stroke="none" fill="#2288CC" stroke-width="1px"></path><path d="M 156.381674 194.783550 L 149.080500 194.783550 L 141.779326 194.783550 L 146.753036 206.015547 L 151.726746 217.247544 L 155.670768 217.247544 L 159.614790 217.247544 L 162.421571 216.004656 L 165.228352 214.761768 L 160.805013 204.772659 L 156.381674 194.783550" stroke="none" fill="#2288CC" stroke-width="1px"></path><path d="M 199.899844 194.851444 L 193.075065 194.851444 L 186.250286 194.851444 L 183.865204 206.083441 L 181.480121 217.315438 L 188.304900 217.315438 L 195.129679 217.315438 L 197.514761 206.083441 L 199.899844 194.851444" stroke="none" fill="#2288CC" stroke-width="1px"></path><path d="M 240.156796 191.715878 L 240.156796 193.167588 L 240.156796 194.619298 L 237.579976 194.619298 L 235.003157 194.619298 L 234.966256 205.851295 L 234.929355 217.083292 L 241.605316 217.083292 L 248.281278 217.083292 L 248.322903 204.413068 L 248.364529 191.742844 L 244.260662 191.729361 L 240.156796 191.715878" stroke="none" fill="#2288CC" stroke-width="1px"></path><path d="M 254.763637 127.739389 L 248.087716 127.739389 L 241.411787 127.739389 L 241.411787 146.162879 L 241.411787 164.586370 L 248.087712 164.930933 L 254.763637 165.275496 L 254.763637 146.507442 L 254.763637 127.739389" stroke="none" fill="#2288CC" stroke-width="1px"></path><path d="M 224.851329 34.340776 L 224.851329 37.195666 L 224.851329 40.050555 L 233.964374 44.905512 L 243.077419 49.760469 L 244.701081 49.567648 L 246.324743 49.374827 L 249.024704 44.306839 L 251.724664 39.238850 L 240.242227 33.121605 L 228.759790 27.004359 L 226.805559 30.672568 L 224.851329 34.340776" stroke="none" fill="#2288CC" stroke-width="1px"></path><path d="M 260.339778 56.243565 L 253.705326 57.031452 L 247.070873 57.819339 L 250.536721 79.648103 L 254.002570 101.476866 L 260.762119 101.476866 L 267.521668 101.476866 L 263.930723 78.860216 L 260.339778 56.243565" stroke="none" fill="#2288CC" stroke-width="1px"></path><path d="M 242.819799 57.386258 L 242.470590 55.186854 L 242.121381 52.987450 L 233.008335 48.132494 L 223.895290 43.277537 L 223.895290 50.841747 L 223.895290 58.405958 L 231.054105 62.219802 L 238.212919 66.033646 L 240.516359 61.709952 L 242.819799 57.386258" stroke="none" fill="#2288CC" stroke-width="1px"></path><path d="M 185.550273 81.939509 L 178.827116 81.939509 L 172.103959 81.939509 L 173.432958 93.092227 L 174.761958 104.244945 L 181.485115 104.244945 L 188.208272 104.244945 L 186.879273 93.092227 L 185.550273 81.939509" stroke="none" fill="#2288CC" stroke-width="1px"></path><path d="M 157.954065 104.244945 L 164.677222 104.244945 L 171.400379 104.244945 L 170.071380 93.092227 L 168.742381 81.939509 L 162.019223 81.939509 L 155.296066 81.939508 L 156.625065 93.092227 L 157.954065 104.244945" stroke="none" fill="#2288CC" stroke-width="1px"></path><path d="M 131.127898 94.161986 L 131.785788 87.486061 L 132.443679 80.810135 L 114.128360 80.810135 L 95.813040 80.810134 L 95.813040 87.486060 L 95.813040 94.161985 L 113.470469 94.161985 L 131.127898 94.161986" stroke="none" fill="#2288CC" stroke-width="1px"></path><path d="M 58.832882 68.492997 L 58.832882 63.181622 L 58.832882 57.870249 L 58.832882 56.442463 L 58.832882 55.014677 L 37.129379 58.008962 L 15.425876 61.003247 L 15.425876 67.742407 L 15.425876 74.481567 L 37.129379 71.487282 L 58.832882 68.492997" stroke="none" fill="#2288CC" stroke-width="1px"></path><path d="M 49.223078 50.341120 L 55.899003 49.420088 L 62.574928 48.499056 L 62.574928 31.705404 L 62.574928 14.911751 L 55.899003 14.911751 L 49.223078 14.911751 L 49.223078 32.626436 L 49.223078 50.341120" stroke="none" fill="#2288CC" stroke-width="1px"></path></g><g id="crv-desk"><path d="M 55.459383 168.099362 L 52.959383 168.099362 L 52.959383 174.099362 L 55.459383 174.099362 L 55.459383 168.099362" stroke="gray" fill="white" stroke-width="1px"></path><path d="M 55.459383 162.099362 L 52.959383 162.099362 L 52.959383 168.099362 L 55.459383 168.099362 L 55.459383 162.099362" stroke="gray" fill="white" stroke-width="1px"></path><path d="M 55.459383 156.099362 L 52.959383 156.099362 L 52.959383 162.099362 L 55.459383 162.099362 L 55.459383 156.099362" stroke="gray" fill="white" stroke-width="1px"></path><path d="M 55.459383 150.099362 L 52.959383 150.099362 L 52.959383 156.099362 L 55.459383 156.099362 L 55.459383 150.099362" stroke="gray" fill="white" stroke-width="1px"></path><path d="M 43.459383 168.909211 L 40.959383 168.909211 L 40.959383 174.909211 L 43.459383 174.909211 L 43.459383 168.909211" stroke="gray" fill="white" stroke-width="1px"></path><path d="M 43.459383 162.909211 L 40.959383 162.909211 L 40.959383 168.909211 L 43.459383 168.909211 L 43.459383 162.909211" stroke="gray" fill="white" stroke-width="1px"></path><path d="M 43.459383 156.909211 L 40.959383 156.909211 L 40.959383 162.909211 L 43.459383 162.909211 L 43.459383 156.909211" stroke="gray" fill="white" stroke-width="1px"></path><path d="M 43.459383 150.909211 L 40.959383 150.909211 L 40.959383 156.909211 L 43.459383 156.909211 L 43.459383 150.909211" stroke="gray" fill="white" stroke-width="1px"></path><path d="M 43.459383 144.909211 L 40.959383 144.909211 L 40.959383 150.909211 L 43.459383 150.909211 L 43.459383 144.909211" stroke="gray" fill="white" stroke-width="1px"></path><path d="M 31.459383 169.719059 L 28.959383 169.719059 L 28.959383 175.719059 L 31.459383 175.719059 L 31.459383 169.719059" stroke="gray" fill="white" stroke-width="1px"></path><path d="M 31.459383 163.719059 L 28.959383 163.719059 L 28.959383 169.719059 L 31.459383 169.719059 L 31.459383 163.719059" stroke="gray" fill="white" stroke-width="1px"></path><path d="M 31.459383 157.719059 L 28.959383 157.719059 L 28.959383 163.719059 L 31.459383 163.719059 L 31.459383 157.719059" stroke="gray" fill="white" stroke-width="1px"></path><path d="M 31.459383 151.719059 L 28.959383 151.719059 L 28.959383 157.719059 L 31.459383 157.719059 L 31.459383 151.719059" stroke="gray" fill="white" stroke-width="1px"></path><path d="M 31.459383 145.719059 L 28.959383 145.719059 L 28.959383 151.719059 L 31.459383 151.719059 L 31.459383 145.719059" stroke="gray" fill="white" stroke-width="1px"></path><path d="M 19.459383 170.528907 L 16.959383 170.528907 L 16.959383 176.528907 L 19.459383 176.528907 L 19.459383 170.528907" stroke="gray" fill="white" stroke-width="1px"></path><path d="M 19.459383 164.528907 L 16.959383 164.528907 L 16.959383 170.528907 L 19.459383 170.528907 L 19.459383 164.528907" stroke="gray" fill="white" stroke-width="1px"></path><path d="M 19.459383 158.528907 L 16.959383 158.528907 L 16.959383 164.528907 L 19.459383 164.528907 L 19.459383 158.528907" stroke="gray" fill="white" stroke-width="1px"></path><path d="M 19.459383 152.528907 L 16.959383 152.528907 L 16.959383 158.528907 L 19.459383 158.528907 L 19.459383 152.528907" stroke="gray" fill="white" stroke-width="1px"></path><path d="M 19.459383 146.528907 L 16.959383 146.528907 L 16.959383 152.528907 L 19.459383 152.528907 L 19.459383 146.528907" stroke="gray" fill="white" stroke-width="1px"></path><path d="M 31.459383 220.180625 L 28.959383 220.180625 L 28.959383 226.180625 L 31.459383 226.180625 L 31.459383 220.180625" stroke="gray" fill="white" stroke-width="1px"></path><path d="M 31.459383 214.180625 L 28.959383 214.180625 L 28.959383 220.180625 L 31.459383 220.180625 L 31.459383 214.180625" stroke="gray" fill="white" stroke-width="1px"></path><path d="M 31.459383 208.180625 L 28.959383 208.180625 L 28.959383 214.180625 L 31.459383 214.180625 L 31.459383 208.180625" stroke="gray" fill="white" stroke-width="1px"></path><path d="M 31.459383 202.180625 L 28.959383 202.180625 L 28.959383 208.180625 L 31.459383 208.180625 L 31.459383 202.180625" stroke="gray" fill="white" stroke-width="1px"></path><path d="M 31.459383 196.180625 L 28.959383 196.180625 L 28.959383 202.180625 L 31.459383 202.180625 L 31.459383 196.180625" stroke="gray" fill="white" stroke-width="1px"></path><path d="M 31.459383 190.180625 L 28.959383 190.180625 L 28.959383 196.180625 L 31.459383 196.180625 L 31.459383 190.180625" stroke="gray" fill="white" stroke-width="1px"></path><path d="M 31.459383 184.180625 L 28.959383 184.180625 L 28.959383 190.180625 L 31.459383 190.180625 L 31.459383 184.180625" stroke="gray" fill="white" stroke-width="1px"></path><path d="M 31.459383 178.180625 L 28.959383 178.180625 L 28.959383 184.180625 L 31.459383 184.180625 L 31.459383 178.180625" stroke="gray" fill="white" stroke-width="1px"></path><path d="M 19.459383 220.180625 L 16.959383 220.180625 L 16.959383 226.180625 L 19.459383 226.180625 L 19.459383 220.180625" stroke="gray" fill="white" stroke-width="1px"></path><path d="M 19.459383 214.180625 L 16.959383 214.180625 L 16.959383 220.180625 L 19.459383 220.180625 L 19.459383 214.180625" stroke="gray" fill="white" stroke-width="1px"></path><path d="M 19.459383 208.180625 L 16.959383 208.180625 L 16.959383 214.180625 L 19.459383 214.180625 L 19.459383 208.180625" stroke="gray" fill="white" stroke-width="1px"></path><path d="M 19.459383 202.180625 L 16.959383 202.180625 L 16.959383 208.180625 L 19.459383 208.180625 L 19.459383 202.180625" stroke="gray" fill="white" stroke-width="1px"></path><path d="M 19.459383 196.180625 L 16.959383 196.180625 L 16.959383 202.180625 L 19.459383 202.180625 L 19.459383 196.180625" stroke="gray" fill="white" stroke-width="1px"></path><path d="M 19.459383 190.180625 L 16.959383 190.180625 L 16.959383 196.180625 L 19.459383 196.180625 L 19.459383 190.180625" stroke="gray" fill="white" stroke-width="1px"></path><path d="M 19.459383 184.180625 L 16.959383 184.180625 L 16.959383 190.180625 L 19.459383 190.180625 L 19.459383 184.180625" stroke="gray" fill="white" stroke-width="1px"></path><path d="M 139.459383 214.123437 L 136.959383 214.123437 L 136.959383 220.123437 L 139.459383 220.123437 L 139.459383 214.123437" stroke="gray" fill="white" stroke-width="1px"></path><path d="M 127.459383 214.123437 L 124.959383 214.123437 L 124.959383 220.123437 L 127.459383 220.123437 L 127.459383 214.123437" stroke="gray" fill="white" stroke-width="1px"></path><path d="M 115.459383 214.123437 L 112.959383 214.123437 L 112.959383 220.123437 L 115.459383 220.123437 L 115.459383 214.123437" stroke="gray" fill="white" stroke-width="1px"></path><path d="M 103.459383 214.123437 L 100.959383 214.123437 L 100.959383 220.123437 L 103.459383 220.123437 L 103.459383 214.123437" stroke="gray" fill="white" stroke-width="1px"></path><path d="M 175.459383 214.123437 L 172.959383 214.123437 L 172.959383 220.123437 L 175.459383 220.123437 L 175.459383 214.123437" stroke="gray" fill="white" stroke-width="1px"></path><path d="M 175.459383 208.123437 L 172.959383 208.123437 L 172.959383 214.123437 L 175.459383 214.123437 L 175.459383 208.123437" stroke="gray" fill="white" stroke-width="1px"></path><path d="M 175.459383 202.123437 L 172.959383 202.123437 L 172.959383 208.123437 L 175.459383 208.123437 L 175.459383 202.123437" stroke="gray" fill="white" stroke-width="1px"></path><path d="M 175.459383 196.123437 L 172.959383 196.123437 L 172.959383 202.123437 L 175.459383 202.123437 L 175.459383 196.123437" stroke="gray" fill="white" stroke-width="1px"></path><path d="M 223.459383 214.123437 L 220.959383 214.123437 L 220.959383 220.123437 L 223.459383 220.123437 L 223.459383 214.123437" stroke="gray" fill="white" stroke-width="1px"></path><path d="M 223.459383 208.123437 L 220.959383 208.123437 L 220.959383 214.123437 L 223.459383 214.123437 L 223.459383 208.123437" stroke="gray" fill="white" stroke-width="1px"></path><path d="M 223.459383 202.123437 L 220.959383 202.123437 L 220.959383 208.123437 L 223.459383 208.123437 L 223.459383 202.123437" stroke="gray" fill="white" stroke-width="1px"></path><path d="M 223.459383 196.123437 L 220.959383 196.123437 L 220.959383 202.123437 L 223.459383 202.123437 L 223.459383 196.123437" stroke="gray" fill="white" stroke-width="1px"></path><path d="M 211.459383 214.123437 L 208.959383 214.123437 L 208.959383 220.123437 L 211.459383 220.123437 L 211.459383 214.123437" stroke="gray" fill="white" stroke-width="1px"></path><path d="M 211.459383 208.123437 L 208.959383 208.123437 L 208.959383 214.123437 L 211.459383 214.123437 L 211.459383 208.123437" stroke="gray" fill="white" stroke-width="1px"></path><path d="M 211.459383 202.123437 L 208.959383 202.123437 L 208.959383 208.123437 L 211.459383 208.123437 L 211.459383 202.123437" stroke="gray" fill="white" stroke-width="1px"></path><path d="M 211.459383 196.123437 L 208.959383 196.123437 L 208.959383 202.123437 L 211.459383 202.123437 L 211.459383 196.123437" stroke="gray" fill="white" stroke-width="1px"></path><path d="M 55.459383 168.099362 L 57.959383 168.099362 L 57.959383 174.099362 L 55.459383 174.099362 L 55.459383 168.099362" stroke="gray" fill="white" stroke-width="1px"></path><path d="M 55.459383 162.099362 L 57.959383 162.099362 L 57.959383 168.099362 L 55.459383 168.099362 L 55.459383 162.099362" stroke="gray" fill="white" stroke-width="1px"></path><path d="M 55.459383 156.099362 L 57.959383 156.099362 L 57.959383 162.099362 L 55.459383 162.099362 L 55.459383 156.099362" stroke="gray" fill="white" stroke-width="1px"></path><path d="M 55.459383 150.099362 L 57.959383 150.099362 L 57.959383 156.099362 L 55.459383 156.099362 L 55.459383 150.099362" stroke="gray" fill="white" stroke-width="1px"></path><path d="M 43.459383 168.909211 L 45.959383 168.909211 L 45.959383 174.909211 L 43.459383 174.909211 L 43.459383 168.909211" stroke="gray" fill="white" stroke-width="1px"></path><path d="M 43.459383 162.909211 L 45.959383 162.909211 L 45.959383 168.909211 L 43.459383 168.909211 L 43.459383 162.909211" stroke="gray" fill="white" stroke-width="1px"></path><path d="M 43.459383 156.909211 L 45.959383 156.909211 L 45.959383 162.909211 L 43.459383 162.909211 L 43.459383 156.909211" stroke="gray" fill="white" stroke-width="1px"></path><path d="M 43.459383 150.909211 L 45.959383 150.909211 L 45.959383 156.909211 L 43.459383 156.909211 L 43.459383 150.909211" stroke="gray" fill="white" stroke-width="1px"></path><path d="M 43.459383 144.909211 L 45.959383 144.909211 L 45.959383 150.909211 L 43.459383 150.909211 L 43.459383 144.909211" stroke="gray" fill="white" stroke-width="1px"></path><path d="M 31.459383 169.719059 L 33.959383 169.719059 L 33.959383 175.719059 L 31.459383 175.719059 L 31.459383 169.719059" stroke="gray" fill="white" stroke-width="1px"></path><path d="M 31.459383 163.719059 L 33.959383 163.719059 L 33.959383 169.719059 L 31.459383 169.719059 L 31.459383 163.719059" stroke="gray" fill="white" stroke-width="1px"></path><path d="M 31.459383 157.719059 L 33.959383 157.719059 L 33.959383 163.719059 L 31.459383 163.719059 L 31.459383 157.719059" stroke="gray" fill="white" stroke-width="1px"></path><path d="M 31.459383 151.719059 L 33.959383 151.719059 L 33.959383 157.719059 L 31.459383 157.719059 L 31.459383 151.719059" stroke="gray" fill="white" stroke-width="1px"></path><path d="M 31.459383 145.719059 L 33.959383 145.719059 L 33.959383 151.719059 L 31.459383 151.719059 L 31.459383 145.719059" stroke="gray" fill="white" stroke-width="1px"></path><path d="M 19.459383 170.528907 L 21.959383 170.528907 L 21.959383 176.528907 L 19.459383 176.528907 L 19.459383 170.528907" stroke="gray" fill="white" stroke-width="1px"></path><path d="M 19.459383 164.528907 L 21.959383 164.528907 L 21.959383 170.528907 L 19.459383 170.528907 L 19.459383 164.528907" stroke="gray" fill="white" stroke-width="1px"></path><path d="M 19.459383 158.528907 L 21.959383 158.528907 L 21.959383 164.528907 L 19.459383 164.528907 L 19.459383 158.528907" stroke="gray" fill="white" stroke-width="1px"></path><path d="M 19.459383 152.528907 L 21.959383 152.528907 L 21.959383 158.528907 L 19.459383 158.528907 L 19.459383 152.528907" stroke="gray" fill="white" stroke-width="1px"></path><path d="M 19.459383 146.528907 L 21.959383 146.528907 L 21.959383 152.528907 L 19.459383 152.528907 L 19.459383 146.528907" stroke="gray" fill="white" stroke-width="1px"></path><path d="M 31.459383 220.180625 L 33.959383 220.180625 L 33.959383 226.180625 L 31.459383 226.180625 L 31.459383 220.180625" stroke="gray" fill="white" stroke-width="1px"></path><path d="M 31.459383 214.180625 L 33.959383 214.180625 L 33.959383 220.180625 L 31.459383 220.180625 L 31.459383 214.180625" stroke="gray" fill="white" stroke-width="1px"></path><path d="M 31.459383 208.180625 L 33.959383 208.180625 L 33.959383 214.180625 L 31.459383 214.180625 L 31.459383 208.180625" stroke="gray" fill="white" stroke-width="1px"></path><path d="M 31.459383 202.180625 L 33.959383 202.180625 L 33.959383 208.180625 L 31.459383 208.180625 L 31.459383 202.180625" stroke="gray" fill="white" stroke-width="1px"></path><path d="M 31.459383 196.180625 L 33.959383 196.180625 L 33.959383 202.180625 L 31.459383 202.180625 L 31.459383 196.180625" stroke="gray" fill="white" stroke-width="1px"></path><path d="M 31.459383 190.180625 L 33.959383 190.180625 L 33.959383 196.180625 L 31.459383 196.180625 L 31.459383 190.180625" stroke="gray" fill="white" stroke-width="1px"></path><path d="M 31.459383 184.180625 L 33.959383 184.180625 L 33.959383 190.180625 L 31.459383 190.180625 L 31.459383 184.180625" stroke="gray" fill="white" stroke-width="1px"></path><path d="M 31.459383 178.180625 L 33.959383 178.180625 L 33.959383 184.180625 L 31.459383 184.180625 L 31.459383 178.180625" stroke="gray" fill="white" stroke-width="1px"></path><path d="M 19.459383 220.180625 L 21.959383 220.180625 L 21.959383 226.180625 L 19.459383 226.180625 L 19.459383 220.180625" stroke="gray" fill="white" stroke-width="1px"></path><path d="M 19.459383 214.180625 L 21.959383 214.180625 L 21.959383 220.180625 L 19.459383 220.180625 L 19.459383 214.180625" stroke="gray" fill="white" stroke-width="1px"></path><path d="M 19.459383 208.180625 L 21.959383 208.180625 L 21.959383 214.180625 L 19.459383 214.180625 L 19.459383 208.180625" stroke="gray" fill="white" stroke-width="1px"></path><path d="M 19.459383 202.180625 L 21.959383 202.180625 L 21.959383 208.180625 L 19.459383 208.180625 L 19.459383 202.180625" stroke="gray" fill="white" stroke-width="1px"></path><path d="M 19.459383 196.180625 L 21.959383 196.180625 L 21.959383 202.180625 L 19.459383 202.180625 L 19.459383 196.180625" stroke="gray" fill="white" stroke-width="1px"></path><path d="M 19.459383 190.180625 L 21.959383 190.180625 L 21.959383 196.180625 L 19.459383 196.180625 L 19.459383 190.180625" stroke="gray" fill="white" stroke-width="1px"></path><path d="M 19.459383 184.180625 L 21.959383 184.180625 L 21.959383 190.180625 L 19.459383 190.180625 L 19.459383 184.180625" stroke="gray" fill="white" stroke-width="1px"></path><path d="M 139.459383 214.123437 L 141.959383 214.123437 L 141.959383 220.123437 L 139.459383 220.123437 L 139.459383 214.123437" stroke="gray" fill="white" stroke-width="1px"></path><path d="M 127.459383 214.123437 L 129.959383 214.123437 L 129.959383 220.123437 L 127.459383 220.123437 L 127.459383 214.123437" stroke="gray" fill="white" stroke-width="1px"></path><path d="M 115.459383 214.123437 L 117.959383 214.123437 L 117.959383 220.123437 L 115.459383 220.123437 L 115.459383 214.123437" stroke="gray" fill="white" stroke-width="1px"></path><path d="M 103.459383 214.123437 L 105.959383 214.123437 L 105.959383 220.123437 L 103.459383 220.123437 L 103.459383 214.123437" stroke="gray" fill="white" stroke-width="1px"></path><path d="M 175.459383 214.123437 L 177.959383 214.123437 L 177.959383 220.123437 L 175.459383 220.123437 L 175.459383 214.123437" stroke="gray" fill="white" stroke-width="1px"></path><path d="M 175.459383 208.123437 L 177.959383 208.123437 L 177.959383 214.123437 L 175.459383 214.123437 L 175.459383 208.123437" stroke="gray" fill="white" stroke-width="1px"></path><path d="M 175.459383 202.123437 L 177.959383 202.123437 L 177.959383 208.123437 L 175.459383 208.123437 L 175.459383 202.123437" stroke="gray" fill="white" stroke-width="1px"></path><path d="M 175.459383 196.123437 L 177.959383 196.123437 L 177.959383 202.123437 L 175.459383 202.123437 L 175.459383 196.123437" stroke="gray" fill="white" stroke-width="1px"></path><path d="M 223.459383 214.123437 L 225.959383 214.123437 L 225.959383 220.123437 L 223.459383 220.123437 L 223.459383 214.123437" stroke="gray" fill="white" stroke-width="1px"></path><path d="M 223.459383 208.123437 L 225.959383 208.123437 L 225.959383 214.123437 L 223.459383 214.123437 L 223.459383 208.123437" stroke="gray" fill="white" stroke-width="1px"></path><path d="M 223.459383 202.123437 L 225.959383 202.123437 L 225.959383 208.123437 L 223.459383 208.123437 L 223.459383 202.123437" stroke="gray" fill="white" stroke-width="1px"></path><path d="M 223.459383 196.123437 L 225.959383 196.123437 L 225.959383 202.123437 L 223.459383 202.123437 L 223.459383 196.123437" stroke="gray" fill="white" stroke-width="1px"></path><path d="M 211.459383 214.123437 L 213.959383 214.123437 L 213.959383 220.123437 L 211.459383 220.123437 L 211.459383 214.123437" stroke="gray" fill="white" stroke-width="1px"></path><path d="M 211.459383 208.123437 L 213.959383 208.123437 L 213.959383 214.123437 L 211.459383 214.123437 L 211.459383 208.123437" stroke="gray" fill="white" stroke-width="1px"></path><path d="M 211.459383 202.123437 L 213.959383 202.123437 L 213.959383 208.123437 L 211.459383 208.123437 L 211.459383 202.123437" stroke="gray" fill="white" stroke-width="1px"></path><path d="M 211.459383 196.123437 L 213.959383 196.123437 L 213.959383 202.123437 L 211.459383 202.123437 L 211.459383 196.123437" stroke="gray" fill="white" stroke-width="1px"></path><path d="M 254.310714 208.123437 L 254.310714 205.623437 L 248.310714 205.623437 L 248.310714 208.123437 L 254.310714 208.123437" stroke="gray" fill="white" stroke-width="1px"></path><path d="M 260.310714 208.123437 L 260.310714 205.623437 L 254.310714 205.623437 L 254.310714 208.123437 L 260.310714 208.123437" stroke="gray" fill="white" stroke-width="1px"></path><path d="M 266.310714 208.123437 L 266.310714 205.623437 L 260.310714 205.623437 L 260.310714 208.123437 L 266.310714 208.123437" stroke="gray" fill="white" stroke-width="1px"></path><path d="M 272.310714 208.123437 L 272.310714 205.623437 L 266.310714 205.623437 L 266.310714 208.123437 L 272.310714 208.123437" stroke="gray" fill="white" stroke-width="1px"></path><path d="M 278.310714 208.123437 L 278.310714 205.623437 L 272.310714 205.623437 L 272.310714 208.123437 L 278.310714 208.123437" stroke="gray" fill="white" stroke-width="1px"></path><path d="M 254.350137 196.123437 L 254.350137 193.623437 L 248.350137 193.623437 L 248.350137 196.123437 L 254.350137 196.123437" stroke="gray" fill="white" stroke-width="1px"></path><path d="M 260.350137 196.123437 L 260.350137 193.623437 L 254.350137 193.623437 L 254.350137 196.123437 L 260.350137 196.123437" stroke="gray" fill="white" stroke-width="1px"></path><path d="M 266.350137 196.123437 L 266.350137 193.623437 L 260.350137 193.623437 L 260.350137 196.123437 L 266.350137 196.123437" stroke="gray" fill="white" stroke-width="1px"></path><path d="M 272.350137 196.123437 L 272.350137 193.623437 L 266.350137 193.623437 L 266.350137 196.123437 L 272.350137 196.123437" stroke="gray" fill="white" stroke-width="1px"></path><path d="M 278.350137 196.123437 L 278.350137 193.623437 L 272.350137 193.623437 L 272.350137 196.123437 L 278.350137 196.123437" stroke="gray" fill="white" stroke-width="1px"></path><path d="M 251.737652 184.123437 L 251.737652 181.623437 L 245.737652 181.623437 L 245.737652 184.123437 L 251.737652 184.123437" stroke="gray" fill="white" stroke-width="1px"></path><path d="M 257.737652 184.123437 L 257.737652 181.623437 L 251.737652 181.623437 L 251.737652 184.123437 L 257.737652 184.123437" stroke="gray" fill="white" stroke-width="1px"></path><path d="M 263.737652 184.123437 L 263.737652 181.623437 L 257.737652 181.623437 L 257.737652 184.123437 L 263.737652 184.123437" stroke="gray" fill="white" stroke-width="1px"></path><path d="M 269.737652 184.123437 L 269.737652 181.623437 L 263.737652 181.623437 L 263.737652 184.123437 L 269.737652 184.123437" stroke="gray" fill="white" stroke-width="1px"></path><path d="M 275.737652 184.123437 L 275.737652 181.623437 L 269.737652 181.623437 L 269.737652 184.123437 L 275.737652 184.123437" stroke="gray" fill="white" stroke-width="1px"></path><path d="M 266.763637 160.123437 L 266.763637 157.623437 L 260.763637 157.623437 L 260.763637 160.123437 L 266.763637 160.123437" stroke="gray" fill="white" stroke-width="1px"></path><path d="M 272.763637 160.123437 L 272.763637 157.623437 L 266.763637 157.623437 L 266.763637 160.123437 L 272.763637 160.123437" stroke="gray" fill="white" stroke-width="1px"></path><path d="M 278.763637 160.123437 L 278.763637 157.623437 L 272.763637 157.623437 L 272.763637 160.123437 L 278.763637 160.123437" stroke="gray" fill="white" stroke-width="1px"></path><path d="M 266.763637 148.123437 L 266.763637 145.623437 L 260.763637 145.623437 L 260.763637 148.123437 L 266.763637 148.123437" stroke="gray" fill="white" stroke-width="1px"></path><path d="M 272.763637 148.123437 L 272.763637 145.623437 L 266.763637 145.623437 L 266.763637 148.123437 L 272.763637 148.123437" stroke="gray" fill="white" stroke-width="1px"></path><path d="M 278.763637 148.123437 L 278.763637 145.623437 L 272.763637 145.623437 L 272.763637 148.123437 L 278.763637 148.123437" stroke="gray" fill="white" stroke-width="1px"></path><path d="M 266.763637 136.123437 L 266.763637 133.623437 L 260.763637 133.623437 L 260.763637 136.123437 L 266.763637 136.123437" stroke="gray" fill="white" stroke-width="1px"></path><path d="M 272.763637 136.123437 L 272.763637 133.623437 L 266.763637 133.623437 L 266.763637 136.123437 L 272.763637 136.123437" stroke="gray" fill="white" stroke-width="1px"></path><path d="M 278.763637 136.123437 L 278.763637 133.623437 L 272.763637 133.623437 L 272.763637 136.123437 L 278.763637 136.123437" stroke="gray" fill="white" stroke-width="1px"></path><path d="M 254.310714 208.123437 L 254.310714 210.623437 L 248.310714 210.623437 L 248.310714 208.123437 L 254.310714 208.123437" stroke="gray" fill="white" stroke-width="1px"></path><path d="M 260.310714 208.123437 L 260.310714 210.623437 L 254.310714 210.623437 L 254.310714 208.123437 L 260.310714 208.123437" stroke="gray" fill="white" stroke-width="1px"></path><path d="M 266.310714 208.123437 L 266.310714 210.623437 L 260.310714 210.623437 L 260.310714 208.123437 L 266.310714 208.123437" stroke="gray" fill="white" stroke-width="1px"></path><path d="M 272.310714 208.123437 L 272.310714 210.623437 L 266.310714 210.623437 L 266.310714 208.123437 L 272.310714 208.123437" stroke="gray" fill="white" stroke-width="1px"></path><path d="M 278.310714 208.123437 L 278.310714 210.623437 L 272.310714 210.623437 L 272.310714 208.123437 L 278.310714 208.123437" stroke="gray" fill="white" stroke-width="1px"></path><path d="M 254.350137 196.123437 L 254.350137 198.623437 L 248.350137 198.623437 L 248.350137 196.123437 L 254.350137 196.123437" stroke="gray" fill="white" stroke-width="1px"></path><path d="M 260.350137 196.123437 L 260.350137 198.623437 L 254.350137 198.623437 L 254.350137 196.123437 L 260.350137 196.123437" stroke="gray" fill="white" stroke-width="1px"></path><path d="M 266.350137 196.123437 L 266.350137 198.623437 L 260.350137 198.623437 L 260.350137 196.123437 L 266.350137 196.123437" stroke="gray" fill="white" stroke-width="1px"></path><path d="M 272.350137 196.123437 L 272.350137 198.623437 L 266.350137 198.623437 L 266.350137 196.123437 L 272.350137 196.123437" stroke="gray" fill="white" stroke-width="1px"></path><path d="M 278.350137 196.123437 L 278.350137 198.623437 L 272.350137 198.623437 L 272.350137 196.123437 L 278.350137 196.123437" stroke="gray" fill="white" stroke-width="1px"></path><path d="M 251.737652 184.123437 L 251.737652 186.623437 L 245.737652 186.623437 L 245.737652 184.123437 L 251.737652 184.123437" stroke="gray" fill="white" stroke-width="1px"></path><path d="M 257.737652 184.123437 L 257.737652 186.623437 L 251.737652 186.623437 L 251.737652 184.123437 L 257.737652 184.123437" stroke="gray" fill="white" stroke-width="1px"></path><path d="M 263.737652 184.123437 L 263.737652 186.623437 L 257.737652 186.623437 L 257.737652 184.123437 L 263.737652 184.123437" stroke="gray" fill="white" stroke-width="1px"></path><path d="M 269.737652 184.123437 L 269.737652 186.623437 L 263.737652 186.623437 L 263.737652 184.123437 L 269.737652 184.123437" stroke="gray" fill="white" stroke-width="1px"></path><path d="M 275.737652 184.123437 L 275.737652 186.623437 L 269.737652 186.623437 L 269.737652 184.123437 L 275.737652 184.123437" stroke="gray" fill="white" stroke-width="1px"></path><path d="M 266.763637 160.123437 L 266.763637 162.623437 L 260.763637 162.623437 L 260.763637 160.123437 L 266.763637 160.123437" stroke="gray" fill="white" stroke-width="1px"></path><path d="M 272.763637 160.123437 L 272.763637 162.623437 L 266.763637 162.623437 L 266.763637 160.123437 L 272.763637 160.123437" stroke="gray" fill="white" stroke-width="1px"></path><path d="M 278.763637 160.123437 L 278.763637 162.623437 L 272.763637 162.623437 L 272.763637 160.123437 L 278.763637 160.123437" stroke="gray" fill="white" stroke-width="1px"></path><path d="M 266.763637 148.123437 L 266.763637 150.623437 L 260.763637 150.623437 L 260.763637 148.123437 L 266.763637 148.123437" stroke="gray" fill="white" stroke-width="1px"></path><path d="M 272.763637 148.123437 L 272.763637 150.623437 L 266.763637 150.623437 L 266.763637 148.123437 L 272.763637 148.123437" stroke="gray" fill="white" stroke-width="1px"></path><path d="M 278.763637 148.123437 L 278.763637 150.623437 L 272.763637 150.623437 L 272.763637 148.123437 L 278.763637 148.123437" stroke="gray" fill="white" stroke-width="1px"></path><path d="M 266.763637 136.123437 L 266.763637 138.623437 L 260.763637 138.623437 L 260.763637 136.123437 L 266.763637 136.123437" stroke="gray" fill="white" stroke-width="1px"></path><path d="M 272.763637 136.123437 L 272.763637 138.623437 L 266.763637 138.623437 L 266.763637 136.123437 L 272.763637 136.123437" stroke="gray" fill="white" stroke-width="1px"></path><path d="M 278.763637 136.123437 L 278.763637 138.623437 L 272.763637 138.623437 L 272.763637 136.123437 L 278.763637 136.123437" stroke="gray" fill="white" stroke-width="1px"></path><path d="M 271.459383 43.262011 L 268.959383 43.262011 L 268.959383 49.262011 L 271.459383 49.262011 L 271.459383 43.262011" stroke="gray" fill="white" stroke-width="1px"></path><path d="M 271.459383 37.262011 L 268.959383 37.262011 L 268.959383 43.262011 L 271.459383 43.262011 L 271.459383 37.262011" stroke="gray" fill="white" stroke-width="1px"></path><path d="M 271.459383 31.262011 L 268.959383 31.262011 L 268.959383 37.262011 L 271.459383 37.262011 L 271.459383 31.262011" stroke="gray" fill="white" stroke-width="1px"></path><path d="M 271.459383 25.262011 L 268.959383 25.262011 L 268.959383 31.262011 L 271.459383 31.262011 L 271.459383 25.262011" stroke="gray" fill="white" stroke-width="1px"></path><path d="M 271.459383 19.262011 L 268.959383 19.262011 L 268.959383 25.262011 L 271.459383 25.262011 L 271.459383 19.262011" stroke="gray" fill="white" stroke-width="1px"></path><path d="M 271.459383 13.262011 L 268.959383 13.262011 L 268.959383 19.262011 L 271.459383 19.262011 L 271.459383 13.262011" stroke="gray" fill="white" stroke-width="1px"></path><path d="M 259.459383 44.687093 L 256.959383 44.687093 L 256.959383 50.687093 L 259.459383 50.687093 L 259.459383 44.687093" stroke="gray" fill="white" stroke-width="1px"></path><path d="M 259.459383 38.687093 L 256.959383 38.687093 L 256.959383 44.687093 L 259.459383 44.687093 L 259.459383 38.687093" stroke="gray" fill="white" stroke-width="1px"></path><path d="M 259.459383 32.687093 L 256.959383 32.687093 L 256.959383 38.687093 L 259.459383 38.687093 L 259.459383 32.687093" stroke="gray" fill="white" stroke-width="1px"></path><path d="M 259.459383 26.687093 L 256.959383 26.687093 L 256.959383 32.687093 L 259.459383 32.687093 L 259.459383 26.687093" stroke="gray" fill="white" stroke-width="1px"></path><path d="M 259.459383 20.687093 L 256.959383 20.687093 L 256.959383 26.687093 L 259.459383 26.687093 L 259.459383 20.687093" stroke="gray" fill="white" stroke-width="1px"></path><path d="M 259.459383 14.687093 L 256.959383 14.687093 L 256.959383 20.687093 L 259.459383 20.687093 L 259.459383 14.687093" stroke="gray" fill="white" stroke-width="1px"></path><path d="M 247.459383 24.966530 L 244.959383 24.966530 L 244.959383 30.966530 L 247.459383 30.966530 L 247.459383 24.966530" stroke="gray" fill="white" stroke-width="1px"></path><path d="M 247.459383 18.966530 L 244.959383 18.966530 L 244.959383 24.966530 L 247.459383 24.966530 L 247.459383 18.966530" stroke="gray" fill="white" stroke-width="1px"></path><path d="M 247.459383 12.966530 L 244.959383 12.966530 L 244.959383 18.966530 L 247.459383 18.966530 L 247.459383 12.966530" stroke="gray" fill="white" stroke-width="1px"></path><path d="M 235.459383 18.573554 L 232.959383 18.573554 L 232.959383 24.573554 L 235.459383 24.573554 L 235.459383 18.573554" stroke="gray" fill="white" stroke-width="1px"></path><path d="M 235.459383 12.573554 L 232.959383 12.573554 L 232.959383 18.573554 L 235.459383 18.573554 L 235.459383 12.573554" stroke="gray" fill="white" stroke-width="1px"></path><path d="M 199.459383 101.033125 L 196.959383 101.033125 L 196.959383 107.033125 L 199.459383 107.033125 L 199.459383 101.033125" stroke="gray" fill="white" stroke-width="1px"></path><path d="M 199.459383 95.033125 L 196.959383 95.033125 L 196.959383 101.033125 L 199.459383 101.033125 L 199.459383 95.033125" stroke="gray" fill="white" stroke-width="1px"></path><path d="M 199.459383 89.033125 L 196.959383 89.033125 L 196.959383 95.033125 L 199.459383 95.033125 L 199.459383 89.033125" stroke="gray" fill="white" stroke-width="1px"></path><path d="M 199.459383 83.033125 L 196.959383 83.033125 L 196.959383 89.033125 L 199.459383 89.033125 L 199.459383 83.033125" stroke="gray" fill="white" stroke-width="1px"></path><path d="M 151.459383 101.033125 L 148.959383 101.033125 L 148.959383 107.033125 L 151.459383 107.033125 L 151.459383 101.033125" stroke="gray" fill="white" stroke-width="1px"></path><path d="M 139.459383 101.033125 L 136.959383 101.033125 L 136.959383 107.033125 L 139.459383 107.033125 L 139.459383 101.033125" stroke="gray" fill="white" stroke-width="1px"></path><path d="M 139.459383 95.033125 L 136.959383 95.033125 L 136.959383 101.033125 L 139.459383 101.033125 L 139.459383 95.033125" stroke="gray" fill="white" stroke-width="1px"></path><path d="M 139.459383 89.033125 L 136.959383 89.033125 L 136.959383 95.033125 L 139.459383 95.033125 L 139.459383 89.033125" stroke="gray" fill="white" stroke-width="1px"></path><path d="M 127.459383 101.033125 L 124.959383 101.033125 L 124.959383 107.033125 L 127.459383 107.033125 L 127.459383 101.033125" stroke="gray" fill="white" stroke-width="1px"></path><path d="M 115.459383 101.033125 L 112.959383 101.033125 L 112.959383 107.033125 L 115.459383 107.033125 L 115.459383 101.033125" stroke="gray" fill="white" stroke-width="1px"></path><path d="M 103.459383 101.033125 L 100.959383 101.033125 L 100.959383 107.033125 L 103.459383 107.033125 L 103.459383 101.033125" stroke="gray" fill="white" stroke-width="1px"></path><path d="M 31.459383 51.106423 L 28.959383 51.106423 L 28.959383 57.106423 L 31.459383 57.106423 L 31.459383 51.106423" stroke="gray" fill="white" stroke-width="1px"></path><path d="M 31.459383 45.106423 L 28.959383 45.106423 L 28.959383 51.106423 L 31.459383 51.106423 L 31.459383 45.106423" stroke="gray" fill="white" stroke-width="1px"></path><path d="M 31.459383 39.106423 L 28.959383 39.106423 L 28.959383 45.106423 L 31.459383 45.106423 L 31.459383 39.106423" stroke="gray" fill="white" stroke-width="1px"></path><path d="M 31.459383 33.106423 L 28.959383 33.106423 L 28.959383 39.106423 L 31.459383 39.106423 L 31.459383 33.106423" stroke="gray" fill="white" stroke-width="1px"></path><path d="M 31.459383 27.106423 L 28.959383 27.106423 L 28.959383 33.106423 L 31.459383 33.106423 L 31.459383 27.106423" stroke="gray" fill="white" stroke-width="1px"></path><path d="M 31.459383 21.106423 L 28.959383 21.106423 L 28.959383 27.106423 L 31.459383 27.106423 L 31.459383 21.106423" stroke="gray" fill="white" stroke-width="1px"></path><path d="M 31.459383 15.106423 L 28.959383 15.106423 L 28.959383 21.106423 L 31.459383 21.106423 L 31.459383 15.106423" stroke="gray" fill="white" stroke-width="1px"></path><path d="M 19.459383 52.761982 L 16.959383 52.761982 L 16.959383 58.761982 L 19.459383 58.761982 L 19.459383 52.761982" stroke="gray" fill="white" stroke-width="1px"></path><path d="M 19.459383 46.761982 L 16.959383 46.761982 L 16.959383 52.761982 L 19.459383 52.761982 L 19.459383 46.761982" stroke="gray" fill="white" stroke-width="1px"></path><path d="M 19.459383 40.761982 L 16.959383 40.761982 L 16.959383 46.761982 L 19.459383 46.761982 L 19.459383 40.761982" stroke="gray" fill="white" stroke-width="1px"></path><path d="M 19.459383 34.761982 L 16.959383 34.761982 L 16.959383 40.761982 L 19.459383 40.761982 L 19.459383 34.761982" stroke="gray" fill="white" stroke-width="1px"></path><path d="M 19.459383 28.761982 L 16.959383 28.761982 L 16.959383 34.761982 L 19.459383 34.761982 L 19.459383 28.761982" stroke="gray" fill="white" stroke-width="1px"></path><path d="M 19.459383 22.761982 L 16.959383 22.761982 L 16.959383 28.761982 L 19.459383 28.761982 L 19.459383 22.761982" stroke="gray" fill="white" stroke-width="1px"></path><path d="M 19.459383 16.761982 L 16.959383 16.761982 L 16.959383 22.761982 L 19.459383 22.761982 L 19.459383 16.761982" stroke="gray" fill="white" stroke-width="1px"></path><path d="M 271.459383 43.262011 L 273.959383 43.262011 L 273.959383 49.262011 L 271.459383 49.262011 L 271.459383 43.262011" stroke="gray" fill="white" stroke-width="1px"></path><path d="M 271.459383 37.262011 L 273.959383 37.262011 L 273.959383 43.262011 L 271.459383 43.262011 L 271.459383 37.262011" stroke="gray" fill="white" stroke-width="1px"></path><path d="M 271.459383 31.262011 L 273.959383 31.262011 L 273.959383 37.262011 L 271.459383 37.262011 L 271.459383 31.262011" stroke="gray" fill="white" stroke-width="1px"></path><path d="M 271.459383 25.262011 L 273.959383 25.262011 L 273.959383 31.262011 L 271.459383 31.262011 L 271.459383 25.262011" stroke="gray" fill="white" stroke-width="1px"></path><path d="M 271.459383 19.262011 L 273.959383 19.262011 L 273.959383 25.262011 L 271.459383 25.262011 L 271.459383 19.262011" stroke="gray" fill="white" stroke-width="1px"></path><path d="M 271.459383 13.262011 L 273.959383 13.262011 L 273.959383 19.262011 L 271.459383 19.262011 L 271.459383 13.262011" stroke="gray" fill="white" stroke-width="1px"></path><path d="M 259.459383 44.687093 L 261.959383 44.687093 L 261.959383 50.687093 L 259.459383 50.687093 L 259.459383 44.687093" stroke="gray" fill="white" stroke-width="1px"></path><path d="M 259.459383 38.687093 L 261.959383 38.687093 L 261.959383 44.687093 L 259.459383 44.687093 L 259.459383 38.687093" stroke="gray" fill="white" stroke-width="1px"></path><path d="M 259.459383 32.687093 L 261.959383 32.687093 L 261.959383 38.687093 L 259.459383 38.687093 L 259.459383 32.687093" stroke="gray" fill="white" stroke-width="1px"></path><path d="M 259.459383 26.687093 L 261.959383 26.687093 L 261.959383 32.687093 L 259.459383 32.687093 L 259.459383 26.687093" stroke="gray" fill="white" stroke-width="1px"></path><path d="M 259.459383 20.687093 L 261.959383 20.687093 L 261.959383 26.687093 L 259.459383 26.687093 L 259.459383 20.687093" stroke="gray" fill="white" stroke-width="1px"></path><path d="M 259.459383 14.687093 L 261.959383 14.687093 L 261.959383 20.687093 L 259.459383 20.687093 L 259.459383 14.687093" stroke="gray" fill="white" stroke-width="1px"></path><path d="M 247.459383 24.966530 L 249.959383 24.966530 L 249.959383 30.966530 L 247.459383 30.966530 L 247.459383 24.966530" stroke="gray" fill="white" stroke-width="1px"></path><path d="M 247.459383 18.966530 L 249.959383 18.966530 L 249.959383 24.966530 L 247.459383 24.966530 L 247.459383 18.966530" stroke="gray" fill="white" stroke-width="1px"></path><path d="M 247.459383 12.966530 L 249.959383 12.966530 L 249.959383 18.966530 L 247.459383 18.966530 L 247.459383 12.966530" stroke="gray" fill="white" stroke-width="1px"></path><path d="M 235.459383 18.573554 L 237.959383 18.573554 L 237.959383 24.573554 L 235.459383 24.573554 L 235.459383 18.573554" stroke="gray" fill="white" stroke-width="1px"></path><path d="M 235.459383 12.573554 L 237.959383 12.573554 L 237.959383 18.573554 L 235.459383 18.573554 L 235.459383 12.573554" stroke="gray" fill="white" stroke-width="1px"></path><path d="M 199.459383 101.033125 L 201.959383 101.033125 L 201.959383 107.033125 L 199.459383 107.033125 L 199.459383 101.033125" stroke="gray" fill="white" stroke-width="1px"></path><path d="M 199.459383 95.033125 L 201.959383 95.033125 L 201.959383 101.033125 L 199.459383 101.033125 L 199.459383 95.033125" stroke="gray" fill="white" stroke-width="1px"></path><path d="M 199.459383 89.033125 L 201.959383 89.033125 L 201.959383 95.033125 L 199.459383 95.033125 L 199.459383 89.033125" stroke="gray" fill="white" stroke-width="1px"></path><path d="M 199.459383 83.033125 L 201.959383 83.033125 L 201.959383 89.033125 L 199.459383 89.033125 L 199.459383 83.033125" stroke="gray" fill="white" stroke-width="1px"></path><path d="M 151.459383 101.033125 L 153.959383 101.033125 L 153.959383 107.033125 L 151.459383 107.033125 L 151.459383 101.033125" stroke="gray" fill="white" stroke-width="1px"></path><path d="M 139.459383 101.033125 L 141.959383 101.033125 L 141.959383 107.033125 L 139.459383 107.033125 L 139.459383 101.033125" stroke="gray" fill="white" stroke-width="1px"></path><path d="M 139.459383 95.033125 L 141.959383 95.033125 L 141.959383 101.033125 L 139.459383 101.033125 L 139.459383 95.033125" stroke="gray" fill="white" stroke-width="1px"></path><path d="M 139.459383 89.033125 L 141.959383 89.033125 L 141.959383 95.033125 L 139.459383 95.033125 L 139.459383 89.033125" stroke="gray" fill="white" stroke-width="1px"></path><path d="M 139.459383 83.033125 L 141.959383 83.033125 L 141.959383 89.033125 L 139.459383 89.033125 L 139.459383 83.033125" stroke="gray" fill="white" stroke-width="1px"></path><path d="M 127.459383 101.033125 L 129.959383 101.033125 L 129.959383 107.033125 L 127.459383 107.033125 L 127.459383 101.033125" stroke="gray" fill="white" stroke-width="1px"></path><path d="M 115.459383 101.033125 L 117.959383 101.033125 L 117.959383 107.033125 L 115.459383 107.033125 L 115.459383 101.033125" stroke="gray" fill="white" stroke-width="1px"></path><path d="M 103.459383 101.033125 L 105.959383 101.033125 L 105.959383 107.033125 L 103.459383 107.033125 L 103.459383 101.033125" stroke="gray" fill="white" stroke-width="1px"></path><path d="M 31.459383 51.106423 L 33.959383 51.106423 L 33.959383 57.106423 L 31.459383 57.106423 L 31.459383 51.106423" stroke="gray" fill="white" stroke-width="1px"></path><path d="M 31.459383 45.106423 L 33.959383 45.106423 L 33.959383 51.106423 L 31.459383 51.106423 L 31.459383 45.106423" stroke="gray" fill="white" stroke-width="1px"></path><path d="M 31.459383 39.106423 L 33.959383 39.106423 L 33.959383 45.106423 L 31.459383 45.106423 L 31.459383 39.106423" stroke="gray" fill="white" stroke-width="1px"></path><path d="M 31.459383 33.106423 L 33.959383 33.106423 L 33.959383 39.106423 L 31.459383 39.106423 L 31.459383 33.106423" stroke="gray" fill="white" stroke-width="1px"></path><path d="M 31.459383 27.106423 L 33.959383 27.106423 L 33.959383 33.106423 L 31.459383 33.106423 L 31.459383 27.106423" stroke="gray" fill="white" stroke-width="1px"></path><path d="M 31.459383 21.106423 L 33.959383 21.106423 L 33.959383 27.106423 L 31.459383 27.106423 L 31.459383 21.106423" stroke="gray" fill="white" stroke-width="1px"></path><path d="M 31.459383 15.106423 L 33.959383 15.106423 L 33.959383 21.106423 L 31.459383 21.106423 L 31.459383 15.106423" stroke="gray" fill="white" stroke-width="1px"></path><path d="M 19.459383 52.761982 L 21.959383 52.761982 L 21.959383 58.761982 L 19.459383 58.761982 L 19.459383 52.761982" stroke="gray" fill="white" stroke-width="1px"></path><path d="M 19.459383 46.761982 L 21.959383 46.761982 L 21.959383 52.761982 L 19.459383 52.761982 L 19.459383 46.761982" stroke="gray" fill="white" stroke-width="1px"></path><path d="M 19.459383 40.761982 L 21.959383 40.761982 L 21.959383 46.761982 L 19.459383 46.761982 L 19.459383 40.761982" stroke="gray" fill="white" stroke-width="1px"></path><path d="M 19.459383 34.761982 L 21.959383 34.761982 L 21.959383 40.761982 L 19.459383 40.761982 L 19.459383 34.761982" stroke="gray" fill="white" stroke-width="1px"></path><path d="M 19.459383 28.761982 L 21.959383 28.761982 L 21.959383 34.761982 L 19.459383 34.761982 L 19.459383 28.761982" stroke="gray" fill="white" stroke-width="1px"></path><path d="M 19.459383 22.761982 L 21.959383 22.761982 L 21.959383 28.761982 L 19.459383 28.761982 L 19.459383 22.761982" stroke="gray" fill="white" stroke-width="1px"></path><path d="M 19.459383 16.761982 L 21.959383 16.761982 L 21.959383 22.761982 L 19.459383 22.761982 L 19.459383 16.761982" stroke="gray" fill="white" stroke-width="1px"></path><path d="M 277.582511 89.263579 L 277.582511 86.763579 L 271.582511 86.763579 L 271.582511 89.263579 L 277.582511 89.263579" stroke="gray" fill="white" stroke-width="1px"></path><path d="M 275.677218 77.263579 L 275.677218 74.763579 L 269.677218 74.763579 L 269.677218 77.263579 L 275.677218 77.263579" stroke="gray" fill="white" stroke-width="1px"></path><path d="M 273.771926 65.263579 L 273.771926 62.763579 L 267.771926 62.763579 L 267.771926 65.263579 L 273.771926 65.263579" stroke="gray" fill="white" stroke-width="1px"></path><path d="M 222.146641 101.263579 L 222.146641 98.763579 L 216.146641 98.763579 L 216.146641 101.263579 L 222.146641 101.263579" stroke="gray" fill="white" stroke-width="1px"></path><path d="M 228.146641 101.263579 L 228.146641 98.763579 L 222.146641 98.763579 L 222.146641 101.263579 L 228.146641 101.263579" stroke="gray" fill="white" stroke-width="1px"></path><path d="M 234.146641 101.263579 L 234.146641 98.763579 L 228.146641 98.763579 L 228.146641 101.263579 L 234.146641 101.263579" stroke="gray" fill="white" stroke-width="1px"></path><path d="M 240.146641 101.263579 L 240.146641 98.763579 L 234.146641 98.763579 L 234.146641 101.263579 L 240.146641 101.263579" stroke="gray" fill="white" stroke-width="1px"></path><path d="M 246.146641 101.263579 L 246.146641 98.763579 L 240.146641 98.763579 L 240.146641 101.263579 L 246.146641 101.263579" stroke="gray" fill="white" stroke-width="1px"></path><path d="M 221.642660 89.263579 L 221.642660 86.763579 L 215.642660 86.763579 L 215.642660 89.263579 L 221.642660 89.263579" stroke="gray" fill="white" stroke-width="1px"></path><path d="M 227.642660 89.263579 L 227.642660 86.763579 L 221.642660 86.763579 L 221.642660 89.263579 L 227.642660 89.263579" stroke="gray" fill="white" stroke-width="1px"></path><path d="M 233.642660 89.263579 L 233.642660 86.763579 L 227.642660 86.763579 L 227.642660 89.263579 L 233.642660 89.263579" stroke="gray" fill="white" stroke-width="1px"></path><path d="M 239.642660 89.263579 L 239.642660 86.763579 L 233.642660 86.763579 L 233.642660 89.263579 L 239.642660 89.263579" stroke="gray" fill="white" stroke-width="1px"></path><path d="M 245.642660 89.263579 L 245.642660 86.763579 L 239.642660 86.763579 L 239.642660 89.263579 L 245.642660 89.263579" stroke="gray" fill="white" stroke-width="1px"></path><path d="M 233.737654 77.263579 L 233.737654 74.763579 L 227.737654 74.763579 L 227.737654 77.263579 L 233.737654 77.263579" stroke="gray" fill="white" stroke-width="1px"></path><path d="M 239.737654 77.263579 L 239.737654 74.763579 L 233.737654 74.763579 L 233.737654 77.263579 L 239.737654 77.263579" stroke="gray" fill="white" stroke-width="1px"></path><path d="M 22.000000 101.263579 L 22.000000 98.763579 L 16.000000 98.763579 L 16.000000 101.263579 L 22.000000 101.263579" stroke="gray" fill="white" stroke-width="1px"></path><path d="M 28.000000 101.263579 L 28.000000 98.763579 L 22.000000 98.763579 L 22.000000 101.263579 L 28.000000 101.263579" stroke="gray" fill="white" stroke-width="1px"></path><path d="M 34.000000 101.263579 L 34.000000 98.763579 L 28.000000 98.763579 L 28.000000 101.263579 L 34.000000 101.263579" stroke="gray" fill="white" stroke-width="1px"></path><path d="M 40.000000 101.263579 L 40.000000 98.763579 L 34.000000 98.763579 L 34.000000 101.263579 L 40.000000 101.263579" stroke="gray" fill="white" stroke-width="1px"></path><path d="M 46.000000 101.263579 L 46.000000 98.763579 L 40.000000 98.763579 L 40.000000 101.263579 L 46.000000 101.263579" stroke="gray" fill="white" stroke-width="1px"></path><path d="M 52.000000 101.263579 L 52.000000 98.763579 L 46.000000 98.763579 L 46.000000 101.263579 L 52.000000 101.263579" stroke="gray" fill="white" stroke-width="1px"></path><path d="M 58.000000 101.263579 L 58.000000 98.763579 L 52.000000 98.763579 L 52.000000 101.263579 L 58.000000 101.263579" stroke="gray" fill="white" stroke-width="1px"></path><path d="M 22.000000 89.263579 L 22.000000 86.763579 L 16.000000 86.763579 L 16.000000 89.263579 L 22.000000 89.263579" stroke="gray" fill="white" stroke-width="1px"></path><path d="M 28.000000 89.263579 L 28.000000 86.763579 L 22.000000 86.763579 L 22.000000 89.263579 L 28.000000 89.263579" stroke="gray" fill="white" stroke-width="1px"></path><path d="M 34.000000 89.263579 L 34.000000 86.763579 L 28.000000 86.763579 L 28.000000 89.263579 L 34.000000 89.263579" stroke="gray" fill="white" stroke-width="1px"></path><path d="M 40.000000 89.263579 L 40.000000 86.763579 L 34.000000 86.763579 L 34.000000 89.263579 L 40.000000 89.263579" stroke="gray" fill="white" stroke-width="1px"></path><path d="M 46.000000 89.263579 L 46.000000 86.763579 L 40.000000 86.763579 L 40.000000 89.263579 L 46.000000 89.263579" stroke="gray" fill="white" stroke-width="1px"></path><path d="M 52.000000 89.263579 L 52.000000 86.763579 L 46.000000 86.763579 L 46.000000 89.263579 L 52.000000 89.263579" stroke="gray" fill="white" stroke-width="1px"></path><path d="M 58.000000 89.263579 L 58.000000 86.763579 L 52.000000 86.763579 L 52.000000 89.263579 L 58.000000 89.263579" stroke="gray" fill="white" stroke-width="1px"></path><path d="M 40.000000 77.263579 L 40.000000 74.763579 L 34.000000 74.763579 L 34.000000 77.263579 L 40.000000 77.263579" stroke="gray" fill="white" stroke-width="1px"></path><path d="M 46.000000 77.263579 L 46.000000 74.763579 L 40.000000 74.763579 L 40.000000 77.263579 L 46.000000 77.263579" stroke="gray" fill="white" stroke-width="1px"></path><path d="M 52.000000 77.263579 L 52.000000 74.763579 L 46.000000 74.763579 L 46.000000 77.263579 L 52.000000 77.263579" stroke="gray" fill="white" stroke-width="1px"></path><path d="M 58.000000 77.263579 L 58.000000 74.763579 L 52.000000 74.763579 L 52.000000 77.263579 L 58.000000 77.263579" stroke="gray" fill="white" stroke-width="1px"></path><path d="M 277.582511 89.263579 L 277.582511 91.763579 L 271.582511 91.763579 L 271.582511 89.263579 L 277.582511 89.263579" stroke="gray" fill="white" stroke-width="1px"></path><path d="M 275.677218 77.263579 L 275.677218 79.763579 L 269.677218 79.763579 L 269.677218 77.263579 L 275.677218 77.263579" stroke="gray" fill="white" stroke-width="1px"></path><path d="M 273.771926 65.263579 L 273.771926 67.763579 L 267.771926 67.763579 L 267.771926 65.263579 L 273.771926 65.263579" stroke="gray" fill="white" stroke-width="1px"></path><path d="M 274.647662 53.263579 L 274.647662 55.763579 L 268.647662 55.763579 L 268.647662 53.263579 L 274.647662 53.263579" stroke="gray" fill="white" stroke-width="1px"></path><path d="M 222.146641 101.263579 L 222.146641 103.763579 L 216.146641 103.763579 L 216.146641 101.263579 L 222.146641 101.263579" stroke="gray" fill="white" stroke-width="1px"></path><path d="M 228.146641 101.263579 L 228.146641 103.763579 L 222.146641 103.763579 L 222.146641 101.263579 L 228.146641 101.263579" stroke="gray" fill="white" stroke-width="1px"></path><path d="M 234.146641 101.263579 L 234.146641 103.763579 L 228.146641 103.763579 L 228.146641 101.263579 L 234.146641 101.263579" stroke="gray" fill="white" stroke-width="1px"></path><path d="M 240.146641 101.263579 L 240.146641 103.763579 L 234.146641 103.763579 L 234.146641 101.263579 L 240.146641 101.263579" stroke="gray" fill="white" stroke-width="1px"></path><path d="M 246.146641 101.263579 L 246.146641 103.763579 L 240.146641 103.763579 L 240.146641 101.263579 L 246.146641 101.263579" stroke="gray" fill="white" stroke-width="1px"></path><path d="M 221.642660 89.263579 L 221.642660 91.763579 L 215.642660 91.763579 L 215.642660 89.263579 L 221.642660 89.263579" stroke="gray" fill="white" stroke-width="1px"></path><path d="M 227.642660 89.263579 L 227.642660 91.763579 L 221.642660 91.763579 L 221.642660 89.263579 L 227.642660 89.263579" stroke="gray" fill="white" stroke-width="1px"></path><path d="M 233.642660 89.263579 L 233.642660 91.763579 L 227.642660 91.763579 L 227.642660 89.263579 L 233.642660 89.263579" stroke="gray" fill="white" stroke-width="1px"></path><path d="M 239.642660 89.263579 L 239.642660 91.763579 L 233.642660 91.763579 L 233.642660 89.263579 L 239.642660 89.263579" stroke="gray" fill="white" stroke-width="1px"></path><path d="M 245.642660 89.263579 L 245.642660 91.763579 L 239.642660 91.763579 L 239.642660 89.263579 L 245.642660 89.263579" stroke="gray" fill="white" stroke-width="1px"></path><path d="M 233.737654 77.263579 L 233.737654 79.763579 L 227.737654 79.763579 L 227.737654 77.263579 L 233.737654 77.263579" stroke="gray" fill="white" stroke-width="1px"></path><path d="M 239.737654 77.263579 L 239.737654 79.763579 L 233.737654 79.763579 L 233.737654 77.263579 L 239.737654 77.263579" stroke="gray" fill="white" stroke-width="1px"></path><path d="M 22.000000 101.263579 L 22.000000 103.763579 L 16.000000 103.763579 L 16.000000 101.263579 L 22.000000 101.263579" stroke="gray" fill="white" stroke-width="1px"></path><path d="M 28.000000 101.263579 L 28.000000 103.763579 L 22.000000 103.763579 L 22.000000 101.263579 L 28.000000 101.263579" stroke="gray" fill="white" stroke-width="1px"></path><path d="M 34.000000 101.263579 L 34.000000 103.763579 L 28.000000 103.763579 L 28.000000 101.263579 L 34.000000 101.263579" stroke="gray" fill="white" stroke-width="1px"></path><path d="M 40.000000 101.263579 L 40.000000 103.763579 L 34.000000 103.763579 L 34.000000 101.263579 L 40.000000 101.263579" stroke="gray" fill="white" stroke-width="1px"></path><path d="M 46.000000 101.263579 L 46.000000 103.763579 L 40.000000 103.763579 L 40.000000 101.263579 L 46.000000 101.263579" stroke="gray" fill="white" stroke-width="1px"></path><path d="M 52.000000 101.263579 L 52.000000 103.763579 L 46.000000 103.763579 L 46.000000 101.263579 L 52.000000 101.263579" stroke="gray" fill="white" stroke-width="1px"></path><path d="M 58.000000 101.263579 L 58.000000 103.763579 L 52.000000 103.763579 L 52.000000 101.263579 L 58.000000 101.263579" stroke="gray" fill="white" stroke-width="1px"></path><path d="M 22.000000 89.263579 L 22.000000 91.763579 L 16.000000 91.763579 L 16.000000 89.263579 L 22.000000 89.263579" stroke="gray" fill="white" stroke-width="1px"></path><path d="M 28.000000 89.263579 L 28.000000 91.763579 L 22.000000 91.763579 L 22.000000 89.263579 L 28.000000 89.263579" stroke="gray" fill="white" stroke-width="1px"></path><path d="M 34.000000 89.263579 L 34.000000 91.763579 L 28.000000 91.763579 L 28.000000 89.263579 L 34.000000 89.263579" stroke="gray" fill="white" stroke-width="1px"></path><path d="M 40.000000 89.263579 L 40.000000 91.763579 L 34.000000 91.763579 L 34.000000 89.263579 L 40.000000 89.263579" stroke="gray" fill="white" stroke-width="1px"></path><path d="M 46.000000 89.263579 L 46.000000 91.763579 L 40.000000 91.763579 L 40.000000 89.263579 L 46.000000 89.263579" stroke="gray" fill="white" stroke-width="1px"></path><path d="M 52.000000 89.263579 L 52.000000 91.763579 L 46.000000 91.763579 L 46.000000 89.263579 L 52.000000 89.263579" stroke="gray" fill="white" stroke-width="1px"></path><path d="M 58.000000 89.263579 L 58.000000 91.763579 L 52.000000 91.763579 L 52.000000 89.263579 L 58.000000 89.263579" stroke="gray" fill="white" stroke-width="1px"></path><path d="M 40.000000 77.263579 L 40.000000 79.763579 L 34.000000 79.763579 L 34.000000 77.263579 L 40.000000 77.263579" stroke="gray" fill="white" stroke-width="1px"></path><path d="M 46.000000 77.263579 L 46.000000 79.763579 L 40.000000 79.763579 L 40.000000 77.263579 L 46.000000 77.263579" stroke="gray" fill="white" stroke-width="1px"></path><path d="M 52.000000 77.263579 L 52.000000 79.763579 L 46.000000 79.763579 L 46.000000 77.263579 L 52.000000 77.263579" stroke="gray" fill="white" stroke-width="1px"></path><path d="M 58.000000 77.263579 L 58.000000 79.763579 L 52.000000 79.763579 L 52.000000 77.263579 L 58.000000 77.263579" stroke="gray" fill="white" stroke-width="1px"></path></g><g id="crv-base"><path d="M 221.371570 123.090312 L 221.371570 169.241094 L 120.000633 169.241094 L 120.000633 156.444206 L 126.051258 156.444206 L 126.051258 128.832500 L 123.590320 128.832500 L 123.590320 125.551250 L 126.051258 125.551250 L 126.051258 123.858132 L 91.315945 123.858125 L 91.315945 134.738750 L 64.258762 134.738750 L 64.258762 123.687497 L 10.000000 123.687497 L 10.000000 226.180625 L 64.258758 226.180625 L 64.258758 192.357500 L 91.315945 192.357500 L 91.315945 220.123437 L 283.459383 220.123437 L 283.459383 123.090312 L 221.371570 123.090312" stroke="black" fill="none" stroke-width="1px"></path><path d="M 221.371570 10.000000 L 221.371570 56.150781 L 120.000633 56.150781 L 120.000633 43.353893 L 126.051258 43.353893 L 126.051258 15.742187 L 123.590320 15.742187 L 123.590320 12.460937 L 126.051258 12.460937 L 126.051258 10.767819 L 91.315945 10.767812 L 91.315945 21.648438 L 64.258762 21.648438 L 64.258762 10.597185 L 10.000000 10.597185 L 10.000000 113.090312 L 64.258758 113.090312 L 64.258758 79.267187 L 91.315945 79.267187 L 91.315945 107.033125 L 283.459383 107.033125 L 283.459383 10.000000 L 221.371570 10.000000" stroke="black" fill="none" stroke-width="1px"></path><path d="M 10.387195 156.559062 L 10.387195 154.590312 L 12.355945 154.590312 L 12.355945 156.559062 L 10.387195 156.559062" stroke="black" fill="white" stroke-width="1px"></path><path d="M 10.387195 43.468750 L 10.387195 41.500000 L 12.355945 41.500000 L 12.355945 43.468750 L 10.387195 43.468750" stroke="black" fill="white" stroke-width="1px"></path><path d="M 10.387195 188.059062 L 10.387195 186.090312 L 12.355945 186.090312 L 12.355945 188.059062 L 10.387195 188.059062" stroke="black" fill="white" stroke-width="1px"></path><path d="M 10.387195 74.968750 L 10.387195 73.000000 L 12.355945 73.000000 L 12.355945 74.968750 L 10.387195 74.968750" stroke="black" fill="white" stroke-width="1px"></path><path d="M 10.387195 219.559062 L 10.387195 217.590312 L 12.355945 217.590312 L 12.355945 219.559062 L 10.387195 219.559062" stroke="black" fill="white" stroke-width="1px"></path><path d="M 10.387195 106.468750 L 10.387195 104.500000 L 12.355945 104.500000 L 12.355945 106.468750 L 10.387195 106.468750" stroke="black" fill="white" stroke-width="1px"></path><path d="M 60.754383 128.340312 L 60.754383 125.387187 L 63.871570 125.387187 L 63.871570 128.340312 L 60.754383 128.340312" stroke="black" fill="white" stroke-width="1px"></path><path d="M 60.754383 15.250000 L 60.754383 12.296875 L 63.871570 12.296875 L 63.871570 15.250000 L 60.754383 15.250000" stroke="black" fill="white" stroke-width="1px"></path><path d="M 280.598133 219.230937 L 280.598133 217.262187 L 282.566883 217.262187 L 282.566883 219.230937 L 280.598133 219.230937" stroke="black" fill="white" stroke-width="1px"></path><path d="M 280.598133 106.140625 L 280.598133 104.171875 L 282.566883 104.171875 L 282.566883 106.140625 L 280.598133 106.140625" stroke="black" fill="white" stroke-width="1px"></path><path d="M 280.598133 188.059062 L 280.598133 186.090312 L 282.566883 186.090312 L 282.566883 188.059062 L 280.598133 188.059062" stroke="black" fill="white" stroke-width="1px"></path><path d="M 280.598133 74.968750 L 280.598133 73.000000 L 282.566883 73.000000 L 282.566883 74.968750 L 280.598133 74.968750" stroke="black" fill="white" stroke-width="1px"></path><path d="M 280.598133 156.559050 L 280.598133 154.590300 L 282.566883 154.590300 L 282.566883 156.559050 L 280.598133 156.559050" stroke="black" fill="white" stroke-width="1px"></path><path d="M 280.598133 43.468737 L 280.598133 41.499987 L 282.566883 41.499987 L 282.566883 43.468737 L 280.598133 43.468737" stroke="black" fill="white" stroke-width="1px"></path><path d="M 248.605945 127.355937 L 248.605945 123.418437 L 251.887195 123.418437 L 251.887195 127.355937 L 248.605945 127.355937" stroke="black" fill="white" stroke-width="1px"></path><path d="M 248.605945 14.265625 L 248.605945 10.328125 L 251.887195 10.328125 L 251.887195 14.265625 L 248.605945 14.265625" stroke="black" fill="white" stroke-width="1px"></path><path d="M 248.605945 157.871562 L 248.605945 153.934062 L 251.887195 153.934062 L 251.887195 157.871562 L 248.605945 157.871562" stroke="black" fill="white" stroke-width="1px"></path><path d="M 248.605945 44.781250 L 248.605945 40.843750 L 251.887195 40.843750 L 251.887195 44.781250 L 248.605945 44.781250" stroke="black" fill="white" stroke-width="1px"></path><path d="M 248.605945 189.043437 L 248.605945 185.105937 L 251.887195 185.105937 L 251.887195 189.043437 L 248.605945 189.043437" stroke="black" fill="white" stroke-width="1px"></path><path d="M 248.605945 75.953125 L 248.605945 72.015625 L 251.887195 72.015625 L 251.887195 75.953125 L 248.605945 75.953125" stroke="black" fill="white" stroke-width="1px"></path><path d="M 248.934070 219.230937 L 248.934070 216.277812 L 251.887195 216.277812 L 251.887195 219.230937 L 248.934070 219.230937" stroke="black" fill="white" stroke-width="1px"></path><path d="M 248.934070 106.140625 L 248.934070 103.187500 L 251.887195 103.187500 L 251.887195 106.140625 L 248.934070 106.140625" stroke="black" fill="white" stroke-width="1px"></path><path d="M 218.090320 189.043437 L 218.090320 185.105937 L 221.371570 185.105937 L 221.371570 189.043437 L 218.090320 189.043437" stroke="black" fill="white" stroke-width="1px"></path><path d="M 218.090320 75.953125 L 218.090320 72.015625 L 221.371570 72.015625 L 221.371570 75.953125 L 218.090320 75.953125" stroke="black" fill="white" stroke-width="1px"></path><path d="M 218.254383 219.230937 L 218.254383 216.277812 L 221.207508 216.277812 L 221.207508 219.230937 L 218.254383 219.230937" stroke="black" fill="white" stroke-width="1px"></path><path d="M 218.254383 106.140625 L 218.254383 103.187500 L 221.207508 103.187500 L 221.207508 106.140625 L 218.254383 106.140625" stroke="black" fill="white" stroke-width="1px"></path><path d="M 186.590320 189.043437 L 186.590320 185.105937 L 189.871570 185.105937 L 189.871570 189.043437 L 186.590320 189.043437" stroke="black" fill="white" stroke-width="1px"></path><path d="M 186.590320 75.953125 L 186.590320 72.015625 L 189.871570 72.015625 L 189.871570 75.953125 L 186.590320 75.953125" stroke="black" fill="white" stroke-width="1px"></path><path d="M 186.754383 219.230937 L 186.754383 216.277812 L 189.707508 216.277812 L 189.707508 219.230937 L 186.754383 219.230937" stroke="black" fill="white" stroke-width="1px"></path><path d="M 186.754383 106.140625 L 186.754383 103.187500 L 189.707508 103.187500 L 189.707508 106.140625 L 186.754383 106.140625" stroke="black" fill="white" stroke-width="1px"></path><path d="M 155.090320 189.043437 L 155.090320 185.105937 L 158.371570 185.105937 L 158.371570 189.043437 L 155.090320 189.043437" stroke="black" fill="white" stroke-width="1px"></path><path d="M 155.090320 75.953125 L 155.090320 72.015625 L 158.371570 72.015625 L 158.371570 75.953125 L 155.090320 75.953125" stroke="black" fill="white" stroke-width="1px"></path><path d="M 155.254383 219.230937 L 155.254383 216.277812 L 158.207508 216.277812 L 158.207508 219.230937 L 155.254383 219.230937" stroke="black" fill="white" stroke-width="1px"></path><path d="M 155.254383 106.140625 L 155.254383 103.187500 L 158.207508 103.187500 L 158.207508 106.140625 L 155.254383 106.140625" stroke="black" fill="white" stroke-width="1px"></path><path d="M 123.590320 189.043437 L 123.590320 185.105937 L 126.871570 185.105937 L 126.871570 189.043437 L 123.590320 189.043437" stroke="black" fill="white" stroke-width="1px"></path><path d="M 123.590320 75.953125 L 123.590320 72.015625 L 126.871570 72.015625 L 126.871570 75.953125 L 123.590320 75.953125" stroke="black" fill="white" stroke-width="1px"></path><path d="M 123.754383 219.230937 L 123.754383 216.277812 L 126.707508 216.277812 L 126.707508 219.230937 L 123.754383 219.230937" stroke="black" fill="white" stroke-width="1px"></path><path d="M 123.754383 106.140625 L 123.754383 103.187500 L 126.707508 103.187500 L 126.707508 106.140625 L 123.754383 106.140625" stroke="black" fill="white" stroke-width="1px"></path><path d="M 92.090320 157.543437 L 92.090320 153.605937 L 95.371570 153.605937 L 95.371570 157.543437 L 92.090320 157.543437" stroke="black" fill="white" stroke-width="1px"></path><path d="M 92.090320 44.453125 L 92.090320 40.515625 L 95.371570 40.515625 L 95.371570 44.453125 L 92.090320 44.453125" stroke="black" fill="white" stroke-width="1px"></path><path d="M 92.090320 189.043437 L 92.090320 185.105937 L 95.371570 185.105937 L 95.371570 189.043437 L 92.090320 189.043437" stroke="black" fill="white" stroke-width="1px"></path><path d="M 92.090320 75.953125 L 92.090320 72.015625 L 95.371570 72.015625 L 95.371570 75.953125 L 92.090320 75.953125" stroke="black" fill="white" stroke-width="1px"></path><path d="M 92.090320 128.504375 L 92.090320 125.551250 L 95.207508 125.551250 L 95.207508 128.504375 L 92.090320 128.504375" stroke="black" fill="white" stroke-width="1px"></path><path d="M 92.090320 15.414062 L 92.090320 12.460937 L 95.207508 12.460937 L 95.207508 15.414062 L 92.090320 15.414062" stroke="black" fill="white" stroke-width="1px"></path><path d="M 60.590320 157.215312 L 60.590320 153.934062 L 63.871570 153.934062 L 63.871570 157.215312 L 60.590320 157.215312" stroke="black" fill="white" stroke-width="1px"></path><path d="M 60.590320 44.125000 L 60.590320 40.843750 L 63.871570 40.843750 L 63.871570 44.125000 L 60.590320 44.125000" stroke="black" fill="white" stroke-width="1px"></path><path d="M 60.754383 219.230937 L 60.754383 216.277812 L 63.871570 216.277812 L 63.871570 219.230937 L 60.754383 219.230937" stroke="black" fill="white" stroke-width="1px"></path><path d="M 60.754383 106.140625 L 60.754383 103.187500 L 63.871570 103.187500 L 63.871570 106.140625 L 60.754383 106.140625" stroke="black" fill="white" stroke-width="1px"></path><path d="M 30.074695 128.504375 L 30.074695 125.223125 L 33.027820 125.223125 L 33.027820 128.504375 L 30.074695 128.504375" stroke="black" fill="white" stroke-width="1px"></path><path d="M 30.074695 15.414062 L 30.074695 12.132812 L 33.027820 12.132812 L 33.027820 15.414062 L 30.074695 15.414062" stroke="black" fill="white" stroke-width="1px"></path><path d="M 30.074695 157.215312 L 30.074695 153.934062 L 33.355945 153.934062 L 33.355945 157.215312 L 30.074695 157.215312" stroke="black" fill="white" stroke-width="1px"></path><path d="M 30.074695 44.125000 L 30.074695 40.843750 L 33.355945 40.843750 L 33.355945 44.125000 L 30.074695 44.125000" stroke="black" fill="white" stroke-width="1px"></path><path d="M 30.074695 188.715312 L 30.074695 185.434062 L 33.355945 185.434062 L 33.355945 188.715312 L 30.074695 188.715312" stroke="black" fill="white" stroke-width="1px"></path><path d="M 30.074695 75.625000 L 30.074695 72.343750 L 33.355945 72.343750 L 33.355945 75.625000 L 30.074695 75.625000" stroke="black" fill="white" stroke-width="1px"></path><path d="M 30.074695 219.230937 L 30.074695 216.277812 L 33.027820 216.277812 L 33.027820 219.230937 L 30.074695 219.230937" stroke="black" fill="white" stroke-width="1px"></path><path d="M 30.074695 106.140625 L 30.074695 103.187500 L 33.027820 103.187500 L 33.027820 106.140625 L 30.074695 106.140625" stroke="black" fill="white" stroke-width="1px"></path><path d="M 10.387195 127.191875 L 10.387195 125.223125 L 12.355945 125.223125 L 12.355945 127.191875 L 10.387195 127.191875" stroke="black" fill="white" stroke-width="1px"></path><path d="M 10.387195 14.101562 L 10.387195 12.132812 L 12.355945 12.132812 L 12.355945 14.101562 L 10.387195 14.101562" stroke="black" fill="white" stroke-width="1px"></path><path d="M 60.590320 189.863750 L 60.590320 185.434062 L 63.871570 185.434062 L 63.871570 188.715312 L 62.230945 188.715312 L 62.230945 189.863750 L 60.590320 189.863750" stroke="black" fill="white" stroke-width="1px"></path><path d="M 60.590320 76.773437 L 60.590320 72.343750 L 63.871570 72.343750 L 63.871570 75.625000 L 62.230945 75.625000 L 62.230945 76.773437 L 60.590320 76.773437" stroke="black" fill="white" stroke-width="1px"></path></g></svg>