<svg width="293.459383" height="236.180625" xmlns="http://www.w3.org/2000/svg" xmlns:xlink="http://www.w3.org/1999/xlink" version="1.1"><g id="crv-background"><path d="M 221.371570 123.090312 L 221.371570 169.241094 L 120.000633 169.241094 L 120.000633 156.444206 L 126.051258 156.444206 L 126.051258 128.832500 L 123.590320 128.832500 L 123.590320 125.551250 L 126.051258 125.551250 L 126.051258 123.858132 L 91.315945 123.858125 L 91.315945 134.738750 L 64.258762 134.738750 L 64.258762 123.687497 L 10.000000 123.687497 L 10.000000 226.180625 L 64.258758 226.180625 L 64.258758 192.357500 L 91.315945 192.357500 L 91.315945 220.123437 L 283.459383 220.123437 L 283.459383 123.090312 L 221.371570 123.090312" stroke="none" fill="white" stroke-width="1px"></path><path d="M 221.371570 10.000000 L 221.371570 56.150781 L 120.000633 56.150781 L 120.000633 43.353893 L 126.051258 43.353893 L 126.051258 15.742187 L 123.590320 15.742187 L 123.590320 12.460937 L 126.051258 12.460937 L 126.051258 10.767819 L 91.315945 10.767812 L 91.315945 21.648438 L 64.258762 21.648438 L 64.258762 10.597185 L 10.000000 10.597185 L 10.000000 113.090312 L 64.258758 113.090312 L 64.258758 79.267187 L 91.315945 79.267187 L 91.315945 107.033125 L 283.459383 107.033125 L 283.459383 10.000000 L 221.371570 10.000000" stroke="none" fill="white" stroke-width="1px"></path></g><g id="crv-nbhd"><path d="M 221.737654 10.000004 L 221.737654 27.868729 L 221.737654 45.737454 L 228.659162 49.937843 L 235.580670 54.138232 L 259.520026 52.080976 L 283.459383 50.023720 L 283.459383 30.011860 L 283.459382 10.000000 L 252.598562 10.000002 L 221.737654 10.000004" stroke="#DD2222" fill="none" stroke-width="1px"></path><path d="M 283.459383 107.033125 L 283.459383 78.528422 L 283.459383 50.023720 L 259.520026 52.080976 L 235.580670 54.138232 L 240.987729 80.585678 L 246.394788 107.033125 L 264.927081 107.033125 L 283.459383 107.033125" stroke="#DD2222" fill="none" stroke-width="1px"></path><path d="M 199.796111 107.033125 L 223.095449 107.033125 L 246.394788 107.033125 L 240.987729 80.585678 L 235.580670 54.138232 L 228.659162 49.937843 L 221.737654 45.737454 L 221.737654 62.444392 L 221.737654 79.151330 L 213.768459 79.151330 L 205.799264 79.151330 L 202.797688 93.092226 L 199.796111 107.033125" stroke="#DD2222" fill="none" stroke-width="1px"></path><path d="M 205.799264 79.151330 L 189.026667 79.151330 L 172.254070 79.151329 L 174.038676 93.092227 L 175.823283 107.033125 L 187.809697 107.033125 L 199.796111 107.033125 L 202.797687 93.092231 L 205.799264 79.151330" stroke="#DD2222" fill="none" stroke-width="1px"></path><path d="M 172.254070 79.151329 L 153.764804 79.151329 L 135.275538 79.151328 L 135.278584 93.092227 L 135.281629 107.033125 L 155.552456 107.033125 L 175.823283 107.033125 L 174.038676 93.092227 L 172.254070 79.151329" stroke="#DD2222" fill="none" stroke-width="1px"></path><path d="M 135.275538 79.151328 L 113.295742 79.151328 L 91.315945 79.151327 L 91.315945 93.092226 L 91.315945 107.033125 L 113.298787 107.033125 L 135.281629 107.033125 L 135.278584 93.092227 L 135.275538 79.151328" stroke="#DD2222" fill="none" stroke-width="1px"></path><path d="M 64.258758 113.090312 L 64.258758 84.620547 L 64.258758 56.150781 L 64.258758 54.304819 L 64.258758 52.458856 L 37.129382 54.061437 L 10.000000 55.664019 L 10.000000 84.377166 L 10.000000 113.090312 L 37.129379 113.090312 L 64.258758 113.090312" stroke="#DD2222" fill="none" stroke-width="1px"></path><path d="M 10.000000 10.597184 L 10.000000 33.130601 L 10.000000 55.664019 L 37.129379 54.061438 L 64.258758 52.458856 L 64.258758 31.528021 L 64.258758 10.597185 L 37.129385 10.597185 L 10.000000 10.597184" stroke="#DD2222" fill="none" stroke-width="1px"></path><path d="M 10.000000 123.687497 L 10.000000 149.921429 L 10.000000 176.155362 L 37.129379 173.975262 L 64.258758 171.795162 L 64.258758 170.518128 L 64.258758 169.241094 L 64.258758 146.464296 L 64.258758 123.687497 L 37.129385 123.687497 L 10.000000 123.687497" stroke="#DD2222" fill="none" stroke-width="1px"></path><path d="M 10.000000 176.155362 L 10.000000 201.167993 L 10.000000 226.180625 L 37.129382 226.180625 L 64.258764 226.180625 L 64.258764 198.987887 L 64.258758 171.795162 L 37.129379 173.975262 L 10.000000 176.155362" stroke="#DD2222" fill="none" stroke-width="1px"></path><path d="M 140.198254 192.043444 L 115.757100 192.043444 L 91.315945 192.043444 L 91.315945 206.083441 L 91.315945 220.123437 L 113.166742 220.123437 L 135.017539 220.123437 L 137.607896 206.083441 L 140.198254 192.043444" stroke="#DD2222" fill="none" stroke-width="1px"></path><path d="M 135.017539 220.123437 L 164.879144 220.123437 L 194.740750 220.123437 L 189.903714 206.083441 L 185.066678 192.043444 L 162.632466 192.043444 L 140.198254 192.043444 L 137.607896 206.083440 L 135.017539 220.123437" stroke="#DD2222" fill="none" stroke-width="1px"></path><path d="M 227.284443 192.043444 L 206.175561 192.043444 L 185.066678 192.043444 L 189.903714 206.083441 L 194.740750 220.123437 L 208.947420 220.123437 L 223.154089 220.123437 L 225.219266 206.083441 L 227.284443 192.043444" stroke="#DD2222" fill="none" stroke-width="1px"></path><path d="M 283.459383 220.123437 L 283.459383 195.567049 L 283.459383 171.010661 L 261.598517 169.954274 L 239.737652 168.897887 L 239.737652 180.470665 L 239.737652 192.043444 L 233.511047 192.043444 L 227.284443 192.043444 L 225.219266 206.083441 L 223.154089 220.123437 L 253.306736 220.123437 L 283.459383 220.123437" stroke="#DD2222" fill="none" stroke-width="1px"></path><path d="M 239.737652 123.090312 L 239.737652 145.994100 L 239.737652 168.897887 L 261.598517 169.954274 L 283.459383 171.010661 L 283.459383 147.050487 L 283.459383 123.090312 L 261.598548 123.090312 L 239.737652 123.090312" stroke="#DD2222" fill="none" stroke-width="1px"></path></g><g id="crv-amen"><path d="M 15.425876 160.618780 L 15.425876 167.330141 L 15.425876 174.041502 L 37.129379 172.297422 L 58.832882 170.553342 L 58.832882 169.531714 L 58.832882 168.510087 L 58.832882 162.820353 L 58.832882 157.130620 L 37.129379 158.874700 L 15.425876 160.618780" stroke="none" fill="#2288CC" stroke-width="1px"></path><path d="M 49.213699 220.808997 L 55.903491 220.808997 L 62.593289 220.808997 L 62.593286 199.054812 L 62.593284 177.300626 L 55.903486 177.838214 L 49.213694 178.375802 L 49.213697 199.592399 L 49.213699 220.808997" stroke="none" fill="#2288CC" stroke-width="1px"></path><path d="M 106.367986 194.851444 L 99.678190 194.851444 L 92.988394 194.851444 L 92.988394 206.083441 L 92.988394 217.315438 L 99.678190 217.315438 L 106.367986 217.315438 L 106.367986 206.083441 L 106.367986 194.851444" stroke="none" fill="#2288CC" stroke-width="1px"></path><path d="M 154.986262 194.851444 L 148.183560 194.851444 L 141.380858 194.851444 L 139.308572 206.083441 L 137.236286 217.315438 L 144.038988 217.315438 L 150.841690 217.315438 L 152.913976 206.083441 L 154.986262 194.851444" stroke="none" fill="#2288CC" stroke-width="1px"></path><path d="M 221.253786 207.035343 L 222.237804 200.345547 L 223.221822 193.655752 L 206.334716 193.655752 L 189.447610 193.655752 L 191.752368 200.345547 L 194.057125 207.035343 L 207.655455 207.035343 L 221.253786 207.035343" stroke="none" fill="#2288CC" stroke-width="1px"></path><path d="M 279.087210 185.868988 L 279.087210 179.171386 L 279.087210 172.473784 L 261.598517 171.628674 L 244.109825 170.783564 L 244.109825 177.481166 L 244.109825 184.178768 L 261.598517 185.023878 L 279.087210 185.868988" stroke="none" fill="#2288CC" stroke-width="1px"></path><path d="M 254.794567 127.711597 L 248.104775 127.711597 L 241.414975 127.711597 L 241.414975 146.034626 L 241.414975 164.357656 L 248.104771 164.680928 L 254.794567 165.004201 L 254.794567 146.357899 L 254.794567 127.711597" stroke="none" fill="#2288CC" stroke-width="1px"></path><path d="M 234.459981 48.860502 L 237.106056 50.466300 L 239.752132 52.072099 L 258.903617 50.426294 L 278.055102 48.780489 L 278.055102 42.066037 L 278.055102 35.351584 L 255.841140 37.260567 L 233.627177 39.169549 L 234.043579 44.015026 L 234.459981 48.860502" stroke="none" fill="#2288CC" stroke-width="1px"></path><path d="M 278.838089 65.507947 L 278.838089 58.793495 L 278.838089 52.079042 L 259.686604 53.724847 L 240.535119 55.370652 L 241.884156 61.969173 L 243.233194 68.567695 L 261.035641 67.037821 L 278.838089 65.507947" stroke="none" fill="#2288CC" stroke-width="1px"></path><path d="M 236.650431 68.041471 L 235.497842 62.403834 L 234.345253 56.766196 L 228.808046 53.405885 L 223.270839 50.045574 L 223.270839 65.148646 L 223.270839 80.251718 L 229.960635 80.251718 L 236.650431 80.251718 L 236.650431 74.146595 L 236.650431 68.041471" stroke="none" fill="#2288CC" stroke-width="1px"></path><path d="M 184.999453 104.244945 L 191.842552 104.244945 L 198.685652 104.244945 L 201.086913 93.092227 L 203.488174 81.939509 L 196.645074 81.939509 L 189.801975 81.939509 L 187.400714 93.092227 L 184.999453 104.244945" stroke="none" fill="#2288CC" stroke-width="1px"></path><path d="M 150.328188 81.939508 L 143.638392 81.939508 L 136.948596 81.939508 L 136.951033 93.092227 L 136.953469 104.244945 L 143.643265 104.244945 L 150.333061 104.244945 L 150.330624 93.092227 L 150.328188 81.939508" stroke="none" fill="#2288CC" stroke-width="1px"></path><path d="M 130.882684 94.203392 L 130.881223 87.513596 L 130.879761 80.823800 L 113.295924 80.823800 L 95.712087 80.823800 L 95.712087 87.513595 L 95.712087 94.203391 L 113.297386 94.203391 L 130.882684 94.203392" stroke="none" fill="#2288CC" stroke-width="1px"></path><path d="M 58.832882 67.857652 L 58.832882 62.632963 L 58.832882 57.408277 L 58.832882 55.931507 L 58.832882 54.454737 L 37.129379 55.736802 L 15.425876 57.018867 L 15.425876 63.720324 L 15.425876 70.421782 L 37.129379 69.139717 L 58.832882 67.857652" stroke="none" fill="#2288CC" stroke-width="1px"></path><path d="M 49.200216 49.112635 L 55.890011 48.717457 L 62.579807 48.322279 L 62.579807 31.577610 L 62.579807 14.832941 L 55.890012 14.832941 L 49.200216 14.832941 L 49.200216 31.972788 L 49.200216 49.112635" stroke="none" fill="#2288CC" stroke-width="1px"></path></g><g id="crv-desk"><path d="M 55.459383 145.401712 L 52.959383 145.401712 L 52.959383 151.401712 L 55.459383 151.401712 L 55.459383 145.401712" stroke="gray" fill="white" stroke-width="1px"></path><path d="M 55.459383 139.401712 L 52.959383 139.401712 L 52.959383 145.401712 L 55.459383 145.401712 L 55.459383 139.401712" stroke="gray" fill="white" stroke-width="1px"></path><path d="M 55.459383 133.401712 L 52.959383 133.401712 L 52.959383 139.401712 L 55.459383 139.401712 L 55.459383 133.401712" stroke="gray" fill="white" stroke-width="1px"></path><path d="M 55.459383 127.401712 L 52.959383 127.401712 L 52.959383 133.401712 L 55.459383 133.401712 L 55.459383 127.401712" stroke="gray" fill="white" stroke-width="1px"></path><path d="M 43.459383 146.366024 L 40.959383 146.366024 L 40.959383 152.366024 L 43.459383 152.366024 L 43.459383 146.366024" stroke="gray" fill="white" stroke-width="1px"></path><path d="M 43.459383 140.366024 L 40.959383 140.366024 L 40.959383 146.366024 L 43.459383 146.366024 L 43.459383 140.366024" stroke="gray" fill="white" stroke-width="1px"></path><path d="M 43.459383 134.366024 L 40.959383 134.366024 L 40.959383 140.366024 L 43.459383 140.366024 L 43.459383 134.366024" stroke="gray" fill="white" stroke-width="1px"></path><path d="M 43.459383 128.366024 L 40.959383 128.366024 L 40.959383 134.366024 L 43.459383 134.366024 L 43.459383 128.366024" stroke="gray" fill="white" stroke-width="1px"></path><path d="M 31.459383 147.330337 L 28.959383 147.330337 L 28.959383 153.330337 L 31.459383 153.330337 L 31.459383 147.330337" stroke="gray" fill="white" stroke-width="1px"></path><path d="M 31.459383 141.330337 L 28.959383 141.330337 L 28.959383 147.330337 L 31.459383 147.330337 L 31.459383 141.330337" stroke="gray" fill="white" stroke-width="1px"></path><path d="M 31.459383 135.330337 L 28.959383 135.330337 L 28.959383 141.330337 L 31.459383 141.330337 L 31.459383 135.330337" stroke="gray" fill="white" stroke-width="1px"></path><path d="M 31.459383 129.330337 L 28.959383 129.330337 L 28.959383 135.330337 L 31.459383 135.330337 L 31.459383 129.330337" stroke="gray" fill="white" stroke-width="1px"></path><path d="M 19.459383 148.294649 L 16.959383 148.294649 L 16.959383 154.294649 L 19.459383 154.294649 L 19.459383 148.294649" stroke="gray" fill="white" stroke-width="1px"></path><path d="M 19.459383 142.294649 L 16.959383 142.294649 L 16.959383 148.294649 L 19.459383 148.294649 L 19.459383 142.294649" stroke="gray" fill="white" stroke-width="1px"></path><path d="M 19.459383 136.294649 L 16.959383 136.294649 L 16.959383 142.294649 L 19.459383 142.294649 L 19.459383 136.294649" stroke="gray" fill="white" stroke-width="1px"></path><path d="M 19.459383 130.294649 L 16.959383 130.294649 L 16.959383 136.294649 L 19.459383 136.294649 L 19.459383 130.294649" stroke="gray" fill="white" stroke-width="1px"></path><path d="M 127.459383 214.123437 L 124.959383 214.123437 L 124.959383 220.123437 L 127.459383 220.123437 L 127.459383 214.123437" stroke="gray" fill="white" stroke-width="1px"></path><path d="M 127.459383 208.123437 L 124.959383 208.123437 L 124.959383 214.123437 L 127.459383 214.123437 L 127.459383 208.123437" stroke="gray" fill="white" stroke-width="1px"></path><path d="M 127.459383 202.123437 L 124.959383 202.123437 L 124.959383 208.123437 L 127.459383 208.123437 L 127.459383 202.123437" stroke="gray" fill="white" stroke-width="1px"></path><path d="M 127.459383 196.123437 L 124.959383 196.123437 L 124.959383 202.123437 L 127.459383 202.123437 L 127.459383 196.123437" stroke="gray" fill="white" stroke-width="1px"></path><path d="M 115.459383 214.123437 L 112.959383 214.123437 L 112.959383 220.123437 L 115.459383 220.123437 L 115.459383 214.123437" stroke="gray" fill="white" stroke-width="1px"></path><path d="M 115.459383 208.123437 L 112.959383 208.123437 L 112.959383 214.123437 L 115.459383 214.123437 L 115.459383 208.123437" stroke="gray" fill="white" stroke-width="1px"></path><path d="M 115.459383 202.123437 L 112.959383 202.123437 L 112.959383 208.123437 L 115.459383 208.123437 L 115.459383 202.123437" stroke="gray" fill="white" stroke-width="1px"></path><path d="M 115.459383 196.123437 L 112.959383 196.123437 L 112.959383 202.123437 L 115.459383 202.123437 L 115.459383 196.123437" stroke="gray" fill="white" stroke-width="1px"></path><path d="M 187.459383 214.123437 L 184.959383 214.123437 L 184.959383 220.123437 L 187.459383 220.123437 L 187.459383 214.123437" stroke="gray" fill="white" stroke-width="1px"></path><path d="M 187.459383 208.123437 L 184.959383 208.123437 L 184.959383 214.123437 L 187.459383 214.123437 L 187.459383 208.123437" stroke="gray" fill="white" stroke-width="1px"></path><path d="M 175.459383 214.123437 L 172.959383 214.123437 L 172.959383 220.123437 L 175.459383 220.123437 L 175.459383 214.123437" stroke="gray" fill="white" stroke-width="1px"></path><path d="M 175.459383 208.123437 L 172.959383 208.123437 L 172.959383 214.123437 L 175.459383 214.123437 L 175.459383 208.123437" stroke="gray" fill="white" stroke-width="1px"></path><path d="M 175.459383 202.123437 L 172.959383 202.123437 L 172.959383 208.123437 L 175.459383 208.123437 L 175.459383 202.123437" stroke="gray" fill="white" stroke-width="1px"></path><path d="M 175.459383 196.123437 L 172.959383 196.123437 L 172.959383 202.123437 L 175.459383 202.123437 L 175.459383 196.123437" stroke="gray" fill="white" stroke-width="1px"></path><path d="M 163.459383 214.123437 L 160.959383 214.123437 L 160.959383 220.123437 L 163.459383 220.123437 L 163.459383 214.123437" stroke="gray" fill="white" stroke-width="1px"></path><path d="M 163.459383 208.123437 L 160.959383 208.123437 L 160.959383 214.123437 L 163.459383 214.123437 L 163.459383 208.123437" stroke="gray" fill="white" stroke-width="1px"></path><path d="M 163.459383 202.123437 L 160.959383 202.123437 L 160.959383 208.123437 L 163.459383 208.123437 L 163.459383 202.123437" stroke="gray" fill="white" stroke-width="1px"></path><path d="M 163.459383 196.123437 L 160.959383 196.123437 L 160.959383 202.123437 L 163.459383 202.123437 L 163.459383 196.123437" stroke="gray" fill="white" stroke-width="1px"></path><path d="M 211.459383 214.123437 L 208.959383 214.123437 L 208.959383 220.123437 L 211.459383 220.123437 L 211.459383 214.123437" stroke="gray" fill="white" stroke-width="1px"></path><path d="M 199.459383 214.123437 L 196.959383 214.123437 L 196.959383 220.123437 L 199.459383 220.123437 L 199.459383 214.123437" stroke="gray" fill="white" stroke-width="1px"></path><path d="M 271.459383 214.123437 L 268.959383 214.123437 L 268.959383 220.123437 L 271.459383 220.123437 L 271.459383 214.123437" stroke="gray" fill="white" stroke-width="1px"></path><path d="M 271.459383 208.123437 L 268.959383 208.123437 L 268.959383 214.123437 L 271.459383 214.123437 L 271.459383 208.123437" stroke="gray" fill="white" stroke-width="1px"></path><path d="M 271.459383 202.123437 L 268.959383 202.123437 L 268.959383 208.123437 L 271.459383 208.123437 L 271.459383 202.123437" stroke="gray" fill="white" stroke-width="1px"></path><path d="M 271.459383 196.123437 L 268.959383 196.123437 L 268.959383 202.123437 L 271.459383 202.123437 L 271.459383 196.123437" stroke="gray" fill="white" stroke-width="1px"></path><path d="M 259.459383 214.123437 L 256.959383 214.123437 L 256.959383 220.123437 L 259.459383 220.123437 L 259.459383 214.123437" stroke="gray" fill="white" stroke-width="1px"></path><path d="M 259.459383 208.123437 L 256.959383 208.123437 L 256.959383 214.123437 L 259.459383 214.123437 L 259.459383 208.123437" stroke="gray" fill="white" stroke-width="1px"></path><path d="M 259.459383 202.123437 L 256.959383 202.123437 L 256.959383 208.123437 L 259.459383 208.123437 L 259.459383 202.123437" stroke="gray" fill="white" stroke-width="1px"></path><path d="M 259.459383 196.123437 L 256.959383 196.123437 L 256.959383 202.123437 L 259.459383 202.123437 L 259.459383 196.123437" stroke="gray" fill="white" stroke-width="1px"></path><path d="M 247.459383 214.123437 L 244.959383 214.123437 L 244.959383 220.123437 L 247.459383 220.123437 L 247.459383 214.123437" stroke="gray" fill="white" stroke-width="1px"></path><path d="M 247.459383 208.123437 L 244.959383 208.123437 L 244.959383 214.123437 L 247.459383 214.123437 L 247.459383 208.123437" stroke="gray" fill="white" stroke-width="1px"></path><path d="M 247.459383 202.123437 L 244.959383 202.123437 L 244.959383 208.123437 L 247.459383 208.123437 L 247.459383 202.123437" stroke="gray" fill="white" stroke-width="1px"></path><path d="M 247.459383 196.123437 L 244.959383 196.123437 L 244.959383 202.123437 L 247.459383 202.123437 L 247.459383 196.123437" stroke="gray" fill="white" stroke-width="1px"></path><path d="M 235.459383 214.123437 L 232.959383 214.123437 L 232.959383 220.123437 L 235.459383 220.123437 L 235.459383 214.123437" stroke="gray" fill="white" stroke-width="1px"></path><path d="M 235.459383 208.123437 L 232.959383 208.123437 L 232.959383 214.123437 L 235.459383 214.123437 L 235.459383 208.123437" stroke="gray" fill="white" stroke-width="1px"></path><path d="M 235.459383 202.123437 L 232.959383 202.123437 L 232.959383 208.123437 L 235.459383 208.123437 L 235.459383 202.123437" stroke="gray" fill="white" stroke-width="1px"></path><path d="M 235.459383 196.123437 L 232.959383 196.123437 L 232.959383 202.123437 L 235.459383 202.123437 L 235.459383 196.123437" stroke="gray" fill="white" stroke-width="1px"></path><path d="M 55.459383 145.401712 L 57.959383 145.401712 L 57.959383 151.401712 L 55.459383 151.401712 L 55.459383 145.401712" stroke="gray" fill="white" stroke-width="1px"></path><path d="M 55.459383 139.401712 L 57.959383 139.401712 L 57.959383 145.401712 L 55.459383 145.401712 L 55.459383 139.401712" stroke="gray" fill="white" stroke-width="1px"></path><path d="M 55.459383 133.401712 L 57.959383 133.401712 L 57.959383 139.401712 L 55.459383 139.401712 L 55.459383 133.401712" stroke="gray" fill="white" stroke-width="1px"></path><path d="M 55.459383 127.401712 L 57.959383 127.401712 L 57.959383 133.401712 L 55.459383 133.401712 L 55.459383 127.401712" stroke="gray" fill="white" stroke-width="1px"></path><path d="M 43.459383 146.366024 L 45.959383 146.366024 L 45.959383 152.366024 L 43.459383 152.366024 L 43.459383 146.366024" stroke="gray" fill="white" stroke-width="1px"></path><path d="M 43.459383 140.366024 L 45.959383 140.366024 L 45.959383 146.366024 L 43.459383 146.366024 L 43.459383 140.366024" stroke="gray" fill="white" stroke-width="1px"></path><path d="M 43.459383 134.366024 L 45.959383 134.366024 L 45.959383 140.366024 L 43.459383 140.366024 L 43.459383 134.366024" stroke="gray" fill="white" stroke-width="1px"></path><path d="M 43.459383 128.366024 L 45.959383 128.366024 L 45.959383 134.366024 L 43.459383 134.366024 L 43.459383 128.366024" stroke="gray" fill="white" stroke-width="1px"></path><path d="M 31.459383 147.330337 L 33.959383 147.330337 L 33.959383 153.330337 L 31.459383 153.330337 L 31.459383 147.330337" stroke="gray" fill="white" stroke-width="1px"></path><path d="M 31.459383 141.330337 L 33.959383 141.330337 L 33.959383 147.330337 L 31.459383 147.330337 L 31.459383 141.330337" stroke="gray" fill="white" stroke-width="1px"></path><path d="M 31.459383 135.330337 L 33.959383 135.330337 L 33.959383 141.330337 L 31.459383 141.330337 L 31.459383 135.330337" stroke="gray" fill="white" stroke-width="1px"></path><path d="M 31.459383 129.330337 L 33.959383 129.330337 L 33.959383 135.330337 L 31.459383 135.330337 L 31.459383 129.330337" stroke="gray" fill="white" stroke-width="1px"></path><path d="M 19.459383 148.294649 L 21.959383 148.294649 L 21.959383 154.294649 L 19.459383 154.294649 L 19.459383 148.294649" stroke="gray" fill="white" stroke-width="1px"></path><path d="M 19.459383 142.294649 L 21.959383 142.294649 L 21.959383 148.294649 L 19.459383 148.294649 L 19.459383 142.294649" stroke="gray" fill="white" stroke-width="1px"></path><path d="M 19.459383 136.294649 L 21.959383 136.294649 L 21.959383 142.294649 L 19.459383 142.294649 L 19.459383 136.294649" stroke="gray" fill="white" stroke-width="1px"></path><path d="M 19.459383 130.294649 L 21.959383 130.294649 L 21.959383 136.294649 L 19.459383 136.294649 L 19.459383 130.294649" stroke="gray" fill="white" stroke-width="1px"></path><path d="M 127.459383 214.123437 L 129.959383 214.123437 L 129.959383 220.123437 L 127.459383 220.123437 L 127.459383 214.123437" stroke="gray" fill="white" stroke-width="1px"></path><path d="M 127.459383 208.123437 L 129.959383 208.123437 L 129.959383 214.123437 L 127.459383 214.123437 L 127.459383 208.123437" stroke="gray" fill="white" stroke-width="1px"></path><path d="M 127.459383 202.123437 L 129.959383 202.123437 L 129.959383 208.123437 L 127.459383 208.123437 L 127.459383 202.123437" stroke="gray" fill="white" stroke-width="1px"></path><path d="M 127.459383 196.123437 L 129.959383 196.123437 L 129.959383 202.123437 L 127.459383 202.123437 L 127.459383 196.123437" stroke="gray" fill="white" stroke-width="1px"></path><path d="M 115.459383 214.123437 L 117.959383 214.123437 L 117.959383 220.123437 L 115.459383 220.123437 L 115.459383 214.123437" stroke="gray" fill="white" stroke-width="1px"></path><path d="M 115.459383 208.123437 L 117.959383 208.123437 L 117.959383 214.123437 L 115.459383 214.123437 L 115.459383 208.123437" stroke="gray" fill="white" stroke-width="1px"></path><path d="M 115.459383 202.123437 L 117.959383 202.123437 L 117.959383 208.123437 L 115.459383 208.123437 L 115.459383 202.123437" stroke="gray" fill="white" stroke-width="1px"></path><path d="M 115.459383 196.123437 L 117.959383 196.123437 L 117.959383 202.123437 L 115.459383 202.123437 L 115.459383 196.123437" stroke="gray" fill="white" stroke-width="1px"></path><path d="M 187.459383 214.123437 L 189.959383 214.123437 L 189.959383 220.123437 L 187.459383 220.123437 L 187.459383 214.123437" stroke="gray" fill="white" stroke-width="1px"></path><path d="M 187.459383 208.123437 L 189.959383 208.123437 L 189.959383 214.123437 L 187.459383 214.123437 L 187.459383 208.123437" stroke="gray" fill="white" stroke-width="1px"></path><path d="M 175.459383 214.123437 L 177.959383 214.123437 L 177.959383 220.123437 L 175.459383 220.123437 L 175.459383 214.123437" stroke="gray" fill="white" stroke-width="1px"></path><path d="M 175.459383 208.123437 L 177.959383 208.123437 L 177.959383 214.123437 L 175.459383 214.123437 L 175.459383 208.123437" stroke="gray" fill="white" stroke-width="1px"></path><path d="M 175.459383 202.123437 L 177.959383 202.123437 L 177.959383 208.123437 L 175.459383 208.123437 L 175.459383 202.123437" stroke="gray" fill="white" stroke-width="1px"></path><path d="M 175.459383 196.123437 L 177.959383 196.123437 L 177.959383 202.123437 L 175.459383 202.123437 L 175.459383 196.123437" stroke="gray" fill="white" stroke-width="1px"></path><path d="M 163.459383 214.123437 L 165.959383 214.123437 L 165.959383 220.123437 L 163.459383 220.123437 L 163.459383 214.123437" stroke="gray" fill="white" stroke-width="1px"></path><path d="M 163.459383 208.123437 L 165.959383 208.123437 L 165.959383 214.123437 L 163.459383 214.123437 L 163.459383 208.123437" stroke="gray" fill="white" stroke-width="1px"></path><path d="M 163.459383 202.123437 L 165.959383 202.123437 L 165.959383 208.123437 L 163.459383 208.123437 L 163.459383 202.123437" stroke="gray" fill="white" stroke-width="1px"></path><path d="M 163.459383 196.123437 L 165.959383 196.123437 L 165.959383 202.123437 L 163.459383 202.123437 L 163.459383 196.123437" stroke="gray" fill="white" stroke-width="1px"></path><path d="M 211.459383 214.123437 L 213.959383 214.123437 L 213.959383 220.123437 L 211.459383 220.123437 L 211.459383 214.123437" stroke="gray" fill="white" stroke-width="1px"></path><path d="M 199.459383 214.123437 L 201.959383 214.123437 L 201.959383 220.123437 L 199.459383 220.123437 L 199.459383 214.123437" stroke="gray" fill="white" stroke-width="1px"></path><path d="M 271.459383 214.123437 L 273.959383 214.123437 L 273.959383 220.123437 L 271.459383 220.123437 L 271.459383 214.123437" stroke="gray" fill="white" stroke-width="1px"></path><path d="M 271.459383 208.123437 L 273.959383 208.123437 L 273.959383 214.123437 L 271.459383 214.123437 L 271.459383 208.123437" stroke="gray" fill="white" stroke-width="1px"></path><path d="M 271.459383 202.123437 L 273.959383 202.123437 L 273.959383 208.123437 L 271.459383 208.123437 L 271.459383 202.123437" stroke="gray" fill="white" stroke-width="1px"></path><path d="M 271.459383 196.123437 L 273.959383 196.123437 L 273.959383 202.123437 L 271.459383 202.123437 L 271.459383 196.123437" stroke="gray" fill="white" stroke-width="1px"></path><path d="M 259.459383 214.123437 L 261.959383 214.123437 L 261.959383 220.123437 L 259.459383 220.123437 L 259.459383 214.123437" stroke="gray" fill="white" stroke-width="1px"></path><path d="M 259.459383 208.123437 L 261.959383 208.123437 L 261.959383 214.123437 L 259.459383 214.123437 L 259.459383 208.123437" stroke="gray" fill="white" stroke-width="1px"></path><path d="M 259.459383 202.123437 L 261.959383 202.123437 L 261.959383 208.123437 L 259.459383 208.123437 L 259.459383 202.123437" stroke="gray" fill="white" stroke-width="1px"></path><path d="M 259.459383 196.123437 L 261.959383 196.123437 L 261.959383 202.123437 L 259.459383 202.123437 L 259.459383 196.123437" stroke="gray" fill="white" stroke-width="1px"></path><path d="M 247.459383 214.123437 L 249.959383 214.123437 L 249.959383 220.123437 L 247.459383 220.123437 L 247.459383 214.123437" stroke="gray" fill="white" stroke-width="1px"></path><path d="M 247.459383 208.123437 L 249.959383 208.123437 L 249.959383 214.123437 L 247.459383 214.123437 L 247.459383 208.123437" stroke="gray" fill="white" stroke-width="1px"></path><path d="M 247.459383 202.123437 L 249.959383 202.123437 L 249.959383 208.123437 L 247.459383 208.123437 L 247.459383 202.123437" stroke="gray" fill="white" stroke-width="1px"></path><path d="M 247.459383 196.123437 L 249.959383 196.123437 L 249.959383 202.123437 L 247.459383 202.123437 L 247.459383 196.123437" stroke="gray" fill="white" stroke-width="1px"></path><path d="M 235.459383 214.123437 L 237.959383 214.123437 L 237.959383 220.123437 L 235.459383 220.123437 L 235.459383 214.123437" stroke="gray" fill="white" stroke-width="1px"></path><path d="M 235.459383 208.123437 L 237.959383 208.123437 L 237.959383 214.123437 L 235.459383 214.123437 L 235.459383 208.123437" stroke="gray" fill="white" stroke-width="1px"></path><path d="M 235.459383 202.123437 L 237.959383 202.123437 L 237.959383 208.123437 L 235.459383 208.123437 L 235.459383 202.123437" stroke="gray" fill="white" stroke-width="1px"></path><path d="M 235.459383 196.123437 L 237.959383 196.123437 L 237.959383 202.123437 L 235.459383 202.123437 L 235.459383 196.123437" stroke="gray" fill="white" stroke-width="1px"></path><path d="M 22.000000 220.123437 L 22.000000 217.623437 L 16.000000 217.623437 L 16.000000 220.123437 L 22.000000 220.123437" stroke="gray" fill="white" stroke-width="1px"></path><path d="M 28.000000 220.123437 L 28.000000 217.623437 L 22.000000 217.623437 L 22.000000 220.123437 L 28.000000 220.123437" stroke="gray" fill="white" stroke-width="1px"></path><path d="M 34.000000 220.123437 L 34.000000 217.623437 L 28.000000 217.623437 L 28.000000 220.123437 L 34.000000 220.123437" stroke="gray" fill="white" stroke-width="1px"></path><path d="M 40.000000 220.123437 L 40.000000 217.623437 L 34.000000 217.623437 L 34.000000 220.123437 L 40.000000 220.123437" stroke="gray" fill="white" stroke-width="1px"></path><path d="M 22.000000 208.123437 L 22.000000 205.623437 L 16.000000 205.623437 L 16.000000 208.123437 L 22.000000 208.123437" stroke="gray" fill="white" stroke-width="1px"></path><path d="M 28.000000 208.123437 L 28.000000 205.623437 L 22.000000 205.623437 L 22.000000 208.123437 L 28.000000 208.123437" stroke="gray" fill="white" stroke-width="1px"></path><path d="M 34.000000 208.123437 L 34.000000 205.623437 L 28.000000 205.623437 L 28.000000 208.123437 L 34.000000 208.123437" stroke="gray" fill="white" stroke-width="1px"></path><path d="M 40.000000 208.123437 L 40.000000 205.623437 L 34.000000 205.623437 L 34.000000 208.123437 L 40.000000 208.123437" stroke="gray" fill="white" stroke-width="1px"></path><path d="M 22.000000 196.123437 L 22.000000 193.623437 L 16.000000 193.623437 L 16.000000 196.123437 L 22.000000 196.123437" stroke="gray" fill="white" stroke-width="1px"></path><path d="M 28.000000 196.123437 L 28.000000 193.623437 L 22.000000 193.623437 L 22.000000 196.123437 L 28.000000 196.123437" stroke="gray" fill="white" stroke-width="1px"></path><path d="M 34.000000 196.123437 L 34.000000 193.623437 L 28.000000 193.623437 L 28.000000 196.123437 L 34.000000 196.123437" stroke="gray" fill="white" stroke-width="1px"></path><path d="M 40.000000 196.123437 L 40.000000 193.623437 L 34.000000 193.623437 L 34.000000 196.123437 L 40.000000 196.123437" stroke="gray" fill="white" stroke-width="1px"></path><path d="M 22.000000 184.123437 L 22.000000 181.623437 L 16.000000 181.623437 L 16.000000 184.123437 L 22.000000 184.123437" stroke="gray" fill="white" stroke-width="1px"></path><path d="M 28.000000 184.123437 L 28.000000 181.623437 L 22.000000 181.623437 L 22.000000 184.123437 L 28.000000 184.123437" stroke="gray" fill="white" stroke-width="1px"></path><path d="M 34.000000 184.123437 L 34.000000 181.623437 L 28.000000 181.623437 L 28.000000 184.123437 L 34.000000 184.123437" stroke="gray" fill="white" stroke-width="1px"></path><path d="M 40.000000 184.123437 L 40.000000 181.623437 L 34.000000 181.623437 L 34.000000 184.123437 L 40.000000 184.123437" stroke="gray" fill="white" stroke-width="1px"></path><path d="M 266.794567 160.123437 L 266.794567 157.623437 L 260.794567 157.623437 L 260.794567 160.123437 L 266.794567 160.123437" stroke="gray" fill="white" stroke-width="1px"></path><path d="M 272.794567 160.123437 L 272.794567 157.623437 L 266.794567 157.623437 L 266.794567 160.123437 L 272.794567 160.123437" stroke="gray" fill="white" stroke-width="1px"></path><path d="M 278.794567 160.123437 L 278.794567 157.623437 L 272.794567 157.623437 L 272.794567 160.123437 L 278.794567 160.123437" stroke="gray" fill="white" stroke-width="1px"></path><path d="M 266.794567 148.123437 L 266.794567 145.623437 L 260.794567 145.623437 L 260.794567 148.123437 L 266.794567 148.123437" stroke="gray" fill="white" stroke-width="1px"></path><path d="M 272.794567 148.123437 L 272.794567 145.623437 L 266.794567 145.623437 L 266.794567 148.123437 L 272.794567 148.123437" stroke="gray" fill="white" stroke-width="1px"></path><path d="M 278.794567 148.123437 L 278.794567 145.623437 L 272.794567 145.623437 L 272.794567 148.123437 L 278.794567 148.123437" stroke="gray" fill="white" stroke-width="1px"></path><path d="M 266.794567 136.123437 L 266.794567 133.623437 L 260.794567 133.623437 L 260.794567 136.123437 L 266.794567 136.123437" stroke="gray" fill="white" stroke-width="1px"></path><path d="M 272.794567 136.123437 L 272.794567 133.623437 L 266.794567 133.623437 L 266.794567 136.123437 L 272.794567 136.123437" stroke="gray" fill="white" stroke-width="1px"></path><path d="M 278.794567 136.123437 L 278.794567 133.623437 L 272.794567 133.623437 L 272.794567 136.123437 L 278.794567 136.123437" stroke="gray" fill="white" stroke-width="1px"></path><path d="M 22.000000 220.123437 L 22.000000 222.623437 L 16.000000 222.623437 L 16.000000 220.123437 L 22.000000 220.123437" stroke="gray" fill="white" stroke-width="1px"></path><path d="M 28.000000 220.123437 L 28.000000 222.623437 L 22.000000 222.623437 L 22.000000 220.123437 L 28.000000 220.123437" stroke="gray" fill="white" stroke-width="1px"></path><path d="M 34.000000 220.123437 L 34.000000 222.623437 L 28.000000 222.623437 L 28.000000 220.123437 L 34.000000 220.123437" stroke="gray" fill="white" stroke-width="1px"></path><path d="M 40.000000 220.123437 L 40.000000 222.623437 L 34.000000 222.623437 L 34.000000 220.123437 L 40.000000 220.123437" stroke="gray" fill="white" stroke-width="1px"></path><path d="M 22.000000 208.123437 L 22.000000 210.623437 L 16.000000 210.623437 L 16.000000 208.123437 L 22.000000 208.123437" stroke="gray" fill="white" stroke-width="1px"></path><path d="M 28.000000 208.123437 L 28.000000 210.623437 L 22.000000 210.623437 L 22.000000 208.123437 L 28.000000 208.123437" stroke="gray" fill="white" stroke-width="1px"></path><path d="M 34.000000 208.123437 L 34.000000 210.623437 L 28.000000 210.623437 L 28.000000 208.123437 L 34.000000 208.123437" stroke="gray" fill="white" stroke-width="1px"></path><path d="M 40.000000 208.123437 L 40.000000 210.623437 L 34.000000 210.623437 L 34.000000 208.123437 L 40.000000 208.123437" stroke="gray" fill="white" stroke-width="1px"></path><path d="M 22.000000 196.123437 L 22.000000 198.623437 L 16.000000 198.623437 L 16.000000 196.123437 L 22.000000 196.123437" stroke="gray" fill="white" stroke-width="1px"></path><path d="M 28.000000 196.123437 L 28.000000 198.623437 L 22.000000 198.623437 L 22.000000 196.123437 L 28.000000 196.123437" stroke="gray" fill="white" stroke-width="1px"></path><path d="M 34.000000 196.123437 L 34.000000 198.623437 L 28.000000 198.623437 L 28.000000 196.123437 L 34.000000 196.123437" stroke="gray" fill="white" stroke-width="1px"></path><path d="M 40.000000 196.123437 L 40.000000 198.623437 L 34.000000 198.623437 L 34.000000 196.123437 L 40.000000 196.123437" stroke="gray" fill="white" stroke-width="1px"></path><path d="M 22.000000 184.123437 L 22.000000 186.623437 L 16.000000 186.623437 L 16.000000 184.123437 L 22.000000 184.123437" stroke="gray" fill="white" stroke-width="1px"></path><path d="M 28.000000 184.123437 L 28.000000 186.623437 L 22.000000 186.623437 L 22.000000 184.123437 L 28.000000 184.123437" stroke="gray" fill="white" stroke-width="1px"></path><path d="M 34.000000 184.123437 L 34.000000 186.623437 L 28.000000 186.623437 L 28.000000 184.123437 L 34.000000 184.123437" stroke="gray" fill="white" stroke-width="1px"></path><path d="M 40.000000 184.123437 L 40.000000 186.623437 L 34.000000 186.623437 L 34.000000 184.123437 L 40.000000 184.123437" stroke="gray" fill="white" stroke-width="1px"></path><path d="M 266.794567 160.123437 L 266.794567 162.623437 L 260.794567 162.623437 L 260.794567 160.123437 L 266.794567 160.123437" stroke="gray" fill="white" stroke-width="1px"></path><path d="M 272.794567 160.123437 L 272.794567 162.623437 L 266.794567 162.623437 L 266.794567 160.123437 L 272.794567 160.123437" stroke="gray" fill="white" stroke-width="1px"></path><path d="M 278.794567 160.123437 L 278.794567 162.623437 L 272.794567 162.623437 L 272.794567 160.123437 L 278.794567 160.123437" stroke="gray" fill="white" stroke-width="1px"></path><path d="M 266.794567 148.123437 L 266.794567 150.623437 L 260.794567 150.623437 L 260.794567 148.123437 L 266.794567 148.123437" stroke="gray" fill="white" stroke-width="1px"></path><path d="M 272.794567 148.123437 L 272.794567 150.623437 L 266.794567 150.623437 L 266.794567 148.123437 L 272.794567 148.123437" stroke="gray" fill="white" stroke-width="1px"></path><path d="M 278.794567 148.123437 L 278.794567 150.623437 L 272.794567 150.623437 L 272.794567 148.123437 L 278.794567 148.123437" stroke="gray" fill="white" stroke-width="1px"></path><path d="M 266.794567 136.123437 L 266.794567 138.623437 L 260.794567 138.623437 L 260.794567 136.123437 L 266.794567 136.123437" stroke="gray" fill="white" stroke-width="1px"></path><path d="M 272.794567 136.123437 L 272.794567 138.623437 L 266.794567 138.623437 L 266.794567 136.123437 L 272.794567 136.123437" stroke="gray" fill="white" stroke-width="1px"></path><path d="M 278.794567 136.123437 L 278.794567 138.623437 L 272.794567 138.623437 L 272.794567 136.123437 L 278.794567 136.123437" stroke="gray" fill="white" stroke-width="1px"></path><path d="M 271.459383 23.918395 L 268.959383 23.918395 L 268.959383 29.918395 L 271.459383 29.918395 L 271.459383 23.918395" stroke="gray" fill="white" stroke-width="1px"></path><path d="M 271.459383 17.918395 L 268.959383 17.918395 L 268.959383 23.918395 L 271.459383 23.918395 L 271.459383 17.918395" stroke="gray" fill="white" stroke-width="1px"></path><path d="M 259.459383 24.949629 L 256.959383 24.949629 L 256.959383 30.949629 L 259.459383 30.949629 L 259.459383 24.949629" stroke="gray" fill="white" stroke-width="1px"></path><path d="M 259.459383 18.949629 L 256.959383 18.949629 L 256.959383 24.949629 L 259.459383 24.949629 L 259.459383 18.949629" stroke="gray" fill="white" stroke-width="1px"></path><path d="M 259.459383 12.949629 L 256.959383 12.949629 L 256.959383 18.949629 L 259.459383 18.949629 L 259.459383 12.949629" stroke="gray" fill="white" stroke-width="1px"></path><path d="M 247.459383 25.980863 L 244.959383 25.980863 L 244.959383 31.980863 L 247.459383 31.980863 L 247.459383 25.980863" stroke="gray" fill="white" stroke-width="1px"></path><path d="M 247.459383 19.980863 L 244.959383 19.980863 L 244.959383 25.980863 L 247.459383 25.980863 L 247.459383 19.980863" stroke="gray" fill="white" stroke-width="1px"></path><path d="M 247.459383 13.980863 L 244.959383 13.980863 L 244.959383 19.980863 L 247.459383 19.980863 L 247.459383 13.980863" stroke="gray" fill="white" stroke-width="1px"></path><path d="M 235.459383 27.012096 L 232.959383 27.012096 L 232.959383 33.012096 L 235.459383 33.012096 L 235.459383 27.012096" stroke="gray" fill="white" stroke-width="1px"></path><path d="M 235.459383 21.012096 L 232.959383 21.012096 L 232.959383 27.012096 L 235.459383 27.012096 L 235.459383 21.012096" stroke="gray" fill="white" stroke-width="1px"></path><path d="M 235.459383 15.012096 L 232.959383 15.012096 L 232.959383 21.012096 L 235.459383 21.012096 L 235.459383 15.012096" stroke="gray" fill="white" stroke-width="1px"></path><path d="M 163.459383 101.033125 L 160.959383 101.033125 L 160.959383 107.033125 L 163.459383 107.033125 L 163.459383 101.033125" stroke="gray" fill="white" stroke-width="1px"></path><path d="M 163.459383 95.033125 L 160.959383 95.033125 L 160.959383 101.033125 L 163.459383 101.033125 L 163.459383 95.033125" stroke="gray" fill="white" stroke-width="1px"></path><path d="M 163.459383 89.033125 L 160.959383 89.033125 L 160.959383 95.033125 L 163.459383 95.033125 L 163.459383 89.033125" stroke="gray" fill="white" stroke-width="1px"></path><path d="M 163.459383 83.033125 L 160.959383 83.033125 L 160.959383 89.033125 L 163.459383 89.033125 L 163.459383 83.033125" stroke="gray" fill="white" stroke-width="1px"></path><path d="M 127.459383 101.033125 L 124.959383 101.033125 L 124.959383 107.033125 L 127.459383 107.033125 L 127.459383 101.033125" stroke="gray" fill="white" stroke-width="1px"></path><path d="M 115.459383 101.033125 L 112.959383 101.033125 L 112.959383 107.033125 L 115.459383 107.033125 L 115.459383 101.033125" stroke="gray" fill="white" stroke-width="1px"></path><path d="M 103.459383 101.033125 L 100.959383 101.033125 L 100.959383 107.033125 L 103.459383 107.033125 L 103.459383 101.033125" stroke="gray" fill="white" stroke-width="1px"></path><path d="M 31.459383 48.396374 L 28.959383 48.396374 L 28.959383 54.396374 L 31.459383 54.396374 L 31.459383 48.396374" stroke="gray" fill="white" stroke-width="1px"></path><path d="M 31.459383 42.396374 L 28.959383 42.396374 L 28.959383 48.396374 L 31.459383 48.396374 L 31.459383 42.396374" stroke="gray" fill="white" stroke-width="1px"></path><path d="M 31.459383 36.396374 L 28.959383 36.396374 L 28.959383 42.396374 L 31.459383 42.396374 L 31.459383 36.396374" stroke="gray" fill="white" stroke-width="1px"></path><path d="M 31.459383 30.396374 L 28.959383 30.396374 L 28.959383 36.396374 L 31.459383 36.396374 L 31.459383 30.396374" stroke="gray" fill="white" stroke-width="1px"></path><path d="M 31.459383 24.396374 L 28.959383 24.396374 L 28.959383 30.396374 L 31.459383 30.396374 L 31.459383 24.396374" stroke="gray" fill="white" stroke-width="1px"></path><path d="M 31.459383 18.396374 L 28.959383 18.396374 L 28.959383 24.396374 L 31.459383 24.396374 L 31.459383 18.396374" stroke="gray" fill="white" stroke-width="1px"></path><path d="M 19.459383 49.105236 L 16.959383 49.105236 L 16.959383 55.105236 L 19.459383 55.105236 L 19.459383 49.105236" stroke="gray" fill="white" stroke-width="1px"></path><path d="M 19.459383 43.105236 L 16.959383 43.105236 L 16.959383 49.105236 L 19.459383 49.105236 L 19.459383 43.105236" stroke="gray" fill="white" stroke-width="1px"></path><path d="M 19.459383 37.105236 L 16.959383 37.105236 L 16.959383 43.105236 L 19.459383 43.105236 L 19.459383 37.105236" stroke="gray" fill="white" stroke-width="1px"></path><path d="M 19.459383 31.105236 L 16.959383 31.105236 L 16.959383 37.105236 L 19.459383 37.105236 L 19.459383 31.105236" stroke="gray" fill="white" stroke-width="1px"></path><path d="M 19.459383 25.105236 L 16.959383 25.105236 L 16.959383 31.105236 L 19.459383 31.105236 L 19.459383 25.105236" stroke="gray" fill="white" stroke-width="1px"></path><path d="M 19.459383 19.105236 L 16.959383 19.105236 L 16.959383 25.105236 L 19.459383 25.105236 L 19.459383 19.105236" stroke="gray" fill="white" stroke-width="1px"></path><path d="M 19.459383 13.105236 L 16.959383 13.105236 L 16.959383 19.105236 L 19.459383 19.105236 L 19.459383 13.105236" stroke="gray" fill="white" stroke-width="1px"></path><path d="M 271.459383 23.918395 L 273.959383 23.918395 L 273.959383 29.918395 L 271.459383 29.918395 L 271.459383 23.918395" stroke="gray" fill="white" stroke-width="1px"></path><path d="M 271.459383 17.918395 L 273.959383 17.918395 L 273.959383 23.918395 L 271.459383 23.918395 L 271.459383 17.918395" stroke="gray" fill="white" stroke-width="1px"></path><path d="M 259.459383 24.949629 L 261.959383 24.949629 L 261.959383 30.949629 L 259.459383 30.949629 L 259.459383 24.949629" stroke="gray" fill="white" stroke-width="1px"></path><path d="M 259.459383 18.949629 L 261.959383 18.949629 L 261.959383 24.949629 L 259.459383 24.949629 L 259.459383 18.949629" stroke="gray" fill="white" stroke-width="1px"></path><path d="M 259.459383 12.949629 L 261.959383 12.949629 L 261.959383 18.949629 L 259.459383 18.949629 L 259.459383 12.949629" stroke="gray" fill="white" stroke-width="1px"></path><path d="M 247.459383 25.980863 L 249.959383 25.980863 L 249.959383 31.980863 L 247.459383 31.980863 L 247.459383 25.980863" stroke="gray" fill="white" stroke-width="1px"></path><path d="M 247.459383 19.980863 L 249.959383 19.980863 L 249.959383 25.980863 L 247.459383 25.980863 L 247.459383 19.980863" stroke="gray" fill="white" stroke-width="1px"></path><path d="M 247.459383 13.980863 L 249.959383 13.980863 L 249.959383 19.980863 L 247.459383 19.980863 L 247.459383 13.980863" stroke="gray" fill="white" stroke-width="1px"></path><path d="M 235.459383 27.012096 L 237.959383 27.012096 L 237.959383 33.012096 L 235.459383 33.012096 L 235.459383 27.012096" stroke="gray" fill="white" stroke-width="1px"></path><path d="M 235.459383 21.012096 L 237.959383 21.012096 L 237.959383 27.012096 L 235.459383 27.012096 L 235.459383 21.012096" stroke="gray" fill="white" stroke-width="1px"></path><path d="M 235.459383 15.012096 L 237.959383 15.012096 L 237.959383 21.012096 L 235.459383 21.012096 L 235.459383 15.012096" stroke="gray" fill="white" stroke-width="1px"></path><path d="M 175.459383 86.190430 L 177.959383 86.190430 L 177.959383 92.190430 L 175.459383 92.190430 L 175.459383 86.190430" stroke="gray" fill="white" stroke-width="1px"></path><path d="M 163.459383 101.033125 L 165.959383 101.033125 L 165.959383 107.033125 L 163.459383 107.033125 L 163.459383 101.033125" stroke="gray" fill="white" stroke-width="1px"></path><path d="M 163.459383 95.033125 L 165.959383 95.033125 L 165.959383 101.033125 L 163.459383 101.033125 L 163.459383 95.033125" stroke="gray" fill="white" stroke-width="1px"></path><path d="M 163.459383 89.033125 L 165.959383 89.033125 L 165.959383 95.033125 L 163.459383 95.033125 L 163.459383 89.033125" stroke="gray" fill="white" stroke-width="1px"></path><path d="M 163.459383 83.033125 L 165.959383 83.033125 L 165.959383 89.033125 L 163.459383 89.033125 L 163.459383 83.033125" stroke="gray" fill="white" stroke-width="1px"></path><path d="M 127.459383 101.033125 L 129.959383 101.033125 L 129.959383 107.033125 L 127.459383 107.033125 L 127.459383 101.033125" stroke="gray" fill="white" stroke-width="1px"></path><path d="M 115.459383 101.033125 L 117.959383 101.033125 L 117.959383 107.033125 L 115.459383 107.033125 L 115.459383 101.033125" stroke="gray" fill="white" stroke-width="1px"></path><path d="M 103.459383 101.033125 L 105.959383 101.033125 L 105.959383 107.033125 L 103.459383 107.033125 L 103.459383 101.033125" stroke="gray" fill="white" stroke-width="1px"></path><path d="M 31.459383 48.396374 L 33.959383 48.396374 L 33.959383 54.396374 L 31.459383 54.396374 L 31.459383 48.396374" stroke="gray" fill="white" stroke-width="1px"></path><path d="M 31.459383 42.396374 L 33.959383 42.396374 L 33.959383 48.396374 L 31.459383 48.396374 L 31.459383 42.396374" stroke="gray" fill="white" stroke-width="1px"></path><path d="M 31.459383 36.396374 L 33.959383 36.396374 L 33.959383 42.396374 L 31.459383 42.396374 L 31.459383 36.396374" stroke="gray" fill="white" stroke-width="1px"></path><path d="M 31.459383 30.396374 L 33.959383 30.396374 L 33.959383 36.396374 L 31.459383 36.396374 L 31.459383 30.396374" stroke="gray" fill="white" stroke-width="1px"></path><path d="M 31.459383 24.396374 L 33.959383 24.396374 L 33.959383 30.396374 L 31.459383 30.396374 L 31.459383 24.396374" stroke="gray" fill="white" stroke-width="1px"></path><path d="M 31.459383 18.396374 L 33.959383 18.396374 L 33.959383 24.396374 L 31.459383 24.396374 L 31.459383 18.396374" stroke="gray" fill="white" stroke-width="1px"></path><path d="M 19.459383 49.105236 L 21.959383 49.105236 L 21.959383 55.105236 L 19.459383 55.105236 L 19.459383 49.105236" stroke="gray" fill="white" stroke-width="1px"></path><path d="M 19.459383 43.105236 L 21.959383 43.105236 L 21.959383 49.105236 L 19.459383 49.105236 L 19.459383 43.105236" stroke="gray" fill="white" stroke-width="1px"></path><path d="M 19.459383 37.105236 L 21.959383 37.105236 L 21.959383 43.105236 L 19.459383 43.105236 L 19.459383 37.105236" stroke="gray" fill="white" stroke-width="1px"></path><path d="M 19.459383 31.105236 L 21.959383 31.105236 L 21.959383 37.105236 L 19.459383 37.105236 L 19.459383 31.105236" stroke="gray" fill="white" stroke-width="1px"></path><path d="M 19.459383 25.105236 L 21.959383 25.105236 L 21.959383 31.105236 L 19.459383 31.105236 L 19.459383 25.105236" stroke="gray" fill="white" stroke-width="1px"></path><path d="M 19.459383 19.105236 L 21.959383 19.105236 L 21.959383 25.105236 L 19.459383 25.105236 L 19.459383 19.105236" stroke="gray" fill="white" stroke-width="1px"></path><path d="M 19.459383 13.105236 L 21.959383 13.105236 L 21.959383 19.105236 L 19.459383 19.105236 L 19.459383 13.105236" stroke="gray" fill="white" stroke-width="1px"></path><path d="M 257.215230 101.263579 L 257.215230 98.763579 L 251.215230 98.763579 L 251.215230 101.263579 L 257.215230 101.263579" stroke="gray" fill="white" stroke-width="1px"></path><path d="M 263.215230 101.263579 L 263.215230 98.763579 L 257.215230 98.763579 L 257.215230 101.263579 L 263.215230 101.263579" stroke="gray" fill="white" stroke-width="1px"></path><path d="M 269.215230 101.263579 L 269.215230 98.763579 L 263.215230 98.763579 L 263.215230 101.263579 L 269.215230 101.263579" stroke="gray" fill="white" stroke-width="1px"></path><path d="M 275.215230 101.263579 L 275.215230 98.763579 L 269.215230 98.763579 L 269.215230 101.263579 L 275.215230 101.263579" stroke="gray" fill="white" stroke-width="1px"></path><path d="M 254.761886 89.263579 L 254.761886 86.763579 L 248.761886 86.763579 L 248.761886 89.263579 L 254.761886 89.263579" stroke="gray" fill="white" stroke-width="1px"></path><path d="M 260.761886 89.263579 L 260.761886 86.763579 L 254.761886 86.763579 L 254.761886 89.263579 L 260.761886 89.263579" stroke="gray" fill="white" stroke-width="1px"></path><path d="M 266.761886 89.263579 L 266.761886 86.763579 L 260.761886 86.763579 L 260.761886 89.263579 L 266.761886 89.263579" stroke="gray" fill="white" stroke-width="1px"></path><path d="M 272.761886 89.263579 L 272.761886 86.763579 L 266.761886 86.763579 L 266.761886 89.263579 L 272.761886 89.263579" stroke="gray" fill="white" stroke-width="1px"></path><path d="M 278.761886 89.263579 L 278.761886 86.763579 L 272.761886 86.763579 L 272.761886 89.263579 L 278.761886 89.263579" stroke="gray" fill="white" stroke-width="1px"></path><path d="M 252.308541 77.263579 L 252.308541 74.763579 L 246.308541 74.763579 L 246.308541 77.263579 L 252.308541 77.263579" stroke="gray" fill="white" stroke-width="1px"></path><path d="M 258.308541 77.263579 L 258.308541 74.763579 L 252.308541 74.763579 L 252.308541 77.263579 L 258.308541 77.263579" stroke="gray" fill="white" stroke-width="1px"></path><path d="M 264.308541 77.263579 L 264.308541 74.763579 L 258.308541 74.763579 L 258.308541 77.263579 L 264.308541 77.263579" stroke="gray" fill="white" stroke-width="1px"></path><path d="M 270.308541 77.263579 L 270.308541 74.763579 L 264.308541 74.763579 L 264.308541 77.263579 L 270.308541 77.263579" stroke="gray" fill="white" stroke-width="1px"></path><path d="M 276.308541 77.263579 L 276.308541 74.763579 L 270.308541 74.763579 L 270.308541 77.263579 L 276.308541 77.263579" stroke="gray" fill="white" stroke-width="1px"></path><path d="M 213.038336 101.263579 L 213.038336 98.763579 L 207.038336 98.763579 L 207.038336 101.263579 L 213.038336 101.263579" stroke="gray" fill="white" stroke-width="1px"></path><path d="M 219.038336 101.263579 L 219.038336 98.763579 L 213.038336 98.763579 L 213.038336 101.263579 L 219.038336 101.263579" stroke="gray" fill="white" stroke-width="1px"></path><path d="M 225.038336 101.263579 L 225.038336 98.763579 L 219.038336 98.763579 L 219.038336 101.263579 L 225.038336 101.263579" stroke="gray" fill="white" stroke-width="1px"></path><path d="M 231.038336 101.263579 L 231.038336 98.763579 L 225.038336 98.763579 L 225.038336 101.263579 L 231.038336 101.263579" stroke="gray" fill="white" stroke-width="1px"></path><path d="M 237.038336 101.263579 L 237.038336 98.763579 L 231.038336 98.763579 L 231.038336 101.263579 L 237.038336 101.263579" stroke="gray" fill="white" stroke-width="1px"></path><path d="M 215.622023 89.263579 L 215.622023 86.763579 L 209.622023 86.763579 L 209.622023 89.263579 L 215.622023 89.263579" stroke="gray" fill="white" stroke-width="1px"></path><path d="M 221.622023 89.263579 L 221.622023 86.763579 L 215.622023 86.763579 L 215.622023 89.263579 L 221.622023 89.263579" stroke="gray" fill="white" stroke-width="1px"></path><path d="M 227.622023 89.263579 L 227.622023 86.763579 L 221.622023 86.763579 L 221.622023 89.263579 L 227.622023 89.263579" stroke="gray" fill="white" stroke-width="1px"></path><path d="M 233.622023 89.263579 L 233.622023 86.763579 L 227.622023 86.763579 L 227.622023 89.263579 L 233.622023 89.263579" stroke="gray" fill="white" stroke-width="1px"></path><path d="M 22.000000 101.263579 L 22.000000 98.763579 L 16.000000 98.763579 L 16.000000 101.263579 L 22.000000 101.263579" stroke="gray" fill="white" stroke-width="1px"></path><path d="M 28.000000 101.263579 L 28.000000 98.763579 L 22.000000 98.763579 L 22.000000 101.263579 L 28.000000 101.263579" stroke="gray" fill="white" stroke-width="1px"></path><path d="M 34.000000 101.263579 L 34.000000 98.763579 L 28.000000 98.763579 L 28.000000 101.263579 L 34.000000 101.263579" stroke="gray" fill="white" stroke-width="1px"></path><path d="M 40.000000 101.263579 L 40.000000 98.763579 L 34.000000 98.763579 L 34.000000 101.263579 L 40.000000 101.263579" stroke="gray" fill="white" stroke-width="1px"></path><path d="M 46.000000 101.263579 L 46.000000 98.763579 L 40.000000 98.763579 L 40.000000 101.263579 L 46.000000 101.263579" stroke="gray" fill="white" stroke-width="1px"></path><path d="M 52.000000 101.263579 L 52.000000 98.763579 L 46.000000 98.763579 L 46.000000 101.263579 L 52.000000 101.263579" stroke="gray" fill="white" stroke-width="1px"></path><path d="M 58.000000 101.263579 L 58.000000 98.763579 L 52.000000 98.763579 L 52.000000 101.263579 L 58.000000 101.263579" stroke="gray" fill="white" stroke-width="1px"></path><path d="M 22.000000 89.263579 L 22.000000 86.763579 L 16.000000 86.763579 L 16.000000 89.263579 L 22.000000 89.263579" stroke="gray" fill="white" stroke-width="1px"></path><path d="M 28.000000 89.263579 L 28.000000 86.763579 L 22.000000 86.763579 L 22.000000 89.263579 L 28.000000 89.263579" stroke="gray" fill="white" stroke-width="1px"></path><path d="M 34.000000 89.263579 L 34.000000 86.763579 L 28.000000 86.763579 L 28.000000 89.263579 L 34.000000 89.263579" stroke="gray" fill="white" stroke-width="1px"></path><path d="M 40.000000 89.263579 L 40.000000 86.763579 L 34.000000 86.763579 L 34.000000 89.263579 L 40.000000 89.263579" stroke="gray" fill="white" stroke-width="1px"></path><path d="M 46.000000 89.263579 L 46.000000 86.763579 L 40.000000 86.763579 L 40.000000 89.263579 L 46.000000 89.263579" stroke="gray" fill="white" stroke-width="1px"></path><path d="M 52.000000 89.263579 L 52.000000 86.763579 L 46.000000 86.763579 L 46.000000 89.263579 L 52.000000 89.263579" stroke="gray" fill="white" stroke-width="1px"></path><path d="M 58.000000 89.263579 L 58.000000 86.763579 L 52.000000 86.763579 L 52.000000 89.263579 L 58.000000 89.263579" stroke="gray" fill="white" stroke-width="1px"></path><path d="M 22.000000 77.263579 L 22.000000 74.763579 L 16.000000 74.763579 L 16.000000 77.263579 L 22.000000 77.263579" stroke="gray" fill="white" stroke-width="1px"></path><path d="M 28.000000 77.263579 L 28.000000 74.763579 L 22.000000 74.763579 L 22.000000 77.263579 L 28.000000 77.263579" stroke="gray" fill="white" stroke-width="1px"></path><path d="M 34.000000 77.263579 L 34.000000 74.763579 L 28.000000 74.763579 L 28.000000 77.263579 L 34.000000 77.263579" stroke="gray" fill="white" stroke-width="1px"></path><path d="M 40.000000 77.263579 L 40.000000 74.763579 L 34.000000 74.763579 L 34.000000 77.263579 L 40.000000 77.263579" stroke="gray" fill="white" stroke-width="1px"></path><path d="M 46.000000 77.263579 L 46.000000 74.763579 L 40.000000 74.763579 L 40.000000 77.263579 L 46.000000 77.263579" stroke="gray" fill="white" stroke-width="1px"></path><path d="M 52.000000 77.263579 L 52.000000 74.763579 L 46.000000 74.763579 L 46.000000 77.263579 L 52.000000 77.263579" stroke="gray" fill="white" stroke-width="1px"></path><path d="M 58.000000 77.263579 L 58.000000 74.763579 L 52.000000 74.763579 L 52.000000 77.263579 L 58.000000 77.263579" stroke="gray" fill="white" stroke-width="1px"></path><path d="M 257.215230 101.263579 L 257.215230 103.763579 L 251.215230 103.763579 L 251.215230 101.263579 L 257.215230 101.263579" stroke="gray" fill="white" stroke-width="1px"></path><path d="M 263.215230 101.263579 L 263.215230 103.763579 L 257.215230 103.763579 L 257.215230 101.263579 L 263.215230 101.263579" stroke="gray" fill="white" stroke-width="1px"></path><path d="M 269.215230 101.263579 L 269.215230 103.763579 L 263.215230 103.763579 L 263.215230 101.263579 L 269.215230 101.263579" stroke="gray" fill="white" stroke-width="1px"></path><path d="M 275.215230 101.263579 L 275.215230 103.763579 L 269.215230 103.763579 L 269.215230 101.263579 L 275.215230 101.263579" stroke="gray" fill="white" stroke-width="1px"></path><path d="M 254.761886 89.263579 L 254.761886 91.763579 L 248.761886 91.763579 L 248.761886 89.263579 L 254.761886 89.263579" stroke="gray" fill="white" stroke-width="1px"></path><path d="M 260.761886 89.263579 L 260.761886 91.763579 L 254.761886 91.763579 L 254.761886 89.263579 L 260.761886 89.263579" stroke="gray" fill="white" stroke-width="1px"></path><path d="M 266.761886 89.263579 L 266.761886 91.763579 L 260.761886 91.763579 L 260.761886 89.263579 L 266.761886 89.263579" stroke="gray" fill="white" stroke-width="1px"></path><path d="M 272.761886 89.263579 L 272.761886 91.763579 L 266.761886 91.763579 L 266.761886 89.263579 L 272.761886 89.263579" stroke="gray" fill="white" stroke-width="1px"></path><path d="M 278.761886 89.263579 L 278.761886 91.763579 L 272.761886 91.763579 L 272.761886 89.263579 L 278.761886 89.263579" stroke="gray" fill="white" stroke-width="1px"></path><path d="M 252.308541 77.263579 L 252.308541 79.763579 L 246.308541 79.763579 L 246.308541 77.263579 L 252.308541 77.263579" stroke="gray" fill="white" stroke-width="1px"></path><path d="M 258.308541 77.263579 L 258.308541 79.763579 L 252.308541 79.763579 L 252.308541 77.263579 L 258.308541 77.263579" stroke="gray" fill="white" stroke-width="1px"></path><path d="M 264.308541 77.263579 L 264.308541 79.763579 L 258.308541 79.763579 L 258.308541 77.263579 L 264.308541 77.263579" stroke="gray" fill="white" stroke-width="1px"></path><path d="M 270.308541 77.263579 L 270.308541 79.763579 L 264.308541 79.763579 L 264.308541 77.263579 L 270.308541 77.263579" stroke="gray" fill="white" stroke-width="1px"></path><path d="M 276.308541 77.263579 L 276.308541 79.763579 L 270.308541 79.763579 L 270.308541 77.263579 L 276.308541 77.263579" stroke="gray" fill="white" stroke-width="1px"></path><path d="M 213.038336 101.263579 L 213.038336 103.763579 L 207.038336 103.763579 L 207.038336 101.263579 L 213.038336 101.263579" stroke="gray" fill="white" stroke-width="1px"></path><path d="M 219.038336 101.263579 L 219.038336 103.763579 L 213.038336 103.763579 L 213.038336 101.263579 L 219.038336 101.263579" stroke="gray" fill="white" stroke-width="1px"></path><path d="M 225.038336 101.263579 L 225.038336 103.763579 L 219.038336 103.763579 L 219.038336 101.263579 L 225.038336 101.263579" stroke="gray" fill="white" stroke-width="1px"></path><path d="M 231.038336 101.263579 L 231.038336 103.763579 L 225.038336 103.763579 L 225.038336 101.263579 L 231.038336 101.263579" stroke="gray" fill="white" stroke-width="1px"></path><path d="M 237.038336 101.263579 L 237.038336 103.763579 L 231.038336 103.763579 L 231.038336 101.263579 L 237.038336 101.263579" stroke="gray" fill="white" stroke-width="1px"></path><path d="M 215.622023 89.263579 L 215.622023 91.763579 L 209.622023 91.763579 L 209.622023 89.263579 L 215.622023 89.263579" stroke="gray" fill="white" stroke-width="1px"></path><path d="M 221.622023 89.263579 L 221.622023 91.763579 L 215.622023 91.763579 L 215.622023 89.263579 L 221.622023 89.263579" stroke="gray" fill="white" stroke-width="1px"></path><path d="M 227.622023 89.263579 L 227.622023 91.763579 L 221.622023 91.763579 L 221.622023 89.263579 L 227.622023 89.263579" stroke="gray" fill="white" stroke-width="1px"></path><path d="M 233.622023 89.263579 L 233.622023 91.763579 L 227.622023 91.763579 L 227.622023 89.263579 L 233.622023 89.263579" stroke="gray" fill="white" stroke-width="1px"></path><path d="M 22.000000 101.263579 L 22.000000 103.763579 L 16.000000 103.763579 L 16.000000 101.263579 L 22.000000 101.263579" stroke="gray" fill="white" stroke-width="1px"></path><path d="M 28.000000 101.263579 L 28.000000 103.763579 L 22.000000 103.763579 L 22.000000 101.263579 L 28.000000 101.263579" stroke="gray" fill="white" stroke-width="1px"></path><path d="M 34.000000 101.263579 L 34.000000 103.763579 L 28.000000 103.763579 L 28.000000 101.263579 L 34.000000 101.263579" stroke="gray" fill="white" stroke-width="1px"></path><path d="M 40.000000 101.263579 L 40.000000 103.763579 L 34.000000 103.763579 L 34.000000 101.263579 L 40.000000 101.263579" stroke="gray" fill="white" stroke-width="1px"></path><path d="M 46.000000 101.263579 L 46.000000 103.763579 L 40.000000 103.763579 L 40.000000 101.263579 L 46.000000 101.263579" stroke="gray" fill="white" stroke-width="1px"></path><path d="M 52.000000 101.263579 L 52.000000 103.763579 L 46.000000 103.763579 L 46.000000 101.263579 L 52.000000 101.263579" stroke="gray" fill="white" stroke-width="1px"></path><path d="M 58.000000 101.263579 L 58.000000 103.763579 L 52.000000 103.763579 L 52.000000 101.263579 L 58.000000 101.263579" stroke="gray" fill="white" stroke-width="1px"></path><path d="M 22.000000 89.263579 L 22.000000 91.763579 L 16.000000 91.763579 L 16.000000 89.263579 L 22.000000 89.263579" stroke="gray" fill="white" stroke-width="1px"></path><path d="M 28.000000 89.263579 L 28.000000 91.763579 L 22.000000 91.763579 L 22.000000 89.263579 L 28.000000 89.263579" stroke="gray" fill="white" stroke-width="1px"></path><path d="M 34.000000 89.263579 L 34.000000 91.763579 L 28.000000 91.763579 L 28.000000 89.263579 L 34.000000 89.263579" stroke="gray" fill="white" stroke-width="1px"></path><path d="M 40.000000 89.263579 L 40.000000 91.763579 L 34.000000 91.763579 L 34.000000 89.263579 L 40.000000 89.263579" stroke="gray" fill="white" stroke-width="1px"></path><path d="M 46.000000 89.263579 L 46.000000 91.763579 L 40.000000 91.763579 L 40.000000 89.263579 L 46.000000 89.263579" stroke="gray" fill="white" stroke-width="1px"></path><path d="M 52.000000 89.263579 L 52.000000 91.763579 L 46.000000 91.763579 L 46.000000 89.263579 L 52.000000 89.263579" stroke="gray" fill="white" stroke-width="1px"></path><path d="M 58.000000 89.263579 L 58.000000 91.763579 L 52.000000 91.763579 L 52.000000 89.263579 L 58.000000 89.263579" stroke="gray" fill="white" stroke-width="1px"></path><path d="M 22.000000 77.263579 L 22.000000 79.763579 L 16.000000 79.763579 L 16.000000 77.263579 L 22.000000 77.263579" stroke="gray" fill="white" stroke-width="1px"></path><path d="M 28.000000 77.263579 L 28.000000 79.763579 L 22.000000 79.763579 L 22.000000 77.263579 L 28.000000 77.263579" stroke="gray" fill="white" stroke-width="1px"></path><path d="M 34.000000 77.263579 L 34.000000 79.763579 L 28.000000 79.763579 L 28.000000 77.263579 L 34.000000 77.263579" stroke="gray" fill="white" stroke-width="1px"></path><path d="M 40.000000 77.263579 L 40.000000 79.763579 L 34.000000 79.763579 L 34.000000 77.263579 L 40.000000 77.263579" stroke="gray" fill="white" stroke-width="1px"></path><path d="M 46.000000 77.263579 L 46.000000 79.763579 L 40.000000 79.763579 L 40.000000 77.263579 L 46.000000 77.263579" stroke="gray" fill="white" stroke-width="1px"></path><path d="M 52.000000 77.263579 L 52.000000 79.763579 L 46.000000 79.763579 L 46.000000 77.263579 L 52.000000 77.263579" stroke="gray" fill="white" stroke-width="1px"></path><path d="M 58.000000 77.263579 L 58.000000 79.763579 L 52.000000 79.763579 L 52.000000 77.263579 L 58.000000 77.263579" stroke="gray" fill="white" stroke-width="1px"></path></g><g id="crv-base"><path d="M 221.371570 123.090312 L 221.371570 169.241094 L 120.000633 169.241094 L 120.000633 156.444206 L 126.051258 156.444206 L 126.051258 128.832500 L 123.590320 128.832500 L 123.590320 125.551250 L 126.051258 125.551250 L 126.051258 123.858132 L 91.315945 123.858125 L 91.315945 134.738750 L 64.258762 134.738750 L 64.258762 123.687497 L 10.000000 123.687497 L 10.000000 226.180625 L 64.258758 226.180625 L 64.258758 192.357500 L 91.315945 192.357500 L 91.315945 220.123437 L 283.459383 220.123437 L 283.459383 123.090312 L 221.371570 123.090312" stroke="black" fill="none" stroke-width="1px"></path><path d="M 221.371570 10.000000 L 221.371570 56.150781 L 120.000633 56.150781 L 120.000633 43.353893 L 126.051258 43.353893 L 126.051258 15.742187 L 123.590320 15.742187 L 123.590320 12.460937 L 126.051258 12.460937 L 126.051258 10.767819 L 91.315945 10.767812 L 91.315945 21.648438 L 64.258762 21.648438 L 64.258762 10.597185 L 10.000000 10.597185 L 10.000000 113.090312 L 64.258758 113.090312 L 64.258758 79.267187 L 91.315945 79.267187 L 91.315945 107.033125 L 283.459383 107.033125 L 283.459383 10.000000 L 221.371570 10.000000" stroke="black" fill="none" stroke-width="1px"></path><path d="M 10.387195 156.559062 L 10.387195 154.590312 L 12.355945 154.590312 L 12.355945 156.559062 L 10.387195 156.559062" stroke="black" fill="white" stroke-width="1px"></path><path d="M 10.387195 43.468750 L 10.387195 41.500000 L 12.355945 41.500000 L 12.355945 43.468750 L 10.387195 43.468750" stroke="black" fill="white" stroke-width="1px"></path><path d="M 10.387195 188.059062 L 10.387195 186.090312 L 12.355945 186.090312 L 12.355945 188.059062 L 10.387195 188.059062" stroke="black" fill="white" stroke-width="1px"></path><path d="M 10.387195 74.968750 L 10.387195 73.000000 L 12.355945 73.000000 L 12.355945 74.968750 L 10.387195 74.968750" stroke="black" fill="white" stroke-width="1px"></path><path d="M 10.387195 219.559062 L 10.387195 217.590312 L 12.355945 217.590312 L 12.355945 219.559062 L 10.387195 219.559062" stroke="black" fill="white" stroke-width="1px"></path><path d="M 10.387195 106.468750 L 10.387195 104.500000 L 12.355945 104.500000 L 12.355945 106.468750 L 10.387195 106.468750" stroke="black" fill="white" stroke-width="1px"></path><path d="M 60.754383 128.340312 L 60.754383 125.387187 L 63.871570 125.387187 L 63.871570 128.340312 L 60.754383 128.340312" stroke="black" fill="white" stroke-width="1px"></path><path d="M 60.754383 15.250000 L 60.754383 12.296875 L 63.871570 12.296875 L 63.871570 15.250000 L 60.754383 15.250000" stroke="black" fill="white" stroke-width="1px"></path><path d="M 280.598133 219.230937 L 280.598133 217.262187 L 282.566883 217.262187 L 282.566883 219.230937 L 280.598133 219.230937" stroke="black" fill="white" stroke-width="1px"></path><path d="M 280.598133 106.140625 L 280.598133 104.171875 L 282.566883 104.171875 L 282.566883 106.140625 L 280.598133 106.140625" stroke="black" fill="white" stroke-width="1px"></path><path d="M 280.598133 188.059062 L 280.598133 186.090312 L 282.566883 186.090312 L 282.566883 188.059062 L 280.598133 188.059062" stroke="black" fill="white" stroke-width="1px"></path><path d="M 280.598133 74.968750 L 280.598133 73.000000 L 282.566883 73.000000 L 282.566883 74.968750 L 280.598133 74.968750" stroke="black" fill="white" stroke-width="1px"></path><path d="M 280.598133 156.559050 L 280.598133 154.590300 L 282.566883 154.590300 L 282.566883 156.559050 L 280.598133 156.559050" stroke="black" fill="white" stroke-width="1px"></path><path d="M 280.598133 43.468737 L 280.598133 41.499987 L 282.566883 41.499987 L 282.566883 43.468737 L 280.598133 43.468737" stroke="black" fill="white" stroke-width="1px"></path><path d="M 248.605945 127.355937 L 248.605945 123.418437 L 251.887195 123.418437 L 251.887195 127.355937 L 248.605945 127.355937" stroke="black" fill="white" stroke-width="1px"></path><path d="M 248.605945 14.265625 L 248.605945 10.328125 L 251.887195 10.328125 L 251.887195 14.265625 L 248.605945 14.265625" stroke="black" fill="white" stroke-width="1px"></path><path d="M 248.605945 157.871562 L 248.605945 153.934062 L 251.887195 153.934062 L 251.887195 157.871562 L 248.605945 157.871562" stroke="black" fill="white" stroke-width="1px"></path><path d="M 248.605945 44.781250 L 248.605945 40.843750 L 251.887195 40.843750 L 251.887195 44.781250 L 248.605945 44.781250" stroke="black" fill="white" stroke-width="1px"></path><path d="M 248.605945 189.043437 L 248.605945 185.105937 L 251.887195 185.105937 L 251.887195 189.043437 L 248.605945 189.043437" stroke="black" fill="white" stroke-width="1px"></path><path d="M 248.605945 75.953125 L 248.605945 72.015625 L 251.887195 72.015625 L 251.887195 75.953125 L 248.605945 75.953125" stroke="black" fill="white" stroke-width="1px"></path><path d="M 248.934070 219.230937 L 248.934070 216.277812 L 251.887195 216.277812 L 251.887195 219.230937 L 248.934070 219.230937" stroke="black" fill="white" stroke-width="1px"></path><path d="M 248.934070 106.140625 L 248.934070 103.187500 L 251.887195 103.187500 L 251.887195 106.140625 L 248.934070 106.140625" stroke="black" fill="white" stroke-width="1px"></path><path d="M 218.090320 189.043437 L 218.090320 185.105937 L 221.371570 185.105937 L 221.371570 189.043437 L 218.090320 189.043437" stroke="black" fill="white" stroke-width="1px"></path><path d="M 218.090320 75.953125 L 218.090320 72.015625 L 221.371570 72.015625 L 221.371570 75.953125 L 218.090320 75.953125" stroke="black" fill="white" stroke-width="1px"></path><path d="M 218.254383 219.230937 L 218.254383 216.277812 L 221.207508 216.277812 L 221.207508 219.230937 L 218.254383 219.230937" stroke="black" fill="white" stroke-width="1px"></path><path d="M 218.254383 106.140625 L 218.254383 103.187500 L 221.207508 103.187500 L 221.207508 106.140625 L 218.254383 106.140625" stroke="black" fill="white" stroke-width="1px"></path><path d="M 186.590320 189.043437 L 186.590320 185.105937 L 189.871570 185.105937 L 189.871570 189.043437 L 186.590320 189.043437" stroke="black" fill="white" stroke-width="1px"></path><path d="M 186.590320 75.953125 L 186.590320 72.015625 L 189.871570 72.015625 L 189.871570 75.953125 L 186.590320 75.953125" stroke="black" fill="white" stroke-width="1px"></path><path d="M 186.754383 219.230937 L 186.754383 216.277812 L 189.707508 216.277812 L 189.707508 219.230937 L 186.754383 219.230937" stroke="black" fill="white" stroke-width="1px"></path><path d="M 186.754383 106.140625 L 186.754383 103.187500 L 189.707508 103.187500 L 189.707508 106.140625 L 186.754383 106.140625" stroke="black" fill="white" stroke-width="1px"></path><path d="M 155.090320 189.043437 L 155.090320 185.105937 L 158.371570 185.105937 L 158.371570 189.043437 L 155.090320 189.043437" stroke="black" fill="white" stroke-width="1px"></path><path d="M 155.090320 75.953125 L 155.090320 72.015625 L 158.371570 72.015625 L 158.371570 75.953125 L 155.090320 75.953125" stroke="black" fill="white" stroke-width="1px"></path><path d="M 155.254383 219.230937 L 155.254383 216.277812 L 158.207508 216.277812 L 158.207508 219.230937 L 155.254383 219.230937" stroke="black" fill="white" stroke-width="1px"></path><path d="M 155.254383 106.140625 L 155.254383 103.187500 L 158.207508 103.187500 L 158.207508 106.140625 L 155.254383 106.140625" stroke="black" fill="white" stroke-width="1px"></path><path d="M 123.590320 189.043437 L 123.590320 185.105937 L 126.871570 185.105937 L 126.871570 189.043437 L 123.590320 189.043437" stroke="black" fill="white" stroke-width="1px"></path><path d="M 123.590320 75.953125 L 123.590320 72.015625 L 126.871570 72.015625 L 126.871570 75.953125 L 123.590320 75.953125" stroke="black" fill="white" stroke-width="1px"></path><path d="M 123.754383 219.230937 L 123.754383 216.277812 L 126.707508 216.277812 L 126.707508 219.230937 L 123.754383 219.230937" stroke="black" fill="white" stroke-width="1px"></path><path d="M 123.754383 106.140625 L 123.754383 103.187500 L 126.707508 103.187500 L 126.707508 106.140625 L 123.754383 106.140625" stroke="black" fill="white" stroke-width="1px"></path><path d="M 92.090320 157.543437 L 92.090320 153.605937 L 95.371570 153.605937 L 95.371570 157.543437 L 92.090320 157.543437" stroke="black" fill="white" stroke-width="1px"></path><path d="M 92.090320 44.453125 L 92.090320 40.515625 L 95.371570 40.515625 L 95.371570 44.453125 L 92.090320 44.453125" stroke="black" fill="white" stroke-width="1px"></path><path d="M 92.090320 189.043437 L 92.090320 185.105937 L 95.371570 185.105937 L 95.371570 189.043437 L 92.090320 189.043437" stroke="black" fill="white" stroke-width="1px"></path><path d="M 92.090320 75.953125 L 92.090320 72.015625 L 95.371570 72.015625 L 95.371570 75.953125 L 92.090320 75.953125" stroke="black" fill="white" stroke-width="1px"></path><path d="M 92.090320 128.504375 L 92.090320 125.551250 L 95.207508 125.551250 L 95.207508 128.504375 L 92.090320 128.504375" stroke="black" fill="white" stroke-width="1px"></path><path d="M 92.090320 15.414062 L 92.090320 12.460937 L 95.207508 12.460937 L 95.207508 15.414062 L 92.090320 15.414062" stroke="black" fill="white" stroke-width="1px"></path><path d="M 60.590320 157.215312 L 60.590320 153.934062 L 63.871570 153.934062 L 63.871570 157.215312 L 60.590320 157.215312" stroke="black" fill="white" stroke-width="1px"></path><path d="M 60.590320 44.125000 L 60.590320 40.843750 L 63.871570 40.843750 L 63.871570 44.125000 L 60.590320 44.125000" stroke="black" fill="white" stroke-width="1px"></path><path d="M 60.754383 219.230937 L 60.754383 216.277812 L 63.871570 216.277812 L 63.871570 219.230937 L 60.754383 219.230937" stroke="black" fill="white" stroke-width="1px"></path><path d="M 60.754383 106.140625 L 60.754383 103.187500 L 63.871570 103.187500 L 63.871570 106.140625 L 60.754383 106.140625" stroke="black" fill="white" stroke-width="1px"></path><path d="M 30.074695 128.504375 L 30.074695 125.223125 L 33.027820 125.223125 L 33.027820 128.504375 L 30.074695 128.504375" stroke="black" fill="white" stroke-width="1px"></path><path d="M 30.074695 15.414062 L 30.074695 12.132812 L 33.027820 12.132812 L 33.027820 15.414062 L 30.074695 15.414062" stroke="black" fill="white" stroke-width="1px"></path><path d="M 30.074695 157.215312 L 30.074695 153.934062 L 33.355945 153.934062 L 33.355945 157.215312 L 30.074695 157.215312" stroke="black" fill="white" stroke-width="1px"></path><path d="M 30.074695 44.125000 L 30.074695 40.843750 L 33.355945 40.843750 L 33.355945 44.125000 L 30.074695 44.125000" stroke="black" fill="white" stroke-width="1px"></path><path d="M 30.074695 188.715312 L 30.074695 185.434062 L 33.355945 185.434062 L 33.355945 188.715312 L 30.074695 188.715312" stroke="black" fill="white" stroke-width="1px"></path><path d="M 30.074695 75.625000 L 30.074695 72.343750 L 33.355945 72.343750 L 33.355945 75.625000 L 30.074695 75.625000" stroke="black" fill="white" stroke-width="1px"></path><path d="M 30.074695 219.230937 L 30.074695 216.277812 L 33.027820 216.277812 L 33.027820 219.230937 L 30.074695 219.230937" stroke="black" fill="white" stroke-width="1px"></path><path d="M 30.074695 106.140625 L 30.074695 103.187500 L 33.027820 103.187500 L 33.027820 106.140625 L 30.074695 106.140625" stroke="black" fill="white" stroke-width="1px"></path><path d="M 10.387195 127.191875 L 10.387195 125.223125 L 12.355945 125.223125 L 12.355945 127.191875 L 10.387195 127.191875" stroke="black" fill="white" stroke-width="1px"></path><path d="M 10.387195 14.101562 L 10.387195 12.132812 L 12.355945 12.132812 L 12.355945 14.101562 L 10.387195 14.101562" stroke="black" fill="white" stroke-width="1px"></path><path d="M 60.590320 189.863750 L 60.590320 185.434062 L 63.871570 185.434062 L 63.871570 188.715312 L 62.230945 188.715312 L 62.230945 189.863750 L 60.590320 189.863750" stroke="black" fill="white" stroke-width="1px"></path><path d="M 60.590320 76.773437 L 60.590320 72.343750 L 63.871570 72.343750 L 63.871570 75.625000 L 62.230945 75.625000 L 62.230945 76.773437 L 60.590320 76.773437" stroke="black" fill="white" stroke-width="1px"></path></g></svg>