<svg width="293.459383" height="236.180625" xmlns="http://www.w3.org/2000/svg" xmlns:xlink="http://www.w3.org/1999/xlink" version="1.1"><g id="crv-background"><path d="M 221.371570 123.090312 L 221.371570 169.241094 L 120.000633 169.241094 L 120.000633 156.444206 L 126.051258 156.444206 L 126.051258 128.832500 L 123.590320 128.832500 L 123.590320 125.551250 L 126.051258 125.551250 L 126.051258 123.858132 L 91.315945 123.858125 L 91.315945 134.738750 L 64.258762 134.738750 L 64.258762 123.687497 L 10.000000 123.687497 L 10.000000 226.180625 L 64.258758 226.180625 L 64.258758 192.357500 L 91.315945 192.357500 L 91.315945 220.123437 L 283.459383 220.123437 L 283.459383 123.090312 L 221.371570 123.090312" stroke="none" fill="white" stroke-width="1px"></path><path d="M 221.371570 10.000000 L 221.371570 56.150781 L 120.000633 56.150781 L 120.000633 43.353893 L 126.051258 43.353893 L 126.051258 15.742187 L 123.590320 15.742187 L 123.590320 12.460937 L 126.051258 12.460937 L 126.051258 10.767819 L 91.315945 10.767812 L 91.315945 21.648438 L 64.258762 21.648438 L 64.258762 10.597185 L 10.000000 10.597185 L 10.000000 113.090312 L 64.258758 113.090312 L 64.258758 79.267187 L 91.315945 79.267187 L 91.315945 107.033125 L 283.459383 107.033125 L 283.459383 10.000000 L 221.371570 10.000000" stroke="none" fill="white" stroke-width="1px"></path></g><g id="crv-nbhd"><path d="M 221.737654 10.000004 L 221.737654 31.234185 L 221.737654 52.468366 L 226.081217 53.382214 L 230.424781 54.296061 L 256.942082 52.314260 L 283.459383 50.332459 L 283.459383 30.166230 L 283.459382 10.000000 L 252.598547 10.000002 L 221.737654 10.000004" stroke="#DD2222" fill="none" stroke-width="1px"></path><path d="M 283.459383 107.033125 L 283.459383 78.682792 L 283.459383 50.332459 L 256.942082 52.314260 L 230.424781 54.296061 L 246.592598 80.664593 L 262.760416 107.033125 L 273.109897 107.033125 L 283.459383 107.033125" stroke="#DD2222" fill="none" stroke-width="1px"></path><path d="M 215.838921 107.033125 L 239.299668 107.033125 L 262.760416 107.033125 L 246.592598 80.664593 L 230.424781 54.296061 L 226.081217 53.382214 L 221.737654 52.468366 L 221.737654 65.809848 L 221.737654 79.151330 L 215.372248 79.151330 L 209.006842 79.151330 L 212.422882 93.092228 L 215.838921 107.033125" stroke="#DD2222" fill="none" stroke-width="1px"></path><path d="M 209.006842 79.151330 L 193.034707 79.151330 L 177.062571 79.151329 L 171.528385 93.092227 L 165.994199 107.033125 L 190.916560 107.033125 L 215.838921 107.033125 L 212.422882 93.092228 L 209.006842 79.151330" stroke="#DD2222" fill="none" stroke-width="1px"></path><path d="M 177.062571 79.151329 L 157.185996 79.151329 L 137.309421 79.151328 L 136.347287 93.092227 L 135.385153 107.033125 L 150.689676 107.033125 L 165.994199 107.033125 L 171.528385 93.092227 L 177.062571 79.151329" stroke="#DD2222" fill="none" stroke-width="1px"></path><path d="M 137.309421 79.151328 L 114.312683 79.151328 L 91.315945 79.151327 L 91.315945 93.092226 L 91.315945 107.033125 L 113.350549 107.033125 L 135.385153 107.033125 L 136.347287 93.092230 L 137.309421 79.151328" stroke="#DD2222" fill="none" stroke-width="1px"></path><path d="M 64.258758 113.090312 L 64.258758 85.269564 L 64.258758 57.448816 L 37.129379 57.794410 L 10.000000 58.140003 L 10.000000 85.615158 L 10.000000 113.090312 L 37.129379 113.090312 L 64.258758 113.090312" stroke="#DD2222" fill="none" stroke-width="1px"></path><path d="M 10.000000 10.597184 L 10.000000 34.368594 L 10.000000 58.140003 L 37.129379 57.794410 L 64.258758 57.448816 L 64.258758 56.799799 L 64.258758 56.150781 L 64.258758 33.373983 L 64.258758 10.597185 L 37.129379 10.597185 L 10.000000 10.597184" stroke="#DD2222" fill="none" stroke-width="1px"></path><path d="M 10.000000 123.687497 L 10.000000 148.398798 L 10.000000 173.110098 L 37.129379 176.697061 L 64.258758 180.284024 L 64.258758 174.762559 L 64.258758 169.241094 L 64.258758 146.464296 L 64.258758 123.687497 L 37.129385 123.687497 L 10.000000 123.687497" stroke="#DD2222" fill="none" stroke-width="1px"></path><path d="M 10.000000 173.110098 L 10.000000 199.645362 L 10.000000 226.180625 L 37.129379 226.180625 L 64.258758 226.180625 L 64.258758 203.232325 L 64.258758 180.284024 L 37.129385 176.697062 L 10.000000 173.110098" stroke="#DD2222" fill="none" stroke-width="1px"></path><path d="M 137.175667 192.043444 L 114.245806 192.043444 L 91.315945 192.043444 L 91.315945 206.083441 L 91.315945 220.123437 L 119.867595 220.123437 L 148.419244 220.123437 L 142.797456 206.083441 L 137.175667 192.043444" stroke="#DD2222" fill="none" stroke-width="1px"></path><path d="M 185.395630 192.043444 L 161.285648 192.043444 L 137.175667 192.043444 L 142.797456 206.083441 L 148.419244 220.123437 L 167.013401 220.123437 L 185.607557 220.123437 L 185.501594 206.083444 L 185.395630 192.043444" stroke="#DD2222" fill="none" stroke-width="1px"></path><path d="M 229.870955 192.043444 L 207.633292 192.043444 L 185.395630 192.043444 L 185.501593 206.083441 L 185.607557 220.123437 L 205.332358 220.123437 L 225.057159 220.123437 L 227.464057 206.083444 L 229.870955 192.043444" stroke="#DD2222" fill="none" stroke-width="1px"></path><path d="M 283.459383 220.123437 L 283.459383 194.520838 L 283.459383 168.918238 L 261.598517 168.426993 L 239.737652 167.935748 L 239.737652 179.989596 L 239.737652 192.043444 L 234.804303 192.043444 L 229.870955 192.043444 L 227.464057 206.083441 L 225.057159 220.123437 L 254.258264 220.123437 L 283.459383 220.123437" stroke="#DD2222" fill="none" stroke-width="1px"></path><path d="M 239.737652 123.090312 L 239.737652 145.513030 L 239.737652 167.935748 L 261.598517 168.426993 L 283.459383 168.918238 L 283.459383 146.004275 L 283.459383 123.090312 L 261.598595 123.090312 L 239.737652 123.090312" stroke="#DD2222" fill="none" stroke-width="1px"></path></g><g id="crv-amen"><path d="M 62.596496 170.015505 L 62.596496 149.425279 L 62.596496 128.835054 L 55.947451 128.835054 L 49.298405 128.835054 L 49.298405 149.425279 L 49.298405 170.015505 L 55.947451 170.015505 L 62.596496 170.015505" stroke="none" fill="#2288CC" stroke-width="1px"></path><path d="M 49.285449 221.480219 L 55.934495 221.480219 L 62.583540 221.480219 L 62.583540 203.121579 L 62.583540 184.762938 L 55.934495 183.883822 L 49.285449 183.004706 L 49.285449 202.242462 L 49.285449 221.480219" stroke="none" fill="#2288CC" stroke-width="1px"></path><path d="M 131.224080 217.364982 L 138.386340 217.364982 L 145.548601 217.364982 L 141.051170 206.132985 L 136.553739 194.900988 L 132.322433 194.900988 L 128.091128 194.900988 L 125.565162 195.912416 L 123.039195 196.923844 L 127.131638 207.144413 L 131.224080 217.364982" stroke="none" fill="#2288CC" stroke-width="1px"></path><path d="M 170.625586 217.315438 L 177.274821 217.315438 L 183.924056 217.315438 L 183.839285 206.083441 L 183.754514 194.851444 L 177.105279 194.851444 L 170.456044 194.851444 L 170.540815 206.083441 L 170.625586 217.315438" stroke="none" fill="#2288CC" stroke-width="1px"></path><path d="M 200.377601 194.851444 L 193.728366 194.851444 L 187.079131 194.851444 L 187.163902 206.083441 L 187.248673 217.315438 L 193.897908 217.315438 L 200.547143 217.315438 L 200.462372 206.083441 L 200.377601 194.851444" stroke="none" fill="#2288CC" stroke-width="1px"></path><path d="M 279.087210 183.784119 L 279.087210 177.133394 L 279.087210 170.482670 L 261.598517 170.089674 L 244.109825 169.696678 L 244.109825 176.347402 L 244.109825 182.998126 L 261.598517 183.391122 L 279.087210 183.784119" stroke="none" fill="#2288CC" stroke-width="1px"></path><path d="M 244.109825 153.069867 L 244.109825 159.720592 L 244.109825 166.371316 L 261.598517 166.764312 L 279.087210 167.157308 L 279.087210 160.506584 L 279.087210 153.855860 L 261.598517 153.462864 L 244.109825 153.069867" stroke="none" fill="#2288CC" stroke-width="1px"></path><path d="M 236.706177 14.368277 L 230.057133 14.368277 L 223.408086 14.368277 L 223.408085 31.355622 L 223.408085 48.342967 L 226.882936 49.074045 L 230.357787 49.805123 L 233.531982 49.567896 L 236.706177 49.330669 L 236.706177 31.849473 L 236.706177 14.368277" stroke="none" fill="#2288CC" stroke-width="1px"></path><path d="M 250.471382 58.366120 L 243.013732 58.923476 L 235.556082 59.480832 L 248.490335 80.575658 L 261.424589 101.670483 L 267.578577 101.670483 L 273.732567 101.670483 L 274.928397 100.937262 L 276.124227 100.204041 L 263.297804 79.285081 L 250.471382 58.366120" stroke="none" fill="#2288CC" stroke-width="1px"></path><path d="M 236.541735 67.663993 L 233.367540 62.487113 L 230.193346 57.310233 L 226.718495 56.579155 L 223.243644 55.848077 L 223.243644 67.908777 L 223.243644 79.969476 L 229.892690 79.969477 L 236.541735 79.969477 L 236.541735 73.816735 L 236.541735 67.663993" stroke="none" fill="#2288CC" stroke-width="1px"></path><path d="M 199.753916 104.246324 L 206.599667 104.246324 L 213.445418 104.246324 L 210.712587 93.093606 L 207.979755 81.940888 L 201.707619 81.940888 L 195.435483 81.940888 L 194.894359 82.073483 L 194.353235 82.206079 L 197.053575 93.226201 L 199.753916 104.246324" stroke="none" fill="#2288CC" stroke-width="1px"></path><path d="M 152.112933 81.939508 L 145.448072 81.939508 L 138.783210 81.939508 L 138.013502 93.092227 L 137.243795 104.244945 L 143.908657 104.244945 L 150.573519 104.244945 L 151.343226 93.092227 L 152.112933 81.939508" stroke="none" fill="#2288CC" stroke-width="1px"></path><path d="M 120.581640 104.244945 L 127.246502 104.244945 L 133.911364 104.244945 L 134.681071 93.092227 L 135.450779 81.939508 L 128.785917 81.939508 L 122.121055 81.939508 L 121.351348 93.092227 L 120.581640 104.244945" stroke="none" fill="#2288CC" stroke-width="1px"></path><path d="M 49.299461 107.536744 L 55.948507 107.536744 L 62.597553 107.536744 L 62.597553 85.280145 L 62.597553 63.023547 L 55.948507 63.108247 L 49.299461 63.192947 L 49.299461 85.364845 L 49.299461 107.536744" stroke="none" fill="#2288CC" stroke-width="1px"></path><path d="M 15.425876 43.109318 L 15.425876 49.758903 L 15.425876 56.408488 L 37.129379 56.132013 L 58.832882 55.855539 L 58.832882 55.336325 L 58.832882 54.817111 L 58.832882 48.686740 L 58.832882 42.556369 L 37.129379 42.832843 L 15.425876 43.109318" stroke="none" fill="#2288CC" stroke-width="1px"></path></g><g id="crv-desk"><path d="M 31.459383 220.180625 L 28.959383 220.180625 L 28.959383 226.180625 L 31.459383 226.180625 L 31.459383 220.180625" stroke="gray" fill="white" stroke-width="1px"></path><path d="M 31.459383 214.180625 L 28.959383 214.180625 L 28.959383 220.180625 L 31.459383 220.180625 L 31.459383 214.180625" stroke="gray" fill="white" stroke-width="1px"></path><path d="M 31.459383 208.180625 L 28.959383 208.180625 L 28.959383 214.180625 L 31.459383 214.180625 L 31.459383 208.180625" stroke="gray" fill="white" stroke-width="1px"></path><path d="M 31.459383 202.180625 L 28.959383 202.180625 L 28.959383 208.180625 L 31.459383 208.180625 L 31.459383 202.180625" stroke="gray" fill="white" stroke-width="1px"></path><path d="M 31.459383 196.180625 L 28.959383 196.180625 L 28.959383 202.180625 L 31.459383 202.180625 L 31.459383 196.180625" stroke="gray" fill="white" stroke-width="1px"></path><path d="M 31.459383 190.180625 L 28.959383 190.180625 L 28.959383 196.180625 L 31.459383 196.180625 L 31.459383 190.180625" stroke="gray" fill="white" stroke-width="1px"></path><path d="M 31.459383 184.180625 L 28.959383 184.180625 L 28.959383 190.180625 L 31.459383 190.180625 L 31.459383 184.180625" stroke="gray" fill="white" stroke-width="1px"></path><path d="M 31.459383 178.180625 L 28.959383 178.180625 L 28.959383 184.180625 L 31.459383 184.180625 L 31.459383 178.180625" stroke="gray" fill="white" stroke-width="1px"></path><path d="M 19.459383 220.180625 L 16.959383 220.180625 L 16.959383 226.180625 L 19.459383 226.180625 L 19.459383 220.180625" stroke="gray" fill="white" stroke-width="1px"></path><path d="M 19.459383 214.180625 L 16.959383 214.180625 L 16.959383 220.180625 L 19.459383 220.180625 L 19.459383 214.180625" stroke="gray" fill="white" stroke-width="1px"></path><path d="M 19.459383 208.180625 L 16.959383 208.180625 L 16.959383 214.180625 L 19.459383 214.180625 L 19.459383 208.180625" stroke="gray" fill="white" stroke-width="1px"></path><path d="M 19.459383 202.180625 L 16.959383 202.180625 L 16.959383 208.180625 L 19.459383 208.180625 L 19.459383 202.180625" stroke="gray" fill="white" stroke-width="1px"></path><path d="M 19.459383 196.180625 L 16.959383 196.180625 L 16.959383 202.180625 L 19.459383 202.180625 L 19.459383 196.180625" stroke="gray" fill="white" stroke-width="1px"></path><path d="M 19.459383 190.180625 L 16.959383 190.180625 L 16.959383 196.180625 L 19.459383 196.180625 L 19.459383 190.180625" stroke="gray" fill="white" stroke-width="1px"></path><path d="M 19.459383 184.180625 L 16.959383 184.180625 L 16.959383 190.180625 L 19.459383 190.180625 L 19.459383 184.180625" stroke="gray" fill="white" stroke-width="1px"></path><path d="M 19.459383 178.180625 L 16.959383 178.180625 L 16.959383 184.180625 L 19.459383 184.180625 L 19.459383 178.180625" stroke="gray" fill="white" stroke-width="1px"></path><path d="M 115.459383 214.123437 L 112.959383 214.123437 L 112.959383 220.123437 L 115.459383 220.123437 L 115.459383 214.123437" stroke="gray" fill="white" stroke-width="1px"></path><path d="M 115.459383 208.123437 L 112.959383 208.123437 L 112.959383 214.123437 L 115.459383 214.123437 L 115.459383 208.123437" stroke="gray" fill="white" stroke-width="1px"></path><path d="M 115.459383 202.123437 L 112.959383 202.123437 L 112.959383 208.123437 L 115.459383 208.123437 L 115.459383 202.123437" stroke="gray" fill="white" stroke-width="1px"></path><path d="M 115.459383 196.123437 L 112.959383 196.123437 L 112.959383 202.123437 L 115.459383 202.123437 L 115.459383 196.123437" stroke="gray" fill="white" stroke-width="1px"></path><path d="M 103.459383 214.123437 L 100.959383 214.123437 L 100.959383 220.123437 L 103.459383 220.123437 L 103.459383 214.123437" stroke="gray" fill="white" stroke-width="1px"></path><path d="M 103.459383 208.123437 L 100.959383 208.123437 L 100.959383 214.123437 L 103.459383 214.123437 L 103.459383 208.123437" stroke="gray" fill="white" stroke-width="1px"></path><path d="M 103.459383 202.123437 L 100.959383 202.123437 L 100.959383 208.123437 L 103.459383 208.123437 L 103.459383 202.123437" stroke="gray" fill="white" stroke-width="1px"></path><path d="M 103.459383 196.123437 L 100.959383 196.123437 L 100.959383 202.123437 L 103.459383 202.123437 L 103.459383 196.123437" stroke="gray" fill="white" stroke-width="1px"></path><path d="M 163.459383 214.123437 L 160.959383 214.123437 L 160.959383 220.123437 L 163.459383 220.123437 L 163.459383 214.123437" stroke="gray" fill="white" stroke-width="1px"></path><path d="M 163.459383 208.123437 L 160.959383 208.123437 L 160.959383 214.123437 L 163.459383 214.123437 L 163.459383 208.123437" stroke="gray" fill="white" stroke-width="1px"></path><path d="M 163.459383 202.123437 L 160.959383 202.123437 L 160.959383 208.123437 L 163.459383 208.123437 L 163.459383 202.123437" stroke="gray" fill="white" stroke-width="1px"></path><path d="M 163.459383 196.123437 L 160.959383 196.123437 L 160.959383 202.123437 L 163.459383 202.123437 L 163.459383 196.123437" stroke="gray" fill="white" stroke-width="1px"></path><path d="M 151.459383 214.123437 L 148.959383 214.123437 L 148.959383 220.123437 L 151.459383 220.123437 L 151.459383 214.123437" stroke="gray" fill="white" stroke-width="1px"></path><path d="M 151.459383 208.123437 L 148.959383 208.123437 L 148.959383 214.123437 L 151.459383 214.123437 L 151.459383 208.123437" stroke="gray" fill="white" stroke-width="1px"></path><path d="M 151.459383 202.123437 L 148.959383 202.123437 L 148.959383 208.123437 L 151.459383 208.123437 L 151.459383 202.123437" stroke="gray" fill="white" stroke-width="1px"></path><path d="M 151.459383 196.123437 L 148.959383 196.123437 L 148.959383 202.123437 L 151.459383 202.123437 L 151.459383 196.123437" stroke="gray" fill="white" stroke-width="1px"></path><path d="M 223.459383 214.123437 L 220.959383 214.123437 L 220.959383 220.123437 L 223.459383 220.123437 L 223.459383 214.123437" stroke="gray" fill="white" stroke-width="1px"></path><path d="M 223.459383 208.123437 L 220.959383 208.123437 L 220.959383 214.123437 L 223.459383 214.123437 L 223.459383 208.123437" stroke="gray" fill="white" stroke-width="1px"></path><path d="M 223.459383 202.123437 L 220.959383 202.123437 L 220.959383 208.123437 L 223.459383 208.123437 L 223.459383 202.123437" stroke="gray" fill="white" stroke-width="1px"></path><path d="M 223.459383 196.123437 L 220.959383 196.123437 L 220.959383 202.123437 L 223.459383 202.123437 L 223.459383 196.123437" stroke="gray" fill="white" stroke-width="1px"></path><path d="M 211.459383 214.123437 L 208.959383 214.123437 L 208.959383 220.123437 L 211.459383 220.123437 L 211.459383 214.123437" stroke="gray" fill="white" stroke-width="1px"></path><path d="M 211.459383 208.123437 L 208.959383 208.123437 L 208.959383 214.123437 L 211.459383 214.123437 L 211.459383 208.123437" stroke="gray" fill="white" stroke-width="1px"></path><path d="M 211.459383 202.123437 L 208.959383 202.123437 L 208.959383 208.123437 L 211.459383 208.123437 L 211.459383 202.123437" stroke="gray" fill="white" stroke-width="1px"></path><path d="M 211.459383 196.123437 L 208.959383 196.123437 L 208.959383 202.123437 L 211.459383 202.123437 L 211.459383 196.123437" stroke="gray" fill="white" stroke-width="1px"></path><path d="M 271.459383 214.123437 L 268.959383 214.123437 L 268.959383 220.123437 L 271.459383 220.123437 L 271.459383 214.123437" stroke="gray" fill="white" stroke-width="1px"></path><path d="M 271.459383 208.123437 L 268.959383 208.123437 L 268.959383 214.123437 L 271.459383 214.123437 L 271.459383 208.123437" stroke="gray" fill="white" stroke-width="1px"></path><path d="M 271.459383 202.123437 L 268.959383 202.123437 L 268.959383 208.123437 L 271.459383 208.123437 L 271.459383 202.123437" stroke="gray" fill="white" stroke-width="1px"></path><path d="M 271.459383 196.123437 L 268.959383 196.123437 L 268.959383 202.123437 L 271.459383 202.123437 L 271.459383 196.123437" stroke="gray" fill="white" stroke-width="1px"></path><path d="M 271.459383 190.123437 L 268.959383 190.123437 L 268.959383 196.123437 L 271.459383 196.123437 L 271.459383 190.123437" stroke="gray" fill="white" stroke-width="1px"></path><path d="M 259.459383 214.123437 L 256.959383 214.123437 L 256.959383 220.123437 L 259.459383 220.123437 L 259.459383 214.123437" stroke="gray" fill="white" stroke-width="1px"></path><path d="M 259.459383 208.123437 L 256.959383 208.123437 L 256.959383 214.123437 L 259.459383 214.123437 L 259.459383 208.123437" stroke="gray" fill="white" stroke-width="1px"></path><path d="M 259.459383 202.123437 L 256.959383 202.123437 L 256.959383 208.123437 L 259.459383 208.123437 L 259.459383 202.123437" stroke="gray" fill="white" stroke-width="1px"></path><path d="M 259.459383 196.123437 L 256.959383 196.123437 L 256.959383 202.123437 L 259.459383 202.123437 L 259.459383 196.123437" stroke="gray" fill="white" stroke-width="1px"></path><path d="M 259.459383 190.123437 L 256.959383 190.123437 L 256.959383 196.123437 L 259.459383 196.123437 L 259.459383 190.123437" stroke="gray" fill="white" stroke-width="1px"></path><path d="M 247.459383 214.123437 L 244.959383 214.123437 L 244.959383 220.123437 L 247.459383 220.123437 L 247.459383 214.123437" stroke="gray" fill="white" stroke-width="1px"></path><path d="M 247.459383 208.123437 L 244.959383 208.123437 L 244.959383 214.123437 L 247.459383 214.123437 L 247.459383 208.123437" stroke="gray" fill="white" stroke-width="1px"></path><path d="M 247.459383 202.123437 L 244.959383 202.123437 L 244.959383 208.123437 L 247.459383 208.123437 L 247.459383 202.123437" stroke="gray" fill="white" stroke-width="1px"></path><path d="M 247.459383 196.123437 L 244.959383 196.123437 L 244.959383 202.123437 L 247.459383 202.123437 L 247.459383 196.123437" stroke="gray" fill="white" stroke-width="1px"></path><path d="M 247.459383 190.123437 L 244.959383 190.123437 L 244.959383 196.123437 L 247.459383 196.123437 L 247.459383 190.123437" stroke="gray" fill="white" stroke-width="1px"></path><path d="M 235.459383 214.123437 L 232.959383 214.123437 L 232.959383 220.123437 L 235.459383 220.123437 L 235.459383 214.123437" stroke="gray" fill="white" stroke-width="1px"></path><path d="M 235.459383 208.123437 L 232.959383 208.123437 L 232.959383 214.123437 L 235.459383 214.123437 L 235.459383 208.123437" stroke="gray" fill="white" stroke-width="1px"></path><path d="M 235.459383 202.123437 L 232.959383 202.123437 L 232.959383 208.123437 L 235.459383 208.123437 L 235.459383 202.123437" stroke="gray" fill="white" stroke-width="1px"></path><path d="M 235.459383 196.123437 L 232.959383 196.123437 L 232.959383 202.123437 L 235.459383 202.123437 L 235.459383 196.123437" stroke="gray" fill="white" stroke-width="1px"></path><path d="M 31.459383 220.180625 L 33.959383 220.180625 L 33.959383 226.180625 L 31.459383 226.180625 L 31.459383 220.180625" stroke="gray" fill="white" stroke-width="1px"></path><path d="M 31.459383 214.180625 L 33.959383 214.180625 L 33.959383 220.180625 L 31.459383 220.180625 L 31.459383 214.180625" stroke="gray" fill="white" stroke-width="1px"></path><path d="M 31.459383 208.180625 L 33.959383 208.180625 L 33.959383 214.180625 L 31.459383 214.180625 L 31.459383 208.180625" stroke="gray" fill="white" stroke-width="1px"></path><path d="M 31.459383 202.180625 L 33.959383 202.180625 L 33.959383 208.180625 L 31.459383 208.180625 L 31.459383 202.180625" stroke="gray" fill="white" stroke-width="1px"></path><path d="M 31.459383 196.180625 L 33.959383 196.180625 L 33.959383 202.180625 L 31.459383 202.180625 L 31.459383 196.180625" stroke="gray" fill="white" stroke-width="1px"></path><path d="M 31.459383 190.180625 L 33.959383 190.180625 L 33.959383 196.180625 L 31.459383 196.180625 L 31.459383 190.180625" stroke="gray" fill="white" stroke-width="1px"></path><path d="M 31.459383 184.180625 L 33.959383 184.180625 L 33.959383 190.180625 L 31.459383 190.180625 L 31.459383 184.180625" stroke="gray" fill="white" stroke-width="1px"></path><path d="M 31.459383 178.180625 L 33.959383 178.180625 L 33.959383 184.180625 L 31.459383 184.180625 L 31.459383 178.180625" stroke="gray" fill="white" stroke-width="1px"></path><path d="M 19.459383 220.180625 L 21.959383 220.180625 L 21.959383 226.180625 L 19.459383 226.180625 L 19.459383 220.180625" stroke="gray" fill="white" stroke-width="1px"></path><path d="M 19.459383 214.180625 L 21.959383 214.180625 L 21.959383 220.180625 L 19.459383 220.180625 L 19.459383 214.180625" stroke="gray" fill="white" stroke-width="1px"></path><path d="M 19.459383 208.180625 L 21.959383 208.180625 L 21.959383 214.180625 L 19.459383 214.180625 L 19.459383 208.180625" stroke="gray" fill="white" stroke-width="1px"></path><path d="M 19.459383 202.180625 L 21.959383 202.180625 L 21.959383 208.180625 L 19.459383 208.180625 L 19.459383 202.180625" stroke="gray" fill="white" stroke-width="1px"></path><path d="M 19.459383 196.180625 L 21.959383 196.180625 L 21.959383 202.180625 L 19.459383 202.180625 L 19.459383 196.180625" stroke="gray" fill="white" stroke-width="1px"></path><path d="M 19.459383 190.180625 L 21.959383 190.180625 L 21.959383 196.180625 L 19.459383 196.180625 L 19.459383 190.180625" stroke="gray" fill="white" stroke-width="1px"></path><path d="M 19.459383 184.180625 L 21.959383 184.180625 L 21.959383 190.180625 L 19.459383 190.180625 L 19.459383 184.180625" stroke="gray" fill="white" stroke-width="1px"></path><path d="M 19.459383 178.180625 L 21.959383 178.180625 L 21.959383 184.180625 L 19.459383 184.180625 L 19.459383 178.180625" stroke="gray" fill="white" stroke-width="1px"></path><path d="M 115.459383 214.123437 L 117.959383 214.123437 L 117.959383 220.123437 L 115.459383 220.123437 L 115.459383 214.123437" stroke="gray" fill="white" stroke-width="1px"></path><path d="M 115.459383 208.123437 L 117.959383 208.123437 L 117.959383 214.123437 L 115.459383 214.123437 L 115.459383 208.123437" stroke="gray" fill="white" stroke-width="1px"></path><path d="M 115.459383 202.123437 L 117.959383 202.123437 L 117.959383 208.123437 L 115.459383 208.123437 L 115.459383 202.123437" stroke="gray" fill="white" stroke-width="1px"></path><path d="M 115.459383 196.123437 L 117.959383 196.123437 L 117.959383 202.123437 L 115.459383 202.123437 L 115.459383 196.123437" stroke="gray" fill="white" stroke-width="1px"></path><path d="M 103.459383 214.123437 L 105.959383 214.123437 L 105.959383 220.123437 L 103.459383 220.123437 L 103.459383 214.123437" stroke="gray" fill="white" stroke-width="1px"></path><path d="M 103.459383 208.123437 L 105.959383 208.123437 L 105.959383 214.123437 L 103.459383 214.123437 L 103.459383 208.123437" stroke="gray" fill="white" stroke-width="1px"></path><path d="M 103.459383 202.123437 L 105.959383 202.123437 L 105.959383 208.123437 L 103.459383 208.123437 L 103.459383 202.123437" stroke="gray" fill="white" stroke-width="1px"></path><path d="M 103.459383 196.123437 L 105.959383 196.123437 L 105.959383 202.123437 L 103.459383 202.123437 L 103.459383 196.123437" stroke="gray" fill="white" stroke-width="1px"></path><path d="M 163.459383 214.123437 L 165.959383 214.123437 L 165.959383 220.123437 L 163.459383 220.123437 L 163.459383 214.123437" stroke="gray" fill="white" stroke-width="1px"></path><path d="M 163.459383 208.123437 L 165.959383 208.123437 L 165.959383 214.123437 L 163.459383 214.123437 L 163.459383 208.123437" stroke="gray" fill="white" stroke-width="1px"></path><path d="M 163.459383 202.123437 L 165.959383 202.123437 L 165.959383 208.123437 L 163.459383 208.123437 L 163.459383 202.123437" stroke="gray" fill="white" stroke-width="1px"></path><path d="M 163.459383 196.123437 L 165.959383 196.123437 L 165.959383 202.123437 L 163.459383 202.123437 L 163.459383 196.123437" stroke="gray" fill="white" stroke-width="1px"></path><path d="M 151.459383 214.123437 L 153.959383 214.123437 L 153.959383 220.123437 L 151.459383 220.123437 L 151.459383 214.123437" stroke="gray" fill="white" stroke-width="1px"></path><path d="M 151.459383 208.123437 L 153.959383 208.123437 L 153.959383 214.123437 L 151.459383 214.123437 L 151.459383 208.123437" stroke="gray" fill="white" stroke-width="1px"></path><path d="M 151.459383 202.123437 L 153.959383 202.123437 L 153.959383 208.123437 L 151.459383 208.123437 L 151.459383 202.123437" stroke="gray" fill="white" stroke-width="1px"></path><path d="M 151.459383 196.123437 L 153.959383 196.123437 L 153.959383 202.123437 L 151.459383 202.123437 L 151.459383 196.123437" stroke="gray" fill="white" stroke-width="1px"></path><path d="M 223.459383 202.123437 L 225.959383 202.123437 L 225.959383 208.123437 L 223.459383 208.123437 L 223.459383 202.123437" stroke="gray" fill="white" stroke-width="1px"></path><path d="M 223.459383 196.123437 L 225.959383 196.123437 L 225.959383 202.123437 L 223.459383 202.123437 L 223.459383 196.123437" stroke="gray" fill="white" stroke-width="1px"></path><path d="M 211.459383 214.123437 L 213.959383 214.123437 L 213.959383 220.123437 L 211.459383 220.123437 L 211.459383 214.123437" stroke="gray" fill="white" stroke-width="1px"></path><path d="M 211.459383 208.123437 L 213.959383 208.123437 L 213.959383 214.123437 L 211.459383 214.123437 L 211.459383 208.123437" stroke="gray" fill="white" stroke-width="1px"></path><path d="M 211.459383 202.123437 L 213.959383 202.123437 L 213.959383 208.123437 L 211.459383 208.123437 L 211.459383 202.123437" stroke="gray" fill="white" stroke-width="1px"></path><path d="M 211.459383 196.123437 L 213.959383 196.123437 L 213.959383 202.123437 L 211.459383 202.123437 L 211.459383 196.123437" stroke="gray" fill="white" stroke-width="1px"></path><path d="M 271.459383 214.123437 L 273.959383 214.123437 L 273.959383 220.123437 L 271.459383 220.123437 L 271.459383 214.123437" stroke="gray" fill="white" stroke-width="1px"></path><path d="M 271.459383 208.123437 L 273.959383 208.123437 L 273.959383 214.123437 L 271.459383 214.123437 L 271.459383 208.123437" stroke="gray" fill="white" stroke-width="1px"></path><path d="M 271.459383 202.123437 L 273.959383 202.123437 L 273.959383 208.123437 L 271.459383 208.123437 L 271.459383 202.123437" stroke="gray" fill="white" stroke-width="1px"></path><path d="M 271.459383 196.123437 L 273.959383 196.123437 L 273.959383 202.123437 L 271.459383 202.123437 L 271.459383 196.123437" stroke="gray" fill="white" stroke-width="1px"></path><path d="M 271.459383 190.123437 L 273.959383 190.123437 L 273.959383 196.123437 L 271.459383 196.123437 L 271.459383 190.123437" stroke="gray" fill="white" stroke-width="1px"></path><path d="M 259.459383 214.123437 L 261.959383 214.123437 L 261.959383 220.123437 L 259.459383 220.123437 L 259.459383 214.123437" stroke="gray" fill="white" stroke-width="1px"></path><path d="M 259.459383 208.123437 L 261.959383 208.123437 L 261.959383 214.123437 L 259.459383 214.123437 L 259.459383 208.123437" stroke="gray" fill="white" stroke-width="1px"></path><path d="M 259.459383 202.123437 L 261.959383 202.123437 L 261.959383 208.123437 L 259.459383 208.123437 L 259.459383 202.123437" stroke="gray" fill="white" stroke-width="1px"></path><path d="M 259.459383 196.123437 L 261.959383 196.123437 L 261.959383 202.123437 L 259.459383 202.123437 L 259.459383 196.123437" stroke="gray" fill="white" stroke-width="1px"></path><path d="M 259.459383 190.123437 L 261.959383 190.123437 L 261.959383 196.123437 L 259.459383 196.123437 L 259.459383 190.123437" stroke="gray" fill="white" stroke-width="1px"></path><path d="M 247.459383 214.123437 L 249.959383 214.123437 L 249.959383 220.123437 L 247.459383 220.123437 L 247.459383 214.123437" stroke="gray" fill="white" stroke-width="1px"></path><path d="M 247.459383 208.123437 L 249.959383 208.123437 L 249.959383 214.123437 L 247.459383 214.123437 L 247.459383 208.123437" stroke="gray" fill="white" stroke-width="1px"></path><path d="M 247.459383 202.123437 L 249.959383 202.123437 L 249.959383 208.123437 L 247.459383 208.123437 L 247.459383 202.123437" stroke="gray" fill="white" stroke-width="1px"></path><path d="M 247.459383 196.123437 L 249.959383 196.123437 L 249.959383 202.123437 L 247.459383 202.123437 L 247.459383 196.123437" stroke="gray" fill="white" stroke-width="1px"></path><path d="M 247.459383 190.123437 L 249.959383 190.123437 L 249.959383 196.123437 L 247.459383 196.123437 L 247.459383 190.123437" stroke="gray" fill="white" stroke-width="1px"></path><path d="M 235.459383 214.123437 L 237.959383 214.123437 L 237.959383 220.123437 L 235.459383 220.123437 L 235.459383 214.123437" stroke="gray" fill="white" stroke-width="1px"></path><path d="M 235.459383 208.123437 L 237.959383 208.123437 L 237.959383 214.123437 L 235.459383 214.123437 L 235.459383 208.123437" stroke="gray" fill="white" stroke-width="1px"></path><path d="M 235.459383 202.123437 L 237.959383 202.123437 L 237.959383 208.123437 L 235.459383 208.123437 L 235.459383 202.123437" stroke="gray" fill="white" stroke-width="1px"></path><path d="M 235.459383 196.123437 L 237.959383 196.123437 L 237.959383 202.123437 L 235.459383 202.123437 L 235.459383 196.123437" stroke="gray" fill="white" stroke-width="1px"></path><path d="M 34.000000 172.123437 L 34.000000 169.623437 L 28.000000 169.623437 L 28.000000 172.123437 L 34.000000 172.123437" stroke="gray" fill="white" stroke-width="1px"></path><path d="M 40.000000 172.123437 L 40.000000 169.623437 L 34.000000 169.623437 L 34.000000 172.123437 L 40.000000 172.123437" stroke="gray" fill="white" stroke-width="1px"></path><path d="M 22.000000 160.123437 L 22.000000 157.623437 L 16.000000 157.623437 L 16.000000 160.123437 L 22.000000 160.123437" stroke="gray" fill="white" stroke-width="1px"></path><path d="M 28.000000 160.123437 L 28.000000 157.623437 L 22.000000 157.623437 L 22.000000 160.123437 L 28.000000 160.123437" stroke="gray" fill="white" stroke-width="1px"></path><path d="M 34.000000 160.123437 L 34.000000 157.623437 L 28.000000 157.623437 L 28.000000 160.123437 L 34.000000 160.123437" stroke="gray" fill="white" stroke-width="1px"></path><path d="M 40.000000 160.123437 L 40.000000 157.623437 L 34.000000 157.623437 L 34.000000 160.123437 L 40.000000 160.123437" stroke="gray" fill="white" stroke-width="1px"></path><path d="M 22.000000 148.123437 L 22.000000 145.623437 L 16.000000 145.623437 L 16.000000 148.123437 L 22.000000 148.123437" stroke="gray" fill="white" stroke-width="1px"></path><path d="M 28.000000 148.123437 L 28.000000 145.623437 L 22.000000 145.623437 L 22.000000 148.123437 L 28.000000 148.123437" stroke="gray" fill="white" stroke-width="1px"></path><path d="M 34.000000 148.123437 L 34.000000 145.623437 L 28.000000 145.623437 L 28.000000 148.123437 L 34.000000 148.123437" stroke="gray" fill="white" stroke-width="1px"></path><path d="M 40.000000 148.123437 L 40.000000 145.623437 L 34.000000 145.623437 L 34.000000 148.123437 L 40.000000 148.123437" stroke="gray" fill="white" stroke-width="1px"></path><path d="M 22.000000 136.123437 L 22.000000 133.623437 L 16.000000 133.623437 L 16.000000 136.123437 L 22.000000 136.123437" stroke="gray" fill="white" stroke-width="1px"></path><path d="M 28.000000 136.123437 L 28.000000 133.623437 L 22.000000 133.623437 L 22.000000 136.123437 L 28.000000 136.123437" stroke="gray" fill="white" stroke-width="1px"></path><path d="M 34.000000 136.123437 L 34.000000 133.623437 L 28.000000 133.623437 L 28.000000 136.123437 L 34.000000 136.123437" stroke="gray" fill="white" stroke-width="1px"></path><path d="M 40.000000 136.123437 L 40.000000 133.623437 L 34.000000 133.623437 L 34.000000 136.123437 L 40.000000 136.123437" stroke="gray" fill="white" stroke-width="1px"></path><path d="M 251.737652 136.123437 L 251.737652 133.623437 L 245.737652 133.623437 L 245.737652 136.123437 L 251.737652 136.123437" stroke="gray" fill="white" stroke-width="1px"></path><path d="M 257.737652 136.123437 L 257.737652 133.623437 L 251.737652 133.623437 L 251.737652 136.123437 L 257.737652 136.123437" stroke="gray" fill="white" stroke-width="1px"></path><path d="M 263.737652 136.123437 L 263.737652 133.623437 L 257.737652 133.623437 L 257.737652 136.123437 L 263.737652 136.123437" stroke="gray" fill="white" stroke-width="1px"></path><path d="M 269.737652 136.123437 L 269.737652 133.623437 L 263.737652 133.623437 L 263.737652 136.123437 L 269.737652 136.123437" stroke="gray" fill="white" stroke-width="1px"></path><path d="M 275.737652 136.123437 L 275.737652 133.623437 L 269.737652 133.623437 L 269.737652 136.123437 L 275.737652 136.123437" stroke="gray" fill="white" stroke-width="1px"></path><path d="M 22.000000 160.123437 L 22.000000 162.623437 L 16.000000 162.623437 L 16.000000 160.123437 L 22.000000 160.123437" stroke="gray" fill="white" stroke-width="1px"></path><path d="M 28.000000 160.123437 L 28.000000 162.623437 L 22.000000 162.623437 L 22.000000 160.123437 L 28.000000 160.123437" stroke="gray" fill="white" stroke-width="1px"></path><path d="M 34.000000 160.123437 L 34.000000 162.623437 L 28.000000 162.623437 L 28.000000 160.123437 L 34.000000 160.123437" stroke="gray" fill="white" stroke-width="1px"></path><path d="M 40.000000 160.123437 L 40.000000 162.623437 L 34.000000 162.623437 L 34.000000 160.123437 L 40.000000 160.123437" stroke="gray" fill="white" stroke-width="1px"></path><path d="M 22.000000 148.123437 L 22.000000 150.623437 L 16.000000 150.623437 L 16.000000 148.123437 L 22.000000 148.123437" stroke="gray" fill="white" stroke-width="1px"></path><path d="M 28.000000 148.123437 L 28.000000 150.623437 L 22.000000 150.623437 L 22.000000 148.123437 L 28.000000 148.123437" stroke="gray" fill="white" stroke-width="1px"></path><path d="M 34.000000 148.123437 L 34.000000 150.623437 L 28.000000 150.623437 L 28.000000 148.123437 L 34.000000 148.123437" stroke="gray" fill="white" stroke-width="1px"></path><path d="M 40.000000 148.123437 L 40.000000 150.623437 L 34.000000 150.623437 L 34.000000 148.123437 L 40.000000 148.123437" stroke="gray" fill="white" stroke-width="1px"></path><path d="M 22.000000 136.123437 L 22.000000 138.623437 L 16.000000 138.623437 L 16.000000 136.123437 L 22.000000 136.123437" stroke="gray" fill="white" stroke-width="1px"></path><path d="M 28.000000 136.123437 L 28.000000 138.623437 L 22.000000 138.623437 L 22.000000 136.123437 L 28.000000 136.123437" stroke="gray" fill="white" stroke-width="1px"></path><path d="M 34.000000 136.123437 L 34.000000 138.623437 L 28.000000 138.623437 L 28.000000 136.123437 L 34.000000 136.123437" stroke="gray" fill="white" stroke-width="1px"></path><path d="M 40.000000 136.123437 L 40.000000 138.623437 L 34.000000 138.623437 L 34.000000 136.123437 L 40.000000 136.123437" stroke="gray" fill="white" stroke-width="1px"></path><path d="M 251.737652 136.123437 L 251.737652 138.623437 L 245.737652 138.623437 L 245.737652 136.123437 L 251.737652 136.123437" stroke="gray" fill="white" stroke-width="1px"></path><path d="M 257.737652 136.123437 L 257.737652 138.623437 L 251.737652 138.623437 L 251.737652 136.123437 L 257.737652 136.123437" stroke="gray" fill="white" stroke-width="1px"></path><path d="M 263.737652 136.123437 L 263.737652 138.623437 L 257.737652 138.623437 L 257.737652 136.123437 L 263.737652 136.123437" stroke="gray" fill="white" stroke-width="1px"></path><path d="M 269.737652 136.123437 L 269.737652 138.623437 L 263.737652 138.623437 L 263.737652 136.123437 L 269.737652 136.123437" stroke="gray" fill="white" stroke-width="1px"></path><path d="M 275.737652 136.123437 L 275.737652 138.623437 L 269.737652 138.623437 L 269.737652 136.123437 L 275.737652 136.123437" stroke="gray" fill="white" stroke-width="1px"></path><path d="M 271.459383 45.229293 L 268.959383 45.229293 L 268.959383 51.229293 L 271.459383 51.229293 L 271.459383 45.229293" stroke="gray" fill="white" stroke-width="1px"></path><path d="M 271.459383 39.229293 L 268.959383 39.229293 L 268.959383 45.229293 L 271.459383 45.229293 L 271.459383 39.229293" stroke="gray" fill="white" stroke-width="1px"></path><path d="M 271.459383 33.229293 L 268.959383 33.229293 L 268.959383 39.229293 L 271.459383 39.229293 L 271.459383 33.229293" stroke="gray" fill="white" stroke-width="1px"></path><path d="M 271.459383 27.229293 L 268.959383 27.229293 L 268.959383 33.229293 L 271.459383 33.229293 L 271.459383 27.229293" stroke="gray" fill="white" stroke-width="1px"></path><path d="M 271.459383 21.229293 L 268.959383 21.229293 L 268.959383 27.229293 L 271.459383 27.229293 L 271.459383 21.229293" stroke="gray" fill="white" stroke-width="1px"></path><path d="M 271.459383 15.229293 L 268.959383 15.229293 L 268.959383 21.229293 L 271.459383 21.229293 L 271.459383 15.229293" stroke="gray" fill="white" stroke-width="1px"></path><path d="M 259.459383 46.126127 L 256.959383 46.126127 L 256.959383 52.126127 L 259.459383 52.126127 L 259.459383 46.126127" stroke="gray" fill="white" stroke-width="1px"></path><path d="M 259.459383 40.126127 L 256.959383 40.126127 L 256.959383 46.126127 L 259.459383 46.126127 L 259.459383 40.126127" stroke="gray" fill="white" stroke-width="1px"></path><path d="M 259.459383 34.126127 L 256.959383 34.126127 L 256.959383 40.126127 L 259.459383 40.126127 L 259.459383 34.126127" stroke="gray" fill="white" stroke-width="1px"></path><path d="M 259.459383 28.126127 L 256.959383 28.126127 L 256.959383 34.126127 L 259.459383 34.126127 L 259.459383 28.126127" stroke="gray" fill="white" stroke-width="1px"></path><path d="M 259.459383 22.126127 L 256.959383 22.126127 L 256.959383 28.126127 L 259.459383 28.126127 L 259.459383 22.126127" stroke="gray" fill="white" stroke-width="1px"></path><path d="M 259.459383 16.126127 L 256.959383 16.126127 L 256.959383 22.126127 L 259.459383 22.126127 L 259.459383 16.126127" stroke="gray" fill="white" stroke-width="1px"></path><path d="M 247.459383 47.022961 L 244.959383 47.022961 L 244.959383 53.022961 L 247.459383 53.022961 L 247.459383 47.022961" stroke="gray" fill="white" stroke-width="1px"></path><path d="M 247.459383 41.022961 L 244.959383 41.022961 L 244.959383 47.022961 L 247.459383 47.022961 L 247.459383 41.022961" stroke="gray" fill="white" stroke-width="1px"></path><path d="M 247.459383 35.022961 L 244.959383 35.022961 L 244.959383 41.022961 L 247.459383 41.022961 L 247.459383 35.022961" stroke="gray" fill="white" stroke-width="1px"></path><path d="M 247.459383 29.022961 L 244.959383 29.022961 L 244.959383 35.022961 L 247.459383 35.022961 L 247.459383 29.022961" stroke="gray" fill="white" stroke-width="1px"></path><path d="M 247.459383 23.022961 L 244.959383 23.022961 L 244.959383 29.022961 L 247.459383 29.022961 L 247.459383 23.022961" stroke="gray" fill="white" stroke-width="1px"></path><path d="M 247.459383 17.022961 L 244.959383 17.022961 L 244.959383 23.022961 L 247.459383 23.022961 L 247.459383 17.022961" stroke="gray" fill="white" stroke-width="1px"></path><path d="M 187.459383 101.033125 L 184.959383 101.033125 L 184.959383 107.033125 L 187.459383 107.033125 L 187.459383 101.033125" stroke="gray" fill="white" stroke-width="1px"></path><path d="M 187.459383 95.033125 L 184.959383 95.033125 L 184.959383 101.033125 L 187.459383 101.033125 L 187.459383 95.033125" stroke="gray" fill="white" stroke-width="1px"></path><path d="M 187.459383 89.033125 L 184.959383 89.033125 L 184.959383 95.033125 L 187.459383 95.033125 L 187.459383 89.033125" stroke="gray" fill="white" stroke-width="1px"></path><path d="M 187.459383 83.033125 L 184.959383 83.033125 L 184.959383 89.033125 L 187.459383 89.033125 L 187.459383 83.033125" stroke="gray" fill="white" stroke-width="1px"></path><path d="M 175.459383 101.033125 L 172.959383 101.033125 L 172.959383 107.033125 L 175.459383 107.033125 L 175.459383 101.033125" stroke="gray" fill="white" stroke-width="1px"></path><path d="M 175.459383 95.033125 L 172.959383 95.033125 L 172.959383 101.033125 L 175.459383 101.033125 L 175.459383 95.033125" stroke="gray" fill="white" stroke-width="1px"></path><path d="M 175.459383 89.033125 L 172.959383 89.033125 L 172.959383 95.033125 L 175.459383 95.033125 L 175.459383 89.033125" stroke="gray" fill="white" stroke-width="1px"></path><path d="M 163.459383 101.033125 L 160.959383 101.033125 L 160.959383 107.033125 L 163.459383 107.033125 L 163.459383 101.033125" stroke="gray" fill="white" stroke-width="1px"></path><path d="M 163.459383 95.033125 L 160.959383 95.033125 L 160.959383 101.033125 L 163.459383 101.033125 L 163.459383 95.033125" stroke="gray" fill="white" stroke-width="1px"></path><path d="M 163.459383 89.033125 L 160.959383 89.033125 L 160.959383 95.033125 L 163.459383 95.033125 L 163.459383 89.033125" stroke="gray" fill="white" stroke-width="1px"></path><path d="M 163.459383 83.033125 L 160.959383 83.033125 L 160.959383 89.033125 L 163.459383 89.033125 L 163.459383 83.033125" stroke="gray" fill="white" stroke-width="1px"></path><path d="M 115.459383 89.033125 L 112.959383 89.033125 L 112.959383 95.033125 L 115.459383 95.033125 L 115.459383 89.033125" stroke="gray" fill="white" stroke-width="1px"></path><path d="M 115.459383 83.033125 L 112.959383 83.033125 L 112.959383 89.033125 L 115.459383 89.033125 L 115.459383 83.033125" stroke="gray" fill="white" stroke-width="1px"></path><path d="M 103.459383 101.033125 L 100.959383 101.033125 L 100.959383 107.033125 L 103.459383 107.033125 L 103.459383 101.033125" stroke="gray" fill="white" stroke-width="1px"></path><path d="M 103.459383 95.033125 L 100.959383 95.033125 L 100.959383 101.033125 L 103.459383 101.033125 L 103.459383 95.033125" stroke="gray" fill="white" stroke-width="1px"></path><path d="M 103.459383 89.033125 L 100.959383 89.033125 L 100.959383 95.033125 L 103.459383 95.033125 L 103.459383 89.033125" stroke="gray" fill="white" stroke-width="1px"></path><path d="M 103.459383 83.033125 L 100.959383 83.033125 L 100.959383 89.033125 L 103.459383 89.033125 L 103.459383 83.033125" stroke="gray" fill="white" stroke-width="1px"></path><path d="M 55.459383 30.599343 L 52.959383 30.599343 L 52.959383 36.599343 L 55.459383 36.599343 L 55.459383 30.599343" stroke="gray" fill="white" stroke-width="1px"></path><path d="M 55.459383 24.599343 L 52.959383 24.599343 L 52.959383 30.599343 L 55.459383 30.599343 L 55.459383 24.599343" stroke="gray" fill="white" stroke-width="1px"></path><path d="M 55.459383 18.599343 L 52.959383 18.599343 L 52.959383 24.599343 L 55.459383 24.599343 L 55.459383 18.599343" stroke="gray" fill="white" stroke-width="1px"></path><path d="M 55.459383 12.599343 L 52.959383 12.599343 L 52.959383 18.599343 L 55.459383 18.599343 L 55.459383 12.599343" stroke="gray" fill="white" stroke-width="1px"></path><path d="M 43.459383 30.752207 L 40.959383 30.752207 L 40.959383 36.752207 L 43.459383 36.752207 L 43.459383 30.752207" stroke="gray" fill="white" stroke-width="1px"></path><path d="M 43.459383 24.752207 L 40.959383 24.752207 L 40.959383 30.752207 L 43.459383 30.752207 L 43.459383 24.752207" stroke="gray" fill="white" stroke-width="1px"></path><path d="M 43.459383 18.752207 L 40.959383 18.752207 L 40.959383 24.752207 L 43.459383 24.752207 L 43.459383 18.752207" stroke="gray" fill="white" stroke-width="1px"></path><path d="M 43.459383 12.752207 L 40.959383 12.752207 L 40.959383 18.752207 L 43.459383 18.752207 L 43.459383 12.752207" stroke="gray" fill="white" stroke-width="1px"></path><path d="M 31.459383 30.905072 L 28.959383 30.905072 L 28.959383 36.905072 L 31.459383 36.905072 L 31.459383 30.905072" stroke="gray" fill="white" stroke-width="1px"></path><path d="M 31.459383 24.905072 L 28.959383 24.905072 L 28.959383 30.905072 L 31.459383 30.905072 L 31.459383 24.905072" stroke="gray" fill="white" stroke-width="1px"></path><path d="M 31.459383 18.905072 L 28.959383 18.905072 L 28.959383 24.905072 L 31.459383 24.905072 L 31.459383 18.905072" stroke="gray" fill="white" stroke-width="1px"></path><path d="M 31.459383 12.905072 L 28.959383 12.905072 L 28.959383 18.905072 L 31.459383 18.905072 L 31.459383 12.905072" stroke="gray" fill="white" stroke-width="1px"></path><path d="M 19.459383 31.057936 L 16.959383 31.057936 L 16.959383 37.057936 L 19.459383 37.057936 L 19.459383 31.057936" stroke="gray" fill="white" stroke-width="1px"></path><path d="M 19.459383 25.057936 L 16.959383 25.057936 L 16.959383 31.057936 L 19.459383 31.057936 L 19.459383 25.057936" stroke="gray" fill="white" stroke-width="1px"></path><path d="M 19.459383 19.057936 L 16.959383 19.057936 L 16.959383 25.057936 L 19.459383 25.057936 L 19.459383 19.057936" stroke="gray" fill="white" stroke-width="1px"></path><path d="M 19.459383 13.057936 L 16.959383 13.057936 L 16.959383 19.057936 L 19.459383 19.057936 L 19.459383 13.057936" stroke="gray" fill="white" stroke-width="1px"></path><path d="M 271.459383 45.229293 L 273.959383 45.229293 L 273.959383 51.229293 L 271.459383 51.229293 L 271.459383 45.229293" stroke="gray" fill="white" stroke-width="1px"></path><path d="M 271.459383 39.229293 L 273.959383 39.229293 L 273.959383 45.229293 L 271.459383 45.229293 L 271.459383 39.229293" stroke="gray" fill="white" stroke-width="1px"></path><path d="M 271.459383 33.229293 L 273.959383 33.229293 L 273.959383 39.229293 L 271.459383 39.229293 L 271.459383 33.229293" stroke="gray" fill="white" stroke-width="1px"></path><path d="M 271.459383 27.229293 L 273.959383 27.229293 L 273.959383 33.229293 L 271.459383 33.229293 L 271.459383 27.229293" stroke="gray" fill="white" stroke-width="1px"></path><path d="M 271.459383 21.229293 L 273.959383 21.229293 L 273.959383 27.229293 L 271.459383 27.229293 L 271.459383 21.229293" stroke="gray" fill="white" stroke-width="1px"></path><path d="M 271.459383 15.229293 L 273.959383 15.229293 L 273.959383 21.229293 L 271.459383 21.229293 L 271.459383 15.229293" stroke="gray" fill="white" stroke-width="1px"></path><path d="M 259.459383 46.126127 L 261.959383 46.126127 L 261.959383 52.126127 L 259.459383 52.126127 L 259.459383 46.126127" stroke="gray" fill="white" stroke-width="1px"></path><path d="M 259.459383 40.126127 L 261.959383 40.126127 L 261.959383 46.126127 L 259.459383 46.126127 L 259.459383 40.126127" stroke="gray" fill="white" stroke-width="1px"></path><path d="M 259.459383 34.126127 L 261.959383 34.126127 L 261.959383 40.126127 L 259.459383 40.126127 L 259.459383 34.126127" stroke="gray" fill="white" stroke-width="1px"></path><path d="M 259.459383 28.126127 L 261.959383 28.126127 L 261.959383 34.126127 L 259.459383 34.126127 L 259.459383 28.126127" stroke="gray" fill="white" stroke-width="1px"></path><path d="M 259.459383 22.126127 L 261.959383 22.126127 L 261.959383 28.126127 L 259.459383 28.126127 L 259.459383 22.126127" stroke="gray" fill="white" stroke-width="1px"></path><path d="M 259.459383 16.126127 L 261.959383 16.126127 L 261.959383 22.126127 L 259.459383 22.126127 L 259.459383 16.126127" stroke="gray" fill="white" stroke-width="1px"></path><path d="M 247.459383 47.022961 L 249.959383 47.022961 L 249.959383 53.022961 L 247.459383 53.022961 L 247.459383 47.022961" stroke="gray" fill="white" stroke-width="1px"></path><path d="M 247.459383 41.022961 L 249.959383 41.022961 L 249.959383 47.022961 L 247.459383 47.022961 L 247.459383 41.022961" stroke="gray" fill="white" stroke-width="1px"></path><path d="M 247.459383 35.022961 L 249.959383 35.022961 L 249.959383 41.022961 L 247.459383 41.022961 L 247.459383 35.022961" stroke="gray" fill="white" stroke-width="1px"></path><path d="M 247.459383 29.022961 L 249.959383 29.022961 L 249.959383 35.022961 L 247.459383 35.022961 L 247.459383 29.022961" stroke="gray" fill="white" stroke-width="1px"></path><path d="M 247.459383 23.022961 L 249.959383 23.022961 L 249.959383 29.022961 L 247.459383 29.022961 L 247.459383 23.022961" stroke="gray" fill="white" stroke-width="1px"></path><path d="M 247.459383 17.022961 L 249.959383 17.022961 L 249.959383 23.022961 L 247.459383 23.022961 L 247.459383 17.022961" stroke="gray" fill="white" stroke-width="1px"></path><path d="M 187.459383 101.033125 L 189.959383 101.033125 L 189.959383 107.033125 L 187.459383 107.033125 L 187.459383 101.033125" stroke="gray" fill="white" stroke-width="1px"></path><path d="M 187.459383 95.033125 L 189.959383 95.033125 L 189.959383 101.033125 L 187.459383 101.033125 L 187.459383 95.033125" stroke="gray" fill="white" stroke-width="1px"></path><path d="M 187.459383 89.033125 L 189.959383 89.033125 L 189.959383 95.033125 L 187.459383 95.033125 L 187.459383 89.033125" stroke="gray" fill="white" stroke-width="1px"></path><path d="M 187.459383 83.033125 L 189.959383 83.033125 L 189.959383 89.033125 L 187.459383 89.033125 L 187.459383 83.033125" stroke="gray" fill="white" stroke-width="1px"></path><path d="M 175.459383 101.033125 L 177.959383 101.033125 L 177.959383 107.033125 L 175.459383 107.033125 L 175.459383 101.033125" stroke="gray" fill="white" stroke-width="1px"></path><path d="M 175.459383 95.033125 L 177.959383 95.033125 L 177.959383 101.033125 L 175.459383 101.033125 L 175.459383 95.033125" stroke="gray" fill="white" stroke-width="1px"></path><path d="M 175.459383 89.033125 L 177.959383 89.033125 L 177.959383 95.033125 L 175.459383 95.033125 L 175.459383 89.033125" stroke="gray" fill="white" stroke-width="1px"></path><path d="M 163.459383 101.033125 L 165.959383 101.033125 L 165.959383 107.033125 L 163.459383 107.033125 L 163.459383 101.033125" stroke="gray" fill="white" stroke-width="1px"></path><path d="M 163.459383 95.033125 L 165.959383 95.033125 L 165.959383 101.033125 L 163.459383 101.033125 L 163.459383 95.033125" stroke="gray" fill="white" stroke-width="1px"></path><path d="M 163.459383 89.033125 L 165.959383 89.033125 L 165.959383 95.033125 L 163.459383 95.033125 L 163.459383 89.033125" stroke="gray" fill="white" stroke-width="1px"></path><path d="M 163.459383 83.033125 L 165.959383 83.033125 L 165.959383 89.033125 L 163.459383 89.033125 L 163.459383 83.033125" stroke="gray" fill="white" stroke-width="1px"></path><path d="M 115.459383 89.033125 L 117.959383 89.033125 L 117.959383 95.033125 L 115.459383 95.033125 L 115.459383 89.033125" stroke="gray" fill="white" stroke-width="1px"></path><path d="M 115.459383 83.033125 L 117.959383 83.033125 L 117.959383 89.033125 L 115.459383 89.033125 L 115.459383 83.033125" stroke="gray" fill="white" stroke-width="1px"></path><path d="M 103.459383 101.033125 L 105.959383 101.033125 L 105.959383 107.033125 L 103.459383 107.033125 L 103.459383 101.033125" stroke="gray" fill="white" stroke-width="1px"></path><path d="M 103.459383 95.033125 L 105.959383 95.033125 L 105.959383 101.033125 L 103.459383 101.033125 L 103.459383 95.033125" stroke="gray" fill="white" stroke-width="1px"></path><path d="M 103.459383 89.033125 L 105.959383 89.033125 L 105.959383 95.033125 L 103.459383 95.033125 L 103.459383 89.033125" stroke="gray" fill="white" stroke-width="1px"></path><path d="M 103.459383 83.033125 L 105.959383 83.033125 L 105.959383 89.033125 L 103.459383 89.033125 L 103.459383 83.033125" stroke="gray" fill="white" stroke-width="1px"></path><path d="M 55.459383 30.599343 L 57.959383 30.599343 L 57.959383 36.599343 L 55.459383 36.599343 L 55.459383 30.599343" stroke="gray" fill="white" stroke-width="1px"></path><path d="M 55.459383 24.599343 L 57.959383 24.599343 L 57.959383 30.599343 L 55.459383 30.599343 L 55.459383 24.599343" stroke="gray" fill="white" stroke-width="1px"></path><path d="M 55.459383 18.599343 L 57.959383 18.599343 L 57.959383 24.599343 L 55.459383 24.599343 L 55.459383 18.599343" stroke="gray" fill="white" stroke-width="1px"></path><path d="M 55.459383 12.599343 L 57.959383 12.599343 L 57.959383 18.599343 L 55.459383 18.599343 L 55.459383 12.599343" stroke="gray" fill="white" stroke-width="1px"></path><path d="M 43.459383 30.752207 L 45.959383 30.752207 L 45.959383 36.752207 L 43.459383 36.752207 L 43.459383 30.752207" stroke="gray" fill="white" stroke-width="1px"></path><path d="M 43.459383 24.752207 L 45.959383 24.752207 L 45.959383 30.752207 L 43.459383 30.752207 L 43.459383 24.752207" stroke="gray" fill="white" stroke-width="1px"></path><path d="M 43.459383 18.752207 L 45.959383 18.752207 L 45.959383 24.752207 L 43.459383 24.752207 L 43.459383 18.752207" stroke="gray" fill="white" stroke-width="1px"></path><path d="M 43.459383 12.752207 L 45.959383 12.752207 L 45.959383 18.752207 L 43.459383 18.752207 L 43.459383 12.752207" stroke="gray" fill="white" stroke-width="1px"></path><path d="M 31.459383 30.905072 L 33.959383 30.905072 L 33.959383 36.905072 L 31.459383 36.905072 L 31.459383 30.905072" stroke="gray" fill="white" stroke-width="1px"></path><path d="M 31.459383 24.905072 L 33.959383 24.905072 L 33.959383 30.905072 L 31.459383 30.905072 L 31.459383 24.905072" stroke="gray" fill="white" stroke-width="1px"></path><path d="M 31.459383 18.905072 L 33.959383 18.905072 L 33.959383 24.905072 L 31.459383 24.905072 L 31.459383 18.905072" stroke="gray" fill="white" stroke-width="1px"></path><path d="M 31.459383 12.905072 L 33.959383 12.905072 L 33.959383 18.905072 L 31.459383 18.905072 L 31.459383 12.905072" stroke="gray" fill="white" stroke-width="1px"></path><path d="M 19.459383 31.057936 L 21.959383 31.057936 L 21.959383 37.057936 L 19.459383 37.057936 L 19.459383 31.057936" stroke="gray" fill="white" stroke-width="1px"></path><path d="M 19.459383 25.057936 L 21.959383 25.057936 L 21.959383 31.057936 L 19.459383 31.057936 L 19.459383 25.057936" stroke="gray" fill="white" stroke-width="1px"></path><path d="M 19.459383 19.057936 L 21.959383 19.057936 L 21.959383 25.057936 L 19.459383 25.057936 L 19.459383 19.057936" stroke="gray" fill="white" stroke-width="1px"></path><path d="M 19.459383 13.057936 L 21.959383 13.057936 L 21.959383 19.057936 L 19.459383 19.057936 L 19.459383 13.057936" stroke="gray" fill="white" stroke-width="1px"></path><path d="M 274.058325 77.263579 L 274.058325 74.763579 L 268.058325 74.763579 L 268.058325 77.263579 L 274.058325 77.263579" stroke="gray" fill="white" stroke-width="1px"></path><path d="M 266.700546 65.263579 L 266.700546 62.763579 L 260.700546 62.763579 L 260.700546 65.263579 L 266.700546 65.263579" stroke="gray" fill="white" stroke-width="1px"></path><path d="M 272.700546 65.263579 L 272.700546 62.763579 L 266.700546 62.763579 L 266.700546 65.263579 L 272.700546 65.263579" stroke="gray" fill="white" stroke-width="1px"></path><path d="M 278.700546 65.263579 L 278.700546 62.763579 L 272.700546 62.763579 L 272.700546 65.263579 L 278.700546 65.263579" stroke="gray" fill="white" stroke-width="1px"></path><path d="M 226.425167 101.263579 L 226.425167 98.763579 L 220.425167 98.763579 L 220.425167 101.263579 L 226.425167 101.263579" stroke="gray" fill="white" stroke-width="1px"></path><path d="M 232.425167 101.263579 L 232.425167 98.763579 L 226.425167 98.763579 L 226.425167 101.263579 L 232.425167 101.263579" stroke="gray" fill="white" stroke-width="1px"></path><path d="M 238.425167 101.263579 L 238.425167 98.763579 L 232.425167 98.763579 L 232.425167 101.263579 L 238.425167 101.263579" stroke="gray" fill="white" stroke-width="1px"></path><path d="M 244.425167 101.263579 L 244.425167 98.763579 L 238.425167 98.763579 L 238.425167 101.263579 L 244.425167 101.263579" stroke="gray" fill="white" stroke-width="1px"></path><path d="M 250.425167 101.263579 L 250.425167 98.763579 L 244.425167 98.763579 L 244.425167 101.263579 L 250.425167 101.263579" stroke="gray" fill="white" stroke-width="1px"></path><path d="M 223.484720 89.263579 L 223.484720 86.763579 L 217.484720 86.763579 L 217.484720 89.263579 L 223.484720 89.263579" stroke="gray" fill="white" stroke-width="1px"></path><path d="M 229.484720 89.263579 L 229.484720 86.763579 L 223.484720 86.763579 L 223.484720 89.263579 L 229.484720 89.263579" stroke="gray" fill="white" stroke-width="1px"></path><path d="M 235.484720 89.263579 L 235.484720 86.763579 L 229.484720 86.763579 L 229.484720 89.263579 L 235.484720 89.263579" stroke="gray" fill="white" stroke-width="1px"></path><path d="M 241.484720 89.263579 L 241.484720 86.763579 L 235.484720 86.763579 L 235.484720 89.263579 L 241.484720 89.263579" stroke="gray" fill="white" stroke-width="1px"></path><path d="M 22.000000 101.263579 L 22.000000 98.763579 L 16.000000 98.763579 L 16.000000 101.263579 L 22.000000 101.263579" stroke="gray" fill="white" stroke-width="1px"></path><path d="M 28.000000 101.263579 L 28.000000 98.763579 L 22.000000 98.763579 L 22.000000 101.263579 L 28.000000 101.263579" stroke="gray" fill="white" stroke-width="1px"></path><path d="M 34.000000 101.263579 L 34.000000 98.763579 L 28.000000 98.763579 L 28.000000 101.263579 L 34.000000 101.263579" stroke="gray" fill="white" stroke-width="1px"></path><path d="M 40.000000 101.263579 L 40.000000 98.763579 L 34.000000 98.763579 L 34.000000 101.263579 L 40.000000 101.263579" stroke="gray" fill="white" stroke-width="1px"></path><path d="M 22.000000 89.263579 L 22.000000 86.763579 L 16.000000 86.763579 L 16.000000 89.263579 L 22.000000 89.263579" stroke="gray" fill="white" stroke-width="1px"></path><path d="M 28.000000 89.263579 L 28.000000 86.763579 L 22.000000 86.763579 L 22.000000 89.263579 L 28.000000 89.263579" stroke="gray" fill="white" stroke-width="1px"></path><path d="M 34.000000 89.263579 L 34.000000 86.763579 L 28.000000 86.763579 L 28.000000 89.263579 L 34.000000 89.263579" stroke="gray" fill="white" stroke-width="1px"></path><path d="M 40.000000 89.263579 L 40.000000 86.763579 L 34.000000 86.763579 L 34.000000 89.263579 L 40.000000 89.263579" stroke="gray" fill="white" stroke-width="1px"></path><path d="M 22.000000 77.263579 L 22.000000 74.763579 L 16.000000 74.763579 L 16.000000 77.263579 L 22.000000 77.263579" stroke="gray" fill="white" stroke-width="1px"></path><path d="M 28.000000 77.263579 L 28.000000 74.763579 L 22.000000 74.763579 L 22.000000 77.263579 L 28.000000 77.263579" stroke="gray" fill="white" stroke-width="1px"></path><path d="M 34.000000 77.263579 L 34.000000 74.763579 L 28.000000 74.763579 L 28.000000 77.263579 L 34.000000 77.263579" stroke="gray" fill="white" stroke-width="1px"></path><path d="M 40.000000 77.263579 L 40.000000 74.763579 L 34.000000 74.763579 L 34.000000 77.263579 L 40.000000 77.263579" stroke="gray" fill="white" stroke-width="1px"></path><path d="M 22.000000 65.263579 L 22.000000 62.763579 L 16.000000 62.763579 L 16.000000 65.263579 L 22.000000 65.263579" stroke="gray" fill="white" stroke-width="1px"></path><path d="M 28.000000 65.263579 L 28.000000 62.763579 L 22.000000 62.763579 L 22.000000 65.263579 L 28.000000 65.263579" stroke="gray" fill="white" stroke-width="1px"></path><path d="M 34.000000 65.263579 L 34.000000 62.763579 L 28.000000 62.763579 L 28.000000 65.263579 L 34.000000 65.263579" stroke="gray" fill="white" stroke-width="1px"></path><path d="M 40.000000 65.263579 L 40.000000 62.763579 L 34.000000 62.763579 L 34.000000 65.263579 L 40.000000 65.263579" stroke="gray" fill="white" stroke-width="1px"></path><path d="M 274.058325 77.263579 L 274.058325 79.763579 L 268.058325 79.763579 L 268.058325 77.263579 L 274.058325 77.263579" stroke="gray" fill="white" stroke-width="1px"></path><path d="M 266.700546 65.263579 L 266.700546 67.763579 L 260.700546 67.763579 L 260.700546 65.263579 L 266.700546 65.263579" stroke="gray" fill="white" stroke-width="1px"></path><path d="M 272.700546 65.263579 L 272.700546 67.763579 L 266.700546 67.763579 L 266.700546 65.263579 L 272.700546 65.263579" stroke="gray" fill="white" stroke-width="1px"></path><path d="M 278.700546 65.263579 L 278.700546 67.763579 L 272.700546 67.763579 L 272.700546 65.263579 L 278.700546 65.263579" stroke="gray" fill="white" stroke-width="1px"></path><path d="M 226.425167 101.263579 L 226.425167 103.763579 L 220.425167 103.763579 L 220.425167 101.263579 L 226.425167 101.263579" stroke="gray" fill="white" stroke-width="1px"></path><path d="M 232.425167 101.263579 L 232.425167 103.763579 L 226.425167 103.763579 L 226.425167 101.263579 L 232.425167 101.263579" stroke="gray" fill="white" stroke-width="1px"></path><path d="M 238.425167 101.263579 L 238.425167 103.763579 L 232.425167 103.763579 L 232.425167 101.263579 L 238.425167 101.263579" stroke="gray" fill="white" stroke-width="1px"></path><path d="M 244.425167 101.263579 L 244.425167 103.763579 L 238.425167 103.763579 L 238.425167 101.263579 L 244.425167 101.263579" stroke="gray" fill="white" stroke-width="1px"></path><path d="M 250.425167 101.263579 L 250.425167 103.763579 L 244.425167 103.763579 L 244.425167 101.263579 L 250.425167 101.263579" stroke="gray" fill="white" stroke-width="1px"></path><path d="M 223.484720 89.263579 L 223.484720 91.763579 L 217.484720 91.763579 L 217.484720 89.263579 L 223.484720 89.263579" stroke="gray" fill="white" stroke-width="1px"></path><path d="M 229.484720 89.263579 L 229.484720 91.763579 L 223.484720 91.763579 L 223.484720 89.263579 L 229.484720 89.263579" stroke="gray" fill="white" stroke-width="1px"></path><path d="M 235.484720 89.263579 L 235.484720 91.763579 L 229.484720 91.763579 L 229.484720 89.263579 L 235.484720 89.263579" stroke="gray" fill="white" stroke-width="1px"></path><path d="M 241.484720 89.263579 L 241.484720 91.763579 L 235.484720 91.763579 L 235.484720 89.263579 L 241.484720 89.263579" stroke="gray" fill="white" stroke-width="1px"></path><path d="M 22.000000 101.263579 L 22.000000 103.763579 L 16.000000 103.763579 L 16.000000 101.263579 L 22.000000 101.263579" stroke="gray" fill="white" stroke-width="1px"></path><path d="M 28.000000 101.263579 L 28.000000 103.763579 L 22.000000 103.763579 L 22.000000 101.263579 L 28.000000 101.263579" stroke="gray" fill="white" stroke-width="1px"></path><path d="M 34.000000 101.263579 L 34.000000 103.763579 L 28.000000 103.763579 L 28.000000 101.263579 L 34.000000 101.263579" stroke="gray" fill="white" stroke-width="1px"></path><path d="M 40.000000 101.263579 L 40.000000 103.763579 L 34.000000 103.763579 L 34.000000 101.263579 L 40.000000 101.263579" stroke="gray" fill="white" stroke-width="1px"></path><path d="M 22.000000 89.263579 L 22.000000 91.763579 L 16.000000 91.763579 L 16.000000 89.263579 L 22.000000 89.263579" stroke="gray" fill="white" stroke-width="1px"></path><path d="M 28.000000 89.263579 L 28.000000 91.763579 L 22.000000 91.763579 L 22.000000 89.263579 L 28.000000 89.263579" stroke="gray" fill="white" stroke-width="1px"></path><path d="M 34.000000 89.263579 L 34.000000 91.763579 L 28.000000 91.763579 L 28.000000 89.263579 L 34.000000 89.263579" stroke="gray" fill="white" stroke-width="1px"></path><path d="M 40.000000 89.263579 L 40.000000 91.763579 L 34.000000 91.763579 L 34.000000 89.263579 L 40.000000 89.263579" stroke="gray" fill="white" stroke-width="1px"></path><path d="M 22.000000 77.263579 L 22.000000 79.763579 L 16.000000 79.763579 L 16.000000 77.263579 L 22.000000 77.263579" stroke="gray" fill="white" stroke-width="1px"></path><path d="M 28.000000 77.263579 L 28.000000 79.763579 L 22.000000 79.763579 L 22.000000 77.263579 L 28.000000 77.263579" stroke="gray" fill="white" stroke-width="1px"></path><path d="M 34.000000 77.263579 L 34.000000 79.763579 L 28.000000 79.763579 L 28.000000 77.263579 L 34.000000 77.263579" stroke="gray" fill="white" stroke-width="1px"></path><path d="M 40.000000 77.263579 L 40.000000 79.763579 L 34.000000 79.763579 L 34.000000 77.263579 L 40.000000 77.263579" stroke="gray" fill="white" stroke-width="1px"></path><path d="M 22.000000 65.263579 L 22.000000 67.763579 L 16.000000 67.763579 L 16.000000 65.263579 L 22.000000 65.263579" stroke="gray" fill="white" stroke-width="1px"></path><path d="M 28.000000 65.263579 L 28.000000 67.763579 L 22.000000 67.763579 L 22.000000 65.263579 L 28.000000 65.263579" stroke="gray" fill="white" stroke-width="1px"></path><path d="M 34.000000 65.263579 L 34.000000 67.763579 L 28.000000 67.763579 L 28.000000 65.263579 L 34.000000 65.263579" stroke="gray" fill="white" stroke-width="1px"></path><path d="M 40.000000 65.263579 L 40.000000 67.763579 L 34.000000 67.763579 L 34.000000 65.263579 L 40.000000 65.263579" stroke="gray" fill="white" stroke-width="1px"></path></g><g id="crv-base"><path d="M 221.371570 123.090312 L 221.371570 169.241094 L 120.000633 169.241094 L 120.000633 156.444206 L 126.051258 156.444206 L 126.051258 128.832500 L 123.590320 128.832500 L 123.590320 125.551250 L 126.051258 125.551250 L 126.051258 123.858132 L 91.315945 123.858125 L 91.315945 134.738750 L 64.258762 134.738750 L 64.258762 123.687497 L 10.000000 123.687497 L 10.000000 226.180625 L 64.258758 226.180625 L 64.258758 192.357500 L 91.315945 192.357500 L 91.315945 220.123437 L 283.459383 220.123437 L 283.459383 123.090312 L 221.371570 123.090312" stroke="black" fill="none" stroke-width="1px"></path><path d="M 221.371570 10.000000 L 221.371570 56.150781 L 120.000633 56.150781 L 120.000633 43.353893 L 126.051258 43.353893 L 126.051258 15.742187 L 123.590320 15.742187 L 123.590320 12.460937 L 126.051258 12.460937 L 126.051258 10.767819 L 91.315945 10.767812 L 91.315945 21.648438 L 64.258762 21.648438 L 64.258762 10.597185 L 10.000000 10.597185 L 10.000000 113.090312 L 64.258758 113.090312 L 64.258758 79.267187 L 91.315945 79.267187 L 91.315945 107.033125 L 283.459383 107.033125 L 283.459383 10.000000 L 221.371570 10.000000" stroke="black" fill="none" stroke-width="1px"></path><path d="M 10.387195 156.559062 L 10.387195 154.590312 L 12.355945 154.590312 L 12.355945 156.559062 L 10.387195 156.559062" stroke="black" fill="white" stroke-width="1px"></path><path d="M 10.387195 43.468750 L 10.387195 41.500000 L 12.355945 41.500000 L 12.355945 43.468750 L 10.387195 43.468750" stroke="black" fill="white" stroke-width="1px"></path><path d="M 10.387195 188.059062 L 10.387195 186.090312 L 12.355945 186.090312 L 12.355945 188.059062 L 10.387195 188.059062" stroke="black" fill="white" stroke-width="1px"></path><path d="M 10.387195 74.968750 L 10.387195 73.000000 L 12.355945 73.000000 L 12.355945 74.968750 L 10.387195 74.968750" stroke="black" fill="white" stroke-width="1px"></path><path d="M 10.387195 219.559062 L 10.387195 217.590312 L 12.355945 217.590312 L 12.355945 219.559062 L 10.387195 219.559062" stroke="black" fill="white" stroke-width="1px"></path><path d="M 10.387195 106.468750 L 10.387195 104.500000 L 12.355945 104.500000 L 12.355945 106.468750 L 10.387195 106.468750" stroke="black" fill="white" stroke-width="1px"></path><path d="M 60.754383 128.340312 L 60.754383 125.387187 L 63.871570 125.387187 L 63.871570 128.340312 L 60.754383 128.340312" stroke="black" fill="white" stroke-width="1px"></path><path d="M 60.754383 15.250000 L 60.754383 12.296875 L 63.871570 12.296875 L 63.871570 15.250000 L 60.754383 15.250000" stroke="black" fill="white" stroke-width="1px"></path><path d="M 280.598133 219.230937 L 280.598133 217.262187 L 282.566883 217.262187 L 282.566883 219.230937 L 280.598133 219.230937" stroke="black" fill="white" stroke-width="1px"></path><path d="M 280.598133 106.140625 L 280.598133 104.171875 L 282.566883 104.171875 L 282.566883 106.140625 L 280.598133 106.140625" stroke="black" fill="white" stroke-width="1px"></path><path d="M 280.598133 188.059062 L 280.598133 186.090312 L 282.566883 186.090312 L 282.566883 188.059062 L 280.598133 188.059062" stroke="black" fill="white" stroke-width="1px"></path><path d="M 280.598133 74.968750 L 280.598133 73.000000 L 282.566883 73.000000 L 282.566883 74.968750 L 280.598133 74.968750" stroke="black" fill="white" stroke-width="1px"></path><path d="M 280.598133 156.559050 L 280.598133 154.590300 L 282.566883 154.590300 L 282.566883 156.559050 L 280.598133 156.559050" stroke="black" fill="white" stroke-width="1px"></path><path d="M 280.598133 43.468737 L 280.598133 41.499987 L 282.566883 41.499987 L 282.566883 43.468737 L 280.598133 43.468737" stroke="black" fill="white" stroke-width="1px"></path><path d="M 248.605945 127.355937 L 248.605945 123.418437 L 251.887195 123.418437 L 251.887195 127.355937 L 248.605945 127.355937" stroke="black" fill="white" stroke-width="1px"></path><path d="M 248.605945 14.265625 L 248.605945 10.328125 L 251.887195 10.328125 L 251.887195 14.265625 L 248.605945 14.265625" stroke="black" fill="white" stroke-width="1px"></path><path d="M 248.605945 157.871562 L 248.605945 153.934062 L 251.887195 153.934062 L 251.887195 157.871562 L 248.605945 157.871562" stroke="black" fill="white" stroke-width="1px"></path><path d="M 248.605945 44.781250 L 248.605945 40.843750 L 251.887195 40.843750 L 251.887195 44.781250 L 248.605945 44.781250" stroke="black" fill="white" stroke-width="1px"></path><path d="M 248.605945 189.043437 L 248.605945 185.105937 L 251.887195 185.105937 L 251.887195 189.043437 L 248.605945 189.043437" stroke="black" fill="white" stroke-width="1px"></path><path d="M 248.605945 75.953125 L 248.605945 72.015625 L 251.887195 72.015625 L 251.887195 75.953125 L 248.605945 75.953125" stroke="black" fill="white" stroke-width="1px"></path><path d="M 248.934070 219.230937 L 248.934070 216.277812 L 251.887195 216.277812 L 251.887195 219.230937 L 248.934070 219.230937" stroke="black" fill="white" stroke-width="1px"></path><path d="M 248.934070 106.140625 L 248.934070 103.187500 L 251.887195 103.187500 L 251.887195 106.140625 L 248.934070 106.140625" stroke="black" fill="white" stroke-width="1px"></path><path d="M 218.090320 189.043437 L 218.090320 185.105937 L 221.371570 185.105937 L 221.371570 189.043437 L 218.090320 189.043437" stroke="black" fill="white" stroke-width="1px"></path><path d="M 218.090320 75.953125 L 218.090320 72.015625 L 221.371570 72.015625 L 221.371570 75.953125 L 218.090320 75.953125" stroke="black" fill="white" stroke-width="1px"></path><path d="M 218.254383 219.230937 L 218.254383 216.277812 L 221.207508 216.277812 L 221.207508 219.230937 L 218.254383 219.230937" stroke="black" fill="white" stroke-width="1px"></path><path d="M 218.254383 106.140625 L 218.254383 103.187500 L 221.207508 103.187500 L 221.207508 106.140625 L 218.254383 106.140625" stroke="black" fill="white" stroke-width="1px"></path><path d="M 186.590320 189.043437 L 186.590320 185.105937 L 189.871570 185.105937 L 189.871570 189.043437 L 186.590320 189.043437" stroke="black" fill="white" stroke-width="1px"></path><path d="M 186.590320 75.953125 L 186.590320 72.015625 L 189.871570 72.015625 L 189.871570 75.953125 L 186.590320 75.953125" stroke="black" fill="white" stroke-width="1px"></path><path d="M 186.754383 219.230937 L 186.754383 216.277812 L 189.707508 216.277812 L 189.707508 219.230937 L 186.754383 219.230937" stroke="black" fill="white" stroke-width="1px"></path><path d="M 186.754383 106.140625 L 186.754383 103.187500 L 189.707508 103.187500 L 189.707508 106.140625 L 186.754383 106.140625" stroke="black" fill="white" stroke-width="1px"></path><path d="M 155.090320 189.043437 L 155.090320 185.105937 L 158.371570 185.105937 L 158.371570 189.043437 L 155.090320 189.043437" stroke="black" fill="white" stroke-width="1px"></path><path d="M 155.090320 75.953125 L 155.090320 72.015625 L 158.371570 72.015625 L 158.371570 75.953125 L 155.090320 75.953125" stroke="black" fill="white" stroke-width="1px"></path><path d="M 155.254383 219.230937 L 155.254383 216.277812 L 158.207508 216.277812 L 158.207508 219.230937 L 155.254383 219.230937" stroke="black" fill="white" stroke-width="1px"></path><path d="M 155.254383 106.140625 L 155.254383 103.187500 L 158.207508 103.187500 L 158.207508 106.140625 L 155.254383 106.140625" stroke="black" fill="white" stroke-width="1px"></path><path d="M 123.590320 189.043437 L 123.590320 185.105937 L 126.871570 185.105937 L 126.871570 189.043437 L 123.590320 189.043437" stroke="black" fill="white" stroke-width="1px"></path><path d="M 123.590320 75.953125 L 123.590320 72.015625 L 126.871570 72.015625 L 126.871570 75.953125 L 123.590320 75.953125" stroke="black" fill="white" stroke-width="1px"></path><path d="M 123.754383 219.230937 L 123.754383 216.277812 L 126.707508 216.277812 L 126.707508 219.230937 L 123.754383 219.230937" stroke="black" fill="white" stroke-width="1px"></path><path d="M 123.754383 106.140625 L 123.754383 103.187500 L 126.707508 103.187500 L 126.707508 106.140625 L 123.754383 106.140625" stroke="black" fill="white" stroke-width="1px"></path><path d="M 92.090320 157.543437 L 92.090320 153.605937 L 95.371570 153.605937 L 95.371570 157.543437 L 92.090320 157.543437" stroke="black" fill="white" stroke-width="1px"></path><path d="M 92.090320 44.453125 L 92.090320 40.515625 L 95.371570 40.515625 L 95.371570 44.453125 L 92.090320 44.453125" stroke="black" fill="white" stroke-width="1px"></path><path d="M 92.090320 189.043437 L 92.090320 185.105937 L 95.371570 185.105937 L 95.371570 189.043437 L 92.090320 189.043437" stroke="black" fill="white" stroke-width="1px"></path><path d="M 92.090320 75.953125 L 92.090320 72.015625 L 95.371570 72.015625 L 95.371570 75.953125 L 92.090320 75.953125" stroke="black" fill="white" stroke-width="1px"></path><path d="M 92.090320 128.504375 L 92.090320 125.551250 L 95.207508 125.551250 L 95.207508 128.504375 L 92.090320 128.504375" stroke="black" fill="white" stroke-width="1px"></path><path d="M 92.090320 15.414062 L 92.090320 12.460937 L 95.207508 12.460937 L 95.207508 15.414062 L 92.090320 15.414062" stroke="black" fill="white" stroke-width="1px"></path><path d="M 60.590320 157.215312 L 60.590320 153.934062 L 63.871570 153.934062 L 63.871570 157.215312 L 60.590320 157.215312" stroke="black" fill="white" stroke-width="1px"></path><path d="M 60.590320 44.125000 L 60.590320 40.843750 L 63.871570 40.843750 L 63.871570 44.125000 L 60.590320 44.125000" stroke="black" fill="white" stroke-width="1px"></path><path d="M 60.754383 219.230937 L 60.754383 216.277812 L 63.871570 216.277812 L 63.871570 219.230937 L 60.754383 219.230937" stroke="black" fill="white" stroke-width="1px"></path><path d="M 60.754383 106.140625 L 60.754383 103.187500 L 63.871570 103.187500 L 63.871570 106.140625 L 60.754383 106.140625" stroke="black" fill="white" stroke-width="1px"></path><path d="M 30.074695 128.504375 L 30.074695 125.223125 L 33.027820 125.223125 L 33.027820 128.504375 L 30.074695 128.504375" stroke="black" fill="white" stroke-width="1px"></path><path d="M 30.074695 15.414062 L 30.074695 12.132812 L 33.027820 12.132812 L 33.027820 15.414062 L 30.074695 15.414062" stroke="black" fill="white" stroke-width="1px"></path><path d="M 30.074695 157.215312 L 30.074695 153.934062 L 33.355945 153.934062 L 33.355945 157.215312 L 30.074695 157.215312" stroke="black" fill="white" stroke-width="1px"></path><path d="M 30.074695 44.125000 L 30.074695 40.843750 L 33.355945 40.843750 L 33.355945 44.125000 L 30.074695 44.125000" stroke="black" fill="white" stroke-width="1px"></path><path d="M 30.074695 188.715312 L 30.074695 185.434062 L 33.355945 185.434062 L 33.355945 188.715312 L 30.074695 188.715312" stroke="black" fill="white" stroke-width="1px"></path><path d="M 30.074695 75.625000 L 30.074695 72.343750 L 33.355945 72.343750 L 33.355945 75.625000 L 30.074695 75.625000" stroke="black" fill="white" stroke-width="1px"></path><path d="M 30.074695 219.230937 L 30.074695 216.277812 L 33.027820 216.277812 L 33.027820 219.230937 L 30.074695 219.230937" stroke="black" fill="white" stroke-width="1px"></path><path d="M 30.074695 106.140625 L 30.074695 103.187500 L 33.027820 103.187500 L 33.027820 106.140625 L 30.074695 106.140625" stroke="black" fill="white" stroke-width="1px"></path><path d="M 10.387195 127.191875 L 10.387195 125.223125 L 12.355945 125.223125 L 12.355945 127.191875 L 10.387195 127.191875" stroke="black" fill="white" stroke-width="1px"></path><path d="M 10.387195 14.101562 L 10.387195 12.132812 L 12.355945 12.132812 L 12.355945 14.101562 L 10.387195 14.101562" stroke="black" fill="white" stroke-width="1px"></path><path d="M 60.590320 189.863750 L 60.590320 185.434062 L 63.871570 185.434062 L 63.871570 188.715312 L 62.230945 188.715312 L 62.230945 189.863750 L 60.590320 189.863750" stroke="black" fill="white" stroke-width="1px"></path><path d="M 60.590320 76.773437 L 60.590320 72.343750 L 63.871570 72.343750 L 63.871570 75.625000 L 62.230945 75.625000 L 62.230945 76.773437 L 60.590320 76.773437" stroke="black" fill="white" stroke-width="1px"></path></g></svg>