<svg width="293.459383" height="236.180625" xmlns="http://www.w3.org/2000/svg" xmlns:xlink="http://www.w3.org/1999/xlink" version="1.1"><g id="crv-background"><path d="M 221.371570 123.090312 L 221.371570 169.241094 L 120.000633 169.241094 L 120.000633 156.444206 L 126.051258 156.444206 L 126.051258 128.832500 L 123.590320 128.832500 L 123.590320 125.551250 L 126.051258 125.551250 L 126.051258 123.858132 L 91.315945 123.858125 L 91.315945 134.738750 L 64.258762 134.738750 L 64.258762 123.687497 L 10.000000 123.687497 L 10.000000 226.180625 L 64.258758 226.180625 L 64.258758 192.357500 L 91.315945 192.357500 L 91.315945 220.123437 L 283.459383 220.123437 L 283.459383 123.090312 L 221.371570 123.090312" stroke="none" fill="white" stroke-width="1px"></path><path d="M 221.371570 10.000000 L 221.371570 56.150781 L 120.000633 56.150781 L 120.000633 43.353893 L 126.051258 43.353893 L 126.051258 15.742187 L 123.590320 15.742187 L 123.590320 12.460937 L 126.051258 12.460937 L 126.051258 10.767819 L 91.315945 10.767812 L 91.315945 21.648438 L 64.258762 21.648438 L 64.258762 10.597185 L 10.000000 10.597185 L 10.000000 113.090312 L 64.258758 113.090312 L 64.258758 79.267187 L 91.315945 79.267187 L 91.315945 107.033125 L 283.459383 107.033125 L 283.459383 10.000000 L 221.371570 10.000000" stroke="none" fill="white" stroke-width="1px"></path></g><g id="crv-nbhd"><path d="M 221.737654 10.000004 L 221.737654 24.815160 L 221.737654 39.630317 L 230.894881 46.165471 L 240.052108 52.700625 L 261.755745 52.303857 L 283.459383 51.907089 L 283.459383 30.953544 L 283.459382 10.000000 L 252.598555 10.000002 L 221.737654 10.000004" stroke="#DD2222" fill="none" stroke-width="1px"></path><path d="M 283.459383 107.033125 L 283.459383 79.470107 L 283.459383 51.907089 L 261.755745 52.303857 L 240.052108 52.700625 L 243.682006 79.866875 L 247.311905 107.033125 L 265.385644 107.033125 L 283.459383 107.033125" stroke="#DD2222" fill="none" stroke-width="1px"></path><path d="M 221.737654 39.630317 L 221.737654 59.390824 L 221.737654 79.151330 L 214.219905 79.151330 L 206.702157 79.151330 L 207.093302 93.092227 L 207.484446 107.033125 L 227.398175 107.033125 L 247.311905 107.033125 L 243.682006 79.866875 L 240.052108 52.700625 L 230.894881 46.165471 L 221.737654 39.630317" stroke="#DD2222" fill="none" stroke-width="1px"></path><path d="M 206.702157 79.151330 L 189.819863 79.151330 L 172.937569 79.151329 L 172.877981 93.092227 L 172.818394 107.033125 L 190.151420 107.033125 L 207.484446 107.033125 L 207.093302 93.092231 L 206.702157 79.151330" stroke="#DD2222" fill="none" stroke-width="1px"></path><path d="M 134.511198 107.033125 L 153.664796 107.033125 L 172.818394 107.033125 L 172.877981 93.092227 L 172.937569 79.151329 L 154.753368 79.151329 L 136.569168 79.151328 L 135.540183 93.092227 L 134.511198 107.033125" stroke="#DD2222" fill="none" stroke-width="1px"></path><path d="M 136.569168 79.151328 L 113.942557 79.151328 L 91.315945 79.151327 L 91.315945 93.092226 L 91.315945 107.033125 L 112.913572 107.033125 L 134.511198 107.033125 L 135.540183 93.092230 L 136.569168 79.151328" stroke="#DD2222" fill="none" stroke-width="1px"></path><path d="M 64.258758 113.090312 L 64.258758 84.620547 L 64.258758 56.150781 L 64.258758 54.401061 L 64.258758 52.651340 L 37.129382 55.887812 L 10.000000 59.124284 L 10.000000 86.107298 L 10.000000 113.090312 L 37.129379 113.090312 L 64.258758 113.090312" stroke="#DD2222" fill="none" stroke-width="1px"></path><path d="M 10.000000 10.597184 L 10.000000 34.860734 L 10.000000 59.124284 L 37.129379 55.887812 L 64.258758 52.651340 L 64.258758 31.624263 L 64.258758 10.597185 L 37.129385 10.597185 L 10.000000 10.597184" stroke="#DD2222" fill="none" stroke-width="1px"></path><path d="M 10.000000 123.687497 L 10.000000 150.432393 L 10.000000 177.177290 L 37.129379 179.540200 L 64.258758 181.903111 L 64.258758 175.572102 L 64.258758 169.241094 L 64.258758 146.464296 L 64.258758 123.687497 L 37.129379 123.687497 L 10.000000 123.687497" stroke="#DD2222" fill="none" stroke-width="1px"></path><path d="M 10.000000 177.177290 L 10.000000 201.678957 L 10.000000 226.180625 L 37.129382 226.180625 L 64.258764 226.180625 L 64.258764 204.041863 L 64.258758 181.903111 L 37.129385 179.540201 L 10.000000 177.177290" stroke="#DD2222" fill="none" stroke-width="1px"></path><path d="M 138.839756 192.043444 L 115.077850 192.043444 L 91.315945 192.043444 L 91.315945 206.083441 L 91.315945 220.123437 L 115.483095 220.123437 L 139.650246 220.123437 L 139.245001 206.083444 L 138.839756 192.043444" stroke="#DD2222" fill="none" stroke-width="1px"></path><path d="M 183.540761 192.043444 L 161.190258 192.043444 L 138.839756 192.043444 L 139.245001 206.083441 L 139.650246 220.123437 L 162.750108 220.123437 L 185.849971 220.123437 L 184.695366 206.083441 L 183.540761 192.043444" stroke="#DD2222" fill="none" stroke-width="1px"></path><path d="M 224.363614 192.043444 L 203.952187 192.043444 L 183.540761 192.043444 L 184.695366 206.083441 L 185.849971 220.123437 L 204.027385 220.123437 L 222.204799 220.123437 L 223.284206 206.083444 L 224.363614 192.043444" stroke="#DD2222" fill="none" stroke-width="1px"></path><path d="M 283.459383 220.123437 L 283.459383 198.163285 L 283.459383 176.203132 L 261.598517 172.626564 L 239.737652 169.049996 L 239.737652 180.546720 L 239.737652 192.043444 L 232.050633 192.043444 L 224.363614 192.043444 L 223.284206 206.083441 L 222.204799 220.123437 L 252.832091 220.123437 L 283.459383 220.123437" stroke="#DD2222" fill="none" stroke-width="1px"></path><path d="M 239.737652 123.090312 L 239.737652 146.070154 L 239.737652 169.049996 L 261.598517 172.626564 L 283.459383 176.203132 L 283.459383 149.646722 L 283.459383 123.090312 L 261.598528 123.090312 L 239.737652 123.090312" stroke="#DD2222" fill="none" stroke-width="1px"></path></g><g id="crv-amen"><path d="M 15.425876 162.544903 L 15.425876 169.258223 L 15.425876 175.971542 L 37.129379 177.861870 L 58.832882 179.752199 L 58.832882 174.687392 L 58.832882 169.622585 L 58.832882 167.974073 L 58.832882 166.325560 L 37.129379 164.435232 L 15.425876 162.544903" stroke="none" fill="#2288CC" stroke-width="1px"></path><path d="M 58.832885 196.535498 L 58.832884 189.822176 L 58.832882 183.108859 L 37.129379 181.218530 L 15.425876 179.328202 L 15.425876 186.041521 L 15.425876 192.754841 L 37.129380 194.645169 L 58.832885 196.535498" stroke="none" fill="#2288CC" stroke-width="1px"></path><path d="M 134.497625 207.094259 L 134.304585 200.406260 L 134.111545 193.718260 L 115.102021 193.718260 L 96.092497 193.718260 L 96.092497 200.406259 L 96.092497 207.094259 L 115.295061 207.094259 L 134.497625 207.094259" stroke="none" fill="#2288CC" stroke-width="1px"></path><path d="M 170.520252 217.315438 L 177.230829 217.315438 L 183.941406 217.315438 L 183.017722 206.083441 L 182.094038 194.851444 L 175.383461 194.851444 L 168.672884 194.851444 L 169.596568 206.083441 L 170.520252 217.315438" stroke="none" fill="#2288CC" stroke-width="1px"></path><path d="M 207.328275 217.315438 L 214.036011 217.315438 L 220.743747 217.315438 L 221.607273 206.083441 L 222.470798 194.851444 L 215.763063 194.851444 L 209.055327 194.851444 L 208.191801 206.083441 L 207.328275 217.315438" stroke="none" fill="#2288CC" stroke-width="1px"></path><path d="M 238.137321 192.836147 L 238.137321 193.832149 L 238.137321 194.828152 L 231.987706 194.828152 L 225.838091 194.828152 L 224.974565 206.060149 L 224.111039 217.292146 L 230.818775 217.292146 L 237.526511 217.292146 L 238.462881 205.112656 L 239.399251 192.933165 L 238.768286 192.884656 L 238.137321 192.836147" stroke="none" fill="#2288CC" stroke-width="1px"></path><path d="M 254.801758 127.824373 L 248.113759 127.824373 L 241.425758 127.824373 L 241.425758 146.208247 L 241.425758 164.592120 L 248.113758 165.686317 L 254.801758 166.780513 L 254.801758 147.302443 L 254.801758 127.824373" stroke="none" fill="#2288CC" stroke-width="1px"></path><path d="M 239.303494 47.670940 L 241.591274 49.303639 L 243.879055 50.936338 L 261.241965 50.618923 L 278.604874 50.301509 L 278.604874 43.612393 L 278.604874 36.923274 L 258.862537 37.284188 L 239.120210 37.645101 L 239.211852 42.658020 L 239.303494 47.670940" stroke="none" fill="#2288CC" stroke-width="1px"></path><path d="M 255.926471 57.872378 L 249.195474 57.995429 L 242.464478 58.118480 L 245.368396 79.851479 L 248.272315 101.584479 L 255.019753 101.584479 L 261.767192 101.584479 L 258.846831 79.728429 L 255.926471 57.872378" stroke="none" fill="#2288CC" stroke-width="1px"></path><path d="M 220.501411 78.655162 L 220.501411 80.274900 L 220.501411 81.894637 L 214.487213 81.894637 L 208.473014 81.894637 L 208.785930 93.047355 L 209.098846 104.200073 L 215.789477 104.200073 L 222.480109 104.200073 L 222.121251 91.409927 L 221.762394 78.619782 L 221.131903 78.637472 L 220.501411 78.655162" stroke="none" fill="#2288CC" stroke-width="1px"></path><path d="M 203.720928 94.203755 L 203.533281 87.515757 L 203.345633 80.827756 L 189.839798 80.827756 L 176.333963 80.827755 L 176.305376 87.515755 L 176.276790 94.203755 L 189.998859 94.203755 L 203.720928 94.203755" stroke="none" fill="#2288CC" stroke-width="1px"></path><path d="M 169.177934 94.208097 L 169.206521 87.520097 L 169.235107 80.832097 L 154.687747 80.832097 L 140.140387 80.832097 L 139.646742 87.520096 L 139.153097 94.208096 L 154.165516 94.208097 L 169.177934 94.208097" stroke="none" fill="#2288CC" stroke-width="1px"></path><path d="M 130.995135 94.191623 L 131.488780 87.503624 L 131.982425 80.815624 L 113.881135 80.815623 L 95.779846 80.815623 L 95.779846 87.503622 L 95.779846 94.191622 L 113.387491 94.191623 L 130.995135 94.191623" stroke="none" fill="#2288CC" stroke-width="1px"></path><path d="M 58.832882 68.453337 L 58.832882 63.117687 L 58.832882 57.782043 L 58.832882 56.382267 L 58.832882 54.982490 L 37.129379 57.571668 L 15.425876 60.160845 L 15.425876 66.896269 L 15.425876 73.631692 L 37.129379 71.042514 L 58.832882 68.453337" stroke="none" fill="#2288CC" stroke-width="1px"></path><path d="M 49.197847 50.142153 L 55.885847 49.344290 L 62.573847 48.546428 L 62.573847 31.724766 L 62.573847 14.903103 L 55.885847 14.903103 L 49.197847 14.903103 L 49.197847 32.522628 L 49.197847 50.142153" stroke="none" fill="#2288CC" stroke-width="1px"></path></g><g id="crv-desk"><path d="M 55.459383 220.180625 L 52.959383 220.180625 L 52.959383 226.180625 L 55.459383 226.180625 L 55.459383 220.180625" stroke="gray" fill="white" stroke-width="1px"></path><path d="M 55.459383 214.180625 L 52.959383 214.180625 L 52.959383 220.180625 L 55.459383 220.180625 L 55.459383 214.180625" stroke="gray" fill="white" stroke-width="1px"></path><path d="M 55.459383 208.180625 L 52.959383 208.180625 L 52.959383 214.180625 L 55.459383 214.180625 L 55.459383 208.180625" stroke="gray" fill="white" stroke-width="1px"></path><path d="M 43.459383 220.180625 L 40.959383 220.180625 L 40.959383 226.180625 L 43.459383 226.180625 L 43.459383 220.180625" stroke="gray" fill="white" stroke-width="1px"></path><path d="M 43.459383 214.180625 L 40.959383 214.180625 L 40.959383 220.180625 L 43.459383 220.180625 L 43.459383 214.180625" stroke="gray" fill="white" stroke-width="1px"></path><path d="M 43.459383 208.180625 L 40.959383 208.180625 L 40.959383 214.180625 L 43.459383 214.180625 L 43.459383 208.180625" stroke="gray" fill="white" stroke-width="1px"></path><path d="M 43.459383 202.180625 L 40.959383 202.180625 L 40.959383 208.180625 L 43.459383 208.180625 L 43.459383 202.180625" stroke="gray" fill="white" stroke-width="1px"></path><path d="M 31.459383 220.180625 L 28.959383 220.180625 L 28.959383 226.180625 L 31.459383 226.180625 L 31.459383 220.180625" stroke="gray" fill="white" stroke-width="1px"></path><path d="M 31.459383 214.180625 L 28.959383 214.180625 L 28.959383 220.180625 L 31.459383 220.180625 L 31.459383 214.180625" stroke="gray" fill="white" stroke-width="1px"></path><path d="M 31.459383 208.180625 L 28.959383 208.180625 L 28.959383 214.180625 L 31.459383 214.180625 L 31.459383 208.180625" stroke="gray" fill="white" stroke-width="1px"></path><path d="M 31.459383 202.180625 L 28.959383 202.180625 L 28.959383 208.180625 L 31.459383 208.180625 L 31.459383 202.180625" stroke="gray" fill="white" stroke-width="1px"></path><path d="M 19.459383 220.180625 L 16.959383 220.180625 L 16.959383 226.180625 L 19.459383 226.180625 L 19.459383 220.180625" stroke="gray" fill="white" stroke-width="1px"></path><path d="M 19.459383 214.180625 L 16.959383 214.180625 L 16.959383 220.180625 L 19.459383 220.180625 L 19.459383 214.180625" stroke="gray" fill="white" stroke-width="1px"></path><path d="M 19.459383 208.180625 L 16.959383 208.180625 L 16.959383 214.180625 L 19.459383 214.180625 L 19.459383 208.180625" stroke="gray" fill="white" stroke-width="1px"></path><path d="M 19.459383 202.180625 L 16.959383 202.180625 L 16.959383 208.180625 L 19.459383 208.180625 L 19.459383 202.180625" stroke="gray" fill="white" stroke-width="1px"></path><path d="M 127.459383 214.123437 L 124.959383 214.123437 L 124.959383 220.123437 L 127.459383 220.123437 L 127.459383 214.123437" stroke="gray" fill="white" stroke-width="1px"></path><path d="M 115.459383 214.123437 L 112.959383 214.123437 L 112.959383 220.123437 L 115.459383 220.123437 L 115.459383 214.123437" stroke="gray" fill="white" stroke-width="1px"></path><path d="M 103.459383 214.123437 L 100.959383 214.123437 L 100.959383 220.123437 L 103.459383 220.123437 L 103.459383 214.123437" stroke="gray" fill="white" stroke-width="1px"></path><path d="M 163.459383 214.123437 L 160.959383 214.123437 L 160.959383 220.123437 L 163.459383 220.123437 L 163.459383 214.123437" stroke="gray" fill="white" stroke-width="1px"></path><path d="M 163.459383 208.123437 L 160.959383 208.123437 L 160.959383 214.123437 L 163.459383 214.123437 L 163.459383 208.123437" stroke="gray" fill="white" stroke-width="1px"></path><path d="M 151.459383 214.123437 L 148.959383 214.123437 L 148.959383 220.123437 L 151.459383 220.123437 L 151.459383 214.123437" stroke="gray" fill="white" stroke-width="1px"></path><path d="M 151.459383 208.123437 L 148.959383 208.123437 L 148.959383 214.123437 L 151.459383 214.123437 L 151.459383 208.123437" stroke="gray" fill="white" stroke-width="1px"></path><path d="M 151.459383 202.123437 L 148.959383 202.123437 L 148.959383 208.123437 L 151.459383 208.123437 L 151.459383 202.123437" stroke="gray" fill="white" stroke-width="1px"></path><path d="M 151.459383 196.123437 L 148.959383 196.123437 L 148.959383 202.123437 L 151.459383 202.123437 L 151.459383 196.123437" stroke="gray" fill="white" stroke-width="1px"></path><path d="M 199.459383 214.123437 L 196.959383 214.123437 L 196.959383 220.123437 L 199.459383 220.123437 L 199.459383 214.123437" stroke="gray" fill="white" stroke-width="1px"></path><path d="M 199.459383 208.123437 L 196.959383 208.123437 L 196.959383 214.123437 L 199.459383 214.123437 L 199.459383 208.123437" stroke="gray" fill="white" stroke-width="1px"></path><path d="M 199.459383 202.123437 L 196.959383 202.123437 L 196.959383 208.123437 L 199.459383 208.123437 L 199.459383 202.123437" stroke="gray" fill="white" stroke-width="1px"></path><path d="M 199.459383 196.123437 L 196.959383 196.123437 L 196.959383 202.123437 L 199.459383 202.123437 L 199.459383 196.123437" stroke="gray" fill="white" stroke-width="1px"></path><path d="M 271.459383 214.123437 L 268.959383 214.123437 L 268.959383 220.123437 L 271.459383 220.123437 L 271.459383 214.123437" stroke="gray" fill="white" stroke-width="1px"></path><path d="M 271.459383 208.123437 L 268.959383 208.123437 L 268.959383 214.123437 L 271.459383 214.123437 L 271.459383 208.123437" stroke="gray" fill="white" stroke-width="1px"></path><path d="M 271.459383 202.123437 L 268.959383 202.123437 L 268.959383 208.123437 L 271.459383 208.123437 L 271.459383 202.123437" stroke="gray" fill="white" stroke-width="1px"></path><path d="M 271.459383 196.123437 L 268.959383 196.123437 L 268.959383 202.123437 L 271.459383 202.123437 L 271.459383 196.123437" stroke="gray" fill="white" stroke-width="1px"></path><path d="M 271.459383 190.123437 L 268.959383 190.123437 L 268.959383 196.123437 L 271.459383 196.123437 L 271.459383 190.123437" stroke="gray" fill="white" stroke-width="1px"></path><path d="M 271.459383 184.123437 L 268.959383 184.123437 L 268.959383 190.123437 L 271.459383 190.123437 L 271.459383 184.123437" stroke="gray" fill="white" stroke-width="1px"></path><path d="M 271.459383 178.123437 L 268.959383 178.123437 L 268.959383 184.123437 L 271.459383 184.123437 L 271.459383 178.123437" stroke="gray" fill="white" stroke-width="1px"></path><path d="M 259.459383 214.123437 L 256.959383 214.123437 L 256.959383 220.123437 L 259.459383 220.123437 L 259.459383 214.123437" stroke="gray" fill="white" stroke-width="1px"></path><path d="M 259.459383 208.123437 L 256.959383 208.123437 L 256.959383 214.123437 L 259.459383 214.123437 L 259.459383 208.123437" stroke="gray" fill="white" stroke-width="1px"></path><path d="M 259.459383 202.123437 L 256.959383 202.123437 L 256.959383 208.123437 L 259.459383 208.123437 L 259.459383 202.123437" stroke="gray" fill="white" stroke-width="1px"></path><path d="M 259.459383 196.123437 L 256.959383 196.123437 L 256.959383 202.123437 L 259.459383 202.123437 L 259.459383 196.123437" stroke="gray" fill="white" stroke-width="1px"></path><path d="M 259.459383 190.123437 L 256.959383 190.123437 L 256.959383 196.123437 L 259.459383 196.123437 L 259.459383 190.123437" stroke="gray" fill="white" stroke-width="1px"></path><path d="M 259.459383 184.123437 L 256.959383 184.123437 L 256.959383 190.123437 L 259.459383 190.123437 L 259.459383 184.123437" stroke="gray" fill="white" stroke-width="1px"></path><path d="M 259.459383 178.123437 L 256.959383 178.123437 L 256.959383 184.123437 L 259.459383 184.123437 L 259.459383 178.123437" stroke="gray" fill="white" stroke-width="1px"></path><path d="M 247.459383 214.123437 L 244.959383 214.123437 L 244.959383 220.123437 L 247.459383 220.123437 L 247.459383 214.123437" stroke="gray" fill="white" stroke-width="1px"></path><path d="M 247.459383 208.123437 L 244.959383 208.123437 L 244.959383 214.123437 L 247.459383 214.123437 L 247.459383 208.123437" stroke="gray" fill="white" stroke-width="1px"></path><path d="M 247.459383 202.123437 L 244.959383 202.123437 L 244.959383 208.123437 L 247.459383 208.123437 L 247.459383 202.123437" stroke="gray" fill="white" stroke-width="1px"></path><path d="M 247.459383 196.123437 L 244.959383 196.123437 L 244.959383 202.123437 L 247.459383 202.123437 L 247.459383 196.123437" stroke="gray" fill="white" stroke-width="1px"></path><path d="M 247.459383 190.123437 L 244.959383 190.123437 L 244.959383 196.123437 L 247.459383 196.123437 L 247.459383 190.123437" stroke="gray" fill="white" stroke-width="1px"></path><path d="M 247.459383 184.123437 L 244.959383 184.123437 L 244.959383 190.123437 L 247.459383 190.123437 L 247.459383 184.123437" stroke="gray" fill="white" stroke-width="1px"></path><path d="M 247.459383 178.123437 L 244.959383 178.123437 L 244.959383 184.123437 L 247.459383 184.123437 L 247.459383 178.123437" stroke="gray" fill="white" stroke-width="1px"></path><path d="M 55.459383 220.180625 L 57.959383 220.180625 L 57.959383 226.180625 L 55.459383 226.180625 L 55.459383 220.180625" stroke="gray" fill="white" stroke-width="1px"></path><path d="M 55.459383 214.180625 L 57.959383 214.180625 L 57.959383 220.180625 L 55.459383 220.180625 L 55.459383 214.180625" stroke="gray" fill="white" stroke-width="1px"></path><path d="M 55.459383 208.180625 L 57.959383 208.180625 L 57.959383 214.180625 L 55.459383 214.180625 L 55.459383 208.180625" stroke="gray" fill="white" stroke-width="1px"></path><path d="M 43.459383 220.180625 L 45.959383 220.180625 L 45.959383 226.180625 L 43.459383 226.180625 L 43.459383 220.180625" stroke="gray" fill="white" stroke-width="1px"></path><path d="M 43.459383 214.180625 L 45.959383 214.180625 L 45.959383 220.180625 L 43.459383 220.180625 L 43.459383 214.180625" stroke="gray" fill="white" stroke-width="1px"></path><path d="M 43.459383 208.180625 L 45.959383 208.180625 L 45.959383 214.180625 L 43.459383 214.180625 L 43.459383 208.180625" stroke="gray" fill="white" stroke-width="1px"></path><path d="M 43.459383 202.180625 L 45.959383 202.180625 L 45.959383 208.180625 L 43.459383 208.180625 L 43.459383 202.180625" stroke="gray" fill="white" stroke-width="1px"></path><path d="M 31.459383 220.180625 L 33.959383 220.180625 L 33.959383 226.180625 L 31.459383 226.180625 L 31.459383 220.180625" stroke="gray" fill="white" stroke-width="1px"></path><path d="M 31.459383 214.180625 L 33.959383 214.180625 L 33.959383 220.180625 L 31.459383 220.180625 L 31.459383 214.180625" stroke="gray" fill="white" stroke-width="1px"></path><path d="M 31.459383 208.180625 L 33.959383 208.180625 L 33.959383 214.180625 L 31.459383 214.180625 L 31.459383 208.180625" stroke="gray" fill="white" stroke-width="1px"></path><path d="M 31.459383 202.180625 L 33.959383 202.180625 L 33.959383 208.180625 L 31.459383 208.180625 L 31.459383 202.180625" stroke="gray" fill="white" stroke-width="1px"></path><path d="M 19.459383 220.180625 L 21.959383 220.180625 L 21.959383 226.180625 L 19.459383 226.180625 L 19.459383 220.180625" stroke="gray" fill="white" stroke-width="1px"></path><path d="M 19.459383 214.180625 L 21.959383 214.180625 L 21.959383 220.180625 L 19.459383 220.180625 L 19.459383 214.180625" stroke="gray" fill="white" stroke-width="1px"></path><path d="M 19.459383 208.180625 L 21.959383 208.180625 L 21.959383 214.180625 L 19.459383 214.180625 L 19.459383 208.180625" stroke="gray" fill="white" stroke-width="1px"></path><path d="M 19.459383 202.180625 L 21.959383 202.180625 L 21.959383 208.180625 L 19.459383 208.180625 L 19.459383 202.180625" stroke="gray" fill="white" stroke-width="1px"></path><path d="M 127.459383 214.123437 L 129.959383 214.123437 L 129.959383 220.123437 L 127.459383 220.123437 L 127.459383 214.123437" stroke="gray" fill="white" stroke-width="1px"></path><path d="M 115.459383 214.123437 L 117.959383 214.123437 L 117.959383 220.123437 L 115.459383 220.123437 L 115.459383 214.123437" stroke="gray" fill="white" stroke-width="1px"></path><path d="M 103.459383 214.123437 L 105.959383 214.123437 L 105.959383 220.123437 L 103.459383 220.123437 L 103.459383 214.123437" stroke="gray" fill="white" stroke-width="1px"></path><path d="M 163.459383 214.123437 L 165.959383 214.123437 L 165.959383 220.123437 L 163.459383 220.123437 L 163.459383 214.123437" stroke="gray" fill="white" stroke-width="1px"></path><path d="M 163.459383 208.123437 L 165.959383 208.123437 L 165.959383 214.123437 L 163.459383 214.123437 L 163.459383 208.123437" stroke="gray" fill="white" stroke-width="1px"></path><path d="M 151.459383 214.123437 L 153.959383 214.123437 L 153.959383 220.123437 L 151.459383 220.123437 L 151.459383 214.123437" stroke="gray" fill="white" stroke-width="1px"></path><path d="M 151.459383 208.123437 L 153.959383 208.123437 L 153.959383 214.123437 L 151.459383 214.123437 L 151.459383 208.123437" stroke="gray" fill="white" stroke-width="1px"></path><path d="M 151.459383 202.123437 L 153.959383 202.123437 L 153.959383 208.123437 L 151.459383 208.123437 L 151.459383 202.123437" stroke="gray" fill="white" stroke-width="1px"></path><path d="M 151.459383 196.123437 L 153.959383 196.123437 L 153.959383 202.123437 L 151.459383 202.123437 L 151.459383 196.123437" stroke="gray" fill="white" stroke-width="1px"></path><path d="M 199.459383 214.123437 L 201.959383 214.123437 L 201.959383 220.123437 L 199.459383 220.123437 L 199.459383 214.123437" stroke="gray" fill="white" stroke-width="1px"></path><path d="M 199.459383 208.123437 L 201.959383 208.123437 L 201.959383 214.123437 L 199.459383 214.123437 L 199.459383 208.123437" stroke="gray" fill="white" stroke-width="1px"></path><path d="M 199.459383 202.123437 L 201.959383 202.123437 L 201.959383 208.123437 L 199.459383 208.123437 L 199.459383 202.123437" stroke="gray" fill="white" stroke-width="1px"></path><path d="M 199.459383 196.123437 L 201.959383 196.123437 L 201.959383 202.123437 L 199.459383 202.123437 L 199.459383 196.123437" stroke="gray" fill="white" stroke-width="1px"></path><path d="M 271.459383 214.123437 L 273.959383 214.123437 L 273.959383 220.123437 L 271.459383 220.123437 L 271.459383 214.123437" stroke="gray" fill="white" stroke-width="1px"></path><path d="M 271.459383 208.123437 L 273.959383 208.123437 L 273.959383 214.123437 L 271.459383 214.123437 L 271.459383 208.123437" stroke="gray" fill="white" stroke-width="1px"></path><path d="M 271.459383 202.123437 L 273.959383 202.123437 L 273.959383 208.123437 L 271.459383 208.123437 L 271.459383 202.123437" stroke="gray" fill="white" stroke-width="1px"></path><path d="M 271.459383 196.123437 L 273.959383 196.123437 L 273.959383 202.123437 L 271.459383 202.123437 L 271.459383 196.123437" stroke="gray" fill="white" stroke-width="1px"></path><path d="M 271.459383 190.123437 L 273.959383 190.123437 L 273.959383 196.123437 L 271.459383 196.123437 L 271.459383 190.123437" stroke="gray" fill="white" stroke-width="1px"></path><path d="M 271.459383 184.123437 L 273.959383 184.123437 L 273.959383 190.123437 L 271.459383 190.123437 L 271.459383 184.123437" stroke="gray" fill="white" stroke-width="1px"></path><path d="M 271.459383 178.123437 L 273.959383 178.123437 L 273.959383 184.123437 L 271.459383 184.123437 L 271.459383 178.123437" stroke="gray" fill="white" stroke-width="1px"></path><path d="M 259.459383 214.123437 L 261.959383 214.123437 L 261.959383 220.123437 L 259.459383 220.123437 L 259.459383 214.123437" stroke="gray" fill="white" stroke-width="1px"></path><path d="M 259.459383 208.123437 L 261.959383 208.123437 L 261.959383 214.123437 L 259.459383 214.123437 L 259.459383 208.123437" stroke="gray" fill="white" stroke-width="1px"></path><path d="M 259.459383 202.123437 L 261.959383 202.123437 L 261.959383 208.123437 L 259.459383 208.123437 L 259.459383 202.123437" stroke="gray" fill="white" stroke-width="1px"></path><path d="M 259.459383 196.123437 L 261.959383 196.123437 L 261.959383 202.123437 L 259.459383 202.123437 L 259.459383 196.123437" stroke="gray" fill="white" stroke-width="1px"></path><path d="M 259.459383 190.123437 L 261.959383 190.123437 L 261.959383 196.123437 L 259.459383 196.123437 L 259.459383 190.123437" stroke="gray" fill="white" stroke-width="1px"></path><path d="M 259.459383 184.123437 L 261.959383 184.123437 L 261.959383 190.123437 L 259.459383 190.123437 L 259.459383 184.123437" stroke="gray" fill="white" stroke-width="1px"></path><path d="M 259.459383 178.123437 L 261.959383 178.123437 L 261.959383 184.123437 L 259.459383 184.123437 L 259.459383 178.123437" stroke="gray" fill="white" stroke-width="1px"></path><path d="M 247.459383 214.123437 L 249.959383 214.123437 L 249.959383 220.123437 L 247.459383 220.123437 L 247.459383 214.123437" stroke="gray" fill="white" stroke-width="1px"></path><path d="M 247.459383 208.123437 L 249.959383 208.123437 L 249.959383 214.123437 L 247.459383 214.123437 L 247.459383 208.123437" stroke="gray" fill="white" stroke-width="1px"></path><path d="M 247.459383 202.123437 L 249.959383 202.123437 L 249.959383 208.123437 L 247.459383 208.123437 L 247.459383 202.123437" stroke="gray" fill="white" stroke-width="1px"></path><path d="M 247.459383 196.123437 L 249.959383 196.123437 L 249.959383 202.123437 L 247.459383 202.123437 L 247.459383 196.123437" stroke="gray" fill="white" stroke-width="1px"></path><path d="M 247.459383 190.123437 L 249.959383 190.123437 L 249.959383 196.123437 L 247.459383 196.123437 L 247.459383 190.123437" stroke="gray" fill="white" stroke-width="1px"></path><path d="M 247.459383 184.123437 L 249.959383 184.123437 L 249.959383 190.123437 L 247.459383 190.123437 L 247.459383 184.123437" stroke="gray" fill="white" stroke-width="1px"></path><path d="M 247.459383 178.123437 L 249.959383 178.123437 L 249.959383 184.123437 L 247.459383 184.123437 L 247.459383 178.123437" stroke="gray" fill="white" stroke-width="1px"></path><path d="M 58.000000 160.123437 L 58.000000 157.623437 L 52.000000 157.623437 L 52.000000 160.123437 L 58.000000 160.123437" stroke="gray" fill="white" stroke-width="1px"></path><path d="M 22.000000 148.123437 L 22.000000 145.623437 L 16.000000 145.623437 L 16.000000 148.123437 L 22.000000 148.123437" stroke="gray" fill="white" stroke-width="1px"></path><path d="M 28.000000 148.123437 L 28.000000 145.623437 L 22.000000 145.623437 L 22.000000 148.123437 L 28.000000 148.123437" stroke="gray" fill="white" stroke-width="1px"></path><path d="M 34.000000 148.123437 L 34.000000 145.623437 L 28.000000 145.623437 L 28.000000 148.123437 L 34.000000 148.123437" stroke="gray" fill="white" stroke-width="1px"></path><path d="M 40.000000 148.123437 L 40.000000 145.623437 L 34.000000 145.623437 L 34.000000 148.123437 L 40.000000 148.123437" stroke="gray" fill="white" stroke-width="1px"></path><path d="M 46.000000 148.123437 L 46.000000 145.623437 L 40.000000 145.623437 L 40.000000 148.123437 L 46.000000 148.123437" stroke="gray" fill="white" stroke-width="1px"></path><path d="M 52.000000 148.123437 L 52.000000 145.623437 L 46.000000 145.623437 L 46.000000 148.123437 L 52.000000 148.123437" stroke="gray" fill="white" stroke-width="1px"></path><path d="M 58.000000 148.123437 L 58.000000 145.623437 L 52.000000 145.623437 L 52.000000 148.123437 L 58.000000 148.123437" stroke="gray" fill="white" stroke-width="1px"></path><path d="M 22.000000 136.123437 L 22.000000 133.623437 L 16.000000 133.623437 L 16.000000 136.123437 L 22.000000 136.123437" stroke="gray" fill="white" stroke-width="1px"></path><path d="M 28.000000 136.123437 L 28.000000 133.623437 L 22.000000 133.623437 L 22.000000 136.123437 L 28.000000 136.123437" stroke="gray" fill="white" stroke-width="1px"></path><path d="M 34.000000 136.123437 L 34.000000 133.623437 L 28.000000 133.623437 L 28.000000 136.123437 L 34.000000 136.123437" stroke="gray" fill="white" stroke-width="1px"></path><path d="M 40.000000 136.123437 L 40.000000 133.623437 L 34.000000 133.623437 L 34.000000 136.123437 L 40.000000 136.123437" stroke="gray" fill="white" stroke-width="1px"></path><path d="M 46.000000 136.123437 L 46.000000 133.623437 L 40.000000 133.623437 L 40.000000 136.123437 L 46.000000 136.123437" stroke="gray" fill="white" stroke-width="1px"></path><path d="M 52.000000 136.123437 L 52.000000 133.623437 L 46.000000 133.623437 L 46.000000 136.123437 L 52.000000 136.123437" stroke="gray" fill="white" stroke-width="1px"></path><path d="M 58.000000 136.123437 L 58.000000 133.623437 L 52.000000 133.623437 L 52.000000 136.123437 L 58.000000 136.123437" stroke="gray" fill="white" stroke-width="1px"></path><path d="M 266.801758 160.123437 L 266.801758 157.623437 L 260.801758 157.623437 L 260.801758 160.123437 L 266.801758 160.123437" stroke="gray" fill="white" stroke-width="1px"></path><path d="M 272.801758 160.123437 L 272.801758 157.623437 L 266.801758 157.623437 L 266.801758 160.123437 L 272.801758 160.123437" stroke="gray" fill="white" stroke-width="1px"></path><path d="M 278.801758 160.123437 L 278.801758 157.623437 L 272.801758 157.623437 L 272.801758 160.123437 L 278.801758 160.123437" stroke="gray" fill="white" stroke-width="1px"></path><path d="M 266.801758 148.123437 L 266.801758 145.623437 L 260.801758 145.623437 L 260.801758 148.123437 L 266.801758 148.123437" stroke="gray" fill="white" stroke-width="1px"></path><path d="M 272.801758 148.123437 L 272.801758 145.623437 L 266.801758 145.623437 L 266.801758 148.123437 L 272.801758 148.123437" stroke="gray" fill="white" stroke-width="1px"></path><path d="M 278.801758 148.123437 L 278.801758 145.623437 L 272.801758 145.623437 L 272.801758 148.123437 L 278.801758 148.123437" stroke="gray" fill="white" stroke-width="1px"></path><path d="M 266.801758 136.123437 L 266.801758 133.623437 L 260.801758 133.623437 L 260.801758 136.123437 L 266.801758 136.123437" stroke="gray" fill="white" stroke-width="1px"></path><path d="M 272.801758 136.123437 L 272.801758 133.623437 L 266.801758 133.623437 L 266.801758 136.123437 L 272.801758 136.123437" stroke="gray" fill="white" stroke-width="1px"></path><path d="M 278.801758 136.123437 L 278.801758 133.623437 L 272.801758 133.623437 L 272.801758 136.123437 L 278.801758 136.123437" stroke="gray" fill="white" stroke-width="1px"></path><path d="M 58.000000 160.123437 L 58.000000 162.623437 L 52.000000 162.623437 L 52.000000 160.123437 L 58.000000 160.123437" stroke="gray" fill="white" stroke-width="1px"></path><path d="M 22.000000 148.123437 L 22.000000 150.623437 L 16.000000 150.623437 L 16.000000 148.123437 L 22.000000 148.123437" stroke="gray" fill="white" stroke-width="1px"></path><path d="M 28.000000 148.123437 L 28.000000 150.623437 L 22.000000 150.623437 L 22.000000 148.123437 L 28.000000 148.123437" stroke="gray" fill="white" stroke-width="1px"></path><path d="M 34.000000 148.123437 L 34.000000 150.623437 L 28.000000 150.623437 L 28.000000 148.123437 L 34.000000 148.123437" stroke="gray" fill="white" stroke-width="1px"></path><path d="M 40.000000 148.123437 L 40.000000 150.623437 L 34.000000 150.623437 L 34.000000 148.123437 L 40.000000 148.123437" stroke="gray" fill="white" stroke-width="1px"></path><path d="M 46.000000 148.123437 L 46.000000 150.623437 L 40.000000 150.623437 L 40.000000 148.123437 L 46.000000 148.123437" stroke="gray" fill="white" stroke-width="1px"></path><path d="M 52.000000 148.123437 L 52.000000 150.623437 L 46.000000 150.623437 L 46.000000 148.123437 L 52.000000 148.123437" stroke="gray" fill="white" stroke-width="1px"></path><path d="M 58.000000 148.123437 L 58.000000 150.623437 L 52.000000 150.623437 L 52.000000 148.123437 L 58.000000 148.123437" stroke="gray" fill="white" stroke-width="1px"></path><path d="M 22.000000 136.123437 L 22.000000 138.623437 L 16.000000 138.623437 L 16.000000 136.123437 L 22.000000 136.123437" stroke="gray" fill="white" stroke-width="1px"></path><path d="M 28.000000 136.123437 L 28.000000 138.623437 L 22.000000 138.623437 L 22.000000 136.123437 L 28.000000 136.123437" stroke="gray" fill="white" stroke-width="1px"></path><path d="M 34.000000 136.123437 L 34.000000 138.623437 L 28.000000 138.623437 L 28.000000 136.123437 L 34.000000 136.123437" stroke="gray" fill="white" stroke-width="1px"></path><path d="M 40.000000 136.123437 L 40.000000 138.623437 L 34.000000 138.623437 L 34.000000 136.123437 L 40.000000 136.123437" stroke="gray" fill="white" stroke-width="1px"></path><path d="M 46.000000 136.123437 L 46.000000 138.623437 L 40.000000 138.623437 L 40.000000 136.123437 L 46.000000 136.123437" stroke="gray" fill="white" stroke-width="1px"></path><path d="M 52.000000 136.123437 L 52.000000 138.623437 L 46.000000 138.623437 L 46.000000 136.123437 L 52.000000 136.123437" stroke="gray" fill="white" stroke-width="1px"></path><path d="M 58.000000 136.123437 L 58.000000 138.623437 L 52.000000 138.623437 L 52.000000 136.123437 L 58.000000 136.123437" stroke="gray" fill="white" stroke-width="1px"></path><path d="M 266.801758 160.123437 L 266.801758 162.623437 L 260.801758 162.623437 L 260.801758 160.123437 L 266.801758 160.123437" stroke="gray" fill="white" stroke-width="1px"></path><path d="M 272.801758 160.123437 L 272.801758 162.623437 L 266.801758 162.623437 L 266.801758 160.123437 L 272.801758 160.123437" stroke="gray" fill="white" stroke-width="1px"></path><path d="M 278.801758 160.123437 L 278.801758 162.623437 L 272.801758 162.623437 L 272.801758 160.123437 L 278.801758 160.123437" stroke="gray" fill="white" stroke-width="1px"></path><path d="M 266.801758 148.123437 L 266.801758 150.623437 L 260.801758 150.623437 L 260.801758 148.123437 L 266.801758 148.123437" stroke="gray" fill="white" stroke-width="1px"></path><path d="M 272.801758 148.123437 L 272.801758 150.623437 L 266.801758 150.623437 L 266.801758 148.123437 L 272.801758 148.123437" stroke="gray" fill="white" stroke-width="1px"></path><path d="M 278.801758 148.123437 L 278.801758 150.623437 L 272.801758 150.623437 L 272.801758 148.123437 L 278.801758 148.123437" stroke="gray" fill="white" stroke-width="1px"></path><path d="M 266.801758 136.123437 L 266.801758 138.623437 L 260.801758 138.623437 L 260.801758 136.123437 L 266.801758 136.123437" stroke="gray" fill="white" stroke-width="1px"></path><path d="M 272.801758 136.123437 L 272.801758 138.623437 L 266.801758 138.623437 L 266.801758 136.123437 L 272.801758 136.123437" stroke="gray" fill="white" stroke-width="1px"></path><path d="M 278.801758 136.123437 L 278.801758 138.623437 L 272.801758 138.623437 L 272.801758 136.123437 L 278.801758 136.123437" stroke="gray" fill="white" stroke-width="1px"></path><path d="M 271.459383 25.053902 L 268.959383 25.053902 L 268.959383 31.053902 L 271.459383 31.053902 L 271.459383 25.053902" stroke="gray" fill="white" stroke-width="1px"></path><path d="M 271.459383 19.053902 L 268.959383 19.053902 L 268.959383 25.053902 L 271.459383 25.053902 L 271.459383 19.053902" stroke="gray" fill="white" stroke-width="1px"></path><path d="M 271.459383 13.053902 L 268.959383 13.053902 L 268.959383 19.053902 L 271.459383 19.053902 L 271.459383 13.053902" stroke="gray" fill="white" stroke-width="1px"></path><path d="M 259.459383 25.273277 L 256.959383 25.273277 L 256.959383 31.273277 L 259.459383 31.273277 L 259.459383 25.273277" stroke="gray" fill="white" stroke-width="1px"></path><path d="M 259.459383 19.273277 L 256.959383 19.273277 L 256.959383 25.273277 L 259.459383 25.273277 L 259.459383 19.273277" stroke="gray" fill="white" stroke-width="1px"></path><path d="M 259.459383 13.273277 L 256.959383 13.273277 L 256.959383 19.273277 L 259.459383 19.273277 L 259.459383 13.273277" stroke="gray" fill="white" stroke-width="1px"></path><path d="M 247.459383 25.492651 L 244.959383 25.492651 L 244.959383 31.492651 L 247.459383 31.492651 L 247.459383 25.492651" stroke="gray" fill="white" stroke-width="1px"></path><path d="M 247.459383 19.492651 L 244.959383 19.492651 L 244.959383 25.492651 L 247.459383 25.492651 L 247.459383 19.492651" stroke="gray" fill="white" stroke-width="1px"></path><path d="M 247.459383 13.492651 L 244.959383 13.492651 L 244.959383 19.492651 L 247.459383 19.492651 L 247.459383 13.492651" stroke="gray" fill="white" stroke-width="1px"></path><path d="M 235.459383 31.422977 L 232.959383 31.422977 L 232.959383 37.422977 L 235.459383 37.422977 L 235.459383 31.422977" stroke="gray" fill="white" stroke-width="1px"></path><path d="M 235.459383 25.422977 L 232.959383 25.422977 L 232.959383 31.422977 L 235.459383 31.422977 L 235.459383 25.422977" stroke="gray" fill="white" stroke-width="1px"></path><path d="M 235.459383 19.422977 L 232.959383 19.422977 L 232.959383 25.422977 L 235.459383 25.422977 L 235.459383 19.422977" stroke="gray" fill="white" stroke-width="1px"></path><path d="M 235.459383 13.422977 L 232.959383 13.422977 L 232.959383 19.422977 L 235.459383 19.422977 L 235.459383 13.422977" stroke="gray" fill="white" stroke-width="1px"></path><path d="M 199.459383 101.033125 L 196.959383 101.033125 L 196.959383 107.033125 L 199.459383 107.033125 L 199.459383 101.033125" stroke="gray" fill="white" stroke-width="1px"></path><path d="M 187.459383 101.033125 L 184.959383 101.033125 L 184.959383 107.033125 L 187.459383 107.033125 L 187.459383 101.033125" stroke="gray" fill="white" stroke-width="1px"></path><path d="M 163.459383 101.033125 L 160.959383 101.033125 L 160.959383 107.033125 L 163.459383 107.033125 L 163.459383 101.033125" stroke="gray" fill="white" stroke-width="1px"></path><path d="M 151.459383 101.033125 L 148.959383 101.033125 L 148.959383 107.033125 L 151.459383 107.033125 L 151.459383 101.033125" stroke="gray" fill="white" stroke-width="1px"></path><path d="M 139.459383 101.033125 L 136.959383 101.033125 L 136.959383 107.033125 L 139.459383 107.033125 L 139.459383 101.033125" stroke="gray" fill="white" stroke-width="1px"></path><path d="M 127.459383 101.033125 L 124.959383 101.033125 L 124.959383 107.033125 L 127.459383 107.033125 L 127.459383 101.033125" stroke="gray" fill="white" stroke-width="1px"></path><path d="M 115.459383 101.033125 L 112.959383 101.033125 L 112.959383 107.033125 L 115.459383 107.033125 L 115.459383 101.033125" stroke="gray" fill="white" stroke-width="1px"></path><path d="M 103.459383 101.033125 L 100.959383 101.033125 L 100.959383 107.033125 L 103.459383 107.033125 L 103.459383 101.033125" stroke="gray" fill="white" stroke-width="1px"></path><path d="M 31.459383 50.564229 L 28.959383 50.564229 L 28.959383 56.564229 L 31.459383 56.564229 L 31.459383 50.564229" stroke="gray" fill="white" stroke-width="1px"></path><path d="M 31.459383 44.564229 L 28.959383 44.564229 L 28.959383 50.564229 L 31.459383 50.564229 L 31.459383 44.564229" stroke="gray" fill="white" stroke-width="1px"></path><path d="M 31.459383 38.564229 L 28.959383 38.564229 L 28.959383 44.564229 L 31.459383 44.564229 L 31.459383 38.564229" stroke="gray" fill="white" stroke-width="1px"></path><path d="M 31.459383 32.564229 L 28.959383 32.564229 L 28.959383 38.564229 L 31.459383 38.564229 L 31.459383 32.564229" stroke="gray" fill="white" stroke-width="1px"></path><path d="M 31.459383 26.564229 L 28.959383 26.564229 L 28.959383 32.564229 L 31.459383 32.564229 L 31.459383 26.564229" stroke="gray" fill="white" stroke-width="1px"></path><path d="M 31.459383 20.564229 L 28.959383 20.564229 L 28.959383 26.564229 L 31.459383 26.564229 L 31.459383 20.564229" stroke="gray" fill="white" stroke-width="1px"></path><path d="M 31.459383 14.564229 L 28.959383 14.564229 L 28.959383 20.564229 L 31.459383 20.564229 L 31.459383 14.564229" stroke="gray" fill="white" stroke-width="1px"></path><path d="M 19.459383 51.995802 L 16.959383 51.995802 L 16.959383 57.995802 L 19.459383 57.995802 L 19.459383 51.995802" stroke="gray" fill="white" stroke-width="1px"></path><path d="M 19.459383 45.995802 L 16.959383 45.995802 L 16.959383 51.995802 L 19.459383 51.995802 L 19.459383 45.995802" stroke="gray" fill="white" stroke-width="1px"></path><path d="M 19.459383 39.995802 L 16.959383 39.995802 L 16.959383 45.995802 L 19.459383 45.995802 L 19.459383 39.995802" stroke="gray" fill="white" stroke-width="1px"></path><path d="M 19.459383 33.995802 L 16.959383 33.995802 L 16.959383 39.995802 L 19.459383 39.995802 L 19.459383 33.995802" stroke="gray" fill="white" stroke-width="1px"></path><path d="M 19.459383 27.995802 L 16.959383 27.995802 L 16.959383 33.995802 L 19.459383 33.995802 L 19.459383 27.995802" stroke="gray" fill="white" stroke-width="1px"></path><path d="M 19.459383 21.995802 L 16.959383 21.995802 L 16.959383 27.995802 L 19.459383 27.995802 L 19.459383 21.995802" stroke="gray" fill="white" stroke-width="1px"></path><path d="M 19.459383 15.995802 L 16.959383 15.995802 L 16.959383 21.995802 L 19.459383 21.995802 L 19.459383 15.995802" stroke="gray" fill="white" stroke-width="1px"></path><path d="M 271.459383 25.053902 L 273.959383 25.053902 L 273.959383 31.053902 L 271.459383 31.053902 L 271.459383 25.053902" stroke="gray" fill="white" stroke-width="1px"></path><path d="M 271.459383 19.053902 L 273.959383 19.053902 L 273.959383 25.053902 L 271.459383 25.053902 L 271.459383 19.053902" stroke="gray" fill="white" stroke-width="1px"></path><path d="M 271.459383 13.053902 L 273.959383 13.053902 L 273.959383 19.053902 L 271.459383 19.053902 L 271.459383 13.053902" stroke="gray" fill="white" stroke-width="1px"></path><path d="M 259.459383 25.273277 L 261.959383 25.273277 L 261.959383 31.273277 L 259.459383 31.273277 L 259.459383 25.273277" stroke="gray" fill="white" stroke-width="1px"></path><path d="M 259.459383 19.273277 L 261.959383 19.273277 L 261.959383 25.273277 L 259.459383 25.273277 L 259.459383 19.273277" stroke="gray" fill="white" stroke-width="1px"></path><path d="M 259.459383 13.273277 L 261.959383 13.273277 L 261.959383 19.273277 L 259.459383 19.273277 L 259.459383 13.273277" stroke="gray" fill="white" stroke-width="1px"></path><path d="M 247.459383 25.492651 L 249.959383 25.492651 L 249.959383 31.492651 L 247.459383 31.492651 L 247.459383 25.492651" stroke="gray" fill="white" stroke-width="1px"></path><path d="M 247.459383 19.492651 L 249.959383 19.492651 L 249.959383 25.492651 L 247.459383 25.492651 L 247.459383 19.492651" stroke="gray" fill="white" stroke-width="1px"></path><path d="M 247.459383 13.492651 L 249.959383 13.492651 L 249.959383 19.492651 L 247.459383 19.492651 L 247.459383 13.492651" stroke="gray" fill="white" stroke-width="1px"></path><path d="M 235.459383 31.422977 L 237.959383 31.422977 L 237.959383 37.422977 L 235.459383 37.422977 L 235.459383 31.422977" stroke="gray" fill="white" stroke-width="1px"></path><path d="M 235.459383 25.422977 L 237.959383 25.422977 L 237.959383 31.422977 L 235.459383 31.422977 L 235.459383 25.422977" stroke="gray" fill="white" stroke-width="1px"></path><path d="M 235.459383 19.422977 L 237.959383 19.422977 L 237.959383 25.422977 L 235.459383 25.422977 L 235.459383 19.422977" stroke="gray" fill="white" stroke-width="1px"></path><path d="M 235.459383 13.422977 L 237.959383 13.422977 L 237.959383 19.422977 L 235.459383 19.422977 L 235.459383 13.422977" stroke="gray" fill="white" stroke-width="1px"></path><path d="M 199.459383 101.033125 L 201.959383 101.033125 L 201.959383 107.033125 L 199.459383 107.033125 L 199.459383 101.033125" stroke="gray" fill="white" stroke-width="1px"></path><path d="M 187.459383 101.033125 L 189.959383 101.033125 L 189.959383 107.033125 L 187.459383 107.033125 L 187.459383 101.033125" stroke="gray" fill="white" stroke-width="1px"></path><path d="M 175.459383 101.033125 L 177.959383 101.033125 L 177.959383 107.033125 L 175.459383 107.033125 L 175.459383 101.033125" stroke="gray" fill="white" stroke-width="1px"></path><path d="M 163.459383 101.033125 L 165.959383 101.033125 L 165.959383 107.033125 L 163.459383 107.033125 L 163.459383 101.033125" stroke="gray" fill="white" stroke-width="1px"></path><path d="M 151.459383 101.033125 L 153.959383 101.033125 L 153.959383 107.033125 L 151.459383 107.033125 L 151.459383 101.033125" stroke="gray" fill="white" stroke-width="1px"></path><path d="M 139.459383 101.033125 L 141.959383 101.033125 L 141.959383 107.033125 L 139.459383 107.033125 L 139.459383 101.033125" stroke="gray" fill="white" stroke-width="1px"></path><path d="M 127.459383 101.033125 L 129.959383 101.033125 L 129.959383 107.033125 L 127.459383 107.033125 L 127.459383 101.033125" stroke="gray" fill="white" stroke-width="1px"></path><path d="M 115.459383 101.033125 L 117.959383 101.033125 L 117.959383 107.033125 L 115.459383 107.033125 L 115.459383 101.033125" stroke="gray" fill="white" stroke-width="1px"></path><path d="M 103.459383 101.033125 L 105.959383 101.033125 L 105.959383 107.033125 L 103.459383 107.033125 L 103.459383 101.033125" stroke="gray" fill="white" stroke-width="1px"></path><path d="M 31.459383 50.564229 L 33.959383 50.564229 L 33.959383 56.564229 L 31.459383 56.564229 L 31.459383 50.564229" stroke="gray" fill="white" stroke-width="1px"></path><path d="M 31.459383 44.564229 L 33.959383 44.564229 L 33.959383 50.564229 L 31.459383 50.564229 L 31.459383 44.564229" stroke="gray" fill="white" stroke-width="1px"></path><path d="M 31.459383 38.564229 L 33.959383 38.564229 L 33.959383 44.564229 L 31.459383 44.564229 L 31.459383 38.564229" stroke="gray" fill="white" stroke-width="1px"></path><path d="M 31.459383 32.564229 L 33.959383 32.564229 L 33.959383 38.564229 L 31.459383 38.564229 L 31.459383 32.564229" stroke="gray" fill="white" stroke-width="1px"></path><path d="M 31.459383 26.564229 L 33.959383 26.564229 L 33.959383 32.564229 L 31.459383 32.564229 L 31.459383 26.564229" stroke="gray" fill="white" stroke-width="1px"></path><path d="M 31.459383 20.564229 L 33.959383 20.564229 L 33.959383 26.564229 L 31.459383 26.564229 L 31.459383 20.564229" stroke="gray" fill="white" stroke-width="1px"></path><path d="M 31.459383 14.564229 L 33.959383 14.564229 L 33.959383 20.564229 L 31.459383 20.564229 L 31.459383 14.564229" stroke="gray" fill="white" stroke-width="1px"></path><path d="M 19.459383 51.995802 L 21.959383 51.995802 L 21.959383 57.995802 L 19.459383 57.995802 L 19.459383 51.995802" stroke="gray" fill="white" stroke-width="1px"></path><path d="M 19.459383 45.995802 L 21.959383 45.995802 L 21.959383 51.995802 L 19.459383 51.995802 L 19.459383 45.995802" stroke="gray" fill="white" stroke-width="1px"></path><path d="M 19.459383 39.995802 L 21.959383 39.995802 L 21.959383 45.995802 L 19.459383 45.995802 L 19.459383 39.995802" stroke="gray" fill="white" stroke-width="1px"></path><path d="M 19.459383 33.995802 L 21.959383 33.995802 L 21.959383 39.995802 L 19.459383 39.995802 L 19.459383 33.995802" stroke="gray" fill="white" stroke-width="1px"></path><path d="M 19.459383 27.995802 L 21.959383 27.995802 L 21.959383 33.995802 L 19.459383 33.995802 L 19.459383 27.995802" stroke="gray" fill="white" stroke-width="1px"></path><path d="M 19.459383 21.995802 L 21.959383 21.995802 L 21.959383 27.995802 L 19.459383 27.995802 L 19.459383 21.995802" stroke="gray" fill="white" stroke-width="1px"></path><path d="M 19.459383 15.995802 L 21.959383 15.995802 L 21.959383 21.995802 L 19.459383 21.995802 L 19.459383 15.995802" stroke="gray" fill="white" stroke-width="1px"></path><path d="M 273.724314 101.263579 L 273.724314 98.763579 L 267.724314 98.763579 L 267.724314 101.263579 L 273.724314 101.263579" stroke="gray" fill="white" stroke-width="1px"></path><path d="M 272.120898 89.263579 L 272.120898 86.763579 L 266.120898 86.763579 L 266.120898 89.263579 L 272.120898 89.263579" stroke="gray" fill="white" stroke-width="1px"></path><path d="M 278.120898 89.263579 L 278.120898 86.763579 L 272.120898 86.763579 L 272.120898 89.263579 L 278.120898 89.263579" stroke="gray" fill="white" stroke-width="1px"></path><path d="M 270.517483 77.263579 L 270.517483 74.763579 L 264.517483 74.763579 L 264.517483 77.263579 L 270.517483 77.263579" stroke="gray" fill="white" stroke-width="1px"></path><path d="M 276.517483 77.263579 L 276.517483 74.763579 L 270.517483 74.763579 L 270.517483 77.263579 L 276.517483 77.263579" stroke="gray" fill="white" stroke-width="1px"></path><path d="M 268.914068 65.263579 L 268.914068 62.763579 L 262.914068 62.763579 L 262.914068 65.263579 L 268.914068 65.263579" stroke="gray" fill="white" stroke-width="1px"></path><path d="M 274.914068 65.263579 L 274.914068 62.763579 L 268.914068 62.763579 L 268.914068 65.263579 L 274.914068 65.263579" stroke="gray" fill="white" stroke-width="1px"></path><path d="M 228.397719 101.263579 L 228.397719 98.763579 L 222.397719 98.763579 L 222.397719 101.263579 L 228.397719 101.263579" stroke="gray" fill="white" stroke-width="1px"></path><path d="M 234.397719 101.263579 L 234.397719 98.763579 L 228.397719 98.763579 L 228.397719 101.263579 L 234.397719 101.263579" stroke="gray" fill="white" stroke-width="1px"></path><path d="M 240.397719 101.263579 L 240.397719 98.763579 L 234.397719 98.763579 L 234.397719 101.263579 L 240.397719 101.263579" stroke="gray" fill="white" stroke-width="1px"></path><path d="M 228.061030 89.263579 L 228.061030 86.763579 L 222.061030 86.763579 L 222.061030 89.263579 L 228.061030 89.263579" stroke="gray" fill="white" stroke-width="1px"></path><path d="M 234.061030 89.263579 L 234.061030 86.763579 L 228.061030 86.763579 L 228.061030 89.263579 L 234.061030 89.263579" stroke="gray" fill="white" stroke-width="1px"></path><path d="M 240.061030 89.263579 L 240.061030 86.763579 L 234.061030 86.763579 L 234.061030 89.263579 L 240.061030 89.263579" stroke="gray" fill="white" stroke-width="1px"></path><path d="M 233.737654 77.263579 L 233.737654 74.763579 L 227.737654 74.763579 L 227.737654 77.263579 L 233.737654 77.263579" stroke="gray" fill="white" stroke-width="1px"></path><path d="M 233.737654 65.263579 L 233.737654 62.763579 L 227.737654 62.763579 L 227.737654 65.263579 L 233.737654 65.263579" stroke="gray" fill="white" stroke-width="1px"></path><path d="M 233.737654 53.263579 L 233.737654 50.763579 L 227.737654 50.763579 L 227.737654 53.263579 L 233.737654 53.263579" stroke="gray" fill="white" stroke-width="1px"></path><path d="M 22.000000 101.263579 L 22.000000 98.763579 L 16.000000 98.763579 L 16.000000 101.263579 L 22.000000 101.263579" stroke="gray" fill="white" stroke-width="1px"></path><path d="M 28.000000 101.263579 L 28.000000 98.763579 L 22.000000 98.763579 L 22.000000 101.263579 L 28.000000 101.263579" stroke="gray" fill="white" stroke-width="1px"></path><path d="M 34.000000 101.263579 L 34.000000 98.763579 L 28.000000 98.763579 L 28.000000 101.263579 L 34.000000 101.263579" stroke="gray" fill="white" stroke-width="1px"></path><path d="M 40.000000 101.263579 L 40.000000 98.763579 L 34.000000 98.763579 L 34.000000 101.263579 L 40.000000 101.263579" stroke="gray" fill="white" stroke-width="1px"></path><path d="M 46.000000 101.263579 L 46.000000 98.763579 L 40.000000 98.763579 L 40.000000 101.263579 L 46.000000 101.263579" stroke="gray" fill="white" stroke-width="1px"></path><path d="M 52.000000 101.263579 L 52.000000 98.763579 L 46.000000 98.763579 L 46.000000 101.263579 L 52.000000 101.263579" stroke="gray" fill="white" stroke-width="1px"></path><path d="M 58.000000 101.263579 L 58.000000 98.763579 L 52.000000 98.763579 L 52.000000 101.263579 L 58.000000 101.263579" stroke="gray" fill="white" stroke-width="1px"></path><path d="M 22.000000 89.263579 L 22.000000 86.763579 L 16.000000 86.763579 L 16.000000 89.263579 L 22.000000 89.263579" stroke="gray" fill="white" stroke-width="1px"></path><path d="M 28.000000 89.263579 L 28.000000 86.763579 L 22.000000 86.763579 L 22.000000 89.263579 L 28.000000 89.263579" stroke="gray" fill="white" stroke-width="1px"></path><path d="M 34.000000 89.263579 L 34.000000 86.763579 L 28.000000 86.763579 L 28.000000 89.263579 L 34.000000 89.263579" stroke="gray" fill="white" stroke-width="1px"></path><path d="M 40.000000 89.263579 L 40.000000 86.763579 L 34.000000 86.763579 L 34.000000 89.263579 L 40.000000 89.263579" stroke="gray" fill="white" stroke-width="1px"></path><path d="M 46.000000 89.263579 L 46.000000 86.763579 L 40.000000 86.763579 L 40.000000 89.263579 L 46.000000 89.263579" stroke="gray" fill="white" stroke-width="1px"></path><path d="M 52.000000 89.263579 L 52.000000 86.763579 L 46.000000 86.763579 L 46.000000 89.263579 L 52.000000 89.263579" stroke="gray" fill="white" stroke-width="1px"></path><path d="M 58.000000 89.263579 L 58.000000 86.763579 L 52.000000 86.763579 L 52.000000 89.263579 L 58.000000 89.263579" stroke="gray" fill="white" stroke-width="1px"></path><path d="M 40.000000 77.263579 L 40.000000 74.763579 L 34.000000 74.763579 L 34.000000 77.263579 L 40.000000 77.263579" stroke="gray" fill="white" stroke-width="1px"></path><path d="M 46.000000 77.263579 L 46.000000 74.763579 L 40.000000 74.763579 L 40.000000 77.263579 L 46.000000 77.263579" stroke="gray" fill="white" stroke-width="1px"></path><path d="M 52.000000 77.263579 L 52.000000 74.763579 L 46.000000 74.763579 L 46.000000 77.263579 L 52.000000 77.263579" stroke="gray" fill="white" stroke-width="1px"></path><path d="M 58.000000 77.263579 L 58.000000 74.763579 L 52.000000 74.763579 L 52.000000 77.263579 L 58.000000 77.263579" stroke="gray" fill="white" stroke-width="1px"></path><path d="M 273.724314 101.263579 L 273.724314 103.763579 L 267.724314 103.763579 L 267.724314 101.263579 L 273.724314 101.263579" stroke="gray" fill="white" stroke-width="1px"></path><path d="M 272.120898 89.263579 L 272.120898 91.763579 L 266.120898 91.763579 L 266.120898 89.263579 L 272.120898 89.263579" stroke="gray" fill="white" stroke-width="1px"></path><path d="M 278.120898 89.263579 L 278.120898 91.763579 L 272.120898 91.763579 L 272.120898 89.263579 L 278.120898 89.263579" stroke="gray" fill="white" stroke-width="1px"></path><path d="M 270.517483 77.263579 L 270.517483 79.763579 L 264.517483 79.763579 L 264.517483 77.263579 L 270.517483 77.263579" stroke="gray" fill="white" stroke-width="1px"></path><path d="M 276.517483 77.263579 L 276.517483 79.763579 L 270.517483 79.763579 L 270.517483 77.263579 L 276.517483 77.263579" stroke="gray" fill="white" stroke-width="1px"></path><path d="M 268.914068 65.263579 L 268.914068 67.763579 L 262.914068 67.763579 L 262.914068 65.263579 L 268.914068 65.263579" stroke="gray" fill="white" stroke-width="1px"></path><path d="M 274.914068 65.263579 L 274.914068 67.763579 L 268.914068 67.763579 L 268.914068 65.263579 L 274.914068 65.263579" stroke="gray" fill="white" stroke-width="1px"></path><path d="M 228.397719 101.263579 L 228.397719 103.763579 L 222.397719 103.763579 L 222.397719 101.263579 L 228.397719 101.263579" stroke="gray" fill="white" stroke-width="1px"></path><path d="M 234.397719 101.263579 L 234.397719 103.763579 L 228.397719 103.763579 L 228.397719 101.263579 L 234.397719 101.263579" stroke="gray" fill="white" stroke-width="1px"></path><path d="M 240.397719 101.263579 L 240.397719 103.763579 L 234.397719 103.763579 L 234.397719 101.263579 L 240.397719 101.263579" stroke="gray" fill="white" stroke-width="1px"></path><path d="M 228.061030 89.263579 L 228.061030 91.763579 L 222.061030 91.763579 L 222.061030 89.263579 L 228.061030 89.263579" stroke="gray" fill="white" stroke-width="1px"></path><path d="M 234.061030 89.263579 L 234.061030 91.763579 L 228.061030 91.763579 L 228.061030 89.263579 L 234.061030 89.263579" stroke="gray" fill="white" stroke-width="1px"></path><path d="M 240.061030 89.263579 L 240.061030 91.763579 L 234.061030 91.763579 L 234.061030 89.263579 L 240.061030 89.263579" stroke="gray" fill="white" stroke-width="1px"></path><path d="M 233.737654 77.263579 L 233.737654 79.763579 L 227.737654 79.763579 L 227.737654 77.263579 L 233.737654 77.263579" stroke="gray" fill="white" stroke-width="1px"></path><path d="M 233.737654 65.263579 L 233.737654 67.763579 L 227.737654 67.763579 L 227.737654 65.263579 L 233.737654 65.263579" stroke="gray" fill="white" stroke-width="1px"></path><path d="M 233.737654 53.263579 L 233.737654 55.763579 L 227.737654 55.763579 L 227.737654 53.263579 L 233.737654 53.263579" stroke="gray" fill="white" stroke-width="1px"></path><path d="M 22.000000 101.263579 L 22.000000 103.763579 L 16.000000 103.763579 L 16.000000 101.263579 L 22.000000 101.263579" stroke="gray" fill="white" stroke-width="1px"></path><path d="M 28.000000 101.263579 L 28.000000 103.763579 L 22.000000 103.763579 L 22.000000 101.263579 L 28.000000 101.263579" stroke="gray" fill="white" stroke-width="1px"></path><path d="M 34.000000 101.263579 L 34.000000 103.763579 L 28.000000 103.763579 L 28.000000 101.263579 L 34.000000 101.263579" stroke="gray" fill="white" stroke-width="1px"></path><path d="M 40.000000 101.263579 L 40.000000 103.763579 L 34.000000 103.763579 L 34.000000 101.263579 L 40.000000 101.263579" stroke="gray" fill="white" stroke-width="1px"></path><path d="M 46.000000 101.263579 L 46.000000 103.763579 L 40.000000 103.763579 L 40.000000 101.263579 L 46.000000 101.263579" stroke="gray" fill="white" stroke-width="1px"></path><path d="M 52.000000 101.263579 L 52.000000 103.763579 L 46.000000 103.763579 L 46.000000 101.263579 L 52.000000 101.263579" stroke="gray" fill="white" stroke-width="1px"></path><path d="M 58.000000 101.263579 L 58.000000 103.763579 L 52.000000 103.763579 L 52.000000 101.263579 L 58.000000 101.263579" stroke="gray" fill="white" stroke-width="1px"></path><path d="M 22.000000 89.263579 L 22.000000 91.763579 L 16.000000 91.763579 L 16.000000 89.263579 L 22.000000 89.263579" stroke="gray" fill="white" stroke-width="1px"></path><path d="M 28.000000 89.263579 L 28.000000 91.763579 L 22.000000 91.763579 L 22.000000 89.263579 L 28.000000 89.263579" stroke="gray" fill="white" stroke-width="1px"></path><path d="M 34.000000 89.263579 L 34.000000 91.763579 L 28.000000 91.763579 L 28.000000 89.263579 L 34.000000 89.263579" stroke="gray" fill="white" stroke-width="1px"></path><path d="M 40.000000 89.263579 L 40.000000 91.763579 L 34.000000 91.763579 L 34.000000 89.263579 L 40.000000 89.263579" stroke="gray" fill="white" stroke-width="1px"></path><path d="M 46.000000 89.263579 L 46.000000 91.763579 L 40.000000 91.763579 L 40.000000 89.263579 L 46.000000 89.263579" stroke="gray" fill="white" stroke-width="1px"></path><path d="M 52.000000 89.263579 L 52.000000 91.763579 L 46.000000 91.763579 L 46.000000 89.263579 L 52.000000 89.263579" stroke="gray" fill="white" stroke-width="1px"></path><path d="M 58.000000 89.263579 L 58.000000 91.763579 L 52.000000 91.763579 L 52.000000 89.263579 L 58.000000 89.263579" stroke="gray" fill="white" stroke-width="1px"></path><path d="M 40.000000 77.263579 L 40.000000 79.763579 L 34.000000 79.763579 L 34.000000 77.263579 L 40.000000 77.263579" stroke="gray" fill="white" stroke-width="1px"></path><path d="M 46.000000 77.263579 L 46.000000 79.763579 L 40.000000 79.763579 L 40.000000 77.263579 L 46.000000 77.263579" stroke="gray" fill="white" stroke-width="1px"></path><path d="M 52.000000 77.263579 L 52.000000 79.763579 L 46.000000 79.763579 L 46.000000 77.263579 L 52.000000 77.263579" stroke="gray" fill="white" stroke-width="1px"></path><path d="M 58.000000 77.263579 L 58.000000 79.763579 L 52.000000 79.763579 L 52.000000 77.263579 L 58.000000 77.263579" stroke="gray" fill="white" stroke-width="1px"></path></g><g id="crv-base"><path d="M 221.371570 123.090312 L 221.371570 169.241094 L 120.000633 169.241094 L 120.000633 156.444206 L 126.051258 156.444206 L 126.051258 128.832500 L 123.590320 128.832500 L 123.590320 125.551250 L 126.051258 125.551250 L 126.051258 123.858132 L 91.315945 123.858125 L 91.315945 134.738750 L 64.258762 134.738750 L 64.258762 123.687497 L 10.000000 123.687497 L 10.000000 226.180625 L 64.258758 226.180625 L 64.258758 192.357500 L 91.315945 192.357500 L 91.315945 220.123437 L 283.459383 220.123437 L 283.459383 123.090312 L 221.371570 123.090312" stroke="black" fill="none" stroke-width="1px"></path><path d="M 221.371570 10.000000 L 221.371570 56.150781 L 120.000633 56.150781 L 120.000633 43.353893 L 126.051258 43.353893 L 126.051258 15.742187 L 123.590320 15.742187 L 123.590320 12.460937 L 126.051258 12.460937 L 126.051258 10.767819 L 91.315945 10.767812 L 91.315945 21.648438 L 64.258762 21.648438 L 64.258762 10.597185 L 10.000000 10.597185 L 10.000000 113.090312 L 64.258758 113.090312 L 64.258758 79.267187 L 91.315945 79.267187 L 91.315945 107.033125 L 283.459383 107.033125 L 283.459383 10.000000 L 221.371570 10.000000" stroke="black" fill="none" stroke-width="1px"></path><path d="M 10.387195 156.559062 L 10.387195 154.590312 L 12.355945 154.590312 L 12.355945 156.559062 L 10.387195 156.559062" stroke="black" fill="white" stroke-width="1px"></path><path d="M 10.387195 43.468750 L 10.387195 41.500000 L 12.355945 41.500000 L 12.355945 43.468750 L 10.387195 43.468750" stroke="black" fill="white" stroke-width="1px"></path><path d="M 10.387195 188.059062 L 10.387195 186.090312 L 12.355945 186.090312 L 12.355945 188.059062 L 10.387195 188.059062" stroke="black" fill="white" stroke-width="1px"></path><path d="M 10.387195 74.968750 L 10.387195 73.000000 L 12.355945 73.000000 L 12.355945 74.968750 L 10.387195 74.968750" stroke="black" fill="white" stroke-width="1px"></path><path d="M 10.387195 219.559062 L 10.387195 217.590312 L 12.355945 217.590312 L 12.355945 219.559062 L 10.387195 219.559062" stroke="black" fill="white" stroke-width="1px"></path><path d="M 10.387195 106.468750 L 10.387195 104.500000 L 12.355945 104.500000 L 12.355945 106.468750 L 10.387195 106.468750" stroke="black" fill="white" stroke-width="1px"></path><path d="M 60.754383 128.340312 L 60.754383 125.387187 L 63.871570 125.387187 L 63.871570 128.340312 L 60.754383 128.340312" stroke="black" fill="white" stroke-width="1px"></path><path d="M 60.754383 15.250000 L 60.754383 12.296875 L 63.871570 12.296875 L 63.871570 15.250000 L 60.754383 15.250000" stroke="black" fill="white" stroke-width="1px"></path><path d="M 280.598133 219.230937 L 280.598133 217.262187 L 282.566883 217.262187 L 282.566883 219.230937 L 280.598133 219.230937" stroke="black" fill="white" stroke-width="1px"></path><path d="M 280.598133 106.140625 L 280.598133 104.171875 L 282.566883 104.171875 L 282.566883 106.140625 L 280.598133 106.140625" stroke="black" fill="white" stroke-width="1px"></path><path d="M 280.598133 188.059062 L 280.598133 186.090312 L 282.566883 186.090312 L 282.566883 188.059062 L 280.598133 188.059062" stroke="black" fill="white" stroke-width="1px"></path><path d="M 280.598133 74.968750 L 280.598133 73.000000 L 282.566883 73.000000 L 282.566883 74.968750 L 280.598133 74.968750" stroke="black" fill="white" stroke-width="1px"></path><path d="M 280.598133 156.559050 L 280.598133 154.590300 L 282.566883 154.590300 L 282.566883 156.559050 L 280.598133 156.559050" stroke="black" fill="white" stroke-width="1px"></path><path d="M 280.598133 43.468737 L 280.598133 41.499987 L 282.566883 41.499987 L 282.566883 43.468737 L 280.598133 43.468737" stroke="black" fill="white" stroke-width="1px"></path><path d="M 248.605945 127.355937 L 248.605945 123.418437 L 251.887195 123.418437 L 251.887195 127.355937 L 248.605945 127.355937" stroke="black" fill="white" stroke-width="1px"></path><path d="M 248.605945 14.265625 L 248.605945 10.328125 L 251.887195 10.328125 L 251.887195 14.265625 L 248.605945 14.265625" stroke="black" fill="white" stroke-width="1px"></path><path d="M 248.605945 157.871562 L 248.605945 153.934062 L 251.887195 153.934062 L 251.887195 157.871562 L 248.605945 157.871562" stroke="black" fill="white" stroke-width="1px"></path><path d="M 248.605945 44.781250 L 248.605945 40.843750 L 251.887195 40.843750 L 251.887195 44.781250 L 248.605945 44.781250" stroke="black" fill="white" stroke-width="1px"></path><path d="M 248.605945 189.043437 L 248.605945 185.105937 L 251.887195 185.105937 L 251.887195 189.043437 L 248.605945 189.043437" stroke="black" fill="white" stroke-width="1px"></path><path d="M 248.605945 75.953125 L 248.605945 72.015625 L 251.887195 72.015625 L 251.887195 75.953125 L 248.605945 75.953125" stroke="black" fill="white" stroke-width="1px"></path><path d="M 248.934070 219.230937 L 248.934070 216.277812 L 251.887195 216.277812 L 251.887195 219.230937 L 248.934070 219.230937" stroke="black" fill="white" stroke-width="1px"></path><path d="M 248.934070 106.140625 L 248.934070 103.187500 L 251.887195 103.187500 L 251.887195 106.140625 L 248.934070 106.140625" stroke="black" fill="white" stroke-width="1px"></path><path d="M 218.090320 189.043437 L 218.090320 185.105937 L 221.371570 185.105937 L 221.371570 189.043437 L 218.090320 189.043437" stroke="black" fill="white" stroke-width="1px"></path><path d="M 218.090320 75.953125 L 218.090320 72.015625 L 221.371570 72.015625 L 221.371570 75.953125 L 218.090320 75.953125" stroke="black" fill="white" stroke-width="1px"></path><path d="M 218.254383 219.230937 L 218.254383 216.277812 L 221.207508 216.277812 L 221.207508 219.230937 L 218.254383 219.230937" stroke="black" fill="white" stroke-width="1px"></path><path d="M 218.254383 106.140625 L 218.254383 103.187500 L 221.207508 103.187500 L 221.207508 106.140625 L 218.254383 106.140625" stroke="black" fill="white" stroke-width="1px"></path><path d="M 186.590320 189.043437 L 186.590320 185.105937 L 189.871570 185.105937 L 189.871570 189.043437 L 186.590320 189.043437" stroke="black" fill="white" stroke-width="1px"></path><path d="M 186.590320 75.953125 L 186.590320 72.015625 L 189.871570 72.015625 L 189.871570 75.953125 L 186.590320 75.953125" stroke="black" fill="white" stroke-width="1px"></path><path d="M 186.754383 219.230937 L 186.754383 216.277812 L 189.707508 216.277812 L 189.707508 219.230937 L 186.754383 219.230937" stroke="black" fill="white" stroke-width="1px"></path><path d="M 186.754383 106.140625 L 186.754383 103.187500 L 189.707508 103.187500 L 189.707508 106.140625 L 186.754383 106.140625" stroke="black" fill="white" stroke-width="1px"></path><path d="M 155.090320 189.043437 L 155.090320 185.105937 L 158.371570 185.105937 L 158.371570 189.043437 L 155.090320 189.043437" stroke="black" fill="white" stroke-width="1px"></path><path d="M 155.090320 75.953125 L 155.090320 72.015625 L 158.371570 72.015625 L 158.371570 75.953125 L 155.090320 75.953125" stroke="black" fill="white" stroke-width="1px"></path><path d="M 155.254383 219.230937 L 155.254383 216.277812 L 158.207508 216.277812 L 158.207508 219.230937 L 155.254383 219.230937" stroke="black" fill="white" stroke-width="1px"></path><path d="M 155.254383 106.140625 L 155.254383 103.187500 L 158.207508 103.187500 L 158.207508 106.140625 L 155.254383 106.140625" stroke="black" fill="white" stroke-width="1px"></path><path d="M 123.590320 189.043437 L 123.590320 185.105937 L 126.871570 185.105937 L 126.871570 189.043437 L 123.590320 189.043437" stroke="black" fill="white" stroke-width="1px"></path><path d="M 123.590320 75.953125 L 123.590320 72.015625 L 126.871570 72.015625 L 126.871570 75.953125 L 123.590320 75.953125" stroke="black" fill="white" stroke-width="1px"></path><path d="M 123.754383 219.230937 L 123.754383 216.277812 L 126.707508 216.277812 L 126.707508 219.230937 L 123.754383 219.230937" stroke="black" fill="white" stroke-width="1px"></path><path d="M 123.754383 106.140625 L 123.754383 103.187500 L 126.707508 103.187500 L 126.707508 106.140625 L 123.754383 106.140625" stroke="black" fill="white" stroke-width="1px"></path><path d="M 92.090320 157.543437 L 92.090320 153.605937 L 95.371570 153.605937 L 95.371570 157.543437 L 92.090320 157.543437" stroke="black" fill="white" stroke-width="1px"></path><path d="M 92.090320 44.453125 L 92.090320 40.515625 L 95.371570 40.515625 L 95.371570 44.453125 L 92.090320 44.453125" stroke="black" fill="white" stroke-width="1px"></path><path d="M 92.090320 189.043437 L 92.090320 185.105937 L 95.371570 185.105937 L 95.371570 189.043437 L 92.090320 189.043437" stroke="black" fill="white" stroke-width="1px"></path><path d="M 92.090320 75.953125 L 92.090320 72.015625 L 95.371570 72.015625 L 95.371570 75.953125 L 92.090320 75.953125" stroke="black" fill="white" stroke-width="1px"></path><path d="M 92.090320 128.504375 L 92.090320 125.551250 L 95.207508 125.551250 L 95.207508 128.504375 L 92.090320 128.504375" stroke="black" fill="white" stroke-width="1px"></path><path d="M 92.090320 15.414062 L 92.090320 12.460937 L 95.207508 12.460937 L 95.207508 15.414062 L 92.090320 15.414062" stroke="black" fill="white" stroke-width="1px"></path><path d="M 60.590320 157.215312 L 60.590320 153.934062 L 63.871570 153.934062 L 63.871570 157.215312 L 60.590320 157.215312" stroke="black" fill="white" stroke-width="1px"></path><path d="M 60.590320 44.125000 L 60.590320 40.843750 L 63.871570 40.843750 L 63.871570 44.125000 L 60.590320 44.125000" stroke="black" fill="white" stroke-width="1px"></path><path d="M 60.754383 219.230937 L 60.754383 216.277812 L 63.871570 216.277812 L 63.871570 219.230937 L 60.754383 219.230937" stroke="black" fill="white" stroke-width="1px"></path><path d="M 60.754383 106.140625 L 60.754383 103.187500 L 63.871570 103.187500 L 63.871570 106.140625 L 60.754383 106.140625" stroke="black" fill="white" stroke-width="1px"></path><path d="M 30.074695 128.504375 L 30.074695 125.223125 L 33.027820 125.223125 L 33.027820 128.504375 L 30.074695 128.504375" stroke="black" fill="white" stroke-width="1px"></path><path d="M 30.074695 15.414062 L 30.074695 12.132812 L 33.027820 12.132812 L 33.027820 15.414062 L 30.074695 15.414062" stroke="black" fill="white" stroke-width="1px"></path><path d="M 30.074695 157.215312 L 30.074695 153.934062 L 33.355945 153.934062 L 33.355945 157.215312 L 30.074695 157.215312" stroke="black" fill="white" stroke-width="1px"></path><path d="M 30.074695 44.125000 L 30.074695 40.843750 L 33.355945 40.843750 L 33.355945 44.125000 L 30.074695 44.125000" stroke="black" fill="white" stroke-width="1px"></path><path d="M 30.074695 188.715312 L 30.074695 185.434062 L 33.355945 185.434062 L 33.355945 188.715312 L 30.074695 188.715312" stroke="black" fill="white" stroke-width="1px"></path><path d="M 30.074695 75.625000 L 30.074695 72.343750 L 33.355945 72.343750 L 33.355945 75.625000 L 30.074695 75.625000" stroke="black" fill="white" stroke-width="1px"></path><path d="M 30.074695 219.230937 L 30.074695 216.277812 L 33.027820 216.277812 L 33.027820 219.230937 L 30.074695 219.230937" stroke="black" fill="white" stroke-width="1px"></path><path d="M 30.074695 106.140625 L 30.074695 103.187500 L 33.027820 103.187500 L 33.027820 106.140625 L 30.074695 106.140625" stroke="black" fill="white" stroke-width="1px"></path><path d="M 10.387195 127.191875 L 10.387195 125.223125 L 12.355945 125.223125 L 12.355945 127.191875 L 10.387195 127.191875" stroke="black" fill="white" stroke-width="1px"></path><path d="M 10.387195 14.101562 L 10.387195 12.132812 L 12.355945 12.132812 L 12.355945 14.101562 L 10.387195 14.101562" stroke="black" fill="white" stroke-width="1px"></path><path d="M 60.590320 189.863750 L 60.590320 185.434062 L 63.871570 185.434062 L 63.871570 188.715312 L 62.230945 188.715312 L 62.230945 189.863750 L 60.590320 189.863750" stroke="black" fill="white" stroke-width="1px"></path><path d="M 60.590320 76.773437 L 60.590320 72.343750 L 63.871570 72.343750 L 63.871570 75.625000 L 62.230945 75.625000 L 62.230945 76.773437 L 60.590320 76.773437" stroke="black" fill="white" stroke-width="1px"></path></g></svg>