<svg width="293.459383" height="236.180625" xmlns="http://www.w3.org/2000/svg" xmlns:xlink="http://www.w3.org/1999/xlink" version="1.1"><g id="crv-background"><path d="M 221.371570 123.090312 L 221.371570 169.241094 L 120.000633 169.241094 L 120.000633 156.444206 L 126.051258 156.444206 L 126.051258 128.832500 L 123.590320 128.832500 L 123.590320 125.551250 L 126.051258 125.551250 L 126.051258 123.858132 L 91.315945 123.858125 L 91.315945 134.738750 L 64.258762 134.738750 L 64.258762 123.687497 L 10.000000 123.687497 L 10.000000 226.180625 L 64.258758 226.180625 L 64.258758 192.357500 L 91.315945 192.357500 L 91.315945 220.123437 L 283.459383 220.123437 L 283.459383 123.090312 L 221.371570 123.090312" stroke="none" fill="white" stroke-width="1px"></path><path d="M 221.371570 10.000000 L 221.371570 56.150781 L 120.000633 56.150781 L 120.000633 43.353893 L 126.051258 43.353893 L 126.051258 15.742187 L 123.590320 15.742187 L 123.590320 12.460937 L 126.051258 12.460937 L 126.051258 10.767819 L 91.315945 10.767812 L 91.315945 21.648438 L 64.258762 21.648438 L 64.258762 10.597185 L 10.000000 10.597185 L 10.000000 113.090312 L 64.258758 113.090312 L 64.258758 79.267187 L 91.315945 79.267187 L 91.315945 107.033125 L 283.459383 107.033125 L 283.459383 10.000000 L 221.371570 10.000000" stroke="none" fill="white" stroke-width="1px"></path></g><g id="crv-nbhd"><path d="M 221.737654 10.000004 L 221.737654 20.900218 L 221.737654 31.800433 L 230.674264 39.838006 L 239.610875 47.875579 L 261.535129 51.295897 L 283.459383 54.716215 L 283.459383 32.358108 L 283.459382 10.000000 L 252.598533 10.000002 L 221.737654 10.000004" stroke="#DD2222" fill="none" stroke-width="1px"></path><path d="M 283.459383 107.033125 L 283.459383 80.874670 L 283.459383 54.716215 L 261.535129 51.295897 L 239.610875 47.875579 L 241.881225 77.454352 L 244.151575 107.033125 L 263.805479 107.033125 L 283.459383 107.033125" stroke="#DD2222" fill="none" stroke-width="1px"></path><path d="M 221.737654 31.800433 L 221.737654 55.475882 L 221.737654 79.151330 L 213.703260 79.151330 L 205.668867 79.151330 L 208.031354 93.092227 L 210.393841 107.033125 L 227.272708 107.033125 L 244.151575 107.033125 L 241.881225 77.454352 L 239.610875 47.875579 L 230.674266 39.838008 L 221.737654 31.800433" stroke="#DD2222" fill="none" stroke-width="1px"></path><path d="M 205.668867 79.151330 L 188.845457 79.151330 L 172.022047 79.151329 L 170.478303 93.092227 L 168.934560 107.033125 L 189.664200 107.033125 L 210.393841 107.033125 L 208.031354 93.092231 L 205.668867 79.151330" stroke="#DD2222" fill="none" stroke-width="1px"></path><path d="M 135.070621 107.033125 L 152.002590 107.033125 L 168.934560 107.033125 L 170.478303 93.092227 L 172.022047 79.151329 L 154.856465 79.151329 L 137.690883 79.151328 L 136.380752 93.092227 L 135.070621 107.033125" stroke="#DD2222" fill="none" stroke-width="1px"></path><path d="M 137.690883 79.151328 L 114.503414 79.151328 L 91.315945 79.151327 L 91.315945 93.092226 L 91.315945 107.033125 L 113.193283 107.033125 L 135.070621 107.033125 L 136.380752 93.092227 L 137.690883 79.151328" stroke="#DD2222" fill="none" stroke-width="1px"></path><path d="M 64.258758 113.090312 L 64.258758 84.620547 L 64.258758 56.150781 L 64.258758 55.615517 L 64.258758 55.080253 L 37.129382 56.511869 L 10.000000 57.943484 L 10.000000 85.516898 L 10.000000 113.090312 L 37.129379 113.090312 L 64.258758 113.090312" stroke="#DD2222" fill="none" stroke-width="1px"></path><path d="M 10.000000 10.597184 L 10.000000 34.270334 L 10.000000 57.943484 L 37.129379 56.511869 L 64.258758 55.080253 L 64.258758 32.838719 L 64.258758 10.597185 L 37.129379 10.597185 L 10.000000 10.597184" stroke="#DD2222" fill="none" stroke-width="1px"></path><path d="M 10.000000 123.687497 L 10.000000 150.796321 L 10.000000 177.905144 L 37.129379 176.935655 L 64.258758 175.966165 L 64.258758 172.603630 L 64.258758 169.241094 L 64.258758 146.464296 L 64.258758 123.687497 L 37.129398 123.687497 L 10.000000 123.687497" stroke="#DD2222" fill="none" stroke-width="1px"></path><path d="M 10.000000 177.905144 L 10.000000 202.042885 L 10.000000 226.180625 L 37.129380 226.180625 L 64.258760 226.180625 L 64.258760 201.073389 L 64.258758 175.966165 L 37.129379 176.935655 L 10.000000 177.905144" stroke="#DD2222" fill="none" stroke-width="1px"></path><path d="M 138.165414 192.043444 L 114.740680 192.043444 L 91.315945 192.043444 L 91.315945 206.083441 L 91.315945 220.123437 L 113.176848 220.123437 L 135.037751 220.123437 L 136.601583 206.083441 L 138.165414 192.043444" stroke="#DD2222" fill="none" stroke-width="1px"></path><path d="M 135.037751 220.123437 L 161.463677 220.123437 L 187.889602 220.123437 L 185.751647 206.083441 L 183.613692 192.043444 L 160.889553 192.043444 L 138.165414 192.043444 L 136.601583 206.083441 L 135.037751 220.123437" stroke="#DD2222" fill="none" stroke-width="1px"></path><path d="M 224.568459 192.043444 L 204.091075 192.043444 L 183.613692 192.043444 L 185.751647 206.083441 L 187.889602 220.123437 L 205.251594 220.123437 L 222.613586 220.123437 L 223.591022 206.083441 L 224.568459 192.043444" stroke="#DD2222" fill="none" stroke-width="1px"></path><path d="M 283.459383 220.123437 L 283.459383 197.803679 L 283.459383 175.483921 L 261.598517 171.766311 L 239.737652 168.048701 L 239.737652 180.046073 L 239.737652 192.043444 L 232.153055 192.043444 L 224.568459 192.043444 L 223.591022 206.083441 L 222.613586 220.123437 L 253.036484 220.123437 L 283.459383 220.123437" stroke="#DD2222" fill="none" stroke-width="1px"></path><path d="M 239.737652 123.090312 L 239.737652 145.569507 L 239.737652 168.048701 L 261.598517 171.766311 L 283.459383 175.483921 L 283.459383 149.287117 L 283.459383 123.090312 L 261.598601 123.090312 L 239.737652 123.090312" stroke="#DD2222" fill="none" stroke-width="1px"></path></g><g id="crv-amen"><path d="M 58.832882 138.650648 L 58.832882 132.000359 L 58.832882 125.350070 L 37.129379 125.350069 L 15.425876 125.350069 L 15.425876 132.000358 L 15.425876 138.650648 L 37.129379 138.650648 L 58.832882 138.650648" stroke="none" fill="#2288CC" stroke-width="1px"></path><path d="M 58.832883 191.132765 L 58.832883 184.478229 L 58.832882 177.823697 L 37.129379 178.599288 L 15.425876 179.374880 L 15.425876 186.029414 L 15.425876 192.683949 L 37.129379 191.908357 L 58.832883 191.132765" stroke="none" fill="#2288CC" stroke-width="1px"></path><path d="M 120.294834 217.315438 L 126.986249 217.315438 L 133.677664 217.315438 L 134.928729 206.083441 L 136.179794 194.851444 L 129.488379 194.851444 L 122.796964 194.851444 L 121.545899 206.083441 L 120.294834 217.315438" stroke="none" fill="#2288CC" stroke-width="1px"></path><path d="M 172.326372 217.315438 L 179.053323 217.315438 L 185.780273 217.315438 L 184.069909 206.083441 L 182.359545 194.851444 L 175.632595 194.851444 L 168.905644 194.851444 L 170.616008 206.083441 L 172.326372 217.315438" stroke="none" fill="#2288CC" stroke-width="1px"></path><path d="M 207.809705 217.315438 L 214.476091 217.315438 L 221.142477 217.315438 L 221.924426 206.083441 L 222.706375 194.851444 L 216.039989 194.851444 L 209.373604 194.851444 L 208.591654 206.083441 L 207.809705 217.315438" stroke="none" fill="#2288CC" stroke-width="1px"></path><path d="M 238.189679 192.735488 L 238.189679 193.780305 L 238.189679 194.825122 L 232.122002 194.825122 L 226.054325 194.825122 L 225.272375 206.057119 L 224.490426 217.289116 L 231.156812 217.289116 L 237.823198 217.289116 L 238.674646 205.058821 L 239.526095 192.828526 L 238.857887 192.782007 L 238.189679 192.735488" stroke="none" fill="#2288CC" stroke-width="1px"></path><path d="M 279.087210 138.053463 L 279.087210 131.403174 L 279.087210 124.752885 L 261.598517 124.752885 L 244.109825 124.752885 L 244.109825 131.403174 L 244.109825 138.053463 L 261.598517 138.053463 L 279.087210 138.053463" stroke="none" fill="#2288CC" stroke-width="1px"></path><path d="M 239.519380 43.129098 L 241.567606 44.971269 L 243.615832 46.813440 L 261.155235 49.549694 L 278.694639 52.285949 L 278.694639 45.555222 L 278.694639 38.824489 L 259.900200 35.892441 L 241.105761 32.960393 L 240.312571 38.044746 L 239.519380 43.129098" stroke="none" fill="#2288CC" stroke-width="1px"></path><path d="M 279.139563 69.177952 L 279.139563 62.447222 L 279.139563 55.716492 L 261.600160 52.980237 L 244.060756 50.243983 L 244.583642 57.056286 L 245.106527 63.868589 L 262.123045 66.523271 L 279.139563 69.177952" stroke="none" fill="#2288CC" stroke-width="1px"></path><path d="M 228.623203 100.575196 L 235.293053 100.575196 L 241.962904 100.575196 L 240.146624 76.912178 L 238.330344 53.249159 L 235.160440 50.398153 L 231.990536 47.547146 L 228.293538 47.830913 L 224.596540 48.114680 L 226.609871 74.344938 L 228.623203 100.575196" stroke="none" fill="#2288CC" stroke-width="1px"></path><path d="M 186.767910 81.939509 L 180.076972 81.939509 L 173.386033 81.939509 L 172.151038 93.092227 L 170.916043 104.244945 L 177.606982 104.244945 L 184.297921 104.244945 L 185.532915 93.092227 L 186.767910 81.939509" stroke="none" fill="#2288CC" stroke-width="1px"></path><path d="M 154.188697 104.244945 L 160.879635 104.244945 L 167.570574 104.244945 L 168.805569 93.092227 L 170.040564 81.939509 L 163.349625 81.939509 L 156.658686 81.939508 L 155.423691 93.092227 L 154.188697 104.244945" stroke="none" fill="#2288CC" stroke-width="1px"></path><path d="M 131.725758 94.104983 L 132.350736 87.454694 L 132.975714 80.804405 L 114.425738 80.804404 L 95.875763 80.804404 L 95.875763 87.454693 L 95.875763 94.104983 L 113.800760 94.104983 L 131.725758 94.104983" stroke="none" fill="#2288CC" stroke-width="1px"></path><path d="M 49.299830 107.333062 L 55.950116 107.333062 L 62.600408 107.333062 L 62.600408 84.129038 L 62.600408 60.925015 L 55.950119 61.275950 L 49.299830 61.626885 L 49.299830 84.479974 L 49.299830 107.333062" stroke="none" fill="#2288CC" stroke-width="1px"></path><path d="M 15.425876 42.673191 L 15.425876 49.332733 L 15.425876 55.992275 L 37.129379 54.846983 L 58.832882 53.701691 L 58.832882 47.042149 L 58.832882 40.382606 L 37.129379 41.527899 L 15.425876 42.673191" stroke="none" fill="#2288CC" stroke-width="1px"></path></g><g id="crv-desk"><path d="M 55.459383 170.280618 L 52.959383 170.280618 L 52.959383 176.280618 L 55.459383 176.280618 L 55.459383 170.280618" stroke="gray" fill="white" stroke-width="1px"></path><path d="M 55.459383 164.280618 L 52.959383 164.280618 L 52.959383 170.280618 L 55.459383 170.280618 L 55.459383 164.280618" stroke="gray" fill="white" stroke-width="1px"></path><path d="M 55.459383 158.280618 L 52.959383 158.280618 L 52.959383 164.280618 L 55.459383 164.280618 L 55.459383 158.280618" stroke="gray" fill="white" stroke-width="1px"></path><path d="M 55.459383 152.280618 L 52.959383 152.280618 L 52.959383 158.280618 L 55.459383 158.280618 L 55.459383 152.280618" stroke="gray" fill="white" stroke-width="1px"></path><path d="M 55.459383 146.280618 L 52.959383 146.280618 L 52.959383 152.280618 L 55.459383 152.280618 L 55.459383 146.280618" stroke="gray" fill="white" stroke-width="1px"></path><path d="M 43.459383 170.709447 L 40.959383 170.709447 L 40.959383 176.709447 L 43.459383 176.709447 L 43.459383 170.709447" stroke="gray" fill="white" stroke-width="1px"></path><path d="M 43.459383 164.709447 L 40.959383 164.709447 L 40.959383 170.709447 L 43.459383 170.709447 L 43.459383 164.709447" stroke="gray" fill="white" stroke-width="1px"></path><path d="M 43.459383 158.709447 L 40.959383 158.709447 L 40.959383 164.709447 L 43.459383 164.709447 L 43.459383 158.709447" stroke="gray" fill="white" stroke-width="1px"></path><path d="M 43.459383 152.709447 L 40.959383 152.709447 L 40.959383 158.709447 L 43.459383 158.709447 L 43.459383 152.709447" stroke="gray" fill="white" stroke-width="1px"></path><path d="M 43.459383 146.709447 L 40.959383 146.709447 L 40.959383 152.709447 L 43.459383 152.709447 L 43.459383 146.709447" stroke="gray" fill="white" stroke-width="1px"></path><path d="M 31.459383 171.138277 L 28.959383 171.138277 L 28.959383 177.138277 L 31.459383 177.138277 L 31.459383 171.138277" stroke="gray" fill="white" stroke-width="1px"></path><path d="M 31.459383 165.138277 L 28.959383 165.138277 L 28.959383 171.138277 L 31.459383 171.138277 L 31.459383 165.138277" stroke="gray" fill="white" stroke-width="1px"></path><path d="M 31.459383 159.138277 L 28.959383 159.138277 L 28.959383 165.138277 L 31.459383 165.138277 L 31.459383 159.138277" stroke="gray" fill="white" stroke-width="1px"></path><path d="M 31.459383 153.138277 L 28.959383 153.138277 L 28.959383 159.138277 L 31.459383 159.138277 L 31.459383 153.138277" stroke="gray" fill="white" stroke-width="1px"></path><path d="M 31.459383 147.138277 L 28.959383 147.138277 L 28.959383 153.138277 L 31.459383 153.138277 L 31.459383 147.138277" stroke="gray" fill="white" stroke-width="1px"></path><path d="M 19.459383 171.567106 L 16.959383 171.567106 L 16.959383 177.567106 L 19.459383 177.567106 L 19.459383 171.567106" stroke="gray" fill="white" stroke-width="1px"></path><path d="M 19.459383 165.567106 L 16.959383 165.567106 L 16.959383 171.567106 L 19.459383 171.567106 L 19.459383 165.567106" stroke="gray" fill="white" stroke-width="1px"></path><path d="M 19.459383 159.567106 L 16.959383 159.567106 L 16.959383 165.567106 L 19.459383 165.567106 L 19.459383 159.567106" stroke="gray" fill="white" stroke-width="1px"></path><path d="M 19.459383 153.567106 L 16.959383 153.567106 L 16.959383 159.567106 L 19.459383 159.567106 L 19.459383 153.567106" stroke="gray" fill="white" stroke-width="1px"></path><path d="M 19.459383 147.567106 L 16.959383 147.567106 L 16.959383 153.567106 L 19.459383 153.567106 L 19.459383 147.567106" stroke="gray" fill="white" stroke-width="1px"></path><path d="M 55.459383 220.180625 L 52.959383 220.180625 L 52.959383 226.180625 L 55.459383 226.180625 L 55.459383 220.180625" stroke="gray" fill="white" stroke-width="1px"></path><path d="M 55.459383 214.180625 L 52.959383 214.180625 L 52.959383 220.180625 L 55.459383 220.180625 L 55.459383 214.180625" stroke="gray" fill="white" stroke-width="1px"></path><path d="M 55.459383 208.180625 L 52.959383 208.180625 L 52.959383 214.180625 L 55.459383 214.180625 L 55.459383 208.180625" stroke="gray" fill="white" stroke-width="1px"></path><path d="M 55.459383 202.180625 L 52.959383 202.180625 L 52.959383 208.180625 L 55.459383 208.180625 L 55.459383 202.180625" stroke="gray" fill="white" stroke-width="1px"></path><path d="M 43.459383 220.180625 L 40.959383 220.180625 L 40.959383 226.180625 L 43.459383 226.180625 L 43.459383 220.180625" stroke="gray" fill="white" stroke-width="1px"></path><path d="M 43.459383 214.180625 L 40.959383 214.180625 L 40.959383 220.180625 L 43.459383 220.180625 L 43.459383 214.180625" stroke="gray" fill="white" stroke-width="1px"></path><path d="M 43.459383 208.180625 L 40.959383 208.180625 L 40.959383 214.180625 L 43.459383 214.180625 L 43.459383 208.180625" stroke="gray" fill="white" stroke-width="1px"></path><path d="M 43.459383 202.180625 L 40.959383 202.180625 L 40.959383 208.180625 L 43.459383 208.180625 L 43.459383 202.180625" stroke="gray" fill="white" stroke-width="1px"></path><path d="M 31.459383 220.180625 L 28.959383 220.180625 L 28.959383 226.180625 L 31.459383 226.180625 L 31.459383 220.180625" stroke="gray" fill="white" stroke-width="1px"></path><path d="M 31.459383 214.180625 L 28.959383 214.180625 L 28.959383 220.180625 L 31.459383 220.180625 L 31.459383 214.180625" stroke="gray" fill="white" stroke-width="1px"></path><path d="M 31.459383 208.180625 L 28.959383 208.180625 L 28.959383 214.180625 L 31.459383 214.180625 L 31.459383 208.180625" stroke="gray" fill="white" stroke-width="1px"></path><path d="M 31.459383 202.180625 L 28.959383 202.180625 L 28.959383 208.180625 L 31.459383 208.180625 L 31.459383 202.180625" stroke="gray" fill="white" stroke-width="1px"></path><path d="M 19.459383 220.180625 L 16.959383 220.180625 L 16.959383 226.180625 L 19.459383 226.180625 L 19.459383 220.180625" stroke="gray" fill="white" stroke-width="1px"></path><path d="M 19.459383 214.180625 L 16.959383 214.180625 L 16.959383 220.180625 L 19.459383 220.180625 L 19.459383 214.180625" stroke="gray" fill="white" stroke-width="1px"></path><path d="M 19.459383 208.180625 L 16.959383 208.180625 L 16.959383 214.180625 L 19.459383 214.180625 L 19.459383 208.180625" stroke="gray" fill="white" stroke-width="1px"></path><path d="M 19.459383 202.180625 L 16.959383 202.180625 L 16.959383 208.180625 L 19.459383 208.180625 L 19.459383 202.180625" stroke="gray" fill="white" stroke-width="1px"></path><path d="M 115.459383 202.123437 L 112.959383 202.123437 L 112.959383 208.123437 L 115.459383 208.123437 L 115.459383 202.123437" stroke="gray" fill="white" stroke-width="1px"></path><path d="M 115.459383 196.123437 L 112.959383 196.123437 L 112.959383 202.123437 L 115.459383 202.123437 L 115.459383 196.123437" stroke="gray" fill="white" stroke-width="1px"></path><path d="M 103.459383 214.123437 L 100.959383 214.123437 L 100.959383 220.123437 L 103.459383 220.123437 L 103.459383 214.123437" stroke="gray" fill="white" stroke-width="1px"></path><path d="M 103.459383 208.123437 L 100.959383 208.123437 L 100.959383 214.123437 L 103.459383 214.123437 L 103.459383 208.123437" stroke="gray" fill="white" stroke-width="1px"></path><path d="M 103.459383 202.123437 L 100.959383 202.123437 L 100.959383 208.123437 L 103.459383 208.123437 L 103.459383 202.123437" stroke="gray" fill="white" stroke-width="1px"></path><path d="M 103.459383 196.123437 L 100.959383 196.123437 L 100.959383 202.123437 L 103.459383 202.123437 L 103.459383 196.123437" stroke="gray" fill="white" stroke-width="1px"></path><path d="M 163.459383 214.123437 L 160.959383 214.123437 L 160.959383 220.123437 L 163.459383 220.123437 L 163.459383 214.123437" stroke="gray" fill="white" stroke-width="1px"></path><path d="M 163.459383 208.123437 L 160.959383 208.123437 L 160.959383 214.123437 L 163.459383 214.123437 L 163.459383 208.123437" stroke="gray" fill="white" stroke-width="1px"></path><path d="M 163.459383 202.123437 L 160.959383 202.123437 L 160.959383 208.123437 L 163.459383 208.123437 L 163.459383 202.123437" stroke="gray" fill="white" stroke-width="1px"></path><path d="M 151.459383 214.123437 L 148.959383 214.123437 L 148.959383 220.123437 L 151.459383 220.123437 L 151.459383 214.123437" stroke="gray" fill="white" stroke-width="1px"></path><path d="M 151.459383 208.123437 L 148.959383 208.123437 L 148.959383 214.123437 L 151.459383 214.123437 L 151.459383 208.123437" stroke="gray" fill="white" stroke-width="1px"></path><path d="M 151.459383 202.123437 L 148.959383 202.123437 L 148.959383 208.123437 L 151.459383 208.123437 L 151.459383 202.123437" stroke="gray" fill="white" stroke-width="1px"></path><path d="M 151.459383 196.123437 L 148.959383 196.123437 L 148.959383 202.123437 L 151.459383 202.123437 L 151.459383 196.123437" stroke="gray" fill="white" stroke-width="1px"></path><path d="M 199.459383 214.123437 L 196.959383 214.123437 L 196.959383 220.123437 L 199.459383 220.123437 L 199.459383 214.123437" stroke="gray" fill="white" stroke-width="1px"></path><path d="M 199.459383 208.123437 L 196.959383 208.123437 L 196.959383 214.123437 L 199.459383 214.123437 L 199.459383 208.123437" stroke="gray" fill="white" stroke-width="1px"></path><path d="M 199.459383 202.123437 L 196.959383 202.123437 L 196.959383 208.123437 L 199.459383 208.123437 L 199.459383 202.123437" stroke="gray" fill="white" stroke-width="1px"></path><path d="M 199.459383 196.123437 L 196.959383 196.123437 L 196.959383 202.123437 L 199.459383 202.123437 L 199.459383 196.123437" stroke="gray" fill="white" stroke-width="1px"></path><path d="M 271.459383 214.123437 L 268.959383 214.123437 L 268.959383 220.123437 L 271.459383 220.123437 L 271.459383 214.123437" stroke="gray" fill="white" stroke-width="1px"></path><path d="M 271.459383 208.123437 L 268.959383 208.123437 L 268.959383 214.123437 L 271.459383 214.123437 L 271.459383 208.123437" stroke="gray" fill="white" stroke-width="1px"></path><path d="M 271.459383 202.123437 L 268.959383 202.123437 L 268.959383 208.123437 L 271.459383 208.123437 L 271.459383 202.123437" stroke="gray" fill="white" stroke-width="1px"></path><path d="M 271.459383 196.123437 L 268.959383 196.123437 L 268.959383 202.123437 L 271.459383 202.123437 L 271.459383 196.123437" stroke="gray" fill="white" stroke-width="1px"></path><path d="M 271.459383 190.123437 L 268.959383 190.123437 L 268.959383 196.123437 L 271.459383 196.123437 L 271.459383 190.123437" stroke="gray" fill="white" stroke-width="1px"></path><path d="M 271.459383 184.123437 L 268.959383 184.123437 L 268.959383 190.123437 L 271.459383 190.123437 L 271.459383 184.123437" stroke="gray" fill="white" stroke-width="1px"></path><path d="M 271.459383 178.123437 L 268.959383 178.123437 L 268.959383 184.123437 L 271.459383 184.123437 L 271.459383 178.123437" stroke="gray" fill="white" stroke-width="1px"></path><path d="M 259.459383 214.123437 L 256.959383 214.123437 L 256.959383 220.123437 L 259.459383 220.123437 L 259.459383 214.123437" stroke="gray" fill="white" stroke-width="1px"></path><path d="M 259.459383 208.123437 L 256.959383 208.123437 L 256.959383 214.123437 L 259.459383 214.123437 L 259.459383 208.123437" stroke="gray" fill="white" stroke-width="1px"></path><path d="M 259.459383 202.123437 L 256.959383 202.123437 L 256.959383 208.123437 L 259.459383 208.123437 L 259.459383 202.123437" stroke="gray" fill="white" stroke-width="1px"></path><path d="M 259.459383 196.123437 L 256.959383 196.123437 L 256.959383 202.123437 L 259.459383 202.123437 L 259.459383 196.123437" stroke="gray" fill="white" stroke-width="1px"></path><path d="M 259.459383 190.123437 L 256.959383 190.123437 L 256.959383 196.123437 L 259.459383 196.123437 L 259.459383 190.123437" stroke="gray" fill="white" stroke-width="1px"></path><path d="M 259.459383 184.123437 L 256.959383 184.123437 L 256.959383 190.123437 L 259.459383 190.123437 L 259.459383 184.123437" stroke="gray" fill="white" stroke-width="1px"></path><path d="M 259.459383 178.123437 L 256.959383 178.123437 L 256.959383 184.123437 L 259.459383 184.123437 L 259.459383 178.123437" stroke="gray" fill="white" stroke-width="1px"></path><path d="M 247.459383 214.123437 L 244.959383 214.123437 L 244.959383 220.123437 L 247.459383 220.123437 L 247.459383 214.123437" stroke="gray" fill="white" stroke-width="1px"></path><path d="M 247.459383 208.123437 L 244.959383 208.123437 L 244.959383 214.123437 L 247.459383 214.123437 L 247.459383 208.123437" stroke="gray" fill="white" stroke-width="1px"></path><path d="M 247.459383 202.123437 L 244.959383 202.123437 L 244.959383 208.123437 L 247.459383 208.123437 L 247.459383 202.123437" stroke="gray" fill="white" stroke-width="1px"></path><path d="M 247.459383 196.123437 L 244.959383 196.123437 L 244.959383 202.123437 L 247.459383 202.123437 L 247.459383 196.123437" stroke="gray" fill="white" stroke-width="1px"></path><path d="M 247.459383 190.123437 L 244.959383 190.123437 L 244.959383 196.123437 L 247.459383 196.123437 L 247.459383 190.123437" stroke="gray" fill="white" stroke-width="1px"></path><path d="M 247.459383 184.123437 L 244.959383 184.123437 L 244.959383 190.123437 L 247.459383 190.123437 L 247.459383 184.123437" stroke="gray" fill="white" stroke-width="1px"></path><path d="M 247.459383 178.123437 L 244.959383 178.123437 L 244.959383 184.123437 L 247.459383 184.123437 L 247.459383 178.123437" stroke="gray" fill="white" stroke-width="1px"></path><path d="M 247.459383 172.123437 L 244.959383 172.123437 L 244.959383 178.123437 L 247.459383 178.123437 L 247.459383 172.123437" stroke="gray" fill="white" stroke-width="1px"></path><path d="M 55.459383 170.280618 L 57.959383 170.280618 L 57.959383 176.280618 L 55.459383 176.280618 L 55.459383 170.280618" stroke="gray" fill="white" stroke-width="1px"></path><path d="M 55.459383 164.280618 L 57.959383 164.280618 L 57.959383 170.280618 L 55.459383 170.280618 L 55.459383 164.280618" stroke="gray" fill="white" stroke-width="1px"></path><path d="M 55.459383 158.280618 L 57.959383 158.280618 L 57.959383 164.280618 L 55.459383 164.280618 L 55.459383 158.280618" stroke="gray" fill="white" stroke-width="1px"></path><path d="M 55.459383 152.280618 L 57.959383 152.280618 L 57.959383 158.280618 L 55.459383 158.280618 L 55.459383 152.280618" stroke="gray" fill="white" stroke-width="1px"></path><path d="M 55.459383 146.280618 L 57.959383 146.280618 L 57.959383 152.280618 L 55.459383 152.280618 L 55.459383 146.280618" stroke="gray" fill="white" stroke-width="1px"></path><path d="M 43.459383 170.709447 L 45.959383 170.709447 L 45.959383 176.709447 L 43.459383 176.709447 L 43.459383 170.709447" stroke="gray" fill="white" stroke-width="1px"></path><path d="M 43.459383 164.709447 L 45.959383 164.709447 L 45.959383 170.709447 L 43.459383 170.709447 L 43.459383 164.709447" stroke="gray" fill="white" stroke-width="1px"></path><path d="M 43.459383 158.709447 L 45.959383 158.709447 L 45.959383 164.709447 L 43.459383 164.709447 L 43.459383 158.709447" stroke="gray" fill="white" stroke-width="1px"></path><path d="M 43.459383 152.709447 L 45.959383 152.709447 L 45.959383 158.709447 L 43.459383 158.709447 L 43.459383 152.709447" stroke="gray" fill="white" stroke-width="1px"></path><path d="M 43.459383 146.709447 L 45.959383 146.709447 L 45.959383 152.709447 L 43.459383 152.709447 L 43.459383 146.709447" stroke="gray" fill="white" stroke-width="1px"></path><path d="M 31.459383 171.138277 L 33.959383 171.138277 L 33.959383 177.138277 L 31.459383 177.138277 L 31.459383 171.138277" stroke="gray" fill="white" stroke-width="1px"></path><path d="M 31.459383 165.138277 L 33.959383 165.138277 L 33.959383 171.138277 L 31.459383 171.138277 L 31.459383 165.138277" stroke="gray" fill="white" stroke-width="1px"></path><path d="M 31.459383 159.138277 L 33.959383 159.138277 L 33.959383 165.138277 L 31.459383 165.138277 L 31.459383 159.138277" stroke="gray" fill="white" stroke-width="1px"></path><path d="M 31.459383 153.138277 L 33.959383 153.138277 L 33.959383 159.138277 L 31.459383 159.138277 L 31.459383 153.138277" stroke="gray" fill="white" stroke-width="1px"></path><path d="M 31.459383 147.138277 L 33.959383 147.138277 L 33.959383 153.138277 L 31.459383 153.138277 L 31.459383 147.138277" stroke="gray" fill="white" stroke-width="1px"></path><path d="M 19.459383 171.567106 L 21.959383 171.567106 L 21.959383 177.567106 L 19.459383 177.567106 L 19.459383 171.567106" stroke="gray" fill="white" stroke-width="1px"></path><path d="M 19.459383 165.567106 L 21.959383 165.567106 L 21.959383 171.567106 L 19.459383 171.567106 L 19.459383 165.567106" stroke="gray" fill="white" stroke-width="1px"></path><path d="M 19.459383 159.567106 L 21.959383 159.567106 L 21.959383 165.567106 L 19.459383 165.567106 L 19.459383 159.567106" stroke="gray" fill="white" stroke-width="1px"></path><path d="M 19.459383 153.567106 L 21.959383 153.567106 L 21.959383 159.567106 L 19.459383 159.567106 L 19.459383 153.567106" stroke="gray" fill="white" stroke-width="1px"></path><path d="M 19.459383 147.567106 L 21.959383 147.567106 L 21.959383 153.567106 L 19.459383 153.567106 L 19.459383 147.567106" stroke="gray" fill="white" stroke-width="1px"></path><path d="M 55.459383 220.180625 L 57.959383 220.180625 L 57.959383 226.180625 L 55.459383 226.180625 L 55.459383 220.180625" stroke="gray" fill="white" stroke-width="1px"></path><path d="M 55.459383 214.180625 L 57.959383 214.180625 L 57.959383 220.180625 L 55.459383 220.180625 L 55.459383 214.180625" stroke="gray" fill="white" stroke-width="1px"></path><path d="M 55.459383 208.180625 L 57.959383 208.180625 L 57.959383 214.180625 L 55.459383 214.180625 L 55.459383 208.180625" stroke="gray" fill="white" stroke-width="1px"></path><path d="M 55.459383 202.180625 L 57.959383 202.180625 L 57.959383 208.180625 L 55.459383 208.180625 L 55.459383 202.180625" stroke="gray" fill="white" stroke-width="1px"></path><path d="M 43.459383 220.180625 L 45.959383 220.180625 L 45.959383 226.180625 L 43.459383 226.180625 L 43.459383 220.180625" stroke="gray" fill="white" stroke-width="1px"></path><path d="M 43.459383 214.180625 L 45.959383 214.180625 L 45.959383 220.180625 L 43.459383 220.180625 L 43.459383 214.180625" stroke="gray" fill="white" stroke-width="1px"></path><path d="M 43.459383 208.180625 L 45.959383 208.180625 L 45.959383 214.180625 L 43.459383 214.180625 L 43.459383 208.180625" stroke="gray" fill="white" stroke-width="1px"></path><path d="M 43.459383 202.180625 L 45.959383 202.180625 L 45.959383 208.180625 L 43.459383 208.180625 L 43.459383 202.180625" stroke="gray" fill="white" stroke-width="1px"></path><path d="M 31.459383 220.180625 L 33.959383 220.180625 L 33.959383 226.180625 L 31.459383 226.180625 L 31.459383 220.180625" stroke="gray" fill="white" stroke-width="1px"></path><path d="M 31.459383 214.180625 L 33.959383 214.180625 L 33.959383 220.180625 L 31.459383 220.180625 L 31.459383 214.180625" stroke="gray" fill="white" stroke-width="1px"></path><path d="M 31.459383 208.180625 L 33.959383 208.180625 L 33.959383 214.180625 L 31.459383 214.180625 L 31.459383 208.180625" stroke="gray" fill="white" stroke-width="1px"></path><path d="M 31.459383 202.180625 L 33.959383 202.180625 L 33.959383 208.180625 L 31.459383 208.180625 L 31.459383 202.180625" stroke="gray" fill="white" stroke-width="1px"></path><path d="M 19.459383 220.180625 L 21.959383 220.180625 L 21.959383 226.180625 L 19.459383 226.180625 L 19.459383 220.180625" stroke="gray" fill="white" stroke-width="1px"></path><path d="M 19.459383 214.180625 L 21.959383 214.180625 L 21.959383 220.180625 L 19.459383 220.180625 L 19.459383 214.180625" stroke="gray" fill="white" stroke-width="1px"></path><path d="M 19.459383 208.180625 L 21.959383 208.180625 L 21.959383 214.180625 L 19.459383 214.180625 L 19.459383 208.180625" stroke="gray" fill="white" stroke-width="1px"></path><path d="M 19.459383 202.180625 L 21.959383 202.180625 L 21.959383 208.180625 L 19.459383 208.180625 L 19.459383 202.180625" stroke="gray" fill="white" stroke-width="1px"></path><path d="M 115.459383 202.123437 L 117.959383 202.123437 L 117.959383 208.123437 L 115.459383 208.123437 L 115.459383 202.123437" stroke="gray" fill="white" stroke-width="1px"></path><path d="M 115.459383 196.123437 L 117.959383 196.123437 L 117.959383 202.123437 L 115.459383 202.123437 L 115.459383 196.123437" stroke="gray" fill="white" stroke-width="1px"></path><path d="M 103.459383 214.123437 L 105.959383 214.123437 L 105.959383 220.123437 L 103.459383 220.123437 L 103.459383 214.123437" stroke="gray" fill="white" stroke-width="1px"></path><path d="M 103.459383 208.123437 L 105.959383 208.123437 L 105.959383 214.123437 L 103.459383 214.123437 L 103.459383 208.123437" stroke="gray" fill="white" stroke-width="1px"></path><path d="M 103.459383 202.123437 L 105.959383 202.123437 L 105.959383 208.123437 L 103.459383 208.123437 L 103.459383 202.123437" stroke="gray" fill="white" stroke-width="1px"></path><path d="M 103.459383 196.123437 L 105.959383 196.123437 L 105.959383 202.123437 L 103.459383 202.123437 L 103.459383 196.123437" stroke="gray" fill="white" stroke-width="1px"></path><path d="M 163.459383 214.123437 L 165.959383 214.123437 L 165.959383 220.123437 L 163.459383 220.123437 L 163.459383 214.123437" stroke="gray" fill="white" stroke-width="1px"></path><path d="M 163.459383 208.123437 L 165.959383 208.123437 L 165.959383 214.123437 L 163.459383 214.123437 L 163.459383 208.123437" stroke="gray" fill="white" stroke-width="1px"></path><path d="M 163.459383 202.123437 L 165.959383 202.123437 L 165.959383 208.123437 L 163.459383 208.123437 L 163.459383 202.123437" stroke="gray" fill="white" stroke-width="1px"></path><path d="M 151.459383 214.123437 L 153.959383 214.123437 L 153.959383 220.123437 L 151.459383 220.123437 L 151.459383 214.123437" stroke="gray" fill="white" stroke-width="1px"></path><path d="M 151.459383 208.123437 L 153.959383 208.123437 L 153.959383 214.123437 L 151.459383 214.123437 L 151.459383 208.123437" stroke="gray" fill="white" stroke-width="1px"></path><path d="M 151.459383 202.123437 L 153.959383 202.123437 L 153.959383 208.123437 L 151.459383 208.123437 L 151.459383 202.123437" stroke="gray" fill="white" stroke-width="1px"></path><path d="M 151.459383 196.123437 L 153.959383 196.123437 L 153.959383 202.123437 L 151.459383 202.123437 L 151.459383 196.123437" stroke="gray" fill="white" stroke-width="1px"></path><path d="M 199.459383 214.123437 L 201.959383 214.123437 L 201.959383 220.123437 L 199.459383 220.123437 L 199.459383 214.123437" stroke="gray" fill="white" stroke-width="1px"></path><path d="M 199.459383 208.123437 L 201.959383 208.123437 L 201.959383 214.123437 L 199.459383 214.123437 L 199.459383 208.123437" stroke="gray" fill="white" stroke-width="1px"></path><path d="M 199.459383 202.123437 L 201.959383 202.123437 L 201.959383 208.123437 L 199.459383 208.123437 L 199.459383 202.123437" stroke="gray" fill="white" stroke-width="1px"></path><path d="M 199.459383 196.123437 L 201.959383 196.123437 L 201.959383 202.123437 L 199.459383 202.123437 L 199.459383 196.123437" stroke="gray" fill="white" stroke-width="1px"></path><path d="M 271.459383 214.123437 L 273.959383 214.123437 L 273.959383 220.123437 L 271.459383 220.123437 L 271.459383 214.123437" stroke="gray" fill="white" stroke-width="1px"></path><path d="M 271.459383 208.123437 L 273.959383 208.123437 L 273.959383 214.123437 L 271.459383 214.123437 L 271.459383 208.123437" stroke="gray" fill="white" stroke-width="1px"></path><path d="M 271.459383 202.123437 L 273.959383 202.123437 L 273.959383 208.123437 L 271.459383 208.123437 L 271.459383 202.123437" stroke="gray" fill="white" stroke-width="1px"></path><path d="M 271.459383 196.123437 L 273.959383 196.123437 L 273.959383 202.123437 L 271.459383 202.123437 L 271.459383 196.123437" stroke="gray" fill="white" stroke-width="1px"></path><path d="M 271.459383 190.123437 L 273.959383 190.123437 L 273.959383 196.123437 L 271.459383 196.123437 L 271.459383 190.123437" stroke="gray" fill="white" stroke-width="1px"></path><path d="M 271.459383 184.123437 L 273.959383 184.123437 L 273.959383 190.123437 L 271.459383 190.123437 L 271.459383 184.123437" stroke="gray" fill="white" stroke-width="1px"></path><path d="M 271.459383 178.123437 L 273.959383 178.123437 L 273.959383 184.123437 L 271.459383 184.123437 L 271.459383 178.123437" stroke="gray" fill="white" stroke-width="1px"></path><path d="M 259.459383 214.123437 L 261.959383 214.123437 L 261.959383 220.123437 L 259.459383 220.123437 L 259.459383 214.123437" stroke="gray" fill="white" stroke-width="1px"></path><path d="M 259.459383 208.123437 L 261.959383 208.123437 L 261.959383 214.123437 L 259.459383 214.123437 L 259.459383 208.123437" stroke="gray" fill="white" stroke-width="1px"></path><path d="M 259.459383 202.123437 L 261.959383 202.123437 L 261.959383 208.123437 L 259.459383 208.123437 L 259.459383 202.123437" stroke="gray" fill="white" stroke-width="1px"></path><path d="M 259.459383 196.123437 L 261.959383 196.123437 L 261.959383 202.123437 L 259.459383 202.123437 L 259.459383 196.123437" stroke="gray" fill="white" stroke-width="1px"></path><path d="M 259.459383 190.123437 L 261.959383 190.123437 L 261.959383 196.123437 L 259.459383 196.123437 L 259.459383 190.123437" stroke="gray" fill="white" stroke-width="1px"></path><path d="M 259.459383 184.123437 L 261.959383 184.123437 L 261.959383 190.123437 L 259.459383 190.123437 L 259.459383 184.123437" stroke="gray" fill="white" stroke-width="1px"></path><path d="M 259.459383 178.123437 L 261.959383 178.123437 L 261.959383 184.123437 L 259.459383 184.123437 L 259.459383 178.123437" stroke="gray" fill="white" stroke-width="1px"></path><path d="M 247.459383 214.123437 L 249.959383 214.123437 L 249.959383 220.123437 L 247.459383 220.123437 L 247.459383 214.123437" stroke="gray" fill="white" stroke-width="1px"></path><path d="M 247.459383 208.123437 L 249.959383 208.123437 L 249.959383 214.123437 L 247.459383 214.123437 L 247.459383 208.123437" stroke="gray" fill="white" stroke-width="1px"></path><path d="M 247.459383 202.123437 L 249.959383 202.123437 L 249.959383 208.123437 L 247.459383 208.123437 L 247.459383 202.123437" stroke="gray" fill="white" stroke-width="1px"></path><path d="M 247.459383 196.123437 L 249.959383 196.123437 L 249.959383 202.123437 L 247.459383 202.123437 L 247.459383 196.123437" stroke="gray" fill="white" stroke-width="1px"></path><path d="M 247.459383 190.123437 L 249.959383 190.123437 L 249.959383 196.123437 L 247.459383 196.123437 L 247.459383 190.123437" stroke="gray" fill="white" stroke-width="1px"></path><path d="M 247.459383 184.123437 L 249.959383 184.123437 L 249.959383 190.123437 L 247.459383 190.123437 L 247.459383 184.123437" stroke="gray" fill="white" stroke-width="1px"></path><path d="M 247.459383 178.123437 L 249.959383 178.123437 L 249.959383 184.123437 L 247.459383 184.123437 L 247.459383 178.123437" stroke="gray" fill="white" stroke-width="1px"></path><path d="M 247.459383 172.123437 L 249.959383 172.123437 L 249.959383 178.123437 L 247.459383 178.123437 L 247.459383 172.123437" stroke="gray" fill="white" stroke-width="1px"></path><path d="M 251.737652 160.123437 L 251.737652 157.623437 L 245.737652 157.623437 L 245.737652 160.123437 L 251.737652 160.123437" stroke="gray" fill="white" stroke-width="1px"></path><path d="M 257.737652 160.123437 L 257.737652 157.623437 L 251.737652 157.623437 L 251.737652 160.123437 L 257.737652 160.123437" stroke="gray" fill="white" stroke-width="1px"></path><path d="M 263.737652 160.123437 L 263.737652 157.623437 L 257.737652 157.623437 L 257.737652 160.123437 L 263.737652 160.123437" stroke="gray" fill="white" stroke-width="1px"></path><path d="M 269.737652 160.123437 L 269.737652 157.623437 L 263.737652 157.623437 L 263.737652 160.123437 L 269.737652 160.123437" stroke="gray" fill="white" stroke-width="1px"></path><path d="M 275.737652 160.123437 L 275.737652 157.623437 L 269.737652 157.623437 L 269.737652 160.123437 L 275.737652 160.123437" stroke="gray" fill="white" stroke-width="1px"></path><path d="M 251.737652 148.123437 L 251.737652 145.623437 L 245.737652 145.623437 L 245.737652 148.123437 L 251.737652 148.123437" stroke="gray" fill="white" stroke-width="1px"></path><path d="M 257.737652 148.123437 L 257.737652 145.623437 L 251.737652 145.623437 L 251.737652 148.123437 L 257.737652 148.123437" stroke="gray" fill="white" stroke-width="1px"></path><path d="M 263.737652 148.123437 L 263.737652 145.623437 L 257.737652 145.623437 L 257.737652 148.123437 L 263.737652 148.123437" stroke="gray" fill="white" stroke-width="1px"></path><path d="M 269.737652 148.123437 L 269.737652 145.623437 L 263.737652 145.623437 L 263.737652 148.123437 L 269.737652 148.123437" stroke="gray" fill="white" stroke-width="1px"></path><path d="M 275.737652 148.123437 L 275.737652 145.623437 L 269.737652 145.623437 L 269.737652 148.123437 L 275.737652 148.123437" stroke="gray" fill="white" stroke-width="1px"></path><path d="M 251.737652 160.123437 L 251.737652 162.623437 L 245.737652 162.623437 L 245.737652 160.123437 L 251.737652 160.123437" stroke="gray" fill="white" stroke-width="1px"></path><path d="M 257.737652 160.123437 L 257.737652 162.623437 L 251.737652 162.623437 L 251.737652 160.123437 L 257.737652 160.123437" stroke="gray" fill="white" stroke-width="1px"></path><path d="M 263.737652 160.123437 L 263.737652 162.623437 L 257.737652 162.623437 L 257.737652 160.123437 L 263.737652 160.123437" stroke="gray" fill="white" stroke-width="1px"></path><path d="M 269.737652 160.123437 L 269.737652 162.623437 L 263.737652 162.623437 L 263.737652 160.123437 L 269.737652 160.123437" stroke="gray" fill="white" stroke-width="1px"></path><path d="M 275.737652 160.123437 L 275.737652 162.623437 L 269.737652 162.623437 L 269.737652 160.123437 L 275.737652 160.123437" stroke="gray" fill="white" stroke-width="1px"></path><path d="M 251.737652 148.123437 L 251.737652 150.623437 L 245.737652 150.623437 L 245.737652 148.123437 L 251.737652 148.123437" stroke="gray" fill="white" stroke-width="1px"></path><path d="M 257.737652 148.123437 L 257.737652 150.623437 L 251.737652 150.623437 L 251.737652 148.123437 L 257.737652 148.123437" stroke="gray" fill="white" stroke-width="1px"></path><path d="M 263.737652 148.123437 L 263.737652 150.623437 L 257.737652 150.623437 L 257.737652 148.123437 L 263.737652 148.123437" stroke="gray" fill="white" stroke-width="1px"></path><path d="M 269.737652 148.123437 L 269.737652 150.623437 L 263.737652 150.623437 L 263.737652 148.123437 L 269.737652 148.123437" stroke="gray" fill="white" stroke-width="1px"></path><path d="M 275.737652 148.123437 L 275.737652 150.623437 L 269.737652 150.623437 L 269.737652 148.123437 L 275.737652 148.123437" stroke="gray" fill="white" stroke-width="1px"></path><path d="M 271.459383 25.695745 L 268.959383 25.695745 L 268.959383 31.695745 L 271.459383 31.695745 L 271.459383 25.695745" stroke="gray" fill="white" stroke-width="1px"></path><path d="M 271.459383 19.695745 L 268.959383 19.695745 L 268.959383 25.695745 L 271.459383 25.695745 L 271.459383 19.695745" stroke="gray" fill="white" stroke-width="1px"></path><path d="M 271.459383 13.695745 L 268.959383 13.695745 L 268.959383 19.695745 L 271.459383 19.695745 L 271.459383 13.695745" stroke="gray" fill="white" stroke-width="1px"></path><path d="M 259.459383 23.823671 L 256.959383 23.823671 L 256.959383 29.823671 L 259.459383 29.823671 L 259.459383 23.823671" stroke="gray" fill="white" stroke-width="1px"></path><path d="M 259.459383 17.823671 L 256.959383 17.823671 L 256.959383 23.823671 L 259.459383 23.823671 L 259.459383 17.823671" stroke="gray" fill="white" stroke-width="1px"></path><path d="M 247.459383 21.951597 L 244.959383 21.951597 L 244.959383 27.951597 L 247.459383 27.951597 L 247.459383 21.951597" stroke="gray" fill="white" stroke-width="1px"></path><path d="M 247.459383 15.951597 L 244.959383 15.951597 L 244.959383 21.951597 L 247.459383 21.951597 L 247.459383 15.951597" stroke="gray" fill="white" stroke-width="1px"></path><path d="M 235.459383 26.141734 L 232.959383 26.141734 L 232.959383 32.141734 L 235.459383 32.141734 L 235.459383 26.141734" stroke="gray" fill="white" stroke-width="1px"></path><path d="M 235.459383 20.141734 L 232.959383 20.141734 L 232.959383 26.141734 L 235.459383 26.141734 L 235.459383 20.141734" stroke="gray" fill="white" stroke-width="1px"></path><path d="M 235.459383 14.141734 L 232.959383 14.141734 L 232.959383 20.141734 L 235.459383 20.141734 L 235.459383 14.141734" stroke="gray" fill="white" stroke-width="1px"></path><path d="M 199.459383 101.033125 L 196.959383 101.033125 L 196.959383 107.033125 L 199.459383 107.033125 L 199.459383 101.033125" stroke="gray" fill="white" stroke-width="1px"></path><path d="M 199.459383 95.033125 L 196.959383 95.033125 L 196.959383 101.033125 L 199.459383 101.033125 L 199.459383 95.033125" stroke="gray" fill="white" stroke-width="1px"></path><path d="M 199.459383 89.033125 L 196.959383 89.033125 L 196.959383 95.033125 L 199.459383 95.033125 L 199.459383 89.033125" stroke="gray" fill="white" stroke-width="1px"></path><path d="M 199.459383 83.033125 L 196.959383 83.033125 L 196.959383 89.033125 L 199.459383 89.033125 L 199.459383 83.033125" stroke="gray" fill="white" stroke-width="1px"></path><path d="M 139.459383 101.033125 L 136.959383 101.033125 L 136.959383 107.033125 L 139.459383 107.033125 L 139.459383 101.033125" stroke="gray" fill="white" stroke-width="1px"></path><path d="M 139.459383 95.033125 L 136.959383 95.033125 L 136.959383 101.033125 L 139.459383 101.033125 L 139.459383 95.033125" stroke="gray" fill="white" stroke-width="1px"></path><path d="M 127.459383 101.033125 L 124.959383 101.033125 L 124.959383 107.033125 L 127.459383 107.033125 L 127.459383 101.033125" stroke="gray" fill="white" stroke-width="1px"></path><path d="M 115.459383 101.033125 L 112.959383 101.033125 L 112.959383 107.033125 L 115.459383 107.033125 L 115.459383 101.033125" stroke="gray" fill="white" stroke-width="1px"></path><path d="M 103.459383 101.033125 L 100.959383 101.033125 L 100.959383 107.033125 L 103.459383 107.033125 L 103.459383 101.033125" stroke="gray" fill="white" stroke-width="1px"></path><path d="M 55.459383 28.560626 L 52.959383 28.560626 L 52.959383 34.560626 L 55.459383 34.560626 L 55.459383 28.560626" stroke="gray" fill="white" stroke-width="1px"></path><path d="M 55.459383 22.560626 L 52.959383 22.560626 L 52.959383 28.560626 L 55.459383 28.560626 L 55.459383 22.560626" stroke="gray" fill="white" stroke-width="1px"></path><path d="M 55.459383 16.560626 L 52.959383 16.560626 L 52.959383 22.560626 L 55.459383 22.560626 L 55.459383 16.560626" stroke="gray" fill="white" stroke-width="1px"></path><path d="M 43.459383 29.193865 L 40.959383 29.193865 L 40.959383 35.193865 L 43.459383 35.193865 L 43.459383 29.193865" stroke="gray" fill="white" stroke-width="1px"></path><path d="M 43.459383 23.193865 L 40.959383 23.193865 L 40.959383 29.193865 L 43.459383 29.193865 L 43.459383 23.193865" stroke="gray" fill="white" stroke-width="1px"></path><path d="M 43.459383 17.193865 L 40.959383 17.193865 L 40.959383 23.193865 L 43.459383 23.193865 L 43.459383 17.193865" stroke="gray" fill="white" stroke-width="1px"></path><path d="M 31.459383 29.827104 L 28.959383 29.827104 L 28.959383 35.827104 L 31.459383 35.827104 L 31.459383 29.827104" stroke="gray" fill="white" stroke-width="1px"></path><path d="M 31.459383 23.827104 L 28.959383 23.827104 L 28.959383 29.827104 L 31.459383 29.827104 L 31.459383 23.827104" stroke="gray" fill="white" stroke-width="1px"></path><path d="M 31.459383 17.827104 L 28.959383 17.827104 L 28.959383 23.827104 L 31.459383 23.827104 L 31.459383 17.827104" stroke="gray" fill="white" stroke-width="1px"></path><path d="M 19.459383 30.460343 L 16.959383 30.460343 L 16.959383 36.460343 L 19.459383 36.460343 L 19.459383 30.460343" stroke="gray" fill="white" stroke-width="1px"></path><path d="M 19.459383 24.460343 L 16.959383 24.460343 L 16.959383 30.460343 L 19.459383 30.460343 L 19.459383 24.460343" stroke="gray" fill="white" stroke-width="1px"></path><path d="M 19.459383 18.460343 L 16.959383 18.460343 L 16.959383 24.460343 L 19.459383 24.460343 L 19.459383 18.460343" stroke="gray" fill="white" stroke-width="1px"></path><path d="M 271.459383 25.695745 L 273.959383 25.695745 L 273.959383 31.695745 L 271.459383 31.695745 L 271.459383 25.695745" stroke="gray" fill="white" stroke-width="1px"></path><path d="M 271.459383 19.695745 L 273.959383 19.695745 L 273.959383 25.695745 L 271.459383 25.695745 L 271.459383 19.695745" stroke="gray" fill="white" stroke-width="1px"></path><path d="M 271.459383 13.695745 L 273.959383 13.695745 L 273.959383 19.695745 L 271.459383 19.695745 L 271.459383 13.695745" stroke="gray" fill="white" stroke-width="1px"></path><path d="M 259.459383 23.823671 L 261.959383 23.823671 L 261.959383 29.823671 L 259.459383 29.823671 L 259.459383 23.823671" stroke="gray" fill="white" stroke-width="1px"></path><path d="M 259.459383 17.823671 L 261.959383 17.823671 L 261.959383 23.823671 L 259.459383 23.823671 L 259.459383 17.823671" stroke="gray" fill="white" stroke-width="1px"></path><path d="M 247.459383 21.951597 L 249.959383 21.951597 L 249.959383 27.951597 L 247.459383 27.951597 L 247.459383 21.951597" stroke="gray" fill="white" stroke-width="1px"></path><path d="M 247.459383 15.951597 L 249.959383 15.951597 L 249.959383 21.951597 L 247.459383 21.951597 L 247.459383 15.951597" stroke="gray" fill="white" stroke-width="1px"></path><path d="M 235.459383 26.141734 L 237.959383 26.141734 L 237.959383 32.141734 L 235.459383 32.141734 L 235.459383 26.141734" stroke="gray" fill="white" stroke-width="1px"></path><path d="M 235.459383 20.141734 L 237.959383 20.141734 L 237.959383 26.141734 L 235.459383 26.141734 L 235.459383 20.141734" stroke="gray" fill="white" stroke-width="1px"></path><path d="M 235.459383 14.141734 L 237.959383 14.141734 L 237.959383 20.141734 L 235.459383 20.141734 L 235.459383 14.141734" stroke="gray" fill="white" stroke-width="1px"></path><path d="M 199.459383 101.033125 L 201.959383 101.033125 L 201.959383 107.033125 L 199.459383 107.033125 L 199.459383 101.033125" stroke="gray" fill="white" stroke-width="1px"></path><path d="M 199.459383 95.033125 L 201.959383 95.033125 L 201.959383 101.033125 L 199.459383 101.033125 L 199.459383 95.033125" stroke="gray" fill="white" stroke-width="1px"></path><path d="M 199.459383 89.033125 L 201.959383 89.033125 L 201.959383 95.033125 L 199.459383 95.033125 L 199.459383 89.033125" stroke="gray" fill="white" stroke-width="1px"></path><path d="M 199.459383 83.033125 L 201.959383 83.033125 L 201.959383 89.033125 L 199.459383 89.033125 L 199.459383 83.033125" stroke="gray" fill="white" stroke-width="1px"></path><path d="M 139.459383 101.033125 L 141.959383 101.033125 L 141.959383 107.033125 L 139.459383 107.033125 L 139.459383 101.033125" stroke="gray" fill="white" stroke-width="1px"></path><path d="M 139.459383 95.033125 L 141.959383 95.033125 L 141.959383 101.033125 L 139.459383 101.033125 L 139.459383 95.033125" stroke="gray" fill="white" stroke-width="1px"></path><path d="M 139.459383 89.033125 L 141.959383 89.033125 L 141.959383 95.033125 L 139.459383 95.033125 L 139.459383 89.033125" stroke="gray" fill="white" stroke-width="1px"></path><path d="M 139.459383 83.033125 L 141.959383 83.033125 L 141.959383 89.033125 L 139.459383 89.033125 L 139.459383 83.033125" stroke="gray" fill="white" stroke-width="1px"></path><path d="M 127.459383 101.033125 L 129.959383 101.033125 L 129.959383 107.033125 L 127.459383 107.033125 L 127.459383 101.033125" stroke="gray" fill="white" stroke-width="1px"></path><path d="M 115.459383 101.033125 L 117.959383 101.033125 L 117.959383 107.033125 L 115.459383 107.033125 L 115.459383 101.033125" stroke="gray" fill="white" stroke-width="1px"></path><path d="M 103.459383 101.033125 L 105.959383 101.033125 L 105.959383 107.033125 L 103.459383 107.033125 L 103.459383 101.033125" stroke="gray" fill="white" stroke-width="1px"></path><path d="M 55.459383 28.560626 L 57.959383 28.560626 L 57.959383 34.560626 L 55.459383 34.560626 L 55.459383 28.560626" stroke="gray" fill="white" stroke-width="1px"></path><path d="M 55.459383 22.560626 L 57.959383 22.560626 L 57.959383 28.560626 L 55.459383 28.560626 L 55.459383 22.560626" stroke="gray" fill="white" stroke-width="1px"></path><path d="M 55.459383 16.560626 L 57.959383 16.560626 L 57.959383 22.560626 L 55.459383 22.560626 L 55.459383 16.560626" stroke="gray" fill="white" stroke-width="1px"></path><path d="M 43.459383 29.193865 L 45.959383 29.193865 L 45.959383 35.193865 L 43.459383 35.193865 L 43.459383 29.193865" stroke="gray" fill="white" stroke-width="1px"></path><path d="M 43.459383 23.193865 L 45.959383 23.193865 L 45.959383 29.193865 L 43.459383 29.193865 L 43.459383 23.193865" stroke="gray" fill="white" stroke-width="1px"></path><path d="M 43.459383 17.193865 L 45.959383 17.193865 L 45.959383 23.193865 L 43.459383 23.193865 L 43.459383 17.193865" stroke="gray" fill="white" stroke-width="1px"></path><path d="M 31.459383 29.827104 L 33.959383 29.827104 L 33.959383 35.827104 L 31.459383 35.827104 L 31.459383 29.827104" stroke="gray" fill="white" stroke-width="1px"></path><path d="M 31.459383 23.827104 L 33.959383 23.827104 L 33.959383 29.827104 L 31.459383 29.827104 L 31.459383 23.827104" stroke="gray" fill="white" stroke-width="1px"></path><path d="M 31.459383 17.827104 L 33.959383 17.827104 L 33.959383 23.827104 L 31.459383 23.827104 L 31.459383 17.827104" stroke="gray" fill="white" stroke-width="1px"></path><path d="M 19.459383 30.460343 L 21.959383 30.460343 L 21.959383 36.460343 L 19.459383 36.460343 L 19.459383 30.460343" stroke="gray" fill="white" stroke-width="1px"></path><path d="M 19.459383 24.460343 L 21.959383 24.460343 L 21.959383 30.460343 L 19.459383 30.460343 L 19.459383 24.460343" stroke="gray" fill="white" stroke-width="1px"></path><path d="M 19.459383 18.460343 L 21.959383 18.460343 L 21.959383 24.460343 L 19.459383 24.460343 L 19.459383 18.460343" stroke="gray" fill="white" stroke-width="1px"></path><path d="M 255.708727 101.263579 L 255.708727 98.763579 L 249.708727 98.763579 L 249.708727 101.263579 L 255.708727 101.263579" stroke="gray" fill="white" stroke-width="1px"></path><path d="M 261.708727 101.263579 L 261.708727 98.763579 L 255.708727 98.763579 L 255.708727 101.263579 L 261.708727 101.263579" stroke="gray" fill="white" stroke-width="1px"></path><path d="M 267.708727 101.263579 L 267.708727 98.763579 L 261.708727 98.763579 L 261.708727 101.263579 L 267.708727 101.263579" stroke="gray" fill="white" stroke-width="1px"></path><path d="M 273.708727 101.263579 L 273.708727 98.763579 L 267.708727 98.763579 L 267.708727 101.263579 L 273.708727 101.263579" stroke="gray" fill="white" stroke-width="1px"></path><path d="M 254.787654 89.263579 L 254.787654 86.763579 L 248.787654 86.763579 L 248.787654 89.263579 L 254.787654 89.263579" stroke="gray" fill="white" stroke-width="1px"></path><path d="M 260.787654 89.263579 L 260.787654 86.763579 L 254.787654 86.763579 L 254.787654 89.263579 L 260.787654 89.263579" stroke="gray" fill="white" stroke-width="1px"></path><path d="M 266.787654 89.263579 L 266.787654 86.763579 L 260.787654 86.763579 L 260.787654 89.263579 L 266.787654 89.263579" stroke="gray" fill="white" stroke-width="1px"></path><path d="M 272.787654 89.263579 L 272.787654 86.763579 L 266.787654 86.763579 L 266.787654 89.263579 L 272.787654 89.263579" stroke="gray" fill="white" stroke-width="1px"></path><path d="M 278.787654 89.263579 L 278.787654 86.763579 L 272.787654 86.763579 L 272.787654 89.263579 L 278.787654 89.263579" stroke="gray" fill="white" stroke-width="1px"></path><path d="M 253.866582 77.263579 L 253.866582 74.763579 L 247.866582 74.763579 L 247.866582 77.263579 L 253.866582 77.263579" stroke="gray" fill="white" stroke-width="1px"></path><path d="M 259.866582 77.263579 L 259.866582 74.763579 L 253.866582 74.763579 L 253.866582 77.263579 L 259.866582 77.263579" stroke="gray" fill="white" stroke-width="1px"></path><path d="M 265.866582 77.263579 L 265.866582 74.763579 L 259.866582 74.763579 L 259.866582 77.263579 L 265.866582 77.263579" stroke="gray" fill="white" stroke-width="1px"></path><path d="M 271.866582 77.263579 L 271.866582 74.763579 L 265.866582 74.763579 L 265.866582 77.263579 L 271.866582 77.263579" stroke="gray" fill="white" stroke-width="1px"></path><path d="M 277.866582 77.263579 L 277.866582 74.763579 L 271.866582 74.763579 L 271.866582 77.263579 L 277.866582 77.263579" stroke="gray" fill="white" stroke-width="1px"></path><path d="M 221.416108 101.263579 L 221.416108 98.763579 L 215.416108 98.763579 L 215.416108 101.263579 L 221.416108 101.263579" stroke="gray" fill="white" stroke-width="1px"></path><path d="M 219.382534 89.263579 L 219.382534 86.763579 L 213.382534 86.763579 L 213.382534 89.263579 L 219.382534 89.263579" stroke="gray" fill="white" stroke-width="1px"></path><path d="M 22.000000 101.263579 L 22.000000 98.763579 L 16.000000 98.763579 L 16.000000 101.263579 L 22.000000 101.263579" stroke="gray" fill="white" stroke-width="1px"></path><path d="M 28.000000 101.263579 L 28.000000 98.763579 L 22.000000 98.763579 L 22.000000 101.263579 L 28.000000 101.263579" stroke="gray" fill="white" stroke-width="1px"></path><path d="M 34.000000 101.263579 L 34.000000 98.763579 L 28.000000 98.763579 L 28.000000 101.263579 L 34.000000 101.263579" stroke="gray" fill="white" stroke-width="1px"></path><path d="M 40.000000 101.263579 L 40.000000 98.763579 L 34.000000 98.763579 L 34.000000 101.263579 L 40.000000 101.263579" stroke="gray" fill="white" stroke-width="1px"></path><path d="M 22.000000 89.263579 L 22.000000 86.763579 L 16.000000 86.763579 L 16.000000 89.263579 L 22.000000 89.263579" stroke="gray" fill="white" stroke-width="1px"></path><path d="M 28.000000 89.263579 L 28.000000 86.763579 L 22.000000 86.763579 L 22.000000 89.263579 L 28.000000 89.263579" stroke="gray" fill="white" stroke-width="1px"></path><path d="M 34.000000 89.263579 L 34.000000 86.763579 L 28.000000 86.763579 L 28.000000 89.263579 L 34.000000 89.263579" stroke="gray" fill="white" stroke-width="1px"></path><path d="M 40.000000 89.263579 L 40.000000 86.763579 L 34.000000 86.763579 L 34.000000 89.263579 L 40.000000 89.263579" stroke="gray" fill="white" stroke-width="1px"></path><path d="M 22.000000 77.263579 L 22.000000 74.763579 L 16.000000 74.763579 L 16.000000 77.263579 L 22.000000 77.263579" stroke="gray" fill="white" stroke-width="1px"></path><path d="M 28.000000 77.263579 L 28.000000 74.763579 L 22.000000 74.763579 L 22.000000 77.263579 L 28.000000 77.263579" stroke="gray" fill="white" stroke-width="1px"></path><path d="M 34.000000 77.263579 L 34.000000 74.763579 L 28.000000 74.763579 L 28.000000 77.263579 L 34.000000 77.263579" stroke="gray" fill="white" stroke-width="1px"></path><path d="M 40.000000 77.263579 L 40.000000 74.763579 L 34.000000 74.763579 L 34.000000 77.263579 L 40.000000 77.263579" stroke="gray" fill="white" stroke-width="1px"></path><path d="M 22.000000 65.263579 L 22.000000 62.763579 L 16.000000 62.763579 L 16.000000 65.263579 L 22.000000 65.263579" stroke="gray" fill="white" stroke-width="1px"></path><path d="M 28.000000 65.263579 L 28.000000 62.763579 L 22.000000 62.763579 L 22.000000 65.263579 L 28.000000 65.263579" stroke="gray" fill="white" stroke-width="1px"></path><path d="M 34.000000 65.263579 L 34.000000 62.763579 L 28.000000 62.763579 L 28.000000 65.263579 L 34.000000 65.263579" stroke="gray" fill="white" stroke-width="1px"></path><path d="M 40.000000 65.263579 L 40.000000 62.763579 L 34.000000 62.763579 L 34.000000 65.263579 L 40.000000 65.263579" stroke="gray" fill="white" stroke-width="1px"></path><path d="M 255.708727 101.263579 L 255.708727 103.763579 L 249.708727 103.763579 L 249.708727 101.263579 L 255.708727 101.263579" stroke="gray" fill="white" stroke-width="1px"></path><path d="M 261.708727 101.263579 L 261.708727 103.763579 L 255.708727 103.763579 L 255.708727 101.263579 L 261.708727 101.263579" stroke="gray" fill="white" stroke-width="1px"></path><path d="M 267.708727 101.263579 L 267.708727 103.763579 L 261.708727 103.763579 L 261.708727 101.263579 L 267.708727 101.263579" stroke="gray" fill="white" stroke-width="1px"></path><path d="M 273.708727 101.263579 L 273.708727 103.763579 L 267.708727 103.763579 L 267.708727 101.263579 L 273.708727 101.263579" stroke="gray" fill="white" stroke-width="1px"></path><path d="M 254.787654 89.263579 L 254.787654 91.763579 L 248.787654 91.763579 L 248.787654 89.263579 L 254.787654 89.263579" stroke="gray" fill="white" stroke-width="1px"></path><path d="M 260.787654 89.263579 L 260.787654 91.763579 L 254.787654 91.763579 L 254.787654 89.263579 L 260.787654 89.263579" stroke="gray" fill="white" stroke-width="1px"></path><path d="M 266.787654 89.263579 L 266.787654 91.763579 L 260.787654 91.763579 L 260.787654 89.263579 L 266.787654 89.263579" stroke="gray" fill="white" stroke-width="1px"></path><path d="M 272.787654 89.263579 L 272.787654 91.763579 L 266.787654 91.763579 L 266.787654 89.263579 L 272.787654 89.263579" stroke="gray" fill="white" stroke-width="1px"></path><path d="M 278.787654 89.263579 L 278.787654 91.763579 L 272.787654 91.763579 L 272.787654 89.263579 L 278.787654 89.263579" stroke="gray" fill="white" stroke-width="1px"></path><path d="M 253.866582 77.263579 L 253.866582 79.763579 L 247.866582 79.763579 L 247.866582 77.263579 L 253.866582 77.263579" stroke="gray" fill="white" stroke-width="1px"></path><path d="M 259.866582 77.263579 L 259.866582 79.763579 L 253.866582 79.763579 L 253.866582 77.263579 L 259.866582 77.263579" stroke="gray" fill="white" stroke-width="1px"></path><path d="M 265.866582 77.263579 L 265.866582 79.763579 L 259.866582 79.763579 L 259.866582 77.263579 L 265.866582 77.263579" stroke="gray" fill="white" stroke-width="1px"></path><path d="M 271.866582 77.263579 L 271.866582 79.763579 L 265.866582 79.763579 L 265.866582 77.263579 L 271.866582 77.263579" stroke="gray" fill="white" stroke-width="1px"></path><path d="M 277.866582 77.263579 L 277.866582 79.763579 L 271.866582 79.763579 L 271.866582 77.263579 L 277.866582 77.263579" stroke="gray" fill="white" stroke-width="1px"></path><path d="M 221.416108 101.263579 L 221.416108 103.763579 L 215.416108 103.763579 L 215.416108 101.263579 L 221.416108 101.263579" stroke="gray" fill="white" stroke-width="1px"></path><path d="M 219.382534 89.263579 L 219.382534 91.763579 L 213.382534 91.763579 L 213.382534 89.263579 L 219.382534 89.263579" stroke="gray" fill="white" stroke-width="1px"></path><path d="M 22.000000 101.263579 L 22.000000 103.763579 L 16.000000 103.763579 L 16.000000 101.263579 L 22.000000 101.263579" stroke="gray" fill="white" stroke-width="1px"></path><path d="M 28.000000 101.263579 L 28.000000 103.763579 L 22.000000 103.763579 L 22.000000 101.263579 L 28.000000 101.263579" stroke="gray" fill="white" stroke-width="1px"></path><path d="M 34.000000 101.263579 L 34.000000 103.763579 L 28.000000 103.763579 L 28.000000 101.263579 L 34.000000 101.263579" stroke="gray" fill="white" stroke-width="1px"></path><path d="M 40.000000 101.263579 L 40.000000 103.763579 L 34.000000 103.763579 L 34.000000 101.263579 L 40.000000 101.263579" stroke="gray" fill="white" stroke-width="1px"></path><path d="M 22.000000 89.263579 L 22.000000 91.763579 L 16.000000 91.763579 L 16.000000 89.263579 L 22.000000 89.263579" stroke="gray" fill="white" stroke-width="1px"></path><path d="M 28.000000 89.263579 L 28.000000 91.763579 L 22.000000 91.763579 L 22.000000 89.263579 L 28.000000 89.263579" stroke="gray" fill="white" stroke-width="1px"></path><path d="M 34.000000 89.263579 L 34.000000 91.763579 L 28.000000 91.763579 L 28.000000 89.263579 L 34.000000 89.263579" stroke="gray" fill="white" stroke-width="1px"></path><path d="M 40.000000 89.263579 L 40.000000 91.763579 L 34.000000 91.763579 L 34.000000 89.263579 L 40.000000 89.263579" stroke="gray" fill="white" stroke-width="1px"></path><path d="M 22.000000 77.263579 L 22.000000 79.763579 L 16.000000 79.763579 L 16.000000 77.263579 L 22.000000 77.263579" stroke="gray" fill="white" stroke-width="1px"></path><path d="M 28.000000 77.263579 L 28.000000 79.763579 L 22.000000 79.763579 L 22.000000 77.263579 L 28.000000 77.263579" stroke="gray" fill="white" stroke-width="1px"></path><path d="M 34.000000 77.263579 L 34.000000 79.763579 L 28.000000 79.763579 L 28.000000 77.263579 L 34.000000 77.263579" stroke="gray" fill="white" stroke-width="1px"></path><path d="M 40.000000 77.263579 L 40.000000 79.763579 L 34.000000 79.763579 L 34.000000 77.263579 L 40.000000 77.263579" stroke="gray" fill="white" stroke-width="1px"></path><path d="M 22.000000 65.263579 L 22.000000 67.763579 L 16.000000 67.763579 L 16.000000 65.263579 L 22.000000 65.263579" stroke="gray" fill="white" stroke-width="1px"></path><path d="M 28.000000 65.263579 L 28.000000 67.763579 L 22.000000 67.763579 L 22.000000 65.263579 L 28.000000 65.263579" stroke="gray" fill="white" stroke-width="1px"></path><path d="M 34.000000 65.263579 L 34.000000 67.763579 L 28.000000 67.763579 L 28.000000 65.263579 L 34.000000 65.263579" stroke="gray" fill="white" stroke-width="1px"></path><path d="M 40.000000 65.263579 L 40.000000 67.763579 L 34.000000 67.763579 L 34.000000 65.263579 L 40.000000 65.263579" stroke="gray" fill="white" stroke-width="1px"></path></g><g id="crv-base"><path d="M 221.371570 123.090312 L 221.371570 169.241094 L 120.000633 169.241094 L 120.000633 156.444206 L 126.051258 156.444206 L 126.051258 128.832500 L 123.590320 128.832500 L 123.590320 125.551250 L 126.051258 125.551250 L 126.051258 123.858132 L 91.315945 123.858125 L 91.315945 134.738750 L 64.258762 134.738750 L 64.258762 123.687497 L 10.000000 123.687497 L 10.000000 226.180625 L 64.258758 226.180625 L 64.258758 192.357500 L 91.315945 192.357500 L 91.315945 220.123437 L 283.459383 220.123437 L 283.459383 123.090312 L 221.371570 123.090312" stroke="black" fill="none" stroke-width="1px"></path><path d="M 221.371570 10.000000 L 221.371570 56.150781 L 120.000633 56.150781 L 120.000633 43.353893 L 126.051258 43.353893 L 126.051258 15.742187 L 123.590320 15.742187 L 123.590320 12.460937 L 126.051258 12.460937 L 126.051258 10.767819 L 91.315945 10.767812 L 91.315945 21.648438 L 64.258762 21.648438 L 64.258762 10.597185 L 10.000000 10.597185 L 10.000000 113.090312 L 64.258758 113.090312 L 64.258758 79.267187 L 91.315945 79.267187 L 91.315945 107.033125 L 283.459383 107.033125 L 283.459383 10.000000 L 221.371570 10.000000" stroke="black" fill="none" stroke-width="1px"></path><path d="M 10.387195 156.559062 L 10.387195 154.590312 L 12.355945 154.590312 L 12.355945 156.559062 L 10.387195 156.559062" stroke="black" fill="white" stroke-width="1px"></path><path d="M 10.387195 43.468750 L 10.387195 41.500000 L 12.355945 41.500000 L 12.355945 43.468750 L 10.387195 43.468750" stroke="black" fill="white" stroke-width="1px"></path><path d="M 10.387195 188.059062 L 10.387195 186.090312 L 12.355945 186.090312 L 12.355945 188.059062 L 10.387195 188.059062" stroke="black" fill="white" stroke-width="1px"></path><path d="M 10.387195 74.968750 L 10.387195 73.000000 L 12.355945 73.000000 L 12.355945 74.968750 L 10.387195 74.968750" stroke="black" fill="white" stroke-width="1px"></path><path d="M 10.387195 219.559062 L 10.387195 217.590312 L 12.355945 217.590312 L 12.355945 219.559062 L 10.387195 219.559062" stroke="black" fill="white" stroke-width="1px"></path><path d="M 10.387195 106.468750 L 10.387195 104.500000 L 12.355945 104.500000 L 12.355945 106.468750 L 10.387195 106.468750" stroke="black" fill="white" stroke-width="1px"></path><path d="M 60.754383 128.340312 L 60.754383 125.387187 L 63.871570 125.387187 L 63.871570 128.340312 L 60.754383 128.340312" stroke="black" fill="white" stroke-width="1px"></path><path d="M 60.754383 15.250000 L 60.754383 12.296875 L 63.871570 12.296875 L 63.871570 15.250000 L 60.754383 15.250000" stroke="black" fill="white" stroke-width="1px"></path><path d="M 280.598133 219.230937 L 280.598133 217.262187 L 282.566883 217.262187 L 282.566883 219.230937 L 280.598133 219.230937" stroke="black" fill="white" stroke-width="1px"></path><path d="M 280.598133 106.140625 L 280.598133 104.171875 L 282.566883 104.171875 L 282.566883 106.140625 L 280.598133 106.140625" stroke="black" fill="white" stroke-width="1px"></path><path d="M 280.598133 188.059062 L 280.598133 186.090312 L 282.566883 186.090312 L 282.566883 188.059062 L 280.598133 188.059062" stroke="black" fill="white" stroke-width="1px"></path><path d="M 280.598133 74.968750 L 280.598133 73.000000 L 282.566883 73.000000 L 282.566883 74.968750 L 280.598133 74.968750" stroke="black" fill="white" stroke-width="1px"></path><path d="M 280.598133 156.559050 L 280.598133 154.590300 L 282.566883 154.590300 L 282.566883 156.559050 L 280.598133 156.559050" stroke="black" fill="white" stroke-width="1px"></path><path d="M 280.598133 43.468737 L 280.598133 41.499987 L 282.566883 41.499987 L 282.566883 43.468737 L 280.598133 43.468737" stroke="black" fill="white" stroke-width="1px"></path><path d="M 248.605945 127.355937 L 248.605945 123.418437 L 251.887195 123.418437 L 251.887195 127.355937 L 248.605945 127.355937" stroke="black" fill="white" stroke-width="1px"></path><path d="M 248.605945 14.265625 L 248.605945 10.328125 L 251.887195 10.328125 L 251.887195 14.265625 L 248.605945 14.265625" stroke="black" fill="white" stroke-width="1px"></path><path d="M 248.605945 157.871562 L 248.605945 153.934062 L 251.887195 153.934062 L 251.887195 157.871562 L 248.605945 157.871562" stroke="black" fill="white" stroke-width="1px"></path><path d="M 248.605945 44.781250 L 248.605945 40.843750 L 251.887195 40.843750 L 251.887195 44.781250 L 248.605945 44.781250" stroke="black" fill="white" stroke-width="1px"></path><path d="M 248.605945 189.043437 L 248.605945 185.105937 L 251.887195 185.105937 L 251.887195 189.043437 L 248.605945 189.043437" stroke="black" fill="white" stroke-width="1px"></path><path d="M 248.605945 75.953125 L 248.605945 72.015625 L 251.887195 72.015625 L 251.887195 75.953125 L 248.605945 75.953125" stroke="black" fill="white" stroke-width="1px"></path><path d="M 248.934070 219.230937 L 248.934070 216.277812 L 251.887195 216.277812 L 251.887195 219.230937 L 248.934070 219.230937" stroke="black" fill="white" stroke-width="1px"></path><path d="M 248.934070 106.140625 L 248.934070 103.187500 L 251.887195 103.187500 L 251.887195 106.140625 L 248.934070 106.140625" stroke="black" fill="white" stroke-width="1px"></path><path d="M 218.090320 189.043437 L 218.090320 185.105937 L 221.371570 185.105937 L 221.371570 189.043437 L 218.090320 189.043437" stroke="black" fill="white" stroke-width="1px"></path><path d="M 218.090320 75.953125 L 218.090320 72.015625 L 221.371570 72.015625 L 221.371570 75.953125 L 218.090320 75.953125" stroke="black" fill="white" stroke-width="1px"></path><path d="M 218.254383 219.230937 L 218.254383 216.277812 L 221.207508 216.277812 L 221.207508 219.230937 L 218.254383 219.230937" stroke="black" fill="white" stroke-width="1px"></path><path d="M 218.254383 106.140625 L 218.254383 103.187500 L 221.207508 103.187500 L 221.207508 106.140625 L 218.254383 106.140625" stroke="black" fill="white" stroke-width="1px"></path><path d="M 186.590320 189.043437 L 186.590320 185.105937 L 189.871570 185.105937 L 189.871570 189.043437 L 186.590320 189.043437" stroke="black" fill="white" stroke-width="1px"></path><path d="M 186.590320 75.953125 L 186.590320 72.015625 L 189.871570 72.015625 L 189.871570 75.953125 L 186.590320 75.953125" stroke="black" fill="white" stroke-width="1px"></path><path d="M 186.754383 219.230937 L 186.754383 216.277812 L 189.707508 216.277812 L 189.707508 219.230937 L 186.754383 219.230937" stroke="black" fill="white" stroke-width="1px"></path><path d="M 186.754383 106.140625 L 186.754383 103.187500 L 189.707508 103.187500 L 189.707508 106.140625 L 186.754383 106.140625" stroke="black" fill="white" stroke-width="1px"></path><path d="M 155.090320 189.043437 L 155.090320 185.105937 L 158.371570 185.105937 L 158.371570 189.043437 L 155.090320 189.043437" stroke="black" fill="white" stroke-width="1px"></path><path d="M 155.090320 75.953125 L 155.090320 72.015625 L 158.371570 72.015625 L 158.371570 75.953125 L 155.090320 75.953125" stroke="black" fill="white" stroke-width="1px"></path><path d="M 155.254383 219.230937 L 155.254383 216.277812 L 158.207508 216.277812 L 158.207508 219.230937 L 155.254383 219.230937" stroke="black" fill="white" stroke-width="1px"></path><path d="M 155.254383 106.140625 L 155.254383 103.187500 L 158.207508 103.187500 L 158.207508 106.140625 L 155.254383 106.140625" stroke="black" fill="white" stroke-width="1px"></path><path d="M 123.590320 189.043437 L 123.590320 185.105937 L 126.871570 185.105937 L 126.871570 189.043437 L 123.590320 189.043437" stroke="black" fill="white" stroke-width="1px"></path><path d="M 123.590320 75.953125 L 123.590320 72.015625 L 126.871570 72.015625 L 126.871570 75.953125 L 123.590320 75.953125" stroke="black" fill="white" stroke-width="1px"></path><path d="M 123.754383 219.230937 L 123.754383 216.277812 L 126.707508 216.277812 L 126.707508 219.230937 L 123.754383 219.230937" stroke="black" fill="white" stroke-width="1px"></path><path d="M 123.754383 106.140625 L 123.754383 103.187500 L 126.707508 103.187500 L 126.707508 106.140625 L 123.754383 106.140625" stroke="black" fill="white" stroke-width="1px"></path><path d="M 92.090320 157.543437 L 92.090320 153.605937 L 95.371570 153.605937 L 95.371570 157.543437 L 92.090320 157.543437" stroke="black" fill="white" stroke-width="1px"></path><path d="M 92.090320 44.453125 L 92.090320 40.515625 L 95.371570 40.515625 L 95.371570 44.453125 L 92.090320 44.453125" stroke="black" fill="white" stroke-width="1px"></path><path d="M 92.090320 189.043437 L 92.090320 185.105937 L 95.371570 185.105937 L 95.371570 189.043437 L 92.090320 189.043437" stroke="black" fill="white" stroke-width="1px"></path><path d="M 92.090320 75.953125 L 92.090320 72.015625 L 95.371570 72.015625 L 95.371570 75.953125 L 92.090320 75.953125" stroke="black" fill="white" stroke-width="1px"></path><path d="M 92.090320 128.504375 L 92.090320 125.551250 L 95.207508 125.551250 L 95.207508 128.504375 L 92.090320 128.504375" stroke="black" fill="white" stroke-width="1px"></path><path d="M 92.090320 15.414062 L 92.090320 12.460937 L 95.207508 12.460937 L 95.207508 15.414062 L 92.090320 15.414062" stroke="black" fill="white" stroke-width="1px"></path><path d="M 60.590320 157.215312 L 60.590320 153.934062 L 63.871570 153.934062 L 63.871570 157.215312 L 60.590320 157.215312" stroke="black" fill="white" stroke-width="1px"></path><path d="M 60.590320 44.125000 L 60.590320 40.843750 L 63.871570 40.843750 L 63.871570 44.125000 L 60.590320 44.125000" stroke="black" fill="white" stroke-width="1px"></path><path d="M 60.754383 219.230937 L 60.754383 216.277812 L 63.871570 216.277812 L 63.871570 219.230937 L 60.754383 219.230937" stroke="black" fill="white" stroke-width="1px"></path><path d="M 60.754383 106.140625 L 60.754383 103.187500 L 63.871570 103.187500 L 63.871570 106.140625 L 60.754383 106.140625" stroke="black" fill="white" stroke-width="1px"></path><path d="M 30.074695 128.504375 L 30.074695 125.223125 L 33.027820 125.223125 L 33.027820 128.504375 L 30.074695 128.504375" stroke="black" fill="white" stroke-width="1px"></path><path d="M 30.074695 15.414062 L 30.074695 12.132812 L 33.027820 12.132812 L 33.027820 15.414062 L 30.074695 15.414062" stroke="black" fill="white" stroke-width="1px"></path><path d="M 30.074695 157.215312 L 30.074695 153.934062 L 33.355945 153.934062 L 33.355945 157.215312 L 30.074695 157.215312" stroke="black" fill="white" stroke-width="1px"></path><path d="M 30.074695 44.125000 L 30.074695 40.843750 L 33.355945 40.843750 L 33.355945 44.125000 L 30.074695 44.125000" stroke="black" fill="white" stroke-width="1px"></path><path d="M 30.074695 188.715312 L 30.074695 185.434062 L 33.355945 185.434062 L 33.355945 188.715312 L 30.074695 188.715312" stroke="black" fill="white" stroke-width="1px"></path><path d="M 30.074695 75.625000 L 30.074695 72.343750 L 33.355945 72.343750 L 33.355945 75.625000 L 30.074695 75.625000" stroke="black" fill="white" stroke-width="1px"></path><path d="M 30.074695 219.230937 L 30.074695 216.277812 L 33.027820 216.277812 L 33.027820 219.230937 L 30.074695 219.230937" stroke="black" fill="white" stroke-width="1px"></path><path d="M 30.074695 106.140625 L 30.074695 103.187500 L 33.027820 103.187500 L 33.027820 106.140625 L 30.074695 106.140625" stroke="black" fill="white" stroke-width="1px"></path><path d="M 10.387195 127.191875 L 10.387195 125.223125 L 12.355945 125.223125 L 12.355945 127.191875 L 10.387195 127.191875" stroke="black" fill="white" stroke-width="1px"></path><path d="M 10.387195 14.101562 L 10.387195 12.132812 L 12.355945 12.132812 L 12.355945 14.101562 L 10.387195 14.101562" stroke="black" fill="white" stroke-width="1px"></path><path d="M 60.590320 189.863750 L 60.590320 185.434062 L 63.871570 185.434062 L 63.871570 188.715312 L 62.230945 188.715312 L 62.230945 189.863750 L 60.590320 189.863750" stroke="black" fill="white" stroke-width="1px"></path><path d="M 60.590320 76.773437 L 60.590320 72.343750 L 63.871570 72.343750 L 63.871570 75.625000 L 62.230945 75.625000 L 62.230945 76.773437 L 60.590320 76.773437" stroke="black" fill="white" stroke-width="1px"></path></g></svg>