<svg width="293.459383" height="236.180625" xmlns="http://www.w3.org/2000/svg" xmlns:xlink="http://www.w3.org/1999/xlink" version="1.1"><g id="crv-background"><path d="M 221.371570 123.090312 L 221.371570 169.241094 L 120.000633 169.241094 L 120.000633 156.444206 L 126.051258 156.444206 L 126.051258 123.858132 L 91.315945 123.858125 L 91.315945 134.738750 L 64.258762 134.738750 L 64.258762 123.687497 L 10.000000 123.687497 L 10.000000 226.180625 L 64.258758 226.180625 L 64.258758 192.357500 L 91.315945 192.357500 L 91.315945 220.123437 L 283.459383 220.123437 L 283.459383 123.090312 L 221.371570 123.090312" stroke="none" fill="white" stroke-width="1px"></path><path d="M 221.371570 10.000000 L 221.371570 56.150781 L 120.000633 56.150781 L 120.000633 43.353893 L 126.051258 43.353893 L 126.051258 10.767819 L 91.315945 10.767812 L 91.315945 21.648438 L 64.258762 21.648438 L 64.258762 10.597185 L 10.000000 10.597185 L 10.000000 113.090312 L 64.258758 113.090312 L 64.258758 79.267187 L 91.315945 79.267187 L 91.315945 107.033125 L 283.459383 107.033125 L 283.459383 10.000000 L 221.371570 10.000000" stroke="none" fill="white" stroke-width="1px"></path></g><g id="crv-nbhd"><path d="M 221.737654 10.000004 L 221.737654 28.833249 L 221.737654 47.666495 L 232.896794 53.693980 L 244.055935 59.721465 L 263.757659 46.391268 L 283.459383 33.061072 L 283.459383 21.530536 L 283.459382 10.000000 L 252.598518 10.000002 L 221.737654 10.000004" stroke="#DD2222" fill="none" stroke-width="1px"></path><path d="M 283.459383 107.033125 L 283.459383 70.047098 L 283.459383 33.061072 L 263.757659 46.391268 L 244.055935 59.721465 L 241.082203 83.377295 L 238.108471 107.033125 L 260.783922 107.033125 L 283.459383 107.033125" stroke="#DD2222" fill="none" stroke-width="1px"></path><path d="M 221.737654 47.666495 L 221.737654 79.151330 L 189.596135 79.151330 L 214.926788 107.033125 L 238.108471 107.033125 L 244.055935 59.721465 L 221.737654 47.666495" stroke="#DD2222" fill="none" stroke-width="1px"></path><path d="M 189.596135 79.151330 L 188.209868 79.151330 L 186.823600 79.151330 L 176.377039 93.092227 L 165.930477 107.033125 L 190.428632 107.033125 L 214.926788 107.033125 L 202.261462 93.092227 L 189.596135 79.151330" stroke="#DD2222" fill="none" stroke-width="1px"></path><path d="M 186.823600 79.151330 L 151.188395 79.151329 L 151.705052 107.033125 L 165.930477 107.033125 L 186.823600 79.151330" stroke="#DD2222" fill="none" stroke-width="1px"></path><path d="M 151.188395 79.151329 L 121.252170 79.151328 L 91.315945 79.151327 L 91.315945 93.092226 L 91.315945 107.033125 L 121.510499 107.033125 L 151.705052 107.033125 L 151.446724 93.092227 L 151.188395 79.151329" stroke="#DD2222" fill="none" stroke-width="1px"></path><path d="M 64.258758 113.090312 L 64.258758 97.902259 L 64.258758 82.714205 L 37.129379 74.525323 L 10.000000 66.336441 L 10.000000 89.713377 L 10.000000 113.090312 L 37.129379 113.090312 L 64.258758 113.090312" stroke="#DD2222" fill="none" stroke-width="1px"></path><path d="M 64.258758 56.150781 L 64.258758 33.373983 L 64.258758 10.597185 L 37.129372 10.597185 L 10.000000 10.597184 L 10.000000 38.466812 L 10.000000 66.336441 L 37.129379 74.525323 L 64.258758 82.714205 L 64.258758 69.432493 L 64.258758 56.150781" stroke="#DD2222" fill="none" stroke-width="1px"></path><path d="M 10.000000 123.687497 L 10.000000 161.714042 L 10.000000 199.740587 L 37.129379 189.722728 L 64.258758 179.704869 L 64.258758 174.472981 L 64.258758 169.241094 L 64.258758 146.464296 L 64.258758 123.687497 L 37.129489 123.687497 L 10.000000 123.687497" stroke="#DD2222" fill="none" stroke-width="1px"></path><path d="M 10.000000 226.180625 L 37.129379 226.180625 L 64.258758 226.180625 L 64.258758 202.942741 L 64.258758 179.704869 L 37.129379 189.722728 L 10.000000 199.740587 L 10.000000 212.960606 L 10.000000 226.180625" stroke="#DD2222" fill="none" stroke-width="1px"></path><path d="M 129.404347 192.043444 L 110.360146 192.043444 L 91.315945 192.043444 L 91.315945 206.083441 L 91.315945 220.123437 L 110.140735 220.123437 L 128.965525 220.123437 L 129.184936 206.083444 L 129.404347 192.043444" stroke="#DD2222" fill="none" stroke-width="1px"></path><path d="M 176.118616 192.043444 L 152.761482 192.043444 L 129.404347 192.043444 L 129.184936 206.083441 L 128.965525 220.123437 L 152.606559 220.123437 L 176.247593 220.123437 L 176.183105 206.083441 L 176.118616 192.043444" stroke="#DD2222" fill="none" stroke-width="1px"></path><path d="M 233.999780 192.043444 L 205.059198 192.043444 L 176.118616 192.043444 L 176.183105 206.083441 L 176.247593 220.123437 L 206.988592 220.123437 L 237.729591 220.123437 L 235.864686 206.083444 L 233.999780 192.043444" stroke="#DD2222" fill="none" stroke-width="1px"></path><path d="M 237.729591 220.123437 L 260.594487 220.123437 L 283.459383 220.123437 L 283.459383 199.715562 L 283.459383 179.307686 L 261.598517 179.158420 L 239.737652 179.009153 L 239.737652 185.526299 L 239.737652 192.043444 L 236.868716 192.043444 L 233.999780 192.043444 L 235.864685 206.083441 L 237.729591 220.123437" stroke="#DD2222" fill="none" stroke-width="1px"></path><path d="M 239.737652 123.090312 L 239.737652 151.049733 L 239.737652 179.009153 L 261.598517 179.158420 L 283.459383 179.307686 L 283.459383 151.198999 L 283.459383 123.090312 L 261.598517 123.090312 L 239.737652 123.090312" stroke="#DD2222" fill="none" stroke-width="1px"></path></g><g id="crv-amen"><path d="M 62.613215 170.015505 L 62.613215 149.425279 L 62.613215 128.835054 L 56.031050 128.835054 L 49.448868 128.835054 L 49.448868 149.425279 L 49.448868 170.015505 L 56.031041 170.015505 L 62.613215 170.015505" stroke="none" fill="#2288CC" stroke-width="1px"></path><path d="M 58.832882 197.495774 L 58.832882 190.479177 L 58.832882 183.462589 L 37.129379 191.476876 L 15.425876 199.491163 L 15.425876 206.507756 L 15.425876 213.524348 L 37.129379 205.510061 L 58.832882 197.495774" stroke="none" fill="#2288CC" stroke-width="1px"></path><path d="M 106.125835 194.851444 L 99.543662 194.851444 L 92.961489 194.851444 L 92.961489 206.083441 L 92.961489 217.315438 L 99.543662 217.315438 L 106.125835 217.315438 L 106.125835 206.083441 L 106.125835 194.851444" stroke="none" fill="#2288CC" stroke-width="1px"></path><path d="M 144.172162 194.851444 L 137.589186 194.851444 L 131.006209 194.851444 L 130.830680 206.083441 L 130.655152 217.315438 L 137.238128 217.315438 L 143.821105 217.315438 L 143.996634 206.083441 L 144.172162 194.851444" stroke="none" fill="#2288CC" stroke-width="1px"></path><path d="M 190.941559 194.851444 L 184.359317 194.851444 L 177.777074 194.851444 L 177.828665 206.083441 L 177.880256 217.315438 L 184.462499 217.315438 L 191.044741 217.315438 L 190.993150 206.083441 L 190.941559 194.851444" stroke="none" fill="#2288CC" stroke-width="1px"></path><path d="M 240.644869 190.924154 L 240.644869 192.714936 L 240.644869 194.505717 L 238.349720 194.505717 L 236.054571 194.505717 L 237.546496 205.737715 L 239.038420 216.969712 L 245.678405 216.969712 L 252.318389 216.969712 L 250.517395 203.410870 L 248.716400 189.852028 L 244.680635 190.388091 L 240.644869 190.924154" stroke="none" fill="#2288CC" stroke-width="1px"></path><path d="M 244.109825 164.228772 L 244.109825 170.811098 L 244.109825 177.393425 L 261.598517 177.512838 L 279.087210 177.632251 L 279.087210 171.049925 L 279.087210 164.467599 L 261.598517 164.348185 L 244.109825 164.228772" stroke="none" fill="#2288CC" stroke-width="1px"></path><path d="M 224.773373 41.828284 L 224.773373 44.603758 L 224.773373 47.379232 L 233.700686 52.201220 L 242.627999 57.023208 L 244.990556 55.424700 L 247.353113 53.826193 L 249.279241 50.260205 L 251.205369 46.694218 L 239.956955 40.618513 L 228.708541 34.542808 L 226.740957 38.185546 L 224.773373 41.828284" stroke="none" fill="#2288CC" stroke-width="1px"></path><path d="M 251.417227 59.853189 L 248.302361 61.960709 L 245.187496 64.068228 L 242.808510 82.992892 L 240.429525 101.917556 L 247.063501 101.917556 L 253.697478 101.917556 L 256.282529 81.353658 L 258.867580 60.789760 L 255.142403 60.321474 L 251.417227 59.853189" stroke="none" fill="#2288CC" stroke-width="1px"></path><path d="M 236.469247 58.758121 L 223.304901 51.647547 L 223.304901 80.109838 L 236.469247 80.109838 L 236.469247 58.758121" stroke="none" fill="#2288CC" stroke-width="1px"></path><path d="M 193.005279 104.697938 L 201.898219 104.697938 L 210.791158 104.697938 L 200.658897 93.545220 L 190.526636 82.392502 L 189.417622 82.392502 L 188.308608 82.392502 L 184.790278 87.087701 L 181.271947 91.782900 L 187.138613 98.240419 L 193.005279 104.697938" stroke="none" fill="#2288CC" stroke-width="1px"></path><path d="M 166.041484 81.921025 L 152.874878 81.921024 L 153.288204 104.226461 L 164.668544 104.226461 L 166.411704 101.900220 L 166.041484 81.921025" stroke="none" fill="#2288CC" stroke-width="1px"></path><path d="M 106.125835 81.939507 L 99.543662 81.939507 L 92.961489 81.939507 L 92.961489 93.092226 L 92.961489 104.244945 L 99.543662 104.244945 L 106.125835 104.244945 L 106.125835 93.092226 L 106.125835 81.939507" stroke="none" fill="#2288CC" stroke-width="1px"></path><path d="M 58.832882 96.546283 L 58.832882 89.670792 L 58.832882 82.795301 L 37.129379 76.244195 L 15.425876 69.693090 L 15.425876 76.568581 L 15.425876 83.444072 L 37.129379 89.995177 L 58.832882 96.546283" stroke="none" fill="#2288CC" stroke-width="1px"></path><path d="M 58.832882 25.407074 L 58.832882 18.824901 L 58.832882 12.242728 L 37.129379 12.242728 L 15.425876 12.242727 L 15.425876 18.824900 L 15.425876 25.407073 L 37.129379 25.407074 L 58.832882 25.407074" stroke="none" fill="#2288CC" stroke-width="1px"></path></g><g id="crv-desk"><path d="M 55.459383 220.180625 L 52.959383 220.180625 L 52.959383 226.180625 L 55.459383 226.180625 L 55.459383 220.180625" stroke="gray" fill="white" stroke-width="1px"></path><path d="M 55.459383 214.180625 L 52.959383 214.180625 L 52.959383 220.180625 L 55.459383 220.180625 L 55.459383 214.180625" stroke="gray" fill="white" stroke-width="1px"></path><path d="M 55.459383 208.180625 L 52.959383 208.180625 L 52.959383 214.180625 L 55.459383 214.180625 L 55.459383 208.180625" stroke="gray" fill="white" stroke-width="1px"></path><path d="M 43.459383 220.180625 L 40.959383 220.180625 L 40.959383 226.180625 L 43.459383 226.180625 L 43.459383 220.180625" stroke="gray" fill="white" stroke-width="1px"></path><path d="M 43.459383 214.180625 L 40.959383 214.180625 L 40.959383 220.180625 L 43.459383 220.180625 L 43.459383 214.180625" stroke="gray" fill="white" stroke-width="1px"></path><path d="M 31.459383 220.180625 L 28.959383 220.180625 L 28.959383 226.180625 L 31.459383 226.180625 L 31.459383 220.180625" stroke="gray" fill="white" stroke-width="1px"></path><path d="M 31.459383 214.180625 L 28.959383 214.180625 L 28.959383 220.180625 L 31.459383 220.180625 L 31.459383 214.180625" stroke="gray" fill="white" stroke-width="1px"></path><path d="M 19.459383 220.180625 L 16.959383 220.180625 L 16.959383 226.180625 L 19.459383 226.180625 L 19.459383 220.180625" stroke="gray" fill="white" stroke-width="1px"></path><path d="M 115.459383 214.123437 L 112.959383 214.123437 L 112.959383 220.123437 L 115.459383 220.123437 L 115.459383 214.123437" stroke="gray" fill="white" stroke-width="1px"></path><path d="M 115.459383 208.123437 L 112.959383 208.123437 L 112.959383 214.123437 L 115.459383 214.123437 L 115.459383 208.123437" stroke="gray" fill="white" stroke-width="1px"></path><path d="M 115.459383 202.123437 L 112.959383 202.123437 L 112.959383 208.123437 L 115.459383 208.123437 L 115.459383 202.123437" stroke="gray" fill="white" stroke-width="1px"></path><path d="M 115.459383 196.123437 L 112.959383 196.123437 L 112.959383 202.123437 L 115.459383 202.123437 L 115.459383 196.123437" stroke="gray" fill="white" stroke-width="1px"></path><path d="M 163.459383 214.123437 L 160.959383 214.123437 L 160.959383 220.123437 L 163.459383 220.123437 L 163.459383 214.123437" stroke="gray" fill="white" stroke-width="1px"></path><path d="M 163.459383 208.123437 L 160.959383 208.123437 L 160.959383 214.123437 L 163.459383 214.123437 L 163.459383 208.123437" stroke="gray" fill="white" stroke-width="1px"></path><path d="M 163.459383 202.123437 L 160.959383 202.123437 L 160.959383 208.123437 L 163.459383 208.123437 L 163.459383 202.123437" stroke="gray" fill="white" stroke-width="1px"></path><path d="M 163.459383 196.123437 L 160.959383 196.123437 L 160.959383 202.123437 L 163.459383 202.123437 L 163.459383 196.123437" stroke="gray" fill="white" stroke-width="1px"></path><path d="M 151.459383 214.123437 L 148.959383 214.123437 L 148.959383 220.123437 L 151.459383 220.123437 L 151.459383 214.123437" stroke="gray" fill="white" stroke-width="1px"></path><path d="M 151.459383 208.123437 L 148.959383 208.123437 L 148.959383 214.123437 L 151.459383 214.123437 L 151.459383 208.123437" stroke="gray" fill="white" stroke-width="1px"></path><path d="M 151.459383 202.123437 L 148.959383 202.123437 L 148.959383 208.123437 L 151.459383 208.123437 L 151.459383 202.123437" stroke="gray" fill="white" stroke-width="1px"></path><path d="M 151.459383 196.123437 L 148.959383 196.123437 L 148.959383 202.123437 L 151.459383 202.123437 L 151.459383 196.123437" stroke="gray" fill="white" stroke-width="1px"></path><path d="M 223.459383 214.123437 L 220.959383 214.123437 L 220.959383 220.123437 L 223.459383 220.123437 L 223.459383 214.123437" stroke="gray" fill="white" stroke-width="1px"></path><path d="M 223.459383 208.123437 L 220.959383 208.123437 L 220.959383 214.123437 L 223.459383 214.123437 L 223.459383 208.123437" stroke="gray" fill="white" stroke-width="1px"></path><path d="M 223.459383 202.123437 L 220.959383 202.123437 L 220.959383 208.123437 L 223.459383 208.123437 L 223.459383 202.123437" stroke="gray" fill="white" stroke-width="1px"></path><path d="M 223.459383 196.123437 L 220.959383 196.123437 L 220.959383 202.123437 L 223.459383 202.123437 L 223.459383 196.123437" stroke="gray" fill="white" stroke-width="1px"></path><path d="M 211.459383 214.123437 L 208.959383 214.123437 L 208.959383 220.123437 L 211.459383 220.123437 L 211.459383 214.123437" stroke="gray" fill="white" stroke-width="1px"></path><path d="M 211.459383 208.123437 L 208.959383 208.123437 L 208.959383 214.123437 L 211.459383 214.123437 L 211.459383 208.123437" stroke="gray" fill="white" stroke-width="1px"></path><path d="M 211.459383 202.123437 L 208.959383 202.123437 L 208.959383 208.123437 L 211.459383 208.123437 L 211.459383 202.123437" stroke="gray" fill="white" stroke-width="1px"></path><path d="M 211.459383 196.123437 L 208.959383 196.123437 L 208.959383 202.123437 L 211.459383 202.123437 L 211.459383 196.123437" stroke="gray" fill="white" stroke-width="1px"></path><path d="M 199.459383 214.123437 L 196.959383 214.123437 L 196.959383 220.123437 L 199.459383 220.123437 L 199.459383 214.123437" stroke="gray" fill="white" stroke-width="1px"></path><path d="M 199.459383 208.123437 L 196.959383 208.123437 L 196.959383 214.123437 L 199.459383 214.123437 L 199.459383 208.123437" stroke="gray" fill="white" stroke-width="1px"></path><path d="M 199.459383 202.123437 L 196.959383 202.123437 L 196.959383 208.123437 L 199.459383 208.123437 L 199.459383 202.123437" stroke="gray" fill="white" stroke-width="1px"></path><path d="M 199.459383 196.123437 L 196.959383 196.123437 L 196.959383 202.123437 L 199.459383 202.123437 L 199.459383 196.123437" stroke="gray" fill="white" stroke-width="1px"></path><path d="M 271.459383 214.123437 L 268.959383 214.123437 L 268.959383 220.123437 L 271.459383 220.123437 L 271.459383 214.123437" stroke="gray" fill="white" stroke-width="1px"></path><path d="M 271.459383 208.123437 L 268.959383 208.123437 L 268.959383 214.123437 L 271.459383 214.123437 L 271.459383 208.123437" stroke="gray" fill="white" stroke-width="1px"></path><path d="M 271.459383 202.123437 L 268.959383 202.123437 L 268.959383 208.123437 L 271.459383 208.123437 L 271.459383 202.123437" stroke="gray" fill="white" stroke-width="1px"></path><path d="M 271.459383 196.123437 L 268.959383 196.123437 L 268.959383 202.123437 L 271.459383 202.123437 L 271.459383 196.123437" stroke="gray" fill="white" stroke-width="1px"></path><path d="M 271.459383 190.123437 L 268.959383 190.123437 L 268.959383 196.123437 L 271.459383 196.123437 L 271.459383 190.123437" stroke="gray" fill="white" stroke-width="1px"></path><path d="M 271.459383 184.123437 L 268.959383 184.123437 L 268.959383 190.123437 L 271.459383 190.123437 L 271.459383 184.123437" stroke="gray" fill="white" stroke-width="1px"></path><path d="M 259.459383 214.123437 L 256.959383 214.123437 L 256.959383 220.123437 L 259.459383 220.123437 L 259.459383 214.123437" stroke="gray" fill="white" stroke-width="1px"></path><path d="M 259.459383 208.123437 L 256.959383 208.123437 L 256.959383 214.123437 L 259.459383 214.123437 L 259.459383 208.123437" stroke="gray" fill="white" stroke-width="1px"></path><path d="M 259.459383 202.123437 L 256.959383 202.123437 L 256.959383 208.123437 L 259.459383 208.123437 L 259.459383 202.123437" stroke="gray" fill="white" stroke-width="1px"></path><path d="M 259.459383 196.123437 L 256.959383 196.123437 L 256.959383 202.123437 L 259.459383 202.123437 L 259.459383 196.123437" stroke="gray" fill="white" stroke-width="1px"></path><path d="M 259.459383 190.123437 L 256.959383 190.123437 L 256.959383 196.123437 L 259.459383 196.123437 L 259.459383 190.123437" stroke="gray" fill="white" stroke-width="1px"></path><path d="M 259.459383 184.123437 L 256.959383 184.123437 L 256.959383 190.123437 L 259.459383 190.123437 L 259.459383 184.123437" stroke="gray" fill="white" stroke-width="1px"></path><path d="M 247.459383 184.018995 L 244.959383 184.018995 L 244.959383 190.018995 L 247.459383 190.018995 L 247.459383 184.018995" stroke="gray" fill="white" stroke-width="1px"></path><path d="M 55.459383 220.180625 L 57.959383 220.180625 L 57.959383 226.180625 L 55.459383 226.180625 L 55.459383 220.180625" stroke="gray" fill="white" stroke-width="1px"></path><path d="M 55.459383 214.180625 L 57.959383 214.180625 L 57.959383 220.180625 L 55.459383 220.180625 L 55.459383 214.180625" stroke="gray" fill="white" stroke-width="1px"></path><path d="M 55.459383 208.180625 L 57.959383 208.180625 L 57.959383 214.180625 L 55.459383 214.180625 L 55.459383 208.180625" stroke="gray" fill="white" stroke-width="1px"></path><path d="M 43.459383 220.180625 L 45.959383 220.180625 L 45.959383 226.180625 L 43.459383 226.180625 L 43.459383 220.180625" stroke="gray" fill="white" stroke-width="1px"></path><path d="M 43.459383 214.180625 L 45.959383 214.180625 L 45.959383 220.180625 L 43.459383 220.180625 L 43.459383 214.180625" stroke="gray" fill="white" stroke-width="1px"></path><path d="M 31.459383 220.180625 L 33.959383 220.180625 L 33.959383 226.180625 L 31.459383 226.180625 L 31.459383 220.180625" stroke="gray" fill="white" stroke-width="1px"></path><path d="M 31.459383 214.180625 L 33.959383 214.180625 L 33.959383 220.180625 L 31.459383 220.180625 L 31.459383 214.180625" stroke="gray" fill="white" stroke-width="1px"></path><path d="M 19.459383 220.180625 L 21.959383 220.180625 L 21.959383 226.180625 L 19.459383 226.180625 L 19.459383 220.180625" stroke="gray" fill="white" stroke-width="1px"></path><path d="M 115.459383 214.123437 L 117.959383 214.123437 L 117.959383 220.123437 L 115.459383 220.123437 L 115.459383 214.123437" stroke="gray" fill="white" stroke-width="1px"></path><path d="M 115.459383 208.123437 L 117.959383 208.123437 L 117.959383 214.123437 L 115.459383 214.123437 L 115.459383 208.123437" stroke="gray" fill="white" stroke-width="1px"></path><path d="M 115.459383 202.123437 L 117.959383 202.123437 L 117.959383 208.123437 L 115.459383 208.123437 L 115.459383 202.123437" stroke="gray" fill="white" stroke-width="1px"></path><path d="M 115.459383 196.123437 L 117.959383 196.123437 L 117.959383 202.123437 L 115.459383 202.123437 L 115.459383 196.123437" stroke="gray" fill="white" stroke-width="1px"></path><path d="M 163.459383 214.123437 L 165.959383 214.123437 L 165.959383 220.123437 L 163.459383 220.123437 L 163.459383 214.123437" stroke="gray" fill="white" stroke-width="1px"></path><path d="M 163.459383 208.123437 L 165.959383 208.123437 L 165.959383 214.123437 L 163.459383 214.123437 L 163.459383 208.123437" stroke="gray" fill="white" stroke-width="1px"></path><path d="M 163.459383 202.123437 L 165.959383 202.123437 L 165.959383 208.123437 L 163.459383 208.123437 L 163.459383 202.123437" stroke="gray" fill="white" stroke-width="1px"></path><path d="M 163.459383 196.123437 L 165.959383 196.123437 L 165.959383 202.123437 L 163.459383 202.123437 L 163.459383 196.123437" stroke="gray" fill="white" stroke-width="1px"></path><path d="M 151.459383 214.123437 L 153.959383 214.123437 L 153.959383 220.123437 L 151.459383 220.123437 L 151.459383 214.123437" stroke="gray" fill="white" stroke-width="1px"></path><path d="M 151.459383 208.123437 L 153.959383 208.123437 L 153.959383 214.123437 L 151.459383 214.123437 L 151.459383 208.123437" stroke="gray" fill="white" stroke-width="1px"></path><path d="M 151.459383 202.123437 L 153.959383 202.123437 L 153.959383 208.123437 L 151.459383 208.123437 L 151.459383 202.123437" stroke="gray" fill="white" stroke-width="1px"></path><path d="M 151.459383 196.123437 L 153.959383 196.123437 L 153.959383 202.123437 L 151.459383 202.123437 L 151.459383 196.123437" stroke="gray" fill="white" stroke-width="1px"></path><path d="M 223.459383 214.123437 L 225.959383 214.123437 L 225.959383 220.123437 L 223.459383 220.123437 L 223.459383 214.123437" stroke="gray" fill="white" stroke-width="1px"></path><path d="M 223.459383 208.123437 L 225.959383 208.123437 L 225.959383 214.123437 L 223.459383 214.123437 L 223.459383 208.123437" stroke="gray" fill="white" stroke-width="1px"></path><path d="M 223.459383 202.123437 L 225.959383 202.123437 L 225.959383 208.123437 L 223.459383 208.123437 L 223.459383 202.123437" stroke="gray" fill="white" stroke-width="1px"></path><path d="M 223.459383 196.123437 L 225.959383 196.123437 L 225.959383 202.123437 L 223.459383 202.123437 L 223.459383 196.123437" stroke="gray" fill="white" stroke-width="1px"></path><path d="M 211.459383 214.123437 L 213.959383 214.123437 L 213.959383 220.123437 L 211.459383 220.123437 L 211.459383 214.123437" stroke="gray" fill="white" stroke-width="1px"></path><path d="M 211.459383 208.123437 L 213.959383 208.123437 L 213.959383 214.123437 L 211.459383 214.123437 L 211.459383 208.123437" stroke="gray" fill="white" stroke-width="1px"></path><path d="M 211.459383 202.123437 L 213.959383 202.123437 L 213.959383 208.123437 L 211.459383 208.123437 L 211.459383 202.123437" stroke="gray" fill="white" stroke-width="1px"></path><path d="M 211.459383 196.123437 L 213.959383 196.123437 L 213.959383 202.123437 L 211.459383 202.123437 L 211.459383 196.123437" stroke="gray" fill="white" stroke-width="1px"></path><path d="M 199.459383 214.123437 L 201.959383 214.123437 L 201.959383 220.123437 L 199.459383 220.123437 L 199.459383 214.123437" stroke="gray" fill="white" stroke-width="1px"></path><path d="M 199.459383 208.123437 L 201.959383 208.123437 L 201.959383 214.123437 L 199.459383 214.123437 L 199.459383 208.123437" stroke="gray" fill="white" stroke-width="1px"></path><path d="M 199.459383 202.123437 L 201.959383 202.123437 L 201.959383 208.123437 L 199.459383 208.123437 L 199.459383 202.123437" stroke="gray" fill="white" stroke-width="1px"></path><path d="M 199.459383 196.123437 L 201.959383 196.123437 L 201.959383 202.123437 L 199.459383 202.123437 L 199.459383 196.123437" stroke="gray" fill="white" stroke-width="1px"></path><path d="M 271.459383 214.123437 L 273.959383 214.123437 L 273.959383 220.123437 L 271.459383 220.123437 L 271.459383 214.123437" stroke="gray" fill="white" stroke-width="1px"></path><path d="M 271.459383 208.123437 L 273.959383 208.123437 L 273.959383 214.123437 L 271.459383 214.123437 L 271.459383 208.123437" stroke="gray" fill="white" stroke-width="1px"></path><path d="M 271.459383 202.123437 L 273.959383 202.123437 L 273.959383 208.123437 L 271.459383 208.123437 L 271.459383 202.123437" stroke="gray" fill="white" stroke-width="1px"></path><path d="M 271.459383 196.123437 L 273.959383 196.123437 L 273.959383 202.123437 L 271.459383 202.123437 L 271.459383 196.123437" stroke="gray" fill="white" stroke-width="1px"></path><path d="M 271.459383 190.123437 L 273.959383 190.123437 L 273.959383 196.123437 L 271.459383 196.123437 L 271.459383 190.123437" stroke="gray" fill="white" stroke-width="1px"></path><path d="M 271.459383 184.123437 L 273.959383 184.123437 L 273.959383 190.123437 L 271.459383 190.123437 L 271.459383 184.123437" stroke="gray" fill="white" stroke-width="1px"></path><path d="M 259.459383 214.123437 L 261.959383 214.123437 L 261.959383 220.123437 L 259.459383 220.123437 L 259.459383 214.123437" stroke="gray" fill="white" stroke-width="1px"></path><path d="M 259.459383 208.123437 L 261.959383 208.123437 L 261.959383 214.123437 L 259.459383 214.123437 L 259.459383 208.123437" stroke="gray" fill="white" stroke-width="1px"></path><path d="M 259.459383 202.123437 L 261.959383 202.123437 L 261.959383 208.123437 L 259.459383 208.123437 L 259.459383 202.123437" stroke="gray" fill="white" stroke-width="1px"></path><path d="M 259.459383 196.123437 L 261.959383 196.123437 L 261.959383 202.123437 L 259.459383 202.123437 L 259.459383 196.123437" stroke="gray" fill="white" stroke-width="1px"></path><path d="M 259.459383 190.123437 L 261.959383 190.123437 L 261.959383 196.123437 L 259.459383 196.123437 L 259.459383 190.123437" stroke="gray" fill="white" stroke-width="1px"></path><path d="M 259.459383 184.123437 L 261.959383 184.123437 L 261.959383 190.123437 L 259.459383 190.123437 L 259.459383 184.123437" stroke="gray" fill="white" stroke-width="1px"></path><path d="M 247.459383 184.018995 L 249.959383 184.018995 L 249.959383 190.018995 L 247.459383 190.018995 L 247.459383 184.018995" stroke="gray" fill="white" stroke-width="1px"></path><path d="M 22.000000 184.123437 L 22.000000 181.623437 L 16.000000 181.623437 L 16.000000 184.123437 L 22.000000 184.123437" stroke="gray" fill="white" stroke-width="1px"></path><path d="M 28.000000 184.123437 L 28.000000 181.623437 L 22.000000 181.623437 L 22.000000 184.123437 L 28.000000 184.123437" stroke="gray" fill="white" stroke-width="1px"></path><path d="M 34.000000 184.123437 L 34.000000 181.623437 L 28.000000 181.623437 L 28.000000 184.123437 L 34.000000 184.123437" stroke="gray" fill="white" stroke-width="1px"></path><path d="M 22.000000 172.123437 L 22.000000 169.623437 L 16.000000 169.623437 L 16.000000 172.123437 L 22.000000 172.123437" stroke="gray" fill="white" stroke-width="1px"></path><path d="M 28.000000 172.123437 L 28.000000 169.623437 L 22.000000 169.623437 L 22.000000 172.123437 L 28.000000 172.123437" stroke="gray" fill="white" stroke-width="1px"></path><path d="M 34.000000 172.123437 L 34.000000 169.623437 L 28.000000 169.623437 L 28.000000 172.123437 L 34.000000 172.123437" stroke="gray" fill="white" stroke-width="1px"></path><path d="M 40.000000 172.123437 L 40.000000 169.623437 L 34.000000 169.623437 L 34.000000 172.123437 L 40.000000 172.123437" stroke="gray" fill="white" stroke-width="1px"></path><path d="M 22.000000 160.123437 L 22.000000 157.623437 L 16.000000 157.623437 L 16.000000 160.123437 L 22.000000 160.123437" stroke="gray" fill="white" stroke-width="1px"></path><path d="M 28.000000 160.123437 L 28.000000 157.623437 L 22.000000 157.623437 L 22.000000 160.123437 L 28.000000 160.123437" stroke="gray" fill="white" stroke-width="1px"></path><path d="M 34.000000 160.123437 L 34.000000 157.623437 L 28.000000 157.623437 L 28.000000 160.123437 L 34.000000 160.123437" stroke="gray" fill="white" stroke-width="1px"></path><path d="M 40.000000 160.123437 L 40.000000 157.623437 L 34.000000 157.623437 L 34.000000 160.123437 L 40.000000 160.123437" stroke="gray" fill="white" stroke-width="1px"></path><path d="M 22.000000 148.123437 L 22.000000 145.623437 L 16.000000 145.623437 L 16.000000 148.123437 L 22.000000 148.123437" stroke="gray" fill="white" stroke-width="1px"></path><path d="M 28.000000 148.123437 L 28.000000 145.623437 L 22.000000 145.623437 L 22.000000 148.123437 L 28.000000 148.123437" stroke="gray" fill="white" stroke-width="1px"></path><path d="M 34.000000 148.123437 L 34.000000 145.623437 L 28.000000 145.623437 L 28.000000 148.123437 L 34.000000 148.123437" stroke="gray" fill="white" stroke-width="1px"></path><path d="M 40.000000 148.123437 L 40.000000 145.623437 L 34.000000 145.623437 L 34.000000 148.123437 L 40.000000 148.123437" stroke="gray" fill="white" stroke-width="1px"></path><path d="M 22.000000 136.123437 L 22.000000 133.623437 L 16.000000 133.623437 L 16.000000 136.123437 L 22.000000 136.123437" stroke="gray" fill="white" stroke-width="1px"></path><path d="M 28.000000 136.123437 L 28.000000 133.623437 L 22.000000 133.623437 L 22.000000 136.123437 L 28.000000 136.123437" stroke="gray" fill="white" stroke-width="1px"></path><path d="M 34.000000 136.123437 L 34.000000 133.623437 L 28.000000 133.623437 L 28.000000 136.123437 L 34.000000 136.123437" stroke="gray" fill="white" stroke-width="1px"></path><path d="M 40.000000 136.123437 L 40.000000 133.623437 L 34.000000 133.623437 L 34.000000 136.123437 L 40.000000 136.123437" stroke="gray" fill="white" stroke-width="1px"></path><path d="M 251.737652 148.123437 L 251.737652 145.623437 L 245.737652 145.623437 L 245.737652 148.123437 L 251.737652 148.123437" stroke="gray" fill="white" stroke-width="1px"></path><path d="M 257.737652 148.123437 L 257.737652 145.623437 L 251.737652 145.623437 L 251.737652 148.123437 L 257.737652 148.123437" stroke="gray" fill="white" stroke-width="1px"></path><path d="M 263.737652 148.123437 L 263.737652 145.623437 L 257.737652 145.623437 L 257.737652 148.123437 L 263.737652 148.123437" stroke="gray" fill="white" stroke-width="1px"></path><path d="M 269.737652 148.123437 L 269.737652 145.623437 L 263.737652 145.623437 L 263.737652 148.123437 L 269.737652 148.123437" stroke="gray" fill="white" stroke-width="1px"></path><path d="M 275.737652 148.123437 L 275.737652 145.623437 L 269.737652 145.623437 L 269.737652 148.123437 L 275.737652 148.123437" stroke="gray" fill="white" stroke-width="1px"></path><path d="M 251.737652 136.123437 L 251.737652 133.623437 L 245.737652 133.623437 L 245.737652 136.123437 L 251.737652 136.123437" stroke="gray" fill="white" stroke-width="1px"></path><path d="M 257.737652 136.123437 L 257.737652 133.623437 L 251.737652 133.623437 L 251.737652 136.123437 L 257.737652 136.123437" stroke="gray" fill="white" stroke-width="1px"></path><path d="M 263.737652 136.123437 L 263.737652 133.623437 L 257.737652 133.623437 L 257.737652 136.123437 L 263.737652 136.123437" stroke="gray" fill="white" stroke-width="1px"></path><path d="M 269.737652 136.123437 L 269.737652 133.623437 L 263.737652 133.623437 L 263.737652 136.123437 L 269.737652 136.123437" stroke="gray" fill="white" stroke-width="1px"></path><path d="M 275.737652 136.123437 L 275.737652 133.623437 L 269.737652 133.623437 L 269.737652 136.123437 L 275.737652 136.123437" stroke="gray" fill="white" stroke-width="1px"></path><path d="M 22.000000 184.123437 L 22.000000 186.623437 L 16.000000 186.623437 L 16.000000 184.123437 L 22.000000 184.123437" stroke="gray" fill="white" stroke-width="1px"></path><path d="M 28.000000 184.123437 L 28.000000 186.623437 L 22.000000 186.623437 L 22.000000 184.123437 L 28.000000 184.123437" stroke="gray" fill="white" stroke-width="1px"></path><path d="M 34.000000 184.123437 L 34.000000 186.623437 L 28.000000 186.623437 L 28.000000 184.123437 L 34.000000 184.123437" stroke="gray" fill="white" stroke-width="1px"></path><path d="M 22.000000 172.123437 L 22.000000 174.623437 L 16.000000 174.623437 L 16.000000 172.123437 L 22.000000 172.123437" stroke="gray" fill="white" stroke-width="1px"></path><path d="M 28.000000 172.123437 L 28.000000 174.623437 L 22.000000 174.623437 L 22.000000 172.123437 L 28.000000 172.123437" stroke="gray" fill="white" stroke-width="1px"></path><path d="M 34.000000 172.123437 L 34.000000 174.623437 L 28.000000 174.623437 L 28.000000 172.123437 L 34.000000 172.123437" stroke="gray" fill="white" stroke-width="1px"></path><path d="M 40.000000 172.123437 L 40.000000 174.623437 L 34.000000 174.623437 L 34.000000 172.123437 L 40.000000 172.123437" stroke="gray" fill="white" stroke-width="1px"></path><path d="M 22.000000 160.123437 L 22.000000 162.623437 L 16.000000 162.623437 L 16.000000 160.123437 L 22.000000 160.123437" stroke="gray" fill="white" stroke-width="1px"></path><path d="M 28.000000 160.123437 L 28.000000 162.623437 L 22.000000 162.623437 L 22.000000 160.123437 L 28.000000 160.123437" stroke="gray" fill="white" stroke-width="1px"></path><path d="M 34.000000 160.123437 L 34.000000 162.623437 L 28.000000 162.623437 L 28.000000 160.123437 L 34.000000 160.123437" stroke="gray" fill="white" stroke-width="1px"></path><path d="M 40.000000 160.123437 L 40.000000 162.623437 L 34.000000 162.623437 L 34.000000 160.123437 L 40.000000 160.123437" stroke="gray" fill="white" stroke-width="1px"></path><path d="M 22.000000 148.123437 L 22.000000 150.623437 L 16.000000 150.623437 L 16.000000 148.123437 L 22.000000 148.123437" stroke="gray" fill="white" stroke-width="1px"></path><path d="M 28.000000 148.123437 L 28.000000 150.623437 L 22.000000 150.623437 L 22.000000 148.123437 L 28.000000 148.123437" stroke="gray" fill="white" stroke-width="1px"></path><path d="M 34.000000 148.123437 L 34.000000 150.623437 L 28.000000 150.623437 L 28.000000 148.123437 L 34.000000 148.123437" stroke="gray" fill="white" stroke-width="1px"></path><path d="M 40.000000 148.123437 L 40.000000 150.623437 L 34.000000 150.623437 L 34.000000 148.123437 L 40.000000 148.123437" stroke="gray" fill="white" stroke-width="1px"></path><path d="M 22.000000 136.123437 L 22.000000 138.623437 L 16.000000 138.623437 L 16.000000 136.123437 L 22.000000 136.123437" stroke="gray" fill="white" stroke-width="1px"></path><path d="M 28.000000 136.123437 L 28.000000 138.623437 L 22.000000 138.623437 L 22.000000 136.123437 L 28.000000 136.123437" stroke="gray" fill="white" stroke-width="1px"></path><path d="M 34.000000 136.123437 L 34.000000 138.623437 L 28.000000 138.623437 L 28.000000 136.123437 L 34.000000 136.123437" stroke="gray" fill="white" stroke-width="1px"></path><path d="M 40.000000 136.123437 L 40.000000 138.623437 L 34.000000 138.623437 L 34.000000 136.123437 L 40.000000 136.123437" stroke="gray" fill="white" stroke-width="1px"></path><path d="M 251.737652 148.123437 L 251.737652 150.623437 L 245.737652 150.623437 L 245.737652 148.123437 L 251.737652 148.123437" stroke="gray" fill="white" stroke-width="1px"></path><path d="M 257.737652 148.123437 L 257.737652 150.623437 L 251.737652 150.623437 L 251.737652 148.123437 L 257.737652 148.123437" stroke="gray" fill="white" stroke-width="1px"></path><path d="M 263.737652 148.123437 L 263.737652 150.623437 L 257.737652 150.623437 L 257.737652 148.123437 L 263.737652 148.123437" stroke="gray" fill="white" stroke-width="1px"></path><path d="M 269.737652 148.123437 L 269.737652 150.623437 L 263.737652 150.623437 L 263.737652 148.123437 L 269.737652 148.123437" stroke="gray" fill="white" stroke-width="1px"></path><path d="M 275.737652 148.123437 L 275.737652 150.623437 L 269.737652 150.623437 L 269.737652 148.123437 L 275.737652 148.123437" stroke="gray" fill="white" stroke-width="1px"></path><path d="M 251.737652 136.123437 L 251.737652 138.623437 L 245.737652 138.623437 L 245.737652 136.123437 L 251.737652 136.123437" stroke="gray" fill="white" stroke-width="1px"></path><path d="M 257.737652 136.123437 L 257.737652 138.623437 L 251.737652 138.623437 L 251.737652 136.123437 L 257.737652 136.123437" stroke="gray" fill="white" stroke-width="1px"></path><path d="M 263.737652 136.123437 L 263.737652 138.623437 L 257.737652 138.623437 L 257.737652 136.123437 L 263.737652 136.123437" stroke="gray" fill="white" stroke-width="1px"></path><path d="M 269.737652 136.123437 L 269.737652 138.623437 L 263.737652 138.623437 L 263.737652 136.123437 L 269.737652 136.123437" stroke="gray" fill="white" stroke-width="1px"></path><path d="M 275.737652 136.123437 L 275.737652 138.623437 L 269.737652 138.623437 L 269.737652 136.123437 L 275.737652 136.123437" stroke="gray" fill="white" stroke-width="1px"></path><path d="M 271.459383 35.180278 L 268.959383 35.180278 L 268.959383 41.180278 L 271.459383 41.180278 L 271.459383 35.180278" stroke="gray" fill="white" stroke-width="1px"></path><path d="M 271.459383 29.180278 L 268.959383 29.180278 L 268.959383 35.180278 L 271.459383 35.180278 L 271.459383 29.180278" stroke="gray" fill="white" stroke-width="1px"></path><path d="M 271.459383 23.180278 L 268.959383 23.180278 L 268.959383 29.180278 L 271.459383 29.180278 L 271.459383 23.180278" stroke="gray" fill="white" stroke-width="1px"></path><path d="M 271.459383 17.180278 L 268.959383 17.180278 L 268.959383 23.180278 L 271.459383 23.180278 L 271.459383 17.180278" stroke="gray" fill="white" stroke-width="1px"></path><path d="M 259.459383 43.299484 L 256.959383 43.299484 L 256.959383 49.299484 L 259.459383 49.299484 L 259.459383 43.299484" stroke="gray" fill="white" stroke-width="1px"></path><path d="M 259.459383 37.299484 L 256.959383 37.299484 L 256.959383 43.299484 L 259.459383 43.299484 L 259.459383 37.299484" stroke="gray" fill="white" stroke-width="1px"></path><path d="M 259.459383 31.299484 L 256.959383 31.299484 L 256.959383 37.299484 L 259.459383 37.299484 L 259.459383 31.299484" stroke="gray" fill="white" stroke-width="1px"></path><path d="M 259.459383 25.299484 L 256.959383 25.299484 L 256.959383 31.299484 L 259.459383 31.299484 L 259.459383 25.299484" stroke="gray" fill="white" stroke-width="1px"></path><path d="M 259.459383 19.299484 L 256.959383 19.299484 L 256.959383 25.299484 L 259.459383 25.299484 L 259.459383 19.299484" stroke="gray" fill="white" stroke-width="1px"></path><path d="M 259.459383 13.299484 L 256.959383 13.299484 L 256.959383 19.299484 L 259.459383 19.299484 L 259.459383 13.299484" stroke="gray" fill="white" stroke-width="1px"></path><path d="M 247.459383 32.670865 L 244.959383 32.670865 L 244.959383 38.670865 L 247.459383 38.670865 L 247.459383 32.670865" stroke="gray" fill="white" stroke-width="1px"></path><path d="M 247.459383 26.670865 L 244.959383 26.670865 L 244.959383 32.670865 L 247.459383 32.670865 L 247.459383 26.670865" stroke="gray" fill="white" stroke-width="1px"></path><path d="M 247.459383 20.670865 L 244.959383 20.670865 L 244.959383 26.670865 L 247.459383 26.670865 L 247.459383 20.670865" stroke="gray" fill="white" stroke-width="1px"></path><path d="M 247.459383 14.670865 L 244.959383 14.670865 L 244.959383 20.670865 L 247.459383 20.670865 L 247.459383 14.670865" stroke="gray" fill="white" stroke-width="1px"></path><path d="M 235.459383 26.189199 L 232.959383 26.189199 L 232.959383 32.189199 L 235.459383 32.189199 L 235.459383 26.189199" stroke="gray" fill="white" stroke-width="1px"></path><path d="M 235.459383 20.189199 L 232.959383 20.189199 L 232.959383 26.189199 L 235.459383 26.189199 L 235.459383 20.189199" stroke="gray" fill="white" stroke-width="1px"></path><path d="M 235.459383 14.189199 L 232.959383 14.189199 L 232.959383 20.189199 L 235.459383 20.189199 L 235.459383 14.189199" stroke="gray" fill="white" stroke-width="1px"></path><path d="M 175.459383 101.033125 L 172.959383 101.033125 L 172.959383 107.033125 L 175.459383 107.033125 L 175.459383 101.033125" stroke="gray" fill="white" stroke-width="1px"></path><path d="M 175.459383 88.316835 L 172.959383 88.316835 L 172.959383 94.316835 L 175.459383 94.316835 L 175.459383 88.316835" stroke="gray" fill="white" stroke-width="1px"></path><path d="M 175.459383 82.316835 L 172.959383 82.316835 L 172.959383 88.316835 L 175.459383 88.316835 L 175.459383 82.316835" stroke="gray" fill="white" stroke-width="1px"></path><path d="M 139.459383 101.033125 L 136.959383 101.033125 L 136.959383 107.033125 L 139.459383 107.033125 L 139.459383 101.033125" stroke="gray" fill="white" stroke-width="1px"></path><path d="M 139.459383 95.033125 L 136.959383 95.033125 L 136.959383 101.033125 L 139.459383 101.033125 L 139.459383 95.033125" stroke="gray" fill="white" stroke-width="1px"></path><path d="M 139.459383 89.033125 L 136.959383 89.033125 L 136.959383 95.033125 L 139.459383 95.033125 L 139.459383 89.033125" stroke="gray" fill="white" stroke-width="1px"></path><path d="M 139.459383 83.033125 L 136.959383 83.033125 L 136.959383 89.033125 L 139.459383 89.033125 L 139.459383 83.033125" stroke="gray" fill="white" stroke-width="1px"></path><path d="M 127.459383 101.033125 L 124.959383 101.033125 L 124.959383 107.033125 L 127.459383 107.033125 L 127.459383 101.033125" stroke="gray" fill="white" stroke-width="1px"></path><path d="M 127.459383 95.033125 L 124.959383 95.033125 L 124.959383 101.033125 L 127.459383 101.033125 L 127.459383 95.033125" stroke="gray" fill="white" stroke-width="1px"></path><path d="M 127.459383 89.033125 L 124.959383 89.033125 L 124.959383 95.033125 L 127.459383 95.033125 L 127.459383 89.033125" stroke="gray" fill="white" stroke-width="1px"></path><path d="M 127.459383 83.033125 L 124.959383 83.033125 L 124.959383 89.033125 L 127.459383 89.033125 L 127.459383 83.033125" stroke="gray" fill="white" stroke-width="1px"></path><path d="M 115.459383 101.033125 L 112.959383 101.033125 L 112.959383 107.033125 L 115.459383 107.033125 L 115.459383 101.033125" stroke="gray" fill="white" stroke-width="1px"></path><path d="M 115.459383 95.033125 L 112.959383 95.033125 L 112.959383 101.033125 L 115.459383 101.033125 L 115.459383 95.033125" stroke="gray" fill="white" stroke-width="1px"></path><path d="M 115.459383 89.033125 L 112.959383 89.033125 L 112.959383 95.033125 L 115.459383 95.033125 L 115.459383 89.033125" stroke="gray" fill="white" stroke-width="1px"></path><path d="M 115.459383 83.033125 L 112.959383 83.033125 L 112.959383 89.033125 L 115.459383 89.033125 L 115.459383 83.033125" stroke="gray" fill="white" stroke-width="1px"></path><path d="M 55.459383 107.090312 L 52.959383 107.090312 L 52.959383 113.090312 L 55.459383 113.090312 L 55.459383 107.090312" stroke="gray" fill="white" stroke-width="1px"></path><path d="M 43.459383 107.090312 L 40.959383 107.090312 L 40.959383 113.090312 L 43.459383 113.090312 L 43.459383 107.090312" stroke="gray" fill="white" stroke-width="1px"></path><path d="M 43.459383 101.090312 L 40.959383 101.090312 L 40.959383 107.090312 L 43.459383 107.090312 L 43.459383 101.090312" stroke="gray" fill="white" stroke-width="1px"></path><path d="M 31.459383 107.090312 L 28.959383 107.090312 L 28.959383 113.090312 L 31.459383 113.090312 L 31.459383 107.090312" stroke="gray" fill="white" stroke-width="1px"></path><path d="M 31.459383 101.090312 L 28.959383 101.090312 L 28.959383 107.090312 L 31.459383 107.090312 L 31.459383 101.090312" stroke="gray" fill="white" stroke-width="1px"></path><path d="M 31.459383 95.090312 L 28.959383 95.090312 L 28.959383 101.090312 L 31.459383 101.090312 L 31.459383 95.090312" stroke="gray" fill="white" stroke-width="1px"></path><path d="M 19.459383 107.090312 L 16.959383 107.090312 L 16.959383 113.090312 L 19.459383 113.090312 L 19.459383 107.090312" stroke="gray" fill="white" stroke-width="1px"></path><path d="M 19.459383 101.090312 L 16.959383 101.090312 L 16.959383 107.090312 L 19.459383 107.090312 L 19.459383 101.090312" stroke="gray" fill="white" stroke-width="1px"></path><path d="M 19.459383 95.090312 L 16.959383 95.090312 L 16.959383 101.090312 L 19.459383 101.090312 L 19.459383 95.090312" stroke="gray" fill="white" stroke-width="1px"></path><path d="M 271.459383 29.180278 L 273.959383 29.180278 L 273.959383 35.180278 L 271.459383 35.180278 L 271.459383 29.180278" stroke="gray" fill="white" stroke-width="1px"></path><path d="M 271.459383 23.180278 L 273.959383 23.180278 L 273.959383 29.180278 L 271.459383 29.180278 L 271.459383 23.180278" stroke="gray" fill="white" stroke-width="1px"></path><path d="M 271.459383 17.180278 L 273.959383 17.180278 L 273.959383 23.180278 L 271.459383 23.180278 L 271.459383 17.180278" stroke="gray" fill="white" stroke-width="1px"></path><path d="M 259.459383 37.299484 L 261.959383 37.299484 L 261.959383 43.299484 L 259.459383 43.299484 L 259.459383 37.299484" stroke="gray" fill="white" stroke-width="1px"></path><path d="M 259.459383 31.299484 L 261.959383 31.299484 L 261.959383 37.299484 L 259.459383 37.299484 L 259.459383 31.299484" stroke="gray" fill="white" stroke-width="1px"></path><path d="M 259.459383 25.299484 L 261.959383 25.299484 L 261.959383 31.299484 L 259.459383 31.299484 L 259.459383 25.299484" stroke="gray" fill="white" stroke-width="1px"></path><path d="M 259.459383 19.299484 L 261.959383 19.299484 L 261.959383 25.299484 L 259.459383 25.299484 L 259.459383 19.299484" stroke="gray" fill="white" stroke-width="1px"></path><path d="M 259.459383 13.299484 L 261.959383 13.299484 L 261.959383 19.299484 L 259.459383 19.299484 L 259.459383 13.299484" stroke="gray" fill="white" stroke-width="1px"></path><path d="M 247.459383 32.670865 L 249.959383 32.670865 L 249.959383 38.670865 L 247.459383 38.670865 L 247.459383 32.670865" stroke="gray" fill="white" stroke-width="1px"></path><path d="M 247.459383 26.670865 L 249.959383 26.670865 L 249.959383 32.670865 L 247.459383 32.670865 L 247.459383 26.670865" stroke="gray" fill="white" stroke-width="1px"></path><path d="M 247.459383 20.670865 L 249.959383 20.670865 L 249.959383 26.670865 L 247.459383 26.670865 L 247.459383 20.670865" stroke="gray" fill="white" stroke-width="1px"></path><path d="M 247.459383 14.670865 L 249.959383 14.670865 L 249.959383 20.670865 L 247.459383 20.670865 L 247.459383 14.670865" stroke="gray" fill="white" stroke-width="1px"></path><path d="M 235.459383 26.189199 L 237.959383 26.189199 L 237.959383 32.189199 L 235.459383 32.189199 L 235.459383 26.189199" stroke="gray" fill="white" stroke-width="1px"></path><path d="M 235.459383 20.189199 L 237.959383 20.189199 L 237.959383 26.189199 L 235.459383 26.189199 L 235.459383 20.189199" stroke="gray" fill="white" stroke-width="1px"></path><path d="M 235.459383 14.189199 L 237.959383 14.189199 L 237.959383 20.189199 L 235.459383 20.189199 L 235.459383 14.189199" stroke="gray" fill="white" stroke-width="1px"></path><path d="M 175.459383 101.033125 L 177.959383 101.033125 L 177.959383 107.033125 L 175.459383 107.033125 L 175.459383 101.033125" stroke="gray" fill="white" stroke-width="1px"></path><path d="M 175.459383 82.316835 L 177.959383 82.316835 L 177.959383 88.316835 L 175.459383 88.316835 L 175.459383 82.316835" stroke="gray" fill="white" stroke-width="1px"></path><path d="M 139.459383 101.033125 L 141.959383 101.033125 L 141.959383 107.033125 L 139.459383 107.033125 L 139.459383 101.033125" stroke="gray" fill="white" stroke-width="1px"></path><path d="M 139.459383 95.033125 L 141.959383 95.033125 L 141.959383 101.033125 L 139.459383 101.033125 L 139.459383 95.033125" stroke="gray" fill="white" stroke-width="1px"></path><path d="M 139.459383 89.033125 L 141.959383 89.033125 L 141.959383 95.033125 L 139.459383 95.033125 L 139.459383 89.033125" stroke="gray" fill="white" stroke-width="1px"></path><path d="M 139.459383 83.033125 L 141.959383 83.033125 L 141.959383 89.033125 L 139.459383 89.033125 L 139.459383 83.033125" stroke="gray" fill="white" stroke-width="1px"></path><path d="M 127.459383 101.033125 L 129.959383 101.033125 L 129.959383 107.033125 L 127.459383 107.033125 L 127.459383 101.033125" stroke="gray" fill="white" stroke-width="1px"></path><path d="M 127.459383 95.033125 L 129.959383 95.033125 L 129.959383 101.033125 L 127.459383 101.033125 L 127.459383 95.033125" stroke="gray" fill="white" stroke-width="1px"></path><path d="M 127.459383 89.033125 L 129.959383 89.033125 L 129.959383 95.033125 L 127.459383 95.033125 L 127.459383 89.033125" stroke="gray" fill="white" stroke-width="1px"></path><path d="M 127.459383 83.033125 L 129.959383 83.033125 L 129.959383 89.033125 L 127.459383 89.033125 L 127.459383 83.033125" stroke="gray" fill="white" stroke-width="1px"></path><path d="M 115.459383 101.033125 L 117.959383 101.033125 L 117.959383 107.033125 L 115.459383 107.033125 L 115.459383 101.033125" stroke="gray" fill="white" stroke-width="1px"></path><path d="M 115.459383 95.033125 L 117.959383 95.033125 L 117.959383 101.033125 L 115.459383 101.033125 L 115.459383 95.033125" stroke="gray" fill="white" stroke-width="1px"></path><path d="M 115.459383 89.033125 L 117.959383 89.033125 L 117.959383 95.033125 L 115.459383 95.033125 L 115.459383 89.033125" stroke="gray" fill="white" stroke-width="1px"></path><path d="M 115.459383 83.033125 L 117.959383 83.033125 L 117.959383 89.033125 L 115.459383 89.033125 L 115.459383 83.033125" stroke="gray" fill="white" stroke-width="1px"></path><path d="M 55.459383 107.090312 L 57.959383 107.090312 L 57.959383 113.090312 L 55.459383 113.090312 L 55.459383 107.090312" stroke="gray" fill="white" stroke-width="1px"></path><path d="M 43.459383 107.090312 L 45.959383 107.090312 L 45.959383 113.090312 L 43.459383 113.090312 L 43.459383 107.090312" stroke="gray" fill="white" stroke-width="1px"></path><path d="M 43.459383 101.090312 L 45.959383 101.090312 L 45.959383 107.090312 L 43.459383 107.090312 L 43.459383 101.090312" stroke="gray" fill="white" stroke-width="1px"></path><path d="M 31.459383 107.090312 L 33.959383 107.090312 L 33.959383 113.090312 L 31.459383 113.090312 L 31.459383 107.090312" stroke="gray" fill="white" stroke-width="1px"></path><path d="M 31.459383 101.090312 L 33.959383 101.090312 L 33.959383 107.090312 L 31.459383 107.090312 L 31.459383 101.090312" stroke="gray" fill="white" stroke-width="1px"></path><path d="M 31.459383 95.090312 L 33.959383 95.090312 L 33.959383 101.090312 L 31.459383 101.090312 L 31.459383 95.090312" stroke="gray" fill="white" stroke-width="1px"></path><path d="M 19.459383 107.090312 L 21.959383 107.090312 L 21.959383 113.090312 L 19.459383 113.090312 L 19.459383 107.090312" stroke="gray" fill="white" stroke-width="1px"></path><path d="M 19.459383 101.090312 L 21.959383 101.090312 L 21.959383 107.090312 L 19.459383 107.090312 L 19.459383 101.090312" stroke="gray" fill="white" stroke-width="1px"></path><path d="M 19.459383 95.090312 L 21.959383 95.090312 L 21.959383 101.090312 L 19.459383 101.090312 L 19.459383 95.090312" stroke="gray" fill="white" stroke-width="1px"></path><path d="M 265.779688 101.263579 L 265.779688 98.763579 L 259.779688 98.763579 L 259.779688 101.263579 L 265.779688 101.263579" stroke="gray" fill="white" stroke-width="1px"></path><path d="M 271.779688 101.263579 L 271.779688 98.763579 L 265.779688 98.763579 L 265.779688 101.263579 L 271.779688 101.263579" stroke="gray" fill="white" stroke-width="1px"></path><path d="M 277.779688 101.263579 L 277.779688 98.763579 L 271.779688 98.763579 L 271.779688 101.263579 L 277.779688 101.263579" stroke="gray" fill="white" stroke-width="1px"></path><path d="M 267.288187 89.263579 L 267.288187 86.763579 L 261.288187 86.763579 L 261.288187 89.263579 L 267.288187 89.263579" stroke="gray" fill="white" stroke-width="1px"></path><path d="M 273.288187 89.263579 L 273.288187 86.763579 L 267.288187 86.763579 L 267.288187 89.263579 L 273.288187 89.263579" stroke="gray" fill="white" stroke-width="1px"></path><path d="M 279.288187 89.263579 L 279.288187 86.763579 L 273.288187 86.763579 L 273.288187 89.263579 L 279.288187 89.263579" stroke="gray" fill="white" stroke-width="1px"></path><path d="M 268.796685 77.263579 L 268.796685 74.763579 L 262.796685 74.763579 L 262.796685 77.263579 L 268.796685 77.263579" stroke="gray" fill="white" stroke-width="1px"></path><path d="M 274.796685 77.263579 L 274.796685 74.763579 L 268.796685 74.763579 L 268.796685 77.263579 L 274.796685 77.263579" stroke="gray" fill="white" stroke-width="1px"></path><path d="M 270.305184 65.263579 L 270.305184 62.763579 L 264.305184 62.763579 L 264.305184 65.263579 L 270.305184 65.263579" stroke="gray" fill="white" stroke-width="1px"></path><path d="M 276.305184 65.263579 L 276.305184 62.763579 L 270.305184 62.763579 L 270.305184 65.263579 L 276.305184 65.263579" stroke="gray" fill="white" stroke-width="1px"></path><path d="M 265.600542 53.263579 L 265.600542 50.763579 L 259.600542 50.763579 L 259.600542 53.263579 L 265.600542 53.263579" stroke="gray" fill="white" stroke-width="1px"></path><path d="M 271.600542 53.263579 L 271.600542 50.763579 L 265.600542 50.763579 L 265.600542 53.263579 L 271.600542 53.263579" stroke="gray" fill="white" stroke-width="1px"></path><path d="M 277.600542 53.263579 L 277.600542 50.763579 L 271.600542 50.763579 L 271.600542 53.263579 L 277.600542 53.263579" stroke="gray" fill="white" stroke-width="1px"></path><path d="M 221.685147 101.263579 L 221.685147 98.763579 L 215.685147 98.763579 L 215.685147 101.263579 L 221.685147 101.263579" stroke="gray" fill="white" stroke-width="1px"></path><path d="M 227.685147 101.263579 L 227.685147 98.763579 L 221.685147 98.763579 L 221.685147 101.263579 L 227.685147 101.263579" stroke="gray" fill="white" stroke-width="1px"></path><path d="M 233.685147 101.263579 L 233.685147 98.763579 L 227.685147 98.763579 L 227.685147 101.263579 L 233.685147 101.263579" stroke="gray" fill="white" stroke-width="1px"></path><path d="M 210.783129 89.263579 L 210.783129 86.763579 L 204.783129 86.763579 L 204.783129 89.263579 L 210.783129 89.263579" stroke="gray" fill="white" stroke-width="1px"></path><path d="M 216.783129 89.263579 L 216.783129 86.763579 L 210.783129 86.763579 L 210.783129 89.263579 L 216.783129 89.263579" stroke="gray" fill="white" stroke-width="1px"></path><path d="M 222.783129 89.263579 L 222.783129 86.763579 L 216.783129 86.763579 L 216.783129 89.263579 L 222.783129 89.263579" stroke="gray" fill="white" stroke-width="1px"></path><path d="M 228.783129 89.263579 L 228.783129 86.763579 L 222.783129 86.763579 L 222.783129 89.263579 L 228.783129 89.263579" stroke="gray" fill="white" stroke-width="1px"></path><path d="M 234.783129 89.263579 L 234.783129 86.763579 L 228.783129 86.763579 L 228.783129 89.263579 L 234.783129 89.263579" stroke="gray" fill="white" stroke-width="1px"></path><path d="M 22.000000 65.263579 L 22.000000 62.763579 L 16.000000 62.763579 L 16.000000 65.263579 L 22.000000 65.263579" stroke="gray" fill="white" stroke-width="1px"></path><path d="M 28.000000 65.263579 L 28.000000 62.763579 L 22.000000 62.763579 L 22.000000 65.263579 L 28.000000 65.263579" stroke="gray" fill="white" stroke-width="1px"></path><path d="M 34.000000 65.263579 L 34.000000 62.763579 L 28.000000 62.763579 L 28.000000 65.263579 L 34.000000 65.263579" stroke="gray" fill="white" stroke-width="1px"></path><path d="M 40.000000 65.263579 L 40.000000 62.763579 L 34.000000 62.763579 L 34.000000 65.263579 L 40.000000 65.263579" stroke="gray" fill="white" stroke-width="1px"></path><path d="M 46.000000 65.263579 L 46.000000 62.763579 L 40.000000 62.763579 L 40.000000 65.263579 L 46.000000 65.263579" stroke="gray" fill="white" stroke-width="1px"></path><path d="M 52.000000 65.263579 L 52.000000 62.763579 L 46.000000 62.763579 L 46.000000 65.263579 L 52.000000 65.263579" stroke="gray" fill="white" stroke-width="1px"></path><path d="M 58.000000 65.263579 L 58.000000 62.763579 L 52.000000 62.763579 L 52.000000 65.263579 L 58.000000 65.263579" stroke="gray" fill="white" stroke-width="1px"></path><path d="M 22.000000 53.263579 L 22.000000 50.763579 L 16.000000 50.763579 L 16.000000 53.263579 L 22.000000 53.263579" stroke="gray" fill="white" stroke-width="1px"></path><path d="M 28.000000 53.263579 L 28.000000 50.763579 L 22.000000 50.763579 L 22.000000 53.263579 L 28.000000 53.263579" stroke="gray" fill="white" stroke-width="1px"></path><path d="M 34.000000 53.263579 L 34.000000 50.763579 L 28.000000 50.763579 L 28.000000 53.263579 L 34.000000 53.263579" stroke="gray" fill="white" stroke-width="1px"></path><path d="M 40.000000 53.263579 L 40.000000 50.763579 L 34.000000 50.763579 L 34.000000 53.263579 L 40.000000 53.263579" stroke="gray" fill="white" stroke-width="1px"></path><path d="M 46.000000 53.263579 L 46.000000 50.763579 L 40.000000 50.763579 L 40.000000 53.263579 L 46.000000 53.263579" stroke="gray" fill="white" stroke-width="1px"></path><path d="M 52.000000 53.263579 L 52.000000 50.763579 L 46.000000 50.763579 L 46.000000 53.263579 L 52.000000 53.263579" stroke="gray" fill="white" stroke-width="1px"></path><path d="M 58.000000 53.263579 L 58.000000 50.763579 L 52.000000 50.763579 L 52.000000 53.263579 L 58.000000 53.263579" stroke="gray" fill="white" stroke-width="1px"></path><path d="M 22.000000 41.263579 L 22.000000 38.763579 L 16.000000 38.763579 L 16.000000 41.263579 L 22.000000 41.263579" stroke="gray" fill="white" stroke-width="1px"></path><path d="M 28.000000 41.263579 L 28.000000 38.763579 L 22.000000 38.763579 L 22.000000 41.263579 L 28.000000 41.263579" stroke="gray" fill="white" stroke-width="1px"></path><path d="M 34.000000 41.263579 L 34.000000 38.763579 L 28.000000 38.763579 L 28.000000 41.263579 L 34.000000 41.263579" stroke="gray" fill="white" stroke-width="1px"></path><path d="M 40.000000 41.263579 L 40.000000 38.763579 L 34.000000 38.763579 L 34.000000 41.263579 L 40.000000 41.263579" stroke="gray" fill="white" stroke-width="1px"></path><path d="M 46.000000 41.263579 L 46.000000 38.763579 L 40.000000 38.763579 L 40.000000 41.263579 L 46.000000 41.263579" stroke="gray" fill="white" stroke-width="1px"></path><path d="M 52.000000 41.263579 L 52.000000 38.763579 L 46.000000 38.763579 L 46.000000 41.263579 L 52.000000 41.263579" stroke="gray" fill="white" stroke-width="1px"></path><path d="M 58.000000 41.263579 L 58.000000 38.763579 L 52.000000 38.763579 L 52.000000 41.263579 L 58.000000 41.263579" stroke="gray" fill="white" stroke-width="1px"></path><path d="M 265.779688 101.263579 L 265.779688 103.763579 L 259.779688 103.763579 L 259.779688 101.263579 L 265.779688 101.263579" stroke="gray" fill="white" stroke-width="1px"></path><path d="M 271.779688 101.263579 L 271.779688 103.763579 L 265.779688 103.763579 L 265.779688 101.263579 L 271.779688 101.263579" stroke="gray" fill="white" stroke-width="1px"></path><path d="M 277.779688 101.263579 L 277.779688 103.763579 L 271.779688 103.763579 L 271.779688 101.263579 L 277.779688 101.263579" stroke="gray" fill="white" stroke-width="1px"></path><path d="M 267.288187 89.263579 L 267.288187 91.763579 L 261.288187 91.763579 L 261.288187 89.263579 L 267.288187 89.263579" stroke="gray" fill="white" stroke-width="1px"></path><path d="M 273.288187 89.263579 L 273.288187 91.763579 L 267.288187 91.763579 L 267.288187 89.263579 L 273.288187 89.263579" stroke="gray" fill="white" stroke-width="1px"></path><path d="M 279.288187 89.263579 L 279.288187 91.763579 L 273.288187 91.763579 L 273.288187 89.263579 L 279.288187 89.263579" stroke="gray" fill="white" stroke-width="1px"></path><path d="M 268.796685 77.263579 L 268.796685 79.763579 L 262.796685 79.763579 L 262.796685 77.263579 L 268.796685 77.263579" stroke="gray" fill="white" stroke-width="1px"></path><path d="M 274.796685 77.263579 L 274.796685 79.763579 L 268.796685 79.763579 L 268.796685 77.263579 L 274.796685 77.263579" stroke="gray" fill="white" stroke-width="1px"></path><path d="M 270.305184 65.263579 L 270.305184 67.763579 L 264.305184 67.763579 L 264.305184 65.263579 L 270.305184 65.263579" stroke="gray" fill="white" stroke-width="1px"></path><path d="M 276.305184 65.263579 L 276.305184 67.763579 L 270.305184 67.763579 L 270.305184 65.263579 L 276.305184 65.263579" stroke="gray" fill="white" stroke-width="1px"></path><path d="M 265.600542 53.263579 L 265.600542 55.763579 L 259.600542 55.763579 L 259.600542 53.263579 L 265.600542 53.263579" stroke="gray" fill="white" stroke-width="1px"></path><path d="M 271.600542 53.263579 L 271.600542 55.763579 L 265.600542 55.763579 L 265.600542 53.263579 L 271.600542 53.263579" stroke="gray" fill="white" stroke-width="1px"></path><path d="M 277.600542 53.263579 L 277.600542 55.763579 L 271.600542 55.763579 L 271.600542 53.263579 L 277.600542 53.263579" stroke="gray" fill="white" stroke-width="1px"></path><path d="M 221.685147 101.263579 L 221.685147 103.763579 L 215.685147 103.763579 L 215.685147 101.263579 L 221.685147 101.263579" stroke="gray" fill="white" stroke-width="1px"></path><path d="M 227.685147 101.263579 L 227.685147 103.763579 L 221.685147 103.763579 L 221.685147 101.263579 L 227.685147 101.263579" stroke="gray" fill="white" stroke-width="1px"></path><path d="M 233.685147 101.263579 L 233.685147 103.763579 L 227.685147 103.763579 L 227.685147 101.263579 L 233.685147 101.263579" stroke="gray" fill="white" stroke-width="1px"></path><path d="M 210.783129 89.263579 L 210.783129 91.763579 L 204.783129 91.763579 L 204.783129 89.263579 L 210.783129 89.263579" stroke="gray" fill="white" stroke-width="1px"></path><path d="M 216.783129 89.263579 L 216.783129 91.763579 L 210.783129 91.763579 L 210.783129 89.263579 L 216.783129 89.263579" stroke="gray" fill="white" stroke-width="1px"></path><path d="M 222.783129 89.263579 L 222.783129 91.763579 L 216.783129 91.763579 L 216.783129 89.263579 L 222.783129 89.263579" stroke="gray" fill="white" stroke-width="1px"></path><path d="M 228.783129 89.263579 L 228.783129 91.763579 L 222.783129 91.763579 L 222.783129 89.263579 L 228.783129 89.263579" stroke="gray" fill="white" stroke-width="1px"></path><path d="M 234.783129 89.263579 L 234.783129 91.763579 L 228.783129 91.763579 L 228.783129 89.263579 L 234.783129 89.263579" stroke="gray" fill="white" stroke-width="1px"></path><path d="M 28.000000 65.263579 L 28.000000 67.763579 L 22.000000 67.763579 L 22.000000 65.263579 L 28.000000 65.263579" stroke="gray" fill="white" stroke-width="1px"></path><path d="M 34.000000 65.263579 L 34.000000 67.763579 L 28.000000 67.763579 L 28.000000 65.263579 L 34.000000 65.263579" stroke="gray" fill="white" stroke-width="1px"></path><path d="M 40.000000 65.263579 L 40.000000 67.763579 L 34.000000 67.763579 L 34.000000 65.263579 L 40.000000 65.263579" stroke="gray" fill="white" stroke-width="1px"></path><path d="M 46.000000 65.263579 L 46.000000 67.763579 L 40.000000 67.763579 L 40.000000 65.263579 L 46.000000 65.263579" stroke="gray" fill="white" stroke-width="1px"></path><path d="M 52.000000 65.263579 L 52.000000 67.763579 L 46.000000 67.763579 L 46.000000 65.263579 L 52.000000 65.263579" stroke="gray" fill="white" stroke-width="1px"></path><path d="M 58.000000 65.263579 L 58.000000 67.763579 L 52.000000 67.763579 L 52.000000 65.263579 L 58.000000 65.263579" stroke="gray" fill="white" stroke-width="1px"></path><path d="M 22.000000 53.263579 L 22.000000 55.763579 L 16.000000 55.763579 L 16.000000 53.263579 L 22.000000 53.263579" stroke="gray" fill="white" stroke-width="1px"></path><path d="M 28.000000 53.263579 L 28.000000 55.763579 L 22.000000 55.763579 L 22.000000 53.263579 L 28.000000 53.263579" stroke="gray" fill="white" stroke-width="1px"></path><path d="M 34.000000 53.263579 L 34.000000 55.763579 L 28.000000 55.763579 L 28.000000 53.263579 L 34.000000 53.263579" stroke="gray" fill="white" stroke-width="1px"></path><path d="M 40.000000 53.263579 L 40.000000 55.763579 L 34.000000 55.763579 L 34.000000 53.263579 L 40.000000 53.263579" stroke="gray" fill="white" stroke-width="1px"></path><path d="M 46.000000 53.263579 L 46.000000 55.763579 L 40.000000 55.763579 L 40.000000 53.263579 L 46.000000 53.263579" stroke="gray" fill="white" stroke-width="1px"></path><path d="M 52.000000 53.263579 L 52.000000 55.763579 L 46.000000 55.763579 L 46.000000 53.263579 L 52.000000 53.263579" stroke="gray" fill="white" stroke-width="1px"></path><path d="M 58.000000 53.263579 L 58.000000 55.763579 L 52.000000 55.763579 L 52.000000 53.263579 L 58.000000 53.263579" stroke="gray" fill="white" stroke-width="1px"></path><path d="M 22.000000 41.263579 L 22.000000 43.763579 L 16.000000 43.763579 L 16.000000 41.263579 L 22.000000 41.263579" stroke="gray" fill="white" stroke-width="1px"></path><path d="M 28.000000 41.263579 L 28.000000 43.763579 L 22.000000 43.763579 L 22.000000 41.263579 L 28.000000 41.263579" stroke="gray" fill="white" stroke-width="1px"></path><path d="M 34.000000 41.263579 L 34.000000 43.763579 L 28.000000 43.763579 L 28.000000 41.263579 L 34.000000 41.263579" stroke="gray" fill="white" stroke-width="1px"></path><path d="M 40.000000 41.263579 L 40.000000 43.763579 L 34.000000 43.763579 L 34.000000 41.263579 L 40.000000 41.263579" stroke="gray" fill="white" stroke-width="1px"></path><path d="M 46.000000 41.263579 L 46.000000 43.763579 L 40.000000 43.763579 L 40.000000 41.263579 L 46.000000 41.263579" stroke="gray" fill="white" stroke-width="1px"></path><path d="M 52.000000 41.263579 L 52.000000 43.763579 L 46.000000 43.763579 L 46.000000 41.263579 L 52.000000 41.263579" stroke="gray" fill="white" stroke-width="1px"></path><path d="M 58.000000 41.263579 L 58.000000 43.763579 L 52.000000 43.763579 L 52.000000 41.263579 L 58.000000 41.263579" stroke="gray" fill="white" stroke-width="1px"></path></g><g id="crv-base"><path d="M 221.371570 123.090312 L 221.371570 169.241094 L 120.000633 169.241094 L 120.000633 156.444206 L 126.051258 156.444206 L 126.051258 123.858132 L 91.315945 123.858125 L 91.315945 134.738750 L 64.258762 134.738750 L 64.258762 123.687497 L 10.000000 123.687497 L 10.000000 226.180625 L 64.258758 226.180625 L 64.258758 192.357500 L 91.315945 192.357500 L 91.315945 220.123437 L 283.459383 220.123437 L 283.459383 123.090312 L 221.371570 123.090312" stroke="black" fill="none" stroke-width="1px"></path><path d="M 221.371570 10.000000 L 221.371570 56.150781 L 120.000633 56.150781 L 120.000633 43.353893 L 126.051258 43.353893 L 126.051258 10.767819 L 91.315945 10.767812 L 91.315945 21.648438 L 64.258762 21.648438 L 64.258762 10.597185 L 10.000000 10.597185 L 10.000000 113.090312 L 64.258758 113.090312 L 64.258758 79.267187 L 91.315945 79.267187 L 91.315945 107.033125 L 283.459383 107.033125 L 283.459383 10.000000 L 221.371570 10.000000" stroke="black" fill="none" stroke-width="1px"></path><path d="M 10.387195 156.559062 L 10.387195 154.590312 L 12.355945 154.590312 L 12.355945 156.559062 L 10.387195 156.559062" stroke="black" fill="white" stroke-width="1px"></path><path d="M 10.387195 43.468750 L 10.387195 41.500000 L 12.355945 41.500000 L 12.355945 43.468750 L 10.387195 43.468750" stroke="black" fill="white" stroke-width="1px"></path><path d="M 10.387195 188.059062 L 10.387195 186.090312 L 12.355945 186.090312 L 12.355945 188.059062 L 10.387195 188.059062" stroke="black" fill="white" stroke-width="1px"></path><path d="M 10.387195 74.968750 L 10.387195 73.000000 L 12.355945 73.000000 L 12.355945 74.968750 L 10.387195 74.968750" stroke="black" fill="white" stroke-width="1px"></path><path d="M 10.387195 219.559062 L 10.387195 217.590312 L 12.355945 217.590312 L 12.355945 219.559062 L 10.387195 219.559062" stroke="black" fill="white" stroke-width="1px"></path><path d="M 10.387195 106.468750 L 10.387195 104.500000 L 12.355945 104.500000 L 12.355945 106.468750 L 10.387195 106.468750" stroke="black" fill="white" stroke-width="1px"></path><path d="M 60.754383 128.340312 L 60.754383 125.387187 L 63.871570 125.387187 L 63.871570 128.340312 L 60.754383 128.340312" stroke="black" fill="white" stroke-width="1px"></path><path d="M 60.754383 15.250000 L 60.754383 12.296875 L 63.871570 12.296875 L 63.871570 15.250000 L 60.754383 15.250000" stroke="black" fill="white" stroke-width="1px"></path><path d="M 280.598133 219.230937 L 280.598133 217.262187 L 282.566883 217.262187 L 282.566883 219.230937 L 280.598133 219.230937" stroke="black" fill="white" stroke-width="1px"></path><path d="M 280.598133 106.140625 L 280.598133 104.171875 L 282.566883 104.171875 L 282.566883 106.140625 L 280.598133 106.140625" stroke="black" fill="white" stroke-width="1px"></path><path d="M 280.598133 188.059062 L 280.598133 186.090312 L 282.566883 186.090312 L 282.566883 188.059062 L 280.598133 188.059062" stroke="black" fill="white" stroke-width="1px"></path><path d="M 280.598133 74.968750 L 280.598133 73.000000 L 282.566883 73.000000 L 282.566883 74.968750 L 280.598133 74.968750" stroke="black" fill="white" stroke-width="1px"></path><path d="M 280.598133 156.559050 L 280.598133 154.590300 L 282.566883 154.590300 L 282.566883 156.559050 L 280.598133 156.559050" stroke="black" fill="white" stroke-width="1px"></path><path d="M 280.598133 43.468737 L 280.598133 41.499987 L 282.566883 41.499987 L 282.566883 43.468737 L 280.598133 43.468737" stroke="black" fill="white" stroke-width="1px"></path><path d="M 248.605945 127.355937 L 248.605945 123.418437 L 251.887195 123.418437 L 251.887195 127.355937 L 248.605945 127.355937" stroke="black" fill="white" stroke-width="1px"></path><path d="M 248.605945 14.265625 L 248.605945 10.328125 L 251.887195 10.328125 L 251.887195 14.265625 L 248.605945 14.265625" stroke="black" fill="white" stroke-width="1px"></path><path d="M 248.605945 157.871562 L 248.605945 153.934062 L 251.887195 153.934062 L 251.887195 157.871562 L 248.605945 157.871562" stroke="black" fill="white" stroke-width="1px"></path><path d="M 248.605945 44.781250 L 248.605945 40.843750 L 251.887195 40.843750 L 251.887195 44.781250 L 248.605945 44.781250" stroke="black" fill="white" stroke-width="1px"></path><path d="M 248.605945 189.043437 L 248.605945 185.105937 L 251.887195 185.105937 L 251.887195 189.043437 L 248.605945 189.043437" stroke="black" fill="white" stroke-width="1px"></path><path d="M 248.605945 75.953125 L 248.605945 72.015625 L 251.887195 72.015625 L 251.887195 75.953125 L 248.605945 75.953125" stroke="black" fill="white" stroke-width="1px"></path><path d="M 248.934070 219.230937 L 248.934070 216.277812 L 251.887195 216.277812 L 251.887195 219.230937 L 248.934070 219.230937" stroke="black" fill="white" stroke-width="1px"></path><path d="M 248.934070 106.140625 L 248.934070 103.187500 L 251.887195 103.187500 L 251.887195 106.140625 L 248.934070 106.140625" stroke="black" fill="white" stroke-width="1px"></path><path d="M 218.090320 189.043437 L 218.090320 185.105937 L 221.371570 185.105937 L 221.371570 189.043437 L 218.090320 189.043437" stroke="black" fill="white" stroke-width="1px"></path><path d="M 218.090320 75.953125 L 218.090320 72.015625 L 221.371570 72.015625 L 221.371570 75.953125 L 218.090320 75.953125" stroke="black" fill="white" stroke-width="1px"></path><path d="M 218.254383 219.230937 L 218.254383 216.277812 L 221.207508 216.277812 L 221.207508 219.230937 L 218.254383 219.230937" stroke="black" fill="white" stroke-width="1px"></path><path d="M 218.254383 106.140625 L 218.254383 103.187500 L 221.207508 103.187500 L 221.207508 106.140625 L 218.254383 106.140625" stroke="black" fill="white" stroke-width="1px"></path><path d="M 186.590320 189.043437 L 186.590320 185.105937 L 189.871570 185.105937 L 189.871570 189.043437 L 186.590320 189.043437" stroke="black" fill="white" stroke-width="1px"></path><path d="M 186.590320 75.953125 L 186.590320 72.015625 L 189.871570 72.015625 L 189.871570 75.953125 L 186.590320 75.953125" stroke="black" fill="white" stroke-width="1px"></path><path d="M 186.754383 219.230937 L 186.754383 216.277812 L 189.707508 216.277812 L 189.707508 219.230937 L 186.754383 219.230937" stroke="black" fill="white" stroke-width="1px"></path><path d="M 186.754383 106.140625 L 186.754383 103.187500 L 189.707508 103.187500 L 189.707508 106.140625 L 186.754383 106.140625" stroke="black" fill="white" stroke-width="1px"></path><path d="M 155.090320 189.043437 L 155.090320 185.105937 L 158.371570 185.105937 L 158.371570 189.043437 L 155.090320 189.043437" stroke="black" fill="white" stroke-width="1px"></path><path d="M 155.090320 75.953125 L 155.090320 72.015625 L 158.371570 72.015625 L 158.371570 75.953125 L 155.090320 75.953125" stroke="black" fill="white" stroke-width="1px"></path><path d="M 155.254383 219.230937 L 155.254383 216.277812 L 158.207508 216.277812 L 158.207508 219.230937 L 155.254383 219.230937" stroke="black" fill="white" stroke-width="1px"></path><path d="M 155.254383 106.140625 L 155.254383 103.187500 L 158.207508 103.187500 L 158.207508 106.140625 L 155.254383 106.140625" stroke="black" fill="white" stroke-width="1px"></path><path d="M 123.590320 189.043437 L 123.590320 185.105937 L 126.871570 185.105937 L 126.871570 189.043437 L 123.590320 189.043437" stroke="black" fill="white" stroke-width="1px"></path><path d="M 123.590320 75.953125 L 123.590320 72.015625 L 126.871570 72.015625 L 126.871570 75.953125 L 123.590320 75.953125" stroke="black" fill="white" stroke-width="1px"></path><path d="M 123.754383 219.230937 L 123.754383 216.277812 L 126.707508 216.277812 L 126.707508 219.230937 L 123.754383 219.230937" stroke="black" fill="white" stroke-width="1px"></path><path d="M 123.754383 106.140625 L 123.754383 103.187500 L 126.707508 103.187500 L 126.707508 106.140625 L 123.754383 106.140625" stroke="black" fill="white" stroke-width="1px"></path><path d="M 92.090320 157.543437 L 92.090320 153.605937 L 95.371570 153.605937 L 95.371570 157.543437 L 92.090320 157.543437" stroke="black" fill="white" stroke-width="1px"></path><path d="M 92.090320 44.453125 L 92.090320 40.515625 L 95.371570 40.515625 L 95.371570 44.453125 L 92.090320 44.453125" stroke="black" fill="white" stroke-width="1px"></path><path d="M 92.090320 189.043437 L 92.090320 185.105937 L 95.371570 185.105937 L 95.371570 189.043437 L 92.090320 189.043437" stroke="black" fill="white" stroke-width="1px"></path><path d="M 92.090320 75.953125 L 92.090320 72.015625 L 95.371570 72.015625 L 95.371570 75.953125 L 92.090320 75.953125" stroke="black" fill="white" stroke-width="1px"></path><path d="M 92.090320 128.504375 L 92.090320 125.551250 L 95.207508 125.551250 L 95.207508 128.504375 L 92.090320 128.504375" stroke="black" fill="white" stroke-width="1px"></path><path d="M 92.090320 15.414062 L 92.090320 12.460937 L 95.207508 12.460937 L 95.207508 15.414062 L 92.090320 15.414062" stroke="black" fill="white" stroke-width="1px"></path><path d="M 60.590320 157.215312 L 60.590320 153.934062 L 63.871570 153.934062 L 63.871570 157.215312 L 60.590320 157.215312" stroke="black" fill="white" stroke-width="1px"></path><path d="M 60.590320 44.125000 L 60.590320 40.843750 L 63.871570 40.843750 L 63.871570 44.125000 L 60.590320 44.125000" stroke="black" fill="white" stroke-width="1px"></path><path d="M 60.754383 219.230937 L 60.754383 216.277812 L 63.871570 216.277812 L 63.871570 219.230937 L 60.754383 219.230937" stroke="black" fill="white" stroke-width="1px"></path><path d="M 60.754383 106.140625 L 60.754383 103.187500 L 63.871570 103.187500 L 63.871570 106.140625 L 60.754383 106.140625" stroke="black" fill="white" stroke-width="1px"></path><path d="M 30.074695 128.504375 L 30.074695 125.223125 L 33.027820 125.223125 L 33.027820 128.504375 L 30.074695 128.504375" stroke="black" fill="white" stroke-width="1px"></path><path d="M 30.074695 15.414062 L 30.074695 12.132812 L 33.027820 12.132812 L 33.027820 15.414062 L 30.074695 15.414062" stroke="black" fill="white" stroke-width="1px"></path><path d="M 30.074695 157.215312 L 30.074695 153.934062 L 33.355945 153.934062 L 33.355945 157.215312 L 30.074695 157.215312" stroke="black" fill="white" stroke-width="1px"></path><path d="M 30.074695 44.125000 L 30.074695 40.843750 L 33.355945 40.843750 L 33.355945 44.125000 L 30.074695 44.125000" stroke="black" fill="white" stroke-width="1px"></path><path d="M 30.074695 188.715312 L 30.074695 185.434062 L 33.355945 185.434062 L 33.355945 188.715312 L 30.074695 188.715312" stroke="black" fill="white" stroke-width="1px"></path><path d="M 30.074695 75.625000 L 30.074695 72.343750 L 33.355945 72.343750 L 33.355945 75.625000 L 30.074695 75.625000" stroke="black" fill="white" stroke-width="1px"></path><path d="M 30.074695 219.230937 L 30.074695 216.277812 L 33.027820 216.277812 L 33.027820 219.230937 L 30.074695 219.230937" stroke="black" fill="white" stroke-width="1px"></path><path d="M 30.074695 106.140625 L 30.074695 103.187500 L 33.027820 103.187500 L 33.027820 106.140625 L 30.074695 106.140625" stroke="black" fill="white" stroke-width="1px"></path><path d="M 10.387195 127.191875 L 10.387195 125.223125 L 12.355945 125.223125 L 12.355945 127.191875 L 10.387195 127.191875" stroke="black" fill="white" stroke-width="1px"></path><path d="M 10.387195 14.101562 L 10.387195 12.132812 L 12.355945 12.132812 L 12.355945 14.101562 L 10.387195 14.101562" stroke="black" fill="white" stroke-width="1px"></path><path d="M 60.590320 189.863750 L 60.590320 185.434062 L 63.871570 185.434062 L 63.871570 188.715312 L 62.230945 188.715312 L 62.230945 189.863750 L 60.590320 189.863750" stroke="black" fill="white" stroke-width="1px"></path><path d="M 60.590320 76.773437 L 60.590320 72.343750 L 63.871570 72.343750 L 63.871570 75.625000 L 62.230945 75.625000 L 62.230945 76.773437 L 60.590320 76.773437" stroke="black" fill="white" stroke-width="1px"></path><path d="M 123.590320 128.832500 L 123.590320 125.551250 L 126.051258 125.551250 L 126.051258 128.832500 L 123.590320 128.832500" stroke="black" fill="white" stroke-width="1px"></path><path d="M 123.590320 15.742187 L 123.590320 12.460937 L 126.051258 12.460937 L 126.051258 15.742187 L 123.590320 15.742187" stroke="black" fill="white" stroke-width="1px"></path><path d="M 280.598133 126.043425 L 280.598133 124.074675 L 282.566883 124.074675 L 282.566883 126.043425 L 280.598133 126.043425" stroke="black" fill="white" stroke-width="1px"></path><path d="M 280.598133 12.953112 L 280.598133 10.984362 L 282.566883 10.984362 L 282.566883 12.953112 L 280.598133 12.953112" stroke="black" fill="white" stroke-width="1px"></path></g></svg>