<svg width="293.459383" height="236.180625" xmlns="http://www.w3.org/2000/svg" xmlns:xlink="http://www.w3.org/1999/xlink" version="1.1"><g id="crv-background"><path d="M 221.371570 123.090312 L 221.371570 169.241094 L 120.000633 169.241094 L 120.000633 156.444206 L 126.051258 156.444206 L 126.051258 123.858132 L 91.315945 123.858125 L 91.315945 134.738750 L 64.258762 134.738750 L 64.258762 123.687497 L 10.000000 123.687497 L 10.000000 226.180625 L 64.258758 226.180625 L 64.258758 192.357500 L 91.315945 192.357500 L 91.315945 220.123437 L 283.459383 220.123437 L 283.459383 123.090312 L 221.371570 123.090312" stroke="none" fill="white" stroke-width="1px"></path><path d="M 221.371570 10.000000 L 221.371570 56.150781 L 120.000633 56.150781 L 120.000633 43.353893 L 126.051258 43.353893 L 126.051258 10.767819 L 91.315945 10.767812 L 91.315945 21.648438 L 64.258762 21.648438 L 64.258762 10.597185 L 10.000000 10.597185 L 10.000000 113.090312 L 64.258758 113.090312 L 64.258758 79.267187 L 91.315945 79.267187 L 91.315945 107.033125 L 283.459383 107.033125 L 283.459383 10.000000 L 221.371570 10.000000" stroke="none" fill="white" stroke-width="1px"></path></g><g id="crv-nbhd"><path d="M 221.737654 10.000004 L 221.737654 28.741989 L 221.737654 47.483975 L 233.090534 53.503647 L 244.443414 59.523319 L 263.951398 46.346262 L 283.459383 33.169204 L 283.459383 21.584602 L 283.459382 10.000000 L 252.598525 10.000002 L 221.737654 10.000004" stroke="#DD2222" fill="none" stroke-width="1px"></path><path d="M 283.459383 107.033125 L 283.459383 70.101165 L 283.459383 33.169204 L 263.951398 46.346262 L 244.443414 59.523319 L 241.750377 83.278222 L 239.057341 107.033125 L 261.258362 107.033125 L 283.459383 107.033125" stroke="#DD2222" fill="none" stroke-width="1px"></path><path d="M 221.737654 47.483975 L 221.737654 79.151330 L 190.187695 79.151330 L 214.076634 107.033125 L 239.057341 107.033125 L 244.443414 59.523319 L 221.737654 47.483975" stroke="#DD2222" fill="none" stroke-width="1px"></path><path d="M 190.187695 79.151330 L 188.288435 79.151330 L 186.389175 79.151330 L 176.167925 93.092227 L 165.946674 107.033125 L 190.011654 107.033125 L 214.076634 107.033125 L 202.132167 93.092231 L 190.187695 79.151330" stroke="#DD2222" fill="none" stroke-width="1px"></path><path d="M 186.389175 79.151330 L 151.141491 79.151329 L 151.477214 107.033125 L 165.946674 107.033125 L 186.389175 79.151330" stroke="#DD2222" fill="none" stroke-width="1px"></path><path d="M 151.141491 79.151329 L 121.228718 79.151328 L 91.315945 79.151327 L 91.315945 93.092226 L 91.315945 107.033125 L 121.396579 107.033125 L 151.477214 107.033125 L 151.309352 93.092230 L 151.141491 79.151329" stroke="#DD2222" fill="none" stroke-width="1px"></path><path d="M 64.258758 113.090312 L 64.258758 97.820006 L 64.258758 82.549699 L 37.129379 74.573287 L 10.000000 66.596876 L 10.000000 89.843594 L 10.000000 113.090312 L 37.129347 113.090312 L 64.258758 113.090312" stroke="#DD2222" fill="none" stroke-width="1px"></path><path d="M 64.258758 56.150781 L 64.258758 33.373983 L 64.258758 10.597185 L 37.129372 10.597185 L 10.000000 10.597184 L 10.000000 38.597030 L 10.000000 66.596876 L 37.129379 74.573287 L 64.258758 82.549699 L 64.258758 69.350243 L 64.258758 56.150781" stroke="#DD2222" fill="none" stroke-width="1px"></path><path d="M 10.000000 123.687497 L 10.000000 161.544247 L 10.000000 199.400997 L 37.129379 189.491187 L 64.258758 179.581378 L 64.258758 174.411236 L 64.258758 169.241094 L 64.258758 146.464296 L 64.258758 123.687497 L 37.129385 123.687497 L 10.000000 123.687497" stroke="#DD2222" fill="none" stroke-width="1px"></path><path d="M 10.000000 226.180625 L 37.129379 226.180625 L 64.258758 226.180625 L 64.258758 202.881001 L 64.258758 179.581378 L 37.129379 189.491187 L 10.000000 199.400997 L 10.000000 212.790811 L 10.000000 226.180625" stroke="#DD2222" fill="none" stroke-width="1px"></path><path d="M 128.578239 192.043444 L 109.947092 192.043444 L 91.315945 192.043444 L 91.315945 206.083441 L 91.315945 220.123437 L 110.431531 220.123437 L 129.547117 220.123437 L 129.062678 206.083441 L 128.578239 192.043444" stroke="#DD2222" fill="none" stroke-width="1px"></path><path d="M 176.175031 192.043444 L 152.376635 192.043444 L 128.578239 192.043444 L 129.062678 206.083441 L 129.547117 220.123437 L 152.941840 220.123437 L 176.336564 220.123437 L 176.255797 206.083444 L 176.175031 192.043444" stroke="#DD2222" fill="none" stroke-width="1px"></path><path d="M 234.309823 192.043444 L 205.242427 192.043444 L 176.175031 192.043444 L 176.255797 206.083441 L 176.336564 220.123437 L 207.128317 220.123437 L 237.920071 220.123437 L 236.114947 206.083444 L 234.309823 192.043444" stroke="#DD2222" fill="none" stroke-width="1px"></path><path d="M 237.920071 220.123437 L 260.689727 220.123437 L 283.459383 220.123437 L 283.459383 199.689099 L 283.459383 179.254761 L 261.598517 179.290977 L 239.737652 179.327193 L 239.737652 185.685319 L 239.737652 192.043444 L 237.023737 192.043444 L 234.309823 192.043444 L 236.114947 206.083439 L 237.920071 220.123437" stroke="#DD2222" fill="none" stroke-width="1px"></path><path d="M 239.737652 123.090312 L 239.737652 151.208753 L 239.737652 179.327193 L 261.598517 179.290977 L 283.459383 179.254761 L 283.459383 151.172537 L 283.459383 123.090312 L 261.598517 123.090312 L 239.737652 123.090312" stroke="#DD2222" fill="none" stroke-width="1px"></path></g><g id="crv-amen"><path d="M 62.611450 170.015505 L 62.611450 149.425279 L 62.611450 128.835054 L 56.022219 128.835054 L 49.432988 128.835054 L 49.432988 149.425279 L 49.432988 170.015505 L 56.022219 170.015505 L 62.611450 170.015505" stroke="none" fill="#2288CC" stroke-width="1px"></path><path d="M 58.832882 197.347244 L 58.832882 190.332172 L 58.832882 183.317107 L 37.129379 191.244955 L 15.425876 199.172802 L 15.425876 206.187871 L 15.425876 213.202940 L 37.129384 205.275090 L 58.832882 197.347244" stroke="none" fill="#2288CC" stroke-width="1px"></path><path d="M 125.335213 206.873370 L 125.107857 200.284139 L 124.880500 193.694908 L 109.975583 193.694908 L 95.070666 193.694908 L 95.070666 200.284139 L 95.070666 206.873370 L 110.202939 206.873370 L 125.335213 206.873370" stroke="none" fill="#2288CC" stroke-width="1px"></path><path d="M 143.509719 194.851444 L 136.916567 194.851444 L 130.323414 194.851444 L 130.710966 206.083441 L 131.098517 217.315438 L 137.691669 217.315438 L 144.284822 217.315438 L 143.897270 206.083441 L 143.509719 194.851444" stroke="none" fill="#2288CC" stroke-width="1px"></path><path d="M 191.017199 194.851444 L 184.427859 194.851444 L 177.838519 194.851444 L 177.903132 206.083441 L 177.967746 217.315438 L 184.557086 217.315438 L 191.146426 217.315438 L 191.081812 206.083441 L 191.017199 194.851444" stroke="none" fill="#2288CC" stroke-width="1px"></path><path d="M 240.694517 190.974018 L 240.694517 192.737457 L 240.694517 194.500896 L 238.523386 194.500896 L 236.352255 194.500896 L 237.796354 205.732893 L 239.240452 216.964890 L 245.883921 216.964890 L 252.527390 216.964890 L 250.787526 203.432472 L 249.047661 189.900053 L 244.871089 190.437035 L 240.694517 190.974018" stroke="none" fill="#2288CC" stroke-width="1px"></path><path d="M 244.109825 164.494159 L 244.109825 171.083400 L 244.109825 177.672640 L 261.598517 177.643667 L 279.087210 177.614694 L 279.087210 171.025454 L 279.087210 164.436214 L 261.598517 164.465187 L 244.109825 164.494159" stroke="none" fill="#2288CC" stroke-width="1px"></path><path d="M 224.803723 41.482558 L 224.803723 44.335360 L 224.803723 47.188162 L 233.886027 52.003900 L 242.968331 56.819637 L 245.325057 55.227739 L 247.681784 53.635841 L 249.592511 50.032280 L 251.503238 46.428720 L 240.059535 40.360890 L 228.615832 34.293061 L 226.709777 37.887810 L 224.803723 41.482558" stroke="none" fill="#2288CC" stroke-width="1px"></path><path d="M 251.972443 59.596169 L 248.800355 61.738819 L 245.628268 63.881468 L 243.473839 82.885391 L 241.319410 101.889313 L 247.950849 101.889313 L 254.582288 101.889313 L 256.932646 81.157132 L 259.283003 60.424950 L 255.627723 60.010560 L 251.972443 59.596169" stroke="none" fill="#2288CC" stroke-width="1px"></path><path d="M 222.921649 80.663121 L 194.400487 80.663121 L 205.691707 93.841583 L 222.921649 93.841583 L 222.921649 80.663121" stroke="none" fill="#2288CC" stroke-width="1px"></path><path d="M 192.708167 104.651980 L 201.385198 104.651980 L 210.062230 104.651980 L 200.506654 93.499261 L 190.951079 82.346543 L 189.431671 82.346543 L 187.912263 82.346543 L 184.611677 86.848256 L 181.311091 91.349968 L 187.009629 98.000974 L 192.708167 104.651980" stroke="none" fill="#2288CC" stroke-width="1px"></path><path d="M 165.992783 81.924102 L 152.813365 81.924102 L 153.081943 104.229539 L 164.657512 104.229539 L 166.235447 102.077373 L 165.992783 81.924102" stroke="none" fill="#2288CC" stroke-width="1px"></path><path d="M 106.141715 81.939507 L 99.552484 81.939507 L 92.963253 81.939507 L 92.963253 93.092226 L 92.963253 104.244945 L 99.552484 104.244945 L 106.141715 104.244945 L 106.141715 93.092226 L 106.141715 81.939507" stroke="none" fill="#2288CC" stroke-width="1px"></path><path d="M 58.832882 96.407707 L 58.832882 89.539578 L 58.832882 82.671449 L 37.129379 76.290320 L 15.425876 69.909190 L 15.425876 76.777319 L 15.425876 83.645448 L 37.129379 90.026577 L 58.832882 96.407707" stroke="none" fill="#2288CC" stroke-width="1px"></path><path d="M 58.832882 25.422955 L 58.832882 18.833724 L 58.832882 12.244493 L 37.129379 12.244492 L 15.425876 12.244492 L 15.425876 18.833723 L 15.425876 25.422954 L 37.129379 25.422954 L 58.832882 25.422955" stroke="none" fill="#2288CC" stroke-width="1px"></path></g><g id="crv-desk"><path d="M 55.459383 220.180625 L 52.959383 220.180625 L 52.959383 226.180625 L 55.459383 226.180625 L 55.459383 220.180625" stroke="gray" fill="white" stroke-width="1px"></path><path d="M 55.459383 214.180625 L 52.959383 214.180625 L 52.959383 220.180625 L 55.459383 220.180625 L 55.459383 214.180625" stroke="gray" fill="white" stroke-width="1px"></path><path d="M 55.459383 208.180625 L 52.959383 208.180625 L 52.959383 214.180625 L 55.459383 214.180625 L 55.459383 208.180625" stroke="gray" fill="white" stroke-width="1px"></path><path d="M 43.459383 220.180625 L 40.959383 220.180625 L 40.959383 226.180625 L 43.459383 226.180625 L 43.459383 220.180625" stroke="gray" fill="white" stroke-width="1px"></path><path d="M 43.459383 214.180625 L 40.959383 214.180625 L 40.959383 220.180625 L 43.459383 220.180625 L 43.459383 214.180625" stroke="gray" fill="white" stroke-width="1px"></path><path d="M 31.459383 220.180625 L 28.959383 220.180625 L 28.959383 226.180625 L 31.459383 226.180625 L 31.459383 220.180625" stroke="gray" fill="white" stroke-width="1px"></path><path d="M 31.459383 214.180625 L 28.959383 214.180625 L 28.959383 220.180625 L 31.459383 220.180625 L 31.459383 214.180625" stroke="gray" fill="white" stroke-width="1px"></path><path d="M 19.459383 220.180625 L 16.959383 220.180625 L 16.959383 226.180625 L 19.459383 226.180625 L 19.459383 220.180625" stroke="gray" fill="white" stroke-width="1px"></path><path d="M 115.459383 214.123437 L 112.959383 214.123437 L 112.959383 220.123437 L 115.459383 220.123437 L 115.459383 214.123437" stroke="gray" fill="white" stroke-width="1px"></path><path d="M 103.459383 214.123437 L 100.959383 214.123437 L 100.959383 220.123437 L 103.459383 220.123437 L 103.459383 214.123437" stroke="gray" fill="white" stroke-width="1px"></path><path d="M 163.459383 214.123437 L 160.959383 214.123437 L 160.959383 220.123437 L 163.459383 220.123437 L 163.459383 214.123437" stroke="gray" fill="white" stroke-width="1px"></path><path d="M 163.459383 208.123437 L 160.959383 208.123437 L 160.959383 214.123437 L 163.459383 214.123437 L 163.459383 208.123437" stroke="gray" fill="white" stroke-width="1px"></path><path d="M 163.459383 202.123437 L 160.959383 202.123437 L 160.959383 208.123437 L 163.459383 208.123437 L 163.459383 202.123437" stroke="gray" fill="white" stroke-width="1px"></path><path d="M 163.459383 196.123437 L 160.959383 196.123437 L 160.959383 202.123437 L 163.459383 202.123437 L 163.459383 196.123437" stroke="gray" fill="white" stroke-width="1px"></path><path d="M 151.459383 214.123437 L 148.959383 214.123437 L 148.959383 220.123437 L 151.459383 220.123437 L 151.459383 214.123437" stroke="gray" fill="white" stroke-width="1px"></path><path d="M 151.459383 208.123437 L 148.959383 208.123437 L 148.959383 214.123437 L 151.459383 214.123437 L 151.459383 208.123437" stroke="gray" fill="white" stroke-width="1px"></path><path d="M 151.459383 202.123437 L 148.959383 202.123437 L 148.959383 208.123437 L 151.459383 208.123437 L 151.459383 202.123437" stroke="gray" fill="white" stroke-width="1px"></path><path d="M 151.459383 196.123437 L 148.959383 196.123437 L 148.959383 202.123437 L 151.459383 202.123437 L 151.459383 196.123437" stroke="gray" fill="white" stroke-width="1px"></path><path d="M 223.459383 214.123437 L 220.959383 214.123437 L 220.959383 220.123437 L 223.459383 220.123437 L 223.459383 214.123437" stroke="gray" fill="white" stroke-width="1px"></path><path d="M 223.459383 208.123437 L 220.959383 208.123437 L 220.959383 214.123437 L 223.459383 214.123437 L 223.459383 208.123437" stroke="gray" fill="white" stroke-width="1px"></path><path d="M 223.459383 202.123437 L 220.959383 202.123437 L 220.959383 208.123437 L 223.459383 208.123437 L 223.459383 202.123437" stroke="gray" fill="white" stroke-width="1px"></path><path d="M 223.459383 196.123437 L 220.959383 196.123437 L 220.959383 202.123437 L 223.459383 202.123437 L 223.459383 196.123437" stroke="gray" fill="white" stroke-width="1px"></path><path d="M 211.459383 214.123437 L 208.959383 214.123437 L 208.959383 220.123437 L 211.459383 220.123437 L 211.459383 214.123437" stroke="gray" fill="white" stroke-width="1px"></path><path d="M 211.459383 208.123437 L 208.959383 208.123437 L 208.959383 214.123437 L 211.459383 214.123437 L 211.459383 208.123437" stroke="gray" fill="white" stroke-width="1px"></path><path d="M 211.459383 202.123437 L 208.959383 202.123437 L 208.959383 208.123437 L 211.459383 208.123437 L 211.459383 202.123437" stroke="gray" fill="white" stroke-width="1px"></path><path d="M 211.459383 196.123437 L 208.959383 196.123437 L 208.959383 202.123437 L 211.459383 202.123437 L 211.459383 196.123437" stroke="gray" fill="white" stroke-width="1px"></path><path d="M 199.459383 214.123437 L 196.959383 214.123437 L 196.959383 220.123437 L 199.459383 220.123437 L 199.459383 214.123437" stroke="gray" fill="white" stroke-width="1px"></path><path d="M 199.459383 208.123437 L 196.959383 208.123437 L 196.959383 214.123437 L 199.459383 214.123437 L 199.459383 208.123437" stroke="gray" fill="white" stroke-width="1px"></path><path d="M 199.459383 202.123437 L 196.959383 202.123437 L 196.959383 208.123437 L 199.459383 208.123437 L 199.459383 202.123437" stroke="gray" fill="white" stroke-width="1px"></path><path d="M 199.459383 196.123437 L 196.959383 196.123437 L 196.959383 202.123437 L 199.459383 202.123437 L 199.459383 196.123437" stroke="gray" fill="white" stroke-width="1px"></path><path d="M 271.459383 214.123437 L 268.959383 214.123437 L 268.959383 220.123437 L 271.459383 220.123437 L 271.459383 214.123437" stroke="gray" fill="white" stroke-width="1px"></path><path d="M 271.459383 208.123437 L 268.959383 208.123437 L 268.959383 214.123437 L 271.459383 214.123437 L 271.459383 208.123437" stroke="gray" fill="white" stroke-width="1px"></path><path d="M 271.459383 202.123437 L 268.959383 202.123437 L 268.959383 208.123437 L 271.459383 208.123437 L 271.459383 202.123437" stroke="gray" fill="white" stroke-width="1px"></path><path d="M 271.459383 196.123437 L 268.959383 196.123437 L 268.959383 202.123437 L 271.459383 202.123437 L 271.459383 196.123437" stroke="gray" fill="white" stroke-width="1px"></path><path d="M 271.459383 190.123437 L 268.959383 190.123437 L 268.959383 196.123437 L 271.459383 196.123437 L 271.459383 190.123437" stroke="gray" fill="white" stroke-width="1px"></path><path d="M 271.459383 184.123437 L 268.959383 184.123437 L 268.959383 190.123437 L 271.459383 190.123437 L 271.459383 184.123437" stroke="gray" fill="white" stroke-width="1px"></path><path d="M 259.459383 214.123437 L 256.959383 214.123437 L 256.959383 220.123437 L 259.459383 220.123437 L 259.459383 214.123437" stroke="gray" fill="white" stroke-width="1px"></path><path d="M 259.459383 208.123437 L 256.959383 208.123437 L 256.959383 214.123437 L 259.459383 214.123437 L 259.459383 208.123437" stroke="gray" fill="white" stroke-width="1px"></path><path d="M 259.459383 202.123437 L 256.959383 202.123437 L 256.959383 208.123437 L 259.459383 208.123437 L 259.459383 202.123437" stroke="gray" fill="white" stroke-width="1px"></path><path d="M 259.459383 196.123437 L 256.959383 196.123437 L 256.959383 202.123437 L 259.459383 202.123437 L 259.459383 196.123437" stroke="gray" fill="white" stroke-width="1px"></path><path d="M 259.459383 190.123437 L 256.959383 190.123437 L 256.959383 196.123437 L 259.459383 196.123437 L 259.459383 190.123437" stroke="gray" fill="white" stroke-width="1px"></path><path d="M 259.459383 184.123437 L 256.959383 184.123437 L 256.959383 190.123437 L 259.459383 190.123437 L 259.459383 184.123437" stroke="gray" fill="white" stroke-width="1px"></path><path d="M 247.459383 184.104258 L 244.959383 184.104258 L 244.959383 190.104258 L 247.459383 190.104258 L 247.459383 184.104258" stroke="gray" fill="white" stroke-width="1px"></path><path d="M 55.459383 220.180625 L 57.959383 220.180625 L 57.959383 226.180625 L 55.459383 226.180625 L 55.459383 220.180625" stroke="gray" fill="white" stroke-width="1px"></path><path d="M 55.459383 214.180625 L 57.959383 214.180625 L 57.959383 220.180625 L 55.459383 220.180625 L 55.459383 214.180625" stroke="gray" fill="white" stroke-width="1px"></path><path d="M 55.459383 208.180625 L 57.959383 208.180625 L 57.959383 214.180625 L 55.459383 214.180625 L 55.459383 208.180625" stroke="gray" fill="white" stroke-width="1px"></path><path d="M 43.459383 220.180625 L 45.959383 220.180625 L 45.959383 226.180625 L 43.459383 226.180625 L 43.459383 220.180625" stroke="gray" fill="white" stroke-width="1px"></path><path d="M 43.459383 214.180625 L 45.959383 214.180625 L 45.959383 220.180625 L 43.459383 220.180625 L 43.459383 214.180625" stroke="gray" fill="white" stroke-width="1px"></path><path d="M 31.459383 220.180625 L 33.959383 220.180625 L 33.959383 226.180625 L 31.459383 226.180625 L 31.459383 220.180625" stroke="gray" fill="white" stroke-width="1px"></path><path d="M 31.459383 214.180625 L 33.959383 214.180625 L 33.959383 220.180625 L 31.459383 220.180625 L 31.459383 214.180625" stroke="gray" fill="white" stroke-width="1px"></path><path d="M 19.459383 220.180625 L 21.959383 220.180625 L 21.959383 226.180625 L 19.459383 226.180625 L 19.459383 220.180625" stroke="gray" fill="white" stroke-width="1px"></path><path d="M 115.459383 214.123437 L 117.959383 214.123437 L 117.959383 220.123437 L 115.459383 220.123437 L 115.459383 214.123437" stroke="gray" fill="white" stroke-width="1px"></path><path d="M 103.459383 214.123437 L 105.959383 214.123437 L 105.959383 220.123437 L 103.459383 220.123437 L 103.459383 214.123437" stroke="gray" fill="white" stroke-width="1px"></path><path d="M 163.459383 214.123437 L 165.959383 214.123437 L 165.959383 220.123437 L 163.459383 220.123437 L 163.459383 214.123437" stroke="gray" fill="white" stroke-width="1px"></path><path d="M 163.459383 208.123437 L 165.959383 208.123437 L 165.959383 214.123437 L 163.459383 214.123437 L 163.459383 208.123437" stroke="gray" fill="white" stroke-width="1px"></path><path d="M 163.459383 202.123437 L 165.959383 202.123437 L 165.959383 208.123437 L 163.459383 208.123437 L 163.459383 202.123437" stroke="gray" fill="white" stroke-width="1px"></path><path d="M 163.459383 196.123437 L 165.959383 196.123437 L 165.959383 202.123437 L 163.459383 202.123437 L 163.459383 196.123437" stroke="gray" fill="white" stroke-width="1px"></path><path d="M 151.459383 214.123437 L 153.959383 214.123437 L 153.959383 220.123437 L 151.459383 220.123437 L 151.459383 214.123437" stroke="gray" fill="white" stroke-width="1px"></path><path d="M 151.459383 208.123437 L 153.959383 208.123437 L 153.959383 214.123437 L 151.459383 214.123437 L 151.459383 208.123437" stroke="gray" fill="white" stroke-width="1px"></path><path d="M 151.459383 202.123437 L 153.959383 202.123437 L 153.959383 208.123437 L 151.459383 208.123437 L 151.459383 202.123437" stroke="gray" fill="white" stroke-width="1px"></path><path d="M 151.459383 196.123437 L 153.959383 196.123437 L 153.959383 202.123437 L 151.459383 202.123437 L 151.459383 196.123437" stroke="gray" fill="white" stroke-width="1px"></path><path d="M 223.459383 214.123437 L 225.959383 214.123437 L 225.959383 220.123437 L 223.459383 220.123437 L 223.459383 214.123437" stroke="gray" fill="white" stroke-width="1px"></path><path d="M 223.459383 208.123437 L 225.959383 208.123437 L 225.959383 214.123437 L 223.459383 214.123437 L 223.459383 208.123437" stroke="gray" fill="white" stroke-width="1px"></path><path d="M 223.459383 202.123437 L 225.959383 202.123437 L 225.959383 208.123437 L 223.459383 208.123437 L 223.459383 202.123437" stroke="gray" fill="white" stroke-width="1px"></path><path d="M 223.459383 196.123437 L 225.959383 196.123437 L 225.959383 202.123437 L 223.459383 202.123437 L 223.459383 196.123437" stroke="gray" fill="white" stroke-width="1px"></path><path d="M 211.459383 214.123437 L 213.959383 214.123437 L 213.959383 220.123437 L 211.459383 220.123437 L 211.459383 214.123437" stroke="gray" fill="white" stroke-width="1px"></path><path d="M 211.459383 208.123437 L 213.959383 208.123437 L 213.959383 214.123437 L 211.459383 214.123437 L 211.459383 208.123437" stroke="gray" fill="white" stroke-width="1px"></path><path d="M 211.459383 202.123437 L 213.959383 202.123437 L 213.959383 208.123437 L 211.459383 208.123437 L 211.459383 202.123437" stroke="gray" fill="white" stroke-width="1px"></path><path d="M 211.459383 196.123437 L 213.959383 196.123437 L 213.959383 202.123437 L 211.459383 202.123437 L 211.459383 196.123437" stroke="gray" fill="white" stroke-width="1px"></path><path d="M 199.459383 214.123437 L 201.959383 214.123437 L 201.959383 220.123437 L 199.459383 220.123437 L 199.459383 214.123437" stroke="gray" fill="white" stroke-width="1px"></path><path d="M 199.459383 208.123437 L 201.959383 208.123437 L 201.959383 214.123437 L 199.459383 214.123437 L 199.459383 208.123437" stroke="gray" fill="white" stroke-width="1px"></path><path d="M 199.459383 202.123437 L 201.959383 202.123437 L 201.959383 208.123437 L 199.459383 208.123437 L 199.459383 202.123437" stroke="gray" fill="white" stroke-width="1px"></path><path d="M 199.459383 196.123437 L 201.959383 196.123437 L 201.959383 202.123437 L 199.459383 202.123437 L 199.459383 196.123437" stroke="gray" fill="white" stroke-width="1px"></path><path d="M 271.459383 214.123437 L 273.959383 214.123437 L 273.959383 220.123437 L 271.459383 220.123437 L 271.459383 214.123437" stroke="gray" fill="white" stroke-width="1px"></path><path d="M 271.459383 208.123437 L 273.959383 208.123437 L 273.959383 214.123437 L 271.459383 214.123437 L 271.459383 208.123437" stroke="gray" fill="white" stroke-width="1px"></path><path d="M 271.459383 202.123437 L 273.959383 202.123437 L 273.959383 208.123437 L 271.459383 208.123437 L 271.459383 202.123437" stroke="gray" fill="white" stroke-width="1px"></path><path d="M 271.459383 196.123437 L 273.959383 196.123437 L 273.959383 202.123437 L 271.459383 202.123437 L 271.459383 196.123437" stroke="gray" fill="white" stroke-width="1px"></path><path d="M 271.459383 190.123437 L 273.959383 190.123437 L 273.959383 196.123437 L 271.459383 196.123437 L 271.459383 190.123437" stroke="gray" fill="white" stroke-width="1px"></path><path d="M 271.459383 184.123437 L 273.959383 184.123437 L 273.959383 190.123437 L 271.459383 190.123437 L 271.459383 184.123437" stroke="gray" fill="white" stroke-width="1px"></path><path d="M 259.459383 214.123437 L 261.959383 214.123437 L 261.959383 220.123437 L 259.459383 220.123437 L 259.459383 214.123437" stroke="gray" fill="white" stroke-width="1px"></path><path d="M 259.459383 208.123437 L 261.959383 208.123437 L 261.959383 214.123437 L 259.459383 214.123437 L 259.459383 208.123437" stroke="gray" fill="white" stroke-width="1px"></path><path d="M 259.459383 202.123437 L 261.959383 202.123437 L 261.959383 208.123437 L 259.459383 208.123437 L 259.459383 202.123437" stroke="gray" fill="white" stroke-width="1px"></path><path d="M 259.459383 196.123437 L 261.959383 196.123437 L 261.959383 202.123437 L 259.459383 202.123437 L 259.459383 196.123437" stroke="gray" fill="white" stroke-width="1px"></path><path d="M 259.459383 190.123437 L 261.959383 190.123437 L 261.959383 196.123437 L 259.459383 196.123437 L 259.459383 190.123437" stroke="gray" fill="white" stroke-width="1px"></path><path d="M 259.459383 184.123437 L 261.959383 184.123437 L 261.959383 190.123437 L 259.459383 190.123437 L 259.459383 184.123437" stroke="gray" fill="white" stroke-width="1px"></path><path d="M 247.459383 184.104258 L 249.959383 184.104258 L 249.959383 190.104258 L 247.459383 190.104258 L 247.459383 184.104258" stroke="gray" fill="white" stroke-width="1px"></path><path d="M 22.000000 184.123437 L 22.000000 181.623437 L 16.000000 181.623437 L 16.000000 184.123437 L 22.000000 184.123437" stroke="gray" fill="white" stroke-width="1px"></path><path d="M 28.000000 184.123437 L 28.000000 181.623437 L 22.000000 181.623437 L 22.000000 184.123437 L 28.000000 184.123437" stroke="gray" fill="white" stroke-width="1px"></path><path d="M 34.000000 184.123437 L 34.000000 181.623437 L 28.000000 181.623437 L 28.000000 184.123437 L 34.000000 184.123437" stroke="gray" fill="white" stroke-width="1px"></path><path d="M 22.000000 172.123437 L 22.000000 169.623437 L 16.000000 169.623437 L 16.000000 172.123437 L 22.000000 172.123437" stroke="gray" fill="white" stroke-width="1px"></path><path d="M 28.000000 172.123437 L 28.000000 169.623437 L 22.000000 169.623437 L 22.000000 172.123437 L 28.000000 172.123437" stroke="gray" fill="white" stroke-width="1px"></path><path d="M 34.000000 172.123437 L 34.000000 169.623437 L 28.000000 169.623437 L 28.000000 172.123437 L 34.000000 172.123437" stroke="gray" fill="white" stroke-width="1px"></path><path d="M 40.000000 172.123437 L 40.000000 169.623437 L 34.000000 169.623437 L 34.000000 172.123437 L 40.000000 172.123437" stroke="gray" fill="white" stroke-width="1px"></path><path d="M 22.000000 160.123437 L 22.000000 157.623437 L 16.000000 157.623437 L 16.000000 160.123437 L 22.000000 160.123437" stroke="gray" fill="white" stroke-width="1px"></path><path d="M 28.000000 160.123437 L 28.000000 157.623437 L 22.000000 157.623437 L 22.000000 160.123437 L 28.000000 160.123437" stroke="gray" fill="white" stroke-width="1px"></path><path d="M 34.000000 160.123437 L 34.000000 157.623437 L 28.000000 157.623437 L 28.000000 160.123437 L 34.000000 160.123437" stroke="gray" fill="white" stroke-width="1px"></path><path d="M 40.000000 160.123437 L 40.000000 157.623437 L 34.000000 157.623437 L 34.000000 160.123437 L 40.000000 160.123437" stroke="gray" fill="white" stroke-width="1px"></path><path d="M 22.000000 148.123437 L 22.000000 145.623437 L 16.000000 145.623437 L 16.000000 148.123437 L 22.000000 148.123437" stroke="gray" fill="white" stroke-width="1px"></path><path d="M 28.000000 148.123437 L 28.000000 145.623437 L 22.000000 145.623437 L 22.000000 148.123437 L 28.000000 148.123437" stroke="gray" fill="white" stroke-width="1px"></path><path d="M 34.000000 148.123437 L 34.000000 145.623437 L 28.000000 145.623437 L 28.000000 148.123437 L 34.000000 148.123437" stroke="gray" fill="white" stroke-width="1px"></path><path d="M 40.000000 148.123437 L 40.000000 145.623437 L 34.000000 145.623437 L 34.000000 148.123437 L 40.000000 148.123437" stroke="gray" fill="white" stroke-width="1px"></path><path d="M 22.000000 136.123437 L 22.000000 133.623437 L 16.000000 133.623437 L 16.000000 136.123437 L 22.000000 136.123437" stroke="gray" fill="white" stroke-width="1px"></path><path d="M 28.000000 136.123437 L 28.000000 133.623437 L 22.000000 133.623437 L 22.000000 136.123437 L 28.000000 136.123437" stroke="gray" fill="white" stroke-width="1px"></path><path d="M 34.000000 136.123437 L 34.000000 133.623437 L 28.000000 133.623437 L 28.000000 136.123437 L 34.000000 136.123437" stroke="gray" fill="white" stroke-width="1px"></path><path d="M 40.000000 136.123437 L 40.000000 133.623437 L 34.000000 133.623437 L 34.000000 136.123437 L 40.000000 136.123437" stroke="gray" fill="white" stroke-width="1px"></path><path d="M 251.737652 148.123437 L 251.737652 145.623437 L 245.737652 145.623437 L 245.737652 148.123437 L 251.737652 148.123437" stroke="gray" fill="white" stroke-width="1px"></path><path d="M 257.737652 148.123437 L 257.737652 145.623437 L 251.737652 145.623437 L 251.737652 148.123437 L 257.737652 148.123437" stroke="gray" fill="white" stroke-width="1px"></path><path d="M 263.737652 148.123437 L 263.737652 145.623437 L 257.737652 145.623437 L 257.737652 148.123437 L 263.737652 148.123437" stroke="gray" fill="white" stroke-width="1px"></path><path d="M 269.737652 148.123437 L 269.737652 145.623437 L 263.737652 145.623437 L 263.737652 148.123437 L 269.737652 148.123437" stroke="gray" fill="white" stroke-width="1px"></path><path d="M 275.737652 148.123437 L 275.737652 145.623437 L 269.737652 145.623437 L 269.737652 148.123437 L 275.737652 148.123437" stroke="gray" fill="white" stroke-width="1px"></path><path d="M 251.737652 136.123437 L 251.737652 133.623437 L 245.737652 133.623437 L 245.737652 136.123437 L 251.737652 136.123437" stroke="gray" fill="white" stroke-width="1px"></path><path d="M 257.737652 136.123437 L 257.737652 133.623437 L 251.737652 133.623437 L 251.737652 136.123437 L 257.737652 136.123437" stroke="gray" fill="white" stroke-width="1px"></path><path d="M 263.737652 136.123437 L 263.737652 133.623437 L 257.737652 133.623437 L 257.737652 136.123437 L 263.737652 136.123437" stroke="gray" fill="white" stroke-width="1px"></path><path d="M 269.737652 136.123437 L 269.737652 133.623437 L 263.737652 133.623437 L 263.737652 136.123437 L 269.737652 136.123437" stroke="gray" fill="white" stroke-width="1px"></path><path d="M 275.737652 136.123437 L 275.737652 133.623437 L 269.737652 133.623437 L 269.737652 136.123437 L 275.737652 136.123437" stroke="gray" fill="white" stroke-width="1px"></path><path d="M 22.000000 184.123437 L 22.000000 186.623437 L 16.000000 186.623437 L 16.000000 184.123437 L 22.000000 184.123437" stroke="gray" fill="white" stroke-width="1px"></path><path d="M 28.000000 184.123437 L 28.000000 186.623437 L 22.000000 186.623437 L 22.000000 184.123437 L 28.000000 184.123437" stroke="gray" fill="white" stroke-width="1px"></path><path d="M 34.000000 184.123437 L 34.000000 186.623437 L 28.000000 186.623437 L 28.000000 184.123437 L 34.000000 184.123437" stroke="gray" fill="white" stroke-width="1px"></path><path d="M 22.000000 172.123437 L 22.000000 174.623437 L 16.000000 174.623437 L 16.000000 172.123437 L 22.000000 172.123437" stroke="gray" fill="white" stroke-width="1px"></path><path d="M 28.000000 172.123437 L 28.000000 174.623437 L 22.000000 174.623437 L 22.000000 172.123437 L 28.000000 172.123437" stroke="gray" fill="white" stroke-width="1px"></path><path d="M 34.000000 172.123437 L 34.000000 174.623437 L 28.000000 174.623437 L 28.000000 172.123437 L 34.000000 172.123437" stroke="gray" fill="white" stroke-width="1px"></path><path d="M 40.000000 172.123437 L 40.000000 174.623437 L 34.000000 174.623437 L 34.000000 172.123437 L 40.000000 172.123437" stroke="gray" fill="white" stroke-width="1px"></path><path d="M 22.000000 160.123437 L 22.000000 162.623437 L 16.000000 162.623437 L 16.000000 160.123437 L 22.000000 160.123437" stroke="gray" fill="white" stroke-width="1px"></path><path d="M 28.000000 160.123437 L 28.000000 162.623437 L 22.000000 162.623437 L 22.000000 160.123437 L 28.000000 160.123437" stroke="gray" fill="white" stroke-width="1px"></path><path d="M 34.000000 160.123437 L 34.000000 162.623437 L 28.000000 162.623437 L 28.000000 160.123437 L 34.000000 160.123437" stroke="gray" fill="white" stroke-width="1px"></path><path d="M 40.000000 160.123437 L 40.000000 162.623437 L 34.000000 162.623437 L 34.000000 160.123437 L 40.000000 160.123437" stroke="gray" fill="white" stroke-width="1px"></path><path d="M 22.000000 148.123437 L 22.000000 150.623437 L 16.000000 150.623437 L 16.000000 148.123437 L 22.000000 148.123437" stroke="gray" fill="white" stroke-width="1px"></path><path d="M 28.000000 148.123437 L 28.000000 150.623437 L 22.000000 150.623437 L 22.000000 148.123437 L 28.000000 148.123437" stroke="gray" fill="white" stroke-width="1px"></path><path d="M 34.000000 148.123437 L 34.000000 150.623437 L 28.000000 150.623437 L 28.000000 148.123437 L 34.000000 148.123437" stroke="gray" fill="white" stroke-width="1px"></path><path d="M 40.000000 148.123437 L 40.000000 150.623437 L 34.000000 150.623437 L 34.000000 148.123437 L 40.000000 148.123437" stroke="gray" fill="white" stroke-width="1px"></path><path d="M 22.000000 136.123437 L 22.000000 138.623437 L 16.000000 138.623437 L 16.000000 136.123437 L 22.000000 136.123437" stroke="gray" fill="white" stroke-width="1px"></path><path d="M 28.000000 136.123437 L 28.000000 138.623437 L 22.000000 138.623437 L 22.000000 136.123437 L 28.000000 136.123437" stroke="gray" fill="white" stroke-width="1px"></path><path d="M 34.000000 136.123437 L 34.000000 138.623437 L 28.000000 138.623437 L 28.000000 136.123437 L 34.000000 136.123437" stroke="gray" fill="white" stroke-width="1px"></path><path d="M 40.000000 136.123437 L 40.000000 138.623437 L 34.000000 138.623437 L 34.000000 136.123437 L 40.000000 136.123437" stroke="gray" fill="white" stroke-width="1px"></path><path d="M 251.737652 148.123437 L 251.737652 150.623437 L 245.737652 150.623437 L 245.737652 148.123437 L 251.737652 148.123437" stroke="gray" fill="white" stroke-width="1px"></path><path d="M 257.737652 148.123437 L 257.737652 150.623437 L 251.737652 150.623437 L 251.737652 148.123437 L 257.737652 148.123437" stroke="gray" fill="white" stroke-width="1px"></path><path d="M 263.737652 148.123437 L 263.737652 150.623437 L 257.737652 150.623437 L 257.737652 148.123437 L 263.737652 148.123437" stroke="gray" fill="white" stroke-width="1px"></path><path d="M 269.737652 148.123437 L 269.737652 150.623437 L 263.737652 150.623437 L 263.737652 148.123437 L 269.737652 148.123437" stroke="gray" fill="white" stroke-width="1px"></path><path d="M 275.737652 148.123437 L 275.737652 150.623437 L 269.737652 150.623437 L 269.737652 148.123437 L 275.737652 148.123437" stroke="gray" fill="white" stroke-width="1px"></path><path d="M 251.737652 136.123437 L 251.737652 138.623437 L 245.737652 138.623437 L 245.737652 136.123437 L 251.737652 136.123437" stroke="gray" fill="white" stroke-width="1px"></path><path d="M 257.737652 136.123437 L 257.737652 138.623437 L 251.737652 138.623437 L 251.737652 136.123437 L 257.737652 136.123437" stroke="gray" fill="white" stroke-width="1px"></path><path d="M 263.737652 136.123437 L 263.737652 138.623437 L 257.737652 138.623437 L 257.737652 136.123437 L 263.737652 136.123437" stroke="gray" fill="white" stroke-width="1px"></path><path d="M 269.737652 136.123437 L 269.737652 138.623437 L 263.737652 138.623437 L 263.737652 136.123437 L 269.737652 136.123437" stroke="gray" fill="white" stroke-width="1px"></path><path d="M 275.737652 136.123437 L 275.737652 138.623437 L 269.737652 138.623437 L 269.737652 136.123437 L 275.737652 136.123437" stroke="gray" fill="white" stroke-width="1px"></path><path d="M 271.459383 35.274844 L 268.959383 35.274844 L 268.959383 41.274844 L 271.459383 41.274844 L 271.459383 35.274844" stroke="gray" fill="white" stroke-width="1px"></path><path d="M 271.459383 29.274844 L 268.959383 29.274844 L 268.959383 35.274844 L 271.459383 35.274844 L 271.459383 29.274844" stroke="gray" fill="white" stroke-width="1px"></path><path d="M 271.459383 23.274844 L 268.959383 23.274844 L 268.959383 29.274844 L 271.459383 29.274844 L 271.459383 23.274844" stroke="gray" fill="white" stroke-width="1px"></path><path d="M 271.459383 17.274844 L 268.959383 17.274844 L 268.959383 23.274844 L 271.459383 23.274844 L 271.459383 17.274844" stroke="gray" fill="white" stroke-width="1px"></path><path d="M 259.459383 43.380483 L 256.959383 43.380483 L 256.959383 49.380483 L 259.459383 49.380483 L 259.459383 43.380483" stroke="gray" fill="white" stroke-width="1px"></path><path d="M 259.459383 37.380483 L 256.959383 37.380483 L 256.959383 43.380483 L 259.459383 43.380483 L 259.459383 37.380483" stroke="gray" fill="white" stroke-width="1px"></path><path d="M 259.459383 31.380483 L 256.959383 31.380483 L 256.959383 37.380483 L 259.459383 37.380483 L 259.459383 31.380483" stroke="gray" fill="white" stroke-width="1px"></path><path d="M 259.459383 25.380483 L 256.959383 25.380483 L 256.959383 31.380483 L 259.459383 31.380483 L 259.459383 25.380483" stroke="gray" fill="white" stroke-width="1px"></path><path d="M 259.459383 19.380483 L 256.959383 19.380483 L 256.959383 25.380483 L 259.459383 25.380483 L 259.459383 19.380483" stroke="gray" fill="white" stroke-width="1px"></path><path d="M 259.459383 13.380483 L 256.959383 13.380483 L 256.959383 19.380483 L 259.459383 19.380483 L 259.459383 13.380483" stroke="gray" fill="white" stroke-width="1px"></path><path d="M 247.459383 32.284534 L 244.959383 32.284534 L 244.959383 38.284534 L 247.459383 38.284534 L 247.459383 32.284534" stroke="gray" fill="white" stroke-width="1px"></path><path d="M 247.459383 26.284534 L 244.959383 26.284534 L 244.959383 32.284534 L 247.459383 32.284534 L 247.459383 26.284534" stroke="gray" fill="white" stroke-width="1px"></path><path d="M 247.459383 20.284534 L 244.959383 20.284534 L 244.959383 26.284534 L 247.459383 26.284534 L 247.459383 20.284534" stroke="gray" fill="white" stroke-width="1px"></path><path d="M 247.459383 14.284534 L 244.959383 14.284534 L 244.959383 20.284534 L 247.459383 20.284534 L 247.459383 14.284534" stroke="gray" fill="white" stroke-width="1px"></path><path d="M 235.459383 25.921738 L 232.959383 25.921738 L 232.959383 31.921738 L 235.459383 31.921738 L 235.459383 25.921738" stroke="gray" fill="white" stroke-width="1px"></path><path d="M 235.459383 19.921738 L 232.959383 19.921738 L 232.959383 25.921738 L 235.459383 25.921738 L 235.459383 19.921738" stroke="gray" fill="white" stroke-width="1px"></path><path d="M 235.459383 13.921738 L 232.959383 13.921738 L 232.959383 19.921738 L 235.459383 19.921738 L 235.459383 13.921738" stroke="gray" fill="white" stroke-width="1px"></path><path d="M 175.459383 101.033125 L 172.959383 101.033125 L 172.959383 107.033125 L 175.459383 107.033125 L 175.459383 101.033125" stroke="gray" fill="white" stroke-width="1px"></path><path d="M 175.459383 88.058617 L 172.959383 88.058617 L 172.959383 94.058617 L 175.459383 94.058617 L 175.459383 88.058617" stroke="gray" fill="white" stroke-width="1px"></path><path d="M 175.459383 82.058617 L 172.959383 82.058617 L 172.959383 88.058617 L 175.459383 88.058617 L 175.459383 82.058617" stroke="gray" fill="white" stroke-width="1px"></path><path d="M 139.459383 101.033125 L 136.959383 101.033125 L 136.959383 107.033125 L 139.459383 107.033125 L 139.459383 101.033125" stroke="gray" fill="white" stroke-width="1px"></path><path d="M 139.459383 95.033125 L 136.959383 95.033125 L 136.959383 101.033125 L 139.459383 101.033125 L 139.459383 95.033125" stroke="gray" fill="white" stroke-width="1px"></path><path d="M 139.459383 89.033125 L 136.959383 89.033125 L 136.959383 95.033125 L 139.459383 95.033125 L 139.459383 89.033125" stroke="gray" fill="white" stroke-width="1px"></path><path d="M 139.459383 83.033125 L 136.959383 83.033125 L 136.959383 89.033125 L 139.459383 89.033125 L 139.459383 83.033125" stroke="gray" fill="white" stroke-width="1px"></path><path d="M 127.459383 101.033125 L 124.959383 101.033125 L 124.959383 107.033125 L 127.459383 107.033125 L 127.459383 101.033125" stroke="gray" fill="white" stroke-width="1px"></path><path d="M 127.459383 95.033125 L 124.959383 95.033125 L 124.959383 101.033125 L 127.459383 101.033125 L 127.459383 95.033125" stroke="gray" fill="white" stroke-width="1px"></path><path d="M 127.459383 89.033125 L 124.959383 89.033125 L 124.959383 95.033125 L 127.459383 95.033125 L 127.459383 89.033125" stroke="gray" fill="white" stroke-width="1px"></path><path d="M 127.459383 83.033125 L 124.959383 83.033125 L 124.959383 89.033125 L 127.459383 89.033125 L 127.459383 83.033125" stroke="gray" fill="white" stroke-width="1px"></path><path d="M 115.459383 101.033125 L 112.959383 101.033125 L 112.959383 107.033125 L 115.459383 107.033125 L 115.459383 101.033125" stroke="gray" fill="white" stroke-width="1px"></path><path d="M 115.459383 95.033125 L 112.959383 95.033125 L 112.959383 101.033125 L 115.459383 101.033125 L 115.459383 95.033125" stroke="gray" fill="white" stroke-width="1px"></path><path d="M 115.459383 89.033125 L 112.959383 89.033125 L 112.959383 95.033125 L 115.459383 95.033125 L 115.459383 89.033125" stroke="gray" fill="white" stroke-width="1px"></path><path d="M 115.459383 83.033125 L 112.959383 83.033125 L 112.959383 89.033125 L 115.459383 89.033125 L 115.459383 83.033125" stroke="gray" fill="white" stroke-width="1px"></path><path d="M 55.459383 107.090312 L 52.959383 107.090312 L 52.959383 113.090312 L 55.459383 113.090312 L 55.459383 107.090312" stroke="gray" fill="white" stroke-width="1px"></path><path d="M 43.459383 107.090312 L 40.959383 107.090312 L 40.959383 113.090312 L 43.459383 113.090312 L 43.459383 107.090312" stroke="gray" fill="white" stroke-width="1px"></path><path d="M 43.459383 101.090312 L 40.959383 101.090312 L 40.959383 107.090312 L 43.459383 107.090312 L 43.459383 101.090312" stroke="gray" fill="white" stroke-width="1px"></path><path d="M 31.459383 107.090312 L 28.959383 107.090312 L 28.959383 113.090312 L 31.459383 113.090312 L 31.459383 107.090312" stroke="gray" fill="white" stroke-width="1px"></path><path d="M 31.459383 101.090312 L 28.959383 101.090312 L 28.959383 107.090312 L 31.459383 107.090312 L 31.459383 101.090312" stroke="gray" fill="white" stroke-width="1px"></path><path d="M 31.459383 95.090312 L 28.959383 95.090312 L 28.959383 101.090312 L 31.459383 101.090312 L 31.459383 95.090312" stroke="gray" fill="white" stroke-width="1px"></path><path d="M 19.459383 107.090312 L 16.959383 107.090312 L 16.959383 113.090312 L 19.459383 113.090312 L 19.459383 107.090312" stroke="gray" fill="white" stroke-width="1px"></path><path d="M 19.459383 101.090312 L 16.959383 101.090312 L 16.959383 107.090312 L 19.459383 107.090312 L 19.459383 101.090312" stroke="gray" fill="white" stroke-width="1px"></path><path d="M 19.459383 95.090312 L 16.959383 95.090312 L 16.959383 101.090312 L 19.459383 101.090312 L 19.459383 95.090312" stroke="gray" fill="white" stroke-width="1px"></path><path d="M 271.459383 29.274844 L 273.959383 29.274844 L 273.959383 35.274844 L 271.459383 35.274844 L 271.459383 29.274844" stroke="gray" fill="white" stroke-width="1px"></path><path d="M 271.459383 23.274844 L 273.959383 23.274844 L 273.959383 29.274844 L 271.459383 29.274844 L 271.459383 23.274844" stroke="gray" fill="white" stroke-width="1px"></path><path d="M 271.459383 17.274844 L 273.959383 17.274844 L 273.959383 23.274844 L 271.459383 23.274844 L 271.459383 17.274844" stroke="gray" fill="white" stroke-width="1px"></path><path d="M 259.459383 37.380483 L 261.959383 37.380483 L 261.959383 43.380483 L 259.459383 43.380483 L 259.459383 37.380483" stroke="gray" fill="white" stroke-width="1px"></path><path d="M 259.459383 31.380483 L 261.959383 31.380483 L 261.959383 37.380483 L 259.459383 37.380483 L 259.459383 31.380483" stroke="gray" fill="white" stroke-width="1px"></path><path d="M 259.459383 25.380483 L 261.959383 25.380483 L 261.959383 31.380483 L 259.459383 31.380483 L 259.459383 25.380483" stroke="gray" fill="white" stroke-width="1px"></path><path d="M 259.459383 19.380483 L 261.959383 19.380483 L 261.959383 25.380483 L 259.459383 25.380483 L 259.459383 19.380483" stroke="gray" fill="white" stroke-width="1px"></path><path d="M 259.459383 13.380483 L 261.959383 13.380483 L 261.959383 19.380483 L 259.459383 19.380483 L 259.459383 13.380483" stroke="gray" fill="white" stroke-width="1px"></path><path d="M 247.459383 32.284534 L 249.959383 32.284534 L 249.959383 38.284534 L 247.459383 38.284534 L 247.459383 32.284534" stroke="gray" fill="white" stroke-width="1px"></path><path d="M 247.459383 26.284534 L 249.959383 26.284534 L 249.959383 32.284534 L 247.459383 32.284534 L 247.459383 26.284534" stroke="gray" fill="white" stroke-width="1px"></path><path d="M 247.459383 20.284534 L 249.959383 20.284534 L 249.959383 26.284534 L 247.459383 26.284534 L 247.459383 20.284534" stroke="gray" fill="white" stroke-width="1px"></path><path d="M 247.459383 14.284534 L 249.959383 14.284534 L 249.959383 20.284534 L 247.459383 20.284534 L 247.459383 14.284534" stroke="gray" fill="white" stroke-width="1px"></path><path d="M 235.459383 25.921738 L 237.959383 25.921738 L 237.959383 31.921738 L 235.459383 31.921738 L 235.459383 25.921738" stroke="gray" fill="white" stroke-width="1px"></path><path d="M 235.459383 19.921738 L 237.959383 19.921738 L 237.959383 25.921738 L 235.459383 25.921738 L 235.459383 19.921738" stroke="gray" fill="white" stroke-width="1px"></path><path d="M 235.459383 13.921738 L 237.959383 13.921738 L 237.959383 19.921738 L 235.459383 19.921738 L 235.459383 13.921738" stroke="gray" fill="white" stroke-width="1px"></path><path d="M 175.459383 101.033125 L 177.959383 101.033125 L 177.959383 107.033125 L 175.459383 107.033125 L 175.459383 101.033125" stroke="gray" fill="white" stroke-width="1px"></path><path d="M 175.459383 82.058617 L 177.959383 82.058617 L 177.959383 88.058617 L 175.459383 88.058617 L 175.459383 82.058617" stroke="gray" fill="white" stroke-width="1px"></path><path d="M 139.459383 101.033125 L 141.959383 101.033125 L 141.959383 107.033125 L 139.459383 107.033125 L 139.459383 101.033125" stroke="gray" fill="white" stroke-width="1px"></path><path d="M 139.459383 95.033125 L 141.959383 95.033125 L 141.959383 101.033125 L 139.459383 101.033125 L 139.459383 95.033125" stroke="gray" fill="white" stroke-width="1px"></path><path d="M 139.459383 89.033125 L 141.959383 89.033125 L 141.959383 95.033125 L 139.459383 95.033125 L 139.459383 89.033125" stroke="gray" fill="white" stroke-width="1px"></path><path d="M 139.459383 83.033125 L 141.959383 83.033125 L 141.959383 89.033125 L 139.459383 89.033125 L 139.459383 83.033125" stroke="gray" fill="white" stroke-width="1px"></path><path d="M 127.459383 101.033125 L 129.959383 101.033125 L 129.959383 107.033125 L 127.459383 107.033125 L 127.459383 101.033125" stroke="gray" fill="white" stroke-width="1px"></path><path d="M 127.459383 95.033125 L 129.959383 95.033125 L 129.959383 101.033125 L 127.459383 101.033125 L 127.459383 95.033125" stroke="gray" fill="white" stroke-width="1px"></path><path d="M 127.459383 89.033125 L 129.959383 89.033125 L 129.959383 95.033125 L 127.459383 95.033125 L 127.459383 89.033125" stroke="gray" fill="white" stroke-width="1px"></path><path d="M 127.459383 83.033125 L 129.959383 83.033125 L 129.959383 89.033125 L 127.459383 89.033125 L 127.459383 83.033125" stroke="gray" fill="white" stroke-width="1px"></path><path d="M 115.459383 101.033125 L 117.959383 101.033125 L 117.959383 107.033125 L 115.459383 107.033125 L 115.459383 101.033125" stroke="gray" fill="white" stroke-width="1px"></path><path d="M 115.459383 95.033125 L 117.959383 95.033125 L 117.959383 101.033125 L 115.459383 101.033125 L 115.459383 95.033125" stroke="gray" fill="white" stroke-width="1px"></path><path d="M 115.459383 89.033125 L 117.959383 89.033125 L 117.959383 95.033125 L 115.459383 95.033125 L 115.459383 89.033125" stroke="gray" fill="white" stroke-width="1px"></path><path d="M 115.459383 83.033125 L 117.959383 83.033125 L 117.959383 89.033125 L 115.459383 89.033125 L 115.459383 83.033125" stroke="gray" fill="white" stroke-width="1px"></path><path d="M 55.459383 107.090312 L 57.959383 107.090312 L 57.959383 113.090312 L 55.459383 113.090312 L 55.459383 107.090312" stroke="gray" fill="white" stroke-width="1px"></path><path d="M 43.459383 107.090312 L 45.959383 107.090312 L 45.959383 113.090312 L 43.459383 113.090312 L 43.459383 107.090312" stroke="gray" fill="white" stroke-width="1px"></path><path d="M 43.459383 101.090312 L 45.959383 101.090312 L 45.959383 107.090312 L 43.459383 107.090312 L 43.459383 101.090312" stroke="gray" fill="white" stroke-width="1px"></path><path d="M 31.459383 107.090312 L 33.959383 107.090312 L 33.959383 113.090312 L 31.459383 113.090312 L 31.459383 107.090312" stroke="gray" fill="white" stroke-width="1px"></path><path d="M 31.459383 101.090312 L 33.959383 101.090312 L 33.959383 107.090312 L 31.459383 107.090312 L 31.459383 101.090312" stroke="gray" fill="white" stroke-width="1px"></path><path d="M 31.459383 95.090312 L 33.959383 95.090312 L 33.959383 101.090312 L 31.459383 101.090312 L 31.459383 95.090312" stroke="gray" fill="white" stroke-width="1px"></path><path d="M 19.459383 107.090312 L 21.959383 107.090312 L 21.959383 113.090312 L 19.459383 113.090312 L 19.459383 107.090312" stroke="gray" fill="white" stroke-width="1px"></path><path d="M 19.459383 101.090312 L 21.959383 101.090312 L 21.959383 107.090312 L 19.459383 107.090312 L 19.459383 101.090312" stroke="gray" fill="white" stroke-width="1px"></path><path d="M 19.459383 95.090312 L 21.959383 95.090312 L 21.959383 101.090312 L 19.459383 101.090312 L 19.459383 95.090312" stroke="gray" fill="white" stroke-width="1px"></path><path d="M 266.653226 101.263579 L 266.653226 98.763579 L 260.653226 98.763579 L 260.653226 101.263579 L 266.653226 101.263579" stroke="gray" fill="white" stroke-width="1px"></path><path d="M 272.653226 101.263579 L 272.653226 98.763579 L 266.653226 98.763579 L 266.653226 101.263579 L 272.653226 101.263579" stroke="gray" fill="white" stroke-width="1px"></path><path d="M 278.653226 101.263579 L 278.653226 98.763579 L 272.653226 98.763579 L 272.653226 101.263579 L 278.653226 101.263579" stroke="gray" fill="white" stroke-width="1px"></path><path d="M 268.013637 89.263579 L 268.013637 86.763579 L 262.013637 86.763579 L 262.013637 89.263579 L 268.013637 89.263579" stroke="gray" fill="white" stroke-width="1px"></path><path d="M 274.013637 89.263579 L 274.013637 86.763579 L 268.013637 86.763579 L 268.013637 89.263579 L 274.013637 89.263579" stroke="gray" fill="white" stroke-width="1px"></path><path d="M 269.374048 77.263579 L 269.374048 74.763579 L 263.374048 74.763579 L 263.374048 77.263579 L 269.374048 77.263579" stroke="gray" fill="white" stroke-width="1px"></path><path d="M 275.374048 77.263579 L 275.374048 74.763579 L 269.374048 74.763579 L 269.374048 77.263579 L 275.374048 77.263579" stroke="gray" fill="white" stroke-width="1px"></path><path d="M 270.734460 65.263579 L 270.734460 62.763579 L 264.734460 62.763579 L 264.734460 65.263579 L 270.734460 65.263579" stroke="gray" fill="white" stroke-width="1px"></path><path d="M 276.734460 65.263579 L 276.734460 62.763579 L 270.734460 62.763579 L 270.734460 65.263579 L 276.734460 65.263579" stroke="gray" fill="white" stroke-width="1px"></path><path d="M 265.710650 53.263579 L 265.710650 50.763579 L 259.710650 50.763579 L 259.710650 53.263579 L 265.710650 53.263579" stroke="gray" fill="white" stroke-width="1px"></path><path d="M 271.710650 53.263579 L 271.710650 50.763579 L 265.710650 50.763579 L 265.710650 53.263579 L 271.710650 53.263579" stroke="gray" fill="white" stroke-width="1px"></path><path d="M 277.710650 53.263579 L 277.710650 50.763579 L 271.710650 50.763579 L 271.710650 53.263579 L 277.710650 53.263579" stroke="gray" fill="white" stroke-width="1px"></path><path d="M 221.133325 101.263579 L 221.133325 98.763579 L 215.133325 98.763579 L 215.133325 101.263579 L 221.133325 101.263579" stroke="gray" fill="white" stroke-width="1px"></path><path d="M 227.133325 101.263579 L 227.133325 98.763579 L 221.133325 98.763579 L 221.133325 101.263579 L 227.133325 101.263579" stroke="gray" fill="white" stroke-width="1px"></path><path d="M 233.133325 101.263579 L 233.133325 98.763579 L 227.133325 98.763579 L 227.133325 101.263579 L 233.133325 101.263579" stroke="gray" fill="white" stroke-width="1px"></path><path d="M 234.921649 89.263579 L 234.921649 86.763579 L 228.921649 86.763579 L 228.921649 89.263579 L 234.921649 89.263579" stroke="gray" fill="white" stroke-width="1px"></path><path d="M 233.737654 77.263579 L 233.737654 74.763579 L 227.737654 74.763579 L 227.737654 77.263579 L 233.737654 77.263579" stroke="gray" fill="white" stroke-width="1px"></path><path d="M 233.737654 65.263579 L 233.737654 62.763579 L 227.737654 62.763579 L 227.737654 65.263579 L 233.737654 65.263579" stroke="gray" fill="white" stroke-width="1px"></path><path d="M 22.000000 65.263579 L 22.000000 62.763579 L 16.000000 62.763579 L 16.000000 65.263579 L 22.000000 65.263579" stroke="gray" fill="white" stroke-width="1px"></path><path d="M 28.000000 65.263579 L 28.000000 62.763579 L 22.000000 62.763579 L 22.000000 65.263579 L 28.000000 65.263579" stroke="gray" fill="white" stroke-width="1px"></path><path d="M 34.000000 65.263579 L 34.000000 62.763579 L 28.000000 62.763579 L 28.000000 65.263579 L 34.000000 65.263579" stroke="gray" fill="white" stroke-width="1px"></path><path d="M 40.000000 65.263579 L 40.000000 62.763579 L 34.000000 62.763579 L 34.000000 65.263579 L 40.000000 65.263579" stroke="gray" fill="white" stroke-width="1px"></path><path d="M 46.000000 65.263579 L 46.000000 62.763579 L 40.000000 62.763579 L 40.000000 65.263579 L 46.000000 65.263579" stroke="gray" fill="white" stroke-width="1px"></path><path d="M 52.000000 65.263579 L 52.000000 62.763579 L 46.000000 62.763579 L 46.000000 65.263579 L 52.000000 65.263579" stroke="gray" fill="white" stroke-width="1px"></path><path d="M 58.000000 65.263579 L 58.000000 62.763579 L 52.000000 62.763579 L 52.000000 65.263579 L 58.000000 65.263579" stroke="gray" fill="white" stroke-width="1px"></path><path d="M 22.000000 53.263579 L 22.000000 50.763579 L 16.000000 50.763579 L 16.000000 53.263579 L 22.000000 53.263579" stroke="gray" fill="white" stroke-width="1px"></path><path d="M 28.000000 53.263579 L 28.000000 50.763579 L 22.000000 50.763579 L 22.000000 53.263579 L 28.000000 53.263579" stroke="gray" fill="white" stroke-width="1px"></path><path d="M 34.000000 53.263579 L 34.000000 50.763579 L 28.000000 50.763579 L 28.000000 53.263579 L 34.000000 53.263579" stroke="gray" fill="white" stroke-width="1px"></path><path d="M 40.000000 53.263579 L 40.000000 50.763579 L 34.000000 50.763579 L 34.000000 53.263579 L 40.000000 53.263579" stroke="gray" fill="white" stroke-width="1px"></path><path d="M 46.000000 53.263579 L 46.000000 50.763579 L 40.000000 50.763579 L 40.000000 53.263579 L 46.000000 53.263579" stroke="gray" fill="white" stroke-width="1px"></path><path d="M 52.000000 53.263579 L 52.000000 50.763579 L 46.000000 50.763579 L 46.000000 53.263579 L 52.000000 53.263579" stroke="gray" fill="white" stroke-width="1px"></path><path d="M 58.000000 53.263579 L 58.000000 50.763579 L 52.000000 50.763579 L 52.000000 53.263579 L 58.000000 53.263579" stroke="gray" fill="white" stroke-width="1px"></path><path d="M 22.000000 41.263579 L 22.000000 38.763579 L 16.000000 38.763579 L 16.000000 41.263579 L 22.000000 41.263579" stroke="gray" fill="white" stroke-width="1px"></path><path d="M 28.000000 41.263579 L 28.000000 38.763579 L 22.000000 38.763579 L 22.000000 41.263579 L 28.000000 41.263579" stroke="gray" fill="white" stroke-width="1px"></path><path d="M 34.000000 41.263579 L 34.000000 38.763579 L 28.000000 38.763579 L 28.000000 41.263579 L 34.000000 41.263579" stroke="gray" fill="white" stroke-width="1px"></path><path d="M 40.000000 41.263579 L 40.000000 38.763579 L 34.000000 38.763579 L 34.000000 41.263579 L 40.000000 41.263579" stroke="gray" fill="white" stroke-width="1px"></path><path d="M 46.000000 41.263579 L 46.000000 38.763579 L 40.000000 38.763579 L 40.000000 41.263579 L 46.000000 41.263579" stroke="gray" fill="white" stroke-width="1px"></path><path d="M 52.000000 41.263579 L 52.000000 38.763579 L 46.000000 38.763579 L 46.000000 41.263579 L 52.000000 41.263579" stroke="gray" fill="white" stroke-width="1px"></path><path d="M 58.000000 41.263579 L 58.000000 38.763579 L 52.000000 38.763579 L 52.000000 41.263579 L 58.000000 41.263579" stroke="gray" fill="white" stroke-width="1px"></path><path d="M 266.653226 101.263579 L 266.653226 103.763579 L 260.653226 103.763579 L 260.653226 101.263579 L 266.653226 101.263579" stroke="gray" fill="white" stroke-width="1px"></path><path d="M 272.653226 101.263579 L 272.653226 103.763579 L 266.653226 103.763579 L 266.653226 101.263579 L 272.653226 101.263579" stroke="gray" fill="white" stroke-width="1px"></path><path d="M 278.653226 101.263579 L 278.653226 103.763579 L 272.653226 103.763579 L 272.653226 101.263579 L 278.653226 101.263579" stroke="gray" fill="white" stroke-width="1px"></path><path d="M 268.013637 89.263579 L 268.013637 91.763579 L 262.013637 91.763579 L 262.013637 89.263579 L 268.013637 89.263579" stroke="gray" fill="white" stroke-width="1px"></path><path d="M 274.013637 89.263579 L 274.013637 91.763579 L 268.013637 91.763579 L 268.013637 89.263579 L 274.013637 89.263579" stroke="gray" fill="white" stroke-width="1px"></path><path d="M 269.374048 77.263579 L 269.374048 79.763579 L 263.374048 79.763579 L 263.374048 77.263579 L 269.374048 77.263579" stroke="gray" fill="white" stroke-width="1px"></path><path d="M 275.374048 77.263579 L 275.374048 79.763579 L 269.374048 79.763579 L 269.374048 77.263579 L 275.374048 77.263579" stroke="gray" fill="white" stroke-width="1px"></path><path d="M 270.734460 65.263579 L 270.734460 67.763579 L 264.734460 67.763579 L 264.734460 65.263579 L 270.734460 65.263579" stroke="gray" fill="white" stroke-width="1px"></path><path d="M 276.734460 65.263579 L 276.734460 67.763579 L 270.734460 67.763579 L 270.734460 65.263579 L 276.734460 65.263579" stroke="gray" fill="white" stroke-width="1px"></path><path d="M 265.710650 53.263579 L 265.710650 55.763579 L 259.710650 55.763579 L 259.710650 53.263579 L 265.710650 53.263579" stroke="gray" fill="white" stroke-width="1px"></path><path d="M 271.710650 53.263579 L 271.710650 55.763579 L 265.710650 55.763579 L 265.710650 53.263579 L 271.710650 53.263579" stroke="gray" fill="white" stroke-width="1px"></path><path d="M 277.710650 53.263579 L 277.710650 55.763579 L 271.710650 55.763579 L 271.710650 53.263579 L 277.710650 53.263579" stroke="gray" fill="white" stroke-width="1px"></path><path d="M 221.133325 101.263579 L 221.133325 103.763579 L 215.133325 103.763579 L 215.133325 101.263579 L 221.133325 101.263579" stroke="gray" fill="white" stroke-width="1px"></path><path d="M 227.133325 101.263579 L 227.133325 103.763579 L 221.133325 103.763579 L 221.133325 101.263579 L 227.133325 101.263579" stroke="gray" fill="white" stroke-width="1px"></path><path d="M 233.133325 101.263579 L 233.133325 103.763579 L 227.133325 103.763579 L 227.133325 101.263579 L 233.133325 101.263579" stroke="gray" fill="white" stroke-width="1px"></path><path d="M 234.921649 89.263579 L 234.921649 91.763579 L 228.921649 91.763579 L 228.921649 89.263579 L 234.921649 89.263579" stroke="gray" fill="white" stroke-width="1px"></path><path d="M 233.737654 77.263579 L 233.737654 79.763579 L 227.737654 79.763579 L 227.737654 77.263579 L 233.737654 77.263579" stroke="gray" fill="white" stroke-width="1px"></path><path d="M 233.737654 65.263579 L 233.737654 67.763579 L 227.737654 67.763579 L 227.737654 65.263579 L 233.737654 65.263579" stroke="gray" fill="white" stroke-width="1px"></path><path d="M 28.000000 65.263579 L 28.000000 67.763579 L 22.000000 67.763579 L 22.000000 65.263579 L 28.000000 65.263579" stroke="gray" fill="white" stroke-width="1px"></path><path d="M 34.000000 65.263579 L 34.000000 67.763579 L 28.000000 67.763579 L 28.000000 65.263579 L 34.000000 65.263579" stroke="gray" fill="white" stroke-width="1px"></path><path d="M 40.000000 65.263579 L 40.000000 67.763579 L 34.000000 67.763579 L 34.000000 65.263579 L 40.000000 65.263579" stroke="gray" fill="white" stroke-width="1px"></path><path d="M 46.000000 65.263579 L 46.000000 67.763579 L 40.000000 67.763579 L 40.000000 65.263579 L 46.000000 65.263579" stroke="gray" fill="white" stroke-width="1px"></path><path d="M 52.000000 65.263579 L 52.000000 67.763579 L 46.000000 67.763579 L 46.000000 65.263579 L 52.000000 65.263579" stroke="gray" fill="white" stroke-width="1px"></path><path d="M 58.000000 65.263579 L 58.000000 67.763579 L 52.000000 67.763579 L 52.000000 65.263579 L 58.000000 65.263579" stroke="gray" fill="white" stroke-width="1px"></path><path d="M 22.000000 53.263579 L 22.000000 55.763579 L 16.000000 55.763579 L 16.000000 53.263579 L 22.000000 53.263579" stroke="gray" fill="white" stroke-width="1px"></path><path d="M 28.000000 53.263579 L 28.000000 55.763579 L 22.000000 55.763579 L 22.000000 53.263579 L 28.000000 53.263579" stroke="gray" fill="white" stroke-width="1px"></path><path d="M 34.000000 53.263579 L 34.000000 55.763579 L 28.000000 55.763579 L 28.000000 53.263579 L 34.000000 53.263579" stroke="gray" fill="white" stroke-width="1px"></path><path d="M 40.000000 53.263579 L 40.000000 55.763579 L 34.000000 55.763579 L 34.000000 53.263579 L 40.000000 53.263579" stroke="gray" fill="white" stroke-width="1px"></path><path d="M 46.000000 53.263579 L 46.000000 55.763579 L 40.000000 55.763579 L 40.000000 53.263579 L 46.000000 53.263579" stroke="gray" fill="white" stroke-width="1px"></path><path d="M 52.000000 53.263579 L 52.000000 55.763579 L 46.000000 55.763579 L 46.000000 53.263579 L 52.000000 53.263579" stroke="gray" fill="white" stroke-width="1px"></path><path d="M 58.000000 53.263579 L 58.000000 55.763579 L 52.000000 55.763579 L 52.000000 53.263579 L 58.000000 53.263579" stroke="gray" fill="white" stroke-width="1px"></path><path d="M 22.000000 41.263579 L 22.000000 43.763579 L 16.000000 43.763579 L 16.000000 41.263579 L 22.000000 41.263579" stroke="gray" fill="white" stroke-width="1px"></path><path d="M 28.000000 41.263579 L 28.000000 43.763579 L 22.000000 43.763579 L 22.000000 41.263579 L 28.000000 41.263579" stroke="gray" fill="white" stroke-width="1px"></path><path d="M 34.000000 41.263579 L 34.000000 43.763579 L 28.000000 43.763579 L 28.000000 41.263579 L 34.000000 41.263579" stroke="gray" fill="white" stroke-width="1px"></path><path d="M 40.000000 41.263579 L 40.000000 43.763579 L 34.000000 43.763579 L 34.000000 41.263579 L 40.000000 41.263579" stroke="gray" fill="white" stroke-width="1px"></path><path d="M 46.000000 41.263579 L 46.000000 43.763579 L 40.000000 43.763579 L 40.000000 41.263579 L 46.000000 41.263579" stroke="gray" fill="white" stroke-width="1px"></path><path d="M 52.000000 41.263579 L 52.000000 43.763579 L 46.000000 43.763579 L 46.000000 41.263579 L 52.000000 41.263579" stroke="gray" fill="white" stroke-width="1px"></path><path d="M 58.000000 41.263579 L 58.000000 43.763579 L 52.000000 43.763579 L 52.000000 41.263579 L 58.000000 41.263579" stroke="gray" fill="white" stroke-width="1px"></path></g><g id="crv-base"><path d="M 221.371570 123.090312 L 221.371570 169.241094 L 120.000633 169.241094 L 120.000633 156.444206 L 126.051258 156.444206 L 126.051258 123.858132 L 91.315945 123.858125 L 91.315945 134.738750 L 64.258762 134.738750 L 64.258762 123.687497 L 10.000000 123.687497 L 10.000000 226.180625 L 64.258758 226.180625 L 64.258758 192.357500 L 91.315945 192.357500 L 91.315945 220.123437 L 283.459383 220.123437 L 283.459383 123.090312 L 221.371570 123.090312" stroke="black" fill="none" stroke-width="1px"></path><path d="M 221.371570 10.000000 L 221.371570 56.150781 L 120.000633 56.150781 L 120.000633 43.353893 L 126.051258 43.353893 L 126.051258 10.767819 L 91.315945 10.767812 L 91.315945 21.648438 L 64.258762 21.648438 L 64.258762 10.597185 L 10.000000 10.597185 L 10.000000 113.090312 L 64.258758 113.090312 L 64.258758 79.267187 L 91.315945 79.267187 L 91.315945 107.033125 L 283.459383 107.033125 L 283.459383 10.000000 L 221.371570 10.000000" stroke="black" fill="none" stroke-width="1px"></path><path d="M 10.387195 156.559062 L 10.387195 154.590312 L 12.355945 154.590312 L 12.355945 156.559062 L 10.387195 156.559062" stroke="black" fill="white" stroke-width="1px"></path><path d="M 10.387195 43.468750 L 10.387195 41.500000 L 12.355945 41.500000 L 12.355945 43.468750 L 10.387195 43.468750" stroke="black" fill="white" stroke-width="1px"></path><path d="M 10.387195 188.059062 L 10.387195 186.090312 L 12.355945 186.090312 L 12.355945 188.059062 L 10.387195 188.059062" stroke="black" fill="white" stroke-width="1px"></path><path d="M 10.387195 74.968750 L 10.387195 73.000000 L 12.355945 73.000000 L 12.355945 74.968750 L 10.387195 74.968750" stroke="black" fill="white" stroke-width="1px"></path><path d="M 10.387195 219.559062 L 10.387195 217.590312 L 12.355945 217.590312 L 12.355945 219.559062 L 10.387195 219.559062" stroke="black" fill="white" stroke-width="1px"></path><path d="M 10.387195 106.468750 L 10.387195 104.500000 L 12.355945 104.500000 L 12.355945 106.468750 L 10.387195 106.468750" stroke="black" fill="white" stroke-width="1px"></path><path d="M 60.754383 128.340312 L 60.754383 125.387187 L 63.871570 125.387187 L 63.871570 128.340312 L 60.754383 128.340312" stroke="black" fill="white" stroke-width="1px"></path><path d="M 60.754383 15.250000 L 60.754383 12.296875 L 63.871570 12.296875 L 63.871570 15.250000 L 60.754383 15.250000" stroke="black" fill="white" stroke-width="1px"></path><path d="M 280.598133 219.230937 L 280.598133 217.262187 L 282.566883 217.262187 L 282.566883 219.230937 L 280.598133 219.230937" stroke="black" fill="white" stroke-width="1px"></path><path d="M 280.598133 106.140625 L 280.598133 104.171875 L 282.566883 104.171875 L 282.566883 106.140625 L 280.598133 106.140625" stroke="black" fill="white" stroke-width="1px"></path><path d="M 280.598133 188.059062 L 280.598133 186.090312 L 282.566883 186.090312 L 282.566883 188.059062 L 280.598133 188.059062" stroke="black" fill="white" stroke-width="1px"></path><path d="M 280.598133 74.968750 L 280.598133 73.000000 L 282.566883 73.000000 L 282.566883 74.968750 L 280.598133 74.968750" stroke="black" fill="white" stroke-width="1px"></path><path d="M 280.598133 156.559050 L 280.598133 154.590300 L 282.566883 154.590300 L 282.566883 156.559050 L 280.598133 156.559050" stroke="black" fill="white" stroke-width="1px"></path><path d="M 280.598133 43.468737 L 280.598133 41.499987 L 282.566883 41.499987 L 282.566883 43.468737 L 280.598133 43.468737" stroke="black" fill="white" stroke-width="1px"></path><path d="M 248.605945 127.355937 L 248.605945 123.418437 L 251.887195 123.418437 L 251.887195 127.355937 L 248.605945 127.355937" stroke="black" fill="white" stroke-width="1px"></path><path d="M 248.605945 14.265625 L 248.605945 10.328125 L 251.887195 10.328125 L 251.887195 14.265625 L 248.605945 14.265625" stroke="black" fill="white" stroke-width="1px"></path><path d="M 248.605945 157.871562 L 248.605945 153.934062 L 251.887195 153.934062 L 251.887195 157.871562 L 248.605945 157.871562" stroke="black" fill="white" stroke-width="1px"></path><path d="M 248.605945 44.781250 L 248.605945 40.843750 L 251.887195 40.843750 L 251.887195 44.781250 L 248.605945 44.781250" stroke="black" fill="white" stroke-width="1px"></path><path d="M 248.605945 189.043437 L 248.605945 185.105937 L 251.887195 185.105937 L 251.887195 189.043437 L 248.605945 189.043437" stroke="black" fill="white" stroke-width="1px"></path><path d="M 248.605945 75.953125 L 248.605945 72.015625 L 251.887195 72.015625 L 251.887195 75.953125 L 248.605945 75.953125" stroke="black" fill="white" stroke-width="1px"></path><path d="M 248.934070 219.230937 L 248.934070 216.277812 L 251.887195 216.277812 L 251.887195 219.230937 L 248.934070 219.230937" stroke="black" fill="white" stroke-width="1px"></path><path d="M 248.934070 106.140625 L 248.934070 103.187500 L 251.887195 103.187500 L 251.887195 106.140625 L 248.934070 106.140625" stroke="black" fill="white" stroke-width="1px"></path><path d="M 218.090320 189.043437 L 218.090320 185.105937 L 221.371570 185.105937 L 221.371570 189.043437 L 218.090320 189.043437" stroke="black" fill="white" stroke-width="1px"></path><path d="M 218.090320 75.953125 L 218.090320 72.015625 L 221.371570 72.015625 L 221.371570 75.953125 L 218.090320 75.953125" stroke="black" fill="white" stroke-width="1px"></path><path d="M 218.254383 219.230937 L 218.254383 216.277812 L 221.207508 216.277812 L 221.207508 219.230937 L 218.254383 219.230937" stroke="black" fill="white" stroke-width="1px"></path><path d="M 218.254383 106.140625 L 218.254383 103.187500 L 221.207508 103.187500 L 221.207508 106.140625 L 218.254383 106.140625" stroke="black" fill="white" stroke-width="1px"></path><path d="M 186.590320 189.043437 L 186.590320 185.105937 L 189.871570 185.105937 L 189.871570 189.043437 L 186.590320 189.043437" stroke="black" fill="white" stroke-width="1px"></path><path d="M 186.590320 75.953125 L 186.590320 72.015625 L 189.871570 72.015625 L 189.871570 75.953125 L 186.590320 75.953125" stroke="black" fill="white" stroke-width="1px"></path><path d="M 186.754383 219.230937 L 186.754383 216.277812 L 189.707508 216.277812 L 189.707508 219.230937 L 186.754383 219.230937" stroke="black" fill="white" stroke-width="1px"></path><path d="M 186.754383 106.140625 L 186.754383 103.187500 L 189.707508 103.187500 L 189.707508 106.140625 L 186.754383 106.140625" stroke="black" fill="white" stroke-width="1px"></path><path d="M 155.090320 189.043437 L 155.090320 185.105937 L 158.371570 185.105937 L 158.371570 189.043437 L 155.090320 189.043437" stroke="black" fill="white" stroke-width="1px"></path><path d="M 155.090320 75.953125 L 155.090320 72.015625 L 158.371570 72.015625 L 158.371570 75.953125 L 155.090320 75.953125" stroke="black" fill="white" stroke-width="1px"></path><path d="M 155.254383 219.230937 L 155.254383 216.277812 L 158.207508 216.277812 L 158.207508 219.230937 L 155.254383 219.230937" stroke="black" fill="white" stroke-width="1px"></path><path d="M 155.254383 106.140625 L 155.254383 103.187500 L 158.207508 103.187500 L 158.207508 106.140625 L 155.254383 106.140625" stroke="black" fill="white" stroke-width="1px"></path><path d="M 123.590320 189.043437 L 123.590320 185.105937 L 126.871570 185.105937 L 126.871570 189.043437 L 123.590320 189.043437" stroke="black" fill="white" stroke-width="1px"></path><path d="M 123.590320 75.953125 L 123.590320 72.015625 L 126.871570 72.015625 L 126.871570 75.953125 L 123.590320 75.953125" stroke="black" fill="white" stroke-width="1px"></path><path d="M 123.754383 219.230937 L 123.754383 216.277812 L 126.707508 216.277812 L 126.707508 219.230937 L 123.754383 219.230937" stroke="black" fill="white" stroke-width="1px"></path><path d="M 123.754383 106.140625 L 123.754383 103.187500 L 126.707508 103.187500 L 126.707508 106.140625 L 123.754383 106.140625" stroke="black" fill="white" stroke-width="1px"></path><path d="M 92.090320 157.543437 L 92.090320 153.605937 L 95.371570 153.605937 L 95.371570 157.543437 L 92.090320 157.543437" stroke="black" fill="white" stroke-width="1px"></path><path d="M 92.090320 44.453125 L 92.090320 40.515625 L 95.371570 40.515625 L 95.371570 44.453125 L 92.090320 44.453125" stroke="black" fill="white" stroke-width="1px"></path><path d="M 92.090320 189.043437 L 92.090320 185.105937 L 95.371570 185.105937 L 95.371570 189.043437 L 92.090320 189.043437" stroke="black" fill="white" stroke-width="1px"></path><path d="M 92.090320 75.953125 L 92.090320 72.015625 L 95.371570 72.015625 L 95.371570 75.953125 L 92.090320 75.953125" stroke="black" fill="white" stroke-width="1px"></path><path d="M 92.090320 128.504375 L 92.090320 125.551250 L 95.207508 125.551250 L 95.207508 128.504375 L 92.090320 128.504375" stroke="black" fill="white" stroke-width="1px"></path><path d="M 92.090320 15.414062 L 92.090320 12.460937 L 95.207508 12.460937 L 95.207508 15.414062 L 92.090320 15.414062" stroke="black" fill="white" stroke-width="1px"></path><path d="M 60.590320 157.215312 L 60.590320 153.934062 L 63.871570 153.934062 L 63.871570 157.215312 L 60.590320 157.215312" stroke="black" fill="white" stroke-width="1px"></path><path d="M 60.590320 44.125000 L 60.590320 40.843750 L 63.871570 40.843750 L 63.871570 44.125000 L 60.590320 44.125000" stroke="black" fill="white" stroke-width="1px"></path><path d="M 60.754383 219.230937 L 60.754383 216.277812 L 63.871570 216.277812 L 63.871570 219.230937 L 60.754383 219.230937" stroke="black" fill="white" stroke-width="1px"></path><path d="M 60.754383 106.140625 L 60.754383 103.187500 L 63.871570 103.187500 L 63.871570 106.140625 L 60.754383 106.140625" stroke="black" fill="white" stroke-width="1px"></path><path d="M 30.074695 128.504375 L 30.074695 125.223125 L 33.027820 125.223125 L 33.027820 128.504375 L 30.074695 128.504375" stroke="black" fill="white" stroke-width="1px"></path><path d="M 30.074695 15.414062 L 30.074695 12.132812 L 33.027820 12.132812 L 33.027820 15.414062 L 30.074695 15.414062" stroke="black" fill="white" stroke-width="1px"></path><path d="M 30.074695 157.215312 L 30.074695 153.934062 L 33.355945 153.934062 L 33.355945 157.215312 L 30.074695 157.215312" stroke="black" fill="white" stroke-width="1px"></path><path d="M 30.074695 44.125000 L 30.074695 40.843750 L 33.355945 40.843750 L 33.355945 44.125000 L 30.074695 44.125000" stroke="black" fill="white" stroke-width="1px"></path><path d="M 30.074695 188.715312 L 30.074695 185.434062 L 33.355945 185.434062 L 33.355945 188.715312 L 30.074695 188.715312" stroke="black" fill="white" stroke-width="1px"></path><path d="M 30.074695 75.625000 L 30.074695 72.343750 L 33.355945 72.343750 L 33.355945 75.625000 L 30.074695 75.625000" stroke="black" fill="white" stroke-width="1px"></path><path d="M 30.074695 219.230937 L 30.074695 216.277812 L 33.027820 216.277812 L 33.027820 219.230937 L 30.074695 219.230937" stroke="black" fill="white" stroke-width="1px"></path><path d="M 30.074695 106.140625 L 30.074695 103.187500 L 33.027820 103.187500 L 33.027820 106.140625 L 30.074695 106.140625" stroke="black" fill="white" stroke-width="1px"></path><path d="M 10.387195 127.191875 L 10.387195 125.223125 L 12.355945 125.223125 L 12.355945 127.191875 L 10.387195 127.191875" stroke="black" fill="white" stroke-width="1px"></path><path d="M 10.387195 14.101562 L 10.387195 12.132812 L 12.355945 12.132812 L 12.355945 14.101562 L 10.387195 14.101562" stroke="black" fill="white" stroke-width="1px"></path><path d="M 60.590320 189.863750 L 60.590320 185.434062 L 63.871570 185.434062 L 63.871570 188.715312 L 62.230945 188.715312 L 62.230945 189.863750 L 60.590320 189.863750" stroke="black" fill="white" stroke-width="1px"></path><path d="M 60.590320 76.773437 L 60.590320 72.343750 L 63.871570 72.343750 L 63.871570 75.625000 L 62.230945 75.625000 L 62.230945 76.773437 L 60.590320 76.773437" stroke="black" fill="white" stroke-width="1px"></path><path d="M 123.590320 128.832500 L 123.590320 125.551250 L 126.051258 125.551250 L 126.051258 128.832500 L 123.590320 128.832500" stroke="black" fill="white" stroke-width="1px"></path><path d="M 123.590320 15.742187 L 123.590320 12.460937 L 126.051258 12.460937 L 126.051258 15.742187 L 123.590320 15.742187" stroke="black" fill="white" stroke-width="1px"></path><path d="M 280.598133 126.043425 L 280.598133 124.074675 L 282.566883 124.074675 L 282.566883 126.043425 L 280.598133 126.043425" stroke="black" fill="white" stroke-width="1px"></path><path d="M 280.598133 12.953112 L 280.598133 10.984362 L 282.566883 10.984362 L 282.566883 12.953112 L 280.598133 12.953112" stroke="black" fill="white" stroke-width="1px"></path></g></svg>