<svg width="293.459383" height="236.180625" xmlns="http://www.w3.org/2000/svg" xmlns:xlink="http://www.w3.org/1999/xlink" version="1.1"><g id="crv-background"><path d="M 221.371570 123.090312 L 221.371570 169.241094 L 120.000633 169.241094 L 120.000633 156.444206 L 126.051258 156.444206 L 126.051258 128.832500 L 123.590320 128.832500 L 123.590320 125.551250 L 126.051258 125.551250 L 126.051258 123.858132 L 91.315945 123.858125 L 91.315945 134.738750 L 64.258762 134.738750 L 64.258762 123.687497 L 10.000000 123.687497 L 10.000000 226.180625 L 64.258758 226.180625 L 64.258758 192.357500 L 91.315945 192.357500 L 91.315945 220.123437 L 283.459383 220.123437 L 283.459383 123.090312 L 221.371570 123.090312" stroke="none" fill="white" stroke-width="1px"></path><path d="M 221.371570 10.000000 L 221.371570 56.150781 L 120.000633 56.150781 L 120.000633 43.353893 L 126.051258 43.353893 L 126.051258 15.742187 L 123.590320 15.742187 L 123.590320 12.460937 L 126.051258 12.460937 L 126.051258 10.767819 L 91.315945 10.767812 L 91.315945 21.648438 L 64.258762 21.648438 L 64.258762 10.597185 L 10.000000 10.597185 L 10.000000 113.090312 L 64.258758 113.090312 L 64.258758 79.267187 L 91.315945 79.267187 L 91.315945 107.033125 L 283.459383 107.033125 L 283.459383 10.000000 L 221.371570 10.000000" stroke="none" fill="white" stroke-width="1px"></path></g><g id="crv-nbhd"><path d="M 221.737654 10.000004 L 221.737654 28.163957 L 221.737654 46.327911 L 231.112389 50.607055 L 240.487124 54.886200 L 261.973253 52.252671 L 283.459383 49.619142 L 283.459383 29.809576 L 283.459382 10.000000 L 252.598547 10.000002 L 221.737654 10.000004" stroke="#DD2222" fill="none" stroke-width="1px"></path><path d="M 283.459383 107.033125 L 283.459383 78.326134 L 283.459383 49.619142 L 261.973253 52.252671 L 240.487124 54.886200 L 246.326503 80.959663 L 252.165883 107.033125 L 267.812633 107.033125 L 283.459383 107.033125" stroke="#DD2222" fill="none" stroke-width="1px"></path><path d="M 221.737654 46.327911 L 221.737654 62.739620 L 221.737654 79.151330 L 215.867526 79.151330 L 209.997399 79.151330 L 208.348511 93.092228 L 206.699622 107.033125 L 229.432752 107.033125 L 252.165883 107.033125 L 246.326503 80.959663 L 240.487124 54.886200 L 231.112391 50.607056 L 221.737654 46.327911" stroke="#DD2222" fill="none" stroke-width="1px"></path><path d="M 209.997399 79.151330 L 191.723640 79.151330 L 173.449881 79.151329 L 175.699816 93.092227 L 177.949751 107.033125 L 192.324686 107.033125 L 206.699622 107.033125 L 208.348510 93.092231 L 209.997399 79.151330" stroke="#DD2222" fill="none" stroke-width="1px"></path><path d="M 136.061315 107.033125 L 157.005533 107.033125 L 177.949751 107.033125 L 175.699816 93.092227 L 173.449881 79.151329 L 155.561457 79.151329 L 137.673034 79.151328 L 136.867174 93.092226 L 136.061315 107.033125" stroke="#DD2222" fill="none" stroke-width="1px"></path><path d="M 137.673034 79.151328 L 114.494489 79.151328 L 91.315945 79.151327 L 91.315945 93.092226 L 91.315945 107.033125 L 113.688630 107.033125 L 136.061315 107.033125 L 136.867174 93.092227 L 137.673034 79.151328" stroke="#DD2222" fill="none" stroke-width="1px"></path><path d="M 64.258758 113.090312 L 64.258758 84.620547 L 64.258758 56.150781 L 64.258758 54.314952 L 64.258758 52.479122 L 37.129382 54.433670 L 10.000000 56.388218 L 10.000000 84.739265 L 10.000000 113.090312 L 37.129379 113.090312 L 64.258758 113.090312" stroke="#DD2222" fill="none" stroke-width="1px"></path><path d="M 10.000000 10.597184 L 10.000000 33.492701 L 10.000000 56.388218 L 37.129379 54.433670 L 64.258758 52.479122 L 64.258758 31.538154 L 64.258758 10.597185 L 37.129385 10.597185 L 10.000000 10.597184" stroke="#DD2222" fill="none" stroke-width="1px"></path><path d="M 10.000000 123.687497 L 10.000000 150.248415 L 10.000000 176.809334 L 37.129379 177.202796 L 64.258758 177.596259 L 64.258758 173.418677 L 64.258758 169.241094 L 64.258758 146.464296 L 64.258758 123.687497 L 37.129398 123.687497 L 10.000000 123.687497" stroke="#DD2222" fill="none" stroke-width="1px"></path><path d="M 10.000000 176.809334 L 10.000000 201.494979 L 10.000000 226.180625 L 37.129379 226.180625 L 64.258758 226.180625 L 64.258758 201.888442 L 64.258758 177.596259 L 37.129385 177.202797 L 10.000000 176.809334" stroke="#DD2222" fill="none" stroke-width="1px"></path><path d="M 138.471840 192.043444 L 114.893893 192.043444 L 91.315945 192.043444 L 91.315945 206.083441 L 91.315945 220.123437 L 116.296248 220.123437 L 141.276550 220.123437 L 139.874196 206.083444 L 138.471840 192.043444" stroke="#DD2222" fill="none" stroke-width="1px"></path><path d="M 186.322361 192.043444 L 162.397101 192.043444 L 138.471840 192.043444 L 139.874195 206.083441 L 141.276550 220.123437 L 166.247010 220.123437 L 191.217469 220.123437 L 188.769916 206.083444 L 186.322361 192.043444" stroke="#DD2222" fill="none" stroke-width="1px"></path><path d="M 229.376707 192.043444 L 207.849534 192.043444 L 186.322361 192.043444 L 188.769915 206.083441 L 191.217469 220.123437 L 207.492581 220.123437 L 223.767693 220.123437 L 226.572200 206.083441 L 229.376707 192.043444" stroke="#DD2222" fill="none" stroke-width="1px"></path><path d="M 283.459383 220.123437 L 283.459383 195.068807 L 283.459383 170.014176 L 261.598517 169.498445 L 239.737652 168.982715 L 239.737652 180.513080 L 239.737652 192.043444 L 234.557179 192.043444 L 229.376707 192.043444 L 226.572200 206.083441 L 223.767693 220.123437 L 253.613538 220.123437 L 283.459383 220.123437" stroke="#DD2222" fill="none" stroke-width="1px"></path><path d="M 239.737652 123.090312 L 239.737652 146.036514 L 239.737652 168.982715 L 261.598517 169.498445 L 283.459383 170.014176 L 283.459383 146.552244 L 283.459383 123.090312 L 261.598548 123.090312 L 239.737652 123.090312" stroke="#DD2222" fill="none" stroke-width="1px"></path></g><g id="crv-amen"><path d="M 58.832882 138.768920 L 58.832882 132.066066 L 58.832882 125.363211 L 37.129379 125.363211 L 15.425876 125.363210 L 15.425876 132.066065 L 15.425876 138.768920 L 37.129379 138.768920 L 58.832882 138.768920" stroke="none" fill="#2288CC" stroke-width="1px"></path><path d="M 49.175941 221.310027 L 55.878796 221.310027 L 62.581651 221.310027 L 62.581651 201.876280 L 62.581651 182.442534 L 55.878796 182.345321 L 49.175941 182.248108 L 49.175941 201.779068 L 49.175941 221.310027" stroke="none" fill="#2288CC" stroke-width="1px"></path><path d="M 135.179425 207.134607 L 134.509925 200.431754 L 133.840425 193.728898 L 114.978067 193.728898 L 96.115709 193.728898 L 96.115709 200.431753 L 96.115709 207.134607 L 115.647567 207.134607 L 135.179425 207.134607" stroke="none" fill="#2288CC" stroke-width="1px"></path><path d="M 184.105024 207.132055 L 182.936533 200.429201 L 181.768043 193.726345 L 162.627835 193.726345 L 143.487627 193.726345 L 144.157127 200.429200 L 144.826627 207.132055 L 164.465825 207.132055 L 184.105024 207.132055" stroke="none" fill="#2288CC" stroke-width="1px"></path><path d="M 202.120742 194.851444 L 195.316799 194.851444 L 188.512857 194.851444 L 190.470901 206.083441 L 192.428944 217.315438 L 199.232886 217.315438 L 206.036828 217.315438 L 204.078785 206.083441 L 202.120742 194.851444" stroke="none" fill="#2288CC" stroke-width="1px"></path><path d="M 238.834630 193.427555 L 238.834630 194.118131 L 238.834630 194.808707 L 234.690252 194.808707 L 230.545874 194.808707 L 228.302269 206.040705 L 226.058663 217.272702 L 232.893934 217.272702 L 239.729204 217.272702 L 242.002212 205.893511 L 244.275220 194.514320 L 241.554925 193.970937 L 238.834630 193.427555" stroke="none" fill="#2288CC" stroke-width="1px"></path><path d="M 244.109825 154.000242 L 244.109825 160.704961 L 244.109825 167.409681 L 261.598517 167.822265 L 279.087210 168.234850 L 279.087210 161.530130 L 279.087210 154.825410 L 261.598517 154.412826 L 244.109825 154.000242" stroke="none" fill="#2288CC" stroke-width="1px"></path><path d="M 239.369763 50.523833 L 241.772306 51.620486 L 244.174849 52.717139 L 261.363752 50.610315 L 278.552656 48.503492 L 278.552656 41.750479 L 278.552656 34.997461 L 258.313737 37.478120 L 238.074817 39.958780 L 238.722290 45.241307 L 239.369763 50.523833" stroke="none" fill="#2288CC" stroke-width="1px"></path><path d="M 279.343412 65.292744 L 279.343412 58.539728 L 279.343412 51.786712 L 262.154508 53.893535 L 244.965605 56.000358 L 246.437595 62.572954 L 247.909585 69.145550 L 263.626499 67.219147 L 279.343412 65.292744" stroke="none" fill="#2288CC" stroke-width="1px"></path><path d="M 236.754860 56.523848 L 230.052007 53.464297 L 223.349151 50.404745 L 223.349151 65.240931 L 223.349151 80.077116 L 230.052006 80.077116 L 236.754860 80.077116 L 236.754860 68.300482 L 236.754860 56.523848" stroke="none" fill="#2288CC" stroke-width="1px"></path><path d="M 191.842852 104.244945 L 198.592429 104.244945 L 205.342006 104.244945 L 206.661116 93.092227 L 207.980227 81.939510 L 201.230651 81.939509 L 194.481074 81.939509 L 193.161963 93.092227 L 191.842852 104.244945" stroke="none" fill="#2288CC" stroke-width="1px"></path><path d="M 172.123959 94.260026 L 171.042179 87.557171 L 169.960399 80.854316 L 155.649660 80.854316 L 141.338921 80.854316 L 140.951459 87.557170 L 140.563998 94.260025 L 156.343978 94.260025 L 172.123959 94.260026" stroke="none" fill="#2288CC" stroke-width="1px"></path><path d="M 121.115887 104.244945 L 127.829931 104.244945 L 134.543975 104.244945 L 135.188663 93.092227 L 135.833351 81.939508 L 129.119307 81.939508 L 122.405263 81.939508 L 121.760575 93.092227 L 121.115887 104.244945" stroke="none" fill="#2288CC" stroke-width="1px"></path><path d="M 49.182954 107.089355 L 55.885805 107.089355 L 62.588663 107.089355 L 62.588663 82.844879 L 62.588663 58.600403 L 55.885808 59.083313 L 49.182954 59.566223 L 49.182954 83.327789 L 49.182954 107.089355" stroke="none" fill="#2288CC" stroke-width="1px"></path><path d="M 15.425876 40.876795 L 15.425876 47.597023 L 15.425876 54.317251 L 37.129379 52.753613 L 58.832882 51.189975 L 58.832882 44.469747 L 58.832882 37.749519 L 37.129379 39.313157 L 15.425876 40.876795" stroke="none" fill="#2288CC" stroke-width="1px"></path></g><g id="crv-desk"><path d="M 55.459383 171.468640 L 52.959383 171.468640 L 52.959383 177.468640 L 55.459383 177.468640 L 55.459383 171.468640" stroke="gray" fill="white" stroke-width="1px"></path><path d="M 55.459383 165.468640 L 52.959383 165.468640 L 52.959383 171.468640 L 55.459383 171.468640 L 55.459383 165.468640" stroke="gray" fill="white" stroke-width="1px"></path><path d="M 55.459383 159.468640 L 52.959383 159.468640 L 52.959383 165.468640 L 55.459383 165.468640 L 55.459383 159.468640" stroke="gray" fill="white" stroke-width="1px"></path><path d="M 55.459383 153.468640 L 52.959383 153.468640 L 52.959383 159.468640 L 55.459383 159.468640 L 55.459383 153.468640" stroke="gray" fill="white" stroke-width="1px"></path><path d="M 55.459383 147.468640 L 52.959383 147.468640 L 52.959383 153.468640 L 55.459383 153.468640 L 55.459383 147.468640" stroke="gray" fill="white" stroke-width="1px"></path><path d="M 43.459383 171.294602 L 40.959383 171.294602 L 40.959383 177.294602 L 43.459383 177.294602 L 43.459383 171.294602" stroke="gray" fill="white" stroke-width="1px"></path><path d="M 43.459383 165.294602 L 40.959383 165.294602 L 40.959383 171.294602 L 43.459383 171.294602 L 43.459383 165.294602" stroke="gray" fill="white" stroke-width="1px"></path><path d="M 43.459383 159.294602 L 40.959383 159.294602 L 40.959383 165.294602 L 43.459383 165.294602 L 43.459383 159.294602" stroke="gray" fill="white" stroke-width="1px"></path><path d="M 43.459383 153.294602 L 40.959383 153.294602 L 40.959383 159.294602 L 43.459383 159.294602 L 43.459383 153.294602" stroke="gray" fill="white" stroke-width="1px"></path><path d="M 43.459383 147.294602 L 40.959383 147.294602 L 40.959383 153.294602 L 43.459383 153.294602 L 43.459383 147.294602" stroke="gray" fill="white" stroke-width="1px"></path><path d="M 31.459383 171.120563 L 28.959383 171.120563 L 28.959383 177.120563 L 31.459383 177.120563 L 31.459383 171.120563" stroke="gray" fill="white" stroke-width="1px"></path><path d="M 31.459383 165.120563 L 28.959383 165.120563 L 28.959383 171.120563 L 31.459383 171.120563 L 31.459383 165.120563" stroke="gray" fill="white" stroke-width="1px"></path><path d="M 31.459383 159.120563 L 28.959383 159.120563 L 28.959383 165.120563 L 31.459383 165.120563 L 31.459383 159.120563" stroke="gray" fill="white" stroke-width="1px"></path><path d="M 31.459383 153.120563 L 28.959383 153.120563 L 28.959383 159.120563 L 31.459383 159.120563 L 31.459383 153.120563" stroke="gray" fill="white" stroke-width="1px"></path><path d="M 31.459383 147.120563 L 28.959383 147.120563 L 28.959383 153.120563 L 31.459383 153.120563 L 31.459383 147.120563" stroke="gray" fill="white" stroke-width="1px"></path><path d="M 19.459383 170.946525 L 16.959383 170.946525 L 16.959383 176.946525 L 19.459383 176.946525 L 19.459383 170.946525" stroke="gray" fill="white" stroke-width="1px"></path><path d="M 19.459383 164.946525 L 16.959383 164.946525 L 16.959383 170.946525 L 19.459383 170.946525 L 19.459383 164.946525" stroke="gray" fill="white" stroke-width="1px"></path><path d="M 19.459383 158.946525 L 16.959383 158.946525 L 16.959383 164.946525 L 19.459383 164.946525 L 19.459383 158.946525" stroke="gray" fill="white" stroke-width="1px"></path><path d="M 19.459383 152.946525 L 16.959383 152.946525 L 16.959383 158.946525 L 19.459383 158.946525 L 19.459383 152.946525" stroke="gray" fill="white" stroke-width="1px"></path><path d="M 19.459383 146.946525 L 16.959383 146.946525 L 16.959383 152.946525 L 19.459383 152.946525 L 19.459383 146.946525" stroke="gray" fill="white" stroke-width="1px"></path><path d="M 31.459383 220.180625 L 28.959383 220.180625 L 28.959383 226.180625 L 31.459383 226.180625 L 31.459383 220.180625" stroke="gray" fill="white" stroke-width="1px"></path><path d="M 31.459383 214.180625 L 28.959383 214.180625 L 28.959383 220.180625 L 31.459383 220.180625 L 31.459383 214.180625" stroke="gray" fill="white" stroke-width="1px"></path><path d="M 31.459383 208.180625 L 28.959383 208.180625 L 28.959383 214.180625 L 31.459383 214.180625 L 31.459383 208.180625" stroke="gray" fill="white" stroke-width="1px"></path><path d="M 31.459383 202.180625 L 28.959383 202.180625 L 28.959383 208.180625 L 31.459383 208.180625 L 31.459383 202.180625" stroke="gray" fill="white" stroke-width="1px"></path><path d="M 31.459383 196.180625 L 28.959383 196.180625 L 28.959383 202.180625 L 31.459383 202.180625 L 31.459383 196.180625" stroke="gray" fill="white" stroke-width="1px"></path><path d="M 31.459383 190.180625 L 28.959383 190.180625 L 28.959383 196.180625 L 31.459383 196.180625 L 31.459383 190.180625" stroke="gray" fill="white" stroke-width="1px"></path><path d="M 31.459383 184.180625 L 28.959383 184.180625 L 28.959383 190.180625 L 31.459383 190.180625 L 31.459383 184.180625" stroke="gray" fill="white" stroke-width="1px"></path><path d="M 19.459383 220.180625 L 16.959383 220.180625 L 16.959383 226.180625 L 19.459383 226.180625 L 19.459383 220.180625" stroke="gray" fill="white" stroke-width="1px"></path><path d="M 19.459383 214.180625 L 16.959383 214.180625 L 16.959383 220.180625 L 19.459383 220.180625 L 19.459383 214.180625" stroke="gray" fill="white" stroke-width="1px"></path><path d="M 19.459383 208.180625 L 16.959383 208.180625 L 16.959383 214.180625 L 19.459383 214.180625 L 19.459383 208.180625" stroke="gray" fill="white" stroke-width="1px"></path><path d="M 19.459383 202.180625 L 16.959383 202.180625 L 16.959383 208.180625 L 19.459383 208.180625 L 19.459383 202.180625" stroke="gray" fill="white" stroke-width="1px"></path><path d="M 19.459383 196.180625 L 16.959383 196.180625 L 16.959383 202.180625 L 19.459383 202.180625 L 19.459383 196.180625" stroke="gray" fill="white" stroke-width="1px"></path><path d="M 19.459383 190.180625 L 16.959383 190.180625 L 16.959383 196.180625 L 19.459383 196.180625 L 19.459383 190.180625" stroke="gray" fill="white" stroke-width="1px"></path><path d="M 19.459383 184.180625 L 16.959383 184.180625 L 16.959383 190.180625 L 19.459383 190.180625 L 19.459383 184.180625" stroke="gray" fill="white" stroke-width="1px"></path><path d="M 127.459383 214.123437 L 124.959383 214.123437 L 124.959383 220.123437 L 127.459383 220.123437 L 127.459383 214.123437" stroke="gray" fill="white" stroke-width="1px"></path><path d="M 115.459383 214.123437 L 112.959383 214.123437 L 112.959383 220.123437 L 115.459383 220.123437 L 115.459383 214.123437" stroke="gray" fill="white" stroke-width="1px"></path><path d="M 103.459383 214.123437 L 100.959383 214.123437 L 100.959383 220.123437 L 103.459383 220.123437 L 103.459383 214.123437" stroke="gray" fill="white" stroke-width="1px"></path><path d="M 175.459383 214.123437 L 172.959383 214.123437 L 172.959383 220.123437 L 175.459383 220.123437 L 175.459383 214.123437" stroke="gray" fill="white" stroke-width="1px"></path><path d="M 163.459383 214.123437 L 160.959383 214.123437 L 160.959383 220.123437 L 163.459383 220.123437 L 163.459383 214.123437" stroke="gray" fill="white" stroke-width="1px"></path><path d="M 151.459383 214.123437 L 148.959383 214.123437 L 148.959383 220.123437 L 151.459383 220.123437 L 151.459383 214.123437" stroke="gray" fill="white" stroke-width="1px"></path><path d="M 223.459383 208.123437 L 220.959383 208.123437 L 220.959383 214.123437 L 223.459383 214.123437 L 223.459383 208.123437" stroke="gray" fill="white" stroke-width="1px"></path><path d="M 223.459383 202.123437 L 220.959383 202.123437 L 220.959383 208.123437 L 223.459383 208.123437 L 223.459383 202.123437" stroke="gray" fill="white" stroke-width="1px"></path><path d="M 223.459383 196.123437 L 220.959383 196.123437 L 220.959383 202.123437 L 223.459383 202.123437 L 223.459383 196.123437" stroke="gray" fill="white" stroke-width="1px"></path><path d="M 211.459383 208.123437 L 208.959383 208.123437 L 208.959383 214.123437 L 211.459383 214.123437 L 211.459383 208.123437" stroke="gray" fill="white" stroke-width="1px"></path><path d="M 211.459383 202.123437 L 208.959383 202.123437 L 208.959383 208.123437 L 211.459383 208.123437 L 211.459383 202.123437" stroke="gray" fill="white" stroke-width="1px"></path><path d="M 211.459383 196.123437 L 208.959383 196.123437 L 208.959383 202.123437 L 211.459383 202.123437 L 211.459383 196.123437" stroke="gray" fill="white" stroke-width="1px"></path><path d="M 271.459383 214.123437 L 268.959383 214.123437 L 268.959383 220.123437 L 271.459383 220.123437 L 271.459383 214.123437" stroke="gray" fill="white" stroke-width="1px"></path><path d="M 271.459383 208.123437 L 268.959383 208.123437 L 268.959383 214.123437 L 271.459383 214.123437 L 271.459383 208.123437" stroke="gray" fill="white" stroke-width="1px"></path><path d="M 271.459383 202.123437 L 268.959383 202.123437 L 268.959383 208.123437 L 271.459383 208.123437 L 271.459383 202.123437" stroke="gray" fill="white" stroke-width="1px"></path><path d="M 271.459383 196.123437 L 268.959383 196.123437 L 268.959383 202.123437 L 271.459383 202.123437 L 271.459383 196.123437" stroke="gray" fill="white" stroke-width="1px"></path><path d="M 271.459383 190.123437 L 268.959383 190.123437 L 268.959383 196.123437 L 271.459383 196.123437 L 271.459383 190.123437" stroke="gray" fill="white" stroke-width="1px"></path><path d="M 271.459383 184.123437 L 268.959383 184.123437 L 268.959383 190.123437 L 271.459383 190.123437 L 271.459383 184.123437" stroke="gray" fill="white" stroke-width="1px"></path><path d="M 271.459383 178.123437 L 268.959383 178.123437 L 268.959383 184.123437 L 271.459383 184.123437 L 271.459383 178.123437" stroke="gray" fill="white" stroke-width="1px"></path><path d="M 259.459383 214.123437 L 256.959383 214.123437 L 256.959383 220.123437 L 259.459383 220.123437 L 259.459383 214.123437" stroke="gray" fill="white" stroke-width="1px"></path><path d="M 259.459383 208.123437 L 256.959383 208.123437 L 256.959383 214.123437 L 259.459383 214.123437 L 259.459383 208.123437" stroke="gray" fill="white" stroke-width="1px"></path><path d="M 259.459383 202.123437 L 256.959383 202.123437 L 256.959383 208.123437 L 259.459383 208.123437 L 259.459383 202.123437" stroke="gray" fill="white" stroke-width="1px"></path><path d="M 259.459383 196.123437 L 256.959383 196.123437 L 256.959383 202.123437 L 259.459383 202.123437 L 259.459383 196.123437" stroke="gray" fill="white" stroke-width="1px"></path><path d="M 259.459383 190.123437 L 256.959383 190.123437 L 256.959383 196.123437 L 259.459383 196.123437 L 259.459383 190.123437" stroke="gray" fill="white" stroke-width="1px"></path><path d="M 259.459383 184.123437 L 256.959383 184.123437 L 256.959383 190.123437 L 259.459383 190.123437 L 259.459383 184.123437" stroke="gray" fill="white" stroke-width="1px"></path><path d="M 259.459383 178.123437 L 256.959383 178.123437 L 256.959383 184.123437 L 259.459383 184.123437 L 259.459383 178.123437" stroke="gray" fill="white" stroke-width="1px"></path><path d="M 247.459383 214.123437 L 244.959383 214.123437 L 244.959383 220.123437 L 247.459383 220.123437 L 247.459383 214.123437" stroke="gray" fill="white" stroke-width="1px"></path><path d="M 247.459383 208.123437 L 244.959383 208.123437 L 244.959383 214.123437 L 247.459383 214.123437 L 247.459383 208.123437" stroke="gray" fill="white" stroke-width="1px"></path><path d="M 247.459383 202.123437 L 244.959383 202.123437 L 244.959383 208.123437 L 247.459383 208.123437 L 247.459383 202.123437" stroke="gray" fill="white" stroke-width="1px"></path><path d="M 247.459383 196.123437 L 244.959383 196.123437 L 244.959383 202.123437 L 247.459383 202.123437 L 247.459383 196.123437" stroke="gray" fill="white" stroke-width="1px"></path><path d="M 247.459383 190.123437 L 244.959383 190.123437 L 244.959383 196.123437 L 247.459383 196.123437 L 247.459383 190.123437" stroke="gray" fill="white" stroke-width="1px"></path><path d="M 247.459383 184.123437 L 244.959383 184.123437 L 244.959383 190.123437 L 247.459383 190.123437 L 247.459383 184.123437" stroke="gray" fill="white" stroke-width="1px"></path><path d="M 247.459383 178.123437 L 244.959383 178.123437 L 244.959383 184.123437 L 247.459383 184.123437 L 247.459383 178.123437" stroke="gray" fill="white" stroke-width="1px"></path><path d="M 55.459383 171.468640 L 57.959383 171.468640 L 57.959383 177.468640 L 55.459383 177.468640 L 55.459383 171.468640" stroke="gray" fill="white" stroke-width="1px"></path><path d="M 55.459383 165.468640 L 57.959383 165.468640 L 57.959383 171.468640 L 55.459383 171.468640 L 55.459383 165.468640" stroke="gray" fill="white" stroke-width="1px"></path><path d="M 55.459383 159.468640 L 57.959383 159.468640 L 57.959383 165.468640 L 55.459383 165.468640 L 55.459383 159.468640" stroke="gray" fill="white" stroke-width="1px"></path><path d="M 55.459383 153.468640 L 57.959383 153.468640 L 57.959383 159.468640 L 55.459383 159.468640 L 55.459383 153.468640" stroke="gray" fill="white" stroke-width="1px"></path><path d="M 55.459383 147.468640 L 57.959383 147.468640 L 57.959383 153.468640 L 55.459383 153.468640 L 55.459383 147.468640" stroke="gray" fill="white" stroke-width="1px"></path><path d="M 43.459383 171.294602 L 45.959383 171.294602 L 45.959383 177.294602 L 43.459383 177.294602 L 43.459383 171.294602" stroke="gray" fill="white" stroke-width="1px"></path><path d="M 43.459383 165.294602 L 45.959383 165.294602 L 45.959383 171.294602 L 43.459383 171.294602 L 43.459383 165.294602" stroke="gray" fill="white" stroke-width="1px"></path><path d="M 43.459383 159.294602 L 45.959383 159.294602 L 45.959383 165.294602 L 43.459383 165.294602 L 43.459383 159.294602" stroke="gray" fill="white" stroke-width="1px"></path><path d="M 43.459383 153.294602 L 45.959383 153.294602 L 45.959383 159.294602 L 43.459383 159.294602 L 43.459383 153.294602" stroke="gray" fill="white" stroke-width="1px"></path><path d="M 43.459383 147.294602 L 45.959383 147.294602 L 45.959383 153.294602 L 43.459383 153.294602 L 43.459383 147.294602" stroke="gray" fill="white" stroke-width="1px"></path><path d="M 31.459383 171.120563 L 33.959383 171.120563 L 33.959383 177.120563 L 31.459383 177.120563 L 31.459383 171.120563" stroke="gray" fill="white" stroke-width="1px"></path><path d="M 31.459383 165.120563 L 33.959383 165.120563 L 33.959383 171.120563 L 31.459383 171.120563 L 31.459383 165.120563" stroke="gray" fill="white" stroke-width="1px"></path><path d="M 31.459383 159.120563 L 33.959383 159.120563 L 33.959383 165.120563 L 31.459383 165.120563 L 31.459383 159.120563" stroke="gray" fill="white" stroke-width="1px"></path><path d="M 31.459383 153.120563 L 33.959383 153.120563 L 33.959383 159.120563 L 31.459383 159.120563 L 31.459383 153.120563" stroke="gray" fill="white" stroke-width="1px"></path><path d="M 31.459383 147.120563 L 33.959383 147.120563 L 33.959383 153.120563 L 31.459383 153.120563 L 31.459383 147.120563" stroke="gray" fill="white" stroke-width="1px"></path><path d="M 19.459383 170.946525 L 21.959383 170.946525 L 21.959383 176.946525 L 19.459383 176.946525 L 19.459383 170.946525" stroke="gray" fill="white" stroke-width="1px"></path><path d="M 19.459383 164.946525 L 21.959383 164.946525 L 21.959383 170.946525 L 19.459383 170.946525 L 19.459383 164.946525" stroke="gray" fill="white" stroke-width="1px"></path><path d="M 19.459383 158.946525 L 21.959383 158.946525 L 21.959383 164.946525 L 19.459383 164.946525 L 19.459383 158.946525" stroke="gray" fill="white" stroke-width="1px"></path><path d="M 19.459383 152.946525 L 21.959383 152.946525 L 21.959383 158.946525 L 19.459383 158.946525 L 19.459383 152.946525" stroke="gray" fill="white" stroke-width="1px"></path><path d="M 19.459383 146.946525 L 21.959383 146.946525 L 21.959383 152.946525 L 19.459383 152.946525 L 19.459383 146.946525" stroke="gray" fill="white" stroke-width="1px"></path><path d="M 31.459383 220.180625 L 33.959383 220.180625 L 33.959383 226.180625 L 31.459383 226.180625 L 31.459383 220.180625" stroke="gray" fill="white" stroke-width="1px"></path><path d="M 31.459383 214.180625 L 33.959383 214.180625 L 33.959383 220.180625 L 31.459383 220.180625 L 31.459383 214.180625" stroke="gray" fill="white" stroke-width="1px"></path><path d="M 31.459383 208.180625 L 33.959383 208.180625 L 33.959383 214.180625 L 31.459383 214.180625 L 31.459383 208.180625" stroke="gray" fill="white" stroke-width="1px"></path><path d="M 31.459383 202.180625 L 33.959383 202.180625 L 33.959383 208.180625 L 31.459383 208.180625 L 31.459383 202.180625" stroke="gray" fill="white" stroke-width="1px"></path><path d="M 31.459383 196.180625 L 33.959383 196.180625 L 33.959383 202.180625 L 31.459383 202.180625 L 31.459383 196.180625" stroke="gray" fill="white" stroke-width="1px"></path><path d="M 31.459383 190.180625 L 33.959383 190.180625 L 33.959383 196.180625 L 31.459383 196.180625 L 31.459383 190.180625" stroke="gray" fill="white" stroke-width="1px"></path><path d="M 31.459383 184.180625 L 33.959383 184.180625 L 33.959383 190.180625 L 31.459383 190.180625 L 31.459383 184.180625" stroke="gray" fill="white" stroke-width="1px"></path><path d="M 19.459383 220.180625 L 21.959383 220.180625 L 21.959383 226.180625 L 19.459383 226.180625 L 19.459383 220.180625" stroke="gray" fill="white" stroke-width="1px"></path><path d="M 19.459383 214.180625 L 21.959383 214.180625 L 21.959383 220.180625 L 19.459383 220.180625 L 19.459383 214.180625" stroke="gray" fill="white" stroke-width="1px"></path><path d="M 19.459383 208.180625 L 21.959383 208.180625 L 21.959383 214.180625 L 19.459383 214.180625 L 19.459383 208.180625" stroke="gray" fill="white" stroke-width="1px"></path><path d="M 19.459383 202.180625 L 21.959383 202.180625 L 21.959383 208.180625 L 19.459383 208.180625 L 19.459383 202.180625" stroke="gray" fill="white" stroke-width="1px"></path><path d="M 19.459383 196.180625 L 21.959383 196.180625 L 21.959383 202.180625 L 19.459383 202.180625 L 19.459383 196.180625" stroke="gray" fill="white" stroke-width="1px"></path><path d="M 19.459383 190.180625 L 21.959383 190.180625 L 21.959383 196.180625 L 19.459383 196.180625 L 19.459383 190.180625" stroke="gray" fill="white" stroke-width="1px"></path><path d="M 19.459383 184.180625 L 21.959383 184.180625 L 21.959383 190.180625 L 19.459383 190.180625 L 19.459383 184.180625" stroke="gray" fill="white" stroke-width="1px"></path><path d="M 127.459383 214.123437 L 129.959383 214.123437 L 129.959383 220.123437 L 127.459383 220.123437 L 127.459383 214.123437" stroke="gray" fill="white" stroke-width="1px"></path><path d="M 115.459383 214.123437 L 117.959383 214.123437 L 117.959383 220.123437 L 115.459383 220.123437 L 115.459383 214.123437" stroke="gray" fill="white" stroke-width="1px"></path><path d="M 103.459383 214.123437 L 105.959383 214.123437 L 105.959383 220.123437 L 103.459383 220.123437 L 103.459383 214.123437" stroke="gray" fill="white" stroke-width="1px"></path><path d="M 175.459383 214.123437 L 177.959383 214.123437 L 177.959383 220.123437 L 175.459383 220.123437 L 175.459383 214.123437" stroke="gray" fill="white" stroke-width="1px"></path><path d="M 163.459383 214.123437 L 165.959383 214.123437 L 165.959383 220.123437 L 163.459383 220.123437 L 163.459383 214.123437" stroke="gray" fill="white" stroke-width="1px"></path><path d="M 151.459383 214.123437 L 153.959383 214.123437 L 153.959383 220.123437 L 151.459383 220.123437 L 151.459383 214.123437" stroke="gray" fill="white" stroke-width="1px"></path><path d="M 223.459383 202.123437 L 225.959383 202.123437 L 225.959383 208.123437 L 223.459383 208.123437 L 223.459383 202.123437" stroke="gray" fill="white" stroke-width="1px"></path><path d="M 223.459383 196.123437 L 225.959383 196.123437 L 225.959383 202.123437 L 223.459383 202.123437 L 223.459383 196.123437" stroke="gray" fill="white" stroke-width="1px"></path><path d="M 211.459383 208.123437 L 213.959383 208.123437 L 213.959383 214.123437 L 211.459383 214.123437 L 211.459383 208.123437" stroke="gray" fill="white" stroke-width="1px"></path><path d="M 211.459383 202.123437 L 213.959383 202.123437 L 213.959383 208.123437 L 211.459383 208.123437 L 211.459383 202.123437" stroke="gray" fill="white" stroke-width="1px"></path><path d="M 211.459383 196.123437 L 213.959383 196.123437 L 213.959383 202.123437 L 211.459383 202.123437 L 211.459383 196.123437" stroke="gray" fill="white" stroke-width="1px"></path><path d="M 271.459383 214.123437 L 273.959383 214.123437 L 273.959383 220.123437 L 271.459383 220.123437 L 271.459383 214.123437" stroke="gray" fill="white" stroke-width="1px"></path><path d="M 271.459383 208.123437 L 273.959383 208.123437 L 273.959383 214.123437 L 271.459383 214.123437 L 271.459383 208.123437" stroke="gray" fill="white" stroke-width="1px"></path><path d="M 271.459383 202.123437 L 273.959383 202.123437 L 273.959383 208.123437 L 271.459383 208.123437 L 271.459383 202.123437" stroke="gray" fill="white" stroke-width="1px"></path><path d="M 271.459383 196.123437 L 273.959383 196.123437 L 273.959383 202.123437 L 271.459383 202.123437 L 271.459383 196.123437" stroke="gray" fill="white" stroke-width="1px"></path><path d="M 271.459383 190.123437 L 273.959383 190.123437 L 273.959383 196.123437 L 271.459383 196.123437 L 271.459383 190.123437" stroke="gray" fill="white" stroke-width="1px"></path><path d="M 271.459383 184.123437 L 273.959383 184.123437 L 273.959383 190.123437 L 271.459383 190.123437 L 271.459383 184.123437" stroke="gray" fill="white" stroke-width="1px"></path><path d="M 271.459383 178.123437 L 273.959383 178.123437 L 273.959383 184.123437 L 271.459383 184.123437 L 271.459383 178.123437" stroke="gray" fill="white" stroke-width="1px"></path><path d="M 259.459383 214.123437 L 261.959383 214.123437 L 261.959383 220.123437 L 259.459383 220.123437 L 259.459383 214.123437" stroke="gray" fill="white" stroke-width="1px"></path><path d="M 259.459383 208.123437 L 261.959383 208.123437 L 261.959383 214.123437 L 259.459383 214.123437 L 259.459383 208.123437" stroke="gray" fill="white" stroke-width="1px"></path><path d="M 259.459383 202.123437 L 261.959383 202.123437 L 261.959383 208.123437 L 259.459383 208.123437 L 259.459383 202.123437" stroke="gray" fill="white" stroke-width="1px"></path><path d="M 259.459383 196.123437 L 261.959383 196.123437 L 261.959383 202.123437 L 259.459383 202.123437 L 259.459383 196.123437" stroke="gray" fill="white" stroke-width="1px"></path><path d="M 259.459383 190.123437 L 261.959383 190.123437 L 261.959383 196.123437 L 259.459383 196.123437 L 259.459383 190.123437" stroke="gray" fill="white" stroke-width="1px"></path><path d="M 259.459383 184.123437 L 261.959383 184.123437 L 261.959383 190.123437 L 259.459383 190.123437 L 259.459383 184.123437" stroke="gray" fill="white" stroke-width="1px"></path><path d="M 259.459383 178.123437 L 261.959383 178.123437 L 261.959383 184.123437 L 259.459383 184.123437 L 259.459383 178.123437" stroke="gray" fill="white" stroke-width="1px"></path><path d="M 247.459383 214.123437 L 249.959383 214.123437 L 249.959383 220.123437 L 247.459383 220.123437 L 247.459383 214.123437" stroke="gray" fill="white" stroke-width="1px"></path><path d="M 247.459383 208.123437 L 249.959383 208.123437 L 249.959383 214.123437 L 247.459383 214.123437 L 247.459383 208.123437" stroke="gray" fill="white" stroke-width="1px"></path><path d="M 247.459383 202.123437 L 249.959383 202.123437 L 249.959383 208.123437 L 247.459383 208.123437 L 247.459383 202.123437" stroke="gray" fill="white" stroke-width="1px"></path><path d="M 247.459383 196.123437 L 249.959383 196.123437 L 249.959383 202.123437 L 247.459383 202.123437 L 247.459383 196.123437" stroke="gray" fill="white" stroke-width="1px"></path><path d="M 247.459383 190.123437 L 249.959383 190.123437 L 249.959383 196.123437 L 247.459383 196.123437 L 247.459383 190.123437" stroke="gray" fill="white" stroke-width="1px"></path><path d="M 247.459383 184.123437 L 249.959383 184.123437 L 249.959383 190.123437 L 247.459383 190.123437 L 247.459383 184.123437" stroke="gray" fill="white" stroke-width="1px"></path><path d="M 247.459383 178.123437 L 249.959383 178.123437 L 249.959383 184.123437 L 247.459383 184.123437 L 247.459383 178.123437" stroke="gray" fill="white" stroke-width="1px"></path><path d="M 251.737652 148.123437 L 251.737652 145.623437 L 245.737652 145.623437 L 245.737652 148.123437 L 251.737652 148.123437" stroke="gray" fill="white" stroke-width="1px"></path><path d="M 257.737652 148.123437 L 257.737652 145.623437 L 251.737652 145.623437 L 251.737652 148.123437 L 257.737652 148.123437" stroke="gray" fill="white" stroke-width="1px"></path><path d="M 263.737652 148.123437 L 263.737652 145.623437 L 257.737652 145.623437 L 257.737652 148.123437 L 263.737652 148.123437" stroke="gray" fill="white" stroke-width="1px"></path><path d="M 269.737652 148.123437 L 269.737652 145.623437 L 263.737652 145.623437 L 263.737652 148.123437 L 269.737652 148.123437" stroke="gray" fill="white" stroke-width="1px"></path><path d="M 275.737652 148.123437 L 275.737652 145.623437 L 269.737652 145.623437 L 269.737652 148.123437 L 275.737652 148.123437" stroke="gray" fill="white" stroke-width="1px"></path><path d="M 251.737652 136.123437 L 251.737652 133.623437 L 245.737652 133.623437 L 245.737652 136.123437 L 251.737652 136.123437" stroke="gray" fill="white" stroke-width="1px"></path><path d="M 257.737652 136.123437 L 257.737652 133.623437 L 251.737652 133.623437 L 251.737652 136.123437 L 257.737652 136.123437" stroke="gray" fill="white" stroke-width="1px"></path><path d="M 263.737652 136.123437 L 263.737652 133.623437 L 257.737652 133.623437 L 257.737652 136.123437 L 263.737652 136.123437" stroke="gray" fill="white" stroke-width="1px"></path><path d="M 269.737652 136.123437 L 269.737652 133.623437 L 263.737652 133.623437 L 263.737652 136.123437 L 269.737652 136.123437" stroke="gray" fill="white" stroke-width="1px"></path><path d="M 275.737652 136.123437 L 275.737652 133.623437 L 269.737652 133.623437 L 269.737652 136.123437 L 275.737652 136.123437" stroke="gray" fill="white" stroke-width="1px"></path><path d="M 251.737652 148.123437 L 251.737652 150.623437 L 245.737652 150.623437 L 245.737652 148.123437 L 251.737652 148.123437" stroke="gray" fill="white" stroke-width="1px"></path><path d="M 257.737652 148.123437 L 257.737652 150.623437 L 251.737652 150.623437 L 251.737652 148.123437 L 257.737652 148.123437" stroke="gray" fill="white" stroke-width="1px"></path><path d="M 263.737652 148.123437 L 263.737652 150.623437 L 257.737652 150.623437 L 257.737652 148.123437 L 263.737652 148.123437" stroke="gray" fill="white" stroke-width="1px"></path><path d="M 269.737652 148.123437 L 269.737652 150.623437 L 263.737652 150.623437 L 263.737652 148.123437 L 269.737652 148.123437" stroke="gray" fill="white" stroke-width="1px"></path><path d="M 275.737652 148.123437 L 275.737652 150.623437 L 269.737652 150.623437 L 269.737652 148.123437 L 275.737652 148.123437" stroke="gray" fill="white" stroke-width="1px"></path><path d="M 251.737652 136.123437 L 251.737652 138.623437 L 245.737652 138.623437 L 245.737652 136.123437 L 251.737652 136.123437" stroke="gray" fill="white" stroke-width="1px"></path><path d="M 257.737652 136.123437 L 257.737652 138.623437 L 251.737652 138.623437 L 251.737652 136.123437 L 257.737652 136.123437" stroke="gray" fill="white" stroke-width="1px"></path><path d="M 263.737652 136.123437 L 263.737652 138.623437 L 257.737652 138.623437 L 257.737652 136.123437 L 263.737652 136.123437" stroke="gray" fill="white" stroke-width="1px"></path><path d="M 269.737652 136.123437 L 269.737652 138.623437 L 263.737652 138.623437 L 263.737652 136.123437 L 269.737652 136.123437" stroke="gray" fill="white" stroke-width="1px"></path><path d="M 275.737652 136.123437 L 275.737652 138.623437 L 269.737652 138.623437 L 269.737652 136.123437 L 275.737652 136.123437" stroke="gray" fill="white" stroke-width="1px"></path><path d="M 271.459383 23.866874 L 268.959383 23.866874 L 268.959383 29.866874 L 271.459383 29.866874 L 271.459383 23.866874" stroke="gray" fill="white" stroke-width="1px"></path><path d="M 271.459383 17.866874 L 268.959383 17.866874 L 268.959383 23.866874 L 271.459383 23.866874 L 271.459383 17.866874" stroke="gray" fill="white" stroke-width="1px"></path><path d="M 259.459383 25.337700 L 256.959383 25.337700 L 256.959383 31.337700 L 259.459383 31.337700 L 259.459383 25.337700" stroke="gray" fill="white" stroke-width="1px"></path><path d="M 259.459383 19.337700 L 256.959383 19.337700 L 256.959383 25.337700 L 259.459383 25.337700 L 259.459383 19.337700" stroke="gray" fill="white" stroke-width="1px"></path><path d="M 259.459383 13.337700 L 256.959383 13.337700 L 256.959383 19.337700 L 259.459383 19.337700 L 259.459383 13.337700" stroke="gray" fill="white" stroke-width="1px"></path><path d="M 247.459383 26.808526 L 244.959383 26.808526 L 244.959383 32.808526 L 247.459383 32.808526 L 247.459383 26.808526" stroke="gray" fill="white" stroke-width="1px"></path><path d="M 247.459383 20.808526 L 244.959383 20.808526 L 244.959383 26.808526 L 247.459383 26.808526 L 247.459383 20.808526" stroke="gray" fill="white" stroke-width="1px"></path><path d="M 247.459383 14.808526 L 244.959383 14.808526 L 244.959383 20.808526 L 247.459383 20.808526 L 247.459383 14.808526" stroke="gray" fill="white" stroke-width="1px"></path><path d="M 235.459383 28.591262 L 232.959383 28.591262 L 232.959383 34.591262 L 235.459383 34.591262 L 235.459383 28.591262" stroke="gray" fill="white" stroke-width="1px"></path><path d="M 235.459383 22.591262 L 232.959383 22.591262 L 232.959383 28.591262 L 235.459383 28.591262 L 235.459383 22.591262" stroke="gray" fill="white" stroke-width="1px"></path><path d="M 235.459383 16.591262 L 232.959383 16.591262 L 232.959383 22.591262 L 235.459383 22.591262 L 235.459383 16.591262" stroke="gray" fill="white" stroke-width="1px"></path><path d="M 187.459383 89.033125 L 184.959383 89.033125 L 184.959383 95.033125 L 187.459383 95.033125 L 187.459383 89.033125" stroke="gray" fill="white" stroke-width="1px"></path><path d="M 187.459383 83.033125 L 184.959383 83.033125 L 184.959383 89.033125 L 187.459383 89.033125 L 187.459383 83.033125" stroke="gray" fill="white" stroke-width="1px"></path><path d="M 163.459383 101.033125 L 160.959383 101.033125 L 160.959383 107.033125 L 163.459383 107.033125 L 163.459383 101.033125" stroke="gray" fill="white" stroke-width="1px"></path><path d="M 151.459383 101.033125 L 148.959383 101.033125 L 148.959383 107.033125 L 151.459383 107.033125 L 151.459383 101.033125" stroke="gray" fill="white" stroke-width="1px"></path><path d="M 115.459383 95.033125 L 112.959383 95.033125 L 112.959383 101.033125 L 115.459383 101.033125 L 115.459383 95.033125" stroke="gray" fill="white" stroke-width="1px"></path><path d="M 115.459383 89.033125 L 112.959383 89.033125 L 112.959383 95.033125 L 115.459383 95.033125 L 115.459383 89.033125" stroke="gray" fill="white" stroke-width="1px"></path><path d="M 115.459383 83.033125 L 112.959383 83.033125 L 112.959383 89.033125 L 115.459383 89.033125 L 115.459383 83.033125" stroke="gray" fill="white" stroke-width="1px"></path><path d="M 103.459383 101.033125 L 100.959383 101.033125 L 100.959383 107.033125 L 103.459383 107.033125 L 103.459383 101.033125" stroke="gray" fill="white" stroke-width="1px"></path><path d="M 103.459383 95.033125 L 100.959383 95.033125 L 100.959383 101.033125 L 103.459383 101.033125 L 103.459383 95.033125" stroke="gray" fill="white" stroke-width="1px"></path><path d="M 103.459383 89.033125 L 100.959383 89.033125 L 100.959383 95.033125 L 103.459383 95.033125 L 103.459383 89.033125" stroke="gray" fill="white" stroke-width="1px"></path><path d="M 103.459383 83.033125 L 100.959383 83.033125 L 100.959383 89.033125 L 103.459383 89.033125 L 103.459383 83.033125" stroke="gray" fill="white" stroke-width="1px"></path><path d="M 55.459383 25.992564 L 52.959383 25.992564 L 52.959383 31.992564 L 55.459383 31.992564 L 55.459383 25.992564" stroke="gray" fill="white" stroke-width="1px"></path><path d="M 55.459383 19.992564 L 52.959383 19.992564 L 52.959383 25.992564 L 55.459383 25.992564 L 55.459383 19.992564" stroke="gray" fill="white" stroke-width="1px"></path><path d="M 55.459383 13.992564 L 52.959383 13.992564 L 52.959383 19.992564 L 55.459383 19.992564 L 55.459383 13.992564" stroke="gray" fill="white" stroke-width="1px"></path><path d="M 43.459383 26.857109 L 40.959383 26.857109 L 40.959383 32.857109 L 43.459383 32.857109 L 43.459383 26.857109" stroke="gray" fill="white" stroke-width="1px"></path><path d="M 43.459383 20.857109 L 40.959383 20.857109 L 40.959383 26.857109 L 43.459383 26.857109 L 43.459383 20.857109" stroke="gray" fill="white" stroke-width="1px"></path><path d="M 43.459383 14.857109 L 40.959383 14.857109 L 40.959383 20.857109 L 43.459383 20.857109 L 43.459383 14.857109" stroke="gray" fill="white" stroke-width="1px"></path><path d="M 31.459383 27.721655 L 28.959383 27.721655 L 28.959383 33.721655 L 31.459383 33.721655 L 31.459383 27.721655" stroke="gray" fill="white" stroke-width="1px"></path><path d="M 31.459383 21.721655 L 28.959383 21.721655 L 28.959383 27.721655 L 31.459383 27.721655 L 31.459383 21.721655" stroke="gray" fill="white" stroke-width="1px"></path><path d="M 31.459383 15.721655 L 28.959383 15.721655 L 28.959383 21.721655 L 31.459383 21.721655 L 31.459383 15.721655" stroke="gray" fill="white" stroke-width="1px"></path><path d="M 19.459383 28.586200 L 16.959383 28.586200 L 16.959383 34.586200 L 19.459383 34.586200 L 19.459383 28.586200" stroke="gray" fill="white" stroke-width="1px"></path><path d="M 19.459383 22.586200 L 16.959383 22.586200 L 16.959383 28.586200 L 19.459383 28.586200 L 19.459383 22.586200" stroke="gray" fill="white" stroke-width="1px"></path><path d="M 19.459383 16.586200 L 16.959383 16.586200 L 16.959383 22.586200 L 19.459383 22.586200 L 19.459383 16.586200" stroke="gray" fill="white" stroke-width="1px"></path><path d="M 271.459383 23.866874 L 273.959383 23.866874 L 273.959383 29.866874 L 271.459383 29.866874 L 271.459383 23.866874" stroke="gray" fill="white" stroke-width="1px"></path><path d="M 271.459383 17.866874 L 273.959383 17.866874 L 273.959383 23.866874 L 271.459383 23.866874 L 271.459383 17.866874" stroke="gray" fill="white" stroke-width="1px"></path><path d="M 259.459383 25.337700 L 261.959383 25.337700 L 261.959383 31.337700 L 259.459383 31.337700 L 259.459383 25.337700" stroke="gray" fill="white" stroke-width="1px"></path><path d="M 259.459383 19.337700 L 261.959383 19.337700 L 261.959383 25.337700 L 259.459383 25.337700 L 259.459383 19.337700" stroke="gray" fill="white" stroke-width="1px"></path><path d="M 259.459383 13.337700 L 261.959383 13.337700 L 261.959383 19.337700 L 259.459383 19.337700 L 259.459383 13.337700" stroke="gray" fill="white" stroke-width="1px"></path><path d="M 247.459383 26.808526 L 249.959383 26.808526 L 249.959383 32.808526 L 247.459383 32.808526 L 247.459383 26.808526" stroke="gray" fill="white" stroke-width="1px"></path><path d="M 247.459383 20.808526 L 249.959383 20.808526 L 249.959383 26.808526 L 247.459383 26.808526 L 247.459383 20.808526" stroke="gray" fill="white" stroke-width="1px"></path><path d="M 247.459383 14.808526 L 249.959383 14.808526 L 249.959383 20.808526 L 247.459383 20.808526 L 247.459383 14.808526" stroke="gray" fill="white" stroke-width="1px"></path><path d="M 235.459383 28.591262 L 237.959383 28.591262 L 237.959383 34.591262 L 235.459383 34.591262 L 235.459383 28.591262" stroke="gray" fill="white" stroke-width="1px"></path><path d="M 235.459383 22.591262 L 237.959383 22.591262 L 237.959383 28.591262 L 235.459383 28.591262 L 235.459383 22.591262" stroke="gray" fill="white" stroke-width="1px"></path><path d="M 235.459383 16.591262 L 237.959383 16.591262 L 237.959383 22.591262 L 235.459383 22.591262 L 235.459383 16.591262" stroke="gray" fill="white" stroke-width="1px"></path><path d="M 187.459383 89.033125 L 189.959383 89.033125 L 189.959383 95.033125 L 187.459383 95.033125 L 187.459383 89.033125" stroke="gray" fill="white" stroke-width="1px"></path><path d="M 187.459383 83.033125 L 189.959383 83.033125 L 189.959383 89.033125 L 187.459383 89.033125 L 187.459383 83.033125" stroke="gray" fill="white" stroke-width="1px"></path><path d="M 163.459383 101.033125 L 165.959383 101.033125 L 165.959383 107.033125 L 163.459383 107.033125 L 163.459383 101.033125" stroke="gray" fill="white" stroke-width="1px"></path><path d="M 151.459383 101.033125 L 153.959383 101.033125 L 153.959383 107.033125 L 151.459383 107.033125 L 151.459383 101.033125" stroke="gray" fill="white" stroke-width="1px"></path><path d="M 115.459383 95.033125 L 117.959383 95.033125 L 117.959383 101.033125 L 115.459383 101.033125 L 115.459383 95.033125" stroke="gray" fill="white" stroke-width="1px"></path><path d="M 115.459383 89.033125 L 117.959383 89.033125 L 117.959383 95.033125 L 115.459383 95.033125 L 115.459383 89.033125" stroke="gray" fill="white" stroke-width="1px"></path><path d="M 115.459383 83.033125 L 117.959383 83.033125 L 117.959383 89.033125 L 115.459383 89.033125 L 115.459383 83.033125" stroke="gray" fill="white" stroke-width="1px"></path><path d="M 103.459383 101.033125 L 105.959383 101.033125 L 105.959383 107.033125 L 103.459383 107.033125 L 103.459383 101.033125" stroke="gray" fill="white" stroke-width="1px"></path><path d="M 103.459383 95.033125 L 105.959383 95.033125 L 105.959383 101.033125 L 103.459383 101.033125 L 103.459383 95.033125" stroke="gray" fill="white" stroke-width="1px"></path><path d="M 103.459383 89.033125 L 105.959383 89.033125 L 105.959383 95.033125 L 103.459383 95.033125 L 103.459383 89.033125" stroke="gray" fill="white" stroke-width="1px"></path><path d="M 103.459383 83.033125 L 105.959383 83.033125 L 105.959383 89.033125 L 103.459383 89.033125 L 103.459383 83.033125" stroke="gray" fill="white" stroke-width="1px"></path><path d="M 55.459383 25.992564 L 57.959383 25.992564 L 57.959383 31.992564 L 55.459383 31.992564 L 55.459383 25.992564" stroke="gray" fill="white" stroke-width="1px"></path><path d="M 55.459383 19.992564 L 57.959383 19.992564 L 57.959383 25.992564 L 55.459383 25.992564 L 55.459383 19.992564" stroke="gray" fill="white" stroke-width="1px"></path><path d="M 55.459383 13.992564 L 57.959383 13.992564 L 57.959383 19.992564 L 55.459383 19.992564 L 55.459383 13.992564" stroke="gray" fill="white" stroke-width="1px"></path><path d="M 43.459383 26.857109 L 45.959383 26.857109 L 45.959383 32.857109 L 43.459383 32.857109 L 43.459383 26.857109" stroke="gray" fill="white" stroke-width="1px"></path><path d="M 43.459383 20.857109 L 45.959383 20.857109 L 45.959383 26.857109 L 43.459383 26.857109 L 43.459383 20.857109" stroke="gray" fill="white" stroke-width="1px"></path><path d="M 43.459383 14.857109 L 45.959383 14.857109 L 45.959383 20.857109 L 43.459383 20.857109 L 43.459383 14.857109" stroke="gray" fill="white" stroke-width="1px"></path><path d="M 31.459383 27.721655 L 33.959383 27.721655 L 33.959383 33.721655 L 31.459383 33.721655 L 31.459383 27.721655" stroke="gray" fill="white" stroke-width="1px"></path><path d="M 31.459383 21.721655 L 33.959383 21.721655 L 33.959383 27.721655 L 31.459383 27.721655 L 31.459383 21.721655" stroke="gray" fill="white" stroke-width="1px"></path><path d="M 31.459383 15.721655 L 33.959383 15.721655 L 33.959383 21.721655 L 31.459383 21.721655 L 31.459383 15.721655" stroke="gray" fill="white" stroke-width="1px"></path><path d="M 19.459383 28.586200 L 21.959383 28.586200 L 21.959383 34.586200 L 19.459383 34.586200 L 19.459383 28.586200" stroke="gray" fill="white" stroke-width="1px"></path><path d="M 19.459383 22.586200 L 21.959383 22.586200 L 21.959383 28.586200 L 19.459383 28.586200 L 19.459383 22.586200" stroke="gray" fill="white" stroke-width="1px"></path><path d="M 19.459383 16.586200 L 21.959383 16.586200 L 21.959383 22.586200 L 19.459383 22.586200 L 19.459383 16.586200" stroke="gray" fill="white" stroke-width="1px"></path><path d="M 262.873743 101.263579 L 262.873743 98.763579 L 256.873743 98.763579 L 256.873743 101.263579 L 262.873743 101.263579" stroke="gray" fill="white" stroke-width="1px"></path><path d="M 268.873743 101.263579 L 268.873743 98.763579 L 262.873743 98.763579 L 262.873743 101.263579 L 268.873743 101.263579" stroke="gray" fill="white" stroke-width="1px"></path><path d="M 274.873743 101.263579 L 274.873743 98.763579 L 268.873743 98.763579 L 268.873743 101.263579 L 274.873743 101.263579" stroke="gray" fill="white" stroke-width="1px"></path><path d="M 260.186238 89.263579 L 260.186238 86.763579 L 254.186238 86.763579 L 254.186238 89.263579 L 260.186238 89.263579" stroke="gray" fill="white" stroke-width="1px"></path><path d="M 266.186238 89.263579 L 266.186238 86.763579 L 260.186238 86.763579 L 260.186238 89.263579 L 266.186238 89.263579" stroke="gray" fill="white" stroke-width="1px"></path><path d="M 272.186238 89.263579 L 272.186238 86.763579 L 266.186238 86.763579 L 266.186238 89.263579 L 272.186238 89.263579" stroke="gray" fill="white" stroke-width="1px"></path><path d="M 278.186238 89.263579 L 278.186238 86.763579 L 272.186238 86.763579 L 272.186238 89.263579 L 278.186238 89.263579" stroke="gray" fill="white" stroke-width="1px"></path><path d="M 257.498733 77.263579 L 257.498733 74.763579 L 251.498733 74.763579 L 251.498733 77.263579 L 257.498733 77.263579" stroke="gray" fill="white" stroke-width="1px"></path><path d="M 263.498733 77.263579 L 263.498733 74.763579 L 257.498733 74.763579 L 257.498733 77.263579 L 263.498733 77.263579" stroke="gray" fill="white" stroke-width="1px"></path><path d="M 269.498733 77.263579 L 269.498733 74.763579 L 263.498733 74.763579 L 263.498733 77.263579 L 269.498733 77.263579" stroke="gray" fill="white" stroke-width="1px"></path><path d="M 275.498733 77.263579 L 275.498733 74.763579 L 269.498733 74.763579 L 269.498733 77.263579 L 275.498733 77.263579" stroke="gray" fill="white" stroke-width="1px"></path><path d="M 219.382027 101.263579 L 219.382027 98.763579 L 213.382027 98.763579 L 213.382027 101.263579 L 219.382027 101.263579" stroke="gray" fill="white" stroke-width="1px"></path><path d="M 225.382027 101.263579 L 225.382027 98.763579 L 219.382027 98.763579 L 219.382027 101.263579 L 225.382027 101.263579" stroke="gray" fill="white" stroke-width="1px"></path><path d="M 231.382027 101.263579 L 231.382027 98.763579 L 225.382027 98.763579 L 225.382027 101.263579 L 231.382027 101.263579" stroke="gray" fill="white" stroke-width="1px"></path><path d="M 237.382027 101.263579 L 237.382027 98.763579 L 231.382027 98.763579 L 231.382027 101.263579 L 237.382027 101.263579" stroke="gray" fill="white" stroke-width="1px"></path><path d="M 243.382027 101.263579 L 243.382027 98.763579 L 237.382027 98.763579 L 237.382027 101.263579 L 243.382027 101.263579" stroke="gray" fill="white" stroke-width="1px"></path><path d="M 220.801352 89.263579 L 220.801352 86.763579 L 214.801352 86.763579 L 214.801352 89.263579 L 220.801352 89.263579" stroke="gray" fill="white" stroke-width="1px"></path><path d="M 226.801352 89.263579 L 226.801352 86.763579 L 220.801352 86.763579 L 220.801352 89.263579 L 226.801352 89.263579" stroke="gray" fill="white" stroke-width="1px"></path><path d="M 232.801352 89.263579 L 232.801352 86.763579 L 226.801352 86.763579 L 226.801352 89.263579 L 232.801352 89.263579" stroke="gray" fill="white" stroke-width="1px"></path><path d="M 238.801352 89.263579 L 238.801352 86.763579 L 232.801352 86.763579 L 232.801352 89.263579 L 238.801352 89.263579" stroke="gray" fill="white" stroke-width="1px"></path><path d="M 22.000000 101.263579 L 22.000000 98.763579 L 16.000000 98.763579 L 16.000000 101.263579 L 22.000000 101.263579" stroke="gray" fill="white" stroke-width="1px"></path><path d="M 28.000000 101.263579 L 28.000000 98.763579 L 22.000000 98.763579 L 22.000000 101.263579 L 28.000000 101.263579" stroke="gray" fill="white" stroke-width="1px"></path><path d="M 34.000000 101.263579 L 34.000000 98.763579 L 28.000000 98.763579 L 28.000000 101.263579 L 34.000000 101.263579" stroke="gray" fill="white" stroke-width="1px"></path><path d="M 40.000000 101.263579 L 40.000000 98.763579 L 34.000000 98.763579 L 34.000000 101.263579 L 40.000000 101.263579" stroke="gray" fill="white" stroke-width="1px"></path><path d="M 22.000000 89.263579 L 22.000000 86.763579 L 16.000000 86.763579 L 16.000000 89.263579 L 22.000000 89.263579" stroke="gray" fill="white" stroke-width="1px"></path><path d="M 28.000000 89.263579 L 28.000000 86.763579 L 22.000000 86.763579 L 22.000000 89.263579 L 28.000000 89.263579" stroke="gray" fill="white" stroke-width="1px"></path><path d="M 34.000000 89.263579 L 34.000000 86.763579 L 28.000000 86.763579 L 28.000000 89.263579 L 34.000000 89.263579" stroke="gray" fill="white" stroke-width="1px"></path><path d="M 40.000000 89.263579 L 40.000000 86.763579 L 34.000000 86.763579 L 34.000000 89.263579 L 40.000000 89.263579" stroke="gray" fill="white" stroke-width="1px"></path><path d="M 22.000000 77.263579 L 22.000000 74.763579 L 16.000000 74.763579 L 16.000000 77.263579 L 22.000000 77.263579" stroke="gray" fill="white" stroke-width="1px"></path><path d="M 28.000000 77.263579 L 28.000000 74.763579 L 22.000000 74.763579 L 22.000000 77.263579 L 28.000000 77.263579" stroke="gray" fill="white" stroke-width="1px"></path><path d="M 34.000000 77.263579 L 34.000000 74.763579 L 28.000000 74.763579 L 28.000000 77.263579 L 34.000000 77.263579" stroke="gray" fill="white" stroke-width="1px"></path><path d="M 40.000000 77.263579 L 40.000000 74.763579 L 34.000000 74.763579 L 34.000000 77.263579 L 40.000000 77.263579" stroke="gray" fill="white" stroke-width="1px"></path><path d="M 22.000000 65.263579 L 22.000000 62.763579 L 16.000000 62.763579 L 16.000000 65.263579 L 22.000000 65.263579" stroke="gray" fill="white" stroke-width="1px"></path><path d="M 28.000000 65.263579 L 28.000000 62.763579 L 22.000000 62.763579 L 22.000000 65.263579 L 28.000000 65.263579" stroke="gray" fill="white" stroke-width="1px"></path><path d="M 34.000000 65.263579 L 34.000000 62.763579 L 28.000000 62.763579 L 28.000000 65.263579 L 34.000000 65.263579" stroke="gray" fill="white" stroke-width="1px"></path><path d="M 40.000000 65.263579 L 40.000000 62.763579 L 34.000000 62.763579 L 34.000000 65.263579 L 40.000000 65.263579" stroke="gray" fill="white" stroke-width="1px"></path><path d="M 262.873743 101.263579 L 262.873743 103.763579 L 256.873743 103.763579 L 256.873743 101.263579 L 262.873743 101.263579" stroke="gray" fill="white" stroke-width="1px"></path><path d="M 268.873743 101.263579 L 268.873743 103.763579 L 262.873743 103.763579 L 262.873743 101.263579 L 268.873743 101.263579" stroke="gray" fill="white" stroke-width="1px"></path><path d="M 274.873743 101.263579 L 274.873743 103.763579 L 268.873743 103.763579 L 268.873743 101.263579 L 274.873743 101.263579" stroke="gray" fill="white" stroke-width="1px"></path><path d="M 260.186238 89.263579 L 260.186238 91.763579 L 254.186238 91.763579 L 254.186238 89.263579 L 260.186238 89.263579" stroke="gray" fill="white" stroke-width="1px"></path><path d="M 266.186238 89.263579 L 266.186238 91.763579 L 260.186238 91.763579 L 260.186238 89.263579 L 266.186238 89.263579" stroke="gray" fill="white" stroke-width="1px"></path><path d="M 272.186238 89.263579 L 272.186238 91.763579 L 266.186238 91.763579 L 266.186238 89.263579 L 272.186238 89.263579" stroke="gray" fill="white" stroke-width="1px"></path><path d="M 278.186238 89.263579 L 278.186238 91.763579 L 272.186238 91.763579 L 272.186238 89.263579 L 278.186238 89.263579" stroke="gray" fill="white" stroke-width="1px"></path><path d="M 257.498733 77.263579 L 257.498733 79.763579 L 251.498733 79.763579 L 251.498733 77.263579 L 257.498733 77.263579" stroke="gray" fill="white" stroke-width="1px"></path><path d="M 263.498733 77.263579 L 263.498733 79.763579 L 257.498733 79.763579 L 257.498733 77.263579 L 263.498733 77.263579" stroke="gray" fill="white" stroke-width="1px"></path><path d="M 269.498733 77.263579 L 269.498733 79.763579 L 263.498733 79.763579 L 263.498733 77.263579 L 269.498733 77.263579" stroke="gray" fill="white" stroke-width="1px"></path><path d="M 275.498733 77.263579 L 275.498733 79.763579 L 269.498733 79.763579 L 269.498733 77.263579 L 275.498733 77.263579" stroke="gray" fill="white" stroke-width="1px"></path><path d="M 219.382027 101.263579 L 219.382027 103.763579 L 213.382027 103.763579 L 213.382027 101.263579 L 219.382027 101.263579" stroke="gray" fill="white" stroke-width="1px"></path><path d="M 225.382027 101.263579 L 225.382027 103.763579 L 219.382027 103.763579 L 219.382027 101.263579 L 225.382027 101.263579" stroke="gray" fill="white" stroke-width="1px"></path><path d="M 231.382027 101.263579 L 231.382027 103.763579 L 225.382027 103.763579 L 225.382027 101.263579 L 231.382027 101.263579" stroke="gray" fill="white" stroke-width="1px"></path><path d="M 237.382027 101.263579 L 237.382027 103.763579 L 231.382027 103.763579 L 231.382027 101.263579 L 237.382027 101.263579" stroke="gray" fill="white" stroke-width="1px"></path><path d="M 243.382027 101.263579 L 243.382027 103.763579 L 237.382027 103.763579 L 237.382027 101.263579 L 243.382027 101.263579" stroke="gray" fill="white" stroke-width="1px"></path><path d="M 220.801352 89.263579 L 220.801352 91.763579 L 214.801352 91.763579 L 214.801352 89.263579 L 220.801352 89.263579" stroke="gray" fill="white" stroke-width="1px"></path><path d="M 226.801352 89.263579 L 226.801352 91.763579 L 220.801352 91.763579 L 220.801352 89.263579 L 226.801352 89.263579" stroke="gray" fill="white" stroke-width="1px"></path><path d="M 232.801352 89.263579 L 232.801352 91.763579 L 226.801352 91.763579 L 226.801352 89.263579 L 232.801352 89.263579" stroke="gray" fill="white" stroke-width="1px"></path><path d="M 238.801352 89.263579 L 238.801352 91.763579 L 232.801352 91.763579 L 232.801352 89.263579 L 238.801352 89.263579" stroke="gray" fill="white" stroke-width="1px"></path><path d="M 22.000000 101.263579 L 22.000000 103.763579 L 16.000000 103.763579 L 16.000000 101.263579 L 22.000000 101.263579" stroke="gray" fill="white" stroke-width="1px"></path><path d="M 28.000000 101.263579 L 28.000000 103.763579 L 22.000000 103.763579 L 22.000000 101.263579 L 28.000000 101.263579" stroke="gray" fill="white" stroke-width="1px"></path><path d="M 34.000000 101.263579 L 34.000000 103.763579 L 28.000000 103.763579 L 28.000000 101.263579 L 34.000000 101.263579" stroke="gray" fill="white" stroke-width="1px"></path><path d="M 40.000000 101.263579 L 40.000000 103.763579 L 34.000000 103.763579 L 34.000000 101.263579 L 40.000000 101.263579" stroke="gray" fill="white" stroke-width="1px"></path><path d="M 22.000000 89.263579 L 22.000000 91.763579 L 16.000000 91.763579 L 16.000000 89.263579 L 22.000000 89.263579" stroke="gray" fill="white" stroke-width="1px"></path><path d="M 28.000000 89.263579 L 28.000000 91.763579 L 22.000000 91.763579 L 22.000000 89.263579 L 28.000000 89.263579" stroke="gray" fill="white" stroke-width="1px"></path><path d="M 34.000000 89.263579 L 34.000000 91.763579 L 28.000000 91.763579 L 28.000000 89.263579 L 34.000000 89.263579" stroke="gray" fill="white" stroke-width="1px"></path><path d="M 40.000000 89.263579 L 40.000000 91.763579 L 34.000000 91.763579 L 34.000000 89.263579 L 40.000000 89.263579" stroke="gray" fill="white" stroke-width="1px"></path><path d="M 22.000000 77.263579 L 22.000000 79.763579 L 16.000000 79.763579 L 16.000000 77.263579 L 22.000000 77.263579" stroke="gray" fill="white" stroke-width="1px"></path><path d="M 28.000000 77.263579 L 28.000000 79.763579 L 22.000000 79.763579 L 22.000000 77.263579 L 28.000000 77.263579" stroke="gray" fill="white" stroke-width="1px"></path><path d="M 34.000000 77.263579 L 34.000000 79.763579 L 28.000000 79.763579 L 28.000000 77.263579 L 34.000000 77.263579" stroke="gray" fill="white" stroke-width="1px"></path><path d="M 40.000000 77.263579 L 40.000000 79.763579 L 34.000000 79.763579 L 34.000000 77.263579 L 40.000000 77.263579" stroke="gray" fill="white" stroke-width="1px"></path><path d="M 22.000000 65.263579 L 22.000000 67.763579 L 16.000000 67.763579 L 16.000000 65.263579 L 22.000000 65.263579" stroke="gray" fill="white" stroke-width="1px"></path><path d="M 28.000000 65.263579 L 28.000000 67.763579 L 22.000000 67.763579 L 22.000000 65.263579 L 28.000000 65.263579" stroke="gray" fill="white" stroke-width="1px"></path><path d="M 34.000000 65.263579 L 34.000000 67.763579 L 28.000000 67.763579 L 28.000000 65.263579 L 34.000000 65.263579" stroke="gray" fill="white" stroke-width="1px"></path><path d="M 40.000000 65.263579 L 40.000000 67.763579 L 34.000000 67.763579 L 34.000000 65.263579 L 40.000000 65.263579" stroke="gray" fill="white" stroke-width="1px"></path></g><g id="crv-base"><path d="M 221.371570 123.090312 L 221.371570 169.241094 L 120.000633 169.241094 L 120.000633 156.444206 L 126.051258 156.444206 L 126.051258 128.832500 L 123.590320 128.832500 L 123.590320 125.551250 L 126.051258 125.551250 L 126.051258 123.858132 L 91.315945 123.858125 L 91.315945 134.738750 L 64.258762 134.738750 L 64.258762 123.687497 L 10.000000 123.687497 L 10.000000 226.180625 L 64.258758 226.180625 L 64.258758 192.357500 L 91.315945 192.357500 L 91.315945 220.123437 L 283.459383 220.123437 L 283.459383 123.090312 L 221.371570 123.090312" stroke="black" fill="none" stroke-width="1px"></path><path d="M 221.371570 10.000000 L 221.371570 56.150781 L 120.000633 56.150781 L 120.000633 43.353893 L 126.051258 43.353893 L 126.051258 15.742187 L 123.590320 15.742187 L 123.590320 12.460937 L 126.051258 12.460937 L 126.051258 10.767819 L 91.315945 10.767812 L 91.315945 21.648438 L 64.258762 21.648438 L 64.258762 10.597185 L 10.000000 10.597185 L 10.000000 113.090312 L 64.258758 113.090312 L 64.258758 79.267187 L 91.315945 79.267187 L 91.315945 107.033125 L 283.459383 107.033125 L 283.459383 10.000000 L 221.371570 10.000000" stroke="black" fill="none" stroke-width="1px"></path><path d="M 10.387195 156.559062 L 10.387195 154.590312 L 12.355945 154.590312 L 12.355945 156.559062 L 10.387195 156.559062" stroke="black" fill="white" stroke-width="1px"></path><path d="M 10.387195 43.468750 L 10.387195 41.500000 L 12.355945 41.500000 L 12.355945 43.468750 L 10.387195 43.468750" stroke="black" fill="white" stroke-width="1px"></path><path d="M 10.387195 188.059062 L 10.387195 186.090312 L 12.355945 186.090312 L 12.355945 188.059062 L 10.387195 188.059062" stroke="black" fill="white" stroke-width="1px"></path><path d="M 10.387195 74.968750 L 10.387195 73.000000 L 12.355945 73.000000 L 12.355945 74.968750 L 10.387195 74.968750" stroke="black" fill="white" stroke-width="1px"></path><path d="M 10.387195 219.559062 L 10.387195 217.590312 L 12.355945 217.590312 L 12.355945 219.559062 L 10.387195 219.559062" stroke="black" fill="white" stroke-width="1px"></path><path d="M 10.387195 106.468750 L 10.387195 104.500000 L 12.355945 104.500000 L 12.355945 106.468750 L 10.387195 106.468750" stroke="black" fill="white" stroke-width="1px"></path><path d="M 60.754383 128.340312 L 60.754383 125.387187 L 63.871570 125.387187 L 63.871570 128.340312 L 60.754383 128.340312" stroke="black" fill="white" stroke-width="1px"></path><path d="M 60.754383 15.250000 L 60.754383 12.296875 L 63.871570 12.296875 L 63.871570 15.250000 L 60.754383 15.250000" stroke="black" fill="white" stroke-width="1px"></path><path d="M 280.598133 219.230937 L 280.598133 217.262187 L 282.566883 217.262187 L 282.566883 219.230937 L 280.598133 219.230937" stroke="black" fill="white" stroke-width="1px"></path><path d="M 280.598133 106.140625 L 280.598133 104.171875 L 282.566883 104.171875 L 282.566883 106.140625 L 280.598133 106.140625" stroke="black" fill="white" stroke-width="1px"></path><path d="M 280.598133 188.059062 L 280.598133 186.090312 L 282.566883 186.090312 L 282.566883 188.059062 L 280.598133 188.059062" stroke="black" fill="white" stroke-width="1px"></path><path d="M 280.598133 74.968750 L 280.598133 73.000000 L 282.566883 73.000000 L 282.566883 74.968750 L 280.598133 74.968750" stroke="black" fill="white" stroke-width="1px"></path><path d="M 280.598133 156.559050 L 280.598133 154.590300 L 282.566883 154.590300 L 282.566883 156.559050 L 280.598133 156.559050" stroke="black" fill="white" stroke-width="1px"></path><path d="M 280.598133 43.468737 L 280.598133 41.499987 L 282.566883 41.499987 L 282.566883 43.468737 L 280.598133 43.468737" stroke="black" fill="white" stroke-width="1px"></path><path d="M 248.605945 127.355937 L 248.605945 123.418437 L 251.887195 123.418437 L 251.887195 127.355937 L 248.605945 127.355937" stroke="black" fill="white" stroke-width="1px"></path><path d="M 248.605945 14.265625 L 248.605945 10.328125 L 251.887195 10.328125 L 251.887195 14.265625 L 248.605945 14.265625" stroke="black" fill="white" stroke-width="1px"></path><path d="M 248.605945 157.871562 L 248.605945 153.934062 L 251.887195 153.934062 L 251.887195 157.871562 L 248.605945 157.871562" stroke="black" fill="white" stroke-width="1px"></path><path d="M 248.605945 44.781250 L 248.605945 40.843750 L 251.887195 40.843750 L 251.887195 44.781250 L 248.605945 44.781250" stroke="black" fill="white" stroke-width="1px"></path><path d="M 248.605945 189.043437 L 248.605945 185.105937 L 251.887195 185.105937 L 251.887195 189.043437 L 248.605945 189.043437" stroke="black" fill="white" stroke-width="1px"></path><path d="M 248.605945 75.953125 L 248.605945 72.015625 L 251.887195 72.015625 L 251.887195 75.953125 L 248.605945 75.953125" stroke="black" fill="white" stroke-width="1px"></path><path d="M 248.934070 219.230937 L 248.934070 216.277812 L 251.887195 216.277812 L 251.887195 219.230937 L 248.934070 219.230937" stroke="black" fill="white" stroke-width="1px"></path><path d="M 248.934070 106.140625 L 248.934070 103.187500 L 251.887195 103.187500 L 251.887195 106.140625 L 248.934070 106.140625" stroke="black" fill="white" stroke-width="1px"></path><path d="M 218.090320 189.043437 L 218.090320 185.105937 L 221.371570 185.105937 L 221.371570 189.043437 L 218.090320 189.043437" stroke="black" fill="white" stroke-width="1px"></path><path d="M 218.090320 75.953125 L 218.090320 72.015625 L 221.371570 72.015625 L 221.371570 75.953125 L 218.090320 75.953125" stroke="black" fill="white" stroke-width="1px"></path><path d="M 218.254383 219.230937 L 218.254383 216.277812 L 221.207508 216.277812 L 221.207508 219.230937 L 218.254383 219.230937" stroke="black" fill="white" stroke-width="1px"></path><path d="M 218.254383 106.140625 L 218.254383 103.187500 L 221.207508 103.187500 L 221.207508 106.140625 L 218.254383 106.140625" stroke="black" fill="white" stroke-width="1px"></path><path d="M 186.590320 189.043437 L 186.590320 185.105937 L 189.871570 185.105937 L 189.871570 189.043437 L 186.590320 189.043437" stroke="black" fill="white" stroke-width="1px"></path><path d="M 186.590320 75.953125 L 186.590320 72.015625 L 189.871570 72.015625 L 189.871570 75.953125 L 186.590320 75.953125" stroke="black" fill="white" stroke-width="1px"></path><path d="M 186.754383 219.230937 L 186.754383 216.277812 L 189.707508 216.277812 L 189.707508 219.230937 L 186.754383 219.230937" stroke="black" fill="white" stroke-width="1px"></path><path d="M 186.754383 106.140625 L 186.754383 103.187500 L 189.707508 103.187500 L 189.707508 106.140625 L 186.754383 106.140625" stroke="black" fill="white" stroke-width="1px"></path><path d="M 155.090320 189.043437 L 155.090320 185.105937 L 158.371570 185.105937 L 158.371570 189.043437 L 155.090320 189.043437" stroke="black" fill="white" stroke-width="1px"></path><path d="M 155.090320 75.953125 L 155.090320 72.015625 L 158.371570 72.015625 L 158.371570 75.953125 L 155.090320 75.953125" stroke="black" fill="white" stroke-width="1px"></path><path d="M 155.254383 219.230937 L 155.254383 216.277812 L 158.207508 216.277812 L 158.207508 219.230937 L 155.254383 219.230937" stroke="black" fill="white" stroke-width="1px"></path><path d="M 155.254383 106.140625 L 155.254383 103.187500 L 158.207508 103.187500 L 158.207508 106.140625 L 155.254383 106.140625" stroke="black" fill="white" stroke-width="1px"></path><path d="M 123.590320 189.043437 L 123.590320 185.105937 L 126.871570 185.105937 L 126.871570 189.043437 L 123.590320 189.043437" stroke="black" fill="white" stroke-width="1px"></path><path d="M 123.590320 75.953125 L 123.590320 72.015625 L 126.871570 72.015625 L 126.871570 75.953125 L 123.590320 75.953125" stroke="black" fill="white" stroke-width="1px"></path><path d="M 123.754383 219.230937 L 123.754383 216.277812 L 126.707508 216.277812 L 126.707508 219.230937 L 123.754383 219.230937" stroke="black" fill="white" stroke-width="1px"></path><path d="M 123.754383 106.140625 L 123.754383 103.187500 L 126.707508 103.187500 L 126.707508 106.140625 L 123.754383 106.140625" stroke="black" fill="white" stroke-width="1px"></path><path d="M 92.090320 157.543437 L 92.090320 153.605937 L 95.371570 153.605937 L 95.371570 157.543437 L 92.090320 157.543437" stroke="black" fill="white" stroke-width="1px"></path><path d="M 92.090320 44.453125 L 92.090320 40.515625 L 95.371570 40.515625 L 95.371570 44.453125 L 92.090320 44.453125" stroke="black" fill="white" stroke-width="1px"></path><path d="M 92.090320 189.043437 L 92.090320 185.105937 L 95.371570 185.105937 L 95.371570 189.043437 L 92.090320 189.043437" stroke="black" fill="white" stroke-width="1px"></path><path d="M 92.090320 75.953125 L 92.090320 72.015625 L 95.371570 72.015625 L 95.371570 75.953125 L 92.090320 75.953125" stroke="black" fill="white" stroke-width="1px"></path><path d="M 92.090320 128.504375 L 92.090320 125.551250 L 95.207508 125.551250 L 95.207508 128.504375 L 92.090320 128.504375" stroke="black" fill="white" stroke-width="1px"></path><path d="M 92.090320 15.414062 L 92.090320 12.460937 L 95.207508 12.460937 L 95.207508 15.414062 L 92.090320 15.414062" stroke="black" fill="white" stroke-width="1px"></path><path d="M 60.590320 157.215312 L 60.590320 153.934062 L 63.871570 153.934062 L 63.871570 157.215312 L 60.590320 157.215312" stroke="black" fill="white" stroke-width="1px"></path><path d="M 60.590320 44.125000 L 60.590320 40.843750 L 63.871570 40.843750 L 63.871570 44.125000 L 60.590320 44.125000" stroke="black" fill="white" stroke-width="1px"></path><path d="M 60.754383 219.230937 L 60.754383 216.277812 L 63.871570 216.277812 L 63.871570 219.230937 L 60.754383 219.230937" stroke="black" fill="white" stroke-width="1px"></path><path d="M 60.754383 106.140625 L 60.754383 103.187500 L 63.871570 103.187500 L 63.871570 106.140625 L 60.754383 106.140625" stroke="black" fill="white" stroke-width="1px"></path><path d="M 30.074695 128.504375 L 30.074695 125.223125 L 33.027820 125.223125 L 33.027820 128.504375 L 30.074695 128.504375" stroke="black" fill="white" stroke-width="1px"></path><path d="M 30.074695 15.414062 L 30.074695 12.132812 L 33.027820 12.132812 L 33.027820 15.414062 L 30.074695 15.414062" stroke="black" fill="white" stroke-width="1px"></path><path d="M 30.074695 157.215312 L 30.074695 153.934062 L 33.355945 153.934062 L 33.355945 157.215312 L 30.074695 157.215312" stroke="black" fill="white" stroke-width="1px"></path><path d="M 30.074695 44.125000 L 30.074695 40.843750 L 33.355945 40.843750 L 33.355945 44.125000 L 30.074695 44.125000" stroke="black" fill="white" stroke-width="1px"></path><path d="M 30.074695 188.715312 L 30.074695 185.434062 L 33.355945 185.434062 L 33.355945 188.715312 L 30.074695 188.715312" stroke="black" fill="white" stroke-width="1px"></path><path d="M 30.074695 75.625000 L 30.074695 72.343750 L 33.355945 72.343750 L 33.355945 75.625000 L 30.074695 75.625000" stroke="black" fill="white" stroke-width="1px"></path><path d="M 30.074695 219.230937 L 30.074695 216.277812 L 33.027820 216.277812 L 33.027820 219.230937 L 30.074695 219.230937" stroke="black" fill="white" stroke-width="1px"></path><path d="M 30.074695 106.140625 L 30.074695 103.187500 L 33.027820 103.187500 L 33.027820 106.140625 L 30.074695 106.140625" stroke="black" fill="white" stroke-width="1px"></path><path d="M 10.387195 127.191875 L 10.387195 125.223125 L 12.355945 125.223125 L 12.355945 127.191875 L 10.387195 127.191875" stroke="black" fill="white" stroke-width="1px"></path><path d="M 10.387195 14.101562 L 10.387195 12.132812 L 12.355945 12.132812 L 12.355945 14.101562 L 10.387195 14.101562" stroke="black" fill="white" stroke-width="1px"></path><path d="M 60.590320 189.863750 L 60.590320 185.434062 L 63.871570 185.434062 L 63.871570 188.715312 L 62.230945 188.715312 L 62.230945 189.863750 L 60.590320 189.863750" stroke="black" fill="white" stroke-width="1px"></path><path d="M 60.590320 76.773437 L 60.590320 72.343750 L 63.871570 72.343750 L 63.871570 75.625000 L 62.230945 75.625000 L 62.230945 76.773437 L 60.590320 76.773437" stroke="black" fill="white" stroke-width="1px"></path></g></svg>