<svg width="293.459383" height="236.180625" xmlns="http://www.w3.org/2000/svg" xmlns:xlink="http://www.w3.org/1999/xlink" version="1.1"><g id="crv-background"><path d="M 221.371570 123.090312 L 221.371570 169.241094 L 120.000633 169.241094 L 120.000633 156.444206 L 126.051258 156.444206 L 126.051258 128.832500 L 123.590320 128.832500 L 123.590320 125.551250 L 126.051258 125.551250 L 126.051258 123.858132 L 91.315945 123.858125 L 91.315945 134.738750 L 64.258762 134.738750 L 64.258762 123.687497 L 10.000000 123.687497 L 10.000000 226.180625 L 64.258758 226.180625 L 64.258758 192.357500 L 91.315945 192.357500 L 91.315945 220.123437 L 283.459383 220.123437 L 283.459383 123.090312 L 221.371570 123.090312" stroke="none" fill="white" stroke-width="1px"></path><path d="M 221.371570 10.000000 L 221.371570 56.150781 L 120.000633 56.150781 L 120.000633 43.353893 L 126.051258 43.353893 L 126.051258 15.742187 L 123.590320 15.742187 L 123.590320 12.460937 L 126.051258 12.460937 L 126.051258 10.767819 L 91.315945 10.767812 L 91.315945 21.648438 L 64.258762 21.648438 L 64.258762 10.597185 L 10.000000 10.597185 L 10.000000 113.090312 L 64.258758 113.090312 L 64.258758 79.267187 L 91.315945 79.267187 L 91.315945 107.033125 L 283.459383 107.033125 L 283.459383 10.000000 L 221.371570 10.000000" stroke="none" fill="white" stroke-width="1px"></path></g><g id="crv-nbhd"><path d="M 221.737654 10.000004 L 221.737654 26.793839 L 221.737654 43.587674 L 228.651845 48.103267 L 235.566036 52.618860 L 259.512709 53.471921 L 283.459383 54.324982 L 283.459383 32.162491 L 283.459382 10.000000 L 252.598518 10.000002 L 221.737654 10.000004" stroke="#DD2222" fill="none" stroke-width="1px"></path><path d="M 283.459383 107.033125 L 283.459383 80.679054 L 283.459383 54.324982 L 259.512709 53.471921 L 235.566036 52.618860 L 241.797389 79.825992 L 248.028743 107.033125 L 265.744063 107.033125 L 283.459383 107.033125" stroke="#DD2222" fill="none" stroke-width="1px"></path><path d="M 221.737654 43.587674 L 221.737654 61.369502 L 221.737654 79.151330 L 213.883476 79.151330 L 206.029299 79.151330 L 205.015980 93.092227 L 204.002661 107.033125 L 226.015702 107.033125 L 248.028743 107.033125 L 241.797389 79.825992 L 235.566036 52.618860 L 228.651845 48.103267 L 221.737654 43.587674" stroke="#DD2222" fill="none" stroke-width="1px"></path><path d="M 206.029299 79.151330 L 188.533266 79.151330 L 171.037233 79.151329 L 173.257055 93.092227 L 175.476876 107.033125 L 189.739769 107.033125 L 204.002661 107.033125 L 205.015980 93.092227 L 206.029299 79.151330" stroke="#DD2222" fill="none" stroke-width="1px"></path><path d="M 133.702282 107.033125 L 154.589579 107.033125 L 175.476876 107.033125 L 173.257055 93.092227 L 171.037233 79.151329 L 153.044001 79.151329 L 135.050768 79.151328 L 134.376525 93.092227 L 133.702282 107.033125" stroke="#DD2222" fill="none" stroke-width="1px"></path><path d="M 135.050768 79.151328 L 113.183357 79.151328 L 91.315945 79.151327 L 91.315945 93.092226 L 91.315945 107.033125 L 112.509114 107.033125 L 133.702282 107.033125 L 134.376525 93.092230 L 135.050768 79.151328" stroke="#DD2222" fill="none" stroke-width="1px"></path><path d="M 64.258758 113.090312 L 64.258758 84.620554 L 64.258758 56.150781 L 64.258758 54.038499 L 64.258758 51.926217 L 37.129376 54.024354 L 10.000000 56.122491 L 10.000000 84.606402 L 10.000000 113.090312 L 37.129379 113.090312 L 64.258758 113.090312" stroke="#DD2222" fill="none" stroke-width="1px"></path><path d="M 10.000000 10.597184 L 10.000000 33.359838 L 10.000000 56.122491 L 37.129379 54.024354 L 64.258758 51.926217 L 64.258758 31.261701 L 64.258758 10.597185 L 37.129385 10.597185 L 10.000000 10.597184" stroke="#DD2222" fill="none" stroke-width="1px"></path><path d="M 10.000000 123.687497 L 10.000000 149.053766 L 10.000000 174.420035 L 37.129379 176.281592 L 64.258758 178.143148 L 64.258758 173.692121 L 64.258758 169.241094 L 64.258758 146.464296 L 64.258758 123.687497 L 37.129379 123.687497 L 10.000000 123.687497" stroke="#DD2222" fill="none" stroke-width="1px"></path><path d="M 10.000000 174.420035 L 10.000000 200.300330 L 10.000000 226.180625 L 37.129379 226.180625 L 64.258758 226.180625 L 64.258758 202.161887 L 64.258758 178.143148 L 37.129379 176.281592 L 10.000000 174.420035" stroke="#DD2222" fill="none" stroke-width="1px"></path><path d="M 138.921934 192.043444 L 115.118939 192.043444 L 91.315945 192.043444 L 91.315945 206.083441 L 91.315945 220.123437 L 115.483846 220.123437 L 139.651746 220.123437 L 139.286840 206.083444 L 138.921934 192.043444" stroke="#DD2222" fill="none" stroke-width="1px"></path><path d="M 184.595847 192.043444 L 161.758890 192.043444 L 138.921934 192.043444 L 139.286840 206.083441 L 139.651746 220.123437 L 165.383676 220.123437 L 191.115606 220.123437 L 187.855726 206.083441 L 184.595847 192.043444" stroke="#DD2222" fill="none" stroke-width="1px"></path><path d="M 225.571901 192.043444 L 205.083874 192.043444 L 184.595847 192.043444 L 187.855726 206.083441 L 191.115606 220.123437 L 207.004567 220.123437 L 222.893528 220.123437 L 224.232714 206.083441 L 225.571901 192.043444" stroke="#DD2222" fill="none" stroke-width="1px"></path><path d="M 283.459383 220.123437 L 283.459383 196.053884 L 283.459383 171.984331 L 261.598517 169.776813 L 239.737652 167.569295 L 239.737652 179.806370 L 239.737652 192.043444 L 232.654776 192.043444 L 225.571901 192.043444 L 224.232714 206.083441 L 222.893528 220.123437 L 253.176455 220.123437 L 283.459383 220.123437" stroke="#DD2222" fill="none" stroke-width="1px"></path><path d="M 239.737652 123.090312 L 239.737652 145.329804 L 239.737652 167.569295 L 261.598517 169.776813 L 283.459383 171.984331 L 283.459383 147.537322 L 283.459383 123.090312 L 261.598533 123.090312 L 239.737652 123.090312" stroke="#DD2222" fill="none" stroke-width="1px"></path></g><g id="crv-amen"><path d="M 15.425876 159.708269 L 15.425876 166.412303 L 15.425876 173.116338 L 37.129379 174.605583 L 58.832882 176.094828 L 58.832882 172.534007 L 58.832882 168.973185 L 58.832882 165.829972 L 58.832882 162.686759 L 37.129379 161.197514 L 15.425876 159.708269" stroke="none" fill="#2288CC" stroke-width="1px"></path><path d="M 58.832882 192.854915 L 58.832882 186.150880 L 58.832882 179.446846 L 37.129379 177.957600 L 15.425876 176.468355 L 15.425876 183.172389 L 15.425876 189.876424 L 37.129379 191.365669 L 58.832882 192.854915" stroke="none" fill="#2288CC" stroke-width="1px"></path><path d="M 106.364637 194.851444 L 99.676329 194.851444 L 92.988022 194.851444 L 92.988022 206.083441 L 92.988022 217.315438 L 99.676329 217.315438 L 106.364637 217.315438 L 106.364637 206.083441 L 106.364637 194.851444" stroke="none" fill="#2288CC" stroke-width="1px"></path><path d="M 154.048688 194.851444 L 147.358122 194.851444 L 140.667556 194.851444 L 140.959481 206.083441 L 141.251407 217.315438 L 147.941973 217.315438 L 154.632539 217.315438 L 154.340613 206.083441 L 154.048688 194.851444" stroke="none" fill="#2288CC" stroke-width="1px"></path><path d="M 200.696638 194.851216 L 193.830414 194.851216 L 186.964190 194.851216 L 189.572094 206.083214 L 192.179998 217.315211 L 198.807795 217.315211 L 205.435593 217.315211 L 205.661824 217.262684 L 205.888054 217.210156 L 203.292346 206.030686 L 200.696638 194.851216" stroke="none" fill="#2288CC" stroke-width="1px"></path><path d="M 238.337585 192.947359 L 238.337585 193.880331 L 238.337585 194.813303 L 232.671285 194.813303 L 227.004984 194.813303 L 225.933635 206.045300 L 224.862286 217.277297 L 231.580950 217.277297 L 238.299614 217.277297 L 239.449662 205.220213 L 240.599711 193.163129 L 239.468648 193.055244 L 238.337585 192.947359" stroke="none" fill="#2288CC" stroke-width="1px"></path><path d="M 244.109825 152.885575 L 244.109825 159.607897 L 244.109825 166.330218 L 261.598517 168.096233 L 279.087210 169.862247 L 279.087210 163.139926 L 279.087210 156.417604 L 261.598517 154.651590 L 244.109825 152.885575" stroke="none" fill="#2288CC" stroke-width="1px"></path><path d="M 236.815216 13.712913 L 230.126908 13.712913 L 223.438601 13.712914 L 223.438601 27.147982 L 223.438601 40.583050 L 226.112899 42.329608 L 228.787197 44.076167 L 232.801206 44.076167 L 236.815216 44.076167 L 236.815216 28.894540 L 236.815216 13.712913" stroke="none" fill="#2288CC" stroke-width="1px"></path><path d="M 278.860520 69.195952 L 278.860520 62.503402 L 278.860520 55.810852 L 259.703181 55.128403 L 240.545842 54.445954 L 242.091272 61.193557 L 243.636701 67.941160 L 261.248611 68.568556 L 278.860520 69.195952" stroke="none" fill="#2288CC" stroke-width="1px"></path><path d="M 231.343878 101.400202 L 238.205366 101.400202 L 245.066854 101.400202 L 240.081771 79.634496 L 235.096688 57.868790 L 231.720781 55.664017 L 228.344875 53.459244 L 226.189428 53.952914 L 224.033982 54.446585 L 224.033982 61.965280 L 224.033982 69.483975 L 227.688930 85.442088 L 231.343878 101.400202" stroke="none" fill="#2288CC" stroke-width="1px"></path><path d="M 201.628729 94.167326 L 202.114880 87.479019 L 202.601032 80.790712 L 188.604206 80.790711 L 174.607379 80.790711 L 175.672364 87.479018 L 176.737350 94.167326 L 189.183039 94.167326 L 201.628729 94.167326" stroke="none" fill="#2288CC" stroke-width="1px"></path><path d="M 169.662667 94.225665 L 168.597682 87.537357 L 167.532697 80.849050 L 153.138111 80.849049 L 138.743525 80.849049 L 138.420049 87.537356 L 138.096573 94.225664 L 153.879620 94.225664 L 169.662667 94.225665" stroke="none" fill="#2288CC" stroke-width="1px"></path><path d="M 106.364637 81.939507 L 99.676329 81.939507 L 92.988022 81.939507 L 92.988022 93.092226 L 92.988022 104.244945 L 99.676329 104.244945 L 106.364637 104.244945 L 106.364637 93.092226 L 106.364637 81.939507" stroke="none" fill="#2288CC" stroke-width="1px"></path><path d="M 49.216021 107.038330 L 55.904325 107.038330 L 62.592636 107.038330 L 62.592636 82.572692 L 62.592636 58.107054 L 55.904328 58.624316 L 49.216021 59.141577 L 49.216021 83.089954 L 49.216021 107.038330" stroke="none" fill="#2288CC" stroke-width="1px"></path><path d="M 49.201481 48.892827 L 55.889788 48.375565 L 62.578095 47.858304 L 62.578096 31.326691 L 62.578096 14.795078 L 55.889789 14.795078 L 49.201481 14.795078 L 49.201481 31.843952 L 49.201481 48.892827" stroke="none" fill="#2288CC" stroke-width="1px"></path></g><g id="crv-desk"><path d="M 55.459383 220.180625 L 52.959383 220.180625 L 52.959383 226.180625 L 55.459383 226.180625 L 55.459383 220.180625" stroke="gray" fill="white" stroke-width="1px"></path><path d="M 55.459383 214.180625 L 52.959383 214.180625 L 52.959383 220.180625 L 55.459383 220.180625 L 55.459383 214.180625" stroke="gray" fill="white" stroke-width="1px"></path><path d="M 55.459383 208.180625 L 52.959383 208.180625 L 52.959383 214.180625 L 55.459383 214.180625 L 55.459383 208.180625" stroke="gray" fill="white" stroke-width="1px"></path><path d="M 55.459383 202.180625 L 52.959383 202.180625 L 52.959383 208.180625 L 55.459383 208.180625 L 55.459383 202.180625" stroke="gray" fill="white" stroke-width="1px"></path><path d="M 43.459383 220.180625 L 40.959383 220.180625 L 40.959383 226.180625 L 43.459383 226.180625 L 43.459383 220.180625" stroke="gray" fill="white" stroke-width="1px"></path><path d="M 43.459383 214.180625 L 40.959383 214.180625 L 40.959383 220.180625 L 43.459383 220.180625 L 43.459383 214.180625" stroke="gray" fill="white" stroke-width="1px"></path><path d="M 43.459383 208.180625 L 40.959383 208.180625 L 40.959383 214.180625 L 43.459383 214.180625 L 43.459383 208.180625" stroke="gray" fill="white" stroke-width="1px"></path><path d="M 43.459383 202.180625 L 40.959383 202.180625 L 40.959383 208.180625 L 43.459383 208.180625 L 43.459383 202.180625" stroke="gray" fill="white" stroke-width="1px"></path><path d="M 31.459383 220.180625 L 28.959383 220.180625 L 28.959383 226.180625 L 31.459383 226.180625 L 31.459383 220.180625" stroke="gray" fill="white" stroke-width="1px"></path><path d="M 31.459383 214.180625 L 28.959383 214.180625 L 28.959383 220.180625 L 31.459383 220.180625 L 31.459383 214.180625" stroke="gray" fill="white" stroke-width="1px"></path><path d="M 31.459383 208.180625 L 28.959383 208.180625 L 28.959383 214.180625 L 31.459383 214.180625 L 31.459383 208.180625" stroke="gray" fill="white" stroke-width="1px"></path><path d="M 31.459383 202.180625 L 28.959383 202.180625 L 28.959383 208.180625 L 31.459383 208.180625 L 31.459383 202.180625" stroke="gray" fill="white" stroke-width="1px"></path><path d="M 19.459383 220.180625 L 16.959383 220.180625 L 16.959383 226.180625 L 19.459383 226.180625 L 19.459383 220.180625" stroke="gray" fill="white" stroke-width="1px"></path><path d="M 19.459383 214.180625 L 16.959383 214.180625 L 16.959383 220.180625 L 19.459383 220.180625 L 19.459383 214.180625" stroke="gray" fill="white" stroke-width="1px"></path><path d="M 19.459383 208.180625 L 16.959383 208.180625 L 16.959383 214.180625 L 19.459383 214.180625 L 19.459383 208.180625" stroke="gray" fill="white" stroke-width="1px"></path><path d="M 19.459383 202.180625 L 16.959383 202.180625 L 16.959383 208.180625 L 19.459383 208.180625 L 19.459383 202.180625" stroke="gray" fill="white" stroke-width="1px"></path><path d="M 19.459383 196.180625 L 16.959383 196.180625 L 16.959383 202.180625 L 19.459383 202.180625 L 19.459383 196.180625" stroke="gray" fill="white" stroke-width="1px"></path><path d="M 127.459383 214.123437 L 124.959383 214.123437 L 124.959383 220.123437 L 127.459383 220.123437 L 127.459383 214.123437" stroke="gray" fill="white" stroke-width="1px"></path><path d="M 127.459383 208.123437 L 124.959383 208.123437 L 124.959383 214.123437 L 127.459383 214.123437 L 127.459383 208.123437" stroke="gray" fill="white" stroke-width="1px"></path><path d="M 127.459383 202.123437 L 124.959383 202.123437 L 124.959383 208.123437 L 127.459383 208.123437 L 127.459383 202.123437" stroke="gray" fill="white" stroke-width="1px"></path><path d="M 127.459383 196.123437 L 124.959383 196.123437 L 124.959383 202.123437 L 127.459383 202.123437 L 127.459383 196.123437" stroke="gray" fill="white" stroke-width="1px"></path><path d="M 115.459383 214.123437 L 112.959383 214.123437 L 112.959383 220.123437 L 115.459383 220.123437 L 115.459383 214.123437" stroke="gray" fill="white" stroke-width="1px"></path><path d="M 115.459383 208.123437 L 112.959383 208.123437 L 112.959383 214.123437 L 115.459383 214.123437 L 115.459383 208.123437" stroke="gray" fill="white" stroke-width="1px"></path><path d="M 115.459383 202.123437 L 112.959383 202.123437 L 112.959383 208.123437 L 115.459383 208.123437 L 115.459383 202.123437" stroke="gray" fill="white" stroke-width="1px"></path><path d="M 115.459383 196.123437 L 112.959383 196.123437 L 112.959383 202.123437 L 115.459383 202.123437 L 115.459383 196.123437" stroke="gray" fill="white" stroke-width="1px"></path><path d="M 175.459383 214.123437 L 172.959383 214.123437 L 172.959383 220.123437 L 175.459383 220.123437 L 175.459383 214.123437" stroke="gray" fill="white" stroke-width="1px"></path><path d="M 175.459383 208.123437 L 172.959383 208.123437 L 172.959383 214.123437 L 175.459383 214.123437 L 175.459383 208.123437" stroke="gray" fill="white" stroke-width="1px"></path><path d="M 175.459383 202.123437 L 172.959383 202.123437 L 172.959383 208.123437 L 175.459383 208.123437 L 175.459383 202.123437" stroke="gray" fill="white" stroke-width="1px"></path><path d="M 175.459383 196.123437 L 172.959383 196.123437 L 172.959383 202.123437 L 175.459383 202.123437 L 175.459383 196.123437" stroke="gray" fill="white" stroke-width="1px"></path><path d="M 163.459383 214.123437 L 160.959383 214.123437 L 160.959383 220.123437 L 163.459383 220.123437 L 163.459383 214.123437" stroke="gray" fill="white" stroke-width="1px"></path><path d="M 163.459383 208.123437 L 160.959383 208.123437 L 160.959383 214.123437 L 163.459383 214.123437 L 163.459383 208.123437" stroke="gray" fill="white" stroke-width="1px"></path><path d="M 163.459383 202.123437 L 160.959383 202.123437 L 160.959383 208.123437 L 163.459383 208.123437 L 163.459383 202.123437" stroke="gray" fill="white" stroke-width="1px"></path><path d="M 163.459383 196.123437 L 160.959383 196.123437 L 160.959383 202.123437 L 163.459383 202.123437 L 163.459383 196.123437" stroke="gray" fill="white" stroke-width="1px"></path><path d="M 211.459383 214.123437 L 208.959383 214.123437 L 208.959383 220.123437 L 211.459383 220.123437 L 211.459383 214.123437" stroke="gray" fill="white" stroke-width="1px"></path><path d="M 211.459383 208.123437 L 208.959383 208.123437 L 208.959383 214.123437 L 211.459383 214.123437 L 211.459383 208.123437" stroke="gray" fill="white" stroke-width="1px"></path><path d="M 211.459383 202.123437 L 208.959383 202.123437 L 208.959383 208.123437 L 211.459383 208.123437 L 211.459383 202.123437" stroke="gray" fill="white" stroke-width="1px"></path><path d="M 211.459383 196.123437 L 208.959383 196.123437 L 208.959383 202.123437 L 211.459383 202.123437 L 211.459383 196.123437" stroke="gray" fill="white" stroke-width="1px"></path><path d="M 271.459383 214.123437 L 268.959383 214.123437 L 268.959383 220.123437 L 271.459383 220.123437 L 271.459383 214.123437" stroke="gray" fill="white" stroke-width="1px"></path><path d="M 271.459383 208.123437 L 268.959383 208.123437 L 268.959383 214.123437 L 271.459383 214.123437 L 271.459383 208.123437" stroke="gray" fill="white" stroke-width="1px"></path><path d="M 271.459383 202.123437 L 268.959383 202.123437 L 268.959383 208.123437 L 271.459383 208.123437 L 271.459383 202.123437" stroke="gray" fill="white" stroke-width="1px"></path><path d="M 271.459383 196.123437 L 268.959383 196.123437 L 268.959383 202.123437 L 271.459383 202.123437 L 271.459383 196.123437" stroke="gray" fill="white" stroke-width="1px"></path><path d="M 271.459383 190.123437 L 268.959383 190.123437 L 268.959383 196.123437 L 271.459383 196.123437 L 271.459383 190.123437" stroke="gray" fill="white" stroke-width="1px"></path><path d="M 271.459383 184.123437 L 268.959383 184.123437 L 268.959383 190.123437 L 271.459383 190.123437 L 271.459383 184.123437" stroke="gray" fill="white" stroke-width="1px"></path><path d="M 271.459383 178.123437 L 268.959383 178.123437 L 268.959383 184.123437 L 271.459383 184.123437 L 271.459383 178.123437" stroke="gray" fill="white" stroke-width="1px"></path><path d="M 259.459383 214.123437 L 256.959383 214.123437 L 256.959383 220.123437 L 259.459383 220.123437 L 259.459383 214.123437" stroke="gray" fill="white" stroke-width="1px"></path><path d="M 259.459383 208.123437 L 256.959383 208.123437 L 256.959383 214.123437 L 259.459383 214.123437 L 259.459383 208.123437" stroke="gray" fill="white" stroke-width="1px"></path><path d="M 259.459383 202.123437 L 256.959383 202.123437 L 256.959383 208.123437 L 259.459383 208.123437 L 259.459383 202.123437" stroke="gray" fill="white" stroke-width="1px"></path><path d="M 259.459383 196.123437 L 256.959383 196.123437 L 256.959383 202.123437 L 259.459383 202.123437 L 259.459383 196.123437" stroke="gray" fill="white" stroke-width="1px"></path><path d="M 259.459383 190.123437 L 256.959383 190.123437 L 256.959383 196.123437 L 259.459383 196.123437 L 259.459383 190.123437" stroke="gray" fill="white" stroke-width="1px"></path><path d="M 259.459383 184.123437 L 256.959383 184.123437 L 256.959383 190.123437 L 259.459383 190.123437 L 259.459383 184.123437" stroke="gray" fill="white" stroke-width="1px"></path><path d="M 259.459383 178.123437 L 256.959383 178.123437 L 256.959383 184.123437 L 259.459383 184.123437 L 259.459383 178.123437" stroke="gray" fill="white" stroke-width="1px"></path><path d="M 247.459383 214.123437 L 244.959383 214.123437 L 244.959383 220.123437 L 247.459383 220.123437 L 247.459383 214.123437" stroke="gray" fill="white" stroke-width="1px"></path><path d="M 247.459383 208.123437 L 244.959383 208.123437 L 244.959383 214.123437 L 247.459383 214.123437 L 247.459383 208.123437" stroke="gray" fill="white" stroke-width="1px"></path><path d="M 247.459383 202.123437 L 244.959383 202.123437 L 244.959383 208.123437 L 247.459383 208.123437 L 247.459383 202.123437" stroke="gray" fill="white" stroke-width="1px"></path><path d="M 247.459383 196.123437 L 244.959383 196.123437 L 244.959383 202.123437 L 247.459383 202.123437 L 247.459383 196.123437" stroke="gray" fill="white" stroke-width="1px"></path><path d="M 247.459383 190.123437 L 244.959383 190.123437 L 244.959383 196.123437 L 247.459383 196.123437 L 247.459383 190.123437" stroke="gray" fill="white" stroke-width="1px"></path><path d="M 247.459383 184.123437 L 244.959383 184.123437 L 244.959383 190.123437 L 247.459383 190.123437 L 247.459383 184.123437" stroke="gray" fill="white" stroke-width="1px"></path><path d="M 247.459383 178.123437 L 244.959383 178.123437 L 244.959383 184.123437 L 247.459383 184.123437 L 247.459383 178.123437" stroke="gray" fill="white" stroke-width="1px"></path><path d="M 55.459383 220.180625 L 57.959383 220.180625 L 57.959383 226.180625 L 55.459383 226.180625 L 55.459383 220.180625" stroke="gray" fill="white" stroke-width="1px"></path><path d="M 55.459383 214.180625 L 57.959383 214.180625 L 57.959383 220.180625 L 55.459383 220.180625 L 55.459383 214.180625" stroke="gray" fill="white" stroke-width="1px"></path><path d="M 55.459383 208.180625 L 57.959383 208.180625 L 57.959383 214.180625 L 55.459383 214.180625 L 55.459383 208.180625" stroke="gray" fill="white" stroke-width="1px"></path><path d="M 55.459383 202.180625 L 57.959383 202.180625 L 57.959383 208.180625 L 55.459383 208.180625 L 55.459383 202.180625" stroke="gray" fill="white" stroke-width="1px"></path><path d="M 43.459383 220.180625 L 45.959383 220.180625 L 45.959383 226.180625 L 43.459383 226.180625 L 43.459383 220.180625" stroke="gray" fill="white" stroke-width="1px"></path><path d="M 43.459383 214.180625 L 45.959383 214.180625 L 45.959383 220.180625 L 43.459383 220.180625 L 43.459383 214.180625" stroke="gray" fill="white" stroke-width="1px"></path><path d="M 43.459383 208.180625 L 45.959383 208.180625 L 45.959383 214.180625 L 43.459383 214.180625 L 43.459383 208.180625" stroke="gray" fill="white" stroke-width="1px"></path><path d="M 43.459383 202.180625 L 45.959383 202.180625 L 45.959383 208.180625 L 43.459383 208.180625 L 43.459383 202.180625" stroke="gray" fill="white" stroke-width="1px"></path><path d="M 31.459383 220.180625 L 33.959383 220.180625 L 33.959383 226.180625 L 31.459383 226.180625 L 31.459383 220.180625" stroke="gray" fill="white" stroke-width="1px"></path><path d="M 31.459383 214.180625 L 33.959383 214.180625 L 33.959383 220.180625 L 31.459383 220.180625 L 31.459383 214.180625" stroke="gray" fill="white" stroke-width="1px"></path><path d="M 31.459383 208.180625 L 33.959383 208.180625 L 33.959383 214.180625 L 31.459383 214.180625 L 31.459383 208.180625" stroke="gray" fill="white" stroke-width="1px"></path><path d="M 31.459383 202.180625 L 33.959383 202.180625 L 33.959383 208.180625 L 31.459383 208.180625 L 31.459383 202.180625" stroke="gray" fill="white" stroke-width="1px"></path><path d="M 19.459383 220.180625 L 21.959383 220.180625 L 21.959383 226.180625 L 19.459383 226.180625 L 19.459383 220.180625" stroke="gray" fill="white" stroke-width="1px"></path><path d="M 19.459383 214.180625 L 21.959383 214.180625 L 21.959383 220.180625 L 19.459383 220.180625 L 19.459383 214.180625" stroke="gray" fill="white" stroke-width="1px"></path><path d="M 19.459383 208.180625 L 21.959383 208.180625 L 21.959383 214.180625 L 19.459383 214.180625 L 19.459383 208.180625" stroke="gray" fill="white" stroke-width="1px"></path><path d="M 19.459383 202.180625 L 21.959383 202.180625 L 21.959383 208.180625 L 19.459383 208.180625 L 19.459383 202.180625" stroke="gray" fill="white" stroke-width="1px"></path><path d="M 19.459383 196.180625 L 21.959383 196.180625 L 21.959383 202.180625 L 19.459383 202.180625 L 19.459383 196.180625" stroke="gray" fill="white" stroke-width="1px"></path><path d="M 127.459383 214.123437 L 129.959383 214.123437 L 129.959383 220.123437 L 127.459383 220.123437 L 127.459383 214.123437" stroke="gray" fill="white" stroke-width="1px"></path><path d="M 127.459383 208.123437 L 129.959383 208.123437 L 129.959383 214.123437 L 127.459383 214.123437 L 127.459383 208.123437" stroke="gray" fill="white" stroke-width="1px"></path><path d="M 127.459383 202.123437 L 129.959383 202.123437 L 129.959383 208.123437 L 127.459383 208.123437 L 127.459383 202.123437" stroke="gray" fill="white" stroke-width="1px"></path><path d="M 127.459383 196.123437 L 129.959383 196.123437 L 129.959383 202.123437 L 127.459383 202.123437 L 127.459383 196.123437" stroke="gray" fill="white" stroke-width="1px"></path><path d="M 115.459383 214.123437 L 117.959383 214.123437 L 117.959383 220.123437 L 115.459383 220.123437 L 115.459383 214.123437" stroke="gray" fill="white" stroke-width="1px"></path><path d="M 115.459383 208.123437 L 117.959383 208.123437 L 117.959383 214.123437 L 115.459383 214.123437 L 115.459383 208.123437" stroke="gray" fill="white" stroke-width="1px"></path><path d="M 115.459383 202.123437 L 117.959383 202.123437 L 117.959383 208.123437 L 115.459383 208.123437 L 115.459383 202.123437" stroke="gray" fill="white" stroke-width="1px"></path><path d="M 115.459383 196.123437 L 117.959383 196.123437 L 117.959383 202.123437 L 115.459383 202.123437 L 115.459383 196.123437" stroke="gray" fill="white" stroke-width="1px"></path><path d="M 175.459383 214.123437 L 177.959383 214.123437 L 177.959383 220.123437 L 175.459383 220.123437 L 175.459383 214.123437" stroke="gray" fill="white" stroke-width="1px"></path><path d="M 175.459383 208.123437 L 177.959383 208.123437 L 177.959383 214.123437 L 175.459383 214.123437 L 175.459383 208.123437" stroke="gray" fill="white" stroke-width="1px"></path><path d="M 175.459383 202.123437 L 177.959383 202.123437 L 177.959383 208.123437 L 175.459383 208.123437 L 175.459383 202.123437" stroke="gray" fill="white" stroke-width="1px"></path><path d="M 175.459383 196.123437 L 177.959383 196.123437 L 177.959383 202.123437 L 175.459383 202.123437 L 175.459383 196.123437" stroke="gray" fill="white" stroke-width="1px"></path><path d="M 163.459383 214.123437 L 165.959383 214.123437 L 165.959383 220.123437 L 163.459383 220.123437 L 163.459383 214.123437" stroke="gray" fill="white" stroke-width="1px"></path><path d="M 163.459383 208.123437 L 165.959383 208.123437 L 165.959383 214.123437 L 163.459383 214.123437 L 163.459383 208.123437" stroke="gray" fill="white" stroke-width="1px"></path><path d="M 163.459383 202.123437 L 165.959383 202.123437 L 165.959383 208.123437 L 163.459383 208.123437 L 163.459383 202.123437" stroke="gray" fill="white" stroke-width="1px"></path><path d="M 163.459383 196.123437 L 165.959383 196.123437 L 165.959383 202.123437 L 163.459383 202.123437 L 163.459383 196.123437" stroke="gray" fill="white" stroke-width="1px"></path><path d="M 211.459383 214.123437 L 213.959383 214.123437 L 213.959383 220.123437 L 211.459383 220.123437 L 211.459383 214.123437" stroke="gray" fill="white" stroke-width="1px"></path><path d="M 211.459383 208.123437 L 213.959383 208.123437 L 213.959383 214.123437 L 211.459383 214.123437 L 211.459383 208.123437" stroke="gray" fill="white" stroke-width="1px"></path><path d="M 211.459383 202.123437 L 213.959383 202.123437 L 213.959383 208.123437 L 211.459383 208.123437 L 211.459383 202.123437" stroke="gray" fill="white" stroke-width="1px"></path><path d="M 211.459383 196.123437 L 213.959383 196.123437 L 213.959383 202.123437 L 211.459383 202.123437 L 211.459383 196.123437" stroke="gray" fill="white" stroke-width="1px"></path><path d="M 271.459383 214.123437 L 273.959383 214.123437 L 273.959383 220.123437 L 271.459383 220.123437 L 271.459383 214.123437" stroke="gray" fill="white" stroke-width="1px"></path><path d="M 271.459383 208.123437 L 273.959383 208.123437 L 273.959383 214.123437 L 271.459383 214.123437 L 271.459383 208.123437" stroke="gray" fill="white" stroke-width="1px"></path><path d="M 271.459383 202.123437 L 273.959383 202.123437 L 273.959383 208.123437 L 271.459383 208.123437 L 271.459383 202.123437" stroke="gray" fill="white" stroke-width="1px"></path><path d="M 271.459383 196.123437 L 273.959383 196.123437 L 273.959383 202.123437 L 271.459383 202.123437 L 271.459383 196.123437" stroke="gray" fill="white" stroke-width="1px"></path><path d="M 271.459383 190.123437 L 273.959383 190.123437 L 273.959383 196.123437 L 271.459383 196.123437 L 271.459383 190.123437" stroke="gray" fill="white" stroke-width="1px"></path><path d="M 271.459383 184.123437 L 273.959383 184.123437 L 273.959383 190.123437 L 271.459383 190.123437 L 271.459383 184.123437" stroke="gray" fill="white" stroke-width="1px"></path><path d="M 271.459383 178.123437 L 273.959383 178.123437 L 273.959383 184.123437 L 271.459383 184.123437 L 271.459383 178.123437" stroke="gray" fill="white" stroke-width="1px"></path><path d="M 259.459383 214.123437 L 261.959383 214.123437 L 261.959383 220.123437 L 259.459383 220.123437 L 259.459383 214.123437" stroke="gray" fill="white" stroke-width="1px"></path><path d="M 259.459383 208.123437 L 261.959383 208.123437 L 261.959383 214.123437 L 259.459383 214.123437 L 259.459383 208.123437" stroke="gray" fill="white" stroke-width="1px"></path><path d="M 259.459383 202.123437 L 261.959383 202.123437 L 261.959383 208.123437 L 259.459383 208.123437 L 259.459383 202.123437" stroke="gray" fill="white" stroke-width="1px"></path><path d="M 259.459383 196.123437 L 261.959383 196.123437 L 261.959383 202.123437 L 259.459383 202.123437 L 259.459383 196.123437" stroke="gray" fill="white" stroke-width="1px"></path><path d="M 259.459383 190.123437 L 261.959383 190.123437 L 261.959383 196.123437 L 259.459383 196.123437 L 259.459383 190.123437" stroke="gray" fill="white" stroke-width="1px"></path><path d="M 259.459383 184.123437 L 261.959383 184.123437 L 261.959383 190.123437 L 259.459383 190.123437 L 259.459383 184.123437" stroke="gray" fill="white" stroke-width="1px"></path><path d="M 259.459383 178.123437 L 261.959383 178.123437 L 261.959383 184.123437 L 259.459383 184.123437 L 259.459383 178.123437" stroke="gray" fill="white" stroke-width="1px"></path><path d="M 247.459383 214.123437 L 249.959383 214.123437 L 249.959383 220.123437 L 247.459383 220.123437 L 247.459383 214.123437" stroke="gray" fill="white" stroke-width="1px"></path><path d="M 247.459383 208.123437 L 249.959383 208.123437 L 249.959383 214.123437 L 247.459383 214.123437 L 247.459383 208.123437" stroke="gray" fill="white" stroke-width="1px"></path><path d="M 247.459383 202.123437 L 249.959383 202.123437 L 249.959383 208.123437 L 247.459383 208.123437 L 247.459383 202.123437" stroke="gray" fill="white" stroke-width="1px"></path><path d="M 247.459383 196.123437 L 249.959383 196.123437 L 249.959383 202.123437 L 247.459383 202.123437 L 247.459383 196.123437" stroke="gray" fill="white" stroke-width="1px"></path><path d="M 247.459383 190.123437 L 249.959383 190.123437 L 249.959383 196.123437 L 247.459383 196.123437 L 247.459383 190.123437" stroke="gray" fill="white" stroke-width="1px"></path><path d="M 247.459383 184.123437 L 249.959383 184.123437 L 249.959383 190.123437 L 247.459383 190.123437 L 247.459383 184.123437" stroke="gray" fill="white" stroke-width="1px"></path><path d="M 247.459383 178.123437 L 249.959383 178.123437 L 249.959383 184.123437 L 247.459383 184.123437 L 247.459383 178.123437" stroke="gray" fill="white" stroke-width="1px"></path><path d="M 22.000000 148.123437 L 22.000000 145.623437 L 16.000000 145.623437 L 16.000000 148.123437 L 22.000000 148.123437" stroke="gray" fill="white" stroke-width="1px"></path><path d="M 28.000000 148.123437 L 28.000000 145.623437 L 22.000000 145.623437 L 22.000000 148.123437 L 28.000000 148.123437" stroke="gray" fill="white" stroke-width="1px"></path><path d="M 34.000000 148.123437 L 34.000000 145.623437 L 28.000000 145.623437 L 28.000000 148.123437 L 34.000000 148.123437" stroke="gray" fill="white" stroke-width="1px"></path><path d="M 40.000000 148.123437 L 40.000000 145.623437 L 34.000000 145.623437 L 34.000000 148.123437 L 40.000000 148.123437" stroke="gray" fill="white" stroke-width="1px"></path><path d="M 46.000000 148.123437 L 46.000000 145.623437 L 40.000000 145.623437 L 40.000000 148.123437 L 46.000000 148.123437" stroke="gray" fill="white" stroke-width="1px"></path><path d="M 52.000000 148.123437 L 52.000000 145.623437 L 46.000000 145.623437 L 46.000000 148.123437 L 52.000000 148.123437" stroke="gray" fill="white" stroke-width="1px"></path><path d="M 58.000000 148.123437 L 58.000000 145.623437 L 52.000000 145.623437 L 52.000000 148.123437 L 58.000000 148.123437" stroke="gray" fill="white" stroke-width="1px"></path><path d="M 22.000000 136.123437 L 22.000000 133.623437 L 16.000000 133.623437 L 16.000000 136.123437 L 22.000000 136.123437" stroke="gray" fill="white" stroke-width="1px"></path><path d="M 28.000000 136.123437 L 28.000000 133.623437 L 22.000000 133.623437 L 22.000000 136.123437 L 28.000000 136.123437" stroke="gray" fill="white" stroke-width="1px"></path><path d="M 34.000000 136.123437 L 34.000000 133.623437 L 28.000000 133.623437 L 28.000000 136.123437 L 34.000000 136.123437" stroke="gray" fill="white" stroke-width="1px"></path><path d="M 40.000000 136.123437 L 40.000000 133.623437 L 34.000000 133.623437 L 34.000000 136.123437 L 40.000000 136.123437" stroke="gray" fill="white" stroke-width="1px"></path><path d="M 46.000000 136.123437 L 46.000000 133.623437 L 40.000000 133.623437 L 40.000000 136.123437 L 46.000000 136.123437" stroke="gray" fill="white" stroke-width="1px"></path><path d="M 52.000000 136.123437 L 52.000000 133.623437 L 46.000000 133.623437 L 46.000000 136.123437 L 52.000000 136.123437" stroke="gray" fill="white" stroke-width="1px"></path><path d="M 58.000000 136.123437 L 58.000000 133.623437 L 52.000000 133.623437 L 52.000000 136.123437 L 58.000000 136.123437" stroke="gray" fill="white" stroke-width="1px"></path><path d="M 257.737652 148.123437 L 257.737652 145.623437 L 251.737652 145.623437 L 251.737652 148.123437 L 257.737652 148.123437" stroke="gray" fill="white" stroke-width="1px"></path><path d="M 263.737652 148.123437 L 263.737652 145.623437 L 257.737652 145.623437 L 257.737652 148.123437 L 263.737652 148.123437" stroke="gray" fill="white" stroke-width="1px"></path><path d="M 269.737652 148.123437 L 269.737652 145.623437 L 263.737652 145.623437 L 263.737652 148.123437 L 269.737652 148.123437" stroke="gray" fill="white" stroke-width="1px"></path><path d="M 275.737652 148.123437 L 275.737652 145.623437 L 269.737652 145.623437 L 269.737652 148.123437 L 275.737652 148.123437" stroke="gray" fill="white" stroke-width="1px"></path><path d="M 251.737652 136.123437 L 251.737652 133.623437 L 245.737652 133.623437 L 245.737652 136.123437 L 251.737652 136.123437" stroke="gray" fill="white" stroke-width="1px"></path><path d="M 257.737652 136.123437 L 257.737652 133.623437 L 251.737652 133.623437 L 251.737652 136.123437 L 257.737652 136.123437" stroke="gray" fill="white" stroke-width="1px"></path><path d="M 263.737652 136.123437 L 263.737652 133.623437 L 257.737652 133.623437 L 257.737652 136.123437 L 263.737652 136.123437" stroke="gray" fill="white" stroke-width="1px"></path><path d="M 269.737652 136.123437 L 269.737652 133.623437 L 263.737652 133.623437 L 263.737652 136.123437 L 269.737652 136.123437" stroke="gray" fill="white" stroke-width="1px"></path><path d="M 275.737652 136.123437 L 275.737652 133.623437 L 269.737652 133.623437 L 269.737652 136.123437 L 275.737652 136.123437" stroke="gray" fill="white" stroke-width="1px"></path><path d="M 22.000000 148.123437 L 22.000000 150.623437 L 16.000000 150.623437 L 16.000000 148.123437 L 22.000000 148.123437" stroke="gray" fill="white" stroke-width="1px"></path><path d="M 28.000000 148.123437 L 28.000000 150.623437 L 22.000000 150.623437 L 22.000000 148.123437 L 28.000000 148.123437" stroke="gray" fill="white" stroke-width="1px"></path><path d="M 34.000000 148.123437 L 34.000000 150.623437 L 28.000000 150.623437 L 28.000000 148.123437 L 34.000000 148.123437" stroke="gray" fill="white" stroke-width="1px"></path><path d="M 40.000000 148.123437 L 40.000000 150.623437 L 34.000000 150.623437 L 34.000000 148.123437 L 40.000000 148.123437" stroke="gray" fill="white" stroke-width="1px"></path><path d="M 46.000000 148.123437 L 46.000000 150.623437 L 40.000000 150.623437 L 40.000000 148.123437 L 46.000000 148.123437" stroke="gray" fill="white" stroke-width="1px"></path><path d="M 52.000000 148.123437 L 52.000000 150.623437 L 46.000000 150.623437 L 46.000000 148.123437 L 52.000000 148.123437" stroke="gray" fill="white" stroke-width="1px"></path><path d="M 58.000000 148.123437 L 58.000000 150.623437 L 52.000000 150.623437 L 52.000000 148.123437 L 58.000000 148.123437" stroke="gray" fill="white" stroke-width="1px"></path><path d="M 22.000000 136.123437 L 22.000000 138.623437 L 16.000000 138.623437 L 16.000000 136.123437 L 22.000000 136.123437" stroke="gray" fill="white" stroke-width="1px"></path><path d="M 28.000000 136.123437 L 28.000000 138.623437 L 22.000000 138.623437 L 22.000000 136.123437 L 28.000000 136.123437" stroke="gray" fill="white" stroke-width="1px"></path><path d="M 34.000000 136.123437 L 34.000000 138.623437 L 28.000000 138.623437 L 28.000000 136.123437 L 34.000000 136.123437" stroke="gray" fill="white" stroke-width="1px"></path><path d="M 40.000000 136.123437 L 40.000000 138.623437 L 34.000000 138.623437 L 34.000000 136.123437 L 40.000000 136.123437" stroke="gray" fill="white" stroke-width="1px"></path><path d="M 46.000000 136.123437 L 46.000000 138.623437 L 40.000000 138.623437 L 40.000000 136.123437 L 46.000000 136.123437" stroke="gray" fill="white" stroke-width="1px"></path><path d="M 52.000000 136.123437 L 52.000000 138.623437 L 46.000000 138.623437 L 46.000000 136.123437 L 52.000000 136.123437" stroke="gray" fill="white" stroke-width="1px"></path><path d="M 58.000000 136.123437 L 58.000000 138.623437 L 52.000000 138.623437 L 52.000000 136.123437 L 58.000000 136.123437" stroke="gray" fill="white" stroke-width="1px"></path><path d="M 257.737652 148.123437 L 257.737652 150.623437 L 251.737652 150.623437 L 251.737652 148.123437 L 257.737652 148.123437" stroke="gray" fill="white" stroke-width="1px"></path><path d="M 263.737652 148.123437 L 263.737652 150.623437 L 257.737652 150.623437 L 257.737652 148.123437 L 263.737652 148.123437" stroke="gray" fill="white" stroke-width="1px"></path><path d="M 269.737652 148.123437 L 269.737652 150.623437 L 263.737652 150.623437 L 263.737652 148.123437 L 269.737652 148.123437" stroke="gray" fill="white" stroke-width="1px"></path><path d="M 275.737652 148.123437 L 275.737652 150.623437 L 269.737652 150.623437 L 269.737652 148.123437 L 275.737652 148.123437" stroke="gray" fill="white" stroke-width="1px"></path><path d="M 251.737652 136.123437 L 251.737652 138.623437 L 245.737652 138.623437 L 245.737652 136.123437 L 251.737652 136.123437" stroke="gray" fill="white" stroke-width="1px"></path><path d="M 257.737652 136.123437 L 257.737652 138.623437 L 251.737652 138.623437 L 251.737652 136.123437 L 257.737652 136.123437" stroke="gray" fill="white" stroke-width="1px"></path><path d="M 263.737652 136.123437 L 263.737652 138.623437 L 257.737652 138.623437 L 257.737652 136.123437 L 263.737652 136.123437" stroke="gray" fill="white" stroke-width="1px"></path><path d="M 269.737652 136.123437 L 269.737652 138.623437 L 263.737652 138.623437 L 263.737652 136.123437 L 269.737652 136.123437" stroke="gray" fill="white" stroke-width="1px"></path><path d="M 275.737652 136.123437 L 275.737652 138.623437 L 269.737652 138.623437 L 269.737652 136.123437 L 275.737652 136.123437" stroke="gray" fill="white" stroke-width="1px"></path><path d="M 271.459383 47.897502 L 268.959383 47.897502 L 268.959383 53.897502 L 271.459383 53.897502 L 271.459383 47.897502" stroke="gray" fill="white" stroke-width="1px"></path><path d="M 271.459383 41.897502 L 268.959383 41.897502 L 268.959383 47.897502 L 271.459383 47.897502 L 271.459383 41.897502" stroke="gray" fill="white" stroke-width="1px"></path><path d="M 271.459383 35.897502 L 268.959383 35.897502 L 268.959383 41.897502 L 271.459383 41.897502 L 271.459383 35.897502" stroke="gray" fill="white" stroke-width="1px"></path><path d="M 271.459383 29.897502 L 268.959383 29.897502 L 268.959383 35.897502 L 271.459383 35.897502 L 271.459383 29.897502" stroke="gray" fill="white" stroke-width="1px"></path><path d="M 271.459383 23.897502 L 268.959383 23.897502 L 268.959383 29.897502 L 271.459383 29.897502 L 271.459383 23.897502" stroke="gray" fill="white" stroke-width="1px"></path><path d="M 271.459383 17.897502 L 268.959383 17.897502 L 268.959383 23.897502 L 271.459383 23.897502 L 271.459383 17.897502" stroke="gray" fill="white" stroke-width="1px"></path><path d="M 259.459383 47.470022 L 256.959383 47.470022 L 256.959383 53.470022 L 259.459383 53.470022 L 259.459383 47.470022" stroke="gray" fill="white" stroke-width="1px"></path><path d="M 259.459383 41.470022 L 256.959383 41.470022 L 256.959383 47.470022 L 259.459383 47.470022 L 259.459383 41.470022" stroke="gray" fill="white" stroke-width="1px"></path><path d="M 259.459383 35.470022 L 256.959383 35.470022 L 256.959383 41.470022 L 259.459383 41.470022 L 259.459383 35.470022" stroke="gray" fill="white" stroke-width="1px"></path><path d="M 259.459383 29.470022 L 256.959383 29.470022 L 256.959383 35.470022 L 259.459383 35.470022 L 259.459383 29.470022" stroke="gray" fill="white" stroke-width="1px"></path><path d="M 259.459383 23.470022 L 256.959383 23.470022 L 256.959383 29.470022 L 259.459383 29.470022 L 259.459383 23.470022" stroke="gray" fill="white" stroke-width="1px"></path><path d="M 259.459383 17.470022 L 256.959383 17.470022 L 256.959383 23.470022 L 259.459383 23.470022 L 259.459383 17.470022" stroke="gray" fill="white" stroke-width="1px"></path><path d="M 247.459383 47.042541 L 244.959383 47.042541 L 244.959383 53.042541 L 247.459383 53.042541 L 247.459383 47.042541" stroke="gray" fill="white" stroke-width="1px"></path><path d="M 247.459383 41.042541 L 244.959383 41.042541 L 244.959383 47.042541 L 247.459383 47.042541 L 247.459383 41.042541" stroke="gray" fill="white" stroke-width="1px"></path><path d="M 247.459383 35.042541 L 244.959383 35.042541 L 244.959383 41.042541 L 247.459383 41.042541 L 247.459383 35.042541" stroke="gray" fill="white" stroke-width="1px"></path><path d="M 247.459383 29.042541 L 244.959383 29.042541 L 244.959383 35.042541 L 247.459383 35.042541 L 247.459383 29.042541" stroke="gray" fill="white" stroke-width="1px"></path><path d="M 247.459383 23.042541 L 244.959383 23.042541 L 244.959383 29.042541 L 247.459383 29.042541 L 247.459383 23.042541" stroke="gray" fill="white" stroke-width="1px"></path><path d="M 247.459383 17.042541 L 244.959383 17.042541 L 244.959383 23.042541 L 247.459383 23.042541 L 247.459383 17.042541" stroke="gray" fill="white" stroke-width="1px"></path><path d="M 199.459383 101.033125 L 196.959383 101.033125 L 196.959383 107.033125 L 199.459383 107.033125 L 199.459383 101.033125" stroke="gray" fill="white" stroke-width="1px"></path><path d="M 187.459383 101.033125 L 184.959383 101.033125 L 184.959383 107.033125 L 187.459383 107.033125 L 187.459383 101.033125" stroke="gray" fill="white" stroke-width="1px"></path><path d="M 163.459383 101.033125 L 160.959383 101.033125 L 160.959383 107.033125 L 163.459383 107.033125 L 163.459383 101.033125" stroke="gray" fill="white" stroke-width="1px"></path><path d="M 151.459383 101.033125 L 148.959383 101.033125 L 148.959383 107.033125 L 151.459383 107.033125 L 151.459383 101.033125" stroke="gray" fill="white" stroke-width="1px"></path><path d="M 139.459383 101.033125 L 136.959383 101.033125 L 136.959383 107.033125 L 139.459383 107.033125 L 139.459383 101.033125" stroke="gray" fill="white" stroke-width="1px"></path><path d="M 127.459383 101.033125 L 124.959383 101.033125 L 124.959383 107.033125 L 127.459383 107.033125 L 127.459383 101.033125" stroke="gray" fill="white" stroke-width="1px"></path><path d="M 127.459383 95.033125 L 124.959383 95.033125 L 124.959383 101.033125 L 127.459383 101.033125 L 127.459383 95.033125" stroke="gray" fill="white" stroke-width="1px"></path><path d="M 127.459383 89.033125 L 124.959383 89.033125 L 124.959383 95.033125 L 127.459383 95.033125 L 127.459383 89.033125" stroke="gray" fill="white" stroke-width="1px"></path><path d="M 127.459383 83.033125 L 124.959383 83.033125 L 124.959383 89.033125 L 127.459383 89.033125 L 127.459383 83.033125" stroke="gray" fill="white" stroke-width="1px"></path><path d="M 115.459383 101.033125 L 112.959383 101.033125 L 112.959383 107.033125 L 115.459383 107.033125 L 115.459383 101.033125" stroke="gray" fill="white" stroke-width="1px"></path><path d="M 115.459383 95.033125 L 112.959383 95.033125 L 112.959383 101.033125 L 115.459383 101.033125 L 115.459383 95.033125" stroke="gray" fill="white" stroke-width="1px"></path><path d="M 115.459383 89.033125 L 112.959383 89.033125 L 112.959383 95.033125 L 115.459383 95.033125 L 115.459383 89.033125" stroke="gray" fill="white" stroke-width="1px"></path><path d="M 115.459383 83.033125 L 112.959383 83.033125 L 112.959383 89.033125 L 115.459383 89.033125 L 115.459383 83.033125" stroke="gray" fill="white" stroke-width="1px"></path><path d="M 31.459383 48.462861 L 28.959383 48.462861 L 28.959383 54.462861 L 31.459383 54.462861 L 31.459383 48.462861" stroke="gray" fill="white" stroke-width="1px"></path><path d="M 31.459383 42.462861 L 28.959383 42.462861 L 28.959383 48.462861 L 31.459383 48.462861 L 31.459383 42.462861" stroke="gray" fill="white" stroke-width="1px"></path><path d="M 31.459383 36.462861 L 28.959383 36.462861 L 28.959383 42.462861 L 31.459383 42.462861 L 31.459383 36.462861" stroke="gray" fill="white" stroke-width="1px"></path><path d="M 31.459383 30.462861 L 28.959383 30.462861 L 28.959383 36.462861 L 31.459383 36.462861 L 31.459383 30.462861" stroke="gray" fill="white" stroke-width="1px"></path><path d="M 31.459383 24.462861 L 28.959383 24.462861 L 28.959383 30.462861 L 31.459383 30.462861 L 31.459383 24.462861" stroke="gray" fill="white" stroke-width="1px"></path><path d="M 31.459383 18.462861 L 28.959383 18.462861 L 28.959383 24.462861 L 31.459383 24.462861 L 31.459383 18.462861" stroke="gray" fill="white" stroke-width="1px"></path><path d="M 19.459383 49.390920 L 16.959383 49.390920 L 16.959383 55.390920 L 19.459383 55.390920 L 19.459383 49.390920" stroke="gray" fill="white" stroke-width="1px"></path><path d="M 19.459383 43.390920 L 16.959383 43.390920 L 16.959383 49.390920 L 19.459383 49.390920 L 19.459383 43.390920" stroke="gray" fill="white" stroke-width="1px"></path><path d="M 19.459383 37.390920 L 16.959383 37.390920 L 16.959383 43.390920 L 19.459383 43.390920 L 19.459383 37.390920" stroke="gray" fill="white" stroke-width="1px"></path><path d="M 19.459383 31.390920 L 16.959383 31.390920 L 16.959383 37.390920 L 19.459383 37.390920 L 19.459383 31.390920" stroke="gray" fill="white" stroke-width="1px"></path><path d="M 19.459383 25.390920 L 16.959383 25.390920 L 16.959383 31.390920 L 19.459383 31.390920 L 19.459383 25.390920" stroke="gray" fill="white" stroke-width="1px"></path><path d="M 19.459383 19.390920 L 16.959383 19.390920 L 16.959383 25.390920 L 19.459383 25.390920 L 19.459383 19.390920" stroke="gray" fill="white" stroke-width="1px"></path><path d="M 19.459383 13.390920 L 16.959383 13.390920 L 16.959383 19.390920 L 19.459383 19.390920 L 19.459383 13.390920" stroke="gray" fill="white" stroke-width="1px"></path><path d="M 271.459383 47.897502 L 273.959383 47.897502 L 273.959383 53.897502 L 271.459383 53.897502 L 271.459383 47.897502" stroke="gray" fill="white" stroke-width="1px"></path><path d="M 271.459383 41.897502 L 273.959383 41.897502 L 273.959383 47.897502 L 271.459383 47.897502 L 271.459383 41.897502" stroke="gray" fill="white" stroke-width="1px"></path><path d="M 271.459383 35.897502 L 273.959383 35.897502 L 273.959383 41.897502 L 271.459383 41.897502 L 271.459383 35.897502" stroke="gray" fill="white" stroke-width="1px"></path><path d="M 271.459383 29.897502 L 273.959383 29.897502 L 273.959383 35.897502 L 271.459383 35.897502 L 271.459383 29.897502" stroke="gray" fill="white" stroke-width="1px"></path><path d="M 271.459383 23.897502 L 273.959383 23.897502 L 273.959383 29.897502 L 271.459383 29.897502 L 271.459383 23.897502" stroke="gray" fill="white" stroke-width="1px"></path><path d="M 271.459383 17.897502 L 273.959383 17.897502 L 273.959383 23.897502 L 271.459383 23.897502 L 271.459383 17.897502" stroke="gray" fill="white" stroke-width="1px"></path><path d="M 259.459383 47.470022 L 261.959383 47.470022 L 261.959383 53.470022 L 259.459383 53.470022 L 259.459383 47.470022" stroke="gray" fill="white" stroke-width="1px"></path><path d="M 259.459383 41.470022 L 261.959383 41.470022 L 261.959383 47.470022 L 259.459383 47.470022 L 259.459383 41.470022" stroke="gray" fill="white" stroke-width="1px"></path><path d="M 259.459383 35.470022 L 261.959383 35.470022 L 261.959383 41.470022 L 259.459383 41.470022 L 259.459383 35.470022" stroke="gray" fill="white" stroke-width="1px"></path><path d="M 259.459383 29.470022 L 261.959383 29.470022 L 261.959383 35.470022 L 259.459383 35.470022 L 259.459383 29.470022" stroke="gray" fill="white" stroke-width="1px"></path><path d="M 259.459383 23.470022 L 261.959383 23.470022 L 261.959383 29.470022 L 259.459383 29.470022 L 259.459383 23.470022" stroke="gray" fill="white" stroke-width="1px"></path><path d="M 259.459383 17.470022 L 261.959383 17.470022 L 261.959383 23.470022 L 259.459383 23.470022 L 259.459383 17.470022" stroke="gray" fill="white" stroke-width="1px"></path><path d="M 247.459383 47.042541 L 249.959383 47.042541 L 249.959383 53.042541 L 247.459383 53.042541 L 247.459383 47.042541" stroke="gray" fill="white" stroke-width="1px"></path><path d="M 247.459383 41.042541 L 249.959383 41.042541 L 249.959383 47.042541 L 247.459383 47.042541 L 247.459383 41.042541" stroke="gray" fill="white" stroke-width="1px"></path><path d="M 247.459383 35.042541 L 249.959383 35.042541 L 249.959383 41.042541 L 247.459383 41.042541 L 247.459383 35.042541" stroke="gray" fill="white" stroke-width="1px"></path><path d="M 247.459383 29.042541 L 249.959383 29.042541 L 249.959383 35.042541 L 247.459383 35.042541 L 247.459383 29.042541" stroke="gray" fill="white" stroke-width="1px"></path><path d="M 247.459383 23.042541 L 249.959383 23.042541 L 249.959383 29.042541 L 247.459383 29.042541 L 247.459383 23.042541" stroke="gray" fill="white" stroke-width="1px"></path><path d="M 247.459383 17.042541 L 249.959383 17.042541 L 249.959383 23.042541 L 247.459383 23.042541 L 247.459383 17.042541" stroke="gray" fill="white" stroke-width="1px"></path><path d="M 199.459383 101.033125 L 201.959383 101.033125 L 201.959383 107.033125 L 199.459383 107.033125 L 199.459383 101.033125" stroke="gray" fill="white" stroke-width="1px"></path><path d="M 187.459383 101.033125 L 189.959383 101.033125 L 189.959383 107.033125 L 187.459383 107.033125 L 187.459383 101.033125" stroke="gray" fill="white" stroke-width="1px"></path><path d="M 163.459383 101.033125 L 165.959383 101.033125 L 165.959383 107.033125 L 163.459383 107.033125 L 163.459383 101.033125" stroke="gray" fill="white" stroke-width="1px"></path><path d="M 151.459383 101.033125 L 153.959383 101.033125 L 153.959383 107.033125 L 151.459383 107.033125 L 151.459383 101.033125" stroke="gray" fill="white" stroke-width="1px"></path><path d="M 139.459383 101.033125 L 141.959383 101.033125 L 141.959383 107.033125 L 139.459383 107.033125 L 139.459383 101.033125" stroke="gray" fill="white" stroke-width="1px"></path><path d="M 127.459383 101.033125 L 129.959383 101.033125 L 129.959383 107.033125 L 127.459383 107.033125 L 127.459383 101.033125" stroke="gray" fill="white" stroke-width="1px"></path><path d="M 127.459383 95.033125 L 129.959383 95.033125 L 129.959383 101.033125 L 127.459383 101.033125 L 127.459383 95.033125" stroke="gray" fill="white" stroke-width="1px"></path><path d="M 127.459383 89.033125 L 129.959383 89.033125 L 129.959383 95.033125 L 127.459383 95.033125 L 127.459383 89.033125" stroke="gray" fill="white" stroke-width="1px"></path><path d="M 127.459383 83.033125 L 129.959383 83.033125 L 129.959383 89.033125 L 127.459383 89.033125 L 127.459383 83.033125" stroke="gray" fill="white" stroke-width="1px"></path><path d="M 115.459383 101.033125 L 117.959383 101.033125 L 117.959383 107.033125 L 115.459383 107.033125 L 115.459383 101.033125" stroke="gray" fill="white" stroke-width="1px"></path><path d="M 115.459383 95.033125 L 117.959383 95.033125 L 117.959383 101.033125 L 115.459383 101.033125 L 115.459383 95.033125" stroke="gray" fill="white" stroke-width="1px"></path><path d="M 115.459383 89.033125 L 117.959383 89.033125 L 117.959383 95.033125 L 115.459383 95.033125 L 115.459383 89.033125" stroke="gray" fill="white" stroke-width="1px"></path><path d="M 115.459383 83.033125 L 117.959383 83.033125 L 117.959383 89.033125 L 115.459383 89.033125 L 115.459383 83.033125" stroke="gray" fill="white" stroke-width="1px"></path><path d="M 31.459383 48.462861 L 33.959383 48.462861 L 33.959383 54.462861 L 31.459383 54.462861 L 31.459383 48.462861" stroke="gray" fill="white" stroke-width="1px"></path><path d="M 31.459383 42.462861 L 33.959383 42.462861 L 33.959383 48.462861 L 31.459383 48.462861 L 31.459383 42.462861" stroke="gray" fill="white" stroke-width="1px"></path><path d="M 31.459383 36.462861 L 33.959383 36.462861 L 33.959383 42.462861 L 31.459383 42.462861 L 31.459383 36.462861" stroke="gray" fill="white" stroke-width="1px"></path><path d="M 31.459383 30.462861 L 33.959383 30.462861 L 33.959383 36.462861 L 31.459383 36.462861 L 31.459383 30.462861" stroke="gray" fill="white" stroke-width="1px"></path><path d="M 31.459383 24.462861 L 33.959383 24.462861 L 33.959383 30.462861 L 31.459383 30.462861 L 31.459383 24.462861" stroke="gray" fill="white" stroke-width="1px"></path><path d="M 31.459383 18.462861 L 33.959383 18.462861 L 33.959383 24.462861 L 31.459383 24.462861 L 31.459383 18.462861" stroke="gray" fill="white" stroke-width="1px"></path><path d="M 19.459383 49.390920 L 21.959383 49.390920 L 21.959383 55.390920 L 19.459383 55.390920 L 19.459383 49.390920" stroke="gray" fill="white" stroke-width="1px"></path><path d="M 19.459383 43.390920 L 21.959383 43.390920 L 21.959383 49.390920 L 19.459383 49.390920 L 19.459383 43.390920" stroke="gray" fill="white" stroke-width="1px"></path><path d="M 19.459383 37.390920 L 21.959383 37.390920 L 21.959383 43.390920 L 19.459383 43.390920 L 19.459383 37.390920" stroke="gray" fill="white" stroke-width="1px"></path><path d="M 19.459383 31.390920 L 21.959383 31.390920 L 21.959383 37.390920 L 19.459383 37.390920 L 19.459383 31.390920" stroke="gray" fill="white" stroke-width="1px"></path><path d="M 19.459383 25.390920 L 21.959383 25.390920 L 21.959383 31.390920 L 19.459383 31.390920 L 19.459383 25.390920" stroke="gray" fill="white" stroke-width="1px"></path><path d="M 19.459383 19.390920 L 21.959383 19.390920 L 21.959383 25.390920 L 19.459383 25.390920 L 19.459383 19.390920" stroke="gray" fill="white" stroke-width="1px"></path><path d="M 19.459383 13.390920 L 21.959383 13.390920 L 21.959383 19.390920 L 19.459383 19.390920 L 19.459383 13.390920" stroke="gray" fill="white" stroke-width="1px"></path><path d="M 258.707322 101.263579 L 258.707322 98.763579 L 252.707322 98.763579 L 252.707322 101.263579 L 258.707322 101.263579" stroke="gray" fill="white" stroke-width="1px"></path><path d="M 264.707322 101.263579 L 264.707322 98.763579 L 258.707322 98.763579 L 258.707322 101.263579 L 264.707322 101.263579" stroke="gray" fill="white" stroke-width="1px"></path><path d="M 270.707322 101.263579 L 270.707322 98.763579 L 264.707322 98.763579 L 264.707322 101.263579 L 270.707322 101.263579" stroke="gray" fill="white" stroke-width="1px"></path><path d="M 276.707322 101.263579 L 276.707322 98.763579 L 270.707322 98.763579 L 270.707322 101.263579 L 276.707322 101.263579" stroke="gray" fill="white" stroke-width="1px"></path><path d="M 255.958916 89.263579 L 255.958916 86.763579 L 249.958916 86.763579 L 249.958916 89.263579 L 255.958916 89.263579" stroke="gray" fill="white" stroke-width="1px"></path><path d="M 261.958916 89.263579 L 261.958916 86.763579 L 255.958916 86.763579 L 255.958916 89.263579 L 261.958916 89.263579" stroke="gray" fill="white" stroke-width="1px"></path><path d="M 267.958916 89.263579 L 267.958916 86.763579 L 261.958916 86.763579 L 261.958916 89.263579 L 267.958916 89.263579" stroke="gray" fill="white" stroke-width="1px"></path><path d="M 273.958916 89.263579 L 273.958916 86.763579 L 267.958916 86.763579 L 267.958916 89.263579 L 273.958916 89.263579" stroke="gray" fill="white" stroke-width="1px"></path><path d="M 253.210510 77.263579 L 253.210510 74.763579 L 247.210510 74.763579 L 247.210510 77.263579 L 253.210510 77.263579" stroke="gray" fill="white" stroke-width="1px"></path><path d="M 259.210510 77.263579 L 259.210510 74.763579 L 253.210510 74.763579 L 253.210510 77.263579 L 259.210510 77.263579" stroke="gray" fill="white" stroke-width="1px"></path><path d="M 265.210510 77.263579 L 265.210510 74.763579 L 259.210510 74.763579 L 259.210510 77.263579 L 265.210510 77.263579" stroke="gray" fill="white" stroke-width="1px"></path><path d="M 271.210510 77.263579 L 271.210510 74.763579 L 265.210510 74.763579 L 265.210510 77.263579 L 271.210510 77.263579" stroke="gray" fill="white" stroke-width="1px"></path><path d="M 277.210510 77.263579 L 277.210510 74.763579 L 271.210510 74.763579 L 271.210510 77.263579 L 277.210510 77.263579" stroke="gray" fill="white" stroke-width="1px"></path><path d="M 216.422031 101.263579 L 216.422031 98.763579 L 210.422031 98.763579 L 210.422031 101.263579 L 216.422031 101.263579" stroke="gray" fill="white" stroke-width="1px"></path><path d="M 222.422031 101.263579 L 222.422031 98.763579 L 216.422031 98.763579 L 216.422031 101.263579 L 222.422031 101.263579" stroke="gray" fill="white" stroke-width="1px"></path><path d="M 217.294272 89.263579 L 217.294272 86.763579 L 211.294272 86.763579 L 211.294272 89.263579 L 217.294272 89.263579" stroke="gray" fill="white" stroke-width="1px"></path><path d="M 22.000000 101.263579 L 22.000000 98.763579 L 16.000000 98.763579 L 16.000000 101.263579 L 22.000000 101.263579" stroke="gray" fill="white" stroke-width="1px"></path><path d="M 28.000000 101.263579 L 28.000000 98.763579 L 22.000000 98.763579 L 22.000000 101.263579 L 28.000000 101.263579" stroke="gray" fill="white" stroke-width="1px"></path><path d="M 34.000000 101.263579 L 34.000000 98.763579 L 28.000000 98.763579 L 28.000000 101.263579 L 34.000000 101.263579" stroke="gray" fill="white" stroke-width="1px"></path><path d="M 40.000000 101.263579 L 40.000000 98.763579 L 34.000000 98.763579 L 34.000000 101.263579 L 40.000000 101.263579" stroke="gray" fill="white" stroke-width="1px"></path><path d="M 22.000000 89.263579 L 22.000000 86.763579 L 16.000000 86.763579 L 16.000000 89.263579 L 22.000000 89.263579" stroke="gray" fill="white" stroke-width="1px"></path><path d="M 28.000000 89.263579 L 28.000000 86.763579 L 22.000000 86.763579 L 22.000000 89.263579 L 28.000000 89.263579" stroke="gray" fill="white" stroke-width="1px"></path><path d="M 34.000000 89.263579 L 34.000000 86.763579 L 28.000000 86.763579 L 28.000000 89.263579 L 34.000000 89.263579" stroke="gray" fill="white" stroke-width="1px"></path><path d="M 40.000000 89.263579 L 40.000000 86.763579 L 34.000000 86.763579 L 34.000000 89.263579 L 40.000000 89.263579" stroke="gray" fill="white" stroke-width="1px"></path><path d="M 22.000000 77.263579 L 22.000000 74.763579 L 16.000000 74.763579 L 16.000000 77.263579 L 22.000000 77.263579" stroke="gray" fill="white" stroke-width="1px"></path><path d="M 28.000000 77.263579 L 28.000000 74.763579 L 22.000000 74.763579 L 22.000000 77.263579 L 28.000000 77.263579" stroke="gray" fill="white" stroke-width="1px"></path><path d="M 34.000000 77.263579 L 34.000000 74.763579 L 28.000000 74.763579 L 28.000000 77.263579 L 34.000000 77.263579" stroke="gray" fill="white" stroke-width="1px"></path><path d="M 40.000000 77.263579 L 40.000000 74.763579 L 34.000000 74.763579 L 34.000000 77.263579 L 40.000000 77.263579" stroke="gray" fill="white" stroke-width="1px"></path><path d="M 22.000000 65.263579 L 22.000000 62.763579 L 16.000000 62.763579 L 16.000000 65.263579 L 22.000000 65.263579" stroke="gray" fill="white" stroke-width="1px"></path><path d="M 28.000000 65.263579 L 28.000000 62.763579 L 22.000000 62.763579 L 22.000000 65.263579 L 28.000000 65.263579" stroke="gray" fill="white" stroke-width="1px"></path><path d="M 34.000000 65.263579 L 34.000000 62.763579 L 28.000000 62.763579 L 28.000000 65.263579 L 34.000000 65.263579" stroke="gray" fill="white" stroke-width="1px"></path><path d="M 40.000000 65.263579 L 40.000000 62.763579 L 34.000000 62.763579 L 34.000000 65.263579 L 40.000000 65.263579" stroke="gray" fill="white" stroke-width="1px"></path><path d="M 258.707322 101.263579 L 258.707322 103.763579 L 252.707322 103.763579 L 252.707322 101.263579 L 258.707322 101.263579" stroke="gray" fill="white" stroke-width="1px"></path><path d="M 264.707322 101.263579 L 264.707322 103.763579 L 258.707322 103.763579 L 258.707322 101.263579 L 264.707322 101.263579" stroke="gray" fill="white" stroke-width="1px"></path><path d="M 270.707322 101.263579 L 270.707322 103.763579 L 264.707322 103.763579 L 264.707322 101.263579 L 270.707322 101.263579" stroke="gray" fill="white" stroke-width="1px"></path><path d="M 276.707322 101.263579 L 276.707322 103.763579 L 270.707322 103.763579 L 270.707322 101.263579 L 276.707322 101.263579" stroke="gray" fill="white" stroke-width="1px"></path><path d="M 255.958916 89.263579 L 255.958916 91.763579 L 249.958916 91.763579 L 249.958916 89.263579 L 255.958916 89.263579" stroke="gray" fill="white" stroke-width="1px"></path><path d="M 261.958916 89.263579 L 261.958916 91.763579 L 255.958916 91.763579 L 255.958916 89.263579 L 261.958916 89.263579" stroke="gray" fill="white" stroke-width="1px"></path><path d="M 267.958916 89.263579 L 267.958916 91.763579 L 261.958916 91.763579 L 261.958916 89.263579 L 267.958916 89.263579" stroke="gray" fill="white" stroke-width="1px"></path><path d="M 273.958916 89.263579 L 273.958916 91.763579 L 267.958916 91.763579 L 267.958916 89.263579 L 273.958916 89.263579" stroke="gray" fill="white" stroke-width="1px"></path><path d="M 253.210510 77.263579 L 253.210510 79.763579 L 247.210510 79.763579 L 247.210510 77.263579 L 253.210510 77.263579" stroke="gray" fill="white" stroke-width="1px"></path><path d="M 259.210510 77.263579 L 259.210510 79.763579 L 253.210510 79.763579 L 253.210510 77.263579 L 259.210510 77.263579" stroke="gray" fill="white" stroke-width="1px"></path><path d="M 265.210510 77.263579 L 265.210510 79.763579 L 259.210510 79.763579 L 259.210510 77.263579 L 265.210510 77.263579" stroke="gray" fill="white" stroke-width="1px"></path><path d="M 271.210510 77.263579 L 271.210510 79.763579 L 265.210510 79.763579 L 265.210510 77.263579 L 271.210510 77.263579" stroke="gray" fill="white" stroke-width="1px"></path><path d="M 277.210510 77.263579 L 277.210510 79.763579 L 271.210510 79.763579 L 271.210510 77.263579 L 277.210510 77.263579" stroke="gray" fill="white" stroke-width="1px"></path><path d="M 216.422031 101.263579 L 216.422031 103.763579 L 210.422031 103.763579 L 210.422031 101.263579 L 216.422031 101.263579" stroke="gray" fill="white" stroke-width="1px"></path><path d="M 222.422031 101.263579 L 222.422031 103.763579 L 216.422031 103.763579 L 216.422031 101.263579 L 222.422031 101.263579" stroke="gray" fill="white" stroke-width="1px"></path><path d="M 217.294272 89.263579 L 217.294272 91.763579 L 211.294272 91.763579 L 211.294272 89.263579 L 217.294272 89.263579" stroke="gray" fill="white" stroke-width="1px"></path><path d="M 22.000000 101.263579 L 22.000000 103.763579 L 16.000000 103.763579 L 16.000000 101.263579 L 22.000000 101.263579" stroke="gray" fill="white" stroke-width="1px"></path><path d="M 28.000000 101.263579 L 28.000000 103.763579 L 22.000000 103.763579 L 22.000000 101.263579 L 28.000000 101.263579" stroke="gray" fill="white" stroke-width="1px"></path><path d="M 34.000000 101.263579 L 34.000000 103.763579 L 28.000000 103.763579 L 28.000000 101.263579 L 34.000000 101.263579" stroke="gray" fill="white" stroke-width="1px"></path><path d="M 40.000000 101.263579 L 40.000000 103.763579 L 34.000000 103.763579 L 34.000000 101.263579 L 40.000000 101.263579" stroke="gray" fill="white" stroke-width="1px"></path><path d="M 22.000000 89.263579 L 22.000000 91.763579 L 16.000000 91.763579 L 16.000000 89.263579 L 22.000000 89.263579" stroke="gray" fill="white" stroke-width="1px"></path><path d="M 28.000000 89.263579 L 28.000000 91.763579 L 22.000000 91.763579 L 22.000000 89.263579 L 28.000000 89.263579" stroke="gray" fill="white" stroke-width="1px"></path><path d="M 34.000000 89.263579 L 34.000000 91.763579 L 28.000000 91.763579 L 28.000000 89.263579 L 34.000000 89.263579" stroke="gray" fill="white" stroke-width="1px"></path><path d="M 40.000000 89.263579 L 40.000000 91.763579 L 34.000000 91.763579 L 34.000000 89.263579 L 40.000000 89.263579" stroke="gray" fill="white" stroke-width="1px"></path><path d="M 22.000000 77.263579 L 22.000000 79.763579 L 16.000000 79.763579 L 16.000000 77.263579 L 22.000000 77.263579" stroke="gray" fill="white" stroke-width="1px"></path><path d="M 28.000000 77.263579 L 28.000000 79.763579 L 22.000000 79.763579 L 22.000000 77.263579 L 28.000000 77.263579" stroke="gray" fill="white" stroke-width="1px"></path><path d="M 34.000000 77.263579 L 34.000000 79.763579 L 28.000000 79.763579 L 28.000000 77.263579 L 34.000000 77.263579" stroke="gray" fill="white" stroke-width="1px"></path><path d="M 40.000000 77.263579 L 40.000000 79.763579 L 34.000000 79.763579 L 34.000000 77.263579 L 40.000000 77.263579" stroke="gray" fill="white" stroke-width="1px"></path><path d="M 22.000000 65.263579 L 22.000000 67.763579 L 16.000000 67.763579 L 16.000000 65.263579 L 22.000000 65.263579" stroke="gray" fill="white" stroke-width="1px"></path><path d="M 28.000000 65.263579 L 28.000000 67.763579 L 22.000000 67.763579 L 22.000000 65.263579 L 28.000000 65.263579" stroke="gray" fill="white" stroke-width="1px"></path><path d="M 34.000000 65.263579 L 34.000000 67.763579 L 28.000000 67.763579 L 28.000000 65.263579 L 34.000000 65.263579" stroke="gray" fill="white" stroke-width="1px"></path><path d="M 40.000000 65.263579 L 40.000000 67.763579 L 34.000000 67.763579 L 34.000000 65.263579 L 40.000000 65.263579" stroke="gray" fill="white" stroke-width="1px"></path></g><g id="crv-base"><path d="M 221.371570 123.090312 L 221.371570 169.241094 L 120.000633 169.241094 L 120.000633 156.444206 L 126.051258 156.444206 L 126.051258 128.832500 L 123.590320 128.832500 L 123.590320 125.551250 L 126.051258 125.551250 L 126.051258 123.858132 L 91.315945 123.858125 L 91.315945 134.738750 L 64.258762 134.738750 L 64.258762 123.687497 L 10.000000 123.687497 L 10.000000 226.180625 L 64.258758 226.180625 L 64.258758 192.357500 L 91.315945 192.357500 L 91.315945 220.123437 L 283.459383 220.123437 L 283.459383 123.090312 L 221.371570 123.090312" stroke="black" fill="none" stroke-width="1px"></path><path d="M 221.371570 10.000000 L 221.371570 56.150781 L 120.000633 56.150781 L 120.000633 43.353893 L 126.051258 43.353893 L 126.051258 15.742187 L 123.590320 15.742187 L 123.590320 12.460937 L 126.051258 12.460937 L 126.051258 10.767819 L 91.315945 10.767812 L 91.315945 21.648438 L 64.258762 21.648438 L 64.258762 10.597185 L 10.000000 10.597185 L 10.000000 113.090312 L 64.258758 113.090312 L 64.258758 79.267187 L 91.315945 79.267187 L 91.315945 107.033125 L 283.459383 107.033125 L 283.459383 10.000000 L 221.371570 10.000000" stroke="black" fill="none" stroke-width="1px"></path><path d="M 10.387195 156.559062 L 10.387195 154.590312 L 12.355945 154.590312 L 12.355945 156.559062 L 10.387195 156.559062" stroke="black" fill="white" stroke-width="1px"></path><path d="M 10.387195 43.468750 L 10.387195 41.500000 L 12.355945 41.500000 L 12.355945 43.468750 L 10.387195 43.468750" stroke="black" fill="white" stroke-width="1px"></path><path d="M 10.387195 188.059062 L 10.387195 186.090312 L 12.355945 186.090312 L 12.355945 188.059062 L 10.387195 188.059062" stroke="black" fill="white" stroke-width="1px"></path><path d="M 10.387195 74.968750 L 10.387195 73.000000 L 12.355945 73.000000 L 12.355945 74.968750 L 10.387195 74.968750" stroke="black" fill="white" stroke-width="1px"></path><path d="M 10.387195 219.559062 L 10.387195 217.590312 L 12.355945 217.590312 L 12.355945 219.559062 L 10.387195 219.559062" stroke="black" fill="white" stroke-width="1px"></path><path d="M 10.387195 106.468750 L 10.387195 104.500000 L 12.355945 104.500000 L 12.355945 106.468750 L 10.387195 106.468750" stroke="black" fill="white" stroke-width="1px"></path><path d="M 60.754383 128.340312 L 60.754383 125.387187 L 63.871570 125.387187 L 63.871570 128.340312 L 60.754383 128.340312" stroke="black" fill="white" stroke-width="1px"></path><path d="M 60.754383 15.250000 L 60.754383 12.296875 L 63.871570 12.296875 L 63.871570 15.250000 L 60.754383 15.250000" stroke="black" fill="white" stroke-width="1px"></path><path d="M 280.598133 219.230937 L 280.598133 217.262187 L 282.566883 217.262187 L 282.566883 219.230937 L 280.598133 219.230937" stroke="black" fill="white" stroke-width="1px"></path><path d="M 280.598133 106.140625 L 280.598133 104.171875 L 282.566883 104.171875 L 282.566883 106.140625 L 280.598133 106.140625" stroke="black" fill="white" stroke-width="1px"></path><path d="M 280.598133 188.059062 L 280.598133 186.090312 L 282.566883 186.090312 L 282.566883 188.059062 L 280.598133 188.059062" stroke="black" fill="white" stroke-width="1px"></path><path d="M 280.598133 74.968750 L 280.598133 73.000000 L 282.566883 73.000000 L 282.566883 74.968750 L 280.598133 74.968750" stroke="black" fill="white" stroke-width="1px"></path><path d="M 280.598133 156.559050 L 280.598133 154.590300 L 282.566883 154.590300 L 282.566883 156.559050 L 280.598133 156.559050" stroke="black" fill="white" stroke-width="1px"></path><path d="M 280.598133 43.468737 L 280.598133 41.499987 L 282.566883 41.499987 L 282.566883 43.468737 L 280.598133 43.468737" stroke="black" fill="white" stroke-width="1px"></path><path d="M 248.605945 127.355937 L 248.605945 123.418437 L 251.887195 123.418437 L 251.887195 127.355937 L 248.605945 127.355937" stroke="black" fill="white" stroke-width="1px"></path><path d="M 248.605945 14.265625 L 248.605945 10.328125 L 251.887195 10.328125 L 251.887195 14.265625 L 248.605945 14.265625" stroke="black" fill="white" stroke-width="1px"></path><path d="M 248.605945 157.871562 L 248.605945 153.934062 L 251.887195 153.934062 L 251.887195 157.871562 L 248.605945 157.871562" stroke="black" fill="white" stroke-width="1px"></path><path d="M 248.605945 44.781250 L 248.605945 40.843750 L 251.887195 40.843750 L 251.887195 44.781250 L 248.605945 44.781250" stroke="black" fill="white" stroke-width="1px"></path><path d="M 248.605945 189.043437 L 248.605945 185.105937 L 251.887195 185.105937 L 251.887195 189.043437 L 248.605945 189.043437" stroke="black" fill="white" stroke-width="1px"></path><path d="M 248.605945 75.953125 L 248.605945 72.015625 L 251.887195 72.015625 L 251.887195 75.953125 L 248.605945 75.953125" stroke="black" fill="white" stroke-width="1px"></path><path d="M 248.934070 219.230937 L 248.934070 216.277812 L 251.887195 216.277812 L 251.887195 219.230937 L 248.934070 219.230937" stroke="black" fill="white" stroke-width="1px"></path><path d="M 248.934070 106.140625 L 248.934070 103.187500 L 251.887195 103.187500 L 251.887195 106.140625 L 248.934070 106.140625" stroke="black" fill="white" stroke-width="1px"></path><path d="M 218.090320 189.043437 L 218.090320 185.105937 L 221.371570 185.105937 L 221.371570 189.043437 L 218.090320 189.043437" stroke="black" fill="white" stroke-width="1px"></path><path d="M 218.090320 75.953125 L 218.090320 72.015625 L 221.371570 72.015625 L 221.371570 75.953125 L 218.090320 75.953125" stroke="black" fill="white" stroke-width="1px"></path><path d="M 218.254383 219.230937 L 218.254383 216.277812 L 221.207508 216.277812 L 221.207508 219.230937 L 218.254383 219.230937" stroke="black" fill="white" stroke-width="1px"></path><path d="M 218.254383 106.140625 L 218.254383 103.187500 L 221.207508 103.187500 L 221.207508 106.140625 L 218.254383 106.140625" stroke="black" fill="white" stroke-width="1px"></path><path d="M 186.590320 189.043437 L 186.590320 185.105937 L 189.871570 185.105937 L 189.871570 189.043437 L 186.590320 189.043437" stroke="black" fill="white" stroke-width="1px"></path><path d="M 186.590320 75.953125 L 186.590320 72.015625 L 189.871570 72.015625 L 189.871570 75.953125 L 186.590320 75.953125" stroke="black" fill="white" stroke-width="1px"></path><path d="M 186.754383 219.230937 L 186.754383 216.277812 L 189.707508 216.277812 L 189.707508 219.230937 L 186.754383 219.230937" stroke="black" fill="white" stroke-width="1px"></path><path d="M 186.754383 106.140625 L 186.754383 103.187500 L 189.707508 103.187500 L 189.707508 106.140625 L 186.754383 106.140625" stroke="black" fill="white" stroke-width="1px"></path><path d="M 155.090320 189.043437 L 155.090320 185.105937 L 158.371570 185.105937 L 158.371570 189.043437 L 155.090320 189.043437" stroke="black" fill="white" stroke-width="1px"></path><path d="M 155.090320 75.953125 L 155.090320 72.015625 L 158.371570 72.015625 L 158.371570 75.953125 L 155.090320 75.953125" stroke="black" fill="white" stroke-width="1px"></path><path d="M 155.254383 219.230937 L 155.254383 216.277812 L 158.207508 216.277812 L 158.207508 219.230937 L 155.254383 219.230937" stroke="black" fill="white" stroke-width="1px"></path><path d="M 155.254383 106.140625 L 155.254383 103.187500 L 158.207508 103.187500 L 158.207508 106.140625 L 155.254383 106.140625" stroke="black" fill="white" stroke-width="1px"></path><path d="M 123.590320 189.043437 L 123.590320 185.105937 L 126.871570 185.105937 L 126.871570 189.043437 L 123.590320 189.043437" stroke="black" fill="white" stroke-width="1px"></path><path d="M 123.590320 75.953125 L 123.590320 72.015625 L 126.871570 72.015625 L 126.871570 75.953125 L 123.590320 75.953125" stroke="black" fill="white" stroke-width="1px"></path><path d="M 123.754383 219.230937 L 123.754383 216.277812 L 126.707508 216.277812 L 126.707508 219.230937 L 123.754383 219.230937" stroke="black" fill="white" stroke-width="1px"></path><path d="M 123.754383 106.140625 L 123.754383 103.187500 L 126.707508 103.187500 L 126.707508 106.140625 L 123.754383 106.140625" stroke="black" fill="white" stroke-width="1px"></path><path d="M 92.090320 157.543437 L 92.090320 153.605937 L 95.371570 153.605937 L 95.371570 157.543437 L 92.090320 157.543437" stroke="black" fill="white" stroke-width="1px"></path><path d="M 92.090320 44.453125 L 92.090320 40.515625 L 95.371570 40.515625 L 95.371570 44.453125 L 92.090320 44.453125" stroke="black" fill="white" stroke-width="1px"></path><path d="M 92.090320 189.043437 L 92.090320 185.105937 L 95.371570 185.105937 L 95.371570 189.043437 L 92.090320 189.043437" stroke="black" fill="white" stroke-width="1px"></path><path d="M 92.090320 75.953125 L 92.090320 72.015625 L 95.371570 72.015625 L 95.371570 75.953125 L 92.090320 75.953125" stroke="black" fill="white" stroke-width="1px"></path><path d="M 92.090320 128.504375 L 92.090320 125.551250 L 95.207508 125.551250 L 95.207508 128.504375 L 92.090320 128.504375" stroke="black" fill="white" stroke-width="1px"></path><path d="M 92.090320 15.414062 L 92.090320 12.460937 L 95.207508 12.460937 L 95.207508 15.414062 L 92.090320 15.414062" stroke="black" fill="white" stroke-width="1px"></path><path d="M 60.590320 157.215312 L 60.590320 153.934062 L 63.871570 153.934062 L 63.871570 157.215312 L 60.590320 157.215312" stroke="black" fill="white" stroke-width="1px"></path><path d="M 60.590320 44.125000 L 60.590320 40.843750 L 63.871570 40.843750 L 63.871570 44.125000 L 60.590320 44.125000" stroke="black" fill="white" stroke-width="1px"></path><path d="M 60.754383 219.230937 L 60.754383 216.277812 L 63.871570 216.277812 L 63.871570 219.230937 L 60.754383 219.230937" stroke="black" fill="white" stroke-width="1px"></path><path d="M 60.754383 106.140625 L 60.754383 103.187500 L 63.871570 103.187500 L 63.871570 106.140625 L 60.754383 106.140625" stroke="black" fill="white" stroke-width="1px"></path><path d="M 30.074695 128.504375 L 30.074695 125.223125 L 33.027820 125.223125 L 33.027820 128.504375 L 30.074695 128.504375" stroke="black" fill="white" stroke-width="1px"></path><path d="M 30.074695 15.414062 L 30.074695 12.132812 L 33.027820 12.132812 L 33.027820 15.414062 L 30.074695 15.414062" stroke="black" fill="white" stroke-width="1px"></path><path d="M 30.074695 157.215312 L 30.074695 153.934062 L 33.355945 153.934062 L 33.355945 157.215312 L 30.074695 157.215312" stroke="black" fill="white" stroke-width="1px"></path><path d="M 30.074695 44.125000 L 30.074695 40.843750 L 33.355945 40.843750 L 33.355945 44.125000 L 30.074695 44.125000" stroke="black" fill="white" stroke-width="1px"></path><path d="M 30.074695 188.715312 L 30.074695 185.434062 L 33.355945 185.434062 L 33.355945 188.715312 L 30.074695 188.715312" stroke="black" fill="white" stroke-width="1px"></path><path d="M 30.074695 75.625000 L 30.074695 72.343750 L 33.355945 72.343750 L 33.355945 75.625000 L 30.074695 75.625000" stroke="black" fill="white" stroke-width="1px"></path><path d="M 30.074695 219.230937 L 30.074695 216.277812 L 33.027820 216.277812 L 33.027820 219.230937 L 30.074695 219.230937" stroke="black" fill="white" stroke-width="1px"></path><path d="M 30.074695 106.140625 L 30.074695 103.187500 L 33.027820 103.187500 L 33.027820 106.140625 L 30.074695 106.140625" stroke="black" fill="white" stroke-width="1px"></path><path d="M 10.387195 127.191875 L 10.387195 125.223125 L 12.355945 125.223125 L 12.355945 127.191875 L 10.387195 127.191875" stroke="black" fill="white" stroke-width="1px"></path><path d="M 10.387195 14.101562 L 10.387195 12.132812 L 12.355945 12.132812 L 12.355945 14.101562 L 10.387195 14.101562" stroke="black" fill="white" stroke-width="1px"></path><path d="M 60.590320 189.863750 L 60.590320 185.434062 L 63.871570 185.434062 L 63.871570 188.715312 L 62.230945 188.715312 L 62.230945 189.863750 L 60.590320 189.863750" stroke="black" fill="white" stroke-width="1px"></path><path d="M 60.590320 76.773437 L 60.590320 72.343750 L 63.871570 72.343750 L 63.871570 75.625000 L 62.230945 75.625000 L 62.230945 76.773437 L 60.590320 76.773437" stroke="black" fill="white" stroke-width="1px"></path></g></svg>