<svg width="293.459383" height="236.180625" xmlns="http://www.w3.org/2000/svg" xmlns:xlink="http://www.w3.org/1999/xlink" version="1.1"><g id="crv-background"><path d="M 221.371570 123.090312 L 221.371570 169.241094 L 120.000633 169.241094 L 120.000633 156.444206 L 126.051258 156.444206 L 126.051258 128.832500 L 123.590320 128.832500 L 123.590320 125.551250 L 126.051258 125.551250 L 126.051258 123.858132 L 91.315945 123.858125 L 91.315945 134.738750 L 64.258762 134.738750 L 64.258762 123.687497 L 10.000000 123.687497 L 10.000000 226.180625 L 64.258758 226.180625 L 64.258758 192.357500 L 91.315945 192.357500 L 91.315945 220.123437 L 283.459383 220.123437 L 283.459383 123.090312 L 221.371570 123.090312" stroke="none" fill="white" stroke-width="1px"></path><path d="M 221.371570 10.000000 L 221.371570 56.150781 L 120.000633 56.150781 L 120.000633 43.353893 L 126.051258 43.353893 L 126.051258 15.742187 L 123.590320 15.742187 L 123.590320 12.460937 L 126.051258 12.460937 L 126.051258 10.767819 L 91.315945 10.767812 L 91.315945 21.648438 L 64.258762 21.648438 L 64.258762 10.597185 L 10.000000 10.597185 L 10.000000 113.090312 L 64.258758 113.090312 L 64.258758 79.267187 L 91.315945 79.267187 L 91.315945 107.033125 L 283.459383 107.033125 L 283.459383 10.000000 L 221.371570 10.000000" stroke="none" fill="white" stroke-width="1px"></path></g><g id="crv-nbhd"><path d="M 221.737654 10.000004 L 221.737654 26.224654 L 221.737654 42.449304 L 228.009412 47.935341 L 234.281171 53.421377 L 258.870277 52.477292 L 283.459383 51.533208 L 283.459383 30.766604 L 283.459382 10.000000 L 252.598525 10.000002 L 221.737654 10.000004" stroke="#DD2222" fill="none" stroke-width="1px"></path><path d="M 283.459383 107.033125 L 283.459383 79.283166 L 283.459383 51.533208 L 258.870277 52.477292 L 234.281171 53.421377 L 238.534896 80.227251 L 242.788621 107.033125 L 263.124002 107.033125 L 283.459383 107.033125" stroke="#DD2222" fill="none" stroke-width="1px"></path><path d="M 186.626771 107.033125 L 214.707696 107.033125 L 242.788621 107.033125 L 238.534896 80.227251 L 234.281171 53.421377 L 228.009412 47.935341 L 221.737654 42.449304 L 221.737654 60.800317 L 221.737654 79.151330 L 210.795088 79.151330 L 199.852522 79.151330 L 193.239646 93.092227 L 186.626771 107.033125" stroke="#DD2222" fill="none" stroke-width="1px"></path><path d="M 199.852522 79.151330 L 186.393048 79.151330 L 172.933573 79.151329 L 177.313442 93.092227 L 181.693311 107.033125 L 184.160041 107.033125 L 186.626771 107.033125 L 193.239646 93.092227 L 199.852522 79.151330" stroke="#DD2222" fill="none" stroke-width="1px"></path><path d="M 172.933573 79.151329 L 152.484064 79.151329 L 132.034555 79.151328 L 131.395811 93.092227 L 130.757066 107.033125 L 156.225189 107.033125 L 181.693311 107.033125 L 177.313442 93.092227 L 172.933573 79.151329" stroke="#DD2222" fill="none" stroke-width="1px"></path><path d="M 132.034555 79.151328 L 111.675250 79.151328 L 91.315945 79.151327 L 91.315945 93.092226 L 91.315945 107.033125 L 111.036506 107.033125 L 130.757066 107.033125 L 131.395810 93.092230 L 132.034555 79.151328" stroke="#DD2222" fill="none" stroke-width="1px"></path><path d="M 64.258758 113.090312 L 64.258758 84.620547 L 64.258758 56.150781 L 64.258758 55.547800 L 64.258758 54.944819 L 37.129376 55.155786 L 10.000000 55.366753 L 10.000000 84.228533 L 10.000000 113.090312 L 37.129275 113.090312 L 64.258758 113.090312" stroke="#DD2222" fill="none" stroke-width="1px"></path><path d="M 10.000000 10.597184 L 10.000000 32.981969 L 10.000000 55.366753 L 37.129379 55.155786 L 64.258758 54.944819 L 64.258758 32.771002 L 64.258758 10.597185 L 37.129379 10.597185 L 10.000000 10.597184" stroke="#DD2222" fill="none" stroke-width="1px"></path><path d="M 10.000000 123.687497 L 10.000000 150.140603 L 10.000000 176.593709 L 37.129379 174.232599 L 64.258758 171.871489 L 64.258758 170.556291 L 64.258758 169.241094 L 64.258758 146.464296 L 64.258758 123.687497 L 37.129392 123.687497 L 10.000000 123.687497" stroke="#DD2222" fill="none" stroke-width="1px"></path><path d="M 10.000000 176.593709 L 10.000000 201.387167 L 10.000000 226.180625 L 37.129380 226.180625 L 64.258760 226.180625 L 64.258760 199.026057 L 64.258758 171.871489 L 37.129385 174.232598 L 10.000000 176.593709" stroke="#DD2222" fill="none" stroke-width="1px"></path><path d="M 137.260523 192.043444 L 114.288234 192.043444 L 91.315945 192.043444 L 91.315945 206.083441 L 91.315945 220.123437 L 112.659693 220.123437 L 134.003441 220.123437 L 135.631982 206.083441 L 137.260523 192.043444" stroke="#DD2222" fill="none" stroke-width="1px"></path><path d="M 183.294739 192.043444 L 160.277631 192.043444 L 137.260523 192.043444 L 135.631982 206.083441 L 134.003441 220.123437 L 162.960407 220.123437 L 191.917373 220.123437 L 187.606056 206.083441 L 183.294739 192.043444" stroke="#DD2222" fill="none" stroke-width="1px"></path><path d="M 229.205640 192.043444 L 206.250189 192.043444 L 183.294739 192.043444 L 187.606056 206.083441 L 191.917373 220.123437 L 208.090211 220.123437 L 224.263049 220.123437 L 226.734344 206.083441 L 229.205640 192.043444" stroke="#DD2222" fill="none" stroke-width="1px"></path><path d="M 283.459383 220.123437 L 283.459383 193.331563 L 283.459383 166.539688 L 261.598517 168.275428 L 239.737652 170.011168 L 239.737652 181.027306 L 239.737652 192.043444 L 234.471646 192.043444 L 229.205640 192.043444 L 226.734344 206.083441 L 224.263049 220.123437 L 253.861216 220.123437 L 283.459383 220.123437" stroke="#DD2222" fill="none" stroke-width="1px"></path><path d="M 239.737652 123.090312 L 239.737652 146.550740 L 239.737652 170.011168 L 261.598517 168.275428 L 283.459383 166.539688 L 283.459383 144.815000 L 283.459383 123.090312 L 261.598595 123.090312 L 239.737652 123.090312" stroke="#DD2222" fill="none" stroke-width="1px"></path></g><g id="crv-amen"><path d="M 15.425876 161.068431 L 15.425876 167.758678 L 15.425876 174.448925 L 37.129379 172.560037 L 58.832882 170.671149 L 58.832882 169.618991 L 58.832882 168.566833 L 58.832882 162.928744 L 58.832882 157.290655 L 37.129379 159.179543 L 15.425876 161.068431" stroke="none" fill="#2288CC" stroke-width="1px"></path><path d="M 49.269908 220.821893 L 55.934957 220.821893 L 62.600013 220.821893 L 62.600012 199.098238 L 62.600011 177.374584 L 55.934956 177.954654 L 49.269906 178.534723 L 49.269907 199.678308 L 49.269908 220.821893" stroke="none" fill="#2288CC" stroke-width="1px"></path><path d="M 106.312313 194.851444 L 99.647261 194.851444 L 92.982208 194.851444 L 92.982208 206.083441 L 92.982208 217.315438 L 99.647261 217.315438 L 106.312313 217.315438 L 106.312313 206.083441 L 106.312313 194.851444" stroke="none" fill="#2288CC" stroke-width="1px"></path><path d="M 175.380511 217.330800 L 182.352724 217.330800 L 189.324937 217.330800 L 185.875884 206.098803 L 182.426830 194.866805 L 177.223378 194.866805 L 172.019926 194.866805 L 170.403577 195.363144 L 168.787229 195.859482 L 172.083870 206.595141 L 175.380511 217.330800" stroke="none" fill="#2288CC" stroke-width="1px"></path><path d="M 199.831602 194.836082 L 192.859389 194.836082 L 185.887175 194.836082 L 189.336229 206.068079 L 192.785283 217.300076 L 197.988735 217.300076 L 203.192187 217.300076 L 204.808535 216.803738 L 206.424884 216.307399 L 203.128243 205.571741 L 199.831602 194.836082" stroke="none" fill="#2288CC" stroke-width="1px"></path><path d="M 238.855060 193.270893 L 238.855060 194.034762 L 238.855060 194.798630 L 234.642255 194.798630 L 230.429451 194.798630 L 228.452414 206.030627 L 226.475378 217.262625 L 233.242892 217.262625 L 240.010407 217.262625 L 242.041085 205.725876 L 244.071763 194.189128 L 241.463412 193.730011 L 238.855060 193.270893" stroke="none" fill="#2288CC" stroke-width="1px"></path><path d="M 244.109825 154.620455 L 244.109825 161.306484 L 244.109825 167.992513 L 261.598517 166.603921 L 279.087210 165.215329 L 279.087210 158.529300 L 279.087210 151.843272 L 261.598517 153.231864 L 244.109825 154.620455" stroke="none" fill="#2288CC" stroke-width="1px"></path><path d="M 277.287210 24.996368 L 277.287210 18.331316 L 277.287209 11.666263 L 252.598518 11.666265 L 227.909827 11.666266 L 227.909827 18.331319 L 227.909827 24.996371 L 252.598518 24.996370 L 277.287210 24.996368" stroke="none" fill="#2288CC" stroke-width="1px"></path><path d="M 278.671860 66.709168 L 278.671860 60.039205 L 278.671860 53.369242 L 259.000575 54.124509 L 239.329290 54.879777 L 240.381313 61.509349 L 241.433335 68.138920 L 260.052597 67.424044 L 278.671860 66.709168" stroke="none" fill="#2288CC" stroke-width="1px"></path><path d="M 207.784122 82.021356 L 204.039882 82.021356 L 200.295642 82.021356 L 195.005342 93.174074 L 189.715042 104.326792 L 197.091929 104.326792 L 204.468816 104.326792 L 209.091874 94.580716 L 213.714933 84.834641 L 210.749527 83.427998 L 207.784122 82.021356" stroke="none" fill="#2288CC" stroke-width="1px"></path><path d="M 189.154776 81.495116 L 182.168525 81.495116 L 175.182274 81.495116 L 178.686169 92.647834 L 182.190063 103.800552 L 184.163448 103.800552 L 186.136832 103.800552 L 189.152409 97.443280 L 192.167986 91.086008 L 190.661381 86.290562 L 189.154776 81.495116" stroke="none" fill="#2288CC" stroke-width="1px"></path><path d="M 146.918906 81.939508 L 140.246862 81.939508 L 133.574817 81.939508 L 133.063822 93.092227 L 132.552826 104.244945 L 139.224871 104.244945 L 145.896916 104.244945 L 146.407911 93.092227 L 146.918906 81.939508" stroke="none" fill="#2288CC" stroke-width="1px"></path><path d="M 127.313883 94.142440 L 127.619262 87.477389 L 127.924642 80.812335 L 111.637198 80.812335 L 95.349754 80.812334 L 95.349754 87.477387 L 95.349754 94.142439 L 111.331819 94.142440 L 127.313883 94.142440" stroke="none" fill="#2288CC" stroke-width="1px"></path><path d="M 49.263009 107.282239 L 55.928050 107.282239 L 62.593114 107.282239 L 62.593114 84.024042 L 62.593114 60.765845 L 55.928061 60.817674 L 49.263009 60.869504 L 49.263009 84.075872 L 49.263009 107.282239" stroke="none" fill="#2288CC" stroke-width="1px"></path><path d="M 15.425876 40.327739 L 15.425876 46.992993 L 15.425876 53.658247 L 37.129379 53.489473 L 58.832882 53.320699 L 58.832882 46.655445 L 58.832882 39.990191 L 37.129379 40.158965 L 15.425876 40.327739" stroke="none" fill="#2288CC" stroke-width="1px"></path></g><g id="crv-desk"><path d="M 55.459383 145.584256 L 52.959383 145.584256 L 52.959383 151.584256 L 55.459383 151.584256 L 55.459383 145.584256" stroke="gray" fill="white" stroke-width="1px"></path><path d="M 55.459383 139.584256 L 52.959383 139.584256 L 52.959383 145.584256 L 55.459383 145.584256 L 55.459383 139.584256" stroke="gray" fill="white" stroke-width="1px"></path><path d="M 55.459383 133.584256 L 52.959383 133.584256 L 52.959383 139.584256 L 55.459383 139.584256 L 55.459383 133.584256" stroke="gray" fill="white" stroke-width="1px"></path><path d="M 55.459383 127.584256 L 52.959383 127.584256 L 52.959383 133.584256 L 55.459383 133.584256 L 55.459383 127.584256" stroke="gray" fill="white" stroke-width="1px"></path><path d="M 43.459383 146.628633 L 40.959383 146.628633 L 40.959383 152.628633 L 43.459383 152.628633 L 43.459383 146.628633" stroke="gray" fill="white" stroke-width="1px"></path><path d="M 43.459383 140.628633 L 40.959383 140.628633 L 40.959383 146.628633 L 43.459383 146.628633 L 43.459383 140.628633" stroke="gray" fill="white" stroke-width="1px"></path><path d="M 43.459383 134.628633 L 40.959383 134.628633 L 40.959383 140.628633 L 43.459383 140.628633 L 43.459383 134.628633" stroke="gray" fill="white" stroke-width="1px"></path><path d="M 43.459383 128.628633 L 40.959383 128.628633 L 40.959383 134.628633 L 43.459383 134.628633 L 43.459383 128.628633" stroke="gray" fill="white" stroke-width="1px"></path><path d="M 31.459383 147.673011 L 28.959383 147.673011 L 28.959383 153.673011 L 31.459383 153.673011 L 31.459383 147.673011" stroke="gray" fill="white" stroke-width="1px"></path><path d="M 31.459383 141.673011 L 28.959383 141.673011 L 28.959383 147.673011 L 31.459383 147.673011 L 31.459383 141.673011" stroke="gray" fill="white" stroke-width="1px"></path><path d="M 31.459383 135.673011 L 28.959383 135.673011 L 28.959383 141.673011 L 31.459383 141.673011 L 31.459383 135.673011" stroke="gray" fill="white" stroke-width="1px"></path><path d="M 31.459383 129.673011 L 28.959383 129.673011 L 28.959383 135.673011 L 31.459383 135.673011 L 31.459383 129.673011" stroke="gray" fill="white" stroke-width="1px"></path><path d="M 19.459383 148.717389 L 16.959383 148.717389 L 16.959383 154.717389 L 19.459383 154.717389 L 19.459383 148.717389" stroke="gray" fill="white" stroke-width="1px"></path><path d="M 19.459383 142.717389 L 16.959383 142.717389 L 16.959383 148.717389 L 19.459383 148.717389 L 19.459383 142.717389" stroke="gray" fill="white" stroke-width="1px"></path><path d="M 19.459383 136.717389 L 16.959383 136.717389 L 16.959383 142.717389 L 19.459383 142.717389 L 19.459383 136.717389" stroke="gray" fill="white" stroke-width="1px"></path><path d="M 19.459383 130.717389 L 16.959383 130.717389 L 16.959383 136.717389 L 19.459383 136.717389 L 19.459383 130.717389" stroke="gray" fill="white" stroke-width="1px"></path><path d="M 127.459383 214.123437 L 124.959383 214.123437 L 124.959383 220.123437 L 127.459383 220.123437 L 127.459383 214.123437" stroke="gray" fill="white" stroke-width="1px"></path><path d="M 127.459383 208.123437 L 124.959383 208.123437 L 124.959383 214.123437 L 127.459383 214.123437 L 127.459383 208.123437" stroke="gray" fill="white" stroke-width="1px"></path><path d="M 127.459383 202.123437 L 124.959383 202.123437 L 124.959383 208.123437 L 127.459383 208.123437 L 127.459383 202.123437" stroke="gray" fill="white" stroke-width="1px"></path><path d="M 127.459383 196.123437 L 124.959383 196.123437 L 124.959383 202.123437 L 127.459383 202.123437 L 127.459383 196.123437" stroke="gray" fill="white" stroke-width="1px"></path><path d="M 115.459383 214.123437 L 112.959383 214.123437 L 112.959383 220.123437 L 115.459383 220.123437 L 115.459383 214.123437" stroke="gray" fill="white" stroke-width="1px"></path><path d="M 115.459383 208.123437 L 112.959383 208.123437 L 112.959383 214.123437 L 115.459383 214.123437 L 115.459383 208.123437" stroke="gray" fill="white" stroke-width="1px"></path><path d="M 115.459383 202.123437 L 112.959383 202.123437 L 112.959383 208.123437 L 115.459383 208.123437 L 115.459383 202.123437" stroke="gray" fill="white" stroke-width="1px"></path><path d="M 115.459383 196.123437 L 112.959383 196.123437 L 112.959383 202.123437 L 115.459383 202.123437 L 115.459383 196.123437" stroke="gray" fill="white" stroke-width="1px"></path><path d="M 163.459383 214.123437 L 160.959383 214.123437 L 160.959383 220.123437 L 163.459383 220.123437 L 163.459383 214.123437" stroke="gray" fill="white" stroke-width="1px"></path><path d="M 163.459383 208.123437 L 160.959383 208.123437 L 160.959383 214.123437 L 163.459383 214.123437 L 163.459383 208.123437" stroke="gray" fill="white" stroke-width="1px"></path><path d="M 163.459383 202.123437 L 160.959383 202.123437 L 160.959383 208.123437 L 163.459383 208.123437 L 163.459383 202.123437" stroke="gray" fill="white" stroke-width="1px"></path><path d="M 151.459383 214.123437 L 148.959383 214.123437 L 148.959383 220.123437 L 151.459383 220.123437 L 151.459383 214.123437" stroke="gray" fill="white" stroke-width="1px"></path><path d="M 151.459383 208.123437 L 148.959383 208.123437 L 148.959383 214.123437 L 151.459383 214.123437 L 151.459383 208.123437" stroke="gray" fill="white" stroke-width="1px"></path><path d="M 151.459383 202.123437 L 148.959383 202.123437 L 148.959383 208.123437 L 151.459383 208.123437 L 151.459383 202.123437" stroke="gray" fill="white" stroke-width="1px"></path><path d="M 151.459383 196.123437 L 148.959383 196.123437 L 148.959383 202.123437 L 151.459383 202.123437 L 151.459383 196.123437" stroke="gray" fill="white" stroke-width="1px"></path><path d="M 139.459383 214.123437 L 136.959383 214.123437 L 136.959383 220.123437 L 139.459383 220.123437 L 139.459383 214.123437" stroke="gray" fill="white" stroke-width="1px"></path><path d="M 139.459383 208.123437 L 136.959383 208.123437 L 136.959383 214.123437 L 139.459383 214.123437 L 139.459383 208.123437" stroke="gray" fill="white" stroke-width="1px"></path><path d="M 139.459383 202.123437 L 136.959383 202.123437 L 136.959383 208.123437 L 139.459383 208.123437 L 139.459383 202.123437" stroke="gray" fill="white" stroke-width="1px"></path><path d="M 223.459383 208.123437 L 220.959383 208.123437 L 220.959383 214.123437 L 223.459383 214.123437 L 223.459383 208.123437" stroke="gray" fill="white" stroke-width="1px"></path><path d="M 223.459383 202.123437 L 220.959383 202.123437 L 220.959383 208.123437 L 223.459383 208.123437 L 223.459383 202.123437" stroke="gray" fill="white" stroke-width="1px"></path><path d="M 223.459383 196.123437 L 220.959383 196.123437 L 220.959383 202.123437 L 223.459383 202.123437 L 223.459383 196.123437" stroke="gray" fill="white" stroke-width="1px"></path><path d="M 211.459383 208.123437 L 208.959383 208.123437 L 208.959383 214.123437 L 211.459383 214.123437 L 211.459383 208.123437" stroke="gray" fill="white" stroke-width="1px"></path><path d="M 211.459383 202.123437 L 208.959383 202.123437 L 208.959383 208.123437 L 211.459383 208.123437 L 211.459383 202.123437" stroke="gray" fill="white" stroke-width="1px"></path><path d="M 211.459383 196.123437 L 208.959383 196.123437 L 208.959383 202.123437 L 211.459383 202.123437 L 211.459383 196.123437" stroke="gray" fill="white" stroke-width="1px"></path><path d="M 271.459383 214.123437 L 268.959383 214.123437 L 268.959383 220.123437 L 271.459383 220.123437 L 271.459383 214.123437" stroke="gray" fill="white" stroke-width="1px"></path><path d="M 271.459383 208.123437 L 268.959383 208.123437 L 268.959383 214.123437 L 271.459383 214.123437 L 271.459383 208.123437" stroke="gray" fill="white" stroke-width="1px"></path><path d="M 271.459383 202.123437 L 268.959383 202.123437 L 268.959383 208.123437 L 271.459383 208.123437 L 271.459383 202.123437" stroke="gray" fill="white" stroke-width="1px"></path><path d="M 271.459383 196.123437 L 268.959383 196.123437 L 268.959383 202.123437 L 271.459383 202.123437 L 271.459383 196.123437" stroke="gray" fill="white" stroke-width="1px"></path><path d="M 271.459383 190.123437 L 268.959383 190.123437 L 268.959383 196.123437 L 271.459383 196.123437 L 271.459383 190.123437" stroke="gray" fill="white" stroke-width="1px"></path><path d="M 271.459383 184.123437 L 268.959383 184.123437 L 268.959383 190.123437 L 271.459383 190.123437 L 271.459383 184.123437" stroke="gray" fill="white" stroke-width="1px"></path><path d="M 271.459383 178.123437 L 268.959383 178.123437 L 268.959383 184.123437 L 271.459383 184.123437 L 271.459383 178.123437" stroke="gray" fill="white" stroke-width="1px"></path><path d="M 271.459383 172.123437 L 268.959383 172.123437 L 268.959383 178.123437 L 271.459383 178.123437 L 271.459383 172.123437" stroke="gray" fill="white" stroke-width="1px"></path><path d="M 259.459383 214.123437 L 256.959383 214.123437 L 256.959383 220.123437 L 259.459383 220.123437 L 259.459383 214.123437" stroke="gray" fill="white" stroke-width="1px"></path><path d="M 259.459383 208.123437 L 256.959383 208.123437 L 256.959383 214.123437 L 259.459383 214.123437 L 259.459383 208.123437" stroke="gray" fill="white" stroke-width="1px"></path><path d="M 259.459383 202.123437 L 256.959383 202.123437 L 256.959383 208.123437 L 259.459383 208.123437 L 259.459383 202.123437" stroke="gray" fill="white" stroke-width="1px"></path><path d="M 259.459383 196.123437 L 256.959383 196.123437 L 256.959383 202.123437 L 259.459383 202.123437 L 259.459383 196.123437" stroke="gray" fill="white" stroke-width="1px"></path><path d="M 259.459383 190.123437 L 256.959383 190.123437 L 256.959383 196.123437 L 259.459383 196.123437 L 259.459383 190.123437" stroke="gray" fill="white" stroke-width="1px"></path><path d="M 259.459383 184.123437 L 256.959383 184.123437 L 256.959383 190.123437 L 259.459383 190.123437 L 259.459383 184.123437" stroke="gray" fill="white" stroke-width="1px"></path><path d="M 259.459383 178.123437 L 256.959383 178.123437 L 256.959383 184.123437 L 259.459383 184.123437 L 259.459383 178.123437" stroke="gray" fill="white" stroke-width="1px"></path><path d="M 247.459383 214.123437 L 244.959383 214.123437 L 244.959383 220.123437 L 247.459383 220.123437 L 247.459383 214.123437" stroke="gray" fill="white" stroke-width="1px"></path><path d="M 247.459383 208.123437 L 244.959383 208.123437 L 244.959383 214.123437 L 247.459383 214.123437 L 247.459383 208.123437" stroke="gray" fill="white" stroke-width="1px"></path><path d="M 247.459383 202.123437 L 244.959383 202.123437 L 244.959383 208.123437 L 247.459383 208.123437 L 247.459383 202.123437" stroke="gray" fill="white" stroke-width="1px"></path><path d="M 247.459383 196.123437 L 244.959383 196.123437 L 244.959383 202.123437 L 247.459383 202.123437 L 247.459383 196.123437" stroke="gray" fill="white" stroke-width="1px"></path><path d="M 247.459383 190.123437 L 244.959383 190.123437 L 244.959383 196.123437 L 247.459383 196.123437 L 247.459383 190.123437" stroke="gray" fill="white" stroke-width="1px"></path><path d="M 247.459383 184.123437 L 244.959383 184.123437 L 244.959383 190.123437 L 247.459383 190.123437 L 247.459383 184.123437" stroke="gray" fill="white" stroke-width="1px"></path><path d="M 247.459383 178.123437 L 244.959383 178.123437 L 244.959383 184.123437 L 247.459383 184.123437 L 247.459383 178.123437" stroke="gray" fill="white" stroke-width="1px"></path><path d="M 55.459383 145.584256 L 57.959383 145.584256 L 57.959383 151.584256 L 55.459383 151.584256 L 55.459383 145.584256" stroke="gray" fill="white" stroke-width="1px"></path><path d="M 55.459383 139.584256 L 57.959383 139.584256 L 57.959383 145.584256 L 55.459383 145.584256 L 55.459383 139.584256" stroke="gray" fill="white" stroke-width="1px"></path><path d="M 55.459383 133.584256 L 57.959383 133.584256 L 57.959383 139.584256 L 55.459383 139.584256 L 55.459383 133.584256" stroke="gray" fill="white" stroke-width="1px"></path><path d="M 55.459383 127.584256 L 57.959383 127.584256 L 57.959383 133.584256 L 55.459383 133.584256 L 55.459383 127.584256" stroke="gray" fill="white" stroke-width="1px"></path><path d="M 43.459383 146.628633 L 45.959383 146.628633 L 45.959383 152.628633 L 43.459383 152.628633 L 43.459383 146.628633" stroke="gray" fill="white" stroke-width="1px"></path><path d="M 43.459383 140.628633 L 45.959383 140.628633 L 45.959383 146.628633 L 43.459383 146.628633 L 43.459383 140.628633" stroke="gray" fill="white" stroke-width="1px"></path><path d="M 43.459383 134.628633 L 45.959383 134.628633 L 45.959383 140.628633 L 43.459383 140.628633 L 43.459383 134.628633" stroke="gray" fill="white" stroke-width="1px"></path><path d="M 43.459383 128.628633 L 45.959383 128.628633 L 45.959383 134.628633 L 43.459383 134.628633 L 43.459383 128.628633" stroke="gray" fill="white" stroke-width="1px"></path><path d="M 31.459383 147.673011 L 33.959383 147.673011 L 33.959383 153.673011 L 31.459383 153.673011 L 31.459383 147.673011" stroke="gray" fill="white" stroke-width="1px"></path><path d="M 31.459383 141.673011 L 33.959383 141.673011 L 33.959383 147.673011 L 31.459383 147.673011 L 31.459383 141.673011" stroke="gray" fill="white" stroke-width="1px"></path><path d="M 31.459383 135.673011 L 33.959383 135.673011 L 33.959383 141.673011 L 31.459383 141.673011 L 31.459383 135.673011" stroke="gray" fill="white" stroke-width="1px"></path><path d="M 31.459383 129.673011 L 33.959383 129.673011 L 33.959383 135.673011 L 31.459383 135.673011 L 31.459383 129.673011" stroke="gray" fill="white" stroke-width="1px"></path><path d="M 19.459383 148.717389 L 21.959383 148.717389 L 21.959383 154.717389 L 19.459383 154.717389 L 19.459383 148.717389" stroke="gray" fill="white" stroke-width="1px"></path><path d="M 19.459383 142.717389 L 21.959383 142.717389 L 21.959383 148.717389 L 19.459383 148.717389 L 19.459383 142.717389" stroke="gray" fill="white" stroke-width="1px"></path><path d="M 19.459383 136.717389 L 21.959383 136.717389 L 21.959383 142.717389 L 19.459383 142.717389 L 19.459383 136.717389" stroke="gray" fill="white" stroke-width="1px"></path><path d="M 19.459383 130.717389 L 21.959383 130.717389 L 21.959383 136.717389 L 19.459383 136.717389 L 19.459383 130.717389" stroke="gray" fill="white" stroke-width="1px"></path><path d="M 127.459383 214.123437 L 129.959383 214.123437 L 129.959383 220.123437 L 127.459383 220.123437 L 127.459383 214.123437" stroke="gray" fill="white" stroke-width="1px"></path><path d="M 127.459383 208.123437 L 129.959383 208.123437 L 129.959383 214.123437 L 127.459383 214.123437 L 127.459383 208.123437" stroke="gray" fill="white" stroke-width="1px"></path><path d="M 127.459383 202.123437 L 129.959383 202.123437 L 129.959383 208.123437 L 127.459383 208.123437 L 127.459383 202.123437" stroke="gray" fill="white" stroke-width="1px"></path><path d="M 127.459383 196.123437 L 129.959383 196.123437 L 129.959383 202.123437 L 127.459383 202.123437 L 127.459383 196.123437" stroke="gray" fill="white" stroke-width="1px"></path><path d="M 115.459383 214.123437 L 117.959383 214.123437 L 117.959383 220.123437 L 115.459383 220.123437 L 115.459383 214.123437" stroke="gray" fill="white" stroke-width="1px"></path><path d="M 115.459383 208.123437 L 117.959383 208.123437 L 117.959383 214.123437 L 115.459383 214.123437 L 115.459383 208.123437" stroke="gray" fill="white" stroke-width="1px"></path><path d="M 115.459383 202.123437 L 117.959383 202.123437 L 117.959383 208.123437 L 115.459383 208.123437 L 115.459383 202.123437" stroke="gray" fill="white" stroke-width="1px"></path><path d="M 115.459383 196.123437 L 117.959383 196.123437 L 117.959383 202.123437 L 115.459383 202.123437 L 115.459383 196.123437" stroke="gray" fill="white" stroke-width="1px"></path><path d="M 163.459383 214.123437 L 165.959383 214.123437 L 165.959383 220.123437 L 163.459383 220.123437 L 163.459383 214.123437" stroke="gray" fill="white" stroke-width="1px"></path><path d="M 163.459383 208.123437 L 165.959383 208.123437 L 165.959383 214.123437 L 163.459383 214.123437 L 163.459383 208.123437" stroke="gray" fill="white" stroke-width="1px"></path><path d="M 163.459383 202.123437 L 165.959383 202.123437 L 165.959383 208.123437 L 163.459383 208.123437 L 163.459383 202.123437" stroke="gray" fill="white" stroke-width="1px"></path><path d="M 151.459383 214.123437 L 153.959383 214.123437 L 153.959383 220.123437 L 151.459383 220.123437 L 151.459383 214.123437" stroke="gray" fill="white" stroke-width="1px"></path><path d="M 151.459383 208.123437 L 153.959383 208.123437 L 153.959383 214.123437 L 151.459383 214.123437 L 151.459383 208.123437" stroke="gray" fill="white" stroke-width="1px"></path><path d="M 151.459383 202.123437 L 153.959383 202.123437 L 153.959383 208.123437 L 151.459383 208.123437 L 151.459383 202.123437" stroke="gray" fill="white" stroke-width="1px"></path><path d="M 151.459383 196.123437 L 153.959383 196.123437 L 153.959383 202.123437 L 151.459383 202.123437 L 151.459383 196.123437" stroke="gray" fill="white" stroke-width="1px"></path><path d="M 139.459383 214.123437 L 141.959383 214.123437 L 141.959383 220.123437 L 139.459383 220.123437 L 139.459383 214.123437" stroke="gray" fill="white" stroke-width="1px"></path><path d="M 139.459383 208.123437 L 141.959383 208.123437 L 141.959383 214.123437 L 139.459383 214.123437 L 139.459383 208.123437" stroke="gray" fill="white" stroke-width="1px"></path><path d="M 139.459383 202.123437 L 141.959383 202.123437 L 141.959383 208.123437 L 139.459383 208.123437 L 139.459383 202.123437" stroke="gray" fill="white" stroke-width="1px"></path><path d="M 139.459383 196.123437 L 141.959383 196.123437 L 141.959383 202.123437 L 139.459383 202.123437 L 139.459383 196.123437" stroke="gray" fill="white" stroke-width="1px"></path><path d="M 223.459383 202.123437 L 225.959383 202.123437 L 225.959383 208.123437 L 223.459383 208.123437 L 223.459383 202.123437" stroke="gray" fill="white" stroke-width="1px"></path><path d="M 223.459383 196.123437 L 225.959383 196.123437 L 225.959383 202.123437 L 223.459383 202.123437 L 223.459383 196.123437" stroke="gray" fill="white" stroke-width="1px"></path><path d="M 211.459383 208.123437 L 213.959383 208.123437 L 213.959383 214.123437 L 211.459383 214.123437 L 211.459383 208.123437" stroke="gray" fill="white" stroke-width="1px"></path><path d="M 211.459383 202.123437 L 213.959383 202.123437 L 213.959383 208.123437 L 211.459383 208.123437 L 211.459383 202.123437" stroke="gray" fill="white" stroke-width="1px"></path><path d="M 211.459383 196.123437 L 213.959383 196.123437 L 213.959383 202.123437 L 211.459383 202.123437 L 211.459383 196.123437" stroke="gray" fill="white" stroke-width="1px"></path><path d="M 271.459383 214.123437 L 273.959383 214.123437 L 273.959383 220.123437 L 271.459383 220.123437 L 271.459383 214.123437" stroke="gray" fill="white" stroke-width="1px"></path><path d="M 271.459383 208.123437 L 273.959383 208.123437 L 273.959383 214.123437 L 271.459383 214.123437 L 271.459383 208.123437" stroke="gray" fill="white" stroke-width="1px"></path><path d="M 271.459383 202.123437 L 273.959383 202.123437 L 273.959383 208.123437 L 271.459383 208.123437 L 271.459383 202.123437" stroke="gray" fill="white" stroke-width="1px"></path><path d="M 271.459383 196.123437 L 273.959383 196.123437 L 273.959383 202.123437 L 271.459383 202.123437 L 271.459383 196.123437" stroke="gray" fill="white" stroke-width="1px"></path><path d="M 271.459383 190.123437 L 273.959383 190.123437 L 273.959383 196.123437 L 271.459383 196.123437 L 271.459383 190.123437" stroke="gray" fill="white" stroke-width="1px"></path><path d="M 271.459383 184.123437 L 273.959383 184.123437 L 273.959383 190.123437 L 271.459383 190.123437 L 271.459383 184.123437" stroke="gray" fill="white" stroke-width="1px"></path><path d="M 271.459383 178.123437 L 273.959383 178.123437 L 273.959383 184.123437 L 271.459383 184.123437 L 271.459383 178.123437" stroke="gray" fill="white" stroke-width="1px"></path><path d="M 271.459383 172.123437 L 273.959383 172.123437 L 273.959383 178.123437 L 271.459383 178.123437 L 271.459383 172.123437" stroke="gray" fill="white" stroke-width="1px"></path><path d="M 259.459383 214.123437 L 261.959383 214.123437 L 261.959383 220.123437 L 259.459383 220.123437 L 259.459383 214.123437" stroke="gray" fill="white" stroke-width="1px"></path><path d="M 259.459383 208.123437 L 261.959383 208.123437 L 261.959383 214.123437 L 259.459383 214.123437 L 259.459383 208.123437" stroke="gray" fill="white" stroke-width="1px"></path><path d="M 259.459383 202.123437 L 261.959383 202.123437 L 261.959383 208.123437 L 259.459383 208.123437 L 259.459383 202.123437" stroke="gray" fill="white" stroke-width="1px"></path><path d="M 259.459383 196.123437 L 261.959383 196.123437 L 261.959383 202.123437 L 259.459383 202.123437 L 259.459383 196.123437" stroke="gray" fill="white" stroke-width="1px"></path><path d="M 259.459383 190.123437 L 261.959383 190.123437 L 261.959383 196.123437 L 259.459383 196.123437 L 259.459383 190.123437" stroke="gray" fill="white" stroke-width="1px"></path><path d="M 259.459383 184.123437 L 261.959383 184.123437 L 261.959383 190.123437 L 259.459383 190.123437 L 259.459383 184.123437" stroke="gray" fill="white" stroke-width="1px"></path><path d="M 259.459383 178.123437 L 261.959383 178.123437 L 261.959383 184.123437 L 259.459383 184.123437 L 259.459383 178.123437" stroke="gray" fill="white" stroke-width="1px"></path><path d="M 247.459383 214.123437 L 249.959383 214.123437 L 249.959383 220.123437 L 247.459383 220.123437 L 247.459383 214.123437" stroke="gray" fill="white" stroke-width="1px"></path><path d="M 247.459383 208.123437 L 249.959383 208.123437 L 249.959383 214.123437 L 247.459383 214.123437 L 247.459383 208.123437" stroke="gray" fill="white" stroke-width="1px"></path><path d="M 247.459383 202.123437 L 249.959383 202.123437 L 249.959383 208.123437 L 247.459383 208.123437 L 247.459383 202.123437" stroke="gray" fill="white" stroke-width="1px"></path><path d="M 247.459383 196.123437 L 249.959383 196.123437 L 249.959383 202.123437 L 247.459383 202.123437 L 247.459383 196.123437" stroke="gray" fill="white" stroke-width="1px"></path><path d="M 247.459383 190.123437 L 249.959383 190.123437 L 249.959383 196.123437 L 247.459383 196.123437 L 247.459383 190.123437" stroke="gray" fill="white" stroke-width="1px"></path><path d="M 247.459383 184.123437 L 249.959383 184.123437 L 249.959383 190.123437 L 247.459383 190.123437 L 247.459383 184.123437" stroke="gray" fill="white" stroke-width="1px"></path><path d="M 247.459383 178.123437 L 249.959383 178.123437 L 249.959383 184.123437 L 247.459383 184.123437 L 247.459383 178.123437" stroke="gray" fill="white" stroke-width="1px"></path><path d="M 22.000000 220.123437 L 22.000000 217.623437 L 16.000000 217.623437 L 16.000000 220.123437 L 22.000000 220.123437" stroke="gray" fill="white" stroke-width="1px"></path><path d="M 28.000000 220.123437 L 28.000000 217.623437 L 22.000000 217.623437 L 22.000000 220.123437 L 28.000000 220.123437" stroke="gray" fill="white" stroke-width="1px"></path><path d="M 34.000000 220.123437 L 34.000000 217.623437 L 28.000000 217.623437 L 28.000000 220.123437 L 34.000000 220.123437" stroke="gray" fill="white" stroke-width="1px"></path><path d="M 40.000000 220.123437 L 40.000000 217.623437 L 34.000000 217.623437 L 34.000000 220.123437 L 40.000000 220.123437" stroke="gray" fill="white" stroke-width="1px"></path><path d="M 22.000000 208.123437 L 22.000000 205.623437 L 16.000000 205.623437 L 16.000000 208.123437 L 22.000000 208.123437" stroke="gray" fill="white" stroke-width="1px"></path><path d="M 28.000000 208.123437 L 28.000000 205.623437 L 22.000000 205.623437 L 22.000000 208.123437 L 28.000000 208.123437" stroke="gray" fill="white" stroke-width="1px"></path><path d="M 34.000000 208.123437 L 34.000000 205.623437 L 28.000000 205.623437 L 28.000000 208.123437 L 34.000000 208.123437" stroke="gray" fill="white" stroke-width="1px"></path><path d="M 40.000000 208.123437 L 40.000000 205.623437 L 34.000000 205.623437 L 34.000000 208.123437 L 40.000000 208.123437" stroke="gray" fill="white" stroke-width="1px"></path><path d="M 22.000000 196.123437 L 22.000000 193.623437 L 16.000000 193.623437 L 16.000000 196.123437 L 22.000000 196.123437" stroke="gray" fill="white" stroke-width="1px"></path><path d="M 28.000000 196.123437 L 28.000000 193.623437 L 22.000000 193.623437 L 22.000000 196.123437 L 28.000000 196.123437" stroke="gray" fill="white" stroke-width="1px"></path><path d="M 34.000000 196.123437 L 34.000000 193.623437 L 28.000000 193.623437 L 28.000000 196.123437 L 34.000000 196.123437" stroke="gray" fill="white" stroke-width="1px"></path><path d="M 40.000000 196.123437 L 40.000000 193.623437 L 34.000000 193.623437 L 34.000000 196.123437 L 40.000000 196.123437" stroke="gray" fill="white" stroke-width="1px"></path><path d="M 22.000000 184.123437 L 22.000000 181.623437 L 16.000000 181.623437 L 16.000000 184.123437 L 22.000000 184.123437" stroke="gray" fill="white" stroke-width="1px"></path><path d="M 28.000000 184.123437 L 28.000000 181.623437 L 22.000000 181.623437 L 22.000000 184.123437 L 28.000000 184.123437" stroke="gray" fill="white" stroke-width="1px"></path><path d="M 34.000000 184.123437 L 34.000000 181.623437 L 28.000000 181.623437 L 28.000000 184.123437 L 34.000000 184.123437" stroke="gray" fill="white" stroke-width="1px"></path><path d="M 40.000000 184.123437 L 40.000000 181.623437 L 34.000000 181.623437 L 34.000000 184.123437 L 40.000000 184.123437" stroke="gray" fill="white" stroke-width="1px"></path><path d="M 251.737652 136.123437 L 251.737652 133.623437 L 245.737652 133.623437 L 245.737652 136.123437 L 251.737652 136.123437" stroke="gray" fill="white" stroke-width="1px"></path><path d="M 257.737652 136.123437 L 257.737652 133.623437 L 251.737652 133.623437 L 251.737652 136.123437 L 257.737652 136.123437" stroke="gray" fill="white" stroke-width="1px"></path><path d="M 263.737652 136.123437 L 263.737652 133.623437 L 257.737652 133.623437 L 257.737652 136.123437 L 263.737652 136.123437" stroke="gray" fill="white" stroke-width="1px"></path><path d="M 269.737652 136.123437 L 269.737652 133.623437 L 263.737652 133.623437 L 263.737652 136.123437 L 269.737652 136.123437" stroke="gray" fill="white" stroke-width="1px"></path><path d="M 275.737652 136.123437 L 275.737652 133.623437 L 269.737652 133.623437 L 269.737652 136.123437 L 275.737652 136.123437" stroke="gray" fill="white" stroke-width="1px"></path><path d="M 22.000000 220.123437 L 22.000000 222.623437 L 16.000000 222.623437 L 16.000000 220.123437 L 22.000000 220.123437" stroke="gray" fill="white" stroke-width="1px"></path><path d="M 28.000000 220.123437 L 28.000000 222.623437 L 22.000000 222.623437 L 22.000000 220.123437 L 28.000000 220.123437" stroke="gray" fill="white" stroke-width="1px"></path><path d="M 34.000000 220.123437 L 34.000000 222.623437 L 28.000000 222.623437 L 28.000000 220.123437 L 34.000000 220.123437" stroke="gray" fill="white" stroke-width="1px"></path><path d="M 40.000000 220.123437 L 40.000000 222.623437 L 34.000000 222.623437 L 34.000000 220.123437 L 40.000000 220.123437" stroke="gray" fill="white" stroke-width="1px"></path><path d="M 22.000000 208.123437 L 22.000000 210.623437 L 16.000000 210.623437 L 16.000000 208.123437 L 22.000000 208.123437" stroke="gray" fill="white" stroke-width="1px"></path><path d="M 28.000000 208.123437 L 28.000000 210.623437 L 22.000000 210.623437 L 22.000000 208.123437 L 28.000000 208.123437" stroke="gray" fill="white" stroke-width="1px"></path><path d="M 34.000000 208.123437 L 34.000000 210.623437 L 28.000000 210.623437 L 28.000000 208.123437 L 34.000000 208.123437" stroke="gray" fill="white" stroke-width="1px"></path><path d="M 40.000000 208.123437 L 40.000000 210.623437 L 34.000000 210.623437 L 34.000000 208.123437 L 40.000000 208.123437" stroke="gray" fill="white" stroke-width="1px"></path><path d="M 22.000000 196.123437 L 22.000000 198.623437 L 16.000000 198.623437 L 16.000000 196.123437 L 22.000000 196.123437" stroke="gray" fill="white" stroke-width="1px"></path><path d="M 28.000000 196.123437 L 28.000000 198.623437 L 22.000000 198.623437 L 22.000000 196.123437 L 28.000000 196.123437" stroke="gray" fill="white" stroke-width="1px"></path><path d="M 34.000000 196.123437 L 34.000000 198.623437 L 28.000000 198.623437 L 28.000000 196.123437 L 34.000000 196.123437" stroke="gray" fill="white" stroke-width="1px"></path><path d="M 40.000000 196.123437 L 40.000000 198.623437 L 34.000000 198.623437 L 34.000000 196.123437 L 40.000000 196.123437" stroke="gray" fill="white" stroke-width="1px"></path><path d="M 22.000000 184.123437 L 22.000000 186.623437 L 16.000000 186.623437 L 16.000000 184.123437 L 22.000000 184.123437" stroke="gray" fill="white" stroke-width="1px"></path><path d="M 28.000000 184.123437 L 28.000000 186.623437 L 22.000000 186.623437 L 22.000000 184.123437 L 28.000000 184.123437" stroke="gray" fill="white" stroke-width="1px"></path><path d="M 34.000000 184.123437 L 34.000000 186.623437 L 28.000000 186.623437 L 28.000000 184.123437 L 34.000000 184.123437" stroke="gray" fill="white" stroke-width="1px"></path><path d="M 40.000000 184.123437 L 40.000000 186.623437 L 34.000000 186.623437 L 34.000000 184.123437 L 40.000000 184.123437" stroke="gray" fill="white" stroke-width="1px"></path><path d="M 251.737652 136.123437 L 251.737652 138.623437 L 245.737652 138.623437 L 245.737652 136.123437 L 251.737652 136.123437" stroke="gray" fill="white" stroke-width="1px"></path><path d="M 257.737652 136.123437 L 257.737652 138.623437 L 251.737652 138.623437 L 251.737652 136.123437 L 257.737652 136.123437" stroke="gray" fill="white" stroke-width="1px"></path><path d="M 263.737652 136.123437 L 263.737652 138.623437 L 257.737652 138.623437 L 257.737652 136.123437 L 263.737652 136.123437" stroke="gray" fill="white" stroke-width="1px"></path><path d="M 269.737652 136.123437 L 269.737652 138.623437 L 263.737652 138.623437 L 263.737652 136.123437 L 269.737652 136.123437" stroke="gray" fill="white" stroke-width="1px"></path><path d="M 275.737652 136.123437 L 275.737652 138.623437 L 269.737652 138.623437 L 269.737652 136.123437 L 275.737652 136.123437" stroke="gray" fill="white" stroke-width="1px"></path><path d="M 271.459383 45.993941 L 268.959383 45.993941 L 268.959383 51.993941 L 271.459383 51.993941 L 271.459383 45.993941" stroke="gray" fill="white" stroke-width="1px"></path><path d="M 271.459383 39.993941 L 268.959383 39.993941 L 268.959383 45.993941 L 271.459383 45.993941 L 271.459383 39.993941" stroke="gray" fill="white" stroke-width="1px"></path><path d="M 271.459383 33.993941 L 268.959383 33.993941 L 268.959383 39.993941 L 271.459383 39.993941 L 271.459383 33.993941" stroke="gray" fill="white" stroke-width="1px"></path><path d="M 259.459383 46.454674 L 256.959383 46.454674 L 256.959383 52.454674 L 259.459383 52.454674 L 259.459383 46.454674" stroke="gray" fill="white" stroke-width="1px"></path><path d="M 259.459383 40.454674 L 256.959383 40.454674 L 256.959383 46.454674 L 259.459383 46.454674 L 259.459383 40.454674" stroke="gray" fill="white" stroke-width="1px"></path><path d="M 259.459383 34.454674 L 256.959383 34.454674 L 256.959383 40.454674 L 259.459383 40.454674 L 259.459383 34.454674" stroke="gray" fill="white" stroke-width="1px"></path><path d="M 247.459383 46.915407 L 244.959383 46.915407 L 244.959383 52.915407 L 247.459383 52.915407 L 247.459383 46.915407" stroke="gray" fill="white" stroke-width="1px"></path><path d="M 247.459383 40.915407 L 244.959383 40.915407 L 244.959383 46.915407 L 247.459383 46.915407 L 247.459383 40.915407" stroke="gray" fill="white" stroke-width="1px"></path><path d="M 247.459383 34.915407 L 244.959383 34.915407 L 244.959383 40.915407 L 247.459383 40.915407 L 247.459383 34.915407" stroke="gray" fill="white" stroke-width="1px"></path><path d="M 235.459383 47.376140 L 232.959383 47.376140 L 232.959383 53.376140 L 235.459383 53.376140 L 235.459383 47.376140" stroke="gray" fill="white" stroke-width="1px"></path><path d="M 235.459383 41.376140 L 232.959383 41.376140 L 232.959383 47.376140 L 235.459383 47.376140 L 235.459383 41.376140" stroke="gray" fill="white" stroke-width="1px"></path><path d="M 235.459383 35.376140 L 232.959383 35.376140 L 232.959383 41.376140 L 235.459383 41.376140 L 235.459383 35.376140" stroke="gray" fill="white" stroke-width="1px"></path><path d="M 163.459383 101.033125 L 160.959383 101.033125 L 160.959383 107.033125 L 163.459383 107.033125 L 163.459383 101.033125" stroke="gray" fill="white" stroke-width="1px"></path><path d="M 163.459383 95.033125 L 160.959383 95.033125 L 160.959383 101.033125 L 163.459383 101.033125 L 163.459383 95.033125" stroke="gray" fill="white" stroke-width="1px"></path><path d="M 163.459383 89.033125 L 160.959383 89.033125 L 160.959383 95.033125 L 163.459383 95.033125 L 163.459383 89.033125" stroke="gray" fill="white" stroke-width="1px"></path><path d="M 163.459383 83.033125 L 160.959383 83.033125 L 160.959383 89.033125 L 163.459383 89.033125 L 163.459383 83.033125" stroke="gray" fill="white" stroke-width="1px"></path><path d="M 115.459383 101.033125 L 112.959383 101.033125 L 112.959383 107.033125 L 115.459383 107.033125 L 115.459383 101.033125" stroke="gray" fill="white" stroke-width="1px"></path><path d="M 103.459383 101.033125 L 100.959383 101.033125 L 100.959383 107.033125 L 103.459383 107.033125 L 103.459383 101.033125" stroke="gray" fill="white" stroke-width="1px"></path><path d="M 55.459383 28.016424 L 52.959383 28.016424 L 52.959383 34.016424 L 55.459383 34.016424 L 55.459383 28.016424" stroke="gray" fill="white" stroke-width="1px"></path><path d="M 55.459383 22.016424 L 52.959383 22.016424 L 52.959383 28.016424 L 55.459383 28.016424 L 55.459383 22.016424" stroke="gray" fill="white" stroke-width="1px"></path><path d="M 55.459383 16.016424 L 52.959383 16.016424 L 52.959383 22.016424 L 55.459383 22.016424 L 55.459383 16.016424" stroke="gray" fill="white" stroke-width="1px"></path><path d="M 43.459383 28.109740 L 40.959383 28.109740 L 40.959383 34.109740 L 43.459383 34.109740 L 43.459383 28.109740" stroke="gray" fill="white" stroke-width="1px"></path><path d="M 43.459383 22.109740 L 40.959383 22.109740 L 40.959383 28.109740 L 43.459383 28.109740 L 43.459383 22.109740" stroke="gray" fill="white" stroke-width="1px"></path><path d="M 43.459383 16.109740 L 40.959383 16.109740 L 40.959383 22.109740 L 43.459383 22.109740 L 43.459383 16.109740" stroke="gray" fill="white" stroke-width="1px"></path><path d="M 31.459383 28.203057 L 28.959383 28.203057 L 28.959383 34.203057 L 31.459383 34.203057 L 31.459383 28.203057" stroke="gray" fill="white" stroke-width="1px"></path><path d="M 31.459383 22.203057 L 28.959383 22.203057 L 28.959383 28.203057 L 31.459383 28.203057 L 31.459383 22.203057" stroke="gray" fill="white" stroke-width="1px"></path><path d="M 31.459383 16.203057 L 28.959383 16.203057 L 28.959383 22.203057 L 31.459383 22.203057 L 31.459383 16.203057" stroke="gray" fill="white" stroke-width="1px"></path><path d="M 19.459383 28.296373 L 16.959383 28.296373 L 16.959383 34.296373 L 19.459383 34.296373 L 19.459383 28.296373" stroke="gray" fill="white" stroke-width="1px"></path><path d="M 19.459383 22.296373 L 16.959383 22.296373 L 16.959383 28.296373 L 19.459383 28.296373 L 19.459383 22.296373" stroke="gray" fill="white" stroke-width="1px"></path><path d="M 19.459383 16.296373 L 16.959383 16.296373 L 16.959383 22.296373 L 19.459383 22.296373 L 19.459383 16.296373" stroke="gray" fill="white" stroke-width="1px"></path><path d="M 271.459383 45.993941 L 273.959383 45.993941 L 273.959383 51.993941 L 271.459383 51.993941 L 271.459383 45.993941" stroke="gray" fill="white" stroke-width="1px"></path><path d="M 271.459383 39.993941 L 273.959383 39.993941 L 273.959383 45.993941 L 271.459383 45.993941 L 271.459383 39.993941" stroke="gray" fill="white" stroke-width="1px"></path><path d="M 271.459383 33.993941 L 273.959383 33.993941 L 273.959383 39.993941 L 271.459383 39.993941 L 271.459383 33.993941" stroke="gray" fill="white" stroke-width="1px"></path><path d="M 259.459383 46.454674 L 261.959383 46.454674 L 261.959383 52.454674 L 259.459383 52.454674 L 259.459383 46.454674" stroke="gray" fill="white" stroke-width="1px"></path><path d="M 259.459383 40.454674 L 261.959383 40.454674 L 261.959383 46.454674 L 259.459383 46.454674 L 259.459383 40.454674" stroke="gray" fill="white" stroke-width="1px"></path><path d="M 259.459383 34.454674 L 261.959383 34.454674 L 261.959383 40.454674 L 259.459383 40.454674 L 259.459383 34.454674" stroke="gray" fill="white" stroke-width="1px"></path><path d="M 247.459383 46.915407 L 249.959383 46.915407 L 249.959383 52.915407 L 247.459383 52.915407 L 247.459383 46.915407" stroke="gray" fill="white" stroke-width="1px"></path><path d="M 247.459383 40.915407 L 249.959383 40.915407 L 249.959383 46.915407 L 247.459383 46.915407 L 247.459383 40.915407" stroke="gray" fill="white" stroke-width="1px"></path><path d="M 247.459383 34.915407 L 249.959383 34.915407 L 249.959383 40.915407 L 247.459383 40.915407 L 247.459383 34.915407" stroke="gray" fill="white" stroke-width="1px"></path><path d="M 235.459383 47.376140 L 237.959383 47.376140 L 237.959383 53.376140 L 235.459383 53.376140 L 235.459383 47.376140" stroke="gray" fill="white" stroke-width="1px"></path><path d="M 235.459383 41.376140 L 237.959383 41.376140 L 237.959383 47.376140 L 235.459383 47.376140 L 235.459383 41.376140" stroke="gray" fill="white" stroke-width="1px"></path><path d="M 235.459383 35.376140 L 237.959383 35.376140 L 237.959383 41.376140 L 235.459383 41.376140 L 235.459383 35.376140" stroke="gray" fill="white" stroke-width="1px"></path><path d="M 163.459383 101.033125 L 165.959383 101.033125 L 165.959383 107.033125 L 163.459383 107.033125 L 163.459383 101.033125" stroke="gray" fill="white" stroke-width="1px"></path><path d="M 163.459383 95.033125 L 165.959383 95.033125 L 165.959383 101.033125 L 163.459383 101.033125 L 163.459383 95.033125" stroke="gray" fill="white" stroke-width="1px"></path><path d="M 163.459383 89.033125 L 165.959383 89.033125 L 165.959383 95.033125 L 163.459383 95.033125 L 163.459383 89.033125" stroke="gray" fill="white" stroke-width="1px"></path><path d="M 163.459383 83.033125 L 165.959383 83.033125 L 165.959383 89.033125 L 163.459383 89.033125 L 163.459383 83.033125" stroke="gray" fill="white" stroke-width="1px"></path><path d="M 115.459383 101.033125 L 117.959383 101.033125 L 117.959383 107.033125 L 115.459383 107.033125 L 115.459383 101.033125" stroke="gray" fill="white" stroke-width="1px"></path><path d="M 103.459383 101.033125 L 105.959383 101.033125 L 105.959383 107.033125 L 103.459383 107.033125 L 103.459383 101.033125" stroke="gray" fill="white" stroke-width="1px"></path><path d="M 55.459383 28.016424 L 57.959383 28.016424 L 57.959383 34.016424 L 55.459383 34.016424 L 55.459383 28.016424" stroke="gray" fill="white" stroke-width="1px"></path><path d="M 55.459383 22.016424 L 57.959383 22.016424 L 57.959383 28.016424 L 55.459383 28.016424 L 55.459383 22.016424" stroke="gray" fill="white" stroke-width="1px"></path><path d="M 55.459383 16.016424 L 57.959383 16.016424 L 57.959383 22.016424 L 55.459383 22.016424 L 55.459383 16.016424" stroke="gray" fill="white" stroke-width="1px"></path><path d="M 43.459383 28.109740 L 45.959383 28.109740 L 45.959383 34.109740 L 43.459383 34.109740 L 43.459383 28.109740" stroke="gray" fill="white" stroke-width="1px"></path><path d="M 43.459383 22.109740 L 45.959383 22.109740 L 45.959383 28.109740 L 43.459383 28.109740 L 43.459383 22.109740" stroke="gray" fill="white" stroke-width="1px"></path><path d="M 43.459383 16.109740 L 45.959383 16.109740 L 45.959383 22.109740 L 43.459383 22.109740 L 43.459383 16.109740" stroke="gray" fill="white" stroke-width="1px"></path><path d="M 31.459383 28.203057 L 33.959383 28.203057 L 33.959383 34.203057 L 31.459383 34.203057 L 31.459383 28.203057" stroke="gray" fill="white" stroke-width="1px"></path><path d="M 31.459383 22.203057 L 33.959383 22.203057 L 33.959383 28.203057 L 31.459383 28.203057 L 31.459383 22.203057" stroke="gray" fill="white" stroke-width="1px"></path><path d="M 31.459383 16.203057 L 33.959383 16.203057 L 33.959383 22.203057 L 31.459383 22.203057 L 31.459383 16.203057" stroke="gray" fill="white" stroke-width="1px"></path><path d="M 19.459383 28.296373 L 21.959383 28.296373 L 21.959383 34.296373 L 19.459383 34.296373 L 19.459383 28.296373" stroke="gray" fill="white" stroke-width="1px"></path><path d="M 19.459383 22.296373 L 21.959383 22.296373 L 21.959383 28.296373 L 19.459383 28.296373 L 19.459383 22.296373" stroke="gray" fill="white" stroke-width="1px"></path><path d="M 19.459383 16.296373 L 21.959383 16.296373 L 21.959383 22.296373 L 19.459383 22.296373 L 19.459383 16.296373" stroke="gray" fill="white" stroke-width="1px"></path><path d="M 253.873074 101.263579 L 253.873074 98.763579 L 247.873074 98.763579 L 247.873074 101.263579 L 253.873074 101.263579" stroke="gray" fill="white" stroke-width="1px"></path><path d="M 259.873074 101.263579 L 259.873074 98.763579 L 253.873074 98.763579 L 253.873074 101.263579 L 259.873074 101.263579" stroke="gray" fill="white" stroke-width="1px"></path><path d="M 265.873074 101.263579 L 265.873074 98.763579 L 259.873074 98.763579 L 259.873074 101.263579 L 265.873074 101.263579" stroke="gray" fill="white" stroke-width="1px"></path><path d="M 271.873074 101.263579 L 271.873074 98.763579 L 265.873074 98.763579 L 265.873074 101.263579 L 271.873074 101.263579" stroke="gray" fill="white" stroke-width="1px"></path><path d="M 277.873074 101.263579 L 277.873074 98.763579 L 271.873074 98.763579 L 271.873074 101.263579 L 277.873074 101.263579" stroke="gray" fill="white" stroke-width="1px"></path><path d="M 251.968838 89.263579 L 251.968838 86.763579 L 245.968838 86.763579 L 245.968838 89.263579 L 251.968838 89.263579" stroke="gray" fill="white" stroke-width="1px"></path><path d="M 257.968838 89.263579 L 257.968838 86.763579 L 251.968838 86.763579 L 251.968838 89.263579 L 257.968838 89.263579" stroke="gray" fill="white" stroke-width="1px"></path><path d="M 263.968838 89.263579 L 263.968838 86.763579 L 257.968838 86.763579 L 257.968838 89.263579 L 263.968838 89.263579" stroke="gray" fill="white" stroke-width="1px"></path><path d="M 269.968838 89.263579 L 269.968838 86.763579 L 263.968838 86.763579 L 263.968838 89.263579 L 269.968838 89.263579" stroke="gray" fill="white" stroke-width="1px"></path><path d="M 275.968838 89.263579 L 275.968838 86.763579 L 269.968838 86.763579 L 269.968838 89.263579 L 275.968838 89.263579" stroke="gray" fill="white" stroke-width="1px"></path><path d="M 250.064602 77.263579 L 250.064602 74.763579 L 244.064602 74.763579 L 244.064602 77.263579 L 250.064602 77.263579" stroke="gray" fill="white" stroke-width="1px"></path><path d="M 256.064602 77.263579 L 256.064602 74.763579 L 250.064602 74.763579 L 250.064602 77.263579 L 256.064602 77.263579" stroke="gray" fill="white" stroke-width="1px"></path><path d="M 262.064602 77.263579 L 262.064602 74.763579 L 256.064602 74.763579 L 256.064602 77.263579 L 262.064602 77.263579" stroke="gray" fill="white" stroke-width="1px"></path><path d="M 268.064602 77.263579 L 268.064602 74.763579 L 262.064602 74.763579 L 262.064602 77.263579 L 268.064602 77.263579" stroke="gray" fill="white" stroke-width="1px"></path><path d="M 274.064602 77.263579 L 274.064602 74.763579 L 268.064602 74.763579 L 268.064602 77.263579 L 274.064602 77.263579" stroke="gray" fill="white" stroke-width="1px"></path><path d="M 217.921853 101.263579 L 217.921853 98.763579 L 211.921853 98.763579 L 211.921853 101.263579 L 217.921853 101.263579" stroke="gray" fill="white" stroke-width="1px"></path><path d="M 223.921853 101.263579 L 223.921853 98.763579 L 217.921853 98.763579 L 217.921853 101.263579 L 223.921853 101.263579" stroke="gray" fill="white" stroke-width="1px"></path><path d="M 229.921853 101.263579 L 229.921853 98.763579 L 223.921853 98.763579 L 223.921853 101.263579 L 229.921853 101.263579" stroke="gray" fill="white" stroke-width="1px"></path><path d="M 235.921853 101.263579 L 235.921853 98.763579 L 229.921853 98.763579 L 229.921853 101.263579 L 235.921853 101.263579" stroke="gray" fill="white" stroke-width="1px"></path><path d="M 223.614062 89.263579 L 223.614062 86.763579 L 217.614062 86.763579 L 217.614062 89.263579 L 223.614062 89.263579" stroke="gray" fill="white" stroke-width="1px"></path><path d="M 229.614062 89.263579 L 229.614062 86.763579 L 223.614062 86.763579 L 223.614062 89.263579 L 229.614062 89.263579" stroke="gray" fill="white" stroke-width="1px"></path><path d="M 235.614062 89.263579 L 235.614062 86.763579 L 229.614062 86.763579 L 229.614062 89.263579 L 235.614062 89.263579" stroke="gray" fill="white" stroke-width="1px"></path><path d="M 233.737654 77.263579 L 233.737654 74.763579 L 227.737654 74.763579 L 227.737654 77.263579 L 233.737654 77.263579" stroke="gray" fill="white" stroke-width="1px"></path><path d="M 22.000000 101.263579 L 22.000000 98.763579 L 16.000000 98.763579 L 16.000000 101.263579 L 22.000000 101.263579" stroke="gray" fill="white" stroke-width="1px"></path><path d="M 28.000000 101.263579 L 28.000000 98.763579 L 22.000000 98.763579 L 22.000000 101.263579 L 28.000000 101.263579" stroke="gray" fill="white" stroke-width="1px"></path><path d="M 34.000000 101.263579 L 34.000000 98.763579 L 28.000000 98.763579 L 28.000000 101.263579 L 34.000000 101.263579" stroke="gray" fill="white" stroke-width="1px"></path><path d="M 40.000000 101.263579 L 40.000000 98.763579 L 34.000000 98.763579 L 34.000000 101.263579 L 40.000000 101.263579" stroke="gray" fill="white" stroke-width="1px"></path><path d="M 22.000000 89.263579 L 22.000000 86.763579 L 16.000000 86.763579 L 16.000000 89.263579 L 22.000000 89.263579" stroke="gray" fill="white" stroke-width="1px"></path><path d="M 28.000000 89.263579 L 28.000000 86.763579 L 22.000000 86.763579 L 22.000000 89.263579 L 28.000000 89.263579" stroke="gray" fill="white" stroke-width="1px"></path><path d="M 34.000000 89.263579 L 34.000000 86.763579 L 28.000000 86.763579 L 28.000000 89.263579 L 34.000000 89.263579" stroke="gray" fill="white" stroke-width="1px"></path><path d="M 40.000000 89.263579 L 40.000000 86.763579 L 34.000000 86.763579 L 34.000000 89.263579 L 40.000000 89.263579" stroke="gray" fill="white" stroke-width="1px"></path><path d="M 22.000000 77.263579 L 22.000000 74.763579 L 16.000000 74.763579 L 16.000000 77.263579 L 22.000000 77.263579" stroke="gray" fill="white" stroke-width="1px"></path><path d="M 28.000000 77.263579 L 28.000000 74.763579 L 22.000000 74.763579 L 22.000000 77.263579 L 28.000000 77.263579" stroke="gray" fill="white" stroke-width="1px"></path><path d="M 34.000000 77.263579 L 34.000000 74.763579 L 28.000000 74.763579 L 28.000000 77.263579 L 34.000000 77.263579" stroke="gray" fill="white" stroke-width="1px"></path><path d="M 40.000000 77.263579 L 40.000000 74.763579 L 34.000000 74.763579 L 34.000000 77.263579 L 40.000000 77.263579" stroke="gray" fill="white" stroke-width="1px"></path><path d="M 22.000000 65.263579 L 22.000000 62.763579 L 16.000000 62.763579 L 16.000000 65.263579 L 22.000000 65.263579" stroke="gray" fill="white" stroke-width="1px"></path><path d="M 28.000000 65.263579 L 28.000000 62.763579 L 22.000000 62.763579 L 22.000000 65.263579 L 28.000000 65.263579" stroke="gray" fill="white" stroke-width="1px"></path><path d="M 34.000000 65.263579 L 34.000000 62.763579 L 28.000000 62.763579 L 28.000000 65.263579 L 34.000000 65.263579" stroke="gray" fill="white" stroke-width="1px"></path><path d="M 40.000000 65.263579 L 40.000000 62.763579 L 34.000000 62.763579 L 34.000000 65.263579 L 40.000000 65.263579" stroke="gray" fill="white" stroke-width="1px"></path><path d="M 253.873074 101.263579 L 253.873074 103.763579 L 247.873074 103.763579 L 247.873074 101.263579 L 253.873074 101.263579" stroke="gray" fill="white" stroke-width="1px"></path><path d="M 259.873074 101.263579 L 259.873074 103.763579 L 253.873074 103.763579 L 253.873074 101.263579 L 259.873074 101.263579" stroke="gray" fill="white" stroke-width="1px"></path><path d="M 265.873074 101.263579 L 265.873074 103.763579 L 259.873074 103.763579 L 259.873074 101.263579 L 265.873074 101.263579" stroke="gray" fill="white" stroke-width="1px"></path><path d="M 271.873074 101.263579 L 271.873074 103.763579 L 265.873074 103.763579 L 265.873074 101.263579 L 271.873074 101.263579" stroke="gray" fill="white" stroke-width="1px"></path><path d="M 277.873074 101.263579 L 277.873074 103.763579 L 271.873074 103.763579 L 271.873074 101.263579 L 277.873074 101.263579" stroke="gray" fill="white" stroke-width="1px"></path><path d="M 251.968838 89.263579 L 251.968838 91.763579 L 245.968838 91.763579 L 245.968838 89.263579 L 251.968838 89.263579" stroke="gray" fill="white" stroke-width="1px"></path><path d="M 257.968838 89.263579 L 257.968838 91.763579 L 251.968838 91.763579 L 251.968838 89.263579 L 257.968838 89.263579" stroke="gray" fill="white" stroke-width="1px"></path><path d="M 263.968838 89.263579 L 263.968838 91.763579 L 257.968838 91.763579 L 257.968838 89.263579 L 263.968838 89.263579" stroke="gray" fill="white" stroke-width="1px"></path><path d="M 269.968838 89.263579 L 269.968838 91.763579 L 263.968838 91.763579 L 263.968838 89.263579 L 269.968838 89.263579" stroke="gray" fill="white" stroke-width="1px"></path><path d="M 275.968838 89.263579 L 275.968838 91.763579 L 269.968838 91.763579 L 269.968838 89.263579 L 275.968838 89.263579" stroke="gray" fill="white" stroke-width="1px"></path><path d="M 250.064602 77.263579 L 250.064602 79.763579 L 244.064602 79.763579 L 244.064602 77.263579 L 250.064602 77.263579" stroke="gray" fill="white" stroke-width="1px"></path><path d="M 256.064602 77.263579 L 256.064602 79.763579 L 250.064602 79.763579 L 250.064602 77.263579 L 256.064602 77.263579" stroke="gray" fill="white" stroke-width="1px"></path><path d="M 262.064602 77.263579 L 262.064602 79.763579 L 256.064602 79.763579 L 256.064602 77.263579 L 262.064602 77.263579" stroke="gray" fill="white" stroke-width="1px"></path><path d="M 268.064602 77.263579 L 268.064602 79.763579 L 262.064602 79.763579 L 262.064602 77.263579 L 268.064602 77.263579" stroke="gray" fill="white" stroke-width="1px"></path><path d="M 274.064602 77.263579 L 274.064602 79.763579 L 268.064602 79.763579 L 268.064602 77.263579 L 274.064602 77.263579" stroke="gray" fill="white" stroke-width="1px"></path><path d="M 217.921853 101.263579 L 217.921853 103.763579 L 211.921853 103.763579 L 211.921853 101.263579 L 217.921853 101.263579" stroke="gray" fill="white" stroke-width="1px"></path><path d="M 223.921853 101.263579 L 223.921853 103.763579 L 217.921853 103.763579 L 217.921853 101.263579 L 223.921853 101.263579" stroke="gray" fill="white" stroke-width="1px"></path><path d="M 229.921853 101.263579 L 229.921853 103.763579 L 223.921853 103.763579 L 223.921853 101.263579 L 229.921853 101.263579" stroke="gray" fill="white" stroke-width="1px"></path><path d="M 235.921853 101.263579 L 235.921853 103.763579 L 229.921853 103.763579 L 229.921853 101.263579 L 235.921853 101.263579" stroke="gray" fill="white" stroke-width="1px"></path><path d="M 223.614062 89.263579 L 223.614062 91.763579 L 217.614062 91.763579 L 217.614062 89.263579 L 223.614062 89.263579" stroke="gray" fill="white" stroke-width="1px"></path><path d="M 229.614062 89.263579 L 229.614062 91.763579 L 223.614062 91.763579 L 223.614062 89.263579 L 229.614062 89.263579" stroke="gray" fill="white" stroke-width="1px"></path><path d="M 235.614062 89.263579 L 235.614062 91.763579 L 229.614062 91.763579 L 229.614062 89.263579 L 235.614062 89.263579" stroke="gray" fill="white" stroke-width="1px"></path><path d="M 233.737654 77.263579 L 233.737654 79.763579 L 227.737654 79.763579 L 227.737654 77.263579 L 233.737654 77.263579" stroke="gray" fill="white" stroke-width="1px"></path><path d="M 22.000000 101.263579 L 22.000000 103.763579 L 16.000000 103.763579 L 16.000000 101.263579 L 22.000000 101.263579" stroke="gray" fill="white" stroke-width="1px"></path><path d="M 28.000000 101.263579 L 28.000000 103.763579 L 22.000000 103.763579 L 22.000000 101.263579 L 28.000000 101.263579" stroke="gray" fill="white" stroke-width="1px"></path><path d="M 34.000000 101.263579 L 34.000000 103.763579 L 28.000000 103.763579 L 28.000000 101.263579 L 34.000000 101.263579" stroke="gray" fill="white" stroke-width="1px"></path><path d="M 40.000000 101.263579 L 40.000000 103.763579 L 34.000000 103.763579 L 34.000000 101.263579 L 40.000000 101.263579" stroke="gray" fill="white" stroke-width="1px"></path><path d="M 22.000000 89.263579 L 22.000000 91.763579 L 16.000000 91.763579 L 16.000000 89.263579 L 22.000000 89.263579" stroke="gray" fill="white" stroke-width="1px"></path><path d="M 28.000000 89.263579 L 28.000000 91.763579 L 22.000000 91.763579 L 22.000000 89.263579 L 28.000000 89.263579" stroke="gray" fill="white" stroke-width="1px"></path><path d="M 34.000000 89.263579 L 34.000000 91.763579 L 28.000000 91.763579 L 28.000000 89.263579 L 34.000000 89.263579" stroke="gray" fill="white" stroke-width="1px"></path><path d="M 40.000000 89.263579 L 40.000000 91.763579 L 34.000000 91.763579 L 34.000000 89.263579 L 40.000000 89.263579" stroke="gray" fill="white" stroke-width="1px"></path><path d="M 22.000000 77.263579 L 22.000000 79.763579 L 16.000000 79.763579 L 16.000000 77.263579 L 22.000000 77.263579" stroke="gray" fill="white" stroke-width="1px"></path><path d="M 28.000000 77.263579 L 28.000000 79.763579 L 22.000000 79.763579 L 22.000000 77.263579 L 28.000000 77.263579" stroke="gray" fill="white" stroke-width="1px"></path><path d="M 34.000000 77.263579 L 34.000000 79.763579 L 28.000000 79.763579 L 28.000000 77.263579 L 34.000000 77.263579" stroke="gray" fill="white" stroke-width="1px"></path><path d="M 40.000000 77.263579 L 40.000000 79.763579 L 34.000000 79.763579 L 34.000000 77.263579 L 40.000000 77.263579" stroke="gray" fill="white" stroke-width="1px"></path><path d="M 22.000000 65.263579 L 22.000000 67.763579 L 16.000000 67.763579 L 16.000000 65.263579 L 22.000000 65.263579" stroke="gray" fill="white" stroke-width="1px"></path><path d="M 28.000000 65.263579 L 28.000000 67.763579 L 22.000000 67.763579 L 22.000000 65.263579 L 28.000000 65.263579" stroke="gray" fill="white" stroke-width="1px"></path><path d="M 34.000000 65.263579 L 34.000000 67.763579 L 28.000000 67.763579 L 28.000000 65.263579 L 34.000000 65.263579" stroke="gray" fill="white" stroke-width="1px"></path><path d="M 40.000000 65.263579 L 40.000000 67.763579 L 34.000000 67.763579 L 34.000000 65.263579 L 40.000000 65.263579" stroke="gray" fill="white" stroke-width="1px"></path></g><g id="crv-base"><path d="M 221.371570 123.090312 L 221.371570 169.241094 L 120.000633 169.241094 L 120.000633 156.444206 L 126.051258 156.444206 L 126.051258 128.832500 L 123.590320 128.832500 L 123.590320 125.551250 L 126.051258 125.551250 L 126.051258 123.858132 L 91.315945 123.858125 L 91.315945 134.738750 L 64.258762 134.738750 L 64.258762 123.687497 L 10.000000 123.687497 L 10.000000 226.180625 L 64.258758 226.180625 L 64.258758 192.357500 L 91.315945 192.357500 L 91.315945 220.123437 L 283.459383 220.123437 L 283.459383 123.090312 L 221.371570 123.090312" stroke="black" fill="none" stroke-width="1px"></path><path d="M 221.371570 10.000000 L 221.371570 56.150781 L 120.000633 56.150781 L 120.000633 43.353893 L 126.051258 43.353893 L 126.051258 15.742187 L 123.590320 15.742187 L 123.590320 12.460937 L 126.051258 12.460937 L 126.051258 10.767819 L 91.315945 10.767812 L 91.315945 21.648438 L 64.258762 21.648438 L 64.258762 10.597185 L 10.000000 10.597185 L 10.000000 113.090312 L 64.258758 113.090312 L 64.258758 79.267187 L 91.315945 79.267187 L 91.315945 107.033125 L 283.459383 107.033125 L 283.459383 10.000000 L 221.371570 10.000000" stroke="black" fill="none" stroke-width="1px"></path><path d="M 10.387195 156.559062 L 10.387195 154.590312 L 12.355945 154.590312 L 12.355945 156.559062 L 10.387195 156.559062" stroke="black" fill="white" stroke-width="1px"></path><path d="M 10.387195 43.468750 L 10.387195 41.500000 L 12.355945 41.500000 L 12.355945 43.468750 L 10.387195 43.468750" stroke="black" fill="white" stroke-width="1px"></path><path d="M 10.387195 188.059062 L 10.387195 186.090312 L 12.355945 186.090312 L 12.355945 188.059062 L 10.387195 188.059062" stroke="black" fill="white" stroke-width="1px"></path><path d="M 10.387195 74.968750 L 10.387195 73.000000 L 12.355945 73.000000 L 12.355945 74.968750 L 10.387195 74.968750" stroke="black" fill="white" stroke-width="1px"></path><path d="M 10.387195 219.559062 L 10.387195 217.590312 L 12.355945 217.590312 L 12.355945 219.559062 L 10.387195 219.559062" stroke="black" fill="white" stroke-width="1px"></path><path d="M 10.387195 106.468750 L 10.387195 104.500000 L 12.355945 104.500000 L 12.355945 106.468750 L 10.387195 106.468750" stroke="black" fill="white" stroke-width="1px"></path><path d="M 60.754383 128.340312 L 60.754383 125.387187 L 63.871570 125.387187 L 63.871570 128.340312 L 60.754383 128.340312" stroke="black" fill="white" stroke-width="1px"></path><path d="M 60.754383 15.250000 L 60.754383 12.296875 L 63.871570 12.296875 L 63.871570 15.250000 L 60.754383 15.250000" stroke="black" fill="white" stroke-width="1px"></path><path d="M 280.598133 219.230937 L 280.598133 217.262187 L 282.566883 217.262187 L 282.566883 219.230937 L 280.598133 219.230937" stroke="black" fill="white" stroke-width="1px"></path><path d="M 280.598133 106.140625 L 280.598133 104.171875 L 282.566883 104.171875 L 282.566883 106.140625 L 280.598133 106.140625" stroke="black" fill="white" stroke-width="1px"></path><path d="M 280.598133 188.059062 L 280.598133 186.090312 L 282.566883 186.090312 L 282.566883 188.059062 L 280.598133 188.059062" stroke="black" fill="white" stroke-width="1px"></path><path d="M 280.598133 74.968750 L 280.598133 73.000000 L 282.566883 73.000000 L 282.566883 74.968750 L 280.598133 74.968750" stroke="black" fill="white" stroke-width="1px"></path><path d="M 280.598133 156.559050 L 280.598133 154.590300 L 282.566883 154.590300 L 282.566883 156.559050 L 280.598133 156.559050" stroke="black" fill="white" stroke-width="1px"></path><path d="M 280.598133 43.468737 L 280.598133 41.499987 L 282.566883 41.499987 L 282.566883 43.468737 L 280.598133 43.468737" stroke="black" fill="white" stroke-width="1px"></path><path d="M 248.605945 127.355937 L 248.605945 123.418437 L 251.887195 123.418437 L 251.887195 127.355937 L 248.605945 127.355937" stroke="black" fill="white" stroke-width="1px"></path><path d="M 248.605945 14.265625 L 248.605945 10.328125 L 251.887195 10.328125 L 251.887195 14.265625 L 248.605945 14.265625" stroke="black" fill="white" stroke-width="1px"></path><path d="M 248.605945 157.871562 L 248.605945 153.934062 L 251.887195 153.934062 L 251.887195 157.871562 L 248.605945 157.871562" stroke="black" fill="white" stroke-width="1px"></path><path d="M 248.605945 44.781250 L 248.605945 40.843750 L 251.887195 40.843750 L 251.887195 44.781250 L 248.605945 44.781250" stroke="black" fill="white" stroke-width="1px"></path><path d="M 248.605945 189.043437 L 248.605945 185.105937 L 251.887195 185.105937 L 251.887195 189.043437 L 248.605945 189.043437" stroke="black" fill="white" stroke-width="1px"></path><path d="M 248.605945 75.953125 L 248.605945 72.015625 L 251.887195 72.015625 L 251.887195 75.953125 L 248.605945 75.953125" stroke="black" fill="white" stroke-width="1px"></path><path d="M 248.934070 219.230937 L 248.934070 216.277812 L 251.887195 216.277812 L 251.887195 219.230937 L 248.934070 219.230937" stroke="black" fill="white" stroke-width="1px"></path><path d="M 248.934070 106.140625 L 248.934070 103.187500 L 251.887195 103.187500 L 251.887195 106.140625 L 248.934070 106.140625" stroke="black" fill="white" stroke-width="1px"></path><path d="M 218.090320 189.043437 L 218.090320 185.105937 L 221.371570 185.105937 L 221.371570 189.043437 L 218.090320 189.043437" stroke="black" fill="white" stroke-width="1px"></path><path d="M 218.090320 75.953125 L 218.090320 72.015625 L 221.371570 72.015625 L 221.371570 75.953125 L 218.090320 75.953125" stroke="black" fill="white" stroke-width="1px"></path><path d="M 218.254383 219.230937 L 218.254383 216.277812 L 221.207508 216.277812 L 221.207508 219.230937 L 218.254383 219.230937" stroke="black" fill="white" stroke-width="1px"></path><path d="M 218.254383 106.140625 L 218.254383 103.187500 L 221.207508 103.187500 L 221.207508 106.140625 L 218.254383 106.140625" stroke="black" fill="white" stroke-width="1px"></path><path d="M 186.590320 189.043437 L 186.590320 185.105937 L 189.871570 185.105937 L 189.871570 189.043437 L 186.590320 189.043437" stroke="black" fill="white" stroke-width="1px"></path><path d="M 186.590320 75.953125 L 186.590320 72.015625 L 189.871570 72.015625 L 189.871570 75.953125 L 186.590320 75.953125" stroke="black" fill="white" stroke-width="1px"></path><path d="M 186.754383 219.230937 L 186.754383 216.277812 L 189.707508 216.277812 L 189.707508 219.230937 L 186.754383 219.230937" stroke="black" fill="white" stroke-width="1px"></path><path d="M 186.754383 106.140625 L 186.754383 103.187500 L 189.707508 103.187500 L 189.707508 106.140625 L 186.754383 106.140625" stroke="black" fill="white" stroke-width="1px"></path><path d="M 155.090320 189.043437 L 155.090320 185.105937 L 158.371570 185.105937 L 158.371570 189.043437 L 155.090320 189.043437" stroke="black" fill="white" stroke-width="1px"></path><path d="M 155.090320 75.953125 L 155.090320 72.015625 L 158.371570 72.015625 L 158.371570 75.953125 L 155.090320 75.953125" stroke="black" fill="white" stroke-width="1px"></path><path d="M 155.254383 219.230937 L 155.254383 216.277812 L 158.207508 216.277812 L 158.207508 219.230937 L 155.254383 219.230937" stroke="black" fill="white" stroke-width="1px"></path><path d="M 155.254383 106.140625 L 155.254383 103.187500 L 158.207508 103.187500 L 158.207508 106.140625 L 155.254383 106.140625" stroke="black" fill="white" stroke-width="1px"></path><path d="M 123.590320 189.043437 L 123.590320 185.105937 L 126.871570 185.105937 L 126.871570 189.043437 L 123.590320 189.043437" stroke="black" fill="white" stroke-width="1px"></path><path d="M 123.590320 75.953125 L 123.590320 72.015625 L 126.871570 72.015625 L 126.871570 75.953125 L 123.590320 75.953125" stroke="black" fill="white" stroke-width="1px"></path><path d="M 123.754383 219.230937 L 123.754383 216.277812 L 126.707508 216.277812 L 126.707508 219.230937 L 123.754383 219.230937" stroke="black" fill="white" stroke-width="1px"></path><path d="M 123.754383 106.140625 L 123.754383 103.187500 L 126.707508 103.187500 L 126.707508 106.140625 L 123.754383 106.140625" stroke="black" fill="white" stroke-width="1px"></path><path d="M 92.090320 157.543437 L 92.090320 153.605937 L 95.371570 153.605937 L 95.371570 157.543437 L 92.090320 157.543437" stroke="black" fill="white" stroke-width="1px"></path><path d="M 92.090320 44.453125 L 92.090320 40.515625 L 95.371570 40.515625 L 95.371570 44.453125 L 92.090320 44.453125" stroke="black" fill="white" stroke-width="1px"></path><path d="M 92.090320 189.043437 L 92.090320 185.105937 L 95.371570 185.105937 L 95.371570 189.043437 L 92.090320 189.043437" stroke="black" fill="white" stroke-width="1px"></path><path d="M 92.090320 75.953125 L 92.090320 72.015625 L 95.371570 72.015625 L 95.371570 75.953125 L 92.090320 75.953125" stroke="black" fill="white" stroke-width="1px"></path><path d="M 92.090320 128.504375 L 92.090320 125.551250 L 95.207508 125.551250 L 95.207508 128.504375 L 92.090320 128.504375" stroke="black" fill="white" stroke-width="1px"></path><path d="M 92.090320 15.414062 L 92.090320 12.460937 L 95.207508 12.460937 L 95.207508 15.414062 L 92.090320 15.414062" stroke="black" fill="white" stroke-width="1px"></path><path d="M 60.590320 157.215312 L 60.590320 153.934062 L 63.871570 153.934062 L 63.871570 157.215312 L 60.590320 157.215312" stroke="black" fill="white" stroke-width="1px"></path><path d="M 60.590320 44.125000 L 60.590320 40.843750 L 63.871570 40.843750 L 63.871570 44.125000 L 60.590320 44.125000" stroke="black" fill="white" stroke-width="1px"></path><path d="M 60.754383 219.230937 L 60.754383 216.277812 L 63.871570 216.277812 L 63.871570 219.230937 L 60.754383 219.230937" stroke="black" fill="white" stroke-width="1px"></path><path d="M 60.754383 106.140625 L 60.754383 103.187500 L 63.871570 103.187500 L 63.871570 106.140625 L 60.754383 106.140625" stroke="black" fill="white" stroke-width="1px"></path><path d="M 30.074695 128.504375 L 30.074695 125.223125 L 33.027820 125.223125 L 33.027820 128.504375 L 30.074695 128.504375" stroke="black" fill="white" stroke-width="1px"></path><path d="M 30.074695 15.414062 L 30.074695 12.132812 L 33.027820 12.132812 L 33.027820 15.414062 L 30.074695 15.414062" stroke="black" fill="white" stroke-width="1px"></path><path d="M 30.074695 157.215312 L 30.074695 153.934062 L 33.355945 153.934062 L 33.355945 157.215312 L 30.074695 157.215312" stroke="black" fill="white" stroke-width="1px"></path><path d="M 30.074695 44.125000 L 30.074695 40.843750 L 33.355945 40.843750 L 33.355945 44.125000 L 30.074695 44.125000" stroke="black" fill="white" stroke-width="1px"></path><path d="M 30.074695 188.715312 L 30.074695 185.434062 L 33.355945 185.434062 L 33.355945 188.715312 L 30.074695 188.715312" stroke="black" fill="white" stroke-width="1px"></path><path d="M 30.074695 75.625000 L 30.074695 72.343750 L 33.355945 72.343750 L 33.355945 75.625000 L 30.074695 75.625000" stroke="black" fill="white" stroke-width="1px"></path><path d="M 30.074695 219.230937 L 30.074695 216.277812 L 33.027820 216.277812 L 33.027820 219.230937 L 30.074695 219.230937" stroke="black" fill="white" stroke-width="1px"></path><path d="M 30.074695 106.140625 L 30.074695 103.187500 L 33.027820 103.187500 L 33.027820 106.140625 L 30.074695 106.140625" stroke="black" fill="white" stroke-width="1px"></path><path d="M 10.387195 127.191875 L 10.387195 125.223125 L 12.355945 125.223125 L 12.355945 127.191875 L 10.387195 127.191875" stroke="black" fill="white" stroke-width="1px"></path><path d="M 10.387195 14.101562 L 10.387195 12.132812 L 12.355945 12.132812 L 12.355945 14.101562 L 10.387195 14.101562" stroke="black" fill="white" stroke-width="1px"></path><path d="M 60.590320 189.863750 L 60.590320 185.434062 L 63.871570 185.434062 L 63.871570 188.715312 L 62.230945 188.715312 L 62.230945 189.863750 L 60.590320 189.863750" stroke="black" fill="white" stroke-width="1px"></path><path d="M 60.590320 76.773437 L 60.590320 72.343750 L 63.871570 72.343750 L 63.871570 75.625000 L 62.230945 75.625000 L 62.230945 76.773437 L 60.590320 76.773437" stroke="black" fill="white" stroke-width="1px"></path></g></svg>