<svg width="293.459383" height="236.180625" xmlns="http://www.w3.org/2000/svg" xmlns:xlink="http://www.w3.org/1999/xlink" version="1.1"><g id="crv-background"><path d="M 221.371570 123.090312 L 221.371570 169.241094 L 120.000633 169.241094 L 120.000633 156.444206 L 126.051258 156.444206 L 126.051258 128.832500 L 123.590320 128.832500 L 123.590320 125.551250 L 126.051258 125.551250 L 126.051258 123.858132 L 91.315945 123.858125 L 91.315945 134.738750 L 64.258762 134.738750 L 64.258762 123.687497 L 10.000000 123.687497 L 10.000000 226.180625 L 64.258758 226.180625 L 64.258758 192.357500 L 91.315945 192.357500 L 91.315945 220.123437 L 283.459383 220.123437 L 283.459383 123.090312 L 221.371570 123.090312" stroke="none" fill="white" stroke-width="1px"></path><path d="M 221.371570 10.000000 L 221.371570 56.150781 L 120.000633 56.150781 L 120.000633 43.353893 L 126.051258 43.353893 L 126.051258 15.742187 L 123.590320 15.742187 L 123.590320 12.460937 L 126.051258 12.460937 L 126.051258 10.767819 L 91.315945 10.767812 L 91.315945 21.648438 L 64.258762 21.648438 L 64.258762 10.597185 L 10.000000 10.597185 L 10.000000 113.090312 L 64.258758 113.090312 L 64.258758 79.267187 L 91.315945 79.267187 L 91.315945 107.033125 L 283.459383 107.033125 L 283.459383 10.000000 L 221.371570 10.000000" stroke="none" fill="white" stroke-width="1px"></path></g><g id="crv-nbhd"><path d="M 221.737654 10.000004 L 221.737654 27.484009 L 221.737654 44.968013 L 230.053097 49.709513 L 238.368540 54.451013 L 260.913961 51.559697 L 283.459383 48.668380 L 283.459383 29.334190 L 283.459382 10.000000 L 252.598555 10.000002 L 221.737654 10.000004" stroke="#DD2222" fill="none" stroke-width="1px"></path><path d="M 283.459383 107.033125 L 283.459383 77.850753 L 283.459383 48.668380 L 260.913961 51.559697 L 238.368540 54.451013 L 241.719505 80.742069 L 245.070471 107.033125 L 264.264927 107.033125 L 283.459383 107.033125" stroke="#DD2222" fill="none" stroke-width="1px"></path><path d="M 197.326318 107.033125 L 221.198394 107.033125 L 245.070471 107.033125 L 241.719505 80.742069 L 238.368540 54.451013 L 230.053097 49.709513 L 221.737654 44.968013 L 221.737654 62.059672 L 221.737654 79.151330 L 213.014667 79.151330 L 204.291681 79.151330 L 200.809000 93.092226 L 197.326318 107.033125" stroke="#DD2222" fill="none" stroke-width="1px"></path><path d="M 204.291681 79.151330 L 188.442915 79.151330 L 172.594149 79.151329 L 176.019693 93.092227 L 179.445237 107.033125 L 188.385777 107.033125 L 197.326318 107.033125 L 200.808998 93.092231 L 204.291681 79.151330" stroke="#DD2222" fill="none" stroke-width="1px"></path><path d="M 126.642022 107.033125 L 153.043629 107.033125 L 179.445237 107.033125 L 176.019693 93.092227 L 172.594149 79.151329 L 150.386827 79.151329 L 128.179505 79.151328 L 127.410764 93.092226 L 126.642022 107.033125" stroke="#DD2222" fill="none" stroke-width="1px"></path><path d="M 128.179505 79.151328 L 109.747725 79.151328 L 91.315945 79.151327 L 91.315945 93.092226 L 91.315945 107.033125 L 108.978983 107.033125 L 126.642022 107.033125 L 127.410763 93.092230 L 128.179505 79.151328" stroke="#DD2222" fill="none" stroke-width="1px"></path><path d="M 64.258758 113.090312 L 64.258758 86.457748 L 64.258758 59.825184 L 63.460369 57.023011 L 62.661980 54.220839 L 36.330990 58.728323 L 10.000000 63.235807 L 10.000000 88.163060 L 10.000000 113.090312 L 37.129379 113.090312 L 64.258758 113.090312" stroke="#DD2222" fill="none" stroke-width="1px"></path><path d="M 10.000000 10.597184 L 10.000000 36.916495 L 10.000000 63.235807 L 36.330990 58.728323 L 62.661980 54.220839 L 63.460369 53.057707 L 64.258758 51.894575 L 64.258758 31.245880 L 64.258758 10.597185 L 37.129379 10.597185 L 10.000000 10.597184" stroke="#DD2222" fill="none" stroke-width="1px"></path><path d="M 10.000000 123.687497 L 10.000000 151.034924 L 10.000000 178.382352 L 37.129379 178.686536 L 64.258758 178.990719 L 64.258758 174.115906 L 64.258758 169.241094 L 64.258758 146.464296 L 64.258758 123.687497 L 37.129385 123.687497 L 10.000000 123.687497" stroke="#DD2222" fill="none" stroke-width="1px"></path><path d="M 10.000000 178.382352 L 10.000000 202.281489 L 10.000000 226.180625 L 37.129379 226.180625 L 64.258758 226.180625 L 64.258758 202.585672 L 64.258758 178.990719 L 37.129379 178.686536 L 10.000000 178.382352" stroke="#DD2222" fill="none" stroke-width="1px"></path><path d="M 137.773877 192.043444 L 114.544911 192.043444 L 91.315945 192.043444 L 91.315945 206.083441 L 91.315945 220.123437 L 119.822721 220.123437 L 148.329497 220.123437 L 143.051688 206.083444 L 137.773877 192.043444" stroke="#DD2222" fill="none" stroke-width="1px"></path><path d="M 181.706846 192.043444 L 159.740362 192.043444 L 137.773877 192.043444 L 143.051687 206.083441 L 148.329497 220.123437 L 160.285961 220.123437 L 172.242426 220.123437 L 176.974635 206.083444 L 181.706846 192.043444" stroke="#DD2222" fill="none" stroke-width="1px"></path><path d="M 172.242426 220.123437 L 201.382398 220.123437 L 230.522371 220.123437 L 229.434952 206.083441 L 228.347534 192.043444 L 205.027190 192.043444 L 181.706846 192.043444 L 176.974636 206.083440 L 172.242426 220.123437" stroke="#DD2222" fill="none" stroke-width="1px"></path><path d="M 283.459383 220.123437 L 283.459383 192.580720 L 283.459383 165.038002 L 261.598517 168.793964 L 239.737652 172.549927 L 239.737652 182.296686 L 239.737652 192.043444 L 234.042593 192.043444 L 228.347534 192.043444 L 229.434952 206.083441 L 230.522371 220.123437 L 256.990877 220.123437 L 283.459383 220.123437" stroke="#DD2222" fill="none" stroke-width="1px"></path><path d="M 239.737652 123.090312 L 239.737652 147.820120 L 239.737652 172.549927 L 261.598517 168.793964 L 283.459383 165.038002 L 283.459383 144.064157 L 283.459383 123.090312 L 261.598548 123.090312 L 239.737652 123.090312" stroke="#DD2222" fill="none" stroke-width="1px"></path></g><g id="crv-amen"><path d="M 58.832882 138.725464 L 58.832882 132.041923 L 58.832882 125.358383 L 37.129379 125.358382 L 15.425876 125.358382 L 15.425876 132.041923 L 15.425876 138.725463 L 37.129379 138.725464 L 58.832882 138.725464" stroke="none" fill="#2288CC" stroke-width="1px"></path><path d="M 58.832882 193.968794 L 58.832882 187.284833 L 58.832882 180.600872 L 37.129379 180.357526 L 15.425876 180.114179 L 15.425876 186.798140 L 15.425876 193.482101 L 37.129379 193.725447 L 58.832882 193.968794" stroke="none" fill="#2288CC" stroke-width="1px"></path><path d="M 138.279871 206.602505 L 135.864059 200.175977 L 133.448246 193.749447 L 114.865073 193.749447 L 96.281901 193.749447 L 96.281901 200.432987 L 96.281901 207.116528 L 117.280886 207.116528 L 138.279871 207.116528 L 138.279871 206.859517 L 138.279871 206.602505" stroke="none" fill="#2288CC" stroke-width="1px"></path><path d="M 161.799065 217.289616 L 166.623363 217.289616 L 171.447661 217.289616 L 175.233430 206.057619 L 179.019198 194.825622 L 171.966228 194.825622 L 164.913259 194.825622 L 161.354848 205.383072 L 157.796437 215.940522 L 159.797751 216.615069 L 161.799065 217.289616" stroke="none" fill="#2288CC" stroke-width="1px"></path><path d="M 215.221884 217.315438 L 221.925441 217.315438 L 228.628998 217.315438 L 227.759063 206.083441 L 226.889129 194.851444 L 220.185572 194.851444 L 213.482014 194.851444 L 214.351949 206.083441 L 215.221884 217.315438" stroke="none" fill="#2288CC" stroke-width="1px"></path><path d="M 279.087210 181.047503 L 279.087210 174.266032 L 279.087210 167.484562 L 261.598517 170.489332 L 244.109825 173.494102 L 244.109825 180.275572 L 244.109825 187.057043 L 261.598517 184.052273 L 279.087210 181.047503" stroke="none" fill="#2288CC" stroke-width="1px"></path><path d="M 244.109825 156.540426 L 244.109825 163.321896 L 244.109825 170.103367 L 261.598517 167.098597 L 279.087210 164.093827 L 279.087210 157.312356 L 279.087210 150.530886 L 261.598517 153.535656 L 244.109825 156.540426" stroke="none" fill="#2288CC" stroke-width="1px"></path><path d="M 237.112493 49.302897 L 239.683808 50.769071 L 242.255122 52.235245 L 260.291460 49.922192 L 278.327797 47.609139 L 278.327797 40.870861 L 278.327797 34.132584 L 257.096574 36.855363 L 235.865351 39.578141 L 236.488922 44.440519 L 237.112493 49.302897" stroke="none" fill="#2288CC" stroke-width="1px"></path><path d="M 279.055082 64.380860 L 279.055082 57.642583 L 279.055082 50.904305 L 261.018745 53.217359 L 242.982408 55.530412 L 243.827432 62.160320 L 244.672457 68.790227 L 261.863769 66.585544 L 279.055082 64.380860" stroke="none" fill="#2288CC" stroke-width="1px"></path><path d="M 236.697202 57.360619 L 236.666015 57.115938 L 236.634829 56.871256 L 229.982475 53.078056 L 223.330120 49.284856 L 223.330120 64.735715 L 223.330120 80.186575 L 230.013661 80.186575 L 236.697202 80.186575 L 236.697202 68.773597 L 236.697202 57.360619" stroke="none" fill="#2288CC" stroke-width="1px"></path><path d="M 183.970761 104.242735 L 190.136607 104.242735 L 196.302453 104.242735 L 199.088599 93.090017 L 201.874744 81.937299 L 194.985804 81.937299 L 188.096863 81.937299 L 185.353194 92.919987 L 182.609525 103.902675 L 183.290143 104.072705 L 183.970761 104.242735" stroke="none" fill="#2288CC" stroke-width="1px"></path><path d="M 163.276192 104.246580 L 170.158545 104.246580 L 177.040897 104.246580 L 174.300462 93.093861 L 171.560027 81.941143 L 165.303319 81.941143 L 159.046611 81.941143 L 158.456590 82.086122 L 157.866570 82.231101 L 160.571381 93.238840 L 163.276192 104.246580" stroke="none" fill="#2288CC" stroke-width="1px"></path><path d="M 111.734957 104.244945 L 118.428652 104.244945 L 125.122346 104.244945 L 125.737340 93.092227 L 126.352333 81.939508 L 119.658639 81.939508 L 112.964944 81.939508 L 112.349951 93.092226 L 111.734957 104.244945" stroke="none" fill="#2288CC" stroke-width="1px"></path><path d="M 49.227010 107.345475 L 55.910551 107.345475 L 62.594092 107.345475 L 62.594092 86.039423 L 62.594092 64.733372 L 61.955381 62.491634 L 61.316670 60.249897 L 55.271840 61.284684 L 49.227010 62.319471 L 49.227010 84.832473 L 49.227010 107.345475" stroke="none" fill="#2288CC" stroke-width="1px"></path><path d="M 15.416380 47.049104 L 15.416380 53.829866 L 15.416380 60.610629 L 36.481172 57.004642 L 57.545964 53.398655 L 58.184675 52.468149 L 58.823386 51.537643 L 58.823386 45.578049 L 58.823386 39.618454 L 37.119883 43.333779 L 15.416380 47.049104" stroke="none" fill="#2288CC" stroke-width="1px"></path></g><g id="crv-desk"><path d="M 55.459383 220.180625 L 52.959383 220.180625 L 52.959383 226.180625 L 55.459383 226.180625 L 55.459383 220.180625" stroke="gray" fill="white" stroke-width="1px"></path><path d="M 55.459383 214.180625 L 52.959383 214.180625 L 52.959383 220.180625 L 55.459383 220.180625 L 55.459383 214.180625" stroke="gray" fill="white" stroke-width="1px"></path><path d="M 55.459383 208.180625 L 52.959383 208.180625 L 52.959383 214.180625 L 55.459383 214.180625 L 55.459383 208.180625" stroke="gray" fill="white" stroke-width="1px"></path><path d="M 55.459383 202.180625 L 52.959383 202.180625 L 52.959383 208.180625 L 55.459383 208.180625 L 55.459383 202.180625" stroke="gray" fill="white" stroke-width="1px"></path><path d="M 43.459383 220.180625 L 40.959383 220.180625 L 40.959383 226.180625 L 43.459383 226.180625 L 43.459383 220.180625" stroke="gray" fill="white" stroke-width="1px"></path><path d="M 43.459383 214.180625 L 40.959383 214.180625 L 40.959383 220.180625 L 43.459383 220.180625 L 43.459383 214.180625" stroke="gray" fill="white" stroke-width="1px"></path><path d="M 43.459383 208.180625 L 40.959383 208.180625 L 40.959383 214.180625 L 43.459383 214.180625 L 43.459383 208.180625" stroke="gray" fill="white" stroke-width="1px"></path><path d="M 43.459383 202.180625 L 40.959383 202.180625 L 40.959383 208.180625 L 43.459383 208.180625 L 43.459383 202.180625" stroke="gray" fill="white" stroke-width="1px"></path><path d="M 31.459383 220.180625 L 28.959383 220.180625 L 28.959383 226.180625 L 31.459383 226.180625 L 31.459383 220.180625" stroke="gray" fill="white" stroke-width="1px"></path><path d="M 31.459383 214.180625 L 28.959383 214.180625 L 28.959383 220.180625 L 31.459383 220.180625 L 31.459383 214.180625" stroke="gray" fill="white" stroke-width="1px"></path><path d="M 31.459383 208.180625 L 28.959383 208.180625 L 28.959383 214.180625 L 31.459383 214.180625 L 31.459383 208.180625" stroke="gray" fill="white" stroke-width="1px"></path><path d="M 31.459383 202.180625 L 28.959383 202.180625 L 28.959383 208.180625 L 31.459383 208.180625 L 31.459383 202.180625" stroke="gray" fill="white" stroke-width="1px"></path><path d="M 19.459383 220.180625 L 16.959383 220.180625 L 16.959383 226.180625 L 19.459383 226.180625 L 19.459383 220.180625" stroke="gray" fill="white" stroke-width="1px"></path><path d="M 19.459383 214.180625 L 16.959383 214.180625 L 16.959383 220.180625 L 19.459383 220.180625 L 19.459383 214.180625" stroke="gray" fill="white" stroke-width="1px"></path><path d="M 19.459383 208.180625 L 16.959383 208.180625 L 16.959383 214.180625 L 19.459383 214.180625 L 19.459383 208.180625" stroke="gray" fill="white" stroke-width="1px"></path><path d="M 19.459383 202.180625 L 16.959383 202.180625 L 16.959383 208.180625 L 19.459383 208.180625 L 19.459383 202.180625" stroke="gray" fill="white" stroke-width="1px"></path><path d="M 139.459383 214.123437 L 136.959383 214.123437 L 136.959383 220.123437 L 139.459383 220.123437 L 139.459383 214.123437" stroke="gray" fill="white" stroke-width="1px"></path><path d="M 127.459383 214.123437 L 124.959383 214.123437 L 124.959383 220.123437 L 127.459383 220.123437 L 127.459383 214.123437" stroke="gray" fill="white" stroke-width="1px"></path><path d="M 115.459383 214.123437 L 112.959383 214.123437 L 112.959383 220.123437 L 115.459383 220.123437 L 115.459383 214.123437" stroke="gray" fill="white" stroke-width="1px"></path><path d="M 103.459383 214.123437 L 100.959383 214.123437 L 100.959383 220.123437 L 103.459383 220.123437 L 103.459383 214.123437" stroke="gray" fill="white" stroke-width="1px"></path><path d="M 151.459383 214.123437 L 148.959383 214.123437 L 148.959383 220.123437 L 151.459383 220.123437 L 151.459383 214.123437" stroke="gray" fill="white" stroke-width="1px"></path><path d="M 151.459383 208.123437 L 148.959383 208.123437 L 148.959383 214.123437 L 151.459383 214.123437 L 151.459383 208.123437" stroke="gray" fill="white" stroke-width="1px"></path><path d="M 151.459383 202.123437 L 148.959383 202.123437 L 148.959383 208.123437 L 151.459383 208.123437 L 151.459383 202.123437" stroke="gray" fill="white" stroke-width="1px"></path><path d="M 151.459383 196.123437 L 148.959383 196.123437 L 148.959383 202.123437 L 151.459383 202.123437 L 151.459383 196.123437" stroke="gray" fill="white" stroke-width="1px"></path><path d="M 199.459383 214.123437 L 196.959383 214.123437 L 196.959383 220.123437 L 199.459383 220.123437 L 199.459383 214.123437" stroke="gray" fill="white" stroke-width="1px"></path><path d="M 199.459383 208.123437 L 196.959383 208.123437 L 196.959383 214.123437 L 199.459383 214.123437 L 199.459383 208.123437" stroke="gray" fill="white" stroke-width="1px"></path><path d="M 199.459383 202.123437 L 196.959383 202.123437 L 196.959383 208.123437 L 199.459383 208.123437 L 199.459383 202.123437" stroke="gray" fill="white" stroke-width="1px"></path><path d="M 199.459383 196.123437 L 196.959383 196.123437 L 196.959383 202.123437 L 199.459383 202.123437 L 199.459383 196.123437" stroke="gray" fill="white" stroke-width="1px"></path><path d="M 187.459383 214.123437 L 184.959383 214.123437 L 184.959383 220.123437 L 187.459383 220.123437 L 187.459383 214.123437" stroke="gray" fill="white" stroke-width="1px"></path><path d="M 187.459383 208.123437 L 184.959383 208.123437 L 184.959383 214.123437 L 187.459383 214.123437 L 187.459383 208.123437" stroke="gray" fill="white" stroke-width="1px"></path><path d="M 187.459383 202.123437 L 184.959383 202.123437 L 184.959383 208.123437 L 187.459383 208.123437 L 187.459383 202.123437" stroke="gray" fill="white" stroke-width="1px"></path><path d="M 187.459383 196.123437 L 184.959383 196.123437 L 184.959383 202.123437 L 187.459383 202.123437 L 187.459383 196.123437" stroke="gray" fill="white" stroke-width="1px"></path><path d="M 271.459383 214.123437 L 268.959383 214.123437 L 268.959383 220.123437 L 271.459383 220.123437 L 271.459383 214.123437" stroke="gray" fill="white" stroke-width="1px"></path><path d="M 271.459383 208.123437 L 268.959383 208.123437 L 268.959383 214.123437 L 271.459383 214.123437 L 271.459383 208.123437" stroke="gray" fill="white" stroke-width="1px"></path><path d="M 271.459383 202.123437 L 268.959383 202.123437 L 268.959383 208.123437 L 271.459383 208.123437 L 271.459383 202.123437" stroke="gray" fill="white" stroke-width="1px"></path><path d="M 271.459383 196.123437 L 268.959383 196.123437 L 268.959383 202.123437 L 271.459383 202.123437 L 271.459383 196.123437" stroke="gray" fill="white" stroke-width="1px"></path><path d="M 271.459383 190.123437 L 268.959383 190.123437 L 268.959383 196.123437 L 271.459383 196.123437 L 271.459383 190.123437" stroke="gray" fill="white" stroke-width="1px"></path><path d="M 259.459383 214.123437 L 256.959383 214.123437 L 256.959383 220.123437 L 259.459383 220.123437 L 259.459383 214.123437" stroke="gray" fill="white" stroke-width="1px"></path><path d="M 259.459383 208.123437 L 256.959383 208.123437 L 256.959383 214.123437 L 259.459383 214.123437 L 259.459383 208.123437" stroke="gray" fill="white" stroke-width="1px"></path><path d="M 259.459383 202.123437 L 256.959383 202.123437 L 256.959383 208.123437 L 259.459383 208.123437 L 259.459383 202.123437" stroke="gray" fill="white" stroke-width="1px"></path><path d="M 259.459383 196.123437 L 256.959383 196.123437 L 256.959383 202.123437 L 259.459383 202.123437 L 259.459383 196.123437" stroke="gray" fill="white" stroke-width="1px"></path><path d="M 247.459383 214.123437 L 244.959383 214.123437 L 244.959383 220.123437 L 247.459383 220.123437 L 247.459383 214.123437" stroke="gray" fill="white" stroke-width="1px"></path><path d="M 247.459383 208.123437 L 244.959383 208.123437 L 244.959383 214.123437 L 247.459383 214.123437 L 247.459383 208.123437" stroke="gray" fill="white" stroke-width="1px"></path><path d="M 247.459383 202.123437 L 244.959383 202.123437 L 244.959383 208.123437 L 247.459383 208.123437 L 247.459383 202.123437" stroke="gray" fill="white" stroke-width="1px"></path><path d="M 247.459383 196.123437 L 244.959383 196.123437 L 244.959383 202.123437 L 247.459383 202.123437 L 247.459383 196.123437" stroke="gray" fill="white" stroke-width="1px"></path><path d="M 235.459383 214.123437 L 232.959383 214.123437 L 232.959383 220.123437 L 235.459383 220.123437 L 235.459383 214.123437" stroke="gray" fill="white" stroke-width="1px"></path><path d="M 235.459383 208.123437 L 232.959383 208.123437 L 232.959383 214.123437 L 235.459383 214.123437 L 235.459383 208.123437" stroke="gray" fill="white" stroke-width="1px"></path><path d="M 235.459383 202.123437 L 232.959383 202.123437 L 232.959383 208.123437 L 235.459383 208.123437 L 235.459383 202.123437" stroke="gray" fill="white" stroke-width="1px"></path><path d="M 235.459383 196.123437 L 232.959383 196.123437 L 232.959383 202.123437 L 235.459383 202.123437 L 235.459383 196.123437" stroke="gray" fill="white" stroke-width="1px"></path><path d="M 55.459383 220.180625 L 57.959383 220.180625 L 57.959383 226.180625 L 55.459383 226.180625 L 55.459383 220.180625" stroke="gray" fill="white" stroke-width="1px"></path><path d="M 55.459383 214.180625 L 57.959383 214.180625 L 57.959383 220.180625 L 55.459383 220.180625 L 55.459383 214.180625" stroke="gray" fill="white" stroke-width="1px"></path><path d="M 55.459383 208.180625 L 57.959383 208.180625 L 57.959383 214.180625 L 55.459383 214.180625 L 55.459383 208.180625" stroke="gray" fill="white" stroke-width="1px"></path><path d="M 55.459383 202.180625 L 57.959383 202.180625 L 57.959383 208.180625 L 55.459383 208.180625 L 55.459383 202.180625" stroke="gray" fill="white" stroke-width="1px"></path><path d="M 43.459383 220.180625 L 45.959383 220.180625 L 45.959383 226.180625 L 43.459383 226.180625 L 43.459383 220.180625" stroke="gray" fill="white" stroke-width="1px"></path><path d="M 43.459383 214.180625 L 45.959383 214.180625 L 45.959383 220.180625 L 43.459383 220.180625 L 43.459383 214.180625" stroke="gray" fill="white" stroke-width="1px"></path><path d="M 43.459383 208.180625 L 45.959383 208.180625 L 45.959383 214.180625 L 43.459383 214.180625 L 43.459383 208.180625" stroke="gray" fill="white" stroke-width="1px"></path><path d="M 43.459383 202.180625 L 45.959383 202.180625 L 45.959383 208.180625 L 43.459383 208.180625 L 43.459383 202.180625" stroke="gray" fill="white" stroke-width="1px"></path><path d="M 31.459383 220.180625 L 33.959383 220.180625 L 33.959383 226.180625 L 31.459383 226.180625 L 31.459383 220.180625" stroke="gray" fill="white" stroke-width="1px"></path><path d="M 31.459383 214.180625 L 33.959383 214.180625 L 33.959383 220.180625 L 31.459383 220.180625 L 31.459383 214.180625" stroke="gray" fill="white" stroke-width="1px"></path><path d="M 31.459383 208.180625 L 33.959383 208.180625 L 33.959383 214.180625 L 31.459383 214.180625 L 31.459383 208.180625" stroke="gray" fill="white" stroke-width="1px"></path><path d="M 31.459383 202.180625 L 33.959383 202.180625 L 33.959383 208.180625 L 31.459383 208.180625 L 31.459383 202.180625" stroke="gray" fill="white" stroke-width="1px"></path><path d="M 19.459383 220.180625 L 21.959383 220.180625 L 21.959383 226.180625 L 19.459383 226.180625 L 19.459383 220.180625" stroke="gray" fill="white" stroke-width="1px"></path><path d="M 19.459383 214.180625 L 21.959383 214.180625 L 21.959383 220.180625 L 19.459383 220.180625 L 19.459383 214.180625" stroke="gray" fill="white" stroke-width="1px"></path><path d="M 19.459383 208.180625 L 21.959383 208.180625 L 21.959383 214.180625 L 19.459383 214.180625 L 19.459383 208.180625" stroke="gray" fill="white" stroke-width="1px"></path><path d="M 19.459383 202.180625 L 21.959383 202.180625 L 21.959383 208.180625 L 19.459383 208.180625 L 19.459383 202.180625" stroke="gray" fill="white" stroke-width="1px"></path><path d="M 139.459383 214.123437 L 141.959383 214.123437 L 141.959383 220.123437 L 139.459383 220.123437 L 139.459383 214.123437" stroke="gray" fill="white" stroke-width="1px"></path><path d="M 127.459383 214.123437 L 129.959383 214.123437 L 129.959383 220.123437 L 127.459383 220.123437 L 127.459383 214.123437" stroke="gray" fill="white" stroke-width="1px"></path><path d="M 115.459383 214.123437 L 117.959383 214.123437 L 117.959383 220.123437 L 115.459383 220.123437 L 115.459383 214.123437" stroke="gray" fill="white" stroke-width="1px"></path><path d="M 103.459383 214.123437 L 105.959383 214.123437 L 105.959383 220.123437 L 103.459383 220.123437 L 103.459383 214.123437" stroke="gray" fill="white" stroke-width="1px"></path><path d="M 151.459383 214.123437 L 153.959383 214.123437 L 153.959383 220.123437 L 151.459383 220.123437 L 151.459383 214.123437" stroke="gray" fill="white" stroke-width="1px"></path><path d="M 151.459383 208.123437 L 153.959383 208.123437 L 153.959383 214.123437 L 151.459383 214.123437 L 151.459383 208.123437" stroke="gray" fill="white" stroke-width="1px"></path><path d="M 151.459383 202.123437 L 153.959383 202.123437 L 153.959383 208.123437 L 151.459383 208.123437 L 151.459383 202.123437" stroke="gray" fill="white" stroke-width="1px"></path><path d="M 151.459383 196.123437 L 153.959383 196.123437 L 153.959383 202.123437 L 151.459383 202.123437 L 151.459383 196.123437" stroke="gray" fill="white" stroke-width="1px"></path><path d="M 199.459383 214.123437 L 201.959383 214.123437 L 201.959383 220.123437 L 199.459383 220.123437 L 199.459383 214.123437" stroke="gray" fill="white" stroke-width="1px"></path><path d="M 199.459383 208.123437 L 201.959383 208.123437 L 201.959383 214.123437 L 199.459383 214.123437 L 199.459383 208.123437" stroke="gray" fill="white" stroke-width="1px"></path><path d="M 199.459383 202.123437 L 201.959383 202.123437 L 201.959383 208.123437 L 199.459383 208.123437 L 199.459383 202.123437" stroke="gray" fill="white" stroke-width="1px"></path><path d="M 199.459383 196.123437 L 201.959383 196.123437 L 201.959383 202.123437 L 199.459383 202.123437 L 199.459383 196.123437" stroke="gray" fill="white" stroke-width="1px"></path><path d="M 187.459383 214.123437 L 189.959383 214.123437 L 189.959383 220.123437 L 187.459383 220.123437 L 187.459383 214.123437" stroke="gray" fill="white" stroke-width="1px"></path><path d="M 187.459383 208.123437 L 189.959383 208.123437 L 189.959383 214.123437 L 187.459383 214.123437 L 187.459383 208.123437" stroke="gray" fill="white" stroke-width="1px"></path><path d="M 187.459383 202.123437 L 189.959383 202.123437 L 189.959383 208.123437 L 187.459383 208.123437 L 187.459383 202.123437" stroke="gray" fill="white" stroke-width="1px"></path><path d="M 187.459383 196.123437 L 189.959383 196.123437 L 189.959383 202.123437 L 187.459383 202.123437 L 187.459383 196.123437" stroke="gray" fill="white" stroke-width="1px"></path><path d="M 271.459383 214.123437 L 273.959383 214.123437 L 273.959383 220.123437 L 271.459383 220.123437 L 271.459383 214.123437" stroke="gray" fill="white" stroke-width="1px"></path><path d="M 271.459383 208.123437 L 273.959383 208.123437 L 273.959383 214.123437 L 271.459383 214.123437 L 271.459383 208.123437" stroke="gray" fill="white" stroke-width="1px"></path><path d="M 271.459383 202.123437 L 273.959383 202.123437 L 273.959383 208.123437 L 271.459383 208.123437 L 271.459383 202.123437" stroke="gray" fill="white" stroke-width="1px"></path><path d="M 271.459383 196.123437 L 273.959383 196.123437 L 273.959383 202.123437 L 271.459383 202.123437 L 271.459383 196.123437" stroke="gray" fill="white" stroke-width="1px"></path><path d="M 271.459383 190.123437 L 273.959383 190.123437 L 273.959383 196.123437 L 271.459383 196.123437 L 271.459383 190.123437" stroke="gray" fill="white" stroke-width="1px"></path><path d="M 259.459383 214.123437 L 261.959383 214.123437 L 261.959383 220.123437 L 259.459383 220.123437 L 259.459383 214.123437" stroke="gray" fill="white" stroke-width="1px"></path><path d="M 259.459383 208.123437 L 261.959383 208.123437 L 261.959383 214.123437 L 259.459383 214.123437 L 259.459383 208.123437" stroke="gray" fill="white" stroke-width="1px"></path><path d="M 259.459383 202.123437 L 261.959383 202.123437 L 261.959383 208.123437 L 259.459383 208.123437 L 259.459383 202.123437" stroke="gray" fill="white" stroke-width="1px"></path><path d="M 259.459383 196.123437 L 261.959383 196.123437 L 261.959383 202.123437 L 259.459383 202.123437 L 259.459383 196.123437" stroke="gray" fill="white" stroke-width="1px"></path><path d="M 247.459383 214.123437 L 249.959383 214.123437 L 249.959383 220.123437 L 247.459383 220.123437 L 247.459383 214.123437" stroke="gray" fill="white" stroke-width="1px"></path><path d="M 247.459383 208.123437 L 249.959383 208.123437 L 249.959383 214.123437 L 247.459383 214.123437 L 247.459383 208.123437" stroke="gray" fill="white" stroke-width="1px"></path><path d="M 247.459383 202.123437 L 249.959383 202.123437 L 249.959383 208.123437 L 247.459383 208.123437 L 247.459383 202.123437" stroke="gray" fill="white" stroke-width="1px"></path><path d="M 247.459383 196.123437 L 249.959383 196.123437 L 249.959383 202.123437 L 247.459383 202.123437 L 247.459383 196.123437" stroke="gray" fill="white" stroke-width="1px"></path><path d="M 235.459383 214.123437 L 237.959383 214.123437 L 237.959383 220.123437 L 235.459383 220.123437 L 235.459383 214.123437" stroke="gray" fill="white" stroke-width="1px"></path><path d="M 235.459383 208.123437 L 237.959383 208.123437 L 237.959383 214.123437 L 235.459383 214.123437 L 235.459383 208.123437" stroke="gray" fill="white" stroke-width="1px"></path><path d="M 235.459383 202.123437 L 237.959383 202.123437 L 237.959383 208.123437 L 235.459383 208.123437 L 235.459383 202.123437" stroke="gray" fill="white" stroke-width="1px"></path><path d="M 235.459383 196.123437 L 237.959383 196.123437 L 237.959383 202.123437 L 235.459383 202.123437 L 235.459383 196.123437" stroke="gray" fill="white" stroke-width="1px"></path><path d="M 22.000000 172.123437 L 22.000000 169.623437 L 16.000000 169.623437 L 16.000000 172.123437 L 22.000000 172.123437" stroke="gray" fill="white" stroke-width="1px"></path><path d="M 28.000000 172.123437 L 28.000000 169.623437 L 22.000000 169.623437 L 22.000000 172.123437 L 28.000000 172.123437" stroke="gray" fill="white" stroke-width="1px"></path><path d="M 34.000000 172.123437 L 34.000000 169.623437 L 28.000000 169.623437 L 28.000000 172.123437 L 34.000000 172.123437" stroke="gray" fill="white" stroke-width="1px"></path><path d="M 40.000000 172.123437 L 40.000000 169.623437 L 34.000000 169.623437 L 34.000000 172.123437 L 40.000000 172.123437" stroke="gray" fill="white" stroke-width="1px"></path><path d="M 46.000000 172.123437 L 46.000000 169.623437 L 40.000000 169.623437 L 40.000000 172.123437 L 46.000000 172.123437" stroke="gray" fill="white" stroke-width="1px"></path><path d="M 52.000000 172.123437 L 52.000000 169.623437 L 46.000000 169.623437 L 46.000000 172.123437 L 52.000000 172.123437" stroke="gray" fill="white" stroke-width="1px"></path><path d="M 58.000000 172.123437 L 58.000000 169.623437 L 52.000000 169.623437 L 52.000000 172.123437 L 58.000000 172.123437" stroke="gray" fill="white" stroke-width="1px"></path><path d="M 22.000000 160.123437 L 22.000000 157.623437 L 16.000000 157.623437 L 16.000000 160.123437 L 22.000000 160.123437" stroke="gray" fill="white" stroke-width="1px"></path><path d="M 28.000000 160.123437 L 28.000000 157.623437 L 22.000000 157.623437 L 22.000000 160.123437 L 28.000000 160.123437" stroke="gray" fill="white" stroke-width="1px"></path><path d="M 34.000000 160.123437 L 34.000000 157.623437 L 28.000000 157.623437 L 28.000000 160.123437 L 34.000000 160.123437" stroke="gray" fill="white" stroke-width="1px"></path><path d="M 40.000000 160.123437 L 40.000000 157.623437 L 34.000000 157.623437 L 34.000000 160.123437 L 40.000000 160.123437" stroke="gray" fill="white" stroke-width="1px"></path><path d="M 46.000000 160.123437 L 46.000000 157.623437 L 40.000000 157.623437 L 40.000000 160.123437 L 46.000000 160.123437" stroke="gray" fill="white" stroke-width="1px"></path><path d="M 52.000000 160.123437 L 52.000000 157.623437 L 46.000000 157.623437 L 46.000000 160.123437 L 52.000000 160.123437" stroke="gray" fill="white" stroke-width="1px"></path><path d="M 58.000000 160.123437 L 58.000000 157.623437 L 52.000000 157.623437 L 52.000000 160.123437 L 58.000000 160.123437" stroke="gray" fill="white" stroke-width="1px"></path><path d="M 22.000000 148.123437 L 22.000000 145.623437 L 16.000000 145.623437 L 16.000000 148.123437 L 22.000000 148.123437" stroke="gray" fill="white" stroke-width="1px"></path><path d="M 28.000000 148.123437 L 28.000000 145.623437 L 22.000000 145.623437 L 22.000000 148.123437 L 28.000000 148.123437" stroke="gray" fill="white" stroke-width="1px"></path><path d="M 34.000000 148.123437 L 34.000000 145.623437 L 28.000000 145.623437 L 28.000000 148.123437 L 34.000000 148.123437" stroke="gray" fill="white" stroke-width="1px"></path><path d="M 40.000000 148.123437 L 40.000000 145.623437 L 34.000000 145.623437 L 34.000000 148.123437 L 40.000000 148.123437" stroke="gray" fill="white" stroke-width="1px"></path><path d="M 46.000000 148.123437 L 46.000000 145.623437 L 40.000000 145.623437 L 40.000000 148.123437 L 46.000000 148.123437" stroke="gray" fill="white" stroke-width="1px"></path><path d="M 52.000000 148.123437 L 52.000000 145.623437 L 46.000000 145.623437 L 46.000000 148.123437 L 52.000000 148.123437" stroke="gray" fill="white" stroke-width="1px"></path><path d="M 58.000000 148.123437 L 58.000000 145.623437 L 52.000000 145.623437 L 52.000000 148.123437 L 58.000000 148.123437" stroke="gray" fill="white" stroke-width="1px"></path><path d="M 251.737652 148.123437 L 251.737652 145.623437 L 245.737652 145.623437 L 245.737652 148.123437 L 251.737652 148.123437" stroke="gray" fill="white" stroke-width="1px"></path><path d="M 251.737652 136.123437 L 251.737652 133.623437 L 245.737652 133.623437 L 245.737652 136.123437 L 251.737652 136.123437" stroke="gray" fill="white" stroke-width="1px"></path><path d="M 257.737652 136.123437 L 257.737652 133.623437 L 251.737652 133.623437 L 251.737652 136.123437 L 257.737652 136.123437" stroke="gray" fill="white" stroke-width="1px"></path><path d="M 263.737652 136.123437 L 263.737652 133.623437 L 257.737652 133.623437 L 257.737652 136.123437 L 263.737652 136.123437" stroke="gray" fill="white" stroke-width="1px"></path><path d="M 269.737652 136.123437 L 269.737652 133.623437 L 263.737652 133.623437 L 263.737652 136.123437 L 269.737652 136.123437" stroke="gray" fill="white" stroke-width="1px"></path><path d="M 275.737652 136.123437 L 275.737652 133.623437 L 269.737652 133.623437 L 269.737652 136.123437 L 275.737652 136.123437" stroke="gray" fill="white" stroke-width="1px"></path><path d="M 22.000000 172.123437 L 22.000000 174.623437 L 16.000000 174.623437 L 16.000000 172.123437 L 22.000000 172.123437" stroke="gray" fill="white" stroke-width="1px"></path><path d="M 28.000000 172.123437 L 28.000000 174.623437 L 22.000000 174.623437 L 22.000000 172.123437 L 28.000000 172.123437" stroke="gray" fill="white" stroke-width="1px"></path><path d="M 34.000000 172.123437 L 34.000000 174.623437 L 28.000000 174.623437 L 28.000000 172.123437 L 34.000000 172.123437" stroke="gray" fill="white" stroke-width="1px"></path><path d="M 40.000000 172.123437 L 40.000000 174.623437 L 34.000000 174.623437 L 34.000000 172.123437 L 40.000000 172.123437" stroke="gray" fill="white" stroke-width="1px"></path><path d="M 46.000000 172.123437 L 46.000000 174.623437 L 40.000000 174.623437 L 40.000000 172.123437 L 46.000000 172.123437" stroke="gray" fill="white" stroke-width="1px"></path><path d="M 52.000000 172.123437 L 52.000000 174.623437 L 46.000000 174.623437 L 46.000000 172.123437 L 52.000000 172.123437" stroke="gray" fill="white" stroke-width="1px"></path><path d="M 58.000000 172.123437 L 58.000000 174.623437 L 52.000000 174.623437 L 52.000000 172.123437 L 58.000000 172.123437" stroke="gray" fill="white" stroke-width="1px"></path><path d="M 22.000000 160.123437 L 22.000000 162.623437 L 16.000000 162.623437 L 16.000000 160.123437 L 22.000000 160.123437" stroke="gray" fill="white" stroke-width="1px"></path><path d="M 28.000000 160.123437 L 28.000000 162.623437 L 22.000000 162.623437 L 22.000000 160.123437 L 28.000000 160.123437" stroke="gray" fill="white" stroke-width="1px"></path><path d="M 34.000000 160.123437 L 34.000000 162.623437 L 28.000000 162.623437 L 28.000000 160.123437 L 34.000000 160.123437" stroke="gray" fill="white" stroke-width="1px"></path><path d="M 40.000000 160.123437 L 40.000000 162.623437 L 34.000000 162.623437 L 34.000000 160.123437 L 40.000000 160.123437" stroke="gray" fill="white" stroke-width="1px"></path><path d="M 46.000000 160.123437 L 46.000000 162.623437 L 40.000000 162.623437 L 40.000000 160.123437 L 46.000000 160.123437" stroke="gray" fill="white" stroke-width="1px"></path><path d="M 52.000000 160.123437 L 52.000000 162.623437 L 46.000000 162.623437 L 46.000000 160.123437 L 52.000000 160.123437" stroke="gray" fill="white" stroke-width="1px"></path><path d="M 58.000000 160.123437 L 58.000000 162.623437 L 52.000000 162.623437 L 52.000000 160.123437 L 58.000000 160.123437" stroke="gray" fill="white" stroke-width="1px"></path><path d="M 22.000000 148.123437 L 22.000000 150.623437 L 16.000000 150.623437 L 16.000000 148.123437 L 22.000000 148.123437" stroke="gray" fill="white" stroke-width="1px"></path><path d="M 28.000000 148.123437 L 28.000000 150.623437 L 22.000000 150.623437 L 22.000000 148.123437 L 28.000000 148.123437" stroke="gray" fill="white" stroke-width="1px"></path><path d="M 34.000000 148.123437 L 34.000000 150.623437 L 28.000000 150.623437 L 28.000000 148.123437 L 34.000000 148.123437" stroke="gray" fill="white" stroke-width="1px"></path><path d="M 40.000000 148.123437 L 40.000000 150.623437 L 34.000000 150.623437 L 34.000000 148.123437 L 40.000000 148.123437" stroke="gray" fill="white" stroke-width="1px"></path><path d="M 46.000000 148.123437 L 46.000000 150.623437 L 40.000000 150.623437 L 40.000000 148.123437 L 46.000000 148.123437" stroke="gray" fill="white" stroke-width="1px"></path><path d="M 52.000000 148.123437 L 52.000000 150.623437 L 46.000000 150.623437 L 46.000000 148.123437 L 52.000000 148.123437" stroke="gray" fill="white" stroke-width="1px"></path><path d="M 58.000000 148.123437 L 58.000000 150.623437 L 52.000000 150.623437 L 52.000000 148.123437 L 58.000000 148.123437" stroke="gray" fill="white" stroke-width="1px"></path><path d="M 251.737652 148.123437 L 251.737652 150.623437 L 245.737652 150.623437 L 245.737652 148.123437 L 251.737652 148.123437" stroke="gray" fill="white" stroke-width="1px"></path><path d="M 251.737652 136.123437 L 251.737652 138.623437 L 245.737652 138.623437 L 245.737652 136.123437 L 251.737652 136.123437" stroke="gray" fill="white" stroke-width="1px"></path><path d="M 257.737652 136.123437 L 257.737652 138.623437 L 251.737652 138.623437 L 251.737652 136.123437 L 257.737652 136.123437" stroke="gray" fill="white" stroke-width="1px"></path><path d="M 263.737652 136.123437 L 263.737652 138.623437 L 257.737652 138.623437 L 257.737652 136.123437 L 263.737652 136.123437" stroke="gray" fill="white" stroke-width="1px"></path><path d="M 269.737652 136.123437 L 269.737652 138.623437 L 263.737652 138.623437 L 263.737652 136.123437 L 269.737652 136.123437" stroke="gray" fill="white" stroke-width="1px"></path><path d="M 275.737652 136.123437 L 275.737652 138.623437 L 269.737652 138.623437 L 269.737652 136.123437 L 275.737652 136.123437" stroke="gray" fill="white" stroke-width="1px"></path><path d="M 271.459383 23.013418 L 268.959383 23.013418 L 268.959383 29.013418 L 271.459383 29.013418 L 271.459383 23.013418" stroke="gray" fill="white" stroke-width="1px"></path><path d="M 271.459383 17.013418 L 268.959383 17.013418 L 268.959383 23.013418 L 271.459383 23.013418 L 271.459383 17.013418" stroke="gray" fill="white" stroke-width="1px"></path><path d="M 259.459383 24.552346 L 256.959383 24.552346 L 256.959383 30.552346 L 259.459383 30.552346 L 259.459383 24.552346" stroke="gray" fill="white" stroke-width="1px"></path><path d="M 259.459383 18.552346 L 256.959383 18.552346 L 256.959383 24.552346 L 259.459383 24.552346 L 259.459383 18.552346" stroke="gray" fill="white" stroke-width="1px"></path><path d="M 259.459383 12.552346 L 256.959383 12.552346 L 256.959383 18.552346 L 259.459383 18.552346 L 259.459383 12.552346" stroke="gray" fill="white" stroke-width="1px"></path><path d="M 247.459383 26.091275 L 244.959383 26.091275 L 244.959383 32.091275 L 247.459383 32.091275 L 247.459383 26.091275" stroke="gray" fill="white" stroke-width="1px"></path><path d="M 247.459383 20.091275 L 244.959383 20.091275 L 244.959383 26.091275 L 247.459383 26.091275 L 247.459383 20.091275" stroke="gray" fill="white" stroke-width="1px"></path><path d="M 247.459383 14.091275 L 244.959383 14.091275 L 244.959383 20.091275 L 247.459383 20.091275 L 247.459383 14.091275" stroke="gray" fill="white" stroke-width="1px"></path><path d="M 235.459383 28.792200 L 232.959383 28.792200 L 232.959383 34.792200 L 235.459383 34.792200 L 235.459383 28.792200" stroke="gray" fill="white" stroke-width="1px"></path><path d="M 235.459383 22.792200 L 232.959383 22.792200 L 232.959383 28.792200 L 235.459383 28.792200 L 235.459383 22.792200" stroke="gray" fill="white" stroke-width="1px"></path><path d="M 235.459383 16.792200 L 232.959383 16.792200 L 232.959383 22.792200 L 235.459383 22.792200 L 235.459383 16.792200" stroke="gray" fill="white" stroke-width="1px"></path><path d="M 151.459383 101.033125 L 148.959383 101.033125 L 148.959383 107.033125 L 151.459383 107.033125 L 151.459383 101.033125" stroke="gray" fill="white" stroke-width="1px"></path><path d="M 151.459383 95.033125 L 148.959383 95.033125 L 148.959383 101.033125 L 151.459383 101.033125 L 151.459383 95.033125" stroke="gray" fill="white" stroke-width="1px"></path><path d="M 151.459383 89.033125 L 148.959383 89.033125 L 148.959383 95.033125 L 151.459383 95.033125 L 151.459383 89.033125" stroke="gray" fill="white" stroke-width="1px"></path><path d="M 151.459383 83.033125 L 148.959383 83.033125 L 148.959383 89.033125 L 151.459383 89.033125 L 151.459383 83.033125" stroke="gray" fill="white" stroke-width="1px"></path><path d="M 139.459383 101.033125 L 136.959383 101.033125 L 136.959383 107.033125 L 139.459383 107.033125 L 139.459383 101.033125" stroke="gray" fill="white" stroke-width="1px"></path><path d="M 139.459383 95.033125 L 136.959383 95.033125 L 136.959383 101.033125 L 139.459383 101.033125 L 139.459383 95.033125" stroke="gray" fill="white" stroke-width="1px"></path><path d="M 139.459383 89.033125 L 136.959383 89.033125 L 136.959383 95.033125 L 139.459383 95.033125 L 139.459383 89.033125" stroke="gray" fill="white" stroke-width="1px"></path><path d="M 139.459383 83.033125 L 136.959383 83.033125 L 136.959383 89.033125 L 139.459383 89.033125 L 139.459383 83.033125" stroke="gray" fill="white" stroke-width="1px"></path><path d="M 103.459383 101.033125 L 100.959383 101.033125 L 100.959383 107.033125 L 103.459383 107.033125 L 103.459383 101.033125" stroke="gray" fill="white" stroke-width="1px"></path><path d="M 103.459383 95.033125 L 100.959383 95.033125 L 100.959383 101.033125 L 103.459383 101.033125 L 103.459383 95.033125" stroke="gray" fill="white" stroke-width="1px"></path><path d="M 103.459383 89.033125 L 100.959383 89.033125 L 100.959383 95.033125 L 103.459383 95.033125 L 103.459383 89.033125" stroke="gray" fill="white" stroke-width="1px"></path><path d="M 103.459383 83.033125 L 100.959383 83.033125 L 100.959383 89.033125 L 103.459383 89.033125 L 103.459383 83.033125" stroke="gray" fill="white" stroke-width="1px"></path><path d="M 55.459383 28.194322 L 52.959383 28.194322 L 52.959383 34.194322 L 55.459383 34.194322 L 55.459383 28.194322" stroke="gray" fill="white" stroke-width="1px"></path><path d="M 55.459383 22.194322 L 52.959383 22.194322 L 52.959383 28.194322 L 55.459383 28.194322 L 55.459383 22.194322" stroke="gray" fill="white" stroke-width="1px"></path><path d="M 55.459383 16.194322 L 52.959383 16.194322 L 52.959383 22.194322 L 55.459383 22.194322 L 55.459383 16.194322" stroke="gray" fill="white" stroke-width="1px"></path><path d="M 43.459383 30.248548 L 40.959383 30.248548 L 40.959383 36.248548 L 43.459383 36.248548 L 43.459383 30.248548" stroke="gray" fill="white" stroke-width="1px"></path><path d="M 43.459383 24.248548 L 40.959383 24.248548 L 40.959383 30.248548 L 43.459383 30.248548 L 43.459383 24.248548" stroke="gray" fill="white" stroke-width="1px"></path><path d="M 43.459383 18.248548 L 40.959383 18.248548 L 40.959383 24.248548 L 43.459383 24.248548 L 43.459383 18.248548" stroke="gray" fill="white" stroke-width="1px"></path><path d="M 31.459383 32.302774 L 28.959383 32.302774 L 28.959383 38.302774 L 31.459383 38.302774 L 31.459383 32.302774" stroke="gray" fill="white" stroke-width="1px"></path><path d="M 31.459383 26.302774 L 28.959383 26.302774 L 28.959383 32.302774 L 31.459383 32.302774 L 31.459383 26.302774" stroke="gray" fill="white" stroke-width="1px"></path><path d="M 31.459383 20.302774 L 28.959383 20.302774 L 28.959383 26.302774 L 31.459383 26.302774 L 31.459383 20.302774" stroke="gray" fill="white" stroke-width="1px"></path><path d="M 31.459383 14.302774 L 28.959383 14.302774 L 28.959383 20.302774 L 31.459383 20.302774 L 31.459383 14.302774" stroke="gray" fill="white" stroke-width="1px"></path><path d="M 19.459383 34.357000 L 16.959383 34.357000 L 16.959383 40.357000 L 19.459383 40.357000 L 19.459383 34.357000" stroke="gray" fill="white" stroke-width="1px"></path><path d="M 19.459383 28.357000 L 16.959383 28.357000 L 16.959383 34.357000 L 19.459383 34.357000 L 19.459383 28.357000" stroke="gray" fill="white" stroke-width="1px"></path><path d="M 19.459383 22.357000 L 16.959383 22.357000 L 16.959383 28.357000 L 19.459383 28.357000 L 19.459383 22.357000" stroke="gray" fill="white" stroke-width="1px"></path><path d="M 19.459383 16.357000 L 16.959383 16.357000 L 16.959383 22.357000 L 19.459383 22.357000 L 19.459383 16.357000" stroke="gray" fill="white" stroke-width="1px"></path><path d="M 271.459383 23.013418 L 273.959383 23.013418 L 273.959383 29.013418 L 271.459383 29.013418 L 271.459383 23.013418" stroke="gray" fill="white" stroke-width="1px"></path><path d="M 271.459383 17.013418 L 273.959383 17.013418 L 273.959383 23.013418 L 271.459383 23.013418 L 271.459383 17.013418" stroke="gray" fill="white" stroke-width="1px"></path><path d="M 259.459383 24.552346 L 261.959383 24.552346 L 261.959383 30.552346 L 259.459383 30.552346 L 259.459383 24.552346" stroke="gray" fill="white" stroke-width="1px"></path><path d="M 259.459383 18.552346 L 261.959383 18.552346 L 261.959383 24.552346 L 259.459383 24.552346 L 259.459383 18.552346" stroke="gray" fill="white" stroke-width="1px"></path><path d="M 259.459383 12.552346 L 261.959383 12.552346 L 261.959383 18.552346 L 259.459383 18.552346 L 259.459383 12.552346" stroke="gray" fill="white" stroke-width="1px"></path><path d="M 247.459383 26.091275 L 249.959383 26.091275 L 249.959383 32.091275 L 247.459383 32.091275 L 247.459383 26.091275" stroke="gray" fill="white" stroke-width="1px"></path><path d="M 247.459383 20.091275 L 249.959383 20.091275 L 249.959383 26.091275 L 247.459383 26.091275 L 247.459383 20.091275" stroke="gray" fill="white" stroke-width="1px"></path><path d="M 247.459383 14.091275 L 249.959383 14.091275 L 249.959383 20.091275 L 247.459383 20.091275 L 247.459383 14.091275" stroke="gray" fill="white" stroke-width="1px"></path><path d="M 235.459383 28.792200 L 237.959383 28.792200 L 237.959383 34.792200 L 235.459383 34.792200 L 235.459383 28.792200" stroke="gray" fill="white" stroke-width="1px"></path><path d="M 235.459383 22.792200 L 237.959383 22.792200 L 237.959383 28.792200 L 235.459383 28.792200 L 235.459383 22.792200" stroke="gray" fill="white" stroke-width="1px"></path><path d="M 235.459383 16.792200 L 237.959383 16.792200 L 237.959383 22.792200 L 235.459383 22.792200 L 235.459383 16.792200" stroke="gray" fill="white" stroke-width="1px"></path><path d="M 151.459383 101.033125 L 153.959383 101.033125 L 153.959383 107.033125 L 151.459383 107.033125 L 151.459383 101.033125" stroke="gray" fill="white" stroke-width="1px"></path><path d="M 151.459383 95.033125 L 153.959383 95.033125 L 153.959383 101.033125 L 151.459383 101.033125 L 151.459383 95.033125" stroke="gray" fill="white" stroke-width="1px"></path><path d="M 151.459383 89.033125 L 153.959383 89.033125 L 153.959383 95.033125 L 151.459383 95.033125 L 151.459383 89.033125" stroke="gray" fill="white" stroke-width="1px"></path><path d="M 151.459383 83.033125 L 153.959383 83.033125 L 153.959383 89.033125 L 151.459383 89.033125 L 151.459383 83.033125" stroke="gray" fill="white" stroke-width="1px"></path><path d="M 139.459383 101.033125 L 141.959383 101.033125 L 141.959383 107.033125 L 139.459383 107.033125 L 139.459383 101.033125" stroke="gray" fill="white" stroke-width="1px"></path><path d="M 139.459383 95.033125 L 141.959383 95.033125 L 141.959383 101.033125 L 139.459383 101.033125 L 139.459383 95.033125" stroke="gray" fill="white" stroke-width="1px"></path><path d="M 139.459383 89.033125 L 141.959383 89.033125 L 141.959383 95.033125 L 139.459383 95.033125 L 139.459383 89.033125" stroke="gray" fill="white" stroke-width="1px"></path><path d="M 139.459383 83.033125 L 141.959383 83.033125 L 141.959383 89.033125 L 139.459383 89.033125 L 139.459383 83.033125" stroke="gray" fill="white" stroke-width="1px"></path><path d="M 103.459383 101.033125 L 105.959383 101.033125 L 105.959383 107.033125 L 103.459383 107.033125 L 103.459383 101.033125" stroke="gray" fill="white" stroke-width="1px"></path><path d="M 103.459383 95.033125 L 105.959383 95.033125 L 105.959383 101.033125 L 103.459383 101.033125 L 103.459383 95.033125" stroke="gray" fill="white" stroke-width="1px"></path><path d="M 103.459383 89.033125 L 105.959383 89.033125 L 105.959383 95.033125 L 103.459383 95.033125 L 103.459383 89.033125" stroke="gray" fill="white" stroke-width="1px"></path><path d="M 103.459383 83.033125 L 105.959383 83.033125 L 105.959383 89.033125 L 103.459383 89.033125 L 103.459383 83.033125" stroke="gray" fill="white" stroke-width="1px"></path><path d="M 55.459383 28.194322 L 57.959383 28.194322 L 57.959383 34.194322 L 55.459383 34.194322 L 55.459383 28.194322" stroke="gray" fill="white" stroke-width="1px"></path><path d="M 55.459383 22.194322 L 57.959383 22.194322 L 57.959383 28.194322 L 55.459383 28.194322 L 55.459383 22.194322" stroke="gray" fill="white" stroke-width="1px"></path><path d="M 55.459383 16.194322 L 57.959383 16.194322 L 57.959383 22.194322 L 55.459383 22.194322 L 55.459383 16.194322" stroke="gray" fill="white" stroke-width="1px"></path><path d="M 43.459383 30.248548 L 45.959383 30.248548 L 45.959383 36.248548 L 43.459383 36.248548 L 43.459383 30.248548" stroke="gray" fill="white" stroke-width="1px"></path><path d="M 43.459383 24.248548 L 45.959383 24.248548 L 45.959383 30.248548 L 43.459383 30.248548 L 43.459383 24.248548" stroke="gray" fill="white" stroke-width="1px"></path><path d="M 43.459383 18.248548 L 45.959383 18.248548 L 45.959383 24.248548 L 43.459383 24.248548 L 43.459383 18.248548" stroke="gray" fill="white" stroke-width="1px"></path><path d="M 31.459383 32.302774 L 33.959383 32.302774 L 33.959383 38.302774 L 31.459383 38.302774 L 31.459383 32.302774" stroke="gray" fill="white" stroke-width="1px"></path><path d="M 31.459383 26.302774 L 33.959383 26.302774 L 33.959383 32.302774 L 31.459383 32.302774 L 31.459383 26.302774" stroke="gray" fill="white" stroke-width="1px"></path><path d="M 31.459383 20.302774 L 33.959383 20.302774 L 33.959383 26.302774 L 31.459383 26.302774 L 31.459383 20.302774" stroke="gray" fill="white" stroke-width="1px"></path><path d="M 31.459383 14.302774 L 33.959383 14.302774 L 33.959383 20.302774 L 31.459383 20.302774 L 31.459383 14.302774" stroke="gray" fill="white" stroke-width="1px"></path><path d="M 19.459383 34.357000 L 21.959383 34.357000 L 21.959383 40.357000 L 19.459383 40.357000 L 19.459383 34.357000" stroke="gray" fill="white" stroke-width="1px"></path><path d="M 19.459383 28.357000 L 21.959383 28.357000 L 21.959383 34.357000 L 19.459383 34.357000 L 19.459383 28.357000" stroke="gray" fill="white" stroke-width="1px"></path><path d="M 19.459383 22.357000 L 21.959383 22.357000 L 21.959383 28.357000 L 19.459383 28.357000 L 19.459383 22.357000" stroke="gray" fill="white" stroke-width="1px"></path><path d="M 19.459383 16.357000 L 21.959383 16.357000 L 21.959383 22.357000 L 19.459383 22.357000 L 19.459383 16.357000" stroke="gray" fill="white" stroke-width="1px"></path><path d="M 256.335105 101.263579 L 256.335105 98.763579 L 250.335105 98.763579 L 250.335105 101.263579 L 256.335105 101.263579" stroke="gray" fill="white" stroke-width="1px"></path><path d="M 262.335105 101.263579 L 262.335105 98.763579 L 256.335105 98.763579 L 256.335105 101.263579 L 262.335105 101.263579" stroke="gray" fill="white" stroke-width="1px"></path><path d="M 268.335105 101.263579 L 268.335105 98.763579 L 262.335105 98.763579 L 262.335105 101.263579 L 268.335105 101.263579" stroke="gray" fill="white" stroke-width="1px"></path><path d="M 274.335105 101.263579 L 274.335105 98.763579 L 268.335105 98.763579 L 268.335105 101.263579 L 274.335105 101.263579" stroke="gray" fill="white" stroke-width="1px"></path><path d="M 254.805627 89.263579 L 254.805627 86.763579 L 248.805627 86.763579 L 248.805627 89.263579 L 254.805627 89.263579" stroke="gray" fill="white" stroke-width="1px"></path><path d="M 260.805627 89.263579 L 260.805627 86.763579 L 254.805627 86.763579 L 254.805627 89.263579 L 260.805627 89.263579" stroke="gray" fill="white" stroke-width="1px"></path><path d="M 266.805627 89.263579 L 266.805627 86.763579 L 260.805627 86.763579 L 260.805627 89.263579 L 266.805627 89.263579" stroke="gray" fill="white" stroke-width="1px"></path><path d="M 272.805627 89.263579 L 272.805627 86.763579 L 266.805627 86.763579 L 266.805627 89.263579 L 272.805627 89.263579" stroke="gray" fill="white" stroke-width="1px"></path><path d="M 278.805627 89.263579 L 278.805627 86.763579 L 272.805627 86.763579 L 272.805627 89.263579 L 278.805627 89.263579" stroke="gray" fill="white" stroke-width="1px"></path><path d="M 253.276149 77.263579 L 253.276149 74.763579 L 247.276149 74.763579 L 247.276149 77.263579 L 253.276149 77.263579" stroke="gray" fill="white" stroke-width="1px"></path><path d="M 259.276149 77.263579 L 259.276149 74.763579 L 253.276149 74.763579 L 253.276149 77.263579 L 259.276149 77.263579" stroke="gray" fill="white" stroke-width="1px"></path><path d="M 265.276149 77.263579 L 265.276149 74.763579 L 259.276149 74.763579 L 259.276149 77.263579 L 265.276149 77.263579" stroke="gray" fill="white" stroke-width="1px"></path><path d="M 271.276149 77.263579 L 271.276149 74.763579 L 265.276149 74.763579 L 265.276149 77.263579 L 271.276149 77.263579" stroke="gray" fill="white" stroke-width="1px"></path><path d="M 277.276149 77.263579 L 277.276149 74.763579 L 271.276149 74.763579 L 271.276149 77.263579 L 277.276149 77.263579" stroke="gray" fill="white" stroke-width="1px"></path><path d="M 210.767652 101.263579 L 210.767652 98.763579 L 204.767652 98.763579 L 204.767652 101.263579 L 210.767652 101.263579" stroke="gray" fill="white" stroke-width="1px"></path><path d="M 216.767652 101.263579 L 216.767652 98.763579 L 210.767652 98.763579 L 210.767652 101.263579 L 216.767652 101.263579" stroke="gray" fill="white" stroke-width="1px"></path><path d="M 222.767652 101.263579 L 222.767652 98.763579 L 216.767652 98.763579 L 216.767652 101.263579 L 222.767652 101.263579" stroke="gray" fill="white" stroke-width="1px"></path><path d="M 228.767652 101.263579 L 228.767652 98.763579 L 222.767652 98.763579 L 222.767652 101.263579 L 228.767652 101.263579" stroke="gray" fill="white" stroke-width="1px"></path><path d="M 234.767652 101.263579 L 234.767652 98.763579 L 228.767652 98.763579 L 228.767652 101.263579 L 234.767652 101.263579" stroke="gray" fill="white" stroke-width="1px"></path><path d="M 213.765463 89.263579 L 213.765463 86.763579 L 207.765463 86.763579 L 207.765463 89.263579 L 213.765463 89.263579" stroke="gray" fill="white" stroke-width="1px"></path><path d="M 219.765463 89.263579 L 219.765463 86.763579 L 213.765463 86.763579 L 213.765463 89.263579 L 219.765463 89.263579" stroke="gray" fill="white" stroke-width="1px"></path><path d="M 225.765463 89.263579 L 225.765463 86.763579 L 219.765463 86.763579 L 219.765463 89.263579 L 225.765463 89.263579" stroke="gray" fill="white" stroke-width="1px"></path><path d="M 231.765463 89.263579 L 231.765463 86.763579 L 225.765463 86.763579 L 225.765463 89.263579 L 231.765463 89.263579" stroke="gray" fill="white" stroke-width="1px"></path><path d="M 237.765463 89.263579 L 237.765463 86.763579 L 231.765463 86.763579 L 231.765463 89.263579 L 237.765463 89.263579" stroke="gray" fill="white" stroke-width="1px"></path><path d="M 22.000000 101.263579 L 22.000000 98.763579 L 16.000000 98.763579 L 16.000000 101.263579 L 22.000000 101.263579" stroke="gray" fill="white" stroke-width="1px"></path><path d="M 28.000000 101.263579 L 28.000000 98.763579 L 22.000000 98.763579 L 22.000000 101.263579 L 28.000000 101.263579" stroke="gray" fill="white" stroke-width="1px"></path><path d="M 34.000000 101.263579 L 34.000000 98.763579 L 28.000000 98.763579 L 28.000000 101.263579 L 34.000000 101.263579" stroke="gray" fill="white" stroke-width="1px"></path><path d="M 40.000000 101.263579 L 40.000000 98.763579 L 34.000000 98.763579 L 34.000000 101.263579 L 40.000000 101.263579" stroke="gray" fill="white" stroke-width="1px"></path><path d="M 22.000000 89.263579 L 22.000000 86.763579 L 16.000000 86.763579 L 16.000000 89.263579 L 22.000000 89.263579" stroke="gray" fill="white" stroke-width="1px"></path><path d="M 28.000000 89.263579 L 28.000000 86.763579 L 22.000000 86.763579 L 22.000000 89.263579 L 28.000000 89.263579" stroke="gray" fill="white" stroke-width="1px"></path><path d="M 34.000000 89.263579 L 34.000000 86.763579 L 28.000000 86.763579 L 28.000000 89.263579 L 34.000000 89.263579" stroke="gray" fill="white" stroke-width="1px"></path><path d="M 40.000000 89.263579 L 40.000000 86.763579 L 34.000000 86.763579 L 34.000000 89.263579 L 40.000000 89.263579" stroke="gray" fill="white" stroke-width="1px"></path><path d="M 22.000000 77.263579 L 22.000000 74.763579 L 16.000000 74.763579 L 16.000000 77.263579 L 22.000000 77.263579" stroke="gray" fill="white" stroke-width="1px"></path><path d="M 28.000000 77.263579 L 28.000000 74.763579 L 22.000000 74.763579 L 22.000000 77.263579 L 28.000000 77.263579" stroke="gray" fill="white" stroke-width="1px"></path><path d="M 34.000000 77.263579 L 34.000000 74.763579 L 28.000000 74.763579 L 28.000000 77.263579 L 34.000000 77.263579" stroke="gray" fill="white" stroke-width="1px"></path><path d="M 40.000000 77.263579 L 40.000000 74.763579 L 34.000000 74.763579 L 34.000000 77.263579 L 40.000000 77.263579" stroke="gray" fill="white" stroke-width="1px"></path><path d="M 34.000000 65.263579 L 34.000000 62.763579 L 28.000000 62.763579 L 28.000000 65.263579 L 34.000000 65.263579" stroke="gray" fill="white" stroke-width="1px"></path><path d="M 40.000000 65.263579 L 40.000000 62.763579 L 34.000000 62.763579 L 34.000000 65.263579 L 40.000000 65.263579" stroke="gray" fill="white" stroke-width="1px"></path><path d="M 256.335105 101.263579 L 256.335105 103.763579 L 250.335105 103.763579 L 250.335105 101.263579 L 256.335105 101.263579" stroke="gray" fill="white" stroke-width="1px"></path><path d="M 262.335105 101.263579 L 262.335105 103.763579 L 256.335105 103.763579 L 256.335105 101.263579 L 262.335105 101.263579" stroke="gray" fill="white" stroke-width="1px"></path><path d="M 268.335105 101.263579 L 268.335105 103.763579 L 262.335105 103.763579 L 262.335105 101.263579 L 268.335105 101.263579" stroke="gray" fill="white" stroke-width="1px"></path><path d="M 274.335105 101.263579 L 274.335105 103.763579 L 268.335105 103.763579 L 268.335105 101.263579 L 274.335105 101.263579" stroke="gray" fill="white" stroke-width="1px"></path><path d="M 254.805627 89.263579 L 254.805627 91.763579 L 248.805627 91.763579 L 248.805627 89.263579 L 254.805627 89.263579" stroke="gray" fill="white" stroke-width="1px"></path><path d="M 260.805627 89.263579 L 260.805627 91.763579 L 254.805627 91.763579 L 254.805627 89.263579 L 260.805627 89.263579" stroke="gray" fill="white" stroke-width="1px"></path><path d="M 266.805627 89.263579 L 266.805627 91.763579 L 260.805627 91.763579 L 260.805627 89.263579 L 266.805627 89.263579" stroke="gray" fill="white" stroke-width="1px"></path><path d="M 272.805627 89.263579 L 272.805627 91.763579 L 266.805627 91.763579 L 266.805627 89.263579 L 272.805627 89.263579" stroke="gray" fill="white" stroke-width="1px"></path><path d="M 278.805627 89.263579 L 278.805627 91.763579 L 272.805627 91.763579 L 272.805627 89.263579 L 278.805627 89.263579" stroke="gray" fill="white" stroke-width="1px"></path><path d="M 253.276149 77.263579 L 253.276149 79.763579 L 247.276149 79.763579 L 247.276149 77.263579 L 253.276149 77.263579" stroke="gray" fill="white" stroke-width="1px"></path><path d="M 259.276149 77.263579 L 259.276149 79.763579 L 253.276149 79.763579 L 253.276149 77.263579 L 259.276149 77.263579" stroke="gray" fill="white" stroke-width="1px"></path><path d="M 265.276149 77.263579 L 265.276149 79.763579 L 259.276149 79.763579 L 259.276149 77.263579 L 265.276149 77.263579" stroke="gray" fill="white" stroke-width="1px"></path><path d="M 271.276149 77.263579 L 271.276149 79.763579 L 265.276149 79.763579 L 265.276149 77.263579 L 271.276149 77.263579" stroke="gray" fill="white" stroke-width="1px"></path><path d="M 277.276149 77.263579 L 277.276149 79.763579 L 271.276149 79.763579 L 271.276149 77.263579 L 277.276149 77.263579" stroke="gray" fill="white" stroke-width="1px"></path><path d="M 210.767652 101.263579 L 210.767652 103.763579 L 204.767652 103.763579 L 204.767652 101.263579 L 210.767652 101.263579" stroke="gray" fill="white" stroke-width="1px"></path><path d="M 216.767652 101.263579 L 216.767652 103.763579 L 210.767652 103.763579 L 210.767652 101.263579 L 216.767652 101.263579" stroke="gray" fill="white" stroke-width="1px"></path><path d="M 222.767652 101.263579 L 222.767652 103.763579 L 216.767652 103.763579 L 216.767652 101.263579 L 222.767652 101.263579" stroke="gray" fill="white" stroke-width="1px"></path><path d="M 228.767652 101.263579 L 228.767652 103.763579 L 222.767652 103.763579 L 222.767652 101.263579 L 228.767652 101.263579" stroke="gray" fill="white" stroke-width="1px"></path><path d="M 234.767652 101.263579 L 234.767652 103.763579 L 228.767652 103.763579 L 228.767652 101.263579 L 234.767652 101.263579" stroke="gray" fill="white" stroke-width="1px"></path><path d="M 213.765463 89.263579 L 213.765463 91.763579 L 207.765463 91.763579 L 207.765463 89.263579 L 213.765463 89.263579" stroke="gray" fill="white" stroke-width="1px"></path><path d="M 219.765463 89.263579 L 219.765463 91.763579 L 213.765463 91.763579 L 213.765463 89.263579 L 219.765463 89.263579" stroke="gray" fill="white" stroke-width="1px"></path><path d="M 225.765463 89.263579 L 225.765463 91.763579 L 219.765463 91.763579 L 219.765463 89.263579 L 225.765463 89.263579" stroke="gray" fill="white" stroke-width="1px"></path><path d="M 231.765463 89.263579 L 231.765463 91.763579 L 225.765463 91.763579 L 225.765463 89.263579 L 231.765463 89.263579" stroke="gray" fill="white" stroke-width="1px"></path><path d="M 237.765463 89.263579 L 237.765463 91.763579 L 231.765463 91.763579 L 231.765463 89.263579 L 237.765463 89.263579" stroke="gray" fill="white" stroke-width="1px"></path><path d="M 22.000000 101.263579 L 22.000000 103.763579 L 16.000000 103.763579 L 16.000000 101.263579 L 22.000000 101.263579" stroke="gray" fill="white" stroke-width="1px"></path><path d="M 28.000000 101.263579 L 28.000000 103.763579 L 22.000000 103.763579 L 22.000000 101.263579 L 28.000000 101.263579" stroke="gray" fill="white" stroke-width="1px"></path><path d="M 34.000000 101.263579 L 34.000000 103.763579 L 28.000000 103.763579 L 28.000000 101.263579 L 34.000000 101.263579" stroke="gray" fill="white" stroke-width="1px"></path><path d="M 40.000000 101.263579 L 40.000000 103.763579 L 34.000000 103.763579 L 34.000000 101.263579 L 40.000000 101.263579" stroke="gray" fill="white" stroke-width="1px"></path><path d="M 22.000000 89.263579 L 22.000000 91.763579 L 16.000000 91.763579 L 16.000000 89.263579 L 22.000000 89.263579" stroke="gray" fill="white" stroke-width="1px"></path><path d="M 28.000000 89.263579 L 28.000000 91.763579 L 22.000000 91.763579 L 22.000000 89.263579 L 28.000000 89.263579" stroke="gray" fill="white" stroke-width="1px"></path><path d="M 34.000000 89.263579 L 34.000000 91.763579 L 28.000000 91.763579 L 28.000000 89.263579 L 34.000000 89.263579" stroke="gray" fill="white" stroke-width="1px"></path><path d="M 40.000000 89.263579 L 40.000000 91.763579 L 34.000000 91.763579 L 34.000000 89.263579 L 40.000000 89.263579" stroke="gray" fill="white" stroke-width="1px"></path><path d="M 22.000000 77.263579 L 22.000000 79.763579 L 16.000000 79.763579 L 16.000000 77.263579 L 22.000000 77.263579" stroke="gray" fill="white" stroke-width="1px"></path><path d="M 28.000000 77.263579 L 28.000000 79.763579 L 22.000000 79.763579 L 22.000000 77.263579 L 28.000000 77.263579" stroke="gray" fill="white" stroke-width="1px"></path><path d="M 34.000000 77.263579 L 34.000000 79.763579 L 28.000000 79.763579 L 28.000000 77.263579 L 34.000000 77.263579" stroke="gray" fill="white" stroke-width="1px"></path><path d="M 40.000000 77.263579 L 40.000000 79.763579 L 34.000000 79.763579 L 34.000000 77.263579 L 40.000000 77.263579" stroke="gray" fill="white" stroke-width="1px"></path><path d="M 28.000000 65.263579 L 28.000000 67.763579 L 22.000000 67.763579 L 22.000000 65.263579 L 28.000000 65.263579" stroke="gray" fill="white" stroke-width="1px"></path><path d="M 34.000000 65.263579 L 34.000000 67.763579 L 28.000000 67.763579 L 28.000000 65.263579 L 34.000000 65.263579" stroke="gray" fill="white" stroke-width="1px"></path><path d="M 40.000000 65.263579 L 40.000000 67.763579 L 34.000000 67.763579 L 34.000000 65.263579 L 40.000000 65.263579" stroke="gray" fill="white" stroke-width="1px"></path></g><g id="crv-base"><path d="M 221.371570 123.090312 L 221.371570 169.241094 L 120.000633 169.241094 L 120.000633 156.444206 L 126.051258 156.444206 L 126.051258 128.832500 L 123.590320 128.832500 L 123.590320 125.551250 L 126.051258 125.551250 L 126.051258 123.858132 L 91.315945 123.858125 L 91.315945 134.738750 L 64.258762 134.738750 L 64.258762 123.687497 L 10.000000 123.687497 L 10.000000 226.180625 L 64.258758 226.180625 L 64.258758 192.357500 L 91.315945 192.357500 L 91.315945 220.123437 L 283.459383 220.123437 L 283.459383 123.090312 L 221.371570 123.090312" stroke="black" fill="none" stroke-width="1px"></path><path d="M 221.371570 10.000000 L 221.371570 56.150781 L 120.000633 56.150781 L 120.000633 43.353893 L 126.051258 43.353893 L 126.051258 15.742187 L 123.590320 15.742187 L 123.590320 12.460937 L 126.051258 12.460937 L 126.051258 10.767819 L 91.315945 10.767812 L 91.315945 21.648438 L 64.258762 21.648438 L 64.258762 10.597185 L 10.000000 10.597185 L 10.000000 113.090312 L 64.258758 113.090312 L 64.258758 79.267187 L 91.315945 79.267187 L 91.315945 107.033125 L 283.459383 107.033125 L 283.459383 10.000000 L 221.371570 10.000000" stroke="black" fill="none" stroke-width="1px"></path><path d="M 10.387195 156.559062 L 10.387195 154.590312 L 12.355945 154.590312 L 12.355945 156.559062 L 10.387195 156.559062" stroke="black" fill="white" stroke-width="1px"></path><path d="M 10.387195 43.468750 L 10.387195 41.500000 L 12.355945 41.500000 L 12.355945 43.468750 L 10.387195 43.468750" stroke="black" fill="white" stroke-width="1px"></path><path d="M 10.387195 188.059062 L 10.387195 186.090312 L 12.355945 186.090312 L 12.355945 188.059062 L 10.387195 188.059062" stroke="black" fill="white" stroke-width="1px"></path><path d="M 10.387195 74.968750 L 10.387195 73.000000 L 12.355945 73.000000 L 12.355945 74.968750 L 10.387195 74.968750" stroke="black" fill="white" stroke-width="1px"></path><path d="M 10.387195 219.559062 L 10.387195 217.590312 L 12.355945 217.590312 L 12.355945 219.559062 L 10.387195 219.559062" stroke="black" fill="white" stroke-width="1px"></path><path d="M 10.387195 106.468750 L 10.387195 104.500000 L 12.355945 104.500000 L 12.355945 106.468750 L 10.387195 106.468750" stroke="black" fill="white" stroke-width="1px"></path><path d="M 60.754383 128.340312 L 60.754383 125.387187 L 63.871570 125.387187 L 63.871570 128.340312 L 60.754383 128.340312" stroke="black" fill="white" stroke-width="1px"></path><path d="M 60.754383 15.250000 L 60.754383 12.296875 L 63.871570 12.296875 L 63.871570 15.250000 L 60.754383 15.250000" stroke="black" fill="white" stroke-width="1px"></path><path d="M 280.598133 219.230937 L 280.598133 217.262187 L 282.566883 217.262187 L 282.566883 219.230937 L 280.598133 219.230937" stroke="black" fill="white" stroke-width="1px"></path><path d="M 280.598133 106.140625 L 280.598133 104.171875 L 282.566883 104.171875 L 282.566883 106.140625 L 280.598133 106.140625" stroke="black" fill="white" stroke-width="1px"></path><path d="M 280.598133 188.059062 L 280.598133 186.090312 L 282.566883 186.090312 L 282.566883 188.059062 L 280.598133 188.059062" stroke="black" fill="white" stroke-width="1px"></path><path d="M 280.598133 74.968750 L 280.598133 73.000000 L 282.566883 73.000000 L 282.566883 74.968750 L 280.598133 74.968750" stroke="black" fill="white" stroke-width="1px"></path><path d="M 280.598133 156.559050 L 280.598133 154.590300 L 282.566883 154.590300 L 282.566883 156.559050 L 280.598133 156.559050" stroke="black" fill="white" stroke-width="1px"></path><path d="M 280.598133 43.468737 L 280.598133 41.499987 L 282.566883 41.499987 L 282.566883 43.468737 L 280.598133 43.468737" stroke="black" fill="white" stroke-width="1px"></path><path d="M 248.605945 127.355937 L 248.605945 123.418437 L 251.887195 123.418437 L 251.887195 127.355937 L 248.605945 127.355937" stroke="black" fill="white" stroke-width="1px"></path><path d="M 248.605945 14.265625 L 248.605945 10.328125 L 251.887195 10.328125 L 251.887195 14.265625 L 248.605945 14.265625" stroke="black" fill="white" stroke-width="1px"></path><path d="M 248.605945 157.871562 L 248.605945 153.934062 L 251.887195 153.934062 L 251.887195 157.871562 L 248.605945 157.871562" stroke="black" fill="white" stroke-width="1px"></path><path d="M 248.605945 44.781250 L 248.605945 40.843750 L 251.887195 40.843750 L 251.887195 44.781250 L 248.605945 44.781250" stroke="black" fill="white" stroke-width="1px"></path><path d="M 248.605945 189.043437 L 248.605945 185.105937 L 251.887195 185.105937 L 251.887195 189.043437 L 248.605945 189.043437" stroke="black" fill="white" stroke-width="1px"></path><path d="M 248.605945 75.953125 L 248.605945 72.015625 L 251.887195 72.015625 L 251.887195 75.953125 L 248.605945 75.953125" stroke="black" fill="white" stroke-width="1px"></path><path d="M 248.934070 219.230937 L 248.934070 216.277812 L 251.887195 216.277812 L 251.887195 219.230937 L 248.934070 219.230937" stroke="black" fill="white" stroke-width="1px"></path><path d="M 248.934070 106.140625 L 248.934070 103.187500 L 251.887195 103.187500 L 251.887195 106.140625 L 248.934070 106.140625" stroke="black" fill="white" stroke-width="1px"></path><path d="M 218.090320 189.043437 L 218.090320 185.105937 L 221.371570 185.105937 L 221.371570 189.043437 L 218.090320 189.043437" stroke="black" fill="white" stroke-width="1px"></path><path d="M 218.090320 75.953125 L 218.090320 72.015625 L 221.371570 72.015625 L 221.371570 75.953125 L 218.090320 75.953125" stroke="black" fill="white" stroke-width="1px"></path><path d="M 218.254383 219.230937 L 218.254383 216.277812 L 221.207508 216.277812 L 221.207508 219.230937 L 218.254383 219.230937" stroke="black" fill="white" stroke-width="1px"></path><path d="M 218.254383 106.140625 L 218.254383 103.187500 L 221.207508 103.187500 L 221.207508 106.140625 L 218.254383 106.140625" stroke="black" fill="white" stroke-width="1px"></path><path d="M 186.590320 189.043437 L 186.590320 185.105937 L 189.871570 185.105937 L 189.871570 189.043437 L 186.590320 189.043437" stroke="black" fill="white" stroke-width="1px"></path><path d="M 186.590320 75.953125 L 186.590320 72.015625 L 189.871570 72.015625 L 189.871570 75.953125 L 186.590320 75.953125" stroke="black" fill="white" stroke-width="1px"></path><path d="M 186.754383 219.230937 L 186.754383 216.277812 L 189.707508 216.277812 L 189.707508 219.230937 L 186.754383 219.230937" stroke="black" fill="white" stroke-width="1px"></path><path d="M 186.754383 106.140625 L 186.754383 103.187500 L 189.707508 103.187500 L 189.707508 106.140625 L 186.754383 106.140625" stroke="black" fill="white" stroke-width="1px"></path><path d="M 155.090320 189.043437 L 155.090320 185.105937 L 158.371570 185.105937 L 158.371570 189.043437 L 155.090320 189.043437" stroke="black" fill="white" stroke-width="1px"></path><path d="M 155.090320 75.953125 L 155.090320 72.015625 L 158.371570 72.015625 L 158.371570 75.953125 L 155.090320 75.953125" stroke="black" fill="white" stroke-width="1px"></path><path d="M 155.254383 219.230937 L 155.254383 216.277812 L 158.207508 216.277812 L 158.207508 219.230937 L 155.254383 219.230937" stroke="black" fill="white" stroke-width="1px"></path><path d="M 155.254383 106.140625 L 155.254383 103.187500 L 158.207508 103.187500 L 158.207508 106.140625 L 155.254383 106.140625" stroke="black" fill="white" stroke-width="1px"></path><path d="M 123.590320 189.043437 L 123.590320 185.105937 L 126.871570 185.105937 L 126.871570 189.043437 L 123.590320 189.043437" stroke="black" fill="white" stroke-width="1px"></path><path d="M 123.590320 75.953125 L 123.590320 72.015625 L 126.871570 72.015625 L 126.871570 75.953125 L 123.590320 75.953125" stroke="black" fill="white" stroke-width="1px"></path><path d="M 123.754383 219.230937 L 123.754383 216.277812 L 126.707508 216.277812 L 126.707508 219.230937 L 123.754383 219.230937" stroke="black" fill="white" stroke-width="1px"></path><path d="M 123.754383 106.140625 L 123.754383 103.187500 L 126.707508 103.187500 L 126.707508 106.140625 L 123.754383 106.140625" stroke="black" fill="white" stroke-width="1px"></path><path d="M 92.090320 157.543437 L 92.090320 153.605937 L 95.371570 153.605937 L 95.371570 157.543437 L 92.090320 157.543437" stroke="black" fill="white" stroke-width="1px"></path><path d="M 92.090320 44.453125 L 92.090320 40.515625 L 95.371570 40.515625 L 95.371570 44.453125 L 92.090320 44.453125" stroke="black" fill="white" stroke-width="1px"></path><path d="M 92.090320 189.043437 L 92.090320 185.105937 L 95.371570 185.105937 L 95.371570 189.043437 L 92.090320 189.043437" stroke="black" fill="white" stroke-width="1px"></path><path d="M 92.090320 75.953125 L 92.090320 72.015625 L 95.371570 72.015625 L 95.371570 75.953125 L 92.090320 75.953125" stroke="black" fill="white" stroke-width="1px"></path><path d="M 92.090320 128.504375 L 92.090320 125.551250 L 95.207508 125.551250 L 95.207508 128.504375 L 92.090320 128.504375" stroke="black" fill="white" stroke-width="1px"></path><path d="M 92.090320 15.414062 L 92.090320 12.460937 L 95.207508 12.460937 L 95.207508 15.414062 L 92.090320 15.414062" stroke="black" fill="white" stroke-width="1px"></path><path d="M 60.590320 157.215312 L 60.590320 153.934062 L 63.871570 153.934062 L 63.871570 157.215312 L 60.590320 157.215312" stroke="black" fill="white" stroke-width="1px"></path><path d="M 60.590320 44.125000 L 60.590320 40.843750 L 63.871570 40.843750 L 63.871570 44.125000 L 60.590320 44.125000" stroke="black" fill="white" stroke-width="1px"></path><path d="M 60.754383 219.230937 L 60.754383 216.277812 L 63.871570 216.277812 L 63.871570 219.230937 L 60.754383 219.230937" stroke="black" fill="white" stroke-width="1px"></path><path d="M 60.754383 106.140625 L 60.754383 103.187500 L 63.871570 103.187500 L 63.871570 106.140625 L 60.754383 106.140625" stroke="black" fill="white" stroke-width="1px"></path><path d="M 30.074695 128.504375 L 30.074695 125.223125 L 33.027820 125.223125 L 33.027820 128.504375 L 30.074695 128.504375" stroke="black" fill="white" stroke-width="1px"></path><path d="M 30.074695 15.414062 L 30.074695 12.132812 L 33.027820 12.132812 L 33.027820 15.414062 L 30.074695 15.414062" stroke="black" fill="white" stroke-width="1px"></path><path d="M 30.074695 157.215312 L 30.074695 153.934062 L 33.355945 153.934062 L 33.355945 157.215312 L 30.074695 157.215312" stroke="black" fill="white" stroke-width="1px"></path><path d="M 30.074695 44.125000 L 30.074695 40.843750 L 33.355945 40.843750 L 33.355945 44.125000 L 30.074695 44.125000" stroke="black" fill="white" stroke-width="1px"></path><path d="M 30.074695 188.715312 L 30.074695 185.434062 L 33.355945 185.434062 L 33.355945 188.715312 L 30.074695 188.715312" stroke="black" fill="white" stroke-width="1px"></path><path d="M 30.074695 75.625000 L 30.074695 72.343750 L 33.355945 72.343750 L 33.355945 75.625000 L 30.074695 75.625000" stroke="black" fill="white" stroke-width="1px"></path><path d="M 30.074695 219.230937 L 30.074695 216.277812 L 33.027820 216.277812 L 33.027820 219.230937 L 30.074695 219.230937" stroke="black" fill="white" stroke-width="1px"></path><path d="M 30.074695 106.140625 L 30.074695 103.187500 L 33.027820 103.187500 L 33.027820 106.140625 L 30.074695 106.140625" stroke="black" fill="white" stroke-width="1px"></path><path d="M 10.387195 127.191875 L 10.387195 125.223125 L 12.355945 125.223125 L 12.355945 127.191875 L 10.387195 127.191875" stroke="black" fill="white" stroke-width="1px"></path><path d="M 10.387195 14.101562 L 10.387195 12.132812 L 12.355945 12.132812 L 12.355945 14.101562 L 10.387195 14.101562" stroke="black" fill="white" stroke-width="1px"></path><path d="M 60.590320 189.863750 L 60.590320 185.434062 L 63.871570 185.434062 L 63.871570 188.715312 L 62.230945 188.715312 L 62.230945 189.863750 L 60.590320 189.863750" stroke="black" fill="white" stroke-width="1px"></path><path d="M 60.590320 76.773437 L 60.590320 72.343750 L 63.871570 72.343750 L 63.871570 75.625000 L 62.230945 75.625000 L 62.230945 76.773437 L 60.590320 76.773437" stroke="black" fill="white" stroke-width="1px"></path></g></svg>