<svg width="293.459383" height="236.180625" xmlns="http://www.w3.org/2000/svg" xmlns:xlink="http://www.w3.org/1999/xlink" version="1.1"><g id="crv-background"><path d="M 221.371570 123.090312 L 221.371570 169.241094 L 120.000633 169.241094 L 120.000633 156.444206 L 126.051258 156.444206 L 126.051258 128.832500 L 123.590320 128.832500 L 123.590320 125.551250 L 126.051258 125.551250 L 126.051258 123.858132 L 91.315945 123.858125 L 91.315945 134.738750 L 64.258762 134.738750 L 64.258762 123.687497 L 10.000000 123.687497 L 10.000000 226.180625 L 64.258758 226.180625 L 64.258758 192.357500 L 91.315945 192.357500 L 91.315945 220.123437 L 283.459383 220.123437 L 283.459383 123.090312 L 221.371570 123.090312" stroke="none" fill="white" stroke-width="1px"></path><path d="M 221.371570 10.000000 L 221.371570 56.150781 L 120.000633 56.150781 L 120.000633 43.353893 L 126.051258 43.353893 L 126.051258 15.742187 L 123.590320 15.742187 L 123.590320 12.460937 L 126.051258 12.460937 L 126.051258 10.767819 L 91.315945 10.767812 L 91.315945 21.648438 L 64.258762 21.648438 L 64.258762 10.597185 L 10.000000 10.597185 L 10.000000 113.090312 L 64.258758 113.090312 L 64.258758 79.267187 L 91.315945 79.267187 L 91.315945 107.033125 L 283.459383 107.033125 L 283.459383 10.000000 L 221.371570 10.000000" stroke="none" fill="white" stroke-width="1px"></path></g><g id="crv-nbhd"><path d="M 221.737654 10.000004 L 221.737654 30.540393 L 221.737654 51.080782 L 231.011589 53.004519 L 240.285524 54.928256 L 261.872453 52.043173 L 283.459383 49.158091 L 283.459383 29.579050 L 283.459382 10.000000 L 252.598518 10.000002 L 221.737654 10.000004" stroke="#DD2222" fill="none" stroke-width="1px"></path><path d="M 283.459383 107.033125 L 283.459383 78.095608 L 283.459383 49.158091 L 261.872453 52.043173 L 240.285524 54.928256 L 248.863747 80.980690 L 257.441969 107.033125 L 270.450676 107.033125 L 283.459383 107.033125" stroke="#DD2222" fill="none" stroke-width="1px"></path><path d="M 221.737654 51.080782 L 221.737654 65.116056 L 221.737654 79.151330 L 216.556833 79.151330 L 211.376013 79.151330 L 214.686714 93.092228 L 217.997415 107.033125 L 237.719692 107.033125 L 257.441969 107.033125 L 248.863747 80.980690 L 240.285524 54.928256 L 231.011591 53.004519 L 221.737654 51.080782" stroke="#DD2222" fill="none" stroke-width="1px"></path><path d="M 211.376013 79.151330 L 194.162013 79.151330 L 176.948014 79.151329 L 173.809145 93.092227 L 170.670276 107.033125 L 194.333846 107.033125 L 217.997415 107.033125 L 214.686715 93.092231 L 211.376013 79.151330" stroke="#DD2222" fill="none" stroke-width="1px"></path><path d="M 135.303342 107.033125 L 152.986809 107.033125 L 170.670276 107.033125 L 173.809145 93.092227 L 176.948014 79.151329 L 158.523586 79.151329 L 140.099158 79.151328 L 137.701250 93.092227 L 135.303342 107.033125" stroke="#DD2222" fill="none" stroke-width="1px"></path><path d="M 140.099158 79.151328 L 115.707551 79.151328 L 91.315945 79.151327 L 91.315945 93.092226 L 91.315945 107.033125 L 113.309643 107.033125 L 135.303342 107.033125 L 137.701250 93.092227 L 140.099158 79.151328" stroke="#DD2222" fill="none" stroke-width="1px"></path><path d="M 64.258758 113.090312 L 64.258758 85.918462 L 64.258758 58.746612 L 37.129379 58.848853 L 10.000000 58.951093 L 10.000000 86.020703 L 10.000000 113.090312 L 37.129379 113.090312 L 64.258758 113.090312" stroke="#DD2222" fill="none" stroke-width="1px"></path><path d="M 10.000000 10.597184 L 10.000000 34.774139 L 10.000000 58.951093 L 37.129379 58.848853 L 64.258758 58.746612 L 64.258758 57.448697 L 64.258758 56.150781 L 64.258758 33.373983 L 64.258758 10.597185 L 37.129379 10.597185 L 10.000000 10.597184" stroke="#DD2222" fill="none" stroke-width="1px"></path><path d="M 10.000000 123.687497 L 10.000000 150.447663 L 10.000000 177.207830 L 37.129379 178.921420 L 64.258758 180.635009 L 64.258758 174.938051 L 64.258758 169.241094 L 64.258758 146.464296 L 64.258758 123.687497 L 37.129392 123.687497 L 10.000000 123.687497" stroke="#DD2222" fill="none" stroke-width="1px"></path><path d="M 10.000000 177.207830 L 10.000000 201.694228 L 10.000000 226.180625 L 37.129382 226.180625 L 64.258764 226.180625 L 64.258764 203.407811 L 64.258758 180.635009 L 37.129379 178.921420 L 10.000000 177.207830" stroke="#DD2222" fill="none" stroke-width="1px"></path><path d="M 141.010236 192.043444 L 116.163091 192.043444 L 91.315945 192.043444 L 91.315945 206.083441 L 91.315945 220.123437 L 117.488338 220.123437 L 143.660731 220.123437 L 142.335484 206.083441 L 141.010236 192.043444" stroke="#DD2222" fill="none" stroke-width="1px"></path><path d="M 187.541188 192.043444 L 164.275712 192.043444 L 141.010236 192.043444 L 142.335484 206.083441 L 143.660731 220.123437 L 166.436027 220.123437 L 189.211322 220.123437 L 188.376255 206.083444 L 187.541188 192.043444" stroke="#DD2222" fill="none" stroke-width="1px"></path><path d="M 230.784455 192.043444 L 209.162822 192.043444 L 187.541188 192.043444 L 188.376255 206.083441 L 189.211322 220.123437 L 207.477114 220.123437 L 225.742906 220.123437 L 228.263680 206.083444 L 230.784455 192.043444" stroke="#DD2222" fill="none" stroke-width="1px"></path><path d="M 283.459383 220.123437 L 283.459383 191.826961 L 283.459383 163.530484 L 261.598517 165.093090 L 239.737652 166.655697 L 239.737652 179.349570 L 239.737652 192.043444 L 235.261054 192.043444 L 230.784455 192.043444 L 228.263681 206.083441 L 225.742906 220.123437 L 254.601145 220.123437 L 283.459383 220.123437" stroke="#DD2222" fill="none" stroke-width="1px"></path><path d="M 239.737652 123.090312 L 239.737652 144.873005 L 239.737652 166.655697 L 261.598517 165.093090 L 283.459383 163.530484 L 283.459383 143.310398 L 283.459383 123.090312 L 261.598564 123.090312 L 239.737652 123.090312" stroke="#DD2222" fill="none" stroke-width="1px"></path></g><g id="crv-amen"><path d="M 15.425876 162.448856 L 15.425876 169.160719 L 15.425876 175.872582 L 37.129379 177.243454 L 58.832882 178.614325 L 58.832882 174.056759 L 58.832882 169.499193 L 58.832882 167.344896 L 58.832882 165.190598 L 37.129379 163.819727 L 15.425876 162.448856" stroke="none" fill="#2288CC" stroke-width="1px"></path><path d="M 49.180700 221.572973 L 55.879211 221.572973 L 62.577727 221.572973 L 62.577725 203.354727 L 62.577722 185.136480 L 55.879207 184.713378 L 49.180695 184.290276 L 49.180698 202.931624 L 49.180700 221.572973" stroke="none" fill="#2288CC" stroke-width="1px"></path><path d="M 137.384812 207.123840 L 136.752533 200.425326 L 136.120255 193.726812 L 116.242538 193.726812 L 96.364822 193.726812 L 96.364822 200.425326 L 96.364822 207.123840 L 116.874817 207.123840 L 137.384812 207.123840" stroke="none" fill="#2288CC" stroke-width="1px"></path><path d="M 173.946016 217.315438 L 180.656368 217.315438 L 187.366720 217.315438 L 186.698667 206.083441 L 186.030613 194.851444 L 179.320261 194.851444 L 172.609909 194.851444 L 173.277962 206.083441 L 173.946016 217.315438" stroke="none" fill="#2288CC" stroke-width="1px"></path><path d="M 202.806494 194.851444 L 196.096141 194.851444 L 189.385789 194.851444 L 190.053843 206.083441 L 190.721897 217.315438 L 197.432249 217.315438 L 204.142601 217.315438 L 203.474547 206.083441 L 202.806494 194.851444" stroke="none" fill="#2288CC" stroke-width="1px"></path><path d="M 254.820717 168.506639 L 248.122202 168.985446 L 241.423688 169.464253 L 241.423688 180.939515 L 241.423688 192.414777 L 248.122202 192.414777 L 254.820717 192.414777 L 254.820717 180.460708 L 254.820717 168.506639" stroke="none" fill="#2288CC" stroke-width="1px"></path><path d="M 254.801533 127.387278 L 248.103025 127.387278 L 241.404505 127.387278 L 241.404505 144.813432 L 241.404505 162.239585 L 248.103019 161.760778 L 254.801533 161.281971 L 254.801533 144.334624 L 254.801533 127.387278" stroke="none" fill="#2288CC" stroke-width="1px"></path><path d="M 236.831955 14.284117 L 230.133440 14.284118 L 223.434926 14.284118 L 223.434926 30.716429 L 223.434926 47.148740 L 230.133440 48.538246 L 236.831954 49.927751 L 236.831954 32.105934 L 236.831955 14.284117" stroke="none" fill="#2288CC" stroke-width="1px"></path><path d="M 257.249328 58.219483 L 250.494303 59.122289 L 243.739279 60.025095 L 250.601857 80.867042 L 257.464435 101.708990 L 264.516724 101.708990 L 271.569013 101.708990 L 264.409171 79.964237 L 257.249328 58.219483" stroke="none" fill="#2288CC" stroke-width="1px"></path><path d="M 236.776974 57.202098 L 230.078461 55.812593 L 223.379946 54.423088 L 223.379946 67.110976 L 223.379946 79.798864 L 230.078460 79.798864 L 236.776974 79.798864 L 236.776974 68.500481 L 236.776974 57.202098" stroke="none" fill="#2288CC" stroke-width="1px"></path><path d="M 211.125424 94.279443 L 209.534653 87.580930 L 207.943881 80.882414 L 194.172682 80.882414 L 180.401482 80.882414 L 178.893275 87.580928 L 177.385068 94.279442 L 194.255246 94.279443 L 211.125424 94.279443" stroke="none" fill="#2288CC" stroke-width="1px"></path><path d="M 154.912562 81.939508 L 148.115679 81.939508 L 141.318797 81.939508 L 139.400470 93.092227 L 137.482144 104.244945 L 144.279026 104.244945 L 151.075909 104.244945 L 152.994235 93.092227 L 154.912562 81.939508" stroke="none" fill="#2288CC" stroke-width="1px"></path><path d="M 132.773915 94.206004 L 133.926095 87.507490 L 135.078274 80.808976 L 115.564989 80.808975 L 96.051704 80.808975 L 96.051704 87.507489 L 96.051704 94.206003 L 114.412810 94.206004 L 132.773915 94.206004" stroke="none" fill="#2288CC" stroke-width="1px"></path><path d="M 58.832882 73.838825 L 58.832882 67.140263 L 58.832882 60.441701 L 37.129379 60.523493 L 15.425876 60.605286 L 15.425876 67.303848 L 15.425876 74.002410 L 37.129379 73.920617 L 58.832882 73.838825" stroke="none" fill="#2288CC" stroke-width="1px"></path><path d="M 58.832882 25.668842 L 58.832882 18.970328 L 58.832882 12.271813 L 37.129379 12.271813 L 15.425876 12.271813 L 15.425876 18.970327 L 15.425876 25.668841 L 37.129379 25.668842 L 58.832882 25.668842" stroke="none" fill="#2288CC" stroke-width="1px"></path></g><g id="crv-desk"><path d="M 31.459383 220.180625 L 28.959383 220.180625 L 28.959383 226.180625 L 31.459383 226.180625 L 31.459383 220.180625" stroke="gray" fill="white" stroke-width="1px"></path><path d="M 31.459383 214.180625 L 28.959383 214.180625 L 28.959383 220.180625 L 31.459383 220.180625 L 31.459383 214.180625" stroke="gray" fill="white" stroke-width="1px"></path><path d="M 31.459383 208.180625 L 28.959383 208.180625 L 28.959383 214.180625 L 31.459383 214.180625 L 31.459383 208.180625" stroke="gray" fill="white" stroke-width="1px"></path><path d="M 31.459383 202.180625 L 28.959383 202.180625 L 28.959383 208.180625 L 31.459383 208.180625 L 31.459383 202.180625" stroke="gray" fill="white" stroke-width="1px"></path><path d="M 31.459383 196.180625 L 28.959383 196.180625 L 28.959383 202.180625 L 31.459383 202.180625 L 31.459383 196.180625" stroke="gray" fill="white" stroke-width="1px"></path><path d="M 31.459383 190.180625 L 28.959383 190.180625 L 28.959383 196.180625 L 31.459383 196.180625 L 31.459383 190.180625" stroke="gray" fill="white" stroke-width="1px"></path><path d="M 31.459383 184.180625 L 28.959383 184.180625 L 28.959383 190.180625 L 31.459383 190.180625 L 31.459383 184.180625" stroke="gray" fill="white" stroke-width="1px"></path><path d="M 19.459383 220.180625 L 16.959383 220.180625 L 16.959383 226.180625 L 19.459383 226.180625 L 19.459383 220.180625" stroke="gray" fill="white" stroke-width="1px"></path><path d="M 19.459383 214.180625 L 16.959383 214.180625 L 16.959383 220.180625 L 19.459383 220.180625 L 19.459383 214.180625" stroke="gray" fill="white" stroke-width="1px"></path><path d="M 19.459383 208.180625 L 16.959383 208.180625 L 16.959383 214.180625 L 19.459383 214.180625 L 19.459383 208.180625" stroke="gray" fill="white" stroke-width="1px"></path><path d="M 19.459383 202.180625 L 16.959383 202.180625 L 16.959383 208.180625 L 19.459383 208.180625 L 19.459383 202.180625" stroke="gray" fill="white" stroke-width="1px"></path><path d="M 19.459383 196.180625 L 16.959383 196.180625 L 16.959383 202.180625 L 19.459383 202.180625 L 19.459383 196.180625" stroke="gray" fill="white" stroke-width="1px"></path><path d="M 19.459383 190.180625 L 16.959383 190.180625 L 16.959383 196.180625 L 19.459383 196.180625 L 19.459383 190.180625" stroke="gray" fill="white" stroke-width="1px"></path><path d="M 19.459383 184.180625 L 16.959383 184.180625 L 16.959383 190.180625 L 19.459383 190.180625 L 19.459383 184.180625" stroke="gray" fill="white" stroke-width="1px"></path><path d="M 139.459383 214.123437 L 136.959383 214.123437 L 136.959383 220.123437 L 139.459383 220.123437 L 139.459383 214.123437" stroke="gray" fill="white" stroke-width="1px"></path><path d="M 127.459383 214.123437 L 124.959383 214.123437 L 124.959383 220.123437 L 127.459383 220.123437 L 127.459383 214.123437" stroke="gray" fill="white" stroke-width="1px"></path><path d="M 115.459383 214.123437 L 112.959383 214.123437 L 112.959383 220.123437 L 115.459383 220.123437 L 115.459383 214.123437" stroke="gray" fill="white" stroke-width="1px"></path><path d="M 103.459383 214.123437 L 100.959383 214.123437 L 100.959383 220.123437 L 103.459383 220.123437 L 103.459383 214.123437" stroke="gray" fill="white" stroke-width="1px"></path><path d="M 163.459383 214.123437 L 160.959383 214.123437 L 160.959383 220.123437 L 163.459383 220.123437 L 163.459383 214.123437" stroke="gray" fill="white" stroke-width="1px"></path><path d="M 163.459383 208.123437 L 160.959383 208.123437 L 160.959383 214.123437 L 163.459383 214.123437 L 163.459383 208.123437" stroke="gray" fill="white" stroke-width="1px"></path><path d="M 163.459383 202.123437 L 160.959383 202.123437 L 160.959383 208.123437 L 163.459383 208.123437 L 163.459383 202.123437" stroke="gray" fill="white" stroke-width="1px"></path><path d="M 163.459383 196.123437 L 160.959383 196.123437 L 160.959383 202.123437 L 163.459383 202.123437 L 163.459383 196.123437" stroke="gray" fill="white" stroke-width="1px"></path><path d="M 151.459383 214.123437 L 148.959383 214.123437 L 148.959383 220.123437 L 151.459383 220.123437 L 151.459383 214.123437" stroke="gray" fill="white" stroke-width="1px"></path><path d="M 151.459383 208.123437 L 148.959383 208.123437 L 148.959383 214.123437 L 151.459383 214.123437 L 151.459383 208.123437" stroke="gray" fill="white" stroke-width="1px"></path><path d="M 151.459383 202.123437 L 148.959383 202.123437 L 148.959383 208.123437 L 151.459383 208.123437 L 151.459383 202.123437" stroke="gray" fill="white" stroke-width="1px"></path><path d="M 151.459383 196.123437 L 148.959383 196.123437 L 148.959383 202.123437 L 151.459383 202.123437 L 151.459383 196.123437" stroke="gray" fill="white" stroke-width="1px"></path><path d="M 223.459383 214.123437 L 220.959383 214.123437 L 220.959383 220.123437 L 223.459383 220.123437 L 223.459383 214.123437" stroke="gray" fill="white" stroke-width="1px"></path><path d="M 223.459383 208.123437 L 220.959383 208.123437 L 220.959383 214.123437 L 223.459383 214.123437 L 223.459383 208.123437" stroke="gray" fill="white" stroke-width="1px"></path><path d="M 223.459383 202.123437 L 220.959383 202.123437 L 220.959383 208.123437 L 223.459383 208.123437 L 223.459383 202.123437" stroke="gray" fill="white" stroke-width="1px"></path><path d="M 223.459383 196.123437 L 220.959383 196.123437 L 220.959383 202.123437 L 223.459383 202.123437 L 223.459383 196.123437" stroke="gray" fill="white" stroke-width="1px"></path><path d="M 211.459383 214.123437 L 208.959383 214.123437 L 208.959383 220.123437 L 211.459383 220.123437 L 211.459383 214.123437" stroke="gray" fill="white" stroke-width="1px"></path><path d="M 211.459383 208.123437 L 208.959383 208.123437 L 208.959383 214.123437 L 211.459383 214.123437 L 211.459383 208.123437" stroke="gray" fill="white" stroke-width="1px"></path><path d="M 211.459383 202.123437 L 208.959383 202.123437 L 208.959383 208.123437 L 211.459383 208.123437 L 211.459383 202.123437" stroke="gray" fill="white" stroke-width="1px"></path><path d="M 211.459383 196.123437 L 208.959383 196.123437 L 208.959383 202.123437 L 211.459383 202.123437 L 211.459383 196.123437" stroke="gray" fill="white" stroke-width="1px"></path><path d="M 271.459383 214.123437 L 268.959383 214.123437 L 268.959383 220.123437 L 271.459383 220.123437 L 271.459383 214.123437" stroke="gray" fill="white" stroke-width="1px"></path><path d="M 271.459383 208.123437 L 268.959383 208.123437 L 268.959383 214.123437 L 271.459383 214.123437 L 271.459383 208.123437" stroke="gray" fill="white" stroke-width="1px"></path><path d="M 271.459383 202.123437 L 268.959383 202.123437 L 268.959383 208.123437 L 271.459383 208.123437 L 271.459383 202.123437" stroke="gray" fill="white" stroke-width="1px"></path><path d="M 271.459383 196.123437 L 268.959383 196.123437 L 268.959383 202.123437 L 271.459383 202.123437 L 271.459383 196.123437" stroke="gray" fill="white" stroke-width="1px"></path><path d="M 271.459383 190.123437 L 268.959383 190.123437 L 268.959383 196.123437 L 271.459383 196.123437 L 271.459383 190.123437" stroke="gray" fill="white" stroke-width="1px"></path><path d="M 271.459383 184.123437 L 268.959383 184.123437 L 268.959383 190.123437 L 271.459383 190.123437 L 271.459383 184.123437" stroke="gray" fill="white" stroke-width="1px"></path><path d="M 271.459383 178.123437 L 268.959383 178.123437 L 268.959383 184.123437 L 271.459383 184.123437 L 271.459383 178.123437" stroke="gray" fill="white" stroke-width="1px"></path><path d="M 271.459383 172.123437 L 268.959383 172.123437 L 268.959383 178.123437 L 271.459383 178.123437 L 271.459383 172.123437" stroke="gray" fill="white" stroke-width="1px"></path><path d="M 259.459383 214.123437 L 256.959383 214.123437 L 256.959383 220.123437 L 259.459383 220.123437 L 259.459383 214.123437" stroke="gray" fill="white" stroke-width="1px"></path><path d="M 259.459383 208.123437 L 256.959383 208.123437 L 256.959383 214.123437 L 259.459383 214.123437 L 259.459383 208.123437" stroke="gray" fill="white" stroke-width="1px"></path><path d="M 259.459383 202.123437 L 256.959383 202.123437 L 256.959383 208.123437 L 259.459383 208.123437 L 259.459383 202.123437" stroke="gray" fill="white" stroke-width="1px"></path><path d="M 247.459383 214.123437 L 244.959383 214.123437 L 244.959383 220.123437 L 247.459383 220.123437 L 247.459383 214.123437" stroke="gray" fill="white" stroke-width="1px"></path><path d="M 247.459383 208.123437 L 244.959383 208.123437 L 244.959383 214.123437 L 247.459383 214.123437 L 247.459383 208.123437" stroke="gray" fill="white" stroke-width="1px"></path><path d="M 247.459383 202.123437 L 244.959383 202.123437 L 244.959383 208.123437 L 247.459383 208.123437 L 247.459383 202.123437" stroke="gray" fill="white" stroke-width="1px"></path><path d="M 235.459383 214.123437 L 232.959383 214.123437 L 232.959383 220.123437 L 235.459383 220.123437 L 235.459383 214.123437" stroke="gray" fill="white" stroke-width="1px"></path><path d="M 235.459383 208.123437 L 232.959383 208.123437 L 232.959383 214.123437 L 235.459383 214.123437 L 235.459383 208.123437" stroke="gray" fill="white" stroke-width="1px"></path><path d="M 235.459383 202.123437 L 232.959383 202.123437 L 232.959383 208.123437 L 235.459383 208.123437 L 235.459383 202.123437" stroke="gray" fill="white" stroke-width="1px"></path><path d="M 271.459383 158.388239 L 268.959383 158.388239 L 268.959383 164.388239 L 271.459383 164.388239 L 271.459383 158.388239" stroke="gray" fill="white" stroke-width="1px"></path><path d="M 271.459383 152.388239 L 268.959383 152.388239 L 268.959383 158.388239 L 271.459383 158.388239 L 271.459383 152.388239" stroke="gray" fill="white" stroke-width="1px"></path><path d="M 271.459383 146.388239 L 268.959383 146.388239 L 268.959383 152.388239 L 271.459383 152.388239 L 271.459383 146.388239" stroke="gray" fill="white" stroke-width="1px"></path><path d="M 271.459383 140.388239 L 268.959383 140.388239 L 268.959383 146.388239 L 271.459383 146.388239 L 271.459383 140.388239" stroke="gray" fill="white" stroke-width="1px"></path><path d="M 271.459383 134.388239 L 268.959383 134.388239 L 268.959383 140.388239 L 271.459383 140.388239 L 271.459383 134.388239" stroke="gray" fill="white" stroke-width="1px"></path><path d="M 271.459383 128.388239 L 268.959383 128.388239 L 268.959383 134.388239 L 271.459383 134.388239 L 271.459383 128.388239" stroke="gray" fill="white" stroke-width="1px"></path><path d="M 31.459383 220.180625 L 33.959383 220.180625 L 33.959383 226.180625 L 31.459383 226.180625 L 31.459383 220.180625" stroke="gray" fill="white" stroke-width="1px"></path><path d="M 31.459383 214.180625 L 33.959383 214.180625 L 33.959383 220.180625 L 31.459383 220.180625 L 31.459383 214.180625" stroke="gray" fill="white" stroke-width="1px"></path><path d="M 31.459383 208.180625 L 33.959383 208.180625 L 33.959383 214.180625 L 31.459383 214.180625 L 31.459383 208.180625" stroke="gray" fill="white" stroke-width="1px"></path><path d="M 31.459383 202.180625 L 33.959383 202.180625 L 33.959383 208.180625 L 31.459383 208.180625 L 31.459383 202.180625" stroke="gray" fill="white" stroke-width="1px"></path><path d="M 31.459383 196.180625 L 33.959383 196.180625 L 33.959383 202.180625 L 31.459383 202.180625 L 31.459383 196.180625" stroke="gray" fill="white" stroke-width="1px"></path><path d="M 31.459383 190.180625 L 33.959383 190.180625 L 33.959383 196.180625 L 31.459383 196.180625 L 31.459383 190.180625" stroke="gray" fill="white" stroke-width="1px"></path><path d="M 31.459383 184.180625 L 33.959383 184.180625 L 33.959383 190.180625 L 31.459383 190.180625 L 31.459383 184.180625" stroke="gray" fill="white" stroke-width="1px"></path><path d="M 19.459383 220.180625 L 21.959383 220.180625 L 21.959383 226.180625 L 19.459383 226.180625 L 19.459383 220.180625" stroke="gray" fill="white" stroke-width="1px"></path><path d="M 19.459383 214.180625 L 21.959383 214.180625 L 21.959383 220.180625 L 19.459383 220.180625 L 19.459383 214.180625" stroke="gray" fill="white" stroke-width="1px"></path><path d="M 19.459383 208.180625 L 21.959383 208.180625 L 21.959383 214.180625 L 19.459383 214.180625 L 19.459383 208.180625" stroke="gray" fill="white" stroke-width="1px"></path><path d="M 19.459383 202.180625 L 21.959383 202.180625 L 21.959383 208.180625 L 19.459383 208.180625 L 19.459383 202.180625" stroke="gray" fill="white" stroke-width="1px"></path><path d="M 19.459383 196.180625 L 21.959383 196.180625 L 21.959383 202.180625 L 19.459383 202.180625 L 19.459383 196.180625" stroke="gray" fill="white" stroke-width="1px"></path><path d="M 19.459383 190.180625 L 21.959383 190.180625 L 21.959383 196.180625 L 19.459383 196.180625 L 19.459383 190.180625" stroke="gray" fill="white" stroke-width="1px"></path><path d="M 19.459383 184.180625 L 21.959383 184.180625 L 21.959383 190.180625 L 19.459383 190.180625 L 19.459383 184.180625" stroke="gray" fill="white" stroke-width="1px"></path><path d="M 139.459383 214.123437 L 141.959383 214.123437 L 141.959383 220.123437 L 139.459383 220.123437 L 139.459383 214.123437" stroke="gray" fill="white" stroke-width="1px"></path><path d="M 127.459383 214.123437 L 129.959383 214.123437 L 129.959383 220.123437 L 127.459383 220.123437 L 127.459383 214.123437" stroke="gray" fill="white" stroke-width="1px"></path><path d="M 115.459383 214.123437 L 117.959383 214.123437 L 117.959383 220.123437 L 115.459383 220.123437 L 115.459383 214.123437" stroke="gray" fill="white" stroke-width="1px"></path><path d="M 103.459383 214.123437 L 105.959383 214.123437 L 105.959383 220.123437 L 103.459383 220.123437 L 103.459383 214.123437" stroke="gray" fill="white" stroke-width="1px"></path><path d="M 163.459383 214.123437 L 165.959383 214.123437 L 165.959383 220.123437 L 163.459383 220.123437 L 163.459383 214.123437" stroke="gray" fill="white" stroke-width="1px"></path><path d="M 163.459383 208.123437 L 165.959383 208.123437 L 165.959383 214.123437 L 163.459383 214.123437 L 163.459383 208.123437" stroke="gray" fill="white" stroke-width="1px"></path><path d="M 163.459383 202.123437 L 165.959383 202.123437 L 165.959383 208.123437 L 163.459383 208.123437 L 163.459383 202.123437" stroke="gray" fill="white" stroke-width="1px"></path><path d="M 163.459383 196.123437 L 165.959383 196.123437 L 165.959383 202.123437 L 163.459383 202.123437 L 163.459383 196.123437" stroke="gray" fill="white" stroke-width="1px"></path><path d="M 151.459383 214.123437 L 153.959383 214.123437 L 153.959383 220.123437 L 151.459383 220.123437 L 151.459383 214.123437" stroke="gray" fill="white" stroke-width="1px"></path><path d="M 151.459383 208.123437 L 153.959383 208.123437 L 153.959383 214.123437 L 151.459383 214.123437 L 151.459383 208.123437" stroke="gray" fill="white" stroke-width="1px"></path><path d="M 151.459383 202.123437 L 153.959383 202.123437 L 153.959383 208.123437 L 151.459383 208.123437 L 151.459383 202.123437" stroke="gray" fill="white" stroke-width="1px"></path><path d="M 151.459383 196.123437 L 153.959383 196.123437 L 153.959383 202.123437 L 151.459383 202.123437 L 151.459383 196.123437" stroke="gray" fill="white" stroke-width="1px"></path><path d="M 223.459383 208.123437 L 225.959383 208.123437 L 225.959383 214.123437 L 223.459383 214.123437 L 223.459383 208.123437" stroke="gray" fill="white" stroke-width="1px"></path><path d="M 223.459383 202.123437 L 225.959383 202.123437 L 225.959383 208.123437 L 223.459383 208.123437 L 223.459383 202.123437" stroke="gray" fill="white" stroke-width="1px"></path><path d="M 223.459383 196.123437 L 225.959383 196.123437 L 225.959383 202.123437 L 223.459383 202.123437 L 223.459383 196.123437" stroke="gray" fill="white" stroke-width="1px"></path><path d="M 211.459383 214.123437 L 213.959383 214.123437 L 213.959383 220.123437 L 211.459383 220.123437 L 211.459383 214.123437" stroke="gray" fill="white" stroke-width="1px"></path><path d="M 211.459383 208.123437 L 213.959383 208.123437 L 213.959383 214.123437 L 211.459383 214.123437 L 211.459383 208.123437" stroke="gray" fill="white" stroke-width="1px"></path><path d="M 211.459383 202.123437 L 213.959383 202.123437 L 213.959383 208.123437 L 211.459383 208.123437 L 211.459383 202.123437" stroke="gray" fill="white" stroke-width="1px"></path><path d="M 211.459383 196.123437 L 213.959383 196.123437 L 213.959383 202.123437 L 211.459383 202.123437 L 211.459383 196.123437" stroke="gray" fill="white" stroke-width="1px"></path><path d="M 271.459383 214.123437 L 273.959383 214.123437 L 273.959383 220.123437 L 271.459383 220.123437 L 271.459383 214.123437" stroke="gray" fill="white" stroke-width="1px"></path><path d="M 271.459383 208.123437 L 273.959383 208.123437 L 273.959383 214.123437 L 271.459383 214.123437 L 271.459383 208.123437" stroke="gray" fill="white" stroke-width="1px"></path><path d="M 271.459383 202.123437 L 273.959383 202.123437 L 273.959383 208.123437 L 271.459383 208.123437 L 271.459383 202.123437" stroke="gray" fill="white" stroke-width="1px"></path><path d="M 271.459383 196.123437 L 273.959383 196.123437 L 273.959383 202.123437 L 271.459383 202.123437 L 271.459383 196.123437" stroke="gray" fill="white" stroke-width="1px"></path><path d="M 271.459383 190.123437 L 273.959383 190.123437 L 273.959383 196.123437 L 271.459383 196.123437 L 271.459383 190.123437" stroke="gray" fill="white" stroke-width="1px"></path><path d="M 271.459383 184.123437 L 273.959383 184.123437 L 273.959383 190.123437 L 271.459383 190.123437 L 271.459383 184.123437" stroke="gray" fill="white" stroke-width="1px"></path><path d="M 271.459383 178.123437 L 273.959383 178.123437 L 273.959383 184.123437 L 271.459383 184.123437 L 271.459383 178.123437" stroke="gray" fill="white" stroke-width="1px"></path><path d="M 271.459383 172.123437 L 273.959383 172.123437 L 273.959383 178.123437 L 271.459383 178.123437 L 271.459383 172.123437" stroke="gray" fill="white" stroke-width="1px"></path><path d="M 259.459383 214.123437 L 261.959383 214.123437 L 261.959383 220.123437 L 259.459383 220.123437 L 259.459383 214.123437" stroke="gray" fill="white" stroke-width="1px"></path><path d="M 259.459383 208.123437 L 261.959383 208.123437 L 261.959383 214.123437 L 259.459383 214.123437 L 259.459383 208.123437" stroke="gray" fill="white" stroke-width="1px"></path><path d="M 259.459383 202.123437 L 261.959383 202.123437 L 261.959383 208.123437 L 259.459383 208.123437 L 259.459383 202.123437" stroke="gray" fill="white" stroke-width="1px"></path><path d="M 247.459383 214.123437 L 249.959383 214.123437 L 249.959383 220.123437 L 247.459383 220.123437 L 247.459383 214.123437" stroke="gray" fill="white" stroke-width="1px"></path><path d="M 247.459383 208.123437 L 249.959383 208.123437 L 249.959383 214.123437 L 247.459383 214.123437 L 247.459383 208.123437" stroke="gray" fill="white" stroke-width="1px"></path><path d="M 247.459383 202.123437 L 249.959383 202.123437 L 249.959383 208.123437 L 247.459383 208.123437 L 247.459383 202.123437" stroke="gray" fill="white" stroke-width="1px"></path><path d="M 235.459383 214.123437 L 237.959383 214.123437 L 237.959383 220.123437 L 235.459383 220.123437 L 235.459383 214.123437" stroke="gray" fill="white" stroke-width="1px"></path><path d="M 235.459383 208.123437 L 237.959383 208.123437 L 237.959383 214.123437 L 235.459383 214.123437 L 235.459383 208.123437" stroke="gray" fill="white" stroke-width="1px"></path><path d="M 235.459383 202.123437 L 237.959383 202.123437 L 237.959383 208.123437 L 235.459383 208.123437 L 235.459383 202.123437" stroke="gray" fill="white" stroke-width="1px"></path><path d="M 271.459383 158.388239 L 273.959383 158.388239 L 273.959383 164.388239 L 271.459383 164.388239 L 271.459383 158.388239" stroke="gray" fill="white" stroke-width="1px"></path><path d="M 271.459383 152.388239 L 273.959383 152.388239 L 273.959383 158.388239 L 271.459383 158.388239 L 271.459383 152.388239" stroke="gray" fill="white" stroke-width="1px"></path><path d="M 271.459383 146.388239 L 273.959383 146.388239 L 273.959383 152.388239 L 271.459383 152.388239 L 271.459383 146.388239" stroke="gray" fill="white" stroke-width="1px"></path><path d="M 271.459383 140.388239 L 273.959383 140.388239 L 273.959383 146.388239 L 271.459383 146.388239 L 271.459383 140.388239" stroke="gray" fill="white" stroke-width="1px"></path><path d="M 271.459383 134.388239 L 273.959383 134.388239 L 273.959383 140.388239 L 271.459383 140.388239 L 271.459383 134.388239" stroke="gray" fill="white" stroke-width="1px"></path><path d="M 271.459383 128.388239 L 273.959383 128.388239 L 273.959383 134.388239 L 271.459383 134.388239 L 271.459383 128.388239" stroke="gray" fill="white" stroke-width="1px"></path><path d="M 22.000000 148.123437 L 22.000000 145.623437 L 16.000000 145.623437 L 16.000000 148.123437 L 22.000000 148.123437" stroke="gray" fill="white" stroke-width="1px"></path><path d="M 28.000000 148.123437 L 28.000000 145.623437 L 22.000000 145.623437 L 22.000000 148.123437 L 28.000000 148.123437" stroke="gray" fill="white" stroke-width="1px"></path><path d="M 34.000000 148.123437 L 34.000000 145.623437 L 28.000000 145.623437 L 28.000000 148.123437 L 34.000000 148.123437" stroke="gray" fill="white" stroke-width="1px"></path><path d="M 40.000000 148.123437 L 40.000000 145.623437 L 34.000000 145.623437 L 34.000000 148.123437 L 40.000000 148.123437" stroke="gray" fill="white" stroke-width="1px"></path><path d="M 46.000000 148.123437 L 46.000000 145.623437 L 40.000000 145.623437 L 40.000000 148.123437 L 46.000000 148.123437" stroke="gray" fill="white" stroke-width="1px"></path><path d="M 52.000000 148.123437 L 52.000000 145.623437 L 46.000000 145.623437 L 46.000000 148.123437 L 52.000000 148.123437" stroke="gray" fill="white" stroke-width="1px"></path><path d="M 58.000000 148.123437 L 58.000000 145.623437 L 52.000000 145.623437 L 52.000000 148.123437 L 58.000000 148.123437" stroke="gray" fill="white" stroke-width="1px"></path><path d="M 22.000000 136.123437 L 22.000000 133.623437 L 16.000000 133.623437 L 16.000000 136.123437 L 22.000000 136.123437" stroke="gray" fill="white" stroke-width="1px"></path><path d="M 28.000000 136.123437 L 28.000000 133.623437 L 22.000000 133.623437 L 22.000000 136.123437 L 28.000000 136.123437" stroke="gray" fill="white" stroke-width="1px"></path><path d="M 34.000000 136.123437 L 34.000000 133.623437 L 28.000000 133.623437 L 28.000000 136.123437 L 34.000000 136.123437" stroke="gray" fill="white" stroke-width="1px"></path><path d="M 40.000000 136.123437 L 40.000000 133.623437 L 34.000000 133.623437 L 34.000000 136.123437 L 40.000000 136.123437" stroke="gray" fill="white" stroke-width="1px"></path><path d="M 46.000000 136.123437 L 46.000000 133.623437 L 40.000000 133.623437 L 40.000000 136.123437 L 46.000000 136.123437" stroke="gray" fill="white" stroke-width="1px"></path><path d="M 52.000000 136.123437 L 52.000000 133.623437 L 46.000000 133.623437 L 46.000000 136.123437 L 52.000000 136.123437" stroke="gray" fill="white" stroke-width="1px"></path><path d="M 58.000000 136.123437 L 58.000000 133.623437 L 52.000000 133.623437 L 52.000000 136.123437 L 58.000000 136.123437" stroke="gray" fill="white" stroke-width="1px"></path><path d="M 22.000000 148.123437 L 22.000000 150.623437 L 16.000000 150.623437 L 16.000000 148.123437 L 22.000000 148.123437" stroke="gray" fill="white" stroke-width="1px"></path><path d="M 28.000000 148.123437 L 28.000000 150.623437 L 22.000000 150.623437 L 22.000000 148.123437 L 28.000000 148.123437" stroke="gray" fill="white" stroke-width="1px"></path><path d="M 34.000000 148.123437 L 34.000000 150.623437 L 28.000000 150.623437 L 28.000000 148.123437 L 34.000000 148.123437" stroke="gray" fill="white" stroke-width="1px"></path><path d="M 40.000000 148.123437 L 40.000000 150.623437 L 34.000000 150.623437 L 34.000000 148.123437 L 40.000000 148.123437" stroke="gray" fill="white" stroke-width="1px"></path><path d="M 46.000000 148.123437 L 46.000000 150.623437 L 40.000000 150.623437 L 40.000000 148.123437 L 46.000000 148.123437" stroke="gray" fill="white" stroke-width="1px"></path><path d="M 52.000000 148.123437 L 52.000000 150.623437 L 46.000000 150.623437 L 46.000000 148.123437 L 52.000000 148.123437" stroke="gray" fill="white" stroke-width="1px"></path><path d="M 58.000000 148.123437 L 58.000000 150.623437 L 52.000000 150.623437 L 52.000000 148.123437 L 58.000000 148.123437" stroke="gray" fill="white" stroke-width="1px"></path><path d="M 22.000000 136.123437 L 22.000000 138.623437 L 16.000000 138.623437 L 16.000000 136.123437 L 22.000000 136.123437" stroke="gray" fill="white" stroke-width="1px"></path><path d="M 28.000000 136.123437 L 28.000000 138.623437 L 22.000000 138.623437 L 22.000000 136.123437 L 28.000000 136.123437" stroke="gray" fill="white" stroke-width="1px"></path><path d="M 34.000000 136.123437 L 34.000000 138.623437 L 28.000000 138.623437 L 28.000000 136.123437 L 34.000000 136.123437" stroke="gray" fill="white" stroke-width="1px"></path><path d="M 40.000000 136.123437 L 40.000000 138.623437 L 34.000000 138.623437 L 34.000000 136.123437 L 40.000000 136.123437" stroke="gray" fill="white" stroke-width="1px"></path><path d="M 46.000000 136.123437 L 46.000000 138.623437 L 40.000000 138.623437 L 40.000000 136.123437 L 46.000000 136.123437" stroke="gray" fill="white" stroke-width="1px"></path><path d="M 52.000000 136.123437 L 52.000000 138.623437 L 46.000000 138.623437 L 46.000000 136.123437 L 52.000000 136.123437" stroke="gray" fill="white" stroke-width="1px"></path><path d="M 58.000000 136.123437 L 58.000000 138.623437 L 52.000000 138.623437 L 52.000000 136.123437 L 58.000000 136.123437" stroke="gray" fill="white" stroke-width="1px"></path><path d="M 271.459383 44.761885 L 268.959383 44.761885 L 268.959383 50.761885 L 271.459383 50.761885 L 271.459383 44.761885" stroke="gray" fill="white" stroke-width="1px"></path><path d="M 271.459383 38.761885 L 268.959383 38.761885 L 268.959383 44.761885 L 271.459383 44.761885 L 271.459383 38.761885" stroke="gray" fill="white" stroke-width="1px"></path><path d="M 271.459383 32.761885 L 268.959383 32.761885 L 268.959383 38.761885 L 271.459383 38.761885 L 271.459383 32.761885" stroke="gray" fill="white" stroke-width="1px"></path><path d="M 271.459383 26.761885 L 268.959383 26.761885 L 268.959383 32.761885 L 271.459383 32.761885 L 271.459383 26.761885" stroke="gray" fill="white" stroke-width="1px"></path><path d="M 271.459383 20.761885 L 268.959383 20.761885 L 268.959383 26.761885 L 271.459383 26.761885 L 271.459383 20.761885" stroke="gray" fill="white" stroke-width="1px"></path><path d="M 271.459383 14.761885 L 268.959383 14.761885 L 268.959383 20.761885 L 271.459383 20.761885 L 271.459383 14.761885" stroke="gray" fill="white" stroke-width="1px"></path><path d="M 259.459383 46.365679 L 256.959383 46.365679 L 256.959383 52.365679 L 259.459383 52.365679 L 259.459383 46.365679" stroke="gray" fill="white" stroke-width="1px"></path><path d="M 259.459383 40.365679 L 256.959383 40.365679 L 256.959383 46.365679 L 259.459383 46.365679 L 259.459383 40.365679" stroke="gray" fill="white" stroke-width="1px"></path><path d="M 259.459383 34.365679 L 256.959383 34.365679 L 256.959383 40.365679 L 259.459383 40.365679 L 259.459383 34.365679" stroke="gray" fill="white" stroke-width="1px"></path><path d="M 259.459383 28.365679 L 256.959383 28.365679 L 256.959383 34.365679 L 259.459383 34.365679 L 259.459383 28.365679" stroke="gray" fill="white" stroke-width="1px"></path><path d="M 259.459383 22.365679 L 256.959383 22.365679 L 256.959383 28.365679 L 259.459383 28.365679 L 259.459383 22.365679" stroke="gray" fill="white" stroke-width="1px"></path><path d="M 259.459383 16.365679 L 256.959383 16.365679 L 256.959383 22.365679 L 259.459383 22.365679 L 259.459383 16.365679" stroke="gray" fill="white" stroke-width="1px"></path><path d="M 247.459383 47.969473 L 244.959383 47.969473 L 244.959383 53.969473 L 247.459383 53.969473 L 247.459383 47.969473" stroke="gray" fill="white" stroke-width="1px"></path><path d="M 247.459383 41.969473 L 244.959383 41.969473 L 244.959383 47.969473 L 247.459383 47.969473 L 247.459383 41.969473" stroke="gray" fill="white" stroke-width="1px"></path><path d="M 247.459383 35.969473 L 244.959383 35.969473 L 244.959383 41.969473 L 247.459383 41.969473 L 247.459383 35.969473" stroke="gray" fill="white" stroke-width="1px"></path><path d="M 247.459383 29.969473 L 244.959383 29.969473 L 244.959383 35.969473 L 247.459383 35.969473 L 247.459383 29.969473" stroke="gray" fill="white" stroke-width="1px"></path><path d="M 247.459383 23.969473 L 244.959383 23.969473 L 244.959383 29.969473 L 247.459383 29.969473 L 247.459383 23.969473" stroke="gray" fill="white" stroke-width="1px"></path><path d="M 247.459383 17.969473 L 244.959383 17.969473 L 244.959383 23.969473 L 247.459383 23.969473 L 247.459383 17.969473" stroke="gray" fill="white" stroke-width="1px"></path><path d="M 211.459383 101.033125 L 208.959383 101.033125 L 208.959383 107.033125 L 211.459383 107.033125 L 211.459383 101.033125" stroke="gray" fill="white" stroke-width="1px"></path><path d="M 199.459383 101.033125 L 196.959383 101.033125 L 196.959383 107.033125 L 199.459383 107.033125 L 199.459383 101.033125" stroke="gray" fill="white" stroke-width="1px"></path><path d="M 187.459383 101.033125 L 184.959383 101.033125 L 184.959383 107.033125 L 187.459383 107.033125 L 187.459383 101.033125" stroke="gray" fill="white" stroke-width="1px"></path><path d="M 175.459383 101.033125 L 172.959383 101.033125 L 172.959383 107.033125 L 175.459383 107.033125 L 175.459383 101.033125" stroke="gray" fill="white" stroke-width="1px"></path><path d="M 163.459383 101.033125 L 160.959383 101.033125 L 160.959383 107.033125 L 163.459383 107.033125 L 163.459383 101.033125" stroke="gray" fill="white" stroke-width="1px"></path><path d="M 163.459383 95.033125 L 160.959383 95.033125 L 160.959383 101.033125 L 163.459383 101.033125 L 163.459383 95.033125" stroke="gray" fill="white" stroke-width="1px"></path><path d="M 163.459383 89.033125 L 160.959383 89.033125 L 160.959383 95.033125 L 163.459383 95.033125 L 163.459383 89.033125" stroke="gray" fill="white" stroke-width="1px"></path><path d="M 163.459383 83.033125 L 160.959383 83.033125 L 160.959383 89.033125 L 163.459383 89.033125 L 163.459383 83.033125" stroke="gray" fill="white" stroke-width="1px"></path><path d="M 127.459383 101.033125 L 124.959383 101.033125 L 124.959383 107.033125 L 127.459383 107.033125 L 127.459383 101.033125" stroke="gray" fill="white" stroke-width="1px"></path><path d="M 115.459383 101.033125 L 112.959383 101.033125 L 112.959383 107.033125 L 115.459383 107.033125 L 115.459383 101.033125" stroke="gray" fill="white" stroke-width="1px"></path><path d="M 103.459383 101.033125 L 100.959383 101.033125 L 100.959383 107.033125 L 103.459383 107.033125 L 103.459383 101.033125" stroke="gray" fill="white" stroke-width="1px"></path><path d="M 55.459383 52.779774 L 52.959383 52.779774 L 52.959383 58.779774 L 55.459383 58.779774 L 55.459383 52.779774" stroke="gray" fill="white" stroke-width="1px"></path><path d="M 55.459383 46.779774 L 52.959383 46.779774 L 52.959383 52.779774 L 55.459383 52.779774 L 55.459383 46.779774" stroke="gray" fill="white" stroke-width="1px"></path><path d="M 55.459383 40.779774 L 52.959383 40.779774 L 52.959383 46.779774 L 55.459383 46.779774 L 55.459383 40.779774" stroke="gray" fill="white" stroke-width="1px"></path><path d="M 55.459383 34.779774 L 52.959383 34.779774 L 52.959383 40.779774 L 55.459383 40.779774 L 55.459383 34.779774" stroke="gray" fill="white" stroke-width="1px"></path><path d="M 43.459383 52.824997 L 40.959383 52.824997 L 40.959383 58.824997 L 43.459383 58.824997 L 43.459383 52.824997" stroke="gray" fill="white" stroke-width="1px"></path><path d="M 43.459383 46.824997 L 40.959383 46.824997 L 40.959383 52.824997 L 43.459383 52.824997 L 43.459383 46.824997" stroke="gray" fill="white" stroke-width="1px"></path><path d="M 43.459383 40.824997 L 40.959383 40.824997 L 40.959383 46.824997 L 43.459383 46.824997 L 43.459383 40.824997" stroke="gray" fill="white" stroke-width="1px"></path><path d="M 43.459383 34.824997 L 40.959383 34.824997 L 40.959383 40.824997 L 43.459383 40.824997 L 43.459383 34.824997" stroke="gray" fill="white" stroke-width="1px"></path><path d="M 31.459383 52.870221 L 28.959383 52.870221 L 28.959383 58.870221 L 31.459383 58.870221 L 31.459383 52.870221" stroke="gray" fill="white" stroke-width="1px"></path><path d="M 31.459383 46.870221 L 28.959383 46.870221 L 28.959383 52.870221 L 31.459383 52.870221 L 31.459383 46.870221" stroke="gray" fill="white" stroke-width="1px"></path><path d="M 31.459383 40.870221 L 28.959383 40.870221 L 28.959383 46.870221 L 31.459383 46.870221 L 31.459383 40.870221" stroke="gray" fill="white" stroke-width="1px"></path><path d="M 31.459383 34.870221 L 28.959383 34.870221 L 28.959383 40.870221 L 31.459383 40.870221 L 31.459383 34.870221" stroke="gray" fill="white" stroke-width="1px"></path><path d="M 19.459383 52.915444 L 16.959383 52.915444 L 16.959383 58.915444 L 19.459383 58.915444 L 19.459383 52.915444" stroke="gray" fill="white" stroke-width="1px"></path><path d="M 19.459383 46.915444 L 16.959383 46.915444 L 16.959383 52.915444 L 19.459383 52.915444 L 19.459383 46.915444" stroke="gray" fill="white" stroke-width="1px"></path><path d="M 19.459383 40.915444 L 16.959383 40.915444 L 16.959383 46.915444 L 19.459383 46.915444 L 19.459383 40.915444" stroke="gray" fill="white" stroke-width="1px"></path><path d="M 19.459383 34.915444 L 16.959383 34.915444 L 16.959383 40.915444 L 19.459383 40.915444 L 19.459383 34.915444" stroke="gray" fill="white" stroke-width="1px"></path><path d="M 271.459383 44.761885 L 273.959383 44.761885 L 273.959383 50.761885 L 271.459383 50.761885 L 271.459383 44.761885" stroke="gray" fill="white" stroke-width="1px"></path><path d="M 271.459383 38.761885 L 273.959383 38.761885 L 273.959383 44.761885 L 271.459383 44.761885 L 271.459383 38.761885" stroke="gray" fill="white" stroke-width="1px"></path><path d="M 271.459383 32.761885 L 273.959383 32.761885 L 273.959383 38.761885 L 271.459383 38.761885 L 271.459383 32.761885" stroke="gray" fill="white" stroke-width="1px"></path><path d="M 271.459383 26.761885 L 273.959383 26.761885 L 273.959383 32.761885 L 271.459383 32.761885 L 271.459383 26.761885" stroke="gray" fill="white" stroke-width="1px"></path><path d="M 271.459383 20.761885 L 273.959383 20.761885 L 273.959383 26.761885 L 271.459383 26.761885 L 271.459383 20.761885" stroke="gray" fill="white" stroke-width="1px"></path><path d="M 271.459383 14.761885 L 273.959383 14.761885 L 273.959383 20.761885 L 271.459383 20.761885 L 271.459383 14.761885" stroke="gray" fill="white" stroke-width="1px"></path><path d="M 259.459383 46.365679 L 261.959383 46.365679 L 261.959383 52.365679 L 259.459383 52.365679 L 259.459383 46.365679" stroke="gray" fill="white" stroke-width="1px"></path><path d="M 259.459383 40.365679 L 261.959383 40.365679 L 261.959383 46.365679 L 259.459383 46.365679 L 259.459383 40.365679" stroke="gray" fill="white" stroke-width="1px"></path><path d="M 259.459383 34.365679 L 261.959383 34.365679 L 261.959383 40.365679 L 259.459383 40.365679 L 259.459383 34.365679" stroke="gray" fill="white" stroke-width="1px"></path><path d="M 259.459383 28.365679 L 261.959383 28.365679 L 261.959383 34.365679 L 259.459383 34.365679 L 259.459383 28.365679" stroke="gray" fill="white" stroke-width="1px"></path><path d="M 259.459383 22.365679 L 261.959383 22.365679 L 261.959383 28.365679 L 259.459383 28.365679 L 259.459383 22.365679" stroke="gray" fill="white" stroke-width="1px"></path><path d="M 259.459383 16.365679 L 261.959383 16.365679 L 261.959383 22.365679 L 259.459383 22.365679 L 259.459383 16.365679" stroke="gray" fill="white" stroke-width="1px"></path><path d="M 247.459383 47.969473 L 249.959383 47.969473 L 249.959383 53.969473 L 247.459383 53.969473 L 247.459383 47.969473" stroke="gray" fill="white" stroke-width="1px"></path><path d="M 247.459383 41.969473 L 249.959383 41.969473 L 249.959383 47.969473 L 247.459383 47.969473 L 247.459383 41.969473" stroke="gray" fill="white" stroke-width="1px"></path><path d="M 247.459383 35.969473 L 249.959383 35.969473 L 249.959383 41.969473 L 247.459383 41.969473 L 247.459383 35.969473" stroke="gray" fill="white" stroke-width="1px"></path><path d="M 247.459383 29.969473 L 249.959383 29.969473 L 249.959383 35.969473 L 247.459383 35.969473 L 247.459383 29.969473" stroke="gray" fill="white" stroke-width="1px"></path><path d="M 247.459383 23.969473 L 249.959383 23.969473 L 249.959383 29.969473 L 247.459383 29.969473 L 247.459383 23.969473" stroke="gray" fill="white" stroke-width="1px"></path><path d="M 247.459383 17.969473 L 249.959383 17.969473 L 249.959383 23.969473 L 247.459383 23.969473 L 247.459383 17.969473" stroke="gray" fill="white" stroke-width="1px"></path><path d="M 211.459383 101.033125 L 213.959383 101.033125 L 213.959383 107.033125 L 211.459383 107.033125 L 211.459383 101.033125" stroke="gray" fill="white" stroke-width="1px"></path><path d="M 199.459383 101.033125 L 201.959383 101.033125 L 201.959383 107.033125 L 199.459383 107.033125 L 199.459383 101.033125" stroke="gray" fill="white" stroke-width="1px"></path><path d="M 187.459383 101.033125 L 189.959383 101.033125 L 189.959383 107.033125 L 187.459383 107.033125 L 187.459383 101.033125" stroke="gray" fill="white" stroke-width="1px"></path><path d="M 175.459383 101.033125 L 177.959383 101.033125 L 177.959383 107.033125 L 175.459383 107.033125 L 175.459383 101.033125" stroke="gray" fill="white" stroke-width="1px"></path><path d="M 163.459383 101.033125 L 165.959383 101.033125 L 165.959383 107.033125 L 163.459383 107.033125 L 163.459383 101.033125" stroke="gray" fill="white" stroke-width="1px"></path><path d="M 163.459383 95.033125 L 165.959383 95.033125 L 165.959383 101.033125 L 163.459383 101.033125 L 163.459383 95.033125" stroke="gray" fill="white" stroke-width="1px"></path><path d="M 163.459383 89.033125 L 165.959383 89.033125 L 165.959383 95.033125 L 163.459383 95.033125 L 163.459383 89.033125" stroke="gray" fill="white" stroke-width="1px"></path><path d="M 163.459383 83.033125 L 165.959383 83.033125 L 165.959383 89.033125 L 163.459383 89.033125 L 163.459383 83.033125" stroke="gray" fill="white" stroke-width="1px"></path><path d="M 127.459383 101.033125 L 129.959383 101.033125 L 129.959383 107.033125 L 127.459383 107.033125 L 127.459383 101.033125" stroke="gray" fill="white" stroke-width="1px"></path><path d="M 115.459383 101.033125 L 117.959383 101.033125 L 117.959383 107.033125 L 115.459383 107.033125 L 115.459383 101.033125" stroke="gray" fill="white" stroke-width="1px"></path><path d="M 103.459383 101.033125 L 105.959383 101.033125 L 105.959383 107.033125 L 103.459383 107.033125 L 103.459383 101.033125" stroke="gray" fill="white" stroke-width="1px"></path><path d="M 55.459383 52.779774 L 57.959383 52.779774 L 57.959383 58.779774 L 55.459383 58.779774 L 55.459383 52.779774" stroke="gray" fill="white" stroke-width="1px"></path><path d="M 55.459383 46.779774 L 57.959383 46.779774 L 57.959383 52.779774 L 55.459383 52.779774 L 55.459383 46.779774" stroke="gray" fill="white" stroke-width="1px"></path><path d="M 55.459383 40.779774 L 57.959383 40.779774 L 57.959383 46.779774 L 55.459383 46.779774 L 55.459383 40.779774" stroke="gray" fill="white" stroke-width="1px"></path><path d="M 55.459383 34.779774 L 57.959383 34.779774 L 57.959383 40.779774 L 55.459383 40.779774 L 55.459383 34.779774" stroke="gray" fill="white" stroke-width="1px"></path><path d="M 43.459383 52.824997 L 45.959383 52.824997 L 45.959383 58.824997 L 43.459383 58.824997 L 43.459383 52.824997" stroke="gray" fill="white" stroke-width="1px"></path><path d="M 43.459383 46.824997 L 45.959383 46.824997 L 45.959383 52.824997 L 43.459383 52.824997 L 43.459383 46.824997" stroke="gray" fill="white" stroke-width="1px"></path><path d="M 43.459383 40.824997 L 45.959383 40.824997 L 45.959383 46.824997 L 43.459383 46.824997 L 43.459383 40.824997" stroke="gray" fill="white" stroke-width="1px"></path><path d="M 43.459383 34.824997 L 45.959383 34.824997 L 45.959383 40.824997 L 43.459383 40.824997 L 43.459383 34.824997" stroke="gray" fill="white" stroke-width="1px"></path><path d="M 31.459383 52.870221 L 33.959383 52.870221 L 33.959383 58.870221 L 31.459383 58.870221 L 31.459383 52.870221" stroke="gray" fill="white" stroke-width="1px"></path><path d="M 31.459383 46.870221 L 33.959383 46.870221 L 33.959383 52.870221 L 31.459383 52.870221 L 31.459383 46.870221" stroke="gray" fill="white" stroke-width="1px"></path><path d="M 31.459383 40.870221 L 33.959383 40.870221 L 33.959383 46.870221 L 31.459383 46.870221 L 31.459383 40.870221" stroke="gray" fill="white" stroke-width="1px"></path><path d="M 31.459383 34.870221 L 33.959383 34.870221 L 33.959383 40.870221 L 31.459383 40.870221 L 31.459383 34.870221" stroke="gray" fill="white" stroke-width="1px"></path><path d="M 19.459383 52.915444 L 21.959383 52.915444 L 21.959383 58.915444 L 19.459383 58.915444 L 19.459383 52.915444" stroke="gray" fill="white" stroke-width="1px"></path><path d="M 19.459383 46.915444 L 21.959383 46.915444 L 21.959383 52.915444 L 19.459383 52.915444 L 19.459383 46.915444" stroke="gray" fill="white" stroke-width="1px"></path><path d="M 19.459383 40.915444 L 21.959383 40.915444 L 21.959383 46.915444 L 19.459383 46.915444 L 19.459383 40.915444" stroke="gray" fill="white" stroke-width="1px"></path><path d="M 19.459383 34.915444 L 21.959383 34.915444 L 21.959383 40.915444 L 19.459383 40.915444 L 19.459383 34.915444" stroke="gray" fill="white" stroke-width="1px"></path><path d="M 275.519932 77.263579 L 275.519932 74.763579 L 269.519932 74.763579 L 269.519932 77.263579 L 275.519932 77.263579" stroke="gray" fill="white" stroke-width="1px"></path><path d="M 271.568720 65.263579 L 271.568720 62.763579 L 265.568720 62.763579 L 265.568720 65.263579 L 271.568720 65.263579" stroke="gray" fill="white" stroke-width="1px"></path><path d="M 277.568720 65.263579 L 277.568720 62.763579 L 271.568720 62.763579 L 271.568720 65.263579 L 277.568720 65.263579" stroke="gray" fill="white" stroke-width="1px"></path><path d="M 228.627257 101.263579 L 228.627257 98.763579 L 222.627257 98.763579 L 222.627257 101.263579 L 228.627257 101.263579" stroke="gray" fill="white" stroke-width="1px"></path><path d="M 234.627257 101.263579 L 234.627257 98.763579 L 228.627257 98.763579 L 228.627257 101.263579 L 234.627257 101.263579" stroke="gray" fill="white" stroke-width="1px"></path><path d="M 240.627257 101.263579 L 240.627257 98.763579 L 234.627257 98.763579 L 234.627257 101.263579 L 240.627257 101.263579" stroke="gray" fill="white" stroke-width="1px"></path><path d="M 246.627257 101.263579 L 246.627257 98.763579 L 240.627257 98.763579 L 240.627257 101.263579 L 246.627257 101.263579" stroke="gray" fill="white" stroke-width="1px"></path><path d="M 225.777482 89.263579 L 225.777482 86.763579 L 219.777482 86.763579 L 219.777482 89.263579 L 225.777482 89.263579" stroke="gray" fill="white" stroke-width="1px"></path><path d="M 231.777482 89.263579 L 231.777482 86.763579 L 225.777482 86.763579 L 225.777482 89.263579 L 231.777482 89.263579" stroke="gray" fill="white" stroke-width="1px"></path><path d="M 237.777482 89.263579 L 237.777482 86.763579 L 231.777482 86.763579 L 231.777482 89.263579 L 237.777482 89.263579" stroke="gray" fill="white" stroke-width="1px"></path><path d="M 243.777482 89.263579 L 243.777482 86.763579 L 237.777482 86.763579 L 237.777482 89.263579 L 243.777482 89.263579" stroke="gray" fill="white" stroke-width="1px"></path><path d="M 22.000000 101.263579 L 22.000000 98.763579 L 16.000000 98.763579 L 16.000000 101.263579 L 22.000000 101.263579" stroke="gray" fill="white" stroke-width="1px"></path><path d="M 28.000000 101.263579 L 28.000000 98.763579 L 22.000000 98.763579 L 22.000000 101.263579 L 28.000000 101.263579" stroke="gray" fill="white" stroke-width="1px"></path><path d="M 34.000000 101.263579 L 34.000000 98.763579 L 28.000000 98.763579 L 28.000000 101.263579 L 34.000000 101.263579" stroke="gray" fill="white" stroke-width="1px"></path><path d="M 40.000000 101.263579 L 40.000000 98.763579 L 34.000000 98.763579 L 34.000000 101.263579 L 40.000000 101.263579" stroke="gray" fill="white" stroke-width="1px"></path><path d="M 46.000000 101.263579 L 46.000000 98.763579 L 40.000000 98.763579 L 40.000000 101.263579 L 46.000000 101.263579" stroke="gray" fill="white" stroke-width="1px"></path><path d="M 52.000000 101.263579 L 52.000000 98.763579 L 46.000000 98.763579 L 46.000000 101.263579 L 52.000000 101.263579" stroke="gray" fill="white" stroke-width="1px"></path><path d="M 58.000000 101.263579 L 58.000000 98.763579 L 52.000000 98.763579 L 52.000000 101.263579 L 58.000000 101.263579" stroke="gray" fill="white" stroke-width="1px"></path><path d="M 22.000000 89.263579 L 22.000000 86.763579 L 16.000000 86.763579 L 16.000000 89.263579 L 22.000000 89.263579" stroke="gray" fill="white" stroke-width="1px"></path><path d="M 28.000000 89.263579 L 28.000000 86.763579 L 22.000000 86.763579 L 22.000000 89.263579 L 28.000000 89.263579" stroke="gray" fill="white" stroke-width="1px"></path><path d="M 34.000000 89.263579 L 34.000000 86.763579 L 28.000000 86.763579 L 28.000000 89.263579 L 34.000000 89.263579" stroke="gray" fill="white" stroke-width="1px"></path><path d="M 40.000000 89.263579 L 40.000000 86.763579 L 34.000000 86.763579 L 34.000000 89.263579 L 40.000000 89.263579" stroke="gray" fill="white" stroke-width="1px"></path><path d="M 46.000000 89.263579 L 46.000000 86.763579 L 40.000000 86.763579 L 40.000000 89.263579 L 46.000000 89.263579" stroke="gray" fill="white" stroke-width="1px"></path><path d="M 52.000000 89.263579 L 52.000000 86.763579 L 46.000000 86.763579 L 46.000000 89.263579 L 52.000000 89.263579" stroke="gray" fill="white" stroke-width="1px"></path><path d="M 58.000000 89.263579 L 58.000000 86.763579 L 52.000000 86.763579 L 52.000000 89.263579 L 58.000000 89.263579" stroke="gray" fill="white" stroke-width="1px"></path><path d="M 275.519932 77.263579 L 275.519932 79.763579 L 269.519932 79.763579 L 269.519932 77.263579 L 275.519932 77.263579" stroke="gray" fill="white" stroke-width="1px"></path><path d="M 271.568720 65.263579 L 271.568720 67.763579 L 265.568720 67.763579 L 265.568720 65.263579 L 271.568720 65.263579" stroke="gray" fill="white" stroke-width="1px"></path><path d="M 277.568720 65.263579 L 277.568720 67.763579 L 271.568720 67.763579 L 271.568720 65.263579 L 277.568720 65.263579" stroke="gray" fill="white" stroke-width="1px"></path><path d="M 228.627257 101.263579 L 228.627257 103.763579 L 222.627257 103.763579 L 222.627257 101.263579 L 228.627257 101.263579" stroke="gray" fill="white" stroke-width="1px"></path><path d="M 234.627257 101.263579 L 234.627257 103.763579 L 228.627257 103.763579 L 228.627257 101.263579 L 234.627257 101.263579" stroke="gray" fill="white" stroke-width="1px"></path><path d="M 240.627257 101.263579 L 240.627257 103.763579 L 234.627257 103.763579 L 234.627257 101.263579 L 240.627257 101.263579" stroke="gray" fill="white" stroke-width="1px"></path><path d="M 246.627257 101.263579 L 246.627257 103.763579 L 240.627257 103.763579 L 240.627257 101.263579 L 246.627257 101.263579" stroke="gray" fill="white" stroke-width="1px"></path><path d="M 225.777482 89.263579 L 225.777482 91.763579 L 219.777482 91.763579 L 219.777482 89.263579 L 225.777482 89.263579" stroke="gray" fill="white" stroke-width="1px"></path><path d="M 231.777482 89.263579 L 231.777482 91.763579 L 225.777482 91.763579 L 225.777482 89.263579 L 231.777482 89.263579" stroke="gray" fill="white" stroke-width="1px"></path><path d="M 237.777482 89.263579 L 237.777482 91.763579 L 231.777482 91.763579 L 231.777482 89.263579 L 237.777482 89.263579" stroke="gray" fill="white" stroke-width="1px"></path><path d="M 243.777482 89.263579 L 243.777482 91.763579 L 237.777482 91.763579 L 237.777482 89.263579 L 243.777482 89.263579" stroke="gray" fill="white" stroke-width="1px"></path><path d="M 22.000000 101.263579 L 22.000000 103.763579 L 16.000000 103.763579 L 16.000000 101.263579 L 22.000000 101.263579" stroke="gray" fill="white" stroke-width="1px"></path><path d="M 28.000000 101.263579 L 28.000000 103.763579 L 22.000000 103.763579 L 22.000000 101.263579 L 28.000000 101.263579" stroke="gray" fill="white" stroke-width="1px"></path><path d="M 34.000000 101.263579 L 34.000000 103.763579 L 28.000000 103.763579 L 28.000000 101.263579 L 34.000000 101.263579" stroke="gray" fill="white" stroke-width="1px"></path><path d="M 40.000000 101.263579 L 40.000000 103.763579 L 34.000000 103.763579 L 34.000000 101.263579 L 40.000000 101.263579" stroke="gray" fill="white" stroke-width="1px"></path><path d="M 46.000000 101.263579 L 46.000000 103.763579 L 40.000000 103.763579 L 40.000000 101.263579 L 46.000000 101.263579" stroke="gray" fill="white" stroke-width="1px"></path><path d="M 52.000000 101.263579 L 52.000000 103.763579 L 46.000000 103.763579 L 46.000000 101.263579 L 52.000000 101.263579" stroke="gray" fill="white" stroke-width="1px"></path><path d="M 58.000000 101.263579 L 58.000000 103.763579 L 52.000000 103.763579 L 52.000000 101.263579 L 58.000000 101.263579" stroke="gray" fill="white" stroke-width="1px"></path><path d="M 22.000000 89.263579 L 22.000000 91.763579 L 16.000000 91.763579 L 16.000000 89.263579 L 22.000000 89.263579" stroke="gray" fill="white" stroke-width="1px"></path><path d="M 28.000000 89.263579 L 28.000000 91.763579 L 22.000000 91.763579 L 22.000000 89.263579 L 28.000000 89.263579" stroke="gray" fill="white" stroke-width="1px"></path><path d="M 34.000000 89.263579 L 34.000000 91.763579 L 28.000000 91.763579 L 28.000000 89.263579 L 34.000000 89.263579" stroke="gray" fill="white" stroke-width="1px"></path><path d="M 40.000000 89.263579 L 40.000000 91.763579 L 34.000000 91.763579 L 34.000000 89.263579 L 40.000000 89.263579" stroke="gray" fill="white" stroke-width="1px"></path><path d="M 46.000000 89.263579 L 46.000000 91.763579 L 40.000000 91.763579 L 40.000000 89.263579 L 46.000000 89.263579" stroke="gray" fill="white" stroke-width="1px"></path><path d="M 52.000000 89.263579 L 52.000000 91.763579 L 46.000000 91.763579 L 46.000000 89.263579 L 52.000000 89.263579" stroke="gray" fill="white" stroke-width="1px"></path><path d="M 58.000000 89.263579 L 58.000000 91.763579 L 52.000000 91.763579 L 52.000000 89.263579 L 58.000000 89.263579" stroke="gray" fill="white" stroke-width="1px"></path></g><g id="crv-base"><path d="M 221.371570 123.090312 L 221.371570 169.241094 L 120.000633 169.241094 L 120.000633 156.444206 L 126.051258 156.444206 L 126.051258 128.832500 L 123.590320 128.832500 L 123.590320 125.551250 L 126.051258 125.551250 L 126.051258 123.858132 L 91.315945 123.858125 L 91.315945 134.738750 L 64.258762 134.738750 L 64.258762 123.687497 L 10.000000 123.687497 L 10.000000 226.180625 L 64.258758 226.180625 L 64.258758 192.357500 L 91.315945 192.357500 L 91.315945 220.123437 L 283.459383 220.123437 L 283.459383 123.090312 L 221.371570 123.090312" stroke="black" fill="none" stroke-width="1px"></path><path d="M 221.371570 10.000000 L 221.371570 56.150781 L 120.000633 56.150781 L 120.000633 43.353893 L 126.051258 43.353893 L 126.051258 15.742187 L 123.590320 15.742187 L 123.590320 12.460937 L 126.051258 12.460937 L 126.051258 10.767819 L 91.315945 10.767812 L 91.315945 21.648438 L 64.258762 21.648438 L 64.258762 10.597185 L 10.000000 10.597185 L 10.000000 113.090312 L 64.258758 113.090312 L 64.258758 79.267187 L 91.315945 79.267187 L 91.315945 107.033125 L 283.459383 107.033125 L 283.459383 10.000000 L 221.371570 10.000000" stroke="black" fill="none" stroke-width="1px"></path><path d="M 10.387195 156.559062 L 10.387195 154.590312 L 12.355945 154.590312 L 12.355945 156.559062 L 10.387195 156.559062" stroke="black" fill="white" stroke-width="1px"></path><path d="M 10.387195 43.468750 L 10.387195 41.500000 L 12.355945 41.500000 L 12.355945 43.468750 L 10.387195 43.468750" stroke="black" fill="white" stroke-width="1px"></path><path d="M 10.387195 188.059062 L 10.387195 186.090312 L 12.355945 186.090312 L 12.355945 188.059062 L 10.387195 188.059062" stroke="black" fill="white" stroke-width="1px"></path><path d="M 10.387195 74.968750 L 10.387195 73.000000 L 12.355945 73.000000 L 12.355945 74.968750 L 10.387195 74.968750" stroke="black" fill="white" stroke-width="1px"></path><path d="M 10.387195 219.559062 L 10.387195 217.590312 L 12.355945 217.590312 L 12.355945 219.559062 L 10.387195 219.559062" stroke="black" fill="white" stroke-width="1px"></path><path d="M 10.387195 106.468750 L 10.387195 104.500000 L 12.355945 104.500000 L 12.355945 106.468750 L 10.387195 106.468750" stroke="black" fill="white" stroke-width="1px"></path><path d="M 60.754383 128.340312 L 60.754383 125.387187 L 63.871570 125.387187 L 63.871570 128.340312 L 60.754383 128.340312" stroke="black" fill="white" stroke-width="1px"></path><path d="M 60.754383 15.250000 L 60.754383 12.296875 L 63.871570 12.296875 L 63.871570 15.250000 L 60.754383 15.250000" stroke="black" fill="white" stroke-width="1px"></path><path d="M 280.598133 219.230937 L 280.598133 217.262187 L 282.566883 217.262187 L 282.566883 219.230937 L 280.598133 219.230937" stroke="black" fill="white" stroke-width="1px"></path><path d="M 280.598133 106.140625 L 280.598133 104.171875 L 282.566883 104.171875 L 282.566883 106.140625 L 280.598133 106.140625" stroke="black" fill="white" stroke-width="1px"></path><path d="M 280.598133 188.059062 L 280.598133 186.090312 L 282.566883 186.090312 L 282.566883 188.059062 L 280.598133 188.059062" stroke="black" fill="white" stroke-width="1px"></path><path d="M 280.598133 74.968750 L 280.598133 73.000000 L 282.566883 73.000000 L 282.566883 74.968750 L 280.598133 74.968750" stroke="black" fill="white" stroke-width="1px"></path><path d="M 280.598133 156.559050 L 280.598133 154.590300 L 282.566883 154.590300 L 282.566883 156.559050 L 280.598133 156.559050" stroke="black" fill="white" stroke-width="1px"></path><path d="M 280.598133 43.468737 L 280.598133 41.499987 L 282.566883 41.499987 L 282.566883 43.468737 L 280.598133 43.468737" stroke="black" fill="white" stroke-width="1px"></path><path d="M 248.605945 127.355937 L 248.605945 123.418437 L 251.887195 123.418437 L 251.887195 127.355937 L 248.605945 127.355937" stroke="black" fill="white" stroke-width="1px"></path><path d="M 248.605945 14.265625 L 248.605945 10.328125 L 251.887195 10.328125 L 251.887195 14.265625 L 248.605945 14.265625" stroke="black" fill="white" stroke-width="1px"></path><path d="M 248.605945 157.871562 L 248.605945 153.934062 L 251.887195 153.934062 L 251.887195 157.871562 L 248.605945 157.871562" stroke="black" fill="white" stroke-width="1px"></path><path d="M 248.605945 44.781250 L 248.605945 40.843750 L 251.887195 40.843750 L 251.887195 44.781250 L 248.605945 44.781250" stroke="black" fill="white" stroke-width="1px"></path><path d="M 248.605945 189.043437 L 248.605945 185.105937 L 251.887195 185.105937 L 251.887195 189.043437 L 248.605945 189.043437" stroke="black" fill="white" stroke-width="1px"></path><path d="M 248.605945 75.953125 L 248.605945 72.015625 L 251.887195 72.015625 L 251.887195 75.953125 L 248.605945 75.953125" stroke="black" fill="white" stroke-width="1px"></path><path d="M 248.934070 219.230937 L 248.934070 216.277812 L 251.887195 216.277812 L 251.887195 219.230937 L 248.934070 219.230937" stroke="black" fill="white" stroke-width="1px"></path><path d="M 248.934070 106.140625 L 248.934070 103.187500 L 251.887195 103.187500 L 251.887195 106.140625 L 248.934070 106.140625" stroke="black" fill="white" stroke-width="1px"></path><path d="M 218.090320 189.043437 L 218.090320 185.105937 L 221.371570 185.105937 L 221.371570 189.043437 L 218.090320 189.043437" stroke="black" fill="white" stroke-width="1px"></path><path d="M 218.090320 75.953125 L 218.090320 72.015625 L 221.371570 72.015625 L 221.371570 75.953125 L 218.090320 75.953125" stroke="black" fill="white" stroke-width="1px"></path><path d="M 218.254383 219.230937 L 218.254383 216.277812 L 221.207508 216.277812 L 221.207508 219.230937 L 218.254383 219.230937" stroke="black" fill="white" stroke-width="1px"></path><path d="M 218.254383 106.140625 L 218.254383 103.187500 L 221.207508 103.187500 L 221.207508 106.140625 L 218.254383 106.140625" stroke="black" fill="white" stroke-width="1px"></path><path d="M 186.590320 189.043437 L 186.590320 185.105937 L 189.871570 185.105937 L 189.871570 189.043437 L 186.590320 189.043437" stroke="black" fill="white" stroke-width="1px"></path><path d="M 186.590320 75.953125 L 186.590320 72.015625 L 189.871570 72.015625 L 189.871570 75.953125 L 186.590320 75.953125" stroke="black" fill="white" stroke-width="1px"></path><path d="M 186.754383 219.230937 L 186.754383 216.277812 L 189.707508 216.277812 L 189.707508 219.230937 L 186.754383 219.230937" stroke="black" fill="white" stroke-width="1px"></path><path d="M 186.754383 106.140625 L 186.754383 103.187500 L 189.707508 103.187500 L 189.707508 106.140625 L 186.754383 106.140625" stroke="black" fill="white" stroke-width="1px"></path><path d="M 155.090320 189.043437 L 155.090320 185.105937 L 158.371570 185.105937 L 158.371570 189.043437 L 155.090320 189.043437" stroke="black" fill="white" stroke-width="1px"></path><path d="M 155.090320 75.953125 L 155.090320 72.015625 L 158.371570 72.015625 L 158.371570 75.953125 L 155.090320 75.953125" stroke="black" fill="white" stroke-width="1px"></path><path d="M 155.254383 219.230937 L 155.254383 216.277812 L 158.207508 216.277812 L 158.207508 219.230937 L 155.254383 219.230937" stroke="black" fill="white" stroke-width="1px"></path><path d="M 155.254383 106.140625 L 155.254383 103.187500 L 158.207508 103.187500 L 158.207508 106.140625 L 155.254383 106.140625" stroke="black" fill="white" stroke-width="1px"></path><path d="M 123.590320 189.043437 L 123.590320 185.105937 L 126.871570 185.105937 L 126.871570 189.043437 L 123.590320 189.043437" stroke="black" fill="white" stroke-width="1px"></path><path d="M 123.590320 75.953125 L 123.590320 72.015625 L 126.871570 72.015625 L 126.871570 75.953125 L 123.590320 75.953125" stroke="black" fill="white" stroke-width="1px"></path><path d="M 123.754383 219.230937 L 123.754383 216.277812 L 126.707508 216.277812 L 126.707508 219.230937 L 123.754383 219.230937" stroke="black" fill="white" stroke-width="1px"></path><path d="M 123.754383 106.140625 L 123.754383 103.187500 L 126.707508 103.187500 L 126.707508 106.140625 L 123.754383 106.140625" stroke="black" fill="white" stroke-width="1px"></path><path d="M 92.090320 157.543437 L 92.090320 153.605937 L 95.371570 153.605937 L 95.371570 157.543437 L 92.090320 157.543437" stroke="black" fill="white" stroke-width="1px"></path><path d="M 92.090320 44.453125 L 92.090320 40.515625 L 95.371570 40.515625 L 95.371570 44.453125 L 92.090320 44.453125" stroke="black" fill="white" stroke-width="1px"></path><path d="M 92.090320 189.043437 L 92.090320 185.105937 L 95.371570 185.105937 L 95.371570 189.043437 L 92.090320 189.043437" stroke="black" fill="white" stroke-width="1px"></path><path d="M 92.090320 75.953125 L 92.090320 72.015625 L 95.371570 72.015625 L 95.371570 75.953125 L 92.090320 75.953125" stroke="black" fill="white" stroke-width="1px"></path><path d="M 92.090320 128.504375 L 92.090320 125.551250 L 95.207508 125.551250 L 95.207508 128.504375 L 92.090320 128.504375" stroke="black" fill="white" stroke-width="1px"></path><path d="M 92.090320 15.414062 L 92.090320 12.460937 L 95.207508 12.460937 L 95.207508 15.414062 L 92.090320 15.414062" stroke="black" fill="white" stroke-width="1px"></path><path d="M 60.590320 157.215312 L 60.590320 153.934062 L 63.871570 153.934062 L 63.871570 157.215312 L 60.590320 157.215312" stroke="black" fill="white" stroke-width="1px"></path><path d="M 60.590320 44.125000 L 60.590320 40.843750 L 63.871570 40.843750 L 63.871570 44.125000 L 60.590320 44.125000" stroke="black" fill="white" stroke-width="1px"></path><path d="M 60.754383 219.230937 L 60.754383 216.277812 L 63.871570 216.277812 L 63.871570 219.230937 L 60.754383 219.230937" stroke="black" fill="white" stroke-width="1px"></path><path d="M 60.754383 106.140625 L 60.754383 103.187500 L 63.871570 103.187500 L 63.871570 106.140625 L 60.754383 106.140625" stroke="black" fill="white" stroke-width="1px"></path><path d="M 30.074695 128.504375 L 30.074695 125.223125 L 33.027820 125.223125 L 33.027820 128.504375 L 30.074695 128.504375" stroke="black" fill="white" stroke-width="1px"></path><path d="M 30.074695 15.414062 L 30.074695 12.132812 L 33.027820 12.132812 L 33.027820 15.414062 L 30.074695 15.414062" stroke="black" fill="white" stroke-width="1px"></path><path d="M 30.074695 157.215312 L 30.074695 153.934062 L 33.355945 153.934062 L 33.355945 157.215312 L 30.074695 157.215312" stroke="black" fill="white" stroke-width="1px"></path><path d="M 30.074695 44.125000 L 30.074695 40.843750 L 33.355945 40.843750 L 33.355945 44.125000 L 30.074695 44.125000" stroke="black" fill="white" stroke-width="1px"></path><path d="M 30.074695 188.715312 L 30.074695 185.434062 L 33.355945 185.434062 L 33.355945 188.715312 L 30.074695 188.715312" stroke="black" fill="white" stroke-width="1px"></path><path d="M 30.074695 75.625000 L 30.074695 72.343750 L 33.355945 72.343750 L 33.355945 75.625000 L 30.074695 75.625000" stroke="black" fill="white" stroke-width="1px"></path><path d="M 30.074695 219.230937 L 30.074695 216.277812 L 33.027820 216.277812 L 33.027820 219.230937 L 30.074695 219.230937" stroke="black" fill="white" stroke-width="1px"></path><path d="M 30.074695 106.140625 L 30.074695 103.187500 L 33.027820 103.187500 L 33.027820 106.140625 L 30.074695 106.140625" stroke="black" fill="white" stroke-width="1px"></path><path d="M 10.387195 127.191875 L 10.387195 125.223125 L 12.355945 125.223125 L 12.355945 127.191875 L 10.387195 127.191875" stroke="black" fill="white" stroke-width="1px"></path><path d="M 10.387195 14.101562 L 10.387195 12.132812 L 12.355945 12.132812 L 12.355945 14.101562 L 10.387195 14.101562" stroke="black" fill="white" stroke-width="1px"></path><path d="M 60.590320 189.863750 L 60.590320 185.434062 L 63.871570 185.434062 L 63.871570 188.715312 L 62.230945 188.715312 L 62.230945 189.863750 L 60.590320 189.863750" stroke="black" fill="white" stroke-width="1px"></path><path d="M 60.590320 76.773437 L 60.590320 72.343750 L 63.871570 72.343750 L 63.871570 75.625000 L 62.230945 75.625000 L 62.230945 76.773437 L 60.590320 76.773437" stroke="black" fill="white" stroke-width="1px"></path></g></svg>