<svg width="293.459383" height="236.180625" xmlns="http://www.w3.org/2000/svg" xmlns:xlink="http://www.w3.org/1999/xlink" version="1.1"><g id="crv-background"><path d="M 221.371570 123.090312 L 221.371570 169.241094 L 120.000633 169.241094 L 120.000633 156.444206 L 126.051258 156.444206 L 126.051258 128.832500 L 123.590320 128.832500 L 123.590320 125.551250 L 126.051258 125.551250 L 126.051258 123.858132 L 91.315945 123.858125 L 91.315945 134.738750 L 64.258762 134.738750 L 64.258762 123.687497 L 10.000000 123.687497 L 10.000000 226.180625 L 64.258758 226.180625 L 64.258758 192.357500 L 91.315945 192.357500 L 91.315945 220.123437 L 283.459383 220.123437 L 283.459383 123.090312 L 221.371570 123.090312" stroke="none" fill="white" stroke-width="1px"></path><path d="M 221.371570 10.000000 L 221.371570 56.150781 L 120.000633 56.150781 L 120.000633 43.353893 L 126.051258 43.353893 L 126.051258 15.742187 L 123.590320 15.742187 L 123.590320 12.460937 L 126.051258 12.460937 L 126.051258 10.767819 L 91.315945 10.767812 L 91.315945 21.648438 L 64.258762 21.648438 L 64.258762 10.597185 L 10.000000 10.597185 L 10.000000 113.090312 L 64.258758 113.090312 L 64.258758 79.267187 L 91.315945 79.267187 L 91.315945 107.033125 L 283.459383 107.033125 L 283.459383 10.000000 L 221.371570 10.000000" stroke="none" fill="white" stroke-width="1px"></path></g><g id="crv-nbhd"><path d="M 221.737654 10.000004 L 221.737654 24.889584 L 221.737654 39.779165 L 229.332319 44.864750 L 236.926984 49.950336 L 260.193184 52.940378 L 283.459383 55.930420 L 283.459383 32.965210 L 283.459382 10.000000 L 252.598525 10.000002 L 221.737654 10.000004" stroke="#DD2222" fill="none" stroke-width="1px"></path><path d="M 283.459383 107.033125 L 283.459383 81.481773 L 283.459383 55.930420 L 260.193184 52.940378 L 236.926984 49.950336 L 243.935990 78.491731 L 250.944996 107.033125 L 267.202189 107.033125 L 283.459383 107.033125" stroke="#DD2222" fill="none" stroke-width="1px"></path><path d="M 221.737654 39.779165 L 221.737654 59.465248 L 221.737654 79.151330 L 216.116975 79.151330 L 210.496297 79.151330 L 211.518320 93.092228 L 212.540342 107.033125 L 231.742669 107.033125 L 250.944996 107.033125 L 243.935990 78.491731 L 236.926984 49.950336 L 229.332321 44.864752 L 221.737654 39.779165" stroke="#DD2222" fill="none" stroke-width="1px"></path><path d="M 169.424425 107.033125 L 190.982384 107.033125 L 212.540342 107.033125 L 211.518320 93.092228 L 210.496297 79.151330 L 192.070585 79.151330 L 173.644873 79.151329 L 171.534649 93.092227 L 169.424425 107.033125" stroke="#DD2222" fill="none" stroke-width="1px"></path><path d="M 173.644873 79.151329 L 155.637684 79.151329 L 137.630495 79.151328 L 138.806787 93.092227 L 139.983078 107.033125 L 154.703752 107.033125 L 169.424425 107.033125 L 171.534649 93.092227 L 173.644873 79.151329" stroke="#DD2222" fill="none" stroke-width="1px"></path><path d="M 137.630495 79.151328 L 114.473220 79.151328 L 91.315945 79.151327 L 91.315945 93.092226 L 91.315945 107.033125 L 115.649512 107.033125 L 139.983078 107.033125 L 138.806787 93.092230 L 137.630495 79.151328" stroke="#DD2222" fill="none" stroke-width="1px"></path><path d="M 64.258758 113.090312 L 64.258758 85.878353 L 64.258758 58.666394 L 37.129379 60.080192 L 10.000000 61.493989 L 10.000000 87.292151 L 10.000000 113.090312 L 37.129372 113.090312 L 64.258758 113.090312" stroke="#DD2222" fill="none" stroke-width="1px"></path><path d="M 10.000000 10.597184 L 10.000000 36.045587 L 10.000000 61.493989 L 37.129379 60.080192 L 64.258758 58.666394 L 64.258758 57.408588 L 64.258758 56.150781 L 64.258758 33.373983 L 64.258758 10.597185 L 37.129379 10.597185 L 10.000000 10.597184" stroke="#DD2222" fill="none" stroke-width="1px"></path><path d="M 10.000000 123.687497 L 10.000000 149.450840 L 10.000000 175.214183 L 37.129379 173.748964 L 64.258758 172.283744 L 64.258758 170.762419 L 64.258758 169.241094 L 64.258758 146.464296 L 64.258758 123.687497 L 37.129385 123.687497 L 10.000000 123.687497" stroke="#DD2222" fill="none" stroke-width="1px"></path><path d="M 10.000000 175.214183 L 10.000000 200.697404 L 10.000000 226.180625 L 37.129379 226.180625 L 64.258758 226.180625 L 64.258758 199.232185 L 64.258758 172.283744 L 37.129385 173.748963 L 10.000000 175.214183" stroke="#DD2222" fill="none" stroke-width="1px"></path><path d="M 134.878991 192.043444 L 113.097468 192.043444 L 91.315945 192.043444 L 91.315945 206.083441 L 91.315945 220.123437 L 112.902352 220.123437 L 134.488758 220.123437 L 134.683874 206.083508 L 134.878991 192.043444" stroke="#DD2222" fill="none" stroke-width="1px"></path><path d="M 185.510422 192.043444 L 160.194707 192.043444 L 134.878991 192.043444 L 134.683875 206.083441 L 134.488758 220.123437 L 164.881890 220.123437 L 195.275022 220.123437 L 190.392722 206.083441 L 185.510422 192.043444" stroke="#DD2222" fill="none" stroke-width="1px"></path><path d="M 236.231966 192.043444 L 210.871194 192.043444 L 185.510422 192.043444 L 190.392722 206.083441 L 195.275022 220.123437 L 213.573137 220.123437 L 231.871252 220.123437 L 234.051608 206.083444 L 236.231966 192.043444" stroke="#DD2222" fill="none" stroke-width="1px"></path><path d="M 283.459383 220.123437 L 283.459383 191.232011 L 283.459383 162.340584 L 261.598517 168.648372 L 239.737652 174.956160 L 239.737652 183.499802 L 239.737652 192.043444 L 237.984809 192.043444 L 236.231966 192.043444 L 234.051609 206.083441 L 231.871252 220.123437 L 257.665311 220.123437 L 283.459383 220.123437" stroke="#DD2222" fill="none" stroke-width="1px"></path><path d="M 239.737652 123.090312 L 239.737652 149.023236 L 239.737652 174.956160 L 261.598517 168.648372 L 283.459383 162.340584 L 283.459383 142.715448 L 283.459383 123.090312 L 261.598522 123.090312 L 239.737652 123.090312" stroke="#DD2222" fill="none" stroke-width="1px"></path></g><g id="crv-amen"><path d="M 15.425876 159.921061 L 15.425876 166.587762 L 15.425876 173.254464 L 37.129379 172.082288 L 58.832882 170.910113 L 58.832882 169.693053 L 58.832882 168.475992 L 58.832882 163.026351 L 58.832882 157.576710 L 37.129379 158.748886 L 15.425876 159.921061" stroke="none" fill="#2288CC" stroke-width="1px"></path><path d="M 49.285174 220.835753 L 55.942173 220.835753 L 62.599173 220.835753 L 62.599173 199.277000 L 62.599173 177.718248 L 55.942174 178.077783 L 49.285174 178.437318 L 49.285174 199.636536 L 49.285174 220.835753" stroke="none" fill="#2288CC" stroke-width="1px"></path><path d="M 119.548087 217.315438 L 126.205729 217.315438 L 132.863371 217.315438 L 133.019464 206.083441 L 133.175557 194.851444 L 126.517915 194.851444 L 119.860273 194.851444 L 119.704180 206.083441 L 119.548087 217.315438" stroke="none" fill="#2288CC" stroke-width="1px"></path><path d="M 149.819663 194.851444 L 143.162021 194.851444 L 136.504378 194.851444 L 136.348285 206.083441 L 136.192192 217.315438 L 142.849834 217.315438 L 149.507477 217.315438 L 149.663570 206.083441 L 149.819663 194.851444" stroke="none" fill="#2288CC" stroke-width="1px"></path><path d="M 202.319874 194.822270 L 195.271860 194.822270 L 188.223847 194.822270 L 192.129687 206.054268 L 196.035527 217.286265 L 200.742257 217.286265 L 205.448987 217.286265 L 207.537694 216.559933 L 209.626401 215.833602 L 205.973138 205.327936 L 202.319874 194.822270" stroke="none" fill="#2288CC" stroke-width="1px"></path><path d="M 240.317939 192.121254 L 240.317939 193.398861 L 240.317939 194.676467 L 238.915665 194.676467 L 237.513390 194.676467 L 235.769105 205.908464 L 234.024819 217.140461 L 240.761613 217.140461 L 247.498408 217.140461 L 249.310806 205.469866 L 251.123204 193.799270 L 245.720572 192.960262 L 240.317939 192.121254" stroke="none" fill="#2288CC" stroke-width="1px"></path><path d="M 254.688973 128.040679 L 248.031974 128.040679 L 241.374974 128.040679 L 241.374974 148.787018 L 241.374974 169.533357 L 248.031973 167.612530 L 254.688973 165.691703 L 254.688973 146.866191 L 254.688973 128.040679" stroke="none" fill="#2288CC" stroke-width="1px"></path><path d="M 277.287210 24.978249 L 277.287210 18.321250 L 277.287209 11.664250 L 252.598518 11.664252 L 227.909827 11.664253 L 227.909827 18.321253 L 227.909827 24.978252 L 252.598518 24.978251 L 277.287210 24.978249" stroke="none" fill="#2288CC" stroke-width="1px"></path><path d="M 254.214958 57.590846 L 247.136783 56.681198 L 240.058607 55.771551 L 245.665812 78.604666 L 251.273017 101.437782 L 258.127807 101.437782 L 264.982598 101.437782 L 259.598778 79.514314 L 254.214958 57.590846" stroke="none" fill="#2288CC" stroke-width="1px"></path><path d="M 221.408096 78.202048 L 221.408096 79.989340 L 221.408096 81.776632 L 216.911554 81.776632 L 212.415011 81.776632 L 213.232629 92.929350 L 214.050247 104.082068 L 220.725112 104.082068 L 227.399976 104.082068 L 226.440385 90.992771 L 225.480794 77.903474 L 223.444445 78.052761 L 221.408096 78.202048" stroke="none" fill="#2288CC" stroke-width="1px"></path><path d="M 197.317493 104.244945 L 203.992357 104.244945 L 210.667222 104.244945 L 209.849604 93.092228 L 209.031986 81.939510 L 202.357121 81.939509 L 195.682257 81.939509 L 196.499875 93.092227 L 197.317493 104.244945" stroke="none" fill="#2288CC" stroke-width="1px"></path><path d="M 167.973429 94.097620 L 168.981094 87.440620 L 169.988759 80.783621 L 155.583009 80.783621 L 141.177258 80.783620 L 141.738955 87.440620 L 142.300653 94.097619 L 155.137041 94.097619 L 167.973429 94.097620" stroke="none" fill="#2288CC" stroke-width="1px"></path><path d="M 134.192998 94.137861 L 133.631300 87.480863 L 133.069602 80.823863 L 114.543782 80.823862 L 96.017962 80.823862 L 96.017962 87.480861 L 96.017962 94.137860 L 115.105480 94.137861 L 134.192998 94.137861" stroke="none" fill="#2288CC" stroke-width="1px"></path><path d="M 58.832882 73.947727 L 58.832882 67.281695 L 58.832882 60.615662 L 37.129379 61.746700 L 15.425876 62.877738 L 15.425876 69.543771 L 15.425876 76.209804 L 37.129379 75.078766 L 58.832882 73.947727" stroke="none" fill="#2288CC" stroke-width="1px"></path><path d="M 15.425876 46.212656 L 15.425876 52.878689 L 15.425876 59.544722 L 37.129379 58.413684 L 58.832882 57.282646 L 58.832882 56.276400 L 58.832882 55.270155 L 58.832882 49.610368 L 58.832882 43.950580 L 37.129379 45.081618 L 15.425876 46.212656" stroke="none" fill="#2288CC" stroke-width="1px"></path></g><g id="crv-desk"><path d="M 55.459383 145.758908 L 52.959383 145.758908 L 52.959383 151.758908 L 55.459383 151.758908 L 55.459383 145.758908" stroke="gray" fill="white" stroke-width="1px"></path><path d="M 55.459383 139.758908 L 52.959383 139.758908 L 52.959383 145.758908 L 55.459383 145.758908 L 55.459383 139.758908" stroke="gray" fill="white" stroke-width="1px"></path><path d="M 55.459383 133.758908 L 52.959383 133.758908 L 52.959383 139.758908 L 55.459383 139.758908 L 55.459383 133.758908" stroke="gray" fill="white" stroke-width="1px"></path><path d="M 55.459383 127.758908 L 52.959383 127.758908 L 52.959383 133.758908 L 55.459383 133.758908 L 55.459383 127.758908" stroke="gray" fill="white" stroke-width="1px"></path><path d="M 43.459383 146.407011 L 40.959383 146.407011 L 40.959383 152.407011 L 43.459383 152.407011 L 43.459383 146.407011" stroke="gray" fill="white" stroke-width="1px"></path><path d="M 43.459383 140.407011 L 40.959383 140.407011 L 40.959383 146.407011 L 43.459383 146.407011 L 43.459383 140.407011" stroke="gray" fill="white" stroke-width="1px"></path><path d="M 43.459383 134.407011 L 40.959383 134.407011 L 40.959383 140.407011 L 43.459383 140.407011 L 43.459383 134.407011" stroke="gray" fill="white" stroke-width="1px"></path><path d="M 43.459383 128.407011 L 40.959383 128.407011 L 40.959383 134.407011 L 43.459383 134.407011 L 43.459383 128.407011" stroke="gray" fill="white" stroke-width="1px"></path><path d="M 31.459383 147.055114 L 28.959383 147.055114 L 28.959383 153.055114 L 31.459383 153.055114 L 31.459383 147.055114" stroke="gray" fill="white" stroke-width="1px"></path><path d="M 31.459383 141.055114 L 28.959383 141.055114 L 28.959383 147.055114 L 31.459383 147.055114 L 31.459383 141.055114" stroke="gray" fill="white" stroke-width="1px"></path><path d="M 31.459383 135.055114 L 28.959383 135.055114 L 28.959383 141.055114 L 31.459383 141.055114 L 31.459383 135.055114" stroke="gray" fill="white" stroke-width="1px"></path><path d="M 31.459383 129.055114 L 28.959383 129.055114 L 28.959383 135.055114 L 31.459383 135.055114 L 31.459383 129.055114" stroke="gray" fill="white" stroke-width="1px"></path><path d="M 19.459383 147.703217 L 16.959383 147.703217 L 16.959383 153.703217 L 19.459383 153.703217 L 19.459383 147.703217" stroke="gray" fill="white" stroke-width="1px"></path><path d="M 19.459383 141.703217 L 16.959383 141.703217 L 16.959383 147.703217 L 19.459383 147.703217 L 19.459383 141.703217" stroke="gray" fill="white" stroke-width="1px"></path><path d="M 19.459383 135.703217 L 16.959383 135.703217 L 16.959383 141.703217 L 19.459383 141.703217 L 19.459383 135.703217" stroke="gray" fill="white" stroke-width="1px"></path><path d="M 19.459383 129.703217 L 16.959383 129.703217 L 16.959383 135.703217 L 19.459383 135.703217 L 19.459383 129.703217" stroke="gray" fill="white" stroke-width="1px"></path><path d="M 31.459383 220.180625 L 28.959383 220.180625 L 28.959383 226.180625 L 31.459383 226.180625 L 31.459383 220.180625" stroke="gray" fill="white" stroke-width="1px"></path><path d="M 31.459383 214.180625 L 28.959383 214.180625 L 28.959383 220.180625 L 31.459383 220.180625 L 31.459383 214.180625" stroke="gray" fill="white" stroke-width="1px"></path><path d="M 31.459383 208.180625 L 28.959383 208.180625 L 28.959383 214.180625 L 31.459383 214.180625 L 31.459383 208.180625" stroke="gray" fill="white" stroke-width="1px"></path><path d="M 31.459383 202.180625 L 28.959383 202.180625 L 28.959383 208.180625 L 31.459383 208.180625 L 31.459383 202.180625" stroke="gray" fill="white" stroke-width="1px"></path><path d="M 31.459383 196.180625 L 28.959383 196.180625 L 28.959383 202.180625 L 31.459383 202.180625 L 31.459383 196.180625" stroke="gray" fill="white" stroke-width="1px"></path><path d="M 31.459383 190.180625 L 28.959383 190.180625 L 28.959383 196.180625 L 31.459383 196.180625 L 31.459383 190.180625" stroke="gray" fill="white" stroke-width="1px"></path><path d="M 31.459383 184.180625 L 28.959383 184.180625 L 28.959383 190.180625 L 31.459383 190.180625 L 31.459383 184.180625" stroke="gray" fill="white" stroke-width="1px"></path><path d="M 19.459383 220.180625 L 16.959383 220.180625 L 16.959383 226.180625 L 19.459383 226.180625 L 19.459383 220.180625" stroke="gray" fill="white" stroke-width="1px"></path><path d="M 19.459383 214.180625 L 16.959383 214.180625 L 16.959383 220.180625 L 19.459383 220.180625 L 19.459383 214.180625" stroke="gray" fill="white" stroke-width="1px"></path><path d="M 19.459383 208.180625 L 16.959383 208.180625 L 16.959383 214.180625 L 19.459383 214.180625 L 19.459383 208.180625" stroke="gray" fill="white" stroke-width="1px"></path><path d="M 19.459383 202.180625 L 16.959383 202.180625 L 16.959383 208.180625 L 19.459383 208.180625 L 19.459383 202.180625" stroke="gray" fill="white" stroke-width="1px"></path><path d="M 19.459383 196.180625 L 16.959383 196.180625 L 16.959383 202.180625 L 19.459383 202.180625 L 19.459383 196.180625" stroke="gray" fill="white" stroke-width="1px"></path><path d="M 19.459383 190.180625 L 16.959383 190.180625 L 16.959383 196.180625 L 19.459383 196.180625 L 19.459383 190.180625" stroke="gray" fill="white" stroke-width="1px"></path><path d="M 19.459383 184.180625 L 16.959383 184.180625 L 16.959383 190.180625 L 19.459383 190.180625 L 19.459383 184.180625" stroke="gray" fill="white" stroke-width="1px"></path><path d="M 103.459383 214.123437 L 100.959383 214.123437 L 100.959383 220.123437 L 103.459383 220.123437 L 103.459383 214.123437" stroke="gray" fill="white" stroke-width="1px"></path><path d="M 103.459383 208.123437 L 100.959383 208.123437 L 100.959383 214.123437 L 103.459383 214.123437 L 103.459383 208.123437" stroke="gray" fill="white" stroke-width="1px"></path><path d="M 103.459383 202.123437 L 100.959383 202.123437 L 100.959383 208.123437 L 103.459383 208.123437 L 103.459383 202.123437" stroke="gray" fill="white" stroke-width="1px"></path><path d="M 103.459383 196.123437 L 100.959383 196.123437 L 100.959383 202.123437 L 103.459383 202.123437 L 103.459383 196.123437" stroke="gray" fill="white" stroke-width="1px"></path><path d="M 187.459383 214.123437 L 184.959383 214.123437 L 184.959383 220.123437 L 187.459383 220.123437 L 187.459383 214.123437" stroke="gray" fill="white" stroke-width="1px"></path><path d="M 175.459383 214.123437 L 172.959383 214.123437 L 172.959383 220.123437 L 175.459383 220.123437 L 175.459383 214.123437" stroke="gray" fill="white" stroke-width="1px"></path><path d="M 175.459383 208.123437 L 172.959383 208.123437 L 172.959383 214.123437 L 175.459383 214.123437 L 175.459383 208.123437" stroke="gray" fill="white" stroke-width="1px"></path><path d="M 175.459383 202.123437 L 172.959383 202.123437 L 172.959383 208.123437 L 175.459383 208.123437 L 175.459383 202.123437" stroke="gray" fill="white" stroke-width="1px"></path><path d="M 175.459383 196.123437 L 172.959383 196.123437 L 172.959383 202.123437 L 175.459383 202.123437 L 175.459383 196.123437" stroke="gray" fill="white" stroke-width="1px"></path><path d="M 163.459383 214.123437 L 160.959383 214.123437 L 160.959383 220.123437 L 163.459383 220.123437 L 163.459383 214.123437" stroke="gray" fill="white" stroke-width="1px"></path><path d="M 163.459383 208.123437 L 160.959383 208.123437 L 160.959383 214.123437 L 163.459383 214.123437 L 163.459383 208.123437" stroke="gray" fill="white" stroke-width="1px"></path><path d="M 163.459383 202.123437 L 160.959383 202.123437 L 160.959383 208.123437 L 163.459383 208.123437 L 163.459383 202.123437" stroke="gray" fill="white" stroke-width="1px"></path><path d="M 163.459383 196.123437 L 160.959383 196.123437 L 160.959383 202.123437 L 163.459383 202.123437 L 163.459383 196.123437" stroke="gray" fill="white" stroke-width="1px"></path><path d="M 223.459383 214.123437 L 220.959383 214.123437 L 220.959383 220.123437 L 223.459383 220.123437 L 223.459383 214.123437" stroke="gray" fill="white" stroke-width="1px"></path><path d="M 223.459383 208.123437 L 220.959383 208.123437 L 220.959383 214.123437 L 223.459383 214.123437 L 223.459383 208.123437" stroke="gray" fill="white" stroke-width="1px"></path><path d="M 223.459383 202.123437 L 220.959383 202.123437 L 220.959383 208.123437 L 223.459383 208.123437 L 223.459383 202.123437" stroke="gray" fill="white" stroke-width="1px"></path><path d="M 223.459383 196.123437 L 220.959383 196.123437 L 220.959383 202.123437 L 223.459383 202.123437 L 223.459383 196.123437" stroke="gray" fill="white" stroke-width="1px"></path><path d="M 211.459383 202.123437 L 208.959383 202.123437 L 208.959383 208.123437 L 211.459383 208.123437 L 211.459383 202.123437" stroke="gray" fill="white" stroke-width="1px"></path><path d="M 211.459383 196.123437 L 208.959383 196.123437 L 208.959383 202.123437 L 211.459383 202.123437 L 211.459383 196.123437" stroke="gray" fill="white" stroke-width="1px"></path><path d="M 55.459383 145.758908 L 57.959383 145.758908 L 57.959383 151.758908 L 55.459383 151.758908 L 55.459383 145.758908" stroke="gray" fill="white" stroke-width="1px"></path><path d="M 55.459383 139.758908 L 57.959383 139.758908 L 57.959383 145.758908 L 55.459383 145.758908 L 55.459383 139.758908" stroke="gray" fill="white" stroke-width="1px"></path><path d="M 55.459383 133.758908 L 57.959383 133.758908 L 57.959383 139.758908 L 55.459383 139.758908 L 55.459383 133.758908" stroke="gray" fill="white" stroke-width="1px"></path><path d="M 55.459383 127.758908 L 57.959383 127.758908 L 57.959383 133.758908 L 55.459383 133.758908 L 55.459383 127.758908" stroke="gray" fill="white" stroke-width="1px"></path><path d="M 43.459383 146.407011 L 45.959383 146.407011 L 45.959383 152.407011 L 43.459383 152.407011 L 43.459383 146.407011" stroke="gray" fill="white" stroke-width="1px"></path><path d="M 43.459383 140.407011 L 45.959383 140.407011 L 45.959383 146.407011 L 43.459383 146.407011 L 43.459383 140.407011" stroke="gray" fill="white" stroke-width="1px"></path><path d="M 43.459383 134.407011 L 45.959383 134.407011 L 45.959383 140.407011 L 43.459383 140.407011 L 43.459383 134.407011" stroke="gray" fill="white" stroke-width="1px"></path><path d="M 43.459383 128.407011 L 45.959383 128.407011 L 45.959383 134.407011 L 43.459383 134.407011 L 43.459383 128.407011" stroke="gray" fill="white" stroke-width="1px"></path><path d="M 31.459383 147.055114 L 33.959383 147.055114 L 33.959383 153.055114 L 31.459383 153.055114 L 31.459383 147.055114" stroke="gray" fill="white" stroke-width="1px"></path><path d="M 31.459383 141.055114 L 33.959383 141.055114 L 33.959383 147.055114 L 31.459383 147.055114 L 31.459383 141.055114" stroke="gray" fill="white" stroke-width="1px"></path><path d="M 31.459383 135.055114 L 33.959383 135.055114 L 33.959383 141.055114 L 31.459383 141.055114 L 31.459383 135.055114" stroke="gray" fill="white" stroke-width="1px"></path><path d="M 31.459383 129.055114 L 33.959383 129.055114 L 33.959383 135.055114 L 31.459383 135.055114 L 31.459383 129.055114" stroke="gray" fill="white" stroke-width="1px"></path><path d="M 19.459383 147.703217 L 21.959383 147.703217 L 21.959383 153.703217 L 19.459383 153.703217 L 19.459383 147.703217" stroke="gray" fill="white" stroke-width="1px"></path><path d="M 19.459383 141.703217 L 21.959383 141.703217 L 21.959383 147.703217 L 19.459383 147.703217 L 19.459383 141.703217" stroke="gray" fill="white" stroke-width="1px"></path><path d="M 19.459383 135.703217 L 21.959383 135.703217 L 21.959383 141.703217 L 19.459383 141.703217 L 19.459383 135.703217" stroke="gray" fill="white" stroke-width="1px"></path><path d="M 19.459383 129.703217 L 21.959383 129.703217 L 21.959383 135.703217 L 19.459383 135.703217 L 19.459383 129.703217" stroke="gray" fill="white" stroke-width="1px"></path><path d="M 31.459383 220.180625 L 33.959383 220.180625 L 33.959383 226.180625 L 31.459383 226.180625 L 31.459383 220.180625" stroke="gray" fill="white" stroke-width="1px"></path><path d="M 31.459383 214.180625 L 33.959383 214.180625 L 33.959383 220.180625 L 31.459383 220.180625 L 31.459383 214.180625" stroke="gray" fill="white" stroke-width="1px"></path><path d="M 31.459383 208.180625 L 33.959383 208.180625 L 33.959383 214.180625 L 31.459383 214.180625 L 31.459383 208.180625" stroke="gray" fill="white" stroke-width="1px"></path><path d="M 31.459383 202.180625 L 33.959383 202.180625 L 33.959383 208.180625 L 31.459383 208.180625 L 31.459383 202.180625" stroke="gray" fill="white" stroke-width="1px"></path><path d="M 31.459383 196.180625 L 33.959383 196.180625 L 33.959383 202.180625 L 31.459383 202.180625 L 31.459383 196.180625" stroke="gray" fill="white" stroke-width="1px"></path><path d="M 31.459383 190.180625 L 33.959383 190.180625 L 33.959383 196.180625 L 31.459383 196.180625 L 31.459383 190.180625" stroke="gray" fill="white" stroke-width="1px"></path><path d="M 31.459383 184.180625 L 33.959383 184.180625 L 33.959383 190.180625 L 31.459383 190.180625 L 31.459383 184.180625" stroke="gray" fill="white" stroke-width="1px"></path><path d="M 19.459383 220.180625 L 21.959383 220.180625 L 21.959383 226.180625 L 19.459383 226.180625 L 19.459383 220.180625" stroke="gray" fill="white" stroke-width="1px"></path><path d="M 19.459383 214.180625 L 21.959383 214.180625 L 21.959383 220.180625 L 19.459383 220.180625 L 19.459383 214.180625" stroke="gray" fill="white" stroke-width="1px"></path><path d="M 19.459383 208.180625 L 21.959383 208.180625 L 21.959383 214.180625 L 19.459383 214.180625 L 19.459383 208.180625" stroke="gray" fill="white" stroke-width="1px"></path><path d="M 19.459383 202.180625 L 21.959383 202.180625 L 21.959383 208.180625 L 19.459383 208.180625 L 19.459383 202.180625" stroke="gray" fill="white" stroke-width="1px"></path><path d="M 19.459383 196.180625 L 21.959383 196.180625 L 21.959383 202.180625 L 19.459383 202.180625 L 19.459383 196.180625" stroke="gray" fill="white" stroke-width="1px"></path><path d="M 19.459383 190.180625 L 21.959383 190.180625 L 21.959383 196.180625 L 19.459383 196.180625 L 19.459383 190.180625" stroke="gray" fill="white" stroke-width="1px"></path><path d="M 19.459383 184.180625 L 21.959383 184.180625 L 21.959383 190.180625 L 19.459383 190.180625 L 19.459383 184.180625" stroke="gray" fill="white" stroke-width="1px"></path><path d="M 103.459383 214.123437 L 105.959383 214.123437 L 105.959383 220.123437 L 103.459383 220.123437 L 103.459383 214.123437" stroke="gray" fill="white" stroke-width="1px"></path><path d="M 103.459383 208.123437 L 105.959383 208.123437 L 105.959383 214.123437 L 103.459383 214.123437 L 103.459383 208.123437" stroke="gray" fill="white" stroke-width="1px"></path><path d="M 103.459383 202.123437 L 105.959383 202.123437 L 105.959383 208.123437 L 103.459383 208.123437 L 103.459383 202.123437" stroke="gray" fill="white" stroke-width="1px"></path><path d="M 103.459383 196.123437 L 105.959383 196.123437 L 105.959383 202.123437 L 103.459383 202.123437 L 103.459383 196.123437" stroke="gray" fill="white" stroke-width="1px"></path><path d="M 187.459383 214.123437 L 189.959383 214.123437 L 189.959383 220.123437 L 187.459383 220.123437 L 187.459383 214.123437" stroke="gray" fill="white" stroke-width="1px"></path><path d="M 175.459383 214.123437 L 177.959383 214.123437 L 177.959383 220.123437 L 175.459383 220.123437 L 175.459383 214.123437" stroke="gray" fill="white" stroke-width="1px"></path><path d="M 175.459383 208.123437 L 177.959383 208.123437 L 177.959383 214.123437 L 175.459383 214.123437 L 175.459383 208.123437" stroke="gray" fill="white" stroke-width="1px"></path><path d="M 175.459383 202.123437 L 177.959383 202.123437 L 177.959383 208.123437 L 175.459383 208.123437 L 175.459383 202.123437" stroke="gray" fill="white" stroke-width="1px"></path><path d="M 175.459383 196.123437 L 177.959383 196.123437 L 177.959383 202.123437 L 175.459383 202.123437 L 175.459383 196.123437" stroke="gray" fill="white" stroke-width="1px"></path><path d="M 163.459383 214.123437 L 165.959383 214.123437 L 165.959383 220.123437 L 163.459383 220.123437 L 163.459383 214.123437" stroke="gray" fill="white" stroke-width="1px"></path><path d="M 163.459383 208.123437 L 165.959383 208.123437 L 165.959383 214.123437 L 163.459383 214.123437 L 163.459383 208.123437" stroke="gray" fill="white" stroke-width="1px"></path><path d="M 163.459383 202.123437 L 165.959383 202.123437 L 165.959383 208.123437 L 163.459383 208.123437 L 163.459383 202.123437" stroke="gray" fill="white" stroke-width="1px"></path><path d="M 163.459383 196.123437 L 165.959383 196.123437 L 165.959383 202.123437 L 163.459383 202.123437 L 163.459383 196.123437" stroke="gray" fill="white" stroke-width="1px"></path><path d="M 223.459383 214.123437 L 225.959383 214.123437 L 225.959383 220.123437 L 223.459383 220.123437 L 223.459383 214.123437" stroke="gray" fill="white" stroke-width="1px"></path><path d="M 223.459383 208.123437 L 225.959383 208.123437 L 225.959383 214.123437 L 223.459383 214.123437 L 223.459383 208.123437" stroke="gray" fill="white" stroke-width="1px"></path><path d="M 223.459383 202.123437 L 225.959383 202.123437 L 225.959383 208.123437 L 223.459383 208.123437 L 223.459383 202.123437" stroke="gray" fill="white" stroke-width="1px"></path><path d="M 223.459383 196.123437 L 225.959383 196.123437 L 225.959383 202.123437 L 223.459383 202.123437 L 223.459383 196.123437" stroke="gray" fill="white" stroke-width="1px"></path><path d="M 211.459383 202.123437 L 213.959383 202.123437 L 213.959383 208.123437 L 211.459383 208.123437 L 211.459383 202.123437" stroke="gray" fill="white" stroke-width="1px"></path><path d="M 211.459383 196.123437 L 213.959383 196.123437 L 213.959383 202.123437 L 211.459383 202.123437 L 211.459383 196.123437" stroke="gray" fill="white" stroke-width="1px"></path><path d="M 254.898717 208.123437 L 254.898717 205.623437 L 248.898717 205.623437 L 248.898717 208.123437 L 254.898717 208.123437" stroke="gray" fill="white" stroke-width="1px"></path><path d="M 260.898717 208.123437 L 260.898717 205.623437 L 254.898717 205.623437 L 254.898717 208.123437 L 260.898717 208.123437" stroke="gray" fill="white" stroke-width="1px"></path><path d="M 266.898717 208.123437 L 266.898717 205.623437 L 260.898717 205.623437 L 260.898717 208.123437 L 266.898717 208.123437" stroke="gray" fill="white" stroke-width="1px"></path><path d="M 272.898717 208.123437 L 272.898717 205.623437 L 266.898717 205.623437 L 266.898717 208.123437 L 272.898717 208.123437" stroke="gray" fill="white" stroke-width="1px"></path><path d="M 278.898717 208.123437 L 278.898717 205.623437 L 272.898717 205.623437 L 272.898717 208.123437 L 278.898717 208.123437" stroke="gray" fill="white" stroke-width="1px"></path><path d="M 256.762270 196.123437 L 256.762270 193.623437 L 250.762270 193.623437 L 250.762270 196.123437 L 256.762270 196.123437" stroke="gray" fill="white" stroke-width="1px"></path><path d="M 262.762270 196.123437 L 262.762270 193.623437 L 256.762270 193.623437 L 256.762270 196.123437 L 262.762270 196.123437" stroke="gray" fill="white" stroke-width="1px"></path><path d="M 268.762270 196.123437 L 268.762270 193.623437 L 262.762270 193.623437 L 262.762270 196.123437 L 268.762270 196.123437" stroke="gray" fill="white" stroke-width="1px"></path><path d="M 274.762270 196.123437 L 274.762270 193.623437 L 268.762270 193.623437 L 268.762270 196.123437 L 274.762270 196.123437" stroke="gray" fill="white" stroke-width="1px"></path><path d="M 251.737652 184.123437 L 251.737652 181.623437 L 245.737652 181.623437 L 245.737652 184.123437 L 251.737652 184.123437" stroke="gray" fill="white" stroke-width="1px"></path><path d="M 257.737652 184.123437 L 257.737652 181.623437 L 251.737652 181.623437 L 251.737652 184.123437 L 257.737652 184.123437" stroke="gray" fill="white" stroke-width="1px"></path><path d="M 263.737652 184.123437 L 263.737652 181.623437 L 257.737652 181.623437 L 257.737652 184.123437 L 263.737652 184.123437" stroke="gray" fill="white" stroke-width="1px"></path><path d="M 269.737652 184.123437 L 269.737652 181.623437 L 263.737652 181.623437 L 263.737652 184.123437 L 269.737652 184.123437" stroke="gray" fill="white" stroke-width="1px"></path><path d="M 275.737652 184.123437 L 275.737652 181.623437 L 269.737652 181.623437 L 269.737652 184.123437 L 275.737652 184.123437" stroke="gray" fill="white" stroke-width="1px"></path><path d="M 273.555003 172.123437 L 273.555003 169.623437 L 267.555003 169.623437 L 267.555003 172.123437 L 273.555003 172.123437" stroke="gray" fill="white" stroke-width="1px"></path><path d="M 266.688973 160.123437 L 266.688973 157.623437 L 260.688973 157.623437 L 260.688973 160.123437 L 266.688973 160.123437" stroke="gray" fill="white" stroke-width="1px"></path><path d="M 272.688973 160.123437 L 272.688973 157.623437 L 266.688973 157.623437 L 266.688973 160.123437 L 272.688973 160.123437" stroke="gray" fill="white" stroke-width="1px"></path><path d="M 266.688973 148.123437 L 266.688973 145.623437 L 260.688973 145.623437 L 260.688973 148.123437 L 266.688973 148.123437" stroke="gray" fill="white" stroke-width="1px"></path><path d="M 272.688973 148.123437 L 272.688973 145.623437 L 266.688973 145.623437 L 266.688973 148.123437 L 272.688973 148.123437" stroke="gray" fill="white" stroke-width="1px"></path><path d="M 278.688973 148.123437 L 278.688973 145.623437 L 272.688973 145.623437 L 272.688973 148.123437 L 278.688973 148.123437" stroke="gray" fill="white" stroke-width="1px"></path><path d="M 266.688973 136.123437 L 266.688973 133.623437 L 260.688973 133.623437 L 260.688973 136.123437 L 266.688973 136.123437" stroke="gray" fill="white" stroke-width="1px"></path><path d="M 272.688973 136.123437 L 272.688973 133.623437 L 266.688973 133.623437 L 266.688973 136.123437 L 272.688973 136.123437" stroke="gray" fill="white" stroke-width="1px"></path><path d="M 278.688973 136.123437 L 278.688973 133.623437 L 272.688973 133.623437 L 272.688973 136.123437 L 278.688973 136.123437" stroke="gray" fill="white" stroke-width="1px"></path><path d="M 254.898717 208.123437 L 254.898717 210.623437 L 248.898717 210.623437 L 248.898717 208.123437 L 254.898717 208.123437" stroke="gray" fill="white" stroke-width="1px"></path><path d="M 260.898717 208.123437 L 260.898717 210.623437 L 254.898717 210.623437 L 254.898717 208.123437 L 260.898717 208.123437" stroke="gray" fill="white" stroke-width="1px"></path><path d="M 266.898717 208.123437 L 266.898717 210.623437 L 260.898717 210.623437 L 260.898717 208.123437 L 266.898717 208.123437" stroke="gray" fill="white" stroke-width="1px"></path><path d="M 272.898717 208.123437 L 272.898717 210.623437 L 266.898717 210.623437 L 266.898717 208.123437 L 272.898717 208.123437" stroke="gray" fill="white" stroke-width="1px"></path><path d="M 278.898717 208.123437 L 278.898717 210.623437 L 272.898717 210.623437 L 272.898717 208.123437 L 278.898717 208.123437" stroke="gray" fill="white" stroke-width="1px"></path><path d="M 256.762270 196.123437 L 256.762270 198.623437 L 250.762270 198.623437 L 250.762270 196.123437 L 256.762270 196.123437" stroke="gray" fill="white" stroke-width="1px"></path><path d="M 262.762270 196.123437 L 262.762270 198.623437 L 256.762270 198.623437 L 256.762270 196.123437 L 262.762270 196.123437" stroke="gray" fill="white" stroke-width="1px"></path><path d="M 268.762270 196.123437 L 268.762270 198.623437 L 262.762270 198.623437 L 262.762270 196.123437 L 268.762270 196.123437" stroke="gray" fill="white" stroke-width="1px"></path><path d="M 274.762270 196.123437 L 274.762270 198.623437 L 268.762270 198.623437 L 268.762270 196.123437 L 274.762270 196.123437" stroke="gray" fill="white" stroke-width="1px"></path><path d="M 251.737652 184.123437 L 251.737652 186.623437 L 245.737652 186.623437 L 245.737652 184.123437 L 251.737652 184.123437" stroke="gray" fill="white" stroke-width="1px"></path><path d="M 257.737652 184.123437 L 257.737652 186.623437 L 251.737652 186.623437 L 251.737652 184.123437 L 257.737652 184.123437" stroke="gray" fill="white" stroke-width="1px"></path><path d="M 263.737652 184.123437 L 263.737652 186.623437 L 257.737652 186.623437 L 257.737652 184.123437 L 263.737652 184.123437" stroke="gray" fill="white" stroke-width="1px"></path><path d="M 269.737652 184.123437 L 269.737652 186.623437 L 263.737652 186.623437 L 263.737652 184.123437 L 269.737652 184.123437" stroke="gray" fill="white" stroke-width="1px"></path><path d="M 275.737652 184.123437 L 275.737652 186.623437 L 269.737652 186.623437 L 269.737652 184.123437 L 275.737652 184.123437" stroke="gray" fill="white" stroke-width="1px"></path><path d="M 267.555003 172.123437 L 267.555003 174.623437 L 261.555003 174.623437 L 261.555003 172.123437 L 267.555003 172.123437" stroke="gray" fill="white" stroke-width="1px"></path><path d="M 273.555003 172.123437 L 273.555003 174.623437 L 267.555003 174.623437 L 267.555003 172.123437 L 273.555003 172.123437" stroke="gray" fill="white" stroke-width="1px"></path><path d="M 266.688973 160.123437 L 266.688973 162.623437 L 260.688973 162.623437 L 260.688973 160.123437 L 266.688973 160.123437" stroke="gray" fill="white" stroke-width="1px"></path><path d="M 272.688973 160.123437 L 272.688973 162.623437 L 266.688973 162.623437 L 266.688973 160.123437 L 272.688973 160.123437" stroke="gray" fill="white" stroke-width="1px"></path><path d="M 266.688973 148.123437 L 266.688973 150.623437 L 260.688973 150.623437 L 260.688973 148.123437 L 266.688973 148.123437" stroke="gray" fill="white" stroke-width="1px"></path><path d="M 272.688973 148.123437 L 272.688973 150.623437 L 266.688973 150.623437 L 266.688973 148.123437 L 272.688973 148.123437" stroke="gray" fill="white" stroke-width="1px"></path><path d="M 278.688973 148.123437 L 278.688973 150.623437 L 272.688973 150.623437 L 272.688973 148.123437 L 278.688973 148.123437" stroke="gray" fill="white" stroke-width="1px"></path><path d="M 266.688973 136.123437 L 266.688973 138.623437 L 260.688973 138.623437 L 260.688973 136.123437 L 266.688973 136.123437" stroke="gray" fill="white" stroke-width="1px"></path><path d="M 272.688973 136.123437 L 272.688973 138.623437 L 266.688973 138.623437 L 266.688973 136.123437 L 272.688973 136.123437" stroke="gray" fill="white" stroke-width="1px"></path><path d="M 278.688973 136.123437 L 278.688973 138.623437 L 272.688973 138.623437 L 272.688973 136.123437 L 278.688973 136.123437" stroke="gray" fill="white" stroke-width="1px"></path><path d="M 271.459383 48.388247 L 268.959383 48.388247 L 268.959383 54.388247 L 271.459383 54.388247 L 271.459383 48.388247" stroke="gray" fill="white" stroke-width="1px"></path><path d="M 271.459383 42.388247 L 268.959383 42.388247 L 268.959383 48.388247 L 271.459383 48.388247 L 271.459383 42.388247" stroke="gray" fill="white" stroke-width="1px"></path><path d="M 271.459383 36.388247 L 268.959383 36.388247 L 268.959383 42.388247 L 271.459383 42.388247 L 271.459383 36.388247" stroke="gray" fill="white" stroke-width="1px"></path><path d="M 259.459383 46.846074 L 256.959383 46.846074 L 256.959383 52.846074 L 259.459383 52.846074 L 259.459383 46.846074" stroke="gray" fill="white" stroke-width="1px"></path><path d="M 259.459383 40.846074 L 256.959383 40.846074 L 256.959383 46.846074 L 259.459383 46.846074 L 259.459383 40.846074" stroke="gray" fill="white" stroke-width="1px"></path><path d="M 259.459383 34.846074 L 256.959383 34.846074 L 256.959383 40.846074 L 259.459383 40.846074 L 259.459383 34.846074" stroke="gray" fill="white" stroke-width="1px"></path><path d="M 247.459383 45.303901 L 244.959383 45.303901 L 244.959383 51.303901 L 247.459383 51.303901 L 247.459383 45.303901" stroke="gray" fill="white" stroke-width="1px"></path><path d="M 247.459383 39.303901 L 244.959383 39.303901 L 244.959383 45.303901 L 247.459383 45.303901 L 247.459383 39.303901" stroke="gray" fill="white" stroke-width="1px"></path><path d="M 247.459383 33.303901 L 244.959383 33.303901 L 244.959383 39.303901 L 247.459383 39.303901 L 247.459383 33.303901" stroke="gray" fill="white" stroke-width="1px"></path><path d="M 235.459383 36.967592 L 232.959383 36.967592 L 232.959383 42.967592 L 235.459383 42.967592 L 235.459383 36.967592" stroke="gray" fill="white" stroke-width="1px"></path><path d="M 187.459383 101.033125 L 184.959383 101.033125 L 184.959383 107.033125 L 187.459383 107.033125 L 187.459383 101.033125" stroke="gray" fill="white" stroke-width="1px"></path><path d="M 187.459383 95.033125 L 184.959383 95.033125 L 184.959383 101.033125 L 187.459383 101.033125 L 187.459383 95.033125" stroke="gray" fill="white" stroke-width="1px"></path><path d="M 187.459383 89.033125 L 184.959383 89.033125 L 184.959383 95.033125 L 187.459383 95.033125 L 187.459383 89.033125" stroke="gray" fill="white" stroke-width="1px"></path><path d="M 187.459383 83.033125 L 184.959383 83.033125 L 184.959383 89.033125 L 187.459383 89.033125 L 187.459383 83.033125" stroke="gray" fill="white" stroke-width="1px"></path><path d="M 175.459383 101.033125 L 172.959383 101.033125 L 172.959383 107.033125 L 175.459383 107.033125 L 175.459383 101.033125" stroke="gray" fill="white" stroke-width="1px"></path><path d="M 175.459383 95.033125 L 172.959383 95.033125 L 172.959383 101.033125 L 175.459383 101.033125 L 175.459383 95.033125" stroke="gray" fill="white" stroke-width="1px"></path><path d="M 175.459383 89.033125 L 172.959383 89.033125 L 172.959383 95.033125 L 175.459383 95.033125 L 175.459383 89.033125" stroke="gray" fill="white" stroke-width="1px"></path><path d="M 163.459383 101.033125 L 160.959383 101.033125 L 160.959383 107.033125 L 163.459383 107.033125 L 163.459383 101.033125" stroke="gray" fill="white" stroke-width="1px"></path><path d="M 151.459383 101.033125 L 148.959383 101.033125 L 148.959383 107.033125 L 151.459383 107.033125 L 151.459383 101.033125" stroke="gray" fill="white" stroke-width="1px"></path><path d="M 127.459383 101.033125 L 124.959383 101.033125 L 124.959383 107.033125 L 127.459383 107.033125 L 127.459383 101.033125" stroke="gray" fill="white" stroke-width="1px"></path><path d="M 115.459383 101.033125 L 112.959383 101.033125 L 112.959383 107.033125 L 115.459383 107.033125 L 115.459383 101.033125" stroke="gray" fill="white" stroke-width="1px"></path><path d="M 103.459383 101.033125 L 100.959383 101.033125 L 100.959383 107.033125 L 103.459383 107.033125 L 103.459383 101.033125" stroke="gray" fill="white" stroke-width="1px"></path><path d="M 55.459383 32.126384 L 52.959383 32.126384 L 52.959383 38.126384 L 55.459383 38.126384 L 55.459383 32.126384" stroke="gray" fill="white" stroke-width="1px"></path><path d="M 55.459383 26.126384 L 52.959383 26.126384 L 52.959383 32.126384 L 55.459383 32.126384 L 55.459383 26.126384" stroke="gray" fill="white" stroke-width="1px"></path><path d="M 55.459383 20.126384 L 52.959383 20.126384 L 52.959383 26.126384 L 55.459383 26.126384 L 55.459383 20.126384" stroke="gray" fill="white" stroke-width="1px"></path><path d="M 55.459383 14.126384 L 52.959383 14.126384 L 52.959383 20.126384 L 55.459383 20.126384 L 55.459383 14.126384" stroke="gray" fill="white" stroke-width="1px"></path><path d="M 43.459383 32.751742 L 40.959383 32.751742 L 40.959383 38.751742 L 43.459383 38.751742 L 43.459383 32.751742" stroke="gray" fill="white" stroke-width="1px"></path><path d="M 43.459383 26.751742 L 40.959383 26.751742 L 40.959383 32.751742 L 43.459383 32.751742 L 43.459383 26.751742" stroke="gray" fill="white" stroke-width="1px"></path><path d="M 43.459383 20.751742 L 40.959383 20.751742 L 40.959383 26.751742 L 43.459383 26.751742 L 43.459383 20.751742" stroke="gray" fill="white" stroke-width="1px"></path><path d="M 43.459383 14.751742 L 40.959383 14.751742 L 40.959383 20.751742 L 43.459383 20.751742 L 43.459383 14.751742" stroke="gray" fill="white" stroke-width="1px"></path><path d="M 31.459383 33.377100 L 28.959383 33.377100 L 28.959383 39.377100 L 31.459383 39.377100 L 31.459383 33.377100" stroke="gray" fill="white" stroke-width="1px"></path><path d="M 31.459383 27.377100 L 28.959383 27.377100 L 28.959383 33.377100 L 31.459383 33.377100 L 31.459383 27.377100" stroke="gray" fill="white" stroke-width="1px"></path><path d="M 31.459383 21.377100 L 28.959383 21.377100 L 28.959383 27.377100 L 31.459383 27.377100 L 31.459383 21.377100" stroke="gray" fill="white" stroke-width="1px"></path><path d="M 31.459383 15.377100 L 28.959383 15.377100 L 28.959383 21.377100 L 31.459383 21.377100 L 31.459383 15.377100" stroke="gray" fill="white" stroke-width="1px"></path><path d="M 19.459383 34.002457 L 16.959383 34.002457 L 16.959383 40.002457 L 19.459383 40.002457 L 19.459383 34.002457" stroke="gray" fill="white" stroke-width="1px"></path><path d="M 19.459383 28.002457 L 16.959383 28.002457 L 16.959383 34.002457 L 19.459383 34.002457 L 19.459383 28.002457" stroke="gray" fill="white" stroke-width="1px"></path><path d="M 19.459383 22.002457 L 16.959383 22.002457 L 16.959383 28.002457 L 19.459383 28.002457 L 19.459383 22.002457" stroke="gray" fill="white" stroke-width="1px"></path><path d="M 19.459383 16.002457 L 16.959383 16.002457 L 16.959383 22.002457 L 19.459383 22.002457 L 19.459383 16.002457" stroke="gray" fill="white" stroke-width="1px"></path><path d="M 271.459383 48.388247 L 273.959383 48.388247 L 273.959383 54.388247 L 271.459383 54.388247 L 271.459383 48.388247" stroke="gray" fill="white" stroke-width="1px"></path><path d="M 271.459383 42.388247 L 273.959383 42.388247 L 273.959383 48.388247 L 271.459383 48.388247 L 271.459383 42.388247" stroke="gray" fill="white" stroke-width="1px"></path><path d="M 271.459383 36.388247 L 273.959383 36.388247 L 273.959383 42.388247 L 271.459383 42.388247 L 271.459383 36.388247" stroke="gray" fill="white" stroke-width="1px"></path><path d="M 259.459383 46.846074 L 261.959383 46.846074 L 261.959383 52.846074 L 259.459383 52.846074 L 259.459383 46.846074" stroke="gray" fill="white" stroke-width="1px"></path><path d="M 259.459383 40.846074 L 261.959383 40.846074 L 261.959383 46.846074 L 259.459383 46.846074 L 259.459383 40.846074" stroke="gray" fill="white" stroke-width="1px"></path><path d="M 259.459383 34.846074 L 261.959383 34.846074 L 261.959383 40.846074 L 259.459383 40.846074 L 259.459383 34.846074" stroke="gray" fill="white" stroke-width="1px"></path><path d="M 247.459383 45.303901 L 249.959383 45.303901 L 249.959383 51.303901 L 247.459383 51.303901 L 247.459383 45.303901" stroke="gray" fill="white" stroke-width="1px"></path><path d="M 247.459383 39.303901 L 249.959383 39.303901 L 249.959383 45.303901 L 247.459383 45.303901 L 247.459383 39.303901" stroke="gray" fill="white" stroke-width="1px"></path><path d="M 247.459383 33.303901 L 249.959383 33.303901 L 249.959383 39.303901 L 247.459383 39.303901 L 247.459383 33.303901" stroke="gray" fill="white" stroke-width="1px"></path><path d="M 235.459383 42.967592 L 237.959383 42.967592 L 237.959383 48.967592 L 235.459383 48.967592 L 235.459383 42.967592" stroke="gray" fill="white" stroke-width="1px"></path><path d="M 235.459383 36.967592 L 237.959383 36.967592 L 237.959383 42.967592 L 235.459383 42.967592 L 235.459383 36.967592" stroke="gray" fill="white" stroke-width="1px"></path><path d="M 187.459383 101.033125 L 189.959383 101.033125 L 189.959383 107.033125 L 187.459383 107.033125 L 187.459383 101.033125" stroke="gray" fill="white" stroke-width="1px"></path><path d="M 187.459383 95.033125 L 189.959383 95.033125 L 189.959383 101.033125 L 187.459383 101.033125 L 187.459383 95.033125" stroke="gray" fill="white" stroke-width="1px"></path><path d="M 187.459383 89.033125 L 189.959383 89.033125 L 189.959383 95.033125 L 187.459383 95.033125 L 187.459383 89.033125" stroke="gray" fill="white" stroke-width="1px"></path><path d="M 187.459383 83.033125 L 189.959383 83.033125 L 189.959383 89.033125 L 187.459383 89.033125 L 187.459383 83.033125" stroke="gray" fill="white" stroke-width="1px"></path><path d="M 175.459383 101.033125 L 177.959383 101.033125 L 177.959383 107.033125 L 175.459383 107.033125 L 175.459383 101.033125" stroke="gray" fill="white" stroke-width="1px"></path><path d="M 175.459383 95.033125 L 177.959383 95.033125 L 177.959383 101.033125 L 175.459383 101.033125 L 175.459383 95.033125" stroke="gray" fill="white" stroke-width="1px"></path><path d="M 175.459383 89.033125 L 177.959383 89.033125 L 177.959383 95.033125 L 175.459383 95.033125 L 175.459383 89.033125" stroke="gray" fill="white" stroke-width="1px"></path><path d="M 163.459383 101.033125 L 165.959383 101.033125 L 165.959383 107.033125 L 163.459383 107.033125 L 163.459383 101.033125" stroke="gray" fill="white" stroke-width="1px"></path><path d="M 151.459383 101.033125 L 153.959383 101.033125 L 153.959383 107.033125 L 151.459383 107.033125 L 151.459383 101.033125" stroke="gray" fill="white" stroke-width="1px"></path><path d="M 127.459383 101.033125 L 129.959383 101.033125 L 129.959383 107.033125 L 127.459383 107.033125 L 127.459383 101.033125" stroke="gray" fill="white" stroke-width="1px"></path><path d="M 115.459383 101.033125 L 117.959383 101.033125 L 117.959383 107.033125 L 115.459383 107.033125 L 115.459383 101.033125" stroke="gray" fill="white" stroke-width="1px"></path><path d="M 103.459383 101.033125 L 105.959383 101.033125 L 105.959383 107.033125 L 103.459383 107.033125 L 103.459383 101.033125" stroke="gray" fill="white" stroke-width="1px"></path><path d="M 55.459383 32.126384 L 57.959383 32.126384 L 57.959383 38.126384 L 55.459383 38.126384 L 55.459383 32.126384" stroke="gray" fill="white" stroke-width="1px"></path><path d="M 55.459383 26.126384 L 57.959383 26.126384 L 57.959383 32.126384 L 55.459383 32.126384 L 55.459383 26.126384" stroke="gray" fill="white" stroke-width="1px"></path><path d="M 55.459383 20.126384 L 57.959383 20.126384 L 57.959383 26.126384 L 55.459383 26.126384 L 55.459383 20.126384" stroke="gray" fill="white" stroke-width="1px"></path><path d="M 55.459383 14.126384 L 57.959383 14.126384 L 57.959383 20.126384 L 55.459383 20.126384 L 55.459383 14.126384" stroke="gray" fill="white" stroke-width="1px"></path><path d="M 43.459383 32.751742 L 45.959383 32.751742 L 45.959383 38.751742 L 43.459383 38.751742 L 43.459383 32.751742" stroke="gray" fill="white" stroke-width="1px"></path><path d="M 43.459383 26.751742 L 45.959383 26.751742 L 45.959383 32.751742 L 43.459383 32.751742 L 43.459383 26.751742" stroke="gray" fill="white" stroke-width="1px"></path><path d="M 43.459383 20.751742 L 45.959383 20.751742 L 45.959383 26.751742 L 43.459383 26.751742 L 43.459383 20.751742" stroke="gray" fill="white" stroke-width="1px"></path><path d="M 43.459383 14.751742 L 45.959383 14.751742 L 45.959383 20.751742 L 43.459383 20.751742 L 43.459383 14.751742" stroke="gray" fill="white" stroke-width="1px"></path><path d="M 31.459383 33.377100 L 33.959383 33.377100 L 33.959383 39.377100 L 31.459383 39.377100 L 31.459383 33.377100" stroke="gray" fill="white" stroke-width="1px"></path><path d="M 31.459383 27.377100 L 33.959383 27.377100 L 33.959383 33.377100 L 31.459383 33.377100 L 31.459383 27.377100" stroke="gray" fill="white" stroke-width="1px"></path><path d="M 31.459383 21.377100 L 33.959383 21.377100 L 33.959383 27.377100 L 31.459383 27.377100 L 31.459383 21.377100" stroke="gray" fill="white" stroke-width="1px"></path><path d="M 31.459383 15.377100 L 33.959383 15.377100 L 33.959383 21.377100 L 31.459383 21.377100 L 31.459383 15.377100" stroke="gray" fill="white" stroke-width="1px"></path><path d="M 19.459383 34.002457 L 21.959383 34.002457 L 21.959383 40.002457 L 19.459383 40.002457 L 19.459383 34.002457" stroke="gray" fill="white" stroke-width="1px"></path><path d="M 19.459383 28.002457 L 21.959383 28.002457 L 21.959383 34.002457 L 19.459383 34.002457 L 19.459383 28.002457" stroke="gray" fill="white" stroke-width="1px"></path><path d="M 19.459383 22.002457 L 21.959383 22.002457 L 21.959383 28.002457 L 19.459383 28.002457 L 19.459383 22.002457" stroke="gray" fill="white" stroke-width="1px"></path><path d="M 19.459383 16.002457 L 21.959383 16.002457 L 21.959383 22.002457 L 19.459383 22.002457 L 19.459383 16.002457" stroke="gray" fill="white" stroke-width="1px"></path><path d="M 276.939818 101.263579 L 276.939818 98.763579 L 270.939818 98.763579 L 270.939818 101.263579 L 276.939818 101.263579" stroke="gray" fill="white" stroke-width="1px"></path><path d="M 273.992938 89.263579 L 273.992938 86.763579 L 267.992938 86.763579 L 267.992938 89.263579 L 273.992938 89.263579" stroke="gray" fill="white" stroke-width="1px"></path><path d="M 271.046058 77.263579 L 271.046058 74.763579 L 265.046058 74.763579 L 265.046058 77.263579 L 271.046058 77.263579" stroke="gray" fill="white" stroke-width="1px"></path><path d="M 277.046058 77.263579 L 277.046058 74.763579 L 271.046058 74.763579 L 271.046058 77.263579 L 277.046058 77.263579" stroke="gray" fill="white" stroke-width="1px"></path><path d="M 268.099177 65.263579 L 268.099177 62.763579 L 262.099177 62.763579 L 262.099177 65.263579 L 268.099177 65.263579" stroke="gray" fill="white" stroke-width="1px"></path><path d="M 274.099177 65.263579 L 274.099177 62.763579 L 268.099177 62.763579 L 268.099177 65.263579 L 274.099177 65.263579" stroke="gray" fill="white" stroke-width="1px"></path><path d="M 233.193350 101.263579 L 233.193350 98.763579 L 227.193350 98.763579 L 227.193350 101.263579 L 233.193350 101.263579" stroke="gray" fill="white" stroke-width="1px"></path><path d="M 239.193350 101.263579 L 239.193350 98.763579 L 233.193350 98.763579 L 233.193350 101.263579 L 239.193350 101.263579" stroke="gray" fill="white" stroke-width="1px"></path><path d="M 232.313616 89.263579 L 232.313616 86.763579 L 226.313616 86.763579 L 226.313616 89.263579 L 232.313616 89.263579" stroke="gray" fill="white" stroke-width="1px"></path><path d="M 238.313616 89.263579 L 238.313616 86.763579 L 232.313616 86.763579 L 232.313616 89.263579 L 238.313616 89.263579" stroke="gray" fill="white" stroke-width="1px"></path><path d="M 233.737654 77.263579 L 233.737654 74.763579 L 227.737654 74.763579 L 227.737654 77.263579 L 233.737654 77.263579" stroke="gray" fill="white" stroke-width="1px"></path><path d="M 233.737654 65.263579 L 233.737654 62.763579 L 227.737654 62.763579 L 227.737654 65.263579 L 233.737654 65.263579" stroke="gray" fill="white" stroke-width="1px"></path><path d="M 22.000000 101.263579 L 22.000000 98.763579 L 16.000000 98.763579 L 16.000000 101.263579 L 22.000000 101.263579" stroke="gray" fill="white" stroke-width="1px"></path><path d="M 28.000000 101.263579 L 28.000000 98.763579 L 22.000000 98.763579 L 22.000000 101.263579 L 28.000000 101.263579" stroke="gray" fill="white" stroke-width="1px"></path><path d="M 34.000000 101.263579 L 34.000000 98.763579 L 28.000000 98.763579 L 28.000000 101.263579 L 34.000000 101.263579" stroke="gray" fill="white" stroke-width="1px"></path><path d="M 40.000000 101.263579 L 40.000000 98.763579 L 34.000000 98.763579 L 34.000000 101.263579 L 40.000000 101.263579" stroke="gray" fill="white" stroke-width="1px"></path><path d="M 46.000000 101.263579 L 46.000000 98.763579 L 40.000000 98.763579 L 40.000000 101.263579 L 46.000000 101.263579" stroke="gray" fill="white" stroke-width="1px"></path><path d="M 52.000000 101.263579 L 52.000000 98.763579 L 46.000000 98.763579 L 46.000000 101.263579 L 52.000000 101.263579" stroke="gray" fill="white" stroke-width="1px"></path><path d="M 58.000000 101.263579 L 58.000000 98.763579 L 52.000000 98.763579 L 52.000000 101.263579 L 58.000000 101.263579" stroke="gray" fill="white" stroke-width="1px"></path><path d="M 22.000000 89.263579 L 22.000000 86.763579 L 16.000000 86.763579 L 16.000000 89.263579 L 22.000000 89.263579" stroke="gray" fill="white" stroke-width="1px"></path><path d="M 28.000000 89.263579 L 28.000000 86.763579 L 22.000000 86.763579 L 22.000000 89.263579 L 28.000000 89.263579" stroke="gray" fill="white" stroke-width="1px"></path><path d="M 34.000000 89.263579 L 34.000000 86.763579 L 28.000000 86.763579 L 28.000000 89.263579 L 34.000000 89.263579" stroke="gray" fill="white" stroke-width="1px"></path><path d="M 40.000000 89.263579 L 40.000000 86.763579 L 34.000000 86.763579 L 34.000000 89.263579 L 40.000000 89.263579" stroke="gray" fill="white" stroke-width="1px"></path><path d="M 46.000000 89.263579 L 46.000000 86.763579 L 40.000000 86.763579 L 40.000000 89.263579 L 46.000000 89.263579" stroke="gray" fill="white" stroke-width="1px"></path><path d="M 52.000000 89.263579 L 52.000000 86.763579 L 46.000000 86.763579 L 46.000000 89.263579 L 52.000000 89.263579" stroke="gray" fill="white" stroke-width="1px"></path><path d="M 58.000000 89.263579 L 58.000000 86.763579 L 52.000000 86.763579 L 52.000000 89.263579 L 58.000000 89.263579" stroke="gray" fill="white" stroke-width="1px"></path><path d="M 276.939818 101.263579 L 276.939818 103.763579 L 270.939818 103.763579 L 270.939818 101.263579 L 276.939818 101.263579" stroke="gray" fill="white" stroke-width="1px"></path><path d="M 273.992938 89.263579 L 273.992938 91.763579 L 267.992938 91.763579 L 267.992938 89.263579 L 273.992938 89.263579" stroke="gray" fill="white" stroke-width="1px"></path><path d="M 271.046058 77.263579 L 271.046058 79.763579 L 265.046058 79.763579 L 265.046058 77.263579 L 271.046058 77.263579" stroke="gray" fill="white" stroke-width="1px"></path><path d="M 277.046058 77.263579 L 277.046058 79.763579 L 271.046058 79.763579 L 271.046058 77.263579 L 277.046058 77.263579" stroke="gray" fill="white" stroke-width="1px"></path><path d="M 268.099177 65.263579 L 268.099177 67.763579 L 262.099177 67.763579 L 262.099177 65.263579 L 268.099177 65.263579" stroke="gray" fill="white" stroke-width="1px"></path><path d="M 274.099177 65.263579 L 274.099177 67.763579 L 268.099177 67.763579 L 268.099177 65.263579 L 274.099177 65.263579" stroke="gray" fill="white" stroke-width="1px"></path><path d="M 233.193350 101.263579 L 233.193350 103.763579 L 227.193350 103.763579 L 227.193350 101.263579 L 233.193350 101.263579" stroke="gray" fill="white" stroke-width="1px"></path><path d="M 239.193350 101.263579 L 239.193350 103.763579 L 233.193350 103.763579 L 233.193350 101.263579 L 239.193350 101.263579" stroke="gray" fill="white" stroke-width="1px"></path><path d="M 232.313616 89.263579 L 232.313616 91.763579 L 226.313616 91.763579 L 226.313616 89.263579 L 232.313616 89.263579" stroke="gray" fill="white" stroke-width="1px"></path><path d="M 238.313616 89.263579 L 238.313616 91.763579 L 232.313616 91.763579 L 232.313616 89.263579 L 238.313616 89.263579" stroke="gray" fill="white" stroke-width="1px"></path><path d="M 233.737654 77.263579 L 233.737654 79.763579 L 227.737654 79.763579 L 227.737654 77.263579 L 233.737654 77.263579" stroke="gray" fill="white" stroke-width="1px"></path><path d="M 233.737654 65.263579 L 233.737654 67.763579 L 227.737654 67.763579 L 227.737654 65.263579 L 233.737654 65.263579" stroke="gray" fill="white" stroke-width="1px"></path><path d="M 22.000000 101.263579 L 22.000000 103.763579 L 16.000000 103.763579 L 16.000000 101.263579 L 22.000000 101.263579" stroke="gray" fill="white" stroke-width="1px"></path><path d="M 28.000000 101.263579 L 28.000000 103.763579 L 22.000000 103.763579 L 22.000000 101.263579 L 28.000000 101.263579" stroke="gray" fill="white" stroke-width="1px"></path><path d="M 34.000000 101.263579 L 34.000000 103.763579 L 28.000000 103.763579 L 28.000000 101.263579 L 34.000000 101.263579" stroke="gray" fill="white" stroke-width="1px"></path><path d="M 40.000000 101.263579 L 40.000000 103.763579 L 34.000000 103.763579 L 34.000000 101.263579 L 40.000000 101.263579" stroke="gray" fill="white" stroke-width="1px"></path><path d="M 46.000000 101.263579 L 46.000000 103.763579 L 40.000000 103.763579 L 40.000000 101.263579 L 46.000000 101.263579" stroke="gray" fill="white" stroke-width="1px"></path><path d="M 52.000000 101.263579 L 52.000000 103.763579 L 46.000000 103.763579 L 46.000000 101.263579 L 52.000000 101.263579" stroke="gray" fill="white" stroke-width="1px"></path><path d="M 58.000000 101.263579 L 58.000000 103.763579 L 52.000000 103.763579 L 52.000000 101.263579 L 58.000000 101.263579" stroke="gray" fill="white" stroke-width="1px"></path><path d="M 22.000000 89.263579 L 22.000000 91.763579 L 16.000000 91.763579 L 16.000000 89.263579 L 22.000000 89.263579" stroke="gray" fill="white" stroke-width="1px"></path><path d="M 28.000000 89.263579 L 28.000000 91.763579 L 22.000000 91.763579 L 22.000000 89.263579 L 28.000000 89.263579" stroke="gray" fill="white" stroke-width="1px"></path><path d="M 34.000000 89.263579 L 34.000000 91.763579 L 28.000000 91.763579 L 28.000000 89.263579 L 34.000000 89.263579" stroke="gray" fill="white" stroke-width="1px"></path><path d="M 40.000000 89.263579 L 40.000000 91.763579 L 34.000000 91.763579 L 34.000000 89.263579 L 40.000000 89.263579" stroke="gray" fill="white" stroke-width="1px"></path><path d="M 46.000000 89.263579 L 46.000000 91.763579 L 40.000000 91.763579 L 40.000000 89.263579 L 46.000000 89.263579" stroke="gray" fill="white" stroke-width="1px"></path><path d="M 52.000000 89.263579 L 52.000000 91.763579 L 46.000000 91.763579 L 46.000000 89.263579 L 52.000000 89.263579" stroke="gray" fill="white" stroke-width="1px"></path><path d="M 58.000000 89.263579 L 58.000000 91.763579 L 52.000000 91.763579 L 52.000000 89.263579 L 58.000000 89.263579" stroke="gray" fill="white" stroke-width="1px"></path></g><g id="crv-base"><path d="M 221.371570 123.090312 L 221.371570 169.241094 L 120.000633 169.241094 L 120.000633 156.444206 L 126.051258 156.444206 L 126.051258 128.832500 L 123.590320 128.832500 L 123.590320 125.551250 L 126.051258 125.551250 L 126.051258 123.858132 L 91.315945 123.858125 L 91.315945 134.738750 L 64.258762 134.738750 L 64.258762 123.687497 L 10.000000 123.687497 L 10.000000 226.180625 L 64.258758 226.180625 L 64.258758 192.357500 L 91.315945 192.357500 L 91.315945 220.123437 L 283.459383 220.123437 L 283.459383 123.090312 L 221.371570 123.090312" stroke="black" fill="none" stroke-width="1px"></path><path d="M 221.371570 10.000000 L 221.371570 56.150781 L 120.000633 56.150781 L 120.000633 43.353893 L 126.051258 43.353893 L 126.051258 15.742187 L 123.590320 15.742187 L 123.590320 12.460937 L 126.051258 12.460937 L 126.051258 10.767819 L 91.315945 10.767812 L 91.315945 21.648438 L 64.258762 21.648438 L 64.258762 10.597185 L 10.000000 10.597185 L 10.000000 113.090312 L 64.258758 113.090312 L 64.258758 79.267187 L 91.315945 79.267187 L 91.315945 107.033125 L 283.459383 107.033125 L 283.459383 10.000000 L 221.371570 10.000000" stroke="black" fill="none" stroke-width="1px"></path><path d="M 10.387195 156.559062 L 10.387195 154.590312 L 12.355945 154.590312 L 12.355945 156.559062 L 10.387195 156.559062" stroke="black" fill="white" stroke-width="1px"></path><path d="M 10.387195 43.468750 L 10.387195 41.500000 L 12.355945 41.500000 L 12.355945 43.468750 L 10.387195 43.468750" stroke="black" fill="white" stroke-width="1px"></path><path d="M 10.387195 188.059062 L 10.387195 186.090312 L 12.355945 186.090312 L 12.355945 188.059062 L 10.387195 188.059062" stroke="black" fill="white" stroke-width="1px"></path><path d="M 10.387195 74.968750 L 10.387195 73.000000 L 12.355945 73.000000 L 12.355945 74.968750 L 10.387195 74.968750" stroke="black" fill="white" stroke-width="1px"></path><path d="M 10.387195 219.559062 L 10.387195 217.590312 L 12.355945 217.590312 L 12.355945 219.559062 L 10.387195 219.559062" stroke="black" fill="white" stroke-width="1px"></path><path d="M 10.387195 106.468750 L 10.387195 104.500000 L 12.355945 104.500000 L 12.355945 106.468750 L 10.387195 106.468750" stroke="black" fill="white" stroke-width="1px"></path><path d="M 60.754383 128.340312 L 60.754383 125.387187 L 63.871570 125.387187 L 63.871570 128.340312 L 60.754383 128.340312" stroke="black" fill="white" stroke-width="1px"></path><path d="M 60.754383 15.250000 L 60.754383 12.296875 L 63.871570 12.296875 L 63.871570 15.250000 L 60.754383 15.250000" stroke="black" fill="white" stroke-width="1px"></path><path d="M 280.598133 219.230937 L 280.598133 217.262187 L 282.566883 217.262187 L 282.566883 219.230937 L 280.598133 219.230937" stroke="black" fill="white" stroke-width="1px"></path><path d="M 280.598133 106.140625 L 280.598133 104.171875 L 282.566883 104.171875 L 282.566883 106.140625 L 280.598133 106.140625" stroke="black" fill="white" stroke-width="1px"></path><path d="M 280.598133 188.059062 L 280.598133 186.090312 L 282.566883 186.090312 L 282.566883 188.059062 L 280.598133 188.059062" stroke="black" fill="white" stroke-width="1px"></path><path d="M 280.598133 74.968750 L 280.598133 73.000000 L 282.566883 73.000000 L 282.566883 74.968750 L 280.598133 74.968750" stroke="black" fill="white" stroke-width="1px"></path><path d="M 280.598133 156.559050 L 280.598133 154.590300 L 282.566883 154.590300 L 282.566883 156.559050 L 280.598133 156.559050" stroke="black" fill="white" stroke-width="1px"></path><path d="M 280.598133 43.468737 L 280.598133 41.499987 L 282.566883 41.499987 L 282.566883 43.468737 L 280.598133 43.468737" stroke="black" fill="white" stroke-width="1px"></path><path d="M 248.605945 127.355937 L 248.605945 123.418437 L 251.887195 123.418437 L 251.887195 127.355937 L 248.605945 127.355937" stroke="black" fill="white" stroke-width="1px"></path><path d="M 248.605945 14.265625 L 248.605945 10.328125 L 251.887195 10.328125 L 251.887195 14.265625 L 248.605945 14.265625" stroke="black" fill="white" stroke-width="1px"></path><path d="M 248.605945 157.871562 L 248.605945 153.934062 L 251.887195 153.934062 L 251.887195 157.871562 L 248.605945 157.871562" stroke="black" fill="white" stroke-width="1px"></path><path d="M 248.605945 44.781250 L 248.605945 40.843750 L 251.887195 40.843750 L 251.887195 44.781250 L 248.605945 44.781250" stroke="black" fill="white" stroke-width="1px"></path><path d="M 248.605945 189.043437 L 248.605945 185.105937 L 251.887195 185.105937 L 251.887195 189.043437 L 248.605945 189.043437" stroke="black" fill="white" stroke-width="1px"></path><path d="M 248.605945 75.953125 L 248.605945 72.015625 L 251.887195 72.015625 L 251.887195 75.953125 L 248.605945 75.953125" stroke="black" fill="white" stroke-width="1px"></path><path d="M 248.934070 219.230937 L 248.934070 216.277812 L 251.887195 216.277812 L 251.887195 219.230937 L 248.934070 219.230937" stroke="black" fill="white" stroke-width="1px"></path><path d="M 248.934070 106.140625 L 248.934070 103.187500 L 251.887195 103.187500 L 251.887195 106.140625 L 248.934070 106.140625" stroke="black" fill="white" stroke-width="1px"></path><path d="M 218.090320 189.043437 L 218.090320 185.105937 L 221.371570 185.105937 L 221.371570 189.043437 L 218.090320 189.043437" stroke="black" fill="white" stroke-width="1px"></path><path d="M 218.090320 75.953125 L 218.090320 72.015625 L 221.371570 72.015625 L 221.371570 75.953125 L 218.090320 75.953125" stroke="black" fill="white" stroke-width="1px"></path><path d="M 218.254383 219.230937 L 218.254383 216.277812 L 221.207508 216.277812 L 221.207508 219.230937 L 218.254383 219.230937" stroke="black" fill="white" stroke-width="1px"></path><path d="M 218.254383 106.140625 L 218.254383 103.187500 L 221.207508 103.187500 L 221.207508 106.140625 L 218.254383 106.140625" stroke="black" fill="white" stroke-width="1px"></path><path d="M 186.590320 189.043437 L 186.590320 185.105937 L 189.871570 185.105937 L 189.871570 189.043437 L 186.590320 189.043437" stroke="black" fill="white" stroke-width="1px"></path><path d="M 186.590320 75.953125 L 186.590320 72.015625 L 189.871570 72.015625 L 189.871570 75.953125 L 186.590320 75.953125" stroke="black" fill="white" stroke-width="1px"></path><path d="M 186.754383 219.230937 L 186.754383 216.277812 L 189.707508 216.277812 L 189.707508 219.230937 L 186.754383 219.230937" stroke="black" fill="white" stroke-width="1px"></path><path d="M 186.754383 106.140625 L 186.754383 103.187500 L 189.707508 103.187500 L 189.707508 106.140625 L 186.754383 106.140625" stroke="black" fill="white" stroke-width="1px"></path><path d="M 155.090320 189.043437 L 155.090320 185.105937 L 158.371570 185.105937 L 158.371570 189.043437 L 155.090320 189.043437" stroke="black" fill="white" stroke-width="1px"></path><path d="M 155.090320 75.953125 L 155.090320 72.015625 L 158.371570 72.015625 L 158.371570 75.953125 L 155.090320 75.953125" stroke="black" fill="white" stroke-width="1px"></path><path d="M 155.254383 219.230937 L 155.254383 216.277812 L 158.207508 216.277812 L 158.207508 219.230937 L 155.254383 219.230937" stroke="black" fill="white" stroke-width="1px"></path><path d="M 155.254383 106.140625 L 155.254383 103.187500 L 158.207508 103.187500 L 158.207508 106.140625 L 155.254383 106.140625" stroke="black" fill="white" stroke-width="1px"></path><path d="M 123.590320 189.043437 L 123.590320 185.105937 L 126.871570 185.105937 L 126.871570 189.043437 L 123.590320 189.043437" stroke="black" fill="white" stroke-width="1px"></path><path d="M 123.590320 75.953125 L 123.590320 72.015625 L 126.871570 72.015625 L 126.871570 75.953125 L 123.590320 75.953125" stroke="black" fill="white" stroke-width="1px"></path><path d="M 123.754383 219.230937 L 123.754383 216.277812 L 126.707508 216.277812 L 126.707508 219.230937 L 123.754383 219.230937" stroke="black" fill="white" stroke-width="1px"></path><path d="M 123.754383 106.140625 L 123.754383 103.187500 L 126.707508 103.187500 L 126.707508 106.140625 L 123.754383 106.140625" stroke="black" fill="white" stroke-width="1px"></path><path d="M 92.090320 157.543437 L 92.090320 153.605937 L 95.371570 153.605937 L 95.371570 157.543437 L 92.090320 157.543437" stroke="black" fill="white" stroke-width="1px"></path><path d="M 92.090320 44.453125 L 92.090320 40.515625 L 95.371570 40.515625 L 95.371570 44.453125 L 92.090320 44.453125" stroke="black" fill="white" stroke-width="1px"></path><path d="M 92.090320 189.043437 L 92.090320 185.105937 L 95.371570 185.105937 L 95.371570 189.043437 L 92.090320 189.043437" stroke="black" fill="white" stroke-width="1px"></path><path d="M 92.090320 75.953125 L 92.090320 72.015625 L 95.371570 72.015625 L 95.371570 75.953125 L 92.090320 75.953125" stroke="black" fill="white" stroke-width="1px"></path><path d="M 92.090320 128.504375 L 92.090320 125.551250 L 95.207508 125.551250 L 95.207508 128.504375 L 92.090320 128.504375" stroke="black" fill="white" stroke-width="1px"></path><path d="M 92.090320 15.414062 L 92.090320 12.460937 L 95.207508 12.460937 L 95.207508 15.414062 L 92.090320 15.414062" stroke="black" fill="white" stroke-width="1px"></path><path d="M 60.590320 157.215312 L 60.590320 153.934062 L 63.871570 153.934062 L 63.871570 157.215312 L 60.590320 157.215312" stroke="black" fill="white" stroke-width="1px"></path><path d="M 60.590320 44.125000 L 60.590320 40.843750 L 63.871570 40.843750 L 63.871570 44.125000 L 60.590320 44.125000" stroke="black" fill="white" stroke-width="1px"></path><path d="M 60.754383 219.230937 L 60.754383 216.277812 L 63.871570 216.277812 L 63.871570 219.230937 L 60.754383 219.230937" stroke="black" fill="white" stroke-width="1px"></path><path d="M 60.754383 106.140625 L 60.754383 103.187500 L 63.871570 103.187500 L 63.871570 106.140625 L 60.754383 106.140625" stroke="black" fill="white" stroke-width="1px"></path><path d="M 30.074695 128.504375 L 30.074695 125.223125 L 33.027820 125.223125 L 33.027820 128.504375 L 30.074695 128.504375" stroke="black" fill="white" stroke-width="1px"></path><path d="M 30.074695 15.414062 L 30.074695 12.132812 L 33.027820 12.132812 L 33.027820 15.414062 L 30.074695 15.414062" stroke="black" fill="white" stroke-width="1px"></path><path d="M 30.074695 157.215312 L 30.074695 153.934062 L 33.355945 153.934062 L 33.355945 157.215312 L 30.074695 157.215312" stroke="black" fill="white" stroke-width="1px"></path><path d="M 30.074695 44.125000 L 30.074695 40.843750 L 33.355945 40.843750 L 33.355945 44.125000 L 30.074695 44.125000" stroke="black" fill="white" stroke-width="1px"></path><path d="M 30.074695 188.715312 L 30.074695 185.434062 L 33.355945 185.434062 L 33.355945 188.715312 L 30.074695 188.715312" stroke="black" fill="white" stroke-width="1px"></path><path d="M 30.074695 75.625000 L 30.074695 72.343750 L 33.355945 72.343750 L 33.355945 75.625000 L 30.074695 75.625000" stroke="black" fill="white" stroke-width="1px"></path><path d="M 30.074695 219.230937 L 30.074695 216.277812 L 33.027820 216.277812 L 33.027820 219.230937 L 30.074695 219.230937" stroke="black" fill="white" stroke-width="1px"></path><path d="M 30.074695 106.140625 L 30.074695 103.187500 L 33.027820 103.187500 L 33.027820 106.140625 L 30.074695 106.140625" stroke="black" fill="white" stroke-width="1px"></path><path d="M 10.387195 127.191875 L 10.387195 125.223125 L 12.355945 125.223125 L 12.355945 127.191875 L 10.387195 127.191875" stroke="black" fill="white" stroke-width="1px"></path><path d="M 10.387195 14.101562 L 10.387195 12.132812 L 12.355945 12.132812 L 12.355945 14.101562 L 10.387195 14.101562" stroke="black" fill="white" stroke-width="1px"></path><path d="M 60.590320 189.863750 L 60.590320 185.434062 L 63.871570 185.434062 L 63.871570 188.715312 L 62.230945 188.715312 L 62.230945 189.863750 L 60.590320 189.863750" stroke="black" fill="white" stroke-width="1px"></path><path d="M 60.590320 76.773437 L 60.590320 72.343750 L 63.871570 72.343750 L 63.871570 75.625000 L 62.230945 75.625000 L 62.230945 76.773437 L 60.590320 76.773437" stroke="black" fill="white" stroke-width="1px"></path></g></svg>