<svg width="293.459383" height="236.180625" xmlns="http://www.w3.org/2000/svg" xmlns:xlink="http://www.w3.org/1999/xlink" version="1.1"><g id="crv-background"><path d="M 221.371570 123.090312 L 221.371570 169.241094 L 120.000633 169.241094 L 120.000633 156.444206 L 126.051258 156.444206 L 126.051258 128.832500 L 123.590320 128.832500 L 123.590320 125.551250 L 126.051258 125.551250 L 126.051258 123.858132 L 91.315945 123.858125 L 91.315945 134.738750 L 64.258762 134.738750 L 64.258762 123.687497 L 10.000000 123.687497 L 10.000000 226.180625 L 64.258758 226.180625 L 64.258758 192.357500 L 91.315945 192.357500 L 91.315945 220.123437 L 283.459383 220.123437 L 283.459383 123.090312 L 221.371570 123.090312" stroke="none" fill="white" stroke-width="1px"></path><path d="M 221.371570 10.000000 L 221.371570 56.150781 L 120.000633 56.150781 L 120.000633 43.353893 L 126.051258 43.353893 L 126.051258 15.742187 L 123.590320 15.742187 L 123.590320 12.460937 L 126.051258 12.460937 L 126.051258 10.767819 L 91.315945 10.767812 L 91.315945 21.648438 L 64.258762 21.648438 L 64.258762 10.597185 L 10.000000 10.597185 L 10.000000 113.090312 L 64.258758 113.090312 L 64.258758 79.267187 L 91.315945 79.267187 L 91.315945 107.033125 L 283.459383 107.033125 L 283.459383 10.000000 L 221.371570 10.000000" stroke="none" fill="white" stroke-width="1px"></path></g><g id="crv-nbhd"><path d="M 221.737654 10.000004 L 221.737654 27.928989 L 221.737654 45.857974 L 228.352571 51.383202 L 234.967488 56.908430 L 259.213435 52.881162 L 283.459383 48.853893 L 283.459383 29.426951 L 283.459382 10.000000 L 252.598540 10.000002 L 221.737654 10.000004" stroke="#DD2222" fill="none" stroke-width="1px"></path><path d="M 283.459383 107.033125 L 283.459383 77.943509 L 283.459383 48.853893 L 259.213435 52.881162 L 234.967488 56.908430 L 238.601289 81.970778 L 242.235090 107.033125 L 262.847232 107.033125 L 283.459383 107.033125" stroke="#DD2222" fill="none" stroke-width="1px"></path><path d="M 221.737654 45.857974 L 221.737654 62.504652 L 221.737654 79.151330 L 210.376609 79.151330 L 199.015564 79.151330 L 196.747371 93.092227 L 194.479178 107.033125 L 218.357134 107.033125 L 242.235090 107.033125 L 238.601289 81.970778 L 234.967488 56.908430 L 228.352572 51.383203 L 221.737654 45.857974" stroke="#DD2222" fill="none" stroke-width="1px"></path><path d="M 199.015564 79.151330 L 184.839561 79.151329 L 170.663557 79.151329 L 172.053055 93.092227 L 173.442552 107.033125 L 183.960865 107.033125 L 194.479178 107.033125 L 196.747371 93.092231 L 199.015564 79.151330" stroke="#DD2222" fill="none" stroke-width="1px"></path><path d="M 170.663557 79.151329 L 148.897414 79.151329 L 127.131271 79.151328 L 126.810320 93.092227 L 126.489369 107.033125 L 149.965961 107.033125 L 173.442552 107.033125 L 172.053055 93.092227 L 170.663557 79.151329" stroke="#DD2222" fill="none" stroke-width="1px"></path><path d="M 127.131271 79.151328 L 109.223608 79.151328 L 91.315945 79.151327 L 91.315945 93.092226 L 91.315945 107.033125 L 108.902657 107.033125 L 126.489369 107.033125 L 126.810320 93.092230 L 127.131271 79.151328" stroke="#DD2222" fill="none" stroke-width="1px"></path><path d="M 64.258758 113.090312 L 64.258758 93.109602 L 64.258758 73.128891 L 62.436870 66.551901 L 60.614982 59.974911 L 35.307491 58.794427 L 10.000000 57.613942 L 10.000000 85.352127 L 10.000000 113.090312 L 37.129379 113.090312 L 64.258758 113.090312" stroke="#DD2222" fill="none" stroke-width="1px"></path><path d="M 10.000000 10.597184 L 10.000000 34.105563 L 10.000000 57.613942 L 35.307491 58.794427 L 60.614982 59.974911 L 62.436870 58.297727 L 64.258758 56.620543 L 64.258758 56.385662 L 64.258758 56.150781 L 64.258758 33.373983 L 64.258758 10.597185 L 37.129379 10.597185 L 10.000000 10.597184" stroke="#DD2222" fill="none" stroke-width="1px"></path><path d="M 10.000000 123.687497 L 10.000000 149.410234 L 10.000000 175.132972 L 37.129379 176.162089 L 64.258758 177.191206 L 64.258758 173.216150 L 64.258758 169.241094 L 64.258758 146.464296 L 64.258758 123.687497 L 37.129379 123.687497 L 10.000000 123.687497" stroke="#DD2222" fill="none" stroke-width="1px"></path><path d="M 10.000000 175.132972 L 10.000000 200.656799 L 10.000000 226.180625 L 37.129381 226.180625 L 64.258762 226.180625 L 64.258762 201.685916 L 64.258758 177.191206 L 37.129379 176.162089 L 10.000000 175.132972" stroke="#DD2222" fill="none" stroke-width="1px"></path><path d="M 138.139502 192.043444 L 114.727723 192.043444 L 91.315945 192.043444 L 91.315945 206.083441 L 91.315945 220.123437 L 114.241109 220.123437 L 137.166273 220.123437 L 137.652887 206.083444 L 138.139502 192.043444" stroke="#DD2222" fill="none" stroke-width="1px"></path><path d="M 184.540592 192.043444 L 161.340047 192.043444 L 138.139502 192.043444 L 137.652887 206.083441 L 137.166273 220.123437 L 164.253624 220.123437 L 191.340975 220.123437 L 187.940784 206.083444 L 184.540592 192.043444" stroke="#DD2222" fill="none" stroke-width="1px"></path><path d="M 231.011152 192.043444 L 207.775872 192.043444 L 184.540592 192.043444 L 187.940783 206.083441 L 191.340975 220.123437 L 208.062923 220.123437 L 224.784871 220.123437 L 227.898011 206.083444 L 231.011152 192.043444" stroke="#DD2222" fill="none" stroke-width="1px"></path><path d="M 283.459383 220.123437 L 283.459383 195.469260 L 283.459383 170.815083 L 261.598517 170.975534 L 239.737652 171.135985 L 239.737652 181.589715 L 239.737652 192.043444 L 235.374402 192.043444 L 231.011152 192.043444 L 227.898011 206.083441 L 224.784871 220.123437 L 254.122120 220.123437 L 283.459383 220.123437" stroke="#DD2222" fill="none" stroke-width="1px"></path><path d="M 239.737652 123.090312 L 239.737652 147.113149 L 239.737652 171.135985 L 261.598517 170.975534 L 283.459383 170.815083 L 283.459383 146.952698 L 283.459383 123.090312 L 261.598528 123.090312 L 239.737652 123.090312" stroke="#DD2222" fill="none" stroke-width="1px"></path></g><g id="crv-amen"><path d="M 58.832882 138.799083 L 58.832882 132.082823 L 58.832882 125.366562 L 37.129379 125.366562 L 15.425876 125.366562 L 15.425876 132.082822 L 15.425876 138.799083 L 37.129379 138.799083 L 58.832882 138.799083" stroke="none" fill="#2288CC" stroke-width="1px"></path><path d="M 58.832884 192.107837 L 58.832883 185.386745 L 58.832882 178.665655 L 37.129379 177.842362 L 15.425876 177.019068 L 15.425876 183.740159 L 15.425876 190.461250 L 37.129380 191.284544 L 58.832884 192.107837" stroke="none" fill="#2288CC" stroke-width="1px"></path><path d="M 132.962550 207.151531 L 133.195329 200.435271 L 133.428109 193.719010 L 114.698687 193.719010 L 95.969264 193.719010 L 95.969264 200.435270 L 95.969264 207.151531 L 114.465907 207.151531 L 132.962550 207.151531" stroke="none" fill="#2288CC" stroke-width="1px"></path><path d="M 183.330546 207.181727 L 181.704010 200.465467 L 180.077473 193.749206 L 161.517037 193.749206 L 142.956600 193.749206 L 142.723820 200.465466 L 142.491041 207.181727 L 162.910793 207.181727 L 183.330546 207.181727" stroke="none" fill="#2288CC" stroke-width="1px"></path><path d="M 223.402294 207.103832 L 224.891515 200.387572 L 226.380737 193.671311 L 207.792513 193.671311 L 189.204289 193.671311 L 190.830826 200.387571 L 192.457363 207.103832 L 207.929828 207.103832 L 223.402294 207.103832" stroke="none" fill="#2288CC" stroke-width="1px"></path><path d="M 239.109648 193.287129 L 239.109648 194.045095 L 239.109648 194.803061 L 235.619048 194.803061 L 232.128448 194.803061 L 229.637936 206.035058 L 227.147424 217.267056 L 234.026808 217.267056 L 240.906193 217.267056 L 243.398091 206.028807 L 245.889990 194.790559 L 242.499819 194.038844 L 239.109648 193.287129" stroke="none" fill="#2288CC" stroke-width="1px"></path><path d="M 279.087210 138.201899 L 279.087210 131.485638 L 279.087210 124.769378 L 261.598517 124.769378 L 244.109825 124.769378 L 244.109825 131.485638 L 244.109825 138.201899 L 261.598517 138.201899 L 279.087210 138.201899" stroke="none" fill="#2288CC" stroke-width="1px"></path><path d="M 277.287210 25.111586 L 277.287210 18.395325 L 277.287209 11.679065 L 252.598518 11.679067 L 227.909827 11.679068 L 227.909827 18.395329 L 227.909827 25.111589 L 252.598518 25.111588 L 277.287210 25.111586" stroke="none" fill="#2288CC" stroke-width="1px"></path><path d="M 278.729660 64.943675 L 278.729660 58.135396 L 278.729660 51.327117 L 259.332902 54.548931 L 239.936144 57.770746 L 240.900065 64.418917 L 241.863987 71.067088 L 260.296823 68.005381 L 278.729660 64.943675" stroke="none" fill="#2288CC" stroke-width="1px"></path><path d="M 226.307025 101.867760 L 233.093513 101.867760 L 239.880002 101.867760 L 236.972961 81.817882 L 234.065920 61.768004 L 231.351046 59.500357 L 228.636171 57.232710 L 226.059112 57.606359 L 223.482053 57.980008 L 223.482053 68.771166 L 223.482053 79.562325 L 223.277501 79.562325 L 223.072949 79.562325 L 224.689987 90.715042 L 226.307025 101.867760" stroke="none" fill="#2288CC" stroke-width="1px"></path><path d="M 193.943454 94.215770 L 195.036193 87.499511 L 196.128934 80.783249 L 184.788131 80.783249 L 173.447328 80.783249 L 174.116741 87.499509 L 174.786155 94.215770 L 184.364804 94.215770 L 193.943454 94.215770" stroke="none" fill="#2288CC" stroke-width="1px"></path><path d="M 157.978191 104.244945 L 164.727730 104.244945 L 171.477268 104.244945 L 170.365670 93.092227 L 169.254072 81.939509 L 162.504534 81.939509 L 155.754995 81.939508 L 156.866593 93.092227 L 157.978191 104.244945" stroke="none" fill="#2288CC" stroke-width="1px"></path><path d="M 111.437969 104.244945 L 118.156009 104.244945 L 124.874049 104.244945 L 125.130810 93.092227 L 125.387571 81.939508 L 118.669531 81.939508 L 111.951491 81.939508 L 111.694730 93.092226 L 111.437969 104.244945" stroke="none" fill="#2288CC" stroke-width="1px"></path><path d="M 49.139328 108.595328 L 55.855589 108.595328 L 62.571849 108.595328 L 62.571849 92.610760 L 62.571849 76.626191 L 61.996225 74.548197 L 61.420601 72.470203 L 55.279965 72.470203 L 49.139328 72.470203 L 49.139328 90.532766 L 49.139328 108.595328" stroke="none" fill="#2288CC" stroke-width="1px"></path><path d="M 15.389128 42.727053 L 15.389128 49.450616 L 15.389128 56.174179 L 35.635120 57.118566 L 55.881113 58.062954 L 57.338623 56.721207 L 58.796134 55.379459 L 58.796134 55.191555 L 58.796134 55.003650 L 58.796134 49.877725 L 58.796134 44.751801 L 37.092631 43.739427 L 15.389128 42.727053" stroke="none" fill="#2288CC" stroke-width="1px"></path></g><g id="crv-desk"><path d="M 55.459383 170.857413 L 52.959383 170.857413 L 52.959383 176.857413 L 55.459383 176.857413 L 55.459383 170.857413" stroke="gray" fill="white" stroke-width="1px"></path><path d="M 55.459383 164.857413 L 52.959383 164.857413 L 52.959383 170.857413 L 55.459383 170.857413 L 55.459383 164.857413" stroke="gray" fill="white" stroke-width="1px"></path><path d="M 55.459383 158.857413 L 52.959383 158.857413 L 52.959383 164.857413 L 55.459383 164.857413 L 55.459383 158.857413" stroke="gray" fill="white" stroke-width="1px"></path><path d="M 55.459383 152.857413 L 52.959383 152.857413 L 52.959383 158.857413 L 55.459383 158.857413 L 55.459383 152.857413" stroke="gray" fill="white" stroke-width="1px"></path><path d="M 55.459383 146.857413 L 52.959383 146.857413 L 52.959383 152.857413 L 55.459383 152.857413 L 55.459383 146.857413" stroke="gray" fill="white" stroke-width="1px"></path><path d="M 43.459383 170.402209 L 40.959383 170.402209 L 40.959383 176.402209 L 43.459383 176.402209 L 43.459383 170.402209" stroke="gray" fill="white" stroke-width="1px"></path><path d="M 43.459383 164.402209 L 40.959383 164.402209 L 40.959383 170.402209 L 43.459383 170.402209 L 43.459383 164.402209" stroke="gray" fill="white" stroke-width="1px"></path><path d="M 43.459383 158.402209 L 40.959383 158.402209 L 40.959383 164.402209 L 43.459383 164.402209 L 43.459383 158.402209" stroke="gray" fill="white" stroke-width="1px"></path><path d="M 43.459383 152.402209 L 40.959383 152.402209 L 40.959383 158.402209 L 43.459383 158.402209 L 43.459383 152.402209" stroke="gray" fill="white" stroke-width="1px"></path><path d="M 43.459383 146.402209 L 40.959383 146.402209 L 40.959383 152.402209 L 43.459383 152.402209 L 43.459383 146.402209" stroke="gray" fill="white" stroke-width="1px"></path><path d="M 31.459383 169.947005 L 28.959383 169.947005 L 28.959383 175.947005 L 31.459383 175.947005 L 31.459383 169.947005" stroke="gray" fill="white" stroke-width="1px"></path><path d="M 31.459383 163.947005 L 28.959383 163.947005 L 28.959383 169.947005 L 31.459383 169.947005 L 31.459383 163.947005" stroke="gray" fill="white" stroke-width="1px"></path><path d="M 31.459383 157.947005 L 28.959383 157.947005 L 28.959383 163.947005 L 31.459383 163.947005 L 31.459383 157.947005" stroke="gray" fill="white" stroke-width="1px"></path><path d="M 31.459383 151.947005 L 28.959383 151.947005 L 28.959383 157.947005 L 31.459383 157.947005 L 31.459383 151.947005" stroke="gray" fill="white" stroke-width="1px"></path><path d="M 31.459383 145.947005 L 28.959383 145.947005 L 28.959383 151.947005 L 31.459383 151.947005 L 31.459383 145.947005" stroke="gray" fill="white" stroke-width="1px"></path><path d="M 19.459383 169.491801 L 16.959383 169.491801 L 16.959383 175.491801 L 19.459383 175.491801 L 19.459383 169.491801" stroke="gray" fill="white" stroke-width="1px"></path><path d="M 19.459383 163.491801 L 16.959383 163.491801 L 16.959383 169.491801 L 19.459383 169.491801 L 19.459383 163.491801" stroke="gray" fill="white" stroke-width="1px"></path><path d="M 19.459383 157.491801 L 16.959383 157.491801 L 16.959383 163.491801 L 19.459383 163.491801 L 19.459383 157.491801" stroke="gray" fill="white" stroke-width="1px"></path><path d="M 19.459383 151.491801 L 16.959383 151.491801 L 16.959383 157.491801 L 19.459383 157.491801 L 19.459383 151.491801" stroke="gray" fill="white" stroke-width="1px"></path><path d="M 19.459383 145.491801 L 16.959383 145.491801 L 16.959383 151.491801 L 19.459383 151.491801 L 19.459383 145.491801" stroke="gray" fill="white" stroke-width="1px"></path><path d="M 55.459383 220.180625 L 52.959383 220.180625 L 52.959383 226.180625 L 55.459383 226.180625 L 55.459383 220.180625" stroke="gray" fill="white" stroke-width="1px"></path><path d="M 55.459383 214.180625 L 52.959383 214.180625 L 52.959383 220.180625 L 55.459383 220.180625 L 55.459383 214.180625" stroke="gray" fill="white" stroke-width="1px"></path><path d="M 55.459383 208.180625 L 52.959383 208.180625 L 52.959383 214.180625 L 55.459383 214.180625 L 55.459383 208.180625" stroke="gray" fill="white" stroke-width="1px"></path><path d="M 55.459383 202.180625 L 52.959383 202.180625 L 52.959383 208.180625 L 55.459383 208.180625 L 55.459383 202.180625" stroke="gray" fill="white" stroke-width="1px"></path><path d="M 43.459383 220.180625 L 40.959383 220.180625 L 40.959383 226.180625 L 43.459383 226.180625 L 43.459383 220.180625" stroke="gray" fill="white" stroke-width="1px"></path><path d="M 43.459383 214.180625 L 40.959383 214.180625 L 40.959383 220.180625 L 43.459383 220.180625 L 43.459383 214.180625" stroke="gray" fill="white" stroke-width="1px"></path><path d="M 43.459383 208.180625 L 40.959383 208.180625 L 40.959383 214.180625 L 43.459383 214.180625 L 43.459383 208.180625" stroke="gray" fill="white" stroke-width="1px"></path><path d="M 43.459383 202.180625 L 40.959383 202.180625 L 40.959383 208.180625 L 43.459383 208.180625 L 43.459383 202.180625" stroke="gray" fill="white" stroke-width="1px"></path><path d="M 31.459383 220.180625 L 28.959383 220.180625 L 28.959383 226.180625 L 31.459383 226.180625 L 31.459383 220.180625" stroke="gray" fill="white" stroke-width="1px"></path><path d="M 31.459383 214.180625 L 28.959383 214.180625 L 28.959383 220.180625 L 31.459383 220.180625 L 31.459383 214.180625" stroke="gray" fill="white" stroke-width="1px"></path><path d="M 31.459383 208.180625 L 28.959383 208.180625 L 28.959383 214.180625 L 31.459383 214.180625 L 31.459383 208.180625" stroke="gray" fill="white" stroke-width="1px"></path><path d="M 31.459383 202.180625 L 28.959383 202.180625 L 28.959383 208.180625 L 31.459383 208.180625 L 31.459383 202.180625" stroke="gray" fill="white" stroke-width="1px"></path><path d="M 19.459383 220.180625 L 16.959383 220.180625 L 16.959383 226.180625 L 19.459383 226.180625 L 19.459383 220.180625" stroke="gray" fill="white" stroke-width="1px"></path><path d="M 19.459383 214.180625 L 16.959383 214.180625 L 16.959383 220.180625 L 19.459383 220.180625 L 19.459383 214.180625" stroke="gray" fill="white" stroke-width="1px"></path><path d="M 19.459383 208.180625 L 16.959383 208.180625 L 16.959383 214.180625 L 19.459383 214.180625 L 19.459383 208.180625" stroke="gray" fill="white" stroke-width="1px"></path><path d="M 19.459383 202.180625 L 16.959383 202.180625 L 16.959383 208.180625 L 19.459383 208.180625 L 19.459383 202.180625" stroke="gray" fill="white" stroke-width="1px"></path><path d="M 127.459383 214.123437 L 124.959383 214.123437 L 124.959383 220.123437 L 127.459383 220.123437 L 127.459383 214.123437" stroke="gray" fill="white" stroke-width="1px"></path><path d="M 115.459383 214.123437 L 112.959383 214.123437 L 112.959383 220.123437 L 115.459383 220.123437 L 115.459383 214.123437" stroke="gray" fill="white" stroke-width="1px"></path><path d="M 103.459383 214.123437 L 100.959383 214.123437 L 100.959383 220.123437 L 103.459383 220.123437 L 103.459383 214.123437" stroke="gray" fill="white" stroke-width="1px"></path><path d="M 187.459383 214.123437 L 184.959383 214.123437 L 184.959383 220.123437 L 187.459383 220.123437 L 187.459383 214.123437" stroke="gray" fill="white" stroke-width="1px"></path><path d="M 175.459383 214.123437 L 172.959383 214.123437 L 172.959383 220.123437 L 175.459383 220.123437 L 175.459383 214.123437" stroke="gray" fill="white" stroke-width="1px"></path><path d="M 163.459383 214.123437 L 160.959383 214.123437 L 160.959383 220.123437 L 163.459383 220.123437 L 163.459383 214.123437" stroke="gray" fill="white" stroke-width="1px"></path><path d="M 151.459383 214.123437 L 148.959383 214.123437 L 148.959383 220.123437 L 151.459383 220.123437 L 151.459383 214.123437" stroke="gray" fill="white" stroke-width="1px"></path><path d="M 223.459383 214.123437 L 220.959383 214.123437 L 220.959383 220.123437 L 223.459383 220.123437 L 223.459383 214.123437" stroke="gray" fill="white" stroke-width="1px"></path><path d="M 211.459383 214.123437 L 208.959383 214.123437 L 208.959383 220.123437 L 211.459383 220.123437 L 211.459383 214.123437" stroke="gray" fill="white" stroke-width="1px"></path><path d="M 199.459383 214.123437 L 196.959383 214.123437 L 196.959383 220.123437 L 199.459383 220.123437 L 199.459383 214.123437" stroke="gray" fill="white" stroke-width="1px"></path><path d="M 271.459383 214.123437 L 268.959383 214.123437 L 268.959383 220.123437 L 271.459383 220.123437 L 271.459383 214.123437" stroke="gray" fill="white" stroke-width="1px"></path><path d="M 271.459383 208.123437 L 268.959383 208.123437 L 268.959383 214.123437 L 271.459383 214.123437 L 271.459383 208.123437" stroke="gray" fill="white" stroke-width="1px"></path><path d="M 271.459383 202.123437 L 268.959383 202.123437 L 268.959383 208.123437 L 271.459383 208.123437 L 271.459383 202.123437" stroke="gray" fill="white" stroke-width="1px"></path><path d="M 271.459383 196.123437 L 268.959383 196.123437 L 268.959383 202.123437 L 271.459383 202.123437 L 271.459383 196.123437" stroke="gray" fill="white" stroke-width="1px"></path><path d="M 271.459383 190.123437 L 268.959383 190.123437 L 268.959383 196.123437 L 271.459383 196.123437 L 271.459383 190.123437" stroke="gray" fill="white" stroke-width="1px"></path><path d="M 271.459383 184.123437 L 268.959383 184.123437 L 268.959383 190.123437 L 271.459383 190.123437 L 271.459383 184.123437" stroke="gray" fill="white" stroke-width="1px"></path><path d="M 271.459383 178.123437 L 268.959383 178.123437 L 268.959383 184.123437 L 271.459383 184.123437 L 271.459383 178.123437" stroke="gray" fill="white" stroke-width="1px"></path><path d="M 259.459383 214.123437 L 256.959383 214.123437 L 256.959383 220.123437 L 259.459383 220.123437 L 259.459383 214.123437" stroke="gray" fill="white" stroke-width="1px"></path><path d="M 259.459383 208.123437 L 256.959383 208.123437 L 256.959383 214.123437 L 259.459383 214.123437 L 259.459383 208.123437" stroke="gray" fill="white" stroke-width="1px"></path><path d="M 259.459383 202.123437 L 256.959383 202.123437 L 256.959383 208.123437 L 259.459383 208.123437 L 259.459383 202.123437" stroke="gray" fill="white" stroke-width="1px"></path><path d="M 259.459383 196.123437 L 256.959383 196.123437 L 256.959383 202.123437 L 259.459383 202.123437 L 259.459383 196.123437" stroke="gray" fill="white" stroke-width="1px"></path><path d="M 259.459383 190.123437 L 256.959383 190.123437 L 256.959383 196.123437 L 259.459383 196.123437 L 259.459383 190.123437" stroke="gray" fill="white" stroke-width="1px"></path><path d="M 259.459383 184.123437 L 256.959383 184.123437 L 256.959383 190.123437 L 259.459383 190.123437 L 259.459383 184.123437" stroke="gray" fill="white" stroke-width="1px"></path><path d="M 259.459383 178.123437 L 256.959383 178.123437 L 256.959383 184.123437 L 259.459383 184.123437 L 259.459383 178.123437" stroke="gray" fill="white" stroke-width="1px"></path><path d="M 247.459383 214.123437 L 244.959383 214.123437 L 244.959383 220.123437 L 247.459383 220.123437 L 247.459383 214.123437" stroke="gray" fill="white" stroke-width="1px"></path><path d="M 247.459383 208.123437 L 244.959383 208.123437 L 244.959383 214.123437 L 247.459383 214.123437 L 247.459383 208.123437" stroke="gray" fill="white" stroke-width="1px"></path><path d="M 247.459383 202.123437 L 244.959383 202.123437 L 244.959383 208.123437 L 247.459383 208.123437 L 247.459383 202.123437" stroke="gray" fill="white" stroke-width="1px"></path><path d="M 247.459383 196.123437 L 244.959383 196.123437 L 244.959383 202.123437 L 247.459383 202.123437 L 247.459383 196.123437" stroke="gray" fill="white" stroke-width="1px"></path><path d="M 247.459383 190.123437 L 244.959383 190.123437 L 244.959383 196.123437 L 247.459383 196.123437 L 247.459383 190.123437" stroke="gray" fill="white" stroke-width="1px"></path><path d="M 247.459383 184.123437 L 244.959383 184.123437 L 244.959383 190.123437 L 247.459383 190.123437 L 247.459383 184.123437" stroke="gray" fill="white" stroke-width="1px"></path><path d="M 247.459383 178.123437 L 244.959383 178.123437 L 244.959383 184.123437 L 247.459383 184.123437 L 247.459383 178.123437" stroke="gray" fill="white" stroke-width="1px"></path><path d="M 55.459383 170.857413 L 57.959383 170.857413 L 57.959383 176.857413 L 55.459383 176.857413 L 55.459383 170.857413" stroke="gray" fill="white" stroke-width="1px"></path><path d="M 55.459383 164.857413 L 57.959383 164.857413 L 57.959383 170.857413 L 55.459383 170.857413 L 55.459383 164.857413" stroke="gray" fill="white" stroke-width="1px"></path><path d="M 55.459383 158.857413 L 57.959383 158.857413 L 57.959383 164.857413 L 55.459383 164.857413 L 55.459383 158.857413" stroke="gray" fill="white" stroke-width="1px"></path><path d="M 55.459383 152.857413 L 57.959383 152.857413 L 57.959383 158.857413 L 55.459383 158.857413 L 55.459383 152.857413" stroke="gray" fill="white" stroke-width="1px"></path><path d="M 55.459383 146.857413 L 57.959383 146.857413 L 57.959383 152.857413 L 55.459383 152.857413 L 55.459383 146.857413" stroke="gray" fill="white" stroke-width="1px"></path><path d="M 43.459383 170.402209 L 45.959383 170.402209 L 45.959383 176.402209 L 43.459383 176.402209 L 43.459383 170.402209" stroke="gray" fill="white" stroke-width="1px"></path><path d="M 43.459383 164.402209 L 45.959383 164.402209 L 45.959383 170.402209 L 43.459383 170.402209 L 43.459383 164.402209" stroke="gray" fill="white" stroke-width="1px"></path><path d="M 43.459383 158.402209 L 45.959383 158.402209 L 45.959383 164.402209 L 43.459383 164.402209 L 43.459383 158.402209" stroke="gray" fill="white" stroke-width="1px"></path><path d="M 43.459383 152.402209 L 45.959383 152.402209 L 45.959383 158.402209 L 43.459383 158.402209 L 43.459383 152.402209" stroke="gray" fill="white" stroke-width="1px"></path><path d="M 43.459383 146.402209 L 45.959383 146.402209 L 45.959383 152.402209 L 43.459383 152.402209 L 43.459383 146.402209" stroke="gray" fill="white" stroke-width="1px"></path><path d="M 31.459383 169.947005 L 33.959383 169.947005 L 33.959383 175.947005 L 31.459383 175.947005 L 31.459383 169.947005" stroke="gray" fill="white" stroke-width="1px"></path><path d="M 31.459383 163.947005 L 33.959383 163.947005 L 33.959383 169.947005 L 31.459383 169.947005 L 31.459383 163.947005" stroke="gray" fill="white" stroke-width="1px"></path><path d="M 31.459383 157.947005 L 33.959383 157.947005 L 33.959383 163.947005 L 31.459383 163.947005 L 31.459383 157.947005" stroke="gray" fill="white" stroke-width="1px"></path><path d="M 31.459383 151.947005 L 33.959383 151.947005 L 33.959383 157.947005 L 31.459383 157.947005 L 31.459383 151.947005" stroke="gray" fill="white" stroke-width="1px"></path><path d="M 31.459383 145.947005 L 33.959383 145.947005 L 33.959383 151.947005 L 31.459383 151.947005 L 31.459383 145.947005" stroke="gray" fill="white" stroke-width="1px"></path><path d="M 19.459383 169.491801 L 21.959383 169.491801 L 21.959383 175.491801 L 19.459383 175.491801 L 19.459383 169.491801" stroke="gray" fill="white" stroke-width="1px"></path><path d="M 19.459383 163.491801 L 21.959383 163.491801 L 21.959383 169.491801 L 19.459383 169.491801 L 19.459383 163.491801" stroke="gray" fill="white" stroke-width="1px"></path><path d="M 19.459383 157.491801 L 21.959383 157.491801 L 21.959383 163.491801 L 19.459383 163.491801 L 19.459383 157.491801" stroke="gray" fill="white" stroke-width="1px"></path><path d="M 19.459383 151.491801 L 21.959383 151.491801 L 21.959383 157.491801 L 19.459383 157.491801 L 19.459383 151.491801" stroke="gray" fill="white" stroke-width="1px"></path><path d="M 19.459383 145.491801 L 21.959383 145.491801 L 21.959383 151.491801 L 19.459383 151.491801 L 19.459383 145.491801" stroke="gray" fill="white" stroke-width="1px"></path><path d="M 55.459383 220.180625 L 57.959383 220.180625 L 57.959383 226.180625 L 55.459383 226.180625 L 55.459383 220.180625" stroke="gray" fill="white" stroke-width="1px"></path><path d="M 55.459383 214.180625 L 57.959383 214.180625 L 57.959383 220.180625 L 55.459383 220.180625 L 55.459383 214.180625" stroke="gray" fill="white" stroke-width="1px"></path><path d="M 55.459383 208.180625 L 57.959383 208.180625 L 57.959383 214.180625 L 55.459383 214.180625 L 55.459383 208.180625" stroke="gray" fill="white" stroke-width="1px"></path><path d="M 55.459383 202.180625 L 57.959383 202.180625 L 57.959383 208.180625 L 55.459383 208.180625 L 55.459383 202.180625" stroke="gray" fill="white" stroke-width="1px"></path><path d="M 43.459383 220.180625 L 45.959383 220.180625 L 45.959383 226.180625 L 43.459383 226.180625 L 43.459383 220.180625" stroke="gray" fill="white" stroke-width="1px"></path><path d="M 43.459383 214.180625 L 45.959383 214.180625 L 45.959383 220.180625 L 43.459383 220.180625 L 43.459383 214.180625" stroke="gray" fill="white" stroke-width="1px"></path><path d="M 43.459383 208.180625 L 45.959383 208.180625 L 45.959383 214.180625 L 43.459383 214.180625 L 43.459383 208.180625" stroke="gray" fill="white" stroke-width="1px"></path><path d="M 43.459383 202.180625 L 45.959383 202.180625 L 45.959383 208.180625 L 43.459383 208.180625 L 43.459383 202.180625" stroke="gray" fill="white" stroke-width="1px"></path><path d="M 31.459383 220.180625 L 33.959383 220.180625 L 33.959383 226.180625 L 31.459383 226.180625 L 31.459383 220.180625" stroke="gray" fill="white" stroke-width="1px"></path><path d="M 31.459383 214.180625 L 33.959383 214.180625 L 33.959383 220.180625 L 31.459383 220.180625 L 31.459383 214.180625" stroke="gray" fill="white" stroke-width="1px"></path><path d="M 31.459383 208.180625 L 33.959383 208.180625 L 33.959383 214.180625 L 31.459383 214.180625 L 31.459383 208.180625" stroke="gray" fill="white" stroke-width="1px"></path><path d="M 31.459383 202.180625 L 33.959383 202.180625 L 33.959383 208.180625 L 31.459383 208.180625 L 31.459383 202.180625" stroke="gray" fill="white" stroke-width="1px"></path><path d="M 19.459383 220.180625 L 21.959383 220.180625 L 21.959383 226.180625 L 19.459383 226.180625 L 19.459383 220.180625" stroke="gray" fill="white" stroke-width="1px"></path><path d="M 19.459383 214.180625 L 21.959383 214.180625 L 21.959383 220.180625 L 19.459383 220.180625 L 19.459383 214.180625" stroke="gray" fill="white" stroke-width="1px"></path><path d="M 19.459383 208.180625 L 21.959383 208.180625 L 21.959383 214.180625 L 19.459383 214.180625 L 19.459383 208.180625" stroke="gray" fill="white" stroke-width="1px"></path><path d="M 19.459383 202.180625 L 21.959383 202.180625 L 21.959383 208.180625 L 19.459383 208.180625 L 19.459383 202.180625" stroke="gray" fill="white" stroke-width="1px"></path><path d="M 127.459383 214.123437 L 129.959383 214.123437 L 129.959383 220.123437 L 127.459383 220.123437 L 127.459383 214.123437" stroke="gray" fill="white" stroke-width="1px"></path><path d="M 115.459383 214.123437 L 117.959383 214.123437 L 117.959383 220.123437 L 115.459383 220.123437 L 115.459383 214.123437" stroke="gray" fill="white" stroke-width="1px"></path><path d="M 103.459383 214.123437 L 105.959383 214.123437 L 105.959383 220.123437 L 103.459383 220.123437 L 103.459383 214.123437" stroke="gray" fill="white" stroke-width="1px"></path><path d="M 175.459383 214.123437 L 177.959383 214.123437 L 177.959383 220.123437 L 175.459383 220.123437 L 175.459383 214.123437" stroke="gray" fill="white" stroke-width="1px"></path><path d="M 163.459383 214.123437 L 165.959383 214.123437 L 165.959383 220.123437 L 163.459383 220.123437 L 163.459383 214.123437" stroke="gray" fill="white" stroke-width="1px"></path><path d="M 151.459383 214.123437 L 153.959383 214.123437 L 153.959383 220.123437 L 151.459383 220.123437 L 151.459383 214.123437" stroke="gray" fill="white" stroke-width="1px"></path><path d="M 139.459383 214.123437 L 141.959383 214.123437 L 141.959383 220.123437 L 139.459383 220.123437 L 139.459383 214.123437" stroke="gray" fill="white" stroke-width="1px"></path><path d="M 211.459383 214.123437 L 213.959383 214.123437 L 213.959383 220.123437 L 211.459383 220.123437 L 211.459383 214.123437" stroke="gray" fill="white" stroke-width="1px"></path><path d="M 199.459383 214.123437 L 201.959383 214.123437 L 201.959383 220.123437 L 199.459383 220.123437 L 199.459383 214.123437" stroke="gray" fill="white" stroke-width="1px"></path><path d="M 271.459383 214.123437 L 273.959383 214.123437 L 273.959383 220.123437 L 271.459383 220.123437 L 271.459383 214.123437" stroke="gray" fill="white" stroke-width="1px"></path><path d="M 271.459383 208.123437 L 273.959383 208.123437 L 273.959383 214.123437 L 271.459383 214.123437 L 271.459383 208.123437" stroke="gray" fill="white" stroke-width="1px"></path><path d="M 271.459383 202.123437 L 273.959383 202.123437 L 273.959383 208.123437 L 271.459383 208.123437 L 271.459383 202.123437" stroke="gray" fill="white" stroke-width="1px"></path><path d="M 271.459383 196.123437 L 273.959383 196.123437 L 273.959383 202.123437 L 271.459383 202.123437 L 271.459383 196.123437" stroke="gray" fill="white" stroke-width="1px"></path><path d="M 271.459383 190.123437 L 273.959383 190.123437 L 273.959383 196.123437 L 271.459383 196.123437 L 271.459383 190.123437" stroke="gray" fill="white" stroke-width="1px"></path><path d="M 271.459383 184.123437 L 273.959383 184.123437 L 273.959383 190.123437 L 271.459383 190.123437 L 271.459383 184.123437" stroke="gray" fill="white" stroke-width="1px"></path><path d="M 271.459383 178.123437 L 273.959383 178.123437 L 273.959383 184.123437 L 271.459383 184.123437 L 271.459383 178.123437" stroke="gray" fill="white" stroke-width="1px"></path><path d="M 259.459383 214.123437 L 261.959383 214.123437 L 261.959383 220.123437 L 259.459383 220.123437 L 259.459383 214.123437" stroke="gray" fill="white" stroke-width="1px"></path><path d="M 259.459383 208.123437 L 261.959383 208.123437 L 261.959383 214.123437 L 259.459383 214.123437 L 259.459383 208.123437" stroke="gray" fill="white" stroke-width="1px"></path><path d="M 259.459383 202.123437 L 261.959383 202.123437 L 261.959383 208.123437 L 259.459383 208.123437 L 259.459383 202.123437" stroke="gray" fill="white" stroke-width="1px"></path><path d="M 259.459383 196.123437 L 261.959383 196.123437 L 261.959383 202.123437 L 259.459383 202.123437 L 259.459383 196.123437" stroke="gray" fill="white" stroke-width="1px"></path><path d="M 259.459383 190.123437 L 261.959383 190.123437 L 261.959383 196.123437 L 259.459383 196.123437 L 259.459383 190.123437" stroke="gray" fill="white" stroke-width="1px"></path><path d="M 259.459383 184.123437 L 261.959383 184.123437 L 261.959383 190.123437 L 259.459383 190.123437 L 259.459383 184.123437" stroke="gray" fill="white" stroke-width="1px"></path><path d="M 259.459383 178.123437 L 261.959383 178.123437 L 261.959383 184.123437 L 259.459383 184.123437 L 259.459383 178.123437" stroke="gray" fill="white" stroke-width="1px"></path><path d="M 247.459383 214.123437 L 249.959383 214.123437 L 249.959383 220.123437 L 247.459383 220.123437 L 247.459383 214.123437" stroke="gray" fill="white" stroke-width="1px"></path><path d="M 247.459383 208.123437 L 249.959383 208.123437 L 249.959383 214.123437 L 247.459383 214.123437 L 247.459383 208.123437" stroke="gray" fill="white" stroke-width="1px"></path><path d="M 247.459383 202.123437 L 249.959383 202.123437 L 249.959383 208.123437 L 247.459383 208.123437 L 247.459383 202.123437" stroke="gray" fill="white" stroke-width="1px"></path><path d="M 247.459383 196.123437 L 249.959383 196.123437 L 249.959383 202.123437 L 247.459383 202.123437 L 247.459383 196.123437" stroke="gray" fill="white" stroke-width="1px"></path><path d="M 247.459383 190.123437 L 249.959383 190.123437 L 249.959383 196.123437 L 247.459383 196.123437 L 247.459383 190.123437" stroke="gray" fill="white" stroke-width="1px"></path><path d="M 247.459383 184.123437 L 249.959383 184.123437 L 249.959383 190.123437 L 247.459383 190.123437 L 247.459383 184.123437" stroke="gray" fill="white" stroke-width="1px"></path><path d="M 247.459383 178.123437 L 249.959383 178.123437 L 249.959383 184.123437 L 247.459383 184.123437 L 247.459383 178.123437" stroke="gray" fill="white" stroke-width="1px"></path><path d="M 251.737652 160.123437 L 251.737652 157.623437 L 245.737652 157.623437 L 245.737652 160.123437 L 251.737652 160.123437" stroke="gray" fill="white" stroke-width="1px"></path><path d="M 257.737652 160.123437 L 257.737652 157.623437 L 251.737652 157.623437 L 251.737652 160.123437 L 257.737652 160.123437" stroke="gray" fill="white" stroke-width="1px"></path><path d="M 263.737652 160.123437 L 263.737652 157.623437 L 257.737652 157.623437 L 257.737652 160.123437 L 263.737652 160.123437" stroke="gray" fill="white" stroke-width="1px"></path><path d="M 269.737652 160.123437 L 269.737652 157.623437 L 263.737652 157.623437 L 263.737652 160.123437 L 269.737652 160.123437" stroke="gray" fill="white" stroke-width="1px"></path><path d="M 275.737652 160.123437 L 275.737652 157.623437 L 269.737652 157.623437 L 269.737652 160.123437 L 275.737652 160.123437" stroke="gray" fill="white" stroke-width="1px"></path><path d="M 251.737652 148.123437 L 251.737652 145.623437 L 245.737652 145.623437 L 245.737652 148.123437 L 251.737652 148.123437" stroke="gray" fill="white" stroke-width="1px"></path><path d="M 257.737652 148.123437 L 257.737652 145.623437 L 251.737652 145.623437 L 251.737652 148.123437 L 257.737652 148.123437" stroke="gray" fill="white" stroke-width="1px"></path><path d="M 263.737652 148.123437 L 263.737652 145.623437 L 257.737652 145.623437 L 257.737652 148.123437 L 263.737652 148.123437" stroke="gray" fill="white" stroke-width="1px"></path><path d="M 269.737652 148.123437 L 269.737652 145.623437 L 263.737652 145.623437 L 263.737652 148.123437 L 269.737652 148.123437" stroke="gray" fill="white" stroke-width="1px"></path><path d="M 275.737652 148.123437 L 275.737652 145.623437 L 269.737652 145.623437 L 269.737652 148.123437 L 275.737652 148.123437" stroke="gray" fill="white" stroke-width="1px"></path><path d="M 251.737652 160.123437 L 251.737652 162.623437 L 245.737652 162.623437 L 245.737652 160.123437 L 251.737652 160.123437" stroke="gray" fill="white" stroke-width="1px"></path><path d="M 257.737652 160.123437 L 257.737652 162.623437 L 251.737652 162.623437 L 251.737652 160.123437 L 257.737652 160.123437" stroke="gray" fill="white" stroke-width="1px"></path><path d="M 263.737652 160.123437 L 263.737652 162.623437 L 257.737652 162.623437 L 257.737652 160.123437 L 263.737652 160.123437" stroke="gray" fill="white" stroke-width="1px"></path><path d="M 269.737652 160.123437 L 269.737652 162.623437 L 263.737652 162.623437 L 263.737652 160.123437 L 269.737652 160.123437" stroke="gray" fill="white" stroke-width="1px"></path><path d="M 275.737652 160.123437 L 275.737652 162.623437 L 269.737652 162.623437 L 269.737652 160.123437 L 275.737652 160.123437" stroke="gray" fill="white" stroke-width="1px"></path><path d="M 251.737652 148.123437 L 251.737652 150.623437 L 245.737652 150.623437 L 245.737652 148.123437 L 251.737652 148.123437" stroke="gray" fill="white" stroke-width="1px"></path><path d="M 257.737652 148.123437 L 257.737652 150.623437 L 251.737652 150.623437 L 251.737652 148.123437 L 257.737652 148.123437" stroke="gray" fill="white" stroke-width="1px"></path><path d="M 263.737652 148.123437 L 263.737652 150.623437 L 257.737652 150.623437 L 257.737652 148.123437 L 263.737652 148.123437" stroke="gray" fill="white" stroke-width="1px"></path><path d="M 269.737652 148.123437 L 269.737652 150.623437 L 263.737652 150.623437 L 263.737652 148.123437 L 269.737652 148.123437" stroke="gray" fill="white" stroke-width="1px"></path><path d="M 275.737652 148.123437 L 275.737652 150.623437 L 269.737652 150.623437 L 269.737652 148.123437 L 275.737652 148.123437" stroke="gray" fill="white" stroke-width="1px"></path><path d="M 271.459383 44.847101 L 268.959383 44.847101 L 268.959383 50.847101 L 271.459383 50.847101 L 271.459383 44.847101" stroke="gray" fill="white" stroke-width="1px"></path><path d="M 271.459383 38.847101 L 268.959383 38.847101 L 268.959383 44.847101 L 271.459383 44.847101 L 271.459383 38.847101" stroke="gray" fill="white" stroke-width="1px"></path><path d="M 271.459383 32.847101 L 268.959383 32.847101 L 268.959383 38.847101 L 271.459383 38.847101 L 271.459383 32.847101" stroke="gray" fill="white" stroke-width="1px"></path><path d="M 259.459383 46.840310 L 256.959383 46.840310 L 256.959383 52.840310 L 259.459383 52.840310 L 259.459383 46.840310" stroke="gray" fill="white" stroke-width="1px"></path><path d="M 259.459383 40.840310 L 256.959383 40.840310 L 256.959383 46.840310 L 259.459383 46.840310 L 259.459383 40.840310" stroke="gray" fill="white" stroke-width="1px"></path><path d="M 259.459383 34.840310 L 256.959383 34.840310 L 256.959383 40.840310 L 259.459383 40.840310 L 259.459383 34.840310" stroke="gray" fill="white" stroke-width="1px"></path><path d="M 247.459383 48.833518 L 244.959383 48.833518 L 244.959383 54.833518 L 247.459383 54.833518 L 247.459383 48.833518" stroke="gray" fill="white" stroke-width="1px"></path><path d="M 247.459383 42.833518 L 244.959383 42.833518 L 244.959383 48.833518 L 247.459383 48.833518 L 247.459383 42.833518" stroke="gray" fill="white" stroke-width="1px"></path><path d="M 247.459383 36.833518 L 244.959383 36.833518 L 244.959383 42.833518 L 247.459383 42.833518 L 247.459383 36.833518" stroke="gray" fill="white" stroke-width="1px"></path><path d="M 235.459383 44.826726 L 232.959383 44.826726 L 232.959383 50.826726 L 235.459383 50.826726 L 235.459383 44.826726" stroke="gray" fill="white" stroke-width="1px"></path><path d="M 235.459383 38.826726 L 232.959383 38.826726 L 232.959383 44.826726 L 235.459383 44.826726 L 235.459383 38.826726" stroke="gray" fill="white" stroke-width="1px"></path><path d="M 235.459383 32.826726 L 232.959383 32.826726 L 232.959383 38.826726 L 235.459383 38.826726 L 235.459383 32.826726" stroke="gray" fill="white" stroke-width="1px"></path><path d="M 187.459383 101.033125 L 184.959383 101.033125 L 184.959383 107.033125 L 187.459383 107.033125 L 187.459383 101.033125" stroke="gray" fill="white" stroke-width="1px"></path><path d="M 151.459383 101.033125 L 148.959383 101.033125 L 148.959383 107.033125 L 151.459383 107.033125 L 151.459383 101.033125" stroke="gray" fill="white" stroke-width="1px"></path><path d="M 139.459383 101.033125 L 136.959383 101.033125 L 136.959383 107.033125 L 139.459383 107.033125 L 139.459383 101.033125" stroke="gray" fill="white" stroke-width="1px"></path><path d="M 139.459383 95.033125 L 136.959383 95.033125 L 136.959383 101.033125 L 139.459383 101.033125 L 139.459383 95.033125" stroke="gray" fill="white" stroke-width="1px"></path><path d="M 139.459383 89.033125 L 136.959383 89.033125 L 136.959383 95.033125 L 139.459383 95.033125 L 139.459383 89.033125" stroke="gray" fill="white" stroke-width="1px"></path><path d="M 139.459383 83.033125 L 136.959383 83.033125 L 136.959383 89.033125 L 139.459383 89.033125 L 139.459383 83.033125" stroke="gray" fill="white" stroke-width="1px"></path><path d="M 103.459383 101.033125 L 100.959383 101.033125 L 100.959383 107.033125 L 103.459383 107.033125 L 103.459383 101.033125" stroke="gray" fill="white" stroke-width="1px"></path><path d="M 103.459383 95.033125 L 100.959383 95.033125 L 100.959383 101.033125 L 103.459383 101.033125 L 103.459383 95.033125" stroke="gray" fill="white" stroke-width="1px"></path><path d="M 103.459383 89.033125 L 100.959383 89.033125 L 100.959383 95.033125 L 103.459383 95.033125 L 103.459383 89.033125" stroke="gray" fill="white" stroke-width="1px"></path><path d="M 103.459383 83.033125 L 100.959383 83.033125 L 100.959383 89.033125 L 103.459383 89.033125 L 103.459383 83.033125" stroke="gray" fill="white" stroke-width="1px"></path><path d="M 55.459383 32.596156 L 52.959383 32.596156 L 52.959383 38.596156 L 55.459383 38.596156 L 55.459383 32.596156" stroke="gray" fill="white" stroke-width="1px"></path><path d="M 55.459383 26.596156 L 52.959383 26.596156 L 52.959383 32.596156 L 55.459383 32.596156 L 55.459383 26.596156" stroke="gray" fill="white" stroke-width="1px"></path><path d="M 55.459383 20.596156 L 52.959383 20.596156 L 52.959383 26.596156 L 55.459383 26.596156 L 55.459383 20.596156" stroke="gray" fill="white" stroke-width="1px"></path><path d="M 55.459383 14.596156 L 52.959383 14.596156 L 52.959383 20.596156 L 55.459383 20.596156 L 55.459383 14.596156" stroke="gray" fill="white" stroke-width="1px"></path><path d="M 43.459383 32.036408 L 40.959383 32.036408 L 40.959383 38.036408 L 43.459383 38.036408 L 43.459383 32.036408" stroke="gray" fill="white" stroke-width="1px"></path><path d="M 43.459383 26.036408 L 40.959383 26.036408 L 40.959383 32.036408 L 43.459383 32.036408 L 43.459383 26.036408" stroke="gray" fill="white" stroke-width="1px"></path><path d="M 43.459383 20.036408 L 40.959383 20.036408 L 40.959383 26.036408 L 43.459383 26.036408 L 43.459383 20.036408" stroke="gray" fill="white" stroke-width="1px"></path><path d="M 43.459383 14.036408 L 40.959383 14.036408 L 40.959383 20.036408 L 43.459383 20.036408 L 43.459383 14.036408" stroke="gray" fill="white" stroke-width="1px"></path><path d="M 31.459383 31.476660 L 28.959383 31.476660 L 28.959383 37.476660 L 31.459383 37.476660 L 31.459383 31.476660" stroke="gray" fill="white" stroke-width="1px"></path><path d="M 31.459383 25.476660 L 28.959383 25.476660 L 28.959383 31.476660 L 31.459383 31.476660 L 31.459383 25.476660" stroke="gray" fill="white" stroke-width="1px"></path><path d="M 31.459383 19.476660 L 28.959383 19.476660 L 28.959383 25.476660 L 31.459383 25.476660 L 31.459383 19.476660" stroke="gray" fill="white" stroke-width="1px"></path><path d="M 31.459383 13.476660 L 28.959383 13.476660 L 28.959383 19.476660 L 31.459383 19.476660 L 31.459383 13.476660" stroke="gray" fill="white" stroke-width="1px"></path><path d="M 19.459383 30.916912 L 16.959383 30.916912 L 16.959383 36.916912 L 19.459383 36.916912 L 19.459383 30.916912" stroke="gray" fill="white" stroke-width="1px"></path><path d="M 19.459383 24.916912 L 16.959383 24.916912 L 16.959383 30.916912 L 19.459383 30.916912 L 19.459383 24.916912" stroke="gray" fill="white" stroke-width="1px"></path><path d="M 19.459383 18.916912 L 16.959383 18.916912 L 16.959383 24.916912 L 19.459383 24.916912 L 19.459383 18.916912" stroke="gray" fill="white" stroke-width="1px"></path><path d="M 19.459383 12.916912 L 16.959383 12.916912 L 16.959383 18.916912 L 19.459383 18.916912 L 19.459383 12.916912" stroke="gray" fill="white" stroke-width="1px"></path><path d="M 271.459383 44.847101 L 273.959383 44.847101 L 273.959383 50.847101 L 271.459383 50.847101 L 271.459383 44.847101" stroke="gray" fill="white" stroke-width="1px"></path><path d="M 271.459383 38.847101 L 273.959383 38.847101 L 273.959383 44.847101 L 271.459383 44.847101 L 271.459383 38.847101" stroke="gray" fill="white" stroke-width="1px"></path><path d="M 271.459383 32.847101 L 273.959383 32.847101 L 273.959383 38.847101 L 271.459383 38.847101 L 271.459383 32.847101" stroke="gray" fill="white" stroke-width="1px"></path><path d="M 259.459383 46.840310 L 261.959383 46.840310 L 261.959383 52.840310 L 259.459383 52.840310 L 259.459383 46.840310" stroke="gray" fill="white" stroke-width="1px"></path><path d="M 259.459383 40.840310 L 261.959383 40.840310 L 261.959383 46.840310 L 259.459383 46.840310 L 259.459383 40.840310" stroke="gray" fill="white" stroke-width="1px"></path><path d="M 259.459383 34.840310 L 261.959383 34.840310 L 261.959383 40.840310 L 259.459383 40.840310 L 259.459383 34.840310" stroke="gray" fill="white" stroke-width="1px"></path><path d="M 247.459383 48.833518 L 249.959383 48.833518 L 249.959383 54.833518 L 247.459383 54.833518 L 247.459383 48.833518" stroke="gray" fill="white" stroke-width="1px"></path><path d="M 247.459383 42.833518 L 249.959383 42.833518 L 249.959383 48.833518 L 247.459383 48.833518 L 247.459383 42.833518" stroke="gray" fill="white" stroke-width="1px"></path><path d="M 247.459383 36.833518 L 249.959383 36.833518 L 249.959383 42.833518 L 247.459383 42.833518 L 247.459383 36.833518" stroke="gray" fill="white" stroke-width="1px"></path><path d="M 235.459383 50.826726 L 237.959383 50.826726 L 237.959383 56.826726 L 235.459383 56.826726 L 235.459383 50.826726" stroke="gray" fill="white" stroke-width="1px"></path><path d="M 235.459383 44.826726 L 237.959383 44.826726 L 237.959383 50.826726 L 235.459383 50.826726 L 235.459383 44.826726" stroke="gray" fill="white" stroke-width="1px"></path><path d="M 235.459383 38.826726 L 237.959383 38.826726 L 237.959383 44.826726 L 235.459383 44.826726 L 235.459383 38.826726" stroke="gray" fill="white" stroke-width="1px"></path><path d="M 235.459383 32.826726 L 237.959383 32.826726 L 237.959383 38.826726 L 235.459383 38.826726 L 235.459383 32.826726" stroke="gray" fill="white" stroke-width="1px"></path><path d="M 187.459383 101.033125 L 189.959383 101.033125 L 189.959383 107.033125 L 187.459383 107.033125 L 187.459383 101.033125" stroke="gray" fill="white" stroke-width="1px"></path><path d="M 151.459383 101.033125 L 153.959383 101.033125 L 153.959383 107.033125 L 151.459383 107.033125 L 151.459383 101.033125" stroke="gray" fill="white" stroke-width="1px"></path><path d="M 139.459383 101.033125 L 141.959383 101.033125 L 141.959383 107.033125 L 139.459383 107.033125 L 139.459383 101.033125" stroke="gray" fill="white" stroke-width="1px"></path><path d="M 139.459383 95.033125 L 141.959383 95.033125 L 141.959383 101.033125 L 139.459383 101.033125 L 139.459383 95.033125" stroke="gray" fill="white" stroke-width="1px"></path><path d="M 139.459383 89.033125 L 141.959383 89.033125 L 141.959383 95.033125 L 139.459383 95.033125 L 139.459383 89.033125" stroke="gray" fill="white" stroke-width="1px"></path><path d="M 139.459383 83.033125 L 141.959383 83.033125 L 141.959383 89.033125 L 139.459383 89.033125 L 139.459383 83.033125" stroke="gray" fill="white" stroke-width="1px"></path><path d="M 103.459383 101.033125 L 105.959383 101.033125 L 105.959383 107.033125 L 103.459383 107.033125 L 103.459383 101.033125" stroke="gray" fill="white" stroke-width="1px"></path><path d="M 103.459383 95.033125 L 105.959383 95.033125 L 105.959383 101.033125 L 103.459383 101.033125 L 103.459383 95.033125" stroke="gray" fill="white" stroke-width="1px"></path><path d="M 103.459383 89.033125 L 105.959383 89.033125 L 105.959383 95.033125 L 103.459383 95.033125 L 103.459383 89.033125" stroke="gray" fill="white" stroke-width="1px"></path><path d="M 103.459383 83.033125 L 105.959383 83.033125 L 105.959383 89.033125 L 103.459383 89.033125 L 103.459383 83.033125" stroke="gray" fill="white" stroke-width="1px"></path><path d="M 55.459383 32.596156 L 57.959383 32.596156 L 57.959383 38.596156 L 55.459383 38.596156 L 55.459383 32.596156" stroke="gray" fill="white" stroke-width="1px"></path><path d="M 55.459383 26.596156 L 57.959383 26.596156 L 57.959383 32.596156 L 55.459383 32.596156 L 55.459383 26.596156" stroke="gray" fill="white" stroke-width="1px"></path><path d="M 55.459383 20.596156 L 57.959383 20.596156 L 57.959383 26.596156 L 55.459383 26.596156 L 55.459383 20.596156" stroke="gray" fill="white" stroke-width="1px"></path><path d="M 55.459383 14.596156 L 57.959383 14.596156 L 57.959383 20.596156 L 55.459383 20.596156 L 55.459383 14.596156" stroke="gray" fill="white" stroke-width="1px"></path><path d="M 43.459383 32.036408 L 45.959383 32.036408 L 45.959383 38.036408 L 43.459383 38.036408 L 43.459383 32.036408" stroke="gray" fill="white" stroke-width="1px"></path><path d="M 43.459383 26.036408 L 45.959383 26.036408 L 45.959383 32.036408 L 43.459383 32.036408 L 43.459383 26.036408" stroke="gray" fill="white" stroke-width="1px"></path><path d="M 43.459383 20.036408 L 45.959383 20.036408 L 45.959383 26.036408 L 43.459383 26.036408 L 43.459383 20.036408" stroke="gray" fill="white" stroke-width="1px"></path><path d="M 43.459383 14.036408 L 45.959383 14.036408 L 45.959383 20.036408 L 43.459383 20.036408 L 43.459383 14.036408" stroke="gray" fill="white" stroke-width="1px"></path><path d="M 31.459383 31.476660 L 33.959383 31.476660 L 33.959383 37.476660 L 31.459383 37.476660 L 31.459383 31.476660" stroke="gray" fill="white" stroke-width="1px"></path><path d="M 31.459383 25.476660 L 33.959383 25.476660 L 33.959383 31.476660 L 31.459383 31.476660 L 31.459383 25.476660" stroke="gray" fill="white" stroke-width="1px"></path><path d="M 31.459383 19.476660 L 33.959383 19.476660 L 33.959383 25.476660 L 31.459383 25.476660 L 31.459383 19.476660" stroke="gray" fill="white" stroke-width="1px"></path><path d="M 31.459383 13.476660 L 33.959383 13.476660 L 33.959383 19.476660 L 31.459383 19.476660 L 31.459383 13.476660" stroke="gray" fill="white" stroke-width="1px"></path><path d="M 19.459383 30.916912 L 21.959383 30.916912 L 21.959383 36.916912 L 19.459383 36.916912 L 19.459383 30.916912" stroke="gray" fill="white" stroke-width="1px"></path><path d="M 19.459383 24.916912 L 21.959383 24.916912 L 21.959383 30.916912 L 19.459383 30.916912 L 19.459383 24.916912" stroke="gray" fill="white" stroke-width="1px"></path><path d="M 19.459383 18.916912 L 21.959383 18.916912 L 21.959383 24.916912 L 19.459383 24.916912 L 19.459383 18.916912" stroke="gray" fill="white" stroke-width="1px"></path><path d="M 19.459383 12.916912 L 21.959383 12.916912 L 21.959383 18.916912 L 19.459383 18.916912 L 19.459383 12.916912" stroke="gray" fill="white" stroke-width="1px"></path><path d="M 253.398561 101.263579 L 253.398561 98.763579 L 247.398561 98.763579 L 247.398561 101.263579 L 253.398561 101.263579" stroke="gray" fill="white" stroke-width="1px"></path><path d="M 259.398561 101.263579 L 259.398561 98.763579 L 253.398561 98.763579 L 253.398561 101.263579 L 259.398561 101.263579" stroke="gray" fill="white" stroke-width="1px"></path><path d="M 265.398561 101.263579 L 265.398561 98.763579 L 259.398561 98.763579 L 259.398561 101.263579 L 265.398561 101.263579" stroke="gray" fill="white" stroke-width="1px"></path><path d="M 271.398561 101.263579 L 271.398561 98.763579 L 265.398561 98.763579 L 265.398561 101.263579 L 271.398561 101.263579" stroke="gray" fill="white" stroke-width="1px"></path><path d="M 277.398561 101.263579 L 277.398561 98.763579 L 271.398561 98.763579 L 271.398561 101.263579 L 277.398561 101.263579" stroke="gray" fill="white" stroke-width="1px"></path><path d="M 251.658676 89.263579 L 251.658676 86.763579 L 245.658676 86.763579 L 245.658676 89.263579 L 251.658676 89.263579" stroke="gray" fill="white" stroke-width="1px"></path><path d="M 257.658676 89.263579 L 257.658676 86.763579 L 251.658676 86.763579 L 251.658676 89.263579 L 257.658676 89.263579" stroke="gray" fill="white" stroke-width="1px"></path><path d="M 263.658676 89.263579 L 263.658676 86.763579 L 257.658676 86.763579 L 257.658676 89.263579 L 263.658676 89.263579" stroke="gray" fill="white" stroke-width="1px"></path><path d="M 269.658676 89.263579 L 269.658676 86.763579 L 263.658676 86.763579 L 263.658676 89.263579 L 269.658676 89.263579" stroke="gray" fill="white" stroke-width="1px"></path><path d="M 275.658676 89.263579 L 275.658676 86.763579 L 269.658676 86.763579 L 269.658676 89.263579 L 275.658676 89.263579" stroke="gray" fill="white" stroke-width="1px"></path><path d="M 249.918790 77.263579 L 249.918790 74.763579 L 243.918790 74.763579 L 243.918790 77.263579 L 249.918790 77.263579" stroke="gray" fill="white" stroke-width="1px"></path><path d="M 255.918790 77.263579 L 255.918790 74.763579 L 249.918790 74.763579 L 249.918790 77.263579 L 255.918790 77.263579" stroke="gray" fill="white" stroke-width="1px"></path><path d="M 261.918790 77.263579 L 261.918790 74.763579 L 255.918790 74.763579 L 255.918790 77.263579 L 261.918790 77.263579" stroke="gray" fill="white" stroke-width="1px"></path><path d="M 267.918790 77.263579 L 267.918790 74.763579 L 261.918790 74.763579 L 261.918790 77.263579 L 267.918790 77.263579" stroke="gray" fill="white" stroke-width="1px"></path><path d="M 273.918790 77.263579 L 273.918790 74.763579 L 267.918790 74.763579 L 267.918790 77.263579 L 273.918790 77.263579" stroke="gray" fill="white" stroke-width="1px"></path><path d="M 207.417887 101.263579 L 207.417887 98.763579 L 201.417887 98.763579 L 201.417887 101.263579 L 207.417887 101.263579" stroke="gray" fill="white" stroke-width="1px"></path><path d="M 213.417887 101.263579 L 213.417887 98.763579 L 207.417887 98.763579 L 207.417887 101.263579 L 213.417887 101.263579" stroke="gray" fill="white" stroke-width="1px"></path><path d="M 219.417887 101.263579 L 219.417887 98.763579 L 213.417887 98.763579 L 213.417887 101.263579 L 219.417887 101.263579" stroke="gray" fill="white" stroke-width="1px"></path><path d="M 209.370295 89.263579 L 209.370295 86.763579 L 203.370295 86.763579 L 203.370295 89.263579 L 209.370295 89.263579" stroke="gray" fill="white" stroke-width="1px"></path><path d="M 215.370295 89.263579 L 215.370295 86.763579 L 209.370295 86.763579 L 209.370295 89.263579 L 215.370295 89.263579" stroke="gray" fill="white" stroke-width="1px"></path><path d="M 22.000000 101.263579 L 22.000000 98.763579 L 16.000000 98.763579 L 16.000000 101.263579 L 22.000000 101.263579" stroke="gray" fill="white" stroke-width="1px"></path><path d="M 28.000000 101.263579 L 28.000000 98.763579 L 22.000000 98.763579 L 22.000000 101.263579 L 28.000000 101.263579" stroke="gray" fill="white" stroke-width="1px"></path><path d="M 34.000000 101.263579 L 34.000000 98.763579 L 28.000000 98.763579 L 28.000000 101.263579 L 34.000000 101.263579" stroke="gray" fill="white" stroke-width="1px"></path><path d="M 40.000000 101.263579 L 40.000000 98.763579 L 34.000000 98.763579 L 34.000000 101.263579 L 40.000000 101.263579" stroke="gray" fill="white" stroke-width="1px"></path><path d="M 22.000000 89.263579 L 22.000000 86.763579 L 16.000000 86.763579 L 16.000000 89.263579 L 22.000000 89.263579" stroke="gray" fill="white" stroke-width="1px"></path><path d="M 28.000000 89.263579 L 28.000000 86.763579 L 22.000000 86.763579 L 22.000000 89.263579 L 28.000000 89.263579" stroke="gray" fill="white" stroke-width="1px"></path><path d="M 34.000000 89.263579 L 34.000000 86.763579 L 28.000000 86.763579 L 28.000000 89.263579 L 34.000000 89.263579" stroke="gray" fill="white" stroke-width="1px"></path><path d="M 40.000000 89.263579 L 40.000000 86.763579 L 34.000000 86.763579 L 34.000000 89.263579 L 40.000000 89.263579" stroke="gray" fill="white" stroke-width="1px"></path><path d="M 22.000000 77.263579 L 22.000000 74.763579 L 16.000000 74.763579 L 16.000000 77.263579 L 22.000000 77.263579" stroke="gray" fill="white" stroke-width="1px"></path><path d="M 28.000000 77.263579 L 28.000000 74.763579 L 22.000000 74.763579 L 22.000000 77.263579 L 28.000000 77.263579" stroke="gray" fill="white" stroke-width="1px"></path><path d="M 34.000000 77.263579 L 34.000000 74.763579 L 28.000000 74.763579 L 28.000000 77.263579 L 34.000000 77.263579" stroke="gray" fill="white" stroke-width="1px"></path><path d="M 40.000000 77.263579 L 40.000000 74.763579 L 34.000000 74.763579 L 34.000000 77.263579 L 40.000000 77.263579" stroke="gray" fill="white" stroke-width="1px"></path><path d="M 22.000000 65.263579 L 22.000000 62.763579 L 16.000000 62.763579 L 16.000000 65.263579 L 22.000000 65.263579" stroke="gray" fill="white" stroke-width="1px"></path><path d="M 28.000000 65.263579 L 28.000000 62.763579 L 22.000000 62.763579 L 22.000000 65.263579 L 28.000000 65.263579" stroke="gray" fill="white" stroke-width="1px"></path><path d="M 34.000000 65.263579 L 34.000000 62.763579 L 28.000000 62.763579 L 28.000000 65.263579 L 34.000000 65.263579" stroke="gray" fill="white" stroke-width="1px"></path><path d="M 40.000000 65.263579 L 40.000000 62.763579 L 34.000000 62.763579 L 34.000000 65.263579 L 40.000000 65.263579" stroke="gray" fill="white" stroke-width="1px"></path><path d="M 46.000000 65.263579 L 46.000000 62.763579 L 40.000000 62.763579 L 40.000000 65.263579 L 46.000000 65.263579" stroke="gray" fill="white" stroke-width="1px"></path><path d="M 52.000000 65.263579 L 52.000000 62.763579 L 46.000000 62.763579 L 46.000000 65.263579 L 52.000000 65.263579" stroke="gray" fill="white" stroke-width="1px"></path><path d="M 253.398561 101.263579 L 253.398561 103.763579 L 247.398561 103.763579 L 247.398561 101.263579 L 253.398561 101.263579" stroke="gray" fill="white" stroke-width="1px"></path><path d="M 259.398561 101.263579 L 259.398561 103.763579 L 253.398561 103.763579 L 253.398561 101.263579 L 259.398561 101.263579" stroke="gray" fill="white" stroke-width="1px"></path><path d="M 265.398561 101.263579 L 265.398561 103.763579 L 259.398561 103.763579 L 259.398561 101.263579 L 265.398561 101.263579" stroke="gray" fill="white" stroke-width="1px"></path><path d="M 271.398561 101.263579 L 271.398561 103.763579 L 265.398561 103.763579 L 265.398561 101.263579 L 271.398561 101.263579" stroke="gray" fill="white" stroke-width="1px"></path><path d="M 277.398561 101.263579 L 277.398561 103.763579 L 271.398561 103.763579 L 271.398561 101.263579 L 277.398561 101.263579" stroke="gray" fill="white" stroke-width="1px"></path><path d="M 251.658676 89.263579 L 251.658676 91.763579 L 245.658676 91.763579 L 245.658676 89.263579 L 251.658676 89.263579" stroke="gray" fill="white" stroke-width="1px"></path><path d="M 257.658676 89.263579 L 257.658676 91.763579 L 251.658676 91.763579 L 251.658676 89.263579 L 257.658676 89.263579" stroke="gray" fill="white" stroke-width="1px"></path><path d="M 263.658676 89.263579 L 263.658676 91.763579 L 257.658676 91.763579 L 257.658676 89.263579 L 263.658676 89.263579" stroke="gray" fill="white" stroke-width="1px"></path><path d="M 269.658676 89.263579 L 269.658676 91.763579 L 263.658676 91.763579 L 263.658676 89.263579 L 269.658676 89.263579" stroke="gray" fill="white" stroke-width="1px"></path><path d="M 275.658676 89.263579 L 275.658676 91.763579 L 269.658676 91.763579 L 269.658676 89.263579 L 275.658676 89.263579" stroke="gray" fill="white" stroke-width="1px"></path><path d="M 249.918790 77.263579 L 249.918790 79.763579 L 243.918790 79.763579 L 243.918790 77.263579 L 249.918790 77.263579" stroke="gray" fill="white" stroke-width="1px"></path><path d="M 255.918790 77.263579 L 255.918790 79.763579 L 249.918790 79.763579 L 249.918790 77.263579 L 255.918790 77.263579" stroke="gray" fill="white" stroke-width="1px"></path><path d="M 261.918790 77.263579 L 261.918790 79.763579 L 255.918790 79.763579 L 255.918790 77.263579 L 261.918790 77.263579" stroke="gray" fill="white" stroke-width="1px"></path><path d="M 267.918790 77.263579 L 267.918790 79.763579 L 261.918790 79.763579 L 261.918790 77.263579 L 267.918790 77.263579" stroke="gray" fill="white" stroke-width="1px"></path><path d="M 273.918790 77.263579 L 273.918790 79.763579 L 267.918790 79.763579 L 267.918790 77.263579 L 273.918790 77.263579" stroke="gray" fill="white" stroke-width="1px"></path><path d="M 207.417887 101.263579 L 207.417887 103.763579 L 201.417887 103.763579 L 201.417887 101.263579 L 207.417887 101.263579" stroke="gray" fill="white" stroke-width="1px"></path><path d="M 213.417887 101.263579 L 213.417887 103.763579 L 207.417887 103.763579 L 207.417887 101.263579 L 213.417887 101.263579" stroke="gray" fill="white" stroke-width="1px"></path><path d="M 219.417887 101.263579 L 219.417887 103.763579 L 213.417887 103.763579 L 213.417887 101.263579 L 219.417887 101.263579" stroke="gray" fill="white" stroke-width="1px"></path><path d="M 209.370295 89.263579 L 209.370295 91.763579 L 203.370295 91.763579 L 203.370295 89.263579 L 209.370295 89.263579" stroke="gray" fill="white" stroke-width="1px"></path><path d="M 215.370295 89.263579 L 215.370295 91.763579 L 209.370295 91.763579 L 209.370295 89.263579 L 215.370295 89.263579" stroke="gray" fill="white" stroke-width="1px"></path><path d="M 22.000000 101.263579 L 22.000000 103.763579 L 16.000000 103.763579 L 16.000000 101.263579 L 22.000000 101.263579" stroke="gray" fill="white" stroke-width="1px"></path><path d="M 28.000000 101.263579 L 28.000000 103.763579 L 22.000000 103.763579 L 22.000000 101.263579 L 28.000000 101.263579" stroke="gray" fill="white" stroke-width="1px"></path><path d="M 34.000000 101.263579 L 34.000000 103.763579 L 28.000000 103.763579 L 28.000000 101.263579 L 34.000000 101.263579" stroke="gray" fill="white" stroke-width="1px"></path><path d="M 40.000000 101.263579 L 40.000000 103.763579 L 34.000000 103.763579 L 34.000000 101.263579 L 40.000000 101.263579" stroke="gray" fill="white" stroke-width="1px"></path><path d="M 22.000000 89.263579 L 22.000000 91.763579 L 16.000000 91.763579 L 16.000000 89.263579 L 22.000000 89.263579" stroke="gray" fill="white" stroke-width="1px"></path><path d="M 28.000000 89.263579 L 28.000000 91.763579 L 22.000000 91.763579 L 22.000000 89.263579 L 28.000000 89.263579" stroke="gray" fill="white" stroke-width="1px"></path><path d="M 34.000000 89.263579 L 34.000000 91.763579 L 28.000000 91.763579 L 28.000000 89.263579 L 34.000000 89.263579" stroke="gray" fill="white" stroke-width="1px"></path><path d="M 40.000000 89.263579 L 40.000000 91.763579 L 34.000000 91.763579 L 34.000000 89.263579 L 40.000000 89.263579" stroke="gray" fill="white" stroke-width="1px"></path><path d="M 22.000000 77.263579 L 22.000000 79.763579 L 16.000000 79.763579 L 16.000000 77.263579 L 22.000000 77.263579" stroke="gray" fill="white" stroke-width="1px"></path><path d="M 28.000000 77.263579 L 28.000000 79.763579 L 22.000000 79.763579 L 22.000000 77.263579 L 28.000000 77.263579" stroke="gray" fill="white" stroke-width="1px"></path><path d="M 34.000000 77.263579 L 34.000000 79.763579 L 28.000000 79.763579 L 28.000000 77.263579 L 34.000000 77.263579" stroke="gray" fill="white" stroke-width="1px"></path><path d="M 40.000000 77.263579 L 40.000000 79.763579 L 34.000000 79.763579 L 34.000000 77.263579 L 40.000000 77.263579" stroke="gray" fill="white" stroke-width="1px"></path><path d="M 22.000000 65.263579 L 22.000000 67.763579 L 16.000000 67.763579 L 16.000000 65.263579 L 22.000000 65.263579" stroke="gray" fill="white" stroke-width="1px"></path><path d="M 28.000000 65.263579 L 28.000000 67.763579 L 22.000000 67.763579 L 22.000000 65.263579 L 28.000000 65.263579" stroke="gray" fill="white" stroke-width="1px"></path><path d="M 34.000000 65.263579 L 34.000000 67.763579 L 28.000000 67.763579 L 28.000000 65.263579 L 34.000000 65.263579" stroke="gray" fill="white" stroke-width="1px"></path><path d="M 40.000000 65.263579 L 40.000000 67.763579 L 34.000000 67.763579 L 34.000000 65.263579 L 40.000000 65.263579" stroke="gray" fill="white" stroke-width="1px"></path><path d="M 46.000000 65.263579 L 46.000000 67.763579 L 40.000000 67.763579 L 40.000000 65.263579 L 46.000000 65.263579" stroke="gray" fill="white" stroke-width="1px"></path><path d="M 52.000000 65.263579 L 52.000000 67.763579 L 46.000000 67.763579 L 46.000000 65.263579 L 52.000000 65.263579" stroke="gray" fill="white" stroke-width="1px"></path></g><g id="crv-base"><path d="M 221.371570 123.090312 L 221.371570 169.241094 L 120.000633 169.241094 L 120.000633 156.444206 L 126.051258 156.444206 L 126.051258 128.832500 L 123.590320 128.832500 L 123.590320 125.551250 L 126.051258 125.551250 L 126.051258 123.858132 L 91.315945 123.858125 L 91.315945 134.738750 L 64.258762 134.738750 L 64.258762 123.687497 L 10.000000 123.687497 L 10.000000 226.180625 L 64.258758 226.180625 L 64.258758 192.357500 L 91.315945 192.357500 L 91.315945 220.123437 L 283.459383 220.123437 L 283.459383 123.090312 L 221.371570 123.090312" stroke="black" fill="none" stroke-width="1px"></path><path d="M 221.371570 10.000000 L 221.371570 56.150781 L 120.000633 56.150781 L 120.000633 43.353893 L 126.051258 43.353893 L 126.051258 15.742187 L 123.590320 15.742187 L 123.590320 12.460937 L 126.051258 12.460937 L 126.051258 10.767819 L 91.315945 10.767812 L 91.315945 21.648438 L 64.258762 21.648438 L 64.258762 10.597185 L 10.000000 10.597185 L 10.000000 113.090312 L 64.258758 113.090312 L 64.258758 79.267187 L 91.315945 79.267187 L 91.315945 107.033125 L 283.459383 107.033125 L 283.459383 10.000000 L 221.371570 10.000000" stroke="black" fill="none" stroke-width="1px"></path><path d="M 10.387195 156.559062 L 10.387195 154.590312 L 12.355945 154.590312 L 12.355945 156.559062 L 10.387195 156.559062" stroke="black" fill="white" stroke-width="1px"></path><path d="M 10.387195 43.468750 L 10.387195 41.500000 L 12.355945 41.500000 L 12.355945 43.468750 L 10.387195 43.468750" stroke="black" fill="white" stroke-width="1px"></path><path d="M 10.387195 188.059062 L 10.387195 186.090312 L 12.355945 186.090312 L 12.355945 188.059062 L 10.387195 188.059062" stroke="black" fill="white" stroke-width="1px"></path><path d="M 10.387195 74.968750 L 10.387195 73.000000 L 12.355945 73.000000 L 12.355945 74.968750 L 10.387195 74.968750" stroke="black" fill="white" stroke-width="1px"></path><path d="M 10.387195 219.559062 L 10.387195 217.590312 L 12.355945 217.590312 L 12.355945 219.559062 L 10.387195 219.559062" stroke="black" fill="white" stroke-width="1px"></path><path d="M 10.387195 106.468750 L 10.387195 104.500000 L 12.355945 104.500000 L 12.355945 106.468750 L 10.387195 106.468750" stroke="black" fill="white" stroke-width="1px"></path><path d="M 60.754383 128.340312 L 60.754383 125.387187 L 63.871570 125.387187 L 63.871570 128.340312 L 60.754383 128.340312" stroke="black" fill="white" stroke-width="1px"></path><path d="M 60.754383 15.250000 L 60.754383 12.296875 L 63.871570 12.296875 L 63.871570 15.250000 L 60.754383 15.250000" stroke="black" fill="white" stroke-width="1px"></path><path d="M 280.598133 219.230937 L 280.598133 217.262187 L 282.566883 217.262187 L 282.566883 219.230937 L 280.598133 219.230937" stroke="black" fill="white" stroke-width="1px"></path><path d="M 280.598133 106.140625 L 280.598133 104.171875 L 282.566883 104.171875 L 282.566883 106.140625 L 280.598133 106.140625" stroke="black" fill="white" stroke-width="1px"></path><path d="M 280.598133 188.059062 L 280.598133 186.090312 L 282.566883 186.090312 L 282.566883 188.059062 L 280.598133 188.059062" stroke="black" fill="white" stroke-width="1px"></path><path d="M 280.598133 74.968750 L 280.598133 73.000000 L 282.566883 73.000000 L 282.566883 74.968750 L 280.598133 74.968750" stroke="black" fill="white" stroke-width="1px"></path><path d="M 280.598133 156.559050 L 280.598133 154.590300 L 282.566883 154.590300 L 282.566883 156.559050 L 280.598133 156.559050" stroke="black" fill="white" stroke-width="1px"></path><path d="M 280.598133 43.468737 L 280.598133 41.499987 L 282.566883 41.499987 L 282.566883 43.468737 L 280.598133 43.468737" stroke="black" fill="white" stroke-width="1px"></path><path d="M 248.605945 127.355937 L 248.605945 123.418437 L 251.887195 123.418437 L 251.887195 127.355937 L 248.605945 127.355937" stroke="black" fill="white" stroke-width="1px"></path><path d="M 248.605945 14.265625 L 248.605945 10.328125 L 251.887195 10.328125 L 251.887195 14.265625 L 248.605945 14.265625" stroke="black" fill="white" stroke-width="1px"></path><path d="M 248.605945 157.871562 L 248.605945 153.934062 L 251.887195 153.934062 L 251.887195 157.871562 L 248.605945 157.871562" stroke="black" fill="white" stroke-width="1px"></path><path d="M 248.605945 44.781250 L 248.605945 40.843750 L 251.887195 40.843750 L 251.887195 44.781250 L 248.605945 44.781250" stroke="black" fill="white" stroke-width="1px"></path><path d="M 248.605945 189.043437 L 248.605945 185.105937 L 251.887195 185.105937 L 251.887195 189.043437 L 248.605945 189.043437" stroke="black" fill="white" stroke-width="1px"></path><path d="M 248.605945 75.953125 L 248.605945 72.015625 L 251.887195 72.015625 L 251.887195 75.953125 L 248.605945 75.953125" stroke="black" fill="white" stroke-width="1px"></path><path d="M 248.934070 219.230937 L 248.934070 216.277812 L 251.887195 216.277812 L 251.887195 219.230937 L 248.934070 219.230937" stroke="black" fill="white" stroke-width="1px"></path><path d="M 248.934070 106.140625 L 248.934070 103.187500 L 251.887195 103.187500 L 251.887195 106.140625 L 248.934070 106.140625" stroke="black" fill="white" stroke-width="1px"></path><path d="M 218.090320 189.043437 L 218.090320 185.105937 L 221.371570 185.105937 L 221.371570 189.043437 L 218.090320 189.043437" stroke="black" fill="white" stroke-width="1px"></path><path d="M 218.090320 75.953125 L 218.090320 72.015625 L 221.371570 72.015625 L 221.371570 75.953125 L 218.090320 75.953125" stroke="black" fill="white" stroke-width="1px"></path><path d="M 218.254383 219.230937 L 218.254383 216.277812 L 221.207508 216.277812 L 221.207508 219.230937 L 218.254383 219.230937" stroke="black" fill="white" stroke-width="1px"></path><path d="M 218.254383 106.140625 L 218.254383 103.187500 L 221.207508 103.187500 L 221.207508 106.140625 L 218.254383 106.140625" stroke="black" fill="white" stroke-width="1px"></path><path d="M 186.590320 189.043437 L 186.590320 185.105937 L 189.871570 185.105937 L 189.871570 189.043437 L 186.590320 189.043437" stroke="black" fill="white" stroke-width="1px"></path><path d="M 186.590320 75.953125 L 186.590320 72.015625 L 189.871570 72.015625 L 189.871570 75.953125 L 186.590320 75.953125" stroke="black" fill="white" stroke-width="1px"></path><path d="M 186.754383 219.230937 L 186.754383 216.277812 L 189.707508 216.277812 L 189.707508 219.230937 L 186.754383 219.230937" stroke="black" fill="white" stroke-width="1px"></path><path d="M 186.754383 106.140625 L 186.754383 103.187500 L 189.707508 103.187500 L 189.707508 106.140625 L 186.754383 106.140625" stroke="black" fill="white" stroke-width="1px"></path><path d="M 155.090320 189.043437 L 155.090320 185.105937 L 158.371570 185.105937 L 158.371570 189.043437 L 155.090320 189.043437" stroke="black" fill="white" stroke-width="1px"></path><path d="M 155.090320 75.953125 L 155.090320 72.015625 L 158.371570 72.015625 L 158.371570 75.953125 L 155.090320 75.953125" stroke="black" fill="white" stroke-width="1px"></path><path d="M 155.254383 219.230937 L 155.254383 216.277812 L 158.207508 216.277812 L 158.207508 219.230937 L 155.254383 219.230937" stroke="black" fill="white" stroke-width="1px"></path><path d="M 155.254383 106.140625 L 155.254383 103.187500 L 158.207508 103.187500 L 158.207508 106.140625 L 155.254383 106.140625" stroke="black" fill="white" stroke-width="1px"></path><path d="M 123.590320 189.043437 L 123.590320 185.105937 L 126.871570 185.105937 L 126.871570 189.043437 L 123.590320 189.043437" stroke="black" fill="white" stroke-width="1px"></path><path d="M 123.590320 75.953125 L 123.590320 72.015625 L 126.871570 72.015625 L 126.871570 75.953125 L 123.590320 75.953125" stroke="black" fill="white" stroke-width="1px"></path><path d="M 123.754383 219.230937 L 123.754383 216.277812 L 126.707508 216.277812 L 126.707508 219.230937 L 123.754383 219.230937" stroke="black" fill="white" stroke-width="1px"></path><path d="M 123.754383 106.140625 L 123.754383 103.187500 L 126.707508 103.187500 L 126.707508 106.140625 L 123.754383 106.140625" stroke="black" fill="white" stroke-width="1px"></path><path d="M 92.090320 157.543437 L 92.090320 153.605937 L 95.371570 153.605937 L 95.371570 157.543437 L 92.090320 157.543437" stroke="black" fill="white" stroke-width="1px"></path><path d="M 92.090320 44.453125 L 92.090320 40.515625 L 95.371570 40.515625 L 95.371570 44.453125 L 92.090320 44.453125" stroke="black" fill="white" stroke-width="1px"></path><path d="M 92.090320 189.043437 L 92.090320 185.105937 L 95.371570 185.105937 L 95.371570 189.043437 L 92.090320 189.043437" stroke="black" fill="white" stroke-width="1px"></path><path d="M 92.090320 75.953125 L 92.090320 72.015625 L 95.371570 72.015625 L 95.371570 75.953125 L 92.090320 75.953125" stroke="black" fill="white" stroke-width="1px"></path><path d="M 92.090320 128.504375 L 92.090320 125.551250 L 95.207508 125.551250 L 95.207508 128.504375 L 92.090320 128.504375" stroke="black" fill="white" stroke-width="1px"></path><path d="M 92.090320 15.414062 L 92.090320 12.460937 L 95.207508 12.460937 L 95.207508 15.414062 L 92.090320 15.414062" stroke="black" fill="white" stroke-width="1px"></path><path d="M 60.590320 157.215312 L 60.590320 153.934062 L 63.871570 153.934062 L 63.871570 157.215312 L 60.590320 157.215312" stroke="black" fill="white" stroke-width="1px"></path><path d="M 60.590320 44.125000 L 60.590320 40.843750 L 63.871570 40.843750 L 63.871570 44.125000 L 60.590320 44.125000" stroke="black" fill="white" stroke-width="1px"></path><path d="M 60.754383 219.230937 L 60.754383 216.277812 L 63.871570 216.277812 L 63.871570 219.230937 L 60.754383 219.230937" stroke="black" fill="white" stroke-width="1px"></path><path d="M 60.754383 106.140625 L 60.754383 103.187500 L 63.871570 103.187500 L 63.871570 106.140625 L 60.754383 106.140625" stroke="black" fill="white" stroke-width="1px"></path><path d="M 30.074695 128.504375 L 30.074695 125.223125 L 33.027820 125.223125 L 33.027820 128.504375 L 30.074695 128.504375" stroke="black" fill="white" stroke-width="1px"></path><path d="M 30.074695 15.414062 L 30.074695 12.132812 L 33.027820 12.132812 L 33.027820 15.414062 L 30.074695 15.414062" stroke="black" fill="white" stroke-width="1px"></path><path d="M 30.074695 157.215312 L 30.074695 153.934062 L 33.355945 153.934062 L 33.355945 157.215312 L 30.074695 157.215312" stroke="black" fill="white" stroke-width="1px"></path><path d="M 30.074695 44.125000 L 30.074695 40.843750 L 33.355945 40.843750 L 33.355945 44.125000 L 30.074695 44.125000" stroke="black" fill="white" stroke-width="1px"></path><path d="M 30.074695 188.715312 L 30.074695 185.434062 L 33.355945 185.434062 L 33.355945 188.715312 L 30.074695 188.715312" stroke="black" fill="white" stroke-width="1px"></path><path d="M 30.074695 75.625000 L 30.074695 72.343750 L 33.355945 72.343750 L 33.355945 75.625000 L 30.074695 75.625000" stroke="black" fill="white" stroke-width="1px"></path><path d="M 30.074695 219.230937 L 30.074695 216.277812 L 33.027820 216.277812 L 33.027820 219.230937 L 30.074695 219.230937" stroke="black" fill="white" stroke-width="1px"></path><path d="M 30.074695 106.140625 L 30.074695 103.187500 L 33.027820 103.187500 L 33.027820 106.140625 L 30.074695 106.140625" stroke="black" fill="white" stroke-width="1px"></path><path d="M 10.387195 127.191875 L 10.387195 125.223125 L 12.355945 125.223125 L 12.355945 127.191875 L 10.387195 127.191875" stroke="black" fill="white" stroke-width="1px"></path><path d="M 10.387195 14.101562 L 10.387195 12.132812 L 12.355945 12.132812 L 12.355945 14.101562 L 10.387195 14.101562" stroke="black" fill="white" stroke-width="1px"></path><path d="M 60.590320 189.863750 L 60.590320 185.434062 L 63.871570 185.434062 L 63.871570 188.715312 L 62.230945 188.715312 L 62.230945 189.863750 L 60.590320 189.863750" stroke="black" fill="white" stroke-width="1px"></path><path d="M 60.590320 76.773437 L 60.590320 72.343750 L 63.871570 72.343750 L 63.871570 75.625000 L 62.230945 75.625000 L 62.230945 76.773437 L 60.590320 76.773437" stroke="black" fill="white" stroke-width="1px"></path></g></svg>