<svg width="293.459383" height="236.180625" xmlns="http://www.w3.org/2000/svg" xmlns:xlink="http://www.w3.org/1999/xlink" version="1.1"><g id="crv-background"><path d="M 221.371570 123.090312 L 221.371570 169.241094 L 120.000633 169.241094 L 120.000633 156.444206 L 126.051258 156.444206 L 126.051258 128.832500 L 123.590320 128.832500 L 123.590320 125.551250 L 126.051258 125.551250 L 126.051258 123.858132 L 91.315945 123.858125 L 91.315945 134.738750 L 64.258762 134.738750 L 64.258762 123.687497 L 10.000000 123.687497 L 10.000000 226.180625 L 64.258758 226.180625 L 64.258758 192.357500 L 91.315945 192.357500 L 91.315945 220.123437 L 283.459383 220.123437 L 283.459383 123.090312 L 221.371570 123.090312" stroke="none" fill="white" stroke-width="1px"></path><path d="M 221.371570 10.000000 L 221.371570 56.150781 L 120.000633 56.150781 L 120.000633 43.353893 L 126.051258 43.353893 L 126.051258 15.742187 L 123.590320 15.742187 L 123.590320 12.460937 L 126.051258 12.460937 L 126.051258 10.767819 L 91.315945 10.767812 L 91.315945 21.648438 L 64.258762 21.648438 L 64.258762 10.597185 L 10.000000 10.597185 L 10.000000 113.090312 L 64.258758 113.090312 L 64.258758 79.267187 L 91.315945 79.267187 L 91.315945 107.033125 L 283.459383 107.033125 L 283.459383 10.000000 L 221.371570 10.000000" stroke="none" fill="white" stroke-width="1px"></path></g><g id="crv-nbhd"><path d="M 221.737654 10.000004 L 221.737654 30.393333 L 221.737654 50.786663 L 228.294228 53.024925 L 234.850802 55.263186 L 259.155092 49.134248 L 283.459383 43.005309 L 283.459383 26.502655 L 283.459382 10.000000 L 252.598547 10.000002 L 221.737654 10.000004" stroke="#DD2222" fill="none" stroke-width="1px"></path><path d="M 283.459383 107.033125 L 283.459383 75.019217 L 283.459383 43.005309 L 259.155092 49.134248 L 234.850802 55.263186 L 243.908498 81.148155 L 252.966194 107.033125 L 268.212788 107.033125 L 283.459383 107.033125" stroke="#DD2222" fill="none" stroke-width="1px"></path><path d="M 221.737654 50.786663 L 221.737654 64.968997 L 221.737654 79.151330 L 215.798349 79.151330 L 209.859045 79.151330 L 208.137093 93.092228 L 206.415140 107.033125 L 229.690667 107.033125 L 252.966194 107.033125 L 243.908498 81.148155 L 234.850802 55.263186 L 228.294229 53.024925 L 221.737654 50.786663" stroke="#DD2222" fill="none" stroke-width="1px"></path><path d="M 209.859045 79.151330 L 191.128345 79.151330 L 172.397646 79.151329 L 173.925595 93.092227 L 175.453545 107.033125 L 190.934342 107.033125 L 206.415140 107.033125 L 208.137092 93.092231 L 209.859045 79.151330" stroke="#DD2222" fill="none" stroke-width="1px"></path><path d="M 130.847530 107.033125 L 153.150537 107.033125 L 175.453545 107.033125 L 173.925595 93.092227 L 172.397646 79.151329 L 152.658823 79.151329 L 132.920001 79.151328 L 131.883765 93.092226 L 130.847530 107.033125" stroke="#DD2222" fill="none" stroke-width="1px"></path><path d="M 132.920001 79.151328 L 112.117973 79.151328 L 91.315945 79.151327 L 91.315945 93.092226 L 91.315945 107.033125 L 111.081737 107.033125 L 130.847530 107.033125 L 131.883765 93.092227 L 132.920001 79.151328" stroke="#DD2222" fill="none" stroke-width="1px"></path><path d="M 64.258758 113.090312 L 64.258758 86.322732 L 64.258758 59.555151 L 37.129379 59.472825 L 10.000000 59.390500 L 10.000000 86.240406 L 10.000000 113.090312 L 37.129269 113.090312 L 64.258758 113.090312" stroke="#DD2222" fill="none" stroke-width="1px"></path><path d="M 10.000000 10.597184 L 10.000000 34.993842 L 10.000000 59.390500 L 37.129379 59.472825 L 64.258758 59.555151 L 64.258758 57.852966 L 64.258758 56.150781 L 64.258758 33.373983 L 64.258758 10.597185 L 37.129379 10.597185 L 10.000000 10.597184" stroke="#DD2222" fill="none" stroke-width="1px"></path><path d="M 10.000000 123.687497 L 10.000000 149.894775 L 10.000000 176.102054 L 37.129379 177.052053 L 64.258758 178.002053 L 64.258758 173.621574 L 64.258758 169.241094 L 64.258758 146.464296 L 64.258758 123.687497 L 37.129385 123.687497 L 10.000000 123.687497" stroke="#DD2222" fill="none" stroke-width="1px"></path><path d="M 10.000000 176.102054 L 10.000000 201.141339 L 10.000000 226.180625 L 37.129381 226.180625 L 64.258761 226.180625 L 64.258761 202.091339 L 64.258758 178.002053 L 37.129379 177.052053 L 10.000000 176.102054" stroke="#DD2222" fill="none" stroke-width="1px"></path><path d="M 140.344431 192.043444 L 115.830188 192.043444 L 91.315945 192.043444 L 91.315945 206.083441 L 91.315945 220.123437 L 115.395101 220.123437 L 139.474257 220.123437 L 139.909344 206.083441 L 140.344431 192.043444" stroke="#DD2222" fill="none" stroke-width="1px"></path><path d="M 186.869968 192.043444 L 163.607200 192.043444 L 140.344431 192.043444 L 139.909344 206.083441 L 139.474257 220.123437 L 167.898853 220.123437 L 196.323449 220.123437 L 191.596710 206.083444 L 186.869968 192.043444" stroke="#DD2222" fill="none" stroke-width="1px"></path><path d="M 229.978830 192.043444 L 208.424399 192.043444 L 186.869968 192.043444 L 191.596709 206.083441 L 196.323449 220.123437 L 210.089198 220.123437 L 223.854947 220.123437 L 226.916888 206.083441 L 229.978830 192.043444" stroke="#DD2222" fill="none" stroke-width="1px"></path><path d="M 283.459383 220.123437 L 283.459383 191.542230 L 283.459383 162.961022 L 261.598517 166.834403 L 239.737652 170.707783 L 239.737652 181.375614 L 239.737652 192.043444 L 234.858241 192.043444 L 229.978830 192.043444 L 226.916888 206.083441 L 223.854947 220.123437 L 253.657158 220.123437 L 283.459383 220.123437" stroke="#DD2222" fill="none" stroke-width="1px"></path><path d="M 239.737652 123.090312 L 239.737652 146.899048 L 239.737652 170.707783 L 261.598517 166.834403 L 283.459383 162.961022 L 283.459383 143.025667 L 283.459383 123.090312 L 261.598548 123.090312 L 239.737652 123.090312" stroke="#DD2222" fill="none" stroke-width="1px"></path></g><g id="crv-amen"><path d="M 15.425876 161.235384 L 15.425876 167.927237 L 15.425876 174.619090 L 37.129379 175.379090 L 58.832882 176.139090 L 58.832882 172.634706 L 58.832882 169.130322 L 58.832882 165.942853 L 58.832882 162.755384 L 37.129379 161.995384 L 15.425876 161.235384" stroke="none" fill="#2288CC" stroke-width="1px"></path><path d="M 58.832883 192.868723 L 58.832883 186.176868 L 58.832882 179.485017 L 37.129379 178.725017 L 15.425876 177.965017 L 15.425876 184.656870 L 15.425876 191.348723 L 37.129380 192.108723 L 58.832883 192.868723" stroke="none" fill="#2288CC" stroke-width="1px"></path><path d="M 135.001227 207.087931 L 135.208475 200.400176 L 135.415723 193.712422 L 115.804328 193.712422 L 96.192934 193.712422 L 96.192934 200.400176 L 96.192934 207.087931 L 115.597080 207.087931 L 135.001227 207.087931" stroke="none" fill="#2288CC" stroke-width="1px"></path><path d="M 179.522774 217.341205 L 186.579359 217.341205 L 193.635943 217.341205 L 189.854551 206.109208 L 186.073158 194.877210 L 181.244416 194.877210 L 176.415673 194.877210 L 174.414633 195.550885 L 172.413593 196.224561 L 175.968184 206.782883 L 179.522774 217.341205" stroke="none" fill="#2288CC" stroke-width="1px"></path><path d="M 203.670643 194.825677 L 196.614059 194.825677 L 189.557475 194.825677 L 193.338867 206.057674 L 197.120259 217.289671 L 201.949001 217.289671 L 206.777744 217.289671 L 208.778784 216.615996 L 210.779824 215.942321 L 207.225234 205.383999 L 203.670643 194.825677" stroke="none" fill="#2288CC" stroke-width="1px"></path><path d="M 238.903207 193.455417 L 238.903207 194.133716 L 238.903207 194.812015 L 234.999678 194.812015 L 231.096149 194.812015 L 228.646596 206.044012 L 226.197043 217.276009 L 233.041991 217.276009 L 239.886939 217.276009 L 242.344156 206.008870 L 244.801373 194.741731 L 241.852290 194.098574 L 238.903207 193.455417" stroke="none" fill="#2288CC" stroke-width="1px"></path><path d="M 254.767206 127.705525 L 248.079456 127.705525 L 241.391698 127.705525 L 241.391698 146.752513 L 241.391698 165.799501 L 248.079452 164.614543 L 254.767206 163.429585 L 254.767206 145.567555 L 254.767206 127.705525" stroke="none" fill="#2288CC" stroke-width="1px"></path><path d="M 277.287210 25.047447 L 277.287210 18.359693 L 277.287209 11.671939 L 252.598518 11.671940 L 227.909827 11.671942 L 227.909827 18.359696 L 227.909827 25.047450 L 252.598518 25.047449 L 277.287210 25.047447" stroke="none" fill="#2288CC" stroke-width="1px"></path><path d="M 251.405166 56.948589 L 244.894318 58.590463 L 238.383471 60.232337 L 245.629628 80.940313 L 252.875785 101.648288 L 259.961159 101.648288 L 267.046533 101.648288 L 259.225849 79.298438 L 251.405166 56.948589" stroke="none" fill="#2288CC" stroke-width="1px"></path><path d="M 236.679094 66.156869 L 235.236599 62.034525 L 233.794104 57.912182 L 228.548846 56.121573 L 223.303586 54.330963 L 223.303586 67.151793 L 223.303586 79.972622 L 229.991340 79.972622 L 236.679094 79.972622 L 236.679094 73.064746 L 236.679094 66.156869" stroke="none" fill="#2288CC" stroke-width="1px"></path><path d="M 204.449368 94.168193 L 205.275426 87.480440 L 206.101485 80.792685 L 191.116925 80.792685 L 176.132365 80.792684 L 176.865356 87.480438 L 177.598347 94.168193 L 191.023857 94.168193 L 204.449368 94.168193" stroke="none" fill="#2288CC" stroke-width="1px"></path><path d="M 160.010399 104.244945 L 166.738201 104.244945 L 173.466004 104.244945 L 172.243645 93.092227 L 171.021285 81.939509 L 164.293482 81.939509 L 157.565679 81.939508 L 158.788039 93.092227 L 160.010399 104.244945" stroke="none" fill="#2288CC" stroke-width="1px"></path><path d="M 106.363392 81.939507 L 99.675638 81.939507 L 92.987884 81.939507 L 92.987884 93.092226 L 92.987884 104.244945 L 99.675638 104.244945 L 106.363392 104.244945 L 106.363392 93.092226 L 106.363392 81.939507" stroke="none" fill="#2288CC" stroke-width="1px"></path><path d="M 58.832882 74.586202 L 58.832882 67.898417 L 58.832882 61.210632 L 37.129379 61.144772 L 15.425876 61.078911 L 15.425876 67.766696 L 15.425876 74.454481 L 37.129379 74.520341 L 58.832882 74.586202" stroke="none" fill="#2288CC" stroke-width="1px"></path><path d="M 15.425876 44.359449 L 15.425876 51.047234 L 15.425876 57.735018 L 37.129379 57.800879 L 58.832882 57.866740 L 58.832882 56.504992 L 58.832882 55.143244 L 58.832882 49.817207 L 58.832882 44.491170 L 37.129379 44.425309 L 15.425876 44.359449" stroke="none" fill="#2288CC" stroke-width="1px"></path></g><g id="crv-desk"><path d="M 55.459383 220.180625 L 52.959383 220.180625 L 52.959383 226.180625 L 55.459383 226.180625 L 55.459383 220.180625" stroke="gray" fill="white" stroke-width="1px"></path><path d="M 55.459383 214.180625 L 52.959383 214.180625 L 52.959383 220.180625 L 55.459383 220.180625 L 55.459383 214.180625" stroke="gray" fill="white" stroke-width="1px"></path><path d="M 55.459383 208.180625 L 52.959383 208.180625 L 52.959383 214.180625 L 55.459383 214.180625 L 55.459383 208.180625" stroke="gray" fill="white" stroke-width="1px"></path><path d="M 55.459383 202.180625 L 52.959383 202.180625 L 52.959383 208.180625 L 55.459383 208.180625 L 55.459383 202.180625" stroke="gray" fill="white" stroke-width="1px"></path><path d="M 43.459383 220.180625 L 40.959383 220.180625 L 40.959383 226.180625 L 43.459383 226.180625 L 43.459383 220.180625" stroke="gray" fill="white" stroke-width="1px"></path><path d="M 43.459383 214.180625 L 40.959383 214.180625 L 40.959383 220.180625 L 43.459383 220.180625 L 43.459383 214.180625" stroke="gray" fill="white" stroke-width="1px"></path><path d="M 43.459383 208.180625 L 40.959383 208.180625 L 40.959383 214.180625 L 43.459383 214.180625 L 43.459383 208.180625" stroke="gray" fill="white" stroke-width="1px"></path><path d="M 43.459383 202.180625 L 40.959383 202.180625 L 40.959383 208.180625 L 43.459383 208.180625 L 43.459383 202.180625" stroke="gray" fill="white" stroke-width="1px"></path><path d="M 31.459383 220.180625 L 28.959383 220.180625 L 28.959383 226.180625 L 31.459383 226.180625 L 31.459383 220.180625" stroke="gray" fill="white" stroke-width="1px"></path><path d="M 31.459383 214.180625 L 28.959383 214.180625 L 28.959383 220.180625 L 31.459383 220.180625 L 31.459383 214.180625" stroke="gray" fill="white" stroke-width="1px"></path><path d="M 31.459383 208.180625 L 28.959383 208.180625 L 28.959383 214.180625 L 31.459383 214.180625 L 31.459383 208.180625" stroke="gray" fill="white" stroke-width="1px"></path><path d="M 31.459383 202.180625 L 28.959383 202.180625 L 28.959383 208.180625 L 31.459383 208.180625 L 31.459383 202.180625" stroke="gray" fill="white" stroke-width="1px"></path><path d="M 19.459383 220.180625 L 16.959383 220.180625 L 16.959383 226.180625 L 19.459383 226.180625 L 19.459383 220.180625" stroke="gray" fill="white" stroke-width="1px"></path><path d="M 19.459383 214.180625 L 16.959383 214.180625 L 16.959383 220.180625 L 19.459383 220.180625 L 19.459383 214.180625" stroke="gray" fill="white" stroke-width="1px"></path><path d="M 19.459383 208.180625 L 16.959383 208.180625 L 16.959383 214.180625 L 19.459383 214.180625 L 19.459383 208.180625" stroke="gray" fill="white" stroke-width="1px"></path><path d="M 19.459383 202.180625 L 16.959383 202.180625 L 16.959383 208.180625 L 19.459383 208.180625 L 19.459383 202.180625" stroke="gray" fill="white" stroke-width="1px"></path><path d="M 127.459383 214.123437 L 124.959383 214.123437 L 124.959383 220.123437 L 127.459383 220.123437 L 127.459383 214.123437" stroke="gray" fill="white" stroke-width="1px"></path><path d="M 115.459383 214.123437 L 112.959383 214.123437 L 112.959383 220.123437 L 115.459383 220.123437 L 115.459383 214.123437" stroke="gray" fill="white" stroke-width="1px"></path><path d="M 103.459383 214.123437 L 100.959383 214.123437 L 100.959383 220.123437 L 103.459383 220.123437 L 103.459383 214.123437" stroke="gray" fill="white" stroke-width="1px"></path><path d="M 163.459383 214.123437 L 160.959383 214.123437 L 160.959383 220.123437 L 163.459383 220.123437 L 163.459383 214.123437" stroke="gray" fill="white" stroke-width="1px"></path><path d="M 163.459383 208.123437 L 160.959383 208.123437 L 160.959383 214.123437 L 163.459383 214.123437 L 163.459383 208.123437" stroke="gray" fill="white" stroke-width="1px"></path><path d="M 163.459383 202.123437 L 160.959383 202.123437 L 160.959383 208.123437 L 163.459383 208.123437 L 163.459383 202.123437" stroke="gray" fill="white" stroke-width="1px"></path><path d="M 163.459383 196.123437 L 160.959383 196.123437 L 160.959383 202.123437 L 163.459383 202.123437 L 163.459383 196.123437" stroke="gray" fill="white" stroke-width="1px"></path><path d="M 151.459383 214.123437 L 148.959383 214.123437 L 148.959383 220.123437 L 151.459383 220.123437 L 151.459383 214.123437" stroke="gray" fill="white" stroke-width="1px"></path><path d="M 151.459383 208.123437 L 148.959383 208.123437 L 148.959383 214.123437 L 151.459383 214.123437 L 151.459383 208.123437" stroke="gray" fill="white" stroke-width="1px"></path><path d="M 151.459383 202.123437 L 148.959383 202.123437 L 148.959383 208.123437 L 151.459383 208.123437 L 151.459383 202.123437" stroke="gray" fill="white" stroke-width="1px"></path><path d="M 151.459383 196.123437 L 148.959383 196.123437 L 148.959383 202.123437 L 151.459383 202.123437 L 151.459383 196.123437" stroke="gray" fill="white" stroke-width="1px"></path><path d="M 223.459383 208.123437 L 220.959383 208.123437 L 220.959383 214.123437 L 223.459383 214.123437 L 223.459383 208.123437" stroke="gray" fill="white" stroke-width="1px"></path><path d="M 223.459383 202.123437 L 220.959383 202.123437 L 220.959383 208.123437 L 223.459383 208.123437 L 223.459383 202.123437" stroke="gray" fill="white" stroke-width="1px"></path><path d="M 223.459383 196.123437 L 220.959383 196.123437 L 220.959383 202.123437 L 223.459383 202.123437 L 223.459383 196.123437" stroke="gray" fill="white" stroke-width="1px"></path><path d="M 211.459383 196.123437 L 208.959383 196.123437 L 208.959383 202.123437 L 211.459383 202.123437 L 211.459383 196.123437" stroke="gray" fill="white" stroke-width="1px"></path><path d="M 271.459383 214.123437 L 268.959383 214.123437 L 268.959383 220.123437 L 271.459383 220.123437 L 271.459383 214.123437" stroke="gray" fill="white" stroke-width="1px"></path><path d="M 271.459383 208.123437 L 268.959383 208.123437 L 268.959383 214.123437 L 271.459383 214.123437 L 271.459383 208.123437" stroke="gray" fill="white" stroke-width="1px"></path><path d="M 271.459383 202.123437 L 268.959383 202.123437 L 268.959383 208.123437 L 271.459383 208.123437 L 271.459383 202.123437" stroke="gray" fill="white" stroke-width="1px"></path><path d="M 271.459383 196.123437 L 268.959383 196.123437 L 268.959383 202.123437 L 271.459383 202.123437 L 271.459383 196.123437" stroke="gray" fill="white" stroke-width="1px"></path><path d="M 271.459383 190.123437 L 268.959383 190.123437 L 268.959383 196.123437 L 271.459383 196.123437 L 271.459383 190.123437" stroke="gray" fill="white" stroke-width="1px"></path><path d="M 271.459383 184.123437 L 268.959383 184.123437 L 268.959383 190.123437 L 271.459383 190.123437 L 271.459383 184.123437" stroke="gray" fill="white" stroke-width="1px"></path><path d="M 271.459383 178.123437 L 268.959383 178.123437 L 268.959383 184.123437 L 271.459383 184.123437 L 271.459383 178.123437" stroke="gray" fill="white" stroke-width="1px"></path><path d="M 271.459383 172.123437 L 268.959383 172.123437 L 268.959383 178.123437 L 271.459383 178.123437 L 271.459383 172.123437" stroke="gray" fill="white" stroke-width="1px"></path><path d="M 259.459383 214.123437 L 256.959383 214.123437 L 256.959383 220.123437 L 259.459383 220.123437 L 259.459383 214.123437" stroke="gray" fill="white" stroke-width="1px"></path><path d="M 259.459383 208.123437 L 256.959383 208.123437 L 256.959383 214.123437 L 259.459383 214.123437 L 259.459383 208.123437" stroke="gray" fill="white" stroke-width="1px"></path><path d="M 259.459383 202.123437 L 256.959383 202.123437 L 256.959383 208.123437 L 259.459383 208.123437 L 259.459383 202.123437" stroke="gray" fill="white" stroke-width="1px"></path><path d="M 259.459383 196.123437 L 256.959383 196.123437 L 256.959383 202.123437 L 259.459383 202.123437 L 259.459383 196.123437" stroke="gray" fill="white" stroke-width="1px"></path><path d="M 259.459383 190.123437 L 256.959383 190.123437 L 256.959383 196.123437 L 259.459383 196.123437 L 259.459383 190.123437" stroke="gray" fill="white" stroke-width="1px"></path><path d="M 259.459383 184.123437 L 256.959383 184.123437 L 256.959383 190.123437 L 259.459383 190.123437 L 259.459383 184.123437" stroke="gray" fill="white" stroke-width="1px"></path><path d="M 259.459383 178.123437 L 256.959383 178.123437 L 256.959383 184.123437 L 259.459383 184.123437 L 259.459383 178.123437" stroke="gray" fill="white" stroke-width="1px"></path><path d="M 259.459383 172.123437 L 256.959383 172.123437 L 256.959383 178.123437 L 259.459383 178.123437 L 259.459383 172.123437" stroke="gray" fill="white" stroke-width="1px"></path><path d="M 247.459383 214.123437 L 244.959383 214.123437 L 244.959383 220.123437 L 247.459383 220.123437 L 247.459383 214.123437" stroke="gray" fill="white" stroke-width="1px"></path><path d="M 247.459383 208.123437 L 244.959383 208.123437 L 244.959383 214.123437 L 247.459383 214.123437 L 247.459383 208.123437" stroke="gray" fill="white" stroke-width="1px"></path><path d="M 247.459383 202.123437 L 244.959383 202.123437 L 244.959383 208.123437 L 247.459383 208.123437 L 247.459383 202.123437" stroke="gray" fill="white" stroke-width="1px"></path><path d="M 247.459383 196.123437 L 244.959383 196.123437 L 244.959383 202.123437 L 247.459383 202.123437 L 247.459383 196.123437" stroke="gray" fill="white" stroke-width="1px"></path><path d="M 247.459383 190.123437 L 244.959383 190.123437 L 244.959383 196.123437 L 247.459383 196.123437 L 247.459383 190.123437" stroke="gray" fill="white" stroke-width="1px"></path><path d="M 247.459383 184.123437 L 244.959383 184.123437 L 244.959383 190.123437 L 247.459383 190.123437 L 247.459383 184.123437" stroke="gray" fill="white" stroke-width="1px"></path><path d="M 247.459383 178.123437 L 244.959383 178.123437 L 244.959383 184.123437 L 247.459383 184.123437 L 247.459383 178.123437" stroke="gray" fill="white" stroke-width="1px"></path><path d="M 247.459383 172.123437 L 244.959383 172.123437 L 244.959383 178.123437 L 247.459383 178.123437 L 247.459383 172.123437" stroke="gray" fill="white" stroke-width="1px"></path><path d="M 55.459383 220.180625 L 57.959383 220.180625 L 57.959383 226.180625 L 55.459383 226.180625 L 55.459383 220.180625" stroke="gray" fill="white" stroke-width="1px"></path><path d="M 55.459383 214.180625 L 57.959383 214.180625 L 57.959383 220.180625 L 55.459383 220.180625 L 55.459383 214.180625" stroke="gray" fill="white" stroke-width="1px"></path><path d="M 55.459383 208.180625 L 57.959383 208.180625 L 57.959383 214.180625 L 55.459383 214.180625 L 55.459383 208.180625" stroke="gray" fill="white" stroke-width="1px"></path><path d="M 55.459383 202.180625 L 57.959383 202.180625 L 57.959383 208.180625 L 55.459383 208.180625 L 55.459383 202.180625" stroke="gray" fill="white" stroke-width="1px"></path><path d="M 43.459383 220.180625 L 45.959383 220.180625 L 45.959383 226.180625 L 43.459383 226.180625 L 43.459383 220.180625" stroke="gray" fill="white" stroke-width="1px"></path><path d="M 43.459383 214.180625 L 45.959383 214.180625 L 45.959383 220.180625 L 43.459383 220.180625 L 43.459383 214.180625" stroke="gray" fill="white" stroke-width="1px"></path><path d="M 43.459383 208.180625 L 45.959383 208.180625 L 45.959383 214.180625 L 43.459383 214.180625 L 43.459383 208.180625" stroke="gray" fill="white" stroke-width="1px"></path><path d="M 43.459383 202.180625 L 45.959383 202.180625 L 45.959383 208.180625 L 43.459383 208.180625 L 43.459383 202.180625" stroke="gray" fill="white" stroke-width="1px"></path><path d="M 31.459383 220.180625 L 33.959383 220.180625 L 33.959383 226.180625 L 31.459383 226.180625 L 31.459383 220.180625" stroke="gray" fill="white" stroke-width="1px"></path><path d="M 31.459383 214.180625 L 33.959383 214.180625 L 33.959383 220.180625 L 31.459383 220.180625 L 31.459383 214.180625" stroke="gray" fill="white" stroke-width="1px"></path><path d="M 31.459383 208.180625 L 33.959383 208.180625 L 33.959383 214.180625 L 31.459383 214.180625 L 31.459383 208.180625" stroke="gray" fill="white" stroke-width="1px"></path><path d="M 31.459383 202.180625 L 33.959383 202.180625 L 33.959383 208.180625 L 31.459383 208.180625 L 31.459383 202.180625" stroke="gray" fill="white" stroke-width="1px"></path><path d="M 19.459383 220.180625 L 21.959383 220.180625 L 21.959383 226.180625 L 19.459383 226.180625 L 19.459383 220.180625" stroke="gray" fill="white" stroke-width="1px"></path><path d="M 19.459383 214.180625 L 21.959383 214.180625 L 21.959383 220.180625 L 19.459383 220.180625 L 19.459383 214.180625" stroke="gray" fill="white" stroke-width="1px"></path><path d="M 19.459383 208.180625 L 21.959383 208.180625 L 21.959383 214.180625 L 19.459383 214.180625 L 19.459383 208.180625" stroke="gray" fill="white" stroke-width="1px"></path><path d="M 19.459383 202.180625 L 21.959383 202.180625 L 21.959383 208.180625 L 19.459383 208.180625 L 19.459383 202.180625" stroke="gray" fill="white" stroke-width="1px"></path><path d="M 127.459383 214.123437 L 129.959383 214.123437 L 129.959383 220.123437 L 127.459383 220.123437 L 127.459383 214.123437" stroke="gray" fill="white" stroke-width="1px"></path><path d="M 115.459383 214.123437 L 117.959383 214.123437 L 117.959383 220.123437 L 115.459383 220.123437 L 115.459383 214.123437" stroke="gray" fill="white" stroke-width="1px"></path><path d="M 103.459383 214.123437 L 105.959383 214.123437 L 105.959383 220.123437 L 103.459383 220.123437 L 103.459383 214.123437" stroke="gray" fill="white" stroke-width="1px"></path><path d="M 163.459383 214.123437 L 165.959383 214.123437 L 165.959383 220.123437 L 163.459383 220.123437 L 163.459383 214.123437" stroke="gray" fill="white" stroke-width="1px"></path><path d="M 163.459383 208.123437 L 165.959383 208.123437 L 165.959383 214.123437 L 163.459383 214.123437 L 163.459383 208.123437" stroke="gray" fill="white" stroke-width="1px"></path><path d="M 163.459383 202.123437 L 165.959383 202.123437 L 165.959383 208.123437 L 163.459383 208.123437 L 163.459383 202.123437" stroke="gray" fill="white" stroke-width="1px"></path><path d="M 163.459383 196.123437 L 165.959383 196.123437 L 165.959383 202.123437 L 163.459383 202.123437 L 163.459383 196.123437" stroke="gray" fill="white" stroke-width="1px"></path><path d="M 151.459383 214.123437 L 153.959383 214.123437 L 153.959383 220.123437 L 151.459383 220.123437 L 151.459383 214.123437" stroke="gray" fill="white" stroke-width="1px"></path><path d="M 151.459383 208.123437 L 153.959383 208.123437 L 153.959383 214.123437 L 151.459383 214.123437 L 151.459383 208.123437" stroke="gray" fill="white" stroke-width="1px"></path><path d="M 151.459383 202.123437 L 153.959383 202.123437 L 153.959383 208.123437 L 151.459383 208.123437 L 151.459383 202.123437" stroke="gray" fill="white" stroke-width="1px"></path><path d="M 151.459383 196.123437 L 153.959383 196.123437 L 153.959383 202.123437 L 151.459383 202.123437 L 151.459383 196.123437" stroke="gray" fill="white" stroke-width="1px"></path><path d="M 223.459383 202.123437 L 225.959383 202.123437 L 225.959383 208.123437 L 223.459383 208.123437 L 223.459383 202.123437" stroke="gray" fill="white" stroke-width="1px"></path><path d="M 223.459383 196.123437 L 225.959383 196.123437 L 225.959383 202.123437 L 223.459383 202.123437 L 223.459383 196.123437" stroke="gray" fill="white" stroke-width="1px"></path><path d="M 211.459383 196.123437 L 213.959383 196.123437 L 213.959383 202.123437 L 211.459383 202.123437 L 211.459383 196.123437" stroke="gray" fill="white" stroke-width="1px"></path><path d="M 271.459383 214.123437 L 273.959383 214.123437 L 273.959383 220.123437 L 271.459383 220.123437 L 271.459383 214.123437" stroke="gray" fill="white" stroke-width="1px"></path><path d="M 271.459383 208.123437 L 273.959383 208.123437 L 273.959383 214.123437 L 271.459383 214.123437 L 271.459383 208.123437" stroke="gray" fill="white" stroke-width="1px"></path><path d="M 271.459383 202.123437 L 273.959383 202.123437 L 273.959383 208.123437 L 271.459383 208.123437 L 271.459383 202.123437" stroke="gray" fill="white" stroke-width="1px"></path><path d="M 271.459383 196.123437 L 273.959383 196.123437 L 273.959383 202.123437 L 271.459383 202.123437 L 271.459383 196.123437" stroke="gray" fill="white" stroke-width="1px"></path><path d="M 271.459383 190.123437 L 273.959383 190.123437 L 273.959383 196.123437 L 271.459383 196.123437 L 271.459383 190.123437" stroke="gray" fill="white" stroke-width="1px"></path><path d="M 271.459383 184.123437 L 273.959383 184.123437 L 273.959383 190.123437 L 271.459383 190.123437 L 271.459383 184.123437" stroke="gray" fill="white" stroke-width="1px"></path><path d="M 271.459383 178.123437 L 273.959383 178.123437 L 273.959383 184.123437 L 271.459383 184.123437 L 271.459383 178.123437" stroke="gray" fill="white" stroke-width="1px"></path><path d="M 271.459383 172.123437 L 273.959383 172.123437 L 273.959383 178.123437 L 271.459383 178.123437 L 271.459383 172.123437" stroke="gray" fill="white" stroke-width="1px"></path><path d="M 259.459383 214.123437 L 261.959383 214.123437 L 261.959383 220.123437 L 259.459383 220.123437 L 259.459383 214.123437" stroke="gray" fill="white" stroke-width="1px"></path><path d="M 259.459383 208.123437 L 261.959383 208.123437 L 261.959383 214.123437 L 259.459383 214.123437 L 259.459383 208.123437" stroke="gray" fill="white" stroke-width="1px"></path><path d="M 259.459383 202.123437 L 261.959383 202.123437 L 261.959383 208.123437 L 259.459383 208.123437 L 259.459383 202.123437" stroke="gray" fill="white" stroke-width="1px"></path><path d="M 259.459383 196.123437 L 261.959383 196.123437 L 261.959383 202.123437 L 259.459383 202.123437 L 259.459383 196.123437" stroke="gray" fill="white" stroke-width="1px"></path><path d="M 259.459383 190.123437 L 261.959383 190.123437 L 261.959383 196.123437 L 259.459383 196.123437 L 259.459383 190.123437" stroke="gray" fill="white" stroke-width="1px"></path><path d="M 259.459383 184.123437 L 261.959383 184.123437 L 261.959383 190.123437 L 259.459383 190.123437 L 259.459383 184.123437" stroke="gray" fill="white" stroke-width="1px"></path><path d="M 259.459383 178.123437 L 261.959383 178.123437 L 261.959383 184.123437 L 259.459383 184.123437 L 259.459383 178.123437" stroke="gray" fill="white" stroke-width="1px"></path><path d="M 259.459383 172.123437 L 261.959383 172.123437 L 261.959383 178.123437 L 259.459383 178.123437 L 259.459383 172.123437" stroke="gray" fill="white" stroke-width="1px"></path><path d="M 247.459383 214.123437 L 249.959383 214.123437 L 249.959383 220.123437 L 247.459383 220.123437 L 247.459383 214.123437" stroke="gray" fill="white" stroke-width="1px"></path><path d="M 247.459383 208.123437 L 249.959383 208.123437 L 249.959383 214.123437 L 247.459383 214.123437 L 247.459383 208.123437" stroke="gray" fill="white" stroke-width="1px"></path><path d="M 247.459383 202.123437 L 249.959383 202.123437 L 249.959383 208.123437 L 247.459383 208.123437 L 247.459383 202.123437" stroke="gray" fill="white" stroke-width="1px"></path><path d="M 247.459383 196.123437 L 249.959383 196.123437 L 249.959383 202.123437 L 247.459383 202.123437 L 247.459383 196.123437" stroke="gray" fill="white" stroke-width="1px"></path><path d="M 247.459383 190.123437 L 249.959383 190.123437 L 249.959383 196.123437 L 247.459383 196.123437 L 247.459383 190.123437" stroke="gray" fill="white" stroke-width="1px"></path><path d="M 247.459383 184.123437 L 249.959383 184.123437 L 249.959383 190.123437 L 247.459383 190.123437 L 247.459383 184.123437" stroke="gray" fill="white" stroke-width="1px"></path><path d="M 247.459383 178.123437 L 249.959383 178.123437 L 249.959383 184.123437 L 247.459383 184.123437 L 247.459383 178.123437" stroke="gray" fill="white" stroke-width="1px"></path><path d="M 247.459383 172.123437 L 249.959383 172.123437 L 249.959383 178.123437 L 247.459383 178.123437 L 247.459383 172.123437" stroke="gray" fill="white" stroke-width="1px"></path><path d="M 22.000000 148.123437 L 22.000000 145.623437 L 16.000000 145.623437 L 16.000000 148.123437 L 22.000000 148.123437" stroke="gray" fill="white" stroke-width="1px"></path><path d="M 28.000000 148.123437 L 28.000000 145.623437 L 22.000000 145.623437 L 22.000000 148.123437 L 28.000000 148.123437" stroke="gray" fill="white" stroke-width="1px"></path><path d="M 34.000000 148.123437 L 34.000000 145.623437 L 28.000000 145.623437 L 28.000000 148.123437 L 34.000000 148.123437" stroke="gray" fill="white" stroke-width="1px"></path><path d="M 40.000000 148.123437 L 40.000000 145.623437 L 34.000000 145.623437 L 34.000000 148.123437 L 40.000000 148.123437" stroke="gray" fill="white" stroke-width="1px"></path><path d="M 46.000000 148.123437 L 46.000000 145.623437 L 40.000000 145.623437 L 40.000000 148.123437 L 46.000000 148.123437" stroke="gray" fill="white" stroke-width="1px"></path><path d="M 52.000000 148.123437 L 52.000000 145.623437 L 46.000000 145.623437 L 46.000000 148.123437 L 52.000000 148.123437" stroke="gray" fill="white" stroke-width="1px"></path><path d="M 58.000000 148.123437 L 58.000000 145.623437 L 52.000000 145.623437 L 52.000000 148.123437 L 58.000000 148.123437" stroke="gray" fill="white" stroke-width="1px"></path><path d="M 22.000000 136.123437 L 22.000000 133.623437 L 16.000000 133.623437 L 16.000000 136.123437 L 22.000000 136.123437" stroke="gray" fill="white" stroke-width="1px"></path><path d="M 28.000000 136.123437 L 28.000000 133.623437 L 22.000000 133.623437 L 22.000000 136.123437 L 28.000000 136.123437" stroke="gray" fill="white" stroke-width="1px"></path><path d="M 34.000000 136.123437 L 34.000000 133.623437 L 28.000000 133.623437 L 28.000000 136.123437 L 34.000000 136.123437" stroke="gray" fill="white" stroke-width="1px"></path><path d="M 40.000000 136.123437 L 40.000000 133.623437 L 34.000000 133.623437 L 34.000000 136.123437 L 40.000000 136.123437" stroke="gray" fill="white" stroke-width="1px"></path><path d="M 46.000000 136.123437 L 46.000000 133.623437 L 40.000000 133.623437 L 40.000000 136.123437 L 46.000000 136.123437" stroke="gray" fill="white" stroke-width="1px"></path><path d="M 52.000000 136.123437 L 52.000000 133.623437 L 46.000000 133.623437 L 46.000000 136.123437 L 52.000000 136.123437" stroke="gray" fill="white" stroke-width="1px"></path><path d="M 58.000000 136.123437 L 58.000000 133.623437 L 52.000000 133.623437 L 52.000000 136.123437 L 58.000000 136.123437" stroke="gray" fill="white" stroke-width="1px"></path><path d="M 266.767206 160.123437 L 266.767206 157.623437 L 260.767206 157.623437 L 260.767206 160.123437 L 266.767206 160.123437" stroke="gray" fill="white" stroke-width="1px"></path><path d="M 272.767206 160.123437 L 272.767206 157.623437 L 266.767206 157.623437 L 266.767206 160.123437 L 272.767206 160.123437" stroke="gray" fill="white" stroke-width="1px"></path><path d="M 266.767206 148.123437 L 266.767206 145.623437 L 260.767206 145.623437 L 260.767206 148.123437 L 266.767206 148.123437" stroke="gray" fill="white" stroke-width="1px"></path><path d="M 272.767206 148.123437 L 272.767206 145.623437 L 266.767206 145.623437 L 266.767206 148.123437 L 272.767206 148.123437" stroke="gray" fill="white" stroke-width="1px"></path><path d="M 278.767206 148.123437 L 278.767206 145.623437 L 272.767206 145.623437 L 272.767206 148.123437 L 278.767206 148.123437" stroke="gray" fill="white" stroke-width="1px"></path><path d="M 266.767206 136.123437 L 266.767206 133.623437 L 260.767206 133.623437 L 260.767206 136.123437 L 266.767206 136.123437" stroke="gray" fill="white" stroke-width="1px"></path><path d="M 272.767206 136.123437 L 272.767206 133.623437 L 266.767206 133.623437 L 266.767206 136.123437 L 272.767206 136.123437" stroke="gray" fill="white" stroke-width="1px"></path><path d="M 278.767206 136.123437 L 278.767206 133.623437 L 272.767206 133.623437 L 272.767206 136.123437 L 278.767206 136.123437" stroke="gray" fill="white" stroke-width="1px"></path><path d="M 22.000000 148.123437 L 22.000000 150.623437 L 16.000000 150.623437 L 16.000000 148.123437 L 22.000000 148.123437" stroke="gray" fill="white" stroke-width="1px"></path><path d="M 28.000000 148.123437 L 28.000000 150.623437 L 22.000000 150.623437 L 22.000000 148.123437 L 28.000000 148.123437" stroke="gray" fill="white" stroke-width="1px"></path><path d="M 34.000000 148.123437 L 34.000000 150.623437 L 28.000000 150.623437 L 28.000000 148.123437 L 34.000000 148.123437" stroke="gray" fill="white" stroke-width="1px"></path><path d="M 40.000000 148.123437 L 40.000000 150.623437 L 34.000000 150.623437 L 34.000000 148.123437 L 40.000000 148.123437" stroke="gray" fill="white" stroke-width="1px"></path><path d="M 46.000000 148.123437 L 46.000000 150.623437 L 40.000000 150.623437 L 40.000000 148.123437 L 46.000000 148.123437" stroke="gray" fill="white" stroke-width="1px"></path><path d="M 52.000000 148.123437 L 52.000000 150.623437 L 46.000000 150.623437 L 46.000000 148.123437 L 52.000000 148.123437" stroke="gray" fill="white" stroke-width="1px"></path><path d="M 58.000000 148.123437 L 58.000000 150.623437 L 52.000000 150.623437 L 52.000000 148.123437 L 58.000000 148.123437" stroke="gray" fill="white" stroke-width="1px"></path><path d="M 22.000000 136.123437 L 22.000000 138.623437 L 16.000000 138.623437 L 16.000000 136.123437 L 22.000000 136.123437" stroke="gray" fill="white" stroke-width="1px"></path><path d="M 28.000000 136.123437 L 28.000000 138.623437 L 22.000000 138.623437 L 22.000000 136.123437 L 28.000000 136.123437" stroke="gray" fill="white" stroke-width="1px"></path><path d="M 34.000000 136.123437 L 34.000000 138.623437 L 28.000000 138.623437 L 28.000000 136.123437 L 34.000000 136.123437" stroke="gray" fill="white" stroke-width="1px"></path><path d="M 40.000000 136.123437 L 40.000000 138.623437 L 34.000000 138.623437 L 34.000000 136.123437 L 40.000000 136.123437" stroke="gray" fill="white" stroke-width="1px"></path><path d="M 46.000000 136.123437 L 46.000000 138.623437 L 40.000000 138.623437 L 40.000000 136.123437 L 46.000000 136.123437" stroke="gray" fill="white" stroke-width="1px"></path><path d="M 52.000000 136.123437 L 52.000000 138.623437 L 46.000000 138.623437 L 46.000000 136.123437 L 52.000000 136.123437" stroke="gray" fill="white" stroke-width="1px"></path><path d="M 58.000000 136.123437 L 58.000000 138.623437 L 52.000000 138.623437 L 52.000000 136.123437 L 58.000000 136.123437" stroke="gray" fill="white" stroke-width="1px"></path><path d="M 266.767206 160.123437 L 266.767206 162.623437 L 260.767206 162.623437 L 260.767206 160.123437 L 266.767206 160.123437" stroke="gray" fill="white" stroke-width="1px"></path><path d="M 266.767206 148.123437 L 266.767206 150.623437 L 260.767206 150.623437 L 260.767206 148.123437 L 266.767206 148.123437" stroke="gray" fill="white" stroke-width="1px"></path><path d="M 272.767206 148.123437 L 272.767206 150.623437 L 266.767206 150.623437 L 266.767206 148.123437 L 272.767206 148.123437" stroke="gray" fill="white" stroke-width="1px"></path><path d="M 278.767206 148.123437 L 278.767206 150.623437 L 272.767206 150.623437 L 272.767206 148.123437 L 278.767206 148.123437" stroke="gray" fill="white" stroke-width="1px"></path><path d="M 266.767206 136.123437 L 266.767206 138.623437 L 260.767206 138.623437 L 260.767206 136.123437 L 266.767206 136.123437" stroke="gray" fill="white" stroke-width="1px"></path><path d="M 272.767206 136.123437 L 272.767206 138.623437 L 266.767206 138.623437 L 266.767206 136.123437 L 272.767206 136.123437" stroke="gray" fill="white" stroke-width="1px"></path><path d="M 278.767206 136.123437 L 278.767206 138.623437 L 272.767206 138.623437 L 272.767206 136.123437 L 278.767206 136.123437" stroke="gray" fill="white" stroke-width="1px"></path><path d="M 271.459383 40.031411 L 268.959383 40.031411 L 268.959383 46.031411 L 271.459383 46.031411 L 271.459383 40.031411" stroke="gray" fill="white" stroke-width="1px"></path><path d="M 271.459383 34.031411 L 268.959383 34.031411 L 268.959383 40.031411 L 271.459383 40.031411 L 271.459383 34.031411" stroke="gray" fill="white" stroke-width="1px"></path><path d="M 259.459383 43.057513 L 256.959383 43.057513 L 256.959383 49.057513 L 259.459383 49.057513 L 259.459383 43.057513" stroke="gray" fill="white" stroke-width="1px"></path><path d="M 259.459383 37.057513 L 256.959383 37.057513 L 256.959383 43.057513 L 259.459383 43.057513 L 259.459383 37.057513" stroke="gray" fill="white" stroke-width="1px"></path><path d="M 259.459383 31.057513 L 256.959383 31.057513 L 256.959383 37.057513 L 259.459383 37.057513 L 259.459383 31.057513" stroke="gray" fill="white" stroke-width="1px"></path><path d="M 247.459383 46.083615 L 244.959383 46.083615 L 244.959383 52.083615 L 247.459383 52.083615 L 247.459383 46.083615" stroke="gray" fill="white" stroke-width="1px"></path><path d="M 247.459383 40.083615 L 244.959383 40.083615 L 244.959383 46.083615 L 247.459383 46.083615 L 247.459383 40.083615" stroke="gray" fill="white" stroke-width="1px"></path><path d="M 247.459383 34.083615 L 244.959383 34.083615 L 244.959383 40.083615 L 247.459383 40.083615 L 247.459383 34.083615" stroke="gray" fill="white" stroke-width="1px"></path><path d="M 235.459383 49.109717 L 232.959383 49.109717 L 232.959383 55.109717 L 235.459383 55.109717 L 235.459383 49.109717" stroke="gray" fill="white" stroke-width="1px"></path><path d="M 235.459383 43.109717 L 232.959383 43.109717 L 232.959383 49.109717 L 235.459383 49.109717 L 235.459383 43.109717" stroke="gray" fill="white" stroke-width="1px"></path><path d="M 235.459383 37.109717 L 232.959383 37.109717 L 232.959383 43.109717 L 235.459383 43.109717 L 235.459383 37.109717" stroke="gray" fill="white" stroke-width="1px"></path><path d="M 235.459383 31.109717 L 232.959383 31.109717 L 232.959383 37.109717 L 235.459383 37.109717 L 235.459383 31.109717" stroke="gray" fill="white" stroke-width="1px"></path><path d="M 199.459383 101.033125 L 196.959383 101.033125 L 196.959383 107.033125 L 199.459383 107.033125 L 199.459383 101.033125" stroke="gray" fill="white" stroke-width="1px"></path><path d="M 187.459383 101.033125 L 184.959383 101.033125 L 184.959383 107.033125 L 187.459383 107.033125 L 187.459383 101.033125" stroke="gray" fill="white" stroke-width="1px"></path><path d="M 151.459383 101.033125 L 148.959383 101.033125 L 148.959383 107.033125 L 151.459383 107.033125 L 151.459383 101.033125" stroke="gray" fill="white" stroke-width="1px"></path><path d="M 151.459383 95.033125 L 148.959383 95.033125 L 148.959383 101.033125 L 151.459383 101.033125 L 151.459383 95.033125" stroke="gray" fill="white" stroke-width="1px"></path><path d="M 151.459383 89.033125 L 148.959383 89.033125 L 148.959383 95.033125 L 151.459383 95.033125 L 151.459383 89.033125" stroke="gray" fill="white" stroke-width="1px"></path><path d="M 151.459383 83.033125 L 148.959383 83.033125 L 148.959383 89.033125 L 151.459383 89.033125 L 151.459383 83.033125" stroke="gray" fill="white" stroke-width="1px"></path><path d="M 139.459383 101.033125 L 136.959383 101.033125 L 136.959383 107.033125 L 139.459383 107.033125 L 139.459383 101.033125" stroke="gray" fill="white" stroke-width="1px"></path><path d="M 139.459383 95.033125 L 136.959383 95.033125 L 136.959383 101.033125 L 139.459383 101.033125 L 139.459383 95.033125" stroke="gray" fill="white" stroke-width="1px"></path><path d="M 139.459383 89.033125 L 136.959383 89.033125 L 136.959383 95.033125 L 139.459383 95.033125 L 139.459383 89.033125" stroke="gray" fill="white" stroke-width="1px"></path><path d="M 139.459383 83.033125 L 136.959383 83.033125 L 136.959383 89.033125 L 139.459383 89.033125 L 139.459383 83.033125" stroke="gray" fill="white" stroke-width="1px"></path><path d="M 127.459383 101.033125 L 124.959383 101.033125 L 124.959383 107.033125 L 127.459383 107.033125 L 127.459383 101.033125" stroke="gray" fill="white" stroke-width="1px"></path><path d="M 127.459383 95.033125 L 124.959383 95.033125 L 124.959383 101.033125 L 127.459383 101.033125 L 127.459383 95.033125" stroke="gray" fill="white" stroke-width="1px"></path><path d="M 127.459383 89.033125 L 124.959383 89.033125 L 124.959383 95.033125 L 127.459383 95.033125 L 127.459383 89.033125" stroke="gray" fill="white" stroke-width="1px"></path><path d="M 127.459383 83.033125 L 124.959383 83.033125 L 124.959383 89.033125 L 127.459383 89.033125 L 127.459383 83.033125" stroke="gray" fill="white" stroke-width="1px"></path><path d="M 115.459383 101.033125 L 112.959383 101.033125 L 112.959383 107.033125 L 115.459383 107.033125 L 115.459383 101.033125" stroke="gray" fill="white" stroke-width="1px"></path><path d="M 115.459383 95.033125 L 112.959383 95.033125 L 112.959383 101.033125 L 115.459383 101.033125 L 115.459383 95.033125" stroke="gray" fill="white" stroke-width="1px"></path><path d="M 115.459383 89.033125 L 112.959383 89.033125 L 112.959383 95.033125 L 115.459383 95.033125 L 115.459383 89.033125" stroke="gray" fill="white" stroke-width="1px"></path><path d="M 115.459383 83.033125 L 112.959383 83.033125 L 112.959383 89.033125 L 115.459383 89.033125 L 115.459383 83.033125" stroke="gray" fill="white" stroke-width="1px"></path><path d="M 55.459383 107.090312 L 52.959383 107.090312 L 52.959383 113.090312 L 55.459383 113.090312 L 55.459383 107.090312" stroke="gray" fill="white" stroke-width="1px"></path><path d="M 55.459383 101.090312 L 52.959383 101.090312 L 52.959383 107.090312 L 55.459383 107.090312 L 55.459383 101.090312" stroke="gray" fill="white" stroke-width="1px"></path><path d="M 55.459383 95.090312 L 52.959383 95.090312 L 52.959383 101.090312 L 55.459383 101.090312 L 55.459383 95.090312" stroke="gray" fill="white" stroke-width="1px"></path><path d="M 55.459383 89.090312 L 52.959383 89.090312 L 52.959383 95.090312 L 55.459383 95.090312 L 55.459383 89.090312" stroke="gray" fill="white" stroke-width="1px"></path><path d="M 55.459383 83.090312 L 52.959383 83.090312 L 52.959383 89.090312 L 55.459383 89.090312 L 55.459383 83.090312" stroke="gray" fill="white" stroke-width="1px"></path><path d="M 43.459383 107.090312 L 40.959383 107.090312 L 40.959383 113.090312 L 43.459383 113.090312 L 43.459383 107.090312" stroke="gray" fill="white" stroke-width="1px"></path><path d="M 43.459383 101.090312 L 40.959383 101.090312 L 40.959383 107.090312 L 43.459383 107.090312 L 43.459383 101.090312" stroke="gray" fill="white" stroke-width="1px"></path><path d="M 43.459383 95.090312 L 40.959383 95.090312 L 40.959383 101.090312 L 43.459383 101.090312 L 43.459383 95.090312" stroke="gray" fill="white" stroke-width="1px"></path><path d="M 43.459383 89.090312 L 40.959383 89.090312 L 40.959383 95.090312 L 43.459383 95.090312 L 43.459383 89.090312" stroke="gray" fill="white" stroke-width="1px"></path><path d="M 43.459383 83.090312 L 40.959383 83.090312 L 40.959383 89.090312 L 43.459383 89.090312 L 43.459383 83.090312" stroke="gray" fill="white" stroke-width="1px"></path><path d="M 31.459383 107.090312 L 28.959383 107.090312 L 28.959383 113.090312 L 31.459383 113.090312 L 31.459383 107.090312" stroke="gray" fill="white" stroke-width="1px"></path><path d="M 31.459383 101.090312 L 28.959383 101.090312 L 28.959383 107.090312 L 31.459383 107.090312 L 31.459383 101.090312" stroke="gray" fill="white" stroke-width="1px"></path><path d="M 31.459383 95.090312 L 28.959383 95.090312 L 28.959383 101.090312 L 31.459383 101.090312 L 31.459383 95.090312" stroke="gray" fill="white" stroke-width="1px"></path><path d="M 31.459383 89.090312 L 28.959383 89.090312 L 28.959383 95.090312 L 31.459383 95.090312 L 31.459383 89.090312" stroke="gray" fill="white" stroke-width="1px"></path><path d="M 31.459383 83.090312 L 28.959383 83.090312 L 28.959383 89.090312 L 31.459383 89.090312 L 31.459383 83.090312" stroke="gray" fill="white" stroke-width="1px"></path><path d="M 19.459383 107.090312 L 16.959383 107.090312 L 16.959383 113.090312 L 19.459383 113.090312 L 19.459383 107.090312" stroke="gray" fill="white" stroke-width="1px"></path><path d="M 19.459383 101.090312 L 16.959383 101.090312 L 16.959383 107.090312 L 19.459383 107.090312 L 19.459383 101.090312" stroke="gray" fill="white" stroke-width="1px"></path><path d="M 19.459383 95.090312 L 16.959383 95.090312 L 16.959383 101.090312 L 19.459383 101.090312 L 19.459383 95.090312" stroke="gray" fill="white" stroke-width="1px"></path><path d="M 19.459383 89.090312 L 16.959383 89.090312 L 16.959383 95.090312 L 19.459383 95.090312 L 19.459383 89.090312" stroke="gray" fill="white" stroke-width="1px"></path><path d="M 19.459383 83.090312 L 16.959383 83.090312 L 16.959383 89.090312 L 19.459383 89.090312 L 19.459383 83.090312" stroke="gray" fill="white" stroke-width="1px"></path><path d="M 55.459383 32.480933 L 52.959383 32.480933 L 52.959383 38.480933 L 55.459383 38.480933 L 55.459383 32.480933" stroke="gray" fill="white" stroke-width="1px"></path><path d="M 55.459383 26.480933 L 52.959383 26.480933 L 52.959383 32.480933 L 55.459383 32.480933 L 55.459383 26.480933" stroke="gray" fill="white" stroke-width="1px"></path><path d="M 55.459383 20.480933 L 52.959383 20.480933 L 52.959383 26.480933 L 55.459383 26.480933 L 55.459383 20.480933" stroke="gray" fill="white" stroke-width="1px"></path><path d="M 55.459383 14.480933 L 52.959383 14.480933 L 52.959383 20.480933 L 55.459383 20.480933 L 55.459383 14.480933" stroke="gray" fill="white" stroke-width="1px"></path><path d="M 43.459383 32.444518 L 40.959383 32.444518 L 40.959383 38.444518 L 43.459383 38.444518 L 43.459383 32.444518" stroke="gray" fill="white" stroke-width="1px"></path><path d="M 43.459383 26.444518 L 40.959383 26.444518 L 40.959383 32.444518 L 43.459383 32.444518 L 43.459383 26.444518" stroke="gray" fill="white" stroke-width="1px"></path><path d="M 43.459383 20.444518 L 40.959383 20.444518 L 40.959383 26.444518 L 43.459383 26.444518 L 43.459383 20.444518" stroke="gray" fill="white" stroke-width="1px"></path><path d="M 43.459383 14.444518 L 40.959383 14.444518 L 40.959383 20.444518 L 43.459383 20.444518 L 43.459383 14.444518" stroke="gray" fill="white" stroke-width="1px"></path><path d="M 31.459383 32.408103 L 28.959383 32.408103 L 28.959383 38.408103 L 31.459383 38.408103 L 31.459383 32.408103" stroke="gray" fill="white" stroke-width="1px"></path><path d="M 31.459383 26.408103 L 28.959383 26.408103 L 28.959383 32.408103 L 31.459383 32.408103 L 31.459383 26.408103" stroke="gray" fill="white" stroke-width="1px"></path><path d="M 31.459383 20.408103 L 28.959383 20.408103 L 28.959383 26.408103 L 31.459383 26.408103 L 31.459383 20.408103" stroke="gray" fill="white" stroke-width="1px"></path><path d="M 31.459383 14.408103 L 28.959383 14.408103 L 28.959383 20.408103 L 31.459383 20.408103 L 31.459383 14.408103" stroke="gray" fill="white" stroke-width="1px"></path><path d="M 19.459383 32.371689 L 16.959383 32.371689 L 16.959383 38.371689 L 19.459383 38.371689 L 19.459383 32.371689" stroke="gray" fill="white" stroke-width="1px"></path><path d="M 19.459383 26.371689 L 16.959383 26.371689 L 16.959383 32.371689 L 19.459383 32.371689 L 19.459383 26.371689" stroke="gray" fill="white" stroke-width="1px"></path><path d="M 19.459383 20.371689 L 16.959383 20.371689 L 16.959383 26.371689 L 19.459383 26.371689 L 19.459383 20.371689" stroke="gray" fill="white" stroke-width="1px"></path><path d="M 19.459383 14.371689 L 16.959383 14.371689 L 16.959383 20.371689 L 19.459383 20.371689 L 19.459383 14.371689" stroke="gray" fill="white" stroke-width="1px"></path><path d="M 271.459383 40.031411 L 273.959383 40.031411 L 273.959383 46.031411 L 271.459383 46.031411 L 271.459383 40.031411" stroke="gray" fill="white" stroke-width="1px"></path><path d="M 271.459383 34.031411 L 273.959383 34.031411 L 273.959383 40.031411 L 271.459383 40.031411 L 271.459383 34.031411" stroke="gray" fill="white" stroke-width="1px"></path><path d="M 259.459383 43.057513 L 261.959383 43.057513 L 261.959383 49.057513 L 259.459383 49.057513 L 259.459383 43.057513" stroke="gray" fill="white" stroke-width="1px"></path><path d="M 259.459383 37.057513 L 261.959383 37.057513 L 261.959383 43.057513 L 259.459383 43.057513 L 259.459383 37.057513" stroke="gray" fill="white" stroke-width="1px"></path><path d="M 259.459383 31.057513 L 261.959383 31.057513 L 261.959383 37.057513 L 259.459383 37.057513 L 259.459383 31.057513" stroke="gray" fill="white" stroke-width="1px"></path><path d="M 247.459383 46.083615 L 249.959383 46.083615 L 249.959383 52.083615 L 247.459383 52.083615 L 247.459383 46.083615" stroke="gray" fill="white" stroke-width="1px"></path><path d="M 247.459383 40.083615 L 249.959383 40.083615 L 249.959383 46.083615 L 247.459383 46.083615 L 247.459383 40.083615" stroke="gray" fill="white" stroke-width="1px"></path><path d="M 247.459383 34.083615 L 249.959383 34.083615 L 249.959383 40.083615 L 247.459383 40.083615 L 247.459383 34.083615" stroke="gray" fill="white" stroke-width="1px"></path><path d="M 235.459383 49.109717 L 237.959383 49.109717 L 237.959383 55.109717 L 235.459383 55.109717 L 235.459383 49.109717" stroke="gray" fill="white" stroke-width="1px"></path><path d="M 235.459383 43.109717 L 237.959383 43.109717 L 237.959383 49.109717 L 235.459383 49.109717 L 235.459383 43.109717" stroke="gray" fill="white" stroke-width="1px"></path><path d="M 235.459383 37.109717 L 237.959383 37.109717 L 237.959383 43.109717 L 235.459383 43.109717 L 235.459383 37.109717" stroke="gray" fill="white" stroke-width="1px"></path><path d="M 235.459383 31.109717 L 237.959383 31.109717 L 237.959383 37.109717 L 235.459383 37.109717 L 235.459383 31.109717" stroke="gray" fill="white" stroke-width="1px"></path><path d="M 199.459383 101.033125 L 201.959383 101.033125 L 201.959383 107.033125 L 199.459383 107.033125 L 199.459383 101.033125" stroke="gray" fill="white" stroke-width="1px"></path><path d="M 187.459383 101.033125 L 189.959383 101.033125 L 189.959383 107.033125 L 187.459383 107.033125 L 187.459383 101.033125" stroke="gray" fill="white" stroke-width="1px"></path><path d="M 151.459383 101.033125 L 153.959383 101.033125 L 153.959383 107.033125 L 151.459383 107.033125 L 151.459383 101.033125" stroke="gray" fill="white" stroke-width="1px"></path><path d="M 151.459383 95.033125 L 153.959383 95.033125 L 153.959383 101.033125 L 151.459383 101.033125 L 151.459383 95.033125" stroke="gray" fill="white" stroke-width="1px"></path><path d="M 151.459383 89.033125 L 153.959383 89.033125 L 153.959383 95.033125 L 151.459383 95.033125 L 151.459383 89.033125" stroke="gray" fill="white" stroke-width="1px"></path><path d="M 151.459383 83.033125 L 153.959383 83.033125 L 153.959383 89.033125 L 151.459383 89.033125 L 151.459383 83.033125" stroke="gray" fill="white" stroke-width="1px"></path><path d="M 139.459383 101.033125 L 141.959383 101.033125 L 141.959383 107.033125 L 139.459383 107.033125 L 139.459383 101.033125" stroke="gray" fill="white" stroke-width="1px"></path><path d="M 139.459383 95.033125 L 141.959383 95.033125 L 141.959383 101.033125 L 139.459383 101.033125 L 139.459383 95.033125" stroke="gray" fill="white" stroke-width="1px"></path><path d="M 139.459383 89.033125 L 141.959383 89.033125 L 141.959383 95.033125 L 139.459383 95.033125 L 139.459383 89.033125" stroke="gray" fill="white" stroke-width="1px"></path><path d="M 139.459383 83.033125 L 141.959383 83.033125 L 141.959383 89.033125 L 139.459383 89.033125 L 139.459383 83.033125" stroke="gray" fill="white" stroke-width="1px"></path><path d="M 127.459383 101.033125 L 129.959383 101.033125 L 129.959383 107.033125 L 127.459383 107.033125 L 127.459383 101.033125" stroke="gray" fill="white" stroke-width="1px"></path><path d="M 127.459383 95.033125 L 129.959383 95.033125 L 129.959383 101.033125 L 127.459383 101.033125 L 127.459383 95.033125" stroke="gray" fill="white" stroke-width="1px"></path><path d="M 127.459383 89.033125 L 129.959383 89.033125 L 129.959383 95.033125 L 127.459383 95.033125 L 127.459383 89.033125" stroke="gray" fill="white" stroke-width="1px"></path><path d="M 127.459383 83.033125 L 129.959383 83.033125 L 129.959383 89.033125 L 127.459383 89.033125 L 127.459383 83.033125" stroke="gray" fill="white" stroke-width="1px"></path><path d="M 115.459383 101.033125 L 117.959383 101.033125 L 117.959383 107.033125 L 115.459383 107.033125 L 115.459383 101.033125" stroke="gray" fill="white" stroke-width="1px"></path><path d="M 115.459383 95.033125 L 117.959383 95.033125 L 117.959383 101.033125 L 115.459383 101.033125 L 115.459383 95.033125" stroke="gray" fill="white" stroke-width="1px"></path><path d="M 115.459383 89.033125 L 117.959383 89.033125 L 117.959383 95.033125 L 115.459383 95.033125 L 115.459383 89.033125" stroke="gray" fill="white" stroke-width="1px"></path><path d="M 115.459383 83.033125 L 117.959383 83.033125 L 117.959383 89.033125 L 115.459383 89.033125 L 115.459383 83.033125" stroke="gray" fill="white" stroke-width="1px"></path><path d="M 55.459383 107.090312 L 57.959383 107.090312 L 57.959383 113.090312 L 55.459383 113.090312 L 55.459383 107.090312" stroke="gray" fill="white" stroke-width="1px"></path><path d="M 55.459383 101.090312 L 57.959383 101.090312 L 57.959383 107.090312 L 55.459383 107.090312 L 55.459383 101.090312" stroke="gray" fill="white" stroke-width="1px"></path><path d="M 55.459383 95.090312 L 57.959383 95.090312 L 57.959383 101.090312 L 55.459383 101.090312 L 55.459383 95.090312" stroke="gray" fill="white" stroke-width="1px"></path><path d="M 55.459383 89.090312 L 57.959383 89.090312 L 57.959383 95.090312 L 55.459383 95.090312 L 55.459383 89.090312" stroke="gray" fill="white" stroke-width="1px"></path><path d="M 55.459383 83.090312 L 57.959383 83.090312 L 57.959383 89.090312 L 55.459383 89.090312 L 55.459383 83.090312" stroke="gray" fill="white" stroke-width="1px"></path><path d="M 43.459383 107.090312 L 45.959383 107.090312 L 45.959383 113.090312 L 43.459383 113.090312 L 43.459383 107.090312" stroke="gray" fill="white" stroke-width="1px"></path><path d="M 43.459383 101.090312 L 45.959383 101.090312 L 45.959383 107.090312 L 43.459383 107.090312 L 43.459383 101.090312" stroke="gray" fill="white" stroke-width="1px"></path><path d="M 43.459383 95.090312 L 45.959383 95.090312 L 45.959383 101.090312 L 43.459383 101.090312 L 43.459383 95.090312" stroke="gray" fill="white" stroke-width="1px"></path><path d="M 43.459383 89.090312 L 45.959383 89.090312 L 45.959383 95.090312 L 43.459383 95.090312 L 43.459383 89.090312" stroke="gray" fill="white" stroke-width="1px"></path><path d="M 43.459383 83.090312 L 45.959383 83.090312 L 45.959383 89.090312 L 43.459383 89.090312 L 43.459383 83.090312" stroke="gray" fill="white" stroke-width="1px"></path><path d="M 31.459383 107.090312 L 33.959383 107.090312 L 33.959383 113.090312 L 31.459383 113.090312 L 31.459383 107.090312" stroke="gray" fill="white" stroke-width="1px"></path><path d="M 31.459383 101.090312 L 33.959383 101.090312 L 33.959383 107.090312 L 31.459383 107.090312 L 31.459383 101.090312" stroke="gray" fill="white" stroke-width="1px"></path><path d="M 31.459383 95.090312 L 33.959383 95.090312 L 33.959383 101.090312 L 31.459383 101.090312 L 31.459383 95.090312" stroke="gray" fill="white" stroke-width="1px"></path><path d="M 31.459383 89.090312 L 33.959383 89.090312 L 33.959383 95.090312 L 31.459383 95.090312 L 31.459383 89.090312" stroke="gray" fill="white" stroke-width="1px"></path><path d="M 31.459383 83.090312 L 33.959383 83.090312 L 33.959383 89.090312 L 31.459383 89.090312 L 31.459383 83.090312" stroke="gray" fill="white" stroke-width="1px"></path><path d="M 19.459383 107.090312 L 21.959383 107.090312 L 21.959383 113.090312 L 19.459383 113.090312 L 19.459383 107.090312" stroke="gray" fill="white" stroke-width="1px"></path><path d="M 19.459383 101.090312 L 21.959383 101.090312 L 21.959383 107.090312 L 19.459383 107.090312 L 19.459383 101.090312" stroke="gray" fill="white" stroke-width="1px"></path><path d="M 19.459383 95.090312 L 21.959383 95.090312 L 21.959383 101.090312 L 19.459383 101.090312 L 19.459383 95.090312" stroke="gray" fill="white" stroke-width="1px"></path><path d="M 19.459383 89.090312 L 21.959383 89.090312 L 21.959383 95.090312 L 19.459383 95.090312 L 19.459383 89.090312" stroke="gray" fill="white" stroke-width="1px"></path><path d="M 19.459383 83.090312 L 21.959383 83.090312 L 21.959383 89.090312 L 19.459383 89.090312 L 19.459383 83.090312" stroke="gray" fill="white" stroke-width="1px"></path><path d="M 55.459383 32.480933 L 57.959383 32.480933 L 57.959383 38.480933 L 55.459383 38.480933 L 55.459383 32.480933" stroke="gray" fill="white" stroke-width="1px"></path><path d="M 55.459383 26.480933 L 57.959383 26.480933 L 57.959383 32.480933 L 55.459383 32.480933 L 55.459383 26.480933" stroke="gray" fill="white" stroke-width="1px"></path><path d="M 55.459383 20.480933 L 57.959383 20.480933 L 57.959383 26.480933 L 55.459383 26.480933 L 55.459383 20.480933" stroke="gray" fill="white" stroke-width="1px"></path><path d="M 55.459383 14.480933 L 57.959383 14.480933 L 57.959383 20.480933 L 55.459383 20.480933 L 55.459383 14.480933" stroke="gray" fill="white" stroke-width="1px"></path><path d="M 43.459383 32.444518 L 45.959383 32.444518 L 45.959383 38.444518 L 43.459383 38.444518 L 43.459383 32.444518" stroke="gray" fill="white" stroke-width="1px"></path><path d="M 43.459383 26.444518 L 45.959383 26.444518 L 45.959383 32.444518 L 43.459383 32.444518 L 43.459383 26.444518" stroke="gray" fill="white" stroke-width="1px"></path><path d="M 43.459383 20.444518 L 45.959383 20.444518 L 45.959383 26.444518 L 43.459383 26.444518 L 43.459383 20.444518" stroke="gray" fill="white" stroke-width="1px"></path><path d="M 43.459383 14.444518 L 45.959383 14.444518 L 45.959383 20.444518 L 43.459383 20.444518 L 43.459383 14.444518" stroke="gray" fill="white" stroke-width="1px"></path><path d="M 31.459383 32.408103 L 33.959383 32.408103 L 33.959383 38.408103 L 31.459383 38.408103 L 31.459383 32.408103" stroke="gray" fill="white" stroke-width="1px"></path><path d="M 31.459383 26.408103 L 33.959383 26.408103 L 33.959383 32.408103 L 31.459383 32.408103 L 31.459383 26.408103" stroke="gray" fill="white" stroke-width="1px"></path><path d="M 31.459383 20.408103 L 33.959383 20.408103 L 33.959383 26.408103 L 31.459383 26.408103 L 31.459383 20.408103" stroke="gray" fill="white" stroke-width="1px"></path><path d="M 31.459383 14.408103 L 33.959383 14.408103 L 33.959383 20.408103 L 31.459383 20.408103 L 31.459383 14.408103" stroke="gray" fill="white" stroke-width="1px"></path><path d="M 19.459383 32.371689 L 21.959383 32.371689 L 21.959383 38.371689 L 19.459383 38.371689 L 19.459383 32.371689" stroke="gray" fill="white" stroke-width="1px"></path><path d="M 19.459383 26.371689 L 21.959383 26.371689 L 21.959383 32.371689 L 19.459383 32.371689 L 19.459383 26.371689" stroke="gray" fill="white" stroke-width="1px"></path><path d="M 19.459383 20.371689 L 21.959383 20.371689 L 21.959383 26.371689 L 19.459383 26.371689 L 19.459383 20.371689" stroke="gray" fill="white" stroke-width="1px"></path><path d="M 19.459383 14.371689 L 21.959383 14.371689 L 21.959383 20.371689 L 19.459383 20.371689 L 19.459383 14.371689" stroke="gray" fill="white" stroke-width="1px"></path><path d="M 278.911915 101.263579 L 278.911915 98.763579 L 272.911915 98.763579 L 272.911915 101.263579 L 278.911915 101.263579" stroke="gray" fill="white" stroke-width="1px"></path><path d="M 274.712862 89.263579 L 274.712862 86.763579 L 268.712862 86.763579 L 268.712862 89.263579 L 274.712862 89.263579" stroke="gray" fill="white" stroke-width="1px"></path><path d="M 270.513809 77.263579 L 270.513809 74.763579 L 264.513809 74.763579 L 264.513809 77.263579 L 270.513809 77.263579" stroke="gray" fill="white" stroke-width="1px"></path><path d="M 276.513809 77.263579 L 276.513809 74.763579 L 270.513809 74.763579 L 270.513809 77.263579 L 276.513809 77.263579" stroke="gray" fill="white" stroke-width="1px"></path><path d="M 266.314756 65.263579 L 266.314756 62.763579 L 260.314756 62.763579 L 260.314756 65.263579 L 266.314756 65.263579" stroke="gray" fill="white" stroke-width="1px"></path><path d="M 272.314756 65.263579 L 272.314756 62.763579 L 266.314756 62.763579 L 266.314756 65.263579 L 272.314756 65.263579" stroke="gray" fill="white" stroke-width="1px"></path><path d="M 278.314756 65.263579 L 278.314756 62.763579 L 272.314756 62.763579 L 272.314756 65.263579 L 278.314756 65.263579" stroke="gray" fill="white" stroke-width="1px"></path><path d="M 272.780237 53.263579 L 272.780237 50.763579 L 266.780237 50.763579 L 266.780237 53.263579 L 272.780237 53.263579" stroke="gray" fill="white" stroke-width="1px"></path><path d="M 278.780237 53.263579 L 278.780237 50.763579 L 272.780237 50.763579 L 272.780237 53.263579 L 278.780237 53.263579" stroke="gray" fill="white" stroke-width="1px"></path><path d="M 219.127783 101.263579 L 219.127783 98.763579 L 213.127783 98.763579 L 213.127783 101.263579 L 219.127783 101.263579" stroke="gray" fill="white" stroke-width="1px"></path><path d="M 225.127783 101.263579 L 225.127783 98.763579 L 219.127783 98.763579 L 219.127783 101.263579 L 225.127783 101.263579" stroke="gray" fill="white" stroke-width="1px"></path><path d="M 231.127783 101.263579 L 231.127783 98.763579 L 225.127783 98.763579 L 225.127783 101.263579 L 231.127783 101.263579" stroke="gray" fill="white" stroke-width="1px"></path><path d="M 237.127783 101.263579 L 237.127783 98.763579 L 231.127783 98.763579 L 231.127783 101.263579 L 237.127783 101.263579" stroke="gray" fill="white" stroke-width="1px"></path><path d="M 243.127783 101.263579 L 243.127783 98.763579 L 237.127783 98.763579 L 237.127783 101.263579 L 243.127783 101.263579" stroke="gray" fill="white" stroke-width="1px"></path><path d="M 220.610000 89.263579 L 220.610000 86.763579 L 214.610000 86.763579 L 214.610000 89.263579 L 220.610000 89.263579" stroke="gray" fill="white" stroke-width="1px"></path><path d="M 226.610000 89.263579 L 226.610000 86.763579 L 220.610000 86.763579 L 220.610000 89.263579 L 226.610000 89.263579" stroke="gray" fill="white" stroke-width="1px"></path><path d="M 232.610000 89.263579 L 232.610000 86.763579 L 226.610000 86.763579 L 226.610000 89.263579 L 232.610000 89.263579" stroke="gray" fill="white" stroke-width="1px"></path><path d="M 238.610000 89.263579 L 238.610000 86.763579 L 232.610000 86.763579 L 232.610000 89.263579 L 238.610000 89.263579" stroke="gray" fill="white" stroke-width="1px"></path><path d="M 278.911915 101.263579 L 278.911915 103.763579 L 272.911915 103.763579 L 272.911915 101.263579 L 278.911915 101.263579" stroke="gray" fill="white" stroke-width="1px"></path><path d="M 274.712862 89.263579 L 274.712862 91.763579 L 268.712862 91.763579 L 268.712862 89.263579 L 274.712862 89.263579" stroke="gray" fill="white" stroke-width="1px"></path><path d="M 270.513809 77.263579 L 270.513809 79.763579 L 264.513809 79.763579 L 264.513809 77.263579 L 270.513809 77.263579" stroke="gray" fill="white" stroke-width="1px"></path><path d="M 276.513809 77.263579 L 276.513809 79.763579 L 270.513809 79.763579 L 270.513809 77.263579 L 276.513809 77.263579" stroke="gray" fill="white" stroke-width="1px"></path><path d="M 266.314756 65.263579 L 266.314756 67.763579 L 260.314756 67.763579 L 260.314756 65.263579 L 266.314756 65.263579" stroke="gray" fill="white" stroke-width="1px"></path><path d="M 272.314756 65.263579 L 272.314756 67.763579 L 266.314756 67.763579 L 266.314756 65.263579 L 272.314756 65.263579" stroke="gray" fill="white" stroke-width="1px"></path><path d="M 278.314756 65.263579 L 278.314756 67.763579 L 272.314756 67.763579 L 272.314756 65.263579 L 278.314756 65.263579" stroke="gray" fill="white" stroke-width="1px"></path><path d="M 260.780237 53.263579 L 260.780237 55.763579 L 254.780237 55.763579 L 254.780237 53.263579 L 260.780237 53.263579" stroke="gray" fill="white" stroke-width="1px"></path><path d="M 266.780237 53.263579 L 266.780237 55.763579 L 260.780237 55.763579 L 260.780237 53.263579 L 266.780237 53.263579" stroke="gray" fill="white" stroke-width="1px"></path><path d="M 272.780237 53.263579 L 272.780237 55.763579 L 266.780237 55.763579 L 266.780237 53.263579 L 272.780237 53.263579" stroke="gray" fill="white" stroke-width="1px"></path><path d="M 278.780237 53.263579 L 278.780237 55.763579 L 272.780237 55.763579 L 272.780237 53.263579 L 278.780237 53.263579" stroke="gray" fill="white" stroke-width="1px"></path><path d="M 219.127783 101.263579 L 219.127783 103.763579 L 213.127783 103.763579 L 213.127783 101.263579 L 219.127783 101.263579" stroke="gray" fill="white" stroke-width="1px"></path><path d="M 225.127783 101.263579 L 225.127783 103.763579 L 219.127783 103.763579 L 219.127783 101.263579 L 225.127783 101.263579" stroke="gray" fill="white" stroke-width="1px"></path><path d="M 231.127783 101.263579 L 231.127783 103.763579 L 225.127783 103.763579 L 225.127783 101.263579 L 231.127783 101.263579" stroke="gray" fill="white" stroke-width="1px"></path><path d="M 237.127783 101.263579 L 237.127783 103.763579 L 231.127783 103.763579 L 231.127783 101.263579 L 237.127783 101.263579" stroke="gray" fill="white" stroke-width="1px"></path><path d="M 243.127783 101.263579 L 243.127783 103.763579 L 237.127783 103.763579 L 237.127783 101.263579 L 243.127783 101.263579" stroke="gray" fill="white" stroke-width="1px"></path><path d="M 220.610000 89.263579 L 220.610000 91.763579 L 214.610000 91.763579 L 214.610000 89.263579 L 220.610000 89.263579" stroke="gray" fill="white" stroke-width="1px"></path><path d="M 226.610000 89.263579 L 226.610000 91.763579 L 220.610000 91.763579 L 220.610000 89.263579 L 226.610000 89.263579" stroke="gray" fill="white" stroke-width="1px"></path><path d="M 232.610000 89.263579 L 232.610000 91.763579 L 226.610000 91.763579 L 226.610000 89.263579 L 232.610000 89.263579" stroke="gray" fill="white" stroke-width="1px"></path><path d="M 238.610000 89.263579 L 238.610000 91.763579 L 232.610000 91.763579 L 232.610000 89.263579 L 238.610000 89.263579" stroke="gray" fill="white" stroke-width="1px"></path></g><g id="crv-base"><path d="M 221.371570 123.090312 L 221.371570 169.241094 L 120.000633 169.241094 L 120.000633 156.444206 L 126.051258 156.444206 L 126.051258 128.832500 L 123.590320 128.832500 L 123.590320 125.551250 L 126.051258 125.551250 L 126.051258 123.858132 L 91.315945 123.858125 L 91.315945 134.738750 L 64.258762 134.738750 L 64.258762 123.687497 L 10.000000 123.687497 L 10.000000 226.180625 L 64.258758 226.180625 L 64.258758 192.357500 L 91.315945 192.357500 L 91.315945 220.123437 L 283.459383 220.123437 L 283.459383 123.090312 L 221.371570 123.090312" stroke="black" fill="none" stroke-width="1px"></path><path d="M 221.371570 10.000000 L 221.371570 56.150781 L 120.000633 56.150781 L 120.000633 43.353893 L 126.051258 43.353893 L 126.051258 15.742187 L 123.590320 15.742187 L 123.590320 12.460937 L 126.051258 12.460937 L 126.051258 10.767819 L 91.315945 10.767812 L 91.315945 21.648438 L 64.258762 21.648438 L 64.258762 10.597185 L 10.000000 10.597185 L 10.000000 113.090312 L 64.258758 113.090312 L 64.258758 79.267187 L 91.315945 79.267187 L 91.315945 107.033125 L 283.459383 107.033125 L 283.459383 10.000000 L 221.371570 10.000000" stroke="black" fill="none" stroke-width="1px"></path><path d="M 10.387195 156.559062 L 10.387195 154.590312 L 12.355945 154.590312 L 12.355945 156.559062 L 10.387195 156.559062" stroke="black" fill="white" stroke-width="1px"></path><path d="M 10.387195 43.468750 L 10.387195 41.500000 L 12.355945 41.500000 L 12.355945 43.468750 L 10.387195 43.468750" stroke="black" fill="white" stroke-width="1px"></path><path d="M 10.387195 188.059062 L 10.387195 186.090312 L 12.355945 186.090312 L 12.355945 188.059062 L 10.387195 188.059062" stroke="black" fill="white" stroke-width="1px"></path><path d="M 10.387195 74.968750 L 10.387195 73.000000 L 12.355945 73.000000 L 12.355945 74.968750 L 10.387195 74.968750" stroke="black" fill="white" stroke-width="1px"></path><path d="M 10.387195 219.559062 L 10.387195 217.590312 L 12.355945 217.590312 L 12.355945 219.559062 L 10.387195 219.559062" stroke="black" fill="white" stroke-width="1px"></path><path d="M 10.387195 106.468750 L 10.387195 104.500000 L 12.355945 104.500000 L 12.355945 106.468750 L 10.387195 106.468750" stroke="black" fill="white" stroke-width="1px"></path><path d="M 60.754383 128.340312 L 60.754383 125.387187 L 63.871570 125.387187 L 63.871570 128.340312 L 60.754383 128.340312" stroke="black" fill="white" stroke-width="1px"></path><path d="M 60.754383 15.250000 L 60.754383 12.296875 L 63.871570 12.296875 L 63.871570 15.250000 L 60.754383 15.250000" stroke="black" fill="white" stroke-width="1px"></path><path d="M 280.598133 219.230937 L 280.598133 217.262187 L 282.566883 217.262187 L 282.566883 219.230937 L 280.598133 219.230937" stroke="black" fill="white" stroke-width="1px"></path><path d="M 280.598133 106.140625 L 280.598133 104.171875 L 282.566883 104.171875 L 282.566883 106.140625 L 280.598133 106.140625" stroke="black" fill="white" stroke-width="1px"></path><path d="M 280.598133 188.059062 L 280.598133 186.090312 L 282.566883 186.090312 L 282.566883 188.059062 L 280.598133 188.059062" stroke="black" fill="white" stroke-width="1px"></path><path d="M 280.598133 74.968750 L 280.598133 73.000000 L 282.566883 73.000000 L 282.566883 74.968750 L 280.598133 74.968750" stroke="black" fill="white" stroke-width="1px"></path><path d="M 280.598133 156.559050 L 280.598133 154.590300 L 282.566883 154.590300 L 282.566883 156.559050 L 280.598133 156.559050" stroke="black" fill="white" stroke-width="1px"></path><path d="M 280.598133 43.468737 L 280.598133 41.499987 L 282.566883 41.499987 L 282.566883 43.468737 L 280.598133 43.468737" stroke="black" fill="white" stroke-width="1px"></path><path d="M 248.605945 127.355937 L 248.605945 123.418437 L 251.887195 123.418437 L 251.887195 127.355937 L 248.605945 127.355937" stroke="black" fill="white" stroke-width="1px"></path><path d="M 248.605945 14.265625 L 248.605945 10.328125 L 251.887195 10.328125 L 251.887195 14.265625 L 248.605945 14.265625" stroke="black" fill="white" stroke-width="1px"></path><path d="M 248.605945 157.871562 L 248.605945 153.934062 L 251.887195 153.934062 L 251.887195 157.871562 L 248.605945 157.871562" stroke="black" fill="white" stroke-width="1px"></path><path d="M 248.605945 44.781250 L 248.605945 40.843750 L 251.887195 40.843750 L 251.887195 44.781250 L 248.605945 44.781250" stroke="black" fill="white" stroke-width="1px"></path><path d="M 248.605945 189.043437 L 248.605945 185.105937 L 251.887195 185.105937 L 251.887195 189.043437 L 248.605945 189.043437" stroke="black" fill="white" stroke-width="1px"></path><path d="M 248.605945 75.953125 L 248.605945 72.015625 L 251.887195 72.015625 L 251.887195 75.953125 L 248.605945 75.953125" stroke="black" fill="white" stroke-width="1px"></path><path d="M 248.934070 219.230937 L 248.934070 216.277812 L 251.887195 216.277812 L 251.887195 219.230937 L 248.934070 219.230937" stroke="black" fill="white" stroke-width="1px"></path><path d="M 248.934070 106.140625 L 248.934070 103.187500 L 251.887195 103.187500 L 251.887195 106.140625 L 248.934070 106.140625" stroke="black" fill="white" stroke-width="1px"></path><path d="M 218.090320 189.043437 L 218.090320 185.105937 L 221.371570 185.105937 L 221.371570 189.043437 L 218.090320 189.043437" stroke="black" fill="white" stroke-width="1px"></path><path d="M 218.090320 75.953125 L 218.090320 72.015625 L 221.371570 72.015625 L 221.371570 75.953125 L 218.090320 75.953125" stroke="black" fill="white" stroke-width="1px"></path><path d="M 218.254383 219.230937 L 218.254383 216.277812 L 221.207508 216.277812 L 221.207508 219.230937 L 218.254383 219.230937" stroke="black" fill="white" stroke-width="1px"></path><path d="M 218.254383 106.140625 L 218.254383 103.187500 L 221.207508 103.187500 L 221.207508 106.140625 L 218.254383 106.140625" stroke="black" fill="white" stroke-width="1px"></path><path d="M 186.590320 189.043437 L 186.590320 185.105937 L 189.871570 185.105937 L 189.871570 189.043437 L 186.590320 189.043437" stroke="black" fill="white" stroke-width="1px"></path><path d="M 186.590320 75.953125 L 186.590320 72.015625 L 189.871570 72.015625 L 189.871570 75.953125 L 186.590320 75.953125" stroke="black" fill="white" stroke-width="1px"></path><path d="M 186.754383 219.230937 L 186.754383 216.277812 L 189.707508 216.277812 L 189.707508 219.230937 L 186.754383 219.230937" stroke="black" fill="white" stroke-width="1px"></path><path d="M 186.754383 106.140625 L 186.754383 103.187500 L 189.707508 103.187500 L 189.707508 106.140625 L 186.754383 106.140625" stroke="black" fill="white" stroke-width="1px"></path><path d="M 155.090320 189.043437 L 155.090320 185.105937 L 158.371570 185.105937 L 158.371570 189.043437 L 155.090320 189.043437" stroke="black" fill="white" stroke-width="1px"></path><path d="M 155.090320 75.953125 L 155.090320 72.015625 L 158.371570 72.015625 L 158.371570 75.953125 L 155.090320 75.953125" stroke="black" fill="white" stroke-width="1px"></path><path d="M 155.254383 219.230937 L 155.254383 216.277812 L 158.207508 216.277812 L 158.207508 219.230937 L 155.254383 219.230937" stroke="black" fill="white" stroke-width="1px"></path><path d="M 155.254383 106.140625 L 155.254383 103.187500 L 158.207508 103.187500 L 158.207508 106.140625 L 155.254383 106.140625" stroke="black" fill="white" stroke-width="1px"></path><path d="M 123.590320 189.043437 L 123.590320 185.105937 L 126.871570 185.105937 L 126.871570 189.043437 L 123.590320 189.043437" stroke="black" fill="white" stroke-width="1px"></path><path d="M 123.590320 75.953125 L 123.590320 72.015625 L 126.871570 72.015625 L 126.871570 75.953125 L 123.590320 75.953125" stroke="black" fill="white" stroke-width="1px"></path><path d="M 123.754383 219.230937 L 123.754383 216.277812 L 126.707508 216.277812 L 126.707508 219.230937 L 123.754383 219.230937" stroke="black" fill="white" stroke-width="1px"></path><path d="M 123.754383 106.140625 L 123.754383 103.187500 L 126.707508 103.187500 L 126.707508 106.140625 L 123.754383 106.140625" stroke="black" fill="white" stroke-width="1px"></path><path d="M 92.090320 157.543437 L 92.090320 153.605937 L 95.371570 153.605937 L 95.371570 157.543437 L 92.090320 157.543437" stroke="black" fill="white" stroke-width="1px"></path><path d="M 92.090320 44.453125 L 92.090320 40.515625 L 95.371570 40.515625 L 95.371570 44.453125 L 92.090320 44.453125" stroke="black" fill="white" stroke-width="1px"></path><path d="M 92.090320 189.043437 L 92.090320 185.105937 L 95.371570 185.105937 L 95.371570 189.043437 L 92.090320 189.043437" stroke="black" fill="white" stroke-width="1px"></path><path d="M 92.090320 75.953125 L 92.090320 72.015625 L 95.371570 72.015625 L 95.371570 75.953125 L 92.090320 75.953125" stroke="black" fill="white" stroke-width="1px"></path><path d="M 92.090320 128.504375 L 92.090320 125.551250 L 95.207508 125.551250 L 95.207508 128.504375 L 92.090320 128.504375" stroke="black" fill="white" stroke-width="1px"></path><path d="M 92.090320 15.414062 L 92.090320 12.460937 L 95.207508 12.460937 L 95.207508 15.414062 L 92.090320 15.414062" stroke="black" fill="white" stroke-width="1px"></path><path d="M 60.590320 157.215312 L 60.590320 153.934062 L 63.871570 153.934062 L 63.871570 157.215312 L 60.590320 157.215312" stroke="black" fill="white" stroke-width="1px"></path><path d="M 60.590320 44.125000 L 60.590320 40.843750 L 63.871570 40.843750 L 63.871570 44.125000 L 60.590320 44.125000" stroke="black" fill="white" stroke-width="1px"></path><path d="M 60.754383 219.230937 L 60.754383 216.277812 L 63.871570 216.277812 L 63.871570 219.230937 L 60.754383 219.230937" stroke="black" fill="white" stroke-width="1px"></path><path d="M 60.754383 106.140625 L 60.754383 103.187500 L 63.871570 103.187500 L 63.871570 106.140625 L 60.754383 106.140625" stroke="black" fill="white" stroke-width="1px"></path><path d="M 30.074695 128.504375 L 30.074695 125.223125 L 33.027820 125.223125 L 33.027820 128.504375 L 30.074695 128.504375" stroke="black" fill="white" stroke-width="1px"></path><path d="M 30.074695 15.414062 L 30.074695 12.132812 L 33.027820 12.132812 L 33.027820 15.414062 L 30.074695 15.414062" stroke="black" fill="white" stroke-width="1px"></path><path d="M 30.074695 157.215312 L 30.074695 153.934062 L 33.355945 153.934062 L 33.355945 157.215312 L 30.074695 157.215312" stroke="black" fill="white" stroke-width="1px"></path><path d="M 30.074695 44.125000 L 30.074695 40.843750 L 33.355945 40.843750 L 33.355945 44.125000 L 30.074695 44.125000" stroke="black" fill="white" stroke-width="1px"></path><path d="M 30.074695 188.715312 L 30.074695 185.434062 L 33.355945 185.434062 L 33.355945 188.715312 L 30.074695 188.715312" stroke="black" fill="white" stroke-width="1px"></path><path d="M 30.074695 75.625000 L 30.074695 72.343750 L 33.355945 72.343750 L 33.355945 75.625000 L 30.074695 75.625000" stroke="black" fill="white" stroke-width="1px"></path><path d="M 30.074695 219.230937 L 30.074695 216.277812 L 33.027820 216.277812 L 33.027820 219.230937 L 30.074695 219.230937" stroke="black" fill="white" stroke-width="1px"></path><path d="M 30.074695 106.140625 L 30.074695 103.187500 L 33.027820 103.187500 L 33.027820 106.140625 L 30.074695 106.140625" stroke="black" fill="white" stroke-width="1px"></path><path d="M 10.387195 127.191875 L 10.387195 125.223125 L 12.355945 125.223125 L 12.355945 127.191875 L 10.387195 127.191875" stroke="black" fill="white" stroke-width="1px"></path><path d="M 10.387195 14.101562 L 10.387195 12.132812 L 12.355945 12.132812 L 12.355945 14.101562 L 10.387195 14.101562" stroke="black" fill="white" stroke-width="1px"></path><path d="M 60.590320 189.863750 L 60.590320 185.434062 L 63.871570 185.434062 L 63.871570 188.715312 L 62.230945 188.715312 L 62.230945 189.863750 L 60.590320 189.863750" stroke="black" fill="white" stroke-width="1px"></path><path d="M 60.590320 76.773437 L 60.590320 72.343750 L 63.871570 72.343750 L 63.871570 75.625000 L 62.230945 75.625000 L 62.230945 76.773437 L 60.590320 76.773437" stroke="black" fill="white" stroke-width="1px"></path></g></svg>