<svg width="293.459383" height="236.180625" xmlns="http://www.w3.org/2000/svg" xmlns:xlink="http://www.w3.org/1999/xlink" version="1.1"><g id="crv-background"><path d="M 221.371570 123.090312 L 221.371570 169.241094 L 120.000633 169.241094 L 120.000633 156.444206 L 126.051258 156.444206 L 126.051258 128.832500 L 123.590320 128.832500 L 123.590320 125.551250 L 126.051258 125.551250 L 126.051258 123.858132 L 91.315945 123.858125 L 91.315945 134.738750 L 64.258762 134.738750 L 64.258762 123.687497 L 10.000000 123.687497 L 10.000000 226.180625 L 64.258758 226.180625 L 64.258758 192.357500 L 91.315945 192.357500 L 91.315945 220.123437 L 283.459383 220.123437 L 283.459383 123.090312 L 221.371570 123.090312" stroke="none" fill="white" stroke-width="1px"></path><path d="M 221.371570 10.000000 L 221.371570 56.150781 L 120.000633 56.150781 L 120.000633 43.353893 L 126.051258 43.353893 L 126.051258 15.742187 L 123.590320 15.742187 L 123.590320 12.460937 L 126.051258 12.460937 L 126.051258 10.767819 L 91.315945 10.767812 L 91.315945 21.648438 L 64.258762 21.648438 L 64.258762 10.597185 L 10.000000 10.597185 L 10.000000 113.090312 L 64.258758 113.090312 L 64.258758 79.267187 L 91.315945 79.267187 L 91.315945 107.033125 L 283.459383 107.033125 L 283.459383 10.000000 L 221.371570 10.000000" stroke="none" fill="white" stroke-width="1px"></path></g><g id="crv-nbhd"><path d="M 221.737654 10.000004 L 221.737654 26.423693 L 221.737654 42.847382 L 228.551518 48.038036 L 235.365382 53.228691 L 259.412382 52.157548 L 283.459383 51.086406 L 283.459383 30.543203 L 283.459382 10.000000 L 252.598518 10.000002 L 221.737654 10.000004" stroke="#DD2222" fill="none" stroke-width="1px"></path><path d="M 283.459383 107.033125 L 283.459383 79.059765 L 283.459383 51.086406 L 259.412382 52.157548 L 235.365382 53.228691 L 240.744782 80.130908 L 246.124183 107.033125 L 264.791783 107.033125 L 283.459383 107.033125" stroke="#DD2222" fill="none" stroke-width="1px"></path><path d="M 192.299845 107.033125 L 219.212014 107.033125 L 246.124183 107.033125 L 240.744782 80.130908 L 235.365382 53.228691 L 228.551518 48.038036 L 221.737654 42.847382 L 221.737654 60.999356 L 221.737654 79.151330 L 212.210330 79.151330 L 202.683006 79.151330 L 197.491426 93.092226 L 192.299845 107.033125" stroke="#DD2222" fill="none" stroke-width="1px"></path><path d="M 202.683006 79.151330 L 188.032027 79.151330 L 173.381048 79.151329 L 177.318694 93.092227 L 181.256340 107.033125 L 186.778092 107.033125 L 192.299845 107.033125 L 197.491425 93.092227 L 202.683006 79.151330" stroke="#DD2222" fill="none" stroke-width="1px"></path><path d="M 173.381048 79.151329 L 153.263349 79.151329 L 133.145650 79.151328 L 131.961581 93.092227 L 130.777512 107.033125 L 156.016926 107.033125 L 181.256340 107.033125 L 177.318695 93.092230 L 173.381048 79.151329" stroke="#DD2222" fill="none" stroke-width="1px"></path><path d="M 133.145650 79.151328 L 112.230798 79.151328 L 91.315945 79.151327 L 91.315945 93.092226 L 91.315945 107.033125 L 111.046728 107.033125 L 130.777512 107.033125 L 131.961581 93.092230 L 133.145650 79.151328" stroke="#DD2222" fill="none" stroke-width="1px"></path><path d="M 64.258758 113.090312 L 64.258758 84.620554 L 64.258758 56.150781 L 64.258758 54.635660 L 64.258758 53.120539 L 37.129382 55.202968 L 10.000000 57.285398 L 10.000000 85.187855 L 10.000000 113.090312 L 37.129269 113.090312 L 64.258758 113.090312" stroke="#DD2222" fill="none" stroke-width="1px"></path><path d="M 10.000000 10.597184 L 10.000000 33.941291 L 10.000000 57.285398 L 37.129379 55.202969 L 64.258758 53.120539 L 64.258758 31.858862 L 64.258758 10.597185 L 37.129385 10.597185 L 10.000000 10.597184" stroke="#DD2222" fill="none" stroke-width="1px"></path><path d="M 10.000000 123.687497 L 10.000000 150.299461 L 10.000000 176.911426 L 37.129379 176.469605 L 64.258758 176.027784 L 64.258758 172.634439 L 64.258758 169.241094 L 64.258758 146.464296 L 64.258758 123.687497 L 37.129385 123.687497 L 10.000000 123.687497" stroke="#DD2222" fill="none" stroke-width="1px"></path><path d="M 10.000000 176.911426 L 10.000000 201.546025 L 10.000000 226.180625 L 37.129381 226.180625 L 64.258763 226.180625 L 64.258763 201.104198 L 64.258758 176.027784 L 37.129385 176.469605 L 10.000000 176.911426" stroke="#DD2222" fill="none" stroke-width="1px"></path><path d="M 139.233518 192.043444 L 115.274732 192.043444 L 91.315945 192.043444 L 91.315945 206.083441 L 91.315945 220.123437 L 113.414012 220.123437 L 135.512078 220.123437 L 137.372798 206.083444 L 139.233518 192.043444" stroke="#DD2222" fill="none" stroke-width="1px"></path><path d="M 185.463431 192.043444 L 162.348474 192.043444 L 139.233518 192.043444 L 137.372798 206.083441 L 135.512078 220.123437 L 163.651888 220.123437 L 191.791699 220.123437 L 188.627566 206.083444 L 185.463431 192.043444" stroke="#DD2222" fill="none" stroke-width="1px"></path><path d="M 228.312211 192.043444 L 206.887821 192.043444 L 185.463431 192.043444 L 188.627565 206.083441 L 191.791699 220.123437 L 208.411953 220.123437 L 225.032208 220.123437 L 226.672209 206.083441 L 228.312211 192.043444" stroke="#DD2222" fill="none" stroke-width="1px"></path><path d="M 283.459383 220.123437 L 283.459383 197.305282 L 283.459383 174.487127 L 261.598517 172.086409 L 239.737652 169.685692 L 239.737652 180.864568 L 239.737652 192.043444 L 234.024931 192.043444 L 228.312211 192.043444 L 226.672209 206.083441 L 225.032208 220.123437 L 254.245795 220.123437 L 283.459383 220.123437" stroke="#DD2222" fill="none" stroke-width="1px"></path><path d="M 239.737652 123.090312 L 239.737652 146.388002 L 239.737652 169.685692 L 261.598517 172.086409 L 283.459383 174.487127 L 283.459383 148.788720 L 283.459383 123.090312 L 261.598585 123.090312 L 239.737652 123.090312" stroke="#DD2222" fill="none" stroke-width="1px"></path></g><g id="crv-amen"><path d="M 58.832882 138.706261 L 58.832882 132.031255 L 58.832882 125.356249 L 37.129379 125.356249 L 15.425876 125.356248 L 15.425876 132.031254 L 15.425876 138.706260 L 37.129379 138.706261 L 58.832882 138.706261" stroke="none" fill="#2288CC" stroke-width="1px"></path><path d="M 58.832884 191.136903 L 58.832883 184.461010 L 58.832882 177.785121 L 37.129379 178.138577 L 15.425876 178.492034 L 15.425876 185.167925 L 15.425876 191.843817 L 37.129380 191.490360 L 58.832884 191.136903" stroke="none" fill="#2288CC" stroke-width="1px"></path><path d="M 120.734136 217.315438 L 127.467508 217.315438 L 134.200879 217.315438 L 135.689455 206.083441 L 137.178031 194.851444 L 130.444660 194.851444 L 123.711288 194.851444 L 122.222712 206.083441 L 120.734136 217.315438" stroke="none" fill="#2288CC" stroke-width="1px"></path><path d="M 175.763436 217.315443 L 182.605854 217.315443 L 189.448271 217.315443 L 186.916964 206.083445 L 184.385657 194.851448 L 177.577520 194.851448 L 170.769382 194.851448 L 170.736759 194.858800 L 170.704136 194.866152 L 173.233786 206.090798 L 175.763436 217.315443" stroke="none" fill="#2288CC" stroke-width="1px"></path><path d="M 201.491693 194.851439 L 194.649276 194.851439 L 187.806858 194.851439 L 190.338165 206.083436 L 192.869472 217.315434 L 199.677610 217.315434 L 206.485747 217.315434 L 206.518370 217.308081 L 206.550993 217.300729 L 204.021343 206.076084 L 201.491693 194.851439" stroke="none" fill="#2288CC" stroke-width="1px"></path><path d="M 279.087210 189.116039 L 279.087210 182.400903 L 279.087210 175.685768 L 261.598517 173.765193 L 244.109825 171.844619 L 244.109825 178.559755 L 244.109825 185.274891 L 261.598517 187.195465 L 279.087210 189.116039" stroke="none" fill="#2288CC" stroke-width="1px"></path><path d="M 254.767143 127.842069 L 248.092145 127.842069 L 241.417131 127.842069 L 241.417131 146.480221 L 241.417131 165.118372 L 248.092137 165.851409 L 254.767143 166.584445 L 254.767143 147.213257 L 254.767143 127.842069" stroke="none" fill="#2288CC" stroke-width="1px"></path><path d="M 236.781934 13.644233 L 230.106928 13.644233 L 223.431922 13.644234 L 223.431922 26.783185 L 223.431922 39.922137 L 225.674127 41.630200 L 227.916333 43.338264 L 232.349133 43.338264 L 236.781934 43.338264 L 236.781934 28.491248 L 236.781934 13.644233" stroke="none" fill="#2288CC" stroke-width="1px"></path><path d="M 251.633553 57.970403 L 244.886503 58.270941 L 238.139452 58.571480 L 242.442973 80.093254 L 246.746494 101.615027 L 253.553640 101.615027 L 260.360787 101.615027 L 255.997170 79.792715 L 251.633553 57.970403" stroke="none" fill="#2288CC" stroke-width="1px"></path><path d="M 212.256788 81.979440 L 207.823587 81.979440 L 203.390386 81.979440 L 199.237122 93.132158 L 195.083857 104.284876 L 202.206690 104.284876 L 209.329523 104.284876 L 213.155214 94.011787 L 216.980905 83.738698 L 214.618846 82.859069 L 212.256788 81.979440" stroke="none" fill="#2288CC" stroke-width="1px"></path><path d="M 180.548620 95.823336 L 181.715535 99.954697 L 182.882449 104.086059 L 187.299851 104.086059 L 191.717253 104.086059 L 195.870518 92.933341 L 200.023782 81.780623 L 192.900949 81.780623 L 185.778117 81.780622 L 183.163368 88.801979 L 180.548620 95.823336" stroke="none" fill="#2288CC" stroke-width="1px"></path><path d="M 173.296950 94.209471 L 171.411576 87.534466 L 169.526201 80.859459 L 153.432042 80.859459 L 137.337883 80.859459 L 136.770942 87.534465 L 136.204001 94.209471 L 154.750475 94.209471 L 173.296950 94.209471" stroke="none" fill="#2288CC" stroke-width="1px"></path><path d="M 106.334709 81.939507 L 99.659703 81.939507 L 92.984697 81.939507 L 92.984697 93.092226 L 92.984697 104.244945 L 99.659703 104.244945 L 106.334709 104.244945 L 106.334709 93.092226 L 106.334709 81.939507" stroke="none" fill="#2288CC" stroke-width="1px"></path><path d="M 49.245999 107.157151 L 55.920993 107.157151 L 62.596011 107.157151 L 62.596011 83.169241 L 62.596011 59.181332 L 55.921005 59.693700 L 49.245999 60.206068 L 49.245999 83.681610 L 49.245999 107.157151" stroke="none" fill="#2288CC" stroke-width="1px"></path><path d="M 15.425876 41.805969 L 15.425876 48.500610 L 15.425876 55.195252 L 37.129379 53.529308 L 58.832882 51.863365 L 58.832882 45.168723 L 58.832882 38.474081 L 37.129379 40.140025 L 15.425876 41.805969" stroke="none" fill="#2288CC" stroke-width="1px"></path></g><g id="crv-desk"><path d="M 55.459383 170.171088 L 52.959383 170.171088 L 52.959383 176.171088 L 55.459383 176.171088 L 55.459383 170.171088" stroke="gray" fill="white" stroke-width="1px"></path><path d="M 55.459383 164.171088 L 52.959383 164.171088 L 52.959383 170.171088 L 55.459383 170.171088 L 55.459383 164.171088" stroke="gray" fill="white" stroke-width="1px"></path><path d="M 55.459383 158.171088 L 52.959383 158.171088 L 52.959383 164.171088 L 55.459383 164.171088 L 55.459383 158.171088" stroke="gray" fill="white" stroke-width="1px"></path><path d="M 55.459383 152.171088 L 52.959383 152.171088 L 52.959383 158.171088 L 55.459383 158.171088 L 55.459383 152.171088" stroke="gray" fill="white" stroke-width="1px"></path><path d="M 55.459383 146.171088 L 52.959383 146.171088 L 52.959383 152.171088 L 55.459383 152.171088 L 55.459383 146.171088" stroke="gray" fill="white" stroke-width="1px"></path><path d="M 43.459383 170.366516 L 40.959383 170.366516 L 40.959383 176.366516 L 43.459383 176.366516 L 43.459383 170.366516" stroke="gray" fill="white" stroke-width="1px"></path><path d="M 43.459383 164.366516 L 40.959383 164.366516 L 40.959383 170.366516 L 43.459383 170.366516 L 43.459383 164.366516" stroke="gray" fill="white" stroke-width="1px"></path><path d="M 43.459383 158.366516 L 40.959383 158.366516 L 40.959383 164.366516 L 43.459383 164.366516 L 43.459383 158.366516" stroke="gray" fill="white" stroke-width="1px"></path><path d="M 43.459383 152.366516 L 40.959383 152.366516 L 40.959383 158.366516 L 43.459383 158.366516 L 43.459383 152.366516" stroke="gray" fill="white" stroke-width="1px"></path><path d="M 43.459383 146.366516 L 40.959383 146.366516 L 40.959383 152.366516 L 43.459383 152.366516 L 43.459383 146.366516" stroke="gray" fill="white" stroke-width="1px"></path><path d="M 31.459383 170.561945 L 28.959383 170.561945 L 28.959383 176.561945 L 31.459383 176.561945 L 31.459383 170.561945" stroke="gray" fill="white" stroke-width="1px"></path><path d="M 31.459383 164.561945 L 28.959383 164.561945 L 28.959383 170.561945 L 31.459383 170.561945 L 31.459383 164.561945" stroke="gray" fill="white" stroke-width="1px"></path><path d="M 31.459383 158.561945 L 28.959383 158.561945 L 28.959383 164.561945 L 31.459383 164.561945 L 31.459383 158.561945" stroke="gray" fill="white" stroke-width="1px"></path><path d="M 31.459383 152.561945 L 28.959383 152.561945 L 28.959383 158.561945 L 31.459383 158.561945 L 31.459383 152.561945" stroke="gray" fill="white" stroke-width="1px"></path><path d="M 31.459383 146.561945 L 28.959383 146.561945 L 28.959383 152.561945 L 31.459383 152.561945 L 31.459383 146.561945" stroke="gray" fill="white" stroke-width="1px"></path><path d="M 19.459383 170.757373 L 16.959383 170.757373 L 16.959383 176.757373 L 19.459383 176.757373 L 19.459383 170.757373" stroke="gray" fill="white" stroke-width="1px"></path><path d="M 19.459383 164.757373 L 16.959383 164.757373 L 16.959383 170.757373 L 19.459383 170.757373 L 19.459383 164.757373" stroke="gray" fill="white" stroke-width="1px"></path><path d="M 19.459383 158.757373 L 16.959383 158.757373 L 16.959383 164.757373 L 19.459383 164.757373 L 19.459383 158.757373" stroke="gray" fill="white" stroke-width="1px"></path><path d="M 19.459383 152.757373 L 16.959383 152.757373 L 16.959383 158.757373 L 19.459383 158.757373 L 19.459383 152.757373" stroke="gray" fill="white" stroke-width="1px"></path><path d="M 19.459383 146.757373 L 16.959383 146.757373 L 16.959383 152.757373 L 19.459383 152.757373 L 19.459383 146.757373" stroke="gray" fill="white" stroke-width="1px"></path><path d="M 55.459383 220.180625 L 52.959383 220.180625 L 52.959383 226.180625 L 55.459383 226.180625 L 55.459383 220.180625" stroke="gray" fill="white" stroke-width="1px"></path><path d="M 55.459383 214.180625 L 52.959383 214.180625 L 52.959383 220.180625 L 55.459383 220.180625 L 55.459383 214.180625" stroke="gray" fill="white" stroke-width="1px"></path><path d="M 55.459383 208.180625 L 52.959383 208.180625 L 52.959383 214.180625 L 55.459383 214.180625 L 55.459383 208.180625" stroke="gray" fill="white" stroke-width="1px"></path><path d="M 55.459383 202.180625 L 52.959383 202.180625 L 52.959383 208.180625 L 55.459383 208.180625 L 55.459383 202.180625" stroke="gray" fill="white" stroke-width="1px"></path><path d="M 43.459383 220.180625 L 40.959383 220.180625 L 40.959383 226.180625 L 43.459383 226.180625 L 43.459383 220.180625" stroke="gray" fill="white" stroke-width="1px"></path><path d="M 43.459383 214.180625 L 40.959383 214.180625 L 40.959383 220.180625 L 43.459383 220.180625 L 43.459383 214.180625" stroke="gray" fill="white" stroke-width="1px"></path><path d="M 43.459383 208.180625 L 40.959383 208.180625 L 40.959383 214.180625 L 43.459383 214.180625 L 43.459383 208.180625" stroke="gray" fill="white" stroke-width="1px"></path><path d="M 43.459383 202.180625 L 40.959383 202.180625 L 40.959383 208.180625 L 43.459383 208.180625 L 43.459383 202.180625" stroke="gray" fill="white" stroke-width="1px"></path><path d="M 31.459383 220.180625 L 28.959383 220.180625 L 28.959383 226.180625 L 31.459383 226.180625 L 31.459383 220.180625" stroke="gray" fill="white" stroke-width="1px"></path><path d="M 31.459383 214.180625 L 28.959383 214.180625 L 28.959383 220.180625 L 31.459383 220.180625 L 31.459383 214.180625" stroke="gray" fill="white" stroke-width="1px"></path><path d="M 31.459383 208.180625 L 28.959383 208.180625 L 28.959383 214.180625 L 31.459383 214.180625 L 31.459383 208.180625" stroke="gray" fill="white" stroke-width="1px"></path><path d="M 31.459383 202.180625 L 28.959383 202.180625 L 28.959383 208.180625 L 31.459383 208.180625 L 31.459383 202.180625" stroke="gray" fill="white" stroke-width="1px"></path><path d="M 19.459383 220.180625 L 16.959383 220.180625 L 16.959383 226.180625 L 19.459383 226.180625 L 19.459383 220.180625" stroke="gray" fill="white" stroke-width="1px"></path><path d="M 19.459383 214.180625 L 16.959383 214.180625 L 16.959383 220.180625 L 19.459383 220.180625 L 19.459383 214.180625" stroke="gray" fill="white" stroke-width="1px"></path><path d="M 19.459383 208.180625 L 16.959383 208.180625 L 16.959383 214.180625 L 19.459383 214.180625 L 19.459383 208.180625" stroke="gray" fill="white" stroke-width="1px"></path><path d="M 19.459383 202.180625 L 16.959383 202.180625 L 16.959383 208.180625 L 19.459383 208.180625 L 19.459383 202.180625" stroke="gray" fill="white" stroke-width="1px"></path><path d="M 115.459383 208.123437 L 112.959383 208.123437 L 112.959383 214.123437 L 115.459383 214.123437 L 115.459383 208.123437" stroke="gray" fill="white" stroke-width="1px"></path><path d="M 115.459383 202.123437 L 112.959383 202.123437 L 112.959383 208.123437 L 115.459383 208.123437 L 115.459383 202.123437" stroke="gray" fill="white" stroke-width="1px"></path><path d="M 115.459383 196.123437 L 112.959383 196.123437 L 112.959383 202.123437 L 115.459383 202.123437 L 115.459383 196.123437" stroke="gray" fill="white" stroke-width="1px"></path><path d="M 103.459383 214.123437 L 100.959383 214.123437 L 100.959383 220.123437 L 103.459383 220.123437 L 103.459383 214.123437" stroke="gray" fill="white" stroke-width="1px"></path><path d="M 103.459383 208.123437 L 100.959383 208.123437 L 100.959383 214.123437 L 103.459383 214.123437 L 103.459383 208.123437" stroke="gray" fill="white" stroke-width="1px"></path><path d="M 103.459383 202.123437 L 100.959383 202.123437 L 100.959383 208.123437 L 103.459383 208.123437 L 103.459383 202.123437" stroke="gray" fill="white" stroke-width="1px"></path><path d="M 103.459383 196.123437 L 100.959383 196.123437 L 100.959383 202.123437 L 103.459383 202.123437 L 103.459383 196.123437" stroke="gray" fill="white" stroke-width="1px"></path><path d="M 163.459383 214.123437 L 160.959383 214.123437 L 160.959383 220.123437 L 163.459383 220.123437 L 163.459383 214.123437" stroke="gray" fill="white" stroke-width="1px"></path><path d="M 163.459383 208.123437 L 160.959383 208.123437 L 160.959383 214.123437 L 163.459383 214.123437 L 163.459383 208.123437" stroke="gray" fill="white" stroke-width="1px"></path><path d="M 163.459383 202.123437 L 160.959383 202.123437 L 160.959383 208.123437 L 163.459383 208.123437 L 163.459383 202.123437" stroke="gray" fill="white" stroke-width="1px"></path><path d="M 163.459383 196.123437 L 160.959383 196.123437 L 160.959383 202.123437 L 163.459383 202.123437 L 163.459383 196.123437" stroke="gray" fill="white" stroke-width="1px"></path><path d="M 151.459383 214.123437 L 148.959383 214.123437 L 148.959383 220.123437 L 151.459383 220.123437 L 151.459383 214.123437" stroke="gray" fill="white" stroke-width="1px"></path><path d="M 151.459383 208.123437 L 148.959383 208.123437 L 148.959383 214.123437 L 151.459383 214.123437 L 151.459383 208.123437" stroke="gray" fill="white" stroke-width="1px"></path><path d="M 151.459383 202.123437 L 148.959383 202.123437 L 148.959383 208.123437 L 151.459383 208.123437 L 151.459383 202.123437" stroke="gray" fill="white" stroke-width="1px"></path><path d="M 151.459383 196.123437 L 148.959383 196.123437 L 148.959383 202.123437 L 151.459383 202.123437 L 151.459383 196.123437" stroke="gray" fill="white" stroke-width="1px"></path><path d="M 223.459383 214.123437 L 220.959383 214.123437 L 220.959383 220.123437 L 223.459383 220.123437 L 223.459383 214.123437" stroke="gray" fill="white" stroke-width="1px"></path><path d="M 223.459383 208.123437 L 220.959383 208.123437 L 220.959383 214.123437 L 223.459383 214.123437 L 223.459383 208.123437" stroke="gray" fill="white" stroke-width="1px"></path><path d="M 223.459383 202.123437 L 220.959383 202.123437 L 220.959383 208.123437 L 223.459383 208.123437 L 223.459383 202.123437" stroke="gray" fill="white" stroke-width="1px"></path><path d="M 223.459383 196.123437 L 220.959383 196.123437 L 220.959383 202.123437 L 223.459383 202.123437 L 223.459383 196.123437" stroke="gray" fill="white" stroke-width="1px"></path><path d="M 211.459383 208.123437 L 208.959383 208.123437 L 208.959383 214.123437 L 211.459383 214.123437 L 211.459383 208.123437" stroke="gray" fill="white" stroke-width="1px"></path><path d="M 211.459383 202.123437 L 208.959383 202.123437 L 208.959383 208.123437 L 211.459383 208.123437 L 211.459383 202.123437" stroke="gray" fill="white" stroke-width="1px"></path><path d="M 211.459383 196.123437 L 208.959383 196.123437 L 208.959383 202.123437 L 211.459383 202.123437 L 211.459383 196.123437" stroke="gray" fill="white" stroke-width="1px"></path><path d="M 271.459383 214.123437 L 268.959383 214.123437 L 268.959383 220.123437 L 271.459383 220.123437 L 271.459383 214.123437" stroke="gray" fill="white" stroke-width="1px"></path><path d="M 271.459383 208.123437 L 268.959383 208.123437 L 268.959383 214.123437 L 271.459383 214.123437 L 271.459383 208.123437" stroke="gray" fill="white" stroke-width="1px"></path><path d="M 271.459383 202.123437 L 268.959383 202.123437 L 268.959383 208.123437 L 271.459383 208.123437 L 271.459383 202.123437" stroke="gray" fill="white" stroke-width="1px"></path><path d="M 271.459383 196.123437 L 268.959383 196.123437 L 268.959383 202.123437 L 271.459383 202.123437 L 271.459383 196.123437" stroke="gray" fill="white" stroke-width="1px"></path><path d="M 259.459383 214.123437 L 256.959383 214.123437 L 256.959383 220.123437 L 259.459383 220.123437 L 259.459383 214.123437" stroke="gray" fill="white" stroke-width="1px"></path><path d="M 259.459383 208.123437 L 256.959383 208.123437 L 256.959383 214.123437 L 259.459383 214.123437 L 259.459383 208.123437" stroke="gray" fill="white" stroke-width="1px"></path><path d="M 259.459383 202.123437 L 256.959383 202.123437 L 256.959383 208.123437 L 259.459383 208.123437 L 259.459383 202.123437" stroke="gray" fill="white" stroke-width="1px"></path><path d="M 259.459383 196.123437 L 256.959383 196.123437 L 256.959383 202.123437 L 259.459383 202.123437 L 259.459383 196.123437" stroke="gray" fill="white" stroke-width="1px"></path><path d="M 247.459383 214.123437 L 244.959383 214.123437 L 244.959383 220.123437 L 247.459383 220.123437 L 247.459383 214.123437" stroke="gray" fill="white" stroke-width="1px"></path><path d="M 247.459383 208.123437 L 244.959383 208.123437 L 244.959383 214.123437 L 247.459383 214.123437 L 247.459383 208.123437" stroke="gray" fill="white" stroke-width="1px"></path><path d="M 247.459383 202.123437 L 244.959383 202.123437 L 244.959383 208.123437 L 247.459383 208.123437 L 247.459383 202.123437" stroke="gray" fill="white" stroke-width="1px"></path><path d="M 247.459383 196.123437 L 244.959383 196.123437 L 244.959383 202.123437 L 247.459383 202.123437 L 247.459383 196.123437" stroke="gray" fill="white" stroke-width="1px"></path><path d="M 235.459383 214.123437 L 232.959383 214.123437 L 232.959383 220.123437 L 235.459383 220.123437 L 235.459383 214.123437" stroke="gray" fill="white" stroke-width="1px"></path><path d="M 235.459383 208.123437 L 232.959383 208.123437 L 232.959383 214.123437 L 235.459383 214.123437 L 235.459383 208.123437" stroke="gray" fill="white" stroke-width="1px"></path><path d="M 235.459383 202.123437 L 232.959383 202.123437 L 232.959383 208.123437 L 235.459383 208.123437 L 235.459383 202.123437" stroke="gray" fill="white" stroke-width="1px"></path><path d="M 235.459383 196.123437 L 232.959383 196.123437 L 232.959383 202.123437 L 235.459383 202.123437 L 235.459383 196.123437" stroke="gray" fill="white" stroke-width="1px"></path><path d="M 55.459383 170.171088 L 57.959383 170.171088 L 57.959383 176.171088 L 55.459383 176.171088 L 55.459383 170.171088" stroke="gray" fill="white" stroke-width="1px"></path><path d="M 55.459383 164.171088 L 57.959383 164.171088 L 57.959383 170.171088 L 55.459383 170.171088 L 55.459383 164.171088" stroke="gray" fill="white" stroke-width="1px"></path><path d="M 55.459383 158.171088 L 57.959383 158.171088 L 57.959383 164.171088 L 55.459383 164.171088 L 55.459383 158.171088" stroke="gray" fill="white" stroke-width="1px"></path><path d="M 55.459383 152.171088 L 57.959383 152.171088 L 57.959383 158.171088 L 55.459383 158.171088 L 55.459383 152.171088" stroke="gray" fill="white" stroke-width="1px"></path><path d="M 55.459383 146.171088 L 57.959383 146.171088 L 57.959383 152.171088 L 55.459383 152.171088 L 55.459383 146.171088" stroke="gray" fill="white" stroke-width="1px"></path><path d="M 43.459383 170.366516 L 45.959383 170.366516 L 45.959383 176.366516 L 43.459383 176.366516 L 43.459383 170.366516" stroke="gray" fill="white" stroke-width="1px"></path><path d="M 43.459383 164.366516 L 45.959383 164.366516 L 45.959383 170.366516 L 43.459383 170.366516 L 43.459383 164.366516" stroke="gray" fill="white" stroke-width="1px"></path><path d="M 43.459383 158.366516 L 45.959383 158.366516 L 45.959383 164.366516 L 43.459383 164.366516 L 43.459383 158.366516" stroke="gray" fill="white" stroke-width="1px"></path><path d="M 43.459383 152.366516 L 45.959383 152.366516 L 45.959383 158.366516 L 43.459383 158.366516 L 43.459383 152.366516" stroke="gray" fill="white" stroke-width="1px"></path><path d="M 43.459383 146.366516 L 45.959383 146.366516 L 45.959383 152.366516 L 43.459383 152.366516 L 43.459383 146.366516" stroke="gray" fill="white" stroke-width="1px"></path><path d="M 31.459383 170.561945 L 33.959383 170.561945 L 33.959383 176.561945 L 31.459383 176.561945 L 31.459383 170.561945" stroke="gray" fill="white" stroke-width="1px"></path><path d="M 31.459383 164.561945 L 33.959383 164.561945 L 33.959383 170.561945 L 31.459383 170.561945 L 31.459383 164.561945" stroke="gray" fill="white" stroke-width="1px"></path><path d="M 31.459383 158.561945 L 33.959383 158.561945 L 33.959383 164.561945 L 31.459383 164.561945 L 31.459383 158.561945" stroke="gray" fill="white" stroke-width="1px"></path><path d="M 31.459383 152.561945 L 33.959383 152.561945 L 33.959383 158.561945 L 31.459383 158.561945 L 31.459383 152.561945" stroke="gray" fill="white" stroke-width="1px"></path><path d="M 31.459383 146.561945 L 33.959383 146.561945 L 33.959383 152.561945 L 31.459383 152.561945 L 31.459383 146.561945" stroke="gray" fill="white" stroke-width="1px"></path><path d="M 19.459383 170.757373 L 21.959383 170.757373 L 21.959383 176.757373 L 19.459383 176.757373 L 19.459383 170.757373" stroke="gray" fill="white" stroke-width="1px"></path><path d="M 19.459383 164.757373 L 21.959383 164.757373 L 21.959383 170.757373 L 19.459383 170.757373 L 19.459383 164.757373" stroke="gray" fill="white" stroke-width="1px"></path><path d="M 19.459383 158.757373 L 21.959383 158.757373 L 21.959383 164.757373 L 19.459383 164.757373 L 19.459383 158.757373" stroke="gray" fill="white" stroke-width="1px"></path><path d="M 19.459383 152.757373 L 21.959383 152.757373 L 21.959383 158.757373 L 19.459383 158.757373 L 19.459383 152.757373" stroke="gray" fill="white" stroke-width="1px"></path><path d="M 19.459383 146.757373 L 21.959383 146.757373 L 21.959383 152.757373 L 19.459383 152.757373 L 19.459383 146.757373" stroke="gray" fill="white" stroke-width="1px"></path><path d="M 55.459383 220.180625 L 57.959383 220.180625 L 57.959383 226.180625 L 55.459383 226.180625 L 55.459383 220.180625" stroke="gray" fill="white" stroke-width="1px"></path><path d="M 55.459383 214.180625 L 57.959383 214.180625 L 57.959383 220.180625 L 55.459383 220.180625 L 55.459383 214.180625" stroke="gray" fill="white" stroke-width="1px"></path><path d="M 55.459383 208.180625 L 57.959383 208.180625 L 57.959383 214.180625 L 55.459383 214.180625 L 55.459383 208.180625" stroke="gray" fill="white" stroke-width="1px"></path><path d="M 55.459383 202.180625 L 57.959383 202.180625 L 57.959383 208.180625 L 55.459383 208.180625 L 55.459383 202.180625" stroke="gray" fill="white" stroke-width="1px"></path><path d="M 43.459383 220.180625 L 45.959383 220.180625 L 45.959383 226.180625 L 43.459383 226.180625 L 43.459383 220.180625" stroke="gray" fill="white" stroke-width="1px"></path><path d="M 43.459383 214.180625 L 45.959383 214.180625 L 45.959383 220.180625 L 43.459383 220.180625 L 43.459383 214.180625" stroke="gray" fill="white" stroke-width="1px"></path><path d="M 43.459383 208.180625 L 45.959383 208.180625 L 45.959383 214.180625 L 43.459383 214.180625 L 43.459383 208.180625" stroke="gray" fill="white" stroke-width="1px"></path><path d="M 43.459383 202.180625 L 45.959383 202.180625 L 45.959383 208.180625 L 43.459383 208.180625 L 43.459383 202.180625" stroke="gray" fill="white" stroke-width="1px"></path><path d="M 31.459383 220.180625 L 33.959383 220.180625 L 33.959383 226.180625 L 31.459383 226.180625 L 31.459383 220.180625" stroke="gray" fill="white" stroke-width="1px"></path><path d="M 31.459383 214.180625 L 33.959383 214.180625 L 33.959383 220.180625 L 31.459383 220.180625 L 31.459383 214.180625" stroke="gray" fill="white" stroke-width="1px"></path><path d="M 31.459383 208.180625 L 33.959383 208.180625 L 33.959383 214.180625 L 31.459383 214.180625 L 31.459383 208.180625" stroke="gray" fill="white" stroke-width="1px"></path><path d="M 31.459383 202.180625 L 33.959383 202.180625 L 33.959383 208.180625 L 31.459383 208.180625 L 31.459383 202.180625" stroke="gray" fill="white" stroke-width="1px"></path><path d="M 19.459383 220.180625 L 21.959383 220.180625 L 21.959383 226.180625 L 19.459383 226.180625 L 19.459383 220.180625" stroke="gray" fill="white" stroke-width="1px"></path><path d="M 19.459383 214.180625 L 21.959383 214.180625 L 21.959383 220.180625 L 19.459383 220.180625 L 19.459383 214.180625" stroke="gray" fill="white" stroke-width="1px"></path><path d="M 19.459383 208.180625 L 21.959383 208.180625 L 21.959383 214.180625 L 19.459383 214.180625 L 19.459383 208.180625" stroke="gray" fill="white" stroke-width="1px"></path><path d="M 19.459383 202.180625 L 21.959383 202.180625 L 21.959383 208.180625 L 19.459383 208.180625 L 19.459383 202.180625" stroke="gray" fill="white" stroke-width="1px"></path><path d="M 115.459383 208.123437 L 117.959383 208.123437 L 117.959383 214.123437 L 115.459383 214.123437 L 115.459383 208.123437" stroke="gray" fill="white" stroke-width="1px"></path><path d="M 115.459383 202.123437 L 117.959383 202.123437 L 117.959383 208.123437 L 115.459383 208.123437 L 115.459383 202.123437" stroke="gray" fill="white" stroke-width="1px"></path><path d="M 115.459383 196.123437 L 117.959383 196.123437 L 117.959383 202.123437 L 115.459383 202.123437 L 115.459383 196.123437" stroke="gray" fill="white" stroke-width="1px"></path><path d="M 103.459383 214.123437 L 105.959383 214.123437 L 105.959383 220.123437 L 103.459383 220.123437 L 103.459383 214.123437" stroke="gray" fill="white" stroke-width="1px"></path><path d="M 103.459383 208.123437 L 105.959383 208.123437 L 105.959383 214.123437 L 103.459383 214.123437 L 103.459383 208.123437" stroke="gray" fill="white" stroke-width="1px"></path><path d="M 103.459383 202.123437 L 105.959383 202.123437 L 105.959383 208.123437 L 103.459383 208.123437 L 103.459383 202.123437" stroke="gray" fill="white" stroke-width="1px"></path><path d="M 103.459383 196.123437 L 105.959383 196.123437 L 105.959383 202.123437 L 103.459383 202.123437 L 103.459383 196.123437" stroke="gray" fill="white" stroke-width="1px"></path><path d="M 163.459383 214.123437 L 165.959383 214.123437 L 165.959383 220.123437 L 163.459383 220.123437 L 163.459383 214.123437" stroke="gray" fill="white" stroke-width="1px"></path><path d="M 163.459383 208.123437 L 165.959383 208.123437 L 165.959383 214.123437 L 163.459383 214.123437 L 163.459383 208.123437" stroke="gray" fill="white" stroke-width="1px"></path><path d="M 163.459383 202.123437 L 165.959383 202.123437 L 165.959383 208.123437 L 163.459383 208.123437 L 163.459383 202.123437" stroke="gray" fill="white" stroke-width="1px"></path><path d="M 163.459383 196.123437 L 165.959383 196.123437 L 165.959383 202.123437 L 163.459383 202.123437 L 163.459383 196.123437" stroke="gray" fill="white" stroke-width="1px"></path><path d="M 151.459383 214.123437 L 153.959383 214.123437 L 153.959383 220.123437 L 151.459383 220.123437 L 151.459383 214.123437" stroke="gray" fill="white" stroke-width="1px"></path><path d="M 151.459383 208.123437 L 153.959383 208.123437 L 153.959383 214.123437 L 151.459383 214.123437 L 151.459383 208.123437" stroke="gray" fill="white" stroke-width="1px"></path><path d="M 151.459383 202.123437 L 153.959383 202.123437 L 153.959383 208.123437 L 151.459383 208.123437 L 151.459383 202.123437" stroke="gray" fill="white" stroke-width="1px"></path><path d="M 151.459383 196.123437 L 153.959383 196.123437 L 153.959383 202.123437 L 151.459383 202.123437 L 151.459383 196.123437" stroke="gray" fill="white" stroke-width="1px"></path><path d="M 223.459383 202.123437 L 225.959383 202.123437 L 225.959383 208.123437 L 223.459383 208.123437 L 223.459383 202.123437" stroke="gray" fill="white" stroke-width="1px"></path><path d="M 223.459383 196.123437 L 225.959383 196.123437 L 225.959383 202.123437 L 223.459383 202.123437 L 223.459383 196.123437" stroke="gray" fill="white" stroke-width="1px"></path><path d="M 211.459383 208.123437 L 213.959383 208.123437 L 213.959383 214.123437 L 211.459383 214.123437 L 211.459383 208.123437" stroke="gray" fill="white" stroke-width="1px"></path><path d="M 211.459383 202.123437 L 213.959383 202.123437 L 213.959383 208.123437 L 211.459383 208.123437 L 211.459383 202.123437" stroke="gray" fill="white" stroke-width="1px"></path><path d="M 211.459383 196.123437 L 213.959383 196.123437 L 213.959383 202.123437 L 211.459383 202.123437 L 211.459383 196.123437" stroke="gray" fill="white" stroke-width="1px"></path><path d="M 271.459383 214.123437 L 273.959383 214.123437 L 273.959383 220.123437 L 271.459383 220.123437 L 271.459383 214.123437" stroke="gray" fill="white" stroke-width="1px"></path><path d="M 271.459383 208.123437 L 273.959383 208.123437 L 273.959383 214.123437 L 271.459383 214.123437 L 271.459383 208.123437" stroke="gray" fill="white" stroke-width="1px"></path><path d="M 271.459383 202.123437 L 273.959383 202.123437 L 273.959383 208.123437 L 271.459383 208.123437 L 271.459383 202.123437" stroke="gray" fill="white" stroke-width="1px"></path><path d="M 271.459383 196.123437 L 273.959383 196.123437 L 273.959383 202.123437 L 271.459383 202.123437 L 271.459383 196.123437" stroke="gray" fill="white" stroke-width="1px"></path><path d="M 259.459383 214.123437 L 261.959383 214.123437 L 261.959383 220.123437 L 259.459383 220.123437 L 259.459383 214.123437" stroke="gray" fill="white" stroke-width="1px"></path><path d="M 259.459383 208.123437 L 261.959383 208.123437 L 261.959383 214.123437 L 259.459383 214.123437 L 259.459383 208.123437" stroke="gray" fill="white" stroke-width="1px"></path><path d="M 259.459383 202.123437 L 261.959383 202.123437 L 261.959383 208.123437 L 259.459383 208.123437 L 259.459383 202.123437" stroke="gray" fill="white" stroke-width="1px"></path><path d="M 259.459383 196.123437 L 261.959383 196.123437 L 261.959383 202.123437 L 259.459383 202.123437 L 259.459383 196.123437" stroke="gray" fill="white" stroke-width="1px"></path><path d="M 247.459383 214.123437 L 249.959383 214.123437 L 249.959383 220.123437 L 247.459383 220.123437 L 247.459383 214.123437" stroke="gray" fill="white" stroke-width="1px"></path><path d="M 247.459383 208.123437 L 249.959383 208.123437 L 249.959383 214.123437 L 247.459383 214.123437 L 247.459383 208.123437" stroke="gray" fill="white" stroke-width="1px"></path><path d="M 247.459383 202.123437 L 249.959383 202.123437 L 249.959383 208.123437 L 247.459383 208.123437 L 247.459383 202.123437" stroke="gray" fill="white" stroke-width="1px"></path><path d="M 247.459383 196.123437 L 249.959383 196.123437 L 249.959383 202.123437 L 247.459383 202.123437 L 247.459383 196.123437" stroke="gray" fill="white" stroke-width="1px"></path><path d="M 235.459383 214.123437 L 237.959383 214.123437 L 237.959383 220.123437 L 235.459383 220.123437 L 235.459383 214.123437" stroke="gray" fill="white" stroke-width="1px"></path><path d="M 235.459383 208.123437 L 237.959383 208.123437 L 237.959383 214.123437 L 235.459383 214.123437 L 235.459383 208.123437" stroke="gray" fill="white" stroke-width="1px"></path><path d="M 235.459383 202.123437 L 237.959383 202.123437 L 237.959383 208.123437 L 235.459383 208.123437 L 235.459383 202.123437" stroke="gray" fill="white" stroke-width="1px"></path><path d="M 235.459383 196.123437 L 237.959383 196.123437 L 237.959383 202.123437 L 235.459383 202.123437 L 235.459383 196.123437" stroke="gray" fill="white" stroke-width="1px"></path><path d="M 266.767143 160.123437 L 266.767143 157.623437 L 260.767143 157.623437 L 260.767143 160.123437 L 266.767143 160.123437" stroke="gray" fill="white" stroke-width="1px"></path><path d="M 272.767143 160.123437 L 272.767143 157.623437 L 266.767143 157.623437 L 266.767143 160.123437 L 272.767143 160.123437" stroke="gray" fill="white" stroke-width="1px"></path><path d="M 278.767143 160.123437 L 278.767143 157.623437 L 272.767143 157.623437 L 272.767143 160.123437 L 278.767143 160.123437" stroke="gray" fill="white" stroke-width="1px"></path><path d="M 266.767143 148.123437 L 266.767143 145.623437 L 260.767143 145.623437 L 260.767143 148.123437 L 266.767143 148.123437" stroke="gray" fill="white" stroke-width="1px"></path><path d="M 272.767143 148.123437 L 272.767143 145.623437 L 266.767143 145.623437 L 266.767143 148.123437 L 272.767143 148.123437" stroke="gray" fill="white" stroke-width="1px"></path><path d="M 278.767143 148.123437 L 278.767143 145.623437 L 272.767143 145.623437 L 272.767143 148.123437 L 278.767143 148.123437" stroke="gray" fill="white" stroke-width="1px"></path><path d="M 266.767143 136.123437 L 266.767143 133.623437 L 260.767143 133.623437 L 260.767143 136.123437 L 266.767143 136.123437" stroke="gray" fill="white" stroke-width="1px"></path><path d="M 272.767143 136.123437 L 272.767143 133.623437 L 266.767143 133.623437 L 266.767143 136.123437 L 272.767143 136.123437" stroke="gray" fill="white" stroke-width="1px"></path><path d="M 278.767143 136.123437 L 278.767143 133.623437 L 272.767143 133.623437 L 272.767143 136.123437 L 278.767143 136.123437" stroke="gray" fill="white" stroke-width="1px"></path><path d="M 266.767143 160.123437 L 266.767143 162.623437 L 260.767143 162.623437 L 260.767143 160.123437 L 266.767143 160.123437" stroke="gray" fill="white" stroke-width="1px"></path><path d="M 272.767143 160.123437 L 272.767143 162.623437 L 266.767143 162.623437 L 266.767143 160.123437 L 272.767143 160.123437" stroke="gray" fill="white" stroke-width="1px"></path><path d="M 278.767143 160.123437 L 278.767143 162.623437 L 272.767143 162.623437 L 272.767143 160.123437 L 278.767143 160.123437" stroke="gray" fill="white" stroke-width="1px"></path><path d="M 266.767143 148.123437 L 266.767143 150.623437 L 260.767143 150.623437 L 260.767143 148.123437 L 266.767143 148.123437" stroke="gray" fill="white" stroke-width="1px"></path><path d="M 272.767143 148.123437 L 272.767143 150.623437 L 266.767143 150.623437 L 266.767143 148.123437 L 272.767143 148.123437" stroke="gray" fill="white" stroke-width="1px"></path><path d="M 278.767143 148.123437 L 278.767143 150.623437 L 272.767143 150.623437 L 272.767143 148.123437 L 278.767143 148.123437" stroke="gray" fill="white" stroke-width="1px"></path><path d="M 266.767143 136.123437 L 266.767143 138.623437 L 260.767143 138.623437 L 260.767143 136.123437 L 266.767143 136.123437" stroke="gray" fill="white" stroke-width="1px"></path><path d="M 272.767143 136.123437 L 272.767143 138.623437 L 266.767143 138.623437 L 266.767143 136.123437 L 272.767143 136.123437" stroke="gray" fill="white" stroke-width="1px"></path><path d="M 278.767143 136.123437 L 278.767143 138.623437 L 272.767143 138.623437 L 272.767143 136.123437 L 278.767143 136.123437" stroke="gray" fill="white" stroke-width="1px"></path><path d="M 271.459383 45.620930 L 268.959383 45.620930 L 268.959383 51.620930 L 271.459383 51.620930 L 271.459383 45.620930" stroke="gray" fill="white" stroke-width="1px"></path><path d="M 271.459383 39.620930 L 268.959383 39.620930 L 268.959383 45.620930 L 271.459383 45.620930 L 271.459383 39.620930" stroke="gray" fill="white" stroke-width="1px"></path><path d="M 271.459383 33.620930 L 268.959383 33.620930 L 268.959383 39.620930 L 271.459383 39.620930 L 271.459383 33.620930" stroke="gray" fill="white" stroke-width="1px"></path><path d="M 271.459383 27.620930 L 268.959383 27.620930 L 268.959383 33.620930 L 271.459383 33.620930 L 271.459383 27.620930" stroke="gray" fill="white" stroke-width="1px"></path><path d="M 271.459383 21.620930 L 268.959383 21.620930 L 268.959383 27.620930 L 271.459383 27.620930 L 271.459383 21.620930" stroke="gray" fill="white" stroke-width="1px"></path><path d="M 271.459383 15.620930 L 268.959383 15.620930 L 268.959383 21.620930 L 271.459383 21.620930 L 271.459383 15.620930" stroke="gray" fill="white" stroke-width="1px"></path><path d="M 259.459383 46.155455 L 256.959383 46.155455 L 256.959383 52.155455 L 259.459383 52.155455 L 259.459383 46.155455" stroke="gray" fill="white" stroke-width="1px"></path><path d="M 259.459383 40.155455 L 256.959383 40.155455 L 256.959383 46.155455 L 259.459383 46.155455 L 259.459383 40.155455" stroke="gray" fill="white" stroke-width="1px"></path><path d="M 259.459383 34.155455 L 256.959383 34.155455 L 256.959383 40.155455 L 259.459383 40.155455 L 259.459383 34.155455" stroke="gray" fill="white" stroke-width="1px"></path><path d="M 259.459383 28.155455 L 256.959383 28.155455 L 256.959383 34.155455 L 259.459383 34.155455 L 259.459383 28.155455" stroke="gray" fill="white" stroke-width="1px"></path><path d="M 259.459383 22.155455 L 256.959383 22.155455 L 256.959383 28.155455 L 259.459383 28.155455 L 259.459383 22.155455" stroke="gray" fill="white" stroke-width="1px"></path><path d="M 259.459383 16.155455 L 256.959383 16.155455 L 256.959383 22.155455 L 259.459383 22.155455 L 259.459383 16.155455" stroke="gray" fill="white" stroke-width="1px"></path><path d="M 247.459383 46.689979 L 244.959383 46.689979 L 244.959383 52.689979 L 247.459383 52.689979 L 247.459383 46.689979" stroke="gray" fill="white" stroke-width="1px"></path><path d="M 247.459383 40.689979 L 244.959383 40.689979 L 244.959383 46.689979 L 247.459383 46.689979 L 247.459383 40.689979" stroke="gray" fill="white" stroke-width="1px"></path><path d="M 247.459383 34.689979 L 244.959383 34.689979 L 244.959383 40.689979 L 247.459383 40.689979 L 247.459383 34.689979" stroke="gray" fill="white" stroke-width="1px"></path><path d="M 247.459383 28.689979 L 244.959383 28.689979 L 244.959383 34.689979 L 247.459383 34.689979 L 247.459383 28.689979" stroke="gray" fill="white" stroke-width="1px"></path><path d="M 247.459383 22.689979 L 244.959383 22.689979 L 244.959383 28.689979 L 247.459383 28.689979 L 247.459383 22.689979" stroke="gray" fill="white" stroke-width="1px"></path><path d="M 247.459383 16.689979 L 244.959383 16.689979 L 244.959383 22.689979 L 247.459383 22.689979 L 247.459383 16.689979" stroke="gray" fill="white" stroke-width="1px"></path><path d="M 175.459383 101.033125 L 172.959383 101.033125 L 172.959383 107.033125 L 175.459383 107.033125 L 175.459383 101.033125" stroke="gray" fill="white" stroke-width="1px"></path><path d="M 163.459383 101.033125 L 160.959383 101.033125 L 160.959383 107.033125 L 163.459383 107.033125 L 163.459383 101.033125" stroke="gray" fill="white" stroke-width="1px"></path><path d="M 151.459383 101.033125 L 148.959383 101.033125 L 148.959383 107.033125 L 151.459383 107.033125 L 151.459383 101.033125" stroke="gray" fill="white" stroke-width="1px"></path><path d="M 139.459383 101.033125 L 136.959383 101.033125 L 136.959383 107.033125 L 139.459383 107.033125 L 139.459383 101.033125" stroke="gray" fill="white" stroke-width="1px"></path><path d="M 127.459383 101.033125 L 124.959383 101.033125 L 124.959383 107.033125 L 127.459383 107.033125 L 127.459383 101.033125" stroke="gray" fill="white" stroke-width="1px"></path><path d="M 127.459383 95.033125 L 124.959383 95.033125 L 124.959383 101.033125 L 127.459383 101.033125 L 127.459383 95.033125" stroke="gray" fill="white" stroke-width="1px"></path><path d="M 127.459383 89.033125 L 124.959383 89.033125 L 124.959383 95.033125 L 127.459383 95.033125 L 127.459383 89.033125" stroke="gray" fill="white" stroke-width="1px"></path><path d="M 127.459383 83.033125 L 124.959383 83.033125 L 124.959383 89.033125 L 127.459383 89.033125 L 127.459383 83.033125" stroke="gray" fill="white" stroke-width="1px"></path><path d="M 115.459383 101.033125 L 112.959383 101.033125 L 112.959383 107.033125 L 115.459383 107.033125 L 115.459383 101.033125" stroke="gray" fill="white" stroke-width="1px"></path><path d="M 115.459383 95.033125 L 112.959383 95.033125 L 112.959383 101.033125 L 115.459383 101.033125 L 115.459383 95.033125" stroke="gray" fill="white" stroke-width="1px"></path><path d="M 115.459383 89.033125 L 112.959383 89.033125 L 112.959383 95.033125 L 115.459383 95.033125 L 115.459383 89.033125" stroke="gray" fill="white" stroke-width="1px"></path><path d="M 115.459383 83.033125 L 112.959383 83.033125 L 112.959383 89.033125 L 115.459383 89.033125 L 115.459383 83.033125" stroke="gray" fill="white" stroke-width="1px"></path><path d="M 55.459383 26.733028 L 52.959383 26.733028 L 52.959383 32.733028 L 55.459383 32.733028 L 55.459383 26.733028" stroke="gray" fill="white" stroke-width="1px"></path><path d="M 55.459383 20.733028 L 52.959383 20.733028 L 52.959383 26.733028 L 55.459383 26.733028 L 55.459383 20.733028" stroke="gray" fill="white" stroke-width="1px"></path><path d="M 55.459383 14.733028 L 52.959383 14.733028 L 52.959383 20.733028 L 55.459383 20.733028 L 55.459383 14.733028" stroke="gray" fill="white" stroke-width="1px"></path><path d="M 43.459383 27.654139 L 40.959383 27.654139 L 40.959383 33.654139 L 43.459383 33.654139 L 43.459383 27.654139" stroke="gray" fill="white" stroke-width="1px"></path><path d="M 43.459383 21.654139 L 40.959383 21.654139 L 40.959383 27.654139 L 43.459383 27.654139 L 43.459383 21.654139" stroke="gray" fill="white" stroke-width="1px"></path><path d="M 43.459383 15.654139 L 40.959383 15.654139 L 40.959383 21.654139 L 43.459383 21.654139 L 43.459383 15.654139" stroke="gray" fill="white" stroke-width="1px"></path><path d="M 31.459383 28.575249 L 28.959383 28.575249 L 28.959383 34.575249 L 31.459383 34.575249 L 31.459383 28.575249" stroke="gray" fill="white" stroke-width="1px"></path><path d="M 31.459383 22.575249 L 28.959383 22.575249 L 28.959383 28.575249 L 31.459383 28.575249 L 31.459383 22.575249" stroke="gray" fill="white" stroke-width="1px"></path><path d="M 31.459383 16.575249 L 28.959383 16.575249 L 28.959383 22.575249 L 31.459383 22.575249 L 31.459383 16.575249" stroke="gray" fill="white" stroke-width="1px"></path><path d="M 19.459383 29.496360 L 16.959383 29.496360 L 16.959383 35.496360 L 19.459383 35.496360 L 19.459383 29.496360" stroke="gray" fill="white" stroke-width="1px"></path><path d="M 19.459383 23.496360 L 16.959383 23.496360 L 16.959383 29.496360 L 19.459383 29.496360 L 19.459383 23.496360" stroke="gray" fill="white" stroke-width="1px"></path><path d="M 19.459383 17.496360 L 16.959383 17.496360 L 16.959383 23.496360 L 19.459383 23.496360 L 19.459383 17.496360" stroke="gray" fill="white" stroke-width="1px"></path><path d="M 271.459383 45.620930 L 273.959383 45.620930 L 273.959383 51.620930 L 271.459383 51.620930 L 271.459383 45.620930" stroke="gray" fill="white" stroke-width="1px"></path><path d="M 271.459383 39.620930 L 273.959383 39.620930 L 273.959383 45.620930 L 271.459383 45.620930 L 271.459383 39.620930" stroke="gray" fill="white" stroke-width="1px"></path><path d="M 271.459383 33.620930 L 273.959383 33.620930 L 273.959383 39.620930 L 271.459383 39.620930 L 271.459383 33.620930" stroke="gray" fill="white" stroke-width="1px"></path><path d="M 271.459383 27.620930 L 273.959383 27.620930 L 273.959383 33.620930 L 271.459383 33.620930 L 271.459383 27.620930" stroke="gray" fill="white" stroke-width="1px"></path><path d="M 271.459383 21.620930 L 273.959383 21.620930 L 273.959383 27.620930 L 271.459383 27.620930 L 271.459383 21.620930" stroke="gray" fill="white" stroke-width="1px"></path><path d="M 271.459383 15.620930 L 273.959383 15.620930 L 273.959383 21.620930 L 271.459383 21.620930 L 271.459383 15.620930" stroke="gray" fill="white" stroke-width="1px"></path><path d="M 259.459383 46.155455 L 261.959383 46.155455 L 261.959383 52.155455 L 259.459383 52.155455 L 259.459383 46.155455" stroke="gray" fill="white" stroke-width="1px"></path><path d="M 259.459383 40.155455 L 261.959383 40.155455 L 261.959383 46.155455 L 259.459383 46.155455 L 259.459383 40.155455" stroke="gray" fill="white" stroke-width="1px"></path><path d="M 259.459383 34.155455 L 261.959383 34.155455 L 261.959383 40.155455 L 259.459383 40.155455 L 259.459383 34.155455" stroke="gray" fill="white" stroke-width="1px"></path><path d="M 259.459383 28.155455 L 261.959383 28.155455 L 261.959383 34.155455 L 259.459383 34.155455 L 259.459383 28.155455" stroke="gray" fill="white" stroke-width="1px"></path><path d="M 259.459383 22.155455 L 261.959383 22.155455 L 261.959383 28.155455 L 259.459383 28.155455 L 259.459383 22.155455" stroke="gray" fill="white" stroke-width="1px"></path><path d="M 259.459383 16.155455 L 261.959383 16.155455 L 261.959383 22.155455 L 259.459383 22.155455 L 259.459383 16.155455" stroke="gray" fill="white" stroke-width="1px"></path><path d="M 247.459383 46.689979 L 249.959383 46.689979 L 249.959383 52.689979 L 247.459383 52.689979 L 247.459383 46.689979" stroke="gray" fill="white" stroke-width="1px"></path><path d="M 247.459383 40.689979 L 249.959383 40.689979 L 249.959383 46.689979 L 247.459383 46.689979 L 247.459383 40.689979" stroke="gray" fill="white" stroke-width="1px"></path><path d="M 247.459383 34.689979 L 249.959383 34.689979 L 249.959383 40.689979 L 247.459383 40.689979 L 247.459383 34.689979" stroke="gray" fill="white" stroke-width="1px"></path><path d="M 247.459383 28.689979 L 249.959383 28.689979 L 249.959383 34.689979 L 247.459383 34.689979 L 247.459383 28.689979" stroke="gray" fill="white" stroke-width="1px"></path><path d="M 247.459383 22.689979 L 249.959383 22.689979 L 249.959383 28.689979 L 247.459383 28.689979 L 247.459383 22.689979" stroke="gray" fill="white" stroke-width="1px"></path><path d="M 247.459383 16.689979 L 249.959383 16.689979 L 249.959383 22.689979 L 247.459383 22.689979 L 247.459383 16.689979" stroke="gray" fill="white" stroke-width="1px"></path><path d="M 175.459383 101.033125 L 177.959383 101.033125 L 177.959383 107.033125 L 175.459383 107.033125 L 175.459383 101.033125" stroke="gray" fill="white" stroke-width="1px"></path><path d="M 163.459383 101.033125 L 165.959383 101.033125 L 165.959383 107.033125 L 163.459383 107.033125 L 163.459383 101.033125" stroke="gray" fill="white" stroke-width="1px"></path><path d="M 151.459383 101.033125 L 153.959383 101.033125 L 153.959383 107.033125 L 151.459383 107.033125 L 151.459383 101.033125" stroke="gray" fill="white" stroke-width="1px"></path><path d="M 139.459383 101.033125 L 141.959383 101.033125 L 141.959383 107.033125 L 139.459383 107.033125 L 139.459383 101.033125" stroke="gray" fill="white" stroke-width="1px"></path><path d="M 127.459383 101.033125 L 129.959383 101.033125 L 129.959383 107.033125 L 127.459383 107.033125 L 127.459383 101.033125" stroke="gray" fill="white" stroke-width="1px"></path><path d="M 127.459383 95.033125 L 129.959383 95.033125 L 129.959383 101.033125 L 127.459383 101.033125 L 127.459383 95.033125" stroke="gray" fill="white" stroke-width="1px"></path><path d="M 127.459383 89.033125 L 129.959383 89.033125 L 129.959383 95.033125 L 127.459383 95.033125 L 127.459383 89.033125" stroke="gray" fill="white" stroke-width="1px"></path><path d="M 127.459383 83.033125 L 129.959383 83.033125 L 129.959383 89.033125 L 127.459383 89.033125 L 127.459383 83.033125" stroke="gray" fill="white" stroke-width="1px"></path><path d="M 115.459383 101.033125 L 117.959383 101.033125 L 117.959383 107.033125 L 115.459383 107.033125 L 115.459383 101.033125" stroke="gray" fill="white" stroke-width="1px"></path><path d="M 115.459383 95.033125 L 117.959383 95.033125 L 117.959383 101.033125 L 115.459383 101.033125 L 115.459383 95.033125" stroke="gray" fill="white" stroke-width="1px"></path><path d="M 115.459383 89.033125 L 117.959383 89.033125 L 117.959383 95.033125 L 115.459383 95.033125 L 115.459383 89.033125" stroke="gray" fill="white" stroke-width="1px"></path><path d="M 115.459383 83.033125 L 117.959383 83.033125 L 117.959383 89.033125 L 115.459383 89.033125 L 115.459383 83.033125" stroke="gray" fill="white" stroke-width="1px"></path><path d="M 55.459383 26.733028 L 57.959383 26.733028 L 57.959383 32.733028 L 55.459383 32.733028 L 55.459383 26.733028" stroke="gray" fill="white" stroke-width="1px"></path><path d="M 55.459383 20.733028 L 57.959383 20.733028 L 57.959383 26.733028 L 55.459383 26.733028 L 55.459383 20.733028" stroke="gray" fill="white" stroke-width="1px"></path><path d="M 55.459383 14.733028 L 57.959383 14.733028 L 57.959383 20.733028 L 55.459383 20.733028 L 55.459383 14.733028" stroke="gray" fill="white" stroke-width="1px"></path><path d="M 43.459383 27.654139 L 45.959383 27.654139 L 45.959383 33.654139 L 43.459383 33.654139 L 43.459383 27.654139" stroke="gray" fill="white" stroke-width="1px"></path><path d="M 43.459383 21.654139 L 45.959383 21.654139 L 45.959383 27.654139 L 43.459383 27.654139 L 43.459383 21.654139" stroke="gray" fill="white" stroke-width="1px"></path><path d="M 43.459383 15.654139 L 45.959383 15.654139 L 45.959383 21.654139 L 43.459383 21.654139 L 43.459383 15.654139" stroke="gray" fill="white" stroke-width="1px"></path><path d="M 31.459383 28.575249 L 33.959383 28.575249 L 33.959383 34.575249 L 31.459383 34.575249 L 31.459383 28.575249" stroke="gray" fill="white" stroke-width="1px"></path><path d="M 31.459383 22.575249 L 33.959383 22.575249 L 33.959383 28.575249 L 31.459383 28.575249 L 31.459383 22.575249" stroke="gray" fill="white" stroke-width="1px"></path><path d="M 31.459383 16.575249 L 33.959383 16.575249 L 33.959383 22.575249 L 31.459383 22.575249 L 31.459383 16.575249" stroke="gray" fill="white" stroke-width="1px"></path><path d="M 19.459383 29.496360 L 21.959383 29.496360 L 21.959383 35.496360 L 19.459383 35.496360 L 19.459383 29.496360" stroke="gray" fill="white" stroke-width="1px"></path><path d="M 19.459383 23.496360 L 21.959383 23.496360 L 21.959383 29.496360 L 19.459383 29.496360 L 19.459383 23.496360" stroke="gray" fill="white" stroke-width="1px"></path><path d="M 19.459383 17.496360 L 21.959383 17.496360 L 21.959383 23.496360 L 19.459383 23.496360 L 19.459383 17.496360" stroke="gray" fill="white" stroke-width="1px"></path><path d="M 272.290511 101.263579 L 272.290511 98.763579 L 266.290511 98.763579 L 266.290511 101.263579 L 272.290511 101.263579" stroke="gray" fill="white" stroke-width="1px"></path><path d="M 278.290511 101.263579 L 278.290511 98.763579 L 272.290511 98.763579 L 272.290511 101.263579 L 278.290511 101.263579" stroke="gray" fill="white" stroke-width="1px"></path><path d="M 269.890976 89.263579 L 269.890976 86.763579 L 263.890976 86.763579 L 263.890976 89.263579 L 269.890976 89.263579" stroke="gray" fill="white" stroke-width="1px"></path><path d="M 275.890976 89.263579 L 275.890976 86.763579 L 269.890976 86.763579 L 269.890976 89.263579 L 275.890976 89.263579" stroke="gray" fill="white" stroke-width="1px"></path><path d="M 267.491441 77.263579 L 267.491441 74.763579 L 261.491441 74.763579 L 261.491441 77.263579 L 267.491441 77.263579" stroke="gray" fill="white" stroke-width="1px"></path><path d="M 273.491441 77.263579 L 273.491441 74.763579 L 267.491441 74.763579 L 267.491441 77.263579 L 273.491441 77.263579" stroke="gray" fill="white" stroke-width="1px"></path><path d="M 265.091906 65.263579 L 265.091906 62.763579 L 259.091906 62.763579 L 259.091906 65.263579 L 265.091906 65.263579" stroke="gray" fill="white" stroke-width="1px"></path><path d="M 271.091906 65.263579 L 271.091906 62.763579 L 265.091906 62.763579 L 265.091906 65.263579 L 271.091906 65.263579" stroke="gray" fill="white" stroke-width="1px"></path><path d="M 277.091906 65.263579 L 277.091906 62.763579 L 271.091906 62.763579 L 271.091906 65.263579 L 277.091906 65.263579" stroke="gray" fill="white" stroke-width="1px"></path><path d="M 222.454651 101.263579 L 222.454651 98.763579 L 216.454651 98.763579 L 216.454651 101.263579 L 222.454651 101.263579" stroke="gray" fill="white" stroke-width="1px"></path><path d="M 228.454651 101.263579 L 228.454651 98.763579 L 222.454651 98.763579 L 222.454651 101.263579 L 228.454651 101.263579" stroke="gray" fill="white" stroke-width="1px"></path><path d="M 234.454651 101.263579 L 234.454651 98.763579 L 228.454651 98.763579 L 228.454651 101.263579 L 234.454651 101.263579" stroke="gray" fill="white" stroke-width="1px"></path><path d="M 240.454651 101.263579 L 240.454651 98.763579 L 234.454651 98.763579 L 234.454651 101.263579 L 240.454651 101.263579" stroke="gray" fill="white" stroke-width="1px"></path><path d="M 226.923443 89.263579 L 226.923443 86.763579 L 220.923443 86.763579 L 220.923443 89.263579 L 226.923443 89.263579" stroke="gray" fill="white" stroke-width="1px"></path><path d="M 232.923443 89.263579 L 232.923443 86.763579 L 226.923443 86.763579 L 226.923443 89.263579 L 232.923443 89.263579" stroke="gray" fill="white" stroke-width="1px"></path><path d="M 233.737654 77.263579 L 233.737654 74.763579 L 227.737654 74.763579 L 227.737654 77.263579 L 233.737654 77.263579" stroke="gray" fill="white" stroke-width="1px"></path><path d="M 22.000000 101.263579 L 22.000000 98.763579 L 16.000000 98.763579 L 16.000000 101.263579 L 22.000000 101.263579" stroke="gray" fill="white" stroke-width="1px"></path><path d="M 28.000000 101.263579 L 28.000000 98.763579 L 22.000000 98.763579 L 22.000000 101.263579 L 28.000000 101.263579" stroke="gray" fill="white" stroke-width="1px"></path><path d="M 34.000000 101.263579 L 34.000000 98.763579 L 28.000000 98.763579 L 28.000000 101.263579 L 34.000000 101.263579" stroke="gray" fill="white" stroke-width="1px"></path><path d="M 40.000000 101.263579 L 40.000000 98.763579 L 34.000000 98.763579 L 34.000000 101.263579 L 40.000000 101.263579" stroke="gray" fill="white" stroke-width="1px"></path><path d="M 22.000000 89.263579 L 22.000000 86.763579 L 16.000000 86.763579 L 16.000000 89.263579 L 22.000000 89.263579" stroke="gray" fill="white" stroke-width="1px"></path><path d="M 28.000000 89.263579 L 28.000000 86.763579 L 22.000000 86.763579 L 22.000000 89.263579 L 28.000000 89.263579" stroke="gray" fill="white" stroke-width="1px"></path><path d="M 34.000000 89.263579 L 34.000000 86.763579 L 28.000000 86.763579 L 28.000000 89.263579 L 34.000000 89.263579" stroke="gray" fill="white" stroke-width="1px"></path><path d="M 40.000000 89.263579 L 40.000000 86.763579 L 34.000000 86.763579 L 34.000000 89.263579 L 40.000000 89.263579" stroke="gray" fill="white" stroke-width="1px"></path><path d="M 22.000000 77.263579 L 22.000000 74.763579 L 16.000000 74.763579 L 16.000000 77.263579 L 22.000000 77.263579" stroke="gray" fill="white" stroke-width="1px"></path><path d="M 28.000000 77.263579 L 28.000000 74.763579 L 22.000000 74.763579 L 22.000000 77.263579 L 28.000000 77.263579" stroke="gray" fill="white" stroke-width="1px"></path><path d="M 34.000000 77.263579 L 34.000000 74.763579 L 28.000000 74.763579 L 28.000000 77.263579 L 34.000000 77.263579" stroke="gray" fill="white" stroke-width="1px"></path><path d="M 40.000000 77.263579 L 40.000000 74.763579 L 34.000000 74.763579 L 34.000000 77.263579 L 40.000000 77.263579" stroke="gray" fill="white" stroke-width="1px"></path><path d="M 22.000000 65.263579 L 22.000000 62.763579 L 16.000000 62.763579 L 16.000000 65.263579 L 22.000000 65.263579" stroke="gray" fill="white" stroke-width="1px"></path><path d="M 28.000000 65.263579 L 28.000000 62.763579 L 22.000000 62.763579 L 22.000000 65.263579 L 28.000000 65.263579" stroke="gray" fill="white" stroke-width="1px"></path><path d="M 34.000000 65.263579 L 34.000000 62.763579 L 28.000000 62.763579 L 28.000000 65.263579 L 34.000000 65.263579" stroke="gray" fill="white" stroke-width="1px"></path><path d="M 40.000000 65.263579 L 40.000000 62.763579 L 34.000000 62.763579 L 34.000000 65.263579 L 40.000000 65.263579" stroke="gray" fill="white" stroke-width="1px"></path><path d="M 272.290511 101.263579 L 272.290511 103.763579 L 266.290511 103.763579 L 266.290511 101.263579 L 272.290511 101.263579" stroke="gray" fill="white" stroke-width="1px"></path><path d="M 278.290511 101.263579 L 278.290511 103.763579 L 272.290511 103.763579 L 272.290511 101.263579 L 278.290511 101.263579" stroke="gray" fill="white" stroke-width="1px"></path><path d="M 269.890976 89.263579 L 269.890976 91.763579 L 263.890976 91.763579 L 263.890976 89.263579 L 269.890976 89.263579" stroke="gray" fill="white" stroke-width="1px"></path><path d="M 275.890976 89.263579 L 275.890976 91.763579 L 269.890976 91.763579 L 269.890976 89.263579 L 275.890976 89.263579" stroke="gray" fill="white" stroke-width="1px"></path><path d="M 267.491441 77.263579 L 267.491441 79.763579 L 261.491441 79.763579 L 261.491441 77.263579 L 267.491441 77.263579" stroke="gray" fill="white" stroke-width="1px"></path><path d="M 273.491441 77.263579 L 273.491441 79.763579 L 267.491441 79.763579 L 267.491441 77.263579 L 273.491441 77.263579" stroke="gray" fill="white" stroke-width="1px"></path><path d="M 265.091906 65.263579 L 265.091906 67.763579 L 259.091906 67.763579 L 259.091906 65.263579 L 265.091906 65.263579" stroke="gray" fill="white" stroke-width="1px"></path><path d="M 271.091906 65.263579 L 271.091906 67.763579 L 265.091906 67.763579 L 265.091906 65.263579 L 271.091906 65.263579" stroke="gray" fill="white" stroke-width="1px"></path><path d="M 277.091906 65.263579 L 277.091906 67.763579 L 271.091906 67.763579 L 271.091906 65.263579 L 277.091906 65.263579" stroke="gray" fill="white" stroke-width="1px"></path><path d="M 222.454651 101.263579 L 222.454651 103.763579 L 216.454651 103.763579 L 216.454651 101.263579 L 222.454651 101.263579" stroke="gray" fill="white" stroke-width="1px"></path><path d="M 228.454651 101.263579 L 228.454651 103.763579 L 222.454651 103.763579 L 222.454651 101.263579 L 228.454651 101.263579" stroke="gray" fill="white" stroke-width="1px"></path><path d="M 234.454651 101.263579 L 234.454651 103.763579 L 228.454651 103.763579 L 228.454651 101.263579 L 234.454651 101.263579" stroke="gray" fill="white" stroke-width="1px"></path><path d="M 240.454651 101.263579 L 240.454651 103.763579 L 234.454651 103.763579 L 234.454651 101.263579 L 240.454651 101.263579" stroke="gray" fill="white" stroke-width="1px"></path><path d="M 226.923443 89.263579 L 226.923443 91.763579 L 220.923443 91.763579 L 220.923443 89.263579 L 226.923443 89.263579" stroke="gray" fill="white" stroke-width="1px"></path><path d="M 232.923443 89.263579 L 232.923443 91.763579 L 226.923443 91.763579 L 226.923443 89.263579 L 232.923443 89.263579" stroke="gray" fill="white" stroke-width="1px"></path><path d="M 233.737654 77.263579 L 233.737654 79.763579 L 227.737654 79.763579 L 227.737654 77.263579 L 233.737654 77.263579" stroke="gray" fill="white" stroke-width="1px"></path><path d="M 22.000000 101.263579 L 22.000000 103.763579 L 16.000000 103.763579 L 16.000000 101.263579 L 22.000000 101.263579" stroke="gray" fill="white" stroke-width="1px"></path><path d="M 28.000000 101.263579 L 28.000000 103.763579 L 22.000000 103.763579 L 22.000000 101.263579 L 28.000000 101.263579" stroke="gray" fill="white" stroke-width="1px"></path><path d="M 34.000000 101.263579 L 34.000000 103.763579 L 28.000000 103.763579 L 28.000000 101.263579 L 34.000000 101.263579" stroke="gray" fill="white" stroke-width="1px"></path><path d="M 40.000000 101.263579 L 40.000000 103.763579 L 34.000000 103.763579 L 34.000000 101.263579 L 40.000000 101.263579" stroke="gray" fill="white" stroke-width="1px"></path><path d="M 22.000000 89.263579 L 22.000000 91.763579 L 16.000000 91.763579 L 16.000000 89.263579 L 22.000000 89.263579" stroke="gray" fill="white" stroke-width="1px"></path><path d="M 28.000000 89.263579 L 28.000000 91.763579 L 22.000000 91.763579 L 22.000000 89.263579 L 28.000000 89.263579" stroke="gray" fill="white" stroke-width="1px"></path><path d="M 34.000000 89.263579 L 34.000000 91.763579 L 28.000000 91.763579 L 28.000000 89.263579 L 34.000000 89.263579" stroke="gray" fill="white" stroke-width="1px"></path><path d="M 40.000000 89.263579 L 40.000000 91.763579 L 34.000000 91.763579 L 34.000000 89.263579 L 40.000000 89.263579" stroke="gray" fill="white" stroke-width="1px"></path><path d="M 22.000000 77.263579 L 22.000000 79.763579 L 16.000000 79.763579 L 16.000000 77.263579 L 22.000000 77.263579" stroke="gray" fill="white" stroke-width="1px"></path><path d="M 28.000000 77.263579 L 28.000000 79.763579 L 22.000000 79.763579 L 22.000000 77.263579 L 28.000000 77.263579" stroke="gray" fill="white" stroke-width="1px"></path><path d="M 34.000000 77.263579 L 34.000000 79.763579 L 28.000000 79.763579 L 28.000000 77.263579 L 34.000000 77.263579" stroke="gray" fill="white" stroke-width="1px"></path><path d="M 40.000000 77.263579 L 40.000000 79.763579 L 34.000000 79.763579 L 34.000000 77.263579 L 40.000000 77.263579" stroke="gray" fill="white" stroke-width="1px"></path><path d="M 22.000000 65.263579 L 22.000000 67.763579 L 16.000000 67.763579 L 16.000000 65.263579 L 22.000000 65.263579" stroke="gray" fill="white" stroke-width="1px"></path><path d="M 28.000000 65.263579 L 28.000000 67.763579 L 22.000000 67.763579 L 22.000000 65.263579 L 28.000000 65.263579" stroke="gray" fill="white" stroke-width="1px"></path><path d="M 34.000000 65.263579 L 34.000000 67.763579 L 28.000000 67.763579 L 28.000000 65.263579 L 34.000000 65.263579" stroke="gray" fill="white" stroke-width="1px"></path><path d="M 40.000000 65.263579 L 40.000000 67.763579 L 34.000000 67.763579 L 34.000000 65.263579 L 40.000000 65.263579" stroke="gray" fill="white" stroke-width="1px"></path></g><g id="crv-base"><path d="M 221.371570 123.090312 L 221.371570 169.241094 L 120.000633 169.241094 L 120.000633 156.444206 L 126.051258 156.444206 L 126.051258 128.832500 L 123.590320 128.832500 L 123.590320 125.551250 L 126.051258 125.551250 L 126.051258 123.858132 L 91.315945 123.858125 L 91.315945 134.738750 L 64.258762 134.738750 L 64.258762 123.687497 L 10.000000 123.687497 L 10.000000 226.180625 L 64.258758 226.180625 L 64.258758 192.357500 L 91.315945 192.357500 L 91.315945 220.123437 L 283.459383 220.123437 L 283.459383 123.090312 L 221.371570 123.090312" stroke="black" fill="none" stroke-width="1px"></path><path d="M 221.371570 10.000000 L 221.371570 56.150781 L 120.000633 56.150781 L 120.000633 43.353893 L 126.051258 43.353893 L 126.051258 15.742187 L 123.590320 15.742187 L 123.590320 12.460937 L 126.051258 12.460937 L 126.051258 10.767819 L 91.315945 10.767812 L 91.315945 21.648438 L 64.258762 21.648438 L 64.258762 10.597185 L 10.000000 10.597185 L 10.000000 113.090312 L 64.258758 113.090312 L 64.258758 79.267187 L 91.315945 79.267187 L 91.315945 107.033125 L 283.459383 107.033125 L 283.459383 10.000000 L 221.371570 10.000000" stroke="black" fill="none" stroke-width="1px"></path><path d="M 10.387195 156.559062 L 10.387195 154.590312 L 12.355945 154.590312 L 12.355945 156.559062 L 10.387195 156.559062" stroke="black" fill="white" stroke-width="1px"></path><path d="M 10.387195 43.468750 L 10.387195 41.500000 L 12.355945 41.500000 L 12.355945 43.468750 L 10.387195 43.468750" stroke="black" fill="white" stroke-width="1px"></path><path d="M 10.387195 188.059062 L 10.387195 186.090312 L 12.355945 186.090312 L 12.355945 188.059062 L 10.387195 188.059062" stroke="black" fill="white" stroke-width="1px"></path><path d="M 10.387195 74.968750 L 10.387195 73.000000 L 12.355945 73.000000 L 12.355945 74.968750 L 10.387195 74.968750" stroke="black" fill="white" stroke-width="1px"></path><path d="M 10.387195 219.559062 L 10.387195 217.590312 L 12.355945 217.590312 L 12.355945 219.559062 L 10.387195 219.559062" stroke="black" fill="white" stroke-width="1px"></path><path d="M 10.387195 106.468750 L 10.387195 104.500000 L 12.355945 104.500000 L 12.355945 106.468750 L 10.387195 106.468750" stroke="black" fill="white" stroke-width="1px"></path><path d="M 60.754383 128.340312 L 60.754383 125.387187 L 63.871570 125.387187 L 63.871570 128.340312 L 60.754383 128.340312" stroke="black" fill="white" stroke-width="1px"></path><path d="M 60.754383 15.250000 L 60.754383 12.296875 L 63.871570 12.296875 L 63.871570 15.250000 L 60.754383 15.250000" stroke="black" fill="white" stroke-width="1px"></path><path d="M 280.598133 219.230937 L 280.598133 217.262187 L 282.566883 217.262187 L 282.566883 219.230937 L 280.598133 219.230937" stroke="black" fill="white" stroke-width="1px"></path><path d="M 280.598133 106.140625 L 280.598133 104.171875 L 282.566883 104.171875 L 282.566883 106.140625 L 280.598133 106.140625" stroke="black" fill="white" stroke-width="1px"></path><path d="M 280.598133 188.059062 L 280.598133 186.090312 L 282.566883 186.090312 L 282.566883 188.059062 L 280.598133 188.059062" stroke="black" fill="white" stroke-width="1px"></path><path d="M 280.598133 74.968750 L 280.598133 73.000000 L 282.566883 73.000000 L 282.566883 74.968750 L 280.598133 74.968750" stroke="black" fill="white" stroke-width="1px"></path><path d="M 280.598133 156.559050 L 280.598133 154.590300 L 282.566883 154.590300 L 282.566883 156.559050 L 280.598133 156.559050" stroke="black" fill="white" stroke-width="1px"></path><path d="M 280.598133 43.468737 L 280.598133 41.499987 L 282.566883 41.499987 L 282.566883 43.468737 L 280.598133 43.468737" stroke="black" fill="white" stroke-width="1px"></path><path d="M 248.605945 127.355937 L 248.605945 123.418437 L 251.887195 123.418437 L 251.887195 127.355937 L 248.605945 127.355937" stroke="black" fill="white" stroke-width="1px"></path><path d="M 248.605945 14.265625 L 248.605945 10.328125 L 251.887195 10.328125 L 251.887195 14.265625 L 248.605945 14.265625" stroke="black" fill="white" stroke-width="1px"></path><path d="M 248.605945 157.871562 L 248.605945 153.934062 L 251.887195 153.934062 L 251.887195 157.871562 L 248.605945 157.871562" stroke="black" fill="white" stroke-width="1px"></path><path d="M 248.605945 44.781250 L 248.605945 40.843750 L 251.887195 40.843750 L 251.887195 44.781250 L 248.605945 44.781250" stroke="black" fill="white" stroke-width="1px"></path><path d="M 248.605945 189.043437 L 248.605945 185.105937 L 251.887195 185.105937 L 251.887195 189.043437 L 248.605945 189.043437" stroke="black" fill="white" stroke-width="1px"></path><path d="M 248.605945 75.953125 L 248.605945 72.015625 L 251.887195 72.015625 L 251.887195 75.953125 L 248.605945 75.953125" stroke="black" fill="white" stroke-width="1px"></path><path d="M 248.934070 219.230937 L 248.934070 216.277812 L 251.887195 216.277812 L 251.887195 219.230937 L 248.934070 219.230937" stroke="black" fill="white" stroke-width="1px"></path><path d="M 248.934070 106.140625 L 248.934070 103.187500 L 251.887195 103.187500 L 251.887195 106.140625 L 248.934070 106.140625" stroke="black" fill="white" stroke-width="1px"></path><path d="M 218.090320 189.043437 L 218.090320 185.105937 L 221.371570 185.105937 L 221.371570 189.043437 L 218.090320 189.043437" stroke="black" fill="white" stroke-width="1px"></path><path d="M 218.090320 75.953125 L 218.090320 72.015625 L 221.371570 72.015625 L 221.371570 75.953125 L 218.090320 75.953125" stroke="black" fill="white" stroke-width="1px"></path><path d="M 218.254383 219.230937 L 218.254383 216.277812 L 221.207508 216.277812 L 221.207508 219.230937 L 218.254383 219.230937" stroke="black" fill="white" stroke-width="1px"></path><path d="M 218.254383 106.140625 L 218.254383 103.187500 L 221.207508 103.187500 L 221.207508 106.140625 L 218.254383 106.140625" stroke="black" fill="white" stroke-width="1px"></path><path d="M 186.590320 189.043437 L 186.590320 185.105937 L 189.871570 185.105937 L 189.871570 189.043437 L 186.590320 189.043437" stroke="black" fill="white" stroke-width="1px"></path><path d="M 186.590320 75.953125 L 186.590320 72.015625 L 189.871570 72.015625 L 189.871570 75.953125 L 186.590320 75.953125" stroke="black" fill="white" stroke-width="1px"></path><path d="M 186.754383 219.230937 L 186.754383 216.277812 L 189.707508 216.277812 L 189.707508 219.230937 L 186.754383 219.230937" stroke="black" fill="white" stroke-width="1px"></path><path d="M 186.754383 106.140625 L 186.754383 103.187500 L 189.707508 103.187500 L 189.707508 106.140625 L 186.754383 106.140625" stroke="black" fill="white" stroke-width="1px"></path><path d="M 155.090320 189.043437 L 155.090320 185.105937 L 158.371570 185.105937 L 158.371570 189.043437 L 155.090320 189.043437" stroke="black" fill="white" stroke-width="1px"></path><path d="M 155.090320 75.953125 L 155.090320 72.015625 L 158.371570 72.015625 L 158.371570 75.953125 L 155.090320 75.953125" stroke="black" fill="white" stroke-width="1px"></path><path d="M 155.254383 219.230937 L 155.254383 216.277812 L 158.207508 216.277812 L 158.207508 219.230937 L 155.254383 219.230937" stroke="black" fill="white" stroke-width="1px"></path><path d="M 155.254383 106.140625 L 155.254383 103.187500 L 158.207508 103.187500 L 158.207508 106.140625 L 155.254383 106.140625" stroke="black" fill="white" stroke-width="1px"></path><path d="M 123.590320 189.043437 L 123.590320 185.105937 L 126.871570 185.105937 L 126.871570 189.043437 L 123.590320 189.043437" stroke="black" fill="white" stroke-width="1px"></path><path d="M 123.590320 75.953125 L 123.590320 72.015625 L 126.871570 72.015625 L 126.871570 75.953125 L 123.590320 75.953125" stroke="black" fill="white" stroke-width="1px"></path><path d="M 123.754383 219.230937 L 123.754383 216.277812 L 126.707508 216.277812 L 126.707508 219.230937 L 123.754383 219.230937" stroke="black" fill="white" stroke-width="1px"></path><path d="M 123.754383 106.140625 L 123.754383 103.187500 L 126.707508 103.187500 L 126.707508 106.140625 L 123.754383 106.140625" stroke="black" fill="white" stroke-width="1px"></path><path d="M 92.090320 157.543437 L 92.090320 153.605937 L 95.371570 153.605937 L 95.371570 157.543437 L 92.090320 157.543437" stroke="black" fill="white" stroke-width="1px"></path><path d="M 92.090320 44.453125 L 92.090320 40.515625 L 95.371570 40.515625 L 95.371570 44.453125 L 92.090320 44.453125" stroke="black" fill="white" stroke-width="1px"></path><path d="M 92.090320 189.043437 L 92.090320 185.105937 L 95.371570 185.105937 L 95.371570 189.043437 L 92.090320 189.043437" stroke="black" fill="white" stroke-width="1px"></path><path d="M 92.090320 75.953125 L 92.090320 72.015625 L 95.371570 72.015625 L 95.371570 75.953125 L 92.090320 75.953125" stroke="black" fill="white" stroke-width="1px"></path><path d="M 92.090320 128.504375 L 92.090320 125.551250 L 95.207508 125.551250 L 95.207508 128.504375 L 92.090320 128.504375" stroke="black" fill="white" stroke-width="1px"></path><path d="M 92.090320 15.414062 L 92.090320 12.460937 L 95.207508 12.460937 L 95.207508 15.414062 L 92.090320 15.414062" stroke="black" fill="white" stroke-width="1px"></path><path d="M 60.590320 157.215312 L 60.590320 153.934062 L 63.871570 153.934062 L 63.871570 157.215312 L 60.590320 157.215312" stroke="black" fill="white" stroke-width="1px"></path><path d="M 60.590320 44.125000 L 60.590320 40.843750 L 63.871570 40.843750 L 63.871570 44.125000 L 60.590320 44.125000" stroke="black" fill="white" stroke-width="1px"></path><path d="M 60.754383 219.230937 L 60.754383 216.277812 L 63.871570 216.277812 L 63.871570 219.230937 L 60.754383 219.230937" stroke="black" fill="white" stroke-width="1px"></path><path d="M 60.754383 106.140625 L 60.754383 103.187500 L 63.871570 103.187500 L 63.871570 106.140625 L 60.754383 106.140625" stroke="black" fill="white" stroke-width="1px"></path><path d="M 30.074695 128.504375 L 30.074695 125.223125 L 33.027820 125.223125 L 33.027820 128.504375 L 30.074695 128.504375" stroke="black" fill="white" stroke-width="1px"></path><path d="M 30.074695 15.414062 L 30.074695 12.132812 L 33.027820 12.132812 L 33.027820 15.414062 L 30.074695 15.414062" stroke="black" fill="white" stroke-width="1px"></path><path d="M 30.074695 157.215312 L 30.074695 153.934062 L 33.355945 153.934062 L 33.355945 157.215312 L 30.074695 157.215312" stroke="black" fill="white" stroke-width="1px"></path><path d="M 30.074695 44.125000 L 30.074695 40.843750 L 33.355945 40.843750 L 33.355945 44.125000 L 30.074695 44.125000" stroke="black" fill="white" stroke-width="1px"></path><path d="M 30.074695 188.715312 L 30.074695 185.434062 L 33.355945 185.434062 L 33.355945 188.715312 L 30.074695 188.715312" stroke="black" fill="white" stroke-width="1px"></path><path d="M 30.074695 75.625000 L 30.074695 72.343750 L 33.355945 72.343750 L 33.355945 75.625000 L 30.074695 75.625000" stroke="black" fill="white" stroke-width="1px"></path><path d="M 30.074695 219.230937 L 30.074695 216.277812 L 33.027820 216.277812 L 33.027820 219.230937 L 30.074695 219.230937" stroke="black" fill="white" stroke-width="1px"></path><path d="M 30.074695 106.140625 L 30.074695 103.187500 L 33.027820 103.187500 L 33.027820 106.140625 L 30.074695 106.140625" stroke="black" fill="white" stroke-width="1px"></path><path d="M 10.387195 127.191875 L 10.387195 125.223125 L 12.355945 125.223125 L 12.355945 127.191875 L 10.387195 127.191875" stroke="black" fill="white" stroke-width="1px"></path><path d="M 10.387195 14.101562 L 10.387195 12.132812 L 12.355945 12.132812 L 12.355945 14.101562 L 10.387195 14.101562" stroke="black" fill="white" stroke-width="1px"></path><path d="M 60.590320 189.863750 L 60.590320 185.434062 L 63.871570 185.434062 L 63.871570 188.715312 L 62.230945 188.715312 L 62.230945 189.863750 L 60.590320 189.863750" stroke="black" fill="white" stroke-width="1px"></path><path d="M 60.590320 76.773437 L 60.590320 72.343750 L 63.871570 72.343750 L 63.871570 75.625000 L 62.230945 75.625000 L 62.230945 76.773437 L 60.590320 76.773437" stroke="black" fill="white" stroke-width="1px"></path></g></svg>