<svg width="293.459383" height="236.180625" xmlns="http://www.w3.org/2000/svg" xmlns:xlink="http://www.w3.org/1999/xlink" version="1.1"><g id="crv-background"><path d="M 221.371570 123.090312 L 221.371570 169.241094 L 120.000633 169.241094 L 120.000633 156.444206 L 126.051258 156.444206 L 126.051258 128.832500 L 123.590320 128.832500 L 123.590320 125.551250 L 126.051258 125.551250 L 126.051258 123.858132 L 91.315945 123.858125 L 91.315945 134.738750 L 64.258762 134.738750 L 64.258762 123.687497 L 10.000000 123.687497 L 10.000000 226.180625 L 64.258758 226.180625 L 64.258758 192.357500 L 91.315945 192.357500 L 91.315945 220.123437 L 283.459383 220.123437 L 283.459383 123.090312 L 221.371570 123.090312" stroke="none" fill="white" stroke-width="1px"></path><path d="M 221.371570 10.000000 L 221.371570 56.150781 L 120.000633 56.150781 L 120.000633 43.353893 L 126.051258 43.353893 L 126.051258 15.742187 L 123.590320 15.742187 L 123.590320 12.460937 L 126.051258 12.460937 L 126.051258 10.767819 L 91.315945 10.767812 L 91.315945 21.648438 L 64.258762 21.648438 L 64.258762 10.597185 L 10.000000 10.597185 L 10.000000 113.090312 L 64.258758 113.090312 L 64.258758 79.267187 L 91.315945 79.267187 L 91.315945 107.033125 L 283.459383 107.033125 L 283.459383 10.000000 L 221.371570 10.000000" stroke="none" fill="white" stroke-width="1px"></path></g><g id="crv-nbhd"><path d="M 221.737654 10.000004 L 221.737654 27.269638 L 221.737654 44.539272 L 228.704958 49.362507 L 235.672262 54.185742 L 259.565822 51.112848 L 283.459383 48.039954 L 283.459383 29.019977 L 283.459382 10.000000 L 252.598525 10.000002 L 221.737654 10.000004" stroke="#DD2222" fill="none" stroke-width="1px"></path><path d="M 283.459383 107.033125 L 283.459383 77.536539 L 283.459383 48.039954 L 259.565822 51.112848 L 235.672262 54.185742 L 240.889859 80.609434 L 246.107455 107.033125 L 264.783415 107.033125 L 283.459383 107.033125" stroke="#DD2222" fill="none" stroke-width="1px"></path><path d="M 189.693327 107.033125 L 217.900391 107.033125 L 246.107455 107.033125 L 240.889859 80.609434 L 235.672262 54.185742 L 228.704958 49.362507 L 221.737654 44.539272 L 221.737654 61.845301 L 221.737654 79.151330 L 211.398188 79.151330 L 201.058722 79.151330 L 195.376025 93.092227 L 189.693327 107.033125" stroke="#DD2222" fill="none" stroke-width="1px"></path><path d="M 201.058722 79.151330 L 188.079766 79.151330 L 175.100810 79.151329 L 181.917100 93.092227 L 188.733391 107.033125 L 189.213359 107.033125 L 189.693327 107.033125 L 195.376025 93.092227 L 201.058722 79.151330" stroke="#DD2222" fill="none" stroke-width="1px"></path><path d="M 133.822622 107.033125 L 161.278007 107.033125 L 188.733391 107.033125 L 181.917100 93.092227 L 175.100810 79.151329 L 155.740427 79.151329 L 136.380044 79.151328 L 135.101333 93.092227 L 133.822622 107.033125" stroke="#DD2222" fill="none" stroke-width="1px"></path><path d="M 136.380044 79.151328 L 113.847995 79.151328 L 91.315945 79.151327 L 91.315945 93.092226 L 91.315945 107.033125 L 112.569284 107.033125 L 133.822622 107.033125 L 135.101333 93.092230 L 136.380044 79.151328" stroke="#DD2222" fill="none" stroke-width="1px"></path><path d="M 64.258758 113.090312 L 64.258758 84.620554 L 64.258758 56.150781 L 64.258758 54.088554 L 64.258758 52.026327 L 37.129382 53.975879 L 10.000000 55.925432 L 10.000000 84.507872 L 10.000000 113.090312 L 37.129372 113.090312 L 64.258758 113.090312" stroke="#DD2222" fill="none" stroke-width="1px"></path><path d="M 10.000000 10.597184 L 10.000000 33.261308 L 10.000000 55.925432 L 37.129379 53.975880 L 64.258758 52.026327 L 64.258758 31.311756 L 64.258758 10.597185 L 37.129379 10.597185 L 10.000000 10.597184" stroke="#DD2222" fill="none" stroke-width="1px"></path><path d="M 10.000000 123.687497 L 10.000000 150.367337 L 10.000000 177.047177 L 37.129379 175.590295 L 64.258758 174.133412 L 64.258758 171.687253 L 64.258758 169.241094 L 64.258758 146.464296 L 64.258758 123.687497 L 37.129398 123.687497 L 10.000000 123.687497" stroke="#DD2222" fill="none" stroke-width="1px"></path><path d="M 10.000000 177.047177 L 10.000000 201.613901 L 10.000000 226.180625 L 37.129382 226.180625 L 64.258764 226.180625 L 64.258764 200.157012 L 64.258758 174.133412 L 37.129379 175.590295 L 10.000000 177.047177" stroke="#DD2222" fill="none" stroke-width="1px"></path><path d="M 137.685744 192.043444 L 114.500845 192.043444 L 91.315945 192.043444 L 91.315945 206.083441 L 91.315945 220.123437 L 110.373889 220.123437 L 129.431832 220.123437 L 133.558788 206.083441 L 137.685744 192.043444" stroke="#DD2222" fill="none" stroke-width="1px"></path><path d="M 181.440483 192.043444 L 159.563114 192.043444 L 137.685744 192.043444 L 133.558788 206.083441 L 129.431832 220.123437 L 160.621747 220.123437 L 191.811662 220.123437 L 186.626074 206.083444 L 181.440483 192.043444" stroke="#DD2222" fill="none" stroke-width="1px"></path><path d="M 232.291534 192.043444 L 206.866009 192.043444 L 181.440483 192.043444 L 186.626073 206.083441 L 191.811662 220.123437 L 210.097276 220.123437 L 228.382891 220.123437 L 230.337212 206.083441 L 232.291534 192.043444" stroke="#DD2222" fill="none" stroke-width="1px"></path><path d="M 283.459383 220.123437 L 283.459383 190.626665 L 283.459383 161.129893 L 261.598517 166.640064 L 239.737652 172.150236 L 239.737652 182.096840 L 239.737652 192.043444 L 236.014593 192.043444 L 232.291534 192.043444 L 230.337212 206.083441 L 228.382891 220.123437 L 255.921130 220.123437 L 283.459383 220.123437" stroke="#DD2222" fill="none" stroke-width="1px"></path><path d="M 239.737652 123.090312 L 239.737652 147.620274 L 239.737652 172.150236 L 261.598517 166.640064 L 283.459383 161.129893 L 283.459383 142.110103 L 283.459383 123.090312 L 261.598590 123.090312 L 239.737652 123.090312" stroke="#DD2222" fill="none" stroke-width="1px"></path></g><g id="crv-amen"><path d="M 49.286842 169.848048 L 55.938865 169.490826 L 62.590888 169.133604 L 62.590888 148.955238 L 62.590888 128.776872 L 55.938867 128.776872 L 49.286842 128.776872 L 49.286842 149.312460 L 49.286842 169.848048" stroke="none" fill="#2288CC" stroke-width="1px"></path><path d="M 58.832884 189.413406 L 58.832884 182.751795 L 58.832882 176.090191 L 37.129379 177.255697 L 15.425876 178.421203 L 15.425876 185.082810 L 15.425876 191.744418 L 37.129380 190.578912 L 58.832884 189.413406" stroke="none" fill="#2288CC" stroke-width="1px"></path><path d="M 106.282997 194.851444 L 99.630974 194.851444 L 92.978951 194.851444 L 92.978951 206.083441 L 92.978951 217.315438 L 99.630974 217.315438 L 106.282997 217.315438 L 106.282997 206.083441 L 106.282997 194.851444" stroke="none" fill="#2288CC" stroke-width="1px"></path><path d="M 181.678671 206.088455 L 179.403425 199.928221 L 177.128178 193.767984 L 159.626282 193.767984 L 142.124387 193.767984 L 140.169072 200.420007 L 138.213758 207.072030 L 159.946215 207.072030 L 181.678671 207.072030 L 181.678671 206.580243 L 181.678671 206.088455" stroke="none" fill="#2288CC" stroke-width="1px"></path><path d="M 198.400416 194.814184 L 191.309176 194.814184 L 184.217935 194.814184 L 188.366406 206.046182 L 192.514878 217.278179 L 197.007565 217.278179 L 201.500253 217.278179 L 203.786876 216.433628 L 206.073500 215.589077 L 202.236958 205.201631 L 198.400416 194.814184" stroke="none" fill="#2288CC" stroke-width="1px"></path><path d="M 239.577295 192.585976 L 239.577295 193.659837 L 239.577295 194.733698 L 236.598848 194.733698 L 233.620401 194.733698 L 232.056943 205.965696 L 230.493486 217.197693 L 237.209643 217.197693 L 243.925801 217.197693 L 245.564851 205.422634 L 247.203901 193.647575 L 243.390598 193.116775 L 239.577295 192.585976" stroke="none" fill="#2288CC" stroke-width="1px"></path><path d="M 254.679965 127.789837 L 248.027951 127.789837 L 241.375919 127.789837 L 241.375919 147.413806 L 241.375919 167.037775 L 248.027942 165.361090 L 254.679965 163.684405 L 254.679965 145.737121 L 254.679965 127.789837" stroke="none" fill="#2288CC" stroke-width="1px"></path><path d="M 236.732947 13.820238 L 230.080925 13.820239 L 223.428901 13.820239 L 223.428901 27.635947 L 223.428901 41.451654 L 226.023336 43.247696 L 228.617771 45.043738 L 232.675359 45.043738 L 236.732947 45.043738 L 236.732947 29.431988 L 236.732947 13.820238" stroke="none" fill="#2288CC" stroke-width="1px"></path><path d="M 278.840229 63.704792 L 278.840229 56.997982 L 278.840229 50.291173 L 259.725381 52.749488 L 240.610532 55.207804 L 241.902055 61.748514 L 243.193577 68.289223 L 261.016903 65.997007 L 278.840229 63.704792" stroke="none" fill="#2288CC" stroke-width="1px"></path><path d="M 229.807706 101.534597 L 236.588171 101.534597 L 243.368635 101.534597 L 239.194557 80.395644 L 235.020480 59.256691 L 231.811390 57.035144 L 228.602300 54.813597 L 226.237547 55.280539 L 223.872794 55.747481 L 223.872794 63.612828 L 223.872793 71.478175 L 226.840250 86.506386 L 229.807706 101.534597" stroke="none" fill="#2288CC" stroke-width="1px"></path><path d="M 181.459193 88.353888 L 185.167267 95.937762 L 188.875342 103.521636 L 189.259317 103.521636 L 189.643291 103.521636 L 194.189449 92.368917 L 198.735607 81.216199 L 191.552160 81.216199 L 184.368713 81.216199 L 182.913953 84.785043 L 181.459193 88.353888" stroke="none" fill="#2288CC" stroke-width="1px"></path><path d="M 151.154182 81.939508 L 144.474235 81.939508 L 137.794289 81.939508 L 136.771320 93.092227 L 135.748351 104.244945 L 142.428298 104.244945 L 149.108245 104.244945 L 150.131214 93.092227 L 151.154182 81.939508" stroke="none" fill="#2288CC" stroke-width="1px"></path><path d="M 130.577507 94.108837 L 131.187655 87.456815 L 131.797803 80.804791 L 113.772164 80.804790 L 95.746524 80.804790 L 95.746524 87.456813 L 95.746524 94.108836 L 113.162016 94.108836 L 130.577507 94.108837" stroke="none" fill="#2288CC" stroke-width="1px"></path><path d="M 49.297184 107.043470 L 55.949203 107.043470 L 62.601230 107.043470 L 62.601230 82.617876 L 62.601230 58.192282 L 55.949207 58.670305 L 49.297184 59.148328 L 49.297184 83.095899 L 49.297184 107.043470" stroke="none" fill="#2288CC" stroke-width="1px"></path><path d="M 49.283824 48.899495 L 55.935847 48.421472 L 62.587870 47.943449 L 62.587870 31.371792 L 62.587871 14.800135 L 55.935847 14.800135 L 49.283824 14.800135 L 49.283824 31.849815 L 49.283824 48.899495" stroke="none" fill="#2288CC" stroke-width="1px"></path></g><g id="crv-desk"><path d="M 31.459383 169.894781 L 28.959383 169.894781 L 28.959383 175.894781 L 31.459383 175.894781 L 31.459383 169.894781" stroke="gray" fill="white" stroke-width="1px"></path><path d="M 31.459383 163.894781 L 28.959383 163.894781 L 28.959383 169.894781 L 31.459383 169.894781 L 31.459383 163.894781" stroke="gray" fill="white" stroke-width="1px"></path><path d="M 31.459383 157.894781 L 28.959383 157.894781 L 28.959383 163.894781 L 31.459383 163.894781 L 31.459383 157.894781" stroke="gray" fill="white" stroke-width="1px"></path><path d="M 31.459383 151.894781 L 28.959383 151.894781 L 28.959383 157.894781 L 31.459383 157.894781 L 31.459383 151.894781" stroke="gray" fill="white" stroke-width="1px"></path><path d="M 31.459383 145.894781 L 28.959383 145.894781 L 28.959383 151.894781 L 31.459383 151.894781 L 31.459383 145.894781" stroke="gray" fill="white" stroke-width="1px"></path><path d="M 31.459383 139.894781 L 28.959383 139.894781 L 28.959383 145.894781 L 31.459383 145.894781 L 31.459383 139.894781" stroke="gray" fill="white" stroke-width="1px"></path><path d="M 31.459383 133.894781 L 28.959383 133.894781 L 28.959383 139.894781 L 31.459383 139.894781 L 31.459383 133.894781" stroke="gray" fill="white" stroke-width="1px"></path><path d="M 31.459383 127.894781 L 28.959383 127.894781 L 28.959383 133.894781 L 31.459383 133.894781 L 31.459383 127.894781" stroke="gray" fill="white" stroke-width="1px"></path><path d="M 19.459383 170.539196 L 16.959383 170.539196 L 16.959383 176.539196 L 19.459383 176.539196 L 19.459383 170.539196" stroke="gray" fill="white" stroke-width="1px"></path><path d="M 19.459383 164.539196 L 16.959383 164.539196 L 16.959383 170.539196 L 19.459383 170.539196 L 19.459383 164.539196" stroke="gray" fill="white" stroke-width="1px"></path><path d="M 19.459383 158.539196 L 16.959383 158.539196 L 16.959383 164.539196 L 19.459383 164.539196 L 19.459383 158.539196" stroke="gray" fill="white" stroke-width="1px"></path><path d="M 19.459383 152.539196 L 16.959383 152.539196 L 16.959383 158.539196 L 19.459383 158.539196 L 19.459383 152.539196" stroke="gray" fill="white" stroke-width="1px"></path><path d="M 19.459383 146.539196 L 16.959383 146.539196 L 16.959383 152.539196 L 19.459383 152.539196 L 19.459383 146.539196" stroke="gray" fill="white" stroke-width="1px"></path><path d="M 19.459383 140.539196 L 16.959383 140.539196 L 16.959383 146.539196 L 19.459383 146.539196 L 19.459383 140.539196" stroke="gray" fill="white" stroke-width="1px"></path><path d="M 19.459383 134.539196 L 16.959383 134.539196 L 16.959383 140.539196 L 19.459383 140.539196 L 19.459383 134.539196" stroke="gray" fill="white" stroke-width="1px"></path><path d="M 19.459383 128.539196 L 16.959383 128.539196 L 16.959383 134.539196 L 19.459383 134.539196 L 19.459383 128.539196" stroke="gray" fill="white" stroke-width="1px"></path><path d="M 55.459383 220.180625 L 52.959383 220.180625 L 52.959383 226.180625 L 55.459383 226.180625 L 55.459383 220.180625" stroke="gray" fill="white" stroke-width="1px"></path><path d="M 55.459383 214.180625 L 52.959383 214.180625 L 52.959383 220.180625 L 55.459383 220.180625 L 55.459383 214.180625" stroke="gray" fill="white" stroke-width="1px"></path><path d="M 55.459383 208.180625 L 52.959383 208.180625 L 52.959383 214.180625 L 55.459383 214.180625 L 55.459383 208.180625" stroke="gray" fill="white" stroke-width="1px"></path><path d="M 55.459383 202.180625 L 52.959383 202.180625 L 52.959383 208.180625 L 55.459383 208.180625 L 55.459383 202.180625" stroke="gray" fill="white" stroke-width="1px"></path><path d="M 55.459383 196.180625 L 52.959383 196.180625 L 52.959383 202.180625 L 55.459383 202.180625 L 55.459383 196.180625" stroke="gray" fill="white" stroke-width="1px"></path><path d="M 43.459383 220.180625 L 40.959383 220.180625 L 40.959383 226.180625 L 43.459383 226.180625 L 43.459383 220.180625" stroke="gray" fill="white" stroke-width="1px"></path><path d="M 43.459383 214.180625 L 40.959383 214.180625 L 40.959383 220.180625 L 43.459383 220.180625 L 43.459383 214.180625" stroke="gray" fill="white" stroke-width="1px"></path><path d="M 43.459383 208.180625 L 40.959383 208.180625 L 40.959383 214.180625 L 43.459383 214.180625 L 43.459383 208.180625" stroke="gray" fill="white" stroke-width="1px"></path><path d="M 43.459383 202.180625 L 40.959383 202.180625 L 40.959383 208.180625 L 43.459383 208.180625 L 43.459383 202.180625" stroke="gray" fill="white" stroke-width="1px"></path><path d="M 31.459383 220.180625 L 28.959383 220.180625 L 28.959383 226.180625 L 31.459383 226.180625 L 31.459383 220.180625" stroke="gray" fill="white" stroke-width="1px"></path><path d="M 31.459383 214.180625 L 28.959383 214.180625 L 28.959383 220.180625 L 31.459383 220.180625 L 31.459383 214.180625" stroke="gray" fill="white" stroke-width="1px"></path><path d="M 31.459383 208.180625 L 28.959383 208.180625 L 28.959383 214.180625 L 31.459383 214.180625 L 31.459383 208.180625" stroke="gray" fill="white" stroke-width="1px"></path><path d="M 31.459383 202.180625 L 28.959383 202.180625 L 28.959383 208.180625 L 31.459383 208.180625 L 31.459383 202.180625" stroke="gray" fill="white" stroke-width="1px"></path><path d="M 19.459383 220.180625 L 16.959383 220.180625 L 16.959383 226.180625 L 19.459383 226.180625 L 19.459383 220.180625" stroke="gray" fill="white" stroke-width="1px"></path><path d="M 19.459383 214.180625 L 16.959383 214.180625 L 16.959383 220.180625 L 19.459383 220.180625 L 19.459383 214.180625" stroke="gray" fill="white" stroke-width="1px"></path><path d="M 19.459383 208.180625 L 16.959383 208.180625 L 16.959383 214.180625 L 19.459383 214.180625 L 19.459383 208.180625" stroke="gray" fill="white" stroke-width="1px"></path><path d="M 19.459383 202.180625 L 16.959383 202.180625 L 16.959383 208.180625 L 19.459383 208.180625 L 19.459383 202.180625" stroke="gray" fill="white" stroke-width="1px"></path><path d="M 127.459383 214.123437 L 124.959383 214.123437 L 124.959383 220.123437 L 127.459383 220.123437 L 127.459383 214.123437" stroke="gray" fill="white" stroke-width="1px"></path><path d="M 127.459383 208.123437 L 124.959383 208.123437 L 124.959383 214.123437 L 127.459383 214.123437 L 127.459383 208.123437" stroke="gray" fill="white" stroke-width="1px"></path><path d="M 127.459383 202.123437 L 124.959383 202.123437 L 124.959383 208.123437 L 127.459383 208.123437 L 127.459383 202.123437" stroke="gray" fill="white" stroke-width="1px"></path><path d="M 127.459383 196.123437 L 124.959383 196.123437 L 124.959383 202.123437 L 127.459383 202.123437 L 127.459383 196.123437" stroke="gray" fill="white" stroke-width="1px"></path><path d="M 115.459383 214.123437 L 112.959383 214.123437 L 112.959383 220.123437 L 115.459383 220.123437 L 115.459383 214.123437" stroke="gray" fill="white" stroke-width="1px"></path><path d="M 115.459383 208.123437 L 112.959383 208.123437 L 112.959383 214.123437 L 115.459383 214.123437 L 115.459383 208.123437" stroke="gray" fill="white" stroke-width="1px"></path><path d="M 115.459383 202.123437 L 112.959383 202.123437 L 112.959383 208.123437 L 115.459383 208.123437 L 115.459383 202.123437" stroke="gray" fill="white" stroke-width="1px"></path><path d="M 115.459383 196.123437 L 112.959383 196.123437 L 112.959383 202.123437 L 115.459383 202.123437 L 115.459383 196.123437" stroke="gray" fill="white" stroke-width="1px"></path><path d="M 175.459383 214.123437 L 172.959383 214.123437 L 172.959383 220.123437 L 175.459383 220.123437 L 175.459383 214.123437" stroke="gray" fill="white" stroke-width="1px"></path><path d="M 163.459383 214.123437 L 160.959383 214.123437 L 160.959383 220.123437 L 163.459383 220.123437 L 163.459383 214.123437" stroke="gray" fill="white" stroke-width="1px"></path><path d="M 151.459383 214.123437 L 148.959383 214.123437 L 148.959383 220.123437 L 151.459383 220.123437 L 151.459383 214.123437" stroke="gray" fill="white" stroke-width="1px"></path><path d="M 139.459383 214.123437 L 136.959383 214.123437 L 136.959383 220.123437 L 139.459383 220.123437 L 139.459383 214.123437" stroke="gray" fill="white" stroke-width="1px"></path><path d="M 223.459383 214.123437 L 220.959383 214.123437 L 220.959383 220.123437 L 223.459383 220.123437 L 223.459383 214.123437" stroke="gray" fill="white" stroke-width="1px"></path><path d="M 223.459383 208.123437 L 220.959383 208.123437 L 220.959383 214.123437 L 223.459383 214.123437 L 223.459383 208.123437" stroke="gray" fill="white" stroke-width="1px"></path><path d="M 223.459383 202.123437 L 220.959383 202.123437 L 220.959383 208.123437 L 223.459383 208.123437 L 223.459383 202.123437" stroke="gray" fill="white" stroke-width="1px"></path><path d="M 223.459383 196.123437 L 220.959383 196.123437 L 220.959383 202.123437 L 223.459383 202.123437 L 223.459383 196.123437" stroke="gray" fill="white" stroke-width="1px"></path><path d="M 211.459383 208.123437 L 208.959383 208.123437 L 208.959383 214.123437 L 211.459383 214.123437 L 211.459383 208.123437" stroke="gray" fill="white" stroke-width="1px"></path><path d="M 211.459383 202.123437 L 208.959383 202.123437 L 208.959383 208.123437 L 211.459383 208.123437 L 211.459383 202.123437" stroke="gray" fill="white" stroke-width="1px"></path><path d="M 211.459383 196.123437 L 208.959383 196.123437 L 208.959383 202.123437 L 211.459383 202.123437 L 211.459383 196.123437" stroke="gray" fill="white" stroke-width="1px"></path><path d="M 31.459383 169.894781 L 33.959383 169.894781 L 33.959383 175.894781 L 31.459383 175.894781 L 31.459383 169.894781" stroke="gray" fill="white" stroke-width="1px"></path><path d="M 31.459383 163.894781 L 33.959383 163.894781 L 33.959383 169.894781 L 31.459383 169.894781 L 31.459383 163.894781" stroke="gray" fill="white" stroke-width="1px"></path><path d="M 31.459383 157.894781 L 33.959383 157.894781 L 33.959383 163.894781 L 31.459383 163.894781 L 31.459383 157.894781" stroke="gray" fill="white" stroke-width="1px"></path><path d="M 31.459383 151.894781 L 33.959383 151.894781 L 33.959383 157.894781 L 31.459383 157.894781 L 31.459383 151.894781" stroke="gray" fill="white" stroke-width="1px"></path><path d="M 31.459383 145.894781 L 33.959383 145.894781 L 33.959383 151.894781 L 31.459383 151.894781 L 31.459383 145.894781" stroke="gray" fill="white" stroke-width="1px"></path><path d="M 31.459383 139.894781 L 33.959383 139.894781 L 33.959383 145.894781 L 31.459383 145.894781 L 31.459383 139.894781" stroke="gray" fill="white" stroke-width="1px"></path><path d="M 31.459383 133.894781 L 33.959383 133.894781 L 33.959383 139.894781 L 31.459383 139.894781 L 31.459383 133.894781" stroke="gray" fill="white" stroke-width="1px"></path><path d="M 31.459383 127.894781 L 33.959383 127.894781 L 33.959383 133.894781 L 31.459383 133.894781 L 31.459383 127.894781" stroke="gray" fill="white" stroke-width="1px"></path><path d="M 19.459383 170.539196 L 21.959383 170.539196 L 21.959383 176.539196 L 19.459383 176.539196 L 19.459383 170.539196" stroke="gray" fill="white" stroke-width="1px"></path><path d="M 19.459383 164.539196 L 21.959383 164.539196 L 21.959383 170.539196 L 19.459383 170.539196 L 19.459383 164.539196" stroke="gray" fill="white" stroke-width="1px"></path><path d="M 19.459383 158.539196 L 21.959383 158.539196 L 21.959383 164.539196 L 19.459383 164.539196 L 19.459383 158.539196" stroke="gray" fill="white" stroke-width="1px"></path><path d="M 19.459383 152.539196 L 21.959383 152.539196 L 21.959383 158.539196 L 19.459383 158.539196 L 19.459383 152.539196" stroke="gray" fill="white" stroke-width="1px"></path><path d="M 19.459383 146.539196 L 21.959383 146.539196 L 21.959383 152.539196 L 19.459383 152.539196 L 19.459383 146.539196" stroke="gray" fill="white" stroke-width="1px"></path><path d="M 19.459383 140.539196 L 21.959383 140.539196 L 21.959383 146.539196 L 19.459383 146.539196 L 19.459383 140.539196" stroke="gray" fill="white" stroke-width="1px"></path><path d="M 19.459383 134.539196 L 21.959383 134.539196 L 21.959383 140.539196 L 19.459383 140.539196 L 19.459383 134.539196" stroke="gray" fill="white" stroke-width="1px"></path><path d="M 19.459383 128.539196 L 21.959383 128.539196 L 21.959383 134.539196 L 19.459383 134.539196 L 19.459383 128.539196" stroke="gray" fill="white" stroke-width="1px"></path><path d="M 55.459383 220.180625 L 57.959383 220.180625 L 57.959383 226.180625 L 55.459383 226.180625 L 55.459383 220.180625" stroke="gray" fill="white" stroke-width="1px"></path><path d="M 55.459383 214.180625 L 57.959383 214.180625 L 57.959383 220.180625 L 55.459383 220.180625 L 55.459383 214.180625" stroke="gray" fill="white" stroke-width="1px"></path><path d="M 55.459383 208.180625 L 57.959383 208.180625 L 57.959383 214.180625 L 55.459383 214.180625 L 55.459383 208.180625" stroke="gray" fill="white" stroke-width="1px"></path><path d="M 55.459383 202.180625 L 57.959383 202.180625 L 57.959383 208.180625 L 55.459383 208.180625 L 55.459383 202.180625" stroke="gray" fill="white" stroke-width="1px"></path><path d="M 55.459383 196.180625 L 57.959383 196.180625 L 57.959383 202.180625 L 55.459383 202.180625 L 55.459383 196.180625" stroke="gray" fill="white" stroke-width="1px"></path><path d="M 43.459383 220.180625 L 45.959383 220.180625 L 45.959383 226.180625 L 43.459383 226.180625 L 43.459383 220.180625" stroke="gray" fill="white" stroke-width="1px"></path><path d="M 43.459383 214.180625 L 45.959383 214.180625 L 45.959383 220.180625 L 43.459383 220.180625 L 43.459383 214.180625" stroke="gray" fill="white" stroke-width="1px"></path><path d="M 43.459383 208.180625 L 45.959383 208.180625 L 45.959383 214.180625 L 43.459383 214.180625 L 43.459383 208.180625" stroke="gray" fill="white" stroke-width="1px"></path><path d="M 43.459383 202.180625 L 45.959383 202.180625 L 45.959383 208.180625 L 43.459383 208.180625 L 43.459383 202.180625" stroke="gray" fill="white" stroke-width="1px"></path><path d="M 31.459383 220.180625 L 33.959383 220.180625 L 33.959383 226.180625 L 31.459383 226.180625 L 31.459383 220.180625" stroke="gray" fill="white" stroke-width="1px"></path><path d="M 31.459383 214.180625 L 33.959383 214.180625 L 33.959383 220.180625 L 31.459383 220.180625 L 31.459383 214.180625" stroke="gray" fill="white" stroke-width="1px"></path><path d="M 31.459383 208.180625 L 33.959383 208.180625 L 33.959383 214.180625 L 31.459383 214.180625 L 31.459383 208.180625" stroke="gray" fill="white" stroke-width="1px"></path><path d="M 31.459383 202.180625 L 33.959383 202.180625 L 33.959383 208.180625 L 31.459383 208.180625 L 31.459383 202.180625" stroke="gray" fill="white" stroke-width="1px"></path><path d="M 19.459383 220.180625 L 21.959383 220.180625 L 21.959383 226.180625 L 19.459383 226.180625 L 19.459383 220.180625" stroke="gray" fill="white" stroke-width="1px"></path><path d="M 19.459383 214.180625 L 21.959383 214.180625 L 21.959383 220.180625 L 19.459383 220.180625 L 19.459383 214.180625" stroke="gray" fill="white" stroke-width="1px"></path><path d="M 19.459383 208.180625 L 21.959383 208.180625 L 21.959383 214.180625 L 19.459383 214.180625 L 19.459383 208.180625" stroke="gray" fill="white" stroke-width="1px"></path><path d="M 19.459383 202.180625 L 21.959383 202.180625 L 21.959383 208.180625 L 19.459383 208.180625 L 19.459383 202.180625" stroke="gray" fill="white" stroke-width="1px"></path><path d="M 127.459383 208.123437 L 129.959383 208.123437 L 129.959383 214.123437 L 127.459383 214.123437 L 127.459383 208.123437" stroke="gray" fill="white" stroke-width="1px"></path><path d="M 127.459383 202.123437 L 129.959383 202.123437 L 129.959383 208.123437 L 127.459383 208.123437 L 127.459383 202.123437" stroke="gray" fill="white" stroke-width="1px"></path><path d="M 127.459383 196.123437 L 129.959383 196.123437 L 129.959383 202.123437 L 127.459383 202.123437 L 127.459383 196.123437" stroke="gray" fill="white" stroke-width="1px"></path><path d="M 115.459383 214.123437 L 117.959383 214.123437 L 117.959383 220.123437 L 115.459383 220.123437 L 115.459383 214.123437" stroke="gray" fill="white" stroke-width="1px"></path><path d="M 115.459383 208.123437 L 117.959383 208.123437 L 117.959383 214.123437 L 115.459383 214.123437 L 115.459383 208.123437" stroke="gray" fill="white" stroke-width="1px"></path><path d="M 115.459383 202.123437 L 117.959383 202.123437 L 117.959383 208.123437 L 115.459383 208.123437 L 115.459383 202.123437" stroke="gray" fill="white" stroke-width="1px"></path><path d="M 115.459383 196.123437 L 117.959383 196.123437 L 117.959383 202.123437 L 115.459383 202.123437 L 115.459383 196.123437" stroke="gray" fill="white" stroke-width="1px"></path><path d="M 175.459383 214.123437 L 177.959383 214.123437 L 177.959383 220.123437 L 175.459383 220.123437 L 175.459383 214.123437" stroke="gray" fill="white" stroke-width="1px"></path><path d="M 163.459383 214.123437 L 165.959383 214.123437 L 165.959383 220.123437 L 163.459383 220.123437 L 163.459383 214.123437" stroke="gray" fill="white" stroke-width="1px"></path><path d="M 151.459383 214.123437 L 153.959383 214.123437 L 153.959383 220.123437 L 151.459383 220.123437 L 151.459383 214.123437" stroke="gray" fill="white" stroke-width="1px"></path><path d="M 139.459383 214.123437 L 141.959383 214.123437 L 141.959383 220.123437 L 139.459383 220.123437 L 139.459383 214.123437" stroke="gray" fill="white" stroke-width="1px"></path><path d="M 223.459383 214.123437 L 225.959383 214.123437 L 225.959383 220.123437 L 223.459383 220.123437 L 223.459383 214.123437" stroke="gray" fill="white" stroke-width="1px"></path><path d="M 223.459383 208.123437 L 225.959383 208.123437 L 225.959383 214.123437 L 223.459383 214.123437 L 223.459383 208.123437" stroke="gray" fill="white" stroke-width="1px"></path><path d="M 223.459383 202.123437 L 225.959383 202.123437 L 225.959383 208.123437 L 223.459383 208.123437 L 223.459383 202.123437" stroke="gray" fill="white" stroke-width="1px"></path><path d="M 223.459383 196.123437 L 225.959383 196.123437 L 225.959383 202.123437 L 223.459383 202.123437 L 223.459383 196.123437" stroke="gray" fill="white" stroke-width="1px"></path><path d="M 211.459383 208.123437 L 213.959383 208.123437 L 213.959383 214.123437 L 211.459383 214.123437 L 211.459383 208.123437" stroke="gray" fill="white" stroke-width="1px"></path><path d="M 211.459383 202.123437 L 213.959383 202.123437 L 213.959383 208.123437 L 211.459383 208.123437 L 211.459383 202.123437" stroke="gray" fill="white" stroke-width="1px"></path><path d="M 211.459383 196.123437 L 213.959383 196.123437 L 213.959383 202.123437 L 211.459383 202.123437 L 211.459383 196.123437" stroke="gray" fill="white" stroke-width="1px"></path><path d="M 251.188908 208.123437 L 251.188908 205.623437 L 245.188908 205.623437 L 245.188908 208.123437 L 251.188908 208.123437" stroke="gray" fill="white" stroke-width="1px"></path><path d="M 257.188908 208.123437 L 257.188908 205.623437 L 251.188908 205.623437 L 251.188908 208.123437 L 257.188908 208.123437" stroke="gray" fill="white" stroke-width="1px"></path><path d="M 263.188908 208.123437 L 263.188908 205.623437 L 257.188908 205.623437 L 257.188908 208.123437 L 263.188908 208.123437" stroke="gray" fill="white" stroke-width="1px"></path><path d="M 269.188908 208.123437 L 269.188908 205.623437 L 263.188908 205.623437 L 263.188908 208.123437 L 269.188908 208.123437" stroke="gray" fill="white" stroke-width="1px"></path><path d="M 275.188908 208.123437 L 275.188908 205.623437 L 269.188908 205.623437 L 269.188908 208.123437 L 275.188908 208.123437" stroke="gray" fill="white" stroke-width="1px"></path><path d="M 252.859269 196.123437 L 252.859269 193.623437 L 246.859269 193.623437 L 246.859269 196.123437 L 252.859269 196.123437" stroke="gray" fill="white" stroke-width="1px"></path><path d="M 258.859269 196.123437 L 258.859269 193.623437 L 252.859269 193.623437 L 252.859269 196.123437 L 258.859269 196.123437" stroke="gray" fill="white" stroke-width="1px"></path><path d="M 264.859269 196.123437 L 264.859269 193.623437 L 258.859269 193.623437 L 258.859269 196.123437 L 264.859269 196.123437" stroke="gray" fill="white" stroke-width="1px"></path><path d="M 270.859269 196.123437 L 270.859269 193.623437 L 264.859269 193.623437 L 264.859269 196.123437 L 270.859269 196.123437" stroke="gray" fill="white" stroke-width="1px"></path><path d="M 276.859269 196.123437 L 276.859269 193.623437 L 270.859269 193.623437 L 270.859269 196.123437 L 276.859269 196.123437" stroke="gray" fill="white" stroke-width="1px"></path><path d="M 251.737652 184.123437 L 251.737652 181.623437 L 245.737652 181.623437 L 245.737652 184.123437 L 251.737652 184.123437" stroke="gray" fill="white" stroke-width="1px"></path><path d="M 257.737652 184.123437 L 257.737652 181.623437 L 251.737652 181.623437 L 251.737652 184.123437 L 257.737652 184.123437" stroke="gray" fill="white" stroke-width="1px"></path><path d="M 263.737652 184.123437 L 263.737652 181.623437 L 257.737652 181.623437 L 257.737652 184.123437 L 263.737652 184.123437" stroke="gray" fill="white" stroke-width="1px"></path><path d="M 269.737652 184.123437 L 269.737652 181.623437 L 263.737652 181.623437 L 263.737652 184.123437 L 269.737652 184.123437" stroke="gray" fill="white" stroke-width="1px"></path><path d="M 275.737652 184.123437 L 275.737652 181.623437 L 269.737652 181.623437 L 269.737652 184.123437 L 275.737652 184.123437" stroke="gray" fill="white" stroke-width="1px"></path><path d="M 269.843969 172.123437 L 269.843969 169.623437 L 263.843969 169.623437 L 263.843969 172.123437 L 269.843969 172.123437" stroke="gray" fill="white" stroke-width="1px"></path><path d="M 275.843969 172.123437 L 275.843969 169.623437 L 269.843969 169.623437 L 269.843969 172.123437 L 275.843969 172.123437" stroke="gray" fill="white" stroke-width="1px"></path><path d="M 266.679965 160.123437 L 266.679965 157.623437 L 260.679965 157.623437 L 260.679965 160.123437 L 266.679965 160.123437" stroke="gray" fill="white" stroke-width="1px"></path><path d="M 266.679965 148.123437 L 266.679965 145.623437 L 260.679965 145.623437 L 260.679965 148.123437 L 266.679965 148.123437" stroke="gray" fill="white" stroke-width="1px"></path><path d="M 272.679965 148.123437 L 272.679965 145.623437 L 266.679965 145.623437 L 266.679965 148.123437 L 272.679965 148.123437" stroke="gray" fill="white" stroke-width="1px"></path><path d="M 278.679965 148.123437 L 278.679965 145.623437 L 272.679965 145.623437 L 272.679965 148.123437 L 278.679965 148.123437" stroke="gray" fill="white" stroke-width="1px"></path><path d="M 266.679965 136.123437 L 266.679965 133.623437 L 260.679965 133.623437 L 260.679965 136.123437 L 266.679965 136.123437" stroke="gray" fill="white" stroke-width="1px"></path><path d="M 272.679965 136.123437 L 272.679965 133.623437 L 266.679965 133.623437 L 266.679965 136.123437 L 272.679965 136.123437" stroke="gray" fill="white" stroke-width="1px"></path><path d="M 278.679965 136.123437 L 278.679965 133.623437 L 272.679965 133.623437 L 272.679965 136.123437 L 278.679965 136.123437" stroke="gray" fill="white" stroke-width="1px"></path><path d="M 251.188908 208.123437 L 251.188908 210.623437 L 245.188908 210.623437 L 245.188908 208.123437 L 251.188908 208.123437" stroke="gray" fill="white" stroke-width="1px"></path><path d="M 257.188908 208.123437 L 257.188908 210.623437 L 251.188908 210.623437 L 251.188908 208.123437 L 257.188908 208.123437" stroke="gray" fill="white" stroke-width="1px"></path><path d="M 263.188908 208.123437 L 263.188908 210.623437 L 257.188908 210.623437 L 257.188908 208.123437 L 263.188908 208.123437" stroke="gray" fill="white" stroke-width="1px"></path><path d="M 269.188908 208.123437 L 269.188908 210.623437 L 263.188908 210.623437 L 263.188908 208.123437 L 269.188908 208.123437" stroke="gray" fill="white" stroke-width="1px"></path><path d="M 275.188908 208.123437 L 275.188908 210.623437 L 269.188908 210.623437 L 269.188908 208.123437 L 275.188908 208.123437" stroke="gray" fill="white" stroke-width="1px"></path><path d="M 252.859269 196.123437 L 252.859269 198.623437 L 246.859269 198.623437 L 246.859269 196.123437 L 252.859269 196.123437" stroke="gray" fill="white" stroke-width="1px"></path><path d="M 258.859269 196.123437 L 258.859269 198.623437 L 252.859269 198.623437 L 252.859269 196.123437 L 258.859269 196.123437" stroke="gray" fill="white" stroke-width="1px"></path><path d="M 264.859269 196.123437 L 264.859269 198.623437 L 258.859269 198.623437 L 258.859269 196.123437 L 264.859269 196.123437" stroke="gray" fill="white" stroke-width="1px"></path><path d="M 270.859269 196.123437 L 270.859269 198.623437 L 264.859269 198.623437 L 264.859269 196.123437 L 270.859269 196.123437" stroke="gray" fill="white" stroke-width="1px"></path><path d="M 276.859269 196.123437 L 276.859269 198.623437 L 270.859269 198.623437 L 270.859269 196.123437 L 276.859269 196.123437" stroke="gray" fill="white" stroke-width="1px"></path><path d="M 251.737652 184.123437 L 251.737652 186.623437 L 245.737652 186.623437 L 245.737652 184.123437 L 251.737652 184.123437" stroke="gray" fill="white" stroke-width="1px"></path><path d="M 257.737652 184.123437 L 257.737652 186.623437 L 251.737652 186.623437 L 251.737652 184.123437 L 257.737652 184.123437" stroke="gray" fill="white" stroke-width="1px"></path><path d="M 263.737652 184.123437 L 263.737652 186.623437 L 257.737652 186.623437 L 257.737652 184.123437 L 263.737652 184.123437" stroke="gray" fill="white" stroke-width="1px"></path><path d="M 269.737652 184.123437 L 269.737652 186.623437 L 263.737652 186.623437 L 263.737652 184.123437 L 269.737652 184.123437" stroke="gray" fill="white" stroke-width="1px"></path><path d="M 275.737652 184.123437 L 275.737652 186.623437 L 269.737652 186.623437 L 269.737652 184.123437 L 275.737652 184.123437" stroke="gray" fill="white" stroke-width="1px"></path><path d="M 257.843969 172.123437 L 257.843969 174.623437 L 251.843969 174.623437 L 251.843969 172.123437 L 257.843969 172.123437" stroke="gray" fill="white" stroke-width="1px"></path><path d="M 263.843969 172.123437 L 263.843969 174.623437 L 257.843969 174.623437 L 257.843969 172.123437 L 263.843969 172.123437" stroke="gray" fill="white" stroke-width="1px"></path><path d="M 269.843969 172.123437 L 269.843969 174.623437 L 263.843969 174.623437 L 263.843969 172.123437 L 269.843969 172.123437" stroke="gray" fill="white" stroke-width="1px"></path><path d="M 275.843969 172.123437 L 275.843969 174.623437 L 269.843969 174.623437 L 269.843969 172.123437 L 275.843969 172.123437" stroke="gray" fill="white" stroke-width="1px"></path><path d="M 266.679965 160.123437 L 266.679965 162.623437 L 260.679965 162.623437 L 260.679965 160.123437 L 266.679965 160.123437" stroke="gray" fill="white" stroke-width="1px"></path><path d="M 266.679965 148.123437 L 266.679965 150.623437 L 260.679965 150.623437 L 260.679965 148.123437 L 266.679965 148.123437" stroke="gray" fill="white" stroke-width="1px"></path><path d="M 272.679965 148.123437 L 272.679965 150.623437 L 266.679965 150.623437 L 266.679965 148.123437 L 272.679965 148.123437" stroke="gray" fill="white" stroke-width="1px"></path><path d="M 278.679965 148.123437 L 278.679965 150.623437 L 272.679965 150.623437 L 272.679965 148.123437 L 278.679965 148.123437" stroke="gray" fill="white" stroke-width="1px"></path><path d="M 266.679965 136.123437 L 266.679965 138.623437 L 260.679965 138.623437 L 260.679965 136.123437 L 266.679965 136.123437" stroke="gray" fill="white" stroke-width="1px"></path><path d="M 272.679965 136.123437 L 272.679965 138.623437 L 266.679965 138.623437 L 266.679965 136.123437 L 272.679965 136.123437" stroke="gray" fill="white" stroke-width="1px"></path><path d="M 278.679965 136.123437 L 278.679965 138.623437 L 272.679965 138.623437 L 272.679965 136.123437 L 278.679965 136.123437" stroke="gray" fill="white" stroke-width="1px"></path><path d="M 271.459383 43.583245 L 268.959383 43.583245 L 268.959383 49.583245 L 271.459383 49.583245 L 271.459383 43.583245" stroke="gray" fill="white" stroke-width="1px"></path><path d="M 271.459383 37.583245 L 268.959383 37.583245 L 268.959383 43.583245 L 271.459383 43.583245 L 271.459383 37.583245" stroke="gray" fill="white" stroke-width="1px"></path><path d="M 271.459383 31.583245 L 268.959383 31.583245 L 268.959383 37.583245 L 271.459383 37.583245 L 271.459383 31.583245" stroke="gray" fill="white" stroke-width="1px"></path><path d="M 271.459383 25.583245 L 268.959383 25.583245 L 268.959383 31.583245 L 271.459383 31.583245 L 271.459383 25.583245" stroke="gray" fill="white" stroke-width="1px"></path><path d="M 271.459383 19.583245 L 268.959383 19.583245 L 268.959383 25.583245 L 271.459383 25.583245 L 271.459383 19.583245" stroke="gray" fill="white" stroke-width="1px"></path><path d="M 271.459383 13.583245 L 268.959383 13.583245 L 268.959383 19.583245 L 271.459383 19.583245 L 271.459383 13.583245" stroke="gray" fill="white" stroke-width="1px"></path><path d="M 259.459383 45.126537 L 256.959383 45.126537 L 256.959383 51.126537 L 259.459383 51.126537 L 259.459383 45.126537" stroke="gray" fill="white" stroke-width="1px"></path><path d="M 259.459383 39.126537 L 256.959383 39.126537 L 256.959383 45.126537 L 259.459383 45.126537 L 259.459383 39.126537" stroke="gray" fill="white" stroke-width="1px"></path><path d="M 259.459383 33.126537 L 256.959383 33.126537 L 256.959383 39.126537 L 259.459383 39.126537 L 259.459383 33.126537" stroke="gray" fill="white" stroke-width="1px"></path><path d="M 259.459383 27.126537 L 256.959383 27.126537 L 256.959383 33.126537 L 259.459383 33.126537 L 259.459383 27.126537" stroke="gray" fill="white" stroke-width="1px"></path><path d="M 259.459383 21.126537 L 256.959383 21.126537 L 256.959383 27.126537 L 259.459383 27.126537 L 259.459383 21.126537" stroke="gray" fill="white" stroke-width="1px"></path><path d="M 259.459383 15.126537 L 256.959383 15.126537 L 256.959383 21.126537 L 259.459383 21.126537 L 259.459383 15.126537" stroke="gray" fill="white" stroke-width="1px"></path><path d="M 247.459383 46.669829 L 244.959383 46.669829 L 244.959383 52.669829 L 247.459383 52.669829 L 247.459383 46.669829" stroke="gray" fill="white" stroke-width="1px"></path><path d="M 247.459383 40.669829 L 244.959383 40.669829 L 244.959383 46.669829 L 247.459383 46.669829 L 247.459383 40.669829" stroke="gray" fill="white" stroke-width="1px"></path><path d="M 247.459383 34.669829 L 244.959383 34.669829 L 244.959383 40.669829 L 247.459383 40.669829 L 247.459383 34.669829" stroke="gray" fill="white" stroke-width="1px"></path><path d="M 247.459383 28.669829 L 244.959383 28.669829 L 244.959383 34.669829 L 247.459383 34.669829 L 247.459383 28.669829" stroke="gray" fill="white" stroke-width="1px"></path><path d="M 247.459383 22.669829 L 244.959383 22.669829 L 244.959383 28.669829 L 247.459383 28.669829 L 247.459383 22.669829" stroke="gray" fill="white" stroke-width="1px"></path><path d="M 247.459383 16.669829 L 244.959383 16.669829 L 244.959383 22.669829 L 247.459383 22.669829 L 247.459383 16.669829" stroke="gray" fill="white" stroke-width="1px"></path><path d="M 175.459383 101.033125 L 172.959383 101.033125 L 172.959383 107.033125 L 175.459383 107.033125 L 175.459383 101.033125" stroke="gray" fill="white" stroke-width="1px"></path><path d="M 175.459383 95.033125 L 172.959383 95.033125 L 172.959383 101.033125 L 175.459383 101.033125 L 175.459383 95.033125" stroke="gray" fill="white" stroke-width="1px"></path><path d="M 163.459383 101.033125 L 160.959383 101.033125 L 160.959383 107.033125 L 163.459383 107.033125 L 163.459383 101.033125" stroke="gray" fill="white" stroke-width="1px"></path><path d="M 163.459383 95.033125 L 160.959383 95.033125 L 160.959383 101.033125 L 163.459383 101.033125 L 163.459383 95.033125" stroke="gray" fill="white" stroke-width="1px"></path><path d="M 163.459383 89.033125 L 160.959383 89.033125 L 160.959383 95.033125 L 163.459383 95.033125 L 163.459383 89.033125" stroke="gray" fill="white" stroke-width="1px"></path><path d="M 163.459383 83.033125 L 160.959383 83.033125 L 160.959383 89.033125 L 163.459383 89.033125 L 163.459383 83.033125" stroke="gray" fill="white" stroke-width="1px"></path><path d="M 127.459383 101.033125 L 124.959383 101.033125 L 124.959383 107.033125 L 127.459383 107.033125 L 127.459383 101.033125" stroke="gray" fill="white" stroke-width="1px"></path><path d="M 115.459383 101.033125 L 112.959383 101.033125 L 112.959383 107.033125 L 115.459383 107.033125 L 115.459383 101.033125" stroke="gray" fill="white" stroke-width="1px"></path><path d="M 103.459383 101.033125 L 100.959383 101.033125 L 100.959383 107.033125 L 103.459383 107.033125 L 103.459383 101.033125" stroke="gray" fill="white" stroke-width="1px"></path><path d="M 31.459383 48.383333 L 28.959383 48.383333 L 28.959383 54.383333 L 31.459383 54.383333 L 31.459383 48.383333" stroke="gray" fill="white" stroke-width="1px"></path><path d="M 31.459383 42.383333 L 28.959383 42.383333 L 28.959383 48.383333 L 31.459383 48.383333 L 31.459383 42.383333" stroke="gray" fill="white" stroke-width="1px"></path><path d="M 31.459383 36.383333 L 28.959383 36.383333 L 28.959383 42.383333 L 31.459383 42.383333 L 31.459383 36.383333" stroke="gray" fill="white" stroke-width="1px"></path><path d="M 31.459383 30.383333 L 28.959383 30.383333 L 28.959383 36.383333 L 31.459383 36.383333 L 31.459383 30.383333" stroke="gray" fill="white" stroke-width="1px"></path><path d="M 31.459383 24.383333 L 28.959383 24.383333 L 28.959383 30.383333 L 31.459383 30.383333 L 31.459383 24.383333" stroke="gray" fill="white" stroke-width="1px"></path><path d="M 31.459383 18.383333 L 28.959383 18.383333 L 28.959383 24.383333 L 31.459383 24.383333 L 31.459383 18.383333" stroke="gray" fill="white" stroke-width="1px"></path><path d="M 19.459383 49.245669 L 16.959383 49.245669 L 16.959383 55.245669 L 19.459383 55.245669 L 19.459383 49.245669" stroke="gray" fill="white" stroke-width="1px"></path><path d="M 19.459383 43.245669 L 16.959383 43.245669 L 16.959383 49.245669 L 19.459383 49.245669 L 19.459383 43.245669" stroke="gray" fill="white" stroke-width="1px"></path><path d="M 19.459383 37.245669 L 16.959383 37.245669 L 16.959383 43.245669 L 19.459383 43.245669 L 19.459383 37.245669" stroke="gray" fill="white" stroke-width="1px"></path><path d="M 19.459383 31.245669 L 16.959383 31.245669 L 16.959383 37.245669 L 19.459383 37.245669 L 19.459383 31.245669" stroke="gray" fill="white" stroke-width="1px"></path><path d="M 19.459383 25.245669 L 16.959383 25.245669 L 16.959383 31.245669 L 19.459383 31.245669 L 19.459383 25.245669" stroke="gray" fill="white" stroke-width="1px"></path><path d="M 19.459383 19.245669 L 16.959383 19.245669 L 16.959383 25.245669 L 19.459383 25.245669 L 19.459383 19.245669" stroke="gray" fill="white" stroke-width="1px"></path><path d="M 19.459383 13.245669 L 16.959383 13.245669 L 16.959383 19.245669 L 19.459383 19.245669 L 19.459383 13.245669" stroke="gray" fill="white" stroke-width="1px"></path><path d="M 271.459383 43.583245 L 273.959383 43.583245 L 273.959383 49.583245 L 271.459383 49.583245 L 271.459383 43.583245" stroke="gray" fill="white" stroke-width="1px"></path><path d="M 271.459383 37.583245 L 273.959383 37.583245 L 273.959383 43.583245 L 271.459383 43.583245 L 271.459383 37.583245" stroke="gray" fill="white" stroke-width="1px"></path><path d="M 271.459383 31.583245 L 273.959383 31.583245 L 273.959383 37.583245 L 271.459383 37.583245 L 271.459383 31.583245" stroke="gray" fill="white" stroke-width="1px"></path><path d="M 271.459383 25.583245 L 273.959383 25.583245 L 273.959383 31.583245 L 271.459383 31.583245 L 271.459383 25.583245" stroke="gray" fill="white" stroke-width="1px"></path><path d="M 271.459383 19.583245 L 273.959383 19.583245 L 273.959383 25.583245 L 271.459383 25.583245 L 271.459383 19.583245" stroke="gray" fill="white" stroke-width="1px"></path><path d="M 271.459383 13.583245 L 273.959383 13.583245 L 273.959383 19.583245 L 271.459383 19.583245 L 271.459383 13.583245" stroke="gray" fill="white" stroke-width="1px"></path><path d="M 259.459383 45.126537 L 261.959383 45.126537 L 261.959383 51.126537 L 259.459383 51.126537 L 259.459383 45.126537" stroke="gray" fill="white" stroke-width="1px"></path><path d="M 259.459383 39.126537 L 261.959383 39.126537 L 261.959383 45.126537 L 259.459383 45.126537 L 259.459383 39.126537" stroke="gray" fill="white" stroke-width="1px"></path><path d="M 259.459383 33.126537 L 261.959383 33.126537 L 261.959383 39.126537 L 259.459383 39.126537 L 259.459383 33.126537" stroke="gray" fill="white" stroke-width="1px"></path><path d="M 259.459383 27.126537 L 261.959383 27.126537 L 261.959383 33.126537 L 259.459383 33.126537 L 259.459383 27.126537" stroke="gray" fill="white" stroke-width="1px"></path><path d="M 259.459383 21.126537 L 261.959383 21.126537 L 261.959383 27.126537 L 259.459383 27.126537 L 259.459383 21.126537" stroke="gray" fill="white" stroke-width="1px"></path><path d="M 259.459383 15.126537 L 261.959383 15.126537 L 261.959383 21.126537 L 259.459383 21.126537 L 259.459383 15.126537" stroke="gray" fill="white" stroke-width="1px"></path><path d="M 247.459383 46.669829 L 249.959383 46.669829 L 249.959383 52.669829 L 247.459383 52.669829 L 247.459383 46.669829" stroke="gray" fill="white" stroke-width="1px"></path><path d="M 247.459383 40.669829 L 249.959383 40.669829 L 249.959383 46.669829 L 247.459383 46.669829 L 247.459383 40.669829" stroke="gray" fill="white" stroke-width="1px"></path><path d="M 247.459383 34.669829 L 249.959383 34.669829 L 249.959383 40.669829 L 247.459383 40.669829 L 247.459383 34.669829" stroke="gray" fill="white" stroke-width="1px"></path><path d="M 247.459383 28.669829 L 249.959383 28.669829 L 249.959383 34.669829 L 247.459383 34.669829 L 247.459383 28.669829" stroke="gray" fill="white" stroke-width="1px"></path><path d="M 247.459383 22.669829 L 249.959383 22.669829 L 249.959383 28.669829 L 247.459383 28.669829 L 247.459383 22.669829" stroke="gray" fill="white" stroke-width="1px"></path><path d="M 247.459383 16.669829 L 249.959383 16.669829 L 249.959383 22.669829 L 247.459383 22.669829 L 247.459383 16.669829" stroke="gray" fill="white" stroke-width="1px"></path><path d="M 175.459383 101.033125 L 177.959383 101.033125 L 177.959383 107.033125 L 175.459383 107.033125 L 175.459383 101.033125" stroke="gray" fill="white" stroke-width="1px"></path><path d="M 175.459383 95.033125 L 177.959383 95.033125 L 177.959383 101.033125 L 175.459383 101.033125 L 175.459383 95.033125" stroke="gray" fill="white" stroke-width="1px"></path><path d="M 163.459383 101.033125 L 165.959383 101.033125 L 165.959383 107.033125 L 163.459383 107.033125 L 163.459383 101.033125" stroke="gray" fill="white" stroke-width="1px"></path><path d="M 163.459383 95.033125 L 165.959383 95.033125 L 165.959383 101.033125 L 163.459383 101.033125 L 163.459383 95.033125" stroke="gray" fill="white" stroke-width="1px"></path><path d="M 163.459383 89.033125 L 165.959383 89.033125 L 165.959383 95.033125 L 163.459383 95.033125 L 163.459383 89.033125" stroke="gray" fill="white" stroke-width="1px"></path><path d="M 163.459383 83.033125 L 165.959383 83.033125 L 165.959383 89.033125 L 163.459383 89.033125 L 163.459383 83.033125" stroke="gray" fill="white" stroke-width="1px"></path><path d="M 127.459383 101.033125 L 129.959383 101.033125 L 129.959383 107.033125 L 127.459383 107.033125 L 127.459383 101.033125" stroke="gray" fill="white" stroke-width="1px"></path><path d="M 115.459383 101.033125 L 117.959383 101.033125 L 117.959383 107.033125 L 115.459383 107.033125 L 115.459383 101.033125" stroke="gray" fill="white" stroke-width="1px"></path><path d="M 103.459383 101.033125 L 105.959383 101.033125 L 105.959383 107.033125 L 103.459383 107.033125 L 103.459383 101.033125" stroke="gray" fill="white" stroke-width="1px"></path><path d="M 31.459383 48.383333 L 33.959383 48.383333 L 33.959383 54.383333 L 31.459383 54.383333 L 31.459383 48.383333" stroke="gray" fill="white" stroke-width="1px"></path><path d="M 31.459383 42.383333 L 33.959383 42.383333 L 33.959383 48.383333 L 31.459383 48.383333 L 31.459383 42.383333" stroke="gray" fill="white" stroke-width="1px"></path><path d="M 31.459383 36.383333 L 33.959383 36.383333 L 33.959383 42.383333 L 31.459383 42.383333 L 31.459383 36.383333" stroke="gray" fill="white" stroke-width="1px"></path><path d="M 31.459383 30.383333 L 33.959383 30.383333 L 33.959383 36.383333 L 31.459383 36.383333 L 31.459383 30.383333" stroke="gray" fill="white" stroke-width="1px"></path><path d="M 31.459383 24.383333 L 33.959383 24.383333 L 33.959383 30.383333 L 31.459383 30.383333 L 31.459383 24.383333" stroke="gray" fill="white" stroke-width="1px"></path><path d="M 31.459383 18.383333 L 33.959383 18.383333 L 33.959383 24.383333 L 31.459383 24.383333 L 31.459383 18.383333" stroke="gray" fill="white" stroke-width="1px"></path><path d="M 19.459383 49.245669 L 21.959383 49.245669 L 21.959383 55.245669 L 19.459383 55.245669 L 19.459383 49.245669" stroke="gray" fill="white" stroke-width="1px"></path><path d="M 19.459383 43.245669 L 21.959383 43.245669 L 21.959383 49.245669 L 19.459383 49.245669 L 19.459383 43.245669" stroke="gray" fill="white" stroke-width="1px"></path><path d="M 19.459383 37.245669 L 21.959383 37.245669 L 21.959383 43.245669 L 19.459383 43.245669 L 19.459383 37.245669" stroke="gray" fill="white" stroke-width="1px"></path><path d="M 19.459383 31.245669 L 21.959383 31.245669 L 21.959383 37.245669 L 19.459383 37.245669 L 19.459383 31.245669" stroke="gray" fill="white" stroke-width="1px"></path><path d="M 19.459383 25.245669 L 21.959383 25.245669 L 21.959383 31.245669 L 19.459383 31.245669 L 19.459383 25.245669" stroke="gray" fill="white" stroke-width="1px"></path><path d="M 19.459383 19.245669 L 21.959383 19.245669 L 21.959383 25.245669 L 19.459383 25.245669 L 19.459383 19.245669" stroke="gray" fill="white" stroke-width="1px"></path><path d="M 19.459383 13.245669 L 21.959383 13.245669 L 21.959383 19.245669 L 19.459383 19.245669 L 19.459383 13.245669" stroke="gray" fill="white" stroke-width="1px"></path><path d="M 256.968206 101.263579 L 256.968206 98.763579 L 250.968206 98.763579 L 250.968206 101.263579 L 256.968206 101.263579" stroke="gray" fill="white" stroke-width="1px"></path><path d="M 262.968206 101.263579 L 262.968206 98.763579 L 256.968206 98.763579 L 256.968206 101.263579 L 262.968206 101.263579" stroke="gray" fill="white" stroke-width="1px"></path><path d="M 268.968206 101.263579 L 268.968206 98.763579 L 262.968206 98.763579 L 262.968206 101.263579 L 268.968206 101.263579" stroke="gray" fill="white" stroke-width="1px"></path><path d="M 274.968206 101.263579 L 274.968206 98.763579 L 268.968206 98.763579 L 268.968206 101.263579 L 274.968206 101.263579" stroke="gray" fill="white" stroke-width="1px"></path><path d="M 254.598698 89.263579 L 254.598698 86.763579 L 248.598698 86.763579 L 248.598698 89.263579 L 254.598698 89.263579" stroke="gray" fill="white" stroke-width="1px"></path><path d="M 260.598698 89.263579 L 260.598698 86.763579 L 254.598698 86.763579 L 254.598698 89.263579 L 260.598698 89.263579" stroke="gray" fill="white" stroke-width="1px"></path><path d="M 266.598698 89.263579 L 266.598698 86.763579 L 260.598698 86.763579 L 260.598698 89.263579 L 266.598698 89.263579" stroke="gray" fill="white" stroke-width="1px"></path><path d="M 272.598698 89.263579 L 272.598698 86.763579 L 266.598698 86.763579 L 266.598698 89.263579 L 272.598698 89.263579" stroke="gray" fill="white" stroke-width="1px"></path><path d="M 278.598698 89.263579 L 278.598698 86.763579 L 272.598698 86.763579 L 272.598698 89.263579 L 278.598698 89.263579" stroke="gray" fill="white" stroke-width="1px"></path><path d="M 252.229189 77.263579 L 252.229189 74.763579 L 246.229189 74.763579 L 246.229189 77.263579 L 252.229189 77.263579" stroke="gray" fill="white" stroke-width="1px"></path><path d="M 258.229189 77.263579 L 258.229189 74.763579 L 252.229189 74.763579 L 252.229189 77.263579 L 258.229189 77.263579" stroke="gray" fill="white" stroke-width="1px"></path><path d="M 264.229189 77.263579 L 264.229189 74.763579 L 258.229189 74.763579 L 258.229189 77.263579 L 264.229189 77.263579" stroke="gray" fill="white" stroke-width="1px"></path><path d="M 270.229189 77.263579 L 270.229189 74.763579 L 264.229189 74.763579 L 264.229189 77.263579 L 270.229189 77.263579" stroke="gray" fill="white" stroke-width="1px"></path><path d="M 276.229189 77.263579 L 276.229189 74.763579 L 270.229189 74.763579 L 270.229189 77.263579 L 276.229189 77.263579" stroke="gray" fill="white" stroke-width="1px"></path><path d="M 204.045155 101.263579 L 204.045155 98.763579 L 198.045155 98.763579 L 198.045155 101.263579 L 204.045155 101.263579" stroke="gray" fill="white" stroke-width="1px"></path><path d="M 210.045155 101.263579 L 210.045155 98.763579 L 204.045155 98.763579 L 204.045155 101.263579 L 210.045155 101.263579" stroke="gray" fill="white" stroke-width="1px"></path><path d="M 216.045155 101.263579 L 216.045155 98.763579 L 210.045155 98.763579 L 210.045155 101.263579 L 216.045155 101.263579" stroke="gray" fill="white" stroke-width="1px"></path><path d="M 222.045155 101.263579 L 222.045155 98.763579 L 216.045155 98.763579 L 216.045155 101.263579 L 222.045155 101.263579" stroke="gray" fill="white" stroke-width="1px"></path><path d="M 208.936688 89.263579 L 208.936688 86.763579 L 202.936688 86.763579 L 202.936688 89.263579 L 208.936688 89.263579" stroke="gray" fill="white" stroke-width="1px"></path><path d="M 214.936688 89.263579 L 214.936688 86.763579 L 208.936688 86.763579 L 208.936688 89.263579 L 214.936688 89.263579" stroke="gray" fill="white" stroke-width="1px"></path><path d="M 220.936688 89.263579 L 220.936688 86.763579 L 214.936688 86.763579 L 214.936688 89.263579 L 220.936688 89.263579" stroke="gray" fill="white" stroke-width="1px"></path><path d="M 22.000000 101.263579 L 22.000000 98.763579 L 16.000000 98.763579 L 16.000000 101.263579 L 22.000000 101.263579" stroke="gray" fill="white" stroke-width="1px"></path><path d="M 28.000000 101.263579 L 28.000000 98.763579 L 22.000000 98.763579 L 22.000000 101.263579 L 28.000000 101.263579" stroke="gray" fill="white" stroke-width="1px"></path><path d="M 34.000000 101.263579 L 34.000000 98.763579 L 28.000000 98.763579 L 28.000000 101.263579 L 34.000000 101.263579" stroke="gray" fill="white" stroke-width="1px"></path><path d="M 40.000000 101.263579 L 40.000000 98.763579 L 34.000000 98.763579 L 34.000000 101.263579 L 40.000000 101.263579" stroke="gray" fill="white" stroke-width="1px"></path><path d="M 22.000000 89.263579 L 22.000000 86.763579 L 16.000000 86.763579 L 16.000000 89.263579 L 22.000000 89.263579" stroke="gray" fill="white" stroke-width="1px"></path><path d="M 28.000000 89.263579 L 28.000000 86.763579 L 22.000000 86.763579 L 22.000000 89.263579 L 28.000000 89.263579" stroke="gray" fill="white" stroke-width="1px"></path><path d="M 34.000000 89.263579 L 34.000000 86.763579 L 28.000000 86.763579 L 28.000000 89.263579 L 34.000000 89.263579" stroke="gray" fill="white" stroke-width="1px"></path><path d="M 40.000000 89.263579 L 40.000000 86.763579 L 34.000000 86.763579 L 34.000000 89.263579 L 40.000000 89.263579" stroke="gray" fill="white" stroke-width="1px"></path><path d="M 22.000000 77.263579 L 22.000000 74.763579 L 16.000000 74.763579 L 16.000000 77.263579 L 22.000000 77.263579" stroke="gray" fill="white" stroke-width="1px"></path><path d="M 28.000000 77.263579 L 28.000000 74.763579 L 22.000000 74.763579 L 22.000000 77.263579 L 28.000000 77.263579" stroke="gray" fill="white" stroke-width="1px"></path><path d="M 34.000000 77.263579 L 34.000000 74.763579 L 28.000000 74.763579 L 28.000000 77.263579 L 34.000000 77.263579" stroke="gray" fill="white" stroke-width="1px"></path><path d="M 40.000000 77.263579 L 40.000000 74.763579 L 34.000000 74.763579 L 34.000000 77.263579 L 40.000000 77.263579" stroke="gray" fill="white" stroke-width="1px"></path><path d="M 22.000000 65.263579 L 22.000000 62.763579 L 16.000000 62.763579 L 16.000000 65.263579 L 22.000000 65.263579" stroke="gray" fill="white" stroke-width="1px"></path><path d="M 28.000000 65.263579 L 28.000000 62.763579 L 22.000000 62.763579 L 22.000000 65.263579 L 28.000000 65.263579" stroke="gray" fill="white" stroke-width="1px"></path><path d="M 34.000000 65.263579 L 34.000000 62.763579 L 28.000000 62.763579 L 28.000000 65.263579 L 34.000000 65.263579" stroke="gray" fill="white" stroke-width="1px"></path><path d="M 40.000000 65.263579 L 40.000000 62.763579 L 34.000000 62.763579 L 34.000000 65.263579 L 40.000000 65.263579" stroke="gray" fill="white" stroke-width="1px"></path><path d="M 256.968206 101.263579 L 256.968206 103.763579 L 250.968206 103.763579 L 250.968206 101.263579 L 256.968206 101.263579" stroke="gray" fill="white" stroke-width="1px"></path><path d="M 262.968206 101.263579 L 262.968206 103.763579 L 256.968206 103.763579 L 256.968206 101.263579 L 262.968206 101.263579" stroke="gray" fill="white" stroke-width="1px"></path><path d="M 268.968206 101.263579 L 268.968206 103.763579 L 262.968206 103.763579 L 262.968206 101.263579 L 268.968206 101.263579" stroke="gray" fill="white" stroke-width="1px"></path><path d="M 274.968206 101.263579 L 274.968206 103.763579 L 268.968206 103.763579 L 268.968206 101.263579 L 274.968206 101.263579" stroke="gray" fill="white" stroke-width="1px"></path><path d="M 254.598698 89.263579 L 254.598698 91.763579 L 248.598698 91.763579 L 248.598698 89.263579 L 254.598698 89.263579" stroke="gray" fill="white" stroke-width="1px"></path><path d="M 260.598698 89.263579 L 260.598698 91.763579 L 254.598698 91.763579 L 254.598698 89.263579 L 260.598698 89.263579" stroke="gray" fill="white" stroke-width="1px"></path><path d="M 266.598698 89.263579 L 266.598698 91.763579 L 260.598698 91.763579 L 260.598698 89.263579 L 266.598698 89.263579" stroke="gray" fill="white" stroke-width="1px"></path><path d="M 272.598698 89.263579 L 272.598698 91.763579 L 266.598698 91.763579 L 266.598698 89.263579 L 272.598698 89.263579" stroke="gray" fill="white" stroke-width="1px"></path><path d="M 278.598698 89.263579 L 278.598698 91.763579 L 272.598698 91.763579 L 272.598698 89.263579 L 278.598698 89.263579" stroke="gray" fill="white" stroke-width="1px"></path><path d="M 252.229189 77.263579 L 252.229189 79.763579 L 246.229189 79.763579 L 246.229189 77.263579 L 252.229189 77.263579" stroke="gray" fill="white" stroke-width="1px"></path><path d="M 258.229189 77.263579 L 258.229189 79.763579 L 252.229189 79.763579 L 252.229189 77.263579 L 258.229189 77.263579" stroke="gray" fill="white" stroke-width="1px"></path><path d="M 264.229189 77.263579 L 264.229189 79.763579 L 258.229189 79.763579 L 258.229189 77.263579 L 264.229189 77.263579" stroke="gray" fill="white" stroke-width="1px"></path><path d="M 270.229189 77.263579 L 270.229189 79.763579 L 264.229189 79.763579 L 264.229189 77.263579 L 270.229189 77.263579" stroke="gray" fill="white" stroke-width="1px"></path><path d="M 276.229189 77.263579 L 276.229189 79.763579 L 270.229189 79.763579 L 270.229189 77.263579 L 276.229189 77.263579" stroke="gray" fill="white" stroke-width="1px"></path><path d="M 204.045155 101.263579 L 204.045155 103.763579 L 198.045155 103.763579 L 198.045155 101.263579 L 204.045155 101.263579" stroke="gray" fill="white" stroke-width="1px"></path><path d="M 210.045155 101.263579 L 210.045155 103.763579 L 204.045155 103.763579 L 204.045155 101.263579 L 210.045155 101.263579" stroke="gray" fill="white" stroke-width="1px"></path><path d="M 216.045155 101.263579 L 216.045155 103.763579 L 210.045155 103.763579 L 210.045155 101.263579 L 216.045155 101.263579" stroke="gray" fill="white" stroke-width="1px"></path><path d="M 222.045155 101.263579 L 222.045155 103.763579 L 216.045155 103.763579 L 216.045155 101.263579 L 222.045155 101.263579" stroke="gray" fill="white" stroke-width="1px"></path><path d="M 208.936688 89.263579 L 208.936688 91.763579 L 202.936688 91.763579 L 202.936688 89.263579 L 208.936688 89.263579" stroke="gray" fill="white" stroke-width="1px"></path><path d="M 214.936688 89.263579 L 214.936688 91.763579 L 208.936688 91.763579 L 208.936688 89.263579 L 214.936688 89.263579" stroke="gray" fill="white" stroke-width="1px"></path><path d="M 220.936688 89.263579 L 220.936688 91.763579 L 214.936688 91.763579 L 214.936688 89.263579 L 220.936688 89.263579" stroke="gray" fill="white" stroke-width="1px"></path><path d="M 22.000000 101.263579 L 22.000000 103.763579 L 16.000000 103.763579 L 16.000000 101.263579 L 22.000000 101.263579" stroke="gray" fill="white" stroke-width="1px"></path><path d="M 28.000000 101.263579 L 28.000000 103.763579 L 22.000000 103.763579 L 22.000000 101.263579 L 28.000000 101.263579" stroke="gray" fill="white" stroke-width="1px"></path><path d="M 34.000000 101.263579 L 34.000000 103.763579 L 28.000000 103.763579 L 28.000000 101.263579 L 34.000000 101.263579" stroke="gray" fill="white" stroke-width="1px"></path><path d="M 40.000000 101.263579 L 40.000000 103.763579 L 34.000000 103.763579 L 34.000000 101.263579 L 40.000000 101.263579" stroke="gray" fill="white" stroke-width="1px"></path><path d="M 22.000000 89.263579 L 22.000000 91.763579 L 16.000000 91.763579 L 16.000000 89.263579 L 22.000000 89.263579" stroke="gray" fill="white" stroke-width="1px"></path><path d="M 28.000000 89.263579 L 28.000000 91.763579 L 22.000000 91.763579 L 22.000000 89.263579 L 28.000000 89.263579" stroke="gray" fill="white" stroke-width="1px"></path><path d="M 34.000000 89.263579 L 34.000000 91.763579 L 28.000000 91.763579 L 28.000000 89.263579 L 34.000000 89.263579" stroke="gray" fill="white" stroke-width="1px"></path><path d="M 40.000000 89.263579 L 40.000000 91.763579 L 34.000000 91.763579 L 34.000000 89.263579 L 40.000000 89.263579" stroke="gray" fill="white" stroke-width="1px"></path><path d="M 22.000000 77.263579 L 22.000000 79.763579 L 16.000000 79.763579 L 16.000000 77.263579 L 22.000000 77.263579" stroke="gray" fill="white" stroke-width="1px"></path><path d="M 28.000000 77.263579 L 28.000000 79.763579 L 22.000000 79.763579 L 22.000000 77.263579 L 28.000000 77.263579" stroke="gray" fill="white" stroke-width="1px"></path><path d="M 34.000000 77.263579 L 34.000000 79.763579 L 28.000000 79.763579 L 28.000000 77.263579 L 34.000000 77.263579" stroke="gray" fill="white" stroke-width="1px"></path><path d="M 40.000000 77.263579 L 40.000000 79.763579 L 34.000000 79.763579 L 34.000000 77.263579 L 40.000000 77.263579" stroke="gray" fill="white" stroke-width="1px"></path><path d="M 22.000000 65.263579 L 22.000000 67.763579 L 16.000000 67.763579 L 16.000000 65.263579 L 22.000000 65.263579" stroke="gray" fill="white" stroke-width="1px"></path><path d="M 28.000000 65.263579 L 28.000000 67.763579 L 22.000000 67.763579 L 22.000000 65.263579 L 28.000000 65.263579" stroke="gray" fill="white" stroke-width="1px"></path><path d="M 34.000000 65.263579 L 34.000000 67.763579 L 28.000000 67.763579 L 28.000000 65.263579 L 34.000000 65.263579" stroke="gray" fill="white" stroke-width="1px"></path><path d="M 40.000000 65.263579 L 40.000000 67.763579 L 34.000000 67.763579 L 34.000000 65.263579 L 40.000000 65.263579" stroke="gray" fill="white" stroke-width="1px"></path></g><g id="crv-base"><path d="M 221.371570 123.090312 L 221.371570 169.241094 L 120.000633 169.241094 L 120.000633 156.444206 L 126.051258 156.444206 L 126.051258 128.832500 L 123.590320 128.832500 L 123.590320 125.551250 L 126.051258 125.551250 L 126.051258 123.858132 L 91.315945 123.858125 L 91.315945 134.738750 L 64.258762 134.738750 L 64.258762 123.687497 L 10.000000 123.687497 L 10.000000 226.180625 L 64.258758 226.180625 L 64.258758 192.357500 L 91.315945 192.357500 L 91.315945 220.123437 L 283.459383 220.123437 L 283.459383 123.090312 L 221.371570 123.090312" stroke="black" fill="none" stroke-width="1px"></path><path d="M 221.371570 10.000000 L 221.371570 56.150781 L 120.000633 56.150781 L 120.000633 43.353893 L 126.051258 43.353893 L 126.051258 15.742187 L 123.590320 15.742187 L 123.590320 12.460937 L 126.051258 12.460937 L 126.051258 10.767819 L 91.315945 10.767812 L 91.315945 21.648438 L 64.258762 21.648438 L 64.258762 10.597185 L 10.000000 10.597185 L 10.000000 113.090312 L 64.258758 113.090312 L 64.258758 79.267187 L 91.315945 79.267187 L 91.315945 107.033125 L 283.459383 107.033125 L 283.459383 10.000000 L 221.371570 10.000000" stroke="black" fill="none" stroke-width="1px"></path><path d="M 10.387195 156.559062 L 10.387195 154.590312 L 12.355945 154.590312 L 12.355945 156.559062 L 10.387195 156.559062" stroke="black" fill="white" stroke-width="1px"></path><path d="M 10.387195 43.468750 L 10.387195 41.500000 L 12.355945 41.500000 L 12.355945 43.468750 L 10.387195 43.468750" stroke="black" fill="white" stroke-width="1px"></path><path d="M 10.387195 188.059062 L 10.387195 186.090312 L 12.355945 186.090312 L 12.355945 188.059062 L 10.387195 188.059062" stroke="black" fill="white" stroke-width="1px"></path><path d="M 10.387195 74.968750 L 10.387195 73.000000 L 12.355945 73.000000 L 12.355945 74.968750 L 10.387195 74.968750" stroke="black" fill="white" stroke-width="1px"></path><path d="M 10.387195 219.559062 L 10.387195 217.590312 L 12.355945 217.590312 L 12.355945 219.559062 L 10.387195 219.559062" stroke="black" fill="white" stroke-width="1px"></path><path d="M 10.387195 106.468750 L 10.387195 104.500000 L 12.355945 104.500000 L 12.355945 106.468750 L 10.387195 106.468750" stroke="black" fill="white" stroke-width="1px"></path><path d="M 60.754383 128.340312 L 60.754383 125.387187 L 63.871570 125.387187 L 63.871570 128.340312 L 60.754383 128.340312" stroke="black" fill="white" stroke-width="1px"></path><path d="M 60.754383 15.250000 L 60.754383 12.296875 L 63.871570 12.296875 L 63.871570 15.250000 L 60.754383 15.250000" stroke="black" fill="white" stroke-width="1px"></path><path d="M 280.598133 219.230937 L 280.598133 217.262187 L 282.566883 217.262187 L 282.566883 219.230937 L 280.598133 219.230937" stroke="black" fill="white" stroke-width="1px"></path><path d="M 280.598133 106.140625 L 280.598133 104.171875 L 282.566883 104.171875 L 282.566883 106.140625 L 280.598133 106.140625" stroke="black" fill="white" stroke-width="1px"></path><path d="M 280.598133 188.059062 L 280.598133 186.090312 L 282.566883 186.090312 L 282.566883 188.059062 L 280.598133 188.059062" stroke="black" fill="white" stroke-width="1px"></path><path d="M 280.598133 74.968750 L 280.598133 73.000000 L 282.566883 73.000000 L 282.566883 74.968750 L 280.598133 74.968750" stroke="black" fill="white" stroke-width="1px"></path><path d="M 280.598133 156.559050 L 280.598133 154.590300 L 282.566883 154.590300 L 282.566883 156.559050 L 280.598133 156.559050" stroke="black" fill="white" stroke-width="1px"></path><path d="M 280.598133 43.468737 L 280.598133 41.499987 L 282.566883 41.499987 L 282.566883 43.468737 L 280.598133 43.468737" stroke="black" fill="white" stroke-width="1px"></path><path d="M 248.605945 127.355937 L 248.605945 123.418437 L 251.887195 123.418437 L 251.887195 127.355937 L 248.605945 127.355937" stroke="black" fill="white" stroke-width="1px"></path><path d="M 248.605945 14.265625 L 248.605945 10.328125 L 251.887195 10.328125 L 251.887195 14.265625 L 248.605945 14.265625" stroke="black" fill="white" stroke-width="1px"></path><path d="M 248.605945 157.871562 L 248.605945 153.934062 L 251.887195 153.934062 L 251.887195 157.871562 L 248.605945 157.871562" stroke="black" fill="white" stroke-width="1px"></path><path d="M 248.605945 44.781250 L 248.605945 40.843750 L 251.887195 40.843750 L 251.887195 44.781250 L 248.605945 44.781250" stroke="black" fill="white" stroke-width="1px"></path><path d="M 248.605945 189.043437 L 248.605945 185.105937 L 251.887195 185.105937 L 251.887195 189.043437 L 248.605945 189.043437" stroke="black" fill="white" stroke-width="1px"></path><path d="M 248.605945 75.953125 L 248.605945 72.015625 L 251.887195 72.015625 L 251.887195 75.953125 L 248.605945 75.953125" stroke="black" fill="white" stroke-width="1px"></path><path d="M 248.934070 219.230937 L 248.934070 216.277812 L 251.887195 216.277812 L 251.887195 219.230937 L 248.934070 219.230937" stroke="black" fill="white" stroke-width="1px"></path><path d="M 248.934070 106.140625 L 248.934070 103.187500 L 251.887195 103.187500 L 251.887195 106.140625 L 248.934070 106.140625" stroke="black" fill="white" stroke-width="1px"></path><path d="M 218.090320 189.043437 L 218.090320 185.105937 L 221.371570 185.105937 L 221.371570 189.043437 L 218.090320 189.043437" stroke="black" fill="white" stroke-width="1px"></path><path d="M 218.090320 75.953125 L 218.090320 72.015625 L 221.371570 72.015625 L 221.371570 75.953125 L 218.090320 75.953125" stroke="black" fill="white" stroke-width="1px"></path><path d="M 218.254383 219.230937 L 218.254383 216.277812 L 221.207508 216.277812 L 221.207508 219.230937 L 218.254383 219.230937" stroke="black" fill="white" stroke-width="1px"></path><path d="M 218.254383 106.140625 L 218.254383 103.187500 L 221.207508 103.187500 L 221.207508 106.140625 L 218.254383 106.140625" stroke="black" fill="white" stroke-width="1px"></path><path d="M 186.590320 189.043437 L 186.590320 185.105937 L 189.871570 185.105937 L 189.871570 189.043437 L 186.590320 189.043437" stroke="black" fill="white" stroke-width="1px"></path><path d="M 186.590320 75.953125 L 186.590320 72.015625 L 189.871570 72.015625 L 189.871570 75.953125 L 186.590320 75.953125" stroke="black" fill="white" stroke-width="1px"></path><path d="M 186.754383 219.230937 L 186.754383 216.277812 L 189.707508 216.277812 L 189.707508 219.230937 L 186.754383 219.230937" stroke="black" fill="white" stroke-width="1px"></path><path d="M 186.754383 106.140625 L 186.754383 103.187500 L 189.707508 103.187500 L 189.707508 106.140625 L 186.754383 106.140625" stroke="black" fill="white" stroke-width="1px"></path><path d="M 155.090320 189.043437 L 155.090320 185.105937 L 158.371570 185.105937 L 158.371570 189.043437 L 155.090320 189.043437" stroke="black" fill="white" stroke-width="1px"></path><path d="M 155.090320 75.953125 L 155.090320 72.015625 L 158.371570 72.015625 L 158.371570 75.953125 L 155.090320 75.953125" stroke="black" fill="white" stroke-width="1px"></path><path d="M 155.254383 219.230937 L 155.254383 216.277812 L 158.207508 216.277812 L 158.207508 219.230937 L 155.254383 219.230937" stroke="black" fill="white" stroke-width="1px"></path><path d="M 155.254383 106.140625 L 155.254383 103.187500 L 158.207508 103.187500 L 158.207508 106.140625 L 155.254383 106.140625" stroke="black" fill="white" stroke-width="1px"></path><path d="M 123.590320 189.043437 L 123.590320 185.105937 L 126.871570 185.105937 L 126.871570 189.043437 L 123.590320 189.043437" stroke="black" fill="white" stroke-width="1px"></path><path d="M 123.590320 75.953125 L 123.590320 72.015625 L 126.871570 72.015625 L 126.871570 75.953125 L 123.590320 75.953125" stroke="black" fill="white" stroke-width="1px"></path><path d="M 123.754383 219.230937 L 123.754383 216.277812 L 126.707508 216.277812 L 126.707508 219.230937 L 123.754383 219.230937" stroke="black" fill="white" stroke-width="1px"></path><path d="M 123.754383 106.140625 L 123.754383 103.187500 L 126.707508 103.187500 L 126.707508 106.140625 L 123.754383 106.140625" stroke="black" fill="white" stroke-width="1px"></path><path d="M 92.090320 157.543437 L 92.090320 153.605937 L 95.371570 153.605937 L 95.371570 157.543437 L 92.090320 157.543437" stroke="black" fill="white" stroke-width="1px"></path><path d="M 92.090320 44.453125 L 92.090320 40.515625 L 95.371570 40.515625 L 95.371570 44.453125 L 92.090320 44.453125" stroke="black" fill="white" stroke-width="1px"></path><path d="M 92.090320 189.043437 L 92.090320 185.105937 L 95.371570 185.105937 L 95.371570 189.043437 L 92.090320 189.043437" stroke="black" fill="white" stroke-width="1px"></path><path d="M 92.090320 75.953125 L 92.090320 72.015625 L 95.371570 72.015625 L 95.371570 75.953125 L 92.090320 75.953125" stroke="black" fill="white" stroke-width="1px"></path><path d="M 92.090320 128.504375 L 92.090320 125.551250 L 95.207508 125.551250 L 95.207508 128.504375 L 92.090320 128.504375" stroke="black" fill="white" stroke-width="1px"></path><path d="M 92.090320 15.414062 L 92.090320 12.460937 L 95.207508 12.460937 L 95.207508 15.414062 L 92.090320 15.414062" stroke="black" fill="white" stroke-width="1px"></path><path d="M 60.590320 157.215312 L 60.590320 153.934062 L 63.871570 153.934062 L 63.871570 157.215312 L 60.590320 157.215312" stroke="black" fill="white" stroke-width="1px"></path><path d="M 60.590320 44.125000 L 60.590320 40.843750 L 63.871570 40.843750 L 63.871570 44.125000 L 60.590320 44.125000" stroke="black" fill="white" stroke-width="1px"></path><path d="M 60.754383 219.230937 L 60.754383 216.277812 L 63.871570 216.277812 L 63.871570 219.230937 L 60.754383 219.230937" stroke="black" fill="white" stroke-width="1px"></path><path d="M 60.754383 106.140625 L 60.754383 103.187500 L 63.871570 103.187500 L 63.871570 106.140625 L 60.754383 106.140625" stroke="black" fill="white" stroke-width="1px"></path><path d="M 30.074695 128.504375 L 30.074695 125.223125 L 33.027820 125.223125 L 33.027820 128.504375 L 30.074695 128.504375" stroke="black" fill="white" stroke-width="1px"></path><path d="M 30.074695 15.414062 L 30.074695 12.132812 L 33.027820 12.132812 L 33.027820 15.414062 L 30.074695 15.414062" stroke="black" fill="white" stroke-width="1px"></path><path d="M 30.074695 157.215312 L 30.074695 153.934062 L 33.355945 153.934062 L 33.355945 157.215312 L 30.074695 157.215312" stroke="black" fill="white" stroke-width="1px"></path><path d="M 30.074695 44.125000 L 30.074695 40.843750 L 33.355945 40.843750 L 33.355945 44.125000 L 30.074695 44.125000" stroke="black" fill="white" stroke-width="1px"></path><path d="M 30.074695 188.715312 L 30.074695 185.434062 L 33.355945 185.434062 L 33.355945 188.715312 L 30.074695 188.715312" stroke="black" fill="white" stroke-width="1px"></path><path d="M 30.074695 75.625000 L 30.074695 72.343750 L 33.355945 72.343750 L 33.355945 75.625000 L 30.074695 75.625000" stroke="black" fill="white" stroke-width="1px"></path><path d="M 30.074695 219.230937 L 30.074695 216.277812 L 33.027820 216.277812 L 33.027820 219.230937 L 30.074695 219.230937" stroke="black" fill="white" stroke-width="1px"></path><path d="M 30.074695 106.140625 L 30.074695 103.187500 L 33.027820 103.187500 L 33.027820 106.140625 L 30.074695 106.140625" stroke="black" fill="white" stroke-width="1px"></path><path d="M 10.387195 127.191875 L 10.387195 125.223125 L 12.355945 125.223125 L 12.355945 127.191875 L 10.387195 127.191875" stroke="black" fill="white" stroke-width="1px"></path><path d="M 10.387195 14.101562 L 10.387195 12.132812 L 12.355945 12.132812 L 12.355945 14.101562 L 10.387195 14.101562" stroke="black" fill="white" stroke-width="1px"></path><path d="M 60.590320 189.863750 L 60.590320 185.434062 L 63.871570 185.434062 L 63.871570 188.715312 L 62.230945 188.715312 L 62.230945 189.863750 L 60.590320 189.863750" stroke="black" fill="white" stroke-width="1px"></path><path d="M 60.590320 76.773437 L 60.590320 72.343750 L 63.871570 72.343750 L 63.871570 75.625000 L 62.230945 75.625000 L 62.230945 76.773437 L 60.590320 76.773437" stroke="black" fill="white" stroke-width="1px"></path></g></svg>