<svg width="293.459383" height="236.180625" xmlns="http://www.w3.org/2000/svg" xmlns:xlink="http://www.w3.org/1999/xlink" version="1.1"><g id="crv-background"><path d="M 221.371570 123.090312 L 221.371570 169.241094 L 120.000633 169.241094 L 120.000633 156.444206 L 126.051258 156.444206 L 126.051258 128.832500 L 123.590320 128.832500 L 123.590320 125.551250 L 126.051258 125.551250 L 126.051258 123.858132 L 91.315945 123.858125 L 91.315945 134.738750 L 64.258762 134.738750 L 64.258762 123.687497 L 10.000000 123.687497 L 10.000000 226.180625 L 64.258758 226.180625 L 64.258758 192.357500 L 91.315945 192.357500 L 91.315945 220.123437 L 283.459383 220.123437 L 283.459383 123.090312 L 221.371570 123.090312" stroke="none" fill="white" stroke-width="1px"></path><path d="M 221.371570 10.000000 L 221.371570 56.150781 L 120.000633 56.150781 L 120.000633 43.353893 L 126.051258 43.353893 L 126.051258 15.742187 L 123.590320 15.742187 L 123.590320 12.460937 L 126.051258 12.460937 L 126.051258 10.767819 L 91.315945 10.767812 L 91.315945 21.648438 L 64.258762 21.648438 L 64.258762 10.597185 L 10.000000 10.597185 L 10.000000 113.090312 L 64.258758 113.090312 L 64.258758 79.267187 L 91.315945 79.267187 L 91.315945 107.033125 L 283.459383 107.033125 L 283.459383 10.000000 L 221.371570 10.000000" stroke="none" fill="white" stroke-width="1px"></path></g><g id="crv-nbhd"><path d="M 221.737654 10.000004 L 221.737654 29.875115 L 221.737654 49.750227 L 229.756254 52.281893 L 237.774855 54.813559 L 260.617119 51.608044 L 283.459383 48.402530 L 283.459383 29.201265 L 283.459382 10.000000 L 252.598562 10.000002 L 221.737654 10.000004" stroke="#DD2222" fill="none" stroke-width="1px"></path><path d="M 283.459383 107.033125 L 283.459383 77.717827 L 283.459383 48.402530 L 260.617119 51.608044 L 237.774855 54.813559 L 247.861226 80.923342 L 257.947597 107.033125 L 270.703487 107.033125 L 283.459383 107.033125" stroke="#DD2222" fill="none" stroke-width="1px"></path><path d="M 221.737654 49.750227 L 221.737654 64.450779 L 221.737654 79.151330 L 215.107700 79.151330 L 208.477746 79.151330 L 210.739072 93.092228 L 213.000397 107.033125 L 235.473997 107.033125 L 257.947597 107.033125 L 247.861226 80.923342 L 237.774855 54.813559 L 229.756256 52.281893 L 221.737654 49.750227" stroke="#DD2222" fill="none" stroke-width="1px"></path><path d="M 208.477746 79.151330 L 189.658723 79.151330 L 170.839700 79.151329 L 166.837083 93.092227 L 162.834466 107.033125 L 187.917431 107.033125 L 213.000397 107.033125 L 210.739072 93.092231 L 208.477746 79.151330" stroke="#DD2222" fill="none" stroke-width="1px"></path><path d="M 170.839700 79.151329 L 152.137907 79.151329 L 133.436113 79.151328 L 133.053100 93.092227 L 132.670087 107.033125 L 147.752276 107.033125 L 162.834466 107.033125 L 166.837083 93.092227 L 170.839700 79.151329" stroke="#DD2222" fill="none" stroke-width="1px"></path><path d="M 133.436113 79.151328 L 112.376029 79.151328 L 91.315945 79.151327 L 91.315945 93.092226 L 91.315945 107.033125 L 111.993016 107.033125 L 132.670087 107.033125 L 133.053100 93.092230 L 133.436113 79.151328" stroke="#DD2222" fill="none" stroke-width="1px"></path><path d="M 64.258758 113.090312 L 64.258758 84.620547 L 64.258758 56.150781 L 64.258758 52.243963 L 64.258758 48.337144 L 37.129376 52.831309 L 10.000000 57.325473 L 10.000000 85.207893 L 10.000000 113.090312 L 37.129379 113.090312 L 64.258758 113.090312" stroke="#DD2222" fill="none" stroke-width="1px"></path><path d="M 10.000000 10.597184 L 10.000000 33.961329 L 10.000000 57.325473 L 37.129379 52.831309 L 64.258758 48.337144 L 64.258758 29.467165 L 64.258758 10.597185 L 37.129385 10.597185 L 10.000000 10.597184" stroke="#DD2222" fill="none" stroke-width="1px"></path><path d="M 10.000000 123.687497 L 10.000000 148.909987 L 10.000000 174.132478 L 37.129379 175.047315 L 64.258758 175.962152 L 64.258758 172.601623 L 64.258758 169.241094 L 64.258758 146.464296 L 64.258758 123.687497 L 37.129385 123.687497 L 10.000000 123.687497" stroke="#DD2222" fill="none" stroke-width="1px"></path><path d="M 10.000000 174.132478 L 10.000000 200.156552 L 10.000000 226.180625 L 37.129379 226.180625 L 64.258758 226.180625 L 64.258758 201.071388 L 64.258758 175.962152 L 37.129385 175.047315 L 10.000000 174.132478" stroke="#DD2222" fill="none" stroke-width="1px"></path><path d="M 138.850718 192.043444 L 115.083332 192.043444 L 91.315945 192.043444 L 91.315945 206.083441 L 91.315945 220.123437 L 115.630953 220.123437 L 139.945960 220.123437 L 139.398339 206.083441 L 138.850718 192.043444" stroke="#DD2222" fill="none" stroke-width="1px"></path><path d="M 186.493178 192.043444 L 162.671948 192.043444 L 138.850718 192.043444 L 139.398339 206.083441 L 139.945960 220.123437 L 166.145387 220.123437 L 192.344814 220.123437 L 189.418997 206.083444 L 186.493178 192.043444" stroke="#DD2222" fill="none" stroke-width="1px"></path><path d="M 229.280375 192.043444 L 207.886776 192.043444 L 186.493178 192.043444 L 189.418996 206.083441 L 192.344814 220.123437 L 209.678353 220.123437 L 227.011892 220.123437 L 228.146133 206.083444 L 229.280375 192.043444" stroke="#DD2222" fill="none" stroke-width="1px"></path><path d="M 283.459383 220.123437 L 283.459383 194.502147 L 283.459383 168.880857 L 261.598517 168.185821 L 239.737652 167.490784 L 239.737652 179.767114 L 239.737652 192.043444 L 234.509013 192.043444 L 229.280375 192.043444 L 228.146133 206.083441 L 227.011892 220.123437 L 255.235637 220.123437 L 283.459383 220.123437" stroke="#DD2222" fill="none" stroke-width="1px"></path><path d="M 239.737652 123.090312 L 239.737652 145.290548 L 239.737652 167.490784 L 261.598517 168.185821 L 283.459383 168.880857 L 283.459383 145.985585 L 283.459383 123.090312 L 261.598601 123.090312 L 239.737652 123.090312" stroke="#DD2222" fill="none" stroke-width="1px"></path></g><g id="crv-amen"><path d="M 15.425876 159.256210 L 15.425876 165.949203 L 15.425876 172.642197 L 37.129379 173.374066 L 58.832882 174.105936 L 58.832882 171.417513 L 58.832882 168.729090 L 58.832882 164.724519 L 58.832882 160.719949 L 37.129379 159.988079 L 15.425876 159.256210" stroke="none" fill="#2288CC" stroke-width="1px"></path><path d="M 58.832882 190.838420 L 58.832882 184.145426 L 58.832882 177.452433 L 37.129379 176.720563 L 15.425876 175.988694 L 15.425876 182.681688 L 15.425876 189.374681 L 37.129379 190.106551 L 58.832882 190.838420" stroke="none" fill="#2288CC" stroke-width="1px"></path><path d="M 134.651744 207.097924 L 134.390836 200.408732 L 134.129928 193.719541 L 115.116019 193.719541 L 96.102110 193.719541 L 96.102110 200.408732 L 96.102110 207.097924 L 115.376927 207.097924 L 134.651744 207.097924" stroke="none" fill="#2288CC" stroke-width="1px"></path><path d="M 176.385639 217.315438 L 183.218533 217.315438 L 190.051427 217.315438 L 187.710773 206.083441 L 185.370118 194.851444 L 178.537224 194.851444 L 171.704330 194.851444 L 174.044985 206.083441 L 176.385639 217.315438" stroke="none" fill="#2288CC" stroke-width="1px"></path><path d="M 202.452353 194.851444 L 195.619459 194.851444 L 188.786565 194.851444 L 191.127220 206.083441 L 193.467874 217.315438 L 200.300768 217.315438 L 207.133662 217.315438 L 204.793008 206.083441 L 202.452353 194.851444" stroke="none" fill="#2288CC" stroke-width="1px"></path><path d="M 279.087210 183.800136 L 279.087210 177.107564 L 279.087210 170.414993 L 261.598517 169.858964 L 244.109825 169.302935 L 244.109825 175.995506 L 244.109825 182.688078 L 261.598517 183.244107 L 279.087210 183.800136" stroke="none" fill="#2288CC" stroke-width="1px"></path><path d="M 254.791650 127.556997 L 248.102468 127.556997 L 241.413267 127.556997 L 241.413267 145.317185 L 241.413267 163.077374 L 248.102459 163.290048 L 254.791650 163.502722 L 254.791650 145.529859 L 254.791650 127.556997" stroke="none" fill="#2288CC" stroke-width="1px"></path><path d="M 277.287210 25.050681 L 277.287210 18.361488 L 277.287209 11.672298 L 252.598518 11.672300 L 227.909827 11.672301 L 227.909827 18.361493 L 227.909827 25.050684 L 252.598518 25.050683 L 277.287210 25.050681" stroke="none" fill="#2288CC" stroke-width="1px"></path><path d="M 279.192839 64.158530 L 279.192839 57.403794 L 279.192839 50.649057 L 260.919028 53.213469 L 242.645217 55.777880 L 245.120429 62.185264 L 247.595641 68.592647 L 263.394240 66.375589 L 279.192839 64.158530" stroke="none" fill="#2288CC" stroke-width="1px"></path><path d="M 236.738466 58.802333 L 236.464155 58.092246 L 236.189844 57.382159 L 229.774965 55.356827 L 223.360083 53.331494 L 223.360083 66.620792 L 223.360083 79.910091 L 230.049274 79.910091 L 236.738466 79.910091 L 236.738466 69.356212 L 236.738466 58.802333" stroke="none" fill="#2288CC" stroke-width="1px"></path><path d="M 206.776424 94.252603 L 205.691383 87.563413 L 204.606343 80.874220 L 189.551124 80.874220 L 174.495905 80.874219 L 172.575350 87.563411 L 170.654794 94.252602 L 188.715609 94.252603 L 206.776424 94.252603" stroke="none" fill="#2288CC" stroke-width="1px"></path><path d="M 148.415871 81.939508 L 141.724155 81.939508 L 135.032440 81.939508 L 134.726029 93.092227 L 134.419619 104.244945 L 141.111334 104.244945 L 147.803050 104.244945 L 148.109461 93.092227 L 148.415871 81.939508" stroke="none" fill="#2288CC" stroke-width="1px"></path><path d="M 106.366626 81.939507 L 99.677435 81.939507 L 92.988243 81.939507 L 92.988243 93.092226 L 92.988243 104.244945 L 99.677435 104.244945 L 106.366626 104.244945 L 106.366626 93.092226 L 106.366626 81.939507" stroke="none" fill="#2288CC" stroke-width="1px"></path><path d="M 58.832882 64.491772 L 58.832882 60.836872 L 58.832882 57.181975 L 58.832882 54.056520 L 58.832882 50.931065 L 37.129379 54.526397 L 15.425876 58.121729 L 15.425876 64.902082 L 15.425876 71.682435 L 37.129379 68.087104 L 58.832882 64.491772" stroke="none" fill="#2288CC" stroke-width="1px"></path><path d="M 49.188342 46.919516 L 55.877534 45.811406 L 62.566725 44.703297 L 62.566725 29.607313 L 62.566725 14.511329 L 55.877534 14.511329 L 49.188342 14.511329 L 49.188342 30.715422 L 49.188342 46.919516" stroke="none" fill="#2288CC" stroke-width="1px"></path></g><g id="crv-desk"><path d="M 55.459383 148.606190 L 52.959383 148.606190 L 52.959383 154.606190 L 55.459383 154.606190 L 55.459383 148.606190" stroke="gray" fill="white" stroke-width="1px"></path><path d="M 55.459383 142.606190 L 52.959383 142.606190 L 52.959383 148.606190 L 55.459383 148.606190 L 55.459383 142.606190" stroke="gray" fill="white" stroke-width="1px"></path><path d="M 55.459383 136.606190 L 52.959383 136.606190 L 52.959383 142.606190 L 55.459383 142.606190 L 55.459383 136.606190" stroke="gray" fill="white" stroke-width="1px"></path><path d="M 55.459383 130.606190 L 52.959383 130.606190 L 52.959383 136.606190 L 55.459383 136.606190 L 55.459383 130.606190" stroke="gray" fill="white" stroke-width="1px"></path><path d="M 43.459383 148.201535 L 40.959383 148.201535 L 40.959383 154.201535 L 43.459383 154.201535 L 43.459383 148.201535" stroke="gray" fill="white" stroke-width="1px"></path><path d="M 43.459383 142.201535 L 40.959383 142.201535 L 40.959383 148.201535 L 43.459383 148.201535 L 43.459383 142.201535" stroke="gray" fill="white" stroke-width="1px"></path><path d="M 43.459383 136.201535 L 40.959383 136.201535 L 40.959383 142.201535 L 43.459383 142.201535 L 43.459383 136.201535" stroke="gray" fill="white" stroke-width="1px"></path><path d="M 43.459383 130.201535 L 40.959383 130.201535 L 40.959383 136.201535 L 43.459383 136.201535 L 43.459383 130.201535" stroke="gray" fill="white" stroke-width="1px"></path><path d="M 31.459383 147.796880 L 28.959383 147.796880 L 28.959383 153.796880 L 31.459383 153.796880 L 31.459383 147.796880" stroke="gray" fill="white" stroke-width="1px"></path><path d="M 31.459383 141.796880 L 28.959383 141.796880 L 28.959383 147.796880 L 31.459383 147.796880 L 31.459383 141.796880" stroke="gray" fill="white" stroke-width="1px"></path><path d="M 31.459383 135.796880 L 28.959383 135.796880 L 28.959383 141.796880 L 31.459383 141.796880 L 31.459383 135.796880" stroke="gray" fill="white" stroke-width="1px"></path><path d="M 31.459383 129.796880 L 28.959383 129.796880 L 28.959383 135.796880 L 31.459383 135.796880 L 31.459383 129.796880" stroke="gray" fill="white" stroke-width="1px"></path><path d="M 19.459383 147.392225 L 16.959383 147.392225 L 16.959383 153.392225 L 19.459383 153.392225 L 19.459383 147.392225" stroke="gray" fill="white" stroke-width="1px"></path><path d="M 19.459383 141.392225 L 16.959383 141.392225 L 16.959383 147.392225 L 19.459383 147.392225 L 19.459383 141.392225" stroke="gray" fill="white" stroke-width="1px"></path><path d="M 19.459383 135.392225 L 16.959383 135.392225 L 16.959383 141.392225 L 19.459383 141.392225 L 19.459383 135.392225" stroke="gray" fill="white" stroke-width="1px"></path><path d="M 19.459383 129.392225 L 16.959383 129.392225 L 16.959383 135.392225 L 19.459383 135.392225 L 19.459383 129.392225" stroke="gray" fill="white" stroke-width="1px"></path><path d="M 55.459383 220.180625 L 52.959383 220.180625 L 52.959383 226.180625 L 55.459383 226.180625 L 55.459383 220.180625" stroke="gray" fill="white" stroke-width="1px"></path><path d="M 55.459383 214.180625 L 52.959383 214.180625 L 52.959383 220.180625 L 55.459383 220.180625 L 55.459383 214.180625" stroke="gray" fill="white" stroke-width="1px"></path><path d="M 55.459383 208.180625 L 52.959383 208.180625 L 52.959383 214.180625 L 55.459383 214.180625 L 55.459383 208.180625" stroke="gray" fill="white" stroke-width="1px"></path><path d="M 55.459383 202.180625 L 52.959383 202.180625 L 52.959383 208.180625 L 55.459383 208.180625 L 55.459383 202.180625" stroke="gray" fill="white" stroke-width="1px"></path><path d="M 43.459383 220.180625 L 40.959383 220.180625 L 40.959383 226.180625 L 43.459383 226.180625 L 43.459383 220.180625" stroke="gray" fill="white" stroke-width="1px"></path><path d="M 43.459383 214.180625 L 40.959383 214.180625 L 40.959383 220.180625 L 43.459383 220.180625 L 43.459383 214.180625" stroke="gray" fill="white" stroke-width="1px"></path><path d="M 43.459383 208.180625 L 40.959383 208.180625 L 40.959383 214.180625 L 43.459383 214.180625 L 43.459383 208.180625" stroke="gray" fill="white" stroke-width="1px"></path><path d="M 43.459383 202.180625 L 40.959383 202.180625 L 40.959383 208.180625 L 43.459383 208.180625 L 43.459383 202.180625" stroke="gray" fill="white" stroke-width="1px"></path><path d="M 31.459383 220.180625 L 28.959383 220.180625 L 28.959383 226.180625 L 31.459383 226.180625 L 31.459383 220.180625" stroke="gray" fill="white" stroke-width="1px"></path><path d="M 31.459383 214.180625 L 28.959383 214.180625 L 28.959383 220.180625 L 31.459383 220.180625 L 31.459383 214.180625" stroke="gray" fill="white" stroke-width="1px"></path><path d="M 31.459383 208.180625 L 28.959383 208.180625 L 28.959383 214.180625 L 31.459383 214.180625 L 31.459383 208.180625" stroke="gray" fill="white" stroke-width="1px"></path><path d="M 31.459383 202.180625 L 28.959383 202.180625 L 28.959383 208.180625 L 31.459383 208.180625 L 31.459383 202.180625" stroke="gray" fill="white" stroke-width="1px"></path><path d="M 31.459383 196.180625 L 28.959383 196.180625 L 28.959383 202.180625 L 31.459383 202.180625 L 31.459383 196.180625" stroke="gray" fill="white" stroke-width="1px"></path><path d="M 19.459383 220.180625 L 16.959383 220.180625 L 16.959383 226.180625 L 19.459383 226.180625 L 19.459383 220.180625" stroke="gray" fill="white" stroke-width="1px"></path><path d="M 19.459383 214.180625 L 16.959383 214.180625 L 16.959383 220.180625 L 19.459383 220.180625 L 19.459383 214.180625" stroke="gray" fill="white" stroke-width="1px"></path><path d="M 19.459383 208.180625 L 16.959383 208.180625 L 16.959383 214.180625 L 19.459383 214.180625 L 19.459383 208.180625" stroke="gray" fill="white" stroke-width="1px"></path><path d="M 19.459383 202.180625 L 16.959383 202.180625 L 16.959383 208.180625 L 19.459383 208.180625 L 19.459383 202.180625" stroke="gray" fill="white" stroke-width="1px"></path><path d="M 19.459383 196.180625 L 16.959383 196.180625 L 16.959383 202.180625 L 19.459383 202.180625 L 19.459383 196.180625" stroke="gray" fill="white" stroke-width="1px"></path><path d="M 127.459383 214.123437 L 124.959383 214.123437 L 124.959383 220.123437 L 127.459383 220.123437 L 127.459383 214.123437" stroke="gray" fill="white" stroke-width="1px"></path><path d="M 115.459383 214.123437 L 112.959383 214.123437 L 112.959383 220.123437 L 115.459383 220.123437 L 115.459383 214.123437" stroke="gray" fill="white" stroke-width="1px"></path><path d="M 103.459383 214.123437 L 100.959383 214.123437 L 100.959383 220.123437 L 103.459383 220.123437 L 103.459383 214.123437" stroke="gray" fill="white" stroke-width="1px"></path><path d="M 163.459383 214.123437 L 160.959383 214.123437 L 160.959383 220.123437 L 163.459383 220.123437 L 163.459383 214.123437" stroke="gray" fill="white" stroke-width="1px"></path><path d="M 163.459383 208.123437 L 160.959383 208.123437 L 160.959383 214.123437 L 163.459383 214.123437 L 163.459383 208.123437" stroke="gray" fill="white" stroke-width="1px"></path><path d="M 163.459383 202.123437 L 160.959383 202.123437 L 160.959383 208.123437 L 163.459383 208.123437 L 163.459383 202.123437" stroke="gray" fill="white" stroke-width="1px"></path><path d="M 163.459383 196.123437 L 160.959383 196.123437 L 160.959383 202.123437 L 163.459383 202.123437 L 163.459383 196.123437" stroke="gray" fill="white" stroke-width="1px"></path><path d="M 151.459383 214.123437 L 148.959383 214.123437 L 148.959383 220.123437 L 151.459383 220.123437 L 151.459383 214.123437" stroke="gray" fill="white" stroke-width="1px"></path><path d="M 151.459383 208.123437 L 148.959383 208.123437 L 148.959383 214.123437 L 151.459383 214.123437 L 151.459383 208.123437" stroke="gray" fill="white" stroke-width="1px"></path><path d="M 151.459383 202.123437 L 148.959383 202.123437 L 148.959383 208.123437 L 151.459383 208.123437 L 151.459383 202.123437" stroke="gray" fill="white" stroke-width="1px"></path><path d="M 151.459383 196.123437 L 148.959383 196.123437 L 148.959383 202.123437 L 151.459383 202.123437 L 151.459383 196.123437" stroke="gray" fill="white" stroke-width="1px"></path><path d="M 223.459383 214.123437 L 220.959383 214.123437 L 220.959383 220.123437 L 223.459383 220.123437 L 223.459383 214.123437" stroke="gray" fill="white" stroke-width="1px"></path><path d="M 223.459383 208.123437 L 220.959383 208.123437 L 220.959383 214.123437 L 223.459383 214.123437 L 223.459383 208.123437" stroke="gray" fill="white" stroke-width="1px"></path><path d="M 223.459383 202.123437 L 220.959383 202.123437 L 220.959383 208.123437 L 223.459383 208.123437 L 223.459383 202.123437" stroke="gray" fill="white" stroke-width="1px"></path><path d="M 223.459383 196.123437 L 220.959383 196.123437 L 220.959383 202.123437 L 223.459383 202.123437 L 223.459383 196.123437" stroke="gray" fill="white" stroke-width="1px"></path><path d="M 211.459383 208.123437 L 208.959383 208.123437 L 208.959383 214.123437 L 211.459383 214.123437 L 211.459383 208.123437" stroke="gray" fill="white" stroke-width="1px"></path><path d="M 211.459383 202.123437 L 208.959383 202.123437 L 208.959383 208.123437 L 211.459383 208.123437 L 211.459383 202.123437" stroke="gray" fill="white" stroke-width="1px"></path><path d="M 211.459383 196.123437 L 208.959383 196.123437 L 208.959383 202.123437 L 211.459383 202.123437 L 211.459383 196.123437" stroke="gray" fill="white" stroke-width="1px"></path><path d="M 271.459383 214.123437 L 268.959383 214.123437 L 268.959383 220.123437 L 271.459383 220.123437 L 271.459383 214.123437" stroke="gray" fill="white" stroke-width="1px"></path><path d="M 271.459383 208.123437 L 268.959383 208.123437 L 268.959383 214.123437 L 271.459383 214.123437 L 271.459383 208.123437" stroke="gray" fill="white" stroke-width="1px"></path><path d="M 271.459383 202.123437 L 268.959383 202.123437 L 268.959383 208.123437 L 271.459383 208.123437 L 271.459383 202.123437" stroke="gray" fill="white" stroke-width="1px"></path><path d="M 271.459383 196.123437 L 268.959383 196.123437 L 268.959383 202.123437 L 271.459383 202.123437 L 271.459383 196.123437" stroke="gray" fill="white" stroke-width="1px"></path><path d="M 271.459383 190.123437 L 268.959383 190.123437 L 268.959383 196.123437 L 271.459383 196.123437 L 271.459383 190.123437" stroke="gray" fill="white" stroke-width="1px"></path><path d="M 259.459383 214.123437 L 256.959383 214.123437 L 256.959383 220.123437 L 259.459383 220.123437 L 259.459383 214.123437" stroke="gray" fill="white" stroke-width="1px"></path><path d="M 259.459383 208.123437 L 256.959383 208.123437 L 256.959383 214.123437 L 259.459383 214.123437 L 259.459383 208.123437" stroke="gray" fill="white" stroke-width="1px"></path><path d="M 259.459383 202.123437 L 256.959383 202.123437 L 256.959383 208.123437 L 259.459383 208.123437 L 259.459383 202.123437" stroke="gray" fill="white" stroke-width="1px"></path><path d="M 259.459383 196.123437 L 256.959383 196.123437 L 256.959383 202.123437 L 259.459383 202.123437 L 259.459383 196.123437" stroke="gray" fill="white" stroke-width="1px"></path><path d="M 259.459383 190.123437 L 256.959383 190.123437 L 256.959383 196.123437 L 259.459383 196.123437 L 259.459383 190.123437" stroke="gray" fill="white" stroke-width="1px"></path><path d="M 247.459383 214.123437 L 244.959383 214.123437 L 244.959383 220.123437 L 247.459383 220.123437 L 247.459383 214.123437" stroke="gray" fill="white" stroke-width="1px"></path><path d="M 247.459383 208.123437 L 244.959383 208.123437 L 244.959383 214.123437 L 247.459383 214.123437 L 247.459383 208.123437" stroke="gray" fill="white" stroke-width="1px"></path><path d="M 247.459383 202.123437 L 244.959383 202.123437 L 244.959383 208.123437 L 247.459383 208.123437 L 247.459383 202.123437" stroke="gray" fill="white" stroke-width="1px"></path><path d="M 247.459383 196.123437 L 244.959383 196.123437 L 244.959383 202.123437 L 247.459383 202.123437 L 247.459383 196.123437" stroke="gray" fill="white" stroke-width="1px"></path><path d="M 247.459383 190.123437 L 244.959383 190.123437 L 244.959383 196.123437 L 247.459383 196.123437 L 247.459383 190.123437" stroke="gray" fill="white" stroke-width="1px"></path><path d="M 235.459383 214.123437 L 232.959383 214.123437 L 232.959383 220.123437 L 235.459383 220.123437 L 235.459383 214.123437" stroke="gray" fill="white" stroke-width="1px"></path><path d="M 235.459383 208.123437 L 232.959383 208.123437 L 232.959383 214.123437 L 235.459383 214.123437 L 235.459383 208.123437" stroke="gray" fill="white" stroke-width="1px"></path><path d="M 235.459383 202.123437 L 232.959383 202.123437 L 232.959383 208.123437 L 235.459383 208.123437 L 235.459383 202.123437" stroke="gray" fill="white" stroke-width="1px"></path><path d="M 235.459383 196.123437 L 232.959383 196.123437 L 232.959383 202.123437 L 235.459383 202.123437 L 235.459383 196.123437" stroke="gray" fill="white" stroke-width="1px"></path><path d="M 55.459383 148.606190 L 57.959383 148.606190 L 57.959383 154.606190 L 55.459383 154.606190 L 55.459383 148.606190" stroke="gray" fill="white" stroke-width="1px"></path><path d="M 55.459383 142.606190 L 57.959383 142.606190 L 57.959383 148.606190 L 55.459383 148.606190 L 55.459383 142.606190" stroke="gray" fill="white" stroke-width="1px"></path><path d="M 55.459383 136.606190 L 57.959383 136.606190 L 57.959383 142.606190 L 55.459383 142.606190 L 55.459383 136.606190" stroke="gray" fill="white" stroke-width="1px"></path><path d="M 55.459383 130.606190 L 57.959383 130.606190 L 57.959383 136.606190 L 55.459383 136.606190 L 55.459383 130.606190" stroke="gray" fill="white" stroke-width="1px"></path><path d="M 43.459383 148.201535 L 45.959383 148.201535 L 45.959383 154.201535 L 43.459383 154.201535 L 43.459383 148.201535" stroke="gray" fill="white" stroke-width="1px"></path><path d="M 43.459383 142.201535 L 45.959383 142.201535 L 45.959383 148.201535 L 43.459383 148.201535 L 43.459383 142.201535" stroke="gray" fill="white" stroke-width="1px"></path><path d="M 43.459383 136.201535 L 45.959383 136.201535 L 45.959383 142.201535 L 43.459383 142.201535 L 43.459383 136.201535" stroke="gray" fill="white" stroke-width="1px"></path><path d="M 43.459383 130.201535 L 45.959383 130.201535 L 45.959383 136.201535 L 43.459383 136.201535 L 43.459383 130.201535" stroke="gray" fill="white" stroke-width="1px"></path><path d="M 31.459383 147.796880 L 33.959383 147.796880 L 33.959383 153.796880 L 31.459383 153.796880 L 31.459383 147.796880" stroke="gray" fill="white" stroke-width="1px"></path><path d="M 31.459383 141.796880 L 33.959383 141.796880 L 33.959383 147.796880 L 31.459383 147.796880 L 31.459383 141.796880" stroke="gray" fill="white" stroke-width="1px"></path><path d="M 31.459383 135.796880 L 33.959383 135.796880 L 33.959383 141.796880 L 31.459383 141.796880 L 31.459383 135.796880" stroke="gray" fill="white" stroke-width="1px"></path><path d="M 31.459383 129.796880 L 33.959383 129.796880 L 33.959383 135.796880 L 31.459383 135.796880 L 31.459383 129.796880" stroke="gray" fill="white" stroke-width="1px"></path><path d="M 19.459383 147.392225 L 21.959383 147.392225 L 21.959383 153.392225 L 19.459383 153.392225 L 19.459383 147.392225" stroke="gray" fill="white" stroke-width="1px"></path><path d="M 19.459383 141.392225 L 21.959383 141.392225 L 21.959383 147.392225 L 19.459383 147.392225 L 19.459383 141.392225" stroke="gray" fill="white" stroke-width="1px"></path><path d="M 19.459383 135.392225 L 21.959383 135.392225 L 21.959383 141.392225 L 19.459383 141.392225 L 19.459383 135.392225" stroke="gray" fill="white" stroke-width="1px"></path><path d="M 19.459383 129.392225 L 21.959383 129.392225 L 21.959383 135.392225 L 19.459383 135.392225 L 19.459383 129.392225" stroke="gray" fill="white" stroke-width="1px"></path><path d="M 55.459383 220.180625 L 57.959383 220.180625 L 57.959383 226.180625 L 55.459383 226.180625 L 55.459383 220.180625" stroke="gray" fill="white" stroke-width="1px"></path><path d="M 55.459383 214.180625 L 57.959383 214.180625 L 57.959383 220.180625 L 55.459383 220.180625 L 55.459383 214.180625" stroke="gray" fill="white" stroke-width="1px"></path><path d="M 55.459383 208.180625 L 57.959383 208.180625 L 57.959383 214.180625 L 55.459383 214.180625 L 55.459383 208.180625" stroke="gray" fill="white" stroke-width="1px"></path><path d="M 55.459383 202.180625 L 57.959383 202.180625 L 57.959383 208.180625 L 55.459383 208.180625 L 55.459383 202.180625" stroke="gray" fill="white" stroke-width="1px"></path><path d="M 43.459383 220.180625 L 45.959383 220.180625 L 45.959383 226.180625 L 43.459383 226.180625 L 43.459383 220.180625" stroke="gray" fill="white" stroke-width="1px"></path><path d="M 43.459383 214.180625 L 45.959383 214.180625 L 45.959383 220.180625 L 43.459383 220.180625 L 43.459383 214.180625" stroke="gray" fill="white" stroke-width="1px"></path><path d="M 43.459383 208.180625 L 45.959383 208.180625 L 45.959383 214.180625 L 43.459383 214.180625 L 43.459383 208.180625" stroke="gray" fill="white" stroke-width="1px"></path><path d="M 43.459383 202.180625 L 45.959383 202.180625 L 45.959383 208.180625 L 43.459383 208.180625 L 43.459383 202.180625" stroke="gray" fill="white" stroke-width="1px"></path><path d="M 31.459383 220.180625 L 33.959383 220.180625 L 33.959383 226.180625 L 31.459383 226.180625 L 31.459383 220.180625" stroke="gray" fill="white" stroke-width="1px"></path><path d="M 31.459383 214.180625 L 33.959383 214.180625 L 33.959383 220.180625 L 31.459383 220.180625 L 31.459383 214.180625" stroke="gray" fill="white" stroke-width="1px"></path><path d="M 31.459383 208.180625 L 33.959383 208.180625 L 33.959383 214.180625 L 31.459383 214.180625 L 31.459383 208.180625" stroke="gray" fill="white" stroke-width="1px"></path><path d="M 31.459383 202.180625 L 33.959383 202.180625 L 33.959383 208.180625 L 31.459383 208.180625 L 31.459383 202.180625" stroke="gray" fill="white" stroke-width="1px"></path><path d="M 31.459383 196.180625 L 33.959383 196.180625 L 33.959383 202.180625 L 31.459383 202.180625 L 31.459383 196.180625" stroke="gray" fill="white" stroke-width="1px"></path><path d="M 19.459383 220.180625 L 21.959383 220.180625 L 21.959383 226.180625 L 19.459383 226.180625 L 19.459383 220.180625" stroke="gray" fill="white" stroke-width="1px"></path><path d="M 19.459383 214.180625 L 21.959383 214.180625 L 21.959383 220.180625 L 19.459383 220.180625 L 19.459383 214.180625" stroke="gray" fill="white" stroke-width="1px"></path><path d="M 19.459383 208.180625 L 21.959383 208.180625 L 21.959383 214.180625 L 19.459383 214.180625 L 19.459383 208.180625" stroke="gray" fill="white" stroke-width="1px"></path><path d="M 19.459383 202.180625 L 21.959383 202.180625 L 21.959383 208.180625 L 19.459383 208.180625 L 19.459383 202.180625" stroke="gray" fill="white" stroke-width="1px"></path><path d="M 19.459383 196.180625 L 21.959383 196.180625 L 21.959383 202.180625 L 19.459383 202.180625 L 19.459383 196.180625" stroke="gray" fill="white" stroke-width="1px"></path><path d="M 127.459383 214.123437 L 129.959383 214.123437 L 129.959383 220.123437 L 127.459383 220.123437 L 127.459383 214.123437" stroke="gray" fill="white" stroke-width="1px"></path><path d="M 115.459383 214.123437 L 117.959383 214.123437 L 117.959383 220.123437 L 115.459383 220.123437 L 115.459383 214.123437" stroke="gray" fill="white" stroke-width="1px"></path><path d="M 103.459383 214.123437 L 105.959383 214.123437 L 105.959383 220.123437 L 103.459383 220.123437 L 103.459383 214.123437" stroke="gray" fill="white" stroke-width="1px"></path><path d="M 163.459383 214.123437 L 165.959383 214.123437 L 165.959383 220.123437 L 163.459383 220.123437 L 163.459383 214.123437" stroke="gray" fill="white" stroke-width="1px"></path><path d="M 163.459383 208.123437 L 165.959383 208.123437 L 165.959383 214.123437 L 163.459383 214.123437 L 163.459383 208.123437" stroke="gray" fill="white" stroke-width="1px"></path><path d="M 163.459383 202.123437 L 165.959383 202.123437 L 165.959383 208.123437 L 163.459383 208.123437 L 163.459383 202.123437" stroke="gray" fill="white" stroke-width="1px"></path><path d="M 163.459383 196.123437 L 165.959383 196.123437 L 165.959383 202.123437 L 163.459383 202.123437 L 163.459383 196.123437" stroke="gray" fill="white" stroke-width="1px"></path><path d="M 151.459383 214.123437 L 153.959383 214.123437 L 153.959383 220.123437 L 151.459383 220.123437 L 151.459383 214.123437" stroke="gray" fill="white" stroke-width="1px"></path><path d="M 151.459383 208.123437 L 153.959383 208.123437 L 153.959383 214.123437 L 151.459383 214.123437 L 151.459383 208.123437" stroke="gray" fill="white" stroke-width="1px"></path><path d="M 151.459383 202.123437 L 153.959383 202.123437 L 153.959383 208.123437 L 151.459383 208.123437 L 151.459383 202.123437" stroke="gray" fill="white" stroke-width="1px"></path><path d="M 151.459383 196.123437 L 153.959383 196.123437 L 153.959383 202.123437 L 151.459383 202.123437 L 151.459383 196.123437" stroke="gray" fill="white" stroke-width="1px"></path><path d="M 223.459383 214.123437 L 225.959383 214.123437 L 225.959383 220.123437 L 223.459383 220.123437 L 223.459383 214.123437" stroke="gray" fill="white" stroke-width="1px"></path><path d="M 223.459383 208.123437 L 225.959383 208.123437 L 225.959383 214.123437 L 223.459383 214.123437 L 223.459383 208.123437" stroke="gray" fill="white" stroke-width="1px"></path><path d="M 223.459383 202.123437 L 225.959383 202.123437 L 225.959383 208.123437 L 223.459383 208.123437 L 223.459383 202.123437" stroke="gray" fill="white" stroke-width="1px"></path><path d="M 223.459383 196.123437 L 225.959383 196.123437 L 225.959383 202.123437 L 223.459383 202.123437 L 223.459383 196.123437" stroke="gray" fill="white" stroke-width="1px"></path><path d="M 211.459383 208.123437 L 213.959383 208.123437 L 213.959383 214.123437 L 211.459383 214.123437 L 211.459383 208.123437" stroke="gray" fill="white" stroke-width="1px"></path><path d="M 211.459383 202.123437 L 213.959383 202.123437 L 213.959383 208.123437 L 211.459383 208.123437 L 211.459383 202.123437" stroke="gray" fill="white" stroke-width="1px"></path><path d="M 211.459383 196.123437 L 213.959383 196.123437 L 213.959383 202.123437 L 211.459383 202.123437 L 211.459383 196.123437" stroke="gray" fill="white" stroke-width="1px"></path><path d="M 271.459383 214.123437 L 273.959383 214.123437 L 273.959383 220.123437 L 271.459383 220.123437 L 271.459383 214.123437" stroke="gray" fill="white" stroke-width="1px"></path><path d="M 271.459383 208.123437 L 273.959383 208.123437 L 273.959383 214.123437 L 271.459383 214.123437 L 271.459383 208.123437" stroke="gray" fill="white" stroke-width="1px"></path><path d="M 271.459383 202.123437 L 273.959383 202.123437 L 273.959383 208.123437 L 271.459383 208.123437 L 271.459383 202.123437" stroke="gray" fill="white" stroke-width="1px"></path><path d="M 271.459383 196.123437 L 273.959383 196.123437 L 273.959383 202.123437 L 271.459383 202.123437 L 271.459383 196.123437" stroke="gray" fill="white" stroke-width="1px"></path><path d="M 271.459383 190.123437 L 273.959383 190.123437 L 273.959383 196.123437 L 271.459383 196.123437 L 271.459383 190.123437" stroke="gray" fill="white" stroke-width="1px"></path><path d="M 259.459383 214.123437 L 261.959383 214.123437 L 261.959383 220.123437 L 259.459383 220.123437 L 259.459383 214.123437" stroke="gray" fill="white" stroke-width="1px"></path><path d="M 259.459383 208.123437 L 261.959383 208.123437 L 261.959383 214.123437 L 259.459383 214.123437 L 259.459383 208.123437" stroke="gray" fill="white" stroke-width="1px"></path><path d="M 259.459383 202.123437 L 261.959383 202.123437 L 261.959383 208.123437 L 259.459383 208.123437 L 259.459383 202.123437" stroke="gray" fill="white" stroke-width="1px"></path><path d="M 259.459383 196.123437 L 261.959383 196.123437 L 261.959383 202.123437 L 259.459383 202.123437 L 259.459383 196.123437" stroke="gray" fill="white" stroke-width="1px"></path><path d="M 259.459383 190.123437 L 261.959383 190.123437 L 261.959383 196.123437 L 259.459383 196.123437 L 259.459383 190.123437" stroke="gray" fill="white" stroke-width="1px"></path><path d="M 247.459383 214.123437 L 249.959383 214.123437 L 249.959383 220.123437 L 247.459383 220.123437 L 247.459383 214.123437" stroke="gray" fill="white" stroke-width="1px"></path><path d="M 247.459383 208.123437 L 249.959383 208.123437 L 249.959383 214.123437 L 247.459383 214.123437 L 247.459383 208.123437" stroke="gray" fill="white" stroke-width="1px"></path><path d="M 247.459383 202.123437 L 249.959383 202.123437 L 249.959383 208.123437 L 247.459383 208.123437 L 247.459383 202.123437" stroke="gray" fill="white" stroke-width="1px"></path><path d="M 247.459383 196.123437 L 249.959383 196.123437 L 249.959383 202.123437 L 247.459383 202.123437 L 247.459383 196.123437" stroke="gray" fill="white" stroke-width="1px"></path><path d="M 247.459383 190.123437 L 249.959383 190.123437 L 249.959383 196.123437 L 247.459383 196.123437 L 247.459383 190.123437" stroke="gray" fill="white" stroke-width="1px"></path><path d="M 235.459383 214.123437 L 237.959383 214.123437 L 237.959383 220.123437 L 235.459383 220.123437 L 235.459383 214.123437" stroke="gray" fill="white" stroke-width="1px"></path><path d="M 235.459383 208.123437 L 237.959383 208.123437 L 237.959383 214.123437 L 235.459383 214.123437 L 235.459383 208.123437" stroke="gray" fill="white" stroke-width="1px"></path><path d="M 235.459383 202.123437 L 237.959383 202.123437 L 237.959383 208.123437 L 235.459383 208.123437 L 235.459383 202.123437" stroke="gray" fill="white" stroke-width="1px"></path><path d="M 235.459383 196.123437 L 237.959383 196.123437 L 237.959383 202.123437 L 235.459383 202.123437 L 235.459383 196.123437" stroke="gray" fill="white" stroke-width="1px"></path><path d="M 266.791650 160.123437 L 266.791650 157.623437 L 260.791650 157.623437 L 260.791650 160.123437 L 266.791650 160.123437" stroke="gray" fill="white" stroke-width="1px"></path><path d="M 272.791650 160.123437 L 272.791650 157.623437 L 266.791650 157.623437 L 266.791650 160.123437 L 272.791650 160.123437" stroke="gray" fill="white" stroke-width="1px"></path><path d="M 278.791650 160.123437 L 278.791650 157.623437 L 272.791650 157.623437 L 272.791650 160.123437 L 278.791650 160.123437" stroke="gray" fill="white" stroke-width="1px"></path><path d="M 266.791650 148.123437 L 266.791650 145.623437 L 260.791650 145.623437 L 260.791650 148.123437 L 266.791650 148.123437" stroke="gray" fill="white" stroke-width="1px"></path><path d="M 272.791650 148.123437 L 272.791650 145.623437 L 266.791650 145.623437 L 266.791650 148.123437 L 272.791650 148.123437" stroke="gray" fill="white" stroke-width="1px"></path><path d="M 278.791650 148.123437 L 278.791650 145.623437 L 272.791650 145.623437 L 272.791650 148.123437 L 278.791650 148.123437" stroke="gray" fill="white" stroke-width="1px"></path><path d="M 266.791650 136.123437 L 266.791650 133.623437 L 260.791650 133.623437 L 260.791650 136.123437 L 266.791650 136.123437" stroke="gray" fill="white" stroke-width="1px"></path><path d="M 272.791650 136.123437 L 272.791650 133.623437 L 266.791650 133.623437 L 266.791650 136.123437 L 272.791650 136.123437" stroke="gray" fill="white" stroke-width="1px"></path><path d="M 278.791650 136.123437 L 278.791650 133.623437 L 272.791650 133.623437 L 272.791650 136.123437 L 278.791650 136.123437" stroke="gray" fill="white" stroke-width="1px"></path><path d="M 266.791650 160.123437 L 266.791650 162.623437 L 260.791650 162.623437 L 260.791650 160.123437 L 266.791650 160.123437" stroke="gray" fill="white" stroke-width="1px"></path><path d="M 272.791650 160.123437 L 272.791650 162.623437 L 266.791650 162.623437 L 266.791650 160.123437 L 272.791650 160.123437" stroke="gray" fill="white" stroke-width="1px"></path><path d="M 278.791650 160.123437 L 278.791650 162.623437 L 272.791650 162.623437 L 272.791650 160.123437 L 278.791650 160.123437" stroke="gray" fill="white" stroke-width="1px"></path><path d="M 266.791650 148.123437 L 266.791650 150.623437 L 260.791650 150.623437 L 260.791650 148.123437 L 266.791650 148.123437" stroke="gray" fill="white" stroke-width="1px"></path><path d="M 272.791650 148.123437 L 272.791650 150.623437 L 266.791650 150.623437 L 266.791650 148.123437 L 272.791650 148.123437" stroke="gray" fill="white" stroke-width="1px"></path><path d="M 278.791650 148.123437 L 278.791650 150.623437 L 272.791650 150.623437 L 272.791650 148.123437 L 278.791650 148.123437" stroke="gray" fill="white" stroke-width="1px"></path><path d="M 266.791650 136.123437 L 266.791650 138.623437 L 260.791650 138.623437 L 260.791650 136.123437 L 266.791650 136.123437" stroke="gray" fill="white" stroke-width="1px"></path><path d="M 272.791650 136.123437 L 272.791650 138.623437 L 266.791650 138.623437 L 266.791650 136.123437 L 272.791650 136.123437" stroke="gray" fill="white" stroke-width="1px"></path><path d="M 278.791650 136.123437 L 278.791650 138.623437 L 272.791650 138.623437 L 272.791650 136.123437 L 278.791650 136.123437" stroke="gray" fill="white" stroke-width="1px"></path><path d="M 271.459383 44.086521 L 268.959383 44.086521 L 268.959383 50.086521 L 271.459383 50.086521 L 271.459383 44.086521" stroke="gray" fill="white" stroke-width="1px"></path><path d="M 271.459383 38.086521 L 268.959383 38.086521 L 268.959383 44.086521 L 271.459383 44.086521 L 271.459383 38.086521" stroke="gray" fill="white" stroke-width="1px"></path><path d="M 271.459383 32.086521 L 268.959383 32.086521 L 268.959383 38.086521 L 271.459383 38.086521 L 271.459383 32.086521" stroke="gray" fill="white" stroke-width="1px"></path><path d="M 259.459383 45.770512 L 256.959383 45.770512 L 256.959383 51.770512 L 259.459383 51.770512 L 259.459383 45.770512" stroke="gray" fill="white" stroke-width="1px"></path><path d="M 259.459383 39.770512 L 256.959383 39.770512 L 256.959383 45.770512 L 259.459383 45.770512 L 259.459383 39.770512" stroke="gray" fill="white" stroke-width="1px"></path><path d="M 259.459383 33.770512 L 256.959383 33.770512 L 256.959383 39.770512 L 259.459383 39.770512 L 259.459383 33.770512" stroke="gray" fill="white" stroke-width="1px"></path><path d="M 247.459383 47.454504 L 244.959383 47.454504 L 244.959383 53.454504 L 247.459383 53.454504 L 247.459383 47.454504" stroke="gray" fill="white" stroke-width="1px"></path><path d="M 247.459383 41.454504 L 244.959383 41.454504 L 244.959383 47.454504 L 247.459383 47.454504 L 247.459383 41.454504" stroke="gray" fill="white" stroke-width="1px"></path><path d="M 247.459383 35.454504 L 244.959383 35.454504 L 244.959383 41.454504 L 247.459383 41.454504 L 247.459383 35.454504" stroke="gray" fill="white" stroke-width="1px"></path><path d="M 235.459383 48.082508 L 232.959383 48.082508 L 232.959383 54.082508 L 235.459383 54.082508 L 235.459383 48.082508" stroke="gray" fill="white" stroke-width="1px"></path><path d="M 235.459383 42.082508 L 232.959383 42.082508 L 232.959383 48.082508 L 235.459383 48.082508 L 235.459383 42.082508" stroke="gray" fill="white" stroke-width="1px"></path><path d="M 235.459383 36.082508 L 232.959383 36.082508 L 232.959383 42.082508 L 235.459383 42.082508 L 235.459383 36.082508" stroke="gray" fill="white" stroke-width="1px"></path><path d="M 199.459383 101.033125 L 196.959383 101.033125 L 196.959383 107.033125 L 199.459383 107.033125 L 199.459383 101.033125" stroke="gray" fill="white" stroke-width="1px"></path><path d="M 187.459383 101.033125 L 184.959383 101.033125 L 184.959383 107.033125 L 187.459383 107.033125 L 187.459383 101.033125" stroke="gray" fill="white" stroke-width="1px"></path><path d="M 175.459383 101.033125 L 172.959383 101.033125 L 172.959383 107.033125 L 175.459383 107.033125 L 175.459383 101.033125" stroke="gray" fill="white" stroke-width="1px"></path><path d="M 163.459383 92.856572 L 160.959383 92.856572 L 160.959383 98.856572 L 163.459383 98.856572 L 163.459383 92.856572" stroke="gray" fill="white" stroke-width="1px"></path><path d="M 163.459383 86.856572 L 160.959383 86.856572 L 160.959383 92.856572 L 163.459383 92.856572 L 163.459383 86.856572" stroke="gray" fill="white" stroke-width="1px"></path><path d="M 127.459383 101.033125 L 124.959383 101.033125 L 124.959383 107.033125 L 127.459383 107.033125 L 127.459383 101.033125" stroke="gray" fill="white" stroke-width="1px"></path><path d="M 127.459383 95.033125 L 124.959383 95.033125 L 124.959383 101.033125 L 127.459383 101.033125 L 127.459383 95.033125" stroke="gray" fill="white" stroke-width="1px"></path><path d="M 127.459383 89.033125 L 124.959383 89.033125 L 124.959383 95.033125 L 127.459383 95.033125 L 127.459383 89.033125" stroke="gray" fill="white" stroke-width="1px"></path><path d="M 127.459383 83.033125 L 124.959383 83.033125 L 124.959383 89.033125 L 127.459383 89.033125 L 127.459383 83.033125" stroke="gray" fill="white" stroke-width="1px"></path><path d="M 115.459383 101.033125 L 112.959383 101.033125 L 112.959383 107.033125 L 115.459383 107.033125 L 115.459383 101.033125" stroke="gray" fill="white" stroke-width="1px"></path><path d="M 115.459383 95.033125 L 112.959383 95.033125 L 112.959383 101.033125 L 115.459383 101.033125 L 115.459383 95.033125" stroke="gray" fill="white" stroke-width="1px"></path><path d="M 115.459383 89.033125 L 112.959383 89.033125 L 112.959383 95.033125 L 115.459383 95.033125 L 115.459383 89.033125" stroke="gray" fill="white" stroke-width="1px"></path><path d="M 115.459383 83.033125 L 112.959383 83.033125 L 112.959383 89.033125 L 115.459383 89.033125 L 115.459383 83.033125" stroke="gray" fill="white" stroke-width="1px"></path><path d="M 31.459383 47.770582 L 28.959383 47.770582 L 28.959383 53.770582 L 31.459383 53.770582 L 31.459383 47.770582" stroke="gray" fill="white" stroke-width="1px"></path><path d="M 31.459383 41.770582 L 28.959383 41.770582 L 28.959383 47.770582 L 31.459383 47.770582 L 31.459383 41.770582" stroke="gray" fill="white" stroke-width="1px"></path><path d="M 31.459383 35.770582 L 28.959383 35.770582 L 28.959383 41.770582 L 31.459383 41.770582 L 31.459383 35.770582" stroke="gray" fill="white" stroke-width="1px"></path><path d="M 31.459383 29.770582 L 28.959383 29.770582 L 28.959383 35.770582 L 31.459383 35.770582 L 31.459383 29.770582" stroke="gray" fill="white" stroke-width="1px"></path><path d="M 31.459383 23.770582 L 28.959383 23.770582 L 28.959383 29.770582 L 31.459383 29.770582 L 31.459383 23.770582" stroke="gray" fill="white" stroke-width="1px"></path><path d="M 31.459383 17.770582 L 28.959383 17.770582 L 28.959383 23.770582 L 31.459383 23.770582 L 31.459383 17.770582" stroke="gray" fill="white" stroke-width="1px"></path><path d="M 19.459383 49.758463 L 16.959383 49.758463 L 16.959383 55.758463 L 19.459383 55.758463 L 19.459383 49.758463" stroke="gray" fill="white" stroke-width="1px"></path><path d="M 19.459383 43.758463 L 16.959383 43.758463 L 16.959383 49.758463 L 19.459383 49.758463 L 19.459383 43.758463" stroke="gray" fill="white" stroke-width="1px"></path><path d="M 19.459383 37.758463 L 16.959383 37.758463 L 16.959383 43.758463 L 19.459383 43.758463 L 19.459383 37.758463" stroke="gray" fill="white" stroke-width="1px"></path><path d="M 19.459383 31.758463 L 16.959383 31.758463 L 16.959383 37.758463 L 19.459383 37.758463 L 19.459383 31.758463" stroke="gray" fill="white" stroke-width="1px"></path><path d="M 19.459383 25.758463 L 16.959383 25.758463 L 16.959383 31.758463 L 19.459383 31.758463 L 19.459383 25.758463" stroke="gray" fill="white" stroke-width="1px"></path><path d="M 19.459383 19.758463 L 16.959383 19.758463 L 16.959383 25.758463 L 19.459383 25.758463 L 19.459383 19.758463" stroke="gray" fill="white" stroke-width="1px"></path><path d="M 19.459383 13.758463 L 16.959383 13.758463 L 16.959383 19.758463 L 19.459383 19.758463 L 19.459383 13.758463" stroke="gray" fill="white" stroke-width="1px"></path><path d="M 271.459383 44.086521 L 273.959383 44.086521 L 273.959383 50.086521 L 271.459383 50.086521 L 271.459383 44.086521" stroke="gray" fill="white" stroke-width="1px"></path><path d="M 271.459383 38.086521 L 273.959383 38.086521 L 273.959383 44.086521 L 271.459383 44.086521 L 271.459383 38.086521" stroke="gray" fill="white" stroke-width="1px"></path><path d="M 271.459383 32.086521 L 273.959383 32.086521 L 273.959383 38.086521 L 271.459383 38.086521 L 271.459383 32.086521" stroke="gray" fill="white" stroke-width="1px"></path><path d="M 259.459383 45.770512 L 261.959383 45.770512 L 261.959383 51.770512 L 259.459383 51.770512 L 259.459383 45.770512" stroke="gray" fill="white" stroke-width="1px"></path><path d="M 259.459383 39.770512 L 261.959383 39.770512 L 261.959383 45.770512 L 259.459383 45.770512 L 259.459383 39.770512" stroke="gray" fill="white" stroke-width="1px"></path><path d="M 259.459383 33.770512 L 261.959383 33.770512 L 261.959383 39.770512 L 259.459383 39.770512 L 259.459383 33.770512" stroke="gray" fill="white" stroke-width="1px"></path><path d="M 247.459383 47.454504 L 249.959383 47.454504 L 249.959383 53.454504 L 247.459383 53.454504 L 247.459383 47.454504" stroke="gray" fill="white" stroke-width="1px"></path><path d="M 247.459383 41.454504 L 249.959383 41.454504 L 249.959383 47.454504 L 247.459383 47.454504 L 247.459383 41.454504" stroke="gray" fill="white" stroke-width="1px"></path><path d="M 247.459383 35.454504 L 249.959383 35.454504 L 249.959383 41.454504 L 247.459383 41.454504 L 247.459383 35.454504" stroke="gray" fill="white" stroke-width="1px"></path><path d="M 235.459383 48.082508 L 237.959383 48.082508 L 237.959383 54.082508 L 235.459383 54.082508 L 235.459383 48.082508" stroke="gray" fill="white" stroke-width="1px"></path><path d="M 235.459383 42.082508 L 237.959383 42.082508 L 237.959383 48.082508 L 235.459383 48.082508 L 235.459383 42.082508" stroke="gray" fill="white" stroke-width="1px"></path><path d="M 235.459383 36.082508 L 237.959383 36.082508 L 237.959383 42.082508 L 235.459383 42.082508 L 235.459383 36.082508" stroke="gray" fill="white" stroke-width="1px"></path><path d="M 199.459383 101.033125 L 201.959383 101.033125 L 201.959383 107.033125 L 199.459383 107.033125 L 199.459383 101.033125" stroke="gray" fill="white" stroke-width="1px"></path><path d="M 187.459383 101.033125 L 189.959383 101.033125 L 189.959383 107.033125 L 187.459383 107.033125 L 187.459383 101.033125" stroke="gray" fill="white" stroke-width="1px"></path><path d="M 175.459383 101.033125 L 177.959383 101.033125 L 177.959383 107.033125 L 175.459383 107.033125 L 175.459383 101.033125" stroke="gray" fill="white" stroke-width="1px"></path><path d="M 163.459383 86.856572 L 165.959383 86.856572 L 165.959383 92.856572 L 163.459383 92.856572 L 163.459383 86.856572" stroke="gray" fill="white" stroke-width="1px"></path><path d="M 127.459383 101.033125 L 129.959383 101.033125 L 129.959383 107.033125 L 127.459383 107.033125 L 127.459383 101.033125" stroke="gray" fill="white" stroke-width="1px"></path><path d="M 127.459383 95.033125 L 129.959383 95.033125 L 129.959383 101.033125 L 127.459383 101.033125 L 127.459383 95.033125" stroke="gray" fill="white" stroke-width="1px"></path><path d="M 127.459383 89.033125 L 129.959383 89.033125 L 129.959383 95.033125 L 127.459383 95.033125 L 127.459383 89.033125" stroke="gray" fill="white" stroke-width="1px"></path><path d="M 127.459383 83.033125 L 129.959383 83.033125 L 129.959383 89.033125 L 127.459383 89.033125 L 127.459383 83.033125" stroke="gray" fill="white" stroke-width="1px"></path><path d="M 115.459383 101.033125 L 117.959383 101.033125 L 117.959383 107.033125 L 115.459383 107.033125 L 115.459383 101.033125" stroke="gray" fill="white" stroke-width="1px"></path><path d="M 115.459383 95.033125 L 117.959383 95.033125 L 117.959383 101.033125 L 115.459383 101.033125 L 115.459383 95.033125" stroke="gray" fill="white" stroke-width="1px"></path><path d="M 115.459383 89.033125 L 117.959383 89.033125 L 117.959383 95.033125 L 115.459383 95.033125 L 115.459383 89.033125" stroke="gray" fill="white" stroke-width="1px"></path><path d="M 115.459383 83.033125 L 117.959383 83.033125 L 117.959383 89.033125 L 115.459383 89.033125 L 115.459383 83.033125" stroke="gray" fill="white" stroke-width="1px"></path><path d="M 31.459383 47.770582 L 33.959383 47.770582 L 33.959383 53.770582 L 31.459383 53.770582 L 31.459383 47.770582" stroke="gray" fill="white" stroke-width="1px"></path><path d="M 31.459383 41.770582 L 33.959383 41.770582 L 33.959383 47.770582 L 31.459383 47.770582 L 31.459383 41.770582" stroke="gray" fill="white" stroke-width="1px"></path><path d="M 31.459383 35.770582 L 33.959383 35.770582 L 33.959383 41.770582 L 31.459383 41.770582 L 31.459383 35.770582" stroke="gray" fill="white" stroke-width="1px"></path><path d="M 31.459383 29.770582 L 33.959383 29.770582 L 33.959383 35.770582 L 31.459383 35.770582 L 31.459383 29.770582" stroke="gray" fill="white" stroke-width="1px"></path><path d="M 31.459383 23.770582 L 33.959383 23.770582 L 33.959383 29.770582 L 31.459383 29.770582 L 31.459383 23.770582" stroke="gray" fill="white" stroke-width="1px"></path><path d="M 31.459383 17.770582 L 33.959383 17.770582 L 33.959383 23.770582 L 31.459383 23.770582 L 31.459383 17.770582" stroke="gray" fill="white" stroke-width="1px"></path><path d="M 19.459383 49.758463 L 21.959383 49.758463 L 21.959383 55.758463 L 19.459383 55.758463 L 19.459383 49.758463" stroke="gray" fill="white" stroke-width="1px"></path><path d="M 19.459383 43.758463 L 21.959383 43.758463 L 21.959383 49.758463 L 19.459383 49.758463 L 19.459383 43.758463" stroke="gray" fill="white" stroke-width="1px"></path><path d="M 19.459383 37.758463 L 21.959383 37.758463 L 21.959383 43.758463 L 19.459383 43.758463 L 19.459383 37.758463" stroke="gray" fill="white" stroke-width="1px"></path><path d="M 19.459383 31.758463 L 21.959383 31.758463 L 21.959383 37.758463 L 19.459383 37.758463 L 19.459383 31.758463" stroke="gray" fill="white" stroke-width="1px"></path><path d="M 19.459383 25.758463 L 21.959383 25.758463 L 21.959383 31.758463 L 19.459383 31.758463 L 19.459383 25.758463" stroke="gray" fill="white" stroke-width="1px"></path><path d="M 19.459383 19.758463 L 21.959383 19.758463 L 21.959383 25.758463 L 19.459383 25.758463 L 19.459383 19.758463" stroke="gray" fill="white" stroke-width="1px"></path><path d="M 19.459383 13.758463 L 21.959383 13.758463 L 21.959383 19.758463 L 19.459383 19.758463 L 19.459383 13.758463" stroke="gray" fill="white" stroke-width="1px"></path><path d="M 267.718786 101.263579 L 267.718786 98.763579 L 261.718786 98.763579 L 261.718786 101.263579 L 267.718786 101.263579" stroke="gray" fill="white" stroke-width="1px"></path><path d="M 273.718786 101.263579 L 273.718786 98.763579 L 267.718786 98.763579 L 267.718786 101.263579 L 273.718786 101.263579" stroke="gray" fill="white" stroke-width="1px"></path><path d="M 263.083112 89.263579 L 263.083112 86.763579 L 257.083112 86.763579 L 257.083112 89.263579 L 263.083112 89.263579" stroke="gray" fill="white" stroke-width="1px"></path><path d="M 269.083112 89.263579 L 269.083112 86.763579 L 263.083112 86.763579 L 263.083112 89.263579 L 269.083112 89.263579" stroke="gray" fill="white" stroke-width="1px"></path><path d="M 275.083112 89.263579 L 275.083112 86.763579 L 269.083112 86.763579 L 269.083112 89.263579 L 275.083112 89.263579" stroke="gray" fill="white" stroke-width="1px"></path><path d="M 258.447437 77.263579 L 258.447437 74.763579 L 252.447437 74.763579 L 252.447437 77.263579 L 258.447437 77.263579" stroke="gray" fill="white" stroke-width="1px"></path><path d="M 264.447437 77.263579 L 264.447437 74.763579 L 258.447437 74.763579 L 258.447437 77.263579 L 264.447437 77.263579" stroke="gray" fill="white" stroke-width="1px"></path><path d="M 270.447437 77.263579 L 270.447437 74.763579 L 264.447437 74.763579 L 264.447437 77.263579 L 270.447437 77.263579" stroke="gray" fill="white" stroke-width="1px"></path><path d="M 276.447437 77.263579 L 276.447437 74.763579 L 270.447437 74.763579 L 270.447437 77.263579 L 276.447437 77.263579" stroke="gray" fill="white" stroke-width="1px"></path><path d="M 224.064530 101.263579 L 224.064530 98.763579 L 218.064530 98.763579 L 218.064530 101.263579 L 224.064530 101.263579" stroke="gray" fill="white" stroke-width="1px"></path><path d="M 230.064530 101.263579 L 230.064530 98.763579 L 224.064530 98.763579 L 224.064530 101.263579 L 230.064530 101.263579" stroke="gray" fill="white" stroke-width="1px"></path><path d="M 236.064530 101.263579 L 236.064530 98.763579 L 230.064530 98.763579 L 230.064530 101.263579 L 236.064530 101.263579" stroke="gray" fill="white" stroke-width="1px"></path><path d="M 242.064530 101.263579 L 242.064530 98.763579 L 236.064530 98.763579 L 236.064530 101.263579 L 242.064530 101.263579" stroke="gray" fill="white" stroke-width="1px"></path><path d="M 248.064530 101.263579 L 248.064530 98.763579 L 242.064530 98.763579 L 242.064530 101.263579 L 248.064530 101.263579" stroke="gray" fill="white" stroke-width="1px"></path><path d="M 222.118034 89.263579 L 222.118034 86.763579 L 216.118034 86.763579 L 216.118034 89.263579 L 222.118034 89.263579" stroke="gray" fill="white" stroke-width="1px"></path><path d="M 228.118034 89.263579 L 228.118034 86.763579 L 222.118034 86.763579 L 222.118034 89.263579 L 228.118034 89.263579" stroke="gray" fill="white" stroke-width="1px"></path><path d="M 234.118034 89.263579 L 234.118034 86.763579 L 228.118034 86.763579 L 228.118034 89.263579 L 234.118034 89.263579" stroke="gray" fill="white" stroke-width="1px"></path><path d="M 240.118034 89.263579 L 240.118034 86.763579 L 234.118034 86.763579 L 234.118034 89.263579 L 240.118034 89.263579" stroke="gray" fill="white" stroke-width="1px"></path><path d="M 246.118034 89.263579 L 246.118034 86.763579 L 240.118034 86.763579 L 240.118034 89.263579 L 246.118034 89.263579" stroke="gray" fill="white" stroke-width="1px"></path><path d="M 22.000000 101.263579 L 22.000000 98.763579 L 16.000000 98.763579 L 16.000000 101.263579 L 22.000000 101.263579" stroke="gray" fill="white" stroke-width="1px"></path><path d="M 28.000000 101.263579 L 28.000000 98.763579 L 22.000000 98.763579 L 22.000000 101.263579 L 28.000000 101.263579" stroke="gray" fill="white" stroke-width="1px"></path><path d="M 34.000000 101.263579 L 34.000000 98.763579 L 28.000000 98.763579 L 28.000000 101.263579 L 34.000000 101.263579" stroke="gray" fill="white" stroke-width="1px"></path><path d="M 40.000000 101.263579 L 40.000000 98.763579 L 34.000000 98.763579 L 34.000000 101.263579 L 40.000000 101.263579" stroke="gray" fill="white" stroke-width="1px"></path><path d="M 46.000000 101.263579 L 46.000000 98.763579 L 40.000000 98.763579 L 40.000000 101.263579 L 46.000000 101.263579" stroke="gray" fill="white" stroke-width="1px"></path><path d="M 52.000000 101.263579 L 52.000000 98.763579 L 46.000000 98.763579 L 46.000000 101.263579 L 52.000000 101.263579" stroke="gray" fill="white" stroke-width="1px"></path><path d="M 58.000000 101.263579 L 58.000000 98.763579 L 52.000000 98.763579 L 52.000000 101.263579 L 58.000000 101.263579" stroke="gray" fill="white" stroke-width="1px"></path><path d="M 22.000000 89.263579 L 22.000000 86.763579 L 16.000000 86.763579 L 16.000000 89.263579 L 22.000000 89.263579" stroke="gray" fill="white" stroke-width="1px"></path><path d="M 28.000000 89.263579 L 28.000000 86.763579 L 22.000000 86.763579 L 22.000000 89.263579 L 28.000000 89.263579" stroke="gray" fill="white" stroke-width="1px"></path><path d="M 34.000000 89.263579 L 34.000000 86.763579 L 28.000000 86.763579 L 28.000000 89.263579 L 34.000000 89.263579" stroke="gray" fill="white" stroke-width="1px"></path><path d="M 40.000000 89.263579 L 40.000000 86.763579 L 34.000000 86.763579 L 34.000000 89.263579 L 40.000000 89.263579" stroke="gray" fill="white" stroke-width="1px"></path><path d="M 46.000000 89.263579 L 46.000000 86.763579 L 40.000000 86.763579 L 40.000000 89.263579 L 46.000000 89.263579" stroke="gray" fill="white" stroke-width="1px"></path><path d="M 52.000000 89.263579 L 52.000000 86.763579 L 46.000000 86.763579 L 46.000000 89.263579 L 52.000000 89.263579" stroke="gray" fill="white" stroke-width="1px"></path><path d="M 58.000000 89.263579 L 58.000000 86.763579 L 52.000000 86.763579 L 52.000000 89.263579 L 58.000000 89.263579" stroke="gray" fill="white" stroke-width="1px"></path><path d="M 22.000000 77.263579 L 22.000000 74.763579 L 16.000000 74.763579 L 16.000000 77.263579 L 22.000000 77.263579" stroke="gray" fill="white" stroke-width="1px"></path><path d="M 28.000000 77.263579 L 28.000000 74.763579 L 22.000000 74.763579 L 22.000000 77.263579 L 28.000000 77.263579" stroke="gray" fill="white" stroke-width="1px"></path><path d="M 34.000000 77.263579 L 34.000000 74.763579 L 28.000000 74.763579 L 28.000000 77.263579 L 34.000000 77.263579" stroke="gray" fill="white" stroke-width="1px"></path><path d="M 40.000000 77.263579 L 40.000000 74.763579 L 34.000000 74.763579 L 34.000000 77.263579 L 40.000000 77.263579" stroke="gray" fill="white" stroke-width="1px"></path><path d="M 46.000000 77.263579 L 46.000000 74.763579 L 40.000000 74.763579 L 40.000000 77.263579 L 46.000000 77.263579" stroke="gray" fill="white" stroke-width="1px"></path><path d="M 52.000000 77.263579 L 52.000000 74.763579 L 46.000000 74.763579 L 46.000000 77.263579 L 52.000000 77.263579" stroke="gray" fill="white" stroke-width="1px"></path><path d="M 58.000000 77.263579 L 58.000000 74.763579 L 52.000000 74.763579 L 52.000000 77.263579 L 58.000000 77.263579" stroke="gray" fill="white" stroke-width="1px"></path><path d="M 267.718786 101.263579 L 267.718786 103.763579 L 261.718786 103.763579 L 261.718786 101.263579 L 267.718786 101.263579" stroke="gray" fill="white" stroke-width="1px"></path><path d="M 273.718786 101.263579 L 273.718786 103.763579 L 267.718786 103.763579 L 267.718786 101.263579 L 273.718786 101.263579" stroke="gray" fill="white" stroke-width="1px"></path><path d="M 263.083112 89.263579 L 263.083112 91.763579 L 257.083112 91.763579 L 257.083112 89.263579 L 263.083112 89.263579" stroke="gray" fill="white" stroke-width="1px"></path><path d="M 269.083112 89.263579 L 269.083112 91.763579 L 263.083112 91.763579 L 263.083112 89.263579 L 269.083112 89.263579" stroke="gray" fill="white" stroke-width="1px"></path><path d="M 275.083112 89.263579 L 275.083112 91.763579 L 269.083112 91.763579 L 269.083112 89.263579 L 275.083112 89.263579" stroke="gray" fill="white" stroke-width="1px"></path><path d="M 258.447437 77.263579 L 258.447437 79.763579 L 252.447437 79.763579 L 252.447437 77.263579 L 258.447437 77.263579" stroke="gray" fill="white" stroke-width="1px"></path><path d="M 264.447437 77.263579 L 264.447437 79.763579 L 258.447437 79.763579 L 258.447437 77.263579 L 264.447437 77.263579" stroke="gray" fill="white" stroke-width="1px"></path><path d="M 270.447437 77.263579 L 270.447437 79.763579 L 264.447437 79.763579 L 264.447437 77.263579 L 270.447437 77.263579" stroke="gray" fill="white" stroke-width="1px"></path><path d="M 276.447437 77.263579 L 276.447437 79.763579 L 270.447437 79.763579 L 270.447437 77.263579 L 276.447437 77.263579" stroke="gray" fill="white" stroke-width="1px"></path><path d="M 224.064530 101.263579 L 224.064530 103.763579 L 218.064530 103.763579 L 218.064530 101.263579 L 224.064530 101.263579" stroke="gray" fill="white" stroke-width="1px"></path><path d="M 230.064530 101.263579 L 230.064530 103.763579 L 224.064530 103.763579 L 224.064530 101.263579 L 230.064530 101.263579" stroke="gray" fill="white" stroke-width="1px"></path><path d="M 236.064530 101.263579 L 236.064530 103.763579 L 230.064530 103.763579 L 230.064530 101.263579 L 236.064530 101.263579" stroke="gray" fill="white" stroke-width="1px"></path><path d="M 242.064530 101.263579 L 242.064530 103.763579 L 236.064530 103.763579 L 236.064530 101.263579 L 242.064530 101.263579" stroke="gray" fill="white" stroke-width="1px"></path><path d="M 248.064530 101.263579 L 248.064530 103.763579 L 242.064530 103.763579 L 242.064530 101.263579 L 248.064530 101.263579" stroke="gray" fill="white" stroke-width="1px"></path><path d="M 222.118034 89.263579 L 222.118034 91.763579 L 216.118034 91.763579 L 216.118034 89.263579 L 222.118034 89.263579" stroke="gray" fill="white" stroke-width="1px"></path><path d="M 228.118034 89.263579 L 228.118034 91.763579 L 222.118034 91.763579 L 222.118034 89.263579 L 228.118034 89.263579" stroke="gray" fill="white" stroke-width="1px"></path><path d="M 234.118034 89.263579 L 234.118034 91.763579 L 228.118034 91.763579 L 228.118034 89.263579 L 234.118034 89.263579" stroke="gray" fill="white" stroke-width="1px"></path><path d="M 240.118034 89.263579 L 240.118034 91.763579 L 234.118034 91.763579 L 234.118034 89.263579 L 240.118034 89.263579" stroke="gray" fill="white" stroke-width="1px"></path><path d="M 246.118034 89.263579 L 246.118034 91.763579 L 240.118034 91.763579 L 240.118034 89.263579 L 246.118034 89.263579" stroke="gray" fill="white" stroke-width="1px"></path><path d="M 22.000000 101.263579 L 22.000000 103.763579 L 16.000000 103.763579 L 16.000000 101.263579 L 22.000000 101.263579" stroke="gray" fill="white" stroke-width="1px"></path><path d="M 28.000000 101.263579 L 28.000000 103.763579 L 22.000000 103.763579 L 22.000000 101.263579 L 28.000000 101.263579" stroke="gray" fill="white" stroke-width="1px"></path><path d="M 34.000000 101.263579 L 34.000000 103.763579 L 28.000000 103.763579 L 28.000000 101.263579 L 34.000000 101.263579" stroke="gray" fill="white" stroke-width="1px"></path><path d="M 40.000000 101.263579 L 40.000000 103.763579 L 34.000000 103.763579 L 34.000000 101.263579 L 40.000000 101.263579" stroke="gray" fill="white" stroke-width="1px"></path><path d="M 46.000000 101.263579 L 46.000000 103.763579 L 40.000000 103.763579 L 40.000000 101.263579 L 46.000000 101.263579" stroke="gray" fill="white" stroke-width="1px"></path><path d="M 52.000000 101.263579 L 52.000000 103.763579 L 46.000000 103.763579 L 46.000000 101.263579 L 52.000000 101.263579" stroke="gray" fill="white" stroke-width="1px"></path><path d="M 58.000000 101.263579 L 58.000000 103.763579 L 52.000000 103.763579 L 52.000000 101.263579 L 58.000000 101.263579" stroke="gray" fill="white" stroke-width="1px"></path><path d="M 22.000000 89.263579 L 22.000000 91.763579 L 16.000000 91.763579 L 16.000000 89.263579 L 22.000000 89.263579" stroke="gray" fill="white" stroke-width="1px"></path><path d="M 28.000000 89.263579 L 28.000000 91.763579 L 22.000000 91.763579 L 22.000000 89.263579 L 28.000000 89.263579" stroke="gray" fill="white" stroke-width="1px"></path><path d="M 34.000000 89.263579 L 34.000000 91.763579 L 28.000000 91.763579 L 28.000000 89.263579 L 34.000000 89.263579" stroke="gray" fill="white" stroke-width="1px"></path><path d="M 40.000000 89.263579 L 40.000000 91.763579 L 34.000000 91.763579 L 34.000000 89.263579 L 40.000000 89.263579" stroke="gray" fill="white" stroke-width="1px"></path><path d="M 46.000000 89.263579 L 46.000000 91.763579 L 40.000000 91.763579 L 40.000000 89.263579 L 46.000000 89.263579" stroke="gray" fill="white" stroke-width="1px"></path><path d="M 52.000000 89.263579 L 52.000000 91.763579 L 46.000000 91.763579 L 46.000000 89.263579 L 52.000000 89.263579" stroke="gray" fill="white" stroke-width="1px"></path><path d="M 58.000000 89.263579 L 58.000000 91.763579 L 52.000000 91.763579 L 52.000000 89.263579 L 58.000000 89.263579" stroke="gray" fill="white" stroke-width="1px"></path><path d="M 22.000000 77.263579 L 22.000000 79.763579 L 16.000000 79.763579 L 16.000000 77.263579 L 22.000000 77.263579" stroke="gray" fill="white" stroke-width="1px"></path><path d="M 28.000000 77.263579 L 28.000000 79.763579 L 22.000000 79.763579 L 22.000000 77.263579 L 28.000000 77.263579" stroke="gray" fill="white" stroke-width="1px"></path><path d="M 34.000000 77.263579 L 34.000000 79.763579 L 28.000000 79.763579 L 28.000000 77.263579 L 34.000000 77.263579" stroke="gray" fill="white" stroke-width="1px"></path><path d="M 40.000000 77.263579 L 40.000000 79.763579 L 34.000000 79.763579 L 34.000000 77.263579 L 40.000000 77.263579" stroke="gray" fill="white" stroke-width="1px"></path><path d="M 46.000000 77.263579 L 46.000000 79.763579 L 40.000000 79.763579 L 40.000000 77.263579 L 46.000000 77.263579" stroke="gray" fill="white" stroke-width="1px"></path><path d="M 52.000000 77.263579 L 52.000000 79.763579 L 46.000000 79.763579 L 46.000000 77.263579 L 52.000000 77.263579" stroke="gray" fill="white" stroke-width="1px"></path><path d="M 58.000000 77.263579 L 58.000000 79.763579 L 52.000000 79.763579 L 52.000000 77.263579 L 58.000000 77.263579" stroke="gray" fill="white" stroke-width="1px"></path></g><g id="crv-base"><path d="M 221.371570 123.090312 L 221.371570 169.241094 L 120.000633 169.241094 L 120.000633 156.444206 L 126.051258 156.444206 L 126.051258 128.832500 L 123.590320 128.832500 L 123.590320 125.551250 L 126.051258 125.551250 L 126.051258 123.858132 L 91.315945 123.858125 L 91.315945 134.738750 L 64.258762 134.738750 L 64.258762 123.687497 L 10.000000 123.687497 L 10.000000 226.180625 L 64.258758 226.180625 L 64.258758 192.357500 L 91.315945 192.357500 L 91.315945 220.123437 L 283.459383 220.123437 L 283.459383 123.090312 L 221.371570 123.090312" stroke="black" fill="none" stroke-width="1px"></path><path d="M 221.371570 10.000000 L 221.371570 56.150781 L 120.000633 56.150781 L 120.000633 43.353893 L 126.051258 43.353893 L 126.051258 15.742187 L 123.590320 15.742187 L 123.590320 12.460937 L 126.051258 12.460937 L 126.051258 10.767819 L 91.315945 10.767812 L 91.315945 21.648438 L 64.258762 21.648438 L 64.258762 10.597185 L 10.000000 10.597185 L 10.000000 113.090312 L 64.258758 113.090312 L 64.258758 79.267187 L 91.315945 79.267187 L 91.315945 107.033125 L 283.459383 107.033125 L 283.459383 10.000000 L 221.371570 10.000000" stroke="black" fill="none" stroke-width="1px"></path><path d="M 10.387195 156.559062 L 10.387195 154.590312 L 12.355945 154.590312 L 12.355945 156.559062 L 10.387195 156.559062" stroke="black" fill="white" stroke-width="1px"></path><path d="M 10.387195 43.468750 L 10.387195 41.500000 L 12.355945 41.500000 L 12.355945 43.468750 L 10.387195 43.468750" stroke="black" fill="white" stroke-width="1px"></path><path d="M 10.387195 188.059062 L 10.387195 186.090312 L 12.355945 186.090312 L 12.355945 188.059062 L 10.387195 188.059062" stroke="black" fill="white" stroke-width="1px"></path><path d="M 10.387195 74.968750 L 10.387195 73.000000 L 12.355945 73.000000 L 12.355945 74.968750 L 10.387195 74.968750" stroke="black" fill="white" stroke-width="1px"></path><path d="M 10.387195 219.559062 L 10.387195 217.590312 L 12.355945 217.590312 L 12.355945 219.559062 L 10.387195 219.559062" stroke="black" fill="white" stroke-width="1px"></path><path d="M 10.387195 106.468750 L 10.387195 104.500000 L 12.355945 104.500000 L 12.355945 106.468750 L 10.387195 106.468750" stroke="black" fill="white" stroke-width="1px"></path><path d="M 60.754383 128.340312 L 60.754383 125.387187 L 63.871570 125.387187 L 63.871570 128.340312 L 60.754383 128.340312" stroke="black" fill="white" stroke-width="1px"></path><path d="M 60.754383 15.250000 L 60.754383 12.296875 L 63.871570 12.296875 L 63.871570 15.250000 L 60.754383 15.250000" stroke="black" fill="white" stroke-width="1px"></path><path d="M 280.598133 219.230937 L 280.598133 217.262187 L 282.566883 217.262187 L 282.566883 219.230937 L 280.598133 219.230937" stroke="black" fill="white" stroke-width="1px"></path><path d="M 280.598133 106.140625 L 280.598133 104.171875 L 282.566883 104.171875 L 282.566883 106.140625 L 280.598133 106.140625" stroke="black" fill="white" stroke-width="1px"></path><path d="M 280.598133 188.059062 L 280.598133 186.090312 L 282.566883 186.090312 L 282.566883 188.059062 L 280.598133 188.059062" stroke="black" fill="white" stroke-width="1px"></path><path d="M 280.598133 74.968750 L 280.598133 73.000000 L 282.566883 73.000000 L 282.566883 74.968750 L 280.598133 74.968750" stroke="black" fill="white" stroke-width="1px"></path><path d="M 280.598133 156.559050 L 280.598133 154.590300 L 282.566883 154.590300 L 282.566883 156.559050 L 280.598133 156.559050" stroke="black" fill="white" stroke-width="1px"></path><path d="M 280.598133 43.468737 L 280.598133 41.499987 L 282.566883 41.499987 L 282.566883 43.468737 L 280.598133 43.468737" stroke="black" fill="white" stroke-width="1px"></path><path d="M 248.605945 127.355937 L 248.605945 123.418437 L 251.887195 123.418437 L 251.887195 127.355937 L 248.605945 127.355937" stroke="black" fill="white" stroke-width="1px"></path><path d="M 248.605945 14.265625 L 248.605945 10.328125 L 251.887195 10.328125 L 251.887195 14.265625 L 248.605945 14.265625" stroke="black" fill="white" stroke-width="1px"></path><path d="M 248.605945 157.871562 L 248.605945 153.934062 L 251.887195 153.934062 L 251.887195 157.871562 L 248.605945 157.871562" stroke="black" fill="white" stroke-width="1px"></path><path d="M 248.605945 44.781250 L 248.605945 40.843750 L 251.887195 40.843750 L 251.887195 44.781250 L 248.605945 44.781250" stroke="black" fill="white" stroke-width="1px"></path><path d="M 248.605945 189.043437 L 248.605945 185.105937 L 251.887195 185.105937 L 251.887195 189.043437 L 248.605945 189.043437" stroke="black" fill="white" stroke-width="1px"></path><path d="M 248.605945 75.953125 L 248.605945 72.015625 L 251.887195 72.015625 L 251.887195 75.953125 L 248.605945 75.953125" stroke="black" fill="white" stroke-width="1px"></path><path d="M 248.934070 219.230937 L 248.934070 216.277812 L 251.887195 216.277812 L 251.887195 219.230937 L 248.934070 219.230937" stroke="black" fill="white" stroke-width="1px"></path><path d="M 248.934070 106.140625 L 248.934070 103.187500 L 251.887195 103.187500 L 251.887195 106.140625 L 248.934070 106.140625" stroke="black" fill="white" stroke-width="1px"></path><path d="M 218.090320 189.043437 L 218.090320 185.105937 L 221.371570 185.105937 L 221.371570 189.043437 L 218.090320 189.043437" stroke="black" fill="white" stroke-width="1px"></path><path d="M 218.090320 75.953125 L 218.090320 72.015625 L 221.371570 72.015625 L 221.371570 75.953125 L 218.090320 75.953125" stroke="black" fill="white" stroke-width="1px"></path><path d="M 218.254383 219.230937 L 218.254383 216.277812 L 221.207508 216.277812 L 221.207508 219.230937 L 218.254383 219.230937" stroke="black" fill="white" stroke-width="1px"></path><path d="M 218.254383 106.140625 L 218.254383 103.187500 L 221.207508 103.187500 L 221.207508 106.140625 L 218.254383 106.140625" stroke="black" fill="white" stroke-width="1px"></path><path d="M 186.590320 189.043437 L 186.590320 185.105937 L 189.871570 185.105937 L 189.871570 189.043437 L 186.590320 189.043437" stroke="black" fill="white" stroke-width="1px"></path><path d="M 186.590320 75.953125 L 186.590320 72.015625 L 189.871570 72.015625 L 189.871570 75.953125 L 186.590320 75.953125" stroke="black" fill="white" stroke-width="1px"></path><path d="M 186.754383 219.230937 L 186.754383 216.277812 L 189.707508 216.277812 L 189.707508 219.230937 L 186.754383 219.230937" stroke="black" fill="white" stroke-width="1px"></path><path d="M 186.754383 106.140625 L 186.754383 103.187500 L 189.707508 103.187500 L 189.707508 106.140625 L 186.754383 106.140625" stroke="black" fill="white" stroke-width="1px"></path><path d="M 155.090320 189.043437 L 155.090320 185.105937 L 158.371570 185.105937 L 158.371570 189.043437 L 155.090320 189.043437" stroke="black" fill="white" stroke-width="1px"></path><path d="M 155.090320 75.953125 L 155.090320 72.015625 L 158.371570 72.015625 L 158.371570 75.953125 L 155.090320 75.953125" stroke="black" fill="white" stroke-width="1px"></path><path d="M 155.254383 219.230937 L 155.254383 216.277812 L 158.207508 216.277812 L 158.207508 219.230937 L 155.254383 219.230937" stroke="black" fill="white" stroke-width="1px"></path><path d="M 155.254383 106.140625 L 155.254383 103.187500 L 158.207508 103.187500 L 158.207508 106.140625 L 155.254383 106.140625" stroke="black" fill="white" stroke-width="1px"></path><path d="M 123.590320 189.043437 L 123.590320 185.105937 L 126.871570 185.105937 L 126.871570 189.043437 L 123.590320 189.043437" stroke="black" fill="white" stroke-width="1px"></path><path d="M 123.590320 75.953125 L 123.590320 72.015625 L 126.871570 72.015625 L 126.871570 75.953125 L 123.590320 75.953125" stroke="black" fill="white" stroke-width="1px"></path><path d="M 123.754383 219.230937 L 123.754383 216.277812 L 126.707508 216.277812 L 126.707508 219.230937 L 123.754383 219.230937" stroke="black" fill="white" stroke-width="1px"></path><path d="M 123.754383 106.140625 L 123.754383 103.187500 L 126.707508 103.187500 L 126.707508 106.140625 L 123.754383 106.140625" stroke="black" fill="white" stroke-width="1px"></path><path d="M 92.090320 157.543437 L 92.090320 153.605937 L 95.371570 153.605937 L 95.371570 157.543437 L 92.090320 157.543437" stroke="black" fill="white" stroke-width="1px"></path><path d="M 92.090320 44.453125 L 92.090320 40.515625 L 95.371570 40.515625 L 95.371570 44.453125 L 92.090320 44.453125" stroke="black" fill="white" stroke-width="1px"></path><path d="M 92.090320 189.043437 L 92.090320 185.105937 L 95.371570 185.105937 L 95.371570 189.043437 L 92.090320 189.043437" stroke="black" fill="white" stroke-width="1px"></path><path d="M 92.090320 75.953125 L 92.090320 72.015625 L 95.371570 72.015625 L 95.371570 75.953125 L 92.090320 75.953125" stroke="black" fill="white" stroke-width="1px"></path><path d="M 92.090320 128.504375 L 92.090320 125.551250 L 95.207508 125.551250 L 95.207508 128.504375 L 92.090320 128.504375" stroke="black" fill="white" stroke-width="1px"></path><path d="M 92.090320 15.414062 L 92.090320 12.460937 L 95.207508 12.460937 L 95.207508 15.414062 L 92.090320 15.414062" stroke="black" fill="white" stroke-width="1px"></path><path d="M 60.590320 157.215312 L 60.590320 153.934062 L 63.871570 153.934062 L 63.871570 157.215312 L 60.590320 157.215312" stroke="black" fill="white" stroke-width="1px"></path><path d="M 60.590320 44.125000 L 60.590320 40.843750 L 63.871570 40.843750 L 63.871570 44.125000 L 60.590320 44.125000" stroke="black" fill="white" stroke-width="1px"></path><path d="M 60.754383 219.230937 L 60.754383 216.277812 L 63.871570 216.277812 L 63.871570 219.230937 L 60.754383 219.230937" stroke="black" fill="white" stroke-width="1px"></path><path d="M 60.754383 106.140625 L 60.754383 103.187500 L 63.871570 103.187500 L 63.871570 106.140625 L 60.754383 106.140625" stroke="black" fill="white" stroke-width="1px"></path><path d="M 30.074695 128.504375 L 30.074695 125.223125 L 33.027820 125.223125 L 33.027820 128.504375 L 30.074695 128.504375" stroke="black" fill="white" stroke-width="1px"></path><path d="M 30.074695 15.414062 L 30.074695 12.132812 L 33.027820 12.132812 L 33.027820 15.414062 L 30.074695 15.414062" stroke="black" fill="white" stroke-width="1px"></path><path d="M 30.074695 157.215312 L 30.074695 153.934062 L 33.355945 153.934062 L 33.355945 157.215312 L 30.074695 157.215312" stroke="black" fill="white" stroke-width="1px"></path><path d="M 30.074695 44.125000 L 30.074695 40.843750 L 33.355945 40.843750 L 33.355945 44.125000 L 30.074695 44.125000" stroke="black" fill="white" stroke-width="1px"></path><path d="M 30.074695 188.715312 L 30.074695 185.434062 L 33.355945 185.434062 L 33.355945 188.715312 L 30.074695 188.715312" stroke="black" fill="white" stroke-width="1px"></path><path d="M 30.074695 75.625000 L 30.074695 72.343750 L 33.355945 72.343750 L 33.355945 75.625000 L 30.074695 75.625000" stroke="black" fill="white" stroke-width="1px"></path><path d="M 30.074695 219.230937 L 30.074695 216.277812 L 33.027820 216.277812 L 33.027820 219.230937 L 30.074695 219.230937" stroke="black" fill="white" stroke-width="1px"></path><path d="M 30.074695 106.140625 L 30.074695 103.187500 L 33.027820 103.187500 L 33.027820 106.140625 L 30.074695 106.140625" stroke="black" fill="white" stroke-width="1px"></path><path d="M 10.387195 127.191875 L 10.387195 125.223125 L 12.355945 125.223125 L 12.355945 127.191875 L 10.387195 127.191875" stroke="black" fill="white" stroke-width="1px"></path><path d="M 10.387195 14.101562 L 10.387195 12.132812 L 12.355945 12.132812 L 12.355945 14.101562 L 10.387195 14.101562" stroke="black" fill="white" stroke-width="1px"></path><path d="M 60.590320 189.863750 L 60.590320 185.434062 L 63.871570 185.434062 L 63.871570 188.715312 L 62.230945 188.715312 L 62.230945 189.863750 L 60.590320 189.863750" stroke="black" fill="white" stroke-width="1px"></path><path d="M 60.590320 76.773437 L 60.590320 72.343750 L 63.871570 72.343750 L 63.871570 75.625000 L 62.230945 75.625000 L 62.230945 76.773437 L 60.590320 76.773437" stroke="black" fill="white" stroke-width="1px"></path></g></svg>