<svg width="293.459383" height="236.180625" xmlns="http://www.w3.org/2000/svg" xmlns:xlink="http://www.w3.org/1999/xlink" version="1.1"><g id="crv-background"><path d="M 221.371570 123.090312 L 221.371570 169.241094 L 120.000633 169.241094 L 120.000633 156.444206 L 126.051258 156.444206 L 126.051258 128.832500 L 123.590320 128.832500 L 123.590320 125.551250 L 126.051258 125.551250 L 126.051258 123.858132 L 91.315945 123.858125 L 91.315945 134.738750 L 64.258762 134.738750 L 64.258762 123.687497 L 10.000000 123.687497 L 10.000000 226.180625 L 64.258758 226.180625 L 64.258758 192.357500 L 91.315945 192.357500 L 91.315945 220.123437 L 283.459383 220.123437 L 283.459383 123.090312 L 221.371570 123.090312" stroke="none" fill="white" stroke-width="1px"></path><path d="M 221.371570 10.000000 L 221.371570 56.150781 L 120.000633 56.150781 L 120.000633 43.353893 L 126.051258 43.353893 L 126.051258 15.742187 L 123.590320 15.742187 L 123.590320 12.460937 L 126.051258 12.460937 L 126.051258 10.767819 L 91.315945 10.767812 L 91.315945 21.648438 L 64.258762 21.648438 L 64.258762 10.597185 L 10.000000 10.597185 L 10.000000 113.090312 L 64.258758 113.090312 L 64.258758 79.267187 L 91.315945 79.267187 L 91.315945 107.033125 L 283.459383 107.033125 L 283.459383 10.000000 L 221.371570 10.000000" stroke="none" fill="white" stroke-width="1px"></path></g><g id="crv-nbhd"><path d="M 221.737654 10.000004 L 221.737654 27.605521 L 221.737654 45.211039 L 227.859018 49.163797 L 233.980382 53.116555 L 258.719883 51.864899 L 283.459383 50.613243 L 283.459383 30.306626 L 283.459382 10.000000 L 252.598518 10.000002 L 221.737654 10.000004" stroke="#DD2222" fill="none" stroke-width="1px"></path><path d="M 283.459383 107.033125 L 283.459383 78.823184 L 283.459383 50.613243 L 258.719883 51.864899 L 233.980382 53.116555 L 241.498423 80.074840 L 249.016465 107.033125 L 266.237924 107.033125 L 283.459383 107.033125" stroke="#DD2222" fill="none" stroke-width="1px"></path><path d="M 221.737654 45.211039 L 221.737654 62.181184 L 221.737654 79.151330 L 213.380717 79.151330 L 205.023780 79.151330 L 202.712211 93.092227 L 200.400642 107.033125 L 224.708553 107.033125 L 249.016465 107.033125 L 241.498423 80.074840 L 233.980382 53.116555 L 227.859018 49.163797 L 221.737654 45.211039" stroke="#DD2222" fill="none" stroke-width="1px"></path><path d="M 205.023780 79.151330 L 190.957950 79.151330 L 176.892120 79.151329 L 178.185301 93.092227 L 179.478482 107.033125 L 189.939562 107.033125 L 200.400642 107.033125 L 202.712211 93.092231 L 205.023780 79.151330" stroke="#DD2222" fill="none" stroke-width="1px"></path><path d="M 176.892120 79.151329 L 158.946314 79.151329 L 141.000509 79.151328 L 142.446580 93.092227 L 143.892651 107.033125 L 161.685566 107.033125 L 179.478482 107.033125 L 178.185301 93.092230 L 176.892120 79.151329" stroke="#DD2222" fill="none" stroke-width="1px"></path><path d="M 141.000509 79.151328 L 116.158227 79.151328 L 91.315945 79.151327 L 91.315945 93.092226 L 91.315945 107.033125 L 117.604298 107.033125 L 143.892651 107.033125 L 142.446580 93.092230 L 141.000509 79.151328" stroke="#DD2222" fill="none" stroke-width="1px"></path><path d="M 64.258758 113.090312 L 64.258758 84.620547 L 64.258758 56.150781 L 64.258758 54.578484 L 64.258758 53.006187 L 37.129382 54.118776 L 10.000000 55.231366 L 10.000000 84.160839 L 10.000000 113.090312 L 37.129379 113.090312 L 64.258758 113.090312" stroke="#DD2222" fill="none" stroke-width="1px"></path><path d="M 10.000000 10.597184 L 10.000000 32.914275 L 10.000000 55.231366 L 37.129379 54.118776 L 64.258758 53.006187 L 64.258758 31.801686 L 64.258758 10.597185 L 37.129385 10.597185 L 10.000000 10.597184" stroke="#DD2222" fill="none" stroke-width="1px"></path><path d="M 10.000000 123.687497 L 10.000000 149.883707 L 10.000000 176.079918 L 37.129379 173.355167 L 64.258758 170.630417 L 64.258758 169.935755 L 64.258758 169.241094 L 64.258758 146.464296 L 64.258758 123.687497 L 37.129398 123.687497 L 10.000000 123.687497" stroke="#DD2222" fill="none" stroke-width="1px"></path><path d="M 10.000000 176.079918 L 10.000000 201.130271 L 10.000000 226.180625 L 37.129379 226.180625 L 64.258758 226.180625 L 64.258758 198.405521 L 64.258758 170.630417 L 37.129385 173.355167 L 10.000000 176.079918" stroke="#DD2222" fill="none" stroke-width="1px"></path><path d="M 141.502722 192.043444 L 116.409334 192.043444 L 91.315945 192.043444 L 91.315945 206.083441 L 91.315945 220.123437 L 115.184414 220.123437 L 139.052883 220.123437 L 140.277802 206.083441 L 141.502722 192.043444" stroke="#DD2222" fill="none" stroke-width="1px"></path><path d="M 184.801037 192.043444 L 163.151879 192.043444 L 141.502722 192.043444 L 140.277802 206.083441 L 139.052883 220.123437 L 168.431639 220.123437 L 197.810394 220.123437 L 191.305717 206.083444 L 184.801037 192.043444" stroke="#DD2222" fill="none" stroke-width="1px"></path><path d="M 232.464255 192.043444 L 208.632646 192.043444 L 184.801037 192.043444 L 191.305716 206.083441 L 197.810394 220.123437 L 215.841487 220.123437 L 233.872580 220.123437 L 233.168417 206.083441 L 232.464255 192.043444" stroke="#DD2222" fill="none" stroke-width="1px"></path><path d="M 283.459383 220.123437 L 283.459383 191.306848 L 283.459383 162.490258 L 261.598517 166.686978 L 239.737652 170.883698 L 239.737652 181.463571 L 239.737652 192.043444 L 236.100953 192.043444 L 232.464255 192.043444 L 233.168417 206.083441 L 233.872580 220.123437 L 258.665981 220.123437 L 283.459383 220.123437" stroke="#DD2222" fill="none" stroke-width="1px"></path><path d="M 239.737652 123.090312 L 239.737652 146.987005 L 239.737652 170.883698 L 261.598517 166.686978 L 283.459383 162.490258 L 283.459383 142.790285 L 283.459383 123.090312 L 261.598517 123.090312 L 239.737652 123.090312" stroke="#DD2222" fill="none" stroke-width="1px"></path></g><g id="crv-amen"><path d="M 58.832882 138.705242 L 58.832882 132.030689 L 58.832882 125.356136 L 37.129379 125.356135 L 15.425876 125.356135 L 15.425876 132.030688 L 15.425876 138.705241 L 37.129379 138.705241 L 58.832882 138.705242" stroke="none" fill="#2288CC" stroke-width="1px"></path><path d="M 58.832882 186.268665 L 58.832882 179.560533 L 58.832882 172.852400 L 37.129379 175.032200 L 15.425876 177.212001 L 15.425876 183.920133 L 15.425876 190.628266 L 37.129379 188.448466 L 58.832882 186.268665" stroke="none" fill="#2288CC" stroke-width="1px"></path><path d="M 106.333689 194.851444 L 99.659137 194.851444 L 92.984584 194.851444 L 92.984584 206.083441 L 92.984584 217.315438 L 99.659137 217.315438 L 106.333689 217.315438 L 106.333689 206.083441 L 106.333689 194.851444" stroke="none" fill="#2288CC" stroke-width="1px"></path><path d="M 156.332529 194.851444 L 149.632622 194.851444 L 142.932715 194.851444 L 141.952779 206.083441 L 140.972843 217.315438 L 147.672750 217.315438 L 154.372658 217.315438 L 155.352593 206.083441 L 156.332529 194.851444" stroke="none" fill="#2288CC" stroke-width="1px"></path><path d="M 228.784694 207.017828 L 228.449939 200.343275 L 228.115183 193.668722 L 209.049896 193.668722 L 189.984608 193.668722 L 193.076904 200.343275 L 196.169200 207.017828 L 212.476947 207.017828 L 228.784694 207.017828" stroke="none" fill="#2288CC" stroke-width="1px"></path><path d="M 240.140747 191.379808 L 240.140747 192.989557 L 240.140747 194.599305 L 237.231388 194.599305 L 234.322030 194.599305 L 234.885360 205.831303 L 235.448690 217.063300 L 242.131632 217.063300 L 248.814575 217.063300 L 248.161243 204.036807 L 247.507912 191.010315 L 243.824329 191.195061 L 240.140747 191.379808" stroke="none" fill="#2288CC" stroke-width="1px"></path><path d="M 279.087210 138.108057 L 279.087210 131.433504 L 279.087210 124.758951 L 261.598517 124.758951 L 244.109825 124.758951 L 244.109825 131.433504 L 244.109825 138.108057 L 261.598517 138.108057 L 279.087210 138.108057" stroke="none" fill="#2288CC" stroke-width="1px"></path><path d="M 277.287210 25.017745 L 277.287210 18.343191 L 277.287209 11.668639 L 252.598518 11.668640 L 227.909827 11.668642 L 227.909827 18.343195 L 227.909827 25.017748 L 252.598518 25.017746 L 277.287210 25.017745" stroke="none" fill="#2288CC" stroke-width="1px"></path><path d="M 278.737483 65.861975 L 278.737483 59.178885 L 278.737483 52.495795 L 258.945883 53.497120 L 239.154282 54.498445 L 240.992111 61.088553 L 242.829939 67.678661 L 260.783711 66.770318 L 278.737483 65.861975" stroke="none" fill="#2288CC" stroke-width="1px"></path><path d="M 231.992513 101.595233 L 238.921754 101.595233 L 245.850995 101.595233 L 239.836562 80.028605 L 233.822130 58.461977 L 230.554034 56.351665 L 227.285938 54.241352 L 225.656942 54.695641 L 224.027947 55.149930 L 224.027947 64.092862 L 224.027947 73.035794 L 228.010230 87.315514 L 231.992513 101.595233" stroke="none" fill="#2288CC" stroke-width="1px"></path><path d="M 192.232974 81.939509 L 185.529766 81.939509 L 178.826558 81.939509 L 179.861103 93.092227 L 180.895648 104.244945 L 187.598856 104.244945 L 194.302064 104.244945 L 193.267519 93.092227 L 192.232974 81.939509" stroke="none" fill="#2288CC" stroke-width="1px"></path><path d="M 164.137628 104.244945 L 170.840836 104.244945 L 177.544044 104.244945 L 176.509499 93.092227 L 175.474954 81.939509 L 168.771746 81.939509 L 162.068538 81.939509 L 163.103083 93.092227 L 164.137628 104.244945" stroke="none" fill="#2288CC" stroke-width="1px"></path><path d="M 128.505116 104.244945 L 135.215481 104.244945 L 141.925845 104.244945 L 140.768989 93.092227 L 139.612132 81.939508 L 132.901767 81.939508 L 126.191402 81.939508 L 127.348259 93.092227 L 128.505116 104.244945" stroke="none" fill="#2288CC" stroke-width="1px"></path><path d="M 58.832882 68.259072 L 58.832882 62.836745 L 58.832882 57.414421 L 58.832882 56.156583 L 58.832882 54.898745 L 37.129379 55.788817 L 15.425876 56.678889 L 15.425876 63.359053 L 15.425876 70.039216 L 37.129379 69.149144 L 58.832882 68.259072" stroke="none" fill="#2288CC" stroke-width="1px"></path><path d="M 49.236562 49.347047 L 55.911115 49.073320 L 62.585668 48.799594 L 62.585668 31.835993 L 62.585668 14.872392 L 55.911115 14.872392 L 49.236562 14.872392 L 49.236562 32.109720 L 49.236562 49.347047" stroke="none" fill="#2288CC" stroke-width="1px"></path></g><g id="crv-desk"><path d="M 55.459383 165.514186 L 52.959383 165.514186 L 52.959383 171.514186 L 55.459383 171.514186 L 55.459383 165.514186" stroke="gray" fill="white" stroke-width="1px"></path><path d="M 55.459383 159.514186 L 52.959383 159.514186 L 52.959383 165.514186 L 55.459383 165.514186 L 55.459383 159.514186" stroke="gray" fill="white" stroke-width="1px"></path><path d="M 55.459383 153.514186 L 52.959383 153.514186 L 52.959383 159.514186 L 55.459383 159.514186 L 55.459383 153.514186" stroke="gray" fill="white" stroke-width="1px"></path><path d="M 55.459383 147.514186 L 52.959383 147.514186 L 52.959383 153.514186 L 55.459383 153.514186 L 55.459383 147.514186" stroke="gray" fill="white" stroke-width="1px"></path><path d="M 43.459383 166.719411 L 40.959383 166.719411 L 40.959383 172.719411 L 43.459383 172.719411 L 43.459383 166.719411" stroke="gray" fill="white" stroke-width="1px"></path><path d="M 43.459383 160.719411 L 40.959383 160.719411 L 40.959383 166.719411 L 43.459383 166.719411 L 43.459383 160.719411" stroke="gray" fill="white" stroke-width="1px"></path><path d="M 43.459383 154.719411 L 40.959383 154.719411 L 40.959383 160.719411 L 43.459383 160.719411 L 43.459383 154.719411" stroke="gray" fill="white" stroke-width="1px"></path><path d="M 43.459383 148.719411 L 40.959383 148.719411 L 40.959383 154.719411 L 43.459383 154.719411 L 43.459383 148.719411" stroke="gray" fill="white" stroke-width="1px"></path><path d="M 31.459383 167.924636 L 28.959383 167.924636 L 28.959383 173.924636 L 31.459383 173.924636 L 31.459383 167.924636" stroke="gray" fill="white" stroke-width="1px"></path><path d="M 31.459383 161.924636 L 28.959383 161.924636 L 28.959383 167.924636 L 31.459383 167.924636 L 31.459383 161.924636" stroke="gray" fill="white" stroke-width="1px"></path><path d="M 31.459383 155.924636 L 28.959383 155.924636 L 28.959383 161.924636 L 31.459383 161.924636 L 31.459383 155.924636" stroke="gray" fill="white" stroke-width="1px"></path><path d="M 31.459383 149.924636 L 28.959383 149.924636 L 28.959383 155.924636 L 31.459383 155.924636 L 31.459383 149.924636" stroke="gray" fill="white" stroke-width="1px"></path><path d="M 19.459383 169.129861 L 16.959383 169.129861 L 16.959383 175.129861 L 19.459383 175.129861 L 19.459383 169.129861" stroke="gray" fill="white" stroke-width="1px"></path><path d="M 19.459383 163.129861 L 16.959383 163.129861 L 16.959383 169.129861 L 19.459383 169.129861 L 19.459383 163.129861" stroke="gray" fill="white" stroke-width="1px"></path><path d="M 19.459383 157.129861 L 16.959383 157.129861 L 16.959383 163.129861 L 19.459383 163.129861 L 19.459383 157.129861" stroke="gray" fill="white" stroke-width="1px"></path><path d="M 19.459383 151.129861 L 16.959383 151.129861 L 16.959383 157.129861 L 19.459383 157.129861 L 19.459383 151.129861" stroke="gray" fill="white" stroke-width="1px"></path><path d="M 19.459383 145.129861 L 16.959383 145.129861 L 16.959383 151.129861 L 19.459383 151.129861 L 19.459383 145.129861" stroke="gray" fill="white" stroke-width="1px"></path><path d="M 127.459383 214.123437 L 124.959383 214.123437 L 124.959383 220.123437 L 127.459383 220.123437 L 127.459383 214.123437" stroke="gray" fill="white" stroke-width="1px"></path><path d="M 127.459383 208.123437 L 124.959383 208.123437 L 124.959383 214.123437 L 127.459383 214.123437 L 127.459383 208.123437" stroke="gray" fill="white" stroke-width="1px"></path><path d="M 127.459383 202.123437 L 124.959383 202.123437 L 124.959383 208.123437 L 127.459383 208.123437 L 127.459383 202.123437" stroke="gray" fill="white" stroke-width="1px"></path><path d="M 127.459383 196.123437 L 124.959383 196.123437 L 124.959383 202.123437 L 127.459383 202.123437 L 127.459383 196.123437" stroke="gray" fill="white" stroke-width="1px"></path><path d="M 115.459383 214.123437 L 112.959383 214.123437 L 112.959383 220.123437 L 115.459383 220.123437 L 115.459383 214.123437" stroke="gray" fill="white" stroke-width="1px"></path><path d="M 115.459383 208.123437 L 112.959383 208.123437 L 112.959383 214.123437 L 115.459383 214.123437 L 115.459383 208.123437" stroke="gray" fill="white" stroke-width="1px"></path><path d="M 115.459383 202.123437 L 112.959383 202.123437 L 112.959383 208.123437 L 115.459383 208.123437 L 115.459383 202.123437" stroke="gray" fill="white" stroke-width="1px"></path><path d="M 115.459383 196.123437 L 112.959383 196.123437 L 112.959383 202.123437 L 115.459383 202.123437 L 115.459383 196.123437" stroke="gray" fill="white" stroke-width="1px"></path><path d="M 187.459383 214.123437 L 184.959383 214.123437 L 184.959383 220.123437 L 187.459383 220.123437 L 187.459383 214.123437" stroke="gray" fill="white" stroke-width="1px"></path><path d="M 187.459383 208.123437 L 184.959383 208.123437 L 184.959383 214.123437 L 187.459383 214.123437 L 187.459383 208.123437" stroke="gray" fill="white" stroke-width="1px"></path><path d="M 175.459383 214.123437 L 172.959383 214.123437 L 172.959383 220.123437 L 175.459383 220.123437 L 175.459383 214.123437" stroke="gray" fill="white" stroke-width="1px"></path><path d="M 175.459383 208.123437 L 172.959383 208.123437 L 172.959383 214.123437 L 175.459383 214.123437 L 175.459383 208.123437" stroke="gray" fill="white" stroke-width="1px"></path><path d="M 175.459383 202.123437 L 172.959383 202.123437 L 172.959383 208.123437 L 175.459383 208.123437 L 175.459383 202.123437" stroke="gray" fill="white" stroke-width="1px"></path><path d="M 175.459383 196.123437 L 172.959383 196.123437 L 172.959383 202.123437 L 175.459383 202.123437 L 175.459383 196.123437" stroke="gray" fill="white" stroke-width="1px"></path><path d="M 163.459383 214.123437 L 160.959383 214.123437 L 160.959383 220.123437 L 163.459383 220.123437 L 163.459383 214.123437" stroke="gray" fill="white" stroke-width="1px"></path><path d="M 163.459383 208.123437 L 160.959383 208.123437 L 160.959383 214.123437 L 163.459383 214.123437 L 163.459383 208.123437" stroke="gray" fill="white" stroke-width="1px"></path><path d="M 163.459383 202.123437 L 160.959383 202.123437 L 160.959383 208.123437 L 163.459383 208.123437 L 163.459383 202.123437" stroke="gray" fill="white" stroke-width="1px"></path><path d="M 163.459383 196.123437 L 160.959383 196.123437 L 160.959383 202.123437 L 163.459383 202.123437 L 163.459383 196.123437" stroke="gray" fill="white" stroke-width="1px"></path><path d="M 223.459383 214.123437 L 220.959383 214.123437 L 220.959383 220.123437 L 223.459383 220.123437 L 223.459383 214.123437" stroke="gray" fill="white" stroke-width="1px"></path><path d="M 211.459383 214.123437 L 208.959383 214.123437 L 208.959383 220.123437 L 211.459383 220.123437 L 211.459383 214.123437" stroke="gray" fill="white" stroke-width="1px"></path><path d="M 55.459383 165.514186 L 57.959383 165.514186 L 57.959383 171.514186 L 55.459383 171.514186 L 55.459383 165.514186" stroke="gray" fill="white" stroke-width="1px"></path><path d="M 55.459383 159.514186 L 57.959383 159.514186 L 57.959383 165.514186 L 55.459383 165.514186 L 55.459383 159.514186" stroke="gray" fill="white" stroke-width="1px"></path><path d="M 55.459383 153.514186 L 57.959383 153.514186 L 57.959383 159.514186 L 55.459383 159.514186 L 55.459383 153.514186" stroke="gray" fill="white" stroke-width="1px"></path><path d="M 55.459383 147.514186 L 57.959383 147.514186 L 57.959383 153.514186 L 55.459383 153.514186 L 55.459383 147.514186" stroke="gray" fill="white" stroke-width="1px"></path><path d="M 43.459383 166.719411 L 45.959383 166.719411 L 45.959383 172.719411 L 43.459383 172.719411 L 43.459383 166.719411" stroke="gray" fill="white" stroke-width="1px"></path><path d="M 43.459383 160.719411 L 45.959383 160.719411 L 45.959383 166.719411 L 43.459383 166.719411 L 43.459383 160.719411" stroke="gray" fill="white" stroke-width="1px"></path><path d="M 43.459383 154.719411 L 45.959383 154.719411 L 45.959383 160.719411 L 43.459383 160.719411 L 43.459383 154.719411" stroke="gray" fill="white" stroke-width="1px"></path><path d="M 43.459383 148.719411 L 45.959383 148.719411 L 45.959383 154.719411 L 43.459383 154.719411 L 43.459383 148.719411" stroke="gray" fill="white" stroke-width="1px"></path><path d="M 31.459383 167.924636 L 33.959383 167.924636 L 33.959383 173.924636 L 31.459383 173.924636 L 31.459383 167.924636" stroke="gray" fill="white" stroke-width="1px"></path><path d="M 31.459383 161.924636 L 33.959383 161.924636 L 33.959383 167.924636 L 31.459383 167.924636 L 31.459383 161.924636" stroke="gray" fill="white" stroke-width="1px"></path><path d="M 31.459383 155.924636 L 33.959383 155.924636 L 33.959383 161.924636 L 31.459383 161.924636 L 31.459383 155.924636" stroke="gray" fill="white" stroke-width="1px"></path><path d="M 31.459383 149.924636 L 33.959383 149.924636 L 33.959383 155.924636 L 31.459383 155.924636 L 31.459383 149.924636" stroke="gray" fill="white" stroke-width="1px"></path><path d="M 19.459383 169.129861 L 21.959383 169.129861 L 21.959383 175.129861 L 19.459383 175.129861 L 19.459383 169.129861" stroke="gray" fill="white" stroke-width="1px"></path><path d="M 19.459383 163.129861 L 21.959383 163.129861 L 21.959383 169.129861 L 19.459383 169.129861 L 19.459383 163.129861" stroke="gray" fill="white" stroke-width="1px"></path><path d="M 19.459383 157.129861 L 21.959383 157.129861 L 21.959383 163.129861 L 19.459383 163.129861 L 19.459383 157.129861" stroke="gray" fill="white" stroke-width="1px"></path><path d="M 19.459383 151.129861 L 21.959383 151.129861 L 21.959383 157.129861 L 19.459383 157.129861 L 19.459383 151.129861" stroke="gray" fill="white" stroke-width="1px"></path><path d="M 19.459383 145.129861 L 21.959383 145.129861 L 21.959383 151.129861 L 19.459383 151.129861 L 19.459383 145.129861" stroke="gray" fill="white" stroke-width="1px"></path><path d="M 127.459383 214.123437 L 129.959383 214.123437 L 129.959383 220.123437 L 127.459383 220.123437 L 127.459383 214.123437" stroke="gray" fill="white" stroke-width="1px"></path><path d="M 127.459383 208.123437 L 129.959383 208.123437 L 129.959383 214.123437 L 127.459383 214.123437 L 127.459383 208.123437" stroke="gray" fill="white" stroke-width="1px"></path><path d="M 127.459383 202.123437 L 129.959383 202.123437 L 129.959383 208.123437 L 127.459383 208.123437 L 127.459383 202.123437" stroke="gray" fill="white" stroke-width="1px"></path><path d="M 127.459383 196.123437 L 129.959383 196.123437 L 129.959383 202.123437 L 127.459383 202.123437 L 127.459383 196.123437" stroke="gray" fill="white" stroke-width="1px"></path><path d="M 115.459383 214.123437 L 117.959383 214.123437 L 117.959383 220.123437 L 115.459383 220.123437 L 115.459383 214.123437" stroke="gray" fill="white" stroke-width="1px"></path><path d="M 115.459383 208.123437 L 117.959383 208.123437 L 117.959383 214.123437 L 115.459383 214.123437 L 115.459383 208.123437" stroke="gray" fill="white" stroke-width="1px"></path><path d="M 115.459383 202.123437 L 117.959383 202.123437 L 117.959383 208.123437 L 115.459383 208.123437 L 115.459383 202.123437" stroke="gray" fill="white" stroke-width="1px"></path><path d="M 115.459383 196.123437 L 117.959383 196.123437 L 117.959383 202.123437 L 115.459383 202.123437 L 115.459383 196.123437" stroke="gray" fill="white" stroke-width="1px"></path><path d="M 187.459383 214.123437 L 189.959383 214.123437 L 189.959383 220.123437 L 187.459383 220.123437 L 187.459383 214.123437" stroke="gray" fill="white" stroke-width="1px"></path><path d="M 187.459383 208.123437 L 189.959383 208.123437 L 189.959383 214.123437 L 187.459383 214.123437 L 187.459383 208.123437" stroke="gray" fill="white" stroke-width="1px"></path><path d="M 175.459383 214.123437 L 177.959383 214.123437 L 177.959383 220.123437 L 175.459383 220.123437 L 175.459383 214.123437" stroke="gray" fill="white" stroke-width="1px"></path><path d="M 175.459383 208.123437 L 177.959383 208.123437 L 177.959383 214.123437 L 175.459383 214.123437 L 175.459383 208.123437" stroke="gray" fill="white" stroke-width="1px"></path><path d="M 175.459383 202.123437 L 177.959383 202.123437 L 177.959383 208.123437 L 175.459383 208.123437 L 175.459383 202.123437" stroke="gray" fill="white" stroke-width="1px"></path><path d="M 175.459383 196.123437 L 177.959383 196.123437 L 177.959383 202.123437 L 175.459383 202.123437 L 175.459383 196.123437" stroke="gray" fill="white" stroke-width="1px"></path><path d="M 163.459383 214.123437 L 165.959383 214.123437 L 165.959383 220.123437 L 163.459383 220.123437 L 163.459383 214.123437" stroke="gray" fill="white" stroke-width="1px"></path><path d="M 163.459383 208.123437 L 165.959383 208.123437 L 165.959383 214.123437 L 163.459383 214.123437 L 163.459383 208.123437" stroke="gray" fill="white" stroke-width="1px"></path><path d="M 163.459383 202.123437 L 165.959383 202.123437 L 165.959383 208.123437 L 163.459383 208.123437 L 163.459383 202.123437" stroke="gray" fill="white" stroke-width="1px"></path><path d="M 163.459383 196.123437 L 165.959383 196.123437 L 165.959383 202.123437 L 163.459383 202.123437 L 163.459383 196.123437" stroke="gray" fill="white" stroke-width="1px"></path><path d="M 223.459383 214.123437 L 225.959383 214.123437 L 225.959383 220.123437 L 223.459383 220.123437 L 223.459383 214.123437" stroke="gray" fill="white" stroke-width="1px"></path><path d="M 211.459383 214.123437 L 213.959383 214.123437 L 213.959383 220.123437 L 211.459383 220.123437 L 211.459383 214.123437" stroke="gray" fill="white" stroke-width="1px"></path><path d="M 199.459383 214.123437 L 201.959383 214.123437 L 201.959383 220.123437 L 199.459383 220.123437 L 199.459383 214.123437" stroke="gray" fill="white" stroke-width="1px"></path><path d="M 22.000000 220.123437 L 22.000000 217.623437 L 16.000000 217.623437 L 16.000000 220.123437 L 22.000000 220.123437" stroke="gray" fill="white" stroke-width="1px"></path><path d="M 28.000000 220.123437 L 28.000000 217.623437 L 22.000000 217.623437 L 22.000000 220.123437 L 28.000000 220.123437" stroke="gray" fill="white" stroke-width="1px"></path><path d="M 34.000000 220.123437 L 34.000000 217.623437 L 28.000000 217.623437 L 28.000000 220.123437 L 34.000000 220.123437" stroke="gray" fill="white" stroke-width="1px"></path><path d="M 40.000000 220.123437 L 40.000000 217.623437 L 34.000000 217.623437 L 34.000000 220.123437 L 40.000000 220.123437" stroke="gray" fill="white" stroke-width="1px"></path><path d="M 46.000000 220.123437 L 46.000000 217.623437 L 40.000000 217.623437 L 40.000000 220.123437 L 46.000000 220.123437" stroke="gray" fill="white" stroke-width="1px"></path><path d="M 52.000000 220.123437 L 52.000000 217.623437 L 46.000000 217.623437 L 46.000000 220.123437 L 52.000000 220.123437" stroke="gray" fill="white" stroke-width="1px"></path><path d="M 58.000000 220.123437 L 58.000000 217.623437 L 52.000000 217.623437 L 52.000000 220.123437 L 58.000000 220.123437" stroke="gray" fill="white" stroke-width="1px"></path><path d="M 22.000000 208.123437 L 22.000000 205.623437 L 16.000000 205.623437 L 16.000000 208.123437 L 22.000000 208.123437" stroke="gray" fill="white" stroke-width="1px"></path><path d="M 28.000000 208.123437 L 28.000000 205.623437 L 22.000000 205.623437 L 22.000000 208.123437 L 28.000000 208.123437" stroke="gray" fill="white" stroke-width="1px"></path><path d="M 34.000000 208.123437 L 34.000000 205.623437 L 28.000000 205.623437 L 28.000000 208.123437 L 34.000000 208.123437" stroke="gray" fill="white" stroke-width="1px"></path><path d="M 40.000000 208.123437 L 40.000000 205.623437 L 34.000000 205.623437 L 34.000000 208.123437 L 40.000000 208.123437" stroke="gray" fill="white" stroke-width="1px"></path><path d="M 46.000000 208.123437 L 46.000000 205.623437 L 40.000000 205.623437 L 40.000000 208.123437 L 46.000000 208.123437" stroke="gray" fill="white" stroke-width="1px"></path><path d="M 52.000000 208.123437 L 52.000000 205.623437 L 46.000000 205.623437 L 46.000000 208.123437 L 52.000000 208.123437" stroke="gray" fill="white" stroke-width="1px"></path><path d="M 58.000000 208.123437 L 58.000000 205.623437 L 52.000000 205.623437 L 52.000000 208.123437 L 58.000000 208.123437" stroke="gray" fill="white" stroke-width="1px"></path><path d="M 22.000000 196.123437 L 22.000000 193.623437 L 16.000000 193.623437 L 16.000000 196.123437 L 22.000000 196.123437" stroke="gray" fill="white" stroke-width="1px"></path><path d="M 28.000000 196.123437 L 28.000000 193.623437 L 22.000000 193.623437 L 22.000000 196.123437 L 28.000000 196.123437" stroke="gray" fill="white" stroke-width="1px"></path><path d="M 34.000000 196.123437 L 34.000000 193.623437 L 28.000000 193.623437 L 28.000000 196.123437 L 34.000000 196.123437" stroke="gray" fill="white" stroke-width="1px"></path><path d="M 40.000000 196.123437 L 40.000000 193.623437 L 34.000000 193.623437 L 34.000000 196.123437 L 40.000000 196.123437" stroke="gray" fill="white" stroke-width="1px"></path><path d="M 46.000000 196.123437 L 46.000000 193.623437 L 40.000000 193.623437 L 40.000000 196.123437 L 46.000000 196.123437" stroke="gray" fill="white" stroke-width="1px"></path><path d="M 52.000000 196.123437 L 52.000000 193.623437 L 46.000000 193.623437 L 46.000000 196.123437 L 52.000000 196.123437" stroke="gray" fill="white" stroke-width="1px"></path><path d="M 58.000000 196.123437 L 58.000000 193.623437 L 52.000000 193.623437 L 52.000000 196.123437 L 58.000000 196.123437" stroke="gray" fill="white" stroke-width="1px"></path><path d="M 254.366204 208.123437 L 254.366204 205.623437 L 248.366204 205.623437 L 248.366204 208.123437 L 254.366204 208.123437" stroke="gray" fill="white" stroke-width="1px"></path><path d="M 260.366204 208.123437 L 260.366204 205.623437 L 254.366204 205.623437 L 254.366204 208.123437 L 260.366204 208.123437" stroke="gray" fill="white" stroke-width="1px"></path><path d="M 266.366204 208.123437 L 266.366204 205.623437 L 260.366204 205.623437 L 260.366204 208.123437 L 266.366204 208.123437" stroke="gray" fill="white" stroke-width="1px"></path><path d="M 272.366204 208.123437 L 272.366204 205.623437 L 266.366204 205.623437 L 266.366204 208.123437 L 272.366204 208.123437" stroke="gray" fill="white" stroke-width="1px"></path><path d="M 278.366204 208.123437 L 278.366204 205.623437 L 272.366204 205.623437 L 272.366204 208.123437 L 278.366204 208.123437" stroke="gray" fill="white" stroke-width="1px"></path><path d="M 253.764356 196.123437 L 253.764356 193.623437 L 247.764356 193.623437 L 247.764356 196.123437 L 253.764356 196.123437" stroke="gray" fill="white" stroke-width="1px"></path><path d="M 259.764356 196.123437 L 259.764356 193.623437 L 253.764356 193.623437 L 253.764356 196.123437 L 259.764356 196.123437" stroke="gray" fill="white" stroke-width="1px"></path><path d="M 265.764356 196.123437 L 265.764356 193.623437 L 259.764356 193.623437 L 259.764356 196.123437 L 265.764356 196.123437" stroke="gray" fill="white" stroke-width="1px"></path><path d="M 271.764356 196.123437 L 271.764356 193.623437 L 265.764356 193.623437 L 265.764356 196.123437 L 271.764356 196.123437" stroke="gray" fill="white" stroke-width="1px"></path><path d="M 277.764356 196.123437 L 277.764356 193.623437 L 271.764356 193.623437 L 271.764356 196.123437 L 277.764356 196.123437" stroke="gray" fill="white" stroke-width="1px"></path><path d="M 251.737652 184.123437 L 251.737652 181.623437 L 245.737652 181.623437 L 245.737652 184.123437 L 251.737652 184.123437" stroke="gray" fill="white" stroke-width="1px"></path><path d="M 257.737652 184.123437 L 257.737652 181.623437 L 251.737652 181.623437 L 251.737652 184.123437 L 257.737652 184.123437" stroke="gray" fill="white" stroke-width="1px"></path><path d="M 263.737652 184.123437 L 263.737652 181.623437 L 257.737652 181.623437 L 257.737652 184.123437 L 263.737652 184.123437" stroke="gray" fill="white" stroke-width="1px"></path><path d="M 269.737652 184.123437 L 269.737652 181.623437 L 263.737652 181.623437 L 263.737652 184.123437 L 269.737652 184.123437" stroke="gray" fill="white" stroke-width="1px"></path><path d="M 275.737652 184.123437 L 275.737652 181.623437 L 269.737652 181.623437 L 269.737652 184.123437 L 275.737652 184.123437" stroke="gray" fill="white" stroke-width="1px"></path><path d="M 269.737652 172.123437 L 269.737652 169.623437 L 263.737652 169.623437 L 263.737652 172.123437 L 269.737652 172.123437" stroke="gray" fill="white" stroke-width="1px"></path><path d="M 275.737652 172.123437 L 275.737652 169.623437 L 269.737652 169.623437 L 269.737652 172.123437 L 275.737652 172.123437" stroke="gray" fill="white" stroke-width="1px"></path><path d="M 251.737652 160.123437 L 251.737652 157.623437 L 245.737652 157.623437 L 245.737652 160.123437 L 251.737652 160.123437" stroke="gray" fill="white" stroke-width="1px"></path><path d="M 257.737652 160.123437 L 257.737652 157.623437 L 251.737652 157.623437 L 251.737652 160.123437 L 257.737652 160.123437" stroke="gray" fill="white" stroke-width="1px"></path><path d="M 263.737652 160.123437 L 263.737652 157.623437 L 257.737652 157.623437 L 257.737652 160.123437 L 263.737652 160.123437" stroke="gray" fill="white" stroke-width="1px"></path><path d="M 269.737652 160.123437 L 269.737652 157.623437 L 263.737652 157.623437 L 263.737652 160.123437 L 269.737652 160.123437" stroke="gray" fill="white" stroke-width="1px"></path><path d="M 251.737652 148.123437 L 251.737652 145.623437 L 245.737652 145.623437 L 245.737652 148.123437 L 251.737652 148.123437" stroke="gray" fill="white" stroke-width="1px"></path><path d="M 257.737652 148.123437 L 257.737652 145.623437 L 251.737652 145.623437 L 251.737652 148.123437 L 257.737652 148.123437" stroke="gray" fill="white" stroke-width="1px"></path><path d="M 263.737652 148.123437 L 263.737652 145.623437 L 257.737652 145.623437 L 257.737652 148.123437 L 263.737652 148.123437" stroke="gray" fill="white" stroke-width="1px"></path><path d="M 269.737652 148.123437 L 269.737652 145.623437 L 263.737652 145.623437 L 263.737652 148.123437 L 269.737652 148.123437" stroke="gray" fill="white" stroke-width="1px"></path><path d="M 275.737652 148.123437 L 275.737652 145.623437 L 269.737652 145.623437 L 269.737652 148.123437 L 275.737652 148.123437" stroke="gray" fill="white" stroke-width="1px"></path><path d="M 22.000000 220.123437 L 22.000000 222.623437 L 16.000000 222.623437 L 16.000000 220.123437 L 22.000000 220.123437" stroke="gray" fill="white" stroke-width="1px"></path><path d="M 28.000000 220.123437 L 28.000000 222.623437 L 22.000000 222.623437 L 22.000000 220.123437 L 28.000000 220.123437" stroke="gray" fill="white" stroke-width="1px"></path><path d="M 34.000000 220.123437 L 34.000000 222.623437 L 28.000000 222.623437 L 28.000000 220.123437 L 34.000000 220.123437" stroke="gray" fill="white" stroke-width="1px"></path><path d="M 40.000000 220.123437 L 40.000000 222.623437 L 34.000000 222.623437 L 34.000000 220.123437 L 40.000000 220.123437" stroke="gray" fill="white" stroke-width="1px"></path><path d="M 46.000000 220.123437 L 46.000000 222.623437 L 40.000000 222.623437 L 40.000000 220.123437 L 46.000000 220.123437" stroke="gray" fill="white" stroke-width="1px"></path><path d="M 52.000000 220.123437 L 52.000000 222.623437 L 46.000000 222.623437 L 46.000000 220.123437 L 52.000000 220.123437" stroke="gray" fill="white" stroke-width="1px"></path><path d="M 58.000000 220.123437 L 58.000000 222.623437 L 52.000000 222.623437 L 52.000000 220.123437 L 58.000000 220.123437" stroke="gray" fill="white" stroke-width="1px"></path><path d="M 22.000000 208.123437 L 22.000000 210.623437 L 16.000000 210.623437 L 16.000000 208.123437 L 22.000000 208.123437" stroke="gray" fill="white" stroke-width="1px"></path><path d="M 28.000000 208.123437 L 28.000000 210.623437 L 22.000000 210.623437 L 22.000000 208.123437 L 28.000000 208.123437" stroke="gray" fill="white" stroke-width="1px"></path><path d="M 34.000000 208.123437 L 34.000000 210.623437 L 28.000000 210.623437 L 28.000000 208.123437 L 34.000000 208.123437" stroke="gray" fill="white" stroke-width="1px"></path><path d="M 40.000000 208.123437 L 40.000000 210.623437 L 34.000000 210.623437 L 34.000000 208.123437 L 40.000000 208.123437" stroke="gray" fill="white" stroke-width="1px"></path><path d="M 46.000000 208.123437 L 46.000000 210.623437 L 40.000000 210.623437 L 40.000000 208.123437 L 46.000000 208.123437" stroke="gray" fill="white" stroke-width="1px"></path><path d="M 52.000000 208.123437 L 52.000000 210.623437 L 46.000000 210.623437 L 46.000000 208.123437 L 52.000000 208.123437" stroke="gray" fill="white" stroke-width="1px"></path><path d="M 58.000000 208.123437 L 58.000000 210.623437 L 52.000000 210.623437 L 52.000000 208.123437 L 58.000000 208.123437" stroke="gray" fill="white" stroke-width="1px"></path><path d="M 22.000000 196.123437 L 22.000000 198.623437 L 16.000000 198.623437 L 16.000000 196.123437 L 22.000000 196.123437" stroke="gray" fill="white" stroke-width="1px"></path><path d="M 28.000000 196.123437 L 28.000000 198.623437 L 22.000000 198.623437 L 22.000000 196.123437 L 28.000000 196.123437" stroke="gray" fill="white" stroke-width="1px"></path><path d="M 34.000000 196.123437 L 34.000000 198.623437 L 28.000000 198.623437 L 28.000000 196.123437 L 34.000000 196.123437" stroke="gray" fill="white" stroke-width="1px"></path><path d="M 40.000000 196.123437 L 40.000000 198.623437 L 34.000000 198.623437 L 34.000000 196.123437 L 40.000000 196.123437" stroke="gray" fill="white" stroke-width="1px"></path><path d="M 46.000000 196.123437 L 46.000000 198.623437 L 40.000000 198.623437 L 40.000000 196.123437 L 46.000000 196.123437" stroke="gray" fill="white" stroke-width="1px"></path><path d="M 52.000000 196.123437 L 52.000000 198.623437 L 46.000000 198.623437 L 46.000000 196.123437 L 52.000000 196.123437" stroke="gray" fill="white" stroke-width="1px"></path><path d="M 58.000000 196.123437 L 58.000000 198.623437 L 52.000000 198.623437 L 52.000000 196.123437 L 58.000000 196.123437" stroke="gray" fill="white" stroke-width="1px"></path><path d="M 254.366204 208.123437 L 254.366204 210.623437 L 248.366204 210.623437 L 248.366204 208.123437 L 254.366204 208.123437" stroke="gray" fill="white" stroke-width="1px"></path><path d="M 260.366204 208.123437 L 260.366204 210.623437 L 254.366204 210.623437 L 254.366204 208.123437 L 260.366204 208.123437" stroke="gray" fill="white" stroke-width="1px"></path><path d="M 266.366204 208.123437 L 266.366204 210.623437 L 260.366204 210.623437 L 260.366204 208.123437 L 266.366204 208.123437" stroke="gray" fill="white" stroke-width="1px"></path><path d="M 272.366204 208.123437 L 272.366204 210.623437 L 266.366204 210.623437 L 266.366204 208.123437 L 272.366204 208.123437" stroke="gray" fill="white" stroke-width="1px"></path><path d="M 278.366204 208.123437 L 278.366204 210.623437 L 272.366204 210.623437 L 272.366204 208.123437 L 278.366204 208.123437" stroke="gray" fill="white" stroke-width="1px"></path><path d="M 253.764356 196.123437 L 253.764356 198.623437 L 247.764356 198.623437 L 247.764356 196.123437 L 253.764356 196.123437" stroke="gray" fill="white" stroke-width="1px"></path><path d="M 259.764356 196.123437 L 259.764356 198.623437 L 253.764356 198.623437 L 253.764356 196.123437 L 259.764356 196.123437" stroke="gray" fill="white" stroke-width="1px"></path><path d="M 265.764356 196.123437 L 265.764356 198.623437 L 259.764356 198.623437 L 259.764356 196.123437 L 265.764356 196.123437" stroke="gray" fill="white" stroke-width="1px"></path><path d="M 271.764356 196.123437 L 271.764356 198.623437 L 265.764356 198.623437 L 265.764356 196.123437 L 271.764356 196.123437" stroke="gray" fill="white" stroke-width="1px"></path><path d="M 277.764356 196.123437 L 277.764356 198.623437 L 271.764356 198.623437 L 271.764356 196.123437 L 277.764356 196.123437" stroke="gray" fill="white" stroke-width="1px"></path><path d="M 251.737652 184.123437 L 251.737652 186.623437 L 245.737652 186.623437 L 245.737652 184.123437 L 251.737652 184.123437" stroke="gray" fill="white" stroke-width="1px"></path><path d="M 257.737652 184.123437 L 257.737652 186.623437 L 251.737652 186.623437 L 251.737652 184.123437 L 257.737652 184.123437" stroke="gray" fill="white" stroke-width="1px"></path><path d="M 263.737652 184.123437 L 263.737652 186.623437 L 257.737652 186.623437 L 257.737652 184.123437 L 263.737652 184.123437" stroke="gray" fill="white" stroke-width="1px"></path><path d="M 269.737652 184.123437 L 269.737652 186.623437 L 263.737652 186.623437 L 263.737652 184.123437 L 269.737652 184.123437" stroke="gray" fill="white" stroke-width="1px"></path><path d="M 275.737652 184.123437 L 275.737652 186.623437 L 269.737652 186.623437 L 269.737652 184.123437 L 275.737652 184.123437" stroke="gray" fill="white" stroke-width="1px"></path><path d="M 257.737652 172.123437 L 257.737652 174.623437 L 251.737652 174.623437 L 251.737652 172.123437 L 257.737652 172.123437" stroke="gray" fill="white" stroke-width="1px"></path><path d="M 263.737652 172.123437 L 263.737652 174.623437 L 257.737652 174.623437 L 257.737652 172.123437 L 263.737652 172.123437" stroke="gray" fill="white" stroke-width="1px"></path><path d="M 269.737652 172.123437 L 269.737652 174.623437 L 263.737652 174.623437 L 263.737652 172.123437 L 269.737652 172.123437" stroke="gray" fill="white" stroke-width="1px"></path><path d="M 275.737652 172.123437 L 275.737652 174.623437 L 269.737652 174.623437 L 269.737652 172.123437 L 275.737652 172.123437" stroke="gray" fill="white" stroke-width="1px"></path><path d="M 251.737652 160.123437 L 251.737652 162.623437 L 245.737652 162.623437 L 245.737652 160.123437 L 251.737652 160.123437" stroke="gray" fill="white" stroke-width="1px"></path><path d="M 257.737652 160.123437 L 257.737652 162.623437 L 251.737652 162.623437 L 251.737652 160.123437 L 257.737652 160.123437" stroke="gray" fill="white" stroke-width="1px"></path><path d="M 263.737652 160.123437 L 263.737652 162.623437 L 257.737652 162.623437 L 257.737652 160.123437 L 263.737652 160.123437" stroke="gray" fill="white" stroke-width="1px"></path><path d="M 269.737652 160.123437 L 269.737652 162.623437 L 263.737652 162.623437 L 263.737652 160.123437 L 269.737652 160.123437" stroke="gray" fill="white" stroke-width="1px"></path><path d="M 251.737652 148.123437 L 251.737652 150.623437 L 245.737652 150.623437 L 245.737652 148.123437 L 251.737652 148.123437" stroke="gray" fill="white" stroke-width="1px"></path><path d="M 257.737652 148.123437 L 257.737652 150.623437 L 251.737652 150.623437 L 251.737652 148.123437 L 257.737652 148.123437" stroke="gray" fill="white" stroke-width="1px"></path><path d="M 263.737652 148.123437 L 263.737652 150.623437 L 257.737652 150.623437 L 257.737652 148.123437 L 263.737652 148.123437" stroke="gray" fill="white" stroke-width="1px"></path><path d="M 269.737652 148.123437 L 269.737652 150.623437 L 263.737652 150.623437 L 263.737652 148.123437 L 269.737652 148.123437" stroke="gray" fill="white" stroke-width="1px"></path><path d="M 275.737652 148.123437 L 275.737652 150.623437 L 269.737652 150.623437 L 269.737652 148.123437 L 275.737652 148.123437" stroke="gray" fill="white" stroke-width="1px"></path><path d="M 271.459383 45.220364 L 268.959383 45.220364 L 268.959383 51.220364 L 271.459383 51.220364 L 271.459383 45.220364" stroke="gray" fill="white" stroke-width="1px"></path><path d="M 271.459383 39.220364 L 268.959383 39.220364 L 268.959383 45.220364 L 271.459383 45.220364 L 271.459383 39.220364" stroke="gray" fill="white" stroke-width="1px"></path><path d="M 271.459383 33.220364 L 268.959383 33.220364 L 268.959383 39.220364 L 271.459383 39.220364 L 271.459383 33.220364" stroke="gray" fill="white" stroke-width="1px"></path><path d="M 259.459383 45.827485 L 256.959383 45.827485 L 256.959383 51.827485 L 259.459383 51.827485 L 259.459383 45.827485" stroke="gray" fill="white" stroke-width="1px"></path><path d="M 259.459383 39.827485 L 256.959383 39.827485 L 256.959383 45.827485 L 259.459383 45.827485 L 259.459383 39.827485" stroke="gray" fill="white" stroke-width="1px"></path><path d="M 259.459383 33.827485 L 256.959383 33.827485 L 256.959383 39.827485 L 259.459383 39.827485 L 259.459383 33.827485" stroke="gray" fill="white" stroke-width="1px"></path><path d="M 247.459383 46.434606 L 244.959383 46.434606 L 244.959383 52.434606 L 247.459383 52.434606 L 247.459383 46.434606" stroke="gray" fill="white" stroke-width="1px"></path><path d="M 247.459383 40.434606 L 244.959383 40.434606 L 244.959383 46.434606 L 247.459383 46.434606 L 247.459383 40.434606" stroke="gray" fill="white" stroke-width="1px"></path><path d="M 247.459383 34.434606 L 244.959383 34.434606 L 244.959383 40.434606 L 247.459383 40.434606 L 247.459383 34.434606" stroke="gray" fill="white" stroke-width="1px"></path><path d="M 235.459383 47.041727 L 232.959383 47.041727 L 232.959383 53.041727 L 235.459383 53.041727 L 235.459383 47.041727" stroke="gray" fill="white" stroke-width="1px"></path><path d="M 235.459383 41.041727 L 232.959383 41.041727 L 232.959383 47.041727 L 235.459383 47.041727 L 235.459383 41.041727" stroke="gray" fill="white" stroke-width="1px"></path><path d="M 235.459383 35.041727 L 232.959383 35.041727 L 232.959383 41.041727 L 235.459383 41.041727 L 235.459383 35.041727" stroke="gray" fill="white" stroke-width="1px"></path><path d="M 199.459383 89.033125 L 196.959383 89.033125 L 196.959383 95.033125 L 199.459383 95.033125 L 199.459383 89.033125" stroke="gray" fill="white" stroke-width="1px"></path><path d="M 199.459383 83.033125 L 196.959383 83.033125 L 196.959383 89.033125 L 199.459383 89.033125 L 199.459383 83.033125" stroke="gray" fill="white" stroke-width="1px"></path><path d="M 151.459383 101.033125 L 148.959383 101.033125 L 148.959383 107.033125 L 151.459383 107.033125 L 151.459383 101.033125" stroke="gray" fill="white" stroke-width="1px"></path><path d="M 151.459383 95.033125 L 148.959383 95.033125 L 148.959383 101.033125 L 151.459383 101.033125 L 151.459383 95.033125" stroke="gray" fill="white" stroke-width="1px"></path><path d="M 151.459383 89.033125 L 148.959383 89.033125 L 148.959383 95.033125 L 151.459383 95.033125 L 151.459383 89.033125" stroke="gray" fill="white" stroke-width="1px"></path><path d="M 151.459383 83.033125 L 148.959383 83.033125 L 148.959383 89.033125 L 151.459383 89.033125 L 151.459383 83.033125" stroke="gray" fill="white" stroke-width="1px"></path><path d="M 115.459383 101.033125 L 112.959383 101.033125 L 112.959383 107.033125 L 115.459383 107.033125 L 115.459383 101.033125" stroke="gray" fill="white" stroke-width="1px"></path><path d="M 115.459383 95.033125 L 112.959383 95.033125 L 112.959383 101.033125 L 115.459383 101.033125 L 115.459383 95.033125" stroke="gray" fill="white" stroke-width="1px"></path><path d="M 115.459383 89.033125 L 112.959383 89.033125 L 112.959383 95.033125 L 115.459383 95.033125 L 115.459383 89.033125" stroke="gray" fill="white" stroke-width="1px"></path><path d="M 115.459383 83.033125 L 112.959383 83.033125 L 112.959383 89.033125 L 115.459383 89.033125 L 115.459383 83.033125" stroke="gray" fill="white" stroke-width="1px"></path><path d="M 103.459383 101.033125 L 100.959383 101.033125 L 100.959383 107.033125 L 103.459383 107.033125 L 103.459383 101.033125" stroke="gray" fill="white" stroke-width="1px"></path><path d="M 103.459383 95.033125 L 100.959383 95.033125 L 100.959383 101.033125 L 103.459383 101.033125 L 103.459383 95.033125" stroke="gray" fill="white" stroke-width="1px"></path><path d="M 103.459383 89.033125 L 100.959383 89.033125 L 100.959383 95.033125 L 103.459383 95.033125 L 103.459383 89.033125" stroke="gray" fill="white" stroke-width="1px"></path><path d="M 103.459383 83.033125 L 100.959383 83.033125 L 100.959383 89.033125 L 103.459383 89.033125 L 103.459383 83.033125" stroke="gray" fill="white" stroke-width="1px"></path><path d="M 31.459383 48.351306 L 28.959383 48.351306 L 28.959383 54.351306 L 31.459383 54.351306 L 31.459383 48.351306" stroke="gray" fill="white" stroke-width="1px"></path><path d="M 31.459383 42.351306 L 28.959383 42.351306 L 28.959383 48.351306 L 31.459383 48.351306 L 31.459383 42.351306" stroke="gray" fill="white" stroke-width="1px"></path><path d="M 31.459383 36.351306 L 28.959383 36.351306 L 28.959383 42.351306 L 31.459383 42.351306 L 31.459383 36.351306" stroke="gray" fill="white" stroke-width="1px"></path><path d="M 31.459383 30.351306 L 28.959383 30.351306 L 28.959383 36.351306 L 31.459383 36.351306 L 31.459383 30.351306" stroke="gray" fill="white" stroke-width="1px"></path><path d="M 31.459383 24.351306 L 28.959383 24.351306 L 28.959383 30.351306 L 31.459383 30.351306 L 31.459383 24.351306" stroke="gray" fill="white" stroke-width="1px"></path><path d="M 31.459383 18.351306 L 28.959383 18.351306 L 28.959383 24.351306 L 31.459383 24.351306 L 31.459383 18.351306" stroke="gray" fill="white" stroke-width="1px"></path><path d="M 19.459383 48.843432 L 16.959383 48.843432 L 16.959383 54.843432 L 19.459383 54.843432 L 19.459383 48.843432" stroke="gray" fill="white" stroke-width="1px"></path><path d="M 19.459383 42.843432 L 16.959383 42.843432 L 16.959383 48.843432 L 19.459383 48.843432 L 19.459383 42.843432" stroke="gray" fill="white" stroke-width="1px"></path><path d="M 19.459383 36.843432 L 16.959383 36.843432 L 16.959383 42.843432 L 19.459383 42.843432 L 19.459383 36.843432" stroke="gray" fill="white" stroke-width="1px"></path><path d="M 19.459383 30.843432 L 16.959383 30.843432 L 16.959383 36.843432 L 19.459383 36.843432 L 19.459383 30.843432" stroke="gray" fill="white" stroke-width="1px"></path><path d="M 19.459383 24.843432 L 16.959383 24.843432 L 16.959383 30.843432 L 19.459383 30.843432 L 19.459383 24.843432" stroke="gray" fill="white" stroke-width="1px"></path><path d="M 19.459383 18.843432 L 16.959383 18.843432 L 16.959383 24.843432 L 19.459383 24.843432 L 19.459383 18.843432" stroke="gray" fill="white" stroke-width="1px"></path><path d="M 19.459383 12.843432 L 16.959383 12.843432 L 16.959383 18.843432 L 19.459383 18.843432 L 19.459383 12.843432" stroke="gray" fill="white" stroke-width="1px"></path><path d="M 271.459383 45.220364 L 273.959383 45.220364 L 273.959383 51.220364 L 271.459383 51.220364 L 271.459383 45.220364" stroke="gray" fill="white" stroke-width="1px"></path><path d="M 271.459383 39.220364 L 273.959383 39.220364 L 273.959383 45.220364 L 271.459383 45.220364 L 271.459383 39.220364" stroke="gray" fill="white" stroke-width="1px"></path><path d="M 271.459383 33.220364 L 273.959383 33.220364 L 273.959383 39.220364 L 271.459383 39.220364 L 271.459383 33.220364" stroke="gray" fill="white" stroke-width="1px"></path><path d="M 259.459383 45.827485 L 261.959383 45.827485 L 261.959383 51.827485 L 259.459383 51.827485 L 259.459383 45.827485" stroke="gray" fill="white" stroke-width="1px"></path><path d="M 259.459383 39.827485 L 261.959383 39.827485 L 261.959383 45.827485 L 259.459383 45.827485 L 259.459383 39.827485" stroke="gray" fill="white" stroke-width="1px"></path><path d="M 259.459383 33.827485 L 261.959383 33.827485 L 261.959383 39.827485 L 259.459383 39.827485 L 259.459383 33.827485" stroke="gray" fill="white" stroke-width="1px"></path><path d="M 247.459383 46.434606 L 249.959383 46.434606 L 249.959383 52.434606 L 247.459383 52.434606 L 247.459383 46.434606" stroke="gray" fill="white" stroke-width="1px"></path><path d="M 247.459383 40.434606 L 249.959383 40.434606 L 249.959383 46.434606 L 247.459383 46.434606 L 247.459383 40.434606" stroke="gray" fill="white" stroke-width="1px"></path><path d="M 247.459383 34.434606 L 249.959383 34.434606 L 249.959383 40.434606 L 247.459383 40.434606 L 247.459383 34.434606" stroke="gray" fill="white" stroke-width="1px"></path><path d="M 235.459383 47.041727 L 237.959383 47.041727 L 237.959383 53.041727 L 235.459383 53.041727 L 235.459383 47.041727" stroke="gray" fill="white" stroke-width="1px"></path><path d="M 235.459383 41.041727 L 237.959383 41.041727 L 237.959383 47.041727 L 235.459383 47.041727 L 235.459383 41.041727" stroke="gray" fill="white" stroke-width="1px"></path><path d="M 235.459383 35.041727 L 237.959383 35.041727 L 237.959383 41.041727 L 235.459383 41.041727 L 235.459383 35.041727" stroke="gray" fill="white" stroke-width="1px"></path><path d="M 199.459383 89.033125 L 201.959383 89.033125 L 201.959383 95.033125 L 199.459383 95.033125 L 199.459383 89.033125" stroke="gray" fill="white" stroke-width="1px"></path><path d="M 199.459383 83.033125 L 201.959383 83.033125 L 201.959383 89.033125 L 199.459383 89.033125 L 199.459383 83.033125" stroke="gray" fill="white" stroke-width="1px"></path><path d="M 151.459383 101.033125 L 153.959383 101.033125 L 153.959383 107.033125 L 151.459383 107.033125 L 151.459383 101.033125" stroke="gray" fill="white" stroke-width="1px"></path><path d="M 151.459383 95.033125 L 153.959383 95.033125 L 153.959383 101.033125 L 151.459383 101.033125 L 151.459383 95.033125" stroke="gray" fill="white" stroke-width="1px"></path><path d="M 151.459383 89.033125 L 153.959383 89.033125 L 153.959383 95.033125 L 151.459383 95.033125 L 151.459383 89.033125" stroke="gray" fill="white" stroke-width="1px"></path><path d="M 151.459383 83.033125 L 153.959383 83.033125 L 153.959383 89.033125 L 151.459383 89.033125 L 151.459383 83.033125" stroke="gray" fill="white" stroke-width="1px"></path><path d="M 115.459383 101.033125 L 117.959383 101.033125 L 117.959383 107.033125 L 115.459383 107.033125 L 115.459383 101.033125" stroke="gray" fill="white" stroke-width="1px"></path><path d="M 115.459383 95.033125 L 117.959383 95.033125 L 117.959383 101.033125 L 115.459383 101.033125 L 115.459383 95.033125" stroke="gray" fill="white" stroke-width="1px"></path><path d="M 115.459383 89.033125 L 117.959383 89.033125 L 117.959383 95.033125 L 115.459383 95.033125 L 115.459383 89.033125" stroke="gray" fill="white" stroke-width="1px"></path><path d="M 115.459383 83.033125 L 117.959383 83.033125 L 117.959383 89.033125 L 115.459383 89.033125 L 115.459383 83.033125" stroke="gray" fill="white" stroke-width="1px"></path><path d="M 103.459383 101.033125 L 105.959383 101.033125 L 105.959383 107.033125 L 103.459383 107.033125 L 103.459383 101.033125" stroke="gray" fill="white" stroke-width="1px"></path><path d="M 103.459383 95.033125 L 105.959383 95.033125 L 105.959383 101.033125 L 103.459383 101.033125 L 103.459383 95.033125" stroke="gray" fill="white" stroke-width="1px"></path><path d="M 103.459383 89.033125 L 105.959383 89.033125 L 105.959383 95.033125 L 103.459383 95.033125 L 103.459383 89.033125" stroke="gray" fill="white" stroke-width="1px"></path><path d="M 103.459383 83.033125 L 105.959383 83.033125 L 105.959383 89.033125 L 103.459383 89.033125 L 103.459383 83.033125" stroke="gray" fill="white" stroke-width="1px"></path><path d="M 31.459383 48.351306 L 33.959383 48.351306 L 33.959383 54.351306 L 31.459383 54.351306 L 31.459383 48.351306" stroke="gray" fill="white" stroke-width="1px"></path><path d="M 31.459383 42.351306 L 33.959383 42.351306 L 33.959383 48.351306 L 31.459383 48.351306 L 31.459383 42.351306" stroke="gray" fill="white" stroke-width="1px"></path><path d="M 31.459383 36.351306 L 33.959383 36.351306 L 33.959383 42.351306 L 31.459383 42.351306 L 31.459383 36.351306" stroke="gray" fill="white" stroke-width="1px"></path><path d="M 31.459383 30.351306 L 33.959383 30.351306 L 33.959383 36.351306 L 31.459383 36.351306 L 31.459383 30.351306" stroke="gray" fill="white" stroke-width="1px"></path><path d="M 31.459383 24.351306 L 33.959383 24.351306 L 33.959383 30.351306 L 31.459383 30.351306 L 31.459383 24.351306" stroke="gray" fill="white" stroke-width="1px"></path><path d="M 31.459383 18.351306 L 33.959383 18.351306 L 33.959383 24.351306 L 31.459383 24.351306 L 31.459383 18.351306" stroke="gray" fill="white" stroke-width="1px"></path><path d="M 19.459383 48.843432 L 21.959383 48.843432 L 21.959383 54.843432 L 19.459383 54.843432 L 19.459383 48.843432" stroke="gray" fill="white" stroke-width="1px"></path><path d="M 19.459383 42.843432 L 21.959383 42.843432 L 21.959383 48.843432 L 19.459383 48.843432 L 19.459383 42.843432" stroke="gray" fill="white" stroke-width="1px"></path><path d="M 19.459383 36.843432 L 21.959383 36.843432 L 21.959383 42.843432 L 19.459383 42.843432 L 19.459383 36.843432" stroke="gray" fill="white" stroke-width="1px"></path><path d="M 19.459383 30.843432 L 21.959383 30.843432 L 21.959383 36.843432 L 19.459383 36.843432 L 19.459383 30.843432" stroke="gray" fill="white" stroke-width="1px"></path><path d="M 19.459383 24.843432 L 21.959383 24.843432 L 21.959383 30.843432 L 19.459383 30.843432 L 19.459383 24.843432" stroke="gray" fill="white" stroke-width="1px"></path><path d="M 19.459383 18.843432 L 21.959383 18.843432 L 21.959383 24.843432 L 19.459383 24.843432 L 19.459383 18.843432" stroke="gray" fill="white" stroke-width="1px"></path><path d="M 19.459383 12.843432 L 21.959383 12.843432 L 21.959383 18.843432 L 19.459383 18.843432 L 19.459383 12.843432" stroke="gray" fill="white" stroke-width="1px"></path><path d="M 259.407472 101.263579 L 259.407472 98.763579 L 253.407472 98.763579 L 253.407472 101.263579 L 259.407472 101.263579" stroke="gray" fill="white" stroke-width="1px"></path><path d="M 265.407472 101.263579 L 265.407472 98.763579 L 259.407472 98.763579 L 259.407472 101.263579 L 265.407472 101.263579" stroke="gray" fill="white" stroke-width="1px"></path><path d="M 271.407472 101.263579 L 271.407472 98.763579 L 265.407472 98.763579 L 265.407472 101.263579 L 271.407472 101.263579" stroke="gray" fill="white" stroke-width="1px"></path><path d="M 277.407472 101.263579 L 277.407472 98.763579 L 271.407472 98.763579 L 271.407472 101.263579 L 277.407472 101.263579" stroke="gray" fill="white" stroke-width="1px"></path><path d="M 256.060950 89.263579 L 256.060950 86.763579 L 250.060950 86.763579 L 250.060950 89.263579 L 256.060950 89.263579" stroke="gray" fill="white" stroke-width="1px"></path><path d="M 262.060950 89.263579 L 262.060950 86.763579 L 256.060950 86.763579 L 256.060950 89.263579 L 262.060950 89.263579" stroke="gray" fill="white" stroke-width="1px"></path><path d="M 268.060950 89.263579 L 268.060950 86.763579 L 262.060950 86.763579 L 262.060950 89.263579 L 268.060950 89.263579" stroke="gray" fill="white" stroke-width="1px"></path><path d="M 274.060950 89.263579 L 274.060950 86.763579 L 268.060950 86.763579 L 268.060950 89.263579 L 274.060950 89.263579" stroke="gray" fill="white" stroke-width="1px"></path><path d="M 252.714428 77.263579 L 252.714428 74.763579 L 246.714428 74.763579 L 246.714428 77.263579 L 252.714428 77.263579" stroke="gray" fill="white" stroke-width="1px"></path><path d="M 258.714428 77.263579 L 258.714428 74.763579 L 252.714428 74.763579 L 252.714428 77.263579 L 258.714428 77.263579" stroke="gray" fill="white" stroke-width="1px"></path><path d="M 264.714428 77.263579 L 264.714428 74.763579 L 258.714428 74.763579 L 258.714428 77.263579 L 264.714428 77.263579" stroke="gray" fill="white" stroke-width="1px"></path><path d="M 270.714428 77.263579 L 270.714428 74.763579 L 264.714428 74.763579 L 264.714428 77.263579 L 270.714428 77.263579" stroke="gray" fill="white" stroke-width="1px"></path><path d="M 276.714428 77.263579 L 276.714428 74.763579 L 270.714428 74.763579 L 270.714428 77.263579 L 276.714428 77.263579" stroke="gray" fill="white" stroke-width="1px"></path><path d="M 213.357302 101.263579 L 213.357302 98.763579 L 207.357302 98.763579 L 207.357302 101.263579 L 213.357302 101.263579" stroke="gray" fill="white" stroke-width="1px"></path><path d="M 219.357302 101.263579 L 219.357302 98.763579 L 213.357302 98.763579 L 213.357302 101.263579 L 219.357302 101.263579" stroke="gray" fill="white" stroke-width="1px"></path><path d="M 225.357302 101.263579 L 225.357302 98.763579 L 219.357302 98.763579 L 219.357302 101.263579 L 225.357302 101.263579" stroke="gray" fill="white" stroke-width="1px"></path><path d="M 215.347047 89.263579 L 215.347047 86.763579 L 209.347047 86.763579 L 209.347047 89.263579 L 215.347047 89.263579" stroke="gray" fill="white" stroke-width="1px"></path><path d="M 221.347047 89.263579 L 221.347047 86.763579 L 215.347047 86.763579 L 215.347047 89.263579 L 221.347047 89.263579" stroke="gray" fill="white" stroke-width="1px"></path><path d="M 22.000000 101.263579 L 22.000000 98.763579 L 16.000000 98.763579 L 16.000000 101.263579 L 22.000000 101.263579" stroke="gray" fill="white" stroke-width="1px"></path><path d="M 28.000000 101.263579 L 28.000000 98.763579 L 22.000000 98.763579 L 22.000000 101.263579 L 28.000000 101.263579" stroke="gray" fill="white" stroke-width="1px"></path><path d="M 34.000000 101.263579 L 34.000000 98.763579 L 28.000000 98.763579 L 28.000000 101.263579 L 34.000000 101.263579" stroke="gray" fill="white" stroke-width="1px"></path><path d="M 40.000000 101.263579 L 40.000000 98.763579 L 34.000000 98.763579 L 34.000000 101.263579 L 40.000000 101.263579" stroke="gray" fill="white" stroke-width="1px"></path><path d="M 46.000000 101.263579 L 46.000000 98.763579 L 40.000000 98.763579 L 40.000000 101.263579 L 46.000000 101.263579" stroke="gray" fill="white" stroke-width="1px"></path><path d="M 52.000000 101.263579 L 52.000000 98.763579 L 46.000000 98.763579 L 46.000000 101.263579 L 52.000000 101.263579" stroke="gray" fill="white" stroke-width="1px"></path><path d="M 58.000000 101.263579 L 58.000000 98.763579 L 52.000000 98.763579 L 52.000000 101.263579 L 58.000000 101.263579" stroke="gray" fill="white" stroke-width="1px"></path><path d="M 22.000000 89.263579 L 22.000000 86.763579 L 16.000000 86.763579 L 16.000000 89.263579 L 22.000000 89.263579" stroke="gray" fill="white" stroke-width="1px"></path><path d="M 28.000000 89.263579 L 28.000000 86.763579 L 22.000000 86.763579 L 22.000000 89.263579 L 28.000000 89.263579" stroke="gray" fill="white" stroke-width="1px"></path><path d="M 34.000000 89.263579 L 34.000000 86.763579 L 28.000000 86.763579 L 28.000000 89.263579 L 34.000000 89.263579" stroke="gray" fill="white" stroke-width="1px"></path><path d="M 40.000000 89.263579 L 40.000000 86.763579 L 34.000000 86.763579 L 34.000000 89.263579 L 40.000000 89.263579" stroke="gray" fill="white" stroke-width="1px"></path><path d="M 46.000000 89.263579 L 46.000000 86.763579 L 40.000000 86.763579 L 40.000000 89.263579 L 46.000000 89.263579" stroke="gray" fill="white" stroke-width="1px"></path><path d="M 52.000000 89.263579 L 52.000000 86.763579 L 46.000000 86.763579 L 46.000000 89.263579 L 52.000000 89.263579" stroke="gray" fill="white" stroke-width="1px"></path><path d="M 58.000000 89.263579 L 58.000000 86.763579 L 52.000000 86.763579 L 52.000000 89.263579 L 58.000000 89.263579" stroke="gray" fill="white" stroke-width="1px"></path><path d="M 22.000000 77.263579 L 22.000000 74.763579 L 16.000000 74.763579 L 16.000000 77.263579 L 22.000000 77.263579" stroke="gray" fill="white" stroke-width="1px"></path><path d="M 28.000000 77.263579 L 28.000000 74.763579 L 22.000000 74.763579 L 22.000000 77.263579 L 28.000000 77.263579" stroke="gray" fill="white" stroke-width="1px"></path><path d="M 34.000000 77.263579 L 34.000000 74.763579 L 28.000000 74.763579 L 28.000000 77.263579 L 34.000000 77.263579" stroke="gray" fill="white" stroke-width="1px"></path><path d="M 40.000000 77.263579 L 40.000000 74.763579 L 34.000000 74.763579 L 34.000000 77.263579 L 40.000000 77.263579" stroke="gray" fill="white" stroke-width="1px"></path><path d="M 46.000000 77.263579 L 46.000000 74.763579 L 40.000000 74.763579 L 40.000000 77.263579 L 46.000000 77.263579" stroke="gray" fill="white" stroke-width="1px"></path><path d="M 52.000000 77.263579 L 52.000000 74.763579 L 46.000000 74.763579 L 46.000000 77.263579 L 52.000000 77.263579" stroke="gray" fill="white" stroke-width="1px"></path><path d="M 58.000000 77.263579 L 58.000000 74.763579 L 52.000000 74.763579 L 52.000000 77.263579 L 58.000000 77.263579" stroke="gray" fill="white" stroke-width="1px"></path><path d="M 259.407472 101.263579 L 259.407472 103.763579 L 253.407472 103.763579 L 253.407472 101.263579 L 259.407472 101.263579" stroke="gray" fill="white" stroke-width="1px"></path><path d="M 265.407472 101.263579 L 265.407472 103.763579 L 259.407472 103.763579 L 259.407472 101.263579 L 265.407472 101.263579" stroke="gray" fill="white" stroke-width="1px"></path><path d="M 271.407472 101.263579 L 271.407472 103.763579 L 265.407472 103.763579 L 265.407472 101.263579 L 271.407472 101.263579" stroke="gray" fill="white" stroke-width="1px"></path><path d="M 277.407472 101.263579 L 277.407472 103.763579 L 271.407472 103.763579 L 271.407472 101.263579 L 277.407472 101.263579" stroke="gray" fill="white" stroke-width="1px"></path><path d="M 256.060950 89.263579 L 256.060950 91.763579 L 250.060950 91.763579 L 250.060950 89.263579 L 256.060950 89.263579" stroke="gray" fill="white" stroke-width="1px"></path><path d="M 262.060950 89.263579 L 262.060950 91.763579 L 256.060950 91.763579 L 256.060950 89.263579 L 262.060950 89.263579" stroke="gray" fill="white" stroke-width="1px"></path><path d="M 268.060950 89.263579 L 268.060950 91.763579 L 262.060950 91.763579 L 262.060950 89.263579 L 268.060950 89.263579" stroke="gray" fill="white" stroke-width="1px"></path><path d="M 274.060950 89.263579 L 274.060950 91.763579 L 268.060950 91.763579 L 268.060950 89.263579 L 274.060950 89.263579" stroke="gray" fill="white" stroke-width="1px"></path><path d="M 252.714428 77.263579 L 252.714428 79.763579 L 246.714428 79.763579 L 246.714428 77.263579 L 252.714428 77.263579" stroke="gray" fill="white" stroke-width="1px"></path><path d="M 258.714428 77.263579 L 258.714428 79.763579 L 252.714428 79.763579 L 252.714428 77.263579 L 258.714428 77.263579" stroke="gray" fill="white" stroke-width="1px"></path><path d="M 264.714428 77.263579 L 264.714428 79.763579 L 258.714428 79.763579 L 258.714428 77.263579 L 264.714428 77.263579" stroke="gray" fill="white" stroke-width="1px"></path><path d="M 270.714428 77.263579 L 270.714428 79.763579 L 264.714428 79.763579 L 264.714428 77.263579 L 270.714428 77.263579" stroke="gray" fill="white" stroke-width="1px"></path><path d="M 276.714428 77.263579 L 276.714428 79.763579 L 270.714428 79.763579 L 270.714428 77.263579 L 276.714428 77.263579" stroke="gray" fill="white" stroke-width="1px"></path><path d="M 213.357302 101.263579 L 213.357302 103.763579 L 207.357302 103.763579 L 207.357302 101.263579 L 213.357302 101.263579" stroke="gray" fill="white" stroke-width="1px"></path><path d="M 219.357302 101.263579 L 219.357302 103.763579 L 213.357302 103.763579 L 213.357302 101.263579 L 219.357302 101.263579" stroke="gray" fill="white" stroke-width="1px"></path><path d="M 225.357302 101.263579 L 225.357302 103.763579 L 219.357302 103.763579 L 219.357302 101.263579 L 225.357302 101.263579" stroke="gray" fill="white" stroke-width="1px"></path><path d="M 215.347047 89.263579 L 215.347047 91.763579 L 209.347047 91.763579 L 209.347047 89.263579 L 215.347047 89.263579" stroke="gray" fill="white" stroke-width="1px"></path><path d="M 221.347047 89.263579 L 221.347047 91.763579 L 215.347047 91.763579 L 215.347047 89.263579 L 221.347047 89.263579" stroke="gray" fill="white" stroke-width="1px"></path><path d="M 22.000000 101.263579 L 22.000000 103.763579 L 16.000000 103.763579 L 16.000000 101.263579 L 22.000000 101.263579" stroke="gray" fill="white" stroke-width="1px"></path><path d="M 28.000000 101.263579 L 28.000000 103.763579 L 22.000000 103.763579 L 22.000000 101.263579 L 28.000000 101.263579" stroke="gray" fill="white" stroke-width="1px"></path><path d="M 34.000000 101.263579 L 34.000000 103.763579 L 28.000000 103.763579 L 28.000000 101.263579 L 34.000000 101.263579" stroke="gray" fill="white" stroke-width="1px"></path><path d="M 40.000000 101.263579 L 40.000000 103.763579 L 34.000000 103.763579 L 34.000000 101.263579 L 40.000000 101.263579" stroke="gray" fill="white" stroke-width="1px"></path><path d="M 46.000000 101.263579 L 46.000000 103.763579 L 40.000000 103.763579 L 40.000000 101.263579 L 46.000000 101.263579" stroke="gray" fill="white" stroke-width="1px"></path><path d="M 52.000000 101.263579 L 52.000000 103.763579 L 46.000000 103.763579 L 46.000000 101.263579 L 52.000000 101.263579" stroke="gray" fill="white" stroke-width="1px"></path><path d="M 58.000000 101.263579 L 58.000000 103.763579 L 52.000000 103.763579 L 52.000000 101.263579 L 58.000000 101.263579" stroke="gray" fill="white" stroke-width="1px"></path><path d="M 22.000000 89.263579 L 22.000000 91.763579 L 16.000000 91.763579 L 16.000000 89.263579 L 22.000000 89.263579" stroke="gray" fill="white" stroke-width="1px"></path><path d="M 28.000000 89.263579 L 28.000000 91.763579 L 22.000000 91.763579 L 22.000000 89.263579 L 28.000000 89.263579" stroke="gray" fill="white" stroke-width="1px"></path><path d="M 34.000000 89.263579 L 34.000000 91.763579 L 28.000000 91.763579 L 28.000000 89.263579 L 34.000000 89.263579" stroke="gray" fill="white" stroke-width="1px"></path><path d="M 40.000000 89.263579 L 40.000000 91.763579 L 34.000000 91.763579 L 34.000000 89.263579 L 40.000000 89.263579" stroke="gray" fill="white" stroke-width="1px"></path><path d="M 46.000000 89.263579 L 46.000000 91.763579 L 40.000000 91.763579 L 40.000000 89.263579 L 46.000000 89.263579" stroke="gray" fill="white" stroke-width="1px"></path><path d="M 52.000000 89.263579 L 52.000000 91.763579 L 46.000000 91.763579 L 46.000000 89.263579 L 52.000000 89.263579" stroke="gray" fill="white" stroke-width="1px"></path><path d="M 58.000000 89.263579 L 58.000000 91.763579 L 52.000000 91.763579 L 52.000000 89.263579 L 58.000000 89.263579" stroke="gray" fill="white" stroke-width="1px"></path><path d="M 22.000000 77.263579 L 22.000000 79.763579 L 16.000000 79.763579 L 16.000000 77.263579 L 22.000000 77.263579" stroke="gray" fill="white" stroke-width="1px"></path><path d="M 28.000000 77.263579 L 28.000000 79.763579 L 22.000000 79.763579 L 22.000000 77.263579 L 28.000000 77.263579" stroke="gray" fill="white" stroke-width="1px"></path><path d="M 34.000000 77.263579 L 34.000000 79.763579 L 28.000000 79.763579 L 28.000000 77.263579 L 34.000000 77.263579" stroke="gray" fill="white" stroke-width="1px"></path><path d="M 40.000000 77.263579 L 40.000000 79.763579 L 34.000000 79.763579 L 34.000000 77.263579 L 40.000000 77.263579" stroke="gray" fill="white" stroke-width="1px"></path><path d="M 46.000000 77.263579 L 46.000000 79.763579 L 40.000000 79.763579 L 40.000000 77.263579 L 46.000000 77.263579" stroke="gray" fill="white" stroke-width="1px"></path><path d="M 52.000000 77.263579 L 52.000000 79.763579 L 46.000000 79.763579 L 46.000000 77.263579 L 52.000000 77.263579" stroke="gray" fill="white" stroke-width="1px"></path><path d="M 58.000000 77.263579 L 58.000000 79.763579 L 52.000000 79.763579 L 52.000000 77.263579 L 58.000000 77.263579" stroke="gray" fill="white" stroke-width="1px"></path></g><g id="crv-base"><path d="M 221.371570 123.090312 L 221.371570 169.241094 L 120.000633 169.241094 L 120.000633 156.444206 L 126.051258 156.444206 L 126.051258 128.832500 L 123.590320 128.832500 L 123.590320 125.551250 L 126.051258 125.551250 L 126.051258 123.858132 L 91.315945 123.858125 L 91.315945 134.738750 L 64.258762 134.738750 L 64.258762 123.687497 L 10.000000 123.687497 L 10.000000 226.180625 L 64.258758 226.180625 L 64.258758 192.357500 L 91.315945 192.357500 L 91.315945 220.123437 L 283.459383 220.123437 L 283.459383 123.090312 L 221.371570 123.090312" stroke="black" fill="none" stroke-width="1px"></path><path d="M 221.371570 10.000000 L 221.371570 56.150781 L 120.000633 56.150781 L 120.000633 43.353893 L 126.051258 43.353893 L 126.051258 15.742187 L 123.590320 15.742187 L 123.590320 12.460937 L 126.051258 12.460937 L 126.051258 10.767819 L 91.315945 10.767812 L 91.315945 21.648438 L 64.258762 21.648438 L 64.258762 10.597185 L 10.000000 10.597185 L 10.000000 113.090312 L 64.258758 113.090312 L 64.258758 79.267187 L 91.315945 79.267187 L 91.315945 107.033125 L 283.459383 107.033125 L 283.459383 10.000000 L 221.371570 10.000000" stroke="black" fill="none" stroke-width="1px"></path><path d="M 10.387195 156.559062 L 10.387195 154.590312 L 12.355945 154.590312 L 12.355945 156.559062 L 10.387195 156.559062" stroke="black" fill="white" stroke-width="1px"></path><path d="M 10.387195 43.468750 L 10.387195 41.500000 L 12.355945 41.500000 L 12.355945 43.468750 L 10.387195 43.468750" stroke="black" fill="white" stroke-width="1px"></path><path d="M 10.387195 188.059062 L 10.387195 186.090312 L 12.355945 186.090312 L 12.355945 188.059062 L 10.387195 188.059062" stroke="black" fill="white" stroke-width="1px"></path><path d="M 10.387195 74.968750 L 10.387195 73.000000 L 12.355945 73.000000 L 12.355945 74.968750 L 10.387195 74.968750" stroke="black" fill="white" stroke-width="1px"></path><path d="M 10.387195 219.559062 L 10.387195 217.590312 L 12.355945 217.590312 L 12.355945 219.559062 L 10.387195 219.559062" stroke="black" fill="white" stroke-width="1px"></path><path d="M 10.387195 106.468750 L 10.387195 104.500000 L 12.355945 104.500000 L 12.355945 106.468750 L 10.387195 106.468750" stroke="black" fill="white" stroke-width="1px"></path><path d="M 60.754383 128.340312 L 60.754383 125.387187 L 63.871570 125.387187 L 63.871570 128.340312 L 60.754383 128.340312" stroke="black" fill="white" stroke-width="1px"></path><path d="M 60.754383 15.250000 L 60.754383 12.296875 L 63.871570 12.296875 L 63.871570 15.250000 L 60.754383 15.250000" stroke="black" fill="white" stroke-width="1px"></path><path d="M 280.598133 219.230937 L 280.598133 217.262187 L 282.566883 217.262187 L 282.566883 219.230937 L 280.598133 219.230937" stroke="black" fill="white" stroke-width="1px"></path><path d="M 280.598133 106.140625 L 280.598133 104.171875 L 282.566883 104.171875 L 282.566883 106.140625 L 280.598133 106.140625" stroke="black" fill="white" stroke-width="1px"></path><path d="M 280.598133 188.059062 L 280.598133 186.090312 L 282.566883 186.090312 L 282.566883 188.059062 L 280.598133 188.059062" stroke="black" fill="white" stroke-width="1px"></path><path d="M 280.598133 74.968750 L 280.598133 73.000000 L 282.566883 73.000000 L 282.566883 74.968750 L 280.598133 74.968750" stroke="black" fill="white" stroke-width="1px"></path><path d="M 280.598133 156.559050 L 280.598133 154.590300 L 282.566883 154.590300 L 282.566883 156.559050 L 280.598133 156.559050" stroke="black" fill="white" stroke-width="1px"></path><path d="M 280.598133 43.468737 L 280.598133 41.499987 L 282.566883 41.499987 L 282.566883 43.468737 L 280.598133 43.468737" stroke="black" fill="white" stroke-width="1px"></path><path d="M 248.605945 127.355937 L 248.605945 123.418437 L 251.887195 123.418437 L 251.887195 127.355937 L 248.605945 127.355937" stroke="black" fill="white" stroke-width="1px"></path><path d="M 248.605945 14.265625 L 248.605945 10.328125 L 251.887195 10.328125 L 251.887195 14.265625 L 248.605945 14.265625" stroke="black" fill="white" stroke-width="1px"></path><path d="M 248.605945 157.871562 L 248.605945 153.934062 L 251.887195 153.934062 L 251.887195 157.871562 L 248.605945 157.871562" stroke="black" fill="white" stroke-width="1px"></path><path d="M 248.605945 44.781250 L 248.605945 40.843750 L 251.887195 40.843750 L 251.887195 44.781250 L 248.605945 44.781250" stroke="black" fill="white" stroke-width="1px"></path><path d="M 248.605945 189.043437 L 248.605945 185.105937 L 251.887195 185.105937 L 251.887195 189.043437 L 248.605945 189.043437" stroke="black" fill="white" stroke-width="1px"></path><path d="M 248.605945 75.953125 L 248.605945 72.015625 L 251.887195 72.015625 L 251.887195 75.953125 L 248.605945 75.953125" stroke="black" fill="white" stroke-width="1px"></path><path d="M 248.934070 219.230937 L 248.934070 216.277812 L 251.887195 216.277812 L 251.887195 219.230937 L 248.934070 219.230937" stroke="black" fill="white" stroke-width="1px"></path><path d="M 248.934070 106.140625 L 248.934070 103.187500 L 251.887195 103.187500 L 251.887195 106.140625 L 248.934070 106.140625" stroke="black" fill="white" stroke-width="1px"></path><path d="M 218.090320 189.043437 L 218.090320 185.105937 L 221.371570 185.105937 L 221.371570 189.043437 L 218.090320 189.043437" stroke="black" fill="white" stroke-width="1px"></path><path d="M 218.090320 75.953125 L 218.090320 72.015625 L 221.371570 72.015625 L 221.371570 75.953125 L 218.090320 75.953125" stroke="black" fill="white" stroke-width="1px"></path><path d="M 218.254383 219.230937 L 218.254383 216.277812 L 221.207508 216.277812 L 221.207508 219.230937 L 218.254383 219.230937" stroke="black" fill="white" stroke-width="1px"></path><path d="M 218.254383 106.140625 L 218.254383 103.187500 L 221.207508 103.187500 L 221.207508 106.140625 L 218.254383 106.140625" stroke="black" fill="white" stroke-width="1px"></path><path d="M 186.590320 189.043437 L 186.590320 185.105937 L 189.871570 185.105937 L 189.871570 189.043437 L 186.590320 189.043437" stroke="black" fill="white" stroke-width="1px"></path><path d="M 186.590320 75.953125 L 186.590320 72.015625 L 189.871570 72.015625 L 189.871570 75.953125 L 186.590320 75.953125" stroke="black" fill="white" stroke-width="1px"></path><path d="M 186.754383 219.230937 L 186.754383 216.277812 L 189.707508 216.277812 L 189.707508 219.230937 L 186.754383 219.230937" stroke="black" fill="white" stroke-width="1px"></path><path d="M 186.754383 106.140625 L 186.754383 103.187500 L 189.707508 103.187500 L 189.707508 106.140625 L 186.754383 106.140625" stroke="black" fill="white" stroke-width="1px"></path><path d="M 155.090320 189.043437 L 155.090320 185.105937 L 158.371570 185.105937 L 158.371570 189.043437 L 155.090320 189.043437" stroke="black" fill="white" stroke-width="1px"></path><path d="M 155.090320 75.953125 L 155.090320 72.015625 L 158.371570 72.015625 L 158.371570 75.953125 L 155.090320 75.953125" stroke="black" fill="white" stroke-width="1px"></path><path d="M 155.254383 219.230937 L 155.254383 216.277812 L 158.207508 216.277812 L 158.207508 219.230937 L 155.254383 219.230937" stroke="black" fill="white" stroke-width="1px"></path><path d="M 155.254383 106.140625 L 155.254383 103.187500 L 158.207508 103.187500 L 158.207508 106.140625 L 155.254383 106.140625" stroke="black" fill="white" stroke-width="1px"></path><path d="M 123.590320 189.043437 L 123.590320 185.105937 L 126.871570 185.105937 L 126.871570 189.043437 L 123.590320 189.043437" stroke="black" fill="white" stroke-width="1px"></path><path d="M 123.590320 75.953125 L 123.590320 72.015625 L 126.871570 72.015625 L 126.871570 75.953125 L 123.590320 75.953125" stroke="black" fill="white" stroke-width="1px"></path><path d="M 123.754383 219.230937 L 123.754383 216.277812 L 126.707508 216.277812 L 126.707508 219.230937 L 123.754383 219.230937" stroke="black" fill="white" stroke-width="1px"></path><path d="M 123.754383 106.140625 L 123.754383 103.187500 L 126.707508 103.187500 L 126.707508 106.140625 L 123.754383 106.140625" stroke="black" fill="white" stroke-width="1px"></path><path d="M 92.090320 157.543437 L 92.090320 153.605937 L 95.371570 153.605937 L 95.371570 157.543437 L 92.090320 157.543437" stroke="black" fill="white" stroke-width="1px"></path><path d="M 92.090320 44.453125 L 92.090320 40.515625 L 95.371570 40.515625 L 95.371570 44.453125 L 92.090320 44.453125" stroke="black" fill="white" stroke-width="1px"></path><path d="M 92.090320 189.043437 L 92.090320 185.105937 L 95.371570 185.105937 L 95.371570 189.043437 L 92.090320 189.043437" stroke="black" fill="white" stroke-width="1px"></path><path d="M 92.090320 75.953125 L 92.090320 72.015625 L 95.371570 72.015625 L 95.371570 75.953125 L 92.090320 75.953125" stroke="black" fill="white" stroke-width="1px"></path><path d="M 92.090320 128.504375 L 92.090320 125.551250 L 95.207508 125.551250 L 95.207508 128.504375 L 92.090320 128.504375" stroke="black" fill="white" stroke-width="1px"></path><path d="M 92.090320 15.414062 L 92.090320 12.460937 L 95.207508 12.460937 L 95.207508 15.414062 L 92.090320 15.414062" stroke="black" fill="white" stroke-width="1px"></path><path d="M 60.590320 157.215312 L 60.590320 153.934062 L 63.871570 153.934062 L 63.871570 157.215312 L 60.590320 157.215312" stroke="black" fill="white" stroke-width="1px"></path><path d="M 60.590320 44.125000 L 60.590320 40.843750 L 63.871570 40.843750 L 63.871570 44.125000 L 60.590320 44.125000" stroke="black" fill="white" stroke-width="1px"></path><path d="M 60.754383 219.230937 L 60.754383 216.277812 L 63.871570 216.277812 L 63.871570 219.230937 L 60.754383 219.230937" stroke="black" fill="white" stroke-width="1px"></path><path d="M 60.754383 106.140625 L 60.754383 103.187500 L 63.871570 103.187500 L 63.871570 106.140625 L 60.754383 106.140625" stroke="black" fill="white" stroke-width="1px"></path><path d="M 30.074695 128.504375 L 30.074695 125.223125 L 33.027820 125.223125 L 33.027820 128.504375 L 30.074695 128.504375" stroke="black" fill="white" stroke-width="1px"></path><path d="M 30.074695 15.414062 L 30.074695 12.132812 L 33.027820 12.132812 L 33.027820 15.414062 L 30.074695 15.414062" stroke="black" fill="white" stroke-width="1px"></path><path d="M 30.074695 157.215312 L 30.074695 153.934062 L 33.355945 153.934062 L 33.355945 157.215312 L 30.074695 157.215312" stroke="black" fill="white" stroke-width="1px"></path><path d="M 30.074695 44.125000 L 30.074695 40.843750 L 33.355945 40.843750 L 33.355945 44.125000 L 30.074695 44.125000" stroke="black" fill="white" stroke-width="1px"></path><path d="M 30.074695 188.715312 L 30.074695 185.434062 L 33.355945 185.434062 L 33.355945 188.715312 L 30.074695 188.715312" stroke="black" fill="white" stroke-width="1px"></path><path d="M 30.074695 75.625000 L 30.074695 72.343750 L 33.355945 72.343750 L 33.355945 75.625000 L 30.074695 75.625000" stroke="black" fill="white" stroke-width="1px"></path><path d="M 30.074695 219.230937 L 30.074695 216.277812 L 33.027820 216.277812 L 33.027820 219.230937 L 30.074695 219.230937" stroke="black" fill="white" stroke-width="1px"></path><path d="M 30.074695 106.140625 L 30.074695 103.187500 L 33.027820 103.187500 L 33.027820 106.140625 L 30.074695 106.140625" stroke="black" fill="white" stroke-width="1px"></path><path d="M 10.387195 127.191875 L 10.387195 125.223125 L 12.355945 125.223125 L 12.355945 127.191875 L 10.387195 127.191875" stroke="black" fill="white" stroke-width="1px"></path><path d="M 10.387195 14.101562 L 10.387195 12.132812 L 12.355945 12.132812 L 12.355945 14.101562 L 10.387195 14.101562" stroke="black" fill="white" stroke-width="1px"></path><path d="M 60.590320 189.863750 L 60.590320 185.434062 L 63.871570 185.434062 L 63.871570 188.715312 L 62.230945 188.715312 L 62.230945 189.863750 L 60.590320 189.863750" stroke="black" fill="white" stroke-width="1px"></path><path d="M 60.590320 76.773437 L 60.590320 72.343750 L 63.871570 72.343750 L 63.871570 75.625000 L 62.230945 75.625000 L 62.230945 76.773437 L 60.590320 76.773437" stroke="black" fill="white" stroke-width="1px"></path></g></svg>